%TF.FileFunction,Legend,Top*%
%FSLAX46Y46*%
G04 Gerber Fmt 4.6, Leading zero omitted, Abs format (unit mm)*
G04 Created by KiCad (PCBNEW (2015-03-04 BZR 5473)-product) date Donnerstag, 14. April 2016 'u11' 20:11:53*
%MOMM*%
G01*
G04 APERTURE LIST*
%ADD10C,0.100000*%
%ADD11C,0.300000*%
%ADD12C,0.150000*%
%ADD13C,0.304800*%
%ADD14C,0.381000*%
%ADD15C,0.203200*%
%ADD16C,1.397000*%
%ADD17R,1.727200X1.727200*%
%ADD18O,1.727200X1.727200*%
%ADD19C,1.501140*%
%ADD20R,1.727200X2.032000*%
%ADD21O,1.727200X2.032000*%
%ADD22R,2.032000X1.727200*%
%ADD23O,2.032000X1.727200*%
%ADD24C,1.676400*%
%ADD25O,1.600000X2.300000*%
%ADD26R,1.200000X1.200000*%
%ADD27C,1.200000*%
%ADD28C,2.000000*%
%ADD29R,2.499360X2.499360*%
%ADD30C,2.499360*%
%ADD31O,2.300000X1.600000*%
%ADD32C,1.524000*%
%ADD33C,2.700020*%
%ADD34R,3.500120X3.500120*%
%ADD35R,2.032000X2.032000*%
%ADD36O,2.032000X2.032000*%
%ADD37R,1.300000X1.300000*%
%ADD38C,1.300000*%
G04 APERTURE END LIST*
D10*
D11*
X83669429Y-76180143D02*
X84812286Y-76180143D01*
X84240857Y-76751571D02*
X84240857Y-75608714D01*
X86240858Y-75251571D02*
X85526572Y-75251571D01*
X85455143Y-75965857D01*
X85526572Y-75894429D01*
X85669429Y-75823000D01*
X86026572Y-75823000D01*
X86169429Y-75894429D01*
X86240858Y-75965857D01*
X86312286Y-76108714D01*
X86312286Y-76465857D01*
X86240858Y-76608714D01*
X86169429Y-76680143D01*
X86026572Y-76751571D01*
X85669429Y-76751571D01*
X85526572Y-76680143D01*
X85455143Y-76608714D01*
X86740857Y-75251571D02*
X87240857Y-76751571D01*
X87740857Y-75251571D01*
X85121714Y-52055143D02*
X85336000Y-52126571D01*
X85693143Y-52126571D01*
X85836000Y-52055143D01*
X85907429Y-51983714D01*
X85978857Y-51840857D01*
X85978857Y-51698000D01*
X85907429Y-51555143D01*
X85836000Y-51483714D01*
X85693143Y-51412286D01*
X85407429Y-51340857D01*
X85264571Y-51269429D01*
X85193143Y-51198000D01*
X85121714Y-51055143D01*
X85121714Y-50912286D01*
X85193143Y-50769429D01*
X85264571Y-50698000D01*
X85407429Y-50626571D01*
X85764571Y-50626571D01*
X85978857Y-50698000D01*
X86407428Y-51126571D02*
X86978857Y-51126571D01*
X86621714Y-50626571D02*
X86621714Y-51912286D01*
X86693142Y-52055143D01*
X86836000Y-52126571D01*
X86978857Y-52126571D01*
X88050285Y-52055143D02*
X87907428Y-52126571D01*
X87621714Y-52126571D01*
X87478857Y-52055143D01*
X87407428Y-51912286D01*
X87407428Y-51340857D01*
X87478857Y-51198000D01*
X87621714Y-51126571D01*
X87907428Y-51126571D01*
X88050285Y-51198000D01*
X88121714Y-51340857D01*
X88121714Y-51483714D01*
X87407428Y-51626571D01*
X89407428Y-52055143D02*
X89264571Y-52126571D01*
X88978857Y-52126571D01*
X88835999Y-52055143D01*
X88764571Y-51983714D01*
X88693142Y-51840857D01*
X88693142Y-51412286D01*
X88764571Y-51269429D01*
X88835999Y-51198000D01*
X88978857Y-51126571D01*
X89264571Y-51126571D01*
X89407428Y-51198000D01*
X90050285Y-52126571D02*
X90050285Y-50626571D01*
X90193142Y-51555143D02*
X90621713Y-52126571D01*
X90621713Y-51126571D02*
X90050285Y-51698000D01*
X91193142Y-52055143D02*
X91335999Y-52126571D01*
X91621714Y-52126571D01*
X91764571Y-52055143D01*
X91835999Y-51912286D01*
X91835999Y-51840857D01*
X91764571Y-51698000D01*
X91621714Y-51626571D01*
X91407428Y-51626571D01*
X91264571Y-51555143D01*
X91193142Y-51412286D01*
X91193142Y-51340857D01*
X91264571Y-51198000D01*
X91407428Y-51126571D01*
X91621714Y-51126571D01*
X91764571Y-51198000D01*
X93121714Y-52055143D02*
X92978857Y-52126571D01*
X92693143Y-52126571D01*
X92550285Y-52055143D01*
X92478857Y-51983714D01*
X92407428Y-51840857D01*
X92407428Y-51412286D01*
X92478857Y-51269429D01*
X92550285Y-51198000D01*
X92693143Y-51126571D01*
X92978857Y-51126571D01*
X93121714Y-51198000D01*
X93764571Y-52126571D02*
X93764571Y-50626571D01*
X94407428Y-52126571D02*
X94407428Y-51340857D01*
X94335999Y-51198000D01*
X94193142Y-51126571D01*
X93978857Y-51126571D01*
X93835999Y-51198000D01*
X93764571Y-51269429D01*
X94978857Y-51126571D02*
X95264571Y-52126571D01*
X95550285Y-51412286D01*
X95836000Y-52126571D01*
X96121714Y-51126571D01*
X97264571Y-52055143D02*
X97121714Y-52126571D01*
X96836000Y-52126571D01*
X96693143Y-52055143D01*
X96621714Y-51912286D01*
X96621714Y-51340857D01*
X96693143Y-51198000D01*
X96836000Y-51126571D01*
X97121714Y-51126571D01*
X97264571Y-51198000D01*
X97336000Y-51340857D01*
X97336000Y-51483714D01*
X96621714Y-51626571D01*
X97978857Y-52126571D02*
X97978857Y-51126571D01*
X97978857Y-50626571D02*
X97907428Y-50698000D01*
X97978857Y-50769429D01*
X98050285Y-50698000D01*
X97978857Y-50626571D01*
X97978857Y-50769429D01*
X98693143Y-51126571D02*
X98693143Y-52126571D01*
X98693143Y-51269429D02*
X98764571Y-51198000D01*
X98907429Y-51126571D01*
X99121714Y-51126571D01*
X99264571Y-51198000D01*
X99336000Y-51340857D01*
X99336000Y-52126571D01*
X102050286Y-51983714D02*
X101978857Y-52055143D01*
X101764571Y-52126571D01*
X101621714Y-52126571D01*
X101407429Y-52055143D01*
X101264571Y-51912286D01*
X101193143Y-51769429D01*
X101121714Y-51483714D01*
X101121714Y-51269429D01*
X101193143Y-50983714D01*
X101264571Y-50840857D01*
X101407429Y-50698000D01*
X101621714Y-50626571D01*
X101764571Y-50626571D01*
X101978857Y-50698000D01*
X102050286Y-50769429D01*
X102693143Y-52126571D02*
X102693143Y-50626571D01*
X103264571Y-50626571D01*
X103407429Y-50698000D01*
X103478857Y-50769429D01*
X103550286Y-50912286D01*
X103550286Y-51126571D01*
X103478857Y-51269429D01*
X103407429Y-51340857D01*
X103264571Y-51412286D01*
X102693143Y-51412286D01*
X104193143Y-50626571D02*
X104193143Y-51840857D01*
X104264571Y-51983714D01*
X104336000Y-52055143D01*
X104478857Y-52126571D01*
X104764571Y-52126571D01*
X104907429Y-52055143D01*
X104978857Y-51983714D01*
X105050286Y-51840857D01*
X105050286Y-50626571D01*
X106836000Y-50555143D02*
X105550286Y-52483714D01*
X107336001Y-52126571D02*
X107336001Y-50626571D01*
X107836001Y-51698000D01*
X108336001Y-50626571D01*
X108336001Y-52126571D01*
X109621715Y-52055143D02*
X109478858Y-52126571D01*
X109193144Y-52126571D01*
X109050287Y-52055143D01*
X108978858Y-51912286D01*
X108978858Y-51340857D01*
X109050287Y-51198000D01*
X109193144Y-51126571D01*
X109478858Y-51126571D01*
X109621715Y-51198000D01*
X109693144Y-51340857D01*
X109693144Y-51483714D01*
X108978858Y-51626571D01*
X110336001Y-52126571D02*
X110336001Y-51126571D01*
X110336001Y-51269429D02*
X110407429Y-51198000D01*
X110550287Y-51126571D01*
X110764572Y-51126571D01*
X110907429Y-51198000D01*
X110978858Y-51340857D01*
X110978858Y-52126571D01*
X110978858Y-51340857D02*
X111050287Y-51198000D01*
X111193144Y-51126571D01*
X111407429Y-51126571D01*
X111550287Y-51198000D01*
X111621715Y-51340857D01*
X111621715Y-52126571D01*
X112550287Y-52126571D02*
X112407429Y-52055143D01*
X112336001Y-51983714D01*
X112264572Y-51840857D01*
X112264572Y-51412286D01*
X112336001Y-51269429D01*
X112407429Y-51198000D01*
X112550287Y-51126571D01*
X112764572Y-51126571D01*
X112907429Y-51198000D01*
X112978858Y-51269429D01*
X113050287Y-51412286D01*
X113050287Y-51840857D01*
X112978858Y-51983714D01*
X112907429Y-52055143D01*
X112764572Y-52126571D01*
X112550287Y-52126571D01*
X113693144Y-52126571D02*
X113693144Y-51126571D01*
X113693144Y-51412286D02*
X113764572Y-51269429D01*
X113836001Y-51198000D01*
X113978858Y-51126571D01*
X114121715Y-51126571D01*
X114478858Y-51126571D02*
X114836001Y-52126571D01*
X115193143Y-51126571D02*
X114836001Y-52126571D01*
X114693143Y-52483714D01*
X114621715Y-52555143D01*
X114478858Y-52626571D01*
X117407429Y-51340857D02*
X117621715Y-51412286D01*
X117693143Y-51483714D01*
X117764572Y-51626571D01*
X117764572Y-51840857D01*
X117693143Y-51983714D01*
X117621715Y-52055143D01*
X117478857Y-52126571D01*
X116907429Y-52126571D01*
X116907429Y-50626571D01*
X117407429Y-50626571D01*
X117550286Y-50698000D01*
X117621715Y-50769429D01*
X117693143Y-50912286D01*
X117693143Y-51055143D01*
X117621715Y-51198000D01*
X117550286Y-51269429D01*
X117407429Y-51340857D01*
X116907429Y-51340857D01*
X118621715Y-52126571D02*
X118478857Y-52055143D01*
X118407429Y-51983714D01*
X118336000Y-51840857D01*
X118336000Y-51412286D01*
X118407429Y-51269429D01*
X118478857Y-51198000D01*
X118621715Y-51126571D01*
X118836000Y-51126571D01*
X118978857Y-51198000D01*
X119050286Y-51269429D01*
X119121715Y-51412286D01*
X119121715Y-51840857D01*
X119050286Y-51983714D01*
X118978857Y-52055143D01*
X118836000Y-52126571D01*
X118621715Y-52126571D01*
X120407429Y-52126571D02*
X120407429Y-51340857D01*
X120336000Y-51198000D01*
X120193143Y-51126571D01*
X119907429Y-51126571D01*
X119764572Y-51198000D01*
X120407429Y-52055143D02*
X120264572Y-52126571D01*
X119907429Y-52126571D01*
X119764572Y-52055143D01*
X119693143Y-51912286D01*
X119693143Y-51769429D01*
X119764572Y-51626571D01*
X119907429Y-51555143D01*
X120264572Y-51555143D01*
X120407429Y-51483714D01*
X121121715Y-52126571D02*
X121121715Y-51126571D01*
X121121715Y-51412286D02*
X121193143Y-51269429D01*
X121264572Y-51198000D01*
X121407429Y-51126571D01*
X121550286Y-51126571D01*
X122693143Y-52126571D02*
X122693143Y-50626571D01*
X122693143Y-52055143D02*
X122550286Y-52126571D01*
X122264572Y-52126571D01*
X122121714Y-52055143D01*
X122050286Y-51983714D01*
X121978857Y-51840857D01*
X121978857Y-51412286D01*
X122050286Y-51269429D01*
X122121714Y-51198000D01*
X122264572Y-51126571D01*
X122550286Y-51126571D01*
X122693143Y-51198000D01*
X124407429Y-51126571D02*
X124764572Y-52126571D01*
X125121714Y-51126571D01*
X126478857Y-52126571D02*
X125621714Y-52126571D01*
X126050286Y-52126571D02*
X126050286Y-50626571D01*
X125907429Y-50840857D01*
X125764571Y-50983714D01*
X125621714Y-51055143D01*
X127121714Y-51983714D02*
X127193142Y-52055143D01*
X127121714Y-52126571D01*
X127050285Y-52055143D01*
X127121714Y-51983714D01*
X127121714Y-52126571D01*
X128621714Y-52126571D02*
X127764571Y-52126571D01*
X128193143Y-52126571D02*
X128193143Y-50626571D01*
X128050286Y-50840857D01*
X127907428Y-50983714D01*
X127764571Y-51055143D01*
X85121714Y-53169429D02*
X85193143Y-53098000D01*
X85336000Y-53026571D01*
X85693143Y-53026571D01*
X85836000Y-53098000D01*
X85907429Y-53169429D01*
X85978857Y-53312286D01*
X85978857Y-53455143D01*
X85907429Y-53669429D01*
X85050286Y-54526571D01*
X85978857Y-54526571D01*
X86907428Y-53026571D02*
X87050285Y-53026571D01*
X87193142Y-53098000D01*
X87264571Y-53169429D01*
X87336000Y-53312286D01*
X87407428Y-53598000D01*
X87407428Y-53955143D01*
X87336000Y-54240857D01*
X87264571Y-54383714D01*
X87193142Y-54455143D01*
X87050285Y-54526571D01*
X86907428Y-54526571D01*
X86764571Y-54455143D01*
X86693142Y-54383714D01*
X86621714Y-54240857D01*
X86550285Y-53955143D01*
X86550285Y-53598000D01*
X86621714Y-53312286D01*
X86693142Y-53169429D01*
X86764571Y-53098000D01*
X86907428Y-53026571D01*
X88835999Y-54526571D02*
X87978856Y-54526571D01*
X88407428Y-54526571D02*
X88407428Y-53026571D01*
X88264571Y-53240857D01*
X88121713Y-53383714D01*
X87978856Y-53455143D01*
X90121713Y-53026571D02*
X89835999Y-53026571D01*
X89693142Y-53098000D01*
X89621713Y-53169429D01*
X89478856Y-53383714D01*
X89407427Y-53669429D01*
X89407427Y-54240857D01*
X89478856Y-54383714D01*
X89550284Y-54455143D01*
X89693142Y-54526571D01*
X89978856Y-54526571D01*
X90121713Y-54455143D01*
X90193142Y-54383714D01*
X90264570Y-54240857D01*
X90264570Y-53883714D01*
X90193142Y-53740857D01*
X90121713Y-53669429D01*
X89978856Y-53598000D01*
X89693142Y-53598000D01*
X89550284Y-53669429D01*
X89478856Y-53740857D01*
X89407427Y-53883714D01*
X91835998Y-53026571D02*
X92693141Y-53026571D01*
X92264570Y-54526571D02*
X92264570Y-53026571D01*
X93193141Y-54526571D02*
X93193141Y-53026571D01*
X93835998Y-54526571D02*
X93835998Y-53740857D01*
X93764569Y-53598000D01*
X93621712Y-53526571D01*
X93407427Y-53526571D01*
X93264569Y-53598000D01*
X93193141Y-53669429D01*
X94764570Y-54526571D02*
X94621712Y-54455143D01*
X94550284Y-54383714D01*
X94478855Y-54240857D01*
X94478855Y-53812286D01*
X94550284Y-53669429D01*
X94621712Y-53598000D01*
X94764570Y-53526571D01*
X94978855Y-53526571D01*
X95121712Y-53598000D01*
X95193141Y-53669429D01*
X95264570Y-53812286D01*
X95264570Y-54240857D01*
X95193141Y-54383714D01*
X95121712Y-54455143D01*
X94978855Y-54526571D01*
X94764570Y-54526571D01*
X95907427Y-54526571D02*
X95907427Y-53526571D01*
X95907427Y-53669429D02*
X95978855Y-53598000D01*
X96121713Y-53526571D01*
X96335998Y-53526571D01*
X96478855Y-53598000D01*
X96550284Y-53740857D01*
X96550284Y-54526571D01*
X96550284Y-53740857D02*
X96621713Y-53598000D01*
X96764570Y-53526571D01*
X96978855Y-53526571D01*
X97121713Y-53598000D01*
X97193141Y-53740857D01*
X97193141Y-54526571D01*
X98550284Y-54526571D02*
X98550284Y-53740857D01*
X98478855Y-53598000D01*
X98335998Y-53526571D01*
X98050284Y-53526571D01*
X97907427Y-53598000D01*
X98550284Y-54455143D02*
X98407427Y-54526571D01*
X98050284Y-54526571D01*
X97907427Y-54455143D01*
X97835998Y-54312286D01*
X97835998Y-54169429D01*
X97907427Y-54026571D01*
X98050284Y-53955143D01*
X98407427Y-53955143D01*
X98550284Y-53883714D01*
X99193141Y-54455143D02*
X99335998Y-54526571D01*
X99621713Y-54526571D01*
X99764570Y-54455143D01*
X99835998Y-54312286D01*
X99835998Y-54240857D01*
X99764570Y-54098000D01*
X99621713Y-54026571D01*
X99407427Y-54026571D01*
X99264570Y-53955143D01*
X99193141Y-53812286D01*
X99193141Y-53740857D01*
X99264570Y-53598000D01*
X99407427Y-53526571D01*
X99621713Y-53526571D01*
X99764570Y-53598000D01*
X101478856Y-53026571D02*
X101835999Y-54526571D01*
X102121713Y-53455143D01*
X102407427Y-54526571D01*
X102764570Y-53026571D01*
X103550285Y-54526571D02*
X103407427Y-54455143D01*
X103335999Y-54383714D01*
X103264570Y-54240857D01*
X103264570Y-53812286D01*
X103335999Y-53669429D01*
X103407427Y-53598000D01*
X103550285Y-53526571D01*
X103764570Y-53526571D01*
X103907427Y-53598000D01*
X103978856Y-53669429D01*
X104050285Y-53812286D01*
X104050285Y-54240857D01*
X103978856Y-54383714D01*
X103907427Y-54455143D01*
X103764570Y-54526571D01*
X103550285Y-54526571D01*
X104693142Y-54526571D02*
X104693142Y-53526571D01*
X104693142Y-53026571D02*
X104621713Y-53098000D01*
X104693142Y-53169429D01*
X104764570Y-53098000D01*
X104693142Y-53026571D01*
X104693142Y-53169429D01*
X105407428Y-53526571D02*
X105407428Y-54526571D01*
X105407428Y-53669429D02*
X105478856Y-53598000D01*
X105621714Y-53526571D01*
X105835999Y-53526571D01*
X105978856Y-53598000D01*
X106050285Y-53740857D01*
X106050285Y-54526571D01*
X106764571Y-54526571D02*
X106764571Y-53026571D01*
X106907428Y-53955143D02*
X107335999Y-54526571D01*
X107335999Y-53526571D02*
X106764571Y-54098000D01*
X108550285Y-54455143D02*
X108407428Y-54526571D01*
X108121714Y-54526571D01*
X107978857Y-54455143D01*
X107907428Y-54312286D01*
X107907428Y-53740857D01*
X107978857Y-53598000D01*
X108121714Y-53526571D01*
X108407428Y-53526571D01*
X108550285Y-53598000D01*
X108621714Y-53740857D01*
X108621714Y-53883714D01*
X107907428Y-54026571D01*
X111478856Y-52955143D02*
X110193142Y-54883714D01*
X113121714Y-54526571D02*
X113121714Y-53026571D01*
X113621714Y-54098000D01*
X114121714Y-53026571D01*
X114121714Y-54526571D01*
X115478857Y-54526571D02*
X115478857Y-53740857D01*
X115407428Y-53598000D01*
X115264571Y-53526571D01*
X114978857Y-53526571D01*
X114836000Y-53598000D01*
X115478857Y-54455143D02*
X115336000Y-54526571D01*
X114978857Y-54526571D01*
X114836000Y-54455143D01*
X114764571Y-54312286D01*
X114764571Y-54169429D01*
X114836000Y-54026571D01*
X114978857Y-53955143D01*
X115336000Y-53955143D01*
X115478857Y-53883714D01*
X116193143Y-54526571D02*
X116193143Y-53526571D01*
X116193143Y-53812286D02*
X116264571Y-53669429D01*
X116336000Y-53598000D01*
X116478857Y-53526571D01*
X116621714Y-53526571D01*
X117121714Y-54526571D02*
X117121714Y-53026571D01*
X117264571Y-53955143D02*
X117693142Y-54526571D01*
X117693142Y-53526571D02*
X117121714Y-54098000D01*
X118550286Y-54526571D02*
X118407428Y-54455143D01*
X118336000Y-54383714D01*
X118264571Y-54240857D01*
X118264571Y-53812286D01*
X118336000Y-53669429D01*
X118407428Y-53598000D01*
X118550286Y-53526571D01*
X118764571Y-53526571D01*
X118907428Y-53598000D01*
X118978857Y-53669429D01*
X119050286Y-53812286D01*
X119050286Y-54240857D01*
X118978857Y-54383714D01*
X118907428Y-54455143D01*
X118764571Y-54526571D01*
X118550286Y-54526571D01*
X121550286Y-54526571D02*
X120836000Y-54526571D01*
X120836000Y-53026571D01*
X122693143Y-54526571D02*
X122693143Y-53740857D01*
X122621714Y-53598000D01*
X122478857Y-53526571D01*
X122193143Y-53526571D01*
X122050286Y-53598000D01*
X122693143Y-54455143D02*
X122550286Y-54526571D01*
X122193143Y-54526571D01*
X122050286Y-54455143D01*
X121978857Y-54312286D01*
X121978857Y-54169429D01*
X122050286Y-54026571D01*
X122193143Y-53955143D01*
X122550286Y-53955143D01*
X122693143Y-53883714D01*
X124050286Y-53526571D02*
X124050286Y-54526571D01*
X123407429Y-53526571D02*
X123407429Y-54312286D01*
X123478857Y-54455143D01*
X123621715Y-54526571D01*
X123836000Y-54526571D01*
X123978857Y-54455143D01*
X124050286Y-54383714D01*
X124764572Y-54526571D02*
X124764572Y-53026571D01*
X124907429Y-53955143D02*
X125336000Y-54526571D01*
X125336000Y-53526571D02*
X124764572Y-54098000D01*
X126550286Y-54455143D02*
X126407429Y-54526571D01*
X126121715Y-54526571D01*
X125978858Y-54455143D01*
X125907429Y-54312286D01*
X125907429Y-53740857D01*
X125978858Y-53598000D01*
X126121715Y-53526571D01*
X126407429Y-53526571D01*
X126550286Y-53598000D01*
X126621715Y-53740857D01*
X126621715Y-53883714D01*
X125907429Y-54026571D01*
X85193143Y-56926571D02*
X85193143Y-55426571D01*
X85836000Y-56926571D02*
X85836000Y-56140857D01*
X85764571Y-55998000D01*
X85621714Y-55926571D01*
X85407429Y-55926571D01*
X85264571Y-55998000D01*
X85193143Y-56069429D01*
X86336000Y-55926571D02*
X86907429Y-55926571D01*
X86550286Y-55426571D02*
X86550286Y-56712286D01*
X86621714Y-56855143D01*
X86764572Y-56926571D01*
X86907429Y-56926571D01*
X87193143Y-55926571D02*
X87764572Y-55926571D01*
X87407429Y-55426571D02*
X87407429Y-56712286D01*
X87478857Y-56855143D01*
X87621715Y-56926571D01*
X87764572Y-56926571D01*
X88264572Y-55926571D02*
X88264572Y-57426571D01*
X88264572Y-55998000D02*
X88407429Y-55926571D01*
X88693143Y-55926571D01*
X88836000Y-55998000D01*
X88907429Y-56069429D01*
X88978858Y-56212286D01*
X88978858Y-56640857D01*
X88907429Y-56783714D01*
X88836000Y-56855143D01*
X88693143Y-56926571D01*
X88407429Y-56926571D01*
X88264572Y-56855143D01*
X89621715Y-56783714D02*
X89693143Y-56855143D01*
X89621715Y-56926571D01*
X89550286Y-56855143D01*
X89621715Y-56783714D01*
X89621715Y-56926571D01*
X89621715Y-55998000D02*
X89693143Y-56069429D01*
X89621715Y-56140857D01*
X89550286Y-56069429D01*
X89621715Y-55998000D01*
X89621715Y-56140857D01*
X91407429Y-55355143D02*
X90121715Y-57283714D01*
X92978858Y-55355143D02*
X91693144Y-57283714D01*
X93336002Y-55926571D02*
X93621716Y-56926571D01*
X93907430Y-56212286D01*
X94193145Y-56926571D01*
X94478859Y-55926571D01*
X94907431Y-55926571D02*
X95193145Y-56926571D01*
X95478859Y-56212286D01*
X95764574Y-56926571D01*
X96050288Y-55926571D01*
X96478860Y-55926571D02*
X96764574Y-56926571D01*
X97050288Y-56212286D01*
X97336003Y-56926571D01*
X97621717Y-55926571D01*
X98193146Y-56783714D02*
X98264574Y-56855143D01*
X98193146Y-56926571D01*
X98121717Y-56855143D01*
X98193146Y-56783714D01*
X98193146Y-56926571D01*
X98836003Y-56855143D02*
X98978860Y-56926571D01*
X99264575Y-56926571D01*
X99407432Y-56855143D01*
X99478860Y-56712286D01*
X99478860Y-56640857D01*
X99407432Y-56498000D01*
X99264575Y-56426571D01*
X99050289Y-56426571D01*
X98907432Y-56355143D01*
X98836003Y-56212286D01*
X98836003Y-56140857D01*
X98907432Y-55998000D01*
X99050289Y-55926571D01*
X99264575Y-55926571D01*
X99407432Y-55998000D01*
X99907432Y-55926571D02*
X100478861Y-55926571D01*
X100121718Y-55426571D02*
X100121718Y-56712286D01*
X100193146Y-56855143D01*
X100336004Y-56926571D01*
X100478861Y-56926571D01*
X101550289Y-56855143D02*
X101407432Y-56926571D01*
X101121718Y-56926571D01*
X100978861Y-56855143D01*
X100907432Y-56712286D01*
X100907432Y-56140857D01*
X100978861Y-55998000D01*
X101121718Y-55926571D01*
X101407432Y-55926571D01*
X101550289Y-55998000D01*
X101621718Y-56140857D01*
X101621718Y-56283714D01*
X100907432Y-56426571D01*
X102907432Y-56855143D02*
X102764575Y-56926571D01*
X102478861Y-56926571D01*
X102336003Y-56855143D01*
X102264575Y-56783714D01*
X102193146Y-56640857D01*
X102193146Y-56212286D01*
X102264575Y-56069429D01*
X102336003Y-55998000D01*
X102478861Y-55926571D01*
X102764575Y-55926571D01*
X102907432Y-55998000D01*
X103550289Y-56926571D02*
X103550289Y-55426571D01*
X103693146Y-56355143D02*
X104121717Y-56926571D01*
X104121717Y-55926571D02*
X103550289Y-56498000D01*
X104693146Y-56855143D02*
X104836003Y-56926571D01*
X105121718Y-56926571D01*
X105264575Y-56855143D01*
X105336003Y-56712286D01*
X105336003Y-56640857D01*
X105264575Y-56498000D01*
X105121718Y-56426571D01*
X104907432Y-56426571D01*
X104764575Y-56355143D01*
X104693146Y-56212286D01*
X104693146Y-56140857D01*
X104764575Y-55998000D01*
X104907432Y-55926571D01*
X105121718Y-55926571D01*
X105264575Y-55998000D01*
X106621718Y-56855143D02*
X106478861Y-56926571D01*
X106193147Y-56926571D01*
X106050289Y-56855143D01*
X105978861Y-56783714D01*
X105907432Y-56640857D01*
X105907432Y-56212286D01*
X105978861Y-56069429D01*
X106050289Y-55998000D01*
X106193147Y-55926571D01*
X106478861Y-55926571D01*
X106621718Y-55998000D01*
X107264575Y-56926571D02*
X107264575Y-55426571D01*
X107907432Y-56926571D02*
X107907432Y-56140857D01*
X107836003Y-55998000D01*
X107693146Y-55926571D01*
X107478861Y-55926571D01*
X107336003Y-55998000D01*
X107264575Y-56069429D01*
X108478861Y-55926571D02*
X108764575Y-56926571D01*
X109050289Y-56212286D01*
X109336004Y-56926571D01*
X109621718Y-55926571D01*
X110764575Y-56855143D02*
X110621718Y-56926571D01*
X110336004Y-56926571D01*
X110193147Y-56855143D01*
X110121718Y-56712286D01*
X110121718Y-56140857D01*
X110193147Y-55998000D01*
X110336004Y-55926571D01*
X110621718Y-55926571D01*
X110764575Y-55998000D01*
X110836004Y-56140857D01*
X110836004Y-56283714D01*
X110121718Y-56426571D01*
X111478861Y-56926571D02*
X111478861Y-55926571D01*
X111478861Y-55426571D02*
X111407432Y-55498000D01*
X111478861Y-55569429D01*
X111550289Y-55498000D01*
X111478861Y-55426571D01*
X111478861Y-55569429D01*
X112193147Y-55926571D02*
X112193147Y-56926571D01*
X112193147Y-56069429D02*
X112264575Y-55998000D01*
X112407433Y-55926571D01*
X112621718Y-55926571D01*
X112764575Y-55998000D01*
X112836004Y-56140857D01*
X112836004Y-56926571D01*
X113550290Y-56783714D02*
X113621718Y-56855143D01*
X113550290Y-56926571D01*
X113478861Y-56855143D01*
X113550290Y-56783714D01*
X113550290Y-56926571D01*
X114907433Y-56926571D02*
X114907433Y-55426571D01*
X114907433Y-56855143D02*
X114764576Y-56926571D01*
X114478862Y-56926571D01*
X114336004Y-56855143D01*
X114264576Y-56783714D01*
X114193147Y-56640857D01*
X114193147Y-56212286D01*
X114264576Y-56069429D01*
X114336004Y-55998000D01*
X114478862Y-55926571D01*
X114764576Y-55926571D01*
X114907433Y-55998000D01*
X116193147Y-56855143D02*
X116050290Y-56926571D01*
X115764576Y-56926571D01*
X115621719Y-56855143D01*
X115550290Y-56712286D01*
X115550290Y-56140857D01*
X115621719Y-55998000D01*
X115764576Y-55926571D01*
X116050290Y-55926571D01*
X116193147Y-55998000D01*
X116264576Y-56140857D01*
X116264576Y-56283714D01*
X115550290Y-56426571D01*
X117978861Y-55355143D02*
X116693147Y-57283714D01*
X158158571Y-68150715D02*
X156658571Y-68150715D01*
X158158571Y-67293572D01*
X156658571Y-67293572D01*
X156658571Y-66293572D02*
X156658571Y-66007858D01*
X156730000Y-65865000D01*
X156872857Y-65722143D01*
X157158571Y-65650715D01*
X157658571Y-65650715D01*
X157944286Y-65722143D01*
X158087143Y-65865000D01*
X158158571Y-66007858D01*
X158158571Y-66293572D01*
X158087143Y-66436429D01*
X157944286Y-66579286D01*
X157658571Y-66650715D01*
X157158571Y-66650715D01*
X156872857Y-66579286D01*
X156730000Y-66436429D01*
X156658571Y-66293572D01*
X158158571Y-65007857D02*
X156658571Y-65007857D01*
X158158571Y-64150714D01*
X156658571Y-64150714D01*
X157587143Y-63436428D02*
X157587143Y-62293571D01*
X156658571Y-61722142D02*
X158158571Y-61364999D01*
X157087143Y-61079285D01*
X158158571Y-60793571D01*
X156658571Y-60436428D01*
X158158571Y-59864999D02*
X156658571Y-59864999D01*
X156658571Y-59507856D01*
X156730000Y-59293571D01*
X156872857Y-59150713D01*
X157015714Y-59079285D01*
X157301429Y-59007856D01*
X157515714Y-59007856D01*
X157801429Y-59079285D01*
X157944286Y-59150713D01*
X158087143Y-59293571D01*
X158158571Y-59507856D01*
X158158571Y-59864999D01*
X158015714Y-57507856D02*
X158087143Y-57579285D01*
X158158571Y-57793571D01*
X158158571Y-57936428D01*
X158087143Y-58150713D01*
X157944286Y-58293571D01*
X157801429Y-58364999D01*
X157515714Y-58436428D01*
X157301429Y-58436428D01*
X157015714Y-58364999D01*
X156872857Y-58293571D01*
X156730000Y-58150713D01*
X156658571Y-57936428D01*
X156658571Y-57793571D01*
X156730000Y-57579285D01*
X156801429Y-57507856D01*
X161738571Y-68055857D02*
X163238571Y-67698714D01*
X162167143Y-67413000D01*
X163238571Y-67127286D01*
X161738571Y-66770143D01*
X163238571Y-66198714D02*
X161738571Y-66198714D01*
X161738571Y-65841571D01*
X161810000Y-65627286D01*
X161952857Y-65484428D01*
X162095714Y-65413000D01*
X162381429Y-65341571D01*
X162595714Y-65341571D01*
X162881429Y-65413000D01*
X163024286Y-65484428D01*
X163167143Y-65627286D01*
X163238571Y-65841571D01*
X163238571Y-66198714D01*
X163095714Y-63841571D02*
X163167143Y-63913000D01*
X163238571Y-64127286D01*
X163238571Y-64270143D01*
X163167143Y-64484428D01*
X163024286Y-64627286D01*
X162881429Y-64698714D01*
X162595714Y-64770143D01*
X162381429Y-64770143D01*
X162095714Y-64698714D01*
X161952857Y-64627286D01*
X161810000Y-64484428D01*
X161738571Y-64270143D01*
X161738571Y-64127286D01*
X161810000Y-63913000D01*
X161881429Y-63841571D01*
X153078571Y-58625715D02*
X151578571Y-58625715D01*
X153078571Y-57768572D01*
X151578571Y-57768572D01*
X151578571Y-56768572D02*
X151578571Y-56482858D01*
X151650000Y-56340000D01*
X151792857Y-56197143D01*
X152078571Y-56125715D01*
X152578571Y-56125715D01*
X152864286Y-56197143D01*
X153007143Y-56340000D01*
X153078571Y-56482858D01*
X153078571Y-56768572D01*
X153007143Y-56911429D01*
X152864286Y-57054286D01*
X152578571Y-57125715D01*
X152078571Y-57125715D01*
X151792857Y-57054286D01*
X151650000Y-56911429D01*
X151578571Y-56768572D01*
X153078571Y-55482857D02*
X151578571Y-55482857D01*
X153078571Y-54625714D01*
X151578571Y-54625714D01*
X152507143Y-53911428D02*
X152507143Y-52768571D01*
X151578571Y-52197142D02*
X153078571Y-51839999D01*
X152007143Y-51554285D01*
X153078571Y-51268571D01*
X151578571Y-50911428D01*
X153078571Y-50339999D02*
X151578571Y-50339999D01*
X151578571Y-49982856D01*
X151650000Y-49768571D01*
X151792857Y-49625713D01*
X151935714Y-49554285D01*
X152221429Y-49482856D01*
X152435714Y-49482856D01*
X152721429Y-49554285D01*
X152864286Y-49625713D01*
X153007143Y-49768571D01*
X153078571Y-49982856D01*
X153078571Y-50339999D01*
X152935714Y-47982856D02*
X153007143Y-48054285D01*
X153078571Y-48268571D01*
X153078571Y-48411428D01*
X153007143Y-48625713D01*
X152864286Y-48768571D01*
X152721429Y-48839999D01*
X152435714Y-48911428D01*
X152221429Y-48911428D01*
X151935714Y-48839999D01*
X151792857Y-48768571D01*
X151650000Y-48625713D01*
X151578571Y-48411428D01*
X151578571Y-48268571D01*
X151650000Y-48054285D01*
X151721429Y-47982856D01*
X154118571Y-59292857D02*
X155618571Y-58935714D01*
X154547143Y-58650000D01*
X155618571Y-58364286D01*
X154118571Y-58007143D01*
X155618571Y-57435714D02*
X154118571Y-57435714D01*
X154118571Y-57078571D01*
X154190000Y-56864286D01*
X154332857Y-56721428D01*
X154475714Y-56650000D01*
X154761429Y-56578571D01*
X154975714Y-56578571D01*
X155261429Y-56650000D01*
X155404286Y-56721428D01*
X155547143Y-56864286D01*
X155618571Y-57078571D01*
X155618571Y-57435714D01*
X155475714Y-55078571D02*
X155547143Y-55150000D01*
X155618571Y-55364286D01*
X155618571Y-55507143D01*
X155547143Y-55721428D01*
X155404286Y-55864286D01*
X155261429Y-55935714D01*
X154975714Y-56007143D01*
X154761429Y-56007143D01*
X154475714Y-55935714D01*
X154332857Y-55864286D01*
X154190000Y-55721428D01*
X154118571Y-55507143D01*
X154118571Y-55364286D01*
X154190000Y-55150000D01*
X154261429Y-55078571D01*
D12*
X91440000Y-115570000D02*
X91948000Y-115570000D01*
X99060000Y-115570000D02*
X98552000Y-115570000D01*
X98552000Y-115570000D02*
X98552000Y-114554000D01*
X98552000Y-114554000D02*
X91948000Y-114554000D01*
X91948000Y-114554000D02*
X91948000Y-116586000D01*
X91948000Y-116586000D02*
X98552000Y-116586000D01*
X98552000Y-116586000D02*
X98552000Y-115570000D01*
X91948000Y-115062000D02*
X92456000Y-114554000D01*
X216789000Y-65659000D02*
X216281000Y-65659000D01*
X216789000Y-65151000D02*
X216281000Y-65151000D01*
X216789000Y-82931000D02*
X216281000Y-82931000D01*
X216789000Y-83439000D02*
X216281000Y-83439000D01*
X216789000Y-85471000D02*
X216281000Y-85471000D01*
X216789000Y-85979000D02*
X216281000Y-85979000D01*
X216789000Y-80899000D02*
X216281000Y-80899000D01*
X216789000Y-80391000D02*
X216281000Y-80391000D01*
X216789000Y-78359000D02*
X216281000Y-78359000D01*
X216789000Y-77851000D02*
X216281000Y-77851000D01*
X216789000Y-67691000D02*
X216281000Y-67691000D01*
X216789000Y-68199000D02*
X216281000Y-68199000D01*
X216789000Y-70231000D02*
X216281000Y-70231000D01*
X216789000Y-70739000D02*
X216281000Y-70739000D01*
X216789000Y-75819000D02*
X216281000Y-75819000D01*
X216789000Y-75311000D02*
X216281000Y-75311000D01*
X216789000Y-73279000D02*
X216281000Y-73279000D01*
X216789000Y-72771000D02*
X216281000Y-72771000D01*
X216789000Y-113411000D02*
X216281000Y-113411000D01*
X216789000Y-113919000D02*
X216281000Y-113919000D01*
X216789000Y-115951000D02*
X216281000Y-115951000D01*
X216789000Y-116459000D02*
X216281000Y-116459000D01*
X216789000Y-111379000D02*
X216281000Y-111379000D01*
X216789000Y-110871000D02*
X216281000Y-110871000D01*
X216789000Y-108839000D02*
X216281000Y-108839000D01*
X216789000Y-108331000D02*
X216281000Y-108331000D01*
X216789000Y-118491000D02*
X216281000Y-118491000D01*
X216789000Y-118999000D02*
X216281000Y-118999000D01*
X216789000Y-121031000D02*
X216281000Y-121031000D01*
X216789000Y-121539000D02*
X216281000Y-121539000D01*
X216789000Y-126619000D02*
X216281000Y-126619000D01*
X216789000Y-126111000D02*
X216281000Y-126111000D01*
X216789000Y-124079000D02*
X216281000Y-124079000D01*
X216789000Y-123571000D02*
X216281000Y-123571000D01*
X216789000Y-103251000D02*
X216281000Y-103251000D01*
X216789000Y-103759000D02*
X216281000Y-103759000D01*
X216789000Y-105791000D02*
X216281000Y-105791000D01*
X216789000Y-106299000D02*
X216281000Y-106299000D01*
X216789000Y-101219000D02*
X216281000Y-101219000D01*
X216789000Y-100711000D02*
X216281000Y-100711000D01*
X216789000Y-98679000D02*
X216281000Y-98679000D01*
X216789000Y-98171000D02*
X216281000Y-98171000D01*
X216789000Y-88011000D02*
X216281000Y-88011000D01*
X216789000Y-88519000D02*
X216281000Y-88519000D01*
X216789000Y-90551000D02*
X216281000Y-90551000D01*
X216789000Y-91059000D02*
X216281000Y-91059000D01*
X216789000Y-96139000D02*
X216281000Y-96139000D01*
X216789000Y-95631000D02*
X216281000Y-95631000D01*
X216789000Y-93599000D02*
X216281000Y-93599000D01*
X216789000Y-93091000D02*
X216281000Y-93091000D01*
X219329000Y-110871000D02*
X218821000Y-110871000D01*
X219329000Y-111379000D02*
X218821000Y-111379000D01*
X219329000Y-113411000D02*
X218821000Y-113411000D01*
X219329000Y-113919000D02*
X218821000Y-113919000D01*
X219329000Y-108839000D02*
X218821000Y-108839000D01*
X219329000Y-108331000D02*
X218821000Y-108331000D01*
X219329000Y-106299000D02*
X218821000Y-106299000D01*
X219329000Y-105791000D02*
X218821000Y-105791000D01*
X219329000Y-115951000D02*
X218821000Y-115951000D01*
X219329000Y-116459000D02*
X218821000Y-116459000D01*
X219329000Y-118491000D02*
X218821000Y-118491000D01*
X219329000Y-118999000D02*
X218821000Y-118999000D01*
X219329000Y-124079000D02*
X218821000Y-124079000D01*
X219329000Y-123571000D02*
X218821000Y-123571000D01*
X219329000Y-121539000D02*
X218821000Y-121539000D01*
X219329000Y-121031000D02*
X218821000Y-121031000D01*
X219329000Y-126111000D02*
X218821000Y-126111000D01*
X219329000Y-126619000D02*
X218821000Y-126619000D01*
X219329000Y-90551000D02*
X218821000Y-90551000D01*
X219329000Y-91059000D02*
X218821000Y-91059000D01*
X219329000Y-93091000D02*
X218821000Y-93091000D01*
X219329000Y-93599000D02*
X218821000Y-93599000D01*
X219329000Y-88519000D02*
X218821000Y-88519000D01*
X219329000Y-88011000D02*
X218821000Y-88011000D01*
X219329000Y-85979000D02*
X218821000Y-85979000D01*
X219329000Y-85471000D02*
X218821000Y-85471000D01*
X219329000Y-95631000D02*
X218821000Y-95631000D01*
X219329000Y-96139000D02*
X218821000Y-96139000D01*
X219329000Y-98171000D02*
X218821000Y-98171000D01*
X219329000Y-98679000D02*
X218821000Y-98679000D01*
X219329000Y-103759000D02*
X218821000Y-103759000D01*
X219329000Y-103251000D02*
X218821000Y-103251000D01*
X219329000Y-101219000D02*
X218821000Y-101219000D01*
X219329000Y-100711000D02*
X218821000Y-100711000D01*
X219329000Y-80391000D02*
X218821000Y-80391000D01*
X219329000Y-80899000D02*
X218821000Y-80899000D01*
X219329000Y-82931000D02*
X218821000Y-82931000D01*
X219329000Y-83439000D02*
X218821000Y-83439000D01*
X219329000Y-78359000D02*
X218821000Y-78359000D01*
X219329000Y-77851000D02*
X218821000Y-77851000D01*
X219329000Y-75819000D02*
X218821000Y-75819000D01*
X219329000Y-75311000D02*
X218821000Y-75311000D01*
X219329000Y-65151000D02*
X218821000Y-65151000D01*
X219329000Y-65659000D02*
X218821000Y-65659000D01*
X219329000Y-67691000D02*
X218821000Y-67691000D01*
X219329000Y-68199000D02*
X218821000Y-68199000D01*
X219329000Y-73279000D02*
X218821000Y-73279000D01*
X219329000Y-72771000D02*
X218821000Y-72771000D01*
X219329000Y-70739000D02*
X218821000Y-70739000D01*
X219329000Y-70231000D02*
X218821000Y-70231000D01*
X219329000Y-64135000D02*
X221869000Y-66675000D01*
X221869000Y-64135000D02*
X219329000Y-66675000D01*
X221869000Y-65278000D02*
X227838000Y-65278000D01*
X227838000Y-65278000D02*
X227838000Y-65532000D01*
X227838000Y-65532000D02*
X221996000Y-65532000D01*
X221996000Y-65532000D02*
X221996000Y-65405000D01*
X221996000Y-65405000D02*
X227838000Y-65405000D01*
X219329000Y-104775000D02*
X221869000Y-104775000D01*
X219329000Y-104775000D02*
X219329000Y-107315000D01*
X219329000Y-107315000D02*
X221869000Y-107315000D01*
X221869000Y-105791000D02*
X227965000Y-105791000D01*
X227965000Y-105791000D02*
X227965000Y-106299000D01*
X227965000Y-106299000D02*
X221869000Y-106299000D01*
X221869000Y-107315000D02*
X221869000Y-104775000D01*
X221869000Y-109855000D02*
X221869000Y-107315000D01*
X227965000Y-108839000D02*
X221869000Y-108839000D01*
X227965000Y-108331000D02*
X227965000Y-108839000D01*
X221869000Y-108331000D02*
X227965000Y-108331000D01*
X219329000Y-109855000D02*
X221869000Y-109855000D01*
X219329000Y-107315000D02*
X219329000Y-109855000D01*
X219329000Y-107315000D02*
X221869000Y-107315000D01*
X219329000Y-112395000D02*
X221869000Y-112395000D01*
X219329000Y-112395000D02*
X219329000Y-114935000D01*
X219329000Y-114935000D02*
X221869000Y-114935000D01*
X221869000Y-113411000D02*
X227965000Y-113411000D01*
X227965000Y-113411000D02*
X227965000Y-113919000D01*
X227965000Y-113919000D02*
X221869000Y-113919000D01*
X221869000Y-114935000D02*
X221869000Y-112395000D01*
X221869000Y-112395000D02*
X221869000Y-109855000D01*
X227965000Y-111379000D02*
X221869000Y-111379000D01*
X227965000Y-110871000D02*
X227965000Y-111379000D01*
X221869000Y-110871000D02*
X227965000Y-110871000D01*
X219329000Y-112395000D02*
X221869000Y-112395000D01*
X219329000Y-109855000D02*
X219329000Y-112395000D01*
X219329000Y-109855000D02*
X221869000Y-109855000D01*
X219329000Y-120015000D02*
X221869000Y-120015000D01*
X219329000Y-120015000D02*
X219329000Y-122555000D01*
X219329000Y-122555000D02*
X221869000Y-122555000D01*
X221869000Y-121031000D02*
X227965000Y-121031000D01*
X227965000Y-121031000D02*
X227965000Y-121539000D01*
X227965000Y-121539000D02*
X221869000Y-121539000D01*
X221869000Y-122555000D02*
X221869000Y-120015000D01*
X221869000Y-125095000D02*
X221869000Y-122555000D01*
X227965000Y-124079000D02*
X221869000Y-124079000D01*
X227965000Y-123571000D02*
X227965000Y-124079000D01*
X221869000Y-123571000D02*
X227965000Y-123571000D01*
X219329000Y-125095000D02*
X221869000Y-125095000D01*
X219329000Y-122555000D02*
X219329000Y-125095000D01*
X219329000Y-122555000D02*
X221869000Y-122555000D01*
X219329000Y-117475000D02*
X221869000Y-117475000D01*
X219329000Y-117475000D02*
X219329000Y-120015000D01*
X219329000Y-120015000D02*
X221869000Y-120015000D01*
X221869000Y-118491000D02*
X227965000Y-118491000D01*
X227965000Y-118491000D02*
X227965000Y-118999000D01*
X227965000Y-118999000D02*
X221869000Y-118999000D01*
X221869000Y-120015000D02*
X221869000Y-117475000D01*
X221869000Y-117475000D02*
X221869000Y-114935000D01*
X227965000Y-116459000D02*
X221869000Y-116459000D01*
X227965000Y-115951000D02*
X227965000Y-116459000D01*
X221869000Y-115951000D02*
X227965000Y-115951000D01*
X219329000Y-117475000D02*
X221869000Y-117475000D01*
X219329000Y-114935000D02*
X219329000Y-117475000D01*
X219329000Y-114935000D02*
X221869000Y-114935000D01*
X221869000Y-127635000D02*
X221869000Y-125095000D01*
X227965000Y-126619000D02*
X221869000Y-126619000D01*
X227965000Y-126111000D02*
X227965000Y-126619000D01*
X221869000Y-126111000D02*
X227965000Y-126111000D01*
X219329000Y-127635000D02*
X221869000Y-127635000D01*
X219329000Y-125095000D02*
X219329000Y-127635000D01*
X219329000Y-125095000D02*
X221869000Y-125095000D01*
X219329000Y-84455000D02*
X221869000Y-84455000D01*
X219329000Y-84455000D02*
X219329000Y-86995000D01*
X219329000Y-86995000D02*
X221869000Y-86995000D01*
X221869000Y-85471000D02*
X227965000Y-85471000D01*
X227965000Y-85471000D02*
X227965000Y-85979000D01*
X227965000Y-85979000D02*
X221869000Y-85979000D01*
X221869000Y-86995000D02*
X221869000Y-84455000D01*
X221869000Y-89535000D02*
X221869000Y-86995000D01*
X227965000Y-88519000D02*
X221869000Y-88519000D01*
X227965000Y-88011000D02*
X227965000Y-88519000D01*
X221869000Y-88011000D02*
X227965000Y-88011000D01*
X219329000Y-89535000D02*
X221869000Y-89535000D01*
X219329000Y-86995000D02*
X219329000Y-89535000D01*
X219329000Y-86995000D02*
X221869000Y-86995000D01*
X219329000Y-92075000D02*
X221869000Y-92075000D01*
X219329000Y-92075000D02*
X219329000Y-94615000D01*
X219329000Y-94615000D02*
X221869000Y-94615000D01*
X221869000Y-93091000D02*
X227965000Y-93091000D01*
X227965000Y-93091000D02*
X227965000Y-93599000D01*
X227965000Y-93599000D02*
X221869000Y-93599000D01*
X221869000Y-94615000D02*
X221869000Y-92075000D01*
X221869000Y-92075000D02*
X221869000Y-89535000D01*
X227965000Y-91059000D02*
X221869000Y-91059000D01*
X227965000Y-90551000D02*
X227965000Y-91059000D01*
X221869000Y-90551000D02*
X227965000Y-90551000D01*
X219329000Y-92075000D02*
X221869000Y-92075000D01*
X219329000Y-89535000D02*
X219329000Y-92075000D01*
X219329000Y-89535000D02*
X221869000Y-89535000D01*
X219329000Y-99695000D02*
X221869000Y-99695000D01*
X219329000Y-99695000D02*
X219329000Y-102235000D01*
X219329000Y-102235000D02*
X221869000Y-102235000D01*
X221869000Y-100711000D02*
X227965000Y-100711000D01*
X227965000Y-100711000D02*
X227965000Y-101219000D01*
X227965000Y-101219000D02*
X221869000Y-101219000D01*
X221869000Y-102235000D02*
X221869000Y-99695000D01*
X221869000Y-104775000D02*
X221869000Y-102235000D01*
X227965000Y-103759000D02*
X221869000Y-103759000D01*
X227965000Y-103251000D02*
X227965000Y-103759000D01*
X221869000Y-103251000D02*
X227965000Y-103251000D01*
X219329000Y-104775000D02*
X221869000Y-104775000D01*
X219329000Y-102235000D02*
X219329000Y-104775000D01*
X219329000Y-102235000D02*
X221869000Y-102235000D01*
X219329000Y-97155000D02*
X221869000Y-97155000D01*
X219329000Y-97155000D02*
X219329000Y-99695000D01*
X219329000Y-99695000D02*
X221869000Y-99695000D01*
X221869000Y-98171000D02*
X227965000Y-98171000D01*
X227965000Y-98171000D02*
X227965000Y-98679000D01*
X227965000Y-98679000D02*
X221869000Y-98679000D01*
X221869000Y-99695000D02*
X221869000Y-97155000D01*
X221869000Y-97155000D02*
X221869000Y-94615000D01*
X227965000Y-96139000D02*
X221869000Y-96139000D01*
X227965000Y-95631000D02*
X227965000Y-96139000D01*
X221869000Y-95631000D02*
X227965000Y-95631000D01*
X219329000Y-97155000D02*
X221869000Y-97155000D01*
X219329000Y-94615000D02*
X219329000Y-97155000D01*
X219329000Y-94615000D02*
X221869000Y-94615000D01*
X219329000Y-74295000D02*
X221869000Y-74295000D01*
X219329000Y-74295000D02*
X219329000Y-76835000D01*
X219329000Y-76835000D02*
X221869000Y-76835000D01*
X221869000Y-75311000D02*
X227965000Y-75311000D01*
X227965000Y-75311000D02*
X227965000Y-75819000D01*
X227965000Y-75819000D02*
X221869000Y-75819000D01*
X221869000Y-76835000D02*
X221869000Y-74295000D01*
X221869000Y-79375000D02*
X221869000Y-76835000D01*
X227965000Y-78359000D02*
X221869000Y-78359000D01*
X227965000Y-77851000D02*
X227965000Y-78359000D01*
X221869000Y-77851000D02*
X227965000Y-77851000D01*
X219329000Y-79375000D02*
X221869000Y-79375000D01*
X219329000Y-76835000D02*
X219329000Y-79375000D01*
X219329000Y-76835000D02*
X221869000Y-76835000D01*
X219329000Y-81915000D02*
X221869000Y-81915000D01*
X219329000Y-81915000D02*
X219329000Y-84455000D01*
X219329000Y-84455000D02*
X221869000Y-84455000D01*
X221869000Y-82931000D02*
X227965000Y-82931000D01*
X227965000Y-82931000D02*
X227965000Y-83439000D01*
X227965000Y-83439000D02*
X221869000Y-83439000D01*
X221869000Y-84455000D02*
X221869000Y-81915000D01*
X221869000Y-81915000D02*
X221869000Y-79375000D01*
X227965000Y-80899000D02*
X221869000Y-80899000D01*
X227965000Y-80391000D02*
X227965000Y-80899000D01*
X221869000Y-80391000D02*
X227965000Y-80391000D01*
X219329000Y-81915000D02*
X221869000Y-81915000D01*
X219329000Y-79375000D02*
X219329000Y-81915000D01*
X219329000Y-79375000D02*
X221869000Y-79375000D01*
X219329000Y-69215000D02*
X221869000Y-69215000D01*
X219329000Y-69215000D02*
X219329000Y-71755000D01*
X219329000Y-71755000D02*
X221869000Y-71755000D01*
X221869000Y-70231000D02*
X227965000Y-70231000D01*
X227965000Y-70231000D02*
X227965000Y-70739000D01*
X227965000Y-70739000D02*
X221869000Y-70739000D01*
X221869000Y-71755000D02*
X221869000Y-69215000D01*
X221869000Y-74295000D02*
X221869000Y-71755000D01*
X227965000Y-73279000D02*
X221869000Y-73279000D01*
X227965000Y-72771000D02*
X227965000Y-73279000D01*
X221869000Y-72771000D02*
X227965000Y-72771000D01*
X219329000Y-74295000D02*
X221869000Y-74295000D01*
X219329000Y-71755000D02*
X219329000Y-74295000D01*
X219329000Y-71755000D02*
X221869000Y-71755000D01*
X219329000Y-66675000D02*
X221869000Y-66675000D01*
X219329000Y-66675000D02*
X219329000Y-69215000D01*
X219329000Y-69215000D02*
X221869000Y-69215000D01*
X221869000Y-67691000D02*
X227965000Y-67691000D01*
X227965000Y-67691000D02*
X227965000Y-68199000D01*
X227965000Y-68199000D02*
X221869000Y-68199000D01*
X221869000Y-69215000D02*
X221869000Y-66675000D01*
X221869000Y-66675000D02*
X221869000Y-64135000D01*
X227965000Y-65659000D02*
X221869000Y-65659000D01*
X227965000Y-65151000D02*
X227965000Y-65659000D01*
X221869000Y-65151000D02*
X227965000Y-65151000D01*
X219329000Y-66675000D02*
X221869000Y-66675000D01*
X219329000Y-64135000D02*
X219329000Y-66675000D01*
X219329000Y-64135000D02*
X221869000Y-64135000D01*
D13*
X171500800Y-81788000D02*
X176530000Y-81788000D01*
X176530000Y-81788000D02*
X176530000Y-84328000D01*
X176530000Y-84328000D02*
X171450000Y-84328000D01*
X171450000Y-84328000D02*
X171450000Y-81788000D01*
X171450000Y-82423000D02*
X172085000Y-81788000D01*
D14*
X107442000Y-73914000D02*
X106375200Y-73914000D01*
X106934000Y-73406000D02*
X106934000Y-74447400D01*
X109982000Y-75438000D02*
G75*
G03X109982000Y-75438000I-2540000J0D01*
G01*
D13*
X201879200Y-101600000D02*
X196850000Y-101600000D01*
X196850000Y-101600000D02*
X196850000Y-99060000D01*
X196850000Y-99060000D02*
X201930000Y-99060000D01*
X201930000Y-99060000D02*
X201930000Y-101600000D01*
X201930000Y-100965000D02*
X201295000Y-101600000D01*
X158699200Y-101600000D02*
X153670000Y-101600000D01*
X153670000Y-101600000D02*
X153670000Y-99060000D01*
X153670000Y-99060000D02*
X158750000Y-99060000D01*
X158750000Y-99060000D02*
X158750000Y-101600000D01*
X158750000Y-100965000D02*
X158115000Y-101600000D01*
X117729000Y-82600800D02*
X117729000Y-87630000D01*
X117729000Y-87630000D02*
X115189000Y-87630000D01*
X115189000Y-87630000D02*
X115189000Y-82550000D01*
X115189000Y-82550000D02*
X117729000Y-82550000D01*
X117094000Y-82550000D02*
X117729000Y-83185000D01*
X91440000Y-82600800D02*
X91440000Y-87630000D01*
X91440000Y-87630000D02*
X88900000Y-87630000D01*
X88900000Y-87630000D02*
X88900000Y-82550000D01*
X88900000Y-82550000D02*
X91440000Y-82550000D01*
X90805000Y-82550000D02*
X91440000Y-83185000D01*
X160655000Y-54559200D02*
X160655000Y-49530000D01*
X160655000Y-49530000D02*
X163195000Y-49530000D01*
X163195000Y-49530000D02*
X163195000Y-54610000D01*
X163195000Y-54610000D02*
X160655000Y-54610000D01*
X161290000Y-54610000D02*
X160655000Y-53975000D01*
X130606800Y-108077000D02*
X135636000Y-108077000D01*
X135636000Y-108077000D02*
X135636000Y-110617000D01*
X135636000Y-110617000D02*
X130556000Y-110617000D01*
X130556000Y-110617000D02*
X130556000Y-108077000D01*
X130556000Y-108712000D02*
X131191000Y-108077000D01*
X181559200Y-101600000D02*
X176530000Y-101600000D01*
X176530000Y-101600000D02*
X176530000Y-99060000D01*
X176530000Y-99060000D02*
X181610000Y-99060000D01*
X181610000Y-99060000D02*
X181610000Y-101600000D01*
X181610000Y-100965000D02*
X180975000Y-101600000D01*
X119837200Y-110617000D02*
X114808000Y-110617000D01*
X114808000Y-110617000D02*
X114808000Y-108077000D01*
X114808000Y-108077000D02*
X119888000Y-108077000D01*
X119888000Y-108077000D02*
X119888000Y-110617000D01*
X119888000Y-109982000D02*
X119253000Y-110617000D01*
D12*
X172720000Y-68580000D02*
X180340000Y-68580000D01*
X180340000Y-68580000D02*
X180340000Y-63500000D01*
X180340000Y-63500000D02*
X170180000Y-63500000D01*
X170180000Y-63500000D02*
X170180000Y-66040000D01*
X170180000Y-68580000D02*
X172720000Y-68580000D01*
X170180000Y-66040000D02*
X172720000Y-66040000D01*
X172720000Y-66040000D02*
X172720000Y-68580000D01*
X170180000Y-68580000D02*
X170180000Y-66040000D01*
X161290000Y-69850000D02*
X156210000Y-69850000D01*
X156210000Y-69850000D02*
X156210000Y-72390000D01*
X156210000Y-72390000D02*
X161290000Y-72390000D01*
X163830000Y-72390000D02*
X161290000Y-72390000D01*
X161290000Y-72390000D02*
X161290000Y-69850000D01*
X163830000Y-72390000D02*
X163830000Y-69850000D01*
X163830000Y-69850000D02*
X161290000Y-69850000D01*
X156210000Y-62230000D02*
X156210000Y-59690000D01*
X156210000Y-59690000D02*
X153670000Y-59690000D01*
X153670000Y-59690000D02*
X153670000Y-62230000D01*
X153670000Y-62230000D02*
X156210000Y-62230000D01*
X156210000Y-62230000D02*
X156210000Y-64770000D01*
X156210000Y-64770000D02*
X151130000Y-64770000D01*
X151130000Y-64770000D02*
X151130000Y-59690000D01*
X151130000Y-59690000D02*
X153670000Y-59690000D01*
D15*
X170180000Y-97790000D02*
X169672000Y-97790000D01*
X162560000Y-97790000D02*
X163068000Y-97790000D01*
X163068000Y-97790000D02*
X163068000Y-98806000D01*
X163068000Y-98806000D02*
X169672000Y-98806000D01*
X169672000Y-98806000D02*
X169672000Y-96774000D01*
X169672000Y-96774000D02*
X163068000Y-96774000D01*
X163068000Y-96774000D02*
X163068000Y-97790000D01*
X169672000Y-98298000D02*
X169164000Y-98806000D01*
X170180000Y-95250000D02*
X169672000Y-95250000D01*
X162560000Y-95250000D02*
X163068000Y-95250000D01*
X163068000Y-95250000D02*
X163068000Y-96266000D01*
X163068000Y-96266000D02*
X169672000Y-96266000D01*
X169672000Y-96266000D02*
X169672000Y-94234000D01*
X169672000Y-94234000D02*
X163068000Y-94234000D01*
X163068000Y-94234000D02*
X163068000Y-95250000D01*
X169672000Y-95758000D02*
X169164000Y-96266000D01*
X154940000Y-69850000D02*
X154432000Y-69850000D01*
X147320000Y-69850000D02*
X147828000Y-69850000D01*
X147828000Y-69850000D02*
X147828000Y-70866000D01*
X147828000Y-70866000D02*
X154432000Y-70866000D01*
X154432000Y-70866000D02*
X154432000Y-68834000D01*
X154432000Y-68834000D02*
X147828000Y-68834000D01*
X147828000Y-68834000D02*
X147828000Y-69850000D01*
X154432000Y-70358000D02*
X153924000Y-70866000D01*
X147320000Y-67310000D02*
X147828000Y-67310000D01*
X154940000Y-67310000D02*
X154432000Y-67310000D01*
X154432000Y-67310000D02*
X154432000Y-66294000D01*
X154432000Y-66294000D02*
X147828000Y-66294000D01*
X147828000Y-66294000D02*
X147828000Y-68326000D01*
X147828000Y-68326000D02*
X154432000Y-68326000D01*
X154432000Y-68326000D02*
X154432000Y-67310000D01*
X147828000Y-66802000D02*
X148336000Y-66294000D01*
X92710000Y-71628000D02*
X92710000Y-72136000D01*
X92710000Y-79248000D02*
X92710000Y-78740000D01*
X92710000Y-78740000D02*
X93726000Y-78740000D01*
X93726000Y-78740000D02*
X93726000Y-72136000D01*
X93726000Y-72136000D02*
X91694000Y-72136000D01*
X91694000Y-72136000D02*
X91694000Y-78740000D01*
X91694000Y-78740000D02*
X92710000Y-78740000D01*
X93218000Y-72136000D02*
X93726000Y-72644000D01*
D13*
X117602000Y-58470800D02*
X117602000Y-63500000D01*
X117602000Y-63500000D02*
X115062000Y-63500000D01*
X115062000Y-63500000D02*
X115062000Y-58420000D01*
X115062000Y-58420000D02*
X117602000Y-58420000D01*
X116967000Y-58420000D02*
X117602000Y-59055000D01*
D12*
X104140000Y-116840000D02*
X104140000Y-134620000D01*
X104140000Y-134620000D02*
X101600000Y-134620000D01*
X101600000Y-134620000D02*
X101600000Y-116840000D01*
X104140000Y-114300000D02*
X104140000Y-116840000D01*
X104140000Y-116840000D02*
X101600000Y-116840000D01*
X104140000Y-114300000D02*
X101600000Y-114300000D01*
X101600000Y-114300000D02*
X101600000Y-116840000D01*
X104952800Y-77978000D02*
X109982000Y-77978000D01*
X109982000Y-77978000D02*
X109982000Y-80518000D01*
X109982000Y-80518000D02*
X104902000Y-80518000D01*
X104902000Y-80518000D02*
X104902000Y-77978000D01*
X104902000Y-78613000D02*
X105537000Y-77978000D01*
X104952800Y-70358000D02*
X109982000Y-70358000D01*
X109982000Y-70358000D02*
X109982000Y-72898000D01*
X109982000Y-72898000D02*
X104902000Y-72898000D01*
X104902000Y-72898000D02*
X104902000Y-70358000D01*
X104902000Y-70993000D02*
X105537000Y-70358000D01*
X90170000Y-71628000D02*
X90170000Y-72136000D01*
X90170000Y-79248000D02*
X90170000Y-78740000D01*
X90170000Y-78740000D02*
X91186000Y-78740000D01*
X91186000Y-78740000D02*
X91186000Y-72136000D01*
X91186000Y-72136000D02*
X89154000Y-72136000D01*
X89154000Y-72136000D02*
X89154000Y-78740000D01*
X89154000Y-78740000D02*
X90170000Y-78740000D01*
X90678000Y-72136000D02*
X91186000Y-72644000D01*
X160578800Y-142240000D02*
X160578800Y-139700000D01*
X157833136Y-139994473D02*
G75*
G03X157480000Y-140970000I1170864J-975527D01*
G01*
X157481889Y-140970469D02*
G75*
G03X157866080Y-141980920I1522111J469D01*
G01*
X160526147Y-140969966D02*
G75*
G03X160159700Y-139979400I-1522147J-34D01*
G01*
X160174864Y-141945527D02*
G75*
G03X160528000Y-140970000I-1170864J975527D01*
G01*
X160243166Y-140082845D02*
G75*
G03X159004000Y-139446000I-1239166J-887155D01*
G01*
X159003199Y-139446000D02*
G75*
G03X157784800Y-140055600I801J-1524000D01*
G01*
X159004442Y-142492206D02*
G75*
G03X160205420Y-141904720I-442J1522206D01*
G01*
X157801436Y-141906171D02*
G75*
G03X159004000Y-142494000I1202564J936171D01*
G01*
X159004000Y-140335000D02*
G75*
G03X158369000Y-140970000I0J-635000D01*
G01*
X159004000Y-139954000D02*
G75*
G03X157988000Y-140970000I0J-1016000D01*
G01*
X159004000Y-141605000D02*
G75*
G03X159639000Y-140970000I0J635000D01*
G01*
X159004000Y-141986000D02*
G75*
G03X160020000Y-140970000I0J1016000D01*
G01*
X160562880Y-139666574D02*
G75*
G03X159004000Y-138938000I-1558880J-1303426D01*
G01*
X159003025Y-138940540D02*
G75*
G03X157213300Y-140014960I975J-2029460D01*
G01*
X159006552Y-142999386D02*
G75*
G03X160553400Y-142280640I-2552J2029386D01*
G01*
X157240701Y-141979851D02*
G75*
G03X159004000Y-143002000I1763299J1009851D01*
G01*
X157214870Y-140006653D02*
G75*
G03X156972000Y-140970000I1789130J-963347D01*
G01*
X156973077Y-140970100D02*
G75*
G03X157274260Y-142034260I2030923J100D01*
G01*
X206298800Y-142240000D02*
X206298800Y-139700000D01*
X203553136Y-139994473D02*
G75*
G03X203200000Y-140970000I1170864J-975527D01*
G01*
X203201889Y-140970469D02*
G75*
G03X203586080Y-141980920I1522111J469D01*
G01*
X206246147Y-140969966D02*
G75*
G03X205879700Y-139979400I-1522147J-34D01*
G01*
X205894864Y-141945527D02*
G75*
G03X206248000Y-140970000I-1170864J975527D01*
G01*
X205963166Y-140082845D02*
G75*
G03X204724000Y-139446000I-1239166J-887155D01*
G01*
X204723199Y-139446000D02*
G75*
G03X203504800Y-140055600I801J-1524000D01*
G01*
X204724442Y-142492206D02*
G75*
G03X205925420Y-141904720I-442J1522206D01*
G01*
X203521436Y-141906171D02*
G75*
G03X204724000Y-142494000I1202564J936171D01*
G01*
X204724000Y-140335000D02*
G75*
G03X204089000Y-140970000I0J-635000D01*
G01*
X204724000Y-139954000D02*
G75*
G03X203708000Y-140970000I0J-1016000D01*
G01*
X204724000Y-141605000D02*
G75*
G03X205359000Y-140970000I0J635000D01*
G01*
X204724000Y-141986000D02*
G75*
G03X205740000Y-140970000I0J1016000D01*
G01*
X206282880Y-139666574D02*
G75*
G03X204724000Y-138938000I-1558880J-1303426D01*
G01*
X204723025Y-138940540D02*
G75*
G03X202933300Y-140014960I975J-2029460D01*
G01*
X204726552Y-142999386D02*
G75*
G03X206273400Y-142280640I-2552J2029386D01*
G01*
X202960701Y-141979851D02*
G75*
G03X204724000Y-143002000I1763299J1009851D01*
G01*
X202934870Y-140006653D02*
G75*
G03X202692000Y-140970000I1789130J-963347D01*
G01*
X202693077Y-140970100D02*
G75*
G03X202994260Y-142034260I2030923J100D01*
G01*
X183438800Y-142240000D02*
X183438800Y-139700000D01*
X180693136Y-139994473D02*
G75*
G03X180340000Y-140970000I1170864J-975527D01*
G01*
X180341889Y-140970469D02*
G75*
G03X180726080Y-141980920I1522111J469D01*
G01*
X183386147Y-140969966D02*
G75*
G03X183019700Y-139979400I-1522147J-34D01*
G01*
X183034864Y-141945527D02*
G75*
G03X183388000Y-140970000I-1170864J975527D01*
G01*
X183103166Y-140082845D02*
G75*
G03X181864000Y-139446000I-1239166J-887155D01*
G01*
X181863199Y-139446000D02*
G75*
G03X180644800Y-140055600I801J-1524000D01*
G01*
X181864442Y-142492206D02*
G75*
G03X183065420Y-141904720I-442J1522206D01*
G01*
X180661436Y-141906171D02*
G75*
G03X181864000Y-142494000I1202564J936171D01*
G01*
X181864000Y-140335000D02*
G75*
G03X181229000Y-140970000I0J-635000D01*
G01*
X181864000Y-139954000D02*
G75*
G03X180848000Y-140970000I0J-1016000D01*
G01*
X181864000Y-141605000D02*
G75*
G03X182499000Y-140970000I0J635000D01*
G01*
X181864000Y-141986000D02*
G75*
G03X182880000Y-140970000I0J1016000D01*
G01*
X183422880Y-139666574D02*
G75*
G03X181864000Y-138938000I-1558880J-1303426D01*
G01*
X181863025Y-138940540D02*
G75*
G03X180073300Y-140014960I975J-2029460D01*
G01*
X181866552Y-142999386D02*
G75*
G03X183413400Y-142280640I-2552J2029386D01*
G01*
X180100701Y-141979851D02*
G75*
G03X181864000Y-143002000I1763299J1009851D01*
G01*
X180074870Y-140006653D02*
G75*
G03X179832000Y-140970000I1789130J-963347D01*
G01*
X179833077Y-140970100D02*
G75*
G03X180134260Y-142034260I2030923J100D01*
G01*
X152400000Y-140970000D02*
X151892000Y-140970000D01*
X144780000Y-140970000D02*
X145288000Y-140970000D01*
X145288000Y-140970000D02*
X145288000Y-141986000D01*
X145288000Y-141986000D02*
X151892000Y-141986000D01*
X151892000Y-141986000D02*
X151892000Y-139954000D01*
X151892000Y-139954000D02*
X145288000Y-139954000D01*
X145288000Y-139954000D02*
X145288000Y-140970000D01*
X151892000Y-141478000D02*
X151384000Y-141986000D01*
X198120000Y-140970000D02*
X197612000Y-140970000D01*
X190500000Y-140970000D02*
X191008000Y-140970000D01*
X191008000Y-140970000D02*
X191008000Y-141986000D01*
X191008000Y-141986000D02*
X197612000Y-141986000D01*
X197612000Y-141986000D02*
X197612000Y-139954000D01*
X197612000Y-139954000D02*
X191008000Y-139954000D01*
X191008000Y-139954000D02*
X191008000Y-140970000D01*
X197612000Y-141478000D02*
X197104000Y-141986000D01*
X175260000Y-140970000D02*
X174752000Y-140970000D01*
X167640000Y-140970000D02*
X168148000Y-140970000D01*
X168148000Y-140970000D02*
X168148000Y-141986000D01*
X168148000Y-141986000D02*
X174752000Y-141986000D01*
X174752000Y-141986000D02*
X174752000Y-139954000D01*
X174752000Y-139954000D02*
X168148000Y-139954000D01*
X168148000Y-139954000D02*
X168148000Y-140970000D01*
X174752000Y-141478000D02*
X174244000Y-141986000D01*
X66040000Y-99618800D02*
X68580000Y-99618800D01*
X68285527Y-96873136D02*
G75*
G03X67310000Y-96520000I-975527J-1170864D01*
G01*
X67309531Y-96521889D02*
G75*
G03X66299080Y-96906080I469J-1522111D01*
G01*
X67310034Y-99566147D02*
G75*
G03X68300600Y-99199700I-34J1522147D01*
G01*
X66334473Y-99214864D02*
G75*
G03X67310000Y-99568000I975527J1170864D01*
G01*
X68197155Y-99283166D02*
G75*
G03X68834000Y-98044000I-887155J1239166D01*
G01*
X68834000Y-98043199D02*
G75*
G03X68224400Y-96824800I-1524000J-801D01*
G01*
X65787794Y-98044442D02*
G75*
G03X66375280Y-99245420I1522206J442D01*
G01*
X66373829Y-96841436D02*
G75*
G03X65786000Y-98044000I936171J-1202564D01*
G01*
X67945000Y-98044000D02*
G75*
G03X67310000Y-97409000I-635000J0D01*
G01*
X68326000Y-98044000D02*
G75*
G03X67310000Y-97028000I-1016000J0D01*
G01*
X66675000Y-98044000D02*
G75*
G03X67310000Y-98679000I635000J0D01*
G01*
X66294000Y-98044000D02*
G75*
G03X67310000Y-99060000I1016000J0D01*
G01*
X68613426Y-99602880D02*
G75*
G03X69342000Y-98044000I-1303426J1558880D01*
G01*
X69339460Y-98043025D02*
G75*
G03X68265040Y-96253300I-2029460J-975D01*
G01*
X65280614Y-98046552D02*
G75*
G03X65999360Y-99593400I2029386J2552D01*
G01*
X66300149Y-96280701D02*
G75*
G03X65278000Y-98044000I1009851J-1763299D01*
G01*
X68273347Y-96254870D02*
G75*
G03X67310000Y-96012000I-963347J-1789130D01*
G01*
X67309900Y-96013077D02*
G75*
G03X66245740Y-96314260I100J-2030923D01*
G01*
X66040000Y-104698800D02*
X68580000Y-104698800D01*
X68285527Y-101953136D02*
G75*
G03X67310000Y-101600000I-975527J-1170864D01*
G01*
X67309531Y-101601889D02*
G75*
G03X66299080Y-101986080I469J-1522111D01*
G01*
X67310034Y-104646147D02*
G75*
G03X68300600Y-104279700I-34J1522147D01*
G01*
X66334473Y-104294864D02*
G75*
G03X67310000Y-104648000I975527J1170864D01*
G01*
X68197155Y-104363166D02*
G75*
G03X68834000Y-103124000I-887155J1239166D01*
G01*
X68834000Y-103123199D02*
G75*
G03X68224400Y-101904800I-1524000J-801D01*
G01*
X65787794Y-103124442D02*
G75*
G03X66375280Y-104325420I1522206J442D01*
G01*
X66373829Y-101921436D02*
G75*
G03X65786000Y-103124000I936171J-1202564D01*
G01*
X67945000Y-103124000D02*
G75*
G03X67310000Y-102489000I-635000J0D01*
G01*
X68326000Y-103124000D02*
G75*
G03X67310000Y-102108000I-1016000J0D01*
G01*
X66675000Y-103124000D02*
G75*
G03X67310000Y-103759000I635000J0D01*
G01*
X66294000Y-103124000D02*
G75*
G03X67310000Y-104140000I1016000J0D01*
G01*
X68613426Y-104682880D02*
G75*
G03X69342000Y-103124000I-1303426J1558880D01*
G01*
X69339460Y-103123025D02*
G75*
G03X68265040Y-101333300I-2029460J-975D01*
G01*
X65280614Y-103126552D02*
G75*
G03X65999360Y-104673400I2029386J2552D01*
G01*
X66300149Y-101360701D02*
G75*
G03X65278000Y-103124000I1009851J-1763299D01*
G01*
X68273347Y-101334870D02*
G75*
G03X67310000Y-101092000I-963347J-1789130D01*
G01*
X67309900Y-101093077D02*
G75*
G03X66245740Y-101394260I100J-2030923D01*
G01*
X66040000Y-109778800D02*
X68580000Y-109778800D01*
X68285527Y-107033136D02*
G75*
G03X67310000Y-106680000I-975527J-1170864D01*
G01*
X67309531Y-106681889D02*
G75*
G03X66299080Y-107066080I469J-1522111D01*
G01*
X67310034Y-109726147D02*
G75*
G03X68300600Y-109359700I-34J1522147D01*
G01*
X66334473Y-109374864D02*
G75*
G03X67310000Y-109728000I975527J1170864D01*
G01*
X68197155Y-109443166D02*
G75*
G03X68834000Y-108204000I-887155J1239166D01*
G01*
X68834000Y-108203199D02*
G75*
G03X68224400Y-106984800I-1524000J-801D01*
G01*
X65787794Y-108204442D02*
G75*
G03X66375280Y-109405420I1522206J442D01*
G01*
X66373829Y-107001436D02*
G75*
G03X65786000Y-108204000I936171J-1202564D01*
G01*
X67945000Y-108204000D02*
G75*
G03X67310000Y-107569000I-635000J0D01*
G01*
X68326000Y-108204000D02*
G75*
G03X67310000Y-107188000I-1016000J0D01*
G01*
X66675000Y-108204000D02*
G75*
G03X67310000Y-108839000I635000J0D01*
G01*
X66294000Y-108204000D02*
G75*
G03X67310000Y-109220000I1016000J0D01*
G01*
X68613426Y-109762880D02*
G75*
G03X69342000Y-108204000I-1303426J1558880D01*
G01*
X69339460Y-108203025D02*
G75*
G03X68265040Y-106413300I-2029460J-975D01*
G01*
X65280614Y-108206552D02*
G75*
G03X65999360Y-109753400I2029386J2552D01*
G01*
X66300149Y-106440701D02*
G75*
G03X65278000Y-108204000I1009851J-1763299D01*
G01*
X68273347Y-106414870D02*
G75*
G03X67310000Y-106172000I-963347J-1789130D01*
G01*
X67309900Y-106173077D02*
G75*
G03X66245740Y-106474260I100J-2030923D01*
G01*
X66040000Y-114858800D02*
X68580000Y-114858800D01*
X68285527Y-112113136D02*
G75*
G03X67310000Y-111760000I-975527J-1170864D01*
G01*
X67309531Y-111761889D02*
G75*
G03X66299080Y-112146080I469J-1522111D01*
G01*
X67310034Y-114806147D02*
G75*
G03X68300600Y-114439700I-34J1522147D01*
G01*
X66334473Y-114454864D02*
G75*
G03X67310000Y-114808000I975527J1170864D01*
G01*
X68197155Y-114523166D02*
G75*
G03X68834000Y-113284000I-887155J1239166D01*
G01*
X68834000Y-113283199D02*
G75*
G03X68224400Y-112064800I-1524000J-801D01*
G01*
X65787794Y-113284442D02*
G75*
G03X66375280Y-114485420I1522206J442D01*
G01*
X66373829Y-112081436D02*
G75*
G03X65786000Y-113284000I936171J-1202564D01*
G01*
X67945000Y-113284000D02*
G75*
G03X67310000Y-112649000I-635000J0D01*
G01*
X68326000Y-113284000D02*
G75*
G03X67310000Y-112268000I-1016000J0D01*
G01*
X66675000Y-113284000D02*
G75*
G03X67310000Y-113919000I635000J0D01*
G01*
X66294000Y-113284000D02*
G75*
G03X67310000Y-114300000I1016000J0D01*
G01*
X68613426Y-114842880D02*
G75*
G03X69342000Y-113284000I-1303426J1558880D01*
G01*
X69339460Y-113283025D02*
G75*
G03X68265040Y-111493300I-2029460J-975D01*
G01*
X65280614Y-113286552D02*
G75*
G03X65999360Y-114833400I2029386J2552D01*
G01*
X66300149Y-111520701D02*
G75*
G03X65278000Y-113284000I1009851J-1763299D01*
G01*
X68273347Y-111494870D02*
G75*
G03X67310000Y-111252000I-963347J-1789130D01*
G01*
X67309900Y-111253077D02*
G75*
G03X66245740Y-111554260I100J-2030923D01*
G01*
X66040000Y-119938800D02*
X68580000Y-119938800D01*
X68285527Y-117193136D02*
G75*
G03X67310000Y-116840000I-975527J-1170864D01*
G01*
X67309531Y-116841889D02*
G75*
G03X66299080Y-117226080I469J-1522111D01*
G01*
X67310034Y-119886147D02*
G75*
G03X68300600Y-119519700I-34J1522147D01*
G01*
X66334473Y-119534864D02*
G75*
G03X67310000Y-119888000I975527J1170864D01*
G01*
X68197155Y-119603166D02*
G75*
G03X68834000Y-118364000I-887155J1239166D01*
G01*
X68834000Y-118363199D02*
G75*
G03X68224400Y-117144800I-1524000J-801D01*
G01*
X65787794Y-118364442D02*
G75*
G03X66375280Y-119565420I1522206J442D01*
G01*
X66373829Y-117161436D02*
G75*
G03X65786000Y-118364000I936171J-1202564D01*
G01*
X67945000Y-118364000D02*
G75*
G03X67310000Y-117729000I-635000J0D01*
G01*
X68326000Y-118364000D02*
G75*
G03X67310000Y-117348000I-1016000J0D01*
G01*
X66675000Y-118364000D02*
G75*
G03X67310000Y-118999000I635000J0D01*
G01*
X66294000Y-118364000D02*
G75*
G03X67310000Y-119380000I1016000J0D01*
G01*
X68613426Y-119922880D02*
G75*
G03X69342000Y-118364000I-1303426J1558880D01*
G01*
X69339460Y-118363025D02*
G75*
G03X68265040Y-116573300I-2029460J-975D01*
G01*
X65280614Y-118366552D02*
G75*
G03X65999360Y-119913400I2029386J2552D01*
G01*
X66300149Y-116600701D02*
G75*
G03X65278000Y-118364000I1009851J-1763299D01*
G01*
X68273347Y-116574870D02*
G75*
G03X67310000Y-116332000I-963347J-1789130D01*
G01*
X67309900Y-116333077D02*
G75*
G03X66245740Y-116634260I100J-2030923D01*
G01*
X66040000Y-125018800D02*
X68580000Y-125018800D01*
X68285527Y-122273136D02*
G75*
G03X67310000Y-121920000I-975527J-1170864D01*
G01*
X67309531Y-121921889D02*
G75*
G03X66299080Y-122306080I469J-1522111D01*
G01*
X67310034Y-124966147D02*
G75*
G03X68300600Y-124599700I-34J1522147D01*
G01*
X66334473Y-124614864D02*
G75*
G03X67310000Y-124968000I975527J1170864D01*
G01*
X68197155Y-124683166D02*
G75*
G03X68834000Y-123444000I-887155J1239166D01*
G01*
X68834000Y-123443199D02*
G75*
G03X68224400Y-122224800I-1524000J-801D01*
G01*
X65787794Y-123444442D02*
G75*
G03X66375280Y-124645420I1522206J442D01*
G01*
X66373829Y-122241436D02*
G75*
G03X65786000Y-123444000I936171J-1202564D01*
G01*
X67945000Y-123444000D02*
G75*
G03X67310000Y-122809000I-635000J0D01*
G01*
X68326000Y-123444000D02*
G75*
G03X67310000Y-122428000I-1016000J0D01*
G01*
X66675000Y-123444000D02*
G75*
G03X67310000Y-124079000I635000J0D01*
G01*
X66294000Y-123444000D02*
G75*
G03X67310000Y-124460000I1016000J0D01*
G01*
X68613426Y-125002880D02*
G75*
G03X69342000Y-123444000I-1303426J1558880D01*
G01*
X69339460Y-123443025D02*
G75*
G03X68265040Y-121653300I-2029460J-975D01*
G01*
X65280614Y-123446552D02*
G75*
G03X65999360Y-124993400I2029386J2552D01*
G01*
X66300149Y-121680701D02*
G75*
G03X65278000Y-123444000I1009851J-1763299D01*
G01*
X68273347Y-121654870D02*
G75*
G03X67310000Y-121412000I-963347J-1789130D01*
G01*
X67309900Y-121413077D02*
G75*
G03X66245740Y-121714260I100J-2030923D01*
G01*
X66040000Y-130098800D02*
X68580000Y-130098800D01*
X68285527Y-127353136D02*
G75*
G03X67310000Y-127000000I-975527J-1170864D01*
G01*
X67309531Y-127001889D02*
G75*
G03X66299080Y-127386080I469J-1522111D01*
G01*
X67310034Y-130046147D02*
G75*
G03X68300600Y-129679700I-34J1522147D01*
G01*
X66334473Y-129694864D02*
G75*
G03X67310000Y-130048000I975527J1170864D01*
G01*
X68197155Y-129763166D02*
G75*
G03X68834000Y-128524000I-887155J1239166D01*
G01*
X68834000Y-128523199D02*
G75*
G03X68224400Y-127304800I-1524000J-801D01*
G01*
X65787794Y-128524442D02*
G75*
G03X66375280Y-129725420I1522206J442D01*
G01*
X66373829Y-127321436D02*
G75*
G03X65786000Y-128524000I936171J-1202564D01*
G01*
X67945000Y-128524000D02*
G75*
G03X67310000Y-127889000I-635000J0D01*
G01*
X68326000Y-128524000D02*
G75*
G03X67310000Y-127508000I-1016000J0D01*
G01*
X66675000Y-128524000D02*
G75*
G03X67310000Y-129159000I635000J0D01*
G01*
X66294000Y-128524000D02*
G75*
G03X67310000Y-129540000I1016000J0D01*
G01*
X68613426Y-130082880D02*
G75*
G03X69342000Y-128524000I-1303426J1558880D01*
G01*
X69339460Y-128523025D02*
G75*
G03X68265040Y-126733300I-2029460J-975D01*
G01*
X65280614Y-128526552D02*
G75*
G03X65999360Y-130073400I2029386J2552D01*
G01*
X66300149Y-126760701D02*
G75*
G03X65278000Y-128524000I1009851J-1763299D01*
G01*
X68273347Y-126734870D02*
G75*
G03X67310000Y-126492000I-963347J-1789130D01*
G01*
X67309900Y-126493077D02*
G75*
G03X66245740Y-126794260I100J-2030923D01*
G01*
X66040000Y-135178800D02*
X68580000Y-135178800D01*
X68285527Y-132433136D02*
G75*
G03X67310000Y-132080000I-975527J-1170864D01*
G01*
X67309531Y-132081889D02*
G75*
G03X66299080Y-132466080I469J-1522111D01*
G01*
X67310034Y-135126147D02*
G75*
G03X68300600Y-134759700I-34J1522147D01*
G01*
X66334473Y-134774864D02*
G75*
G03X67310000Y-135128000I975527J1170864D01*
G01*
X68197155Y-134843166D02*
G75*
G03X68834000Y-133604000I-887155J1239166D01*
G01*
X68834000Y-133603199D02*
G75*
G03X68224400Y-132384800I-1524000J-801D01*
G01*
X65787794Y-133604442D02*
G75*
G03X66375280Y-134805420I1522206J442D01*
G01*
X66373829Y-132401436D02*
G75*
G03X65786000Y-133604000I936171J-1202564D01*
G01*
X67945000Y-133604000D02*
G75*
G03X67310000Y-132969000I-635000J0D01*
G01*
X68326000Y-133604000D02*
G75*
G03X67310000Y-132588000I-1016000J0D01*
G01*
X66675000Y-133604000D02*
G75*
G03X67310000Y-134239000I635000J0D01*
G01*
X66294000Y-133604000D02*
G75*
G03X67310000Y-134620000I1016000J0D01*
G01*
X68613426Y-135162880D02*
G75*
G03X69342000Y-133604000I-1303426J1558880D01*
G01*
X69339460Y-133603025D02*
G75*
G03X68265040Y-131813300I-2029460J-975D01*
G01*
X65280614Y-133606552D02*
G75*
G03X65999360Y-135153400I2029386J2552D01*
G01*
X66300149Y-131840701D02*
G75*
G03X65278000Y-133604000I1009851J-1763299D01*
G01*
X68273347Y-131814870D02*
G75*
G03X67310000Y-131572000I-963347J-1789130D01*
G01*
X67309900Y-131573077D02*
G75*
G03X66245740Y-131874260I100J-2030923D01*
G01*
X91440000Y-118110000D02*
X91948000Y-118110000D01*
X99060000Y-118110000D02*
X98552000Y-118110000D01*
X98552000Y-118110000D02*
X98552000Y-117094000D01*
X98552000Y-117094000D02*
X91948000Y-117094000D01*
X91948000Y-117094000D02*
X91948000Y-119126000D01*
X91948000Y-119126000D02*
X98552000Y-119126000D01*
X98552000Y-119126000D02*
X98552000Y-118110000D01*
X91948000Y-117602000D02*
X92456000Y-117094000D01*
X91440000Y-120650000D02*
X91948000Y-120650000D01*
X99060000Y-120650000D02*
X98552000Y-120650000D01*
X98552000Y-120650000D02*
X98552000Y-119634000D01*
X98552000Y-119634000D02*
X91948000Y-119634000D01*
X91948000Y-119634000D02*
X91948000Y-121666000D01*
X91948000Y-121666000D02*
X98552000Y-121666000D01*
X98552000Y-121666000D02*
X98552000Y-120650000D01*
X91948000Y-120142000D02*
X92456000Y-119634000D01*
X91440000Y-123190000D02*
X91948000Y-123190000D01*
X99060000Y-123190000D02*
X98552000Y-123190000D01*
X98552000Y-123190000D02*
X98552000Y-122174000D01*
X98552000Y-122174000D02*
X91948000Y-122174000D01*
X91948000Y-122174000D02*
X91948000Y-124206000D01*
X91948000Y-124206000D02*
X98552000Y-124206000D01*
X98552000Y-124206000D02*
X98552000Y-123190000D01*
X91948000Y-122682000D02*
X92456000Y-122174000D01*
X91440000Y-125730000D02*
X91948000Y-125730000D01*
X99060000Y-125730000D02*
X98552000Y-125730000D01*
X98552000Y-125730000D02*
X98552000Y-124714000D01*
X98552000Y-124714000D02*
X91948000Y-124714000D01*
X91948000Y-124714000D02*
X91948000Y-126746000D01*
X91948000Y-126746000D02*
X98552000Y-126746000D01*
X98552000Y-126746000D02*
X98552000Y-125730000D01*
X91948000Y-125222000D02*
X92456000Y-124714000D01*
X91440000Y-128270000D02*
X91948000Y-128270000D01*
X99060000Y-128270000D02*
X98552000Y-128270000D01*
X98552000Y-128270000D02*
X98552000Y-127254000D01*
X98552000Y-127254000D02*
X91948000Y-127254000D01*
X91948000Y-127254000D02*
X91948000Y-129286000D01*
X91948000Y-129286000D02*
X98552000Y-129286000D01*
X98552000Y-129286000D02*
X98552000Y-128270000D01*
X91948000Y-127762000D02*
X92456000Y-127254000D01*
X91440000Y-130810000D02*
X91948000Y-130810000D01*
X99060000Y-130810000D02*
X98552000Y-130810000D01*
X98552000Y-130810000D02*
X98552000Y-129794000D01*
X98552000Y-129794000D02*
X91948000Y-129794000D01*
X91948000Y-129794000D02*
X91948000Y-131826000D01*
X91948000Y-131826000D02*
X98552000Y-131826000D01*
X98552000Y-131826000D02*
X98552000Y-130810000D01*
X91948000Y-130302000D02*
X92456000Y-129794000D01*
X91440000Y-133350000D02*
X91948000Y-133350000D01*
X99060000Y-133350000D02*
X98552000Y-133350000D01*
X98552000Y-133350000D02*
X98552000Y-132334000D01*
X98552000Y-132334000D02*
X91948000Y-132334000D01*
X91948000Y-132334000D02*
X91948000Y-134366000D01*
X91948000Y-134366000D02*
X98552000Y-134366000D01*
X98552000Y-134366000D02*
X98552000Y-133350000D01*
X91948000Y-132842000D02*
X92456000Y-132334000D01*
X118609000Y-79113000D02*
X119879000Y-79113000D01*
X118609000Y-71763000D02*
X119879000Y-71763000D01*
X146059000Y-71763000D02*
X144789000Y-71763000D01*
X146059000Y-79113000D02*
X144789000Y-79113000D01*
X118609000Y-79113000D02*
X118609000Y-71763000D01*
X146059000Y-79113000D02*
X146059000Y-71763000D01*
X119879000Y-79113000D02*
X119879000Y-80398000D01*
X118609000Y-66921000D02*
X119879000Y-66921000D01*
X118609000Y-59571000D02*
X119879000Y-59571000D01*
X140979000Y-59571000D02*
X139709000Y-59571000D01*
X140979000Y-66921000D02*
X139709000Y-66921000D01*
X118609000Y-66921000D02*
X118609000Y-59571000D01*
X140979000Y-66921000D02*
X140979000Y-59571000D01*
X119879000Y-66921000D02*
X119879000Y-68206000D01*
X117582000Y-70878000D02*
X117582000Y-74878000D01*
X115082000Y-70878000D02*
X115082000Y-74878000D01*
X76015000Y-88860000D02*
G75*
G03X76015000Y-88860000I-6125000J0D01*
G01*
X64340380Y-91460960D02*
X64340380Y-86259040D01*
X152645000Y-91305000D02*
X153915000Y-91305000D01*
X152645000Y-76335000D02*
X153915000Y-76335000D01*
X205495000Y-76335000D02*
X204225000Y-76335000D01*
X205495000Y-91305000D02*
X204225000Y-91305000D01*
X152645000Y-91305000D02*
X152645000Y-76335000D01*
X205495000Y-91305000D02*
X205495000Y-76335000D01*
X153915000Y-91305000D02*
X153915000Y-92590000D01*
X118609000Y-91305000D02*
X119879000Y-91305000D01*
X118609000Y-83955000D02*
X119879000Y-83955000D01*
X151139000Y-83955000D02*
X149869000Y-83955000D01*
X151139000Y-91305000D02*
X149869000Y-91305000D01*
X118609000Y-91305000D02*
X118609000Y-83955000D01*
X151139000Y-91305000D02*
X151139000Y-83955000D01*
X119879000Y-91305000D02*
X119879000Y-92590000D01*
X186436000Y-63754000D02*
G75*
G03X186436000Y-63754000I-254000J0D01*
G01*
X185181240Y-53019960D02*
X185181240Y-65018920D01*
X204980540Y-65018920D02*
X185181240Y-65018920D01*
X205978760Y-52819300D02*
X205978760Y-63919100D01*
X186479180Y-51821080D02*
X204980540Y-51821080D01*
X205978760Y-52819300D02*
G75*
G03X204980540Y-51821080I-998220J0D01*
G01*
X186375040Y-51821080D02*
G75*
G03X185176160Y-53019960I0J-1198880D01*
G01*
X204980540Y-65018920D02*
G75*
G03X205978760Y-64020700I0J998220D01*
G01*
X164075000Y-60825000D02*
X165345000Y-60825000D01*
X164075000Y-53475000D02*
X165345000Y-53475000D01*
X183905000Y-53475000D02*
X182635000Y-53475000D01*
X183905000Y-60825000D02*
X182635000Y-60825000D01*
X164075000Y-60825000D02*
X164075000Y-53475000D01*
X183905000Y-60825000D02*
X183905000Y-53475000D01*
X165345000Y-60825000D02*
X165345000Y-62110000D01*
X92955000Y-79113000D02*
X94225000Y-79113000D01*
X92955000Y-71763000D02*
X94225000Y-71763000D01*
X105165000Y-71763000D02*
X103895000Y-71763000D01*
X105165000Y-79113000D02*
X103895000Y-79113000D01*
X92955000Y-79113000D02*
X92955000Y-71763000D01*
X105165000Y-79113000D02*
X105165000Y-71763000D01*
X94225000Y-79113000D02*
X94225000Y-80398000D01*
X92955000Y-91305000D02*
X94225000Y-91305000D01*
X92955000Y-83955000D02*
X94225000Y-83955000D01*
X112785000Y-83955000D02*
X111515000Y-83955000D01*
X112785000Y-91305000D02*
X111515000Y-91305000D01*
X92955000Y-91305000D02*
X92955000Y-83955000D01*
X112785000Y-91305000D02*
X112785000Y-83955000D01*
X94225000Y-91305000D02*
X94225000Y-92590000D01*
X111133000Y-111624000D02*
X111133000Y-112894000D01*
X118483000Y-111624000D02*
X118483000Y-112894000D01*
X118483000Y-139074000D02*
X118483000Y-137804000D01*
X111133000Y-139074000D02*
X111133000Y-137804000D01*
X111133000Y-111624000D02*
X118483000Y-111624000D01*
X111133000Y-139074000D02*
X118483000Y-139074000D01*
X111133000Y-112894000D02*
X109848000Y-112894000D01*
X124468000Y-111624000D02*
X124468000Y-112894000D01*
X131818000Y-111624000D02*
X131818000Y-112894000D01*
X131818000Y-139074000D02*
X131818000Y-137804000D01*
X124468000Y-139074000D02*
X124468000Y-137804000D01*
X124468000Y-111624000D02*
X131818000Y-111624000D01*
X124468000Y-139074000D02*
X131818000Y-139074000D01*
X124468000Y-112894000D02*
X123183000Y-112894000D01*
X142375000Y-101845000D02*
X142375000Y-103115000D01*
X157345000Y-101845000D02*
X157345000Y-103115000D01*
X157345000Y-139455000D02*
X157345000Y-138185000D01*
X142375000Y-139455000D02*
X142375000Y-138185000D01*
X142375000Y-101845000D02*
X157345000Y-101845000D01*
X142375000Y-139455000D02*
X157345000Y-139455000D01*
X142375000Y-103115000D02*
X141090000Y-103115000D01*
X165235000Y-101845000D02*
X165235000Y-103115000D01*
X180205000Y-101845000D02*
X180205000Y-103115000D01*
X180205000Y-139455000D02*
X180205000Y-138185000D01*
X165235000Y-139455000D02*
X165235000Y-138185000D01*
X165235000Y-101845000D02*
X180205000Y-101845000D01*
X165235000Y-139455000D02*
X180205000Y-139455000D01*
X165235000Y-103115000D02*
X163950000Y-103115000D01*
X188095000Y-101845000D02*
X188095000Y-103115000D01*
X203065000Y-101845000D02*
X203065000Y-103115000D01*
X203065000Y-139455000D02*
X203065000Y-138185000D01*
X188095000Y-139455000D02*
X188095000Y-138185000D01*
X188095000Y-101845000D02*
X203065000Y-101845000D01*
X188095000Y-139455000D02*
X203065000Y-139455000D01*
X188095000Y-103115000D02*
X186810000Y-103115000D01*
X71120000Y-57404000D02*
X62484000Y-57404000D01*
X79502000Y-57404000D02*
X74422000Y-57404000D01*
X71120000Y-69596000D02*
X62484000Y-69596000D01*
X79502000Y-69596000D02*
X74422000Y-69596000D01*
X62484000Y-69596000D02*
X62484000Y-57404000D01*
X79502000Y-57404000D02*
X79502000Y-69596000D01*
X65849500Y-71699120D02*
X65849500Y-80700880D01*
X62349380Y-71699120D02*
X62349380Y-80700880D01*
X62349380Y-80700880D02*
X76850240Y-80700880D01*
X76850240Y-80700880D02*
X76850240Y-71699120D01*
X76850240Y-71699120D02*
X62349380Y-71699120D01*
X80010000Y-73660000D02*
X77470000Y-73660000D01*
X82830000Y-73940000D02*
X81280000Y-73940000D01*
X80010000Y-73660000D02*
X80010000Y-71120000D01*
X81280000Y-70840000D02*
X82830000Y-70840000D01*
X82830000Y-70840000D02*
X82830000Y-73940000D01*
X80010000Y-71120000D02*
X77470000Y-71120000D01*
X77470000Y-71120000D02*
X77470000Y-73660000D01*
X80010000Y-53340000D02*
X80010000Y-50800000D01*
X79730000Y-56160000D02*
X79730000Y-54610000D01*
X80010000Y-53340000D02*
X82550000Y-53340000D01*
X82830000Y-54610000D02*
X82830000Y-56160000D01*
X82830000Y-56160000D02*
X79730000Y-56160000D01*
X82550000Y-53340000D02*
X82550000Y-50800000D01*
X82550000Y-50800000D02*
X80010000Y-50800000D01*
X78699000Y-53395000D02*
X73701000Y-53395000D01*
X78691000Y-53535000D02*
X73709000Y-53535000D01*
X78675000Y-53675000D02*
X76295000Y-53675000D01*
X76105000Y-53675000D02*
X73725000Y-53675000D01*
X78651000Y-53815000D02*
X76690000Y-53815000D01*
X75710000Y-53815000D02*
X73749000Y-53815000D01*
X78618000Y-53955000D02*
X76857000Y-53955000D01*
X75543000Y-53955000D02*
X73782000Y-53955000D01*
X78577000Y-54095000D02*
X76964000Y-54095000D01*
X75436000Y-54095000D02*
X73823000Y-54095000D01*
X78527000Y-54235000D02*
X77035000Y-54235000D01*
X75365000Y-54235000D02*
X73873000Y-54235000D01*
X78466000Y-54375000D02*
X77079000Y-54375000D01*
X75321000Y-54375000D02*
X73934000Y-54375000D01*
X78396000Y-54515000D02*
X77098000Y-54515000D01*
X75302000Y-54515000D02*
X74004000Y-54515000D01*
X78314000Y-54655000D02*
X77096000Y-54655000D01*
X75304000Y-54655000D02*
X74086000Y-54655000D01*
X78219000Y-54795000D02*
X77071000Y-54795000D01*
X75329000Y-54795000D02*
X74181000Y-54795000D01*
X78108000Y-54935000D02*
X77023000Y-54935000D01*
X75377000Y-54935000D02*
X74292000Y-54935000D01*
X77980000Y-55075000D02*
X76945000Y-55075000D01*
X75455000Y-55075000D02*
X74420000Y-55075000D01*
X77831000Y-55215000D02*
X76828000Y-55215000D01*
X75572000Y-55215000D02*
X74569000Y-55215000D01*
X77652000Y-55355000D02*
X76640000Y-55355000D01*
X75760000Y-55355000D02*
X74748000Y-55355000D01*
X77433000Y-55495000D02*
X74967000Y-55495000D01*
X77144000Y-55635000D02*
X75256000Y-55635000D01*
X76672000Y-55775000D02*
X75728000Y-55775000D01*
X77100000Y-54570000D02*
G75*
G03X77100000Y-54570000I-900000J0D01*
G01*
X78737500Y-53320000D02*
G75*
G03X78737500Y-53320000I-2537500J0D01*
G01*
X94011905Y-115244619D02*
X94059524Y-115197000D01*
X94154762Y-115149381D01*
X94392858Y-115149381D01*
X94488096Y-115197000D01*
X94535715Y-115244619D01*
X94583334Y-115339857D01*
X94583334Y-115435095D01*
X94535715Y-115577952D01*
X93964286Y-116149381D01*
X94583334Y-116149381D01*
X94916667Y-115149381D02*
X95583334Y-115149381D01*
X95154762Y-116149381D01*
X96154762Y-115149381D02*
X96250001Y-115149381D01*
X96345239Y-115197000D01*
X96392858Y-115244619D01*
X96440477Y-115339857D01*
X96488096Y-115530333D01*
X96488096Y-115768429D01*
X96440477Y-115958905D01*
X96392858Y-116054143D01*
X96345239Y-116101762D01*
X96250001Y-116149381D01*
X96154762Y-116149381D01*
X96059524Y-116101762D01*
X96011905Y-116054143D01*
X95964286Y-115958905D01*
X95916667Y-115768429D01*
X95916667Y-115530333D01*
X95964286Y-115339857D01*
X96011905Y-115244619D01*
X96059524Y-115197000D01*
X96154762Y-115149381D01*
D15*
X213299524Y-96822381D02*
X212029524Y-96822381D01*
X212029524Y-96338572D01*
X212090000Y-96217619D01*
X212150476Y-96157143D01*
X212271429Y-96096667D01*
X212452857Y-96096667D01*
X212573810Y-96157143D01*
X212634286Y-96217619D01*
X212694762Y-96338572D01*
X212694762Y-96822381D01*
X212029524Y-94947619D02*
X212029524Y-95552381D01*
X212634286Y-95612857D01*
X212573810Y-95552381D01*
X212513333Y-95431429D01*
X212513333Y-95129048D01*
X212573810Y-95008095D01*
X212634286Y-94947619D01*
X212755238Y-94887143D01*
X213057619Y-94887143D01*
X213178571Y-94947619D01*
X213239048Y-95008095D01*
X213299524Y-95129048D01*
X213299524Y-95431429D01*
X213239048Y-95552381D01*
X213178571Y-95612857D01*
X174074667Y-81134857D02*
X174026286Y-81183238D01*
X173881143Y-81231619D01*
X173784381Y-81231619D01*
X173639239Y-81183238D01*
X173542477Y-81086476D01*
X173494096Y-80989714D01*
X173445715Y-80796190D01*
X173445715Y-80651048D01*
X173494096Y-80457524D01*
X173542477Y-80360762D01*
X173639239Y-80264000D01*
X173784381Y-80215619D01*
X173881143Y-80215619D01*
X174026286Y-80264000D01*
X174074667Y-80312381D01*
X175042286Y-81231619D02*
X174461715Y-81231619D01*
X174752001Y-81231619D02*
X174752001Y-80215619D01*
X174655239Y-80360762D01*
X174558477Y-80457524D01*
X174461715Y-80505905D01*
D13*
X107188000Y-72172286D02*
X107115429Y-72244857D01*
X106897715Y-72317429D01*
X106752572Y-72317429D01*
X106534857Y-72244857D01*
X106389715Y-72099714D01*
X106317143Y-71954571D01*
X106244572Y-71664286D01*
X106244572Y-71446571D01*
X106317143Y-71156286D01*
X106389715Y-71011143D01*
X106534857Y-70866000D01*
X106752572Y-70793429D01*
X106897715Y-70793429D01*
X107115429Y-70866000D01*
X107188000Y-70938571D01*
X108494286Y-71301429D02*
X108494286Y-72317429D01*
X108131429Y-70720857D02*
X107768572Y-71809429D01*
X108712000Y-71809429D01*
D15*
X198966667Y-102978857D02*
X198918286Y-103027238D01*
X198773143Y-103075619D01*
X198676381Y-103075619D01*
X198531239Y-103027238D01*
X198434477Y-102930476D01*
X198386096Y-102833714D01*
X198337715Y-102640190D01*
X198337715Y-102495048D01*
X198386096Y-102301524D01*
X198434477Y-102204762D01*
X198531239Y-102108000D01*
X198676381Y-102059619D01*
X198773143Y-102059619D01*
X198918286Y-102108000D01*
X198966667Y-102156381D01*
X199885905Y-102059619D02*
X199402096Y-102059619D01*
X199353715Y-102543429D01*
X199402096Y-102495048D01*
X199498858Y-102446667D01*
X199740762Y-102446667D01*
X199837524Y-102495048D01*
X199885905Y-102543429D01*
X199934286Y-102640190D01*
X199934286Y-102882095D01*
X199885905Y-102978857D01*
X199837524Y-103027238D01*
X199740762Y-103075619D01*
X199498858Y-103075619D01*
X199402096Y-103027238D01*
X199353715Y-102978857D01*
X155786667Y-102978857D02*
X155738286Y-103027238D01*
X155593143Y-103075619D01*
X155496381Y-103075619D01*
X155351239Y-103027238D01*
X155254477Y-102930476D01*
X155206096Y-102833714D01*
X155157715Y-102640190D01*
X155157715Y-102495048D01*
X155206096Y-102301524D01*
X155254477Y-102204762D01*
X155351239Y-102108000D01*
X155496381Y-102059619D01*
X155593143Y-102059619D01*
X155738286Y-102108000D01*
X155786667Y-102156381D01*
X156657524Y-102059619D02*
X156464001Y-102059619D01*
X156367239Y-102108000D01*
X156318858Y-102156381D01*
X156222096Y-102301524D01*
X156173715Y-102495048D01*
X156173715Y-102882095D01*
X156222096Y-102978857D01*
X156270477Y-103027238D01*
X156367239Y-103075619D01*
X156560762Y-103075619D01*
X156657524Y-103027238D01*
X156705905Y-102978857D01*
X156754286Y-102882095D01*
X156754286Y-102640190D01*
X156705905Y-102543429D01*
X156657524Y-102495048D01*
X156560762Y-102446667D01*
X156367239Y-102446667D01*
X156270477Y-102495048D01*
X156222096Y-102543429D01*
X156173715Y-102640190D01*
X116694857Y-89069333D02*
X116743238Y-89117714D01*
X116791619Y-89262857D01*
X116791619Y-89359619D01*
X116743238Y-89504761D01*
X116646476Y-89601523D01*
X116549714Y-89649904D01*
X116356190Y-89698285D01*
X116211048Y-89698285D01*
X116017524Y-89649904D01*
X115920762Y-89601523D01*
X115824000Y-89504761D01*
X115775619Y-89359619D01*
X115775619Y-89262857D01*
X115824000Y-89117714D01*
X115872381Y-89069333D01*
X115775619Y-88730666D02*
X115775619Y-88053333D01*
X116791619Y-88488761D01*
X92818857Y-85513333D02*
X92867238Y-85561714D01*
X92915619Y-85706857D01*
X92915619Y-85803619D01*
X92867238Y-85948761D01*
X92770476Y-86045523D01*
X92673714Y-86093904D01*
X92480190Y-86142285D01*
X92335048Y-86142285D01*
X92141524Y-86093904D01*
X92044762Y-86045523D01*
X91948000Y-85948761D01*
X91899619Y-85803619D01*
X91899619Y-85706857D01*
X91948000Y-85561714D01*
X91996381Y-85513333D01*
X92335048Y-84932761D02*
X92286667Y-85029523D01*
X92238286Y-85077904D01*
X92141524Y-85126285D01*
X92093143Y-85126285D01*
X91996381Y-85077904D01*
X91948000Y-85029523D01*
X91899619Y-84932761D01*
X91899619Y-84739238D01*
X91948000Y-84642476D01*
X91996381Y-84594095D01*
X92093143Y-84545714D01*
X92141524Y-84545714D01*
X92238286Y-84594095D01*
X92286667Y-84642476D01*
X92335048Y-84739238D01*
X92335048Y-84932761D01*
X92383429Y-85029523D01*
X92431810Y-85077904D01*
X92528571Y-85126285D01*
X92722095Y-85126285D01*
X92818857Y-85077904D01*
X92867238Y-85029523D01*
X92915619Y-84932761D01*
X92915619Y-84739238D01*
X92867238Y-84642476D01*
X92818857Y-84594095D01*
X92722095Y-84545714D01*
X92528571Y-84545714D01*
X92431810Y-84594095D01*
X92383429Y-84642476D01*
X92335048Y-84739238D01*
X160001857Y-52469143D02*
X160050238Y-52517524D01*
X160098619Y-52662667D01*
X160098619Y-52759429D01*
X160050238Y-52904571D01*
X159953476Y-53001333D01*
X159856714Y-53049714D01*
X159663190Y-53098095D01*
X159518048Y-53098095D01*
X159324524Y-53049714D01*
X159227762Y-53001333D01*
X159131000Y-52904571D01*
X159082619Y-52759429D01*
X159082619Y-52662667D01*
X159131000Y-52517524D01*
X159179381Y-52469143D01*
X160098619Y-51501524D02*
X160098619Y-52082095D01*
X160098619Y-51791809D02*
X159082619Y-51791809D01*
X159227762Y-51888571D01*
X159324524Y-51985333D01*
X159372905Y-52082095D01*
X159082619Y-50872571D02*
X159082619Y-50775810D01*
X159131000Y-50679048D01*
X159179381Y-50630667D01*
X159276143Y-50582286D01*
X159469667Y-50533905D01*
X159711571Y-50533905D01*
X159905095Y-50582286D01*
X160001857Y-50630667D01*
X160050238Y-50679048D01*
X160098619Y-50775810D01*
X160098619Y-50872571D01*
X160050238Y-50969333D01*
X160001857Y-51017714D01*
X159905095Y-51066095D01*
X159711571Y-51114476D01*
X159469667Y-51114476D01*
X159276143Y-51066095D01*
X159179381Y-51017714D01*
X159131000Y-50969333D01*
X159082619Y-50872571D01*
X132696857Y-107423857D02*
X132648476Y-107472238D01*
X132503333Y-107520619D01*
X132406571Y-107520619D01*
X132261429Y-107472238D01*
X132164667Y-107375476D01*
X132116286Y-107278714D01*
X132067905Y-107085190D01*
X132067905Y-106940048D01*
X132116286Y-106746524D01*
X132164667Y-106649762D01*
X132261429Y-106553000D01*
X132406571Y-106504619D01*
X132503333Y-106504619D01*
X132648476Y-106553000D01*
X132696857Y-106601381D01*
X133664476Y-107520619D02*
X133083905Y-107520619D01*
X133374191Y-107520619D02*
X133374191Y-106504619D01*
X133277429Y-106649762D01*
X133180667Y-106746524D01*
X133083905Y-106794905D01*
X134632095Y-107520619D02*
X134051524Y-107520619D01*
X134341810Y-107520619D02*
X134341810Y-106504619D01*
X134245048Y-106649762D01*
X134148286Y-106746524D01*
X134051524Y-106794905D01*
X178162857Y-102978857D02*
X178114476Y-103027238D01*
X177969333Y-103075619D01*
X177872571Y-103075619D01*
X177727429Y-103027238D01*
X177630667Y-102930476D01*
X177582286Y-102833714D01*
X177533905Y-102640190D01*
X177533905Y-102495048D01*
X177582286Y-102301524D01*
X177630667Y-102204762D01*
X177727429Y-102108000D01*
X177872571Y-102059619D01*
X177969333Y-102059619D01*
X178114476Y-102108000D01*
X178162857Y-102156381D01*
X179130476Y-103075619D02*
X178549905Y-103075619D01*
X178840191Y-103075619D02*
X178840191Y-102059619D01*
X178743429Y-102204762D01*
X178646667Y-102301524D01*
X178549905Y-102349905D01*
X179517524Y-102156381D02*
X179565905Y-102108000D01*
X179662667Y-102059619D01*
X179904571Y-102059619D01*
X180001333Y-102108000D01*
X180049714Y-102156381D01*
X180098095Y-102253143D01*
X180098095Y-102349905D01*
X180049714Y-102495048D01*
X179469143Y-103075619D01*
X180098095Y-103075619D01*
X116440857Y-111995857D02*
X116392476Y-112044238D01*
X116247333Y-112092619D01*
X116150571Y-112092619D01*
X116005429Y-112044238D01*
X115908667Y-111947476D01*
X115860286Y-111850714D01*
X115811905Y-111657190D01*
X115811905Y-111512048D01*
X115860286Y-111318524D01*
X115908667Y-111221762D01*
X116005429Y-111125000D01*
X116150571Y-111076619D01*
X116247333Y-111076619D01*
X116392476Y-111125000D01*
X116440857Y-111173381D01*
X117408476Y-112092619D02*
X116827905Y-112092619D01*
X117118191Y-112092619D02*
X117118191Y-111076619D01*
X117021429Y-111221762D01*
X116924667Y-111318524D01*
X116827905Y-111366905D01*
X117747143Y-111076619D02*
X118376095Y-111076619D01*
X118037429Y-111463667D01*
X118182571Y-111463667D01*
X118279333Y-111512048D01*
X118327714Y-111560429D01*
X118376095Y-111657190D01*
X118376095Y-111899095D01*
X118327714Y-111995857D01*
X118279333Y-112044238D01*
X118182571Y-112092619D01*
X117892286Y-112092619D01*
X117795524Y-112044238D01*
X117747143Y-111995857D01*
X174322619Y-62804524D02*
X174322619Y-61534524D01*
X174806428Y-61534524D01*
X174927381Y-61595000D01*
X174987857Y-61655476D01*
X175048333Y-61776429D01*
X175048333Y-61957857D01*
X174987857Y-62078810D01*
X174927381Y-62139286D01*
X174806428Y-62199762D01*
X174322619Y-62199762D01*
X176257857Y-62804524D02*
X175532143Y-62804524D01*
X175895000Y-62804524D02*
X175895000Y-61534524D01*
X175774048Y-61715952D01*
X175653095Y-61836905D01*
X175532143Y-61897381D01*
X159082619Y-73980524D02*
X159082619Y-72710524D01*
X159566428Y-72710524D01*
X159687381Y-72771000D01*
X159747857Y-72831476D01*
X159808333Y-72952429D01*
X159808333Y-73133857D01*
X159747857Y-73254810D01*
X159687381Y-73315286D01*
X159566428Y-73375762D01*
X159082619Y-73375762D01*
X160231667Y-72710524D02*
X161017857Y-72710524D01*
X160594524Y-73194333D01*
X160775952Y-73194333D01*
X160896905Y-73254810D01*
X160957381Y-73315286D01*
X161017857Y-73436238D01*
X161017857Y-73738619D01*
X160957381Y-73859571D01*
X160896905Y-73920048D01*
X160775952Y-73980524D01*
X160413095Y-73980524D01*
X160292143Y-73920048D01*
X160231667Y-73859571D01*
X152732619Y-66614524D02*
X152732619Y-65344524D01*
X153216428Y-65344524D01*
X153337381Y-65405000D01*
X153397857Y-65465476D01*
X153458333Y-65586429D01*
X153458333Y-65767857D01*
X153397857Y-65888810D01*
X153337381Y-65949286D01*
X153216428Y-66009762D01*
X152732619Y-66009762D01*
X154546905Y-65767857D02*
X154546905Y-66614524D01*
X154244524Y-65284048D02*
X153942143Y-66191190D01*
X154728333Y-66191190D01*
X164525477Y-96897976D02*
X165311667Y-96897976D01*
X164888334Y-97430167D01*
X165069762Y-97430167D01*
X165190715Y-97496690D01*
X165251191Y-97563214D01*
X165311667Y-97696262D01*
X165311667Y-98028881D01*
X165251191Y-98161929D01*
X165190715Y-98228452D01*
X165069762Y-98294976D01*
X164706905Y-98294976D01*
X164585953Y-98228452D01*
X164525477Y-98161929D01*
X165855953Y-98161929D02*
X165916429Y-98228452D01*
X165855953Y-98294976D01*
X165795477Y-98228452D01*
X165855953Y-98161929D01*
X165855953Y-98294976D01*
X166339763Y-96897976D02*
X167125953Y-96897976D01*
X166702620Y-97430167D01*
X166884048Y-97430167D01*
X167005001Y-97496690D01*
X167065477Y-97563214D01*
X167125953Y-97696262D01*
X167125953Y-98028881D01*
X167065477Y-98161929D01*
X167005001Y-98228452D01*
X166884048Y-98294976D01*
X166521191Y-98294976D01*
X166400239Y-98228452D01*
X166339763Y-98161929D01*
X167670239Y-98294976D02*
X167670239Y-96897976D01*
X167791191Y-97762786D02*
X168154048Y-98294976D01*
X168154048Y-97363643D02*
X167670239Y-97895833D01*
X164525477Y-94357976D02*
X165311667Y-94357976D01*
X164888334Y-94890167D01*
X165069762Y-94890167D01*
X165190715Y-94956690D01*
X165251191Y-95023214D01*
X165311667Y-95156262D01*
X165311667Y-95488881D01*
X165251191Y-95621929D01*
X165190715Y-95688452D01*
X165069762Y-95754976D01*
X164706905Y-95754976D01*
X164585953Y-95688452D01*
X164525477Y-95621929D01*
X165855953Y-95621929D02*
X165916429Y-95688452D01*
X165855953Y-95754976D01*
X165795477Y-95688452D01*
X165855953Y-95621929D01*
X165855953Y-95754976D01*
X166339763Y-94357976D02*
X167125953Y-94357976D01*
X166702620Y-94890167D01*
X166884048Y-94890167D01*
X167005001Y-94956690D01*
X167065477Y-95023214D01*
X167125953Y-95156262D01*
X167125953Y-95488881D01*
X167065477Y-95621929D01*
X167005001Y-95688452D01*
X166884048Y-95754976D01*
X166521191Y-95754976D01*
X166400239Y-95688452D01*
X166339763Y-95621929D01*
X167670239Y-95754976D02*
X167670239Y-94357976D01*
X167791191Y-95222786D02*
X168154048Y-95754976D01*
X168154048Y-94823643D02*
X167670239Y-95355833D01*
X149285477Y-68957976D02*
X150071667Y-68957976D01*
X149648334Y-69490167D01*
X149829762Y-69490167D01*
X149950715Y-69556690D01*
X150011191Y-69623214D01*
X150071667Y-69756262D01*
X150071667Y-70088881D01*
X150011191Y-70221929D01*
X149950715Y-70288452D01*
X149829762Y-70354976D01*
X149466905Y-70354976D01*
X149345953Y-70288452D01*
X149285477Y-70221929D01*
X150615953Y-70221929D02*
X150676429Y-70288452D01*
X150615953Y-70354976D01*
X150555477Y-70288452D01*
X150615953Y-70221929D01*
X150615953Y-70354976D01*
X151099763Y-68957976D02*
X151885953Y-68957976D01*
X151462620Y-69490167D01*
X151644048Y-69490167D01*
X151765001Y-69556690D01*
X151825477Y-69623214D01*
X151885953Y-69756262D01*
X151885953Y-70088881D01*
X151825477Y-70221929D01*
X151765001Y-70288452D01*
X151644048Y-70354976D01*
X151281191Y-70354976D01*
X151160239Y-70288452D01*
X151099763Y-70221929D01*
X152430239Y-70354976D02*
X152430239Y-68957976D01*
X152551191Y-69822786D02*
X152914048Y-70354976D01*
X152914048Y-69423643D02*
X152430239Y-69955833D01*
X149285477Y-66671976D02*
X150071667Y-66671976D01*
X149648334Y-67204167D01*
X149829762Y-67204167D01*
X149950715Y-67270690D01*
X150011191Y-67337214D01*
X150071667Y-67470262D01*
X150071667Y-67802881D01*
X150011191Y-67935929D01*
X149950715Y-68002452D01*
X149829762Y-68068976D01*
X149466905Y-68068976D01*
X149345953Y-68002452D01*
X149285477Y-67935929D01*
X150615953Y-67935929D02*
X150676429Y-68002452D01*
X150615953Y-68068976D01*
X150555477Y-68002452D01*
X150615953Y-67935929D01*
X150615953Y-68068976D01*
X151099763Y-66671976D02*
X151885953Y-66671976D01*
X151462620Y-67204167D01*
X151644048Y-67204167D01*
X151765001Y-67270690D01*
X151825477Y-67337214D01*
X151885953Y-67470262D01*
X151885953Y-67802881D01*
X151825477Y-67935929D01*
X151765001Y-68002452D01*
X151644048Y-68068976D01*
X151281191Y-68068976D01*
X151160239Y-68002452D01*
X151099763Y-67935929D01*
X152430239Y-68068976D02*
X152430239Y-66671976D01*
X152551191Y-67536786D02*
X152914048Y-68068976D01*
X152914048Y-67137643D02*
X152430239Y-67669833D01*
X93214976Y-75800857D02*
X93214976Y-76526571D01*
X93214976Y-76163714D02*
X91817976Y-76163714D01*
X92017548Y-76284666D01*
X92150595Y-76405619D01*
X92217119Y-76526571D01*
X93214976Y-75256571D02*
X91817976Y-75256571D01*
X92815833Y-74833238D01*
X91817976Y-74409904D01*
X93214976Y-74409904D01*
X114535857Y-61129333D02*
X114584238Y-61177714D01*
X114632619Y-61322857D01*
X114632619Y-61419619D01*
X114584238Y-61564761D01*
X114487476Y-61661523D01*
X114390714Y-61709904D01*
X114197190Y-61758285D01*
X114052048Y-61758285D01*
X113858524Y-61709904D01*
X113761762Y-61661523D01*
X113665000Y-61564761D01*
X113616619Y-61419619D01*
X113616619Y-61322857D01*
X113665000Y-61177714D01*
X113713381Y-61129333D01*
X114632619Y-60645523D02*
X114632619Y-60451999D01*
X114584238Y-60355238D01*
X114535857Y-60306857D01*
X114390714Y-60210095D01*
X114197190Y-60161714D01*
X113810143Y-60161714D01*
X113713381Y-60210095D01*
X113665000Y-60258476D01*
X113616619Y-60355238D01*
X113616619Y-60548761D01*
X113665000Y-60645523D01*
X113713381Y-60693904D01*
X113810143Y-60742285D01*
X114052048Y-60742285D01*
X114148810Y-60693904D01*
X114197190Y-60645523D01*
X114245571Y-60548761D01*
X114245571Y-60355238D01*
X114197190Y-60258476D01*
X114148810Y-60210095D01*
X114052048Y-60161714D01*
X105730524Y-125397381D02*
X104460524Y-125397381D01*
X104460524Y-124913572D01*
X104521000Y-124792619D01*
X104581476Y-124732143D01*
X104702429Y-124671667D01*
X104883857Y-124671667D01*
X105004810Y-124732143D01*
X105065286Y-124792619D01*
X105125762Y-124913572D01*
X105125762Y-125397381D01*
X104581476Y-124187857D02*
X104521000Y-124127381D01*
X104460524Y-124006429D01*
X104460524Y-123704048D01*
X104521000Y-123583095D01*
X104581476Y-123522619D01*
X104702429Y-123462143D01*
X104823381Y-123462143D01*
X105004810Y-123522619D01*
X105730524Y-124248333D01*
X105730524Y-123462143D01*
X107526667Y-77324857D02*
X107478286Y-77373238D01*
X107333143Y-77421619D01*
X107236381Y-77421619D01*
X107091239Y-77373238D01*
X106994477Y-77276476D01*
X106946096Y-77179714D01*
X106897715Y-76986190D01*
X106897715Y-76841048D01*
X106946096Y-76647524D01*
X106994477Y-76550762D01*
X107091239Y-76454000D01*
X107236381Y-76405619D01*
X107333143Y-76405619D01*
X107478286Y-76454000D01*
X107526667Y-76502381D01*
X107913715Y-76502381D02*
X107962096Y-76454000D01*
X108058858Y-76405619D01*
X108300762Y-76405619D01*
X108397524Y-76454000D01*
X108445905Y-76502381D01*
X108494286Y-76599143D01*
X108494286Y-76695905D01*
X108445905Y-76841048D01*
X107865334Y-77421619D01*
X108494286Y-77421619D01*
X107526667Y-69704857D02*
X107478286Y-69753238D01*
X107333143Y-69801619D01*
X107236381Y-69801619D01*
X107091239Y-69753238D01*
X106994477Y-69656476D01*
X106946096Y-69559714D01*
X106897715Y-69366190D01*
X106897715Y-69221048D01*
X106946096Y-69027524D01*
X106994477Y-68930762D01*
X107091239Y-68834000D01*
X107236381Y-68785619D01*
X107333143Y-68785619D01*
X107478286Y-68834000D01*
X107526667Y-68882381D01*
X107865334Y-68785619D02*
X108494286Y-68785619D01*
X108155620Y-69172667D01*
X108300762Y-69172667D01*
X108397524Y-69221048D01*
X108445905Y-69269429D01*
X108494286Y-69366190D01*
X108494286Y-69608095D01*
X108445905Y-69704857D01*
X108397524Y-69753238D01*
X108300762Y-69801619D01*
X108010477Y-69801619D01*
X107913715Y-69753238D01*
X107865334Y-69704857D01*
X90674976Y-75800857D02*
X90674976Y-76526571D01*
X90674976Y-76163714D02*
X89277976Y-76163714D01*
X89477548Y-76284666D01*
X89610595Y-76405619D01*
X89677119Y-76526571D01*
X90674976Y-75256571D02*
X89277976Y-75256571D01*
X90275833Y-74833238D01*
X89277976Y-74409904D01*
X90674976Y-74409904D01*
D12*
X159789905Y-138628381D02*
X159789905Y-137628381D01*
X160028000Y-137628381D01*
X160170858Y-137676000D01*
X160266096Y-137771238D01*
X160313715Y-137866476D01*
X160361334Y-138056952D01*
X160361334Y-138199810D01*
X160313715Y-138390286D01*
X160266096Y-138485524D01*
X160170858Y-138580762D01*
X160028000Y-138628381D01*
X159789905Y-138628381D01*
X161313715Y-138628381D02*
X160742286Y-138628381D01*
X161028000Y-138628381D02*
X161028000Y-137628381D01*
X160932762Y-137771238D01*
X160837524Y-137866476D01*
X160742286Y-137914095D01*
X158107143Y-143962381D02*
X157630952Y-143962381D01*
X157630952Y-142962381D01*
X158440476Y-143438571D02*
X158773810Y-143438571D01*
X158916667Y-143962381D02*
X158440476Y-143962381D01*
X158440476Y-142962381D01*
X158916667Y-142962381D01*
X159345238Y-143962381D02*
X159345238Y-142962381D01*
X159583333Y-142962381D01*
X159726191Y-143010000D01*
X159821429Y-143105238D01*
X159869048Y-143200476D01*
X159916667Y-143390952D01*
X159916667Y-143533810D01*
X159869048Y-143724286D01*
X159821429Y-143819524D01*
X159726191Y-143914762D01*
X159583333Y-143962381D01*
X159345238Y-143962381D01*
X205509905Y-138628381D02*
X205509905Y-137628381D01*
X205748000Y-137628381D01*
X205890858Y-137676000D01*
X205986096Y-137771238D01*
X206033715Y-137866476D01*
X206081334Y-138056952D01*
X206081334Y-138199810D01*
X206033715Y-138390286D01*
X205986096Y-138485524D01*
X205890858Y-138580762D01*
X205748000Y-138628381D01*
X205509905Y-138628381D01*
X206462286Y-137723619D02*
X206509905Y-137676000D01*
X206605143Y-137628381D01*
X206843239Y-137628381D01*
X206938477Y-137676000D01*
X206986096Y-137723619D01*
X207033715Y-137818857D01*
X207033715Y-137914095D01*
X206986096Y-138056952D01*
X206414667Y-138628381D01*
X207033715Y-138628381D01*
X203827143Y-143962381D02*
X203350952Y-143962381D01*
X203350952Y-142962381D01*
X204160476Y-143438571D02*
X204493810Y-143438571D01*
X204636667Y-143962381D02*
X204160476Y-143962381D01*
X204160476Y-142962381D01*
X204636667Y-142962381D01*
X205065238Y-143962381D02*
X205065238Y-142962381D01*
X205303333Y-142962381D01*
X205446191Y-143010000D01*
X205541429Y-143105238D01*
X205589048Y-143200476D01*
X205636667Y-143390952D01*
X205636667Y-143533810D01*
X205589048Y-143724286D01*
X205541429Y-143819524D01*
X205446191Y-143914762D01*
X205303333Y-143962381D01*
X205065238Y-143962381D01*
X182649905Y-138628381D02*
X182649905Y-137628381D01*
X182888000Y-137628381D01*
X183030858Y-137676000D01*
X183126096Y-137771238D01*
X183173715Y-137866476D01*
X183221334Y-138056952D01*
X183221334Y-138199810D01*
X183173715Y-138390286D01*
X183126096Y-138485524D01*
X183030858Y-138580762D01*
X182888000Y-138628381D01*
X182649905Y-138628381D01*
X183554667Y-137628381D02*
X184173715Y-137628381D01*
X183840381Y-138009333D01*
X183983239Y-138009333D01*
X184078477Y-138056952D01*
X184126096Y-138104571D01*
X184173715Y-138199810D01*
X184173715Y-138437905D01*
X184126096Y-138533143D01*
X184078477Y-138580762D01*
X183983239Y-138628381D01*
X183697524Y-138628381D01*
X183602286Y-138580762D01*
X183554667Y-138533143D01*
X180967143Y-143962381D02*
X180490952Y-143962381D01*
X180490952Y-142962381D01*
X181300476Y-143438571D02*
X181633810Y-143438571D01*
X181776667Y-143962381D02*
X181300476Y-143962381D01*
X181300476Y-142962381D01*
X181776667Y-142962381D01*
X182205238Y-143962381D02*
X182205238Y-142962381D01*
X182443333Y-142962381D01*
X182586191Y-143010000D01*
X182681429Y-143105238D01*
X182729048Y-143200476D01*
X182776667Y-143390952D01*
X182776667Y-143533810D01*
X182729048Y-143724286D01*
X182681429Y-143819524D01*
X182586191Y-143914762D01*
X182443333Y-143962381D01*
X182205238Y-143962381D01*
X147351905Y-140390619D02*
X147399524Y-140343000D01*
X147494762Y-140295381D01*
X147732858Y-140295381D01*
X147828096Y-140343000D01*
X147875715Y-140390619D01*
X147923334Y-140485857D01*
X147923334Y-140581095D01*
X147875715Y-140723952D01*
X147304286Y-141295381D01*
X147923334Y-141295381D01*
X148256667Y-140295381D02*
X148923334Y-140295381D01*
X148494762Y-141295381D01*
X149494762Y-140295381D02*
X149590001Y-140295381D01*
X149685239Y-140343000D01*
X149732858Y-140390619D01*
X149780477Y-140485857D01*
X149828096Y-140676333D01*
X149828096Y-140914429D01*
X149780477Y-141104905D01*
X149732858Y-141200143D01*
X149685239Y-141247762D01*
X149590001Y-141295381D01*
X149494762Y-141295381D01*
X149399524Y-141247762D01*
X149351905Y-141200143D01*
X149304286Y-141104905D01*
X149256667Y-140914429D01*
X149256667Y-140676333D01*
X149304286Y-140485857D01*
X149351905Y-140390619D01*
X149399524Y-140343000D01*
X149494762Y-140295381D01*
X193071905Y-140390619D02*
X193119524Y-140343000D01*
X193214762Y-140295381D01*
X193452858Y-140295381D01*
X193548096Y-140343000D01*
X193595715Y-140390619D01*
X193643334Y-140485857D01*
X193643334Y-140581095D01*
X193595715Y-140723952D01*
X193024286Y-141295381D01*
X193643334Y-141295381D01*
X193976667Y-140295381D02*
X194643334Y-140295381D01*
X194214762Y-141295381D01*
X195214762Y-140295381D02*
X195310001Y-140295381D01*
X195405239Y-140343000D01*
X195452858Y-140390619D01*
X195500477Y-140485857D01*
X195548096Y-140676333D01*
X195548096Y-140914429D01*
X195500477Y-141104905D01*
X195452858Y-141200143D01*
X195405239Y-141247762D01*
X195310001Y-141295381D01*
X195214762Y-141295381D01*
X195119524Y-141247762D01*
X195071905Y-141200143D01*
X195024286Y-141104905D01*
X194976667Y-140914429D01*
X194976667Y-140676333D01*
X195024286Y-140485857D01*
X195071905Y-140390619D01*
X195119524Y-140343000D01*
X195214762Y-140295381D01*
X170211905Y-140390619D02*
X170259524Y-140343000D01*
X170354762Y-140295381D01*
X170592858Y-140295381D01*
X170688096Y-140343000D01*
X170735715Y-140390619D01*
X170783334Y-140485857D01*
X170783334Y-140581095D01*
X170735715Y-140723952D01*
X170164286Y-141295381D01*
X170783334Y-141295381D01*
X171116667Y-140295381D02*
X171783334Y-140295381D01*
X171354762Y-141295381D01*
X172354762Y-140295381D02*
X172450001Y-140295381D01*
X172545239Y-140343000D01*
X172592858Y-140390619D01*
X172640477Y-140485857D01*
X172688096Y-140676333D01*
X172688096Y-140914429D01*
X172640477Y-141104905D01*
X172592858Y-141200143D01*
X172545239Y-141247762D01*
X172450001Y-141295381D01*
X172354762Y-141295381D01*
X172259524Y-141247762D01*
X172211905Y-141200143D01*
X172164286Y-141104905D01*
X172116667Y-140914429D01*
X172116667Y-140676333D01*
X172164286Y-140485857D01*
X172211905Y-140390619D01*
X172259524Y-140343000D01*
X172354762Y-140295381D01*
X70556381Y-100306095D02*
X69556381Y-100306095D01*
X69556381Y-100068000D01*
X69604000Y-99925142D01*
X69699238Y-99829904D01*
X69794476Y-99782285D01*
X69984952Y-99734666D01*
X70127810Y-99734666D01*
X70318286Y-99782285D01*
X70413524Y-99829904D01*
X70508762Y-99925142D01*
X70556381Y-100068000D01*
X70556381Y-100306095D01*
X69889714Y-98877523D02*
X70556381Y-98877523D01*
X69508762Y-99115619D02*
X70223048Y-99353714D01*
X70223048Y-98734666D01*
X65222381Y-98432857D02*
X65222381Y-98909048D01*
X64222381Y-98909048D01*
X64698571Y-98099524D02*
X64698571Y-97766190D01*
X65222381Y-97623333D02*
X65222381Y-98099524D01*
X64222381Y-98099524D01*
X64222381Y-97623333D01*
X65222381Y-97194762D02*
X64222381Y-97194762D01*
X64222381Y-96956667D01*
X64270000Y-96813809D01*
X64365238Y-96718571D01*
X64460476Y-96670952D01*
X64650952Y-96623333D01*
X64793810Y-96623333D01*
X64984286Y-96670952D01*
X65079524Y-96718571D01*
X65174762Y-96813809D01*
X65222381Y-96956667D01*
X65222381Y-97194762D01*
X70556381Y-105386095D02*
X69556381Y-105386095D01*
X69556381Y-105148000D01*
X69604000Y-105005142D01*
X69699238Y-104909904D01*
X69794476Y-104862285D01*
X69984952Y-104814666D01*
X70127810Y-104814666D01*
X70318286Y-104862285D01*
X70413524Y-104909904D01*
X70508762Y-105005142D01*
X70556381Y-105148000D01*
X70556381Y-105386095D01*
X69556381Y-103909904D02*
X69556381Y-104386095D01*
X70032571Y-104433714D01*
X69984952Y-104386095D01*
X69937333Y-104290857D01*
X69937333Y-104052761D01*
X69984952Y-103957523D01*
X70032571Y-103909904D01*
X70127810Y-103862285D01*
X70365905Y-103862285D01*
X70461143Y-103909904D01*
X70508762Y-103957523D01*
X70556381Y-104052761D01*
X70556381Y-104290857D01*
X70508762Y-104386095D01*
X70461143Y-104433714D01*
X65222381Y-103512857D02*
X65222381Y-103989048D01*
X64222381Y-103989048D01*
X64698571Y-103179524D02*
X64698571Y-102846190D01*
X65222381Y-102703333D02*
X65222381Y-103179524D01*
X64222381Y-103179524D01*
X64222381Y-102703333D01*
X65222381Y-102274762D02*
X64222381Y-102274762D01*
X64222381Y-102036667D01*
X64270000Y-101893809D01*
X64365238Y-101798571D01*
X64460476Y-101750952D01*
X64650952Y-101703333D01*
X64793810Y-101703333D01*
X64984286Y-101750952D01*
X65079524Y-101798571D01*
X65174762Y-101893809D01*
X65222381Y-102036667D01*
X65222381Y-102274762D01*
X70556381Y-110466095D02*
X69556381Y-110466095D01*
X69556381Y-110228000D01*
X69604000Y-110085142D01*
X69699238Y-109989904D01*
X69794476Y-109942285D01*
X69984952Y-109894666D01*
X70127810Y-109894666D01*
X70318286Y-109942285D01*
X70413524Y-109989904D01*
X70508762Y-110085142D01*
X70556381Y-110228000D01*
X70556381Y-110466095D01*
X69556381Y-109037523D02*
X69556381Y-109228000D01*
X69604000Y-109323238D01*
X69651619Y-109370857D01*
X69794476Y-109466095D01*
X69984952Y-109513714D01*
X70365905Y-109513714D01*
X70461143Y-109466095D01*
X70508762Y-109418476D01*
X70556381Y-109323238D01*
X70556381Y-109132761D01*
X70508762Y-109037523D01*
X70461143Y-108989904D01*
X70365905Y-108942285D01*
X70127810Y-108942285D01*
X70032571Y-108989904D01*
X69984952Y-109037523D01*
X69937333Y-109132761D01*
X69937333Y-109323238D01*
X69984952Y-109418476D01*
X70032571Y-109466095D01*
X70127810Y-109513714D01*
X65222381Y-108592857D02*
X65222381Y-109069048D01*
X64222381Y-109069048D01*
X64698571Y-108259524D02*
X64698571Y-107926190D01*
X65222381Y-107783333D02*
X65222381Y-108259524D01*
X64222381Y-108259524D01*
X64222381Y-107783333D01*
X65222381Y-107354762D02*
X64222381Y-107354762D01*
X64222381Y-107116667D01*
X64270000Y-106973809D01*
X64365238Y-106878571D01*
X64460476Y-106830952D01*
X64650952Y-106783333D01*
X64793810Y-106783333D01*
X64984286Y-106830952D01*
X65079524Y-106878571D01*
X65174762Y-106973809D01*
X65222381Y-107116667D01*
X65222381Y-107354762D01*
X70556381Y-115546095D02*
X69556381Y-115546095D01*
X69556381Y-115308000D01*
X69604000Y-115165142D01*
X69699238Y-115069904D01*
X69794476Y-115022285D01*
X69984952Y-114974666D01*
X70127810Y-114974666D01*
X70318286Y-115022285D01*
X70413524Y-115069904D01*
X70508762Y-115165142D01*
X70556381Y-115308000D01*
X70556381Y-115546095D01*
X69556381Y-114641333D02*
X69556381Y-113974666D01*
X70556381Y-114403238D01*
X65222381Y-113672857D02*
X65222381Y-114149048D01*
X64222381Y-114149048D01*
X64698571Y-113339524D02*
X64698571Y-113006190D01*
X65222381Y-112863333D02*
X65222381Y-113339524D01*
X64222381Y-113339524D01*
X64222381Y-112863333D01*
X65222381Y-112434762D02*
X64222381Y-112434762D01*
X64222381Y-112196667D01*
X64270000Y-112053809D01*
X64365238Y-111958571D01*
X64460476Y-111910952D01*
X64650952Y-111863333D01*
X64793810Y-111863333D01*
X64984286Y-111910952D01*
X65079524Y-111958571D01*
X65174762Y-112053809D01*
X65222381Y-112196667D01*
X65222381Y-112434762D01*
X70556381Y-120626095D02*
X69556381Y-120626095D01*
X69556381Y-120388000D01*
X69604000Y-120245142D01*
X69699238Y-120149904D01*
X69794476Y-120102285D01*
X69984952Y-120054666D01*
X70127810Y-120054666D01*
X70318286Y-120102285D01*
X70413524Y-120149904D01*
X70508762Y-120245142D01*
X70556381Y-120388000D01*
X70556381Y-120626095D01*
X69984952Y-119483238D02*
X69937333Y-119578476D01*
X69889714Y-119626095D01*
X69794476Y-119673714D01*
X69746857Y-119673714D01*
X69651619Y-119626095D01*
X69604000Y-119578476D01*
X69556381Y-119483238D01*
X69556381Y-119292761D01*
X69604000Y-119197523D01*
X69651619Y-119149904D01*
X69746857Y-119102285D01*
X69794476Y-119102285D01*
X69889714Y-119149904D01*
X69937333Y-119197523D01*
X69984952Y-119292761D01*
X69984952Y-119483238D01*
X70032571Y-119578476D01*
X70080190Y-119626095D01*
X70175429Y-119673714D01*
X70365905Y-119673714D01*
X70461143Y-119626095D01*
X70508762Y-119578476D01*
X70556381Y-119483238D01*
X70556381Y-119292761D01*
X70508762Y-119197523D01*
X70461143Y-119149904D01*
X70365905Y-119102285D01*
X70175429Y-119102285D01*
X70080190Y-119149904D01*
X70032571Y-119197523D01*
X69984952Y-119292761D01*
X65222381Y-118752857D02*
X65222381Y-119229048D01*
X64222381Y-119229048D01*
X64698571Y-118419524D02*
X64698571Y-118086190D01*
X65222381Y-117943333D02*
X65222381Y-118419524D01*
X64222381Y-118419524D01*
X64222381Y-117943333D01*
X65222381Y-117514762D02*
X64222381Y-117514762D01*
X64222381Y-117276667D01*
X64270000Y-117133809D01*
X64365238Y-117038571D01*
X64460476Y-116990952D01*
X64650952Y-116943333D01*
X64793810Y-116943333D01*
X64984286Y-116990952D01*
X65079524Y-117038571D01*
X65174762Y-117133809D01*
X65222381Y-117276667D01*
X65222381Y-117514762D01*
X70556381Y-125706095D02*
X69556381Y-125706095D01*
X69556381Y-125468000D01*
X69604000Y-125325142D01*
X69699238Y-125229904D01*
X69794476Y-125182285D01*
X69984952Y-125134666D01*
X70127810Y-125134666D01*
X70318286Y-125182285D01*
X70413524Y-125229904D01*
X70508762Y-125325142D01*
X70556381Y-125468000D01*
X70556381Y-125706095D01*
X70556381Y-124658476D02*
X70556381Y-124468000D01*
X70508762Y-124372761D01*
X70461143Y-124325142D01*
X70318286Y-124229904D01*
X70127810Y-124182285D01*
X69746857Y-124182285D01*
X69651619Y-124229904D01*
X69604000Y-124277523D01*
X69556381Y-124372761D01*
X69556381Y-124563238D01*
X69604000Y-124658476D01*
X69651619Y-124706095D01*
X69746857Y-124753714D01*
X69984952Y-124753714D01*
X70080190Y-124706095D01*
X70127810Y-124658476D01*
X70175429Y-124563238D01*
X70175429Y-124372761D01*
X70127810Y-124277523D01*
X70080190Y-124229904D01*
X69984952Y-124182285D01*
X65222381Y-123832857D02*
X65222381Y-124309048D01*
X64222381Y-124309048D01*
X64698571Y-123499524D02*
X64698571Y-123166190D01*
X65222381Y-123023333D02*
X65222381Y-123499524D01*
X64222381Y-123499524D01*
X64222381Y-123023333D01*
X65222381Y-122594762D02*
X64222381Y-122594762D01*
X64222381Y-122356667D01*
X64270000Y-122213809D01*
X64365238Y-122118571D01*
X64460476Y-122070952D01*
X64650952Y-122023333D01*
X64793810Y-122023333D01*
X64984286Y-122070952D01*
X65079524Y-122118571D01*
X65174762Y-122213809D01*
X65222381Y-122356667D01*
X65222381Y-122594762D01*
X70556381Y-131262286D02*
X69556381Y-131262286D01*
X69556381Y-131024191D01*
X69604000Y-130881333D01*
X69699238Y-130786095D01*
X69794476Y-130738476D01*
X69984952Y-130690857D01*
X70127810Y-130690857D01*
X70318286Y-130738476D01*
X70413524Y-130786095D01*
X70508762Y-130881333D01*
X70556381Y-131024191D01*
X70556381Y-131262286D01*
X70556381Y-129738476D02*
X70556381Y-130309905D01*
X70556381Y-130024191D02*
X69556381Y-130024191D01*
X69699238Y-130119429D01*
X69794476Y-130214667D01*
X69842095Y-130309905D01*
X69556381Y-129119429D02*
X69556381Y-129024190D01*
X69604000Y-128928952D01*
X69651619Y-128881333D01*
X69746857Y-128833714D01*
X69937333Y-128786095D01*
X70175429Y-128786095D01*
X70365905Y-128833714D01*
X70461143Y-128881333D01*
X70508762Y-128928952D01*
X70556381Y-129024190D01*
X70556381Y-129119429D01*
X70508762Y-129214667D01*
X70461143Y-129262286D01*
X70365905Y-129309905D01*
X70175429Y-129357524D01*
X69937333Y-129357524D01*
X69746857Y-129309905D01*
X69651619Y-129262286D01*
X69604000Y-129214667D01*
X69556381Y-129119429D01*
X65222381Y-128912857D02*
X65222381Y-129389048D01*
X64222381Y-129389048D01*
X64698571Y-128579524D02*
X64698571Y-128246190D01*
X65222381Y-128103333D02*
X65222381Y-128579524D01*
X64222381Y-128579524D01*
X64222381Y-128103333D01*
X65222381Y-127674762D02*
X64222381Y-127674762D01*
X64222381Y-127436667D01*
X64270000Y-127293809D01*
X64365238Y-127198571D01*
X64460476Y-127150952D01*
X64650952Y-127103333D01*
X64793810Y-127103333D01*
X64984286Y-127150952D01*
X65079524Y-127198571D01*
X65174762Y-127293809D01*
X65222381Y-127436667D01*
X65222381Y-127674762D01*
X70556381Y-136342286D02*
X69556381Y-136342286D01*
X69556381Y-136104191D01*
X69604000Y-135961333D01*
X69699238Y-135866095D01*
X69794476Y-135818476D01*
X69984952Y-135770857D01*
X70127810Y-135770857D01*
X70318286Y-135818476D01*
X70413524Y-135866095D01*
X70508762Y-135961333D01*
X70556381Y-136104191D01*
X70556381Y-136342286D01*
X70556381Y-134818476D02*
X70556381Y-135389905D01*
X70556381Y-135104191D02*
X69556381Y-135104191D01*
X69699238Y-135199429D01*
X69794476Y-135294667D01*
X69842095Y-135389905D01*
X70556381Y-133866095D02*
X70556381Y-134437524D01*
X70556381Y-134151810D02*
X69556381Y-134151810D01*
X69699238Y-134247048D01*
X69794476Y-134342286D01*
X69842095Y-134437524D01*
X65222381Y-133992857D02*
X65222381Y-134469048D01*
X64222381Y-134469048D01*
X64698571Y-133659524D02*
X64698571Y-133326190D01*
X65222381Y-133183333D02*
X65222381Y-133659524D01*
X64222381Y-133659524D01*
X64222381Y-133183333D01*
X65222381Y-132754762D02*
X64222381Y-132754762D01*
X64222381Y-132516667D01*
X64270000Y-132373809D01*
X64365238Y-132278571D01*
X64460476Y-132230952D01*
X64650952Y-132183333D01*
X64793810Y-132183333D01*
X64984286Y-132230952D01*
X65079524Y-132278571D01*
X65174762Y-132373809D01*
X65222381Y-132516667D01*
X65222381Y-132754762D01*
X94011905Y-117784619D02*
X94059524Y-117737000D01*
X94154762Y-117689381D01*
X94392858Y-117689381D01*
X94488096Y-117737000D01*
X94535715Y-117784619D01*
X94583334Y-117879857D01*
X94583334Y-117975095D01*
X94535715Y-118117952D01*
X93964286Y-118689381D01*
X94583334Y-118689381D01*
X94916667Y-117689381D02*
X95583334Y-117689381D01*
X95154762Y-118689381D01*
X96154762Y-117689381D02*
X96250001Y-117689381D01*
X96345239Y-117737000D01*
X96392858Y-117784619D01*
X96440477Y-117879857D01*
X96488096Y-118070333D01*
X96488096Y-118308429D01*
X96440477Y-118498905D01*
X96392858Y-118594143D01*
X96345239Y-118641762D01*
X96250001Y-118689381D01*
X96154762Y-118689381D01*
X96059524Y-118641762D01*
X96011905Y-118594143D01*
X95964286Y-118498905D01*
X95916667Y-118308429D01*
X95916667Y-118070333D01*
X95964286Y-117879857D01*
X96011905Y-117784619D01*
X96059524Y-117737000D01*
X96154762Y-117689381D01*
X94011905Y-120324619D02*
X94059524Y-120277000D01*
X94154762Y-120229381D01*
X94392858Y-120229381D01*
X94488096Y-120277000D01*
X94535715Y-120324619D01*
X94583334Y-120419857D01*
X94583334Y-120515095D01*
X94535715Y-120657952D01*
X93964286Y-121229381D01*
X94583334Y-121229381D01*
X94916667Y-120229381D02*
X95583334Y-120229381D01*
X95154762Y-121229381D01*
X96154762Y-120229381D02*
X96250001Y-120229381D01*
X96345239Y-120277000D01*
X96392858Y-120324619D01*
X96440477Y-120419857D01*
X96488096Y-120610333D01*
X96488096Y-120848429D01*
X96440477Y-121038905D01*
X96392858Y-121134143D01*
X96345239Y-121181762D01*
X96250001Y-121229381D01*
X96154762Y-121229381D01*
X96059524Y-121181762D01*
X96011905Y-121134143D01*
X95964286Y-121038905D01*
X95916667Y-120848429D01*
X95916667Y-120610333D01*
X95964286Y-120419857D01*
X96011905Y-120324619D01*
X96059524Y-120277000D01*
X96154762Y-120229381D01*
X94011905Y-122864619D02*
X94059524Y-122817000D01*
X94154762Y-122769381D01*
X94392858Y-122769381D01*
X94488096Y-122817000D01*
X94535715Y-122864619D01*
X94583334Y-122959857D01*
X94583334Y-123055095D01*
X94535715Y-123197952D01*
X93964286Y-123769381D01*
X94583334Y-123769381D01*
X94916667Y-122769381D02*
X95583334Y-122769381D01*
X95154762Y-123769381D01*
X96154762Y-122769381D02*
X96250001Y-122769381D01*
X96345239Y-122817000D01*
X96392858Y-122864619D01*
X96440477Y-122959857D01*
X96488096Y-123150333D01*
X96488096Y-123388429D01*
X96440477Y-123578905D01*
X96392858Y-123674143D01*
X96345239Y-123721762D01*
X96250001Y-123769381D01*
X96154762Y-123769381D01*
X96059524Y-123721762D01*
X96011905Y-123674143D01*
X95964286Y-123578905D01*
X95916667Y-123388429D01*
X95916667Y-123150333D01*
X95964286Y-122959857D01*
X96011905Y-122864619D01*
X96059524Y-122817000D01*
X96154762Y-122769381D01*
X94011905Y-125404619D02*
X94059524Y-125357000D01*
X94154762Y-125309381D01*
X94392858Y-125309381D01*
X94488096Y-125357000D01*
X94535715Y-125404619D01*
X94583334Y-125499857D01*
X94583334Y-125595095D01*
X94535715Y-125737952D01*
X93964286Y-126309381D01*
X94583334Y-126309381D01*
X94916667Y-125309381D02*
X95583334Y-125309381D01*
X95154762Y-126309381D01*
X96154762Y-125309381D02*
X96250001Y-125309381D01*
X96345239Y-125357000D01*
X96392858Y-125404619D01*
X96440477Y-125499857D01*
X96488096Y-125690333D01*
X96488096Y-125928429D01*
X96440477Y-126118905D01*
X96392858Y-126214143D01*
X96345239Y-126261762D01*
X96250001Y-126309381D01*
X96154762Y-126309381D01*
X96059524Y-126261762D01*
X96011905Y-126214143D01*
X95964286Y-126118905D01*
X95916667Y-125928429D01*
X95916667Y-125690333D01*
X95964286Y-125499857D01*
X96011905Y-125404619D01*
X96059524Y-125357000D01*
X96154762Y-125309381D01*
X94011905Y-127944619D02*
X94059524Y-127897000D01*
X94154762Y-127849381D01*
X94392858Y-127849381D01*
X94488096Y-127897000D01*
X94535715Y-127944619D01*
X94583334Y-128039857D01*
X94583334Y-128135095D01*
X94535715Y-128277952D01*
X93964286Y-128849381D01*
X94583334Y-128849381D01*
X94916667Y-127849381D02*
X95583334Y-127849381D01*
X95154762Y-128849381D01*
X96154762Y-127849381D02*
X96250001Y-127849381D01*
X96345239Y-127897000D01*
X96392858Y-127944619D01*
X96440477Y-128039857D01*
X96488096Y-128230333D01*
X96488096Y-128468429D01*
X96440477Y-128658905D01*
X96392858Y-128754143D01*
X96345239Y-128801762D01*
X96250001Y-128849381D01*
X96154762Y-128849381D01*
X96059524Y-128801762D01*
X96011905Y-128754143D01*
X95964286Y-128658905D01*
X95916667Y-128468429D01*
X95916667Y-128230333D01*
X95964286Y-128039857D01*
X96011905Y-127944619D01*
X96059524Y-127897000D01*
X96154762Y-127849381D01*
X94011905Y-130484619D02*
X94059524Y-130437000D01*
X94154762Y-130389381D01*
X94392858Y-130389381D01*
X94488096Y-130437000D01*
X94535715Y-130484619D01*
X94583334Y-130579857D01*
X94583334Y-130675095D01*
X94535715Y-130817952D01*
X93964286Y-131389381D01*
X94583334Y-131389381D01*
X94916667Y-130389381D02*
X95583334Y-130389381D01*
X95154762Y-131389381D01*
X96154762Y-130389381D02*
X96250001Y-130389381D01*
X96345239Y-130437000D01*
X96392858Y-130484619D01*
X96440477Y-130579857D01*
X96488096Y-130770333D01*
X96488096Y-131008429D01*
X96440477Y-131198905D01*
X96392858Y-131294143D01*
X96345239Y-131341762D01*
X96250001Y-131389381D01*
X96154762Y-131389381D01*
X96059524Y-131341762D01*
X96011905Y-131294143D01*
X95964286Y-131198905D01*
X95916667Y-131008429D01*
X95916667Y-130770333D01*
X95964286Y-130579857D01*
X96011905Y-130484619D01*
X96059524Y-130437000D01*
X96154762Y-130389381D01*
X94011905Y-133024619D02*
X94059524Y-132977000D01*
X94154762Y-132929381D01*
X94392858Y-132929381D01*
X94488096Y-132977000D01*
X94535715Y-133024619D01*
X94583334Y-133119857D01*
X94583334Y-133215095D01*
X94535715Y-133357952D01*
X93964286Y-133929381D01*
X94583334Y-133929381D01*
X94916667Y-132929381D02*
X95583334Y-132929381D01*
X95154762Y-133929381D01*
X96154762Y-132929381D02*
X96250001Y-132929381D01*
X96345239Y-132977000D01*
X96392858Y-133024619D01*
X96440477Y-133119857D01*
X96488096Y-133310333D01*
X96488096Y-133548429D01*
X96440477Y-133738905D01*
X96392858Y-133834143D01*
X96345239Y-133881762D01*
X96250001Y-133929381D01*
X96154762Y-133929381D01*
X96059524Y-133881762D01*
X96011905Y-133834143D01*
X95964286Y-133738905D01*
X95916667Y-133548429D01*
X95916667Y-133310333D01*
X95964286Y-133119857D01*
X96011905Y-133024619D01*
X96059524Y-132977000D01*
X96154762Y-132929381D01*
X116927381Y-78708095D02*
X117736905Y-78708095D01*
X117832143Y-78660476D01*
X117879762Y-78612857D01*
X117927381Y-78517619D01*
X117927381Y-78327142D01*
X117879762Y-78231904D01*
X117832143Y-78184285D01*
X117736905Y-78136666D01*
X116927381Y-78136666D01*
X117927381Y-77136666D02*
X117927381Y-77708095D01*
X117927381Y-77422381D02*
X116927381Y-77422381D01*
X117070238Y-77517619D01*
X117165476Y-77612857D01*
X117213095Y-77708095D01*
X117260714Y-76279523D02*
X117927381Y-76279523D01*
X116879762Y-76517619D02*
X117594048Y-76755714D01*
X117594048Y-76136666D01*
X127111429Y-75065000D02*
X127016191Y-75017381D01*
X126873334Y-75017381D01*
X126730476Y-75065000D01*
X126635238Y-75160238D01*
X126587619Y-75255476D01*
X126540000Y-75445952D01*
X126540000Y-75588810D01*
X126587619Y-75779286D01*
X126635238Y-75874524D01*
X126730476Y-75969762D01*
X126873334Y-76017381D01*
X126968572Y-76017381D01*
X127111429Y-75969762D01*
X127159048Y-75922143D01*
X127159048Y-75588810D01*
X126968572Y-75588810D01*
X127540000Y-75731667D02*
X128016191Y-75731667D01*
X127444762Y-76017381D02*
X127778095Y-75017381D01*
X128111429Y-76017381D01*
X128920953Y-76017381D02*
X128444762Y-76017381D01*
X128444762Y-75017381D01*
X129778096Y-76017381D02*
X129206667Y-76017381D01*
X129492381Y-76017381D02*
X129492381Y-75017381D01*
X129397143Y-75160238D01*
X129301905Y-75255476D01*
X129206667Y-75303095D01*
X130635239Y-75017381D02*
X130444762Y-75017381D01*
X130349524Y-75065000D01*
X130301905Y-75112619D01*
X130206667Y-75255476D01*
X130159048Y-75445952D01*
X130159048Y-75826905D01*
X130206667Y-75922143D01*
X130254286Y-75969762D01*
X130349524Y-76017381D01*
X130540001Y-76017381D01*
X130635239Y-75969762D01*
X130682858Y-75922143D01*
X130730477Y-75826905D01*
X130730477Y-75588810D01*
X130682858Y-75493571D01*
X130635239Y-75445952D01*
X130540001Y-75398333D01*
X130349524Y-75398333D01*
X130254286Y-75445952D01*
X130206667Y-75493571D01*
X130159048Y-75588810D01*
X131016191Y-75017381D02*
X131349524Y-76017381D01*
X131682858Y-75017381D01*
X132159048Y-75445952D02*
X132063810Y-75398333D01*
X132016191Y-75350714D01*
X131968572Y-75255476D01*
X131968572Y-75207857D01*
X132016191Y-75112619D01*
X132063810Y-75065000D01*
X132159048Y-75017381D01*
X132349525Y-75017381D01*
X132444763Y-75065000D01*
X132492382Y-75112619D01*
X132540001Y-75207857D01*
X132540001Y-75255476D01*
X132492382Y-75350714D01*
X132444763Y-75398333D01*
X132349525Y-75445952D01*
X132159048Y-75445952D01*
X132063810Y-75493571D01*
X132016191Y-75541190D01*
X131968572Y-75636429D01*
X131968572Y-75826905D01*
X132016191Y-75922143D01*
X132063810Y-75969762D01*
X132159048Y-76017381D01*
X132349525Y-76017381D01*
X132444763Y-75969762D01*
X132492382Y-75922143D01*
X132540001Y-75826905D01*
X132540001Y-75636429D01*
X132492382Y-75541190D01*
X132444763Y-75493571D01*
X132349525Y-75445952D01*
X116927381Y-66801905D02*
X117736905Y-66801905D01*
X117832143Y-66754286D01*
X117879762Y-66706667D01*
X117927381Y-66611429D01*
X117927381Y-66420952D01*
X117879762Y-66325714D01*
X117832143Y-66278095D01*
X117736905Y-66230476D01*
X116927381Y-66230476D01*
X117927381Y-65706667D02*
X117927381Y-65516191D01*
X117879762Y-65420952D01*
X117832143Y-65373333D01*
X117689286Y-65278095D01*
X117498810Y-65230476D01*
X117117857Y-65230476D01*
X117022619Y-65278095D01*
X116975000Y-65325714D01*
X116927381Y-65420952D01*
X116927381Y-65611429D01*
X116975000Y-65706667D01*
X117022619Y-65754286D01*
X117117857Y-65801905D01*
X117355952Y-65801905D01*
X117451190Y-65754286D01*
X117498810Y-65706667D01*
X117546429Y-65611429D01*
X117546429Y-65420952D01*
X117498810Y-65325714D01*
X117451190Y-65278095D01*
X117355952Y-65230476D01*
X127690952Y-62317381D02*
X128357619Y-62317381D01*
X127929047Y-63317381D01*
X129167143Y-62650714D02*
X129167143Y-63317381D01*
X128929047Y-62269762D02*
X128690952Y-62984048D01*
X129310000Y-62984048D01*
X130167143Y-63317381D02*
X129690952Y-63317381D01*
X129690952Y-62317381D01*
X130452857Y-63269762D02*
X130595714Y-63317381D01*
X130833810Y-63317381D01*
X130929048Y-63269762D01*
X130976667Y-63222143D01*
X131024286Y-63126905D01*
X131024286Y-63031667D01*
X130976667Y-62936429D01*
X130929048Y-62888810D01*
X130833810Y-62841190D01*
X130643333Y-62793571D01*
X130548095Y-62745952D01*
X130500476Y-62698333D01*
X130452857Y-62603095D01*
X130452857Y-62507857D01*
X130500476Y-62412619D01*
X130548095Y-62365000D01*
X130643333Y-62317381D01*
X130881429Y-62317381D01*
X131024286Y-62365000D01*
X131976667Y-63317381D02*
X131405238Y-63317381D01*
X131690952Y-63317381D02*
X131690952Y-62317381D01*
X131595714Y-62460238D01*
X131500476Y-62555476D01*
X131405238Y-62603095D01*
X132310000Y-62317381D02*
X132929048Y-62317381D01*
X132595714Y-62698333D01*
X132738572Y-62698333D01*
X132833810Y-62745952D01*
X132881429Y-62793571D01*
X132929048Y-62888810D01*
X132929048Y-63126905D01*
X132881429Y-63222143D01*
X132833810Y-63269762D01*
X132738572Y-63317381D01*
X132452857Y-63317381D01*
X132357619Y-63269762D01*
X132310000Y-63222143D01*
X133405238Y-63317381D02*
X133595714Y-63317381D01*
X133690953Y-63269762D01*
X133738572Y-63222143D01*
X133833810Y-63079286D01*
X133881429Y-62888810D01*
X133881429Y-62507857D01*
X133833810Y-62412619D01*
X133786191Y-62365000D01*
X133690953Y-62317381D01*
X133500476Y-62317381D01*
X133405238Y-62365000D01*
X133357619Y-62412619D01*
X133310000Y-62507857D01*
X133310000Y-62745952D01*
X133357619Y-62841190D01*
X133405238Y-62888810D01*
X133500476Y-62936429D01*
X133690953Y-62936429D01*
X133786191Y-62888810D01*
X133833810Y-62841190D01*
X133881429Y-62745952D01*
X114403143Y-73286857D02*
X114450762Y-73334476D01*
X114498381Y-73477333D01*
X114498381Y-73572571D01*
X114450762Y-73715429D01*
X114355524Y-73810667D01*
X114260286Y-73858286D01*
X114069810Y-73905905D01*
X113926952Y-73905905D01*
X113736476Y-73858286D01*
X113641238Y-73810667D01*
X113546000Y-73715429D01*
X113498381Y-73572571D01*
X113498381Y-73477333D01*
X113546000Y-73334476D01*
X113593619Y-73286857D01*
X114498381Y-72334476D02*
X114498381Y-72905905D01*
X114498381Y-72620191D02*
X113498381Y-72620191D01*
X113641238Y-72715429D01*
X113736476Y-72810667D01*
X113784095Y-72905905D01*
X113831714Y-71477333D02*
X114498381Y-71477333D01*
X113450762Y-71715429D02*
X114165048Y-71953524D01*
X114165048Y-71334476D01*
X70294762Y-90193333D02*
X70342381Y-90050476D01*
X70342381Y-89812380D01*
X70294762Y-89717142D01*
X70247143Y-89669523D01*
X70151905Y-89621904D01*
X70056667Y-89621904D01*
X69961429Y-89669523D01*
X69913810Y-89717142D01*
X69866190Y-89812380D01*
X69818571Y-90002857D01*
X69770952Y-90098095D01*
X69723333Y-90145714D01*
X69628095Y-90193333D01*
X69532857Y-90193333D01*
X69437619Y-90145714D01*
X69390000Y-90098095D01*
X69342381Y-90002857D01*
X69342381Y-89764761D01*
X69390000Y-89621904D01*
X69342381Y-89288571D02*
X70342381Y-89050476D01*
X69628095Y-88859999D01*
X70342381Y-88669523D01*
X69342381Y-88431428D01*
X70342381Y-87526666D02*
X70342381Y-88098095D01*
X70342381Y-87812381D02*
X69342381Y-87812381D01*
X69485238Y-87907619D01*
X69580476Y-88002857D01*
X69628095Y-88098095D01*
X64048095Y-82319762D02*
X64190952Y-82367381D01*
X64429048Y-82367381D01*
X64524286Y-82319762D01*
X64571905Y-82272143D01*
X64619524Y-82176905D01*
X64619524Y-82081667D01*
X64571905Y-81986429D01*
X64524286Y-81938810D01*
X64429048Y-81891190D01*
X64238571Y-81843571D01*
X64143333Y-81795952D01*
X64095714Y-81748333D01*
X64048095Y-81653095D01*
X64048095Y-81557857D01*
X64095714Y-81462619D01*
X64143333Y-81415000D01*
X64238571Y-81367381D01*
X64476667Y-81367381D01*
X64619524Y-81415000D01*
X64952857Y-81367381D02*
X65190952Y-82367381D01*
X65381429Y-81653095D01*
X65571905Y-82367381D01*
X65810000Y-81367381D01*
X65952857Y-82462619D02*
X66714762Y-82462619D01*
X66952857Y-82367381D02*
X66952857Y-81367381D01*
X67333810Y-81367381D01*
X67429048Y-81415000D01*
X67476667Y-81462619D01*
X67524286Y-81557857D01*
X67524286Y-81700714D01*
X67476667Y-81795952D01*
X67429048Y-81843571D01*
X67333810Y-81891190D01*
X66952857Y-81891190D01*
X67952857Y-81367381D02*
X67952857Y-82176905D01*
X68000476Y-82272143D01*
X68048095Y-82319762D01*
X68143333Y-82367381D01*
X68333810Y-82367381D01*
X68429048Y-82319762D01*
X68476667Y-82272143D01*
X68524286Y-82176905D01*
X68524286Y-81367381D01*
X68952857Y-82319762D02*
X69095714Y-82367381D01*
X69333810Y-82367381D01*
X69429048Y-82319762D01*
X69476667Y-82272143D01*
X69524286Y-82176905D01*
X69524286Y-82081667D01*
X69476667Y-81986429D01*
X69429048Y-81938810D01*
X69333810Y-81891190D01*
X69143333Y-81843571D01*
X69048095Y-81795952D01*
X69000476Y-81748333D01*
X68952857Y-81653095D01*
X68952857Y-81557857D01*
X69000476Y-81462619D01*
X69048095Y-81415000D01*
X69143333Y-81367381D01*
X69381429Y-81367381D01*
X69524286Y-81415000D01*
X69952857Y-82367381D02*
X69952857Y-81367381D01*
X69952857Y-81843571D02*
X70524286Y-81843571D01*
X70524286Y-82367381D02*
X70524286Y-81367381D01*
X151217381Y-91566905D02*
X152026905Y-91566905D01*
X152122143Y-91519286D01*
X152169762Y-91471667D01*
X152217381Y-91376429D01*
X152217381Y-91185952D01*
X152169762Y-91090714D01*
X152122143Y-91043095D01*
X152026905Y-90995476D01*
X151217381Y-90995476D01*
X152217381Y-89995476D02*
X152217381Y-90566905D01*
X152217381Y-90281191D02*
X151217381Y-90281191D01*
X151360238Y-90376429D01*
X151455476Y-90471667D01*
X151503095Y-90566905D01*
X177966905Y-82637381D02*
X177776428Y-82637381D01*
X177681190Y-82685000D01*
X177633571Y-82732619D01*
X177538333Y-82875476D01*
X177490714Y-83065952D01*
X177490714Y-83446905D01*
X177538333Y-83542143D01*
X177585952Y-83589762D01*
X177681190Y-83637381D01*
X177871667Y-83637381D01*
X177966905Y-83589762D01*
X178014524Y-83542143D01*
X178062143Y-83446905D01*
X178062143Y-83208810D01*
X178014524Y-83113571D01*
X177966905Y-83065952D01*
X177871667Y-83018333D01*
X177681190Y-83018333D01*
X177585952Y-83065952D01*
X177538333Y-83113571D01*
X177490714Y-83208810D01*
X178966905Y-82637381D02*
X178490714Y-82637381D01*
X178443095Y-83113571D01*
X178490714Y-83065952D01*
X178585952Y-83018333D01*
X178824048Y-83018333D01*
X178919286Y-83065952D01*
X178966905Y-83113571D01*
X179014524Y-83208810D01*
X179014524Y-83446905D01*
X178966905Y-83542143D01*
X178919286Y-83589762D01*
X178824048Y-83637381D01*
X178585952Y-83637381D01*
X178490714Y-83589762D01*
X178443095Y-83542143D01*
X180014524Y-83542143D02*
X179966905Y-83589762D01*
X179824048Y-83637381D01*
X179728810Y-83637381D01*
X179585952Y-83589762D01*
X179490714Y-83494524D01*
X179443095Y-83399286D01*
X179395476Y-83208810D01*
X179395476Y-83065952D01*
X179443095Y-82875476D01*
X179490714Y-82780238D01*
X179585952Y-82685000D01*
X179728810Y-82637381D01*
X179824048Y-82637381D01*
X179966905Y-82685000D01*
X180014524Y-82732619D01*
X180633571Y-82637381D02*
X180728810Y-82637381D01*
X180824048Y-82685000D01*
X180871667Y-82732619D01*
X180919286Y-82827857D01*
X180966905Y-83018333D01*
X180966905Y-83256429D01*
X180919286Y-83446905D01*
X180871667Y-83542143D01*
X180824048Y-83589762D01*
X180728810Y-83637381D01*
X180633571Y-83637381D01*
X180538333Y-83589762D01*
X180490714Y-83542143D01*
X180443095Y-83446905D01*
X180395476Y-83256429D01*
X180395476Y-83018333D01*
X180443095Y-82827857D01*
X180490714Y-82732619D01*
X180538333Y-82685000D01*
X180633571Y-82637381D01*
X181347857Y-82732619D02*
X181395476Y-82685000D01*
X181490714Y-82637381D01*
X181728810Y-82637381D01*
X181824048Y-82685000D01*
X181871667Y-82732619D01*
X181919286Y-82827857D01*
X181919286Y-82923095D01*
X181871667Y-83065952D01*
X181300238Y-83637381D01*
X181919286Y-83637381D01*
X116927381Y-90931905D02*
X117736905Y-90931905D01*
X117832143Y-90884286D01*
X117879762Y-90836667D01*
X117927381Y-90741429D01*
X117927381Y-90550952D01*
X117879762Y-90455714D01*
X117832143Y-90408095D01*
X117736905Y-90360476D01*
X116927381Y-90360476D01*
X116927381Y-89408095D02*
X116927381Y-89884286D01*
X117403571Y-89931905D01*
X117355952Y-89884286D01*
X117308333Y-89789048D01*
X117308333Y-89550952D01*
X117355952Y-89455714D01*
X117403571Y-89408095D01*
X117498810Y-89360476D01*
X117736905Y-89360476D01*
X117832143Y-89408095D01*
X117879762Y-89455714D01*
X117927381Y-89550952D01*
X117927381Y-89789048D01*
X117879762Y-89884286D01*
X117832143Y-89931905D01*
X127270238Y-87130000D02*
X127175000Y-87082381D01*
X127032143Y-87082381D01*
X126889285Y-87130000D01*
X126794047Y-87225238D01*
X126746428Y-87320476D01*
X126698809Y-87510952D01*
X126698809Y-87653810D01*
X126746428Y-87844286D01*
X126794047Y-87939524D01*
X126889285Y-88034762D01*
X127032143Y-88082381D01*
X127127381Y-88082381D01*
X127270238Y-88034762D01*
X127317857Y-87987143D01*
X127317857Y-87653810D01*
X127127381Y-87653810D01*
X127698809Y-87796667D02*
X128175000Y-87796667D01*
X127603571Y-88082381D02*
X127936904Y-87082381D01*
X128270238Y-88082381D01*
X129079762Y-88082381D02*
X128603571Y-88082381D01*
X128603571Y-87082381D01*
X129365476Y-87177619D02*
X129413095Y-87130000D01*
X129508333Y-87082381D01*
X129746429Y-87082381D01*
X129841667Y-87130000D01*
X129889286Y-87177619D01*
X129936905Y-87272857D01*
X129936905Y-87368095D01*
X129889286Y-87510952D01*
X129317857Y-88082381D01*
X129936905Y-88082381D01*
X130317857Y-87177619D02*
X130365476Y-87130000D01*
X130460714Y-87082381D01*
X130698810Y-87082381D01*
X130794048Y-87130000D01*
X130841667Y-87177619D01*
X130889286Y-87272857D01*
X130889286Y-87368095D01*
X130841667Y-87510952D01*
X130270238Y-88082381D01*
X130889286Y-88082381D01*
X131175000Y-87082381D02*
X131508333Y-88082381D01*
X131841667Y-87082381D01*
X132698810Y-88082381D02*
X132127381Y-88082381D01*
X132413095Y-88082381D02*
X132413095Y-87082381D01*
X132317857Y-87225238D01*
X132222619Y-87320476D01*
X132127381Y-87368095D01*
X133317857Y-87082381D02*
X133413096Y-87082381D01*
X133508334Y-87130000D01*
X133555953Y-87177619D01*
X133603572Y-87272857D01*
X133651191Y-87463333D01*
X133651191Y-87701429D01*
X133603572Y-87891905D01*
X133555953Y-87987143D01*
X133508334Y-88034762D01*
X133413096Y-88082381D01*
X133317857Y-88082381D01*
X133222619Y-88034762D01*
X133175000Y-87987143D01*
X133127381Y-87891905D01*
X133079762Y-87701429D01*
X133079762Y-87463333D01*
X133127381Y-87272857D01*
X133175000Y-87177619D01*
X133222619Y-87130000D01*
X133317857Y-87082381D01*
X194770476Y-53427381D02*
X195437143Y-54427381D01*
X195437143Y-53427381D02*
X194770476Y-54427381D01*
X196341905Y-54427381D02*
X195770476Y-54427381D01*
X196056190Y-54427381D02*
X196056190Y-53427381D01*
X195960952Y-53570238D01*
X195865714Y-53665476D01*
X195770476Y-53713095D01*
X194508571Y-62317381D02*
X194699048Y-62317381D01*
X194794286Y-62365000D01*
X194889524Y-62460238D01*
X194937143Y-62650714D01*
X194937143Y-62984048D01*
X194889524Y-63174524D01*
X194794286Y-63269762D01*
X194699048Y-63317381D01*
X194508571Y-63317381D01*
X194413333Y-63269762D01*
X194318095Y-63174524D01*
X194270476Y-62984048D01*
X194270476Y-62650714D01*
X194318095Y-62460238D01*
X194413333Y-62365000D01*
X194508571Y-62317381D01*
X195318095Y-63269762D02*
X195460952Y-63317381D01*
X195699048Y-63317381D01*
X195794286Y-63269762D01*
X195841905Y-63222143D01*
X195889524Y-63126905D01*
X195889524Y-63031667D01*
X195841905Y-62936429D01*
X195794286Y-62888810D01*
X195699048Y-62841190D01*
X195508571Y-62793571D01*
X195413333Y-62745952D01*
X195365714Y-62698333D01*
X195318095Y-62603095D01*
X195318095Y-62507857D01*
X195365714Y-62412619D01*
X195413333Y-62365000D01*
X195508571Y-62317381D01*
X195746667Y-62317381D01*
X195889524Y-62365000D01*
X196889524Y-63222143D02*
X196841905Y-63269762D01*
X196699048Y-63317381D01*
X196603810Y-63317381D01*
X196460952Y-63269762D01*
X196365714Y-63174524D01*
X196318095Y-63079286D01*
X196270476Y-62888810D01*
X196270476Y-62745952D01*
X196318095Y-62555476D01*
X196365714Y-62460238D01*
X196460952Y-62365000D01*
X196603810Y-62317381D01*
X196699048Y-62317381D01*
X196841905Y-62365000D01*
X196889524Y-62412619D01*
X162012381Y-60451905D02*
X162821905Y-60451905D01*
X162917143Y-60404286D01*
X162964762Y-60356667D01*
X163012381Y-60261429D01*
X163012381Y-60070952D01*
X162964762Y-59975714D01*
X162917143Y-59928095D01*
X162821905Y-59880476D01*
X162012381Y-59880476D01*
X162345714Y-58975714D02*
X163012381Y-58975714D01*
X161964762Y-59213810D02*
X162679048Y-59451905D01*
X162679048Y-58832857D01*
X171505952Y-55967381D02*
X172172619Y-55967381D01*
X171744047Y-56967381D01*
X172982143Y-56300714D02*
X172982143Y-56967381D01*
X172744047Y-55919762D02*
X172505952Y-56634048D01*
X173125000Y-56634048D01*
X173982143Y-56967381D02*
X173505952Y-56967381D01*
X173505952Y-55967381D01*
X174267857Y-56919762D02*
X174410714Y-56967381D01*
X174648810Y-56967381D01*
X174744048Y-56919762D01*
X174791667Y-56872143D01*
X174839286Y-56776905D01*
X174839286Y-56681667D01*
X174791667Y-56586429D01*
X174744048Y-56538810D01*
X174648810Y-56491190D01*
X174458333Y-56443571D01*
X174363095Y-56395952D01*
X174315476Y-56348333D01*
X174267857Y-56253095D01*
X174267857Y-56157857D01*
X174315476Y-56062619D01*
X174363095Y-56015000D01*
X174458333Y-55967381D01*
X174696429Y-55967381D01*
X174839286Y-56015000D01*
X175172619Y-55967381D02*
X175791667Y-55967381D01*
X175458333Y-56348333D01*
X175601191Y-56348333D01*
X175696429Y-56395952D01*
X175744048Y-56443571D01*
X175791667Y-56538810D01*
X175791667Y-56776905D01*
X175744048Y-56872143D01*
X175696429Y-56919762D01*
X175601191Y-56967381D01*
X175315476Y-56967381D01*
X175220238Y-56919762D01*
X175172619Y-56872143D01*
X176267857Y-56967381D02*
X176458333Y-56967381D01*
X176553572Y-56919762D01*
X176601191Y-56872143D01*
X176696429Y-56729286D01*
X176744048Y-56538810D01*
X176744048Y-56157857D01*
X176696429Y-56062619D01*
X176648810Y-56015000D01*
X176553572Y-55967381D01*
X176363095Y-55967381D01*
X176267857Y-56015000D01*
X176220238Y-56062619D01*
X176172619Y-56157857D01*
X176172619Y-56395952D01*
X176220238Y-56491190D01*
X176267857Y-56538810D01*
X176363095Y-56586429D01*
X176553572Y-56586429D01*
X176648810Y-56538810D01*
X176696429Y-56491190D01*
X176744048Y-56395952D01*
X177077381Y-55967381D02*
X177696429Y-55967381D01*
X177363095Y-56348333D01*
X177505953Y-56348333D01*
X177601191Y-56395952D01*
X177648810Y-56443571D01*
X177696429Y-56538810D01*
X177696429Y-56776905D01*
X177648810Y-56872143D01*
X177601191Y-56919762D01*
X177505953Y-56967381D01*
X177220238Y-56967381D01*
X177125000Y-56919762D01*
X177077381Y-56872143D01*
X92797381Y-82041905D02*
X93606905Y-82041905D01*
X93702143Y-81994286D01*
X93749762Y-81946667D01*
X93797381Y-81851429D01*
X93797381Y-81660952D01*
X93749762Y-81565714D01*
X93702143Y-81518095D01*
X93606905Y-81470476D01*
X92797381Y-81470476D01*
X92892619Y-81041905D02*
X92845000Y-80994286D01*
X92797381Y-80899048D01*
X92797381Y-80660952D01*
X92845000Y-80565714D01*
X92892619Y-80518095D01*
X92987857Y-80470476D01*
X93083095Y-80470476D01*
X93225952Y-80518095D01*
X93797381Y-81089524D01*
X93797381Y-80470476D01*
X97480715Y-76017381D02*
X97004524Y-76017381D01*
X97004524Y-75017381D01*
X97814048Y-76017381D02*
X97814048Y-75017381D01*
X98147382Y-75731667D01*
X98480715Y-75017381D01*
X98480715Y-76017381D01*
X99433096Y-75017381D02*
X98956905Y-75017381D01*
X98909286Y-75493571D01*
X98956905Y-75445952D01*
X99052143Y-75398333D01*
X99290239Y-75398333D01*
X99385477Y-75445952D01*
X99433096Y-75493571D01*
X99480715Y-75588810D01*
X99480715Y-75826905D01*
X99433096Y-75922143D01*
X99385477Y-75969762D01*
X99290239Y-76017381D01*
X99052143Y-76017381D01*
X98956905Y-75969762D01*
X98909286Y-75922143D01*
X100385477Y-75017381D02*
X99909286Y-75017381D01*
X99861667Y-75493571D01*
X99909286Y-75445952D01*
X100004524Y-75398333D01*
X100242620Y-75398333D01*
X100337858Y-75445952D01*
X100385477Y-75493571D01*
X100433096Y-75588810D01*
X100433096Y-75826905D01*
X100385477Y-75922143D01*
X100337858Y-75969762D01*
X100242620Y-76017381D01*
X100004524Y-76017381D01*
X99909286Y-75969762D01*
X99861667Y-75922143D01*
X101337858Y-75017381D02*
X100861667Y-75017381D01*
X100814048Y-75493571D01*
X100861667Y-75445952D01*
X100956905Y-75398333D01*
X101195001Y-75398333D01*
X101290239Y-75445952D01*
X101337858Y-75493571D01*
X101385477Y-75588810D01*
X101385477Y-75826905D01*
X101337858Y-75922143D01*
X101290239Y-75969762D01*
X101195001Y-76017381D01*
X100956905Y-76017381D01*
X100861667Y-75969762D01*
X100814048Y-75922143D01*
X101814048Y-76017381D02*
X101814048Y-75017381D01*
X102385477Y-76017381D01*
X102385477Y-75017381D01*
X91527381Y-90931905D02*
X92336905Y-90931905D01*
X92432143Y-90884286D01*
X92479762Y-90836667D01*
X92527381Y-90741429D01*
X92527381Y-90550952D01*
X92479762Y-90455714D01*
X92432143Y-90408095D01*
X92336905Y-90360476D01*
X91527381Y-90360476D01*
X91527381Y-89979524D02*
X91527381Y-89360476D01*
X91908333Y-89693810D01*
X91908333Y-89550952D01*
X91955952Y-89455714D01*
X92003571Y-89408095D01*
X92098810Y-89360476D01*
X92336905Y-89360476D01*
X92432143Y-89408095D01*
X92479762Y-89455714D01*
X92527381Y-89550952D01*
X92527381Y-89836667D01*
X92479762Y-89931905D01*
X92432143Y-89979524D01*
X99068333Y-87082381D02*
X99735000Y-87082381D01*
X99306428Y-88082381D01*
X100544524Y-87415714D02*
X100544524Y-88082381D01*
X100306428Y-87034762D02*
X100068333Y-87749048D01*
X100687381Y-87749048D01*
X101068333Y-88082381D02*
X101068333Y-87082381D01*
X101068333Y-87558571D02*
X101639762Y-87558571D01*
X101639762Y-88082381D02*
X101639762Y-87082381D01*
X102687381Y-87987143D02*
X102639762Y-88034762D01*
X102496905Y-88082381D01*
X102401667Y-88082381D01*
X102258809Y-88034762D01*
X102163571Y-87939524D01*
X102115952Y-87844286D01*
X102068333Y-87653810D01*
X102068333Y-87510952D01*
X102115952Y-87320476D01*
X102163571Y-87225238D01*
X102258809Y-87130000D01*
X102401667Y-87082381D01*
X102496905Y-87082381D01*
X102639762Y-87130000D01*
X102687381Y-87177619D01*
X102973095Y-87082381D02*
X103544524Y-87082381D01*
X103258809Y-88082381D02*
X103258809Y-87082381D01*
X104068333Y-87082381D02*
X104163572Y-87082381D01*
X104258810Y-87130000D01*
X104306429Y-87177619D01*
X104354048Y-87272857D01*
X104401667Y-87463333D01*
X104401667Y-87701429D01*
X104354048Y-87891905D01*
X104306429Y-87987143D01*
X104258810Y-88034762D01*
X104163572Y-88082381D01*
X104068333Y-88082381D01*
X103973095Y-88034762D01*
X103925476Y-87987143D01*
X103877857Y-87891905D01*
X103830238Y-87701429D01*
X103830238Y-87463333D01*
X103877857Y-87272857D01*
X103925476Y-87177619D01*
X103973095Y-87130000D01*
X104068333Y-87082381D01*
X105020714Y-87082381D02*
X105115953Y-87082381D01*
X105211191Y-87130000D01*
X105258810Y-87177619D01*
X105306429Y-87272857D01*
X105354048Y-87463333D01*
X105354048Y-87701429D01*
X105306429Y-87891905D01*
X105258810Y-87987143D01*
X105211191Y-88034762D01*
X105115953Y-88082381D01*
X105020714Y-88082381D01*
X104925476Y-88034762D01*
X104877857Y-87987143D01*
X104830238Y-87891905D01*
X104782619Y-87701429D01*
X104782619Y-87463333D01*
X104830238Y-87272857D01*
X104877857Y-87177619D01*
X104925476Y-87130000D01*
X105020714Y-87082381D01*
X111156905Y-109942381D02*
X111156905Y-110751905D01*
X111204524Y-110847143D01*
X111252143Y-110894762D01*
X111347381Y-110942381D01*
X111537858Y-110942381D01*
X111633096Y-110894762D01*
X111680715Y-110847143D01*
X111728334Y-110751905D01*
X111728334Y-109942381D01*
X112728334Y-110942381D02*
X112156905Y-110942381D01*
X112442619Y-110942381D02*
X112442619Y-109942381D01*
X112347381Y-110085238D01*
X112252143Y-110180476D01*
X112156905Y-110228095D01*
X113109286Y-110037619D02*
X113156905Y-109990000D01*
X113252143Y-109942381D01*
X113490239Y-109942381D01*
X113585477Y-109990000D01*
X113633096Y-110037619D01*
X113680715Y-110132857D01*
X113680715Y-110228095D01*
X113633096Y-110370952D01*
X113061667Y-110942381D01*
X113680715Y-110942381D01*
X114387381Y-126944048D02*
X114387381Y-126277381D01*
X115387381Y-126705953D01*
X114720714Y-125467857D02*
X115387381Y-125467857D01*
X114339762Y-125705953D02*
X115054048Y-125944048D01*
X115054048Y-125325000D01*
X115387381Y-124467857D02*
X115387381Y-124944048D01*
X114387381Y-124944048D01*
X115339762Y-124182143D02*
X115387381Y-124039286D01*
X115387381Y-123801190D01*
X115339762Y-123705952D01*
X115292143Y-123658333D01*
X115196905Y-123610714D01*
X115101667Y-123610714D01*
X115006429Y-123658333D01*
X114958810Y-123705952D01*
X114911190Y-123801190D01*
X114863571Y-123991667D01*
X114815952Y-124086905D01*
X114768333Y-124134524D01*
X114673095Y-124182143D01*
X114577857Y-124182143D01*
X114482619Y-124134524D01*
X114435000Y-124086905D01*
X114387381Y-123991667D01*
X114387381Y-123753571D01*
X114435000Y-123610714D01*
X114482619Y-123229762D02*
X114435000Y-123182143D01*
X114387381Y-123086905D01*
X114387381Y-122848809D01*
X114435000Y-122753571D01*
X114482619Y-122705952D01*
X114577857Y-122658333D01*
X114673095Y-122658333D01*
X114815952Y-122705952D01*
X115387381Y-123277381D01*
X115387381Y-122658333D01*
X114720714Y-121801190D02*
X115387381Y-121801190D01*
X114339762Y-122039286D02*
X115054048Y-122277381D01*
X115054048Y-121658333D01*
X114720714Y-120848809D02*
X115387381Y-120848809D01*
X114339762Y-121086905D02*
X115054048Y-121325000D01*
X115054048Y-120705952D01*
X124491905Y-109942381D02*
X124491905Y-110751905D01*
X124539524Y-110847143D01*
X124587143Y-110894762D01*
X124682381Y-110942381D01*
X124872858Y-110942381D01*
X124968096Y-110894762D01*
X125015715Y-110847143D01*
X125063334Y-110751905D01*
X125063334Y-109942381D01*
X126063334Y-110942381D02*
X125491905Y-110942381D01*
X125777619Y-110942381D02*
X125777619Y-109942381D01*
X125682381Y-110085238D01*
X125587143Y-110180476D01*
X125491905Y-110228095D01*
X127015715Y-110942381D02*
X126444286Y-110942381D01*
X126730000Y-110942381D02*
X126730000Y-109942381D01*
X126634762Y-110085238D01*
X126539524Y-110180476D01*
X126444286Y-110228095D01*
X127722381Y-126944048D02*
X127722381Y-126277381D01*
X128722381Y-126705953D01*
X128055714Y-125467857D02*
X128722381Y-125467857D01*
X127674762Y-125705953D02*
X128389048Y-125944048D01*
X128389048Y-125325000D01*
X128722381Y-124467857D02*
X128722381Y-124944048D01*
X127722381Y-124944048D01*
X128674762Y-124182143D02*
X128722381Y-124039286D01*
X128722381Y-123801190D01*
X128674762Y-123705952D01*
X128627143Y-123658333D01*
X128531905Y-123610714D01*
X128436667Y-123610714D01*
X128341429Y-123658333D01*
X128293810Y-123705952D01*
X128246190Y-123801190D01*
X128198571Y-123991667D01*
X128150952Y-124086905D01*
X128103333Y-124134524D01*
X128008095Y-124182143D01*
X127912857Y-124182143D01*
X127817619Y-124134524D01*
X127770000Y-124086905D01*
X127722381Y-123991667D01*
X127722381Y-123753571D01*
X127770000Y-123610714D01*
X127817619Y-123229762D02*
X127770000Y-123182143D01*
X127722381Y-123086905D01*
X127722381Y-122848809D01*
X127770000Y-122753571D01*
X127817619Y-122705952D01*
X127912857Y-122658333D01*
X128008095Y-122658333D01*
X128150952Y-122705952D01*
X128722381Y-123277381D01*
X128722381Y-122658333D01*
X127722381Y-122325000D02*
X127722381Y-121658333D01*
X128722381Y-122086905D01*
X127722381Y-121372619D02*
X127722381Y-120753571D01*
X128103333Y-121086905D01*
X128103333Y-120944047D01*
X128150952Y-120848809D01*
X128198571Y-120801190D01*
X128293810Y-120753571D01*
X128531905Y-120753571D01*
X128627143Y-120801190D01*
X128674762Y-120848809D01*
X128722381Y-120944047D01*
X128722381Y-121229762D01*
X128674762Y-121325000D01*
X128627143Y-121372619D01*
X142748095Y-100417381D02*
X142748095Y-101226905D01*
X142795714Y-101322143D01*
X142843333Y-101369762D01*
X142938571Y-101417381D01*
X143129048Y-101417381D01*
X143224286Y-101369762D01*
X143271905Y-101322143D01*
X143319524Y-101226905D01*
X143319524Y-100417381D01*
X144224286Y-100417381D02*
X144033809Y-100417381D01*
X143938571Y-100465000D01*
X143890952Y-100512619D01*
X143795714Y-100655476D01*
X143748095Y-100845952D01*
X143748095Y-101226905D01*
X143795714Y-101322143D01*
X143843333Y-101369762D01*
X143938571Y-101417381D01*
X144129048Y-101417381D01*
X144224286Y-101369762D01*
X144271905Y-101322143D01*
X144319524Y-101226905D01*
X144319524Y-100988810D01*
X144271905Y-100893571D01*
X144224286Y-100845952D01*
X144129048Y-100798333D01*
X143938571Y-100798333D01*
X143843333Y-100845952D01*
X143795714Y-100893571D01*
X143748095Y-100988810D01*
X148772619Y-123340476D02*
X148725000Y-123292857D01*
X148677381Y-123197619D01*
X148677381Y-122959523D01*
X148725000Y-122864285D01*
X148772619Y-122816666D01*
X148867857Y-122769047D01*
X148963095Y-122769047D01*
X149105952Y-122816666D01*
X149677381Y-123388095D01*
X149677381Y-122769047D01*
X149105952Y-122197619D02*
X149058333Y-122292857D01*
X149010714Y-122340476D01*
X148915476Y-122388095D01*
X148867857Y-122388095D01*
X148772619Y-122340476D01*
X148725000Y-122292857D01*
X148677381Y-122197619D01*
X148677381Y-122007142D01*
X148725000Y-121911904D01*
X148772619Y-121864285D01*
X148867857Y-121816666D01*
X148915476Y-121816666D01*
X149010714Y-121864285D01*
X149058333Y-121911904D01*
X149105952Y-122007142D01*
X149105952Y-122197619D01*
X149153571Y-122292857D01*
X149201190Y-122340476D01*
X149296429Y-122388095D01*
X149486905Y-122388095D01*
X149582143Y-122340476D01*
X149629762Y-122292857D01*
X149677381Y-122197619D01*
X149677381Y-122007142D01*
X149629762Y-121911904D01*
X149582143Y-121864285D01*
X149486905Y-121816666D01*
X149296429Y-121816666D01*
X149201190Y-121864285D01*
X149153571Y-121911904D01*
X149105952Y-122007142D01*
X149582143Y-120816666D02*
X149629762Y-120864285D01*
X149677381Y-121007142D01*
X149677381Y-121102380D01*
X149629762Y-121245238D01*
X149534524Y-121340476D01*
X149439286Y-121388095D01*
X149248810Y-121435714D01*
X149105952Y-121435714D01*
X148915476Y-121388095D01*
X148820238Y-121340476D01*
X148725000Y-121245238D01*
X148677381Y-121102380D01*
X148677381Y-121007142D01*
X148725000Y-120864285D01*
X148772619Y-120816666D01*
X148772619Y-120435714D02*
X148725000Y-120388095D01*
X148677381Y-120292857D01*
X148677381Y-120054761D01*
X148725000Y-119959523D01*
X148772619Y-119911904D01*
X148867857Y-119864285D01*
X148963095Y-119864285D01*
X149105952Y-119911904D01*
X149677381Y-120483333D01*
X149677381Y-119864285D01*
X148677381Y-118959523D02*
X148677381Y-119435714D01*
X149153571Y-119483333D01*
X149105952Y-119435714D01*
X149058333Y-119340476D01*
X149058333Y-119102380D01*
X149105952Y-119007142D01*
X149153571Y-118959523D01*
X149248810Y-118911904D01*
X149486905Y-118911904D01*
X149582143Y-118959523D01*
X149629762Y-119007142D01*
X149677381Y-119102380D01*
X149677381Y-119340476D01*
X149629762Y-119435714D01*
X149582143Y-119483333D01*
X148677381Y-118054761D02*
X148677381Y-118245238D01*
X148725000Y-118340476D01*
X148772619Y-118388095D01*
X148915476Y-118483333D01*
X149105952Y-118530952D01*
X149486905Y-118530952D01*
X149582143Y-118483333D01*
X149629762Y-118435714D01*
X149677381Y-118340476D01*
X149677381Y-118149999D01*
X149629762Y-118054761D01*
X149582143Y-118007142D01*
X149486905Y-117959523D01*
X149248810Y-117959523D01*
X149153571Y-118007142D01*
X149105952Y-118054761D01*
X149058333Y-118149999D01*
X149058333Y-118340476D01*
X149105952Y-118435714D01*
X149153571Y-118483333D01*
X149248810Y-118530952D01*
X165608095Y-100417381D02*
X165608095Y-101226905D01*
X165655714Y-101322143D01*
X165703333Y-101369762D01*
X165798571Y-101417381D01*
X165989048Y-101417381D01*
X166084286Y-101369762D01*
X166131905Y-101322143D01*
X166179524Y-101226905D01*
X166179524Y-100417381D01*
X166798571Y-100845952D02*
X166703333Y-100798333D01*
X166655714Y-100750714D01*
X166608095Y-100655476D01*
X166608095Y-100607857D01*
X166655714Y-100512619D01*
X166703333Y-100465000D01*
X166798571Y-100417381D01*
X166989048Y-100417381D01*
X167084286Y-100465000D01*
X167131905Y-100512619D01*
X167179524Y-100607857D01*
X167179524Y-100655476D01*
X167131905Y-100750714D01*
X167084286Y-100798333D01*
X166989048Y-100845952D01*
X166798571Y-100845952D01*
X166703333Y-100893571D01*
X166655714Y-100941190D01*
X166608095Y-101036429D01*
X166608095Y-101226905D01*
X166655714Y-101322143D01*
X166703333Y-101369762D01*
X166798571Y-101417381D01*
X166989048Y-101417381D01*
X167084286Y-101369762D01*
X167131905Y-101322143D01*
X167179524Y-101226905D01*
X167179524Y-101036429D01*
X167131905Y-100941190D01*
X167084286Y-100893571D01*
X166989048Y-100845952D01*
X171902381Y-126388095D02*
X170902381Y-126388095D01*
X171378571Y-126388095D02*
X171378571Y-125816666D01*
X171902381Y-125816666D02*
X170902381Y-125816666D01*
X171902381Y-125340476D02*
X170902381Y-125340476D01*
X171616667Y-125007142D01*
X170902381Y-124673809D01*
X171902381Y-124673809D01*
X170902381Y-123769047D02*
X170902381Y-123959524D01*
X170950000Y-124054762D01*
X170997619Y-124102381D01*
X171140476Y-124197619D01*
X171330952Y-124245238D01*
X171711905Y-124245238D01*
X171807143Y-124197619D01*
X171854762Y-124150000D01*
X171902381Y-124054762D01*
X171902381Y-123864285D01*
X171854762Y-123769047D01*
X171807143Y-123721428D01*
X171711905Y-123673809D01*
X171473810Y-123673809D01*
X171378571Y-123721428D01*
X171330952Y-123769047D01*
X171283333Y-123864285D01*
X171283333Y-124054762D01*
X171330952Y-124150000D01*
X171378571Y-124197619D01*
X171473810Y-124245238D01*
X170997619Y-123292857D02*
X170950000Y-123245238D01*
X170902381Y-123150000D01*
X170902381Y-122911904D01*
X170950000Y-122816666D01*
X170997619Y-122769047D01*
X171092857Y-122721428D01*
X171188095Y-122721428D01*
X171330952Y-122769047D01*
X171902381Y-123340476D01*
X171902381Y-122721428D01*
X170997619Y-122340476D02*
X170950000Y-122292857D01*
X170902381Y-122197619D01*
X170902381Y-121959523D01*
X170950000Y-121864285D01*
X170997619Y-121816666D01*
X171092857Y-121769047D01*
X171188095Y-121769047D01*
X171330952Y-121816666D01*
X171902381Y-122388095D01*
X171902381Y-121769047D01*
X170902381Y-120864285D02*
X170902381Y-121340476D01*
X171378571Y-121388095D01*
X171330952Y-121340476D01*
X171283333Y-121245238D01*
X171283333Y-121007142D01*
X171330952Y-120911904D01*
X171378571Y-120864285D01*
X171473810Y-120816666D01*
X171711905Y-120816666D01*
X171807143Y-120864285D01*
X171854762Y-120911904D01*
X171902381Y-121007142D01*
X171902381Y-121245238D01*
X171854762Y-121340476D01*
X171807143Y-121388095D01*
X170902381Y-119959523D02*
X170902381Y-120150000D01*
X170950000Y-120245238D01*
X170997619Y-120292857D01*
X171140476Y-120388095D01*
X171330952Y-120435714D01*
X171711905Y-120435714D01*
X171807143Y-120388095D01*
X171854762Y-120340476D01*
X171902381Y-120245238D01*
X171902381Y-120054761D01*
X171854762Y-119959523D01*
X171807143Y-119911904D01*
X171711905Y-119864285D01*
X171473810Y-119864285D01*
X171378571Y-119911904D01*
X171330952Y-119959523D01*
X171283333Y-120054761D01*
X171283333Y-120245238D01*
X171330952Y-120340476D01*
X171378571Y-120388095D01*
X171473810Y-120435714D01*
X171378571Y-119102380D02*
X171426190Y-118959523D01*
X171473810Y-118911904D01*
X171569048Y-118864285D01*
X171711905Y-118864285D01*
X171807143Y-118911904D01*
X171854762Y-118959523D01*
X171902381Y-119054761D01*
X171902381Y-119435714D01*
X170902381Y-119435714D01*
X170902381Y-119102380D01*
X170950000Y-119007142D01*
X170997619Y-118959523D01*
X171092857Y-118911904D01*
X171188095Y-118911904D01*
X171283333Y-118959523D01*
X171330952Y-119007142D01*
X171378571Y-119102380D01*
X171378571Y-119435714D01*
X171902381Y-117959523D02*
X171902381Y-118435714D01*
X170902381Y-118435714D01*
X171902381Y-117626190D02*
X170902381Y-117626190D01*
X170902381Y-117245237D01*
X170950000Y-117149999D01*
X170997619Y-117102380D01*
X171092857Y-117054761D01*
X171235714Y-117054761D01*
X171330952Y-117102380D01*
X171378571Y-117149999D01*
X171426190Y-117245237D01*
X171426190Y-117626190D01*
X171521429Y-116626190D02*
X171521429Y-115864285D01*
X170902381Y-115483333D02*
X170902381Y-114816666D01*
X171902381Y-115245238D01*
X188468095Y-100417381D02*
X188468095Y-101226905D01*
X188515714Y-101322143D01*
X188563333Y-101369762D01*
X188658571Y-101417381D01*
X188849048Y-101417381D01*
X188944286Y-101369762D01*
X188991905Y-101322143D01*
X189039524Y-101226905D01*
X189039524Y-100417381D01*
X189420476Y-100417381D02*
X190087143Y-100417381D01*
X189658571Y-101417381D01*
X194762381Y-126388095D02*
X193762381Y-126388095D01*
X194238571Y-126388095D02*
X194238571Y-125816666D01*
X194762381Y-125816666D02*
X193762381Y-125816666D01*
X194762381Y-125340476D02*
X193762381Y-125340476D01*
X194476667Y-125007142D01*
X193762381Y-124673809D01*
X194762381Y-124673809D01*
X193762381Y-123769047D02*
X193762381Y-123959524D01*
X193810000Y-124054762D01*
X193857619Y-124102381D01*
X194000476Y-124197619D01*
X194190952Y-124245238D01*
X194571905Y-124245238D01*
X194667143Y-124197619D01*
X194714762Y-124150000D01*
X194762381Y-124054762D01*
X194762381Y-123864285D01*
X194714762Y-123769047D01*
X194667143Y-123721428D01*
X194571905Y-123673809D01*
X194333810Y-123673809D01*
X194238571Y-123721428D01*
X194190952Y-123769047D01*
X194143333Y-123864285D01*
X194143333Y-124054762D01*
X194190952Y-124150000D01*
X194238571Y-124197619D01*
X194333810Y-124245238D01*
X193857619Y-123292857D02*
X193810000Y-123245238D01*
X193762381Y-123150000D01*
X193762381Y-122911904D01*
X193810000Y-122816666D01*
X193857619Y-122769047D01*
X193952857Y-122721428D01*
X194048095Y-122721428D01*
X194190952Y-122769047D01*
X194762381Y-123340476D01*
X194762381Y-122721428D01*
X193857619Y-122340476D02*
X193810000Y-122292857D01*
X193762381Y-122197619D01*
X193762381Y-121959523D01*
X193810000Y-121864285D01*
X193857619Y-121816666D01*
X193952857Y-121769047D01*
X194048095Y-121769047D01*
X194190952Y-121816666D01*
X194762381Y-122388095D01*
X194762381Y-121769047D01*
X193762381Y-120864285D02*
X193762381Y-121340476D01*
X194238571Y-121388095D01*
X194190952Y-121340476D01*
X194143333Y-121245238D01*
X194143333Y-121007142D01*
X194190952Y-120911904D01*
X194238571Y-120864285D01*
X194333810Y-120816666D01*
X194571905Y-120816666D01*
X194667143Y-120864285D01*
X194714762Y-120911904D01*
X194762381Y-121007142D01*
X194762381Y-121245238D01*
X194714762Y-121340476D01*
X194667143Y-121388095D01*
X193762381Y-119959523D02*
X193762381Y-120150000D01*
X193810000Y-120245238D01*
X193857619Y-120292857D01*
X194000476Y-120388095D01*
X194190952Y-120435714D01*
X194571905Y-120435714D01*
X194667143Y-120388095D01*
X194714762Y-120340476D01*
X194762381Y-120245238D01*
X194762381Y-120054761D01*
X194714762Y-119959523D01*
X194667143Y-119911904D01*
X194571905Y-119864285D01*
X194333810Y-119864285D01*
X194238571Y-119911904D01*
X194190952Y-119959523D01*
X194143333Y-120054761D01*
X194143333Y-120245238D01*
X194190952Y-120340476D01*
X194238571Y-120388095D01*
X194333810Y-120435714D01*
X194238571Y-119102380D02*
X194286190Y-118959523D01*
X194333810Y-118911904D01*
X194429048Y-118864285D01*
X194571905Y-118864285D01*
X194667143Y-118911904D01*
X194714762Y-118959523D01*
X194762381Y-119054761D01*
X194762381Y-119435714D01*
X193762381Y-119435714D01*
X193762381Y-119102380D01*
X193810000Y-119007142D01*
X193857619Y-118959523D01*
X193952857Y-118911904D01*
X194048095Y-118911904D01*
X194143333Y-118959523D01*
X194190952Y-119007142D01*
X194238571Y-119102380D01*
X194238571Y-119435714D01*
X194762381Y-117959523D02*
X194762381Y-118435714D01*
X193762381Y-118435714D01*
X194762381Y-117626190D02*
X193762381Y-117626190D01*
X193762381Y-117245237D01*
X193810000Y-117149999D01*
X193857619Y-117102380D01*
X193952857Y-117054761D01*
X194095714Y-117054761D01*
X194190952Y-117102380D01*
X194238571Y-117149999D01*
X194286190Y-117245237D01*
X194286190Y-117626190D01*
X194381429Y-116626190D02*
X194381429Y-115864285D01*
X193762381Y-115483333D02*
X193762381Y-114816666D01*
X194762381Y-115245238D01*
X65873381Y-63833333D02*
X66587667Y-63833333D01*
X66730524Y-63880953D01*
X66825762Y-63976191D01*
X66873381Y-64119048D01*
X66873381Y-64214286D01*
X66873381Y-62833333D02*
X66873381Y-63404762D01*
X66873381Y-63119048D02*
X65873381Y-63119048D01*
X66016238Y-63214286D01*
X66111476Y-63309524D01*
X66159095Y-63404762D01*
X72223381Y-64761905D02*
X73032905Y-64761905D01*
X73128143Y-64714286D01*
X73175762Y-64666667D01*
X73223381Y-64571429D01*
X73223381Y-64380952D01*
X73175762Y-64285714D01*
X73128143Y-64238095D01*
X73032905Y-64190476D01*
X72223381Y-64190476D01*
X73175762Y-63761905D02*
X73223381Y-63619048D01*
X73223381Y-63380952D01*
X73175762Y-63285714D01*
X73128143Y-63238095D01*
X73032905Y-63190476D01*
X72937667Y-63190476D01*
X72842429Y-63238095D01*
X72794810Y-63285714D01*
X72747190Y-63380952D01*
X72699571Y-63571429D01*
X72651952Y-63666667D01*
X72604333Y-63714286D01*
X72509095Y-63761905D01*
X72413857Y-63761905D01*
X72318619Y-63714286D01*
X72271000Y-63666667D01*
X72223381Y-63571429D01*
X72223381Y-63333333D01*
X72271000Y-63190476D01*
X72699571Y-62428571D02*
X72747190Y-62285714D01*
X72794810Y-62238095D01*
X72890048Y-62190476D01*
X73032905Y-62190476D01*
X73128143Y-62238095D01*
X73175762Y-62285714D01*
X73223381Y-62380952D01*
X73223381Y-62761905D01*
X72223381Y-62761905D01*
X72223381Y-62428571D01*
X72271000Y-62333333D01*
X72318619Y-62285714D01*
X72413857Y-62238095D01*
X72509095Y-62238095D01*
X72604333Y-62285714D01*
X72651952Y-62333333D01*
X72699571Y-62428571D01*
X72699571Y-62761905D01*
X80306183Y-77414285D02*
X80353802Y-77461904D01*
X80401421Y-77604761D01*
X80401421Y-77699999D01*
X80353802Y-77842857D01*
X80258564Y-77938095D01*
X80163326Y-77985714D01*
X79972850Y-78033333D01*
X79829992Y-78033333D01*
X79639516Y-77985714D01*
X79544278Y-77938095D01*
X79449040Y-77842857D01*
X79401421Y-77699999D01*
X79401421Y-77604761D01*
X79449040Y-77461904D01*
X79496659Y-77414285D01*
X79401421Y-76795238D02*
X79401421Y-76604761D01*
X79449040Y-76509523D01*
X79544278Y-76414285D01*
X79734754Y-76366666D01*
X80068088Y-76366666D01*
X80258564Y-76414285D01*
X80353802Y-76509523D01*
X80401421Y-76604761D01*
X80401421Y-76795238D01*
X80353802Y-76890476D01*
X80258564Y-76985714D01*
X80068088Y-77033333D01*
X79734754Y-77033333D01*
X79544278Y-76985714D01*
X79449040Y-76890476D01*
X79401421Y-76795238D01*
X80401421Y-75938095D02*
X79401421Y-75938095D01*
X80401421Y-75366666D01*
X79401421Y-75366666D01*
X80401421Y-74366666D02*
X80401421Y-74938095D01*
X80401421Y-74652381D02*
X79401421Y-74652381D01*
X79544278Y-74747619D01*
X79639516Y-74842857D01*
X79687135Y-74938095D01*
X63667238Y-72699571D02*
X63810095Y-72747190D01*
X63857714Y-72794810D01*
X63905333Y-72890048D01*
X63905333Y-73032905D01*
X63857714Y-73128143D01*
X63810095Y-73175762D01*
X63714857Y-73223381D01*
X63333904Y-73223381D01*
X63333904Y-72223381D01*
X63667238Y-72223381D01*
X63762476Y-72271000D01*
X63810095Y-72318619D01*
X63857714Y-72413857D01*
X63857714Y-72509095D01*
X63810095Y-72604333D01*
X63762476Y-72651952D01*
X63667238Y-72699571D01*
X63333904Y-72699571D01*
X64286285Y-72937667D02*
X64762476Y-72937667D01*
X64191047Y-73223381D02*
X64524380Y-72223381D01*
X64857714Y-73223381D01*
X65762476Y-73223381D02*
X65429142Y-72747190D01*
X65191047Y-73223381D02*
X65191047Y-72223381D01*
X65572000Y-72223381D01*
X65667238Y-72271000D01*
X65714857Y-72318619D01*
X65762476Y-72413857D01*
X65762476Y-72556714D01*
X65714857Y-72651952D01*
X65667238Y-72699571D01*
X65572000Y-72747190D01*
X65191047Y-72747190D01*
X66762476Y-73223381D02*
X66429142Y-72747190D01*
X66191047Y-73223381D02*
X66191047Y-72223381D01*
X66572000Y-72223381D01*
X66667238Y-72271000D01*
X66714857Y-72318619D01*
X66762476Y-72413857D01*
X66762476Y-72556714D01*
X66714857Y-72651952D01*
X66667238Y-72699571D01*
X66572000Y-72747190D01*
X66191047Y-72747190D01*
X67191047Y-72699571D02*
X67524381Y-72699571D01*
X67667238Y-73223381D02*
X67191047Y-73223381D01*
X67191047Y-72223381D01*
X67667238Y-72223381D01*
X68572000Y-73223381D02*
X68095809Y-73223381D01*
X68095809Y-72223381D01*
X68667238Y-73318619D02*
X69429143Y-73318619D01*
X69952953Y-72223381D02*
X69952953Y-72937667D01*
X69905333Y-73080524D01*
X69810095Y-73175762D01*
X69667238Y-73223381D01*
X69572000Y-73223381D01*
X70381524Y-72937667D02*
X70857715Y-72937667D01*
X70286286Y-73223381D02*
X70619619Y-72223381D01*
X70952953Y-73223381D01*
X71857715Y-73128143D02*
X71810096Y-73175762D01*
X71667239Y-73223381D01*
X71572001Y-73223381D01*
X71429143Y-73175762D01*
X71333905Y-73080524D01*
X71286286Y-72985286D01*
X71238667Y-72794810D01*
X71238667Y-72651952D01*
X71286286Y-72461476D01*
X71333905Y-72366238D01*
X71429143Y-72271000D01*
X71572001Y-72223381D01*
X71667239Y-72223381D01*
X71810096Y-72271000D01*
X71857715Y-72318619D01*
X72286286Y-73223381D02*
X72286286Y-72223381D01*
X72857715Y-73223381D02*
X72429143Y-72651952D01*
X72857715Y-72223381D02*
X72286286Y-72794810D01*
X86832381Y-73128095D02*
X85832381Y-73128095D01*
X85832381Y-72747142D01*
X85880000Y-72651904D01*
X85927619Y-72604285D01*
X86022857Y-72556666D01*
X86165714Y-72556666D01*
X86260952Y-72604285D01*
X86308571Y-72651904D01*
X86356190Y-72747142D01*
X86356190Y-73128095D01*
X85832381Y-71699523D02*
X85832381Y-71890000D01*
X85880000Y-71985238D01*
X85927619Y-72032857D01*
X86070476Y-72128095D01*
X86260952Y-72175714D01*
X86641905Y-72175714D01*
X86737143Y-72128095D01*
X86784762Y-72080476D01*
X86832381Y-71985238D01*
X86832381Y-71794761D01*
X86784762Y-71699523D01*
X86737143Y-71651904D01*
X86641905Y-71604285D01*
X86403810Y-71604285D01*
X86308571Y-71651904D01*
X86260952Y-71699523D01*
X86213333Y-71794761D01*
X86213333Y-71985238D01*
X86260952Y-72080476D01*
X86308571Y-72128095D01*
X86403810Y-72175714D01*
X84832381Y-74699524D02*
X83832381Y-74699524D01*
X83832381Y-74318571D01*
X83880000Y-74223333D01*
X83927619Y-74175714D01*
X84022857Y-74128095D01*
X84165714Y-74128095D01*
X84260952Y-74175714D01*
X84308571Y-74223333D01*
X84356190Y-74318571D01*
X84356190Y-74699524D01*
X83832381Y-73509048D02*
X83832381Y-73318571D01*
X83880000Y-73223333D01*
X83975238Y-73128095D01*
X84165714Y-73080476D01*
X84499048Y-73080476D01*
X84689524Y-73128095D01*
X84784762Y-73223333D01*
X84832381Y-73318571D01*
X84832381Y-73509048D01*
X84784762Y-73604286D01*
X84689524Y-73699524D01*
X84499048Y-73747143D01*
X84165714Y-73747143D01*
X83975238Y-73699524D01*
X83880000Y-73604286D01*
X83832381Y-73509048D01*
X83832381Y-72747143D02*
X84832381Y-72509048D01*
X84118095Y-72318571D01*
X84832381Y-72128095D01*
X83832381Y-71890000D01*
X84308571Y-71509048D02*
X84308571Y-71175714D01*
X84832381Y-71032857D02*
X84832381Y-71509048D01*
X83832381Y-71509048D01*
X83832381Y-71032857D01*
X84832381Y-70032857D02*
X84356190Y-70366191D01*
X84832381Y-70604286D02*
X83832381Y-70604286D01*
X83832381Y-70223333D01*
X83880000Y-70128095D01*
X83927619Y-70080476D01*
X84022857Y-70032857D01*
X84165714Y-70032857D01*
X84260952Y-70080476D01*
X84308571Y-70128095D01*
X84356190Y-70223333D01*
X84356190Y-70604286D01*
X79946667Y-57554762D02*
X80089524Y-57602381D01*
X80327620Y-57602381D01*
X80422858Y-57554762D01*
X80470477Y-57507143D01*
X80518096Y-57411905D01*
X80518096Y-57316667D01*
X80470477Y-57221429D01*
X80422858Y-57173810D01*
X80327620Y-57126190D01*
X80137143Y-57078571D01*
X80041905Y-57030952D01*
X79994286Y-56983333D01*
X79946667Y-56888095D01*
X79946667Y-56792857D01*
X79994286Y-56697619D01*
X80041905Y-56650000D01*
X80137143Y-56602381D01*
X80375239Y-56602381D01*
X80518096Y-56650000D01*
X80851429Y-56602381D02*
X81089524Y-57602381D01*
X81280001Y-56888095D01*
X81470477Y-57602381D01*
X81708572Y-56602381D01*
X82041905Y-56697619D02*
X82089524Y-56650000D01*
X82184762Y-56602381D01*
X82422858Y-56602381D01*
X82518096Y-56650000D01*
X82565715Y-56697619D01*
X82613334Y-56792857D01*
X82613334Y-56888095D01*
X82565715Y-57030952D01*
X81994286Y-57602381D01*
X82613334Y-57602381D01*
X84224762Y-55840000D02*
X84272381Y-55697143D01*
X84272381Y-55459047D01*
X84224762Y-55363809D01*
X84177143Y-55316190D01*
X84081905Y-55268571D01*
X83986667Y-55268571D01*
X83891429Y-55316190D01*
X83843810Y-55363809D01*
X83796190Y-55459047D01*
X83748571Y-55649524D01*
X83700952Y-55744762D01*
X83653333Y-55792381D01*
X83558095Y-55840000D01*
X83462857Y-55840000D01*
X83367619Y-55792381D01*
X83320000Y-55744762D01*
X83272381Y-55649524D01*
X83272381Y-55411428D01*
X83320000Y-55268571D01*
X83272381Y-54935238D02*
X84272381Y-54697143D01*
X83558095Y-54506666D01*
X84272381Y-54316190D01*
X83272381Y-54078095D01*
X84272381Y-53697143D02*
X83272381Y-53697143D01*
X83272381Y-53363810D02*
X83272381Y-52792381D01*
X84272381Y-53078096D02*
X83272381Y-53078096D01*
X84177143Y-51887619D02*
X84224762Y-51935238D01*
X84272381Y-52078095D01*
X84272381Y-52173333D01*
X84224762Y-52316191D01*
X84129524Y-52411429D01*
X84034286Y-52459048D01*
X83843810Y-52506667D01*
X83700952Y-52506667D01*
X83510476Y-52459048D01*
X83415238Y-52411429D01*
X83320000Y-52316191D01*
X83272381Y-52173333D01*
X83272381Y-52078095D01*
X83320000Y-51935238D01*
X83367619Y-51887619D01*
X84272381Y-51459048D02*
X83272381Y-51459048D01*
X83748571Y-51459048D02*
X83748571Y-50887619D01*
X84272381Y-50887619D02*
X83272381Y-50887619D01*
X73382143Y-52712857D02*
X73429762Y-52760476D01*
X73477381Y-52903333D01*
X73477381Y-52998571D01*
X73429762Y-53141429D01*
X73334524Y-53236667D01*
X73239286Y-53284286D01*
X73048810Y-53331905D01*
X72905952Y-53331905D01*
X72715476Y-53284286D01*
X72620238Y-53236667D01*
X72525000Y-53141429D01*
X72477381Y-52998571D01*
X72477381Y-52903333D01*
X72525000Y-52760476D01*
X72572619Y-52712857D01*
X73477381Y-51760476D02*
X73477381Y-52331905D01*
X73477381Y-52046191D02*
X72477381Y-52046191D01*
X72620238Y-52141429D01*
X72715476Y-52236667D01*
X72763095Y-52331905D01*
X72477381Y-50903333D02*
X72477381Y-51093810D01*
X72525000Y-51189048D01*
X72572619Y-51236667D01*
X72715476Y-51331905D01*
X72905952Y-51379524D01*
X73286905Y-51379524D01*
X73382143Y-51331905D01*
X73429762Y-51284286D01*
X73477381Y-51189048D01*
X73477381Y-50998571D01*
X73429762Y-50903333D01*
X73382143Y-50855714D01*
X73286905Y-50808095D01*
X73048810Y-50808095D01*
X72953571Y-50855714D01*
X72905952Y-50903333D01*
X72858333Y-50998571D01*
X72858333Y-51189048D01*
X72905952Y-51284286D01*
X72953571Y-51331905D01*
X73048810Y-51379524D01*
%LPC*%
D16*
X91440000Y-115570000D03*
X99060000Y-115570000D03*
D17*
X215265000Y-65405000D03*
D18*
X217805000Y-65405000D03*
X215265000Y-67945000D03*
X217805000Y-67945000D03*
X215265000Y-70485000D03*
X217805000Y-70485000D03*
X215265000Y-73025000D03*
X217805000Y-73025000D03*
X215265000Y-75565000D03*
X217805000Y-75565000D03*
X215265000Y-78105000D03*
X217805000Y-78105000D03*
X215265000Y-80645000D03*
X217805000Y-80645000D03*
X215265000Y-83185000D03*
X217805000Y-83185000D03*
X215265000Y-85725000D03*
X217805000Y-85725000D03*
X215265000Y-88265000D03*
X217805000Y-88265000D03*
X215265000Y-90805000D03*
X217805000Y-90805000D03*
X215265000Y-93345000D03*
X217805000Y-93345000D03*
X215265000Y-95885000D03*
X217805000Y-95885000D03*
X215265000Y-98425000D03*
X217805000Y-98425000D03*
X215265000Y-100965000D03*
X217805000Y-100965000D03*
X215265000Y-103505000D03*
X217805000Y-103505000D03*
X215265000Y-106045000D03*
X217805000Y-106045000D03*
X215265000Y-108585000D03*
X217805000Y-108585000D03*
X215265000Y-111125000D03*
X217805000Y-111125000D03*
X215265000Y-113665000D03*
X217805000Y-113665000D03*
X215265000Y-116205000D03*
X217805000Y-116205000D03*
X215265000Y-118745000D03*
X217805000Y-118745000D03*
X215265000Y-121285000D03*
X217805000Y-121285000D03*
X215265000Y-123825000D03*
X217805000Y-123825000D03*
X215265000Y-126365000D03*
X217805000Y-126365000D03*
D16*
X172720000Y-83058000D03*
X175260000Y-83058000D03*
D19*
X108712000Y-75438000D03*
X106172000Y-75438000D03*
D16*
X200660000Y-100330000D03*
X198120000Y-100330000D03*
X157480000Y-100330000D03*
X154940000Y-100330000D03*
X116459000Y-83820000D03*
X116459000Y-86360000D03*
X90170000Y-83820000D03*
X90170000Y-86360000D03*
X161925000Y-53340000D03*
X161925000Y-50800000D03*
X131826000Y-109347000D03*
X134366000Y-109347000D03*
X180340000Y-100330000D03*
X177800000Y-100330000D03*
X118618000Y-109347000D03*
X116078000Y-109347000D03*
D17*
X171450000Y-67310000D03*
D18*
X171450000Y-64770000D03*
X173990000Y-67310000D03*
X173990000Y-64770000D03*
X176530000Y-67310000D03*
X176530000Y-64770000D03*
X179070000Y-67310000D03*
X179070000Y-64770000D03*
D20*
X162560000Y-71120000D03*
D21*
X160020000Y-71120000D03*
X157480000Y-71120000D03*
D17*
X154940000Y-60960000D03*
D18*
X154940000Y-63500000D03*
X152400000Y-60960000D03*
X152400000Y-63500000D03*
D16*
X170180000Y-97790000D03*
X162560000Y-97790000D03*
X170180000Y-95250000D03*
X162560000Y-95250000D03*
X154940000Y-69850000D03*
X147320000Y-69850000D03*
X147320000Y-67310000D03*
X154940000Y-67310000D03*
X92710000Y-71628000D03*
X92710000Y-79248000D03*
X116332000Y-59690000D03*
X116332000Y-62230000D03*
D22*
X102870000Y-115570000D03*
D23*
X102870000Y-118110000D03*
X102870000Y-120650000D03*
X102870000Y-123190000D03*
X102870000Y-125730000D03*
X102870000Y-128270000D03*
X102870000Y-130810000D03*
X102870000Y-133350000D03*
D16*
X106172000Y-79248000D03*
X108712000Y-79248000D03*
X106172000Y-71628000D03*
X108712000Y-71628000D03*
X90170000Y-71628000D03*
X90170000Y-79248000D03*
D24*
X157480000Y-140970000D03*
X160020000Y-140970000D03*
X203200000Y-140970000D03*
X205740000Y-140970000D03*
X180340000Y-140970000D03*
X182880000Y-140970000D03*
D16*
X152400000Y-140970000D03*
X144780000Y-140970000D03*
X198120000Y-140970000D03*
X190500000Y-140970000D03*
X175260000Y-140970000D03*
X167640000Y-140970000D03*
D24*
X67310000Y-96520000D03*
X67310000Y-99060000D03*
X67310000Y-101600000D03*
X67310000Y-104140000D03*
X67310000Y-106680000D03*
X67310000Y-109220000D03*
X67310000Y-111760000D03*
X67310000Y-114300000D03*
X67310000Y-116840000D03*
X67310000Y-119380000D03*
X67310000Y-121920000D03*
X67310000Y-124460000D03*
X67310000Y-127000000D03*
X67310000Y-129540000D03*
X67310000Y-132080000D03*
X67310000Y-134620000D03*
D16*
X91440000Y-118110000D03*
X99060000Y-118110000D03*
X91440000Y-120650000D03*
X99060000Y-120650000D03*
X91440000Y-123190000D03*
X99060000Y-123190000D03*
X91440000Y-125730000D03*
X99060000Y-125730000D03*
X91440000Y-128270000D03*
X99060000Y-128270000D03*
X91440000Y-130810000D03*
X99060000Y-130810000D03*
X91440000Y-133350000D03*
X99060000Y-133350000D03*
D25*
X120904000Y-79248000D03*
X123444000Y-79248000D03*
X125984000Y-79248000D03*
X128524000Y-79248000D03*
X131064000Y-79248000D03*
X133604000Y-79248000D03*
X136144000Y-79248000D03*
X138684000Y-79248000D03*
X141224000Y-79248000D03*
X143764000Y-79248000D03*
X143764000Y-71628000D03*
X141224000Y-71628000D03*
X138684000Y-71628000D03*
X136144000Y-71628000D03*
X133604000Y-71628000D03*
X131064000Y-71628000D03*
X128524000Y-71628000D03*
X125984000Y-71628000D03*
X123444000Y-71628000D03*
X120904000Y-71628000D03*
X120904000Y-67056000D03*
X123444000Y-67056000D03*
X125984000Y-67056000D03*
X128524000Y-67056000D03*
X131064000Y-67056000D03*
X133604000Y-67056000D03*
X136144000Y-67056000D03*
X138684000Y-67056000D03*
X138684000Y-59436000D03*
X136144000Y-59436000D03*
X133604000Y-59436000D03*
X131064000Y-59436000D03*
X128524000Y-59436000D03*
X125984000Y-59436000D03*
X123444000Y-59436000D03*
X120904000Y-59436000D03*
D26*
X116332000Y-71628000D03*
D27*
X116332000Y-74128000D03*
D28*
X72390000Y-86360000D03*
X72390000Y-91360000D03*
X67390000Y-91360000D03*
X67390000Y-86360000D03*
D25*
X154940000Y-91440000D03*
X157480000Y-91440000D03*
X160020000Y-91440000D03*
X162560000Y-91440000D03*
X165100000Y-91440000D03*
X167640000Y-91440000D03*
X170180000Y-91440000D03*
X172720000Y-91440000D03*
X175260000Y-91440000D03*
X177800000Y-91440000D03*
X180340000Y-91440000D03*
X182880000Y-91440000D03*
X185420000Y-91440000D03*
X187960000Y-91440000D03*
X190500000Y-91440000D03*
X193040000Y-91440000D03*
X195580000Y-91440000D03*
X198120000Y-91440000D03*
X200660000Y-91440000D03*
X203200000Y-91440000D03*
X203200000Y-76200000D03*
X200660000Y-76200000D03*
X198120000Y-76200000D03*
X195580000Y-76200000D03*
X193040000Y-76200000D03*
X190500000Y-76200000D03*
X187960000Y-76200000D03*
X185420000Y-76200000D03*
X182880000Y-76200000D03*
X180340000Y-76200000D03*
X177800000Y-76200000D03*
X175260000Y-76200000D03*
X172720000Y-76200000D03*
X170180000Y-76200000D03*
X167640000Y-76200000D03*
X165100000Y-76200000D03*
X162560000Y-76200000D03*
X160020000Y-76200000D03*
X157480000Y-76200000D03*
X154940000Y-76200000D03*
X120904000Y-91440000D03*
X123444000Y-91440000D03*
X125984000Y-91440000D03*
X128524000Y-91440000D03*
X131064000Y-91440000D03*
X133604000Y-91440000D03*
X136144000Y-91440000D03*
X138684000Y-91440000D03*
X141224000Y-91440000D03*
X143764000Y-91440000D03*
X146304000Y-91440000D03*
X148844000Y-91440000D03*
X148844000Y-83820000D03*
X146304000Y-83820000D03*
X143764000Y-83820000D03*
X141224000Y-83820000D03*
X138684000Y-83820000D03*
X136144000Y-83820000D03*
X133604000Y-83820000D03*
X131064000Y-83820000D03*
X128524000Y-83820000D03*
X125984000Y-83820000D03*
X123444000Y-83820000D03*
X120904000Y-83820000D03*
D29*
X187960000Y-62230000D03*
D30*
X203200000Y-62230000D03*
X203200000Y-54610000D03*
X187960000Y-54610000D03*
D25*
X166370000Y-60960000D03*
X168910000Y-60960000D03*
X171450000Y-60960000D03*
X173990000Y-60960000D03*
X176530000Y-60960000D03*
X179070000Y-60960000D03*
X181610000Y-60960000D03*
X181610000Y-53340000D03*
X179070000Y-53340000D03*
X176530000Y-53340000D03*
X173990000Y-53340000D03*
X171450000Y-53340000D03*
X168910000Y-53340000D03*
X166370000Y-53340000D03*
X95250000Y-79248000D03*
X97790000Y-79248000D03*
X100330000Y-79248000D03*
X102870000Y-79248000D03*
X102870000Y-71628000D03*
X100330000Y-71628000D03*
X97790000Y-71628000D03*
X95250000Y-71628000D03*
X95250000Y-91440000D03*
X97790000Y-91440000D03*
X100330000Y-91440000D03*
X102870000Y-91440000D03*
X105410000Y-91440000D03*
X107950000Y-91440000D03*
X110490000Y-91440000D03*
X110490000Y-83820000D03*
X107950000Y-83820000D03*
X105410000Y-83820000D03*
X102870000Y-83820000D03*
X100330000Y-83820000D03*
X97790000Y-83820000D03*
X95250000Y-83820000D03*
D31*
X110998000Y-113919000D03*
X110998000Y-116459000D03*
X110998000Y-118999000D03*
X110998000Y-121539000D03*
X110998000Y-124079000D03*
X110998000Y-126619000D03*
X110998000Y-129159000D03*
X110998000Y-131699000D03*
X110998000Y-134239000D03*
X110998000Y-136779000D03*
X118618000Y-136779000D03*
X118618000Y-134239000D03*
X118618000Y-131699000D03*
X118618000Y-129159000D03*
X118618000Y-126619000D03*
X118618000Y-124079000D03*
X118618000Y-121539000D03*
X118618000Y-118999000D03*
X118618000Y-116459000D03*
X118618000Y-113919000D03*
X124333000Y-113919000D03*
X124333000Y-116459000D03*
X124333000Y-118999000D03*
X124333000Y-121539000D03*
X124333000Y-124079000D03*
X124333000Y-126619000D03*
X124333000Y-129159000D03*
X124333000Y-131699000D03*
X124333000Y-134239000D03*
X124333000Y-136779000D03*
X131953000Y-136779000D03*
X131953000Y-134239000D03*
X131953000Y-131699000D03*
X131953000Y-129159000D03*
X131953000Y-126619000D03*
X131953000Y-124079000D03*
X131953000Y-121539000D03*
X131953000Y-118999000D03*
X131953000Y-116459000D03*
X131953000Y-113919000D03*
X142240000Y-104140000D03*
X142240000Y-106680000D03*
X142240000Y-109220000D03*
X142240000Y-111760000D03*
X142240000Y-114300000D03*
X142240000Y-116840000D03*
X142240000Y-119380000D03*
X142240000Y-121920000D03*
X142240000Y-124460000D03*
X142240000Y-127000000D03*
X142240000Y-129540000D03*
X142240000Y-132080000D03*
X142240000Y-134620000D03*
X142240000Y-137160000D03*
X157480000Y-137160000D03*
X157480000Y-134620000D03*
X157480000Y-132080000D03*
X157480000Y-129540000D03*
X157480000Y-127000000D03*
X157480000Y-124460000D03*
X157480000Y-121920000D03*
X157480000Y-119380000D03*
X157480000Y-116840000D03*
X157480000Y-114300000D03*
X157480000Y-111760000D03*
X157480000Y-109220000D03*
X157480000Y-106680000D03*
X157480000Y-104140000D03*
X165100000Y-104140000D03*
X165100000Y-106680000D03*
X165100000Y-109220000D03*
X165100000Y-111760000D03*
X165100000Y-114300000D03*
X165100000Y-116840000D03*
X165100000Y-119380000D03*
X165100000Y-121920000D03*
X165100000Y-124460000D03*
X165100000Y-127000000D03*
X165100000Y-129540000D03*
X165100000Y-132080000D03*
X165100000Y-134620000D03*
X165100000Y-137160000D03*
X180340000Y-137160000D03*
X180340000Y-134620000D03*
X180340000Y-132080000D03*
X180340000Y-129540000D03*
X180340000Y-127000000D03*
X180340000Y-124460000D03*
X180340000Y-121920000D03*
X180340000Y-119380000D03*
X180340000Y-116840000D03*
X180340000Y-114300000D03*
X180340000Y-111760000D03*
X180340000Y-109220000D03*
X180340000Y-106680000D03*
X180340000Y-104140000D03*
X187960000Y-104140000D03*
X187960000Y-106680000D03*
X187960000Y-109220000D03*
X187960000Y-111760000D03*
X187960000Y-114300000D03*
X187960000Y-116840000D03*
X187960000Y-119380000D03*
X187960000Y-121920000D03*
X187960000Y-124460000D03*
X187960000Y-127000000D03*
X187960000Y-129540000D03*
X187960000Y-132080000D03*
X187960000Y-134620000D03*
X187960000Y-137160000D03*
X203200000Y-137160000D03*
X203200000Y-134620000D03*
X203200000Y-132080000D03*
X203200000Y-129540000D03*
X203200000Y-127000000D03*
X203200000Y-124460000D03*
X203200000Y-121920000D03*
X203200000Y-119380000D03*
X203200000Y-116840000D03*
X203200000Y-114300000D03*
X203200000Y-111760000D03*
X203200000Y-109220000D03*
X203200000Y-106680000D03*
X203200000Y-104140000D03*
D32*
X77470000Y-62230000D03*
X77470000Y-64770000D03*
X75471020Y-64770000D03*
X75471020Y-62230000D03*
D33*
X72771000Y-57500520D03*
X72771000Y-69499480D03*
D34*
X76050140Y-76200000D03*
X70050660Y-76200000D03*
X73050400Y-80899000D03*
D35*
X81280000Y-72390000D03*
D36*
X78740000Y-72390000D03*
D35*
X81280000Y-54610000D03*
D36*
X81280000Y-52070000D03*
D37*
X76200000Y-52070000D03*
D38*
X76200000Y-54570000D03*
M02*
