%TF.GenerationSoftware,KiCad,Pcbnew,7.0.6-7.0.6~ubuntu22.04.1*%
%TF.CreationDate,2023-07-30T13:28:16+02:00*%
%TF.ProjectId,sbc,7362632e-6b69-4636-9164-5f7063625858,rev?*%
%TF.SameCoordinates,Original*%
%TF.FileFunction,Drillmap*%
%TF.FilePolarity,Positive*%
%FSLAX45Y45*%
G04 Gerber Fmt 4.5, Leading zero omitted, Abs format (unit mm)*
G04 Created by KiCad (PCBNEW 7.0.6-7.0.6~ubuntu22.04.1) date 2023-07-30 13:28:16*
%MOMM*%
%LPD*%
G01*
G04 APERTURE LIST*
%ADD10C,0.100000*%
%ADD11C,0.200000*%
%ADD12C,0.110000*%
%ADD13C,0.150000*%
%ADD14C,0.320000*%
G04 APERTURE END LIST*
D10*
X6350000Y-6337300D02*
X30289500Y-6337300D01*
X30289500Y-20574000D01*
X6350000Y-20574000D01*
X6350000Y-6337300D01*
D11*
D12*
X19197800Y-7013300D02*
X19307800Y-7123300D01*
X19307800Y-7013300D02*
X19197800Y-7123300D01*
X19697800Y-7013300D02*
X19807800Y-7123300D01*
X19807800Y-7013300D02*
X19697800Y-7123300D01*
D13*
X8076000Y-6946900D02*
G75*
G03*
X8076000Y-6946900I-75000J0D01*
G01*
X10496000Y-6946900D02*
G75*
G03*
X10496000Y-6946900I-75000J0D01*
G01*
D14*
X6858000Y-6698000D02*
X6858000Y-7018000D01*
X6698000Y-6858000D02*
X7018000Y-6858000D01*
X6858000Y-19906000D02*
X6858000Y-20226000D01*
X6698000Y-20066000D02*
X7018000Y-20066000D01*
X29781500Y-6698000D02*
X29781500Y-7018000D01*
X29621500Y-6858000D02*
X29941500Y-6858000D01*
X29781500Y-19906000D02*
X29781500Y-20226000D01*
X29621500Y-20066000D02*
X29941500Y-20066000D01*
D11*
X6605777Y-20890484D02*
X6605777Y-20690484D01*
X6605777Y-20690484D02*
X6653396Y-20690484D01*
X6653396Y-20690484D02*
X6681967Y-20700008D01*
X6681967Y-20700008D02*
X6701015Y-20719055D01*
X6701015Y-20719055D02*
X6710539Y-20738103D01*
X6710539Y-20738103D02*
X6720062Y-20776198D01*
X6720062Y-20776198D02*
X6720062Y-20804770D01*
X6720062Y-20804770D02*
X6710539Y-20842865D01*
X6710539Y-20842865D02*
X6701015Y-20861912D01*
X6701015Y-20861912D02*
X6681967Y-20880960D01*
X6681967Y-20880960D02*
X6653396Y-20890484D01*
X6653396Y-20890484D02*
X6605777Y-20890484D01*
X6805777Y-20890484D02*
X6805777Y-20757150D01*
X6805777Y-20795246D02*
X6815301Y-20776198D01*
X6815301Y-20776198D02*
X6824824Y-20766674D01*
X6824824Y-20766674D02*
X6843872Y-20757150D01*
X6843872Y-20757150D02*
X6862920Y-20757150D01*
X6929586Y-20890484D02*
X6929586Y-20757150D01*
X6929586Y-20690484D02*
X6920062Y-20700008D01*
X6920062Y-20700008D02*
X6929586Y-20709531D01*
X6929586Y-20709531D02*
X6939110Y-20700008D01*
X6939110Y-20700008D02*
X6929586Y-20690484D01*
X6929586Y-20690484D02*
X6929586Y-20709531D01*
X7053396Y-20890484D02*
X7034348Y-20880960D01*
X7034348Y-20880960D02*
X7024824Y-20861912D01*
X7024824Y-20861912D02*
X7024824Y-20690484D01*
X7158158Y-20890484D02*
X7139110Y-20880960D01*
X7139110Y-20880960D02*
X7129586Y-20861912D01*
X7129586Y-20861912D02*
X7129586Y-20690484D01*
X7386729Y-20890484D02*
X7386729Y-20690484D01*
X7386729Y-20690484D02*
X7453396Y-20833341D01*
X7453396Y-20833341D02*
X7520062Y-20690484D01*
X7520062Y-20690484D02*
X7520062Y-20890484D01*
X7701015Y-20890484D02*
X7701015Y-20785722D01*
X7701015Y-20785722D02*
X7691491Y-20766674D01*
X7691491Y-20766674D02*
X7672443Y-20757150D01*
X7672443Y-20757150D02*
X7634348Y-20757150D01*
X7634348Y-20757150D02*
X7615301Y-20766674D01*
X7701015Y-20880960D02*
X7681967Y-20890484D01*
X7681967Y-20890484D02*
X7634348Y-20890484D01*
X7634348Y-20890484D02*
X7615301Y-20880960D01*
X7615301Y-20880960D02*
X7605777Y-20861912D01*
X7605777Y-20861912D02*
X7605777Y-20842865D01*
X7605777Y-20842865D02*
X7615301Y-20823817D01*
X7615301Y-20823817D02*
X7634348Y-20814293D01*
X7634348Y-20814293D02*
X7681967Y-20814293D01*
X7681967Y-20814293D02*
X7701015Y-20804770D01*
X7796253Y-20757150D02*
X7796253Y-20957150D01*
X7796253Y-20766674D02*
X7815301Y-20757150D01*
X7815301Y-20757150D02*
X7853396Y-20757150D01*
X7853396Y-20757150D02*
X7872443Y-20766674D01*
X7872443Y-20766674D02*
X7881967Y-20776198D01*
X7881967Y-20776198D02*
X7891491Y-20795246D01*
X7891491Y-20795246D02*
X7891491Y-20852389D01*
X7891491Y-20852389D02*
X7881967Y-20871436D01*
X7881967Y-20871436D02*
X7872443Y-20880960D01*
X7872443Y-20880960D02*
X7853396Y-20890484D01*
X7853396Y-20890484D02*
X7815301Y-20890484D01*
X7815301Y-20890484D02*
X7796253Y-20880960D01*
X7977205Y-20871436D02*
X7986729Y-20880960D01*
X7986729Y-20880960D02*
X7977205Y-20890484D01*
X7977205Y-20890484D02*
X7967682Y-20880960D01*
X7967682Y-20880960D02*
X7977205Y-20871436D01*
X7977205Y-20871436D02*
X7977205Y-20890484D01*
X7977205Y-20766674D02*
X7986729Y-20776198D01*
X7986729Y-20776198D02*
X7977205Y-20785722D01*
X7977205Y-20785722D02*
X7967682Y-20776198D01*
X7967682Y-20776198D02*
X7977205Y-20766674D01*
X7977205Y-20766674D02*
X7977205Y-20785722D01*
D12*
X6235000Y-21164000D02*
X6345000Y-21274000D01*
X6345000Y-21164000D02*
X6235000Y-21274000D01*
D11*
X6710539Y-21310484D02*
X6596253Y-21310484D01*
X6653396Y-21310484D02*
X6653396Y-21110484D01*
X6653396Y-21110484D02*
X6634348Y-21139055D01*
X6634348Y-21139055D02*
X6615301Y-21158103D01*
X6615301Y-21158103D02*
X6596253Y-21167627D01*
X6796253Y-21291436D02*
X6805777Y-21300960D01*
X6805777Y-21300960D02*
X6796253Y-21310484D01*
X6796253Y-21310484D02*
X6786729Y-21300960D01*
X6786729Y-21300960D02*
X6796253Y-21291436D01*
X6796253Y-21291436D02*
X6796253Y-21310484D01*
X6996253Y-21310484D02*
X6881967Y-21310484D01*
X6939110Y-21310484D02*
X6939110Y-21110484D01*
X6939110Y-21110484D02*
X6920062Y-21139055D01*
X6920062Y-21139055D02*
X6901015Y-21158103D01*
X6901015Y-21158103D02*
X6881967Y-21167627D01*
X7120062Y-21110484D02*
X7139110Y-21110484D01*
X7139110Y-21110484D02*
X7158158Y-21120008D01*
X7158158Y-21120008D02*
X7167682Y-21129531D01*
X7167682Y-21129531D02*
X7177205Y-21148579D01*
X7177205Y-21148579D02*
X7186729Y-21186674D01*
X7186729Y-21186674D02*
X7186729Y-21234293D01*
X7186729Y-21234293D02*
X7177205Y-21272389D01*
X7177205Y-21272389D02*
X7167682Y-21291436D01*
X7167682Y-21291436D02*
X7158158Y-21300960D01*
X7158158Y-21300960D02*
X7139110Y-21310484D01*
X7139110Y-21310484D02*
X7120062Y-21310484D01*
X7120062Y-21310484D02*
X7101015Y-21300960D01*
X7101015Y-21300960D02*
X7091491Y-21291436D01*
X7091491Y-21291436D02*
X7081967Y-21272389D01*
X7081967Y-21272389D02*
X7072443Y-21234293D01*
X7072443Y-21234293D02*
X7072443Y-21186674D01*
X7072443Y-21186674D02*
X7081967Y-21148579D01*
X7081967Y-21148579D02*
X7091491Y-21129531D01*
X7091491Y-21129531D02*
X7101015Y-21120008D01*
X7101015Y-21120008D02*
X7120062Y-21110484D01*
X7310539Y-21110484D02*
X7329586Y-21110484D01*
X7329586Y-21110484D02*
X7348634Y-21120008D01*
X7348634Y-21120008D02*
X7358158Y-21129531D01*
X7358158Y-21129531D02*
X7367682Y-21148579D01*
X7367682Y-21148579D02*
X7377205Y-21186674D01*
X7377205Y-21186674D02*
X7377205Y-21234293D01*
X7377205Y-21234293D02*
X7367682Y-21272389D01*
X7367682Y-21272389D02*
X7358158Y-21291436D01*
X7358158Y-21291436D02*
X7348634Y-21300960D01*
X7348634Y-21300960D02*
X7329586Y-21310484D01*
X7329586Y-21310484D02*
X7310539Y-21310484D01*
X7310539Y-21310484D02*
X7291491Y-21300960D01*
X7291491Y-21300960D02*
X7281967Y-21291436D01*
X7281967Y-21291436D02*
X7272443Y-21272389D01*
X7272443Y-21272389D02*
X7262920Y-21234293D01*
X7262920Y-21234293D02*
X7262920Y-21186674D01*
X7262920Y-21186674D02*
X7272443Y-21148579D01*
X7272443Y-21148579D02*
X7281967Y-21129531D01*
X7281967Y-21129531D02*
X7291491Y-21120008D01*
X7291491Y-21120008D02*
X7310539Y-21110484D01*
X7462920Y-21310484D02*
X7462920Y-21177150D01*
X7462920Y-21196198D02*
X7472443Y-21186674D01*
X7472443Y-21186674D02*
X7491491Y-21177150D01*
X7491491Y-21177150D02*
X7520063Y-21177150D01*
X7520063Y-21177150D02*
X7539110Y-21186674D01*
X7539110Y-21186674D02*
X7548634Y-21205722D01*
X7548634Y-21205722D02*
X7548634Y-21310484D01*
X7548634Y-21205722D02*
X7558158Y-21186674D01*
X7558158Y-21186674D02*
X7577205Y-21177150D01*
X7577205Y-21177150D02*
X7605777Y-21177150D01*
X7605777Y-21177150D02*
X7624824Y-21186674D01*
X7624824Y-21186674D02*
X7634348Y-21205722D01*
X7634348Y-21205722D02*
X7634348Y-21310484D01*
X7729586Y-21310484D02*
X7729586Y-21177150D01*
X7729586Y-21196198D02*
X7739110Y-21186674D01*
X7739110Y-21186674D02*
X7758158Y-21177150D01*
X7758158Y-21177150D02*
X7786729Y-21177150D01*
X7786729Y-21177150D02*
X7805777Y-21186674D01*
X7805777Y-21186674D02*
X7815301Y-21205722D01*
X7815301Y-21205722D02*
X7815301Y-21310484D01*
X7815301Y-21205722D02*
X7824824Y-21186674D01*
X7824824Y-21186674D02*
X7843872Y-21177150D01*
X7843872Y-21177150D02*
X7872443Y-21177150D01*
X7872443Y-21177150D02*
X7891491Y-21186674D01*
X7891491Y-21186674D02*
X7901015Y-21205722D01*
X7901015Y-21205722D02*
X7901015Y-21310484D01*
X8291491Y-21100960D02*
X8120063Y-21358103D01*
X8548634Y-21110484D02*
X8567682Y-21110484D01*
X8567682Y-21110484D02*
X8586729Y-21120008D01*
X8586729Y-21120008D02*
X8596253Y-21129531D01*
X8596253Y-21129531D02*
X8605777Y-21148579D01*
X8605777Y-21148579D02*
X8615301Y-21186674D01*
X8615301Y-21186674D02*
X8615301Y-21234293D01*
X8615301Y-21234293D02*
X8605777Y-21272389D01*
X8605777Y-21272389D02*
X8596253Y-21291436D01*
X8596253Y-21291436D02*
X8586729Y-21300960D01*
X8586729Y-21300960D02*
X8567682Y-21310484D01*
X8567682Y-21310484D02*
X8548634Y-21310484D01*
X8548634Y-21310484D02*
X8529587Y-21300960D01*
X8529587Y-21300960D02*
X8520063Y-21291436D01*
X8520063Y-21291436D02*
X8510539Y-21272389D01*
X8510539Y-21272389D02*
X8501015Y-21234293D01*
X8501015Y-21234293D02*
X8501015Y-21186674D01*
X8501015Y-21186674D02*
X8510539Y-21148579D01*
X8510539Y-21148579D02*
X8520063Y-21129531D01*
X8520063Y-21129531D02*
X8529587Y-21120008D01*
X8529587Y-21120008D02*
X8548634Y-21110484D01*
X8701015Y-21291436D02*
X8710539Y-21300960D01*
X8710539Y-21300960D02*
X8701015Y-21310484D01*
X8701015Y-21310484D02*
X8691491Y-21300960D01*
X8691491Y-21300960D02*
X8701015Y-21291436D01*
X8701015Y-21291436D02*
X8701015Y-21310484D01*
X8834348Y-21110484D02*
X8853396Y-21110484D01*
X8853396Y-21110484D02*
X8872444Y-21120008D01*
X8872444Y-21120008D02*
X8881968Y-21129531D01*
X8881968Y-21129531D02*
X8891491Y-21148579D01*
X8891491Y-21148579D02*
X8901015Y-21186674D01*
X8901015Y-21186674D02*
X8901015Y-21234293D01*
X8901015Y-21234293D02*
X8891491Y-21272389D01*
X8891491Y-21272389D02*
X8881968Y-21291436D01*
X8881968Y-21291436D02*
X8872444Y-21300960D01*
X8872444Y-21300960D02*
X8853396Y-21310484D01*
X8853396Y-21310484D02*
X8834348Y-21310484D01*
X8834348Y-21310484D02*
X8815301Y-21300960D01*
X8815301Y-21300960D02*
X8805777Y-21291436D01*
X8805777Y-21291436D02*
X8796253Y-21272389D01*
X8796253Y-21272389D02*
X8786729Y-21234293D01*
X8786729Y-21234293D02*
X8786729Y-21186674D01*
X8786729Y-21186674D02*
X8796253Y-21148579D01*
X8796253Y-21148579D02*
X8805777Y-21129531D01*
X8805777Y-21129531D02*
X8815301Y-21120008D01*
X8815301Y-21120008D02*
X8834348Y-21110484D01*
X9072444Y-21177150D02*
X9072444Y-21310484D01*
X9024825Y-21100960D02*
X8977206Y-21243817D01*
X8977206Y-21243817D02*
X9101015Y-21243817D01*
X9158158Y-21110484D02*
X9281968Y-21110484D01*
X9281968Y-21110484D02*
X9215301Y-21186674D01*
X9215301Y-21186674D02*
X9243872Y-21186674D01*
X9243872Y-21186674D02*
X9262920Y-21196198D01*
X9262920Y-21196198D02*
X9272444Y-21205722D01*
X9272444Y-21205722D02*
X9281968Y-21224770D01*
X9281968Y-21224770D02*
X9281968Y-21272389D01*
X9281968Y-21272389D02*
X9272444Y-21291436D01*
X9272444Y-21291436D02*
X9262920Y-21300960D01*
X9262920Y-21300960D02*
X9243872Y-21310484D01*
X9243872Y-21310484D02*
X9186729Y-21310484D01*
X9186729Y-21310484D02*
X9167682Y-21300960D01*
X9167682Y-21300960D02*
X9158158Y-21291436D01*
X9348634Y-21110484D02*
X9472444Y-21110484D01*
X9472444Y-21110484D02*
X9405777Y-21186674D01*
X9405777Y-21186674D02*
X9434349Y-21186674D01*
X9434349Y-21186674D02*
X9453396Y-21196198D01*
X9453396Y-21196198D02*
X9462920Y-21205722D01*
X9462920Y-21205722D02*
X9472444Y-21224770D01*
X9472444Y-21224770D02*
X9472444Y-21272389D01*
X9472444Y-21272389D02*
X9462920Y-21291436D01*
X9462920Y-21291436D02*
X9453396Y-21300960D01*
X9453396Y-21300960D02*
X9434349Y-21310484D01*
X9434349Y-21310484D02*
X9377206Y-21310484D01*
X9377206Y-21310484D02*
X9358158Y-21300960D01*
X9358158Y-21300960D02*
X9348634Y-21291436D01*
X9548634Y-21110484D02*
X9548634Y-21148579D01*
X9624825Y-21110484D02*
X9624825Y-21148579D01*
X9920063Y-21386674D02*
X9910539Y-21377150D01*
X9910539Y-21377150D02*
X9891491Y-21348579D01*
X9891491Y-21348579D02*
X9881968Y-21329531D01*
X9881968Y-21329531D02*
X9872444Y-21300960D01*
X9872444Y-21300960D02*
X9862920Y-21253341D01*
X9862920Y-21253341D02*
X9862920Y-21215246D01*
X9862920Y-21215246D02*
X9872444Y-21167627D01*
X9872444Y-21167627D02*
X9881968Y-21139055D01*
X9881968Y-21139055D02*
X9891491Y-21120008D01*
X9891491Y-21120008D02*
X9910539Y-21091436D01*
X9910539Y-21091436D02*
X9920063Y-21081912D01*
X9986730Y-21129531D02*
X9996253Y-21120008D01*
X9996253Y-21120008D02*
X10015301Y-21110484D01*
X10015301Y-21110484D02*
X10062920Y-21110484D01*
X10062920Y-21110484D02*
X10081968Y-21120008D01*
X10081968Y-21120008D02*
X10091491Y-21129531D01*
X10091491Y-21129531D02*
X10101015Y-21148579D01*
X10101015Y-21148579D02*
X10101015Y-21167627D01*
X10101015Y-21167627D02*
X10091491Y-21196198D01*
X10091491Y-21196198D02*
X9977206Y-21310484D01*
X9977206Y-21310484D02*
X10101015Y-21310484D01*
X10339111Y-21310484D02*
X10339111Y-21110484D01*
X10424825Y-21310484D02*
X10424825Y-21205722D01*
X10424825Y-21205722D02*
X10415301Y-21186674D01*
X10415301Y-21186674D02*
X10396253Y-21177150D01*
X10396253Y-21177150D02*
X10367682Y-21177150D01*
X10367682Y-21177150D02*
X10348634Y-21186674D01*
X10348634Y-21186674D02*
X10339111Y-21196198D01*
X10548634Y-21310484D02*
X10529587Y-21300960D01*
X10529587Y-21300960D02*
X10520063Y-21291436D01*
X10520063Y-21291436D02*
X10510539Y-21272389D01*
X10510539Y-21272389D02*
X10510539Y-21215246D01*
X10510539Y-21215246D02*
X10520063Y-21196198D01*
X10520063Y-21196198D02*
X10529587Y-21186674D01*
X10529587Y-21186674D02*
X10548634Y-21177150D01*
X10548634Y-21177150D02*
X10577206Y-21177150D01*
X10577206Y-21177150D02*
X10596253Y-21186674D01*
X10596253Y-21186674D02*
X10605777Y-21196198D01*
X10605777Y-21196198D02*
X10615301Y-21215246D01*
X10615301Y-21215246D02*
X10615301Y-21272389D01*
X10615301Y-21272389D02*
X10605777Y-21291436D01*
X10605777Y-21291436D02*
X10596253Y-21300960D01*
X10596253Y-21300960D02*
X10577206Y-21310484D01*
X10577206Y-21310484D02*
X10548634Y-21310484D01*
X10729587Y-21310484D02*
X10710539Y-21300960D01*
X10710539Y-21300960D02*
X10701015Y-21281912D01*
X10701015Y-21281912D02*
X10701015Y-21110484D01*
X10881968Y-21300960D02*
X10862920Y-21310484D01*
X10862920Y-21310484D02*
X10824825Y-21310484D01*
X10824825Y-21310484D02*
X10805777Y-21300960D01*
X10805777Y-21300960D02*
X10796253Y-21281912D01*
X10796253Y-21281912D02*
X10796253Y-21205722D01*
X10796253Y-21205722D02*
X10805777Y-21186674D01*
X10805777Y-21186674D02*
X10824825Y-21177150D01*
X10824825Y-21177150D02*
X10862920Y-21177150D01*
X10862920Y-21177150D02*
X10881968Y-21186674D01*
X10881968Y-21186674D02*
X10891492Y-21205722D01*
X10891492Y-21205722D02*
X10891492Y-21224770D01*
X10891492Y-21224770D02*
X10796253Y-21243817D01*
X10967682Y-21300960D02*
X10986730Y-21310484D01*
X10986730Y-21310484D02*
X11024825Y-21310484D01*
X11024825Y-21310484D02*
X11043873Y-21300960D01*
X11043873Y-21300960D02*
X11053396Y-21281912D01*
X11053396Y-21281912D02*
X11053396Y-21272389D01*
X11053396Y-21272389D02*
X11043873Y-21253341D01*
X11043873Y-21253341D02*
X11024825Y-21243817D01*
X11024825Y-21243817D02*
X10996253Y-21243817D01*
X10996253Y-21243817D02*
X10977206Y-21234293D01*
X10977206Y-21234293D02*
X10967682Y-21215246D01*
X10967682Y-21215246D02*
X10967682Y-21205722D01*
X10967682Y-21205722D02*
X10977206Y-21186674D01*
X10977206Y-21186674D02*
X10996253Y-21177150D01*
X10996253Y-21177150D02*
X11024825Y-21177150D01*
X11024825Y-21177150D02*
X11043873Y-21186674D01*
X11120063Y-21386674D02*
X11129587Y-21377150D01*
X11129587Y-21377150D02*
X11148634Y-21348579D01*
X11148634Y-21348579D02*
X11158158Y-21329531D01*
X11158158Y-21329531D02*
X11167682Y-21300960D01*
X11167682Y-21300960D02*
X11177206Y-21253341D01*
X11177206Y-21253341D02*
X11177206Y-21215246D01*
X11177206Y-21215246D02*
X11167682Y-21167627D01*
X11167682Y-21167627D02*
X11158158Y-21139055D01*
X11158158Y-21139055D02*
X11148634Y-21120008D01*
X11148634Y-21120008D02*
X11129587Y-21091436D01*
X11129587Y-21091436D02*
X11120063Y-21081912D01*
X11481968Y-21386674D02*
X11472444Y-21377150D01*
X11472444Y-21377150D02*
X11453396Y-21348579D01*
X11453396Y-21348579D02*
X11443872Y-21329531D01*
X11443872Y-21329531D02*
X11434349Y-21300960D01*
X11434349Y-21300960D02*
X11424825Y-21253341D01*
X11424825Y-21253341D02*
X11424825Y-21215246D01*
X11424825Y-21215246D02*
X11434349Y-21167627D01*
X11434349Y-21167627D02*
X11443872Y-21139055D01*
X11443872Y-21139055D02*
X11453396Y-21120008D01*
X11453396Y-21120008D02*
X11472444Y-21091436D01*
X11472444Y-21091436D02*
X11481968Y-21081912D01*
X11558158Y-21177150D02*
X11558158Y-21310484D01*
X11558158Y-21196198D02*
X11567682Y-21186674D01*
X11567682Y-21186674D02*
X11586730Y-21177150D01*
X11586730Y-21177150D02*
X11615301Y-21177150D01*
X11615301Y-21177150D02*
X11634349Y-21186674D01*
X11634349Y-21186674D02*
X11643872Y-21205722D01*
X11643872Y-21205722D02*
X11643872Y-21310484D01*
X11767682Y-21310484D02*
X11748634Y-21300960D01*
X11748634Y-21300960D02*
X11739111Y-21291436D01*
X11739111Y-21291436D02*
X11729587Y-21272389D01*
X11729587Y-21272389D02*
X11729587Y-21215246D01*
X11729587Y-21215246D02*
X11739111Y-21196198D01*
X11739111Y-21196198D02*
X11748634Y-21186674D01*
X11748634Y-21186674D02*
X11767682Y-21177150D01*
X11767682Y-21177150D02*
X11796253Y-21177150D01*
X11796253Y-21177150D02*
X11815301Y-21186674D01*
X11815301Y-21186674D02*
X11824825Y-21196198D01*
X11824825Y-21196198D02*
X11834349Y-21215246D01*
X11834349Y-21215246D02*
X11834349Y-21272389D01*
X11834349Y-21272389D02*
X11824825Y-21291436D01*
X11824825Y-21291436D02*
X11815301Y-21300960D01*
X11815301Y-21300960D02*
X11796253Y-21310484D01*
X11796253Y-21310484D02*
X11767682Y-21310484D01*
X11891492Y-21177150D02*
X11967682Y-21177150D01*
X11920063Y-21110484D02*
X11920063Y-21281912D01*
X11920063Y-21281912D02*
X11929587Y-21300960D01*
X11929587Y-21300960D02*
X11948634Y-21310484D01*
X11948634Y-21310484D02*
X11967682Y-21310484D01*
X12186730Y-21177150D02*
X12186730Y-21377150D01*
X12186730Y-21186674D02*
X12205777Y-21177150D01*
X12205777Y-21177150D02*
X12243873Y-21177150D01*
X12243873Y-21177150D02*
X12262920Y-21186674D01*
X12262920Y-21186674D02*
X12272444Y-21196198D01*
X12272444Y-21196198D02*
X12281968Y-21215246D01*
X12281968Y-21215246D02*
X12281968Y-21272389D01*
X12281968Y-21272389D02*
X12272444Y-21291436D01*
X12272444Y-21291436D02*
X12262920Y-21300960D01*
X12262920Y-21300960D02*
X12243873Y-21310484D01*
X12243873Y-21310484D02*
X12205777Y-21310484D01*
X12205777Y-21310484D02*
X12186730Y-21300960D01*
X12396253Y-21310484D02*
X12377206Y-21300960D01*
X12377206Y-21300960D02*
X12367682Y-21281912D01*
X12367682Y-21281912D02*
X12367682Y-21110484D01*
X12558158Y-21310484D02*
X12558158Y-21205722D01*
X12558158Y-21205722D02*
X12548634Y-21186674D01*
X12548634Y-21186674D02*
X12529587Y-21177150D01*
X12529587Y-21177150D02*
X12491492Y-21177150D01*
X12491492Y-21177150D02*
X12472444Y-21186674D01*
X12558158Y-21300960D02*
X12539111Y-21310484D01*
X12539111Y-21310484D02*
X12491492Y-21310484D01*
X12491492Y-21310484D02*
X12472444Y-21300960D01*
X12472444Y-21300960D02*
X12462920Y-21281912D01*
X12462920Y-21281912D02*
X12462920Y-21262865D01*
X12462920Y-21262865D02*
X12472444Y-21243817D01*
X12472444Y-21243817D02*
X12491492Y-21234293D01*
X12491492Y-21234293D02*
X12539111Y-21234293D01*
X12539111Y-21234293D02*
X12558158Y-21224770D01*
X12624825Y-21177150D02*
X12701015Y-21177150D01*
X12653396Y-21110484D02*
X12653396Y-21281912D01*
X12653396Y-21281912D02*
X12662920Y-21300960D01*
X12662920Y-21300960D02*
X12681968Y-21310484D01*
X12681968Y-21310484D02*
X12701015Y-21310484D01*
X12843873Y-21300960D02*
X12824825Y-21310484D01*
X12824825Y-21310484D02*
X12786730Y-21310484D01*
X12786730Y-21310484D02*
X12767682Y-21300960D01*
X12767682Y-21300960D02*
X12758158Y-21281912D01*
X12758158Y-21281912D02*
X12758158Y-21205722D01*
X12758158Y-21205722D02*
X12767682Y-21186674D01*
X12767682Y-21186674D02*
X12786730Y-21177150D01*
X12786730Y-21177150D02*
X12824825Y-21177150D01*
X12824825Y-21177150D02*
X12843873Y-21186674D01*
X12843873Y-21186674D02*
X12853396Y-21205722D01*
X12853396Y-21205722D02*
X12853396Y-21224770D01*
X12853396Y-21224770D02*
X12758158Y-21243817D01*
X13024825Y-21310484D02*
X13024825Y-21110484D01*
X13024825Y-21300960D02*
X13005777Y-21310484D01*
X13005777Y-21310484D02*
X12967682Y-21310484D01*
X12967682Y-21310484D02*
X12948634Y-21300960D01*
X12948634Y-21300960D02*
X12939111Y-21291436D01*
X12939111Y-21291436D02*
X12929587Y-21272389D01*
X12929587Y-21272389D02*
X12929587Y-21215246D01*
X12929587Y-21215246D02*
X12939111Y-21196198D01*
X12939111Y-21196198D02*
X12948634Y-21186674D01*
X12948634Y-21186674D02*
X12967682Y-21177150D01*
X12967682Y-21177150D02*
X13005777Y-21177150D01*
X13005777Y-21177150D02*
X13024825Y-21186674D01*
X13101015Y-21386674D02*
X13110539Y-21377150D01*
X13110539Y-21377150D02*
X13129587Y-21348579D01*
X13129587Y-21348579D02*
X13139111Y-21329531D01*
X13139111Y-21329531D02*
X13148634Y-21300960D01*
X13148634Y-21300960D02*
X13158158Y-21253341D01*
X13158158Y-21253341D02*
X13158158Y-21215246D01*
X13158158Y-21215246D02*
X13148634Y-21167627D01*
X13148634Y-21167627D02*
X13139111Y-21139055D01*
X13139111Y-21139055D02*
X13129587Y-21120008D01*
X13129587Y-21120008D02*
X13110539Y-21091436D01*
X13110539Y-21091436D02*
X13101015Y-21081912D01*
D13*
X6345000Y-21483000D02*
G75*
G03*
X6345000Y-21483000I-75000J0D01*
G01*
D11*
X6710539Y-21574484D02*
X6596253Y-21574484D01*
X6653396Y-21574484D02*
X6653396Y-21374484D01*
X6653396Y-21374484D02*
X6634348Y-21403055D01*
X6634348Y-21403055D02*
X6615301Y-21422103D01*
X6615301Y-21422103D02*
X6596253Y-21431627D01*
X6796253Y-21555436D02*
X6805777Y-21564960D01*
X6805777Y-21564960D02*
X6796253Y-21574484D01*
X6796253Y-21574484D02*
X6786729Y-21564960D01*
X6786729Y-21564960D02*
X6796253Y-21555436D01*
X6796253Y-21555436D02*
X6796253Y-21574484D01*
X6986729Y-21374484D02*
X6891491Y-21374484D01*
X6891491Y-21374484D02*
X6881967Y-21469722D01*
X6881967Y-21469722D02*
X6891491Y-21460198D01*
X6891491Y-21460198D02*
X6910539Y-21450674D01*
X6910539Y-21450674D02*
X6958158Y-21450674D01*
X6958158Y-21450674D02*
X6977205Y-21460198D01*
X6977205Y-21460198D02*
X6986729Y-21469722D01*
X6986729Y-21469722D02*
X6996253Y-21488770D01*
X6996253Y-21488770D02*
X6996253Y-21536389D01*
X6996253Y-21536389D02*
X6986729Y-21555436D01*
X6986729Y-21555436D02*
X6977205Y-21564960D01*
X6977205Y-21564960D02*
X6958158Y-21574484D01*
X6958158Y-21574484D02*
X6910539Y-21574484D01*
X6910539Y-21574484D02*
X6891491Y-21564960D01*
X6891491Y-21564960D02*
X6881967Y-21555436D01*
X7120062Y-21374484D02*
X7139110Y-21374484D01*
X7139110Y-21374484D02*
X7158158Y-21384008D01*
X7158158Y-21384008D02*
X7167682Y-21393531D01*
X7167682Y-21393531D02*
X7177205Y-21412579D01*
X7177205Y-21412579D02*
X7186729Y-21450674D01*
X7186729Y-21450674D02*
X7186729Y-21498293D01*
X7186729Y-21498293D02*
X7177205Y-21536389D01*
X7177205Y-21536389D02*
X7167682Y-21555436D01*
X7167682Y-21555436D02*
X7158158Y-21564960D01*
X7158158Y-21564960D02*
X7139110Y-21574484D01*
X7139110Y-21574484D02*
X7120062Y-21574484D01*
X7120062Y-21574484D02*
X7101015Y-21564960D01*
X7101015Y-21564960D02*
X7091491Y-21555436D01*
X7091491Y-21555436D02*
X7081967Y-21536389D01*
X7081967Y-21536389D02*
X7072443Y-21498293D01*
X7072443Y-21498293D02*
X7072443Y-21450674D01*
X7072443Y-21450674D02*
X7081967Y-21412579D01*
X7081967Y-21412579D02*
X7091491Y-21393531D01*
X7091491Y-21393531D02*
X7101015Y-21384008D01*
X7101015Y-21384008D02*
X7120062Y-21374484D01*
X7310539Y-21374484D02*
X7329586Y-21374484D01*
X7329586Y-21374484D02*
X7348634Y-21384008D01*
X7348634Y-21384008D02*
X7358158Y-21393531D01*
X7358158Y-21393531D02*
X7367682Y-21412579D01*
X7367682Y-21412579D02*
X7377205Y-21450674D01*
X7377205Y-21450674D02*
X7377205Y-21498293D01*
X7377205Y-21498293D02*
X7367682Y-21536389D01*
X7367682Y-21536389D02*
X7358158Y-21555436D01*
X7358158Y-21555436D02*
X7348634Y-21564960D01*
X7348634Y-21564960D02*
X7329586Y-21574484D01*
X7329586Y-21574484D02*
X7310539Y-21574484D01*
X7310539Y-21574484D02*
X7291491Y-21564960D01*
X7291491Y-21564960D02*
X7281967Y-21555436D01*
X7281967Y-21555436D02*
X7272443Y-21536389D01*
X7272443Y-21536389D02*
X7262920Y-21498293D01*
X7262920Y-21498293D02*
X7262920Y-21450674D01*
X7262920Y-21450674D02*
X7272443Y-21412579D01*
X7272443Y-21412579D02*
X7281967Y-21393531D01*
X7281967Y-21393531D02*
X7291491Y-21384008D01*
X7291491Y-21384008D02*
X7310539Y-21374484D01*
X7462920Y-21574484D02*
X7462920Y-21441150D01*
X7462920Y-21460198D02*
X7472443Y-21450674D01*
X7472443Y-21450674D02*
X7491491Y-21441150D01*
X7491491Y-21441150D02*
X7520063Y-21441150D01*
X7520063Y-21441150D02*
X7539110Y-21450674D01*
X7539110Y-21450674D02*
X7548634Y-21469722D01*
X7548634Y-21469722D02*
X7548634Y-21574484D01*
X7548634Y-21469722D02*
X7558158Y-21450674D01*
X7558158Y-21450674D02*
X7577205Y-21441150D01*
X7577205Y-21441150D02*
X7605777Y-21441150D01*
X7605777Y-21441150D02*
X7624824Y-21450674D01*
X7624824Y-21450674D02*
X7634348Y-21469722D01*
X7634348Y-21469722D02*
X7634348Y-21574484D01*
X7729586Y-21574484D02*
X7729586Y-21441150D01*
X7729586Y-21460198D02*
X7739110Y-21450674D01*
X7739110Y-21450674D02*
X7758158Y-21441150D01*
X7758158Y-21441150D02*
X7786729Y-21441150D01*
X7786729Y-21441150D02*
X7805777Y-21450674D01*
X7805777Y-21450674D02*
X7815301Y-21469722D01*
X7815301Y-21469722D02*
X7815301Y-21574484D01*
X7815301Y-21469722D02*
X7824824Y-21450674D01*
X7824824Y-21450674D02*
X7843872Y-21441150D01*
X7843872Y-21441150D02*
X7872443Y-21441150D01*
X7872443Y-21441150D02*
X7891491Y-21450674D01*
X7891491Y-21450674D02*
X7901015Y-21469722D01*
X7901015Y-21469722D02*
X7901015Y-21574484D01*
X8291491Y-21364960D02*
X8120063Y-21622103D01*
X8548634Y-21374484D02*
X8567682Y-21374484D01*
X8567682Y-21374484D02*
X8586729Y-21384008D01*
X8586729Y-21384008D02*
X8596253Y-21393531D01*
X8596253Y-21393531D02*
X8605777Y-21412579D01*
X8605777Y-21412579D02*
X8615301Y-21450674D01*
X8615301Y-21450674D02*
X8615301Y-21498293D01*
X8615301Y-21498293D02*
X8605777Y-21536389D01*
X8605777Y-21536389D02*
X8596253Y-21555436D01*
X8596253Y-21555436D02*
X8586729Y-21564960D01*
X8586729Y-21564960D02*
X8567682Y-21574484D01*
X8567682Y-21574484D02*
X8548634Y-21574484D01*
X8548634Y-21574484D02*
X8529587Y-21564960D01*
X8529587Y-21564960D02*
X8520063Y-21555436D01*
X8520063Y-21555436D02*
X8510539Y-21536389D01*
X8510539Y-21536389D02*
X8501015Y-21498293D01*
X8501015Y-21498293D02*
X8501015Y-21450674D01*
X8501015Y-21450674D02*
X8510539Y-21412579D01*
X8510539Y-21412579D02*
X8520063Y-21393531D01*
X8520063Y-21393531D02*
X8529587Y-21384008D01*
X8529587Y-21384008D02*
X8548634Y-21374484D01*
X8701015Y-21555436D02*
X8710539Y-21564960D01*
X8710539Y-21564960D02*
X8701015Y-21574484D01*
X8701015Y-21574484D02*
X8691491Y-21564960D01*
X8691491Y-21564960D02*
X8701015Y-21555436D01*
X8701015Y-21555436D02*
X8701015Y-21574484D01*
X8834348Y-21374484D02*
X8853396Y-21374484D01*
X8853396Y-21374484D02*
X8872444Y-21384008D01*
X8872444Y-21384008D02*
X8881968Y-21393531D01*
X8881968Y-21393531D02*
X8891491Y-21412579D01*
X8891491Y-21412579D02*
X8901015Y-21450674D01*
X8901015Y-21450674D02*
X8901015Y-21498293D01*
X8901015Y-21498293D02*
X8891491Y-21536389D01*
X8891491Y-21536389D02*
X8881968Y-21555436D01*
X8881968Y-21555436D02*
X8872444Y-21564960D01*
X8872444Y-21564960D02*
X8853396Y-21574484D01*
X8853396Y-21574484D02*
X8834348Y-21574484D01*
X8834348Y-21574484D02*
X8815301Y-21564960D01*
X8815301Y-21564960D02*
X8805777Y-21555436D01*
X8805777Y-21555436D02*
X8796253Y-21536389D01*
X8796253Y-21536389D02*
X8786729Y-21498293D01*
X8786729Y-21498293D02*
X8786729Y-21450674D01*
X8786729Y-21450674D02*
X8796253Y-21412579D01*
X8796253Y-21412579D02*
X8805777Y-21393531D01*
X8805777Y-21393531D02*
X8815301Y-21384008D01*
X8815301Y-21384008D02*
X8834348Y-21374484D01*
X9081968Y-21374484D02*
X8986729Y-21374484D01*
X8986729Y-21374484D02*
X8977206Y-21469722D01*
X8977206Y-21469722D02*
X8986729Y-21460198D01*
X8986729Y-21460198D02*
X9005777Y-21450674D01*
X9005777Y-21450674D02*
X9053396Y-21450674D01*
X9053396Y-21450674D02*
X9072444Y-21460198D01*
X9072444Y-21460198D02*
X9081968Y-21469722D01*
X9081968Y-21469722D02*
X9091491Y-21488770D01*
X9091491Y-21488770D02*
X9091491Y-21536389D01*
X9091491Y-21536389D02*
X9081968Y-21555436D01*
X9081968Y-21555436D02*
X9072444Y-21564960D01*
X9072444Y-21564960D02*
X9053396Y-21574484D01*
X9053396Y-21574484D02*
X9005777Y-21574484D01*
X9005777Y-21574484D02*
X8986729Y-21564960D01*
X8986729Y-21564960D02*
X8977206Y-21555436D01*
X9186729Y-21574484D02*
X9224825Y-21574484D01*
X9224825Y-21574484D02*
X9243872Y-21564960D01*
X9243872Y-21564960D02*
X9253396Y-21555436D01*
X9253396Y-21555436D02*
X9272444Y-21526865D01*
X9272444Y-21526865D02*
X9281968Y-21488770D01*
X9281968Y-21488770D02*
X9281968Y-21412579D01*
X9281968Y-21412579D02*
X9272444Y-21393531D01*
X9272444Y-21393531D02*
X9262920Y-21384008D01*
X9262920Y-21384008D02*
X9243872Y-21374484D01*
X9243872Y-21374484D02*
X9205777Y-21374484D01*
X9205777Y-21374484D02*
X9186729Y-21384008D01*
X9186729Y-21384008D02*
X9177206Y-21393531D01*
X9177206Y-21393531D02*
X9167682Y-21412579D01*
X9167682Y-21412579D02*
X9167682Y-21460198D01*
X9167682Y-21460198D02*
X9177206Y-21479246D01*
X9177206Y-21479246D02*
X9186729Y-21488770D01*
X9186729Y-21488770D02*
X9205777Y-21498293D01*
X9205777Y-21498293D02*
X9243872Y-21498293D01*
X9243872Y-21498293D02*
X9262920Y-21488770D01*
X9262920Y-21488770D02*
X9272444Y-21479246D01*
X9272444Y-21479246D02*
X9281968Y-21460198D01*
X9472444Y-21574484D02*
X9358158Y-21574484D01*
X9415301Y-21574484D02*
X9415301Y-21374484D01*
X9415301Y-21374484D02*
X9396253Y-21403055D01*
X9396253Y-21403055D02*
X9377206Y-21422103D01*
X9377206Y-21422103D02*
X9358158Y-21431627D01*
X9548634Y-21374484D02*
X9548634Y-21412579D01*
X9624825Y-21374484D02*
X9624825Y-21412579D01*
X9920063Y-21650674D02*
X9910539Y-21641150D01*
X9910539Y-21641150D02*
X9891491Y-21612579D01*
X9891491Y-21612579D02*
X9881968Y-21593531D01*
X9881968Y-21593531D02*
X9872444Y-21564960D01*
X9872444Y-21564960D02*
X9862920Y-21517341D01*
X9862920Y-21517341D02*
X9862920Y-21479246D01*
X9862920Y-21479246D02*
X9872444Y-21431627D01*
X9872444Y-21431627D02*
X9881968Y-21403055D01*
X9881968Y-21403055D02*
X9891491Y-21384008D01*
X9891491Y-21384008D02*
X9910539Y-21355436D01*
X9910539Y-21355436D02*
X9920063Y-21345912D01*
X9986730Y-21393531D02*
X9996253Y-21384008D01*
X9996253Y-21384008D02*
X10015301Y-21374484D01*
X10015301Y-21374484D02*
X10062920Y-21374484D01*
X10062920Y-21374484D02*
X10081968Y-21384008D01*
X10081968Y-21384008D02*
X10091491Y-21393531D01*
X10091491Y-21393531D02*
X10101015Y-21412579D01*
X10101015Y-21412579D02*
X10101015Y-21431627D01*
X10101015Y-21431627D02*
X10091491Y-21460198D01*
X10091491Y-21460198D02*
X9977206Y-21574484D01*
X9977206Y-21574484D02*
X10101015Y-21574484D01*
X10339111Y-21574484D02*
X10339111Y-21374484D01*
X10424825Y-21574484D02*
X10424825Y-21469722D01*
X10424825Y-21469722D02*
X10415301Y-21450674D01*
X10415301Y-21450674D02*
X10396253Y-21441150D01*
X10396253Y-21441150D02*
X10367682Y-21441150D01*
X10367682Y-21441150D02*
X10348634Y-21450674D01*
X10348634Y-21450674D02*
X10339111Y-21460198D01*
X10548634Y-21574484D02*
X10529587Y-21564960D01*
X10529587Y-21564960D02*
X10520063Y-21555436D01*
X10520063Y-21555436D02*
X10510539Y-21536389D01*
X10510539Y-21536389D02*
X10510539Y-21479246D01*
X10510539Y-21479246D02*
X10520063Y-21460198D01*
X10520063Y-21460198D02*
X10529587Y-21450674D01*
X10529587Y-21450674D02*
X10548634Y-21441150D01*
X10548634Y-21441150D02*
X10577206Y-21441150D01*
X10577206Y-21441150D02*
X10596253Y-21450674D01*
X10596253Y-21450674D02*
X10605777Y-21460198D01*
X10605777Y-21460198D02*
X10615301Y-21479246D01*
X10615301Y-21479246D02*
X10615301Y-21536389D01*
X10615301Y-21536389D02*
X10605777Y-21555436D01*
X10605777Y-21555436D02*
X10596253Y-21564960D01*
X10596253Y-21564960D02*
X10577206Y-21574484D01*
X10577206Y-21574484D02*
X10548634Y-21574484D01*
X10729587Y-21574484D02*
X10710539Y-21564960D01*
X10710539Y-21564960D02*
X10701015Y-21545912D01*
X10701015Y-21545912D02*
X10701015Y-21374484D01*
X10881968Y-21564960D02*
X10862920Y-21574484D01*
X10862920Y-21574484D02*
X10824825Y-21574484D01*
X10824825Y-21574484D02*
X10805777Y-21564960D01*
X10805777Y-21564960D02*
X10796253Y-21545912D01*
X10796253Y-21545912D02*
X10796253Y-21469722D01*
X10796253Y-21469722D02*
X10805777Y-21450674D01*
X10805777Y-21450674D02*
X10824825Y-21441150D01*
X10824825Y-21441150D02*
X10862920Y-21441150D01*
X10862920Y-21441150D02*
X10881968Y-21450674D01*
X10881968Y-21450674D02*
X10891492Y-21469722D01*
X10891492Y-21469722D02*
X10891492Y-21488770D01*
X10891492Y-21488770D02*
X10796253Y-21507817D01*
X10967682Y-21564960D02*
X10986730Y-21574484D01*
X10986730Y-21574484D02*
X11024825Y-21574484D01*
X11024825Y-21574484D02*
X11043873Y-21564960D01*
X11043873Y-21564960D02*
X11053396Y-21545912D01*
X11053396Y-21545912D02*
X11053396Y-21536389D01*
X11053396Y-21536389D02*
X11043873Y-21517341D01*
X11043873Y-21517341D02*
X11024825Y-21507817D01*
X11024825Y-21507817D02*
X10996253Y-21507817D01*
X10996253Y-21507817D02*
X10977206Y-21498293D01*
X10977206Y-21498293D02*
X10967682Y-21479246D01*
X10967682Y-21479246D02*
X10967682Y-21469722D01*
X10967682Y-21469722D02*
X10977206Y-21450674D01*
X10977206Y-21450674D02*
X10996253Y-21441150D01*
X10996253Y-21441150D02*
X11024825Y-21441150D01*
X11024825Y-21441150D02*
X11043873Y-21450674D01*
X11120063Y-21650674D02*
X11129587Y-21641150D01*
X11129587Y-21641150D02*
X11148634Y-21612579D01*
X11148634Y-21612579D02*
X11158158Y-21593531D01*
X11158158Y-21593531D02*
X11167682Y-21564960D01*
X11167682Y-21564960D02*
X11177206Y-21517341D01*
X11177206Y-21517341D02*
X11177206Y-21479246D01*
X11177206Y-21479246D02*
X11167682Y-21431627D01*
X11167682Y-21431627D02*
X11158158Y-21403055D01*
X11158158Y-21403055D02*
X11148634Y-21384008D01*
X11148634Y-21384008D02*
X11129587Y-21355436D01*
X11129587Y-21355436D02*
X11120063Y-21345912D01*
X11481968Y-21650674D02*
X11472444Y-21641150D01*
X11472444Y-21641150D02*
X11453396Y-21612579D01*
X11453396Y-21612579D02*
X11443872Y-21593531D01*
X11443872Y-21593531D02*
X11434349Y-21564960D01*
X11434349Y-21564960D02*
X11424825Y-21517341D01*
X11424825Y-21517341D02*
X11424825Y-21479246D01*
X11424825Y-21479246D02*
X11434349Y-21431627D01*
X11434349Y-21431627D02*
X11443872Y-21403055D01*
X11443872Y-21403055D02*
X11453396Y-21384008D01*
X11453396Y-21384008D02*
X11472444Y-21355436D01*
X11472444Y-21355436D02*
X11481968Y-21345912D01*
X11558158Y-21441150D02*
X11558158Y-21574484D01*
X11558158Y-21460198D02*
X11567682Y-21450674D01*
X11567682Y-21450674D02*
X11586730Y-21441150D01*
X11586730Y-21441150D02*
X11615301Y-21441150D01*
X11615301Y-21441150D02*
X11634349Y-21450674D01*
X11634349Y-21450674D02*
X11643872Y-21469722D01*
X11643872Y-21469722D02*
X11643872Y-21574484D01*
X11767682Y-21574484D02*
X11748634Y-21564960D01*
X11748634Y-21564960D02*
X11739111Y-21555436D01*
X11739111Y-21555436D02*
X11729587Y-21536389D01*
X11729587Y-21536389D02*
X11729587Y-21479246D01*
X11729587Y-21479246D02*
X11739111Y-21460198D01*
X11739111Y-21460198D02*
X11748634Y-21450674D01*
X11748634Y-21450674D02*
X11767682Y-21441150D01*
X11767682Y-21441150D02*
X11796253Y-21441150D01*
X11796253Y-21441150D02*
X11815301Y-21450674D01*
X11815301Y-21450674D02*
X11824825Y-21460198D01*
X11824825Y-21460198D02*
X11834349Y-21479246D01*
X11834349Y-21479246D02*
X11834349Y-21536389D01*
X11834349Y-21536389D02*
X11824825Y-21555436D01*
X11824825Y-21555436D02*
X11815301Y-21564960D01*
X11815301Y-21564960D02*
X11796253Y-21574484D01*
X11796253Y-21574484D02*
X11767682Y-21574484D01*
X11891492Y-21441150D02*
X11967682Y-21441150D01*
X11920063Y-21374484D02*
X11920063Y-21545912D01*
X11920063Y-21545912D02*
X11929587Y-21564960D01*
X11929587Y-21564960D02*
X11948634Y-21574484D01*
X11948634Y-21574484D02*
X11967682Y-21574484D01*
X12186730Y-21441150D02*
X12186730Y-21641150D01*
X12186730Y-21450674D02*
X12205777Y-21441150D01*
X12205777Y-21441150D02*
X12243873Y-21441150D01*
X12243873Y-21441150D02*
X12262920Y-21450674D01*
X12262920Y-21450674D02*
X12272444Y-21460198D01*
X12272444Y-21460198D02*
X12281968Y-21479246D01*
X12281968Y-21479246D02*
X12281968Y-21536389D01*
X12281968Y-21536389D02*
X12272444Y-21555436D01*
X12272444Y-21555436D02*
X12262920Y-21564960D01*
X12262920Y-21564960D02*
X12243873Y-21574484D01*
X12243873Y-21574484D02*
X12205777Y-21574484D01*
X12205777Y-21574484D02*
X12186730Y-21564960D01*
X12396253Y-21574484D02*
X12377206Y-21564960D01*
X12377206Y-21564960D02*
X12367682Y-21545912D01*
X12367682Y-21545912D02*
X12367682Y-21374484D01*
X12558158Y-21574484D02*
X12558158Y-21469722D01*
X12558158Y-21469722D02*
X12548634Y-21450674D01*
X12548634Y-21450674D02*
X12529587Y-21441150D01*
X12529587Y-21441150D02*
X12491492Y-21441150D01*
X12491492Y-21441150D02*
X12472444Y-21450674D01*
X12558158Y-21564960D02*
X12539111Y-21574484D01*
X12539111Y-21574484D02*
X12491492Y-21574484D01*
X12491492Y-21574484D02*
X12472444Y-21564960D01*
X12472444Y-21564960D02*
X12462920Y-21545912D01*
X12462920Y-21545912D02*
X12462920Y-21526865D01*
X12462920Y-21526865D02*
X12472444Y-21507817D01*
X12472444Y-21507817D02*
X12491492Y-21498293D01*
X12491492Y-21498293D02*
X12539111Y-21498293D01*
X12539111Y-21498293D02*
X12558158Y-21488770D01*
X12624825Y-21441150D02*
X12701015Y-21441150D01*
X12653396Y-21374484D02*
X12653396Y-21545912D01*
X12653396Y-21545912D02*
X12662920Y-21564960D01*
X12662920Y-21564960D02*
X12681968Y-21574484D01*
X12681968Y-21574484D02*
X12701015Y-21574484D01*
X12843873Y-21564960D02*
X12824825Y-21574484D01*
X12824825Y-21574484D02*
X12786730Y-21574484D01*
X12786730Y-21574484D02*
X12767682Y-21564960D01*
X12767682Y-21564960D02*
X12758158Y-21545912D01*
X12758158Y-21545912D02*
X12758158Y-21469722D01*
X12758158Y-21469722D02*
X12767682Y-21450674D01*
X12767682Y-21450674D02*
X12786730Y-21441150D01*
X12786730Y-21441150D02*
X12824825Y-21441150D01*
X12824825Y-21441150D02*
X12843873Y-21450674D01*
X12843873Y-21450674D02*
X12853396Y-21469722D01*
X12853396Y-21469722D02*
X12853396Y-21488770D01*
X12853396Y-21488770D02*
X12758158Y-21507817D01*
X13024825Y-21574484D02*
X13024825Y-21374484D01*
X13024825Y-21564960D02*
X13005777Y-21574484D01*
X13005777Y-21574484D02*
X12967682Y-21574484D01*
X12967682Y-21574484D02*
X12948634Y-21564960D01*
X12948634Y-21564960D02*
X12939111Y-21555436D01*
X12939111Y-21555436D02*
X12929587Y-21536389D01*
X12929587Y-21536389D02*
X12929587Y-21479246D01*
X12929587Y-21479246D02*
X12939111Y-21460198D01*
X12939111Y-21460198D02*
X12948634Y-21450674D01*
X12948634Y-21450674D02*
X12967682Y-21441150D01*
X12967682Y-21441150D02*
X13005777Y-21441150D01*
X13005777Y-21441150D02*
X13024825Y-21450674D01*
X13101015Y-21650674D02*
X13110539Y-21641150D01*
X13110539Y-21641150D02*
X13129587Y-21612579D01*
X13129587Y-21612579D02*
X13139111Y-21593531D01*
X13139111Y-21593531D02*
X13148634Y-21564960D01*
X13148634Y-21564960D02*
X13158158Y-21517341D01*
X13158158Y-21517341D02*
X13158158Y-21479246D01*
X13158158Y-21479246D02*
X13148634Y-21431627D01*
X13148634Y-21431627D02*
X13139111Y-21403055D01*
X13139111Y-21403055D02*
X13129587Y-21384008D01*
X13129587Y-21384008D02*
X13110539Y-21355436D01*
X13110539Y-21355436D02*
X13101015Y-21345912D01*
X6245000Y-21653000D02*
X6245000Y-21853000D01*
X6145000Y-21753000D02*
X6345000Y-21753000D01*
X6586729Y-21644484D02*
X6710539Y-21644484D01*
X6710539Y-21644484D02*
X6643872Y-21720674D01*
X6643872Y-21720674D02*
X6672443Y-21720674D01*
X6672443Y-21720674D02*
X6691491Y-21730198D01*
X6691491Y-21730198D02*
X6701015Y-21739722D01*
X6701015Y-21739722D02*
X6710539Y-21758770D01*
X6710539Y-21758770D02*
X6710539Y-21806389D01*
X6710539Y-21806389D02*
X6701015Y-21825436D01*
X6701015Y-21825436D02*
X6691491Y-21834960D01*
X6691491Y-21834960D02*
X6672443Y-21844484D01*
X6672443Y-21844484D02*
X6615301Y-21844484D01*
X6615301Y-21844484D02*
X6596253Y-21834960D01*
X6596253Y-21834960D02*
X6586729Y-21825436D01*
X6796253Y-21825436D02*
X6805777Y-21834960D01*
X6805777Y-21834960D02*
X6796253Y-21844484D01*
X6796253Y-21844484D02*
X6786729Y-21834960D01*
X6786729Y-21834960D02*
X6796253Y-21825436D01*
X6796253Y-21825436D02*
X6796253Y-21844484D01*
X6881967Y-21663531D02*
X6891491Y-21654008D01*
X6891491Y-21654008D02*
X6910539Y-21644484D01*
X6910539Y-21644484D02*
X6958158Y-21644484D01*
X6958158Y-21644484D02*
X6977205Y-21654008D01*
X6977205Y-21654008D02*
X6986729Y-21663531D01*
X6986729Y-21663531D02*
X6996253Y-21682579D01*
X6996253Y-21682579D02*
X6996253Y-21701627D01*
X6996253Y-21701627D02*
X6986729Y-21730198D01*
X6986729Y-21730198D02*
X6872443Y-21844484D01*
X6872443Y-21844484D02*
X6996253Y-21844484D01*
X7120062Y-21644484D02*
X7139110Y-21644484D01*
X7139110Y-21644484D02*
X7158158Y-21654008D01*
X7158158Y-21654008D02*
X7167682Y-21663531D01*
X7167682Y-21663531D02*
X7177205Y-21682579D01*
X7177205Y-21682579D02*
X7186729Y-21720674D01*
X7186729Y-21720674D02*
X7186729Y-21768293D01*
X7186729Y-21768293D02*
X7177205Y-21806389D01*
X7177205Y-21806389D02*
X7167682Y-21825436D01*
X7167682Y-21825436D02*
X7158158Y-21834960D01*
X7158158Y-21834960D02*
X7139110Y-21844484D01*
X7139110Y-21844484D02*
X7120062Y-21844484D01*
X7120062Y-21844484D02*
X7101015Y-21834960D01*
X7101015Y-21834960D02*
X7091491Y-21825436D01*
X7091491Y-21825436D02*
X7081967Y-21806389D01*
X7081967Y-21806389D02*
X7072443Y-21768293D01*
X7072443Y-21768293D02*
X7072443Y-21720674D01*
X7072443Y-21720674D02*
X7081967Y-21682579D01*
X7081967Y-21682579D02*
X7091491Y-21663531D01*
X7091491Y-21663531D02*
X7101015Y-21654008D01*
X7101015Y-21654008D02*
X7120062Y-21644484D01*
X7310539Y-21644484D02*
X7329586Y-21644484D01*
X7329586Y-21644484D02*
X7348634Y-21654008D01*
X7348634Y-21654008D02*
X7358158Y-21663531D01*
X7358158Y-21663531D02*
X7367682Y-21682579D01*
X7367682Y-21682579D02*
X7377205Y-21720674D01*
X7377205Y-21720674D02*
X7377205Y-21768293D01*
X7377205Y-21768293D02*
X7367682Y-21806389D01*
X7367682Y-21806389D02*
X7358158Y-21825436D01*
X7358158Y-21825436D02*
X7348634Y-21834960D01*
X7348634Y-21834960D02*
X7329586Y-21844484D01*
X7329586Y-21844484D02*
X7310539Y-21844484D01*
X7310539Y-21844484D02*
X7291491Y-21834960D01*
X7291491Y-21834960D02*
X7281967Y-21825436D01*
X7281967Y-21825436D02*
X7272443Y-21806389D01*
X7272443Y-21806389D02*
X7262920Y-21768293D01*
X7262920Y-21768293D02*
X7262920Y-21720674D01*
X7262920Y-21720674D02*
X7272443Y-21682579D01*
X7272443Y-21682579D02*
X7281967Y-21663531D01*
X7281967Y-21663531D02*
X7291491Y-21654008D01*
X7291491Y-21654008D02*
X7310539Y-21644484D01*
X7462920Y-21844484D02*
X7462920Y-21711150D01*
X7462920Y-21730198D02*
X7472443Y-21720674D01*
X7472443Y-21720674D02*
X7491491Y-21711150D01*
X7491491Y-21711150D02*
X7520063Y-21711150D01*
X7520063Y-21711150D02*
X7539110Y-21720674D01*
X7539110Y-21720674D02*
X7548634Y-21739722D01*
X7548634Y-21739722D02*
X7548634Y-21844484D01*
X7548634Y-21739722D02*
X7558158Y-21720674D01*
X7558158Y-21720674D02*
X7577205Y-21711150D01*
X7577205Y-21711150D02*
X7605777Y-21711150D01*
X7605777Y-21711150D02*
X7624824Y-21720674D01*
X7624824Y-21720674D02*
X7634348Y-21739722D01*
X7634348Y-21739722D02*
X7634348Y-21844484D01*
X7729586Y-21844484D02*
X7729586Y-21711150D01*
X7729586Y-21730198D02*
X7739110Y-21720674D01*
X7739110Y-21720674D02*
X7758158Y-21711150D01*
X7758158Y-21711150D02*
X7786729Y-21711150D01*
X7786729Y-21711150D02*
X7805777Y-21720674D01*
X7805777Y-21720674D02*
X7815301Y-21739722D01*
X7815301Y-21739722D02*
X7815301Y-21844484D01*
X7815301Y-21739722D02*
X7824824Y-21720674D01*
X7824824Y-21720674D02*
X7843872Y-21711150D01*
X7843872Y-21711150D02*
X7872443Y-21711150D01*
X7872443Y-21711150D02*
X7891491Y-21720674D01*
X7891491Y-21720674D02*
X7901015Y-21739722D01*
X7901015Y-21739722D02*
X7901015Y-21844484D01*
X8291491Y-21634960D02*
X8120063Y-21892103D01*
X8548634Y-21644484D02*
X8567682Y-21644484D01*
X8567682Y-21644484D02*
X8586729Y-21654008D01*
X8586729Y-21654008D02*
X8596253Y-21663531D01*
X8596253Y-21663531D02*
X8605777Y-21682579D01*
X8605777Y-21682579D02*
X8615301Y-21720674D01*
X8615301Y-21720674D02*
X8615301Y-21768293D01*
X8615301Y-21768293D02*
X8605777Y-21806389D01*
X8605777Y-21806389D02*
X8596253Y-21825436D01*
X8596253Y-21825436D02*
X8586729Y-21834960D01*
X8586729Y-21834960D02*
X8567682Y-21844484D01*
X8567682Y-21844484D02*
X8548634Y-21844484D01*
X8548634Y-21844484D02*
X8529587Y-21834960D01*
X8529587Y-21834960D02*
X8520063Y-21825436D01*
X8520063Y-21825436D02*
X8510539Y-21806389D01*
X8510539Y-21806389D02*
X8501015Y-21768293D01*
X8501015Y-21768293D02*
X8501015Y-21720674D01*
X8501015Y-21720674D02*
X8510539Y-21682579D01*
X8510539Y-21682579D02*
X8520063Y-21663531D01*
X8520063Y-21663531D02*
X8529587Y-21654008D01*
X8529587Y-21654008D02*
X8548634Y-21644484D01*
X8701015Y-21825436D02*
X8710539Y-21834960D01*
X8710539Y-21834960D02*
X8701015Y-21844484D01*
X8701015Y-21844484D02*
X8691491Y-21834960D01*
X8691491Y-21834960D02*
X8701015Y-21825436D01*
X8701015Y-21825436D02*
X8701015Y-21844484D01*
X8901015Y-21844484D02*
X8786729Y-21844484D01*
X8843872Y-21844484D02*
X8843872Y-21644484D01*
X8843872Y-21644484D02*
X8824825Y-21673055D01*
X8824825Y-21673055D02*
X8805777Y-21692103D01*
X8805777Y-21692103D02*
X8786729Y-21701627D01*
X8977206Y-21663531D02*
X8986729Y-21654008D01*
X8986729Y-21654008D02*
X9005777Y-21644484D01*
X9005777Y-21644484D02*
X9053396Y-21644484D01*
X9053396Y-21644484D02*
X9072444Y-21654008D01*
X9072444Y-21654008D02*
X9081968Y-21663531D01*
X9081968Y-21663531D02*
X9091491Y-21682579D01*
X9091491Y-21682579D02*
X9091491Y-21701627D01*
X9091491Y-21701627D02*
X9081968Y-21730198D01*
X9081968Y-21730198D02*
X8967682Y-21844484D01*
X8967682Y-21844484D02*
X9091491Y-21844484D01*
X9262920Y-21644484D02*
X9224825Y-21644484D01*
X9224825Y-21644484D02*
X9205777Y-21654008D01*
X9205777Y-21654008D02*
X9196253Y-21663531D01*
X9196253Y-21663531D02*
X9177206Y-21692103D01*
X9177206Y-21692103D02*
X9167682Y-21730198D01*
X9167682Y-21730198D02*
X9167682Y-21806389D01*
X9167682Y-21806389D02*
X9177206Y-21825436D01*
X9177206Y-21825436D02*
X9186729Y-21834960D01*
X9186729Y-21834960D02*
X9205777Y-21844484D01*
X9205777Y-21844484D02*
X9243872Y-21844484D01*
X9243872Y-21844484D02*
X9262920Y-21834960D01*
X9262920Y-21834960D02*
X9272444Y-21825436D01*
X9272444Y-21825436D02*
X9281968Y-21806389D01*
X9281968Y-21806389D02*
X9281968Y-21758770D01*
X9281968Y-21758770D02*
X9272444Y-21739722D01*
X9272444Y-21739722D02*
X9262920Y-21730198D01*
X9262920Y-21730198D02*
X9243872Y-21720674D01*
X9243872Y-21720674D02*
X9205777Y-21720674D01*
X9205777Y-21720674D02*
X9186729Y-21730198D01*
X9186729Y-21730198D02*
X9177206Y-21739722D01*
X9177206Y-21739722D02*
X9167682Y-21758770D01*
X9405777Y-21644484D02*
X9424825Y-21644484D01*
X9424825Y-21644484D02*
X9443872Y-21654008D01*
X9443872Y-21654008D02*
X9453396Y-21663531D01*
X9453396Y-21663531D02*
X9462920Y-21682579D01*
X9462920Y-21682579D02*
X9472444Y-21720674D01*
X9472444Y-21720674D02*
X9472444Y-21768293D01*
X9472444Y-21768293D02*
X9462920Y-21806389D01*
X9462920Y-21806389D02*
X9453396Y-21825436D01*
X9453396Y-21825436D02*
X9443872Y-21834960D01*
X9443872Y-21834960D02*
X9424825Y-21844484D01*
X9424825Y-21844484D02*
X9405777Y-21844484D01*
X9405777Y-21844484D02*
X9386729Y-21834960D01*
X9386729Y-21834960D02*
X9377206Y-21825436D01*
X9377206Y-21825436D02*
X9367682Y-21806389D01*
X9367682Y-21806389D02*
X9358158Y-21768293D01*
X9358158Y-21768293D02*
X9358158Y-21720674D01*
X9358158Y-21720674D02*
X9367682Y-21682579D01*
X9367682Y-21682579D02*
X9377206Y-21663531D01*
X9377206Y-21663531D02*
X9386729Y-21654008D01*
X9386729Y-21654008D02*
X9405777Y-21644484D01*
X9548634Y-21644484D02*
X9548634Y-21682579D01*
X9624825Y-21644484D02*
X9624825Y-21682579D01*
X9920063Y-21920674D02*
X9910539Y-21911150D01*
X9910539Y-21911150D02*
X9891491Y-21882579D01*
X9891491Y-21882579D02*
X9881968Y-21863531D01*
X9881968Y-21863531D02*
X9872444Y-21834960D01*
X9872444Y-21834960D02*
X9862920Y-21787341D01*
X9862920Y-21787341D02*
X9862920Y-21749246D01*
X9862920Y-21749246D02*
X9872444Y-21701627D01*
X9872444Y-21701627D02*
X9881968Y-21673055D01*
X9881968Y-21673055D02*
X9891491Y-21654008D01*
X9891491Y-21654008D02*
X9910539Y-21625436D01*
X9910539Y-21625436D02*
X9920063Y-21615912D01*
X10081968Y-21711150D02*
X10081968Y-21844484D01*
X10034349Y-21634960D02*
X9986730Y-21777817D01*
X9986730Y-21777817D02*
X10110539Y-21777817D01*
X10339111Y-21844484D02*
X10339111Y-21644484D01*
X10424825Y-21844484D02*
X10424825Y-21739722D01*
X10424825Y-21739722D02*
X10415301Y-21720674D01*
X10415301Y-21720674D02*
X10396253Y-21711150D01*
X10396253Y-21711150D02*
X10367682Y-21711150D01*
X10367682Y-21711150D02*
X10348634Y-21720674D01*
X10348634Y-21720674D02*
X10339111Y-21730198D01*
X10548634Y-21844484D02*
X10529587Y-21834960D01*
X10529587Y-21834960D02*
X10520063Y-21825436D01*
X10520063Y-21825436D02*
X10510539Y-21806389D01*
X10510539Y-21806389D02*
X10510539Y-21749246D01*
X10510539Y-21749246D02*
X10520063Y-21730198D01*
X10520063Y-21730198D02*
X10529587Y-21720674D01*
X10529587Y-21720674D02*
X10548634Y-21711150D01*
X10548634Y-21711150D02*
X10577206Y-21711150D01*
X10577206Y-21711150D02*
X10596253Y-21720674D01*
X10596253Y-21720674D02*
X10605777Y-21730198D01*
X10605777Y-21730198D02*
X10615301Y-21749246D01*
X10615301Y-21749246D02*
X10615301Y-21806389D01*
X10615301Y-21806389D02*
X10605777Y-21825436D01*
X10605777Y-21825436D02*
X10596253Y-21834960D01*
X10596253Y-21834960D02*
X10577206Y-21844484D01*
X10577206Y-21844484D02*
X10548634Y-21844484D01*
X10729587Y-21844484D02*
X10710539Y-21834960D01*
X10710539Y-21834960D02*
X10701015Y-21815912D01*
X10701015Y-21815912D02*
X10701015Y-21644484D01*
X10881968Y-21834960D02*
X10862920Y-21844484D01*
X10862920Y-21844484D02*
X10824825Y-21844484D01*
X10824825Y-21844484D02*
X10805777Y-21834960D01*
X10805777Y-21834960D02*
X10796253Y-21815912D01*
X10796253Y-21815912D02*
X10796253Y-21739722D01*
X10796253Y-21739722D02*
X10805777Y-21720674D01*
X10805777Y-21720674D02*
X10824825Y-21711150D01*
X10824825Y-21711150D02*
X10862920Y-21711150D01*
X10862920Y-21711150D02*
X10881968Y-21720674D01*
X10881968Y-21720674D02*
X10891492Y-21739722D01*
X10891492Y-21739722D02*
X10891492Y-21758770D01*
X10891492Y-21758770D02*
X10796253Y-21777817D01*
X10967682Y-21834960D02*
X10986730Y-21844484D01*
X10986730Y-21844484D02*
X11024825Y-21844484D01*
X11024825Y-21844484D02*
X11043873Y-21834960D01*
X11043873Y-21834960D02*
X11053396Y-21815912D01*
X11053396Y-21815912D02*
X11053396Y-21806389D01*
X11053396Y-21806389D02*
X11043873Y-21787341D01*
X11043873Y-21787341D02*
X11024825Y-21777817D01*
X11024825Y-21777817D02*
X10996253Y-21777817D01*
X10996253Y-21777817D02*
X10977206Y-21768293D01*
X10977206Y-21768293D02*
X10967682Y-21749246D01*
X10967682Y-21749246D02*
X10967682Y-21739722D01*
X10967682Y-21739722D02*
X10977206Y-21720674D01*
X10977206Y-21720674D02*
X10996253Y-21711150D01*
X10996253Y-21711150D02*
X11024825Y-21711150D01*
X11024825Y-21711150D02*
X11043873Y-21720674D01*
X11120063Y-21920674D02*
X11129587Y-21911150D01*
X11129587Y-21911150D02*
X11148634Y-21882579D01*
X11148634Y-21882579D02*
X11158158Y-21863531D01*
X11158158Y-21863531D02*
X11167682Y-21834960D01*
X11167682Y-21834960D02*
X11177206Y-21787341D01*
X11177206Y-21787341D02*
X11177206Y-21749246D01*
X11177206Y-21749246D02*
X11167682Y-21701627D01*
X11167682Y-21701627D02*
X11158158Y-21673055D01*
X11158158Y-21673055D02*
X11148634Y-21654008D01*
X11148634Y-21654008D02*
X11129587Y-21625436D01*
X11129587Y-21625436D02*
X11120063Y-21615912D01*
X11481968Y-21920674D02*
X11472444Y-21911150D01*
X11472444Y-21911150D02*
X11453396Y-21882579D01*
X11453396Y-21882579D02*
X11443872Y-21863531D01*
X11443872Y-21863531D02*
X11434349Y-21834960D01*
X11434349Y-21834960D02*
X11424825Y-21787341D01*
X11424825Y-21787341D02*
X11424825Y-21749246D01*
X11424825Y-21749246D02*
X11434349Y-21701627D01*
X11434349Y-21701627D02*
X11443872Y-21673055D01*
X11443872Y-21673055D02*
X11453396Y-21654008D01*
X11453396Y-21654008D02*
X11472444Y-21625436D01*
X11472444Y-21625436D02*
X11481968Y-21615912D01*
X11558158Y-21711150D02*
X11558158Y-21844484D01*
X11558158Y-21730198D02*
X11567682Y-21720674D01*
X11567682Y-21720674D02*
X11586730Y-21711150D01*
X11586730Y-21711150D02*
X11615301Y-21711150D01*
X11615301Y-21711150D02*
X11634349Y-21720674D01*
X11634349Y-21720674D02*
X11643872Y-21739722D01*
X11643872Y-21739722D02*
X11643872Y-21844484D01*
X11767682Y-21844484D02*
X11748634Y-21834960D01*
X11748634Y-21834960D02*
X11739111Y-21825436D01*
X11739111Y-21825436D02*
X11729587Y-21806389D01*
X11729587Y-21806389D02*
X11729587Y-21749246D01*
X11729587Y-21749246D02*
X11739111Y-21730198D01*
X11739111Y-21730198D02*
X11748634Y-21720674D01*
X11748634Y-21720674D02*
X11767682Y-21711150D01*
X11767682Y-21711150D02*
X11796253Y-21711150D01*
X11796253Y-21711150D02*
X11815301Y-21720674D01*
X11815301Y-21720674D02*
X11824825Y-21730198D01*
X11824825Y-21730198D02*
X11834349Y-21749246D01*
X11834349Y-21749246D02*
X11834349Y-21806389D01*
X11834349Y-21806389D02*
X11824825Y-21825436D01*
X11824825Y-21825436D02*
X11815301Y-21834960D01*
X11815301Y-21834960D02*
X11796253Y-21844484D01*
X11796253Y-21844484D02*
X11767682Y-21844484D01*
X11891492Y-21711150D02*
X11967682Y-21711150D01*
X11920063Y-21644484D02*
X11920063Y-21815912D01*
X11920063Y-21815912D02*
X11929587Y-21834960D01*
X11929587Y-21834960D02*
X11948634Y-21844484D01*
X11948634Y-21844484D02*
X11967682Y-21844484D01*
X12186730Y-21711150D02*
X12186730Y-21911150D01*
X12186730Y-21720674D02*
X12205777Y-21711150D01*
X12205777Y-21711150D02*
X12243873Y-21711150D01*
X12243873Y-21711150D02*
X12262920Y-21720674D01*
X12262920Y-21720674D02*
X12272444Y-21730198D01*
X12272444Y-21730198D02*
X12281968Y-21749246D01*
X12281968Y-21749246D02*
X12281968Y-21806389D01*
X12281968Y-21806389D02*
X12272444Y-21825436D01*
X12272444Y-21825436D02*
X12262920Y-21834960D01*
X12262920Y-21834960D02*
X12243873Y-21844484D01*
X12243873Y-21844484D02*
X12205777Y-21844484D01*
X12205777Y-21844484D02*
X12186730Y-21834960D01*
X12396253Y-21844484D02*
X12377206Y-21834960D01*
X12377206Y-21834960D02*
X12367682Y-21815912D01*
X12367682Y-21815912D02*
X12367682Y-21644484D01*
X12558158Y-21844484D02*
X12558158Y-21739722D01*
X12558158Y-21739722D02*
X12548634Y-21720674D01*
X12548634Y-21720674D02*
X12529587Y-21711150D01*
X12529587Y-21711150D02*
X12491492Y-21711150D01*
X12491492Y-21711150D02*
X12472444Y-21720674D01*
X12558158Y-21834960D02*
X12539111Y-21844484D01*
X12539111Y-21844484D02*
X12491492Y-21844484D01*
X12491492Y-21844484D02*
X12472444Y-21834960D01*
X12472444Y-21834960D02*
X12462920Y-21815912D01*
X12462920Y-21815912D02*
X12462920Y-21796865D01*
X12462920Y-21796865D02*
X12472444Y-21777817D01*
X12472444Y-21777817D02*
X12491492Y-21768293D01*
X12491492Y-21768293D02*
X12539111Y-21768293D01*
X12539111Y-21768293D02*
X12558158Y-21758770D01*
X12624825Y-21711150D02*
X12701015Y-21711150D01*
X12653396Y-21644484D02*
X12653396Y-21815912D01*
X12653396Y-21815912D02*
X12662920Y-21834960D01*
X12662920Y-21834960D02*
X12681968Y-21844484D01*
X12681968Y-21844484D02*
X12701015Y-21844484D01*
X12843873Y-21834960D02*
X12824825Y-21844484D01*
X12824825Y-21844484D02*
X12786730Y-21844484D01*
X12786730Y-21844484D02*
X12767682Y-21834960D01*
X12767682Y-21834960D02*
X12758158Y-21815912D01*
X12758158Y-21815912D02*
X12758158Y-21739722D01*
X12758158Y-21739722D02*
X12767682Y-21720674D01*
X12767682Y-21720674D02*
X12786730Y-21711150D01*
X12786730Y-21711150D02*
X12824825Y-21711150D01*
X12824825Y-21711150D02*
X12843873Y-21720674D01*
X12843873Y-21720674D02*
X12853396Y-21739722D01*
X12853396Y-21739722D02*
X12853396Y-21758770D01*
X12853396Y-21758770D02*
X12758158Y-21777817D01*
X13024825Y-21844484D02*
X13024825Y-21644484D01*
X13024825Y-21834960D02*
X13005777Y-21844484D01*
X13005777Y-21844484D02*
X12967682Y-21844484D01*
X12967682Y-21844484D02*
X12948634Y-21834960D01*
X12948634Y-21834960D02*
X12939111Y-21825436D01*
X12939111Y-21825436D02*
X12929587Y-21806389D01*
X12929587Y-21806389D02*
X12929587Y-21749246D01*
X12929587Y-21749246D02*
X12939111Y-21730198D01*
X12939111Y-21730198D02*
X12948634Y-21720674D01*
X12948634Y-21720674D02*
X12967682Y-21711150D01*
X12967682Y-21711150D02*
X13005777Y-21711150D01*
X13005777Y-21711150D02*
X13024825Y-21720674D01*
X13101015Y-21920674D02*
X13110539Y-21911150D01*
X13110539Y-21911150D02*
X13129587Y-21882579D01*
X13129587Y-21882579D02*
X13139111Y-21863531D01*
X13139111Y-21863531D02*
X13148634Y-21834960D01*
X13148634Y-21834960D02*
X13158158Y-21787341D01*
X13158158Y-21787341D02*
X13158158Y-21749246D01*
X13158158Y-21749246D02*
X13148634Y-21701627D01*
X13148634Y-21701627D02*
X13139111Y-21673055D01*
X13139111Y-21673055D02*
X13129587Y-21654008D01*
X13129587Y-21654008D02*
X13110539Y-21625436D01*
X13110539Y-21625436D02*
X13101015Y-21615912D01*
M02*
