%TF.GenerationSoftware,KiCad,Pcbnew,7.0.1-3b83917a11~172~ubuntu22.04.1*%
%TF.CreationDate,2023-04-12T19:09:25+02:00*%
%TF.ProjectId,sbc,7362632e-6b69-4636-9164-5f7063625858,rev?*%
%TF.SameCoordinates,Original*%
%TF.FileFunction,Copper,L1,Top*%
%TF.FilePolarity,Positive*%
%FSLAX46Y46*%
G04 Gerber Fmt 4.6, Leading zero omitted, Abs format (unit mm)*
G04 Created by KiCad (PCBNEW 7.0.1-3b83917a11~172~ubuntu22.04.1) date 2023-04-12 19:09:25*
%MOMM*%
%LPD*%
G01*
G04 APERTURE LIST*
G04 Aperture macros list*
%AMRoundRect*
0 Rectangle with rounded corners*
0 $1 Rounding radius*
0 $2 $3 $4 $5 $6 $7 $8 $9 X,Y pos of 4 corners*
0 Add a 4 corners polygon primitive as box body*
4,1,4,$2,$3,$4,$5,$6,$7,$8,$9,$2,$3,0*
0 Add four circle primitives for the rounded corners*
1,1,$1+$1,$2,$3*
1,1,$1+$1,$4,$5*
1,1,$1+$1,$6,$7*
1,1,$1+$1,$8,$9*
0 Add four rect primitives between the rounded corners*
20,1,$1+$1,$2,$3,$4,$5,0*
20,1,$1+$1,$4,$5,$6,$7,0*
20,1,$1+$1,$6,$7,$8,$9,0*
20,1,$1+$1,$8,$9,$2,$3,0*%
G04 Aperture macros list end*
%TA.AperFunction,ComponentPad*%
%ADD10O,1.800000X2.300000*%
%TD*%
%TA.AperFunction,ComponentPad*%
%ADD11O,2.000000X2.300000*%
%TD*%
%TA.AperFunction,ComponentPad*%
%ADD12R,1.422400X1.422400*%
%TD*%
%TA.AperFunction,ComponentPad*%
%ADD13C,1.422400*%
%TD*%
%TA.AperFunction,ComponentPad*%
%ADD14R,2.000000X2.000000*%
%TD*%
%TA.AperFunction,ComponentPad*%
%ADD15C,2.000000*%
%TD*%
%TA.AperFunction,SMDPad,CuDef*%
%ADD16RoundRect,0.250000X-0.412500X-0.650000X0.412500X-0.650000X0.412500X0.650000X-0.412500X0.650000X0*%
%TD*%
%TA.AperFunction,ComponentPad*%
%ADD17C,1.400000*%
%TD*%
%TA.AperFunction,ComponentPad*%
%ADD18O,1.400000X1.400000*%
%TD*%
%TA.AperFunction,ComponentPad*%
%ADD19R,1.200000X1.200000*%
%TD*%
%TA.AperFunction,ComponentPad*%
%ADD20C,1.200000*%
%TD*%
%TA.AperFunction,ComponentPad*%
%ADD21R,1.600000X1.600000*%
%TD*%
%TA.AperFunction,ComponentPad*%
%ADD22C,1.600000*%
%TD*%
%TA.AperFunction,ComponentPad*%
%ADD23R,1.700000X1.700000*%
%TD*%
%TA.AperFunction,ComponentPad*%
%ADD24O,1.700000X1.700000*%
%TD*%
%TA.AperFunction,ComponentPad*%
%ADD25R,1.600000X2.400000*%
%TD*%
%TA.AperFunction,ComponentPad*%
%ADD26O,1.600000X2.400000*%
%TD*%
%TA.AperFunction,SMDPad,CuDef*%
%ADD27RoundRect,0.250000X0.650000X-0.412500X0.650000X0.412500X-0.650000X0.412500X-0.650000X-0.412500X0*%
%TD*%
%TA.AperFunction,ComponentPad*%
%ADD28R,2.500000X2.500000*%
%TD*%
%TA.AperFunction,ComponentPad*%
%ADD29C,2.500000*%
%TD*%
%TA.AperFunction,ComponentPad*%
%ADD30O,1.600000X1.600000*%
%TD*%
%TA.AperFunction,SMDPad,CuDef*%
%ADD31RoundRect,0.250000X0.412500X0.650000X-0.412500X0.650000X-0.412500X-0.650000X0.412500X-0.650000X0*%
%TD*%
%TA.AperFunction,SMDPad,CuDef*%
%ADD32RoundRect,0.150000X0.150000X-0.875000X0.150000X0.875000X-0.150000X0.875000X-0.150000X-0.875000X0*%
%TD*%
%TA.AperFunction,ComponentPad*%
%ADD33R,3.000000X3.000000*%
%TD*%
%TA.AperFunction,ComponentPad*%
%ADD34C,3.000000*%
%TD*%
%TA.AperFunction,SMDPad,CuDef*%
%ADD35RoundRect,0.250400X0.149600X0.749600X-0.149600X0.749600X-0.149600X-0.749600X0.149600X-0.749600X0*%
%TD*%
%TA.AperFunction,SMDPad,CuDef*%
%ADD36RoundRect,0.249900X0.100100X0.750100X-0.100100X0.750100X-0.100100X-0.750100X0.100100X-0.750100X0*%
%TD*%
%TA.AperFunction,SMDPad,CuDef*%
%ADD37RoundRect,0.250200X0.649800X0.949800X-0.649800X0.949800X-0.649800X-0.949800X0.649800X-0.949800X0*%
%TD*%
%TA.AperFunction,SMDPad,CuDef*%
%ADD38RoundRect,0.249900X0.600100X0.950100X-0.600100X0.950100X-0.600100X-0.950100X0.600100X-0.950100X0*%
%TD*%
%TA.AperFunction,ComponentPad*%
%ADD39C,4.000000*%
%TD*%
%TA.AperFunction,ComponentPad*%
%ADD40C,1.700000*%
%TD*%
%TA.AperFunction,ComponentPad*%
%ADD41C,3.500000*%
%TD*%
%TA.AperFunction,ComponentPad*%
%ADD42C,1.000000*%
%TD*%
%TA.AperFunction,SMDPad,CuDef*%
%ADD43RoundRect,0.250000X-0.650000X0.412500X-0.650000X-0.412500X0.650000X-0.412500X0.650000X0.412500X0*%
%TD*%
%TA.AperFunction,ComponentPad*%
%ADD44C,2.300000*%
%TD*%
%TA.AperFunction,ComponentPad*%
%ADD45C,2.400000*%
%TD*%
%TA.AperFunction,ComponentPad*%
%ADD46C,3.497580*%
%TD*%
%TA.AperFunction,ComponentPad*%
%ADD47R,1.050000X1.500000*%
%TD*%
%TA.AperFunction,ComponentPad*%
%ADD48O,1.050000X1.500000*%
%TD*%
%TA.AperFunction,ComponentPad*%
%ADD49C,1.500000*%
%TD*%
%TA.AperFunction,ComponentPad*%
%ADD50R,1.200000X1.700000*%
%TD*%
%TA.AperFunction,ComponentPad*%
%ADD51O,1.200000X1.700000*%
%TD*%
%TA.AperFunction,ComponentPad*%
%ADD52R,3.500000X3.500000*%
%TD*%
%TA.AperFunction,ComponentPad*%
%ADD53RoundRect,0.750000X-1.000000X0.750000X-1.000000X-0.750000X1.000000X-0.750000X1.000000X0.750000X0*%
%TD*%
%TA.AperFunction,ComponentPad*%
%ADD54RoundRect,0.875000X-0.875000X0.875000X-0.875000X-0.875000X0.875000X-0.875000X0.875000X0.875000X0*%
%TD*%
%TA.AperFunction,ViaPad*%
%ADD55C,0.889000*%
%TD*%
%TA.AperFunction,Conductor*%
%ADD56C,0.254000*%
%TD*%
G04 APERTURE END LIST*
D10*
%TO.P,J3,R*%
%TO.N,/Video_Audio/Audio_analog/AUDIO_OUT*%
X197328000Y-77477000D03*
%TO.P,J3,S*%
X192728000Y-77477000D03*
D11*
%TO.P,J3,T*%
%TO.N,GND*%
X192278000Y-69977000D03*
X197778000Y-69977000D03*
%TD*%
D12*
%TO.P,U11,1,VSS*%
%TO.N,GND*%
X151765000Y-182225000D03*
D13*
%TO.P,U11,2,PA0*%
%TO.N,Net-(U11-PA0)*%
X149225000Y-179685000D03*
%TO.P,U11,3,PA1*%
%TO.N,Net-(U11-PA1)*%
X149225000Y-182225000D03*
%TO.P,U11,4,PA2*%
%TO.N,Net-(U11-PA2)*%
X146685000Y-179685000D03*
%TO.P,U11,5,PA3*%
%TO.N,Net-(U11-PA3)*%
X146685000Y-182225000D03*
%TO.P,U11,6,PA4*%
%TO.N,Net-(U11-PA4)*%
X144145000Y-179685000D03*
%TO.P,U11,7,PA5*%
%TO.N,Net-(U11-PA5)*%
X141605000Y-182225000D03*
%TO.P,U11,8,PA6*%
%TO.N,Net-(U11-PA6)*%
X144145000Y-182225000D03*
%TO.P,U11,9,PA7*%
%TO.N,Net-(U11-PA7)*%
X141605000Y-184765000D03*
%TO.P,U11,10,PB0*%
%TO.N,/SPI_CLK*%
X144145000Y-184765000D03*
%TO.P,U11,11,nc*%
%TO.N,unconnected-(U11-nc-Pad11)*%
X141605000Y-187305000D03*
%TO.P,U11,12,PB1*%
%TO.N,/~{SPI_SS1}*%
X144145000Y-187305000D03*
%TO.P,U11,13,PB2*%
%TO.N,/~{SPI_SS2}*%
X141605000Y-189845000D03*
%TO.P,U11,14,PB3*%
%TO.N,/~{SPI_SS3}*%
X144145000Y-189845000D03*
%TO.P,U11,15,PB4*%
%TO.N,/~{SPI_SS4}*%
X141605000Y-192385000D03*
%TO.P,U11,16,PB5*%
%TO.N,unconnected-(U11-PB5-Pad16)*%
X144145000Y-192385000D03*
%TO.P,U11,17,PB6*%
%TO.N,Net-(U11-PB6)*%
X141605000Y-194925000D03*
%TO.P,U11,18,PB7*%
%TO.N,/SPI_MOSI*%
X144145000Y-197465000D03*
%TO.P,U11,19,CB1*%
%TO.N,/SPI_CLK*%
X144145000Y-194925000D03*
%TO.P,U11,20,CB2*%
%TO.N,/SPI_MISO*%
X146685000Y-197465000D03*
%TO.P,U11,21,VDD*%
%TO.N,VCC*%
X146685000Y-194925000D03*
%TO.P,U11,22,nc*%
%TO.N,unconnected-(U11-nc-Pad22)*%
X149225000Y-197465000D03*
%TO.P,U11,23,~{IRQ}*%
%TO.N,Net-(D1-K)*%
X149225000Y-194925000D03*
%TO.P,U11,24,R/~{W}*%
%TO.N,/CPU_R~{W}*%
X151765000Y-197465000D03*
%TO.P,U11,25,~{CS2}*%
%TO.N,/~{CS_VIA}*%
X151765000Y-194925000D03*
%TO.P,U11,26,CS1*%
%TO.N,VCC*%
X154305000Y-197465000D03*
%TO.P,U11,27,\u03D52*%
%TO.N,/PHI2*%
X154305000Y-194925000D03*
%TO.P,U11,28,D7*%
%TO.N,/CPU_D7*%
X156845000Y-197465000D03*
%TO.P,U11,29,D6*%
%TO.N,/CPU_D6*%
X159385000Y-194925000D03*
%TO.P,U11,30,D5*%
%TO.N,/CPU_D5*%
X156845000Y-194925000D03*
%TO.P,U11,31,D4*%
%TO.N,/CPU_D4*%
X159385000Y-192385000D03*
%TO.P,U11,32,D3*%
%TO.N,/CPU_D3*%
X156845000Y-192385000D03*
%TO.P,U11,33,nc*%
%TO.N,unconnected-(U11-nc-Pad33)*%
X159385000Y-189845000D03*
%TO.P,U11,34,D2*%
%TO.N,/CPU_D2*%
X156845000Y-189845000D03*
%TO.P,U11,35,D1*%
%TO.N,/CPU_D1*%
X159385000Y-187305000D03*
%TO.P,U11,36,D0*%
%TO.N,/CPU_D0*%
X156845000Y-187305000D03*
%TO.P,U11,37,~{RES}*%
%TO.N,/~{RESET}*%
X159385000Y-184765000D03*
%TO.P,U11,38,nc*%
%TO.N,unconnected-(U11-nc-Pad38)*%
X156845000Y-184765000D03*
%TO.P,U11,39,RS3*%
%TO.N,/CPU_A3*%
X159385000Y-182225000D03*
%TO.P,U11,40,RS2*%
%TO.N,/CPU_A2*%
X156845000Y-179685000D03*
%TO.P,U11,41,RS1*%
%TO.N,/CPU_A1*%
X156845000Y-182225000D03*
%TO.P,U11,42,RS0*%
%TO.N,/CPU_A0*%
X154305000Y-179685000D03*
%TO.P,U11,43,CA2*%
%TO.N,Net-(U11-CA2)*%
X154305000Y-182225000D03*
%TO.P,U11,44,CA1*%
%TO.N,Net-(U11-CA1)*%
X151765000Y-179685000D03*
%TD*%
D14*
%TO.P,C3,1*%
%TO.N,VCC*%
X163240323Y-154178000D03*
D15*
%TO.P,C3,2*%
%TO.N,GND*%
X168240323Y-154178000D03*
%TD*%
D16*
%TO.P,C9,1*%
%TO.N,VCC*%
X237236000Y-177292000D03*
%TO.P,C9,2*%
%TO.N,GND*%
X240361000Y-177292000D03*
%TD*%
D17*
%TO.P,R30,1*%
%TO.N,GND*%
X204470000Y-106680000D03*
D18*
%TO.P,R30,2*%
%TO.N,/Video_Audio/RGB_B*%
X209550000Y-106680000D03*
%TD*%
D17*
%TO.P,R10,1*%
%TO.N,/PA6*%
X81915000Y-170180000D03*
D18*
%TO.P,R10,2*%
%TO.N,Net-(U11-PA6)*%
X86995000Y-170180000D03*
%TD*%
D17*
%TO.P,R6,1*%
%TO.N,/PA2*%
X81915000Y-177800000D03*
D18*
%TO.P,R6,2*%
%TO.N,Net-(U11-PA2)*%
X86995000Y-177800000D03*
%TD*%
D19*
%TO.P,C38,1*%
%TO.N,VCC*%
X205740000Y-129540000D03*
D20*
%TO.P,C38,2*%
%TO.N,GND*%
X207740000Y-129540000D03*
%TD*%
D21*
%TO.P,C46,1*%
%TO.N,VCC*%
X241300000Y-111760000D03*
D22*
%TO.P,C46,2*%
%TO.N,GND*%
X241300000Y-109260000D03*
%TD*%
D23*
%TO.P,JTAG1,1,Pin_1*%
%TO.N,/TMS*%
X281559000Y-160401000D03*
D24*
%TO.P,JTAG1,2,Pin_2*%
%TO.N,/TDI*%
X279019000Y-160401000D03*
%TO.P,JTAG1,3,Pin_3*%
%TO.N,/TDO*%
X276479000Y-160401000D03*
%TO.P,JTAG1,4,Pin_4*%
%TO.N,/TCK*%
X273939000Y-160401000D03*
%TO.P,JTAG1,5,Pin_5*%
%TO.N,GND*%
X271399000Y-160401000D03*
%TO.P,JTAG1,6,Pin_6*%
%TO.N,VCC*%
X268859000Y-160401000D03*
%TD*%
D17*
%TO.P,R27,1*%
%TO.N,GND*%
X207010000Y-99695000D03*
D18*
%TO.P,R27,2*%
%TO.N,Net-(C43-Pad1)*%
X207010000Y-94615000D03*
%TD*%
D25*
%TO.P,U12,1,A->B*%
%TO.N,GND*%
X161925000Y-163815000D03*
D26*
%TO.P,U12,2,A0*%
%TO.N,/~{BUF_OE}*%
X159385000Y-163815000D03*
%TO.P,U12,3,A1*%
%TO.N,/~{BUF_WE}*%
X156845000Y-163815000D03*
%TO.P,U12,4,A2*%
%TO.N,/BUF_R~{W}*%
X154305000Y-163815000D03*
%TO.P,U12,5,A3*%
%TO.N,/BUF_PHI2*%
X151765000Y-163815000D03*
%TO.P,U12,6,A4*%
%TO.N,/BUF_A0*%
X149225000Y-163815000D03*
%TO.P,U12,7,A5*%
%TO.N,/BUF_A1*%
X146685000Y-163815000D03*
%TO.P,U12,8,A6*%
%TO.N,/BUF_A2*%
X144145000Y-163815000D03*
%TO.P,U12,9,A7*%
%TO.N,/BUF_A3*%
X141605000Y-163815000D03*
%TO.P,U12,10,GND*%
%TO.N,GND*%
X139065000Y-163815000D03*
%TO.P,U12,11,B7*%
%TO.N,/CPU_A3*%
X139065000Y-171435000D03*
%TO.P,U12,12,B6*%
%TO.N,/CPU_A2*%
X141605000Y-171435000D03*
%TO.P,U12,13,B5*%
%TO.N,/CPU_A1*%
X144145000Y-171435000D03*
%TO.P,U12,14,B4*%
%TO.N,/CPU_A0*%
X146685000Y-171435000D03*
%TO.P,U12,15,B3*%
%TO.N,/PHI2*%
X149225000Y-171435000D03*
%TO.P,U12,16,B2*%
%TO.N,/CPU_R~{W}*%
X151765000Y-171435000D03*
%TO.P,U12,17,B1*%
%TO.N,/~{WE}*%
X154305000Y-171435000D03*
%TO.P,U12,18,B0*%
%TO.N,/~{OE}*%
X156845000Y-171435000D03*
%TO.P,U12,19,CE*%
%TO.N,GND*%
X159385000Y-171435000D03*
%TO.P,U12,20,VCC*%
%TO.N,VCC*%
X161925000Y-171435000D03*
%TD*%
D25*
%TO.P,U7,1,EN*%
%TO.N,Net-(U29-OEb)*%
X107950000Y-136144000D03*
D26*
%TO.P,U7,2,D*%
%TO.N,Net-(RR1-R5)*%
X105410000Y-136144000D03*
%TO.P,U7,3,O*%
%TO.N,/PA4*%
X102870000Y-136144000D03*
%TO.P,U7,4,EN*%
%TO.N,Net-(U29-OEa)*%
X100330000Y-136144000D03*
%TO.P,U7,5,D*%
%TO.N,Net-(U7B-D)*%
X97790000Y-136144000D03*
%TO.P,U7,6,O*%
%TO.N,/PA4*%
X95250000Y-136144000D03*
%TO.P,U7,7,GND*%
%TO.N,GND*%
X92710000Y-136144000D03*
%TO.P,U7,8,O*%
%TO.N,/SPI_MISO*%
X92710000Y-143764000D03*
%TO.P,U7,9,D*%
%TO.N,/SD Card/DAT0*%
X95250000Y-143764000D03*
%TO.P,U7,10,EN*%
%TO.N,/~{SPI_SS1}*%
X97790000Y-143764000D03*
%TO.P,U7,11,O*%
%TO.N,unconnected-(U7D-O-Pad11)*%
X100330000Y-143764000D03*
%TO.P,U7,12,D*%
%TO.N,unconnected-(U7D-D-Pad12)*%
X102870000Y-143764000D03*
%TO.P,U7,13,EN*%
%TO.N,unconnected-(U7D-EN-Pad13)*%
X105410000Y-143764000D03*
%TO.P,U7,14,VCC*%
%TO.N,VCC*%
X107950000Y-143764000D03*
%TD*%
D27*
%TO.P,C33,1*%
%TO.N,VCC*%
X133985000Y-171400000D03*
%TO.P,C33,2*%
%TO.N,GND*%
X133985000Y-168275000D03*
%TD*%
D17*
%TO.P,R40,1*%
%TO.N,Net-(C56-Pad1)*%
X231140000Y-93980000D03*
D18*
%TO.P,R40,2*%
%TO.N,GND*%
X231140000Y-99060000D03*
%TD*%
D25*
%TO.P,U26,1*%
%TO.N,Net-(U26A--)*%
X200660000Y-91440000D03*
D26*
%TO.P,U26,2,-*%
X198120000Y-91440000D03*
%TO.P,U26,3,+*%
%TO.N,Net-(U25-ToBUFF)*%
X195580000Y-91440000D03*
%TO.P,U26,4,V+*%
%TO.N,VCC*%
X193040000Y-91440000D03*
%TO.P,U26,5,+*%
%TO.N,Net-(U25-RB)*%
X190500000Y-91440000D03*
%TO.P,U26,6,-*%
%TO.N,Net-(U25-MP)*%
X187960000Y-91440000D03*
%TO.P,U26,7*%
X185420000Y-91440000D03*
%TO.P,U26,8*%
%TO.N,Net-(U26C--)*%
X185420000Y-99060000D03*
%TO.P,U26,9,-*%
X187960000Y-99060000D03*
%TO.P,U26,10,+*%
%TO.N,Net-(U26C-+)*%
X190500000Y-99060000D03*
%TO.P,U26,11,V-*%
%TO.N,GND*%
X193040000Y-99060000D03*
%TO.P,U26,12,+*%
%TO.N,Net-(U26C--)*%
X195580000Y-99060000D03*
%TO.P,U26,13,-*%
%TO.N,Net-(U26D--)*%
X198120000Y-99060000D03*
%TO.P,U26,14*%
%TO.N,Net-(C43-Pad1)*%
X200660000Y-99060000D03*
%TD*%
D23*
%TO.P,JP2,1,A*%
%TO.N,/CPU_RDY*%
X261620000Y-160020000D03*
D24*
%TO.P,JP2,2,B*%
%TO.N,Net-(JP2-B)*%
X259080000Y-160020000D03*
%TD*%
D27*
%TO.P,C54,1*%
%TO.N,VCC*%
X236855000Y-105702500D03*
%TO.P,C54,2*%
%TO.N,GND*%
X236855000Y-102577500D03*
%TD*%
D17*
%TO.P,R7,1*%
%TO.N,/PA3*%
X81915000Y-185420000D03*
D18*
%TO.P,R7,2*%
%TO.N,Net-(U11-PA3)*%
X86995000Y-185420000D03*
%TD*%
D28*
%TO.P,X3,1,NC*%
%TO.N,unconnected-(X3-NC-Pad1)*%
X213995000Y-128905000D03*
D29*
%TO.P,X3,7,GND*%
%TO.N,GND*%
X229235000Y-128905000D03*
%TO.P,X3,8,FREQ*%
%TO.N,Net-(X3-FREQ)*%
X229235000Y-121285000D03*
%TO.P,X3,14,+5V*%
%TO.N,VCC*%
X213995000Y-121285000D03*
%TD*%
D17*
%TO.P,R31,1*%
%TO.N,Net-(X3-FREQ)*%
X225425000Y-116205000D03*
D18*
%TO.P,R31,2*%
%TO.N,Net-(U27-SCIN)*%
X220345000Y-116205000D03*
%TD*%
D21*
%TO.P,RR1,1,common*%
%TO.N,VCC*%
X81280000Y-99060000D03*
D30*
%TO.P,RR1,2,R1*%
%TO.N,Net-(RR1-R1)*%
X81280000Y-101600000D03*
%TO.P,RR1,3,R2*%
%TO.N,Net-(RR1-R2)*%
X81280000Y-104140000D03*
%TO.P,RR1,4,R3*%
%TO.N,Net-(RR1-R3)*%
X81280000Y-106680000D03*
%TO.P,RR1,5,R4*%
%TO.N,Net-(RR1-R4)*%
X81280000Y-109220000D03*
%TO.P,RR1,6,R5*%
%TO.N,Net-(RR1-R5)*%
X81280000Y-111760000D03*
%TO.P,RR1,7,R6*%
%TO.N,Net-(RR1-R6)*%
X81280000Y-114300000D03*
%TO.P,RR1,8,R7*%
%TO.N,Net-(RR1-R7)*%
X81280000Y-116840000D03*
%TO.P,RR1,9,R8*%
%TO.N,Net-(RR1-R8)*%
X81280000Y-119380000D03*
%TD*%
D22*
%TO.P,C32,1*%
%TO.N,Net-(U18-XTAL1)*%
X225425000Y-156210000D03*
%TO.P,C32,2*%
%TO.N,GND*%
X225425000Y-158710000D03*
%TD*%
D16*
%TO.P,C45,1*%
%TO.N,/Video_Audio/RGB_G*%
X213920000Y-112294000D03*
%TO.P,C45,2*%
%TO.N,Net-(U27-GIN)*%
X217045000Y-112294000D03*
%TD*%
D21*
%TO.P,C56,1*%
%TO.N,Net-(C56-Pad1)*%
X233680000Y-89535000D03*
D22*
%TO.P,C56,2*%
%TO.N,Net-(C56-Pad2)*%
X233680000Y-87035000D03*
%TD*%
D17*
%TO.P,R26,1*%
%TO.N,Net-(U26D--)*%
X204470000Y-94615000D03*
D18*
%TO.P,R26,2*%
%TO.N,Net-(C43-Pad1)*%
X204470000Y-99695000D03*
%TD*%
D27*
%TO.P,C29,1*%
%TO.N,VCC*%
X238210000Y-130683000D03*
%TO.P,C29,2*%
%TO.N,GND*%
X238210000Y-127558000D03*
%TD*%
D31*
%TO.P,C24,1*%
%TO.N,Net-(U15-VSS)*%
X91732500Y-96774000D03*
%TO.P,C24,2*%
%TO.N,GND*%
X88607500Y-96774000D03*
%TD*%
D27*
%TO.P,C59,1*%
%TO.N,VCC*%
X111125000Y-130506000D03*
%TO.P,C59,2*%
%TO.N,GND*%
X111125000Y-127381000D03*
%TD*%
D25*
%TO.P,U28,1*%
%TO.N,/PA7*%
X107701000Y-163815000D03*
D26*
%TO.P,U28,2*%
X105161000Y-163815000D03*
%TO.P,U28,3*%
%TO.N,Net-(U28-Pad10)*%
X102621000Y-163815000D03*
%TO.P,U28,4*%
%TO.N,/PA7*%
X100081000Y-163815000D03*
%TO.P,U28,5*%
%TO.N,/~{JOYPORT_ENABLE}*%
X97541000Y-163815000D03*
%TO.P,U28,6*%
%TO.N,Net-(U29-OEb)*%
X95001000Y-163815000D03*
%TO.P,U28,7,GND*%
%TO.N,GND*%
X92461000Y-163815000D03*
%TO.P,U28,8*%
%TO.N,Net-(U29-OEa)*%
X92461000Y-171435000D03*
%TO.P,U28,9*%
%TO.N,/~{JOYPORT_ENABLE}*%
X95001000Y-171435000D03*
%TO.P,U28,10*%
%TO.N,Net-(U28-Pad10)*%
X97541000Y-171435000D03*
%TO.P,U28,11*%
%TO.N,Net-(U30-CE)*%
X100081000Y-171435000D03*
%TO.P,U28,12*%
%TO.N,/~{SPI_SS1}*%
X102621000Y-171435000D03*
%TO.P,U28,13*%
X105161000Y-171435000D03*
%TO.P,U28,14,VCC*%
%TO.N,VCC*%
X107701000Y-171435000D03*
%TD*%
D17*
%TO.P,R17,1*%
%TO.N,Net-(U15-VSS)*%
X113030000Y-90805000D03*
D18*
%TO.P,R17,2*%
%TO.N,/SD Card/CLK*%
X107950000Y-90805000D03*
%TD*%
D32*
%TO.P,U27,1,GND1*%
%TO.N,GND*%
X220345000Y-112395000D03*
%TO.P,U27,2,RIN*%
%TO.N,Net-(U27-RIN)*%
X221615000Y-112395000D03*
%TO.P,U27,3,GIN*%
%TO.N,Net-(U27-GIN)*%
X222885000Y-112395000D03*
%TO.P,U27,4,BIN*%
%TO.N,Net-(U27-BIN)*%
X224155000Y-112395000D03*
%TO.P,U27,5*%
%TO.N,N/C*%
X225425000Y-112395000D03*
%TO.P,U27,6,SCIN*%
%TO.N,Net-(U27-SCIN)*%
X226695000Y-112395000D03*
%TO.P,U27,7,NPIN*%
%TO.N,GND*%
X227965000Y-112395000D03*
%TO.P,U27,8,BFOUT*%
%TO.N,unconnected-(U27-BFOUT-Pad8)*%
X229235000Y-112395000D03*
%TO.P,U27,9*%
%TO.N,N/C*%
X230505000Y-112395000D03*
%TO.P,U27,10,SYNCIN*%
%TO.N,Net-(U27-SYNCIN)*%
X231775000Y-112395000D03*
%TO.P,U27,11*%
%TO.N,N/C*%
X233045000Y-112395000D03*
%TO.P,U27,12,VCC1*%
%TO.N,VCC*%
X234315000Y-112395000D03*
%TO.P,U27,13*%
%TO.N,N/C*%
X234315000Y-103095000D03*
%TO.P,U27,14*%
X233045000Y-103095000D03*
%TO.P,U27,15,COUT*%
%TO.N,Net-(U27-COUT)*%
X231775000Y-103095000D03*
%TO.P,U27,16,YOUT*%
%TO.N,Net-(U27-YOUT)*%
X230505000Y-103095000D03*
%TO.P,U27,17,YTRAP*%
%TO.N,Net-(U27-YTRAP)*%
X229235000Y-103095000D03*
%TO.P,U27,18*%
%TO.N,N/C*%
X227965000Y-103095000D03*
%TO.P,U27,19,VCC2*%
%TO.N,VCC*%
X226695000Y-103095000D03*
%TO.P,U27,20,CVOUT*%
%TO.N,Net-(U27-CVOUT)*%
X225425000Y-103095000D03*
%TO.P,U27,21,BOUT*%
%TO.N,Net-(U27-BOUT)*%
X224155000Y-103095000D03*
%TO.P,U27,22,GOUT*%
%TO.N,Net-(U27-GOUT)*%
X222885000Y-103095000D03*
%TO.P,U27,23,ROUT*%
%TO.N,Net-(U27-ROUT)*%
X221615000Y-103095000D03*
%TO.P,U27,24,GND2*%
%TO.N,GND*%
X220345000Y-103095000D03*
%TD*%
D19*
%TO.P,C17,1*%
%TO.N,VCC*%
X164675600Y-103124000D03*
D20*
%TO.P,C17,2*%
%TO.N,GND*%
X162675600Y-103124000D03*
%TD*%
D21*
%TO.P,C51,1*%
%TO.N,Net-(C51-Pad1)*%
X235204000Y-81446380D03*
D22*
%TO.P,C51,2*%
%TO.N,/Video_Audio/Video_analog/Y_OUT*%
X235204000Y-78946380D03*
%TD*%
D21*
%TO.P,C50,1*%
%TO.N,Net-(C50-Pad1)*%
X218440000Y-89535000D03*
D22*
%TO.P,C50,2*%
%TO.N,Net-(C50-Pad2)*%
X218440000Y-87035000D03*
%TD*%
D17*
%TO.P,R25,1*%
%TO.N,Net-(U25-MP)*%
X204470000Y-86995000D03*
D18*
%TO.P,R25,2*%
%TO.N,Net-(U26D--)*%
X204470000Y-92075000D03*
%TD*%
D21*
%TO.P,C43,1*%
%TO.N,Net-(C43-Pad1)*%
X210185000Y-90170000D03*
D22*
%TO.P,C43,2*%
%TO.N,/Video_Audio/Audio_analog/AUDIO_OUT*%
X212685000Y-90170000D03*
%TD*%
D27*
%TO.P,C12,1*%
%TO.N,VCC*%
X265515000Y-142290000D03*
%TO.P,C12,2*%
%TO.N,GND*%
X265515000Y-139165000D03*
%TD*%
D21*
%TO.P,D1,1,K*%
%TO.N,Net-(D1-K)*%
X154051000Y-202565000D03*
D30*
%TO.P,D1,2,A*%
%TO.N,/~{IRQ}*%
X161671000Y-202565000D03*
%TD*%
D25*
%TO.P,U21,1,OE*%
%TO.N,GND*%
X261620000Y-130810000D03*
D26*
%TO.P,U21,2,DQ0*%
%TO.N,/Video_Audio/VDP_RD0*%
X259080000Y-130810000D03*
%TO.P,U21,3,DQ1*%
%TO.N,/Video_Audio/VDP_RD1*%
X256540000Y-130810000D03*
%TO.P,U21,4,WE*%
%TO.N,/Video_Audio/VDP_R~{W}*%
X254000000Y-130810000D03*
%TO.P,U21,5,RAS*%
%TO.N,/Video_Audio/{slash}RAS*%
X251460000Y-130810000D03*
%TO.P,U21,6,A6*%
%TO.N,/Video_Audio/VDP_AD6*%
X248920000Y-130810000D03*
%TO.P,U21,7,A5*%
%TO.N,/Video_Audio/VDP_AD5*%
X246380000Y-130810000D03*
%TO.P,U21,8,A4*%
%TO.N,/Video_Audio/VDP_AD4*%
X243840000Y-130810000D03*
%TO.P,U21,9,VCC*%
%TO.N,VCC*%
X241300000Y-130810000D03*
%TO.P,U21,10,A7*%
%TO.N,/Video_Audio/VDP_AD7*%
X241300000Y-138430000D03*
%TO.P,U21,11,A3*%
%TO.N,/Video_Audio/VDP_AD3*%
X243840000Y-138430000D03*
%TO.P,U21,12,A2*%
%TO.N,/Video_Audio/VDP_AD2*%
X246380000Y-138430000D03*
%TO.P,U21,13,A1*%
%TO.N,/Video_Audio/VDP_AD1*%
X248920000Y-138430000D03*
%TO.P,U21,14,A0*%
%TO.N,/Video_Audio/VDP_AD0*%
X251460000Y-138430000D03*
%TO.P,U21,15,DQ2*%
%TO.N,/Video_Audio/VDP_RD2*%
X254000000Y-138430000D03*
%TO.P,U21,16,CAS*%
%TO.N,/Video_Audio/{slash}CAS1*%
X256540000Y-138430000D03*
%TO.P,U21,17,DQ3*%
%TO.N,/Video_Audio/VDP_RD3*%
X259080000Y-138430000D03*
%TO.P,U21,18,VSS*%
%TO.N,GND*%
X261620000Y-138430000D03*
%TD*%
D25*
%TO.P,U19,1,OE*%
%TO.N,GND*%
X261610000Y-142250000D03*
D26*
%TO.P,U19,2,DQ0*%
%TO.N,/Video_Audio/VDP_RD0*%
X259070000Y-142250000D03*
%TO.P,U19,3,DQ1*%
%TO.N,/Video_Audio/VDP_RD1*%
X256530000Y-142250000D03*
%TO.P,U19,4,WE*%
%TO.N,/Video_Audio/VDP_R~{W}*%
X253990000Y-142250000D03*
%TO.P,U19,5,RAS*%
%TO.N,/Video_Audio/{slash}RAS*%
X251450000Y-142250000D03*
%TO.P,U19,6,A6*%
%TO.N,/Video_Audio/VDP_AD6*%
X248910000Y-142250000D03*
%TO.P,U19,7,A5*%
%TO.N,/Video_Audio/VDP_AD5*%
X246370000Y-142250000D03*
%TO.P,U19,8,A4*%
%TO.N,/Video_Audio/VDP_AD4*%
X243830000Y-142250000D03*
%TO.P,U19,9,VCC*%
%TO.N,VCC*%
X241290000Y-142250000D03*
%TO.P,U19,10,A7*%
%TO.N,/Video_Audio/VDP_AD7*%
X241290000Y-149870000D03*
%TO.P,U19,11,A3*%
%TO.N,/Video_Audio/VDP_AD3*%
X243830000Y-149870000D03*
%TO.P,U19,12,A2*%
%TO.N,/Video_Audio/VDP_AD2*%
X246370000Y-149870000D03*
%TO.P,U19,13,A1*%
%TO.N,/Video_Audio/VDP_AD1*%
X248910000Y-149870000D03*
%TO.P,U19,14,A0*%
%TO.N,/Video_Audio/VDP_AD0*%
X251450000Y-149870000D03*
%TO.P,U19,15,DQ2*%
%TO.N,/Video_Audio/VDP_RD2*%
X253990000Y-149870000D03*
%TO.P,U19,16,CAS*%
%TO.N,/Video_Audio/{slash}CAS0*%
X256530000Y-149870000D03*
%TO.P,U19,17,DQ3*%
%TO.N,/Video_Audio/VDP_RD3*%
X259070000Y-149870000D03*
%TO.P,U19,18,VSS*%
%TO.N,GND*%
X261610000Y-149870000D03*
%TD*%
D16*
%TO.P,C47,1*%
%TO.N,/Video_Audio/RGB_R*%
X213920000Y-109119000D03*
%TO.P,C47,2*%
%TO.N,Net-(U27-RIN)*%
X217045000Y-109119000D03*
%TD*%
D25*
%TO.P,U25,1,VCC*%
%TO.N,VCC*%
X179705000Y-91440000D03*
D26*
%TO.P,U25,2,ToBUFF*%
%TO.N,Net-(U25-ToBUFF)*%
X177165000Y-91440000D03*
%TO.P,U25,3,LOAD*%
%TO.N,/Video_Audio/Audio_analog/LOAD*%
X174625000Y-91440000D03*
%TO.P,U25,4,SD*%
%TO.N,/Video_Audio/Audio_analog/SD*%
X172085000Y-91440000D03*
%TO.P,U25,5,fI*%
%TO.N,/Video_Audio/Audio_analog/fl*%
X172085000Y-99060000D03*
%TO.P,U25,6,GND*%
%TO.N,GND*%
X174625000Y-99060000D03*
%TO.P,U25,7,RB*%
%TO.N,Net-(U25-RB)*%
X177165000Y-99060000D03*
%TO.P,U25,8,MP*%
%TO.N,Net-(U25-MP)*%
X179705000Y-99060000D03*
%TD*%
D22*
%TO.P,C35,1*%
%TO.N,Net-(U18-XTAL2)*%
X240665000Y-156230000D03*
%TO.P,C35,2*%
%TO.N,GND*%
X240665000Y-158730000D03*
%TD*%
D31*
%TO.P,C60,1*%
%TO.N,VCC*%
X200737000Y-108458000D03*
%TO.P,C60,2*%
%TO.N,GND*%
X197612000Y-108458000D03*
%TD*%
D17*
%TO.P,R36,1*%
%TO.N,Net-(U27-CVOUT)*%
X226060000Y-99060000D03*
D18*
%TO.P,R36,2*%
%TO.N,Net-(C56-Pad1)*%
X226060000Y-93980000D03*
%TD*%
D25*
%TO.P,U16,1,VCC*%
%TO.N,VCC*%
X200660000Y-111760000D03*
D26*
%TO.P,U16,2,~{IRQ}*%
%TO.N,/~{IRQ}*%
X198120000Y-111760000D03*
%TO.P,U16,3,~{IC}*%
%TO.N,/~{RESET}*%
X195580000Y-111760000D03*
%TO.P,U16,4,A0*%
%TO.N,/BUF_A0*%
X193040000Y-111760000D03*
%TO.P,U16,5,~{WR}*%
%TO.N,/~{W}*%
X190500000Y-111760000D03*
%TO.P,U16,6,~{RD}*%
%TO.N,/~{R}*%
X187960000Y-111760000D03*
%TO.P,U16,7,~{CS}*%
%TO.N,/~{CS_OPL}*%
X185420000Y-111760000D03*
%TO.P,U16,8*%
%TO.N,N/C*%
X182880000Y-111760000D03*
%TO.P,U16,9*%
X180340000Y-111760000D03*
%TO.P,U16,10,D0*%
%TO.N,/BUF_D0*%
X177800000Y-111760000D03*
%TO.P,U16,11,D1*%
%TO.N,/BUF_D1*%
X175260000Y-111760000D03*
%TO.P,U16,12,GND*%
%TO.N,GND*%
X172720000Y-111760000D03*
%TO.P,U16,13,D2*%
%TO.N,/BUF_D2*%
X172720000Y-127000000D03*
%TO.P,U16,14,D3*%
%TO.N,/BUF_D3*%
X175260000Y-127000000D03*
%TO.P,U16,15,D4*%
%TO.N,/BUF_D4*%
X177800000Y-127000000D03*
%TO.P,U16,16,D5*%
%TO.N,/BUF_D5*%
X180340000Y-127000000D03*
%TO.P,U16,17,D6*%
%TO.N,/BUF_D6*%
X182880000Y-127000000D03*
%TO.P,U16,18,D7*%
%TO.N,/BUF_D7*%
X185420000Y-127000000D03*
%TO.P,U16,19*%
%TO.N,N/C*%
X187960000Y-127000000D03*
%TO.P,U16,20,SH*%
%TO.N,/Video_Audio/Audio_analog/LOAD*%
X190500000Y-127000000D03*
%TO.P,U16,21,MO*%
%TO.N,/Video_Audio/Audio_analog/SD*%
X193040000Y-127000000D03*
%TO.P,U16,22*%
%TO.N,N/C*%
X195580000Y-127000000D03*
%TO.P,U16,23,fSY*%
%TO.N,/Video_Audio/Audio_analog/fl*%
X198120000Y-127000000D03*
%TO.P,U16,24,fM*%
%TO.N,/Video_Audio/OPL_CLK*%
X200660000Y-127000000D03*
%TD*%
D17*
%TO.P,R34,1*%
%TO.N,Net-(U27-GOUT)*%
X220980000Y-99060000D03*
D18*
%TO.P,R34,2*%
%TO.N,Net-(C53-Pad1)*%
X220980000Y-93980000D03*
%TD*%
D33*
%TO.P,BT1,1,+*%
%TO.N,Net-(BT1-+)*%
X113850001Y-109220001D03*
D34*
%TO.P,BT1,2,-*%
%TO.N,GND*%
X93360001Y-109220001D03*
%TD*%
D35*
%TO.P,U15,1,DAT2*%
%TO.N,/SD Card/DAT2*%
X85210000Y-93980000D03*
%TO.P,U15,2,DAT3/CD*%
%TO.N,/SD Card/DAT3*%
X87710000Y-93980000D03*
%TO.P,U15,3,CMD*%
%TO.N,/SD Card/CMD*%
X91010000Y-93980000D03*
%TO.P,U15,4,VDD*%
%TO.N,GND*%
X92710000Y-93980000D03*
%TO.P,U15,5,CLK*%
%TO.N,/SD Card/CLK*%
X95210000Y-93980000D03*
%TO.P,U15,6,VSS*%
%TO.N,Net-(U15-VSS)*%
X97710000Y-93980000D03*
%TO.P,U15,7,DAT0*%
%TO.N,/SD Card/DAT0*%
X100140000Y-93980000D03*
%TO.P,U15,8,DAT1*%
%TO.N,/SD Card/DAT1*%
X101840000Y-93980000D03*
%TO.P,U15,9,DET*%
%TO.N,/~{SD_CARD_DETECT}*%
X82710000Y-93980000D03*
%TO.P,U15,10,SHIELD*%
%TO.N,GND*%
X89410000Y-93980000D03*
D36*
%TO.P,U15,11*%
%TO.N,N/C*%
X105330000Y-93980000D03*
D37*
%TO.P,U15,12*%
X77990000Y-72780000D03*
D38*
%TO.P,U15,13*%
X105340000Y-71580000D03*
%TD*%
D17*
%TO.P,R39,1*%
%TO.N,Net-(U27-COUT)*%
X236220000Y-99060000D03*
D18*
%TO.P,R39,2*%
%TO.N,Net-(C49-Pad1)*%
X236220000Y-93980000D03*
%TD*%
D25*
%TO.P,U10,1,GND*%
%TO.N,GND*%
X115580000Y-199898000D03*
D26*
%TO.P,U10,2,TR*%
%TO.N,/RESET_TRIG*%
X118120000Y-199898000D03*
%TO.P,U10,3,Q*%
%TO.N,Net-(U10-Q)*%
X120660000Y-199898000D03*
%TO.P,U10,4,R*%
%TO.N,VCC*%
X123200000Y-199898000D03*
%TO.P,U10,5,CV*%
%TO.N,Net-(U10-CV)*%
X123200000Y-192278000D03*
%TO.P,U10,6,THR*%
%TO.N,Net-(U10-DIS)*%
X120660000Y-192278000D03*
%TO.P,U10,7,DIS*%
X118120000Y-192278000D03*
%TO.P,U10,8,VCC*%
%TO.N,VCC*%
X115580000Y-192278000D03*
%TD*%
D28*
%TO.P,X1,1,NC*%
%TO.N,unconnected-(X1-NC-Pad1)*%
X287020000Y-175260000D03*
D29*
%TO.P,X1,7,GND*%
%TO.N,GND*%
X287020000Y-190500000D03*
%TO.P,X1,8,FREQ*%
%TO.N,/CLKIN*%
X294640000Y-190500000D03*
%TO.P,X1,14,+5V*%
%TO.N,VCC*%
X294640000Y-175260000D03*
%TD*%
D21*
%TO.P,C53,1*%
%TO.N,Net-(C53-Pad1)*%
X227584000Y-81240000D03*
D22*
%TO.P,C53,2*%
%TO.N,/Video_Audio/Video_analog/G_OUT*%
X227584000Y-78740000D03*
%TD*%
D31*
%TO.P,C61,1*%
%TO.N,VCC*%
X179655000Y-88265000D03*
%TO.P,C61,2*%
%TO.N,GND*%
X176530000Y-88265000D03*
%TD*%
D39*
%TO.P,J2,0,PAD*%
%TO.N,GND*%
X171641000Y-72134331D03*
X146641000Y-72134331D03*
D21*
%TO.P,J2,1,1*%
%TO.N,unconnected-(J2-Pad1)*%
X164681000Y-72434331D03*
D22*
%TO.P,J2,2,2*%
%TO.N,Net-(U8-R2IN)*%
X161911000Y-72434331D03*
%TO.P,J2,3,3*%
%TO.N,Net-(U8-T2OUT)*%
X159141000Y-72434331D03*
%TO.P,J2,4,4*%
%TO.N,Net-(J2-Pad4)*%
X156371000Y-72434331D03*
%TO.P,J2,5,5*%
%TO.N,GND*%
X153601000Y-72434331D03*
%TO.P,J2,6,6*%
%TO.N,unconnected-(J2-Pad6)*%
X163296000Y-69594331D03*
%TO.P,J2,7,7*%
%TO.N,Net-(U8-T1OUT)*%
X160526000Y-69594331D03*
%TO.P,J2,8,8*%
%TO.N,Net-(U8-R1IN)*%
X157756000Y-69594331D03*
%TO.P,J2,9,9*%
%TO.N,unconnected-(J2-Pad9)*%
X154986000Y-69594331D03*
%TD*%
D21*
%TO.P,C20,1*%
%TO.N,Net-(U15-VSS)*%
X109220000Y-76200000D03*
D22*
%TO.P,C20,2*%
%TO.N,GND*%
X111720000Y-76200000D03*
%TD*%
D25*
%TO.P,U5,1*%
%TO.N,Net-(U6-INTR)*%
X130942000Y-163815000D03*
D26*
%TO.P,U5,2*%
%TO.N,/~{IRQ}*%
X128402000Y-163815000D03*
%TO.P,U5,3*%
%TO.N,/~{RESET}*%
X125862000Y-163815000D03*
%TO.P,U5,4*%
%TO.N,Net-(U6-MR)*%
X123322000Y-163815000D03*
%TO.P,U5,5*%
%TO.N,Net-(U10-Q)*%
X120782000Y-163815000D03*
%TO.P,U5,6*%
%TO.N,/~{RESET}*%
X118242000Y-163815000D03*
%TO.P,U5,7,GND*%
%TO.N,GND*%
X115702000Y-163815000D03*
%TO.P,U5,8*%
%TO.N,unconnected-(U5-Pad8)*%
X115702000Y-171435000D03*
%TO.P,U5,9*%
%TO.N,GND*%
X118242000Y-171435000D03*
%TO.P,U5,10*%
%TO.N,unconnected-(U5-Pad10)*%
X120782000Y-171435000D03*
%TO.P,U5,11*%
%TO.N,GND*%
X123322000Y-171435000D03*
%TO.P,U5,12*%
%TO.N,unconnected-(U5-Pad12)*%
X125862000Y-171435000D03*
%TO.P,U5,13*%
%TO.N,GND*%
X128402000Y-171435000D03*
%TO.P,U5,14,VCC*%
%TO.N,VCC*%
X130942000Y-171435000D03*
%TD*%
D19*
%TO.P,C19,1*%
%TO.N,Net-(U8-C1+)*%
X167608000Y-86106000D03*
D20*
%TO.P,C19,2*%
%TO.N,Net-(U8-C1-)*%
X165608000Y-86106000D03*
%TD*%
D25*
%TO.P,U22,1,OE*%
%TO.N,GND*%
X288915000Y-130820000D03*
D26*
%TO.P,U22,2,DQ0*%
%TO.N,/Video_Audio/VDP_RD4*%
X286375000Y-130820000D03*
%TO.P,U22,3,DQ1*%
%TO.N,/Video_Audio/VDP_RD5*%
X283835000Y-130820000D03*
%TO.P,U22,4,WE*%
%TO.N,/Video_Audio/VDP_R~{W}*%
X281295000Y-130820000D03*
%TO.P,U22,5,RAS*%
%TO.N,/Video_Audio/{slash}RAS*%
X278755000Y-130820000D03*
%TO.P,U22,6,A6*%
%TO.N,/Video_Audio/VDP_AD6*%
X276215000Y-130820000D03*
%TO.P,U22,7,A5*%
%TO.N,/Video_Audio/VDP_AD5*%
X273675000Y-130820000D03*
%TO.P,U22,8,A4*%
%TO.N,/Video_Audio/VDP_AD4*%
X271135000Y-130820000D03*
%TO.P,U22,9,VCC*%
%TO.N,VCC*%
X268595000Y-130820000D03*
%TO.P,U22,10,A7*%
%TO.N,/Video_Audio/VDP_AD7*%
X268595000Y-138440000D03*
%TO.P,U22,11,A3*%
%TO.N,/Video_Audio/VDP_AD3*%
X271135000Y-138440000D03*
%TO.P,U22,12,A2*%
%TO.N,/Video_Audio/VDP_AD2*%
X273675000Y-138440000D03*
%TO.P,U22,13,A1*%
%TO.N,/Video_Audio/VDP_AD1*%
X276215000Y-138440000D03*
%TO.P,U22,14,A0*%
%TO.N,/Video_Audio/VDP_AD0*%
X278755000Y-138440000D03*
%TO.P,U22,15,DQ2*%
%TO.N,/Video_Audio/VDP_RD6*%
X281295000Y-138440000D03*
%TO.P,U22,16,CAS*%
%TO.N,/Video_Audio/{slash}CAS1*%
X283835000Y-138440000D03*
%TO.P,U22,17,DQ3*%
%TO.N,/Video_Audio/VDP_RD7*%
X286375000Y-138440000D03*
%TO.P,U22,18,VSS*%
%TO.N,GND*%
X288915000Y-138440000D03*
%TD*%
D27*
%TO.P,C8,1*%
%TO.N,VCC*%
X196215000Y-171400000D03*
%TO.P,C8,2*%
%TO.N,GND*%
X196215000Y-168275000D03*
%TD*%
D17*
%TO.P,R21,1*%
%TO.N,Net-(U15-VSS)*%
X113030000Y-93345000D03*
D18*
%TO.P,R21,2*%
%TO.N,/SD Card/DAT1*%
X107950000Y-93345000D03*
%TD*%
D23*
%TO.P,SLOT1,1,Pin_1*%
%TO.N,/BUF_D0*%
X123190000Y-91440000D03*
D24*
%TO.P,SLOT1,2,Pin_2*%
%TO.N,/BUF_A0*%
X120650000Y-91440000D03*
%TO.P,SLOT1,3,Pin_3*%
%TO.N,/BUF_D1*%
X123190000Y-93980000D03*
%TO.P,SLOT1,4,Pin_4*%
%TO.N,/BUF_A1*%
X120650000Y-93980000D03*
%TO.P,SLOT1,5,Pin_5*%
%TO.N,/BUF_D2*%
X123190000Y-96520000D03*
%TO.P,SLOT1,6,Pin_6*%
%TO.N,/BUF_A2*%
X120650000Y-96520000D03*
%TO.P,SLOT1,7,Pin_7*%
%TO.N,/BUF_D3*%
X123190000Y-99060000D03*
%TO.P,SLOT1,8,Pin_8*%
%TO.N,/BUF_A3*%
X120650000Y-99060000D03*
%TO.P,SLOT1,9,Pin_9*%
%TO.N,/BUF_D4*%
X123190000Y-101600000D03*
%TO.P,SLOT1,10,Pin_10*%
%TO.N,/BUF_R~{W}*%
X120650000Y-101600000D03*
%TO.P,SLOT1,11,Pin_11*%
%TO.N,/BUF_D5*%
X123190000Y-104140000D03*
%TO.P,SLOT1,12,Pin_12*%
%TO.N,/~{BUF_WE}*%
X120650000Y-104140000D03*
%TO.P,SLOT1,13,Pin_13*%
%TO.N,/BUF_D6*%
X123190000Y-106680000D03*
%TO.P,SLOT1,14,Pin_14*%
%TO.N,/~{BUF_OE}*%
X120650000Y-106680000D03*
%TO.P,SLOT1,15,Pin_15*%
%TO.N,/BUF_D7*%
X123190000Y-109220000D03*
%TO.P,SLOT1,16,Pin_16*%
%TO.N,/~{CS_SLOT1}*%
X120650000Y-109220000D03*
%TO.P,SLOT1,17,Pin_17*%
%TO.N,/~{IRQ}*%
X123190000Y-111760000D03*
%TO.P,SLOT1,18,Pin_18*%
%TO.N,/~{NMI}*%
X120650000Y-111760000D03*
%TO.P,SLOT1,19,Pin_19*%
%TO.N,/CPU_RDY*%
X123190000Y-114300000D03*
%TO.P,SLOT1,20,Pin_20*%
%TO.N,/BUF_PHI2*%
X120650000Y-114300000D03*
%TO.P,SLOT1,21,Pin_21*%
%TO.N,/~{RESET}*%
X123190000Y-116840000D03*
%TO.P,SLOT1,22,Pin_22*%
%TO.N,/RESET_TRIG*%
X120650000Y-116840000D03*
%TO.P,SLOT1,23,Pin_23*%
%TO.N,VCC*%
X123190000Y-119380000D03*
%TO.P,SLOT1,24,Pin_24*%
%TO.N,GND*%
X120650000Y-119380000D03*
%TD*%
D25*
%TO.P,U8,1,C1+*%
%TO.N,Net-(U8-C1+)*%
X164857400Y-91425000D03*
D26*
%TO.P,U8,2,VS+*%
%TO.N,Net-(U8-VS+)*%
X162317400Y-91425000D03*
%TO.P,U8,3,C1-*%
%TO.N,Net-(U8-C1-)*%
X159777400Y-91425000D03*
%TO.P,U8,4,C2+*%
%TO.N,Net-(U8-C2+)*%
X157237400Y-91425000D03*
%TO.P,U8,5,C2-*%
%TO.N,Net-(U8-C2-)*%
X154697400Y-91425000D03*
%TO.P,U8,6,VS-*%
%TO.N,Net-(U8-VS-)*%
X152157400Y-91425000D03*
%TO.P,U8,7,T2OUT*%
%TO.N,Net-(U8-T2OUT)*%
X149617400Y-91425000D03*
%TO.P,U8,8,R2IN*%
%TO.N,Net-(U8-R2IN)*%
X147077400Y-91425000D03*
%TO.P,U8,9,R2OUT*%
%TO.N,Net-(U6-SIN)*%
X147077400Y-99045000D03*
%TO.P,U8,10,T2IN*%
%TO.N,Net-(U6-SOUT)*%
X149617400Y-99045000D03*
%TO.P,U8,11,T1IN*%
%TO.N,Net-(U6-~{RTS})*%
X152157400Y-99045000D03*
%TO.P,U8,12,R1OUT*%
%TO.N,Net-(U6-~{CTS})*%
X154697400Y-99045000D03*
%TO.P,U8,13,R1IN*%
%TO.N,Net-(U8-R1IN)*%
X157237400Y-99045000D03*
%TO.P,U8,14,T1OUT*%
%TO.N,Net-(U8-T1OUT)*%
X159777400Y-99045000D03*
%TO.P,U8,15,GND*%
%TO.N,GND*%
X162317400Y-99045000D03*
%TO.P,U8,16,VCC*%
%TO.N,VCC*%
X164857400Y-99045000D03*
%TD*%
D17*
%TO.P,R5,1*%
%TO.N,/PA1*%
X81915000Y-187960000D03*
D18*
%TO.P,R5,2*%
%TO.N,Net-(U11-PA1)*%
X86995000Y-187960000D03*
%TD*%
D17*
%TO.P,R19,1*%
%TO.N,Net-(U15-VSS)*%
X113030000Y-88265000D03*
D18*
%TO.P,R19,2*%
%TO.N,/SD Card/CMD*%
X107950000Y-88265000D03*
%TD*%
D17*
%TO.P,R12,1*%
%TO.N,/CA1*%
X81915000Y-167640000D03*
D18*
%TO.P,R12,2*%
%TO.N,Net-(U11-CA1)*%
X86995000Y-167640000D03*
%TD*%
D17*
%TO.P,R3,1*%
%TO.N,VCC*%
X104140000Y-195580000D03*
D18*
%TO.P,R3,2*%
%TO.N,/~{RESET}*%
X109220000Y-195580000D03*
%TD*%
D12*
%TO.P,U6,1,NC*%
%TO.N,unconnected-(U6-NC-Pad1)*%
X163830000Y-119380000D03*
D13*
%TO.P,U6,2,D0*%
%TO.N,/BUF_D0*%
X166370000Y-116840000D03*
%TO.P,U6,3,D1*%
%TO.N,/BUF_D1*%
X163830000Y-116840000D03*
%TO.P,U6,4,D2*%
%TO.N,/BUF_D2*%
X166370000Y-114300000D03*
%TO.P,U6,5,D3*%
%TO.N,/BUF_D3*%
X163830000Y-114300000D03*
%TO.P,U6,6,D4*%
%TO.N,/BUF_D4*%
X166370000Y-111760000D03*
%TO.P,U6,7,D5*%
%TO.N,/BUF_D5*%
X163830000Y-109220000D03*
%TO.P,U6,8,D6*%
%TO.N,/BUF_D6*%
X163830000Y-111760000D03*
%TO.P,U6,9,D7*%
%TO.N,/BUF_D7*%
X161290000Y-109220000D03*
%TO.P,U6,10,RCLK*%
%TO.N,Net-(U6-RCLK)*%
X161290000Y-111760000D03*
%TO.P,U6,11,SIN*%
%TO.N,Net-(U6-SIN)*%
X158750000Y-109220000D03*
%TO.P,U6,12,NC*%
%TO.N,unconnected-(U6-NC-Pad12)*%
X158750000Y-111760000D03*
%TO.P,U6,13,SOUT*%
%TO.N,Net-(U6-SOUT)*%
X156210000Y-109220000D03*
%TO.P,U6,14,CS0*%
%TO.N,VCC*%
X156210000Y-111760000D03*
%TO.P,U6,15,CS1*%
X153670000Y-109220000D03*
%TO.P,U6,16,~{CS2}*%
%TO.N,/~{CS_UART}*%
X153670000Y-111760000D03*
%TO.P,U6,17,~{BAUDOUT}*%
%TO.N,Net-(U6-RCLK)*%
X151130000Y-109220000D03*
%TO.P,U6,18,XIN*%
%TO.N,Net-(U6-XIN)*%
X148590000Y-111760000D03*
%TO.P,U6,19,XOUT*%
%TO.N,unconnected-(U6-XOUT-Pad19)*%
X151130000Y-111760000D03*
%TO.P,U6,20,~{WR}*%
%TO.N,/~{BUF_WE}*%
X148590000Y-114300000D03*
%TO.P,U6,21,WR*%
%TO.N,GND*%
X151130000Y-114300000D03*
%TO.P,U6,22,GND*%
X148590000Y-116840000D03*
%TO.P,U6,23,NC*%
%TO.N,unconnected-(U6-NC-Pad23)*%
X151130000Y-116840000D03*
%TO.P,U6,24,~{RD}*%
%TO.N,/~{BUF_OE}*%
X148590000Y-119380000D03*
%TO.P,U6,25,RD*%
%TO.N,GND*%
X151130000Y-119380000D03*
%TO.P,U6,26,DDIS*%
%TO.N,unconnected-(U6-DDIS-Pad26)*%
X148590000Y-121920000D03*
%TO.P,U6,27,~{TXRDY}*%
%TO.N,unconnected-(U6-~{TXRDY}-Pad27)*%
X151130000Y-121920000D03*
%TO.P,U6,28,~{ADS}*%
%TO.N,GND*%
X148590000Y-124460000D03*
%TO.P,U6,29,A2*%
%TO.N,/BUF_A2*%
X151130000Y-127000000D03*
%TO.P,U6,30,A1*%
%TO.N,/BUF_A1*%
X151130000Y-124460000D03*
%TO.P,U6,31,A0*%
%TO.N,/BUF_A0*%
X153670000Y-127000000D03*
%TO.P,U6,32,~{RXRDY}*%
%TO.N,unconnected-(U6-~{RXRDY}-Pad32)*%
X153670000Y-124460000D03*
%TO.P,U6,33,INTR*%
%TO.N,Net-(U6-INTR)*%
X156210000Y-127000000D03*
%TO.P,U6,34,NC*%
%TO.N,unconnected-(U6-NC-Pad34)*%
X156210000Y-124460000D03*
%TO.P,U6,35,~{OUT2}*%
%TO.N,unconnected-(U6-~{OUT2}-Pad35)*%
X158750000Y-127000000D03*
%TO.P,U6,36,~{RTS}*%
%TO.N,Net-(U6-~{RTS})*%
X158750000Y-124460000D03*
%TO.P,U6,37,~{DTR}*%
%TO.N,unconnected-(U6-~{DTR}-Pad37)*%
X161290000Y-127000000D03*
%TO.P,U6,38,~{OUT1}*%
%TO.N,/~{JOYPORT_ENABLE}*%
X161290000Y-124460000D03*
%TO.P,U6,39,MR*%
%TO.N,Net-(U6-MR)*%
X163830000Y-127000000D03*
%TO.P,U6,40,~{CTS}*%
%TO.N,Net-(U6-~{CTS})*%
X166370000Y-124460000D03*
%TO.P,U6,41,~{DSR}*%
%TO.N,VCC*%
X163830000Y-124460000D03*
%TO.P,U6,42,~{DCD}*%
X166370000Y-121920000D03*
%TO.P,U6,43,~{RI}*%
X163830000Y-121920000D03*
%TO.P,U6,44,VCC*%
X166370000Y-119380000D03*
%TD*%
D17*
%TO.P,R22,1*%
%TO.N,Net-(U15-VSS)*%
X113030000Y-83185000D03*
D18*
%TO.P,R22,2*%
%TO.N,/SD Card/DAT2*%
X107950000Y-83185000D03*
%TD*%
D17*
%TO.P,R24,1*%
%TO.N,Net-(C42-Pad2)*%
X209550000Y-99695000D03*
D18*
%TO.P,R24,2*%
%TO.N,Net-(U26C-+)*%
X209550000Y-94615000D03*
%TD*%
D25*
%TO.P,U30,1,VCC2*%
%TO.N,GND*%
X148336000Y-136144000D03*
D26*
%TO.P,U30,2,VBAT*%
%TO.N,Net-(BT1-+)*%
X145796000Y-136144000D03*
%TO.P,U30,3,X1*%
%TO.N,Net-(U30-X1)*%
X143256000Y-136144000D03*
%TO.P,U30,4,X2*%
%TO.N,Net-(U30-X2)*%
X140716000Y-136144000D03*
%TO.P,U30,5,/INT0*%
%TO.N,/~{IRQ}*%
X138176000Y-136144000D03*
%TO.P,U30,6,INT1*%
%TO.N,unconnected-(U30-INT1-Pad6)*%
X135636000Y-136144000D03*
%TO.P,U30,7,1HZ*%
%TO.N,unconnected-(U30-1HZ-Pad7)*%
X133096000Y-136144000D03*
%TO.P,U30,8,GND*%
%TO.N,GND*%
X130556000Y-136144000D03*
%TO.P,U30,9,MODE*%
%TO.N,VCC*%
X130556000Y-143764000D03*
%TO.P,U30,10,CE*%
%TO.N,Net-(U30-CE)*%
X133096000Y-143764000D03*
%TO.P,U30,11,SCLK*%
%TO.N,/SPI_CLK*%
X135636000Y-143764000D03*
%TO.P,U30,12,SDI*%
%TO.N,/SPI_MOSI*%
X138176000Y-143764000D03*
%TO.P,U30,13,SDO*%
%TO.N,/SPI_MISO*%
X140716000Y-143764000D03*
%TO.P,U30,14,VCCIF*%
%TO.N,VCC*%
X143256000Y-143764000D03*
%TO.P,U30,15,32KHZ*%
%TO.N,unconnected-(U30-32KHZ-Pad15)*%
X145796000Y-143764000D03*
%TO.P,U30,16,VCC1*%
%TO.N,VCC*%
X148336000Y-143764000D03*
%TD*%
D27*
%TO.P,C7,1*%
%TO.N,VCC*%
X165100000Y-171400000D03*
%TO.P,C7,2*%
%TO.N,GND*%
X165100000Y-168275000D03*
%TD*%
D17*
%TO.P,R35,1*%
%TO.N,Net-(U27-BOUT)*%
X223520000Y-99060000D03*
D18*
%TO.P,R35,2*%
%TO.N,Net-(C55-Pad1)*%
X223520000Y-93980000D03*
%TD*%
D23*
%TO.P,SLOT0,1,Pin_1*%
%TO.N,/BUF_D0*%
X139700000Y-91440000D03*
D24*
%TO.P,SLOT0,2,Pin_2*%
%TO.N,/BUF_A0*%
X137160000Y-91440000D03*
%TO.P,SLOT0,3,Pin_3*%
%TO.N,/BUF_D1*%
X139700000Y-93980000D03*
%TO.P,SLOT0,4,Pin_4*%
%TO.N,/BUF_A1*%
X137160000Y-93980000D03*
%TO.P,SLOT0,5,Pin_5*%
%TO.N,/BUF_D2*%
X139700000Y-96520000D03*
%TO.P,SLOT0,6,Pin_6*%
%TO.N,/BUF_A2*%
X137160000Y-96520000D03*
%TO.P,SLOT0,7,Pin_7*%
%TO.N,/BUF_D3*%
X139700000Y-99060000D03*
%TO.P,SLOT0,8,Pin_8*%
%TO.N,/BUF_A3*%
X137160000Y-99060000D03*
%TO.P,SLOT0,9,Pin_9*%
%TO.N,/BUF_D4*%
X139700000Y-101600000D03*
%TO.P,SLOT0,10,Pin_10*%
%TO.N,/BUF_R~{W}*%
X137160000Y-101600000D03*
%TO.P,SLOT0,11,Pin_11*%
%TO.N,/BUF_D5*%
X139700000Y-104140000D03*
%TO.P,SLOT0,12,Pin_12*%
%TO.N,/~{BUF_WE}*%
X137160000Y-104140000D03*
%TO.P,SLOT0,13,Pin_13*%
%TO.N,/BUF_D6*%
X139700000Y-106680000D03*
%TO.P,SLOT0,14,Pin_14*%
%TO.N,/~{BUF_OE}*%
X137160000Y-106680000D03*
%TO.P,SLOT0,15,Pin_15*%
%TO.N,/BUF_D7*%
X139700000Y-109220000D03*
%TO.P,SLOT0,16,Pin_16*%
%TO.N,/~{CS_SLOT0}*%
X137160000Y-109220000D03*
%TO.P,SLOT0,17,Pin_17*%
%TO.N,/~{IRQ}*%
X139700000Y-111760000D03*
%TO.P,SLOT0,18,Pin_18*%
%TO.N,/~{NMI}*%
X137160000Y-111760000D03*
%TO.P,SLOT0,19,Pin_19*%
%TO.N,/CPU_RDY*%
X139700000Y-114300000D03*
%TO.P,SLOT0,20,Pin_20*%
%TO.N,/BUF_PHI2*%
X137160000Y-114300000D03*
%TO.P,SLOT0,21,Pin_21*%
%TO.N,/~{RESET}*%
X139700000Y-116840000D03*
%TO.P,SLOT0,22,Pin_22*%
%TO.N,/RESET_TRIG*%
X137160000Y-116840000D03*
%TO.P,SLOT0,23,Pin_23*%
%TO.N,VCC*%
X139700000Y-119380000D03*
%TO.P,SLOT0,24,Pin_24*%
%TO.N,GND*%
X137160000Y-119380000D03*
%TD*%
D17*
%TO.P,R1,1*%
%TO.N,VCC*%
X104140000Y-200660000D03*
D18*
%TO.P,R1,2*%
%TO.N,/RESET_TRIG*%
X109220000Y-200660000D03*
%TD*%
D17*
%TO.P,R29,1*%
%TO.N,GND*%
X204470000Y-109220000D03*
D18*
%TO.P,R29,2*%
%TO.N,/Video_Audio/RGB_R*%
X209550000Y-109220000D03*
%TD*%
D27*
%TO.P,C10,1*%
%TO.N,VCC*%
X243205000Y-199340000D03*
%TO.P,C10,2*%
%TO.N,GND*%
X243205000Y-196215000D03*
%TD*%
D25*
%TO.P,U3,1,A18*%
%TO.N,/EXT_A18*%
X239395000Y-184150000D03*
D26*
%TO.P,U3,2,A16*%
%TO.N,/EXT_A16*%
X236855000Y-184150000D03*
%TO.P,U3,3,A14*%
%TO.N,/EXT_A14*%
X234315000Y-184150000D03*
%TO.P,U3,4,A12*%
%TO.N,/CPU_A12*%
X231775000Y-184150000D03*
%TO.P,U3,5,A7*%
%TO.N,/CPU_A7*%
X229235000Y-184150000D03*
%TO.P,U3,6,A6*%
%TO.N,/CPU_A6*%
X226695000Y-184150000D03*
%TO.P,U3,7,A5*%
%TO.N,/CPU_A5*%
X224155000Y-184150000D03*
%TO.P,U3,8,A4*%
%TO.N,/CPU_A4*%
X221615000Y-184150000D03*
%TO.P,U3,9,A3*%
%TO.N,/CPU_A3*%
X219075000Y-184150000D03*
%TO.P,U3,10,A2*%
%TO.N,/CPU_A2*%
X216535000Y-184150000D03*
%TO.P,U3,11,A1*%
%TO.N,/CPU_A1*%
X213995000Y-184150000D03*
%TO.P,U3,12,A0*%
%TO.N,/CPU_A0*%
X211455000Y-184150000D03*
%TO.P,U3,13,DQ0*%
%TO.N,/CPU_D0*%
X208915000Y-184150000D03*
%TO.P,U3,14,DQ1*%
%TO.N,/CPU_D1*%
X206375000Y-184150000D03*
%TO.P,U3,15,DQ2*%
%TO.N,/CPU_D2*%
X203835000Y-184150000D03*
%TO.P,U3,16,VSS*%
%TO.N,GND*%
X201295000Y-184150000D03*
%TO.P,U3,17,DQ3*%
%TO.N,/CPU_D3*%
X201295000Y-199390000D03*
%TO.P,U3,18,DQ4*%
%TO.N,/CPU_D4*%
X203835000Y-199390000D03*
%TO.P,U3,19,DQ5*%
%TO.N,/CPU_D5*%
X206375000Y-199390000D03*
%TO.P,U3,20,DQ6*%
%TO.N,/CPU_D6*%
X208915000Y-199390000D03*
%TO.P,U3,21,DQ7*%
%TO.N,/CPU_D7*%
X211455000Y-199390000D03*
%TO.P,U3,22,CE#*%
%TO.N,/~{CS_RAM}*%
X213995000Y-199390000D03*
%TO.P,U3,23,A10*%
%TO.N,/CPU_A10*%
X216535000Y-199390000D03*
%TO.P,U3,24,OE#*%
%TO.N,/~{OE}*%
X219075000Y-199390000D03*
%TO.P,U3,25,A11*%
%TO.N,/CPU_A11*%
X221615000Y-199390000D03*
%TO.P,U3,26,A9*%
%TO.N,/CPU_A9*%
X224155000Y-199390000D03*
%TO.P,U3,27,A8*%
%TO.N,/CPU_A8*%
X226695000Y-199390000D03*
%TO.P,U3,28,A13*%
%TO.N,/CPU_A13*%
X229235000Y-199390000D03*
%TO.P,U3,29,WE#*%
%TO.N,/~{WE}*%
X231775000Y-199390000D03*
%TO.P,U3,30,A17*%
%TO.N,/EXT_A17*%
X234315000Y-199390000D03*
%TO.P,U3,31,A15*%
%TO.N,/EXT_A15*%
X236855000Y-199390000D03*
%TO.P,U3,32,VCC*%
%TO.N,VCC*%
X239395000Y-199390000D03*
%TD*%
D39*
%TO.P,Port2,0,PAD*%
%TO.N,GND*%
X71755000Y-79285000D03*
X71755000Y-104285000D03*
D21*
%TO.P,Port2,1,1*%
%TO.N,Net-(U29-I0a)*%
X72055000Y-86245000D03*
D22*
%TO.P,Port2,2,2*%
%TO.N,Net-(RR1-R1)*%
X72055000Y-89015000D03*
%TO.P,Port2,3,3*%
%TO.N,Net-(RR1-R2)*%
X72055000Y-91785000D03*
%TO.P,Port2,4,4*%
%TO.N,Net-(RR1-R3)*%
X72055000Y-94555000D03*
%TO.P,Port2,5,5*%
%TO.N,unconnected-(Port2-Pad5)*%
X72055000Y-97325000D03*
%TO.P,Port2,6,6*%
%TO.N,Net-(U7B-D)*%
X69215000Y-87630000D03*
%TO.P,Port2,7,7*%
%TO.N,VCC*%
X69215000Y-90400000D03*
%TO.P,Port2,8,8*%
%TO.N,GND*%
X69215000Y-93170000D03*
%TO.P,Port2,9,9*%
%TO.N,unconnected-(Port2-Pad9)*%
X69215000Y-95940000D03*
%TD*%
D23*
%TO.P,J1,1,VBUS*%
%TO.N,VCC*%
X276169000Y-78878000D03*
D40*
%TO.P,J1,2,D-*%
%TO.N,unconnected-(J1-D--Pad2)*%
X278669000Y-78878000D03*
%TO.P,J1,3,D+*%
%TO.N,unconnected-(J1-D+-Pad3)*%
X278669000Y-76878000D03*
%TO.P,J1,4,GND*%
%TO.N,GND*%
X276169000Y-76878000D03*
D41*
%TO.P,J1,5,Shield*%
X271399000Y-74168000D03*
X283439000Y-74168000D03*
%TD*%
D21*
%TO.P,RN1,1,common*%
%TO.N,VCC*%
X166878000Y-185420000D03*
D30*
%TO.P,RN1,2,R1*%
%TO.N,/~{BE}*%
X166878000Y-182880000D03*
%TO.P,RN1,3,R2*%
%TO.N,/CPU_RDY*%
X166878000Y-180340000D03*
%TO.P,RN1,4,R3*%
%TO.N,/~{IRQ}*%
X166878000Y-177800000D03*
%TO.P,RN1,5,R4*%
%TO.N,/~{NMI}*%
X166878000Y-175260000D03*
%TD*%
D23*
%TO.P,JP1,1,A*%
%TO.N,/~{WE}*%
X238125000Y-180340000D03*
D24*
%TO.P,JP1,2,C*%
%TO.N,Net-(JP1-C)*%
X240665000Y-180340000D03*
%TO.P,JP1,3,B*%
%TO.N,VCC*%
X243205000Y-180340000D03*
%TD*%
D23*
%TO.P,P3,1,Pin_1*%
%TO.N,/SPI_MISO*%
X124460000Y-143764000D03*
D24*
%TO.P,P3,2,Pin_2*%
%TO.N,VCC*%
X121920000Y-143764000D03*
%TO.P,P3,3,Pin_3*%
%TO.N,/SPI_CLK*%
X124460000Y-141224000D03*
%TO.P,P3,4,Pin_4*%
%TO.N,/SPI_MOSI*%
X121920000Y-141224000D03*
%TO.P,P3,5,Pin_5*%
%TO.N,/~{RESET}*%
X124460000Y-138684000D03*
%TO.P,P3,6,Pin_6*%
%TO.N,GND*%
X121920000Y-138684000D03*
%TD*%
D22*
%TO.P,C2,1*%
%TO.N,Net-(U10-CV)*%
X126397000Y-193040000D03*
%TO.P,C2,2*%
%TO.N,GND*%
X128897000Y-193040000D03*
%TD*%
D25*
%TO.P,U13,1,A->B*%
%TO.N,/CPU_R~{W}*%
X193040000Y-163830000D03*
D26*
%TO.P,U13,2,A0*%
%TO.N,/BUF_D0*%
X190500000Y-163830000D03*
%TO.P,U13,3,A1*%
%TO.N,/BUF_D1*%
X187960000Y-163830000D03*
%TO.P,U13,4,A2*%
%TO.N,/BUF_D2*%
X185420000Y-163830000D03*
%TO.P,U13,5,A3*%
%TO.N,/BUF_D3*%
X182880000Y-163830000D03*
%TO.P,U13,6,A4*%
%TO.N,/BUF_D4*%
X180340000Y-163830000D03*
%TO.P,U13,7,A5*%
%TO.N,/BUF_D5*%
X177800000Y-163830000D03*
%TO.P,U13,8,A6*%
%TO.N,/BUF_D6*%
X175260000Y-163830000D03*
%TO.P,U13,9,A7*%
%TO.N,/BUF_D7*%
X172720000Y-163830000D03*
%TO.P,U13,10,GND*%
%TO.N,GND*%
X170180000Y-163830000D03*
%TO.P,U13,11,B7*%
%TO.N,/CPU_D7*%
X170180000Y-171450000D03*
%TO.P,U13,12,B6*%
%TO.N,/CPU_D6*%
X172720000Y-171450000D03*
%TO.P,U13,13,B5*%
%TO.N,/CPU_D5*%
X175260000Y-171450000D03*
%TO.P,U13,14,B4*%
%TO.N,/CPU_D4*%
X177800000Y-171450000D03*
%TO.P,U13,15,B3*%
%TO.N,/CPU_D3*%
X180340000Y-171450000D03*
%TO.P,U13,16,B2*%
%TO.N,/CPU_D2*%
X182880000Y-171450000D03*
%TO.P,U13,17,B1*%
%TO.N,/CPU_D1*%
X185420000Y-171450000D03*
%TO.P,U13,18,B0*%
%TO.N,/CPU_D0*%
X187960000Y-171450000D03*
%TO.P,U13,19,CE*%
%TO.N,/~{CS_BUFFER}*%
X190500000Y-171450000D03*
%TO.P,U13,20,VCC*%
%TO.N,VCC*%
X193040000Y-171450000D03*
%TD*%
D16*
%TO.P,C44,1*%
%TO.N,/Video_Audio/RGB_B*%
X213920000Y-105944000D03*
%TO.P,C44,2*%
%TO.N,Net-(U27-BIN)*%
X217045000Y-105944000D03*
%TD*%
D17*
%TO.P,R14,1*%
%TO.N,Net-(U26A--)*%
X212090000Y-94615000D03*
D18*
%TO.P,R14,2*%
%TO.N,Net-(C42-Pad2)*%
X212090000Y-99695000D03*
%TD*%
D25*
%TO.P,U20,1,OE*%
%TO.N,GND*%
X288925000Y-142240000D03*
D26*
%TO.P,U20,2,DQ0*%
%TO.N,/Video_Audio/VDP_RD4*%
X286385000Y-142240000D03*
%TO.P,U20,3,DQ1*%
%TO.N,/Video_Audio/VDP_RD5*%
X283845000Y-142240000D03*
%TO.P,U20,4,WE*%
%TO.N,/Video_Audio/VDP_R~{W}*%
X281305000Y-142240000D03*
%TO.P,U20,5,RAS*%
%TO.N,/Video_Audio/{slash}RAS*%
X278765000Y-142240000D03*
%TO.P,U20,6,A6*%
%TO.N,/Video_Audio/VDP_AD6*%
X276225000Y-142240000D03*
%TO.P,U20,7,A5*%
%TO.N,/Video_Audio/VDP_AD5*%
X273685000Y-142240000D03*
%TO.P,U20,8,A4*%
%TO.N,/Video_Audio/VDP_AD4*%
X271145000Y-142240000D03*
%TO.P,U20,9,VCC*%
%TO.N,VCC*%
X268605000Y-142240000D03*
%TO.P,U20,10,A7*%
%TO.N,/Video_Audio/VDP_AD7*%
X268605000Y-149860000D03*
%TO.P,U20,11,A3*%
%TO.N,/Video_Audio/VDP_AD3*%
X271145000Y-149860000D03*
%TO.P,U20,12,A2*%
%TO.N,/Video_Audio/VDP_AD2*%
X273685000Y-149860000D03*
%TO.P,U20,13,A1*%
%TO.N,/Video_Audio/VDP_AD1*%
X276225000Y-149860000D03*
%TO.P,U20,14,A0*%
%TO.N,/Video_Audio/VDP_AD0*%
X278765000Y-149860000D03*
%TO.P,U20,15,DQ2*%
%TO.N,/Video_Audio/VDP_RD6*%
X281305000Y-149860000D03*
%TO.P,U20,16,CAS*%
%TO.N,/Video_Audio/{slash}CAS0*%
X283845000Y-149860000D03*
%TO.P,U20,17,DQ3*%
%TO.N,/Video_Audio/VDP_RD7*%
X286385000Y-149860000D03*
%TO.P,U20,18,VSS*%
%TO.N,GND*%
X288925000Y-149860000D03*
%TD*%
D42*
%TO.P,X4,1,1*%
%TO.N,Net-(U30-X2)*%
X140848000Y-132080000D03*
%TO.P,X4,2,2*%
%TO.N,Net-(U30-X1)*%
X142748000Y-132080000D03*
%TD*%
D22*
%TO.P,C41,1*%
%TO.N,GND*%
X193000000Y-102235000D03*
%TO.P,C41,2*%
%TO.N,Net-(U26C-+)*%
X190500000Y-102235000D03*
%TD*%
D17*
%TO.P,R28,1*%
%TO.N,GND*%
X204470000Y-111760000D03*
D18*
%TO.P,R28,2*%
%TO.N,/Video_Audio/RGB_G*%
X209550000Y-111760000D03*
%TD*%
D17*
%TO.P,R38,1*%
%TO.N,Net-(U27-YOUT)*%
X233680000Y-99060000D03*
D18*
%TO.P,R38,2*%
%TO.N,Net-(C51-Pad1)*%
X233680000Y-93980000D03*
%TD*%
D43*
%TO.P,C26,1*%
%TO.N,VCC*%
X265515000Y-130225000D03*
%TO.P,C26,2*%
%TO.N,GND*%
X265515000Y-133350000D03*
%TD*%
D17*
%TO.P,R23,1*%
%TO.N,GND*%
X207010000Y-92075000D03*
D18*
%TO.P,R23,2*%
%TO.N,Net-(U25-MP)*%
X207010000Y-86995000D03*
%TD*%
D19*
%TO.P,C25,1*%
%TO.N,VCC*%
X162814000Y-86106000D03*
D20*
%TO.P,C25,2*%
%TO.N,Net-(U8-VS+)*%
X160814000Y-86106000D03*
%TD*%
D19*
%TO.P,C21,1*%
%TO.N,Net-(U8-C2+)*%
X157944600Y-86106000D03*
D20*
%TO.P,C21,2*%
%TO.N,Net-(U8-C2-)*%
X155944600Y-86106000D03*
%TD*%
D17*
%TO.P,R32,1*%
%TO.N,/Video_Audio/CSYNC*%
X227965000Y-116205000D03*
D18*
%TO.P,R32,2*%
%TO.N,Net-(U27-SYNCIN)*%
X233045000Y-116205000D03*
%TD*%
D19*
%TO.P,C39,1*%
%TO.N,VCC*%
X193377599Y-86995000D03*
D20*
%TO.P,C39,2*%
%TO.N,GND*%
X191377599Y-86995000D03*
%TD*%
D16*
%TO.P,C23,1*%
%TO.N,VCC*%
X108927500Y-66040000D03*
%TO.P,C23,2*%
%TO.N,GND*%
X112052500Y-66040000D03*
%TD*%
D22*
%TO.P,C1,1*%
%TO.N,/RESET_TRIG*%
X126437000Y-198120000D03*
%TO.P,C1,2*%
%TO.N,GND*%
X128937000Y-198120000D03*
%TD*%
D27*
%TO.P,C57,1*%
%TO.N,VCC*%
X110998000Y-171527000D03*
%TO.P,C57,2*%
%TO.N,GND*%
X110998000Y-168402000D03*
%TD*%
%TO.P,C48,1*%
%TO.N,VCC*%
X236855000Y-112395000D03*
%TO.P,C48,2*%
%TO.N,GND*%
X236855000Y-109270000D03*
%TD*%
D17*
%TO.P,R20,1*%
%TO.N,Net-(U15-VSS)*%
X113030000Y-85725000D03*
D18*
%TO.P,R20,2*%
%TO.N,/SD Card/DAT3*%
X107950000Y-85725000D03*
%TD*%
D12*
%TO.P,U2,1,P1*%
%TO.N,/EXT_A17*%
X264795000Y-198120000D03*
D13*
%TO.P,U2,2,P2*%
%TO.N,/EXT_A18*%
X264795000Y-195580000D03*
%TO.P,U2,3,P3*%
%TO.N,/PHI2*%
X267335000Y-198120000D03*
%TO.P,U2,4,P4*%
%TO.N,/~{CS_ROM}*%
X267335000Y-195580000D03*
%TO.P,U2,5,P5*%
%TO.N,/~{CS_RAM}*%
X269875000Y-198120000D03*
%TO.P,U2,6,P6*%
%TO.N,/~{OE}*%
X269875000Y-195580000D03*
%TO.P,U2,7,P7*%
%TO.N,/~{WE}*%
X272415000Y-198120000D03*
%TO.P,U2,8,GND*%
%TO.N,GND*%
X272415000Y-195580000D03*
%TO.P,U2,9,I/O/GCK1*%
%TO.N,/CLKIN*%
X274955000Y-198120000D03*
%TO.P,U2,10,I/O/GCK2*%
%TO.N,unconnected-(U2-I{slash}O{slash}GCK2-Pad10)*%
X274955000Y-195580000D03*
%TO.P,U2,11,P11*%
%TO.N,/~{W}*%
X277495000Y-198120000D03*
%TO.P,U2,12,I/O/GCK3*%
%TO.N,unconnected-(U2-I{slash}O{slash}GCK3-Pad12)*%
X280035000Y-195580000D03*
%TO.P,U2,13,P13*%
%TO.N,unconnected-(U2-P13-Pad13)*%
X277495000Y-195580000D03*
%TO.P,U2,14,P14*%
%TO.N,unconnected-(U2-P14-Pad14)*%
X280035000Y-193040000D03*
%TO.P,U2,15,P15*%
%TO.N,unconnected-(U2-P15-Pad15)*%
X277495000Y-193040000D03*
%TO.P,U2,16,GND*%
%TO.N,GND*%
X280035000Y-190500000D03*
%TO.P,U2,17,P17*%
%TO.N,unconnected-(U2-P17-Pad17)*%
X277495000Y-190500000D03*
%TO.P,U2,18,P18*%
%TO.N,unconnected-(U2-P18-Pad18)*%
X280035000Y-187960000D03*
%TO.P,U2,19,P19*%
%TO.N,unconnected-(U2-P19-Pad19)*%
X277495000Y-187960000D03*
%TO.P,U2,20,P20*%
%TO.N,unconnected-(U2-P20-Pad20)*%
X280035000Y-185420000D03*
%TO.P,U2,21,P21*%
%TO.N,unconnected-(U2-P21-Pad21)*%
X277495000Y-185420000D03*
%TO.P,U2,22,VCCIO*%
%TO.N,VCC*%
X280035000Y-182880000D03*
%TO.P,U2,23,P23*%
%TO.N,unconnected-(U2-P23-Pad23)*%
X277495000Y-182880000D03*
%TO.P,U2,24,P24*%
%TO.N,unconnected-(U2-P24-Pad24)*%
X280035000Y-180340000D03*
%TO.P,U2,25,P25*%
%TO.N,/~{CSW_VDP}*%
X277495000Y-180340000D03*
%TO.P,U2,26,P26*%
%TO.N,/~{R}*%
X280035000Y-177800000D03*
%TO.P,U2,27,GND*%
%TO.N,GND*%
X277495000Y-177800000D03*
%TO.P,U2,28,TDI*%
%TO.N,/TDI*%
X280035000Y-175260000D03*
%TO.P,U2,29,TMS*%
%TO.N,/TMS*%
X277495000Y-175260000D03*
%TO.P,U2,30,TCK*%
%TO.N,/TCK*%
X280035000Y-172720000D03*
%TO.P,U2,31,P31*%
%TO.N,unconnected-(U2-P31-Pad31)*%
X277495000Y-172720000D03*
%TO.P,U2,32,P32*%
%TO.N,unconnected-(U2-P32-Pad32)*%
X280035000Y-170180000D03*
%TO.P,U2,33,P33*%
%TO.N,unconnected-(U2-P33-Pad33)*%
X277495000Y-167640000D03*
%TO.P,U2,34,P34*%
%TO.N,unconnected-(U2-P34-Pad34)*%
X277495000Y-170180000D03*
%TO.P,U2,35,P35*%
%TO.N,unconnected-(U2-P35-Pad35)*%
X274955000Y-167640000D03*
%TO.P,U2,36,P36*%
%TO.N,unconnected-(U2-P36-Pad36)*%
X274955000Y-170180000D03*
%TO.P,U2,37,P37*%
%TO.N,unconnected-(U2-P37-Pad37)*%
X272415000Y-167640000D03*
%TO.P,U2,38,VCC*%
%TO.N,VCC*%
X272415000Y-170180000D03*
%TO.P,U2,39,P39*%
%TO.N,/~{CS_SLOT0}*%
X269875000Y-167640000D03*
%TO.P,U2,40,P40*%
%TO.N,/CPU_RDY*%
X269875000Y-170180000D03*
%TO.P,U2,41,P41*%
%TO.N,unconnected-(U2-P41-Pad41)*%
X267335000Y-167640000D03*
%TO.P,U2,42,GND*%
%TO.N,GND*%
X267335000Y-170180000D03*
%TO.P,U2,43,P43*%
%TO.N,unconnected-(U2-P43-Pad43)*%
X264795000Y-167640000D03*
%TO.P,U2,44,P44*%
%TO.N,unconnected-(U2-P44-Pad44)*%
X264795000Y-170180000D03*
%TO.P,U2,45,P45*%
%TO.N,unconnected-(U2-P45-Pad45)*%
X262255000Y-167640000D03*
%TO.P,U2,46,P46*%
%TO.N,unconnected-(U2-P46-Pad46)*%
X262255000Y-170180000D03*
%TO.P,U2,47,P47*%
%TO.N,/~{CSR_VDP}*%
X259715000Y-167640000D03*
%TO.P,U2,48,P48*%
%TO.N,/~{CS_UART}*%
X259715000Y-170180000D03*
%TO.P,U2,49,GND*%
%TO.N,GND*%
X257175000Y-167640000D03*
%TO.P,U2,50,P50*%
%TO.N,/~{CS_SLOT1}*%
X257175000Y-170180000D03*
%TO.P,U2,51,P51*%
%TO.N,/~{CS_VIA}*%
X254635000Y-167640000D03*
%TO.P,U2,52,P52*%
%TO.N,/~{CS_BUFFER}*%
X254635000Y-170180000D03*
%TO.P,U2,53,P53*%
%TO.N,/~{CS_OPL}*%
X252095000Y-167640000D03*
%TO.P,U2,54,P54*%
%TO.N,/CPU_D0*%
X249555000Y-170180000D03*
%TO.P,U2,55,P55*%
%TO.N,/CPU_D1*%
X252095000Y-170180000D03*
%TO.P,U2,56,P56*%
%TO.N,/CPU_D2*%
X249555000Y-172720000D03*
%TO.P,U2,57,P57*%
%TO.N,/CPU_D3*%
X252095000Y-172720000D03*
%TO.P,U2,58,P58*%
%TO.N,/CPU_D4*%
X249555000Y-175260000D03*
%TO.P,U2,59,TDO*%
%TO.N,/TDO*%
X252095000Y-175260000D03*
%TO.P,U2,60,GND*%
%TO.N,GND*%
X249555000Y-177800000D03*
%TO.P,U2,61,P61*%
%TO.N,/CPU_D5*%
X252095000Y-177800000D03*
%TO.P,U2,62,P62*%
%TO.N,/CPU_D7*%
X249555000Y-180340000D03*
%TO.P,U2,63,P63*%
%TO.N,/CPU_D6*%
X252095000Y-180340000D03*
%TO.P,U2,64,VCCIO*%
%TO.N,VCC*%
X249555000Y-182880000D03*
%TO.P,U2,65,P65*%
%TO.N,/CPU_A0*%
X252095000Y-182880000D03*
%TO.P,U2,66,P66*%
%TO.N,/CPU_A1*%
X249555000Y-185420000D03*
%TO.P,U2,67,P67*%
%TO.N,/CPU_A4*%
X252095000Y-185420000D03*
%TO.P,U2,68,P68*%
%TO.N,/CPU_A5*%
X249555000Y-187960000D03*
%TO.P,U2,69,P69*%
%TO.N,/CPU_A6*%
X252095000Y-187960000D03*
%TO.P,U2,70,P70*%
%TO.N,/CPU_A7*%
X249555000Y-190500000D03*
%TO.P,U2,71,P71*%
%TO.N,/CPU_A8*%
X252095000Y-190500000D03*
%TO.P,U2,72,P72*%
%TO.N,/CPU_A9*%
X249555000Y-193040000D03*
%TO.P,U2,73,VCC*%
%TO.N,VCC*%
X252095000Y-193040000D03*
%TO.P,U2,74,I/O/GSR*%
%TO.N,/~{RESET}*%
X249555000Y-195580000D03*
%TO.P,U2,75,P75*%
%TO.N,/CPU_A10*%
X252095000Y-198120000D03*
%TO.P,U2,76,I/O/GTS1*%
%TO.N,/CPU_A11*%
X252095000Y-195580000D03*
%TO.P,U2,77,I/O/GTS2*%
%TO.N,/CPU_A12*%
X254635000Y-198120000D03*
%TO.P,U2,78,VCC*%
%TO.N,VCC*%
X254635000Y-195580000D03*
%TO.P,U2,79,P79*%
%TO.N,/CPU_A13*%
X257175000Y-198120000D03*
%TO.P,U2,80,P80*%
%TO.N,/CPU_A14*%
X257175000Y-195580000D03*
%TO.P,U2,81,P81*%
%TO.N,/CPU_A15*%
X259715000Y-198120000D03*
%TO.P,U2,82,P82*%
%TO.N,/EXT_A14*%
X259715000Y-195580000D03*
%TO.P,U2,83,P83*%
%TO.N,/EXT_A15*%
X262255000Y-198120000D03*
%TO.P,U2,84,P84*%
%TO.N,/EXT_A16*%
X262255000Y-195580000D03*
%TD*%
D17*
%TO.P,R2,1*%
%TO.N,Net-(U10-DIS)*%
X109220000Y-198120000D03*
D18*
%TO.P,R2,2*%
%TO.N,VCC*%
X104140000Y-198120000D03*
%TD*%
D44*
%TO.P,J5,*%
%TO.N,*%
X208915000Y-66294000D03*
X211495000Y-66300000D03*
X216495000Y-66300000D03*
X219075000Y-66294000D03*
%TO.P,J5,1*%
%TO.N,/Video_Audio/Audio_analog/AUDIO_OUT*%
X206495000Y-76200000D03*
%TO.P,J5,2*%
%TO.N,GND*%
X213995000Y-76200000D03*
%TO.P,J5,3*%
%TO.N,Net-(C56-Pad2)*%
X221495000Y-76200000D03*
%TO.P,J5,4*%
%TO.N,VCC*%
X208995000Y-78700000D03*
%TO.P,J5,5*%
%TO.N,/Video_Audio/Video_analog/G_OUT*%
X218995000Y-78700000D03*
%TO.P,J5,6*%
%TO.N,Net-(C50-Pad2)*%
X206495000Y-81200000D03*
%TO.P,J5,7*%
%TO.N,Net-(C56-Pad2)*%
X221495000Y-81200000D03*
%TO.P,J5,8*%
%TO.N,Net-(C55-Pad2)*%
X213995000Y-81200000D03*
%TD*%
D27*
%TO.P,C62,1*%
%TO.N,VCC*%
X151765000Y-143460000D03*
%TO.P,C62,2*%
%TO.N,GND*%
X151765000Y-140335000D03*
%TD*%
D45*
%TO.P,SW1,*%
%TO.N,*%
X71120000Y-183530000D03*
X71120000Y-176530000D03*
D40*
%TO.P,SW1,1,1*%
%TO.N,/RESET_TRIG*%
X68620000Y-182280000D03*
%TO.P,SW1,2,2*%
%TO.N,GND*%
X68620000Y-177780000D03*
%TD*%
D19*
%TO.P,C4,1*%
%TO.N,Net-(U10-DIS)*%
X134620000Y-195580000D03*
D20*
%TO.P,C4,2*%
%TO.N,GND*%
X132620000Y-195580000D03*
%TD*%
D27*
%TO.P,C58,1*%
%TO.N,VCC*%
X111125000Y-143841000D03*
%TO.P,C58,2*%
%TO.N,GND*%
X111125000Y-140716000D03*
%TD*%
D23*
%TO.P,P1,1,Pin_1*%
%TO.N,/PA0*%
X76200000Y-170180000D03*
D24*
%TO.P,P1,2,Pin_2*%
%TO.N,/PA1*%
X73660000Y-170180000D03*
%TO.P,P1,3,Pin_3*%
%TO.N,/PA2*%
X76200000Y-167640000D03*
%TO.P,P1,4,Pin_4*%
%TO.N,/PA3*%
X73660000Y-167640000D03*
%TO.P,P1,5,Pin_5*%
%TO.N,/PA4*%
X76200000Y-165100000D03*
%TO.P,P1,6,Pin_6*%
%TO.N,/PA5*%
X73660000Y-165100000D03*
%TO.P,P1,7,Pin_7*%
%TO.N,/PA6*%
X76200000Y-162560000D03*
%TO.P,P1,8,Pin_8*%
%TO.N,/PA7*%
X73660000Y-162560000D03*
%TO.P,P1,9,Pin_9*%
%TO.N,GND*%
X76200000Y-160020000D03*
%TO.P,P1,10,Pin_10*%
%TO.N,VCC*%
X73660000Y-160020000D03*
%TO.P,P1,11,Pin_11*%
%TO.N,unconnected-(P1-Pin_11-Pad11)*%
X76200000Y-157480000D03*
%TO.P,P1,12,Pin_12*%
%TO.N,unconnected-(P1-Pin_12-Pad12)*%
X73660000Y-157480000D03*
%TO.P,P1,13,Pin_13*%
%TO.N,/~{RESET}*%
X76200000Y-154940000D03*
%TO.P,P1,14,Pin_14*%
%TO.N,/~{IRQ}*%
X73660000Y-154940000D03*
%TO.P,P1,15,Pin_15*%
%TO.N,/CA2*%
X76200000Y-152400000D03*
%TO.P,P1,16,Pin_16*%
%TO.N,/CA1*%
X73660000Y-152400000D03*
%TD*%
D25*
%TO.P,U29,1,OEa*%
%TO.N,Net-(U29-OEa)*%
X107950000Y-149860000D03*
D26*
%TO.P,U29,2,I0a*%
%TO.N,Net-(U29-I0a)*%
X105410000Y-149860000D03*
%TO.P,U29,3,O3b*%
%TO.N,/PA3*%
X102870000Y-149860000D03*
%TO.P,U29,4,I1a*%
%TO.N,Net-(RR1-R1)*%
X100330000Y-149860000D03*
%TO.P,U29,5,O2b*%
%TO.N,/PA2*%
X97790000Y-149860000D03*
%TO.P,U29,6,I2a*%
%TO.N,Net-(RR1-R2)*%
X95250000Y-149860000D03*
%TO.P,U29,7,O1b*%
%TO.N,/PA1*%
X92710000Y-149860000D03*
%TO.P,U29,8,I3a*%
%TO.N,Net-(RR1-R3)*%
X90170000Y-149860000D03*
%TO.P,U29,9,O0b*%
%TO.N,/PA0*%
X87630000Y-149860000D03*
%TO.P,U29,10,GND*%
%TO.N,VCC*%
X85090000Y-149860000D03*
%TO.P,U29,11,I0b*%
%TO.N,Net-(RR1-R4)*%
X85090000Y-157480000D03*
%TO.P,U29,12,O3a*%
%TO.N,/PA3*%
X87630000Y-157480000D03*
%TO.P,U29,13,I1b*%
%TO.N,Net-(RR1-R6)*%
X90170000Y-157480000D03*
%TO.P,U29,14,O2a*%
%TO.N,/PA2*%
X92710000Y-157480000D03*
%TO.P,U29,15,I2b*%
%TO.N,Net-(RR1-R7)*%
X95250000Y-157480000D03*
%TO.P,U29,16,O1a*%
%TO.N,/PA1*%
X97790000Y-157480000D03*
%TO.P,U29,17,I3b*%
%TO.N,Net-(RR1-R8)*%
X100330000Y-157480000D03*
%TO.P,U29,18,O0a*%
%TO.N,/PA0*%
X102870000Y-157480000D03*
%TO.P,U29,19,OEb*%
%TO.N,Net-(U29-OEb)*%
X105410000Y-157480000D03*
%TO.P,U29,20,VCC*%
%TO.N,GND*%
X107950000Y-157480000D03*
%TD*%
D25*
%TO.P,U14,1*%
%TO.N,GND*%
X107950000Y-122809000D03*
D26*
%TO.P,U14,2*%
%TO.N,unconnected-(U14-Pad2)*%
X105410000Y-122809000D03*
%TO.P,U14,3*%
%TO.N,GND*%
X102870000Y-122809000D03*
%TO.P,U14,4*%
%TO.N,unconnected-(U14-Pad4)*%
X100330000Y-122809000D03*
%TO.P,U14,5*%
%TO.N,GND*%
X97790000Y-122809000D03*
%TO.P,U14,6*%
%TO.N,unconnected-(U14-Pad6)*%
X95250000Y-122809000D03*
%TO.P,U14,7,Gnd*%
%TO.N,GND*%
X92710000Y-122809000D03*
%TO.P,U14,8*%
%TO.N,/SD Card/CLK*%
X92710000Y-130429000D03*
%TO.P,U14,9*%
%TO.N,/SPI_CLK*%
X95250000Y-130429000D03*
%TO.P,U14,10*%
%TO.N,/SD Card/CMD*%
X97790000Y-130429000D03*
%TO.P,U14,11*%
%TO.N,/SPI_MOSI*%
X100330000Y-130429000D03*
%TO.P,U14,12*%
%TO.N,/SD Card/DAT3*%
X102870000Y-130429000D03*
%TO.P,U14,13*%
%TO.N,/~{SPI_SS1}*%
X105410000Y-130429000D03*
%TO.P,U14,14,Vcc*%
%TO.N,VCC*%
X107950000Y-130429000D03*
%TD*%
D17*
%TO.P,R8,1*%
%TO.N,/PA4*%
X81915000Y-175260000D03*
D18*
%TO.P,R8,2*%
%TO.N,Net-(U11-PA4)*%
X86995000Y-175260000D03*
%TD*%
D17*
%TO.P,R41,1*%
%TO.N,Net-(U29-I0a)*%
X77470000Y-105410000D03*
D18*
%TO.P,R41,2*%
%TO.N,VCC*%
X77470000Y-110490000D03*
%TD*%
D25*
%TO.P,U4,1,A14*%
%TO.N,/EXT_A14*%
X234315000Y-163810000D03*
D26*
%TO.P,U4,2,A12*%
%TO.N,/CPU_A12*%
X231775000Y-163810000D03*
%TO.P,U4,3,A7*%
%TO.N,/CPU_A7*%
X229235000Y-163810000D03*
%TO.P,U4,4,A6*%
%TO.N,/CPU_A6*%
X226695000Y-163810000D03*
%TO.P,U4,5,A5*%
%TO.N,/CPU_A5*%
X224155000Y-163810000D03*
%TO.P,U4,6,A4*%
%TO.N,/CPU_A4*%
X221615000Y-163810000D03*
%TO.P,U4,7,A3*%
%TO.N,/CPU_A3*%
X219075000Y-163810000D03*
%TO.P,U4,8,A2*%
%TO.N,/CPU_A2*%
X216535000Y-163810000D03*
%TO.P,U4,9,A1*%
%TO.N,/CPU_A1*%
X213995000Y-163810000D03*
%TO.P,U4,10,A0*%
%TO.N,/CPU_A0*%
X211455000Y-163810000D03*
%TO.P,U4,11,D0*%
%TO.N,/CPU_D0*%
X208915000Y-163810000D03*
%TO.P,U4,12,D1*%
%TO.N,/CPU_D1*%
X206375000Y-163810000D03*
%TO.P,U4,13,D2*%
%TO.N,/CPU_D2*%
X203835000Y-163810000D03*
%TO.P,U4,14,GND*%
%TO.N,GND*%
X201295000Y-163810000D03*
%TO.P,U4,15,D3*%
%TO.N,/CPU_D3*%
X201295000Y-179050000D03*
%TO.P,U4,16,D4*%
%TO.N,/CPU_D4*%
X203835000Y-179050000D03*
%TO.P,U4,17,D5*%
%TO.N,/CPU_D5*%
X206375000Y-179050000D03*
%TO.P,U4,18,D6*%
%TO.N,/CPU_D6*%
X208915000Y-179050000D03*
%TO.P,U4,19,D7*%
%TO.N,/CPU_D7*%
X211455000Y-179050000D03*
%TO.P,U4,20,~{CS}*%
%TO.N,/~{CS_ROM}*%
X213995000Y-179050000D03*
%TO.P,U4,21,A10*%
%TO.N,/CPU_A10*%
X216535000Y-179050000D03*
%TO.P,U4,22,~{OE}*%
%TO.N,/~{OE}*%
X219075000Y-179050000D03*
%TO.P,U4,23,A11*%
%TO.N,/CPU_A11*%
X221615000Y-179050000D03*
%TO.P,U4,24,A9*%
%TO.N,/CPU_A9*%
X224155000Y-179050000D03*
%TO.P,U4,25,A8*%
%TO.N,/CPU_A8*%
X226695000Y-179050000D03*
%TO.P,U4,26,A13*%
%TO.N,/CPU_A13*%
X229235000Y-179050000D03*
%TO.P,U4,27,~{WE}*%
%TO.N,Net-(JP1-C)*%
X231775000Y-179050000D03*
%TO.P,U4,28,VCC*%
%TO.N,VCC*%
X234315000Y-179050000D03*
%TD*%
D39*
%TO.P,Port1,0,PAD*%
%TO.N,GND*%
X71755000Y-111760000D03*
X71755000Y-136760000D03*
D21*
%TO.P,Port1,1,1*%
%TO.N,Net-(RR1-R4)*%
X72055000Y-118720000D03*
D22*
%TO.P,Port1,2,2*%
%TO.N,Net-(RR1-R6)*%
X72055000Y-121490000D03*
%TO.P,Port1,3,3*%
%TO.N,Net-(RR1-R7)*%
X72055000Y-124260000D03*
%TO.P,Port1,4,4*%
%TO.N,Net-(RR1-R8)*%
X72055000Y-127030000D03*
%TO.P,Port1,5,5*%
%TO.N,unconnected-(Port1-Pad5)*%
X72055000Y-129800000D03*
%TO.P,Port1,6,6*%
%TO.N,Net-(RR1-R5)*%
X69215000Y-120105000D03*
%TO.P,Port1,7,7*%
%TO.N,VCC*%
X69215000Y-122875000D03*
%TO.P,Port1,8,8*%
%TO.N,GND*%
X69215000Y-125645000D03*
%TO.P,Port1,9,9*%
%TO.N,unconnected-(Port1-Pad9)*%
X69215000Y-128415000D03*
%TD*%
D17*
%TO.P,R9,1*%
%TO.N,/PA5*%
X81915000Y-180340000D03*
D18*
%TO.P,R9,2*%
%TO.N,Net-(U11-PA5)*%
X86995000Y-180340000D03*
%TD*%
D13*
%TO.P,J4,3*%
%TO.N,GND*%
X235137960Y-71960740D03*
%TO.P,J4,5*%
X241935000Y-71960740D03*
%TO.P,J4,6*%
%TO.N,/Video_Audio/Video_analog/Y_OUT*%
X235137960Y-74409300D03*
%TO.P,J4,8*%
%TO.N,/Video_Audio/Video_analog/C_OUT*%
X241935000Y-74460100D03*
D46*
%TO.P,J4,SH1*%
%TO.N,N/C*%
X245336060Y-68961000D03*
%TO.P,J4,SH2*%
X238536480Y-68163440D03*
%TO.P,J4,SH3*%
X231787700Y-68961000D03*
%TD*%
D17*
%TO.P,R11,1*%
%TO.N,/PA7*%
X81915000Y-172720000D03*
D18*
%TO.P,R11,2*%
%TO.N,Net-(U11-PA7)*%
X86995000Y-172720000D03*
%TD*%
D43*
%TO.P,C28,1*%
%TO.N,VCC*%
X238210000Y-118745000D03*
%TO.P,C28,2*%
%TO.N,GND*%
X238210000Y-121870000D03*
%TD*%
D17*
%TO.P,R37,1*%
%TO.N,Net-(U27-YTRAP)*%
X228600000Y-99060000D03*
D18*
%TO.P,R37,2*%
%TO.N,VCC*%
X228600000Y-93980000D03*
%TD*%
D27*
%TO.P,C30,1*%
%TO.N,VCC*%
X238125000Y-142190000D03*
%TO.P,C30,2*%
%TO.N,GND*%
X238125000Y-139065000D03*
%TD*%
D17*
%TO.P,R13,1*%
%TO.N,/CA2*%
X81915000Y-165100000D03*
D18*
%TO.P,R13,2*%
%TO.N,Net-(U11-CA2)*%
X86995000Y-165100000D03*
%TD*%
D13*
%TO.P,P4,1*%
%TO.N,Net-(IC1-PD6)*%
X125986540Y-71996300D03*
%TO.P,P4,2*%
%TO.N,Net-(IC1-PD7)*%
X128582420Y-71996300D03*
%TO.P,P4,3*%
%TO.N,GND*%
X123885960Y-71996300D03*
%TO.P,P4,5*%
%TO.N,VCC*%
X130683000Y-71996300D03*
%TO.P,P4,6*%
%TO.N,Net-(IC1-PD2)*%
X123885960Y-74444860D03*
%TO.P,P4,8*%
%TO.N,Net-(IC1-PD3)*%
X130683000Y-74495660D03*
D46*
%TO.P,P4,SH1*%
%TO.N,N/C*%
X134084060Y-68996560D03*
%TO.P,P4,SH2*%
X127284480Y-68199000D03*
%TO.P,P4,SH3*%
X120535700Y-68996560D03*
%TD*%
D47*
%TO.P,U9,1,VO*%
%TO.N,Net-(U15-VSS)*%
X111760000Y-69850000D03*
D48*
%TO.P,U9,2,GND*%
%TO.N,GND*%
X110490000Y-69850000D03*
%TO.P,U9,3,VI*%
%TO.N,VCC*%
X109220000Y-69850000D03*
%TD*%
D21*
%TO.P,IC1,1,PC6/~{RESET}*%
%TO.N,/~{RESET}*%
X148590000Y-149860000D03*
D30*
%TO.P,IC1,2,PD0*%
%TO.N,Net-(IC1-PD0)*%
X146050000Y-149860000D03*
%TO.P,IC1,3,PD1*%
%TO.N,Net-(IC1-PD1)*%
X143510000Y-149860000D03*
%TO.P,IC1,4,PD2*%
%TO.N,Net-(IC1-PD2)*%
X140970000Y-149860000D03*
%TO.P,IC1,5,PD3*%
%TO.N,Net-(IC1-PD3)*%
X138430000Y-149860000D03*
%TO.P,IC1,6,PD4*%
%TO.N,unconnected-(IC1-PD4-Pad6)*%
X135890000Y-149860000D03*
%TO.P,IC1,7,VCC*%
%TO.N,VCC*%
X133350000Y-149860000D03*
%TO.P,IC1,8,GND*%
%TO.N,GND*%
X130810000Y-149860000D03*
%TO.P,IC1,9,PB6/XTAL1*%
%TO.N,unconnected-(IC1-PB6{slash}XTAL1-Pad9)*%
X128270000Y-149860000D03*
%TO.P,IC1,10,PB7/XTAL2*%
%TO.N,unconnected-(IC1-PB7{slash}XTAL2-Pad10)*%
X125730000Y-149860000D03*
%TO.P,IC1,11,PD5*%
%TO.N,unconnected-(IC1-PD5-Pad11)*%
X123190000Y-149860000D03*
%TO.P,IC1,12,PD6*%
%TO.N,Net-(IC1-PD6)*%
X120650000Y-149860000D03*
%TO.P,IC1,13,PD7*%
%TO.N,Net-(IC1-PD7)*%
X118110000Y-149860000D03*
%TO.P,IC1,14,PB0*%
%TO.N,unconnected-(IC1-PB0-Pad14)*%
X115570000Y-149860000D03*
%TO.P,IC1,15,PB1*%
%TO.N,unconnected-(IC1-PB1-Pad15)*%
X115570000Y-157480000D03*
%TO.P,IC1,16,PB2*%
%TO.N,/~{SPI_SS1}*%
X118110000Y-157480000D03*
%TO.P,IC1,17,PB3*%
%TO.N,/SPI_MOSI*%
X120650000Y-157480000D03*
%TO.P,IC1,18,PB4*%
%TO.N,/SPI_MISO*%
X123190000Y-157480000D03*
%TO.P,IC1,19,PB5*%
%TO.N,/SPI_CLK*%
X125730000Y-157480000D03*
%TO.P,IC1,20,AVCC*%
%TO.N,VCC*%
X128270000Y-157480000D03*
%TO.P,IC1,21,AREF*%
X130810000Y-157480000D03*
%TO.P,IC1,22,AGND*%
%TO.N,GND*%
X133350000Y-157480000D03*
%TO.P,IC1,23,PC0*%
%TO.N,/RESET_TRIG*%
X135890000Y-157480000D03*
%TO.P,IC1,24,PC1*%
%TO.N,/~{NMI}*%
X138430000Y-157480000D03*
%TO.P,IC1,25,PC2*%
%TO.N,/~{IRQ}*%
X140970000Y-157480000D03*
%TO.P,IC1,26,PC3*%
%TO.N,unconnected-(IC1-PC3-Pad26)*%
X143510000Y-157480000D03*
%TO.P,IC1,27,PC4*%
%TO.N,unconnected-(IC1-PC4-Pad27)*%
X146050000Y-157480000D03*
%TO.P,IC1,28,PC5*%
%TO.N,unconnected-(IC1-PC5-Pad28)*%
X148590000Y-157480000D03*
%TD*%
D19*
%TO.P,C22,1*%
%TO.N,GND*%
X153162000Y-86106000D03*
D20*
%TO.P,C22,2*%
%TO.N,Net-(U8-VS-)*%
X151162000Y-86106000D03*
%TD*%
D21*
%TO.P,C49,1*%
%TO.N,Net-(C49-Pad1)*%
X242316000Y-81446380D03*
D22*
%TO.P,C49,2*%
%TO.N,/Video_Audio/Video_analog/C_OUT*%
X242316000Y-78946380D03*
%TD*%
D17*
%TO.P,R33,1*%
%TO.N,Net-(U27-ROUT)*%
X218440000Y-99060000D03*
D18*
%TO.P,R33,2*%
%TO.N,Net-(C50-Pad1)*%
X218440000Y-93980000D03*
%TD*%
D21*
%TO.P,C55,1*%
%TO.N,Net-(C55-Pad1)*%
X226060000Y-89535000D03*
D22*
%TO.P,C55,2*%
%TO.N,Net-(C55-Pad2)*%
X226060000Y-87035000D03*
%TD*%
D14*
%TO.P,C18,1*%
%TO.N,VCC*%
X262427323Y-86360000D03*
D15*
%TO.P,C18,2*%
%TO.N,GND*%
X267427323Y-86360000D03*
%TD*%
D23*
%TO.P,P2,1,Pin_1*%
%TO.N,GND*%
X153924000Y-150876000D03*
D24*
%TO.P,P2,2,Pin_2*%
%TO.N,Net-(IC1-PD0)*%
X153924000Y-153416000D03*
%TO.P,P2,3,Pin_3*%
%TO.N,Net-(IC1-PD1)*%
X153924000Y-155956000D03*
%TD*%
D31*
%TO.P,C63,1*%
%TO.N,VCC*%
X133935000Y-146685000D03*
%TO.P,C63,2*%
%TO.N,GND*%
X130810000Y-146685000D03*
%TD*%
D17*
%TO.P,R18,1*%
%TO.N,Net-(J2-Pad4)*%
X156337000Y-77597000D03*
D18*
%TO.P,R18,2*%
%TO.N,Net-(U8-VS+)*%
X161417000Y-77597000D03*
%TD*%
D43*
%TO.P,C27,1*%
%TO.N,VCC*%
X265515000Y-118795000D03*
%TO.P,C27,2*%
%TO.N,GND*%
X265515000Y-121920000D03*
%TD*%
D49*
%TO.P,Y1,1,1*%
%TO.N,Net-(U18-XTAL1)*%
X230680000Y-157480000D03*
%TO.P,Y1,2,2*%
%TO.N,Net-(U18-XTAL2)*%
X235560000Y-157480000D03*
%TD*%
D17*
%TO.P,R15,1*%
%TO.N,/~{SD_CARD_DETECT}*%
X107950000Y-80645000D03*
D18*
%TO.P,R15,2*%
%TO.N,Net-(U11-PB6)*%
X113030000Y-80645000D03*
%TD*%
D25*
%TO.P,U23,1,OE*%
%TO.N,GND*%
X261610000Y-118755000D03*
D26*
%TO.P,U23,2,DQ0*%
%TO.N,/Video_Audio/VDP_RD0*%
X259070000Y-118755000D03*
%TO.P,U23,3,DQ1*%
%TO.N,/Video_Audio/VDP_RD1*%
X256530000Y-118755000D03*
%TO.P,U23,4,WE*%
%TO.N,/Video_Audio/VDP_R~{W}*%
X253990000Y-118755000D03*
%TO.P,U23,5,RAS*%
%TO.N,/Video_Audio/{slash}RAS*%
X251450000Y-118755000D03*
%TO.P,U23,6,A6*%
%TO.N,/Video_Audio/VDP_AD6*%
X248910000Y-118755000D03*
%TO.P,U23,7,A5*%
%TO.N,/Video_Audio/VDP_AD5*%
X246370000Y-118755000D03*
%TO.P,U23,8,A4*%
%TO.N,/Video_Audio/VDP_AD4*%
X243830000Y-118755000D03*
%TO.P,U23,9,VCC*%
%TO.N,VCC*%
X241290000Y-118755000D03*
%TO.P,U23,10,A7*%
%TO.N,/Video_Audio/VDP_AD7*%
X241290000Y-126375000D03*
%TO.P,U23,11,A3*%
%TO.N,/Video_Audio/VDP_AD3*%
X243830000Y-126375000D03*
%TO.P,U23,12,A2*%
%TO.N,/Video_Audio/VDP_AD2*%
X246370000Y-126375000D03*
%TO.P,U23,13,A1*%
%TO.N,/Video_Audio/VDP_AD1*%
X248910000Y-126375000D03*
%TO.P,U23,14,A0*%
%TO.N,/Video_Audio/VDP_AD0*%
X251450000Y-126375000D03*
%TO.P,U23,15,DQ2*%
%TO.N,/Video_Audio/VDP_RD2*%
X253990000Y-126375000D03*
%TO.P,U23,16,CAS*%
%TO.N,/Video_Audio/{slash}CAS_X*%
X256530000Y-126375000D03*
%TO.P,U23,17,DQ3*%
%TO.N,/Video_Audio/VDP_RD3*%
X259070000Y-126375000D03*
%TO.P,U23,18,VSS*%
%TO.N,GND*%
X261610000Y-126375000D03*
%TD*%
D25*
%TO.P,U24,1,OE*%
%TO.N,GND*%
X288925000Y-118745000D03*
D26*
%TO.P,U24,2,DQ0*%
%TO.N,/Video_Audio/VDP_RD4*%
X286385000Y-118745000D03*
%TO.P,U24,3,DQ1*%
%TO.N,/Video_Audio/VDP_RD5*%
X283845000Y-118745000D03*
%TO.P,U24,4,WE*%
%TO.N,/Video_Audio/VDP_R~{W}*%
X281305000Y-118745000D03*
%TO.P,U24,5,RAS*%
%TO.N,/Video_Audio/{slash}RAS*%
X278765000Y-118745000D03*
%TO.P,U24,6,A6*%
%TO.N,/Video_Audio/VDP_AD6*%
X276225000Y-118745000D03*
%TO.P,U24,7,A5*%
%TO.N,/Video_Audio/VDP_AD5*%
X273685000Y-118745000D03*
%TO.P,U24,8,A4*%
%TO.N,/Video_Audio/VDP_AD4*%
X271145000Y-118745000D03*
%TO.P,U24,9,VCC*%
%TO.N,VCC*%
X268605000Y-118745000D03*
%TO.P,U24,10,A7*%
%TO.N,/Video_Audio/VDP_AD7*%
X268605000Y-126365000D03*
%TO.P,U24,11,A3*%
%TO.N,/Video_Audio/VDP_AD3*%
X271145000Y-126365000D03*
%TO.P,U24,12,A2*%
%TO.N,/Video_Audio/VDP_AD2*%
X273685000Y-126365000D03*
%TO.P,U24,13,A1*%
%TO.N,/Video_Audio/VDP_AD1*%
X276225000Y-126365000D03*
%TO.P,U24,14,A0*%
%TO.N,/Video_Audio/VDP_AD0*%
X278765000Y-126365000D03*
%TO.P,U24,15,DQ2*%
%TO.N,/Video_Audio/VDP_RD6*%
X281305000Y-126365000D03*
%TO.P,U24,16,CAS*%
%TO.N,/Video_Audio/{slash}CAS_X*%
X283845000Y-126365000D03*
%TO.P,U24,17,DQ3*%
%TO.N,/Video_Audio/VDP_RD7*%
X286385000Y-126365000D03*
%TO.P,U24,18,VSS*%
%TO.N,GND*%
X288925000Y-126365000D03*
%TD*%
D22*
%TO.P,C42,1*%
%TO.N,Net-(U26C--)*%
X195580000Y-102235000D03*
%TO.P,C42,2*%
%TO.N,Net-(C42-Pad2)*%
X198080000Y-102235000D03*
%TD*%
D21*
%TO.P,C40,1*%
%TO.N,Net-(U25-RB)*%
X188276112Y-86995000D03*
D22*
%TO.P,C40,2*%
%TO.N,GND*%
X185776112Y-86995000D03*
%TD*%
D21*
%TO.P,C52,1*%
%TO.N,VCC*%
X241300000Y-105370000D03*
D22*
%TO.P,C52,2*%
%TO.N,GND*%
X241300000Y-102870000D03*
%TD*%
D50*
%TO.P,U18,1,GND*%
%TO.N,GND*%
X233805000Y-133350000D03*
D51*
%TO.P,U18,2*%
%TO.N,N/C*%
X232025000Y-133350000D03*
%TO.P,U18,3*%
X230245000Y-133350000D03*
%TO.P,U18,4,VRESET*%
%TO.N,VCC*%
X228465000Y-133350000D03*
%TO.P,U18,5*%
%TO.N,N/C*%
X226685000Y-133350000D03*
%TO.P,U18,6,CSYNC*%
%TO.N,/Video_Audio/CSYNC*%
X224905000Y-133350000D03*
%TO.P,U18,7*%
%TO.N,N/C*%
X223125000Y-133350000D03*
%TO.P,U18,8,CPUCLK/VDS*%
%TO.N,/Video_Audio/OPL_CLK*%
X221345000Y-133350000D03*
%TO.P,U18,9,/RESET*%
%TO.N,/~{RESET}*%
X219565000Y-133350000D03*
%TO.P,U18,10*%
%TO.N,N/C*%
X217785000Y-133350000D03*
%TO.P,U18,11*%
X216005000Y-133350000D03*
%TO.P,U18,12*%
X214225000Y-133350000D03*
%TO.P,U18,13*%
X212445000Y-133350000D03*
%TO.P,U18,14*%
X210665000Y-133350000D03*
%TO.P,U18,15*%
X208885000Y-133350000D03*
%TO.P,U18,16*%
X207105000Y-133350000D03*
%TO.P,U18,17*%
X205325000Y-133350000D03*
%TO.P,U18,18*%
X203545000Y-133350000D03*
%TO.P,U18,19*%
X201765000Y-133350000D03*
%TO.P,U18,20,GND/DAC*%
%TO.N,GND*%
X199985000Y-133350000D03*
%TO.P,U18,21,VCC/DAC*%
%TO.N,VCC*%
X198205000Y-133350000D03*
%TO.P,U18,22,G*%
%TO.N,/Video_Audio/RGB_G*%
X196425000Y-133350000D03*
%TO.P,U18,23,R*%
%TO.N,/Video_Audio/RGB_R*%
X194645000Y-133350000D03*
%TO.P,U18,24,B*%
%TO.N,/Video_Audio/RGB_B*%
X192865000Y-133350000D03*
%TO.P,U18,25,/INT*%
%TO.N,/~{IRQ}*%
X191085000Y-133350000D03*
%TO.P,U18,26,/WAIT*%
%TO.N,Net-(JP2-B)*%
X189305000Y-133350000D03*
%TO.P,U18,27,/HRESET*%
%TO.N,VCC*%
X187525000Y-133350000D03*
%TO.P,U18,28,MODE1*%
%TO.N,/BUF_A1*%
X185745000Y-133350000D03*
%TO.P,U18,29,MODE0*%
%TO.N,/BUF_A0*%
X183965000Y-133350000D03*
%TO.P,U18,30,/CSW*%
%TO.N,/~{CSW_VDP}*%
X182185000Y-133350000D03*
%TO.P,U18,31,/CSR*%
%TO.N,/~{CSR_VDP}*%
X180405000Y-133350000D03*
%TO.P,U18,32,D7*%
%TO.N,/BUF_D7*%
X178625000Y-133350000D03*
%TO.P,U18,33,VBB*%
%TO.N,unconnected-(U18-VBB-Pad33)*%
X178625000Y-152450800D03*
%TO.P,U18,34,D6*%
%TO.N,/BUF_D6*%
X180405000Y-152450800D03*
%TO.P,U18,35,D5*%
%TO.N,/BUF_D5*%
X182185000Y-152450800D03*
%TO.P,U18,36,D4*%
%TO.N,/BUF_D4*%
X183965000Y-152450800D03*
%TO.P,U18,37,D3*%
%TO.N,/BUF_D3*%
X185745000Y-152450800D03*
%TO.P,U18,38,D2*%
%TO.N,/BUF_D2*%
X187525000Y-152450800D03*
%TO.P,U18,39,D1*%
%TO.N,/BUF_D1*%
X189305000Y-152450800D03*
%TO.P,U18,40,D0*%
%TO.N,/BUF_D0*%
X191085000Y-152450800D03*
%TO.P,U18,41,RD0*%
%TO.N,/Video_Audio/VDP_RD0*%
X192865000Y-152450800D03*
%TO.P,U18,42,RD1*%
%TO.N,/Video_Audio/VDP_RD1*%
X194645000Y-152450800D03*
%TO.P,U18,43,RD2*%
%TO.N,/Video_Audio/VDP_RD2*%
X196425000Y-152450800D03*
%TO.P,U18,44,RD3*%
%TO.N,/Video_Audio/VDP_RD3*%
X198205000Y-152450800D03*
%TO.P,U18,45,RD4*%
%TO.N,/Video_Audio/VDP_RD4*%
X199985000Y-152450800D03*
%TO.P,U18,46,RD5*%
%TO.N,/Video_Audio/VDP_RD5*%
X201765000Y-152450800D03*
%TO.P,U18,47,RD6*%
%TO.N,/Video_Audio/VDP_RD6*%
X203545000Y-152450800D03*
%TO.P,U18,48,RD7*%
%TO.N,/Video_Audio/VDP_RD7*%
X205325000Y-152450800D03*
%TO.P,U18,49,AD0*%
%TO.N,/Video_Audio/VDP_AD0*%
X207105000Y-152450800D03*
%TO.P,U18,50,AD1*%
%TO.N,/Video_Audio/VDP_AD1*%
X208885000Y-152450800D03*
%TO.P,U18,51,AD2*%
%TO.N,/Video_Audio/VDP_AD2*%
X210665000Y-152450800D03*
%TO.P,U18,52,AD3*%
%TO.N,/Video_Audio/VDP_AD3*%
X212445000Y-152450800D03*
%TO.P,U18,53,AD4*%
%TO.N,/Video_Audio/VDP_AD4*%
X214225000Y-152450800D03*
%TO.P,U18,54,AD5*%
%TO.N,/Video_Audio/VDP_AD5*%
X216005000Y-152450800D03*
%TO.P,U18,55,AD6*%
%TO.N,/Video_Audio/VDP_AD6*%
X217785000Y-152450800D03*
%TO.P,U18,56,AD7*%
%TO.N,/Video_Audio/VDP_AD7*%
X219565000Y-152450800D03*
%TO.P,U18,57,R/W*%
%TO.N,/Video_Audio/VDP_R~{W}*%
X221345000Y-152450800D03*
%TO.P,U18,58,VCC*%
%TO.N,VCC*%
X223125000Y-152450800D03*
%TO.P,U18,59,/CAS_X*%
%TO.N,/Video_Audio/{slash}CAS_X*%
X224905000Y-152450800D03*
%TO.P,U18,60,/CAS1*%
%TO.N,/Video_Audio/{slash}CAS1*%
X226685000Y-152450800D03*
%TO.P,U18,61,/CAS0*%
%TO.N,/Video_Audio/{slash}CAS0*%
X228465000Y-152450800D03*
%TO.P,U18,62,/RAS*%
%TO.N,/Video_Audio/{slash}RAS*%
X230245000Y-152450800D03*
%TO.P,U18,63,XTAL1*%
%TO.N,Net-(U18-XTAL1)*%
X232025000Y-152450800D03*
%TO.P,U18,64,XTAL2*%
%TO.N,Net-(U18-XTAL2)*%
X233805000Y-152450800D03*
%TD*%
D17*
%TO.P,R42,1*%
%TO.N,Net-(U7B-D)*%
X77470000Y-97790000D03*
D18*
%TO.P,R42,2*%
%TO.N,VCC*%
X77470000Y-102870000D03*
%TD*%
D52*
%TO.P,CON1,1*%
%TO.N,VCC*%
X259080000Y-77374000D03*
D53*
%TO.P,CON1,2*%
%TO.N,GND*%
X259080000Y-71374000D03*
D54*
%TO.P,CON1,3*%
%TO.N,N/C*%
X254380000Y-74374000D03*
%TD*%
D27*
%TO.P,C36,1*%
%TO.N,VCC*%
X81915000Y-149860000D03*
%TO.P,C36,2*%
%TO.N,GND*%
X81915000Y-146735000D03*
%TD*%
D12*
%TO.P,U1,1,VSS*%
%TO.N,GND*%
X182880000Y-182225000D03*
D13*
%TO.P,U1,2,~{VP}*%
%TO.N,unconnected-(U1-~{VP}-Pad2)*%
X180340000Y-179685000D03*
%TO.P,U1,3,RDY*%
%TO.N,/CPU_RDY*%
X180340000Y-182225000D03*
%TO.P,U1,4,\u03D51*%
%TO.N,unconnected-(U1-\u03D51-Pad4)*%
X177800000Y-179685000D03*
%TO.P,U1,5,~{IRQ}*%
%TO.N,/~{IRQ}*%
X177800000Y-182225000D03*
%TO.P,U1,6,~{ML}*%
%TO.N,unconnected-(U1-~{ML}-Pad6)*%
X175260000Y-179685000D03*
%TO.P,U1,7,~{NMI}*%
%TO.N,/~{NMI}*%
X172720000Y-182225000D03*
%TO.P,U1,8,SYNC*%
%TO.N,unconnected-(U1-SYNC-Pad8)*%
X175260000Y-182225000D03*
%TO.P,U1,9,VDD*%
%TO.N,VCC*%
X172720000Y-184765000D03*
%TO.P,U1,10,A0*%
%TO.N,/CPU_A0*%
X175260000Y-184765000D03*
%TO.P,U1,11,A1*%
%TO.N,/CPU_A1*%
X172720000Y-187305000D03*
%TO.P,U1,12,nc*%
%TO.N,unconnected-(U1-nc-Pad12)*%
X175260000Y-187305000D03*
%TO.P,U1,13,A2*%
%TO.N,/CPU_A2*%
X172720000Y-189845000D03*
%TO.P,U1,14,A3*%
%TO.N,/CPU_A3*%
X175260000Y-189845000D03*
%TO.P,U1,15,A4*%
%TO.N,/CPU_A4*%
X172720000Y-192385000D03*
%TO.P,U1,16,A5*%
%TO.N,/CPU_A5*%
X175260000Y-192385000D03*
%TO.P,U1,17,A6*%
%TO.N,/CPU_A6*%
X172720000Y-194925000D03*
%TO.P,U1,18,A7*%
%TO.N,/CPU_A7*%
X175260000Y-197465000D03*
%TO.P,U1,19,A8*%
%TO.N,/CPU_A8*%
X175260000Y-194925000D03*
%TO.P,U1,20,A9*%
%TO.N,/CPU_A9*%
X177800000Y-197465000D03*
%TO.P,U1,21,A10*%
%TO.N,/CPU_A10*%
X177800000Y-194925000D03*
%TO.P,U1,22,A11*%
%TO.N,/CPU_A11*%
X180340000Y-197465000D03*
%TO.P,U1,23,VSS*%
%TO.N,GND*%
X180340000Y-194925000D03*
%TO.P,U1,24,VSS*%
X182880000Y-197465000D03*
%TO.P,U1,25,A12*%
%TO.N,/CPU_A12*%
X182880000Y-194925000D03*
%TO.P,U1,26,A13*%
%TO.N,/CPU_A13*%
X185420000Y-197465000D03*
%TO.P,U1,27,A14*%
%TO.N,/CPU_A14*%
X185420000Y-194925000D03*
%TO.P,U1,28,A15*%
%TO.N,/CPU_A15*%
X187960000Y-197465000D03*
%TO.P,U1,29,D7*%
%TO.N,/CPU_D7*%
X190500000Y-194925000D03*
%TO.P,U1,30,D6*%
%TO.N,/CPU_D6*%
X187960000Y-194925000D03*
%TO.P,U1,31,D5*%
%TO.N,/CPU_D5*%
X190500000Y-192385000D03*
%TO.P,U1,32,D4*%
%TO.N,/CPU_D4*%
X187960000Y-192385000D03*
%TO.P,U1,33,D3*%
%TO.N,/CPU_D3*%
X190500000Y-189845000D03*
%TO.P,U1,34,D2*%
%TO.N,/CPU_D2*%
X187960000Y-189845000D03*
%TO.P,U1,35,D1*%
%TO.N,/CPU_D1*%
X190500000Y-187305000D03*
%TO.P,U1,36,D0*%
%TO.N,/CPU_D0*%
X187960000Y-187305000D03*
%TO.P,U1,37,VDD*%
%TO.N,VCC*%
X190500000Y-184765000D03*
%TO.P,U1,38,R/~{W}*%
%TO.N,/CPU_R~{W}*%
X187960000Y-184765000D03*
%TO.P,U1,39,nc*%
%TO.N,unconnected-(U1-nc-Pad39)*%
X190500000Y-182225000D03*
%TO.P,U1,40,BE*%
%TO.N,/~{BE}*%
X187960000Y-179685000D03*
%TO.P,U1,41,\u03D50*%
%TO.N,/PHI2*%
X187960000Y-182225000D03*
%TO.P,U1,42,~{SO}*%
%TO.N,unconnected-(U1-~{SO}-Pad42)*%
X185420000Y-179685000D03*
%TO.P,U1,43,\u03D52O*%
%TO.N,unconnected-(U1-\u03D52O-Pad43)*%
X185420000Y-182225000D03*
%TO.P,U1,44,~{RES}*%
%TO.N,/~{RESET}*%
X182880000Y-179685000D03*
%TD*%
D17*
%TO.P,R4,1*%
%TO.N,/PA0*%
X81915000Y-182880000D03*
D18*
%TO.P,R4,2*%
%TO.N,Net-(U11-PA0)*%
X86995000Y-182880000D03*
%TD*%
D17*
%TO.P,R16,1*%
%TO.N,VCC*%
X110998000Y-160528000D03*
D18*
%TO.P,R16,2*%
%TO.N,Net-(U6-MR)*%
X110998000Y-165608000D03*
%TD*%
D28*
%TO.P,X2,1,NC*%
%TO.N,unconnected-(X2-NC-Pad1)*%
X172720000Y-135255000D03*
D29*
%TO.P,X2,7,GND*%
%TO.N,GND*%
X157480000Y-135255000D03*
%TO.P,X2,8,FREQ*%
%TO.N,Net-(U6-XIN)*%
X157480000Y-142875000D03*
%TO.P,X2,14,+5V*%
%TO.N,VCC*%
X172720000Y-142875000D03*
%TD*%
D55*
%TO.N,GND*%
X149492200Y-200025000D03*
X259715000Y-193040000D03*
X113030000Y-168275000D03*
X263906000Y-139192000D03*
X242062000Y-177292000D03*
X168542200Y-124460000D03*
X272415000Y-177800000D03*
X92837000Y-91821000D03*
X111125000Y-138430000D03*
X88646000Y-98552000D03*
X111125000Y-125095000D03*
X81915000Y-144780000D03*
X263906000Y-133350000D03*
X195580000Y-108585000D03*
X220345000Y-104902000D03*
X247015000Y-187579000D03*
X265557000Y-123698000D03*
X254635000Y-185420000D03*
X245110000Y-196215000D03*
X220345000Y-110236000D03*
X174625000Y-88265000D03*
X239839000Y-125476000D03*
X134078116Y-166463116D03*
X239839000Y-123839490D03*
X238150400Y-137414000D03*
X166307000Y-168208848D03*
X193042411Y-190341712D03*
X196232561Y-167085561D03*
%TO.N,/~{WE}*%
X238125000Y-173292000D03*
X272415000Y-200025000D03*
%TO.N,/~{RESET}*%
X150611796Y-141803356D03*
X184277000Y-168148000D03*
X151360499Y-149860000D03*
X158446800Y-178435000D03*
X151003000Y-157099000D03*
X166370000Y-149225000D03*
X218186000Y-116205000D03*
X244729000Y-164973000D03*
X168542200Y-128715000D03*
%TO.N,/~{IRQ}*%
X167386000Y-161036000D03*
X140970000Y-161036000D03*
X199475426Y-129962767D03*
X171006323Y-183450677D03*
X161290000Y-177800000D03*
X168529000Y-138557000D03*
%TO.N,Net-(U11-PA6)*%
X91186000Y-181610000D03*
%TO.N,Net-(U11-PA7)*%
X133096000Y-184658000D03*
X126492000Y-176784000D03*
%TO.N,Net-(U11-CA1)*%
X92646000Y-176022000D03*
X90932000Y-167640000D03*
%TO.N,Net-(U11-CA2)*%
X112713000Y-160950410D03*
X135255000Y-160020000D03*
X112787165Y-164778107D03*
X136219364Y-175565636D03*
X151257000Y-177546000D03*
%TO.N,Net-(U11-PB6)*%
X113919000Y-189611000D03*
%TO.N,Net-(U6-MR)*%
X123317000Y-166728509D03*
X163957000Y-156972000D03*
%TO.N,/~{BE}*%
X165735000Y-178943000D03*
%TO.N,/CPU_RDY*%
X189230000Y-158115000D03*
X170053000Y-184785000D03*
X124090026Y-132397000D03*
X170929800Y-158115000D03*
X125857000Y-114300000D03*
X169545000Y-132969000D03*
%TO.N,/~{NMI}*%
X155575000Y-166007801D03*
X137985000Y-165989000D03*
X155575000Y-172911000D03*
%TO.N,/CPU_A0*%
X152019000Y-173736000D03*
X175387000Y-176657000D03*
%TO.N,/CPU_A1*%
X174142401Y-177596799D03*
%TO.N,/CPU_A2*%
X156718000Y-175641000D03*
X171663383Y-186380382D03*
X216535000Y-186500000D03*
%TO.N,/CPU_A3*%
X159385000Y-177546000D03*
X161798000Y-187198000D03*
X219075000Y-189103000D03*
%TO.N,/CPU_A4*%
X221615000Y-187071000D03*
X180340000Y-184150000D03*
%TO.N,/CPU_A5*%
X224155000Y-187960000D03*
%TO.N,/CPU_A6*%
X227876000Y-202754501D03*
X226695000Y-189230000D03*
%TO.N,/CPU_A7*%
X228981000Y-194755000D03*
X193421000Y-200025000D03*
X229235000Y-190500000D03*
X193929000Y-195326000D03*
%TO.N,/CPU_A8*%
X225425000Y-191389000D03*
%TO.N,/CPU_A9*%
X183388000Y-199263000D03*
X222885000Y-193040000D03*
%TO.N,/CPU_A10*%
X215265000Y-194310000D03*
X247904000Y-197612000D03*
X247269000Y-194691000D03*
%TO.N,/CPU_A11*%
X221491713Y-195421299D03*
%TO.N,/CPU_A12*%
X232771908Y-196869092D03*
%TO.N,/CPU_A13*%
X257048000Y-199964996D03*
%TO.N,/CPU_A14*%
X255564543Y-202883000D03*
X186690000Y-202311000D03*
%TO.N,/CPU_A15*%
X192151000Y-199263000D03*
X259715000Y-203072998D03*
%TO.N,/CPU_D7*%
X210185000Y-194840299D03*
X211074000Y-181483000D03*
%TO.N,/CPU_D6*%
X208407000Y-181927000D03*
X207713760Y-194119000D03*
%TO.N,/CPU_D5*%
X205105000Y-192405000D03*
%TO.N,/CPU_D4*%
X202633760Y-191552000D03*
%TO.N,/CPU_D3*%
X200025000Y-190754000D03*
%TO.N,/CPU_D2*%
X205105000Y-172640495D03*
X185801000Y-192405000D03*
X203835000Y-189865000D03*
%TO.N,/CPU_D1*%
X206375000Y-189103000D03*
X207691580Y-166624000D03*
%TO.N,/CPU_D0*%
X210185000Y-169672000D03*
X208915000Y-187960000D03*
%TO.N,/PHI2*%
X184277000Y-205041000D03*
X155575000Y-204216000D03*
X267335000Y-203200000D03*
%TO.N,/~{W}*%
X260632114Y-163385000D03*
X167335200Y-159258000D03*
X174838877Y-114011596D03*
%TO.N,/~{CSW_VDP}*%
X267004800Y-154127200D03*
X176016038Y-154216600D03*
%TO.N,/~{R}*%
X272669000Y-158242000D03*
X173075600Y-153720800D03*
X176733200Y-113842800D03*
%TO.N,/RESET_TRIG*%
X123317000Y-174752000D03*
X119380000Y-147193000D03*
X136191994Y-174371538D03*
%TO.N,/~{OE}*%
X268351000Y-201422000D03*
X218928908Y-174351908D03*
%TO.N,/EXT_A14*%
X234315000Y-192278000D03*
%TO.N,/EXT_A17*%
X263949331Y-200724000D03*
X235792171Y-201739000D03*
%TO.N,/EXT_A16*%
X236347000Y-193358000D03*
%TO.N,/EXT_A15*%
X238010408Y-201562976D03*
X261947053Y-200723000D03*
%TO.N,/~{CS_RAM}*%
X269875000Y-202819000D03*
%TO.N,Net-(U6-INTR)*%
X128905000Y-130683000D03*
X156210000Y-131572000D03*
%TO.N,/BUF_D0*%
X169418000Y-106426000D03*
X147475772Y-106687443D03*
%TO.N,/BUF_D1*%
X188163200Y-157073600D03*
X156972000Y-107112798D03*
X146939000Y-107696000D03*
X165455600Y-151180800D03*
X157734000Y-114427000D03*
%TO.N,/BUF_D2*%
X174752000Y-147574000D03*
X167386000Y-104776000D03*
X145791895Y-104878401D03*
%TO.N,/BUF_D3*%
X165174171Y-105601000D03*
X175683501Y-142965476D03*
X143315899Y-105387929D03*
%TO.N,/BUF_D4*%
X166116000Y-102870000D03*
X175958500Y-144462500D03*
%TO.N,/BUF_D5*%
X163830000Y-104458000D03*
X177342800Y-147777200D03*
%TO.N,/BUF_D6*%
X178020139Y-149379798D03*
X179019200Y-124002800D03*
%TO.N,/BUF_D7*%
X179171162Y-131309455D03*
X185166000Y-131368800D03*
X146964400Y-111048800D03*
X148945600Y-107797600D03*
%TO.N,Net-(U6-RCLK)*%
X152400000Y-113411000D03*
%TO.N,/~{CS_UART}*%
X161163000Y-161734000D03*
%TO.N,Net-(U6-XIN)*%
X152273000Y-115697000D03*
%TO.N,/~{BUF_WE}*%
X144907000Y-114300000D03*
X142244939Y-105785868D03*
%TO.N,/~{BUF_OE}*%
X144653000Y-119253000D03*
X143383000Y-107823000D03*
%TO.N,/BUF_A2*%
X158369000Y-161734000D03*
X148904456Y-128200155D03*
%TO.N,/BUF_A1*%
X171462184Y-125171200D03*
X172415200Y-131826000D03*
X145507344Y-127154501D03*
X145669000Y-95250000D03*
%TO.N,/BUF_A0*%
X184035831Y-130035800D03*
X193040000Y-130175000D03*
X149887942Y-130424234D03*
%TO.N,Net-(BT1-+)*%
X141224000Y-123535000D03*
%TO.N,/SPI_MISO*%
X135572000Y-153035000D03*
%TO.N,/~{SPI_SS1}*%
X99060000Y-128143000D03*
X105156000Y-188595000D03*
X114833499Y-145288000D03*
%TO.N,/~{CS_VIA}*%
X258267200Y-203581000D03*
%TO.N,/BUF_R~{W}*%
X141887866Y-102822584D03*
%TO.N,/BUF_PHI2*%
X142367000Y-116205000D03*
%TO.N,Net-(JP2-B)*%
X237744000Y-159575000D03*
X235966000Y-140348200D03*
X228854000Y-140348200D03*
%TO.N,/~{CS_OPL}*%
X185420000Y-116789200D03*
X236093000Y-120523000D03*
X242951000Y-165862000D03*
%TO.N,/Video_Audio/Audio_analog/fl*%
X194310000Y-109220000D03*
%TO.N,Net-(IC1-PD2)*%
X117589800Y-121624606D03*
X137160000Y-121031000D03*
%TO.N,/Video_Audio/{slash}CAS_X*%
X235712000Y-130048000D03*
%TO.N,/Video_Audio/{slash}CAS1*%
X255270001Y-151829000D03*
%TO.N,/Video_Audio/{slash}CAS0*%
X228562850Y-147765000D03*
%TO.N,/Video_Audio/{slash}RAS*%
X252730000Y-151448499D03*
%TO.N,/PA0*%
X85852000Y-171261000D03*
X88773000Y-170688000D03*
X88900000Y-160147000D03*
%TO.N,/PA1*%
X77978000Y-172085000D03*
X94440054Y-154114000D03*
X80010000Y-154285292D03*
%TO.N,/PA2*%
X85471000Y-160147000D03*
X84836000Y-168910000D03*
%TO.N,/PA3*%
X78688470Y-169225390D03*
X87376000Y-162433000D03*
X78360000Y-158016808D03*
%TO.N,/PA4*%
X79185000Y-165100000D03*
X79566499Y-138557000D03*
%TO.N,/PA5*%
X79401356Y-167126600D03*
%TO.N,/PA6*%
X80454000Y-162560000D03*
%TO.N,/PA7*%
X83566000Y-163791000D03*
%TO.N,/CA2*%
X81280000Y-151765000D03*
%TO.N,/CA1*%
X81280000Y-153035000D03*
%TO.N,/~{CS_SLOT1}*%
X159461200Y-155651200D03*
X254254000Y-160883600D03*
X118414800Y-128574800D03*
X157734000Y-131673600D03*
%TO.N,/~{CS_SLOT0}*%
X169418000Y-135255000D03*
X264464800Y-161645600D03*
X169859922Y-159839171D03*
X134620000Y-133146800D03*
%TO.N,/SD Card/DAT0*%
X100076000Y-101473000D03*
%TO.N,Net-(RR1-R6)*%
X83793501Y-115212503D03*
%TO.N,Net-(RR1-R7)*%
X90297000Y-116840000D03*
X100520000Y-154178000D03*
%TO.N,Net-(U29-I0a)*%
X88519000Y-144145000D03*
X87505505Y-107772957D03*
X105410000Y-147701000D03*
%TO.N,Net-(RR1-R8)*%
X84201000Y-153289000D03*
X99695000Y-151765000D03*
%TO.N,Net-(RR1-R5)*%
X85090000Y-134038221D03*
X85028996Y-114186006D03*
%TO.N,Net-(U29-OEb)*%
X95088267Y-160901498D03*
%TO.N,/~{JOYPORT_ENABLE}*%
X113030000Y-127000000D03*
%TO.N,Net-(U30-CE)*%
X134112000Y-164211000D03*
%TO.N,/~{CSR_VDP}*%
X174858494Y-155866600D03*
X254031180Y-156273000D03*
%TO.N,/Video_Audio/VDP_R~{W}*%
X221488000Y-142748000D03*
X254475842Y-145671006D03*
X281305000Y-146812000D03*
%TO.N,/Video_Audio/VDP_RD4*%
X287655000Y-135890000D03*
%TO.N,Net-(U7B-D)*%
X88712360Y-134747000D03*
%TO.N,/Video_Audio/VDP_RD0*%
X260350000Y-132588000D03*
%TO.N,/Video_Audio/VDP_RD1*%
X256540000Y-133350000D03*
%TO.N,/Video_Audio/VDP_RD2*%
X254000000Y-133993996D03*
%TO.N,/Video_Audio/VDP_RD3*%
X259080000Y-133985000D03*
%TO.N,/Video_Audio/VDP_RD5*%
X285115000Y-136779000D03*
%TO.N,/Video_Audio/VDP_RD6*%
X281295000Y-136398000D03*
%TO.N,/Video_Audio/VDP_RD7*%
X285115000Y-144526000D03*
%TO.N,/Video_Audio/VDP_AD0*%
X277585806Y-145987000D03*
X250317000Y-145224000D03*
%TO.N,/Video_Audio/VDP_AD1*%
X274955000Y-146619503D03*
X247650000Y-145731501D03*
%TO.N,/Video_Audio/VDP_AD2*%
X210693000Y-148590000D03*
%TO.N,/Video_Audio/VDP_AD3*%
X242570000Y-146366002D03*
X269657189Y-147003507D03*
X212598000Y-146558000D03*
%TO.N,/Video_Audio/VDP_AD4*%
X271145000Y-123959000D03*
X245110000Y-124079000D03*
X215900000Y-143002000D03*
%TO.N,/Video_Audio/VDP_AD5*%
X246382207Y-146874498D03*
X273685000Y-147701000D03*
X216027000Y-147574000D03*
%TO.N,/Video_Audio/VDP_AD6*%
X249936000Y-140018000D03*
X217805000Y-142240000D03*
%TO.N,/Video_Audio/VDP_AD7*%
X219557600Y-149758400D03*
%TD*%
D56*
%TO.N,GND*%
X196215000Y-168275000D02*
X196215000Y-167103122D01*
X176530000Y-88265000D02*
X174625000Y-88265000D01*
X110490000Y-67602500D02*
X110490000Y-69850000D01*
X238210000Y-127558000D02*
X239839000Y-125929000D01*
X220345000Y-112395000D02*
X220345000Y-110236000D01*
X151765000Y-140335000D02*
X148336000Y-136906000D01*
X263933000Y-139165000D02*
X263906000Y-139192000D01*
X133985000Y-166556232D02*
X134078116Y-166463116D01*
X238210000Y-122210490D02*
X239839000Y-123839490D01*
X228931000Y-109270000D02*
X236855000Y-109270000D01*
X238125000Y-139065000D02*
X238125000Y-137439400D01*
X165100000Y-168275000D02*
X166240848Y-168275000D01*
X92710000Y-91948000D02*
X92837000Y-91821000D01*
X112052500Y-66040000D02*
X110490000Y-67602500D01*
X227965000Y-110236000D02*
X228931000Y-109270000D01*
X111125000Y-127381000D02*
X111125000Y-125095000D01*
X111125000Y-140716000D02*
X111125000Y-138430000D01*
X239839000Y-125929000D02*
X239839000Y-125476000D01*
X241300000Y-102870000D02*
X237147500Y-102870000D01*
X88607500Y-98513500D02*
X88646000Y-98552000D01*
X112903000Y-168402000D02*
X113030000Y-168275000D01*
X265515000Y-123656000D02*
X265557000Y-123698000D01*
X89410000Y-95971500D02*
X89410000Y-93980000D01*
X227965000Y-112395000D02*
X227965000Y-110236000D01*
X110998000Y-168402000D02*
X112903000Y-168402000D01*
X220345000Y-103095000D02*
X220345000Y-104902000D01*
X133985000Y-168275000D02*
X133985000Y-166556232D01*
X130810000Y-146685000D02*
X130810000Y-149860000D01*
X243205000Y-196215000D02*
X245110000Y-196215000D01*
X166240848Y-168275000D02*
X166307000Y-168208848D01*
X197612000Y-108458000D02*
X195707000Y-108458000D01*
X238125000Y-137439400D02*
X238150400Y-137414000D01*
X196215000Y-167103122D02*
X196232561Y-167085561D01*
X88607500Y-96774000D02*
X89410000Y-95971500D01*
X263906000Y-133350000D02*
X265515000Y-133350000D01*
X81915000Y-146735000D02*
X81915000Y-144780000D01*
X88607500Y-96774000D02*
X88607500Y-98513500D01*
X240361000Y-177292000D02*
X242062000Y-177292000D01*
X241300000Y-109260000D02*
X236865000Y-109260000D01*
X195707000Y-108458000D02*
X195580000Y-108585000D01*
X265515000Y-121920000D02*
X265515000Y-123656000D01*
X265515000Y-139165000D02*
X263933000Y-139165000D01*
X92710000Y-93980000D02*
X92710000Y-91948000D01*
%TO.N,VCC*%
X81915000Y-149860000D02*
X85090000Y-149860000D01*
X265515000Y-130225000D02*
X266110000Y-130820000D01*
X241290000Y-118755000D02*
X238220000Y-118755000D01*
X226695000Y-104648000D02*
X226695000Y-103095000D01*
X151461000Y-143764000D02*
X148336000Y-143764000D01*
X266110000Y-130820000D02*
X268595000Y-130820000D01*
X265565000Y-142240000D02*
X268605000Y-142240000D01*
X109220000Y-66332500D02*
X109220000Y-69850000D01*
X179705000Y-88315000D02*
X179705000Y-91440000D01*
X111048000Y-143764000D02*
X107950000Y-143764000D01*
X235204000Y-177292000D02*
X234315000Y-178181000D01*
X236562500Y-105410000D02*
X227457000Y-105410000D01*
X165065000Y-171435000D02*
X161925000Y-171435000D01*
X236855000Y-112395000D02*
X234315000Y-112395000D01*
X237490000Y-111760000D02*
X236855000Y-112395000D01*
X193040000Y-171450000D02*
X196165000Y-171450000D01*
X133350000Y-147270000D02*
X133350000Y-149860000D01*
X133935000Y-146685000D02*
X133350000Y-147270000D01*
X265565000Y-118745000D02*
X268605000Y-118745000D01*
X243155000Y-199390000D02*
X239395000Y-199390000D01*
X241300000Y-111760000D02*
X237490000Y-111760000D01*
X238185000Y-142250000D02*
X241290000Y-142250000D01*
X227457000Y-105410000D02*
X226695000Y-104648000D01*
X237236000Y-177292000D02*
X235204000Y-177292000D01*
X241300000Y-105370000D02*
X237187500Y-105370000D01*
X133950000Y-171435000D02*
X130942000Y-171435000D01*
X238337000Y-130810000D02*
X241300000Y-130810000D01*
X200660000Y-108535000D02*
X200660000Y-111760000D01*
X111048000Y-130429000D02*
X107950000Y-130429000D01*
X110906000Y-171435000D02*
X107701000Y-171435000D01*
%TO.N,/~{WE}*%
X271656996Y-199266996D02*
X254964765Y-199266996D01*
X239888581Y-197993000D02*
X239831581Y-197936000D01*
X239831581Y-197936000D02*
X233229000Y-197936000D01*
X181826000Y-170507309D02*
X181826000Y-172286581D01*
X254765561Y-199466200D02*
X246075200Y-199466200D01*
X204801106Y-173481501D02*
X204801605Y-173482000D01*
X166793544Y-169572001D02*
X167173547Y-169191998D01*
X180510689Y-169191998D02*
X181826000Y-170507309D01*
X155767999Y-169572001D02*
X166793544Y-169572001D01*
X254964765Y-199266996D02*
X254765561Y-199466200D01*
X246075200Y-199466200D02*
X244602000Y-197993000D01*
X233229000Y-197936000D02*
X231775000Y-199390000D01*
X272415000Y-200025000D02*
X271656996Y-199266996D01*
X167173547Y-169191998D02*
X180510689Y-169191998D01*
X244602000Y-197993000D02*
X239888581Y-197993000D01*
X181826000Y-172286581D02*
X183020920Y-173481501D01*
X154305000Y-171035000D02*
X155767999Y-169572001D01*
X237935000Y-173482000D02*
X238125000Y-173292000D01*
X183020920Y-173481501D02*
X204801106Y-173481501D01*
X204801605Y-173482000D02*
X237935000Y-173482000D01*
%TO.N,Net-(JP1-C)*%
X235458000Y-180721000D02*
X233446000Y-180721000D01*
X240665000Y-180340000D02*
X239395000Y-179070000D01*
X239395000Y-179070000D02*
X237109000Y-179070000D01*
X233446000Y-180721000D02*
X231775000Y-179050000D01*
X237109000Y-179070000D02*
X235458000Y-180721000D01*
%TO.N,/TDO*%
X260985000Y-167365395D02*
X265168595Y-163181800D01*
X252095000Y-175260000D02*
X256179605Y-175260000D01*
X273698200Y-163181800D02*
X276479000Y-160401000D01*
X260985000Y-170454605D02*
X260985000Y-167365395D01*
X265168595Y-163181800D02*
X273698200Y-163181800D01*
X256179605Y-175260000D02*
X260985000Y-170454605D01*
%TO.N,/~{RESET}*%
X219565000Y-133350000D02*
X218244200Y-132029200D01*
X140480813Y-156299000D02*
X149865580Y-156299000D01*
X240284000Y-164973000D02*
X244729000Y-164973000D01*
X119423000Y-165396000D02*
X124681000Y-165396000D01*
X168669699Y-180961301D02*
X168148000Y-181483000D01*
X203047600Y-128930400D02*
X168757600Y-128930400D01*
X139700000Y-157079813D02*
X140480813Y-156299000D01*
X147492440Y-138684000D02*
X150611796Y-141803356D01*
X194691000Y-165735000D02*
X239522000Y-165735000D01*
X123190000Y-116840000D02*
X129794000Y-116840000D01*
X192278000Y-168148000D02*
X194691000Y-165735000D01*
X129860284Y-161417000D02*
X136163187Y-161417000D01*
X129794000Y-116840000D02*
X131025000Y-115609000D01*
X84814927Y-161100499D02*
X78654428Y-154940000D01*
X131025000Y-115609000D02*
X137751286Y-115609000D01*
X124460000Y-138684000D02*
X147492440Y-138684000D01*
X124681000Y-165396000D02*
X125862000Y-164215000D01*
X127580000Y-162234000D02*
X129043284Y-162234000D01*
X195580000Y-111760000D02*
X200025000Y-116205000D01*
X151995499Y-149225000D02*
X151360499Y-149860000D01*
X168757600Y-128930400D02*
X168542200Y-128715000D01*
X149865580Y-156299000D02*
X150753580Y-157187000D01*
X218244200Y-132029200D02*
X206146400Y-132029200D01*
X182880000Y-179685000D02*
X181603699Y-180961301D01*
X200025000Y-116205000D02*
X218186000Y-116205000D01*
X78654428Y-154940000D02*
X76200000Y-154940000D01*
X137751286Y-115609000D02*
X138982286Y-116840000D01*
X129043284Y-162234000D02*
X129860284Y-161417000D01*
X161494800Y-181483000D02*
X158446800Y-178435000D01*
X150915000Y-157187000D02*
X151003000Y-157099000D01*
X239522000Y-165735000D02*
X240284000Y-164973000D01*
X136163187Y-161417000D02*
X139700000Y-157880187D01*
X168148000Y-181483000D02*
X161494800Y-181483000D01*
X87927940Y-161100499D02*
X84814927Y-161100499D01*
X166370000Y-149225000D02*
X151995499Y-149225000D01*
X139700000Y-157880187D02*
X139700000Y-157079813D01*
X181603699Y-180961301D02*
X168669699Y-180961301D01*
X125999000Y-163815000D02*
X127580000Y-162234000D01*
X88553940Y-161726499D02*
X87927940Y-161100499D01*
X184277000Y-168148000D02*
X192278000Y-168148000D01*
X118242000Y-164215000D02*
X119423000Y-165396000D01*
X206146400Y-132029200D02*
X203047600Y-128930400D01*
X116153499Y-161726499D02*
X88553940Y-161726499D01*
X150753580Y-157187000D02*
X150915000Y-157187000D01*
X118242000Y-163815000D02*
X116153499Y-161726499D01*
X148590000Y-149860000D02*
X151360499Y-149860000D01*
%TO.N,/~{IRQ}*%
X170120517Y-138545059D02*
X170117499Y-138542041D01*
X137712286Y-110490000D02*
X138982286Y-111760000D01*
X176574323Y-183450677D02*
X171006323Y-183450677D01*
X79167714Y-156171000D02*
X84604714Y-161608000D01*
X84604714Y-161608000D02*
X87717727Y-161608000D01*
X115611501Y-165903501D02*
X126313499Y-165903501D01*
X185639941Y-138545059D02*
X170120517Y-138545059D01*
X140970000Y-161036000D02*
X167386000Y-161036000D01*
X73660000Y-154940000D02*
X74891000Y-156171000D01*
X123190000Y-111760000D02*
X124460000Y-110490000D01*
X199356460Y-129843801D02*
X199475426Y-129962767D01*
X190835000Y-133350000D02*
X185639941Y-138545059D01*
X140970000Y-157480000D02*
X136497501Y-161952499D01*
X130264501Y-161952499D02*
X128402000Y-163815000D01*
X170102540Y-138557000D02*
X170117499Y-138542041D01*
X87717727Y-161608000D02*
X88343727Y-162234000D01*
X74891000Y-156171000D02*
X79167714Y-156171000D01*
X191085000Y-133350000D02*
X194591199Y-129843801D01*
X124460000Y-110490000D02*
X137712286Y-110490000D01*
X161290000Y-177800000D02*
X166878000Y-177800000D01*
X136497501Y-161952499D02*
X130264501Y-161952499D01*
X88343727Y-162234000D02*
X111942000Y-162234000D01*
X111942000Y-162234000D02*
X115611501Y-165903501D01*
X168529000Y-138557000D02*
X170102540Y-138557000D01*
X177800000Y-182225000D02*
X176574323Y-183450677D01*
X194591199Y-129843801D02*
X199356460Y-129843801D01*
X126313499Y-165903501D02*
X128402000Y-163815000D01*
%TO.N,Net-(U11-PA0)*%
X148062000Y-180848000D02*
X149225000Y-179685000D01*
X86995000Y-182880000D02*
X89249701Y-180625299D01*
X89249701Y-180625299D02*
X142267618Y-180625299D01*
X142490320Y-180848000D02*
X148062000Y-180848000D01*
X142267618Y-180625299D02*
X142490320Y-180848000D01*
%TO.N,Net-(U11-PA1)*%
X88900000Y-186055000D02*
X86995000Y-187960000D01*
X149225000Y-182225000D02*
X145395000Y-186055000D01*
X145395000Y-186055000D02*
X88900000Y-186055000D01*
%TO.N,Net-(U11-PA2)*%
X88011000Y-177800000D02*
X89154000Y-178943000D01*
X86995000Y-177800000D02*
X88011000Y-177800000D01*
X96266000Y-178943000D02*
X96647000Y-178562000D01*
X89154000Y-178943000D02*
X96266000Y-178943000D01*
X145562000Y-178562000D02*
X146685000Y-179685000D01*
X96647000Y-178562000D02*
X145562000Y-178562000D01*
%TO.N,Net-(U11-PA3)*%
X124460000Y-185420000D02*
X126562800Y-183317200D01*
X86995000Y-185420000D02*
X124460000Y-185420000D01*
X126562800Y-183317200D02*
X145592800Y-183317200D01*
X145592800Y-183317200D02*
X146685000Y-182225000D01*
%TO.N,Net-(U11-PA4)*%
X85852000Y-178185765D02*
X85852000Y-176403000D01*
X88021902Y-178881000D02*
X86547235Y-178881000D01*
X88825902Y-179685000D02*
X88021902Y-178881000D01*
X85852000Y-176403000D02*
X86995000Y-175260000D01*
X144145000Y-179685000D02*
X88825902Y-179685000D01*
X86547235Y-178881000D02*
X85852000Y-178185765D01*
%TO.N,Net-(U11-PA5)*%
X141605000Y-182225000D02*
X141020301Y-182809699D01*
X85852000Y-181483000D02*
X86995000Y-180340000D01*
X141020301Y-182809699D02*
X126352586Y-182809699D01*
X86547235Y-183961000D02*
X85852000Y-183265765D01*
X85852000Y-183265765D02*
X85852000Y-181483000D01*
X125201286Y-183961000D02*
X86547235Y-183961000D01*
X126352586Y-182809699D02*
X125201286Y-183961000D01*
%TO.N,Net-(U11-PA6)*%
X91186000Y-181610000D02*
X91313000Y-181737000D01*
X141152595Y-181132800D02*
X142057405Y-181132800D01*
X142057405Y-181132800D02*
X143149605Y-182225000D01*
X91313000Y-181737000D02*
X140548395Y-181737000D01*
X140548395Y-181737000D02*
X141152595Y-181132800D01*
X143149605Y-182225000D02*
X144145000Y-182225000D01*
%TO.N,Net-(U11-PA7)*%
X90510727Y-172720000D02*
X86995000Y-172720000D01*
X141585000Y-184785000D02*
X133223000Y-184785000D01*
X133223000Y-184785000D02*
X133096000Y-184658000D01*
X94574727Y-176784000D02*
X90510727Y-172720000D01*
X126492000Y-176784000D02*
X94574727Y-176784000D01*
%TO.N,Net-(U11-CA1)*%
X94677501Y-178053501D02*
X92646000Y-176022000D01*
X151765000Y-179685000D02*
X150133501Y-178053501D01*
X86995000Y-167640000D02*
X90932000Y-167640000D01*
X150133501Y-178053501D02*
X94677501Y-178053501D01*
%TO.N,Net-(U11-CA2)*%
X108585499Y-165988501D02*
X110047000Y-164527000D01*
X86995000Y-165100000D02*
X87883501Y-165988501D01*
X134493000Y-160782000D02*
X112881410Y-160782000D01*
X110047000Y-164527000D02*
X112536058Y-164527000D01*
X151257000Y-177546000D02*
X138199728Y-177546000D01*
X135255000Y-160020000D02*
X134493000Y-160782000D01*
X138199728Y-177546000D02*
X136219364Y-175565636D01*
X112536058Y-164527000D02*
X112787165Y-164778107D01*
X112881410Y-160782000D02*
X112713000Y-160950410D01*
X87883501Y-165988501D02*
X108585499Y-165988501D01*
%TO.N,Net-(U11-PB6)*%
X136291000Y-189611000D02*
X113919000Y-189611000D01*
X141605000Y-194925000D02*
X136291000Y-189611000D01*
%TO.N,Net-(U6-MR)*%
X133223000Y-163068000D02*
X133223000Y-164296000D01*
X133223000Y-164296000D02*
X130895000Y-166624000D01*
X137741814Y-163068000D02*
X133223000Y-163068000D01*
X110998000Y-165608000D02*
X112118509Y-166728509D01*
X141678814Y-159131000D02*
X137741814Y-163068000D01*
X130895000Y-166624000D02*
X123421509Y-166624000D01*
X161798000Y-159131000D02*
X141678814Y-159131000D01*
X163957000Y-156972000D02*
X161798000Y-159131000D01*
X112118509Y-166728509D02*
X123317000Y-166728509D01*
X123421509Y-166624000D02*
X123317000Y-166728509D01*
%TO.N,/~{BE}*%
X174394727Y-178511200D02*
X186786200Y-178511200D01*
X173748200Y-179157727D02*
X174394727Y-178511200D01*
X186786200Y-178511200D02*
X187960000Y-179685000D01*
X165735000Y-178943000D02*
X165949727Y-179157727D01*
X165949727Y-179157727D02*
X173748200Y-179157727D01*
%TO.N,/CPU_RDY*%
X236016476Y-158623000D02*
X238379000Y-158623000D01*
X189230000Y-158115000D02*
X170929800Y-158115000D01*
X138469000Y-113069000D02*
X139700000Y-114300000D01*
X180340000Y-182225000D02*
X179557501Y-183007499D01*
X234492476Y-160147000D02*
X236016476Y-158623000D01*
X140272864Y-133468501D02*
X143323137Y-133468501D01*
X143323137Y-133468501D02*
X143822638Y-132969000D01*
X176796616Y-185730200D02*
X172014200Y-185730200D01*
X179519317Y-183007499D02*
X176796616Y-185730200D01*
X139201363Y-132397000D02*
X140272864Y-133468501D01*
X260516000Y-158916000D02*
X261620000Y-160020000D01*
X179557501Y-183007499D02*
X179519317Y-183007499D01*
X123190000Y-114300000D02*
X129540000Y-114300000D01*
X124090026Y-132397000D02*
X139201363Y-132397000D01*
X129540000Y-114300000D02*
X130771000Y-113069000D01*
X240411000Y-160655000D02*
X252318184Y-160655000D01*
X254057184Y-158916000D02*
X260516000Y-158916000D01*
X189230000Y-158115000D02*
X191262000Y-160147000D01*
X130771000Y-113069000D02*
X138469000Y-113069000D01*
X191262000Y-160147000D02*
X234492476Y-160147000D01*
X238379000Y-158623000D02*
X240411000Y-160655000D01*
X143822638Y-132969000D02*
X169545000Y-132969000D01*
X172014200Y-185730200D02*
X171069000Y-184785000D01*
X171069000Y-184785000D02*
X170053000Y-184785000D01*
X252318184Y-160655000D02*
X254057184Y-158916000D01*
%TO.N,/~{NMI}*%
X155575000Y-166007801D02*
X155556199Y-165989000D01*
X130937000Y-111760000D02*
X137160000Y-111760000D01*
X166878000Y-175260000D02*
X164783000Y-173165000D01*
X121881000Y-112991000D02*
X129706000Y-112991000D01*
X164783000Y-173165000D02*
X155829000Y-173165000D01*
X120650000Y-111760000D02*
X121881000Y-112991000D01*
X155556199Y-165989000D02*
X137985000Y-165989000D01*
X129706000Y-112991000D02*
X130937000Y-111760000D01*
X155829000Y-173165000D02*
X155575000Y-172911000D01*
%TO.N,/CPU_A0*%
X194540450Y-176657000D02*
X175387000Y-176657000D01*
X240378002Y-182625002D02*
X212979998Y-182625002D01*
X252095000Y-182880000D02*
X250900701Y-184074299D01*
X250900701Y-184074299D02*
X241827299Y-184074299D01*
X146685000Y-171435000D02*
X148986000Y-173736000D01*
X241827299Y-184074299D02*
X240378002Y-182625002D01*
X159258000Y-176657000D02*
X175387000Y-176657000D01*
X148986000Y-173736000D02*
X152019000Y-173736000D01*
X156337000Y-173736000D02*
X159258000Y-176657000D01*
X212979998Y-182625002D02*
X211455000Y-184150000D01*
X211455000Y-184150000D02*
X209930000Y-182625000D01*
X209930000Y-182625000D02*
X200508450Y-182625000D01*
X200508450Y-182625000D02*
X194540450Y-176657000D01*
X152019000Y-173736000D02*
X156337000Y-173736000D01*
%TO.N,/CPU_A1*%
X213995000Y-184150000D02*
X212414000Y-185731000D01*
X190677800Y-177596800D02*
X174142401Y-177596799D01*
X168238852Y-187305000D02*
X172720000Y-187305000D01*
X165769998Y-186597998D02*
X167531850Y-186597998D01*
X156845000Y-182225000D02*
X158115000Y-183495000D01*
X224066014Y-186131200D02*
X223735814Y-185801000D01*
X158750000Y-185928000D02*
X165100000Y-185928000D01*
X165100000Y-185928000D02*
X165769998Y-186597998D01*
X223735814Y-185801000D02*
X215646000Y-185801000D01*
X212414000Y-185731000D02*
X198812000Y-185731000D01*
X198812000Y-185731000D02*
X190677800Y-177596800D01*
X248843800Y-186131200D02*
X224066014Y-186131200D01*
X249555000Y-185420000D02*
X248843800Y-186131200D01*
X167531850Y-186597998D02*
X168238852Y-187305000D01*
X158115000Y-183495000D02*
X158115000Y-185293000D01*
X158115000Y-185293000D02*
X158750000Y-185928000D01*
X215646000Y-185801000D02*
X213995000Y-184150000D01*
%TO.N,/CPU_A2*%
X193411554Y-183388000D02*
X193384554Y-183361000D01*
X162676000Y-184139000D02*
X167651000Y-184139000D01*
X195050068Y-183366068D02*
X198184000Y-186500000D01*
X171703965Y-186339800D02*
X171663383Y-186380382D01*
X181933821Y-183361000D02*
X181906821Y-183388000D01*
X193384554Y-183361000D02*
X181933821Y-183361000D01*
X173124999Y-186345000D02*
X173119799Y-186339800D01*
X169892382Y-186380382D02*
X171663383Y-186380382D01*
X167651000Y-184139000D02*
X169892382Y-186380382D01*
X176719926Y-186345000D02*
X175664999Y-186345000D01*
X193569932Y-183366068D02*
X195050068Y-183366068D01*
X173119799Y-186339800D02*
X171703965Y-186339800D01*
X145811000Y-175641000D02*
X156718000Y-175641000D01*
X158222000Y-179685000D02*
X162676000Y-184139000D01*
X174860201Y-186339800D02*
X174855001Y-186345000D01*
X198184000Y-186500000D02*
X216535000Y-186500000D01*
X175659799Y-186339800D02*
X174860201Y-186339800D01*
X179676926Y-183388000D02*
X176719926Y-186345000D01*
X193548000Y-183388000D02*
X193411554Y-183388000D01*
X174855001Y-186345000D02*
X173124999Y-186345000D01*
X181906821Y-183388000D02*
X179676926Y-183388000D01*
X156845000Y-179685000D02*
X158222000Y-179685000D01*
X141605000Y-171435000D02*
X145811000Y-175641000D01*
X175664999Y-186345000D02*
X175659799Y-186339800D01*
%TO.N,/CPU_A3*%
X190119000Y-186182000D02*
X195453000Y-186182000D01*
X163479800Y-188879800D02*
X161798000Y-187198000D01*
X175240000Y-189845000D02*
X174274800Y-188879800D01*
X152423727Y-177546000D02*
X159385000Y-177546000D01*
X151598727Y-176721000D02*
X152423727Y-177546000D01*
X144351000Y-176721000D02*
X151598727Y-176721000D01*
X188468000Y-188341000D02*
X189230000Y-187579000D01*
X186056891Y-189845000D02*
X187560891Y-188341000D01*
X206911878Y-188341000D02*
X207800878Y-189230000D01*
X139065000Y-171435000D02*
X144351000Y-176721000D01*
X189230000Y-187579000D02*
X189230000Y-187071000D01*
X195834000Y-186563000D02*
X195834000Y-186690000D01*
X197485000Y-188341000D02*
X206911878Y-188341000D01*
X218948000Y-189230000D02*
X219075000Y-189103000D01*
X207800878Y-189230000D02*
X218948000Y-189230000D01*
X174274800Y-188879800D02*
X163479800Y-188879800D01*
X187560891Y-188341000D02*
X188468000Y-188341000D01*
X175260000Y-189845000D02*
X186056891Y-189845000D01*
X195834000Y-186690000D02*
X197485000Y-188341000D01*
X195453000Y-186182000D02*
X195834000Y-186563000D01*
X189230000Y-187071000D02*
X190119000Y-186182000D01*
%TO.N,/CPU_A4*%
X193226945Y-183741501D02*
X194651444Y-185166000D01*
X181682931Y-184150000D02*
X182091430Y-183741501D01*
X250952000Y-186563000D02*
X222123000Y-186563000D01*
X180340000Y-184150000D02*
X181682931Y-184150000D01*
X182091430Y-183741501D02*
X193226945Y-183741501D01*
X195834000Y-185166000D02*
X197866000Y-187198000D01*
X197866000Y-187198000D02*
X221488000Y-187198000D01*
X222123000Y-186563000D02*
X221615000Y-187071000D01*
X221488000Y-187198000D02*
X221615000Y-187071000D01*
X194651444Y-185166000D02*
X195834000Y-185166000D01*
X252095000Y-185420000D02*
X250952000Y-186563000D01*
%TO.N,/CPU_A5*%
X201560026Y-190627000D02*
X202946000Y-190627000D01*
X242824000Y-188468000D02*
X249047000Y-188468000D01*
X249047000Y-188468000D02*
X249555000Y-187960000D01*
X224155000Y-187960000D02*
X242316000Y-187960000D01*
X187414726Y-190783200D02*
X187441726Y-190810200D01*
X192755699Y-189641301D02*
X194975301Y-189641301D01*
X202946000Y-190627000D02*
X203327000Y-191008000D01*
X203327000Y-191008000D02*
X221107000Y-191008000D01*
X175260000Y-192385000D02*
X176154798Y-191490202D01*
X196939005Y-191605005D02*
X200582021Y-191605005D01*
X187441726Y-190810200D02*
X191586800Y-190810200D01*
X200582021Y-191605005D02*
X201560026Y-190627000D01*
X194975301Y-189641301D02*
X196939005Y-191605005D01*
X186707724Y-191490202D02*
X187414726Y-190783200D01*
X242316000Y-187960000D02*
X242824000Y-188468000D01*
X191586800Y-190810200D02*
X192755699Y-189641301D01*
X176154798Y-191490202D02*
X186707724Y-191490202D01*
X221107000Y-191008000D02*
X224155000Y-187960000D01*
%TO.N,/CPU_A6*%
X172720000Y-194925000D02*
X172720000Y-196918617D01*
X172720000Y-196918617D02*
X177223382Y-201422000D01*
X252095000Y-187960000D02*
X250825000Y-189230000D01*
X215103611Y-202754501D02*
X227876000Y-202754501D01*
X250825000Y-189230000D02*
X226695000Y-189230000D01*
X177223382Y-201422000D02*
X213771110Y-201422000D01*
X213771110Y-201422000D02*
X215103611Y-202754501D01*
%TO.N,/CPU_A7*%
X175260000Y-197465000D02*
X178582000Y-200787000D01*
X228902799Y-194676799D02*
X228981000Y-194755000D01*
X218354701Y-195665299D02*
X219343201Y-194676799D01*
X219343201Y-194676799D02*
X228902799Y-194676799D01*
X178582000Y-200787000D02*
X192659000Y-200787000D01*
X249555000Y-190500000D02*
X229235000Y-190500000D01*
X192659000Y-200787000D02*
X193421000Y-200025000D01*
X193929000Y-195326000D02*
X194268299Y-195665299D01*
X194268299Y-195665299D02*
X218354701Y-195665299D01*
%TO.N,/CPU_A8*%
X225501200Y-191465200D02*
X225425000Y-191389000D01*
X252095000Y-190500000D02*
X251129800Y-191465200D01*
X175260000Y-194925000D02*
X176764000Y-193421000D01*
X222631000Y-191389000D02*
X225425000Y-191389000D01*
X176764000Y-193421000D02*
X220599000Y-193421000D01*
X251129800Y-191465200D02*
X225501200Y-191465200D01*
X220599000Y-193421000D02*
X222631000Y-191389000D01*
%TO.N,/CPU_A9*%
X183440001Y-199390000D02*
X188661780Y-199390000D01*
X215777424Y-197555499D02*
X222320499Y-197555499D01*
X215326218Y-197104998D02*
X215705222Y-197484002D01*
X249175000Y-192660000D02*
X236057878Y-192660000D01*
X235677878Y-193040000D02*
X222885000Y-193040000D01*
X215705222Y-197484002D02*
X215705927Y-197484002D01*
X236057878Y-192660000D02*
X235677878Y-193040000D01*
X190946782Y-197104998D02*
X215326218Y-197104998D01*
X188661780Y-199390000D02*
X190946782Y-197104998D01*
X215705927Y-197484002D02*
X215777424Y-197555499D01*
X222320499Y-197555499D02*
X224155000Y-199390000D01*
%TO.N,/CPU_A10*%
X177800000Y-194925000D02*
X178943000Y-196068000D01*
X248412000Y-198120000D02*
X247904000Y-197612000D01*
X178943000Y-197739000D02*
X181609501Y-200405501D01*
X188722499Y-200405501D02*
X191262000Y-197866000D01*
X181609501Y-200405501D02*
X188722499Y-200405501D01*
X215519000Y-194056000D02*
X246634000Y-194056000D01*
X215011000Y-197866000D02*
X216535000Y-199390000D01*
X191262000Y-197866000D02*
X215011000Y-197866000D01*
X178943000Y-196068000D02*
X178943000Y-197739000D01*
X252095000Y-198120000D02*
X248412000Y-198120000D01*
X215265000Y-194310000D02*
X215519000Y-194056000D01*
X246634000Y-194056000D02*
X247269000Y-194691000D01*
%TO.N,/CPU_A11*%
X245872000Y-194945000D02*
X237617000Y-194945000D01*
X251129800Y-196545200D02*
X247472200Y-196545200D01*
X180340000Y-197465000D02*
X182900000Y-200025000D01*
X182900000Y-200025000D02*
X188564890Y-200025000D01*
X221523414Y-195453000D02*
X221491713Y-195421299D01*
X247472200Y-196545200D02*
X245872000Y-194945000D01*
X237617000Y-194945000D02*
X237109000Y-195453000D01*
X215619110Y-197936000D02*
X220161000Y-197936000D01*
X215168609Y-197485499D02*
X215619110Y-197936000D01*
X220161000Y-197936000D02*
X221615000Y-199390000D01*
X191104391Y-197485499D02*
X215168609Y-197485499D01*
X252095000Y-195580000D02*
X251129800Y-196545200D01*
X188564890Y-200025000D02*
X191104391Y-197485499D01*
X237109000Y-195453000D02*
X221523414Y-195453000D01*
%TO.N,/CPU_A12*%
X228454665Y-196850000D02*
X232752816Y-196850000D01*
X232752816Y-196850000D02*
X232771908Y-196869092D01*
X245013609Y-197231499D02*
X239552609Y-197231499D01*
X184170000Y-196215000D02*
X227819665Y-196215000D01*
X239190202Y-196869092D02*
X232771908Y-196869092D01*
X254635000Y-198120000D02*
X253669800Y-199085200D01*
X239552609Y-197231499D02*
X239190202Y-196869092D01*
X246867310Y-199085200D02*
X245013609Y-197231499D01*
X227819665Y-196215000D02*
X228454665Y-196850000D01*
X182880000Y-194925000D02*
X184170000Y-196215000D01*
X253669800Y-199085200D02*
X246867310Y-199085200D01*
%TO.N,/CPU_A13*%
X241629060Y-200282495D02*
X256730501Y-200282495D01*
X215863536Y-197103501D02*
X215935033Y-197174998D01*
X190789173Y-196724497D02*
X215483827Y-196724497D01*
X241067555Y-200844000D02*
X241629060Y-200282495D01*
X188758670Y-198755000D02*
X190789173Y-196724497D01*
X215483827Y-196724497D02*
X215862831Y-197103501D01*
X256730501Y-200282495D02*
X257048000Y-199964996D01*
X237744000Y-200844000D02*
X241067555Y-200844000D01*
X185420000Y-197465000D02*
X186710000Y-198755000D01*
X229235000Y-199463000D02*
X230813000Y-201041000D01*
X230813000Y-201041000D02*
X237547000Y-201041000D01*
X186710000Y-198755000D02*
X188758670Y-198755000D01*
X237547000Y-201041000D02*
X237744000Y-200844000D01*
X227419998Y-197174998D02*
X229235000Y-198990000D01*
X215862831Y-197103501D02*
X215863536Y-197103501D01*
X215935033Y-197174998D02*
X227419998Y-197174998D01*
%TO.N,/CPU_A14*%
X235211059Y-203962499D02*
X234702560Y-203454000D01*
X255564543Y-202883000D02*
X255501543Y-202946000D01*
X255501543Y-202946000D02*
X246857890Y-202946000D01*
X234702560Y-203454000D02*
X187833000Y-203454000D01*
X187833000Y-203454000D02*
X186690000Y-202311000D01*
X245841391Y-203962499D02*
X235211059Y-203962499D01*
X246857890Y-202946000D02*
X245841391Y-203962499D01*
%TO.N,/CPU_A15*%
X215264501Y-202056501D02*
X214249000Y-201041000D01*
X229169218Y-202819000D02*
X228406719Y-202056501D01*
X246813660Y-202185000D02*
X245416662Y-203581998D01*
X259715000Y-203072998D02*
X258827002Y-202185000D01*
X234605670Y-202819000D02*
X229169218Y-202819000D01*
X214249000Y-201041000D02*
X195834000Y-201041000D01*
X235368668Y-203581998D02*
X234605670Y-202819000D01*
X194056000Y-199263000D02*
X192151000Y-199263000D01*
X195834000Y-201041000D02*
X194056000Y-199263000D01*
X258827002Y-202185000D02*
X246813660Y-202185000D01*
X245416662Y-203581998D02*
X235368668Y-203581998D01*
X228406719Y-202056501D02*
X215264501Y-202056501D01*
%TO.N,/CPU_D7*%
X174206000Y-171031000D02*
X174206000Y-172286581D01*
X210100299Y-194925000D02*
X210185000Y-194840299D01*
X190500000Y-194925000D02*
X190924000Y-194501000D01*
X173128000Y-169953000D02*
X174206000Y-171031000D01*
X194833582Y-175873912D02*
X200443169Y-181483499D01*
X174206000Y-172286581D02*
X177793331Y-175873912D01*
X171677000Y-169953000D02*
X173128000Y-169953000D01*
X206120501Y-181483499D02*
X206375000Y-181229000D01*
X247650000Y-180340000D02*
X249555000Y-180340000D01*
X211074000Y-181483000D02*
X211415501Y-181824501D01*
X246165499Y-181824501D02*
X247650000Y-180340000D01*
X177793331Y-175873912D02*
X194833582Y-175873912D01*
X206375000Y-181229000D02*
X210820000Y-181229000D01*
X211415501Y-181824501D02*
X246165499Y-181824501D01*
X200443169Y-181483499D02*
X206120501Y-181483499D01*
X210820000Y-181229000D02*
X211074000Y-181483000D01*
X170180000Y-171450000D02*
X171677000Y-169953000D01*
X194270727Y-194501000D02*
X194694727Y-194925000D01*
X194694727Y-194925000D02*
X210100299Y-194925000D01*
X190924000Y-194501000D02*
X194270727Y-194501000D01*
%TO.N,/CPU_D6*%
X247487110Y-181483000D02*
X250952000Y-181483000D01*
X200285560Y-181864000D02*
X208344000Y-181864000D01*
X194675973Y-176254413D02*
X200285560Y-181864000D01*
X208685002Y-182205002D02*
X221290892Y-182205002D01*
X221330391Y-182244501D02*
X246725609Y-182244501D01*
X188927200Y-193957800D02*
X207552560Y-193957800D01*
X187960000Y-194925000D02*
X188927200Y-193957800D01*
X221290892Y-182205002D02*
X221330391Y-182244501D01*
X177124413Y-176254413D02*
X194675973Y-176254413D01*
X246725609Y-182244501D02*
X247487110Y-181483000D01*
X172720000Y-171850000D02*
X177124413Y-176254413D01*
X250952000Y-181483000D02*
X252095000Y-180340000D01*
X208344000Y-181864000D02*
X208407000Y-181927000D01*
X207552560Y-193957800D02*
X207713760Y-194119000D01*
X208407000Y-181927000D02*
X208685002Y-182205002D01*
%TO.N,/CPU_D5*%
X252095000Y-177800000D02*
X251968000Y-177800000D01*
X242570000Y-179070000D02*
X241935000Y-179705000D01*
X241935000Y-180721000D02*
X241212000Y-181444000D01*
X241935000Y-179705000D02*
X241935000Y-180721000D01*
X211709000Y-180721000D02*
X208046000Y-180721000D01*
X208046000Y-180721000D02*
X206375000Y-179050000D01*
X190500000Y-192385000D02*
X205085000Y-192385000D01*
X178543000Y-175133000D02*
X194600670Y-175133000D01*
X250698000Y-179070000D02*
X242570000Y-179070000D01*
X251968000Y-177800000D02*
X250698000Y-179070000D01*
X194600670Y-175133000D02*
X194961081Y-175493411D01*
X205085000Y-192385000D02*
X205105000Y-192405000D01*
X194991191Y-175493411D02*
X200600778Y-181102998D01*
X241212000Y-181444000D02*
X212432000Y-181444000D01*
X212432000Y-181444000D02*
X211709000Y-180721000D01*
X200600778Y-181102998D02*
X204322002Y-181102998D01*
X194961081Y-175493411D02*
X194991191Y-175493411D01*
X175260000Y-171850000D02*
X178543000Y-175133000D01*
X204322002Y-181102998D02*
X206375000Y-179050000D01*
%TO.N,/CPU_D4*%
X247298611Y-175514499D02*
X206970501Y-175514499D01*
X187960000Y-192385000D02*
X188925200Y-191419800D01*
X180975000Y-174625000D02*
X194630780Y-174625000D01*
X177800000Y-171450000D02*
X180975000Y-174625000D01*
X249555000Y-175260000D02*
X247553110Y-175260000D01*
X195148800Y-175112910D02*
X200758387Y-180722497D01*
X194630780Y-174625000D02*
X195118690Y-175112910D01*
X196215690Y-191419800D02*
X196781396Y-191985506D01*
X201236635Y-191488501D02*
X202570261Y-191488501D01*
X247553110Y-175260000D02*
X247298611Y-175514499D01*
X206970501Y-175514499D02*
X203835000Y-178650000D01*
X202562503Y-180722497D02*
X203835000Y-179450000D01*
X200739630Y-191985506D02*
X201236635Y-191488501D01*
X196781396Y-191985506D02*
X200739630Y-191985506D01*
X188925200Y-191419800D02*
X196215690Y-191419800D01*
X200758387Y-180722497D02*
X202562503Y-180722497D01*
X195118690Y-175112910D02*
X195148800Y-175112910D01*
X202570261Y-191488501D02*
X202633760Y-191552000D01*
%TO.N,/CPU_D3*%
X182705702Y-174242503D02*
X196887503Y-174242503D01*
X247141002Y-175133998D02*
X205211002Y-175133998D01*
X181064998Y-172601799D02*
X182705702Y-174242503D01*
X181064998Y-172574998D02*
X181064998Y-172601799D01*
X197239888Y-190754000D02*
X200025000Y-190754000D01*
X196887503Y-174242503D02*
X201295000Y-178650000D01*
X205211002Y-175133998D02*
X201295000Y-179050000D01*
X190861000Y-189484000D02*
X192278000Y-189484000D01*
X180340000Y-171850000D02*
X181064998Y-172574998D01*
X192659000Y-189103000D02*
X195588888Y-189103000D01*
X248285000Y-173990000D02*
X247141002Y-175133998D01*
X250825000Y-173990000D02*
X248285000Y-173990000D01*
X192278000Y-189484000D02*
X192659000Y-189103000D01*
X252095000Y-172720000D02*
X250825000Y-173990000D01*
X195588888Y-189103000D02*
X197239888Y-190754000D01*
%TO.N,/CPU_D2*%
X190262285Y-188548503D02*
X195996059Y-188548503D01*
X205151495Y-172594000D02*
X205105000Y-172640495D01*
X177152419Y-192405000D02*
X185801000Y-192405000D01*
X159784799Y-190810200D02*
X160350200Y-190244799D01*
X158419800Y-189845000D02*
X158419800Y-190244799D01*
X184531000Y-173101000D02*
X204644495Y-173101000D01*
X156845000Y-189845000D02*
X158419800Y-189845000D01*
X161798000Y-190500000D02*
X167767000Y-190500000D01*
X204644495Y-173101000D02*
X205105000Y-172640495D01*
X182880000Y-171450000D02*
X184531000Y-173101000D01*
X158419800Y-190244799D02*
X158985201Y-190810200D01*
X195996059Y-188548503D02*
X197312556Y-189865000D01*
X160350200Y-189845000D02*
X161143000Y-189845000D01*
X197312556Y-189865000D02*
X203835000Y-189865000D01*
X170815000Y-193548000D02*
X176009419Y-193548000D01*
X188965788Y-189845000D02*
X190262285Y-188548503D01*
X167767000Y-190500000D02*
X170815000Y-193548000D01*
X176009419Y-193548000D02*
X177152419Y-192405000D01*
X161143000Y-189845000D02*
X161798000Y-190500000D01*
X187960000Y-189845000D02*
X188965788Y-189845000D01*
X249429000Y-172594000D02*
X205151495Y-172594000D01*
X160350200Y-190244799D02*
X160350200Y-189845000D01*
X158985201Y-190810200D02*
X159784799Y-190810200D01*
%TO.N,/CPU_D1*%
X161818000Y-189738000D02*
X170057037Y-189738000D01*
X252095000Y-170180000D02*
X248539000Y-166624000D01*
X248539000Y-166624000D02*
X207691580Y-166624000D01*
X197358000Y-189103000D02*
X206375000Y-189103000D01*
X185420000Y-171450000D02*
X188016002Y-168853998D01*
X170057037Y-189738000D02*
X171102237Y-190783200D01*
X172320201Y-190810200D02*
X185629801Y-190810200D01*
X189044816Y-188722000D02*
X190461816Y-187305000D01*
X172293201Y-190783200D02*
X172320201Y-190810200D01*
X187718001Y-188722000D02*
X189044816Y-188722000D01*
X190520000Y-187325000D02*
X195580000Y-187325000D01*
X185629801Y-190810200D02*
X187718001Y-188722000D01*
X188016002Y-168853998D02*
X192334002Y-168853998D01*
X194818000Y-166370000D02*
X207437580Y-166370000D01*
X171102237Y-190783200D02*
X172293201Y-190783200D01*
X195580000Y-187325000D02*
X197358000Y-189103000D01*
X159385000Y-187305000D02*
X161818000Y-189738000D01*
X192334002Y-168853998D02*
X194818000Y-166370000D01*
X207437580Y-166370000D02*
X207691580Y-166624000D01*
%TO.N,/CPU_D0*%
X195707000Y-185801000D02*
X197866000Y-187960000D01*
X164623299Y-188499299D02*
X186765701Y-188499299D01*
X194253499Y-169361499D02*
X194718001Y-169826001D01*
X211836000Y-169672000D02*
X210185000Y-169672000D01*
X189464000Y-185801000D02*
X195707000Y-185801000D01*
X186765701Y-188499299D02*
X187960000Y-187305000D01*
X190048501Y-169361499D02*
X194253499Y-169361499D01*
X187960000Y-187305000D02*
X189464000Y-185801000D01*
X194718001Y-169826001D02*
X197336582Y-169826001D01*
X187960000Y-171450000D02*
X190048501Y-169361499D01*
X212344000Y-170180000D02*
X211836000Y-169672000D01*
X162490800Y-186366800D02*
X164623299Y-188499299D01*
X197336582Y-169826001D02*
X197490583Y-169672000D01*
X156845000Y-187305000D02*
X157810200Y-186339800D01*
X197490583Y-169672000D02*
X210185000Y-169672000D01*
X197866000Y-187960000D02*
X208915000Y-187960000D01*
X157810200Y-186339800D02*
X159784799Y-186339800D01*
X159784799Y-186339800D02*
X159811799Y-186366800D01*
X159811799Y-186366800D02*
X162490800Y-186366800D01*
X212344000Y-170180000D02*
X249555000Y-170180000D01*
%TO.N,/CPU_R~{W}*%
X158877000Y-168656000D02*
X161163000Y-166370000D01*
X151765000Y-171035000D02*
X154144000Y-168656000D01*
X154144000Y-168656000D02*
X158877000Y-168656000D01*
X190500000Y-166370000D02*
X193040000Y-163830000D01*
X161163000Y-166370000D02*
X190500000Y-166370000D01*
%TO.N,/PHI2*%
X156210000Y-204851000D02*
X184087000Y-204851000D01*
X265811000Y-204724000D02*
X184594000Y-204724000D01*
X184594000Y-204724000D02*
X184277000Y-205041000D01*
X155575000Y-204216000D02*
X156210000Y-204851000D01*
X267335000Y-203200000D02*
X265811000Y-204724000D01*
X184087000Y-204851000D02*
X184277000Y-205041000D01*
%TO.N,/CLKIN*%
X288290000Y-196850000D02*
X294640000Y-190500000D01*
X276225000Y-196850000D02*
X288290000Y-196850000D01*
X274955000Y-198120000D02*
X276225000Y-196850000D01*
%TO.N,/~{W}*%
X235289649Y-161796503D02*
X236560647Y-163067501D01*
X190500000Y-111760000D02*
X187592200Y-114667800D01*
X175495081Y-114667800D02*
X174838877Y-114011596D01*
X167335200Y-159513048D02*
X169618655Y-161796503D01*
X169618655Y-161796503D02*
X235289649Y-161796503D01*
X236560647Y-163067501D02*
X260314615Y-163067501D01*
X167335200Y-159258000D02*
X167335200Y-159513048D01*
X187592200Y-114667800D02*
X175495081Y-114667800D01*
X260314615Y-163067501D02*
X260632114Y-163385000D01*
%TO.N,/~{CSW_VDP}*%
X265404600Y-152527000D02*
X236086485Y-152527000D01*
X227340942Y-153681800D02*
X187941685Y-153681800D01*
X176204438Y-154405000D02*
X176016038Y-154216600D01*
X234424184Y-154189301D02*
X227848443Y-154189301D01*
X267004800Y-154127200D02*
X265404600Y-152527000D01*
X236086485Y-152527000D02*
X234424184Y-154189301D01*
X187941685Y-153681800D02*
X187218486Y-154405000D01*
X227848443Y-154189301D02*
X227340942Y-153681800D01*
X187218486Y-154405000D02*
X176204438Y-154405000D01*
%TO.N,/~{R}*%
X249438802Y-154442802D02*
X250444000Y-155448000D01*
X187299600Y-155041600D02*
X188151899Y-154189301D01*
X234634604Y-154697301D02*
X234889103Y-154442802D01*
X250444000Y-155448000D02*
X269875000Y-155448000D01*
X234889103Y-154442802D02*
X249438802Y-154442802D01*
X174396400Y-155041600D02*
X187299600Y-155041600D01*
X227638022Y-154697301D02*
X234634604Y-154697301D01*
X185877200Y-113842800D02*
X187960000Y-111760000D01*
X227130022Y-154189301D02*
X227638022Y-154697301D01*
X269875000Y-155448000D02*
X272669000Y-158242000D01*
X188151899Y-154189301D02*
X227130022Y-154189301D01*
X176733200Y-113842800D02*
X185877200Y-113842800D01*
X173075600Y-153720800D02*
X174396400Y-155041600D01*
%TO.N,/RESET_TRIG*%
X109220000Y-200660000D02*
X108585000Y-200660000D01*
X106910080Y-194159080D02*
X103632000Y-190881000D01*
X136689999Y-156680001D02*
X136689999Y-152818999D01*
X119380000Y-150260187D02*
X119380000Y-147193000D01*
X119898000Y-198120000D02*
X126437000Y-198120000D01*
X121138813Y-152019000D02*
X119380000Y-150260187D01*
X111760000Y-198120000D02*
X116342000Y-198120000D01*
X103632000Y-190881000D02*
X72263000Y-190881000D01*
X137160000Y-116840000D02*
X131318000Y-116840000D01*
X135890000Y-152019000D02*
X121138813Y-152019000D01*
X108585000Y-200660000D02*
X106910080Y-198985080D01*
X106910080Y-198985080D02*
X106910080Y-194159080D01*
X116342000Y-198120000D02*
X118120000Y-199898000D01*
X109220000Y-200660000D02*
X111760000Y-198120000D01*
X118120000Y-199898000D02*
X119898000Y-198120000D01*
X123317000Y-174752000D02*
X135811532Y-174752000D01*
X135811532Y-174752000D02*
X136191994Y-174371538D01*
X72263000Y-190881000D02*
X68620000Y-187238000D01*
X68620000Y-187238000D02*
X68620000Y-182280000D01*
X136689999Y-152818999D02*
X135890000Y-152019000D01*
X121881000Y-118071000D02*
X120650000Y-116840000D01*
X130087000Y-118071000D02*
X121881000Y-118071000D01*
X135890000Y-157480000D02*
X136689999Y-156680001D01*
X131318000Y-116840000D02*
X130087000Y-118071000D01*
%TO.N,Net-(U10-CV)*%
X126397000Y-193040000D02*
X123962000Y-193040000D01*
X123962000Y-193040000D02*
X123200000Y-192278000D01*
%TO.N,Net-(U10-DIS)*%
X109920000Y-197420000D02*
X112978000Y-197420000D01*
X120660000Y-192278000D02*
X122946000Y-194564000D01*
X133604000Y-194564000D02*
X134620000Y-195580000D01*
X122946000Y-194564000D02*
X133604000Y-194564000D01*
X118120000Y-192278000D02*
X120660000Y-192278000D01*
X112978000Y-197420000D02*
X118120000Y-192278000D01*
X109220000Y-198120000D02*
X109920000Y-197420000D01*
%TO.N,/~{OE}*%
X166951153Y-169952502D02*
X167331156Y-169572499D01*
X235683886Y-202820996D02*
X245101444Y-202820996D01*
X259142220Y-201423998D02*
X259521721Y-201803499D01*
X182863311Y-173862002D02*
X197045112Y-173862002D01*
X181445499Y-172444190D02*
X182863311Y-173862002D01*
X267969501Y-201803499D02*
X268351000Y-201422000D01*
X158327498Y-169952502D02*
X166951153Y-169952502D01*
X245101444Y-202820996D02*
X246498442Y-201423998D01*
X229519609Y-201041499D02*
X230154110Y-201676000D01*
X197535018Y-174351908D02*
X218928908Y-174351908D01*
X259521721Y-201803499D02*
X267969501Y-201803499D01*
X180314896Y-169572499D02*
X180738397Y-169996000D01*
X180776581Y-169996000D02*
X181445499Y-170664918D01*
X197045112Y-173862002D02*
X197535018Y-174351908D01*
X180738397Y-169996000D02*
X180776581Y-169996000D01*
X219075000Y-199390000D02*
X220726499Y-201041499D01*
X230154110Y-201676000D02*
X234538890Y-201676000D01*
X167331156Y-169572499D02*
X180314896Y-169572499D01*
X234538890Y-201676000D02*
X235683886Y-202820996D01*
X181445499Y-170664918D02*
X181445499Y-172444190D01*
X246498442Y-201423998D02*
X259142220Y-201423998D01*
X156845000Y-171435000D02*
X158327498Y-169952502D01*
X220726499Y-201041499D02*
X229519609Y-201041499D01*
%TO.N,/EXT_A14*%
X234569000Y-192024000D02*
X234315000Y-192278000D01*
X259715000Y-195580000D02*
X256032000Y-191897000D01*
X256032000Y-191897000D02*
X255905000Y-191897000D01*
X255905000Y-191897000D02*
X255778000Y-192024000D01*
X255778000Y-192024000D02*
X234569000Y-192024000D01*
%TO.N,/EXT_A17*%
X259299829Y-201043497D02*
X246340833Y-201043497D01*
X259679330Y-201422998D02*
X259299829Y-201043497D01*
X245073330Y-202311000D02*
X236364171Y-202311000D01*
X263250333Y-201422998D02*
X259679330Y-201422998D01*
X263949331Y-200724000D02*
X263250333Y-201422998D01*
X236364171Y-202311000D02*
X235792171Y-201739000D01*
X246340833Y-201043497D02*
X245073330Y-202311000D01*
%TO.N,/EXT_A16*%
X252672599Y-194183000D02*
X248539000Y-194183000D01*
X247714000Y-193358000D02*
X236347000Y-193358000D01*
X253238000Y-194748401D02*
X252672599Y-194183000D01*
X262255000Y-195580000D02*
X260858000Y-196977000D01*
X248539000Y-194183000D02*
X247714000Y-193358000D01*
X260858000Y-196977000D02*
X254254000Y-196977000D01*
X253238000Y-195961000D02*
X253238000Y-194748401D01*
X254254000Y-196977000D02*
X253238000Y-195961000D01*
%TO.N,/EXT_A15*%
X259517442Y-200723000D02*
X259457438Y-200662996D01*
X245283244Y-201562976D02*
X238010408Y-201562976D01*
X246183224Y-200662996D02*
X245283244Y-201562976D01*
X259457438Y-200662996D02*
X246183224Y-200662996D01*
X261947053Y-200723000D02*
X259517442Y-200723000D01*
%TO.N,/EXT_A18*%
X264795000Y-193421000D02*
X264795000Y-195580000D01*
X239699800Y-184454800D02*
X255828800Y-184454800D01*
X255828800Y-184454800D02*
X264795000Y-193421000D01*
%TO.N,/~{CS_RAM}*%
X216281000Y-201676000D02*
X213995000Y-199390000D01*
X234635780Y-202311000D02*
X229616000Y-202311000D01*
X246656051Y-201804499D02*
X245259053Y-203201497D01*
X228981000Y-201676000D02*
X216281000Y-201676000D01*
X229616000Y-202311000D02*
X228981000Y-201676000D01*
X269875000Y-202819000D02*
X269240000Y-202184000D01*
X259364112Y-202184000D02*
X258984611Y-201804499D01*
X258984611Y-201804499D02*
X246656051Y-201804499D01*
X235526277Y-203201497D02*
X234635780Y-202311000D01*
X269240000Y-202184000D02*
X259364112Y-202184000D01*
X245259053Y-203201497D02*
X235526277Y-203201497D01*
%TO.N,/~{CS_ROM}*%
X243205000Y-176530000D02*
X252603000Y-176530000D01*
X267335000Y-191262000D02*
X267335000Y-195580000D01*
X242570000Y-175895000D02*
X243205000Y-176530000D01*
X214371778Y-179050000D02*
X217526778Y-175895000D01*
X252603000Y-176530000D02*
X267335000Y-191262000D01*
X217526778Y-175895000D02*
X242570000Y-175895000D01*
%TO.N,Net-(U6-INTR)*%
X128905000Y-130683000D02*
X148979981Y-130683000D01*
X149868981Y-131572000D02*
X156210000Y-131572000D01*
X148979981Y-130683000D02*
X149868981Y-131572000D01*
%TO.N,/BUF_D0*%
X162056841Y-106426000D02*
X161943540Y-106312699D01*
X169418000Y-106426000D02*
X172466000Y-106426000D01*
X169418000Y-106426000D02*
X162056841Y-106426000D01*
X157567727Y-106287798D02*
X147875417Y-106287798D01*
X172466000Y-106426000D02*
X177800000Y-111760000D01*
X123190000Y-91440000D02*
X124421000Y-90209000D01*
X147875417Y-106287798D02*
X147475772Y-106687443D01*
X161943540Y-106312699D02*
X157592628Y-106312699D01*
X138469000Y-90209000D02*
X139700000Y-91440000D01*
X124421000Y-90209000D02*
X138469000Y-90209000D01*
X157592628Y-106312699D02*
X157567727Y-106287798D01*
%TO.N,/BUF_D1*%
X163830000Y-116840000D02*
X161417000Y-114427000D01*
X123190000Y-93980000D02*
X128778000Y-93980000D01*
X165658800Y-153549506D02*
X165658800Y-151384000D01*
X165658800Y-151384000D02*
X165455600Y-151180800D01*
X137751286Y-92749000D02*
X138982286Y-93980000D01*
X165285534Y-107695501D02*
X164702834Y-107112798D01*
X171195501Y-107695501D02*
X165285534Y-107695501D01*
X128778000Y-93980000D02*
X130009000Y-92749000D01*
X130009000Y-92749000D02*
X137751286Y-92749000D01*
X188163200Y-157073600D02*
X169182894Y-157073600D01*
X147640453Y-107696000D02*
X146939000Y-107696000D01*
X161733327Y-106820200D02*
X148516253Y-106820200D01*
X162025925Y-107112798D02*
X161733327Y-106820200D01*
X175260000Y-111760000D02*
X171195501Y-107695501D01*
X169182894Y-157073600D02*
X165658800Y-153549506D01*
X148516253Y-106820200D02*
X147640453Y-107696000D01*
X161417000Y-114427000D02*
X157734000Y-114427000D01*
X164702834Y-107112798D02*
X162025925Y-107112798D01*
%TO.N,/BUF_D2*%
X186094499Y-153881301D02*
X177554028Y-153881301D01*
X174752000Y-151079273D02*
X174752000Y-147574000D01*
X137707000Y-95289000D02*
X138938000Y-96520000D01*
X187525000Y-152450800D02*
X186094499Y-153881301D01*
X167386000Y-104776000D02*
X164832444Y-104776000D01*
X177554028Y-153881301D02*
X174752000Y-151079273D01*
X172720000Y-127000000D02*
X172720000Y-120650000D01*
X123190000Y-96520000D02*
X129032000Y-96520000D01*
X161993669Y-105029000D02*
X145942494Y-105029000D01*
X138938000Y-96520000D02*
X139700000Y-96520000D01*
X145942494Y-105029000D02*
X145791895Y-104878401D01*
X172720000Y-120650000D02*
X166370000Y-114300000D01*
X162262366Y-105297697D02*
X161993669Y-105029000D01*
X164832444Y-104776000D02*
X164310747Y-105297697D01*
X164310747Y-105297697D02*
X162262366Y-105297697D01*
X129032000Y-96520000D02*
X130263000Y-95289000D01*
X130263000Y-95289000D02*
X137707000Y-95289000D01*
%TO.N,/BUF_D3*%
X175260000Y-121412000D02*
X166878000Y-113030000D01*
X165174171Y-105601000D02*
X164856672Y-105918499D01*
X162153753Y-105805198D02*
X157802841Y-105805198D01*
X129159000Y-99060000D02*
X130390000Y-97829000D01*
X162267054Y-105918499D02*
X162153753Y-105805198D01*
X165100000Y-113030000D02*
X163830000Y-114300000D01*
X123190000Y-99060000D02*
X129159000Y-99060000D01*
X175260000Y-127000000D02*
X175260000Y-121412000D01*
X176911721Y-142965476D02*
X175683501Y-142965476D01*
X130390000Y-97829000D02*
X138469000Y-97829000D01*
X185745000Y-151798755D02*
X176911721Y-142965476D01*
X143708267Y-105780297D02*
X143315899Y-105387929D01*
X164856672Y-105918499D02*
X162267054Y-105918499D01*
X166878000Y-113030000D02*
X165100000Y-113030000D01*
X157777940Y-105780297D02*
X143708267Y-105780297D01*
X157802841Y-105805198D02*
X157777940Y-105780297D01*
X138469000Y-97829000D02*
X139700000Y-99060000D01*
%TO.N,/BUF_D4*%
X166116000Y-102602400D02*
X166116000Y-102870000D01*
X138469000Y-100369000D02*
X139700000Y-101600000D01*
X123190000Y-101600000D02*
X129413000Y-101600000D01*
X130644000Y-100369000D02*
X138469000Y-100369000D01*
X129413000Y-101600000D02*
X130644000Y-100369000D01*
X177800000Y-127000000D02*
X177800000Y-123190000D01*
X177800000Y-123190000D02*
X166370000Y-111760000D01*
X183946800Y-152450800D02*
X175958500Y-144462500D01*
X139700000Y-101600000D02*
X165113600Y-101600000D01*
X165113600Y-101600000D02*
X166116000Y-102602400D01*
%TO.N,/BUF_D5*%
X178115400Y-147777200D02*
X177342800Y-147777200D01*
X145450168Y-104053401D02*
X146133622Y-104053401D01*
X180340000Y-123039273D02*
X166520727Y-109220000D01*
X180340000Y-127000000D02*
X180340000Y-123039273D01*
X146538221Y-104458000D02*
X163830000Y-104458000D01*
X130390000Y-102909000D02*
X137751286Y-102909000D01*
X139700000Y-104140000D02*
X145363569Y-104140000D01*
X129159000Y-104140000D02*
X130390000Y-102909000D01*
X166520727Y-109220000D02*
X163830000Y-109220000D01*
X137751286Y-102909000D02*
X138982286Y-104140000D01*
X182185000Y-151846800D02*
X178115400Y-147777200D01*
X145363569Y-104140000D02*
X145450168Y-104053401D01*
X146133622Y-104053401D02*
X146538221Y-104458000D01*
X123190000Y-104140000D02*
X129159000Y-104140000D01*
%TO.N,/BUF_D6*%
X147980400Y-110540800D02*
X162610800Y-110540800D01*
X123190000Y-106680000D02*
X129031501Y-106680000D01*
X130048000Y-105663501D02*
X136435602Y-105663501D01*
X180405000Y-151764659D02*
X178020139Y-149379798D01*
X136435602Y-105663501D02*
X136650103Y-105449000D01*
X166822405Y-110667800D02*
X179019200Y-122864595D01*
X179019200Y-122864595D02*
X179019200Y-124002800D01*
X138469000Y-105449000D02*
X139700000Y-106680000D01*
X129031501Y-106680000D02*
X130048000Y-105663501D01*
X164922200Y-110667800D02*
X166822405Y-110667800D01*
X163830000Y-111760000D02*
X164922200Y-110667800D01*
X136650103Y-105449000D02*
X138469000Y-105449000D01*
X162610800Y-110540800D02*
X163830000Y-111760000D01*
X144119600Y-106680000D02*
X147980400Y-110540800D01*
X139700000Y-106680000D02*
X144119600Y-106680000D01*
%TO.N,/BUF_D7*%
X138469000Y-107989000D02*
X139700000Y-109220000D01*
X165075320Y-108203002D02*
X164492619Y-107620299D01*
X185166000Y-131368800D02*
X185115200Y-131318000D01*
X185115200Y-131318000D02*
X179179707Y-131318000D01*
X179179707Y-131318000D02*
X179171162Y-131309455D01*
X130390000Y-107989000D02*
X138469000Y-107989000D01*
X145135600Y-109220000D02*
X146964400Y-111048800D01*
X166623002Y-108203002D02*
X165075320Y-108203002D01*
X149086298Y-107938298D02*
X160008298Y-107938298D01*
X164492619Y-107620299D02*
X163167381Y-107620299D01*
X160008298Y-107938298D02*
X161290000Y-109220000D01*
X163167381Y-107620299D02*
X161567681Y-109220000D01*
X185420000Y-127000000D02*
X166623002Y-108203002D01*
X123190000Y-109220000D02*
X129159000Y-109220000D01*
X139700000Y-109220000D02*
X145135600Y-109220000D01*
X148945600Y-107797600D02*
X149086298Y-107938298D01*
X129159000Y-109220000D02*
X130390000Y-107989000D01*
%TO.N,Net-(U6-RCLK)*%
X159639000Y-113411000D02*
X161290000Y-111760000D01*
X152400000Y-113411000D02*
X159639000Y-113411000D01*
%TO.N,/~{CS_UART}*%
X258572000Y-167492395D02*
X254654607Y-163575002D01*
X254654607Y-163575002D02*
X236530038Y-163575002D01*
X161733004Y-162304004D02*
X161163000Y-161734000D01*
X258572000Y-169037000D02*
X258572000Y-167492395D01*
X259715000Y-170180000D02*
X258572000Y-169037000D01*
X235259040Y-162304004D02*
X161733004Y-162304004D01*
X236530038Y-163575002D02*
X235259040Y-162304004D01*
%TO.N,Net-(U6-XIN)*%
X149682200Y-112852200D02*
X149682200Y-115011200D01*
X150368000Y-115697000D02*
X152273000Y-115697000D01*
X148590000Y-111760000D02*
X149682200Y-112852200D01*
X149682200Y-115011200D02*
X150368000Y-115697000D01*
%TO.N,/~{BUF_WE}*%
X139190103Y-105371000D02*
X141830071Y-105371000D01*
X129325000Y-105371000D02*
X121881000Y-105371000D01*
X141830071Y-105371000D02*
X142244939Y-105785868D01*
X137160000Y-104140000D02*
X137959103Y-104140000D01*
X137160000Y-104140000D02*
X130556000Y-104140000D01*
X121881000Y-105371000D02*
X120650000Y-104140000D01*
X148590000Y-114300000D02*
X144907000Y-114300000D01*
X137959103Y-104140000D02*
X139190103Y-105371000D01*
X130556000Y-104140000D02*
X129325000Y-105371000D01*
%TO.N,/~{BUF_OE}*%
X144653000Y-119253000D02*
X144780000Y-119380000D01*
X139229103Y-107950000D02*
X143256000Y-107950000D01*
X137160000Y-106680000D02*
X137959103Y-106680000D01*
X137959103Y-106680000D02*
X139229103Y-107950000D01*
X120650000Y-106680000D02*
X121881000Y-107911000D01*
X128944000Y-107911000D02*
X130175000Y-106680000D01*
X144780000Y-119380000D02*
X148590000Y-119380000D01*
X121881000Y-107911000D02*
X128944000Y-107911000D01*
X143256000Y-107950000D02*
X143383000Y-107823000D01*
X130175000Y-106680000D02*
X137160000Y-106680000D01*
%TO.N,/BUF_A2*%
X129132000Y-97751000D02*
X130363000Y-96520000D01*
X149929845Y-128200155D02*
X151130000Y-127000000D01*
X120650000Y-96520000D02*
X121881000Y-97751000D01*
X121881000Y-97751000D02*
X129132000Y-97751000D01*
X158051501Y-161416501D02*
X158369000Y-161734000D01*
X144145000Y-163415000D02*
X146143499Y-161416501D01*
X148904456Y-128200155D02*
X149929845Y-128200155D01*
X130363000Y-96520000D02*
X137160000Y-96520000D01*
X146143499Y-161416501D02*
X158051501Y-161416501D01*
%TO.N,/BUF_A1*%
X137160000Y-93980000D02*
X138430000Y-95250000D01*
X121881000Y-95211000D02*
X120650000Y-93980000D01*
X138430000Y-95250000D02*
X145669000Y-95250000D01*
X128817000Y-95211000D02*
X121881000Y-95211000D01*
X148435499Y-127154501D02*
X145507344Y-127154501D01*
X172415200Y-131826000D02*
X172723655Y-132134455D01*
X171030384Y-125603000D02*
X171462184Y-125171200D01*
X151130000Y-124460000D02*
X152273000Y-125603000D01*
X151130000Y-124460000D02*
X148435499Y-127154501D01*
X137160000Y-93980000D02*
X130048000Y-93980000D01*
X152273000Y-125603000D02*
X171030384Y-125603000D01*
X179530642Y-132116702D02*
X184511702Y-132116702D01*
X184511702Y-132116702D02*
X185745000Y-133350000D01*
X179512889Y-132134455D02*
X179530642Y-132116702D01*
X172723655Y-132134455D02*
X179512889Y-132134455D01*
X130048000Y-93980000D02*
X128817000Y-95211000D01*
%TO.N,/BUF_A0*%
X150245766Y-130424234D02*
X149887942Y-130424234D01*
X156705800Y-130035800D02*
X184035831Y-130035800D01*
X138430000Y-92710000D02*
X146292214Y-92710000D01*
X146292214Y-92710000D02*
X146588214Y-93006000D01*
X121881000Y-92671000D02*
X128690000Y-92671000D01*
X193040000Y-130175000D02*
X192913000Y-130048000D01*
X128690000Y-92671000D02*
X129921000Y-91440000D01*
X184048031Y-130048000D02*
X184035831Y-130035800D01*
X129921000Y-91440000D02*
X137160000Y-91440000D01*
X120650000Y-91440000D02*
X121881000Y-92671000D01*
X191008000Y-109728000D02*
X193040000Y-111760000D01*
X163960814Y-93006000D02*
X180682814Y-109728000D01*
X192913000Y-130048000D02*
X184048031Y-130048000D01*
X153670000Y-127000000D02*
X156705800Y-130035800D01*
X137160000Y-91440000D02*
X138430000Y-92710000D01*
X180682814Y-109728000D02*
X191008000Y-109728000D01*
X153670000Y-127000000D02*
X150245766Y-130424234D01*
X146588214Y-93006000D02*
X163960814Y-93006000D01*
%TO.N,Net-(BT1-+)*%
X118074000Y-123535000D02*
X141224000Y-123535000D01*
X113850001Y-119311001D02*
X113850001Y-109220001D01*
X113850001Y-119311001D02*
X118074000Y-123535000D01*
%TO.N,/SPI_MISO*%
X133585186Y-145345000D02*
X126041000Y-145345000D01*
X133642186Y-145288000D02*
X133585186Y-145345000D01*
X139135000Y-145345000D02*
X135146814Y-145345000D01*
X140716000Y-143764000D02*
X139135000Y-145345000D01*
X127635000Y-153035000D02*
X135572000Y-153035000D01*
X126041000Y-145345000D02*
X124460000Y-143764000D01*
X94995501Y-146049501D02*
X123278499Y-146049501D01*
X123190000Y-157480000D02*
X127635000Y-153035000D01*
X135146814Y-145345000D02*
X135089814Y-145288000D01*
X92710000Y-143764000D02*
X94995501Y-146049501D01*
X124460000Y-144868000D02*
X124460000Y-143764000D01*
X123278499Y-146049501D02*
X124460000Y-144868000D01*
X135089814Y-145288000D02*
X133642186Y-145288000D01*
%TO.N,/~{SPI_SS1}*%
X99963419Y-145288000D02*
X114805975Y-145288000D01*
X98839419Y-144164000D02*
X99963419Y-145288000D01*
X142855000Y-188595000D02*
X144145000Y-187305000D01*
X105156000Y-188595000D02*
X142855000Y-188595000D01*
X97790000Y-144164000D02*
X98839419Y-144164000D01*
X103524000Y-128143000D02*
X99060000Y-128143000D01*
X114805975Y-145288000D02*
X114833499Y-145315524D01*
X105410000Y-130029000D02*
X103524000Y-128143000D01*
%TO.N,/SPI_CLK*%
X95250000Y-130429000D02*
X98679000Y-133858000D01*
X98679000Y-133858000D02*
X112522000Y-133858000D01*
X120777000Y-142113000D02*
X120816000Y-142113000D01*
X112522000Y-133858000D02*
X120777000Y-142113000D01*
X121197000Y-142494000D02*
X123190000Y-142494000D01*
X135636000Y-143764000D02*
X133096000Y-141224000D01*
X123190000Y-142494000D02*
X124460000Y-141224000D01*
X120816000Y-142113000D02*
X121197000Y-142494000D01*
X133096000Y-141224000D02*
X124460000Y-141224000D01*
%TO.N,/SPI_MOSI*%
X123190000Y-139954000D02*
X134366000Y-139954000D01*
X134366000Y-139954000D02*
X138176000Y-143764000D01*
X121920000Y-141224000D02*
X123190000Y-139954000D01*
X100330000Y-130429000D02*
X103251000Y-133350000D01*
X114046000Y-133350000D02*
X121920000Y-141224000D01*
X103251000Y-133350000D02*
X114046000Y-133350000D01*
%TO.N,/~{CS_VIA}*%
X246761000Y-203581000D02*
X258267200Y-203581000D01*
X151765000Y-194925000D02*
X153162000Y-196322000D01*
X245999000Y-204343000D02*
X246761000Y-203581000D01*
X169779000Y-196322000D02*
X177800000Y-204343000D01*
X177800000Y-204343000D02*
X245999000Y-204343000D01*
X153162000Y-196322000D02*
X169779000Y-196322000D01*
%TO.N,/BUF_R~{W}*%
X130556000Y-101600000D02*
X129325000Y-102831000D01*
X137160000Y-101600000D02*
X138391000Y-102831000D01*
X137160000Y-101600000D02*
X130556000Y-101600000D01*
X121881000Y-102831000D02*
X120650000Y-101600000D01*
X138391000Y-102831000D02*
X141879450Y-102831000D01*
X141879450Y-102831000D02*
X141887866Y-102822584D01*
X129325000Y-102831000D02*
X121881000Y-102831000D01*
%TO.N,/BUF_PHI2*%
X142367000Y-116205000D02*
X141693000Y-115531000D01*
X138391000Y-115531000D02*
X137160000Y-114300000D01*
X129706000Y-115531000D02*
X121881000Y-115531000D01*
X141693000Y-115531000D02*
X138391000Y-115531000D01*
X137160000Y-114300000D02*
X130937000Y-114300000D01*
X130937000Y-114300000D02*
X129706000Y-115531000D01*
X121881000Y-115531000D02*
X120650000Y-114300000D01*
%TO.N,/BUF_A3*%
X121881000Y-100291000D02*
X120650000Y-99060000D01*
X130429000Y-99060000D02*
X129198000Y-100291000D01*
X129198000Y-100291000D02*
X121881000Y-100291000D01*
X137160000Y-99060000D02*
X130429000Y-99060000D01*
%TO.N,/~{CS_BUFFER}*%
X205764434Y-172212000D02*
X246253000Y-172212000D01*
X246253000Y-172212000D02*
X247015000Y-171450000D01*
X190500000Y-171450000D02*
X192081000Y-169869000D01*
X193872000Y-169869000D02*
X194336502Y-170333502D01*
X192081000Y-169869000D02*
X193872000Y-169869000D01*
X203885936Y-170333502D02*
X205764434Y-172212000D01*
X247015000Y-171450000D02*
X253365000Y-171450000D01*
X194336502Y-170333502D02*
X203885936Y-170333502D01*
X253365000Y-171450000D02*
X254635000Y-170180000D01*
%TO.N,Net-(U18-XTAL1)*%
X226695000Y-157480000D02*
X225425000Y-156210000D01*
X230680000Y-157480000D02*
X226695000Y-157480000D01*
%TO.N,Net-(U18-XTAL2)*%
X239415000Y-157480000D02*
X240665000Y-156230000D01*
X235560000Y-157480000D02*
X239415000Y-157480000D01*
%TO.N,Net-(JP2-B)*%
X238164303Y-159551303D02*
X237778073Y-159551303D01*
X229171499Y-140665699D02*
X228854000Y-140348200D01*
X235648501Y-140665699D02*
X229171499Y-140665699D01*
X252095000Y-161417000D02*
X240030000Y-161417000D01*
X235966000Y-140348200D02*
X235648501Y-140665699D01*
X240030000Y-161417000D02*
X238164303Y-159551303D01*
X259080000Y-160020000D02*
X253492000Y-160020000D01*
X253492000Y-160020000D02*
X252095000Y-161417000D01*
%TO.N,/~{CS_OPL}*%
X236093000Y-120523000D02*
X233700000Y-122916000D01*
X252095000Y-167640000D02*
X250317000Y-165862000D01*
X191546800Y-122916000D02*
X185420000Y-116789200D01*
X233700000Y-122916000D02*
X191546800Y-122916000D01*
X250317000Y-165862000D02*
X242951000Y-165862000D01*
%TO.N,/Video_Audio/Audio_analog/fl*%
X194309501Y-109220499D02*
X194310000Y-109220000D01*
X172085000Y-99460000D02*
X181845499Y-109220499D01*
X181845499Y-109220499D02*
X194309501Y-109220499D01*
%TO.N,/Video_Audio/OPL_CLK*%
X214995000Y-127000000D02*
X221345000Y-133350000D01*
X200660000Y-127000000D02*
X214995000Y-127000000D01*
%TO.N,/Video_Audio/RGB_G*%
X213386000Y-111760000D02*
X209550000Y-111760000D01*
%TO.N,/Video_Audio/RGB_R*%
X213819000Y-109220000D02*
X209550000Y-109220000D01*
%TO.N,/Video_Audio/RGB_B*%
X213920000Y-105944000D02*
X210286000Y-105944000D01*
X210286000Y-105944000D02*
X209550000Y-106680000D01*
%TO.N,Net-(IC1-PD0)*%
X149606000Y-153416000D02*
X153924000Y-153416000D01*
X146050000Y-149860000D02*
X149606000Y-153416000D01*
%TO.N,Net-(IC1-PD1)*%
X153924000Y-155956000D02*
X150241000Y-155956000D01*
X150241000Y-155956000D02*
X144145000Y-149860000D01*
%TO.N,Net-(IC1-PD2)*%
X118183406Y-121031000D02*
X117589800Y-121624606D01*
X137160000Y-121031000D02*
X118183406Y-121031000D01*
%TO.N,Net-(RR1-R4)*%
X80196000Y-110304000D02*
X81280000Y-109220000D01*
X72055000Y-118720000D02*
X80196000Y-110579000D01*
X80196000Y-110579000D02*
X80196000Y-110304000D01*
%TO.N,/Video_Audio/{slash}CAS_X*%
X236855000Y-130048000D02*
X238252000Y-128651000D01*
X256530000Y-126375000D02*
X258111000Y-127956000D01*
X235712000Y-130048000D02*
X236855000Y-130048000D01*
X282254000Y-127956000D02*
X283845000Y-126365000D01*
X254254000Y-128651000D02*
X256530000Y-126375000D01*
X238252000Y-128651000D02*
X254254000Y-128651000D01*
X258111000Y-127956000D02*
X282254000Y-127956000D01*
%TO.N,/Video_Audio/{slash}CAS1*%
X232906200Y-153681800D02*
X232918000Y-153670000D01*
X249428499Y-152146499D02*
X254952502Y-152146499D01*
X231140000Y-153670000D02*
X231606856Y-153670000D01*
X231128200Y-153681800D02*
X231140000Y-153670000D01*
X229235000Y-153670000D02*
X229246800Y-153681800D01*
X282066500Y-140208500D02*
X283835000Y-138440000D01*
X226827656Y-152450800D02*
X228058656Y-153681800D01*
X234043538Y-153670000D02*
X235694538Y-152019000D01*
X256540000Y-138938000D02*
X257810500Y-140208500D01*
X231606856Y-153670000D02*
X231618656Y-153681800D01*
X249301000Y-152019000D02*
X249428499Y-152146499D01*
X235694538Y-152019000D02*
X249301000Y-152019000D01*
X228871344Y-153681800D02*
X228883144Y-153670000D01*
X231618656Y-153681800D02*
X232906200Y-153681800D01*
X257810500Y-140208500D02*
X282066500Y-140208500D01*
X232918000Y-153670000D02*
X234043538Y-153670000D01*
X228058656Y-153681800D02*
X228871344Y-153681800D01*
X228883144Y-153670000D02*
X229235000Y-153670000D01*
X254952502Y-152146499D02*
X255270001Y-151829000D01*
X229246800Y-153681800D02*
X231128200Y-153681800D01*
%TO.N,/Video_Audio/{slash}CAS0*%
X244512900Y-147765000D02*
X228562850Y-147765000D01*
X258171000Y-151511000D02*
X282194000Y-151511000D01*
X256530000Y-149870000D02*
X258171000Y-151511000D01*
X244829900Y-148082000D02*
X244512900Y-147765000D01*
X256530000Y-149870000D02*
X254742000Y-148082000D01*
X282194000Y-151511000D02*
X283845000Y-149860000D01*
X254742000Y-148082000D02*
X244829900Y-148082000D01*
%TO.N,/Video_Audio/{slash}RAS*%
X277174000Y-143831000D02*
X278765000Y-142240000D01*
X268219643Y-143765498D02*
X268285144Y-143831000D01*
X230245000Y-152450800D02*
X231476000Y-151219800D01*
X240729499Y-151448499D02*
X252730000Y-151448499D01*
X251450000Y-142250000D02*
X253031000Y-143831000D01*
X231476000Y-151219800D02*
X240500800Y-151219800D01*
X253031000Y-143831000D02*
X266892857Y-143831000D01*
X266892857Y-143831000D02*
X266958359Y-143765498D01*
X240500800Y-151219800D02*
X240729499Y-151448499D01*
X266958359Y-143765498D02*
X268219643Y-143765498D01*
X268285144Y-143831000D02*
X277174000Y-143831000D01*
%TO.N,/PA0*%
X100203000Y-160147000D02*
X88900000Y-160147000D01*
X88200000Y-171261000D02*
X88773000Y-170688000D01*
X102870000Y-157480000D02*
X100203000Y-160147000D01*
X85852000Y-171261000D02*
X88200000Y-171261000D01*
X80386235Y-170180000D02*
X81467235Y-171261000D01*
X81467235Y-171261000D02*
X85852000Y-171261000D01*
X76200000Y-170180000D02*
X80386235Y-170180000D01*
%TO.N,/PA1*%
X90595785Y-153796501D02*
X94122555Y-153796501D01*
X73660000Y-170180000D02*
X75565000Y-172085000D01*
X90106994Y-154285292D02*
X90595785Y-153796501D01*
X75565000Y-172085000D02*
X77978000Y-172085000D01*
X94122555Y-153796501D02*
X94440054Y-154114000D01*
X80010000Y-154285292D02*
X90106994Y-154285292D01*
%TO.N,/PA2*%
X85471000Y-160147000D02*
X86423000Y-159195000D01*
X86423000Y-159195000D02*
X90995000Y-159195000D01*
X76511600Y-167951600D02*
X79178600Y-167951600D01*
X80137000Y-168910000D02*
X84836000Y-168910000D01*
X79178600Y-167951600D02*
X80137000Y-168910000D01*
X90995000Y-159195000D02*
X92710000Y-157480000D01*
%TO.N,/PA3*%
X87376000Y-162433000D02*
X82550000Y-162433000D01*
X73660000Y-167640000D02*
X74941864Y-168921864D01*
X74941864Y-168921864D02*
X78384944Y-168921864D01*
X87630000Y-157480000D02*
X90171000Y-154939000D01*
X78384944Y-168921864D02*
X78688470Y-169225390D01*
X97791000Y-154939000D02*
X102870000Y-149860000D01*
X79248000Y-158904808D02*
X78360000Y-158016808D01*
X79248000Y-159131000D02*
X79248000Y-158904808D01*
X82550000Y-162433000D02*
X79248000Y-159131000D01*
X90171000Y-154939000D02*
X97791000Y-154939000D01*
%TO.N,/PA4*%
X101092000Y-137922000D02*
X102870000Y-136144000D01*
X95250000Y-136144000D02*
X97028000Y-137922000D01*
X76200000Y-165100000D02*
X79185000Y-165100000D01*
X95250000Y-136144000D02*
X92837000Y-138557000D01*
X97028000Y-137922000D02*
X101092000Y-137922000D01*
X92837000Y-138557000D02*
X79566499Y-138557000D01*
%TO.N,/PA5*%
X78683756Y-166409000D02*
X79401356Y-167126600D01*
X74969000Y-166409000D02*
X78683756Y-166409000D01*
X73660000Y-165100000D02*
X74969000Y-166409000D01*
%TO.N,/PA6*%
X76200000Y-162560000D02*
X80454000Y-162560000D01*
%TO.N,/PA7*%
X74930000Y-161290000D02*
X80689286Y-161290000D01*
X73660000Y-162560000D02*
X74930000Y-161290000D01*
X91694000Y-165481000D02*
X98415000Y-165481000D01*
X83190286Y-163791000D02*
X83566000Y-163791000D01*
X90004000Y-163791000D02*
X91694000Y-165481000D01*
X83566000Y-163791000D02*
X90004000Y-163791000D01*
X80689286Y-161290000D02*
X83190286Y-163791000D01*
X101662000Y-165396000D02*
X103580000Y-165396000D01*
X105161000Y-163815000D02*
X107701000Y-163815000D01*
X100081000Y-163815000D02*
X101662000Y-165396000D01*
X103580000Y-165396000D02*
X105161000Y-163815000D01*
X98415000Y-165481000D02*
X100081000Y-163815000D01*
%TO.N,/CA2*%
X80645000Y-152400000D02*
X81280000Y-151765000D01*
X76200000Y-152400000D02*
X80645000Y-152400000D01*
%TO.N,/CA1*%
X79454545Y-153035000D02*
X81280000Y-153035000D01*
X74910792Y-153650792D02*
X78838753Y-153650792D01*
X78838753Y-153650792D02*
X79454545Y-153035000D01*
X73660000Y-152400000D02*
X74910792Y-153650792D01*
%TO.N,/~{SD_CARD_DETECT}*%
X82710000Y-83787000D02*
X82710000Y-93980000D01*
X107950000Y-80645000D02*
X85852000Y-80645000D01*
X85852000Y-80645000D02*
X82710000Y-83787000D01*
%TO.N,/~{CS_SLOT1}*%
X239866526Y-162052000D02*
X239358027Y-161543501D01*
X121412000Y-131572000D02*
X118414800Y-128574800D01*
X157734000Y-131673600D02*
X156845353Y-132562247D01*
X165150800Y-155651200D02*
X159461200Y-155651200D01*
X139094077Y-131572000D02*
X121412000Y-131572000D01*
X143511676Y-132562247D02*
X143112923Y-132961000D01*
X171754800Y-158953200D02*
X168452800Y-158953200D01*
X156845353Y-132562247D02*
X143511676Y-132562247D01*
X236112867Y-161543501D02*
X235604867Y-161035501D01*
X173837101Y-161035501D02*
X171754800Y-158953200D01*
X254254000Y-160883600D02*
X253085600Y-162052000D01*
X239358027Y-161543501D02*
X236112867Y-161543501D01*
X140483077Y-132961000D02*
X139094077Y-131572000D01*
X143112923Y-132961000D02*
X140483077Y-132961000D01*
X253085600Y-162052000D02*
X239866526Y-162052000D01*
X235604867Y-161035501D02*
X173837101Y-161035501D01*
X168452800Y-158953200D02*
X165150800Y-155651200D01*
%TO.N,/~{CS_SLOT0}*%
X135449202Y-133976002D02*
X143533351Y-133976002D01*
X235955258Y-161924002D02*
X235447258Y-161416002D01*
X167740249Y-133577249D02*
X169418000Y-135255000D01*
X263677899Y-162432501D02*
X239708917Y-162432501D01*
X143533351Y-133976002D02*
X143932103Y-133577249D01*
X264464800Y-161645600D02*
X263677899Y-162432501D01*
X239708917Y-162432501D02*
X239200418Y-161924002D01*
X235447258Y-161416002D02*
X171436753Y-161416002D01*
X239200418Y-161924002D02*
X235955258Y-161924002D01*
X171436753Y-161416002D02*
X169859922Y-159839171D01*
X143932103Y-133577249D02*
X167740249Y-133577249D01*
X134620000Y-133146800D02*
X135449202Y-133976002D01*
%TO.N,Net-(U15-VSS)*%
X97710000Y-93044000D02*
X97710000Y-93980000D01*
X111506499Y-91821499D02*
X98932501Y-91821499D01*
X113030000Y-93345000D02*
X111506499Y-91821499D01*
X97663000Y-96774000D02*
X97663000Y-94027000D01*
X91732500Y-96774000D02*
X97663000Y-96774000D01*
X98932501Y-91821499D02*
X97710000Y-93044000D01*
%TO.N,/SD Card/CLK*%
X95210000Y-92496000D02*
X95210000Y-93980000D01*
X96901000Y-90805000D02*
X95210000Y-92496000D01*
X107950000Y-90805000D02*
X96901000Y-90805000D01*
%TO.N,/SD Card/CMD*%
X92710000Y-88265000D02*
X91010000Y-89965000D01*
X91010000Y-89965000D02*
X91010000Y-93980000D01*
X107950000Y-88265000D02*
X92710000Y-88265000D01*
%TO.N,/SD Card/DAT2*%
X85210000Y-93980000D02*
X85210000Y-86621000D01*
X85210000Y-86621000D02*
X88646000Y-83185000D01*
X88646000Y-83185000D02*
X107950000Y-83185000D01*
%TO.N,/SD Card/DAT1*%
X107188000Y-92583000D02*
X107950000Y-93345000D01*
X101840000Y-93980000D02*
X101840000Y-93105000D01*
X102362000Y-92583000D02*
X107188000Y-92583000D01*
X101840000Y-93105000D02*
X102362000Y-92583000D01*
%TO.N,/SD Card/DAT0*%
X100076000Y-101473000D02*
X100076000Y-94044000D01*
%TO.N,/SD Card/DAT3*%
X90805000Y-85725000D02*
X87710000Y-88820000D01*
X87710000Y-88820000D02*
X87710000Y-93980000D01*
X107950000Y-85725000D02*
X90805000Y-85725000D01*
%TO.N,Net-(U26C-+)*%
X205740000Y-98425000D02*
X209550000Y-94615000D01*
X205740000Y-100203000D02*
X205740000Y-98425000D01*
X192405000Y-100965000D02*
X204978000Y-100965000D01*
X204978000Y-100965000D02*
X205740000Y-100203000D01*
X190500000Y-99060000D02*
X192405000Y-100965000D01*
%TO.N,Net-(U26C--)*%
X189414000Y-97606000D02*
X187960000Y-99060000D01*
X195580000Y-99060000D02*
X194126000Y-97606000D01*
X194126000Y-97606000D02*
X189414000Y-97606000D01*
X185420000Y-99060000D02*
X187960000Y-99060000D01*
%TO.N,Net-(C42-Pad2)*%
X198080000Y-102235000D02*
X207010000Y-102235000D01*
X209550000Y-99695000D02*
X212090000Y-99695000D01*
X207010000Y-102235000D02*
X209550000Y-99695000D01*
%TO.N,Net-(C43-Pad1)*%
X204470000Y-99695000D02*
X204470000Y-97155000D01*
X204470000Y-99695000D02*
X201295000Y-99695000D01*
X204470000Y-97155000D02*
X207010000Y-94615000D01*
X201295000Y-99695000D02*
X200660000Y-99060000D01*
%TO.N,/Video_Audio/Audio_analog/AUDIO_OUT*%
X212685000Y-90170000D02*
X204724000Y-82209000D01*
X206495000Y-76200000D02*
X198605000Y-76200000D01*
X204724000Y-82209000D02*
X204724000Y-77971000D01*
X198605000Y-76200000D02*
X197328000Y-77477000D01*
X197328000Y-77477000D02*
X192728000Y-77477000D01*
X204724000Y-77971000D02*
X206495000Y-76200000D01*
%TO.N,Net-(U26A--)*%
X200660000Y-91440000D02*
X198120000Y-91440000D01*
X208153000Y-90678000D02*
X201422000Y-90678000D01*
X201422000Y-90678000D02*
X200660000Y-91440000D01*
X212090000Y-94615000D02*
X208153000Y-90678000D01*
%TO.N,Net-(U25-MP)*%
X201701400Y-89763600D02*
X189636400Y-89763600D01*
X204470000Y-86995000D02*
X201701400Y-89763600D01*
X207010000Y-86995000D02*
X204470000Y-86995000D01*
X189636400Y-89763600D02*
X187960000Y-91440000D01*
X187960000Y-91440000D02*
X185420000Y-91440000D01*
%TO.N,Net-(U26D--)*%
X198120000Y-99060000D02*
X202565000Y-94615000D01*
X202565000Y-94615000D02*
X204470000Y-94615000D01*
X204470000Y-92075000D02*
X204470000Y-94615000D01*
%TO.N,Net-(U25-ToBUFF)*%
X179247800Y-93522800D02*
X193497200Y-93522800D01*
X193497200Y-93522800D02*
X195580000Y-91440000D01*
X177165000Y-91440000D02*
X179247800Y-93522800D01*
%TO.N,Net-(U27-BIN)*%
X222530000Y-105944000D02*
X217045000Y-105944000D01*
X224155000Y-107569000D02*
X222530000Y-105944000D01*
X224155000Y-112395000D02*
X224155000Y-107569000D01*
%TO.N,Net-(U27-GIN)*%
X217323000Y-112294000D02*
X219075000Y-114046000D01*
X222377000Y-114046000D02*
X222885000Y-113538000D01*
X219075000Y-114046000D02*
X222377000Y-114046000D01*
X222885000Y-113538000D02*
X222885000Y-112395000D01*
%TO.N,Net-(U27-RIN)*%
X221615000Y-112395000D02*
X221615000Y-110363000D01*
X221615000Y-110363000D02*
X220345000Y-109093000D01*
X220345000Y-109093000D02*
X217071000Y-109093000D01*
%TO.N,Net-(X3-FREQ)*%
X225425000Y-117475000D02*
X225425000Y-116205000D01*
X229235000Y-121285000D02*
X225425000Y-117475000D01*
%TO.N,Net-(U27-SYNCIN)*%
X233045000Y-116205000D02*
X231775000Y-114935000D01*
X231775000Y-114935000D02*
X231775000Y-112395000D01*
%TO.N,Net-(U27-ROUT)*%
X218440000Y-99060000D02*
X221615000Y-102235000D01*
%TO.N,Net-(U27-GOUT)*%
X222885000Y-100965000D02*
X222885000Y-103095000D01*
X220980000Y-99060000D02*
X222885000Y-100965000D01*
%TO.N,Net-(U27-BOUT)*%
X223520000Y-99949000D02*
X224155000Y-100584000D01*
X223520000Y-99060000D02*
X223520000Y-99949000D01*
X224155000Y-100584000D02*
X224155000Y-103095000D01*
%TO.N,Net-(U27-CVOUT)*%
X226060000Y-99949000D02*
X225425000Y-100584000D01*
X225425000Y-100584000D02*
X225425000Y-103095000D01*
X226060000Y-99060000D02*
X226060000Y-99949000D01*
%TO.N,Net-(U27-YTRAP)*%
X228600000Y-100076000D02*
X229235000Y-100711000D01*
X228600000Y-99060000D02*
X228600000Y-100076000D01*
X229235000Y-100711000D02*
X229235000Y-103095000D01*
%TO.N,Net-(U27-YOUT)*%
X230505000Y-101854000D02*
X230505000Y-103095000D01*
X233299000Y-99060000D02*
X230505000Y-101854000D01*
%TO.N,Net-(U27-COUT)*%
X231775000Y-101727000D02*
X232283000Y-101219000D01*
X234061000Y-101219000D02*
X236220000Y-99060000D01*
X232283000Y-101219000D02*
X234061000Y-101219000D01*
X231775000Y-103095000D02*
X231775000Y-101727000D01*
%TO.N,Net-(RR1-R6)*%
X74090000Y-121490000D02*
X81280000Y-114300000D01*
X72055000Y-121490000D02*
X74090000Y-121490000D01*
X82880998Y-114300000D02*
X83793501Y-115212503D01*
X81280000Y-114300000D02*
X82880998Y-114300000D01*
%TO.N,Net-(RR1-R7)*%
X72055000Y-124260000D02*
X73860000Y-124260000D01*
X73860000Y-124260000D02*
X81280000Y-116840000D01*
X98799000Y-155899000D02*
X100520000Y-154178000D01*
X95250000Y-157480000D02*
X96831000Y-155899000D01*
X96831000Y-155899000D02*
X98799000Y-155899000D01*
X81280000Y-116840000D02*
X90297000Y-116840000D01*
%TO.N,Net-(U29-I0a)*%
X88519000Y-144243122D02*
X88519000Y-144145000D01*
X77470000Y-105410000D02*
X79832957Y-107772957D01*
X91976878Y-147701000D02*
X88519000Y-144243122D01*
X79832957Y-107772957D02*
X87505505Y-107772957D01*
X105410000Y-147701000D02*
X91976878Y-147701000D01*
%TO.N,Net-(RR1-R8)*%
X84201000Y-153289000D02*
X98171000Y-153289000D01*
X73630000Y-127030000D02*
X81280000Y-119380000D01*
X98171000Y-153289000D02*
X99695000Y-151765000D01*
X72055000Y-127030000D02*
X73630000Y-127030000D01*
%TO.N,Net-(RR1-R5)*%
X96772273Y-134408559D02*
X96401935Y-134038221D01*
X72935000Y-120105000D02*
X81280000Y-111760000D01*
X105410000Y-136144000D02*
X103674559Y-134408559D01*
X103674559Y-134408559D02*
X96772273Y-134408559D01*
X96401935Y-134038221D02*
X85090000Y-134038221D01*
X69215000Y-120105000D02*
X72935000Y-120105000D01*
X81280000Y-111760000D02*
X82602990Y-111760000D01*
X82602990Y-111760000D02*
X85028996Y-114186006D01*
%TO.N,Net-(U29-OEb)*%
X95335264Y-160654501D02*
X95088267Y-160901498D01*
X105410000Y-157880000D02*
X102635499Y-160654501D01*
X102635499Y-160654501D02*
X95335264Y-160654501D01*
%TO.N,/~{JOYPORT_ENABLE}*%
X160020000Y-123190000D02*
X147701000Y-123190000D01*
X161290000Y-124460000D02*
X160020000Y-123190000D01*
X147701000Y-123190000D02*
X143891000Y-127000000D01*
X143891000Y-127000000D02*
X113030000Y-127000000D01*
%TO.N,Net-(U30-CE)*%
X130769491Y-167553509D02*
X134112000Y-164211000D01*
X122780264Y-167358500D02*
X122975273Y-167553509D01*
X100081000Y-171435000D02*
X104157500Y-167358500D01*
X104157500Y-167358500D02*
X122780264Y-167358500D01*
X122975273Y-167553509D02*
X130769491Y-167553509D01*
%TO.N,/~{CSR_VDP}*%
X234844818Y-155204802D02*
X227427809Y-155204802D01*
X227097007Y-154874000D02*
X215298088Y-154874000D01*
X214622987Y-155549101D02*
X175175993Y-155549101D01*
X175175993Y-155549101D02*
X174858494Y-155866600D01*
X249999000Y-156273000D02*
X248600000Y-154874000D01*
X254031180Y-156273000D02*
X249999000Y-156273000D01*
X227427809Y-155204802D02*
X227097007Y-154874000D01*
X248600000Y-154874000D02*
X235175620Y-154874000D01*
X215298088Y-154874000D02*
X214622987Y-155549101D01*
X235175620Y-154874000D02*
X234844818Y-155204802D01*
%TO.N,Net-(U27-SCIN)*%
X226695000Y-112395000D02*
X226695000Y-113919000D01*
X226695000Y-113919000D02*
X225552000Y-115062000D01*
X225552000Y-115062000D02*
X221488000Y-115062000D01*
X221488000Y-115062000D02*
X220345000Y-116205000D01*
%TO.N,/Video_Audio/VDP_R~{W}*%
X277114000Y-146812000D02*
X281305000Y-146812000D01*
X249573186Y-140843000D02*
X249399186Y-140669000D01*
X239622176Y-140665200D02*
X239140876Y-141146500D01*
X254475842Y-145671006D02*
X275973006Y-145671006D01*
X250444000Y-140843000D02*
X249573186Y-140843000D01*
X235612131Y-142748000D02*
X221488000Y-142748000D01*
X239140876Y-141146500D02*
X237213631Y-141146500D01*
X250618000Y-140669000D02*
X250444000Y-140843000D01*
X237213631Y-141146500D02*
X235612131Y-142748000D01*
X275973006Y-145671006D02*
X277114000Y-146812000D01*
X249399186Y-140669000D02*
X240712706Y-140669000D01*
X253990000Y-142250000D02*
X252409000Y-140669000D01*
X240712706Y-140669000D02*
X240708906Y-140665200D01*
X252409000Y-140669000D02*
X250618000Y-140669000D01*
X240708906Y-140665200D02*
X239622176Y-140665200D01*
%TO.N,/Video_Audio/VDP_RD4*%
X215021301Y-137414499D02*
X235547746Y-137414499D01*
X199985000Y-152450800D02*
X215021301Y-137414499D01*
X280007788Y-135326497D02*
X280268787Y-135065499D01*
X237635748Y-135326497D02*
X280007788Y-135326497D01*
X286830499Y-135065499D02*
X287655000Y-135890000D01*
X235547746Y-137414499D02*
X237635748Y-135326497D01*
X280268787Y-135065499D02*
X286830499Y-135065499D01*
%TO.N,Net-(RR1-R1)*%
X79121000Y-99441000D02*
X81280000Y-101600000D01*
X72055000Y-89015000D02*
X79121000Y-96081000D01*
X79121000Y-96081000D02*
X79121000Y-99441000D01*
%TO.N,Net-(RR1-R2)*%
X75311000Y-95041000D02*
X75311000Y-98044000D01*
X75311000Y-98044000D02*
X76327000Y-99060000D01*
X76327000Y-99060000D02*
X76327000Y-99187000D01*
X72055000Y-91785000D02*
X75311000Y-95041000D01*
X76327000Y-99187000D02*
X81280000Y-104140000D01*
%TO.N,Net-(RR1-R3)*%
X78867000Y-104267000D02*
X81280000Y-106680000D01*
X73279000Y-100330000D02*
X77216000Y-104267000D01*
X73279000Y-95779000D02*
X73279000Y-100330000D01*
X72055000Y-94555000D02*
X73279000Y-95779000D01*
X77216000Y-104267000D02*
X78867000Y-104267000D01*
%TO.N,Net-(U7B-D)*%
X97790000Y-136144000D02*
X96209000Y-134563000D01*
X88896360Y-134563000D02*
X88712360Y-134747000D01*
X96209000Y-134563000D02*
X88896360Y-134563000D01*
%TO.N,/Video_Audio/VDP_RD0*%
X210734800Y-134581000D02*
X234906286Y-134581000D01*
X260195999Y-132433999D02*
X260350000Y-132588000D01*
X237053287Y-132433999D02*
X260195999Y-132433999D01*
X192865000Y-152450800D02*
X210734800Y-134581000D01*
X234906286Y-134581000D02*
X237053287Y-132433999D01*
%TO.N,/Video_Audio/VDP_RD1*%
X256358996Y-133168996D02*
X256540000Y-133350000D01*
X235077499Y-135127501D02*
X237036004Y-133168996D01*
X194645000Y-152450800D02*
X211968299Y-135127501D01*
X237036004Y-133168996D02*
X256358996Y-133168996D01*
X211968299Y-135127501D02*
X235077499Y-135127501D01*
%TO.N,/Video_Audio/VDP_RD2*%
X235295396Y-136292473D02*
X235295396Y-136231421D01*
X235188372Y-136399497D02*
X235295396Y-136292473D01*
X212476303Y-136399497D02*
X235188372Y-136399497D01*
X237532821Y-133993996D02*
X254000000Y-133993996D01*
X235295396Y-136231421D02*
X237532821Y-133993996D01*
X196425000Y-152450800D02*
X212476303Y-136399497D01*
%TO.N,/Video_Audio/VDP_RD3*%
X213748802Y-136906998D02*
X235337533Y-136906998D01*
X258246004Y-134818996D02*
X259080000Y-133985000D01*
X235337533Y-136906998D02*
X237425535Y-134818996D01*
X237425535Y-134818996D02*
X258246004Y-134818996D01*
X198205000Y-152450800D02*
X213748802Y-136906998D01*
%TO.N,/Video_Audio/VDP_RD5*%
X237845961Y-135833998D02*
X280218002Y-135833998D01*
X283909000Y-135573000D02*
X285115000Y-136779000D01*
X280479000Y-135573000D02*
X283909000Y-135573000D01*
X216293800Y-137922000D02*
X235757959Y-137922000D01*
X235757959Y-137922000D02*
X237845961Y-135833998D01*
X280218002Y-135833998D02*
X280479000Y-135573000D01*
X201765000Y-152450800D02*
X216293800Y-137922000D01*
%TO.N,/Video_Audio/VDP_RD6*%
X281238499Y-136341499D02*
X281295000Y-136398000D01*
X235967673Y-138430000D02*
X238056174Y-136341499D01*
X216916000Y-138430000D02*
X235967673Y-138430000D01*
X238056174Y-136341499D02*
X281238499Y-136341499D01*
X203545000Y-151801000D02*
X216916000Y-138430000D01*
%TO.N,/Video_Audio/VDP_RD7*%
X212112071Y-144338501D02*
X267103070Y-144338501D01*
X205325000Y-151125572D02*
X212112071Y-144338501D01*
X267103070Y-144338501D02*
X267168574Y-144272998D01*
X268009427Y-144272998D02*
X268137425Y-144400997D01*
X205325000Y-152450800D02*
X205325000Y-151125572D01*
X284989997Y-144400997D02*
X285115000Y-144526000D01*
X267168574Y-144272998D02*
X268009427Y-144272998D01*
X268137425Y-144400997D02*
X284989997Y-144400997D01*
%TO.N,/Video_Audio/VDP_AD0*%
X250694998Y-144846002D02*
X254899612Y-144846002D01*
X207105000Y-150063286D02*
X212261785Y-144906501D01*
X207105000Y-152450800D02*
X207105000Y-150063286D01*
X254899612Y-144846002D02*
X254962109Y-144908499D01*
X249999501Y-144906501D02*
X250317000Y-145224000D01*
X212261785Y-144906501D02*
X249999501Y-144906501D01*
X250317000Y-145224000D02*
X250694998Y-144846002D01*
X276507305Y-144908499D02*
X277585806Y-145987000D01*
X254962109Y-144908499D02*
X276507305Y-144908499D01*
%TO.N,/Video_Audio/VDP_AD1*%
X243242582Y-145541002D02*
X243369583Y-145414002D01*
X212344998Y-145541002D02*
X243242582Y-145541002D01*
X274955000Y-146619503D02*
X274514004Y-146178507D01*
X267416208Y-146178507D02*
X266828218Y-146766497D01*
X243369583Y-145414002D02*
X247332501Y-145414002D01*
X248684996Y-146766497D02*
X247650000Y-145731501D01*
X247332501Y-145414002D02*
X247650000Y-145731501D01*
X274514004Y-146178507D02*
X267416208Y-146178507D01*
X208885000Y-149001000D02*
X212344998Y-145541002D01*
X266828218Y-146766497D02*
X248684996Y-146766497D01*
X208885000Y-152450800D02*
X208885000Y-149001000D01*
%TO.N,/Video_Audio/VDP_AD2*%
X268115814Y-124784000D02*
X272104000Y-124784000D01*
X240800814Y-148289000D02*
X244319186Y-148289000D01*
X263652000Y-125095000D02*
X267804814Y-125095000D01*
X263351000Y-124794000D02*
X263652000Y-125095000D01*
X246370000Y-126375000D02*
X247951000Y-124794000D01*
X267804814Y-125095000D02*
X268115814Y-124784000D01*
X210693000Y-148590000D02*
X240499814Y-148590000D01*
X240499814Y-148590000D02*
X240800814Y-148289000D01*
X272104000Y-124784000D02*
X273685000Y-126365000D01*
X247951000Y-124794000D02*
X263351000Y-124794000D01*
X244319186Y-148289000D02*
X245900186Y-149870000D01*
%TO.N,/Video_Audio/VDP_AD3*%
X246801270Y-146049498D02*
X248025770Y-147273998D01*
X242253998Y-146050000D02*
X242570000Y-146366002D01*
X218241800Y-146050000D02*
X242253998Y-146050000D01*
X242570000Y-146366002D02*
X242886504Y-146049498D01*
X242886504Y-146049498D02*
X246801270Y-146049498D01*
X217733800Y-146558000D02*
X218241800Y-146050000D01*
X269386698Y-147273998D02*
X269657189Y-147003507D01*
X248025770Y-147273998D02*
X269386698Y-147273998D01*
X212598000Y-146558000D02*
X217733800Y-146558000D01*
%TO.N,/Video_Audio/VDP_AD4*%
X267543814Y-123959000D02*
X271145000Y-123959000D01*
X245110000Y-124079000D02*
X263398000Y-124079000D01*
X266915315Y-124587499D02*
X267543814Y-123959000D01*
X263906499Y-124587499D02*
X266915315Y-124587499D01*
X242249000Y-143831000D02*
X243830000Y-142250000D01*
X263398000Y-124079000D02*
X263906499Y-124587499D01*
X216729000Y-143831000D02*
X242249000Y-143831000D01*
X215900000Y-143002000D02*
X216729000Y-143831000D01*
%TO.N,/Video_Audio/VDP_AD5*%
X246063705Y-147193000D02*
X246382207Y-146874498D01*
X255331218Y-147953505D02*
X273432495Y-147953505D01*
X216027000Y-147574000D02*
X227587123Y-147574000D01*
X229157577Y-147193000D02*
X246063705Y-147193000D01*
X273432495Y-147953505D02*
X273685000Y-147701000D01*
X227587123Y-147574000D02*
X228221123Y-146940000D01*
X228904577Y-146940000D02*
X229157577Y-147193000D01*
X247209208Y-147701499D02*
X254899609Y-147701499D01*
X255151614Y-147953504D02*
X255331217Y-147953503D01*
X246382207Y-146874498D02*
X247209208Y-147701499D01*
X254899609Y-147701499D02*
X255151614Y-147953504D01*
X255331217Y-147953503D02*
X255331218Y-147953505D01*
X228221123Y-146940000D02*
X228904577Y-146940000D01*
%TO.N,/Video_Audio/VDP_AD6*%
X262743999Y-140669000D02*
X262753999Y-140659000D01*
X256993316Y-140109030D02*
X257553286Y-140669000D01*
X236893557Y-140109030D02*
X256993316Y-140109030D01*
X262753999Y-140659000D02*
X274644000Y-140659000D01*
X257553286Y-140669000D02*
X262743999Y-140669000D01*
X220521800Y-139523200D02*
X236307727Y-139523200D01*
X217805000Y-142240000D02*
X220521800Y-139523200D01*
X236307727Y-139523200D02*
X236893557Y-140109030D01*
X274644000Y-140659000D02*
X276225000Y-142240000D01*
%TO.N,/Video_Audio/VDP_AD7*%
X241300000Y-138430000D02*
X242881000Y-136849000D01*
X267004000Y-136849000D02*
X268595000Y-138440000D01*
X219557600Y-149758400D02*
X219669200Y-149870000D01*
X219669200Y-149870000D02*
X241290000Y-149870000D01*
X242881000Y-136849000D02*
X267004000Y-136849000D01*
%TD*%
M02*
