%TF.GenerationSoftware,KiCad,Pcbnew,7.0.6-7.0.6~ubuntu22.04.1*%
%TF.CreationDate,2023-07-30T13:24:19+02:00*%
%TF.ProjectId,sbc,7362632e-6b69-4636-9164-5f7063625858,rev?*%
%TF.SameCoordinates,Original*%
%TF.FileFunction,Copper,L4,Bot*%
%TF.FilePolarity,Positive*%
%FSLAX46Y46*%
G04 Gerber Fmt 4.6, Leading zero omitted, Abs format (unit mm)*
G04 Created by KiCad (PCBNEW 7.0.6-7.0.6~ubuntu22.04.1) date 2023-07-30 13:24:19*
%MOMM*%
%LPD*%
G01*
G04 APERTURE LIST*
G04 Aperture macros list*
%AMRoundRect*
0 Rectangle with rounded corners*
0 $1 Rounding radius*
0 $2 $3 $4 $5 $6 $7 $8 $9 X,Y pos of 4 corners*
0 Add a 4 corners polygon primitive as box body*
4,1,4,$2,$3,$4,$5,$6,$7,$8,$9,$2,$3,0*
0 Add four circle primitives for the rounded corners*
1,1,$1+$1,$2,$3*
1,1,$1+$1,$4,$5*
1,1,$1+$1,$6,$7*
1,1,$1+$1,$8,$9*
0 Add four rect primitives between the rounded corners*
20,1,$1+$1,$2,$3,$4,$5,0*
20,1,$1+$1,$4,$5,$6,$7,0*
20,1,$1+$1,$6,$7,$8,$9,0*
20,1,$1+$1,$8,$9,$2,$3,0*%
G04 Aperture macros list end*
%TA.AperFunction,ComponentPad*%
%ADD10O,1.800000X2.300000*%
%TD*%
%TA.AperFunction,ComponentPad*%
%ADD11O,2.000000X2.300000*%
%TD*%
%TA.AperFunction,ComponentPad*%
%ADD12R,1.422400X1.422400*%
%TD*%
%TA.AperFunction,ComponentPad*%
%ADD13C,1.422400*%
%TD*%
%TA.AperFunction,ComponentPad*%
%ADD14R,2.000000X2.000000*%
%TD*%
%TA.AperFunction,ComponentPad*%
%ADD15C,2.000000*%
%TD*%
%TA.AperFunction,ComponentPad*%
%ADD16C,1.400000*%
%TD*%
%TA.AperFunction,ComponentPad*%
%ADD17O,1.400000X1.400000*%
%TD*%
%TA.AperFunction,ComponentPad*%
%ADD18R,1.200000X1.200000*%
%TD*%
%TA.AperFunction,ComponentPad*%
%ADD19C,1.200000*%
%TD*%
%TA.AperFunction,ComponentPad*%
%ADD20R,1.600000X1.600000*%
%TD*%
%TA.AperFunction,ComponentPad*%
%ADD21C,1.600000*%
%TD*%
%TA.AperFunction,ComponentPad*%
%ADD22R,1.700000X1.700000*%
%TD*%
%TA.AperFunction,ComponentPad*%
%ADD23O,1.700000X1.700000*%
%TD*%
%TA.AperFunction,ComponentPad*%
%ADD24R,1.600000X2.400000*%
%TD*%
%TA.AperFunction,ComponentPad*%
%ADD25O,1.600000X2.400000*%
%TD*%
%TA.AperFunction,ComponentPad*%
%ADD26R,2.500000X2.500000*%
%TD*%
%TA.AperFunction,ComponentPad*%
%ADD27C,2.500000*%
%TD*%
%TA.AperFunction,ComponentPad*%
%ADD28O,1.600000X1.600000*%
%TD*%
%TA.AperFunction,ComponentPad*%
%ADD29R,3.000000X3.000000*%
%TD*%
%TA.AperFunction,ComponentPad*%
%ADD30C,3.000000*%
%TD*%
%TA.AperFunction,ComponentPad*%
%ADD31C,4.000000*%
%TD*%
%TA.AperFunction,ComponentPad*%
%ADD32C,1.700000*%
%TD*%
%TA.AperFunction,ComponentPad*%
%ADD33C,3.500000*%
%TD*%
%TA.AperFunction,ComponentPad*%
%ADD34C,1.000000*%
%TD*%
%TA.AperFunction,ComponentPad*%
%ADD35C,2.300000*%
%TD*%
%TA.AperFunction,ComponentPad*%
%ADD36C,2.400000*%
%TD*%
%TA.AperFunction,ComponentPad*%
%ADD37C,1.501140*%
%TD*%
%TA.AperFunction,ComponentPad*%
%ADD38C,3.700780*%
%TD*%
%TA.AperFunction,ComponentPad*%
%ADD39R,1.050000X1.500000*%
%TD*%
%TA.AperFunction,ComponentPad*%
%ADD40O,1.050000X1.500000*%
%TD*%
%TA.AperFunction,ComponentPad*%
%ADD41C,1.500000*%
%TD*%
%TA.AperFunction,ComponentPad*%
%ADD42R,1.200000X1.700000*%
%TD*%
%TA.AperFunction,ComponentPad*%
%ADD43O,1.200000X1.700000*%
%TD*%
%TA.AperFunction,ComponentPad*%
%ADD44R,3.500000X3.500000*%
%TD*%
%TA.AperFunction,ComponentPad*%
%ADD45RoundRect,0.750000X-1.000000X0.750000X-1.000000X-0.750000X1.000000X-0.750000X1.000000X0.750000X0*%
%TD*%
%TA.AperFunction,ComponentPad*%
%ADD46RoundRect,0.875000X-0.875000X0.875000X-0.875000X-0.875000X0.875000X-0.875000X0.875000X0.875000X0*%
%TD*%
%TA.AperFunction,SMDPad,CuDef*%
%ADD47RoundRect,0.250000X-0.650000X0.412500X-0.650000X-0.412500X0.650000X-0.412500X0.650000X0.412500X0*%
%TD*%
%TA.AperFunction,SMDPad,CuDef*%
%ADD48RoundRect,0.250000X0.412500X0.650000X-0.412500X0.650000X-0.412500X-0.650000X0.412500X-0.650000X0*%
%TD*%
%TA.AperFunction,SMDPad,CuDef*%
%ADD49RoundRect,0.250000X-0.412500X-0.650000X0.412500X-0.650000X0.412500X0.650000X-0.412500X0.650000X0*%
%TD*%
%TA.AperFunction,SMDPad,CuDef*%
%ADD50RoundRect,0.250000X0.650000X-0.412500X0.650000X0.412500X-0.650000X0.412500X-0.650000X-0.412500X0*%
%TD*%
%TA.AperFunction,ViaPad*%
%ADD51C,0.889000*%
%TD*%
%TA.AperFunction,Conductor*%
%ADD52C,0.254000*%
%TD*%
G04 APERTURE END LIST*
D10*
%TO.P,J3,R*%
%TO.N,/Video_Audio/Audio_analog/AUDIO_OUT*%
X197328000Y-74683000D03*
%TO.P,J3,S*%
X192728000Y-74683000D03*
D11*
%TO.P,J3,T*%
%TO.N,GND*%
X192278000Y-67183000D03*
X197778000Y-67183000D03*
%TD*%
D12*
%TO.P,U11,1,VSS*%
%TO.N,GND*%
X151765000Y-182225000D03*
D13*
%TO.P,U11,2,PA0*%
%TO.N,Net-(U11-PA0)*%
X149225000Y-179685000D03*
%TO.P,U11,3,PA1*%
%TO.N,Net-(U11-PA1)*%
X149225000Y-182225000D03*
%TO.P,U11,4,PA2*%
%TO.N,Net-(U11-PA2)*%
X146685000Y-179685000D03*
%TO.P,U11,5,PA3*%
%TO.N,Net-(U11-PA3)*%
X146685000Y-182225000D03*
%TO.P,U11,6,PA4*%
%TO.N,Net-(U11-PA4)*%
X144145000Y-179685000D03*
%TO.P,U11,7,PA5*%
%TO.N,Net-(U11-PA5)*%
X141605000Y-182225000D03*
%TO.P,U11,8,PA6*%
%TO.N,Net-(U11-PA6)*%
X144145000Y-182225000D03*
%TO.P,U11,9,PA7*%
%TO.N,Net-(U11-PA7)*%
X141605000Y-184765000D03*
%TO.P,U11,10,PB0*%
%TO.N,/SPI_CLK*%
X144145000Y-184765000D03*
%TO.P,U11,11,nc*%
%TO.N,unconnected-(U11-nc-Pad11)*%
X141605000Y-187305000D03*
%TO.P,U11,12,PB1*%
%TO.N,/~{SPI_SS_SDCARD}*%
X144145000Y-187305000D03*
%TO.P,U11,13,PB2*%
%TO.N,/~{SPI_SS_PS2}*%
X141605000Y-189845000D03*
%TO.P,U11,14,PB3*%
%TO.N,/~{SPI_SS_RTC}*%
X144145000Y-189845000D03*
%TO.P,U11,15,PB4*%
%TO.N,/~{SPI_SS_UNUSED}*%
X141605000Y-192385000D03*
%TO.P,U11,16,PB5*%
%TO.N,Net-(U11-PB5)*%
X144145000Y-192385000D03*
%TO.P,U11,17,PB6*%
%TO.N,Net-(U11-PB6)*%
X141605000Y-194925000D03*
%TO.P,U11,18,PB7*%
%TO.N,/SPI_MOSI*%
X144145000Y-197465000D03*
%TO.P,U11,19,CB1*%
%TO.N,/SPI_CLK*%
X144145000Y-194925000D03*
%TO.P,U11,20,CB2*%
%TO.N,/SPI_MISO*%
X146685000Y-197465000D03*
%TO.P,U11,21,VDD*%
%TO.N,VCC*%
X146685000Y-194925000D03*
%TO.P,U11,22,nc*%
%TO.N,unconnected-(U11-nc-Pad22)*%
X149225000Y-197465000D03*
%TO.P,U11,23,~{IRQ}*%
%TO.N,Net-(D1-K)*%
X149225000Y-194925000D03*
%TO.P,U11,24,R/~{W}*%
%TO.N,/CPU_R~{W}*%
X151765000Y-197465000D03*
%TO.P,U11,25,~{CS2}*%
%TO.N,/~{CS_VIA}*%
X151765000Y-194925000D03*
%TO.P,U11,26,CS1*%
%TO.N,VCC*%
X154305000Y-197465000D03*
%TO.P,U11,27,\u03D52*%
%TO.N,/PHI2*%
X154305000Y-194925000D03*
%TO.P,U11,28,D7*%
%TO.N,/CPU_D7*%
X156845000Y-197465000D03*
%TO.P,U11,29,D6*%
%TO.N,/CPU_D6*%
X159385000Y-194925000D03*
%TO.P,U11,30,D5*%
%TO.N,/CPU_D5*%
X156845000Y-194925000D03*
%TO.P,U11,31,D4*%
%TO.N,/CPU_D4*%
X159385000Y-192385000D03*
%TO.P,U11,32,D3*%
%TO.N,/CPU_D3*%
X156845000Y-192385000D03*
%TO.P,U11,33,nc*%
%TO.N,unconnected-(U11-nc-Pad33)*%
X159385000Y-189845000D03*
%TO.P,U11,34,D2*%
%TO.N,/CPU_D2*%
X156845000Y-189845000D03*
%TO.P,U11,35,D1*%
%TO.N,/CPU_D1*%
X159385000Y-187305000D03*
%TO.P,U11,36,D0*%
%TO.N,/CPU_D0*%
X156845000Y-187305000D03*
%TO.P,U11,37,~{RES}*%
%TO.N,/~{RESET}*%
X159385000Y-184765000D03*
%TO.P,U11,38,nc*%
%TO.N,unconnected-(U11-nc-Pad38)*%
X156845000Y-184765000D03*
%TO.P,U11,39,RS3*%
%TO.N,/CPU_A3*%
X159385000Y-182225000D03*
%TO.P,U11,40,RS2*%
%TO.N,/CPU_A2*%
X156845000Y-179685000D03*
%TO.P,U11,41,RS1*%
%TO.N,/CPU_A1*%
X156845000Y-182225000D03*
%TO.P,U11,42,RS0*%
%TO.N,/CPU_A0*%
X154305000Y-179685000D03*
%TO.P,U11,43,CA2*%
%TO.N,Net-(U11-CA2)*%
X154305000Y-182225000D03*
%TO.P,U11,44,CA1*%
%TO.N,Net-(U11-CA1)*%
X151765000Y-179685000D03*
%TD*%
D14*
%TO.P,C3,1*%
%TO.N,VCC*%
X163240323Y-154178000D03*
D15*
%TO.P,C3,2*%
%TO.N,GND*%
X168240323Y-154178000D03*
%TD*%
D16*
%TO.P,R30,1*%
%TO.N,GND*%
X207391000Y-106934000D03*
D17*
%TO.P,R30,2*%
%TO.N,/Video_Audio/RGB_B*%
X207391000Y-114554000D03*
%TD*%
D16*
%TO.P,R10,1*%
%TO.N,/PA6*%
X81915000Y-170180000D03*
D17*
%TO.P,R10,2*%
%TO.N,Net-(U11-PA6)*%
X89535000Y-170180000D03*
%TD*%
D16*
%TO.P,R6,1*%
%TO.N,/PA2*%
X81915000Y-177800000D03*
D17*
%TO.P,R6,2*%
%TO.N,Net-(U11-PA2)*%
X89535000Y-177800000D03*
%TD*%
D18*
%TO.P,C38,1*%
%TO.N,VCC*%
X205740000Y-129540000D03*
D19*
%TO.P,C38,2*%
%TO.N,GND*%
X207740000Y-129540000D03*
%TD*%
D20*
%TO.P,C46,1*%
%TO.N,VCC*%
X241300000Y-111760000D03*
D21*
%TO.P,C46,2*%
%TO.N,GND*%
X241300000Y-109260000D03*
%TD*%
D22*
%TO.P,JTAG1,1,Pin_1*%
%TO.N,/TMS*%
X281559000Y-160401000D03*
D23*
%TO.P,JTAG1,2,Pin_2*%
%TO.N,/TDI*%
X279019000Y-160401000D03*
%TO.P,JTAG1,3,Pin_3*%
%TO.N,/TDO*%
X276479000Y-160401000D03*
%TO.P,JTAG1,4,Pin_4*%
%TO.N,/TCK*%
X273939000Y-160401000D03*
%TO.P,JTAG1,5,Pin_5*%
%TO.N,GND*%
X271399000Y-160401000D03*
%TO.P,JTAG1,6,Pin_6*%
%TO.N,VCC*%
X268859000Y-160401000D03*
%TD*%
D16*
%TO.P,R27,1*%
%TO.N,GND*%
X207010000Y-102235000D03*
D17*
%TO.P,R27,2*%
%TO.N,Net-(C43-Pad1)*%
X207010000Y-94615000D03*
%TD*%
D24*
%TO.P,U12,1,A->B*%
%TO.N,GND*%
X161925000Y-163815000D03*
D25*
%TO.P,U12,2,A0*%
%TO.N,/~{BUF_OE}*%
X159385000Y-163815000D03*
%TO.P,U12,3,A1*%
%TO.N,/~{BUF_WE}*%
X156845000Y-163815000D03*
%TO.P,U12,4,A2*%
%TO.N,/BUF_R~{W}*%
X154305000Y-163815000D03*
%TO.P,U12,5,A3*%
%TO.N,/BUF_PHI2*%
X151765000Y-163815000D03*
%TO.P,U12,6,A4*%
%TO.N,/BUF_A0*%
X149225000Y-163815000D03*
%TO.P,U12,7,A5*%
%TO.N,/BUF_A1*%
X146685000Y-163815000D03*
%TO.P,U12,8,A6*%
%TO.N,/BUF_A2*%
X144145000Y-163815000D03*
%TO.P,U12,9,A7*%
%TO.N,/BUF_A3*%
X141605000Y-163815000D03*
%TO.P,U12,10,GND*%
%TO.N,GND*%
X139065000Y-163815000D03*
%TO.P,U12,11,B7*%
%TO.N,/CPU_A3*%
X139065000Y-171435000D03*
%TO.P,U12,12,B6*%
%TO.N,/CPU_A2*%
X141605000Y-171435000D03*
%TO.P,U12,13,B5*%
%TO.N,/CPU_A1*%
X144145000Y-171435000D03*
%TO.P,U12,14,B4*%
%TO.N,/CPU_A0*%
X146685000Y-171435000D03*
%TO.P,U12,15,B3*%
%TO.N,/PHI2*%
X149225000Y-171435000D03*
%TO.P,U12,16,B2*%
%TO.N,/CPU_R~{W}*%
X151765000Y-171435000D03*
%TO.P,U12,17,B1*%
%TO.N,/~{WE}*%
X154305000Y-171435000D03*
%TO.P,U12,18,B0*%
%TO.N,/~{OE}*%
X156845000Y-171435000D03*
%TO.P,U12,19,CE*%
%TO.N,GND*%
X159385000Y-171435000D03*
%TO.P,U12,20,VCC*%
%TO.N,VCC*%
X161925000Y-171435000D03*
%TD*%
D24*
%TO.P,U7,1,EN*%
%TO.N,Net-(U29-OEb)*%
X107950000Y-136144000D03*
D25*
%TO.P,U7,2,D*%
%TO.N,Net-(RR1-R5)*%
X105410000Y-136144000D03*
%TO.P,U7,3,O*%
%TO.N,/PA4*%
X102870000Y-136144000D03*
%TO.P,U7,4,EN*%
%TO.N,Net-(U29-OEa)*%
X100330000Y-136144000D03*
%TO.P,U7,5,D*%
%TO.N,Net-(U7B-D)*%
X97790000Y-136144000D03*
%TO.P,U7,6,O*%
%TO.N,/PA4*%
X95250000Y-136144000D03*
%TO.P,U7,7,GND*%
%TO.N,GND*%
X92710000Y-136144000D03*
%TO.P,U7,8,O*%
%TO.N,/SPI_MISO*%
X92710000Y-143764000D03*
%TO.P,U7,9,D*%
%TO.N,/SD Card/DAT0*%
X95250000Y-143764000D03*
%TO.P,U7,10,EN*%
%TO.N,/~{SPI_SS_SDCARD}*%
X97790000Y-143764000D03*
%TO.P,U7,11,O*%
%TO.N,unconnected-(U7D-O-Pad11)*%
X100330000Y-143764000D03*
%TO.P,U7,12,D*%
%TO.N,unconnected-(U7D-D-Pad12)*%
X102870000Y-143764000D03*
%TO.P,U7,13,EN*%
%TO.N,unconnected-(U7D-EN-Pad13)*%
X105410000Y-143764000D03*
%TO.P,U7,14,VCC*%
%TO.N,VCC*%
X107950000Y-143764000D03*
%TD*%
D16*
%TO.P,R40,1*%
%TO.N,Net-(C56-Pad1)*%
X231140000Y-91440000D03*
D17*
%TO.P,R40,2*%
%TO.N,GND*%
X231140000Y-99060000D03*
%TD*%
D24*
%TO.P,U26,1*%
%TO.N,Net-(U26A--)*%
X200660000Y-91440000D03*
D25*
%TO.P,U26,2,-*%
X198120000Y-91440000D03*
%TO.P,U26,3,+*%
%TO.N,Net-(U25-ToBUFF)*%
X195580000Y-91440000D03*
%TO.P,U26,4,V+*%
%TO.N,VCC*%
X193040000Y-91440000D03*
%TO.P,U26,5,+*%
%TO.N,Net-(U25-RB)*%
X190500000Y-91440000D03*
%TO.P,U26,6,-*%
%TO.N,Net-(U25-MP)*%
X187960000Y-91440000D03*
%TO.P,U26,7*%
X185420000Y-91440000D03*
%TO.P,U26,8*%
%TO.N,Net-(U26C--)*%
X185420000Y-99060000D03*
%TO.P,U26,9,-*%
X187960000Y-99060000D03*
%TO.P,U26,10,+*%
%TO.N,Net-(U26C-+)*%
X190500000Y-99060000D03*
%TO.P,U26,11,V-*%
%TO.N,GND*%
X193040000Y-99060000D03*
%TO.P,U26,12,+*%
%TO.N,Net-(U26C--)*%
X195580000Y-99060000D03*
%TO.P,U26,13,-*%
%TO.N,Net-(U26D--)*%
X198120000Y-99060000D03*
%TO.P,U26,14*%
%TO.N,Net-(C43-Pad1)*%
X200660000Y-99060000D03*
%TD*%
D22*
%TO.P,JP2,1,A*%
%TO.N,/CPU_RDY*%
X261620000Y-160401000D03*
D23*
%TO.P,JP2,2,B*%
%TO.N,Net-(JP2-B)*%
X259080000Y-160401000D03*
%TD*%
D16*
%TO.P,R7,1*%
%TO.N,/PA3*%
X81915000Y-185420000D03*
D17*
%TO.P,R7,2*%
%TO.N,Net-(U11-PA3)*%
X89535000Y-185420000D03*
%TD*%
D26*
%TO.P,X3,1,NC*%
%TO.N,unconnected-(X3-NC-Pad1)*%
X213995000Y-128905000D03*
D27*
%TO.P,X3,7,GND*%
%TO.N,GND*%
X229235000Y-128905000D03*
%TO.P,X3,8,FREQ*%
%TO.N,Net-(X3-FREQ)*%
X229235000Y-121285000D03*
%TO.P,X3,14,+5V*%
%TO.N,VCC*%
X213995000Y-121285000D03*
%TD*%
D16*
%TO.P,R31,1*%
%TO.N,Net-(X3-FREQ)*%
X225425000Y-116205000D03*
D17*
%TO.P,R31,2*%
%TO.N,Net-(U27-SCIN)*%
X217805000Y-116205000D03*
%TD*%
D20*
%TO.P,RR1,1,common*%
%TO.N,VCC*%
X81280000Y-99060000D03*
D28*
%TO.P,RR1,2,R1*%
%TO.N,Net-(RR1-R1)*%
X81280000Y-101600000D03*
%TO.P,RR1,3,R2*%
%TO.N,Net-(RR1-R2)*%
X81280000Y-104140000D03*
%TO.P,RR1,4,R3*%
%TO.N,Net-(RR1-R3)*%
X81280000Y-106680000D03*
%TO.P,RR1,5,R4*%
%TO.N,Net-(RR1-R4)*%
X81280000Y-109220000D03*
%TO.P,RR1,6,R5*%
%TO.N,Net-(RR1-R5)*%
X81280000Y-111760000D03*
%TO.P,RR1,7,R6*%
%TO.N,Net-(RR1-R6)*%
X81280000Y-114300000D03*
%TO.P,RR1,8,R7*%
%TO.N,Net-(RR1-R7)*%
X81280000Y-116840000D03*
%TO.P,RR1,9,R8*%
%TO.N,Net-(RR1-R8)*%
X81280000Y-119380000D03*
%TD*%
D21*
%TO.P,C32,1*%
%TO.N,Net-(U18-XTAL1)*%
X225425000Y-156210000D03*
%TO.P,C32,2*%
%TO.N,GND*%
X225425000Y-158710000D03*
%TD*%
D20*
%TO.P,C56,1*%
%TO.N,Net-(C56-Pad1)*%
X233680000Y-87590000D03*
D21*
%TO.P,C56,2*%
%TO.N,Net-(C56-Pad2)*%
X233680000Y-85090000D03*
%TD*%
D16*
%TO.P,R26,1*%
%TO.N,Net-(U26D--)*%
X204470000Y-94615000D03*
D17*
%TO.P,R26,2*%
%TO.N,Net-(C43-Pad1)*%
X204470000Y-102235000D03*
%TD*%
D24*
%TO.P,U28,1*%
%TO.N,/PA7*%
X107701000Y-163815000D03*
D25*
%TO.P,U28,2*%
X105161000Y-163815000D03*
%TO.P,U28,3*%
%TO.N,Net-(U28-Pad10)*%
X102621000Y-163815000D03*
%TO.P,U28,4*%
%TO.N,/PA7*%
X100081000Y-163815000D03*
%TO.P,U28,5*%
%TO.N,/~{JOYPORT_ENABLE}*%
X97541000Y-163815000D03*
%TO.P,U28,6*%
%TO.N,Net-(U29-OEb)*%
X95001000Y-163815000D03*
%TO.P,U28,7,GND*%
%TO.N,GND*%
X92461000Y-163815000D03*
%TO.P,U28,8*%
%TO.N,Net-(U29-OEa)*%
X92461000Y-171435000D03*
%TO.P,U28,9*%
%TO.N,/~{JOYPORT_ENABLE}*%
X95001000Y-171435000D03*
%TO.P,U28,10*%
%TO.N,Net-(U28-Pad10)*%
X97541000Y-171435000D03*
%TO.P,U28,11*%
%TO.N,Net-(U30-CE)*%
X100081000Y-171435000D03*
%TO.P,U28,12*%
%TO.N,/~{SPI_SS_RTC}*%
X102621000Y-171435000D03*
%TO.P,U28,13*%
X105161000Y-171435000D03*
%TO.P,U28,14,VCC*%
%TO.N,VCC*%
X107701000Y-171435000D03*
%TD*%
D18*
%TO.P,C17,1*%
%TO.N,VCC*%
X164675600Y-103124000D03*
D19*
%TO.P,C17,2*%
%TO.N,GND*%
X162675600Y-103124000D03*
%TD*%
D20*
%TO.P,C51,1*%
%TO.N,Net-(C51-Pad1)*%
X237871000Y-81748000D03*
D21*
%TO.P,C51,2*%
%TO.N,/Video_Audio/Video_analog/Y_OUT*%
X237871000Y-79248000D03*
%TD*%
D20*
%TO.P,C50,1*%
%TO.N,Net-(C50-Pad1)*%
X212344000Y-87590000D03*
D21*
%TO.P,C50,2*%
%TO.N,Net-(C50-Pad2)*%
X212344000Y-85090000D03*
%TD*%
D16*
%TO.P,R25,1*%
%TO.N,Net-(U25-MP)*%
X204470000Y-84455000D03*
D17*
%TO.P,R25,2*%
%TO.N,Net-(U26D--)*%
X204470000Y-92075000D03*
%TD*%
D20*
%TO.P,C43,1*%
%TO.N,Net-(C43-Pad1)*%
X198120000Y-83780000D03*
D21*
%TO.P,C43,2*%
%TO.N,/Video_Audio/Audio_analog/AUDIO_OUT*%
X198120000Y-81280000D03*
%TD*%
D20*
%TO.P,D1,1,K*%
%TO.N,Net-(D1-K)*%
X154051000Y-202565000D03*
D28*
%TO.P,D1,2,A*%
%TO.N,/~{IRQ}*%
X161671000Y-202565000D03*
%TD*%
D24*
%TO.P,U21,1,OE*%
%TO.N,GND*%
X261620000Y-130810000D03*
D25*
%TO.P,U21,2,DQ0*%
%TO.N,/Video_Audio/VDP_RD0*%
X259080000Y-130810000D03*
%TO.P,U21,3,DQ1*%
%TO.N,/Video_Audio/VDP_RD1*%
X256540000Y-130810000D03*
%TO.P,U21,4,WE*%
%TO.N,/Video_Audio/VDP_R~{W}*%
X254000000Y-130810000D03*
%TO.P,U21,5,RAS*%
%TO.N,/Video_Audio/{slash}RAS*%
X251460000Y-130810000D03*
%TO.P,U21,6,A6*%
%TO.N,/Video_Audio/VDP_AD6*%
X248920000Y-130810000D03*
%TO.P,U21,7,A5*%
%TO.N,/Video_Audio/VDP_AD5*%
X246380000Y-130810000D03*
%TO.P,U21,8,A4*%
%TO.N,/Video_Audio/VDP_AD4*%
X243840000Y-130810000D03*
%TO.P,U21,9,VCC*%
%TO.N,VCC*%
X241300000Y-130810000D03*
%TO.P,U21,10,A7*%
%TO.N,/Video_Audio/VDP_AD7*%
X241300000Y-138430000D03*
%TO.P,U21,11,A3*%
%TO.N,/Video_Audio/VDP_AD3*%
X243840000Y-138430000D03*
%TO.P,U21,12,A2*%
%TO.N,/Video_Audio/VDP_AD2*%
X246380000Y-138430000D03*
%TO.P,U21,13,A1*%
%TO.N,/Video_Audio/VDP_AD1*%
X248920000Y-138430000D03*
%TO.P,U21,14,A0*%
%TO.N,/Video_Audio/VDP_AD0*%
X251460000Y-138430000D03*
%TO.P,U21,15,DQ2*%
%TO.N,/Video_Audio/VDP_RD2*%
X254000000Y-138430000D03*
%TO.P,U21,16,CAS*%
%TO.N,/Video_Audio/{slash}CAS1*%
X256540000Y-138430000D03*
%TO.P,U21,17,DQ3*%
%TO.N,/Video_Audio/VDP_RD3*%
X259080000Y-138430000D03*
%TO.P,U21,18,VSS*%
%TO.N,GND*%
X261620000Y-138430000D03*
%TD*%
D24*
%TO.P,U19,1,OE*%
%TO.N,GND*%
X261610000Y-142250000D03*
D25*
%TO.P,U19,2,DQ0*%
%TO.N,/Video_Audio/VDP_RD0*%
X259070000Y-142250000D03*
%TO.P,U19,3,DQ1*%
%TO.N,/Video_Audio/VDP_RD1*%
X256530000Y-142250000D03*
%TO.P,U19,4,WE*%
%TO.N,/Video_Audio/VDP_R~{W}*%
X253990000Y-142250000D03*
%TO.P,U19,5,RAS*%
%TO.N,/Video_Audio/{slash}RAS*%
X251450000Y-142250000D03*
%TO.P,U19,6,A6*%
%TO.N,/Video_Audio/VDP_AD6*%
X248910000Y-142250000D03*
%TO.P,U19,7,A5*%
%TO.N,/Video_Audio/VDP_AD5*%
X246370000Y-142250000D03*
%TO.P,U19,8,A4*%
%TO.N,/Video_Audio/VDP_AD4*%
X243830000Y-142250000D03*
%TO.P,U19,9,VCC*%
%TO.N,VCC*%
X241290000Y-142250000D03*
%TO.P,U19,10,A7*%
%TO.N,/Video_Audio/VDP_AD7*%
X241290000Y-149870000D03*
%TO.P,U19,11,A3*%
%TO.N,/Video_Audio/VDP_AD3*%
X243830000Y-149870000D03*
%TO.P,U19,12,A2*%
%TO.N,/Video_Audio/VDP_AD2*%
X246370000Y-149870000D03*
%TO.P,U19,13,A1*%
%TO.N,/Video_Audio/VDP_AD1*%
X248910000Y-149870000D03*
%TO.P,U19,14,A0*%
%TO.N,/Video_Audio/VDP_AD0*%
X251450000Y-149870000D03*
%TO.P,U19,15,DQ2*%
%TO.N,/Video_Audio/VDP_RD2*%
X253990000Y-149870000D03*
%TO.P,U19,16,CAS*%
%TO.N,/Video_Audio/{slash}CAS0*%
X256530000Y-149870000D03*
%TO.P,U19,17,DQ3*%
%TO.N,/Video_Audio/VDP_RD3*%
X259070000Y-149870000D03*
%TO.P,U19,18,VSS*%
%TO.N,GND*%
X261610000Y-149870000D03*
%TD*%
D24*
%TO.P,U25,1,VCC*%
%TO.N,VCC*%
X179705000Y-91440000D03*
D25*
%TO.P,U25,2,ToBUFF*%
%TO.N,Net-(U25-ToBUFF)*%
X177165000Y-91440000D03*
%TO.P,U25,3,LOAD*%
%TO.N,/Video_Audio/Audio_analog/LOAD*%
X174625000Y-91440000D03*
%TO.P,U25,4,SD*%
%TO.N,/Video_Audio/Audio_analog/SD*%
X172085000Y-91440000D03*
%TO.P,U25,5,fI*%
%TO.N,/Video_Audio/Audio_analog/fl*%
X172085000Y-99060000D03*
%TO.P,U25,6,GND*%
%TO.N,GND*%
X174625000Y-99060000D03*
%TO.P,U25,7,RB*%
%TO.N,Net-(U25-RB)*%
X177165000Y-99060000D03*
%TO.P,U25,8,MP*%
%TO.N,Net-(U25-MP)*%
X179705000Y-99060000D03*
%TD*%
D21*
%TO.P,C35,1*%
%TO.N,Net-(U18-XTAL2)*%
X240665000Y-156230000D03*
%TO.P,C35,2*%
%TO.N,GND*%
X240665000Y-158730000D03*
%TD*%
D16*
%TO.P,R36,1*%
%TO.N,Net-(U27-CVOUT)*%
X226060000Y-99060000D03*
D17*
%TO.P,R36,2*%
%TO.N,Net-(C56-Pad1)*%
X226060000Y-91440000D03*
%TD*%
D24*
%TO.P,U16,1,VCC*%
%TO.N,VCC*%
X200660000Y-111760000D03*
D25*
%TO.P,U16,2,~{IRQ}*%
%TO.N,/~{IRQ}*%
X198120000Y-111760000D03*
%TO.P,U16,3,~{IC}*%
%TO.N,/~{RESET}*%
X195580000Y-111760000D03*
%TO.P,U16,4,A0*%
%TO.N,/BUF_A0*%
X193040000Y-111760000D03*
%TO.P,U16,5,~{WR}*%
%TO.N,/~{BUF_WE}*%
X190500000Y-111760000D03*
%TO.P,U16,6,~{RD}*%
%TO.N,/~{BUF_OE}*%
X187960000Y-111760000D03*
%TO.P,U16,7,~{CS}*%
%TO.N,/~{CS_OPL}*%
X185420000Y-111760000D03*
%TO.P,U16,8*%
%TO.N,N/C*%
X182880000Y-111760000D03*
%TO.P,U16,9*%
X180340000Y-111760000D03*
%TO.P,U16,10,D0*%
%TO.N,/BUF_D0*%
X177800000Y-111760000D03*
%TO.P,U16,11,D1*%
%TO.N,/BUF_D1*%
X175260000Y-111760000D03*
%TO.P,U16,12,GND*%
%TO.N,GND*%
X172720000Y-111760000D03*
%TO.P,U16,13,D2*%
%TO.N,/BUF_D2*%
X172720000Y-127000000D03*
%TO.P,U16,14,D3*%
%TO.N,/BUF_D3*%
X175260000Y-127000000D03*
%TO.P,U16,15,D4*%
%TO.N,/BUF_D4*%
X177800000Y-127000000D03*
%TO.P,U16,16,D5*%
%TO.N,/BUF_D5*%
X180340000Y-127000000D03*
%TO.P,U16,17,D6*%
%TO.N,/BUF_D6*%
X182880000Y-127000000D03*
%TO.P,U16,18,D7*%
%TO.N,/BUF_D7*%
X185420000Y-127000000D03*
%TO.P,U16,19*%
%TO.N,N/C*%
X187960000Y-127000000D03*
%TO.P,U16,20,SH*%
%TO.N,/Video_Audio/Audio_analog/LOAD*%
X190500000Y-127000000D03*
%TO.P,U16,21,MO*%
%TO.N,/Video_Audio/Audio_analog/SD*%
X193040000Y-127000000D03*
%TO.P,U16,22*%
%TO.N,N/C*%
X195580000Y-127000000D03*
%TO.P,U16,23,fSY*%
%TO.N,/Video_Audio/Audio_analog/fl*%
X198120000Y-127000000D03*
%TO.P,U16,24,fM*%
%TO.N,/Video_Audio/OPL_CLK*%
X200660000Y-127000000D03*
%TD*%
D16*
%TO.P,R34,1*%
%TO.N,Net-(U27-GOUT)*%
X220980000Y-99060000D03*
D17*
%TO.P,R34,2*%
%TO.N,Net-(C53-Pad1)*%
X220980000Y-91440000D03*
%TD*%
D29*
%TO.P,BT1,1,+*%
%TO.N,Net-(BT1-+)*%
X113850001Y-109220001D03*
D30*
%TO.P,BT1,2,-*%
%TO.N,GND*%
X93360001Y-109220001D03*
%TD*%
D16*
%TO.P,R39,1*%
%TO.N,Net-(U27-COUT)*%
X236220000Y-99060000D03*
D17*
%TO.P,R39,2*%
%TO.N,Net-(C49-Pad1)*%
X236220000Y-91440000D03*
%TD*%
D24*
%TO.P,U10,1,GND*%
%TO.N,GND*%
X115580000Y-199898000D03*
D25*
%TO.P,U10,2,TR*%
%TO.N,/RESET_TRIG*%
X118120000Y-199898000D03*
%TO.P,U10,3,Q*%
%TO.N,Net-(U10-Q)*%
X120660000Y-199898000D03*
%TO.P,U10,4,R*%
%TO.N,VCC*%
X123200000Y-199898000D03*
%TO.P,U10,5,CV*%
%TO.N,Net-(U10-CV)*%
X123200000Y-192278000D03*
%TO.P,U10,6,THR*%
%TO.N,Net-(U10-DIS)*%
X120660000Y-192278000D03*
%TO.P,U10,7,DIS*%
X118120000Y-192278000D03*
%TO.P,U10,8,VCC*%
%TO.N,VCC*%
X115580000Y-192278000D03*
%TD*%
D26*
%TO.P,X1,1,NC*%
%TO.N,unconnected-(X1-NC-Pad1)*%
X287020000Y-175260000D03*
D27*
%TO.P,X1,7,GND*%
%TO.N,GND*%
X287020000Y-190500000D03*
%TO.P,X1,8,FREQ*%
%TO.N,/CLKIN*%
X294640000Y-190500000D03*
%TO.P,X1,14,+5V*%
%TO.N,VCC*%
X294640000Y-175260000D03*
%TD*%
D16*
%TO.P,R17,1*%
%TO.N,VCC*%
X166878000Y-195707000D03*
D17*
%TO.P,R17,2*%
%TO.N,/CPU_RDY*%
X166878000Y-188087000D03*
%TD*%
D20*
%TO.P,C53,1*%
%TO.N,Net-(C53-Pad1)*%
X226568000Y-87590000D03*
D21*
%TO.P,C53,2*%
%TO.N,/Video_Audio/Video_analog/G_OUT*%
X226568000Y-85090000D03*
%TD*%
D31*
%TO.P,J2,0,PAD*%
%TO.N,GND*%
X171641000Y-72134331D03*
X146641000Y-72134331D03*
D20*
%TO.P,J2,1,1*%
%TO.N,unconnected-(J2-Pad1)*%
X164681000Y-72434331D03*
D21*
%TO.P,J2,2,2*%
%TO.N,Net-(U8-R2IN)*%
X161911000Y-72434331D03*
%TO.P,J2,3,3*%
%TO.N,Net-(U8-T2OUT)*%
X159141000Y-72434331D03*
%TO.P,J2,4,4*%
%TO.N,Net-(J2-Pad4)*%
X156371000Y-72434331D03*
%TO.P,J2,5,5*%
%TO.N,GND*%
X153601000Y-72434331D03*
%TO.P,J2,6,6*%
%TO.N,unconnected-(J2-Pad6)*%
X163296000Y-69594331D03*
%TO.P,J2,7,7*%
%TO.N,Net-(U8-T1OUT)*%
X160526000Y-69594331D03*
%TO.P,J2,8,8*%
%TO.N,Net-(U8-R1IN)*%
X157756000Y-69594331D03*
%TO.P,J2,9,9*%
%TO.N,unconnected-(J2-Pad9)*%
X154986000Y-69594331D03*
%TD*%
D16*
%TO.P,R43,1*%
%TO.N,/~{SD_WRITE_PROTECT}*%
X101092000Y-174625000D03*
D17*
%TO.P,R43,2*%
%TO.N,Net-(U11-PB5)*%
X108712000Y-174625000D03*
%TD*%
D20*
%TO.P,C20,1*%
%TO.N,Net-(J6-VDD)*%
X109220000Y-76200000D03*
D21*
%TO.P,C20,2*%
%TO.N,GND*%
X111720000Y-76200000D03*
%TD*%
D24*
%TO.P,U5,1*%
%TO.N,Net-(U6-INTR)*%
X130942000Y-163815000D03*
D25*
%TO.P,U5,2*%
%TO.N,/~{IRQ}*%
X128402000Y-163815000D03*
%TO.P,U5,3*%
%TO.N,/~{RESET}*%
X125862000Y-163815000D03*
%TO.P,U5,4*%
%TO.N,Net-(U6-MR)*%
X123322000Y-163815000D03*
%TO.P,U5,5*%
%TO.N,Net-(U10-Q)*%
X120782000Y-163815000D03*
%TO.P,U5,6*%
%TO.N,/~{RESET}*%
X118242000Y-163815000D03*
%TO.P,U5,7,GND*%
%TO.N,GND*%
X115702000Y-163815000D03*
%TO.P,U5,8*%
%TO.N,unconnected-(U5-Pad8)*%
X115702000Y-171435000D03*
%TO.P,U5,9*%
%TO.N,GND*%
X118242000Y-171435000D03*
%TO.P,U5,10*%
%TO.N,unconnected-(U5-Pad10)*%
X120782000Y-171435000D03*
%TO.P,U5,11*%
%TO.N,GND*%
X123322000Y-171435000D03*
%TO.P,U5,12*%
%TO.N,unconnected-(U5-Pad12)*%
X125862000Y-171435000D03*
%TO.P,U5,13*%
%TO.N,GND*%
X128402000Y-171435000D03*
%TO.P,U5,14,VCC*%
%TO.N,VCC*%
X130942000Y-171435000D03*
%TD*%
D18*
%TO.P,C19,1*%
%TO.N,Net-(U8-C1+)*%
X167608000Y-86106000D03*
D19*
%TO.P,C19,2*%
%TO.N,Net-(U8-C1-)*%
X165608000Y-86106000D03*
%TD*%
D24*
%TO.P,U22,1,OE*%
%TO.N,GND*%
X288915000Y-130820000D03*
D25*
%TO.P,U22,2,DQ0*%
%TO.N,/Video_Audio/VDP_RD4*%
X286375000Y-130820000D03*
%TO.P,U22,3,DQ1*%
%TO.N,/Video_Audio/VDP_RD5*%
X283835000Y-130820000D03*
%TO.P,U22,4,WE*%
%TO.N,/Video_Audio/VDP_R~{W}*%
X281295000Y-130820000D03*
%TO.P,U22,5,RAS*%
%TO.N,/Video_Audio/{slash}RAS*%
X278755000Y-130820000D03*
%TO.P,U22,6,A6*%
%TO.N,/Video_Audio/VDP_AD6*%
X276215000Y-130820000D03*
%TO.P,U22,7,A5*%
%TO.N,/Video_Audio/VDP_AD5*%
X273675000Y-130820000D03*
%TO.P,U22,8,A4*%
%TO.N,/Video_Audio/VDP_AD4*%
X271135000Y-130820000D03*
%TO.P,U22,9,VCC*%
%TO.N,VCC*%
X268595000Y-130820000D03*
%TO.P,U22,10,A7*%
%TO.N,/Video_Audio/VDP_AD7*%
X268595000Y-138440000D03*
%TO.P,U22,11,A3*%
%TO.N,/Video_Audio/VDP_AD3*%
X271135000Y-138440000D03*
%TO.P,U22,12,A2*%
%TO.N,/Video_Audio/VDP_AD2*%
X273675000Y-138440000D03*
%TO.P,U22,13,A1*%
%TO.N,/Video_Audio/VDP_AD1*%
X276215000Y-138440000D03*
%TO.P,U22,14,A0*%
%TO.N,/Video_Audio/VDP_AD0*%
X278755000Y-138440000D03*
%TO.P,U22,15,DQ2*%
%TO.N,/Video_Audio/VDP_RD6*%
X281295000Y-138440000D03*
%TO.P,U22,16,CAS*%
%TO.N,/Video_Audio/{slash}CAS1*%
X283835000Y-138440000D03*
%TO.P,U22,17,DQ3*%
%TO.N,/Video_Audio/VDP_RD7*%
X286375000Y-138440000D03*
%TO.P,U22,18,VSS*%
%TO.N,GND*%
X288915000Y-138440000D03*
%TD*%
D22*
%TO.P,SLOT1,1,Pin_1*%
%TO.N,/BUF_D0*%
X123190000Y-91440000D03*
D23*
%TO.P,SLOT1,2,Pin_2*%
%TO.N,/BUF_A0*%
X120650000Y-91440000D03*
%TO.P,SLOT1,3,Pin_3*%
%TO.N,/BUF_D1*%
X123190000Y-93980000D03*
%TO.P,SLOT1,4,Pin_4*%
%TO.N,/BUF_A1*%
X120650000Y-93980000D03*
%TO.P,SLOT1,5,Pin_5*%
%TO.N,/BUF_D2*%
X123190000Y-96520000D03*
%TO.P,SLOT1,6,Pin_6*%
%TO.N,/BUF_A2*%
X120650000Y-96520000D03*
%TO.P,SLOT1,7,Pin_7*%
%TO.N,/BUF_D3*%
X123190000Y-99060000D03*
%TO.P,SLOT1,8,Pin_8*%
%TO.N,/BUF_A3*%
X120650000Y-99060000D03*
%TO.P,SLOT1,9,Pin_9*%
%TO.N,/BUF_D4*%
X123190000Y-101600000D03*
%TO.P,SLOT1,10,Pin_10*%
%TO.N,/BUF_R~{W}*%
X120650000Y-101600000D03*
%TO.P,SLOT1,11,Pin_11*%
%TO.N,/BUF_D5*%
X123190000Y-104140000D03*
%TO.P,SLOT1,12,Pin_12*%
%TO.N,/~{BUF_WE}*%
X120650000Y-104140000D03*
%TO.P,SLOT1,13,Pin_13*%
%TO.N,/BUF_D6*%
X123190000Y-106680000D03*
%TO.P,SLOT1,14,Pin_14*%
%TO.N,/~{BUF_OE}*%
X120650000Y-106680000D03*
%TO.P,SLOT1,15,Pin_15*%
%TO.N,/BUF_D7*%
X123190000Y-109220000D03*
%TO.P,SLOT1,16,Pin_16*%
%TO.N,/~{CS_SLOT1}*%
X120650000Y-109220000D03*
%TO.P,SLOT1,17,Pin_17*%
%TO.N,/~{IRQ}*%
X123190000Y-111760000D03*
%TO.P,SLOT1,18,Pin_18*%
%TO.N,/~{NMI}*%
X120650000Y-111760000D03*
%TO.P,SLOT1,19,Pin_19*%
%TO.N,/CPU_RDY*%
X123190000Y-114300000D03*
%TO.P,SLOT1,20,Pin_20*%
%TO.N,/BUF_PHI2*%
X120650000Y-114300000D03*
%TO.P,SLOT1,21,Pin_21*%
%TO.N,/~{RESET}*%
X123190000Y-116840000D03*
%TO.P,SLOT1,22,Pin_22*%
%TO.N,/RESET_TRIG*%
X120650000Y-116840000D03*
%TO.P,SLOT1,23,Pin_23*%
%TO.N,VCC*%
X123190000Y-119380000D03*
%TO.P,SLOT1,24,Pin_24*%
%TO.N,GND*%
X120650000Y-119380000D03*
%TD*%
D24*
%TO.P,U8,1,C1+*%
%TO.N,Net-(U8-C1+)*%
X164857400Y-91425000D03*
D25*
%TO.P,U8,2,VS+*%
%TO.N,Net-(U8-VS+)*%
X162317400Y-91425000D03*
%TO.P,U8,3,C1-*%
%TO.N,Net-(U8-C1-)*%
X159777400Y-91425000D03*
%TO.P,U8,4,C2+*%
%TO.N,Net-(U8-C2+)*%
X157237400Y-91425000D03*
%TO.P,U8,5,C2-*%
%TO.N,Net-(U8-C2-)*%
X154697400Y-91425000D03*
%TO.P,U8,6,VS-*%
%TO.N,Net-(U8-VS-)*%
X152157400Y-91425000D03*
%TO.P,U8,7,T2OUT*%
%TO.N,Net-(U8-T2OUT)*%
X149617400Y-91425000D03*
%TO.P,U8,8,R2IN*%
%TO.N,Net-(U8-R2IN)*%
X147077400Y-91425000D03*
%TO.P,U8,9,R2OUT*%
%TO.N,Net-(U6-SIN)*%
X147077400Y-99045000D03*
%TO.P,U8,10,T2IN*%
%TO.N,Net-(U6-SOUT)*%
X149617400Y-99045000D03*
%TO.P,U8,11,T1IN*%
%TO.N,Net-(U6-~{RTS})*%
X152157400Y-99045000D03*
%TO.P,U8,12,R1OUT*%
%TO.N,Net-(U6-~{CTS})*%
X154697400Y-99045000D03*
%TO.P,U8,13,R1IN*%
%TO.N,Net-(U8-R1IN)*%
X157237400Y-99045000D03*
%TO.P,U8,14,T1OUT*%
%TO.N,Net-(U8-T1OUT)*%
X159777400Y-99045000D03*
%TO.P,U8,15,GND*%
%TO.N,GND*%
X162317400Y-99045000D03*
%TO.P,U8,16,VCC*%
%TO.N,VCC*%
X164857400Y-99045000D03*
%TD*%
D16*
%TO.P,R5,1*%
%TO.N,/PA1*%
X81915000Y-187960000D03*
D17*
%TO.P,R5,2*%
%TO.N,Net-(U11-PA1)*%
X89535000Y-187960000D03*
%TD*%
D16*
%TO.P,R12,1*%
%TO.N,/CA1*%
X81915000Y-167640000D03*
D17*
%TO.P,R12,2*%
%TO.N,Net-(U11-CA1)*%
X89535000Y-167640000D03*
%TD*%
D16*
%TO.P,R3,1*%
%TO.N,VCC*%
X111887000Y-174625000D03*
D17*
%TO.P,R3,2*%
%TO.N,/~{RESET}*%
X119507000Y-174625000D03*
%TD*%
D12*
%TO.P,U6,1,NC*%
%TO.N,unconnected-(U6-NC-Pad1)*%
X163830000Y-119380000D03*
D13*
%TO.P,U6,2,D0*%
%TO.N,/BUF_D0*%
X166370000Y-116840000D03*
%TO.P,U6,3,D1*%
%TO.N,/BUF_D1*%
X163830000Y-116840000D03*
%TO.P,U6,4,D2*%
%TO.N,/BUF_D2*%
X166370000Y-114300000D03*
%TO.P,U6,5,D3*%
%TO.N,/BUF_D3*%
X163830000Y-114300000D03*
%TO.P,U6,6,D4*%
%TO.N,/BUF_D4*%
X166370000Y-111760000D03*
%TO.P,U6,7,D5*%
%TO.N,/BUF_D5*%
X163830000Y-109220000D03*
%TO.P,U6,8,D6*%
%TO.N,/BUF_D6*%
X163830000Y-111760000D03*
%TO.P,U6,9,D7*%
%TO.N,/BUF_D7*%
X161290000Y-109220000D03*
%TO.P,U6,10,RCLK*%
%TO.N,Net-(U6-RCLK)*%
X161290000Y-111760000D03*
%TO.P,U6,11,SIN*%
%TO.N,Net-(U6-SIN)*%
X158750000Y-109220000D03*
%TO.P,U6,12,NC*%
%TO.N,unconnected-(U6-NC-Pad12)*%
X158750000Y-111760000D03*
%TO.P,U6,13,SOUT*%
%TO.N,Net-(U6-SOUT)*%
X156210000Y-109220000D03*
%TO.P,U6,14,CS0*%
%TO.N,VCC*%
X156210000Y-111760000D03*
%TO.P,U6,15,CS1*%
X153670000Y-109220000D03*
%TO.P,U6,16,~{CS2}*%
%TO.N,/~{CS_UART}*%
X153670000Y-111760000D03*
%TO.P,U6,17,~{BAUDOUT}*%
%TO.N,Net-(U6-RCLK)*%
X151130000Y-109220000D03*
%TO.P,U6,18,XIN*%
%TO.N,Net-(U6-XIN)*%
X148590000Y-111760000D03*
%TO.P,U6,19,XOUT*%
%TO.N,unconnected-(U6-XOUT-Pad19)*%
X151130000Y-111760000D03*
%TO.P,U6,20,~{WR}*%
%TO.N,/~{BUF_WE}*%
X148590000Y-114300000D03*
%TO.P,U6,21,WR*%
%TO.N,GND*%
X151130000Y-114300000D03*
%TO.P,U6,22,GND*%
X148590000Y-116840000D03*
%TO.P,U6,23,NC*%
%TO.N,unconnected-(U6-NC-Pad23)*%
X151130000Y-116840000D03*
%TO.P,U6,24,~{RD}*%
%TO.N,/~{BUF_OE}*%
X148590000Y-119380000D03*
%TO.P,U6,25,RD*%
%TO.N,GND*%
X151130000Y-119380000D03*
%TO.P,U6,26,DDIS*%
%TO.N,unconnected-(U6-DDIS-Pad26)*%
X148590000Y-121920000D03*
%TO.P,U6,27,~{TXRDY}*%
%TO.N,unconnected-(U6-~{TXRDY}-Pad27)*%
X151130000Y-121920000D03*
%TO.P,U6,28,~{ADS}*%
%TO.N,GND*%
X148590000Y-124460000D03*
%TO.P,U6,29,A2*%
%TO.N,/BUF_A2*%
X151130000Y-127000000D03*
%TO.P,U6,30,A1*%
%TO.N,/BUF_A1*%
X151130000Y-124460000D03*
%TO.P,U6,31,A0*%
%TO.N,/BUF_A0*%
X153670000Y-127000000D03*
%TO.P,U6,32,~{RXRDY}*%
%TO.N,unconnected-(U6-~{RXRDY}-Pad32)*%
X153670000Y-124460000D03*
%TO.P,U6,33,INTR*%
%TO.N,Net-(U6-INTR)*%
X156210000Y-127000000D03*
%TO.P,U6,34,NC*%
%TO.N,unconnected-(U6-NC-Pad34)*%
X156210000Y-124460000D03*
%TO.P,U6,35,~{OUT2}*%
%TO.N,unconnected-(U6-~{OUT2}-Pad35)*%
X158750000Y-127000000D03*
%TO.P,U6,36,~{RTS}*%
%TO.N,Net-(U6-~{RTS})*%
X158750000Y-124460000D03*
%TO.P,U6,37,~{DTR}*%
%TO.N,unconnected-(U6-~{DTR}-Pad37)*%
X161290000Y-127000000D03*
%TO.P,U6,38,~{OUT1}*%
%TO.N,/~{JOYPORT_ENABLE}*%
X161290000Y-124460000D03*
%TO.P,U6,39,MR*%
%TO.N,Net-(U6-MR)*%
X163830000Y-127000000D03*
%TO.P,U6,40,~{CTS}*%
%TO.N,Net-(U6-~{CTS})*%
X166370000Y-124460000D03*
%TO.P,U6,41,~{DSR}*%
%TO.N,VCC*%
X163830000Y-124460000D03*
%TO.P,U6,42,~{DCD}*%
X166370000Y-121920000D03*
%TO.P,U6,43,~{RI}*%
X163830000Y-121920000D03*
%TO.P,U6,44,VCC*%
X166370000Y-119380000D03*
%TD*%
D16*
%TO.P,R24,1*%
%TO.N,Net-(C42-Pad2)*%
X209550000Y-102235000D03*
D17*
%TO.P,R24,2*%
%TO.N,Net-(U26C-+)*%
X209550000Y-94615000D03*
%TD*%
D24*
%TO.P,U30,1,VCC2*%
%TO.N,GND*%
X148336000Y-136144000D03*
D25*
%TO.P,U30,2,VBAT*%
%TO.N,Net-(BT1-+)*%
X145796000Y-136144000D03*
%TO.P,U30,3,X1*%
%TO.N,Net-(U30-X1)*%
X143256000Y-136144000D03*
%TO.P,U30,4,X2*%
%TO.N,Net-(U30-X2)*%
X140716000Y-136144000D03*
%TO.P,U30,5,/INT0*%
%TO.N,/~{IRQ}*%
X138176000Y-136144000D03*
%TO.P,U30,6,INT1*%
%TO.N,unconnected-(U30-INT1-Pad6)*%
X135636000Y-136144000D03*
%TO.P,U30,7,1HZ*%
%TO.N,unconnected-(U30-1HZ-Pad7)*%
X133096000Y-136144000D03*
%TO.P,U30,8,GND*%
%TO.N,GND*%
X130556000Y-136144000D03*
%TO.P,U30,9,MODE*%
%TO.N,VCC*%
X130556000Y-143764000D03*
%TO.P,U30,10,CE*%
%TO.N,Net-(U30-CE)*%
X133096000Y-143764000D03*
%TO.P,U30,11,SCLK*%
%TO.N,/SPI_CLK*%
X135636000Y-143764000D03*
%TO.P,U30,12,SDI*%
%TO.N,/SPI_MOSI*%
X138176000Y-143764000D03*
%TO.P,U30,13,SDO*%
%TO.N,/SPI_MISO*%
X140716000Y-143764000D03*
%TO.P,U30,14,VCCIF*%
%TO.N,VCC*%
X143256000Y-143764000D03*
%TO.P,U30,15,32KHZ*%
%TO.N,unconnected-(U30-32KHZ-Pad15)*%
X145796000Y-143764000D03*
%TO.P,U30,16,VCC1*%
%TO.N,VCC*%
X148336000Y-143764000D03*
%TD*%
D16*
%TO.P,R35,1*%
%TO.N,Net-(U27-BOUT)*%
X223520000Y-99060000D03*
D17*
%TO.P,R35,2*%
%TO.N,Net-(C55-Pad1)*%
X223520000Y-91440000D03*
%TD*%
D22*
%TO.P,SLOT0,1,Pin_1*%
%TO.N,/BUF_D0*%
X139700000Y-91440000D03*
D23*
%TO.P,SLOT0,2,Pin_2*%
%TO.N,/BUF_A0*%
X137160000Y-91440000D03*
%TO.P,SLOT0,3,Pin_3*%
%TO.N,/BUF_D1*%
X139700000Y-93980000D03*
%TO.P,SLOT0,4,Pin_4*%
%TO.N,/BUF_A1*%
X137160000Y-93980000D03*
%TO.P,SLOT0,5,Pin_5*%
%TO.N,/BUF_D2*%
X139700000Y-96520000D03*
%TO.P,SLOT0,6,Pin_6*%
%TO.N,/BUF_A2*%
X137160000Y-96520000D03*
%TO.P,SLOT0,7,Pin_7*%
%TO.N,/BUF_D3*%
X139700000Y-99060000D03*
%TO.P,SLOT0,8,Pin_8*%
%TO.N,/BUF_A3*%
X137160000Y-99060000D03*
%TO.P,SLOT0,9,Pin_9*%
%TO.N,/BUF_D4*%
X139700000Y-101600000D03*
%TO.P,SLOT0,10,Pin_10*%
%TO.N,/BUF_R~{W}*%
X137160000Y-101600000D03*
%TO.P,SLOT0,11,Pin_11*%
%TO.N,/BUF_D5*%
X139700000Y-104140000D03*
%TO.P,SLOT0,12,Pin_12*%
%TO.N,/~{BUF_WE}*%
X137160000Y-104140000D03*
%TO.P,SLOT0,13,Pin_13*%
%TO.N,/BUF_D6*%
X139700000Y-106680000D03*
%TO.P,SLOT0,14,Pin_14*%
%TO.N,/~{BUF_OE}*%
X137160000Y-106680000D03*
%TO.P,SLOT0,15,Pin_15*%
%TO.N,/BUF_D7*%
X139700000Y-109220000D03*
%TO.P,SLOT0,16,Pin_16*%
%TO.N,/~{CS_SLOT0}*%
X137160000Y-109220000D03*
%TO.P,SLOT0,17,Pin_17*%
%TO.N,/~{IRQ}*%
X139700000Y-111760000D03*
%TO.P,SLOT0,18,Pin_18*%
%TO.N,/~{NMI}*%
X137160000Y-111760000D03*
%TO.P,SLOT0,19,Pin_19*%
%TO.N,/CPU_RDY*%
X139700000Y-114300000D03*
%TO.P,SLOT0,20,Pin_20*%
%TO.N,/BUF_PHI2*%
X137160000Y-114300000D03*
%TO.P,SLOT0,21,Pin_21*%
%TO.N,/~{RESET}*%
X139700000Y-116840000D03*
%TO.P,SLOT0,22,Pin_22*%
%TO.N,/RESET_TRIG*%
X137160000Y-116840000D03*
%TO.P,SLOT0,23,Pin_23*%
%TO.N,VCC*%
X139700000Y-119380000D03*
%TO.P,SLOT0,24,Pin_24*%
%TO.N,GND*%
X137160000Y-119380000D03*
%TD*%
D16*
%TO.P,R1,1*%
%TO.N,VCC*%
X112141000Y-192278000D03*
D17*
%TO.P,R1,2*%
%TO.N,/RESET_TRIG*%
X112141000Y-199898000D03*
%TD*%
D16*
%TO.P,R29,1*%
%TO.N,GND*%
X209804000Y-106934000D03*
D17*
%TO.P,R29,2*%
%TO.N,/Video_Audio/RGB_R*%
X209804000Y-114554000D03*
%TD*%
D24*
%TO.P,U3,1,A18*%
%TO.N,/EXT_A18*%
X239395000Y-184150000D03*
D25*
%TO.P,U3,2,A16*%
%TO.N,/EXT_A16*%
X236855000Y-184150000D03*
%TO.P,U3,3,A14*%
%TO.N,/EXT_A14*%
X234315000Y-184150000D03*
%TO.P,U3,4,A12*%
%TO.N,/CPU_A12*%
X231775000Y-184150000D03*
%TO.P,U3,5,A7*%
%TO.N,/CPU_A7*%
X229235000Y-184150000D03*
%TO.P,U3,6,A6*%
%TO.N,/CPU_A6*%
X226695000Y-184150000D03*
%TO.P,U3,7,A5*%
%TO.N,/CPU_A5*%
X224155000Y-184150000D03*
%TO.P,U3,8,A4*%
%TO.N,/CPU_A4*%
X221615000Y-184150000D03*
%TO.P,U3,9,A3*%
%TO.N,/CPU_A3*%
X219075000Y-184150000D03*
%TO.P,U3,10,A2*%
%TO.N,/CPU_A2*%
X216535000Y-184150000D03*
%TO.P,U3,11,A1*%
%TO.N,/CPU_A1*%
X213995000Y-184150000D03*
%TO.P,U3,12,A0*%
%TO.N,/CPU_A0*%
X211455000Y-184150000D03*
%TO.P,U3,13,DQ0*%
%TO.N,/CPU_D0*%
X208915000Y-184150000D03*
%TO.P,U3,14,DQ1*%
%TO.N,/CPU_D1*%
X206375000Y-184150000D03*
%TO.P,U3,15,DQ2*%
%TO.N,/CPU_D2*%
X203835000Y-184150000D03*
%TO.P,U3,16,VSS*%
%TO.N,GND*%
X201295000Y-184150000D03*
%TO.P,U3,17,DQ3*%
%TO.N,/CPU_D3*%
X201295000Y-199390000D03*
%TO.P,U3,18,DQ4*%
%TO.N,/CPU_D4*%
X203835000Y-199390000D03*
%TO.P,U3,19,DQ5*%
%TO.N,/CPU_D5*%
X206375000Y-199390000D03*
%TO.P,U3,20,DQ6*%
%TO.N,/CPU_D6*%
X208915000Y-199390000D03*
%TO.P,U3,21,DQ7*%
%TO.N,/CPU_D7*%
X211455000Y-199390000D03*
%TO.P,U3,22,CE#*%
%TO.N,/~{CS_RAM}*%
X213995000Y-199390000D03*
%TO.P,U3,23,A10*%
%TO.N,/CPU_A10*%
X216535000Y-199390000D03*
%TO.P,U3,24,OE#*%
%TO.N,/~{OE}*%
X219075000Y-199390000D03*
%TO.P,U3,25,A11*%
%TO.N,/CPU_A11*%
X221615000Y-199390000D03*
%TO.P,U3,26,A9*%
%TO.N,/CPU_A9*%
X224155000Y-199390000D03*
%TO.P,U3,27,A8*%
%TO.N,/CPU_A8*%
X226695000Y-199390000D03*
%TO.P,U3,28,A13*%
%TO.N,/CPU_A13*%
X229235000Y-199390000D03*
%TO.P,U3,29,WE#*%
%TO.N,/~{WE}*%
X231775000Y-199390000D03*
%TO.P,U3,30,A17*%
%TO.N,/EXT_A17*%
X234315000Y-199390000D03*
%TO.P,U3,31,A15*%
%TO.N,/EXT_A15*%
X236855000Y-199390000D03*
%TO.P,U3,32,VCC*%
%TO.N,VCC*%
X239395000Y-199390000D03*
%TD*%
D31*
%TO.P,Joystick Port 2,0,PAD*%
%TO.N,GND*%
X71755000Y-79285000D03*
X71755000Y-104285000D03*
D20*
%TO.P,Joystick Port 2,1,1*%
%TO.N,Net-(U29-I0a)*%
X72055000Y-86245000D03*
D21*
%TO.P,Joystick Port 2,2,2*%
%TO.N,Net-(RR1-R1)*%
X72055000Y-89015000D03*
%TO.P,Joystick Port 2,3,3*%
%TO.N,Net-(RR1-R2)*%
X72055000Y-91785000D03*
%TO.P,Joystick Port 2,4,4*%
%TO.N,Net-(RR1-R3)*%
X72055000Y-94555000D03*
%TO.P,Joystick Port 2,5,5*%
%TO.N,unconnected-(Port2-Pad5)*%
X72055000Y-97325000D03*
%TO.P,Joystick Port 2,6,6*%
%TO.N,Net-(U7B-D)*%
X69215000Y-87630000D03*
%TO.P,Joystick Port 2,7,7*%
%TO.N,VCC*%
X69215000Y-90400000D03*
%TO.P,Joystick Port 2,8,8*%
%TO.N,GND*%
X69215000Y-93170000D03*
%TO.P,Joystick Port 2,9,9*%
%TO.N,unconnected-(Port2-Pad9)*%
X69215000Y-95940000D03*
%TD*%
D20*
%TO.P,RN2,1,common*%
%TO.N,Net-(J6-VDD)*%
X110490000Y-82550000D03*
D28*
%TO.P,RN2,2,R1*%
%TO.N,/SD Card/DAT2*%
X110490000Y-85090000D03*
%TO.P,RN2,3,R2*%
%TO.N,/SD Card/DAT3*%
X110490000Y-87630000D03*
%TO.P,RN2,4,R3*%
%TO.N,/SD Card/CMD*%
X110490000Y-90170000D03*
%TO.P,RN2,5,R4*%
%TO.N,/SD Card/CLK*%
X110490000Y-92710000D03*
%TO.P,RN2,6,R5*%
%TO.N,/SD Card/DAT1*%
X110490000Y-95250000D03*
%TD*%
D22*
%TO.P,J1,1,VBUS*%
%TO.N,VCC*%
X276169000Y-78751000D03*
D32*
%TO.P,J1,2,D-*%
%TO.N,unconnected-(J1-D--Pad2)*%
X278669000Y-78751000D03*
%TO.P,J1,3,D+*%
%TO.N,unconnected-(J1-D+-Pad3)*%
X278669000Y-76751000D03*
%TO.P,J1,4,GND*%
%TO.N,GND*%
X276169000Y-76751000D03*
D33*
%TO.P,J1,5,Shield*%
X271399000Y-74041000D03*
X283439000Y-74041000D03*
%TD*%
D20*
%TO.P,RN1,1,common*%
%TO.N,VCC*%
X166878000Y-185420000D03*
D28*
%TO.P,RN1,2,R1*%
%TO.N,/~{BE}*%
X166878000Y-182880000D03*
%TO.P,RN1,3,R2*%
%TO.N,unconnected-(RN1-R2-Pad3)*%
X166878000Y-180340000D03*
%TO.P,RN1,4,R3*%
%TO.N,/~{IRQ}*%
X166878000Y-177800000D03*
%TO.P,RN1,5,R4*%
%TO.N,/~{NMI}*%
X166878000Y-175260000D03*
%TD*%
D22*
%TO.P,JP1,1,A*%
%TO.N,/~{WE}*%
X238125000Y-180340000D03*
D23*
%TO.P,JP1,2,C*%
%TO.N,Net-(JP1-C)*%
X240665000Y-180340000D03*
%TO.P,JP1,3,B*%
%TO.N,VCC*%
X243205000Y-180340000D03*
%TD*%
D22*
%TO.P,P3,1,Pin_1*%
%TO.N,/SPI_MISO*%
X123190000Y-140970000D03*
D23*
%TO.P,P3,2,Pin_2*%
%TO.N,VCC*%
X120650000Y-140970000D03*
%TO.P,P3,3,Pin_3*%
%TO.N,/SPI_CLK*%
X123190000Y-138430000D03*
%TO.P,P3,4,Pin_4*%
%TO.N,/SPI_MOSI*%
X120650000Y-138430000D03*
%TO.P,P3,5,Pin_5*%
%TO.N,/~{RESET}*%
X123190000Y-135890000D03*
%TO.P,P3,6,Pin_6*%
%TO.N,GND*%
X120650000Y-135890000D03*
%TD*%
D21*
%TO.P,C2,1*%
%TO.N,Net-(U10-CV)*%
X126397000Y-193040000D03*
%TO.P,C2,2*%
%TO.N,GND*%
X128897000Y-193040000D03*
%TD*%
D24*
%TO.P,U13,1,A->B*%
%TO.N,/CPU_R~{W}*%
X193040000Y-163830000D03*
D25*
%TO.P,U13,2,A0*%
%TO.N,/BUF_D0*%
X190500000Y-163830000D03*
%TO.P,U13,3,A1*%
%TO.N,/BUF_D1*%
X187960000Y-163830000D03*
%TO.P,U13,4,A2*%
%TO.N,/BUF_D2*%
X185420000Y-163830000D03*
%TO.P,U13,5,A3*%
%TO.N,/BUF_D3*%
X182880000Y-163830000D03*
%TO.P,U13,6,A4*%
%TO.N,/BUF_D4*%
X180340000Y-163830000D03*
%TO.P,U13,7,A5*%
%TO.N,/BUF_D5*%
X177800000Y-163830000D03*
%TO.P,U13,8,A6*%
%TO.N,/BUF_D6*%
X175260000Y-163830000D03*
%TO.P,U13,9,A7*%
%TO.N,/BUF_D7*%
X172720000Y-163830000D03*
%TO.P,U13,10,GND*%
%TO.N,GND*%
X170180000Y-163830000D03*
%TO.P,U13,11,B7*%
%TO.N,/CPU_D7*%
X170180000Y-171450000D03*
%TO.P,U13,12,B6*%
%TO.N,/CPU_D6*%
X172720000Y-171450000D03*
%TO.P,U13,13,B5*%
%TO.N,/CPU_D5*%
X175260000Y-171450000D03*
%TO.P,U13,14,B4*%
%TO.N,/CPU_D4*%
X177800000Y-171450000D03*
%TO.P,U13,15,B3*%
%TO.N,/CPU_D3*%
X180340000Y-171450000D03*
%TO.P,U13,16,B2*%
%TO.N,/CPU_D2*%
X182880000Y-171450000D03*
%TO.P,U13,17,B1*%
%TO.N,/CPU_D1*%
X185420000Y-171450000D03*
%TO.P,U13,18,B0*%
%TO.N,/CPU_D0*%
X187960000Y-171450000D03*
%TO.P,U13,19,CE*%
%TO.N,/~{CS_BUFFER}*%
X190500000Y-171450000D03*
%TO.P,U13,20,VCC*%
%TO.N,VCC*%
X193040000Y-171450000D03*
%TD*%
D16*
%TO.P,R14,1*%
%TO.N,Net-(U26A--)*%
X212090000Y-94615000D03*
D17*
%TO.P,R14,2*%
%TO.N,Net-(C42-Pad2)*%
X212090000Y-102235000D03*
%TD*%
D24*
%TO.P,U20,1,OE*%
%TO.N,GND*%
X288925000Y-142240000D03*
D25*
%TO.P,U20,2,DQ0*%
%TO.N,/Video_Audio/VDP_RD4*%
X286385000Y-142240000D03*
%TO.P,U20,3,DQ1*%
%TO.N,/Video_Audio/VDP_RD5*%
X283845000Y-142240000D03*
%TO.P,U20,4,WE*%
%TO.N,/Video_Audio/VDP_R~{W}*%
X281305000Y-142240000D03*
%TO.P,U20,5,RAS*%
%TO.N,/Video_Audio/{slash}RAS*%
X278765000Y-142240000D03*
%TO.P,U20,6,A6*%
%TO.N,/Video_Audio/VDP_AD6*%
X276225000Y-142240000D03*
%TO.P,U20,7,A5*%
%TO.N,/Video_Audio/VDP_AD5*%
X273685000Y-142240000D03*
%TO.P,U20,8,A4*%
%TO.N,/Video_Audio/VDP_AD4*%
X271145000Y-142240000D03*
%TO.P,U20,9,VCC*%
%TO.N,VCC*%
X268605000Y-142240000D03*
%TO.P,U20,10,A7*%
%TO.N,/Video_Audio/VDP_AD7*%
X268605000Y-149860000D03*
%TO.P,U20,11,A3*%
%TO.N,/Video_Audio/VDP_AD3*%
X271145000Y-149860000D03*
%TO.P,U20,12,A2*%
%TO.N,/Video_Audio/VDP_AD2*%
X273685000Y-149860000D03*
%TO.P,U20,13,A1*%
%TO.N,/Video_Audio/VDP_AD1*%
X276225000Y-149860000D03*
%TO.P,U20,14,A0*%
%TO.N,/Video_Audio/VDP_AD0*%
X278765000Y-149860000D03*
%TO.P,U20,15,DQ2*%
%TO.N,/Video_Audio/VDP_RD6*%
X281305000Y-149860000D03*
%TO.P,U20,16,CAS*%
%TO.N,/Video_Audio/{slash}CAS0*%
X283845000Y-149860000D03*
%TO.P,U20,17,DQ3*%
%TO.N,/Video_Audio/VDP_RD7*%
X286385000Y-149860000D03*
%TO.P,U20,18,VSS*%
%TO.N,GND*%
X288925000Y-149860000D03*
%TD*%
D34*
%TO.P,X4,1,1*%
%TO.N,Net-(U30-X2)*%
X140848000Y-132080000D03*
%TO.P,X4,2,2*%
%TO.N,Net-(U30-X1)*%
X142748000Y-132080000D03*
%TD*%
D21*
%TO.P,C41,1*%
%TO.N,GND*%
X193000000Y-102235000D03*
%TO.P,C41,2*%
%TO.N,Net-(U26C-+)*%
X190500000Y-102235000D03*
%TD*%
D16*
%TO.P,R28,1*%
%TO.N,GND*%
X212217000Y-106934000D03*
D17*
%TO.P,R28,2*%
%TO.N,/Video_Audio/RGB_G*%
X212217000Y-114554000D03*
%TD*%
D16*
%TO.P,R38,1*%
%TO.N,Net-(U27-YOUT)*%
X233680000Y-99060000D03*
D17*
%TO.P,R38,2*%
%TO.N,Net-(C51-Pad1)*%
X233680000Y-91440000D03*
%TD*%
D16*
%TO.P,R23,1*%
%TO.N,GND*%
X207010000Y-92075000D03*
D17*
%TO.P,R23,2*%
%TO.N,Net-(U25-MP)*%
X207010000Y-84455000D03*
%TD*%
D18*
%TO.P,C25,1*%
%TO.N,VCC*%
X162814000Y-86106000D03*
D19*
%TO.P,C25,2*%
%TO.N,Net-(U8-VS+)*%
X160814000Y-86106000D03*
%TD*%
D18*
%TO.P,C21,1*%
%TO.N,Net-(U8-C2+)*%
X157944600Y-86106000D03*
D19*
%TO.P,C21,2*%
%TO.N,Net-(U8-C2-)*%
X155944600Y-86106000D03*
%TD*%
D16*
%TO.P,R32,1*%
%TO.N,/Video_Audio/CSYNC*%
X227965000Y-116205000D03*
D17*
%TO.P,R32,2*%
%TO.N,Net-(U27-SYNCIN)*%
X235585000Y-116205000D03*
%TD*%
D18*
%TO.P,C39,1*%
%TO.N,VCC*%
X193377599Y-86995000D03*
D19*
%TO.P,C39,2*%
%TO.N,GND*%
X191377599Y-86995000D03*
%TD*%
D21*
%TO.P,C1,1*%
%TO.N,/RESET_TRIG*%
X126437000Y-198120000D03*
%TO.P,C1,2*%
%TO.N,GND*%
X128937000Y-198120000D03*
%TD*%
D12*
%TO.P,U2,1,P1*%
%TO.N,/EXT_A17*%
X264795000Y-198120000D03*
D13*
%TO.P,U2,2,P2*%
%TO.N,/EXT_A18*%
X264795000Y-195580000D03*
%TO.P,U2,3,P3*%
%TO.N,/PHI2*%
X267335000Y-198120000D03*
%TO.P,U2,4,P4*%
%TO.N,/~{CS_ROM}*%
X267335000Y-195580000D03*
%TO.P,U2,5,P5*%
%TO.N,/~{CS_RAM}*%
X269875000Y-198120000D03*
%TO.P,U2,6,P6*%
%TO.N,/~{OE}*%
X269875000Y-195580000D03*
%TO.P,U2,7,P7*%
%TO.N,/~{WE}*%
X272415000Y-198120000D03*
%TO.P,U2,8,GND*%
%TO.N,GND*%
X272415000Y-195580000D03*
%TO.P,U2,9,I/O/GCK1*%
%TO.N,/CLKIN*%
X274955000Y-198120000D03*
%TO.P,U2,10,I/O/GCK2*%
%TO.N,unconnected-(U2-I{slash}O{slash}GCK2-Pad10)*%
X274955000Y-195580000D03*
%TO.P,U2,11,P11*%
%TO.N,unconnected-(U2-P11-Pad11)*%
X277495000Y-198120000D03*
%TO.P,U2,12,I/O/GCK3*%
%TO.N,unconnected-(U2-I{slash}O{slash}GCK3-Pad12)*%
X280035000Y-195580000D03*
%TO.P,U2,13,P13*%
%TO.N,unconnected-(U2-P13-Pad13)*%
X277495000Y-195580000D03*
%TO.P,U2,14,P14*%
%TO.N,unconnected-(U2-P14-Pad14)*%
X280035000Y-193040000D03*
%TO.P,U2,15,P15*%
%TO.N,unconnected-(U2-P15-Pad15)*%
X277495000Y-193040000D03*
%TO.P,U2,16,GND*%
%TO.N,GND*%
X280035000Y-190500000D03*
%TO.P,U2,17,P17*%
%TO.N,unconnected-(U2-P17-Pad17)*%
X277495000Y-190500000D03*
%TO.P,U2,18,P18*%
%TO.N,unconnected-(U2-P18-Pad18)*%
X280035000Y-187960000D03*
%TO.P,U2,19,P19*%
%TO.N,unconnected-(U2-P19-Pad19)*%
X277495000Y-187960000D03*
%TO.P,U2,20,P20*%
%TO.N,unconnected-(U2-P20-Pad20)*%
X280035000Y-185420000D03*
%TO.P,U2,21,P21*%
%TO.N,unconnected-(U2-P21-Pad21)*%
X277495000Y-185420000D03*
%TO.P,U2,22,VCCIO*%
%TO.N,VCC*%
X280035000Y-182880000D03*
%TO.P,U2,23,P23*%
%TO.N,unconnected-(U2-P23-Pad23)*%
X277495000Y-182880000D03*
%TO.P,U2,24,P24*%
%TO.N,unconnected-(U2-P24-Pad24)*%
X280035000Y-180340000D03*
%TO.P,U2,25,P25*%
%TO.N,/~{CSW_VDP}*%
X277495000Y-180340000D03*
%TO.P,U2,26,P26*%
%TO.N,unconnected-(U2-P26-Pad26)*%
X280035000Y-177800000D03*
%TO.P,U2,27,GND*%
%TO.N,GND*%
X277495000Y-177800000D03*
%TO.P,U2,28,TDI*%
%TO.N,/TDI*%
X280035000Y-175260000D03*
%TO.P,U2,29,TMS*%
%TO.N,/TMS*%
X277495000Y-175260000D03*
%TO.P,U2,30,TCK*%
%TO.N,/TCK*%
X280035000Y-172720000D03*
%TO.P,U2,31,P31*%
%TO.N,unconnected-(U2-P31-Pad31)*%
X277495000Y-172720000D03*
%TO.P,U2,32,P32*%
%TO.N,unconnected-(U2-P32-Pad32)*%
X280035000Y-170180000D03*
%TO.P,U2,33,P33*%
%TO.N,unconnected-(U2-P33-Pad33)*%
X277495000Y-167640000D03*
%TO.P,U2,34,P34*%
%TO.N,unconnected-(U2-P34-Pad34)*%
X277495000Y-170180000D03*
%TO.P,U2,35,P35*%
%TO.N,unconnected-(U2-P35-Pad35)*%
X274955000Y-167640000D03*
%TO.P,U2,36,P36*%
%TO.N,unconnected-(U2-P36-Pad36)*%
X274955000Y-170180000D03*
%TO.P,U2,37,P37*%
%TO.N,unconnected-(U2-P37-Pad37)*%
X272415000Y-167640000D03*
%TO.P,U2,38,VCC*%
%TO.N,VCC*%
X272415000Y-170180000D03*
%TO.P,U2,39,P39*%
%TO.N,/~{CS_SLOT0}*%
X269875000Y-167640000D03*
%TO.P,U2,40,P40*%
%TO.N,/CPU_RDY*%
X269875000Y-170180000D03*
%TO.P,U2,41,P41*%
%TO.N,unconnected-(U2-P41-Pad41)*%
X267335000Y-167640000D03*
%TO.P,U2,42,GND*%
%TO.N,GND*%
X267335000Y-170180000D03*
%TO.P,U2,43,P43*%
%TO.N,unconnected-(U2-P43-Pad43)*%
X264795000Y-167640000D03*
%TO.P,U2,44,P44*%
%TO.N,/CPU_R~{W}*%
X264795000Y-170180000D03*
%TO.P,U2,45,P45*%
%TO.N,unconnected-(U2-P45-Pad45)*%
X262255000Y-167640000D03*
%TO.P,U2,46,P46*%
%TO.N,unconnected-(U2-P46-Pad46)*%
X262255000Y-170180000D03*
%TO.P,U2,47,P47*%
%TO.N,/~{CSR_VDP}*%
X259715000Y-167640000D03*
%TO.P,U2,48,P48*%
%TO.N,/~{CS_UART}*%
X259715000Y-170180000D03*
%TO.P,U2,49,GND*%
%TO.N,GND*%
X257175000Y-167640000D03*
%TO.P,U2,50,P50*%
%TO.N,/~{CS_SLOT1}*%
X257175000Y-170180000D03*
%TO.P,U2,51,P51*%
%TO.N,/~{CS_VIA}*%
X254635000Y-167640000D03*
%TO.P,U2,52,P52*%
%TO.N,/~{CS_BUFFER}*%
X254635000Y-170180000D03*
%TO.P,U2,53,P53*%
%TO.N,/~{CS_OPL}*%
X252095000Y-167640000D03*
%TO.P,U2,54,P54*%
%TO.N,/CPU_D0*%
X249555000Y-170180000D03*
%TO.P,U2,55,P55*%
%TO.N,/CPU_D1*%
X252095000Y-170180000D03*
%TO.P,U2,56,P56*%
%TO.N,/CPU_D2*%
X249555000Y-172720000D03*
%TO.P,U2,57,P57*%
%TO.N,/CPU_D3*%
X252095000Y-172720000D03*
%TO.P,U2,58,P58*%
%TO.N,/CPU_D4*%
X249555000Y-175260000D03*
%TO.P,U2,59,TDO*%
%TO.N,/TDO*%
X252095000Y-175260000D03*
%TO.P,U2,60,GND*%
%TO.N,GND*%
X249555000Y-177800000D03*
%TO.P,U2,61,P61*%
%TO.N,/CPU_D5*%
X252095000Y-177800000D03*
%TO.P,U2,62,P62*%
%TO.N,/CPU_D7*%
X249555000Y-180340000D03*
%TO.P,U2,63,P63*%
%TO.N,/CPU_D6*%
X252095000Y-180340000D03*
%TO.P,U2,64,VCCIO*%
%TO.N,VCC*%
X249555000Y-182880000D03*
%TO.P,U2,65,P65*%
%TO.N,/CPU_A0*%
X252095000Y-182880000D03*
%TO.P,U2,66,P66*%
%TO.N,/CPU_A1*%
X249555000Y-185420000D03*
%TO.P,U2,67,P67*%
%TO.N,/CPU_A4*%
X252095000Y-185420000D03*
%TO.P,U2,68,P68*%
%TO.N,/CPU_A5*%
X249555000Y-187960000D03*
%TO.P,U2,69,P69*%
%TO.N,/CPU_A6*%
X252095000Y-187960000D03*
%TO.P,U2,70,P70*%
%TO.N,/CPU_A7*%
X249555000Y-190500000D03*
%TO.P,U2,71,P71*%
%TO.N,/CPU_A8*%
X252095000Y-190500000D03*
%TO.P,U2,72,P72*%
%TO.N,/CPU_A9*%
X249555000Y-193040000D03*
%TO.P,U2,73,VCC*%
%TO.N,VCC*%
X252095000Y-193040000D03*
%TO.P,U2,74,I/O/GSR*%
%TO.N,/~{RESET}*%
X249555000Y-195580000D03*
%TO.P,U2,75,P75*%
%TO.N,/CPU_A10*%
X252095000Y-198120000D03*
%TO.P,U2,76,I/O/GTS1*%
%TO.N,/CPU_A11*%
X252095000Y-195580000D03*
%TO.P,U2,77,I/O/GTS2*%
%TO.N,/CPU_A12*%
X254635000Y-198120000D03*
%TO.P,U2,78,VCC*%
%TO.N,VCC*%
X254635000Y-195580000D03*
%TO.P,U2,79,P79*%
%TO.N,/CPU_A13*%
X257175000Y-198120000D03*
%TO.P,U2,80,P80*%
%TO.N,/CPU_A14*%
X257175000Y-195580000D03*
%TO.P,U2,81,P81*%
%TO.N,/CPU_A15*%
X259715000Y-198120000D03*
%TO.P,U2,82,P82*%
%TO.N,/EXT_A14*%
X259715000Y-195580000D03*
%TO.P,U2,83,P83*%
%TO.N,/EXT_A15*%
X262255000Y-198120000D03*
%TO.P,U2,84,P84*%
%TO.N,/EXT_A16*%
X262255000Y-195580000D03*
%TD*%
D16*
%TO.P,R2,1*%
%TO.N,Net-(U10-DIS)*%
X109728000Y-199898000D03*
D17*
%TO.P,R2,2*%
%TO.N,VCC*%
X109728000Y-192278000D03*
%TD*%
D35*
%TO.P,J5,*%
%TO.N,*%
X208915000Y-65992000D03*
X211495000Y-65998000D03*
X216495000Y-65998000D03*
X219075000Y-65992000D03*
%TO.P,J5,1*%
%TO.N,/Video_Audio/Audio_analog/AUDIO_OUT*%
X206495000Y-75898000D03*
%TO.P,J5,2*%
%TO.N,GND*%
X213995000Y-75898000D03*
%TO.P,J5,3*%
%TO.N,Net-(C56-Pad2)*%
X221495000Y-75898000D03*
%TO.P,J5,4*%
%TO.N,VCC*%
X208995000Y-78398000D03*
%TO.P,J5,5*%
%TO.N,/Video_Audio/Video_analog/G_OUT*%
X218995000Y-78398000D03*
%TO.P,J5,6*%
%TO.N,Net-(C50-Pad2)*%
X206495000Y-80898000D03*
%TO.P,J5,7*%
%TO.N,Net-(C56-Pad2)*%
X221495000Y-80898000D03*
%TO.P,J5,8*%
%TO.N,Net-(C55-Pad2)*%
X213995000Y-80898000D03*
%TD*%
D36*
%TO.P,SW1,*%
%TO.N,*%
X68599000Y-183530000D03*
X68599000Y-176530000D03*
D32*
%TO.P,SW1,1,1*%
%TO.N,/RESET_TRIG*%
X66099000Y-182280000D03*
%TO.P,SW1,2,2*%
%TO.N,GND*%
X66099000Y-177780000D03*
%TD*%
D18*
%TO.P,C4,1*%
%TO.N,Net-(U10-DIS)*%
X134620000Y-195580000D03*
D19*
%TO.P,C4,2*%
%TO.N,GND*%
X132620000Y-195580000D03*
%TD*%
D22*
%TO.P,P1,1,Pin_1*%
%TO.N,/PA0*%
X76200000Y-170180000D03*
D23*
%TO.P,P1,2,Pin_2*%
%TO.N,/PA1*%
X73660000Y-170180000D03*
%TO.P,P1,3,Pin_3*%
%TO.N,/PA2*%
X76200000Y-167640000D03*
%TO.P,P1,4,Pin_4*%
%TO.N,/PA3*%
X73660000Y-167640000D03*
%TO.P,P1,5,Pin_5*%
%TO.N,/PA4*%
X76200000Y-165100000D03*
%TO.P,P1,6,Pin_6*%
%TO.N,/PA5*%
X73660000Y-165100000D03*
%TO.P,P1,7,Pin_7*%
%TO.N,/PA6*%
X76200000Y-162560000D03*
%TO.P,P1,8,Pin_8*%
%TO.N,/PA7*%
X73660000Y-162560000D03*
%TO.P,P1,9,Pin_9*%
%TO.N,GND*%
X76200000Y-160020000D03*
%TO.P,P1,10,Pin_10*%
%TO.N,VCC*%
X73660000Y-160020000D03*
%TO.P,P1,11,Pin_11*%
%TO.N,unconnected-(P1-Pin_11-Pad11)*%
X76200000Y-157480000D03*
%TO.P,P1,12,Pin_12*%
%TO.N,unconnected-(P1-Pin_12-Pad12)*%
X73660000Y-157480000D03*
%TO.P,P1,13,Pin_13*%
%TO.N,/~{RESET}*%
X76200000Y-154940000D03*
%TO.P,P1,14,Pin_14*%
%TO.N,/~{IRQ}*%
X73660000Y-154940000D03*
%TO.P,P1,15,Pin_15*%
%TO.N,/CA2*%
X76200000Y-152400000D03*
%TO.P,P1,16,Pin_16*%
%TO.N,/CA1*%
X73660000Y-152400000D03*
%TD*%
D24*
%TO.P,U29,1,OEa*%
%TO.N,Net-(U29-OEa)*%
X107950000Y-149860000D03*
D25*
%TO.P,U29,2,I0a*%
%TO.N,Net-(U29-I0a)*%
X105410000Y-149860000D03*
%TO.P,U29,3,O3b*%
%TO.N,/PA3*%
X102870000Y-149860000D03*
%TO.P,U29,4,I1a*%
%TO.N,Net-(RR1-R1)*%
X100330000Y-149860000D03*
%TO.P,U29,5,O2b*%
%TO.N,/PA2*%
X97790000Y-149860000D03*
%TO.P,U29,6,I2a*%
%TO.N,Net-(RR1-R2)*%
X95250000Y-149860000D03*
%TO.P,U29,7,O1b*%
%TO.N,/PA1*%
X92710000Y-149860000D03*
%TO.P,U29,8,I3a*%
%TO.N,Net-(RR1-R3)*%
X90170000Y-149860000D03*
%TO.P,U29,9,O0b*%
%TO.N,/PA0*%
X87630000Y-149860000D03*
%TO.P,U29,10,GND*%
%TO.N,GND*%
X85090000Y-149860000D03*
%TO.P,U29,11,I0b*%
%TO.N,Net-(RR1-R4)*%
X85090000Y-157480000D03*
%TO.P,U29,12,O3a*%
%TO.N,/PA3*%
X87630000Y-157480000D03*
%TO.P,U29,13,I1b*%
%TO.N,Net-(RR1-R6)*%
X90170000Y-157480000D03*
%TO.P,U29,14,O2a*%
%TO.N,/PA2*%
X92710000Y-157480000D03*
%TO.P,U29,15,I2b*%
%TO.N,Net-(RR1-R7)*%
X95250000Y-157480000D03*
%TO.P,U29,16,O1a*%
%TO.N,/PA1*%
X97790000Y-157480000D03*
%TO.P,U29,17,I3b*%
%TO.N,Net-(RR1-R8)*%
X100330000Y-157480000D03*
%TO.P,U29,18,O0a*%
%TO.N,/PA0*%
X102870000Y-157480000D03*
%TO.P,U29,19,OEb*%
%TO.N,Net-(U29-OEb)*%
X105410000Y-157480000D03*
%TO.P,U29,20,VCC*%
%TO.N,VCC*%
X107950000Y-157480000D03*
%TD*%
D24*
%TO.P,U14,1*%
%TO.N,GND*%
X107950000Y-122809000D03*
D25*
%TO.P,U14,2*%
%TO.N,unconnected-(U14-Pad2)*%
X105410000Y-122809000D03*
%TO.P,U14,3*%
%TO.N,GND*%
X102870000Y-122809000D03*
%TO.P,U14,4*%
%TO.N,unconnected-(U14-Pad4)*%
X100330000Y-122809000D03*
%TO.P,U14,5*%
%TO.N,GND*%
X97790000Y-122809000D03*
%TO.P,U14,6*%
%TO.N,unconnected-(U14-Pad6)*%
X95250000Y-122809000D03*
%TO.P,U14,7,Gnd*%
%TO.N,GND*%
X92710000Y-122809000D03*
%TO.P,U14,8*%
%TO.N,/SD Card/CLK*%
X92710000Y-130429000D03*
%TO.P,U14,9*%
%TO.N,/SPI_CLK*%
X95250000Y-130429000D03*
%TO.P,U14,10*%
%TO.N,/SD Card/CMD*%
X97790000Y-130429000D03*
%TO.P,U14,11*%
%TO.N,/SPI_MOSI*%
X100330000Y-130429000D03*
%TO.P,U14,12*%
%TO.N,/SD Card/DAT3*%
X102870000Y-130429000D03*
%TO.P,U14,13*%
%TO.N,/~{SPI_SS_SDCARD}*%
X105410000Y-130429000D03*
%TO.P,U14,14,Vcc*%
%TO.N,VCC*%
X107950000Y-130429000D03*
%TD*%
D16*
%TO.P,R8,1*%
%TO.N,/PA4*%
X81915000Y-175260000D03*
D17*
%TO.P,R8,2*%
%TO.N,Net-(U11-PA4)*%
X89535000Y-175260000D03*
%TD*%
D16*
%TO.P,R41,1*%
%TO.N,Net-(U29-I0a)*%
X77470000Y-107823000D03*
D17*
%TO.P,R41,2*%
%TO.N,VCC*%
X77470000Y-115443000D03*
%TD*%
D24*
%TO.P,U4,1,A14*%
%TO.N,/EXT_A14*%
X234315000Y-163810000D03*
D25*
%TO.P,U4,2,A12*%
%TO.N,/CPU_A12*%
X231775000Y-163810000D03*
%TO.P,U4,3,A7*%
%TO.N,/CPU_A7*%
X229235000Y-163810000D03*
%TO.P,U4,4,A6*%
%TO.N,/CPU_A6*%
X226695000Y-163810000D03*
%TO.P,U4,5,A5*%
%TO.N,/CPU_A5*%
X224155000Y-163810000D03*
%TO.P,U4,6,A4*%
%TO.N,/CPU_A4*%
X221615000Y-163810000D03*
%TO.P,U4,7,A3*%
%TO.N,/CPU_A3*%
X219075000Y-163810000D03*
%TO.P,U4,8,A2*%
%TO.N,/CPU_A2*%
X216535000Y-163810000D03*
%TO.P,U4,9,A1*%
%TO.N,/CPU_A1*%
X213995000Y-163810000D03*
%TO.P,U4,10,A0*%
%TO.N,/CPU_A0*%
X211455000Y-163810000D03*
%TO.P,U4,11,D0*%
%TO.N,/CPU_D0*%
X208915000Y-163810000D03*
%TO.P,U4,12,D1*%
%TO.N,/CPU_D1*%
X206375000Y-163810000D03*
%TO.P,U4,13,D2*%
%TO.N,/CPU_D2*%
X203835000Y-163810000D03*
%TO.P,U4,14,GND*%
%TO.N,GND*%
X201295000Y-163810000D03*
%TO.P,U4,15,D3*%
%TO.N,/CPU_D3*%
X201295000Y-179050000D03*
%TO.P,U4,16,D4*%
%TO.N,/CPU_D4*%
X203835000Y-179050000D03*
%TO.P,U4,17,D5*%
%TO.N,/CPU_D5*%
X206375000Y-179050000D03*
%TO.P,U4,18,D6*%
%TO.N,/CPU_D6*%
X208915000Y-179050000D03*
%TO.P,U4,19,D7*%
%TO.N,/CPU_D7*%
X211455000Y-179050000D03*
%TO.P,U4,20,~{CS}*%
%TO.N,/~{CS_ROM}*%
X213995000Y-179050000D03*
%TO.P,U4,21,A10*%
%TO.N,/CPU_A10*%
X216535000Y-179050000D03*
%TO.P,U4,22,~{OE}*%
%TO.N,/~{OE}*%
X219075000Y-179050000D03*
%TO.P,U4,23,A11*%
%TO.N,/CPU_A11*%
X221615000Y-179050000D03*
%TO.P,U4,24,A9*%
%TO.N,/CPU_A9*%
X224155000Y-179050000D03*
%TO.P,U4,25,A8*%
%TO.N,/CPU_A8*%
X226695000Y-179050000D03*
%TO.P,U4,26,A13*%
%TO.N,/CPU_A13*%
X229235000Y-179050000D03*
%TO.P,U4,27,~{WE}*%
%TO.N,Net-(JP1-C)*%
X231775000Y-179050000D03*
%TO.P,U4,28,VCC*%
%TO.N,VCC*%
X234315000Y-179050000D03*
%TD*%
D31*
%TO.P,Joystick Port 1,0,PAD*%
%TO.N,GND*%
X71755000Y-111760000D03*
X71755000Y-136760000D03*
D20*
%TO.P,Joystick Port 1,1,1*%
%TO.N,Net-(RR1-R4)*%
X72055000Y-118720000D03*
D21*
%TO.P,Joystick Port 1,2,2*%
%TO.N,Net-(RR1-R6)*%
X72055000Y-121490000D03*
%TO.P,Joystick Port 1,3,3*%
%TO.N,Net-(RR1-R7)*%
X72055000Y-124260000D03*
%TO.P,Joystick Port 1,4,4*%
%TO.N,Net-(RR1-R8)*%
X72055000Y-127030000D03*
%TO.P,Joystick Port 1,5,5*%
%TO.N,unconnected-(Port1-Pad5)*%
X72055000Y-129800000D03*
%TO.P,Joystick Port 1,6,6*%
%TO.N,Net-(RR1-R5)*%
X69215000Y-120105000D03*
%TO.P,Joystick Port 1,7,7*%
%TO.N,VCC*%
X69215000Y-122875000D03*
%TO.P,Joystick Port 1,8,8*%
%TO.N,GND*%
X69215000Y-125645000D03*
%TO.P,Joystick Port 1,9,9*%
%TO.N,unconnected-(Port1-Pad9)*%
X69215000Y-128415000D03*
%TD*%
D16*
%TO.P,R9,1*%
%TO.N,/PA5*%
X81915000Y-180340000D03*
D17*
%TO.P,R9,2*%
%TO.N,Net-(U11-PA5)*%
X89535000Y-180340000D03*
%TD*%
D37*
%TO.P,J4,1*%
%TO.N,GND*%
X235264960Y-72136000D03*
%TO.P,J4,2*%
X241965480Y-72136000D03*
%TO.P,J4,3*%
%TO.N,/Video_Audio/Video_analog/Y_OUT*%
X235264960Y-74627740D03*
%TO.P,J4,4*%
%TO.N,/Video_Audio/Video_analog/C_OUT*%
X241965480Y-74627740D03*
D38*
%TO.P,J4,SHD*%
%TO.N,N/C*%
X231856280Y-69136260D03*
X238615220Y-68326000D03*
X245374160Y-69136260D03*
%TD*%
D16*
%TO.P,R11,1*%
%TO.N,/PA7*%
X81915000Y-172720000D03*
D17*
%TO.P,R11,2*%
%TO.N,Net-(U11-PA7)*%
X89535000Y-172720000D03*
%TD*%
D16*
%TO.P,R37,1*%
%TO.N,Net-(U27-YTRAP)*%
X228600000Y-99060000D03*
D17*
%TO.P,R37,2*%
%TO.N,VCC*%
X228600000Y-91440000D03*
%TD*%
D16*
%TO.P,R13,1*%
%TO.N,/CA2*%
X81915000Y-165100000D03*
D17*
%TO.P,R13,2*%
%TO.N,Net-(U11-CA2)*%
X89535000Y-165100000D03*
%TD*%
D37*
%TO.P,P4,1*%
%TO.N,/Kbd_controller/PS2_KBD_DATA*%
X125953520Y-72263000D03*
%TO.P,P4,2*%
%TO.N,/Kbd_controller/PS2_MOU_DATA*%
X128554480Y-72263000D03*
%TO.P,P4,3*%
%TO.N,GND*%
X123903740Y-72263000D03*
%TO.P,P4,4*%
%TO.N,VCC*%
X130604260Y-72263000D03*
%TO.P,P4,5*%
%TO.N,/Kbd_controller/PS2_KBD_CLK*%
X123903740Y-74754740D03*
%TO.P,P4,6*%
%TO.N,/Kbd_controller/PS2_MOU_CLK*%
X130604260Y-74754740D03*
D38*
%TO.P,P4,SHD*%
%TO.N,N/C*%
X120495060Y-69263260D03*
X127254000Y-68453000D03*
X134012940Y-69263260D03*
%TD*%
D39*
%TO.P,U9,1,VO*%
%TO.N,Net-(J6-VDD)*%
X111760000Y-69850000D03*
D40*
%TO.P,U9,2,GND*%
%TO.N,GND*%
X110490000Y-69850000D03*
%TO.P,U9,3,VI*%
%TO.N,VCC*%
X109220000Y-69850000D03*
%TD*%
D24*
%TO.P,IC1,1,PC6/~{RESET}*%
%TO.N,/~{RESET}*%
X148590000Y-149860000D03*
D25*
%TO.P,IC1,2,PD0*%
%TO.N,Net-(IC1-PD0)*%
X146050000Y-149860000D03*
%TO.P,IC1,3,PD1*%
%TO.N,Net-(IC1-PD1)*%
X143510000Y-149860000D03*
%TO.P,IC1,4,PD2*%
%TO.N,/Kbd_controller/PS2_KBD_CLK*%
X140970000Y-149860000D03*
%TO.P,IC1,5,PD3*%
%TO.N,/Kbd_controller/PS2_MOU_CLK*%
X138430000Y-149860000D03*
%TO.P,IC1,6,PD4*%
%TO.N,unconnected-(IC1-PD4-Pad6)*%
X135890000Y-149860000D03*
%TO.P,IC1,7,VCC*%
%TO.N,VCC*%
X133350000Y-149860000D03*
%TO.P,IC1,8,GND*%
%TO.N,GND*%
X130810000Y-149860000D03*
%TO.P,IC1,9,PB6/XTAL1*%
%TO.N,unconnected-(IC1-PB6{slash}XTAL1-Pad9)*%
X128270000Y-149860000D03*
%TO.P,IC1,10,PB7/XTAL2*%
%TO.N,unconnected-(IC1-PB7{slash}XTAL2-Pad10)*%
X125730000Y-149860000D03*
%TO.P,IC1,11,PD5*%
%TO.N,unconnected-(IC1-PD5-Pad11)*%
X123190000Y-149860000D03*
%TO.P,IC1,12,PD6*%
%TO.N,/Kbd_controller/PS2_KBD_DATA*%
X120650000Y-149860000D03*
%TO.P,IC1,13,PD7*%
%TO.N,/Kbd_controller/PS2_MOU_DATA*%
X118110000Y-149860000D03*
%TO.P,IC1,14,PB0*%
%TO.N,unconnected-(IC1-PB0-Pad14)*%
X115570000Y-149860000D03*
%TO.P,IC1,15,PB1*%
%TO.N,unconnected-(IC1-PB1-Pad15)*%
X115570000Y-157480000D03*
%TO.P,IC1,16,PB2*%
%TO.N,/~{SPI_SS_PS2}*%
X118110000Y-157480000D03*
%TO.P,IC1,17,PB3*%
%TO.N,/SPI_MOSI*%
X120650000Y-157480000D03*
%TO.P,IC1,18,PB4*%
%TO.N,/SPI_MISO*%
X123190000Y-157480000D03*
%TO.P,IC1,19,PB5*%
%TO.N,/SPI_CLK*%
X125730000Y-157480000D03*
%TO.P,IC1,20,AVCC*%
%TO.N,VCC*%
X128270000Y-157480000D03*
%TO.P,IC1,21,AREF*%
X130810000Y-157480000D03*
%TO.P,IC1,22,AGND*%
%TO.N,GND*%
X133350000Y-157480000D03*
%TO.P,IC1,23,PC0*%
%TO.N,/RESET_TRIG*%
X135890000Y-157480000D03*
%TO.P,IC1,24,PC1*%
%TO.N,/~{NMI}*%
X138430000Y-157480000D03*
%TO.P,IC1,25,PC2*%
%TO.N,/~{IRQ}*%
X140970000Y-157480000D03*
%TO.P,IC1,26,PC3*%
%TO.N,unconnected-(IC1-PC3-Pad26)*%
X143510000Y-157480000D03*
%TO.P,IC1,27,PC4*%
%TO.N,unconnected-(IC1-PC4-Pad27)*%
X146050000Y-157480000D03*
%TO.P,IC1,28,PC5*%
%TO.N,unconnected-(IC1-PC5-Pad28)*%
X148590000Y-157480000D03*
%TD*%
D18*
%TO.P,C22,1*%
%TO.N,GND*%
X153162000Y-86106000D03*
D19*
%TO.P,C22,2*%
%TO.N,Net-(U8-VS-)*%
X151162000Y-86106000D03*
%TD*%
D20*
%TO.P,C49,1*%
%TO.N,Net-(C49-Pad1)*%
X244983000Y-81700380D03*
D21*
%TO.P,C49,2*%
%TO.N,/Video_Audio/Video_analog/C_OUT*%
X244983000Y-79200380D03*
%TD*%
D16*
%TO.P,R33,1*%
%TO.N,Net-(U27-ROUT)*%
X218440000Y-99060000D03*
D17*
%TO.P,R33,2*%
%TO.N,Net-(C50-Pad1)*%
X218440000Y-91440000D03*
%TD*%
D20*
%TO.P,C55,1*%
%TO.N,Net-(C55-Pad1)*%
X219456000Y-87590000D03*
D21*
%TO.P,C55,2*%
%TO.N,Net-(C55-Pad2)*%
X219456000Y-85090000D03*
%TD*%
D14*
%TO.P,C18,1*%
%TO.N,VCC*%
X262427323Y-86360000D03*
D15*
%TO.P,C18,2*%
%TO.N,GND*%
X267427323Y-86360000D03*
%TD*%
D22*
%TO.P,P2,1,Pin_1*%
%TO.N,GND*%
X153924000Y-150876000D03*
D23*
%TO.P,P2,2,Pin_2*%
%TO.N,Net-(IC1-PD0)*%
X153924000Y-153416000D03*
%TO.P,P2,3,Pin_3*%
%TO.N,Net-(IC1-PD1)*%
X153924000Y-155956000D03*
%TD*%
D16*
%TO.P,R18,1*%
%TO.N,Net-(J2-Pad4)*%
X156337000Y-77597000D03*
D17*
%TO.P,R18,2*%
%TO.N,Net-(U8-VS+)*%
X163957000Y-77597000D03*
%TD*%
D41*
%TO.P,Y1,1,1*%
%TO.N,Net-(U18-XTAL1)*%
X230680000Y-157480000D03*
%TO.P,Y1,2,2*%
%TO.N,Net-(U18-XTAL2)*%
X235560000Y-157480000D03*
%TD*%
D16*
%TO.P,R15,1*%
%TO.N,/~{SD_CARD_DETECT}*%
X101092000Y-177419000D03*
D17*
%TO.P,R15,2*%
%TO.N,Net-(U11-PB6)*%
X108712000Y-177419000D03*
%TD*%
D24*
%TO.P,U23,1,OE*%
%TO.N,GND*%
X261610000Y-118755000D03*
D25*
%TO.P,U23,2,DQ0*%
%TO.N,/Video_Audio/VDP_RD0*%
X259070000Y-118755000D03*
%TO.P,U23,3,DQ1*%
%TO.N,/Video_Audio/VDP_RD1*%
X256530000Y-118755000D03*
%TO.P,U23,4,WE*%
%TO.N,/Video_Audio/VDP_R~{W}*%
X253990000Y-118755000D03*
%TO.P,U23,5,RAS*%
%TO.N,/Video_Audio/{slash}RAS*%
X251450000Y-118755000D03*
%TO.P,U23,6,A6*%
%TO.N,/Video_Audio/VDP_AD6*%
X248910000Y-118755000D03*
%TO.P,U23,7,A5*%
%TO.N,/Video_Audio/VDP_AD5*%
X246370000Y-118755000D03*
%TO.P,U23,8,A4*%
%TO.N,/Video_Audio/VDP_AD4*%
X243830000Y-118755000D03*
%TO.P,U23,9,VCC*%
%TO.N,VCC*%
X241290000Y-118755000D03*
%TO.P,U23,10,A7*%
%TO.N,/Video_Audio/VDP_AD7*%
X241290000Y-126375000D03*
%TO.P,U23,11,A3*%
%TO.N,/Video_Audio/VDP_AD3*%
X243830000Y-126375000D03*
%TO.P,U23,12,A2*%
%TO.N,/Video_Audio/VDP_AD2*%
X246370000Y-126375000D03*
%TO.P,U23,13,A1*%
%TO.N,/Video_Audio/VDP_AD1*%
X248910000Y-126375000D03*
%TO.P,U23,14,A0*%
%TO.N,/Video_Audio/VDP_AD0*%
X251450000Y-126375000D03*
%TO.P,U23,15,DQ2*%
%TO.N,/Video_Audio/VDP_RD2*%
X253990000Y-126375000D03*
%TO.P,U23,16,CAS*%
%TO.N,/Video_Audio/{slash}CAS_X*%
X256530000Y-126375000D03*
%TO.P,U23,17,DQ3*%
%TO.N,/Video_Audio/VDP_RD3*%
X259070000Y-126375000D03*
%TO.P,U23,18,VSS*%
%TO.N,GND*%
X261610000Y-126375000D03*
%TD*%
D24*
%TO.P,U24,1,OE*%
%TO.N,GND*%
X288925000Y-118745000D03*
D25*
%TO.P,U24,2,DQ0*%
%TO.N,/Video_Audio/VDP_RD4*%
X286385000Y-118745000D03*
%TO.P,U24,3,DQ1*%
%TO.N,/Video_Audio/VDP_RD5*%
X283845000Y-118745000D03*
%TO.P,U24,4,WE*%
%TO.N,/Video_Audio/VDP_R~{W}*%
X281305000Y-118745000D03*
%TO.P,U24,5,RAS*%
%TO.N,/Video_Audio/{slash}RAS*%
X278765000Y-118745000D03*
%TO.P,U24,6,A6*%
%TO.N,/Video_Audio/VDP_AD6*%
X276225000Y-118745000D03*
%TO.P,U24,7,A5*%
%TO.N,/Video_Audio/VDP_AD5*%
X273685000Y-118745000D03*
%TO.P,U24,8,A4*%
%TO.N,/Video_Audio/VDP_AD4*%
X271145000Y-118745000D03*
%TO.P,U24,9,VCC*%
%TO.N,VCC*%
X268605000Y-118745000D03*
%TO.P,U24,10,A7*%
%TO.N,/Video_Audio/VDP_AD7*%
X268605000Y-126365000D03*
%TO.P,U24,11,A3*%
%TO.N,/Video_Audio/VDP_AD3*%
X271145000Y-126365000D03*
%TO.P,U24,12,A2*%
%TO.N,/Video_Audio/VDP_AD2*%
X273685000Y-126365000D03*
%TO.P,U24,13,A1*%
%TO.N,/Video_Audio/VDP_AD1*%
X276225000Y-126365000D03*
%TO.P,U24,14,A0*%
%TO.N,/Video_Audio/VDP_AD0*%
X278765000Y-126365000D03*
%TO.P,U24,15,DQ2*%
%TO.N,/Video_Audio/VDP_RD6*%
X281305000Y-126365000D03*
%TO.P,U24,16,CAS*%
%TO.N,/Video_Audio/{slash}CAS_X*%
X283845000Y-126365000D03*
%TO.P,U24,17,DQ3*%
%TO.N,/Video_Audio/VDP_RD7*%
X286385000Y-126365000D03*
%TO.P,U24,18,VSS*%
%TO.N,GND*%
X288925000Y-126365000D03*
%TD*%
D21*
%TO.P,C42,1*%
%TO.N,Net-(U26C--)*%
X195580000Y-102235000D03*
%TO.P,C42,2*%
%TO.N,Net-(C42-Pad2)*%
X198080000Y-102235000D03*
%TD*%
D20*
%TO.P,C40,1*%
%TO.N,Net-(U25-RB)*%
X188276112Y-86995000D03*
D21*
%TO.P,C40,2*%
%TO.N,GND*%
X185776112Y-86995000D03*
%TD*%
D20*
%TO.P,C52,1*%
%TO.N,VCC*%
X241300000Y-105370000D03*
D21*
%TO.P,C52,2*%
%TO.N,GND*%
X241300000Y-102870000D03*
%TD*%
D42*
%TO.P,U18,1,GND*%
%TO.N,GND*%
X233805000Y-133350000D03*
D43*
%TO.P,U18,2*%
%TO.N,N/C*%
X232025000Y-133350000D03*
%TO.P,U18,3*%
X230245000Y-133350000D03*
%TO.P,U18,4,VRESET*%
%TO.N,VCC*%
X228465000Y-133350000D03*
%TO.P,U18,5*%
%TO.N,N/C*%
X226685000Y-133350000D03*
%TO.P,U18,6,CSYNC*%
%TO.N,/Video_Audio/CSYNC*%
X224905000Y-133350000D03*
%TO.P,U18,7*%
%TO.N,N/C*%
X223125000Y-133350000D03*
%TO.P,U18,8,CPUCLK/VDS*%
%TO.N,/Video_Audio/OPL_CLK*%
X221345000Y-133350000D03*
%TO.P,U18,9,/RESET*%
%TO.N,/~{RESET}*%
X219565000Y-133350000D03*
%TO.P,U18,10*%
%TO.N,N/C*%
X217785000Y-133350000D03*
%TO.P,U18,11*%
X216005000Y-133350000D03*
%TO.P,U18,12*%
X214225000Y-133350000D03*
%TO.P,U18,13*%
X212445000Y-133350000D03*
%TO.P,U18,14*%
X210665000Y-133350000D03*
%TO.P,U18,15*%
X208885000Y-133350000D03*
%TO.P,U18,16*%
X207105000Y-133350000D03*
%TO.P,U18,17*%
X205325000Y-133350000D03*
%TO.P,U18,18*%
X203545000Y-133350000D03*
%TO.P,U18,19*%
X201765000Y-133350000D03*
%TO.P,U18,20,GND/DAC*%
%TO.N,GND*%
X199985000Y-133350000D03*
%TO.P,U18,21,VCC/DAC*%
%TO.N,VCC*%
X198205000Y-133350000D03*
%TO.P,U18,22,G*%
%TO.N,/Video_Audio/RGB_G*%
X196425000Y-133350000D03*
%TO.P,U18,23,R*%
%TO.N,/Video_Audio/RGB_R*%
X194645000Y-133350000D03*
%TO.P,U18,24,B*%
%TO.N,/Video_Audio/RGB_B*%
X192865000Y-133350000D03*
%TO.P,U18,25,/INT*%
%TO.N,/~{IRQ}*%
X191085000Y-133350000D03*
%TO.P,U18,26,/WAIT*%
%TO.N,Net-(JP2-B)*%
X189305000Y-133350000D03*
%TO.P,U18,27,/HRESET*%
%TO.N,VCC*%
X187525000Y-133350000D03*
%TO.P,U18,28,MODE1*%
%TO.N,/BUF_A1*%
X185745000Y-133350000D03*
%TO.P,U18,29,MODE0*%
%TO.N,/BUF_A0*%
X183965000Y-133350000D03*
%TO.P,U18,30,/CSW*%
%TO.N,/~{CSW_VDP}*%
X182185000Y-133350000D03*
%TO.P,U18,31,/CSR*%
%TO.N,/~{CSR_VDP}*%
X180405000Y-133350000D03*
%TO.P,U18,32,D7*%
%TO.N,/BUF_D7*%
X178625000Y-133350000D03*
%TO.P,U18,33,VBB*%
%TO.N,unconnected-(U18-VBB-Pad33)*%
X178625000Y-152450800D03*
%TO.P,U18,34,D6*%
%TO.N,/BUF_D6*%
X180405000Y-152450800D03*
%TO.P,U18,35,D5*%
%TO.N,/BUF_D5*%
X182185000Y-152450800D03*
%TO.P,U18,36,D4*%
%TO.N,/BUF_D4*%
X183965000Y-152450800D03*
%TO.P,U18,37,D3*%
%TO.N,/BUF_D3*%
X185745000Y-152450800D03*
%TO.P,U18,38,D2*%
%TO.N,/BUF_D2*%
X187525000Y-152450800D03*
%TO.P,U18,39,D1*%
%TO.N,/BUF_D1*%
X189305000Y-152450800D03*
%TO.P,U18,40,D0*%
%TO.N,/BUF_D0*%
X191085000Y-152450800D03*
%TO.P,U18,41,RD0*%
%TO.N,/Video_Audio/VDP_RD0*%
X192865000Y-152450800D03*
%TO.P,U18,42,RD1*%
%TO.N,/Video_Audio/VDP_RD1*%
X194645000Y-152450800D03*
%TO.P,U18,43,RD2*%
%TO.N,/Video_Audio/VDP_RD2*%
X196425000Y-152450800D03*
%TO.P,U18,44,RD3*%
%TO.N,/Video_Audio/VDP_RD3*%
X198205000Y-152450800D03*
%TO.P,U18,45,RD4*%
%TO.N,/Video_Audio/VDP_RD4*%
X199985000Y-152450800D03*
%TO.P,U18,46,RD5*%
%TO.N,/Video_Audio/VDP_RD5*%
X201765000Y-152450800D03*
%TO.P,U18,47,RD6*%
%TO.N,/Video_Audio/VDP_RD6*%
X203545000Y-152450800D03*
%TO.P,U18,48,RD7*%
%TO.N,/Video_Audio/VDP_RD7*%
X205325000Y-152450800D03*
%TO.P,U18,49,AD0*%
%TO.N,/Video_Audio/VDP_AD0*%
X207105000Y-152450800D03*
%TO.P,U18,50,AD1*%
%TO.N,/Video_Audio/VDP_AD1*%
X208885000Y-152450800D03*
%TO.P,U18,51,AD2*%
%TO.N,/Video_Audio/VDP_AD2*%
X210665000Y-152450800D03*
%TO.P,U18,52,AD3*%
%TO.N,/Video_Audio/VDP_AD3*%
X212445000Y-152450800D03*
%TO.P,U18,53,AD4*%
%TO.N,/Video_Audio/VDP_AD4*%
X214225000Y-152450800D03*
%TO.P,U18,54,AD5*%
%TO.N,/Video_Audio/VDP_AD5*%
X216005000Y-152450800D03*
%TO.P,U18,55,AD6*%
%TO.N,/Video_Audio/VDP_AD6*%
X217785000Y-152450800D03*
%TO.P,U18,56,AD7*%
%TO.N,/Video_Audio/VDP_AD7*%
X219565000Y-152450800D03*
%TO.P,U18,57,R/W*%
%TO.N,/Video_Audio/VDP_R~{W}*%
X221345000Y-152450800D03*
%TO.P,U18,58,VCC*%
%TO.N,VCC*%
X223125000Y-152450800D03*
%TO.P,U18,59,/CAS_X*%
%TO.N,/Video_Audio/{slash}CAS_X*%
X224905000Y-152450800D03*
%TO.P,U18,60,/CAS1*%
%TO.N,/Video_Audio/{slash}CAS1*%
X226685000Y-152450800D03*
%TO.P,U18,61,/CAS0*%
%TO.N,/Video_Audio/{slash}CAS0*%
X228465000Y-152450800D03*
%TO.P,U18,62,/RAS*%
%TO.N,/Video_Audio/{slash}RAS*%
X230245000Y-152450800D03*
%TO.P,U18,63,XTAL1*%
%TO.N,Net-(U18-XTAL1)*%
X232025000Y-152450800D03*
%TO.P,U18,64,XTAL2*%
%TO.N,Net-(U18-XTAL2)*%
X233805000Y-152450800D03*
%TD*%
D16*
%TO.P,R42,1*%
%TO.N,Net-(U7B-D)*%
X77470000Y-97790000D03*
D17*
%TO.P,R42,2*%
%TO.N,VCC*%
X77470000Y-105410000D03*
%TD*%
D44*
%TO.P,CON1,1*%
%TO.N,VCC*%
X259080000Y-77374000D03*
D45*
%TO.P,CON1,2*%
%TO.N,GND*%
X259080000Y-71374000D03*
D46*
%TO.P,CON1,3*%
%TO.N,N/C*%
X254380000Y-74374000D03*
%TD*%
D12*
%TO.P,U1,1,VSS*%
%TO.N,GND*%
X182880000Y-182225000D03*
D13*
%TO.P,U1,2,~{VP}*%
%TO.N,unconnected-(U1-~{VP}-Pad2)*%
X180340000Y-179685000D03*
%TO.P,U1,3,RDY*%
%TO.N,/CPU_RDY*%
X180340000Y-182225000D03*
%TO.P,U1,4,\u03D51*%
%TO.N,unconnected-(U1-\u03D51-Pad4)*%
X177800000Y-179685000D03*
%TO.P,U1,5,~{IRQ}*%
%TO.N,/~{IRQ}*%
X177800000Y-182225000D03*
%TO.P,U1,6,~{ML}*%
%TO.N,unconnected-(U1-~{ML}-Pad6)*%
X175260000Y-179685000D03*
%TO.P,U1,7,~{NMI}*%
%TO.N,/~{NMI}*%
X172720000Y-182225000D03*
%TO.P,U1,8,SYNC*%
%TO.N,unconnected-(U1-SYNC-Pad8)*%
X175260000Y-182225000D03*
%TO.P,U1,9,VDD*%
%TO.N,VCC*%
X172720000Y-184765000D03*
%TO.P,U1,10,A0*%
%TO.N,/CPU_A0*%
X175260000Y-184765000D03*
%TO.P,U1,11,A1*%
%TO.N,/CPU_A1*%
X172720000Y-187305000D03*
%TO.P,U1,12,nc*%
%TO.N,unconnected-(U1-nc-Pad12)*%
X175260000Y-187305000D03*
%TO.P,U1,13,A2*%
%TO.N,/CPU_A2*%
X172720000Y-189845000D03*
%TO.P,U1,14,A3*%
%TO.N,/CPU_A3*%
X175260000Y-189845000D03*
%TO.P,U1,15,A4*%
%TO.N,/CPU_A4*%
X172720000Y-192385000D03*
%TO.P,U1,16,A5*%
%TO.N,/CPU_A5*%
X175260000Y-192385000D03*
%TO.P,U1,17,A6*%
%TO.N,/CPU_A6*%
X172720000Y-194925000D03*
%TO.P,U1,18,A7*%
%TO.N,/CPU_A7*%
X175260000Y-197465000D03*
%TO.P,U1,19,A8*%
%TO.N,/CPU_A8*%
X175260000Y-194925000D03*
%TO.P,U1,20,A9*%
%TO.N,/CPU_A9*%
X177800000Y-197465000D03*
%TO.P,U1,21,A10*%
%TO.N,/CPU_A10*%
X177800000Y-194925000D03*
%TO.P,U1,22,A11*%
%TO.N,/CPU_A11*%
X180340000Y-197465000D03*
%TO.P,U1,23,VSS*%
%TO.N,GND*%
X180340000Y-194925000D03*
%TO.P,U1,24,VSS*%
X182880000Y-197465000D03*
%TO.P,U1,25,A12*%
%TO.N,/CPU_A12*%
X182880000Y-194925000D03*
%TO.P,U1,26,A13*%
%TO.N,/CPU_A13*%
X185420000Y-197465000D03*
%TO.P,U1,27,A14*%
%TO.N,/CPU_A14*%
X185420000Y-194925000D03*
%TO.P,U1,28,A15*%
%TO.N,/CPU_A15*%
X187960000Y-197465000D03*
%TO.P,U1,29,D7*%
%TO.N,/CPU_D7*%
X190500000Y-194925000D03*
%TO.P,U1,30,D6*%
%TO.N,/CPU_D6*%
X187960000Y-194925000D03*
%TO.P,U1,31,D5*%
%TO.N,/CPU_D5*%
X190500000Y-192385000D03*
%TO.P,U1,32,D4*%
%TO.N,/CPU_D4*%
X187960000Y-192385000D03*
%TO.P,U1,33,D3*%
%TO.N,/CPU_D3*%
X190500000Y-189845000D03*
%TO.P,U1,34,D2*%
%TO.N,/CPU_D2*%
X187960000Y-189845000D03*
%TO.P,U1,35,D1*%
%TO.N,/CPU_D1*%
X190500000Y-187305000D03*
%TO.P,U1,36,D0*%
%TO.N,/CPU_D0*%
X187960000Y-187305000D03*
%TO.P,U1,37,VDD*%
%TO.N,VCC*%
X190500000Y-184765000D03*
%TO.P,U1,38,R/~{W}*%
%TO.N,/CPU_R~{W}*%
X187960000Y-184765000D03*
%TO.P,U1,39,nc*%
%TO.N,unconnected-(U1-nc-Pad39)*%
X190500000Y-182225000D03*
%TO.P,U1,40,BE*%
%TO.N,/~{BE}*%
X187960000Y-179685000D03*
%TO.P,U1,41,\u03D50*%
%TO.N,/PHI2*%
X187960000Y-182225000D03*
%TO.P,U1,42,~{SO}*%
%TO.N,unconnected-(U1-~{SO}-Pad42)*%
X185420000Y-179685000D03*
%TO.P,U1,43,\u03D52O*%
%TO.N,unconnected-(U1-\u03D52O-Pad43)*%
X185420000Y-182225000D03*
%TO.P,U1,44,~{RES}*%
%TO.N,/~{RESET}*%
X182880000Y-179685000D03*
%TD*%
D16*
%TO.P,R4,1*%
%TO.N,/PA0*%
X81915000Y-182880000D03*
D17*
%TO.P,R4,2*%
%TO.N,Net-(U11-PA0)*%
X89535000Y-182880000D03*
%TD*%
D16*
%TO.P,R16,1*%
%TO.N,Net-(U6-MR)*%
X119507000Y-177419000D03*
D17*
%TO.P,R16,2*%
%TO.N,VCC*%
X111887000Y-177419000D03*
%TD*%
D26*
%TO.P,X2,1,NC*%
%TO.N,unconnected-(X2-NC-Pad1)*%
X172720000Y-135255000D03*
D27*
%TO.P,X2,7,GND*%
%TO.N,GND*%
X157480000Y-135255000D03*
%TO.P,X2,8,FREQ*%
%TO.N,Net-(U6-XIN)*%
X157480000Y-142875000D03*
%TO.P,X2,14,+5V*%
%TO.N,VCC*%
X172720000Y-142875000D03*
%TD*%
D47*
%TO.P,C14,1*%
%TO.N,VCC*%
X272415000Y-172720000D03*
%TO.P,C14,2*%
%TO.N,GND*%
X272415000Y-175845000D03*
%TD*%
%TO.P,C37,1*%
%TO.N,VCC*%
X168910000Y-119380000D03*
%TO.P,C37,2*%
%TO.N,GND*%
X168910000Y-122505000D03*
%TD*%
%TO.P,C13,1*%
%TO.N,VCC*%
X247015000Y-182880000D03*
%TO.P,C13,2*%
%TO.N,GND*%
X247015000Y-186005000D03*
%TD*%
D48*
%TO.P,C5,1*%
%TO.N,VCC*%
X154255000Y-200025000D03*
%TO.P,C5,2*%
%TO.N,GND*%
X151130000Y-200025000D03*
%TD*%
D47*
%TO.P,C11,1*%
%TO.N,VCC*%
X282575000Y-182880000D03*
%TO.P,C11,2*%
%TO.N,GND*%
X282575000Y-186005000D03*
%TD*%
D49*
%TO.P,C15,1*%
%TO.N,VCC*%
X254635000Y-193040000D03*
%TO.P,C15,2*%
%TO.N,GND*%
X257760000Y-193040000D03*
%TD*%
D50*
%TO.P,C16,1*%
%TO.N,VCC*%
X254635000Y-190450000D03*
%TO.P,C16,2*%
%TO.N,GND*%
X254635000Y-187325000D03*
%TD*%
D47*
%TO.P,C6,1*%
%TO.N,VCC*%
X193040000Y-184785000D03*
%TO.P,C6,2*%
%TO.N,GND*%
X193040000Y-187910000D03*
%TD*%
D49*
%TO.P,C34,1*%
%TO.N,VCC*%
X197620000Y-136525000D03*
%TO.P,C34,2*%
%TO.N,GND*%
X200745000Y-136525000D03*
%TD*%
D51*
%TO.N,GND*%
X149492200Y-200025000D03*
X259715000Y-193040000D03*
X112204500Y-168275000D03*
X263906000Y-139192000D03*
X242062000Y-177292000D03*
X168542200Y-124460000D03*
X272415000Y-177800000D03*
X111125000Y-138430000D03*
X111125000Y-125095000D03*
X263906000Y-133350000D03*
X195583863Y-108522000D03*
X220345000Y-104902000D03*
X247015000Y-187642500D03*
X89408000Y-98933000D03*
X265557000Y-123698000D03*
X91186000Y-91567000D03*
X75819000Y-72771000D03*
X254635000Y-185420000D03*
X97790000Y-91567000D03*
X245110000Y-196215000D03*
X111569500Y-152010393D03*
X220345000Y-110236000D03*
X174625000Y-88265000D03*
X239839000Y-125476000D03*
X106934000Y-71501000D03*
X134078116Y-166463116D03*
X239839000Y-123839490D03*
X238150400Y-137414000D03*
X166307000Y-168208848D03*
X193042411Y-190341712D03*
X196232561Y-167085561D03*
%TO.N,/~{WE}*%
X238125000Y-173482000D03*
%TO.N,/~{RESET}*%
X150611796Y-141803356D03*
X184277000Y-168148000D03*
X151360499Y-149860000D03*
X196850000Y-128930400D03*
X158446800Y-178435000D03*
X151384018Y-160274000D03*
X166370000Y-149225000D03*
X244983000Y-165290500D03*
X168542200Y-128715000D03*
%TO.N,/~{IRQ}*%
X167386000Y-161036000D03*
X140970000Y-161036000D03*
X199389999Y-129877340D03*
X171006323Y-183450677D03*
X161290000Y-177800000D03*
X168529000Y-138557000D03*
%TO.N,Net-(U11-PA6)*%
X91186000Y-181610000D03*
%TO.N,Net-(U11-PA7)*%
X133985000Y-176784000D03*
%TO.N,Net-(U11-CA1)*%
X92247939Y-176420061D03*
%TO.N,Net-(U11-CA2)*%
X151257000Y-177546000D03*
%TO.N,Net-(U11-PB6)*%
X108712000Y-190626998D03*
%TO.N,Net-(U6-MR)*%
X164719000Y-159512000D03*
%TO.N,/~{BE}*%
X165735000Y-178943000D03*
%TO.N,/CPU_RDY*%
X189230000Y-158115000D03*
X170307823Y-185547000D03*
X125857000Y-130302010D03*
X170929800Y-158115000D03*
X125857000Y-114300000D03*
X169545000Y-132969000D03*
%TO.N,/~{NMI}*%
X155575000Y-166007801D03*
X137985000Y-165989000D03*
X155575000Y-172911000D03*
%TO.N,/CPU_A0*%
X152019000Y-173736000D03*
X175387000Y-176657000D03*
%TO.N,/CPU_A1*%
X174142401Y-177596799D03*
%TO.N,/CPU_A2*%
X156718000Y-175641000D03*
X171639450Y-186499500D03*
X216535000Y-186500000D03*
%TO.N,/CPU_A3*%
X159385000Y-177546000D03*
X161798000Y-187198000D03*
X219075000Y-189103000D03*
%TO.N,/CPU_A4*%
X221615000Y-187071000D03*
X183007000Y-185801000D03*
%TO.N,/CPU_A5*%
X224155000Y-187960000D03*
%TO.N,/CPU_A6*%
X227876000Y-202754501D03*
X226695000Y-189230000D03*
%TO.N,/CPU_A7*%
X228981000Y-194755000D03*
X193421000Y-200025000D03*
X229235000Y-190500000D03*
X193929000Y-195326000D03*
%TO.N,/CPU_A8*%
X225425000Y-191389000D03*
%TO.N,/CPU_A9*%
X183388000Y-199263000D03*
X222885000Y-193040000D03*
%TO.N,/CPU_A10*%
X215265000Y-194310000D03*
X247269000Y-194691000D03*
%TO.N,/CPU_A11*%
X221491713Y-195421299D03*
%TO.N,/CPU_A12*%
X232771908Y-196869092D03*
%TO.N,/CPU_A13*%
X257048000Y-199964996D03*
%TO.N,/CPU_A14*%
X255564543Y-202883000D03*
X186690000Y-202311000D03*
%TO.N,/CPU_A15*%
X192151000Y-199263000D03*
X259715000Y-203072998D03*
%TO.N,/CPU_D7*%
X210185000Y-194840299D03*
X211074000Y-181483000D03*
%TO.N,/CPU_D6*%
X208407000Y-181927000D03*
X207713760Y-194119000D03*
%TO.N,/CPU_D5*%
X205105000Y-192405000D03*
%TO.N,/CPU_D4*%
X202633760Y-191552000D03*
%TO.N,/CPU_D3*%
X200025000Y-190754000D03*
%TO.N,/CPU_D2*%
X205105000Y-172640495D03*
X185801000Y-192405000D03*
X203835000Y-189865000D03*
%TO.N,/CPU_D1*%
X206375000Y-189103000D03*
X206375000Y-166370002D03*
%TO.N,/CPU_D0*%
X210184996Y-169418000D03*
X208915000Y-187960000D03*
%TO.N,/PHI2*%
X184277000Y-204343000D03*
X155575000Y-204216000D03*
X267335000Y-203200000D03*
%TO.N,/~{CSW_VDP}*%
X267208000Y-153289000D03*
X176016038Y-154216600D03*
%TO.N,/RESET_TRIG*%
X125222000Y-174752000D03*
X119380000Y-147193000D03*
X135914266Y-174649266D03*
X135890000Y-152019000D03*
%TO.N,/~{OE}*%
X268351000Y-201422000D03*
X219074990Y-174244000D03*
%TO.N,/EXT_A14*%
X234315000Y-192278000D03*
%TO.N,/EXT_A17*%
X263949331Y-200724000D03*
X235792171Y-201739000D03*
%TO.N,/EXT_A16*%
X236347000Y-193358000D03*
%TO.N,/EXT_A15*%
X238010408Y-201361495D03*
X261947053Y-200723000D03*
%TO.N,/~{CS_RAM}*%
X269875000Y-202819000D03*
%TO.N,Net-(U6-INTR)*%
X129032000Y-128778000D03*
X156210000Y-130873500D03*
%TO.N,/BUF_D0*%
X169418000Y-106426000D03*
X147475772Y-106687443D03*
%TO.N,/BUF_D1*%
X175133000Y-107696000D03*
X188163200Y-157073600D03*
X156972000Y-107112798D03*
X146939000Y-107696000D03*
X165455600Y-151180800D03*
X157734000Y-114427000D03*
%TO.N,/BUF_D2*%
X174752000Y-147574000D03*
X167386000Y-104776000D03*
X145791895Y-104878401D03*
%TO.N,/BUF_D3*%
X165174171Y-105601000D03*
X175683501Y-142965476D03*
X143154188Y-104998072D03*
%TO.N,/BUF_D4*%
X166116000Y-102870000D03*
X175958500Y-144462500D03*
%TO.N,/BUF_D5*%
X163830000Y-104458000D03*
X177342800Y-147777200D03*
%TO.N,/BUF_D6*%
X178020139Y-149379798D03*
X179019200Y-124002800D03*
%TO.N,/BUF_D7*%
X179171162Y-131309455D03*
X185166000Y-131368800D03*
X146964400Y-111048800D03*
X148945600Y-107797600D03*
%TO.N,Net-(U6-RCLK)*%
X152639916Y-112663086D03*
%TO.N,/~{CS_UART}*%
X256667000Y-163893500D03*
X161163000Y-161734000D03*
%TO.N,Net-(U6-XIN)*%
X152908000Y-114300000D03*
%TO.N,/~{BUF_WE}*%
X167766992Y-116967000D03*
X144907000Y-114300000D03*
X170053000Y-109220000D03*
X142494000Y-105917996D03*
%TO.N,/~{BUF_OE}*%
X144653000Y-119253000D03*
X143383000Y-107823000D03*
X171196000Y-110109000D03*
X167411150Y-118406557D03*
%TO.N,/BUF_A2*%
X158369000Y-161734000D03*
X148904456Y-128200155D03*
%TO.N,/BUF_A1*%
X171462184Y-125171200D03*
X172415200Y-131826000D03*
X148472614Y-130546386D03*
X145669000Y-95250000D03*
%TO.N,/BUF_A0*%
X184035831Y-130035800D03*
X193040000Y-130175000D03*
X149984498Y-130577831D03*
%TO.N,Net-(BT1-+)*%
X140970000Y-123825000D03*
%TO.N,/SPI_MISO*%
X137160000Y-153035000D03*
%TO.N,/~{SPI_SS_PS2}*%
X115386496Y-189166500D03*
%TO.N,/~{SPI_SS_SDCARD}*%
X113284000Y-143002000D03*
X113284000Y-186690002D03*
%TO.N,/~{SPI_SS_RTC}*%
X105161000Y-188468000D03*
%TO.N,/~{CS_VIA}*%
X258267200Y-203581000D03*
%TO.N,/BUF_R~{W}*%
X141887866Y-102822584D03*
%TO.N,/BUF_PHI2*%
X142367000Y-116205000D03*
%TO.N,Net-(JP2-B)*%
X238887000Y-154051000D03*
X235598199Y-140716001D03*
X228854000Y-140716000D03*
%TO.N,/~{CS_OPL}*%
X185420000Y-116789200D03*
X236093000Y-120523000D03*
X242951000Y-165671500D03*
%TO.N,/Video_Audio/Audio_analog/fl*%
X196850002Y-110236001D03*
%TO.N,/Video_Audio/{slash}CAS_X*%
X235712000Y-130048000D03*
%TO.N,/Video_Audio/{slash}CAS1*%
X255143000Y-152527000D03*
%TO.N,/Video_Audio/{slash}CAS0*%
X228562850Y-147765000D03*
%TO.N,/Video_Audio/{slash}RAS*%
X252730000Y-151448499D03*
%TO.N,/PA0*%
X85852000Y-171261000D03*
X88265000Y-171196000D03*
X88900000Y-160147000D03*
%TO.N,/PA1*%
X77978000Y-172085000D03*
X94440054Y-154114000D03*
X80010000Y-154285292D03*
%TO.N,/PA2*%
X85471000Y-160147000D03*
X84836000Y-168910000D03*
%TO.N,/PA3*%
X78688470Y-169225390D03*
X87376000Y-162433000D03*
X78360000Y-158016808D03*
%TO.N,/PA4*%
X79185000Y-165100000D03*
X79566499Y-138557000D03*
%TO.N,/PA5*%
X79401356Y-167126600D03*
%TO.N,/PA6*%
X80454000Y-162560000D03*
%TO.N,/PA7*%
X83566000Y-163791000D03*
%TO.N,/CA2*%
X81280000Y-151765000D03*
%TO.N,/CA1*%
X81280000Y-153035000D03*
%TO.N,/~{SD_CARD_DETECT}*%
X106680000Y-100838000D03*
%TO.N,/~{CS_SLOT1}*%
X159461200Y-155651200D03*
X254635000Y-161417000D03*
X122046996Y-129540000D03*
X157734000Y-131673600D03*
%TO.N,/~{CS_SLOT0}*%
X169418000Y-135255000D03*
X264985500Y-162750500D03*
X169859922Y-159839171D03*
X134620000Y-131064000D03*
%TO.N,Net-(J6-VDD)*%
X92837000Y-91567000D03*
%TO.N,/SD Card/CLK*%
X95209999Y-96098999D03*
%TO.N,/SD Card/CMD*%
X87508637Y-95927243D03*
X92329000Y-128524000D03*
%TO.N,/SD Card/DAT0*%
X100076000Y-96139000D03*
%TO.N,/~{SD_WRITE_PROTECT}*%
X105410000Y-96139000D03*
%TO.N,/SD Card/DAT3*%
X91059000Y-127508000D03*
X85217000Y-96139000D03*
%TO.N,Net-(RR1-R6)*%
X83693000Y-114300000D03*
%TO.N,Net-(RR1-R7)*%
X90297000Y-116840000D03*
X100520000Y-154178000D03*
%TO.N,Net-(U29-I0a)*%
X88519000Y-144145000D03*
X87757000Y-107950000D03*
X105410000Y-147701000D03*
%TO.N,Net-(RR1-R8)*%
X84201000Y-153289000D03*
X99695000Y-151765000D03*
%TO.N,Net-(RR1-R5)*%
X85090000Y-134038221D03*
X85028996Y-114186006D03*
%TO.N,Net-(U29-OEb)*%
X95088267Y-160901498D03*
%TO.N,/~{JOYPORT_ENABLE}*%
X113601000Y-127000000D03*
%TO.N,Net-(U30-CE)*%
X134112000Y-164211000D03*
%TO.N,/~{CSR_VDP}*%
X174858494Y-155866600D03*
X254031180Y-156273000D03*
%TO.N,/Video_Audio/VDP_R~{W}*%
X221488000Y-142748000D03*
X281305000Y-146812000D03*
X254508000Y-145669000D03*
%TO.N,/Video_Audio/VDP_RD4*%
X287655000Y-135890000D03*
%TO.N,Net-(U7B-D)*%
X88712360Y-134747000D03*
%TO.N,/Video_Audio/VDP_RD0*%
X260350000Y-132588000D03*
%TO.N,/Video_Audio/VDP_RD1*%
X256540000Y-133350000D03*
%TO.N,/Video_Audio/VDP_RD2*%
X254000000Y-133993996D03*
%TO.N,/Video_Audio/VDP_RD3*%
X259080000Y-133985000D03*
%TO.N,/Video_Audio/VDP_RD5*%
X285115000Y-136779000D03*
%TO.N,/Video_Audio/VDP_RD6*%
X281295000Y-136398000D03*
%TO.N,/Video_Audio/VDP_RD7*%
X285115000Y-144526000D03*
%TO.N,/Video_Audio/VDP_AD0*%
X277585806Y-145987000D03*
X250269000Y-144780000D03*
%TO.N,/Video_Audio/VDP_AD1*%
X274955000Y-146619503D03*
X247650000Y-145731501D03*
%TO.N,/Video_Audio/VDP_AD2*%
X210693000Y-148590000D03*
%TO.N,/Video_Audio/VDP_AD3*%
X242570000Y-146366002D03*
X269657189Y-147003507D03*
X212598000Y-146558000D03*
%TO.N,/Video_Audio/VDP_AD4*%
X271145000Y-123959000D03*
X245110000Y-124079000D03*
X215900000Y-143002000D03*
%TO.N,/Video_Audio/VDP_AD5*%
X246382207Y-146874498D03*
X273685000Y-147701000D03*
X216027000Y-147574000D03*
%TO.N,/Video_Audio/VDP_AD6*%
X249936000Y-140018000D03*
X217805000Y-142240000D03*
%TO.N,/Video_Audio/VDP_AD7*%
X219557600Y-149758400D03*
%TO.N,/Kbd_controller/PS2_KBD_CLK*%
X118005034Y-121500239D03*
X137033000Y-121539000D03*
%TO.N,/Kbd_controller/PS2_MOU_CLK*%
X118364000Y-125222000D03*
X131826000Y-125222000D03*
%TO.N,Net-(U11-PB5)*%
X107696000Y-189865000D03*
%TD*%
D52*
%TO.N,Net-(C56-Pad1)*%
X231140000Y-91440000D02*
X233680000Y-88900000D01*
X233680000Y-88900000D02*
X233680000Y-87590000D01*
%TO.N,Net-(C56-Pad2)*%
X221495000Y-80898000D02*
X231774000Y-80898000D01*
X231774000Y-80898000D02*
X233680000Y-82804000D01*
X233680000Y-82804000D02*
X233680000Y-85090000D01*
%TO.N,GND*%
X199985000Y-135765000D02*
X199985000Y-133350000D01*
X254635000Y-187325000D02*
X254635000Y-185420000D01*
X151130000Y-200025000D02*
X149492200Y-200025000D01*
X168542200Y-122872800D02*
X168542200Y-124460000D01*
X193000000Y-102235000D02*
X193000000Y-99100000D01*
X193040000Y-190339301D02*
X193042411Y-190341712D01*
X280035000Y-190500000D02*
X282575000Y-187960000D01*
X282575000Y-187960000D02*
X282575000Y-186005000D01*
X257760000Y-193040000D02*
X259715000Y-193040000D01*
X247015000Y-186005000D02*
X247015000Y-187642500D01*
X200745000Y-136525000D02*
X199985000Y-135765000D01*
X193040000Y-187910000D02*
X193040000Y-190339301D01*
X272415000Y-175845000D02*
X272415000Y-177800000D01*
%TO.N,VCC*%
X254635000Y-190500000D02*
X252095000Y-193040000D01*
X254635000Y-193040000D02*
X254635000Y-195580000D01*
X193020000Y-184765000D02*
X190500000Y-184765000D01*
X198205000Y-135940000D02*
X198205000Y-133350000D01*
X168910000Y-119380000D02*
X166370000Y-119380000D01*
X247015000Y-182880000D02*
X249555000Y-182880000D01*
X154305000Y-199975000D02*
X154305000Y-197465000D01*
X197620000Y-136525000D02*
X198205000Y-135940000D01*
X282575000Y-182880000D02*
X280035000Y-182880000D01*
X272415000Y-172720000D02*
X272415000Y-170180000D01*
%TO.N,/~{WE}*%
X238125000Y-180340000D02*
X238125000Y-173482000D01*
X231775000Y-199390000D02*
X238125000Y-193040000D01*
X238125000Y-193040000D02*
X238125000Y-180340000D01*
%TO.N,/TMS*%
X282194000Y-161036000D02*
X282194000Y-175006000D01*
X280670000Y-176530000D02*
X278765000Y-176530000D01*
X282194000Y-175006000D02*
X280670000Y-176530000D01*
X278765000Y-176530000D02*
X277495000Y-175260000D01*
%TO.N,/TDI*%
X281584400Y-162966400D02*
X279019000Y-160401000D01*
X281584400Y-173710600D02*
X281584400Y-162966400D01*
X280035000Y-175260000D02*
X281584400Y-173710600D01*
%TO.N,/TCK*%
X280035000Y-172720000D02*
X280035000Y-171577000D01*
X278765000Y-165227000D02*
X273939000Y-160401000D01*
X280035000Y-171577000D02*
X278765000Y-170307000D01*
X278765000Y-170307000D02*
X278765000Y-165227000D01*
%TO.N,/~{RESET}*%
X244983000Y-191008000D02*
X244983000Y-165290500D01*
X160744000Y-168821000D02*
X166370000Y-163195000D01*
X182880000Y-179685000D02*
X182880000Y-174244000D01*
X116967000Y-165090000D02*
X118242000Y-163815000D01*
X150421295Y-142178780D02*
X150421295Y-141894668D01*
X151384000Y-145066571D02*
X150548297Y-144230868D01*
X195580000Y-111760000D02*
X195580000Y-124460000D01*
X184061000Y-168364000D02*
X184277000Y-168148000D01*
X124460000Y-118110000D02*
X123190000Y-116840000D01*
X151360499Y-149860000D02*
X151384000Y-149836499D01*
X151384000Y-149836499D02*
X151384000Y-145066571D01*
X119253000Y-174625000D02*
X116967000Y-172339000D01*
X182880000Y-174244000D02*
X184061000Y-173063000D01*
X151360499Y-160250481D02*
X151384018Y-160274000D01*
X168542200Y-128715000D02*
X166370000Y-130887200D01*
X159385000Y-184765000D02*
X158292800Y-183672800D01*
X166370000Y-163195000D02*
X166370000Y-149225000D01*
X196850000Y-125730000D02*
X196850000Y-128930400D01*
X150548297Y-144230868D02*
X150548297Y-142305782D01*
X195580000Y-124460000D02*
X196850000Y-125730000D01*
X249555000Y-195580000D02*
X244983000Y-191008000D01*
X123190000Y-131644853D02*
X124460000Y-130374853D01*
X151360499Y-149860000D02*
X151360499Y-160250481D01*
X158292800Y-174775386D02*
X160744000Y-172324186D01*
X116967000Y-172339000D02*
X116967000Y-165090000D01*
X160744000Y-172324186D02*
X160744000Y-168821000D01*
X150548297Y-142305782D02*
X150421295Y-142178780D01*
X124460000Y-130374853D02*
X124460000Y-118110000D01*
X158292800Y-183672800D02*
X158292800Y-174775386D01*
X166370000Y-130887200D02*
X166370000Y-149225000D01*
X123190000Y-135890000D02*
X123190000Y-131644853D01*
X184061000Y-173063000D02*
X184061000Y-168364000D01*
%TO.N,/~{IRQ}*%
X161671000Y-202565000D02*
X161671000Y-195480171D01*
X142240000Y-156210000D02*
X142240000Y-146431000D01*
X140970000Y-157480000D02*
X140970000Y-161036000D01*
X171006323Y-181928323D02*
X171006323Y-183450677D01*
X167386000Y-161036000D02*
X169494323Y-158927677D01*
X169494323Y-153658576D02*
X168529000Y-152693253D01*
X141986000Y-146177000D02*
X141986000Y-139954000D01*
X171006323Y-186144848D02*
X171006323Y-183450677D01*
X163449000Y-167640000D02*
X163449000Y-172847000D01*
X166878000Y-177800000D02*
X171006323Y-181928323D01*
X140970000Y-157480000D02*
X142240000Y-156210000D01*
X163449000Y-172847000D02*
X161290000Y-175006000D01*
X161290000Y-175006000D02*
X161290000Y-177800000D01*
X161671000Y-195480171D02*
X171006323Y-186144848D01*
X167386000Y-161036000D02*
X167386000Y-163703000D01*
X198120000Y-111760000D02*
X199390000Y-113030000D01*
X168529000Y-152693253D02*
X168529000Y-138557000D01*
X138430000Y-135890000D02*
X138430000Y-113030000D01*
X199390000Y-113030000D02*
X199389999Y-129877340D01*
X167386000Y-163703000D02*
X163449000Y-167640000D01*
X142240000Y-146431000D02*
X141986000Y-146177000D01*
X169494323Y-158927677D02*
X169494323Y-153658576D01*
X138430000Y-113030000D02*
X139700000Y-111760000D01*
X141986000Y-139954000D02*
X138176000Y-136144000D01*
%TO.N,Net-(U11-PA6)*%
X91186000Y-181610000D02*
X90805000Y-181229000D01*
X90805000Y-181229000D02*
X90805000Y-172466000D01*
X90805000Y-172466000D02*
X89535000Y-171196000D01*
X89535000Y-171196000D02*
X89535000Y-170180000D01*
%TO.N,Net-(U11-PA7)*%
X133985000Y-177145000D02*
X141605000Y-184765000D01*
X133985000Y-176784000D02*
X133985000Y-177145000D01*
%TO.N,Net-(U11-CA1)*%
X92247939Y-173112520D02*
X92247939Y-176420061D01*
X91186000Y-169291000D02*
X91186000Y-172050581D01*
X91186000Y-172050581D02*
X92247939Y-173112520D01*
X89535000Y-167640000D02*
X91186000Y-169291000D01*
%TO.N,Net-(U11-CA2)*%
X154305000Y-182225000D02*
X152857200Y-180777200D01*
X152857200Y-180777200D02*
X152857200Y-179146200D01*
X152857200Y-179146200D02*
X151257000Y-177546000D01*
%TO.N,Net-(U11-PB6)*%
X108712000Y-177419000D02*
X108712000Y-190626998D01*
%TO.N,Net-(U6-MR)*%
X119507000Y-177419000D02*
X122047000Y-174879000D01*
X164719000Y-127889000D02*
X164719000Y-159512000D01*
X122047000Y-165090000D02*
X123322000Y-163815000D01*
X163830000Y-127000000D02*
X164719000Y-127889000D01*
X122047000Y-174879000D02*
X122047000Y-165090000D01*
%TO.N,/~{BE}*%
X165608000Y-181610000D02*
X165608000Y-179070000D01*
X166878000Y-182880000D02*
X165608000Y-181610000D01*
X165608000Y-179070000D02*
X165735000Y-178943000D01*
%TO.N,/CPU_RDY*%
X166878000Y-188087000D02*
X169418000Y-185547000D01*
X268732000Y-167214714D02*
X265855286Y-164338000D01*
X181717000Y-180848000D02*
X183515000Y-180848000D01*
X170815499Y-134239499D02*
X169545000Y-132969000D01*
X184150000Y-176149000D02*
X186779000Y-173520000D01*
X268732000Y-169037000D02*
X268732000Y-167214714D01*
X170815499Y-158000699D02*
X170815499Y-134239499D01*
X183515000Y-180848000D02*
X184150000Y-180213000D01*
X180340000Y-182225000D02*
X181717000Y-180848000D01*
X169418000Y-185547000D02*
X170307823Y-185547000D01*
X186779000Y-173520000D02*
X186779000Y-169456000D01*
X170929800Y-158115000D02*
X170815499Y-158000699D01*
X184150000Y-180213000D02*
X184150000Y-176149000D01*
X269875000Y-170180000D02*
X268732000Y-169037000D01*
X125857000Y-114300000D02*
X125857000Y-130302010D01*
X186779000Y-169456000D02*
X189230000Y-167005000D01*
X265557000Y-164338000D02*
X261620000Y-160401000D01*
X189230000Y-167005000D02*
X189230000Y-158115000D01*
X265855286Y-164338000D02*
X265557000Y-164338000D01*
%TO.N,/~{NMI}*%
X139700000Y-148463000D02*
X139700000Y-156210000D01*
X155575000Y-166007801D02*
X155575000Y-172911000D01*
X135826500Y-133540500D02*
X134366000Y-135001000D01*
X137667501Y-162693300D02*
X137667501Y-164936700D01*
X166878000Y-175260000D02*
X170574200Y-178956200D01*
X170574200Y-178956200D02*
X170574200Y-180079200D01*
X138430000Y-161930801D02*
X137667501Y-162693300D01*
X135826500Y-113093500D02*
X135826500Y-133540500D01*
X137160000Y-111760000D02*
X135826500Y-113093500D01*
X136906000Y-141097000D02*
X136906000Y-145669000D01*
X139700000Y-156210000D02*
X138430000Y-157480000D01*
X138430000Y-157480000D02*
X138430000Y-161930801D01*
X137922000Y-165926000D02*
X137985000Y-165989000D01*
X134366000Y-135001000D02*
X134366000Y-138557000D01*
X170574200Y-180079200D02*
X172720000Y-182225000D01*
X134366000Y-138557000D02*
X136906000Y-141097000D01*
X137922000Y-165191199D02*
X137922000Y-165926000D01*
X136906000Y-145669000D02*
X139700000Y-148463000D01*
X137667501Y-164936700D02*
X137922000Y-165191199D01*
%TO.N,/CPU_A0*%
X212725000Y-182880000D02*
X212725000Y-165080000D01*
X175260000Y-184765000D02*
X176530000Y-183495000D01*
X176530000Y-183495000D02*
X176530000Y-177800000D01*
X152019000Y-177141273D02*
X152082000Y-177204273D01*
X152082000Y-177204273D02*
X152082000Y-177462000D01*
X211455000Y-184150000D02*
X212725000Y-182880000D01*
X152082000Y-177462000D02*
X154305000Y-179685000D01*
X212725000Y-165080000D02*
X211455000Y-163810000D01*
X152019000Y-173736000D02*
X152019000Y-177141273D01*
X176530000Y-177800000D02*
X175387000Y-176657000D01*
%TO.N,/CPU_A1*%
X173990000Y-186035000D02*
X173990000Y-177749200D01*
X144145000Y-171435000D02*
X146797000Y-168783000D01*
X213995000Y-184150000D02*
X213995000Y-182499000D01*
X172720000Y-187305000D02*
X173990000Y-186035000D01*
X215265000Y-165080000D02*
X213995000Y-163810000D01*
X146797000Y-168783000D02*
X151638000Y-168783000D01*
X153035000Y-176514795D02*
X155752800Y-179232595D01*
X155752800Y-179232595D02*
X155752800Y-181132800D01*
X215265000Y-181229000D02*
X215265000Y-165080000D01*
X151638000Y-168783000D02*
X153035000Y-170180000D01*
X153035000Y-170180000D02*
X153035000Y-176514795D01*
X213995000Y-182499000D02*
X215265000Y-181229000D01*
X173990000Y-177749200D02*
X174142401Y-177596799D01*
X155752800Y-181132800D02*
X156845000Y-182225000D01*
%TO.N,/CPU_A2*%
X216535000Y-181864000D02*
X217805000Y-180594000D01*
X156718000Y-175641000D02*
X156845000Y-175768000D01*
X171639450Y-188764450D02*
X171639450Y-186499500D01*
X217805000Y-165080000D02*
X216535000Y-163810000D01*
X217805000Y-180594000D02*
X217805000Y-165080000D01*
X156845000Y-175768000D02*
X156845000Y-179685000D01*
X172720000Y-189845000D02*
X171639450Y-188764450D01*
X216535000Y-184150000D02*
X216535000Y-181864000D01*
X216535000Y-184150000D02*
X216535000Y-186500000D01*
%TO.N,/CPU_A3*%
X219075000Y-181991000D02*
X219075000Y-184150000D01*
X220345000Y-165080000D02*
X220345000Y-180721000D01*
X220345000Y-180721000D02*
X219075000Y-181991000D01*
X219075000Y-184150000D02*
X219075000Y-189103000D01*
X159385000Y-182225000D02*
X159385000Y-177546000D01*
X219075000Y-163810000D02*
X220345000Y-165080000D01*
X159385000Y-182225000D02*
X161798000Y-184638000D01*
X161798000Y-184638000D02*
X161798000Y-187198000D01*
%TO.N,/CPU_A4*%
X177693000Y-191115000D02*
X183007000Y-185801000D01*
X221615000Y-182118000D02*
X222885000Y-180848000D01*
X173990000Y-191115000D02*
X177693000Y-191115000D01*
X221615000Y-184150000D02*
X221615000Y-182118000D01*
X222885000Y-165080000D02*
X221615000Y-163810000D01*
X221615000Y-184150000D02*
X221615000Y-187071000D01*
X172720000Y-192385000D02*
X173990000Y-191115000D01*
X222885000Y-180848000D02*
X222885000Y-165080000D01*
%TO.N,/CPU_A5*%
X225425000Y-165080000D02*
X224155000Y-163810000D01*
X225425000Y-181102000D02*
X225425000Y-165080000D01*
X224155000Y-187960000D02*
X224155000Y-184150000D01*
X224155000Y-184150000D02*
X224155000Y-182372000D01*
X224155000Y-182372000D02*
X225425000Y-181102000D01*
%TO.N,/CPU_A6*%
X227965000Y-181102000D02*
X227965000Y-165080000D01*
X227965000Y-165080000D02*
X226695000Y-163810000D01*
X227876000Y-198031000D02*
X227876000Y-202754501D01*
X226695000Y-189230000D02*
X226695000Y-184150000D01*
X226695000Y-196850000D02*
X227876000Y-198031000D01*
X226695000Y-182372000D02*
X227965000Y-181102000D01*
X226695000Y-184150000D02*
X226695000Y-182372000D01*
X226695000Y-189230000D02*
X226695000Y-196850000D01*
%TO.N,/CPU_A7*%
X229235000Y-194501000D02*
X228981000Y-194755000D01*
X229235000Y-190500000D02*
X229235000Y-184150000D01*
X230505000Y-165080000D02*
X229235000Y-163810000D01*
X229235000Y-182372000D02*
X230505000Y-181102000D01*
X193929000Y-195326000D02*
X193929000Y-199517000D01*
X193929000Y-199517000D02*
X193421000Y-200025000D01*
X229235000Y-184150000D02*
X229235000Y-182372000D01*
X230505000Y-181102000D02*
X230505000Y-165080000D01*
X229235000Y-190500000D02*
X229235000Y-194501000D01*
%TO.N,/CPU_A8*%
X225425000Y-198120000D02*
X225425000Y-191389000D01*
X226695000Y-181102000D02*
X225425000Y-182372000D01*
X226695000Y-179050000D02*
X226695000Y-181102000D01*
X226695000Y-199390000D02*
X225425000Y-198120000D01*
X225425000Y-182372000D02*
X225425000Y-191389000D01*
%TO.N,/CPU_A9*%
X183388000Y-199390000D02*
X183388000Y-199263000D01*
X222885000Y-183103184D02*
X224155000Y-181833184D01*
X224155000Y-199390000D02*
X222885000Y-198120000D01*
X177800000Y-197465000D02*
X179725000Y-199390000D01*
X222885000Y-198120000D02*
X222885000Y-183103184D01*
X224155000Y-181833184D02*
X224155000Y-179050000D01*
X179725000Y-199390000D02*
X183388000Y-199390000D01*
%TO.N,/CPU_A10*%
X215265000Y-194310000D02*
X215265000Y-182118000D01*
X247269000Y-194691000D02*
X247269000Y-196977000D01*
X215265000Y-198120000D02*
X215265000Y-194310000D01*
X252095000Y-198120000D02*
X248412000Y-198120000D01*
X248412000Y-198120000D02*
X247269000Y-196977000D01*
X216535000Y-180848000D02*
X216535000Y-179050000D01*
X216535000Y-199390000D02*
X215265000Y-198120000D01*
X215265000Y-182118000D02*
X216535000Y-180848000D01*
%TO.N,/CPU_A11*%
X221615000Y-195544586D02*
X221491713Y-195421299D01*
X221615000Y-199390000D02*
X221615000Y-195544586D01*
X221615000Y-180848000D02*
X220345000Y-182118000D01*
X221615000Y-179050000D02*
X221615000Y-180848000D01*
X220345000Y-194274586D02*
X221491713Y-195421299D01*
X220345000Y-182118000D02*
X220345000Y-194274586D01*
%TO.N,/CPU_A12*%
X231775000Y-181864000D02*
X233045000Y-180594000D01*
X231775000Y-184150000D02*
X231775000Y-181864000D01*
X231775000Y-184150000D02*
X232791000Y-185166000D01*
X232791000Y-196850000D02*
X232771908Y-196869092D01*
X232791000Y-185166000D02*
X232791000Y-196850000D01*
X233045000Y-180594000D02*
X233045000Y-165080000D01*
X233045000Y-165080000D02*
X231775000Y-163810000D01*
%TO.N,/CPU_A13*%
X229235000Y-197866000D02*
X227965000Y-196596000D01*
X229235000Y-199390000D02*
X229235000Y-197866000D01*
X229235000Y-181097000D02*
X229235000Y-179050000D01*
X257175000Y-199837996D02*
X257048000Y-199964996D01*
X227965000Y-196596000D02*
X227965000Y-182367000D01*
X257175000Y-198120000D02*
X257175000Y-199837996D01*
X227965000Y-182367000D02*
X229235000Y-181097000D01*
%TO.N,/CPU_A14*%
X257175000Y-195580000D02*
X255683113Y-197071887D01*
X255683113Y-197071887D02*
X255683113Y-202764430D01*
X186690000Y-196195000D02*
X186690000Y-202311000D01*
X185420000Y-194925000D02*
X186690000Y-196195000D01*
X255683113Y-202764430D02*
X255564543Y-202883000D01*
%TO.N,/CPU_A15*%
X190353000Y-197465000D02*
X192151000Y-199263000D01*
X187960000Y-197465000D02*
X190353000Y-197465000D01*
X259715000Y-203073000D02*
X259715000Y-198120000D01*
X259715000Y-203073000D02*
X259715000Y-203072998D01*
%TO.N,/CPU_D7*%
X167005000Y-173101000D02*
X165100000Y-175006000D01*
X168929000Y-173101000D02*
X167005000Y-173101000D01*
X165100000Y-175006000D02*
X165100000Y-176680550D01*
X165100000Y-176680550D02*
X164846000Y-176934550D01*
X170180000Y-171850000D02*
X168929000Y-173101000D01*
X158389000Y-197465000D02*
X156845000Y-197465000D01*
X164846000Y-191008000D02*
X158389000Y-197465000D01*
X211455000Y-179050000D02*
X211455000Y-181102000D01*
X211455000Y-199390000D02*
X210185000Y-198120000D01*
X210185000Y-194840299D02*
X210185000Y-182372000D01*
X210185000Y-182372000D02*
X211074000Y-181483000D01*
X211455000Y-181102000D02*
X211074000Y-181483000D01*
X210185000Y-198120000D02*
X210185000Y-194840299D01*
X164846000Y-176934550D02*
X164846000Y-191008000D01*
%TO.N,/CPU_D6*%
X208915000Y-179050000D02*
X208915000Y-181419000D01*
X172720000Y-171450000D02*
X170942000Y-169672000D01*
X207713760Y-198188760D02*
X207713760Y-194119000D01*
X208915000Y-181419000D02*
X208407000Y-181927000D01*
X164338000Y-189972000D02*
X159385000Y-194925000D01*
X207713760Y-194119000D02*
X207713760Y-182620240D01*
X207713760Y-182620240D02*
X208407000Y-181927000D01*
X164338000Y-174752000D02*
X164338000Y-189972000D01*
X169418000Y-169672000D02*
X164338000Y-174752000D01*
X208915000Y-199390000D02*
X207713760Y-198188760D01*
X170942000Y-169672000D02*
X169418000Y-169672000D01*
%TO.N,/CPU_D5*%
X206375000Y-181102000D02*
X206375000Y-179050000D01*
X169291000Y-169164000D02*
X163757998Y-174697002D01*
X159205999Y-193929000D02*
X157841000Y-193929000D01*
X163757998Y-189377001D02*
X159205999Y-193929000D01*
X175260000Y-171450000D02*
X172974000Y-169164000D01*
X206375000Y-199390000D02*
X205105000Y-198120000D01*
X157841000Y-193929000D02*
X156845000Y-194925000D01*
X172974000Y-169164000D02*
X169291000Y-169164000D01*
X205105000Y-198120000D02*
X205105000Y-182372000D01*
X205105000Y-182372000D02*
X206375000Y-181102000D01*
X163757998Y-174697002D02*
X163757998Y-189377001D01*
%TO.N,/CPU_D4*%
X203835000Y-199390000D02*
X202633760Y-198188760D01*
X202633760Y-198188760D02*
X202633760Y-191552000D01*
X175006000Y-168656000D02*
X177800000Y-171450000D01*
X159385000Y-192385000D02*
X163195000Y-188575000D01*
X203835000Y-179450000D02*
X202565000Y-180720000D01*
X169164000Y-168656000D02*
X175006000Y-168656000D01*
X163195000Y-188575000D02*
X163195000Y-174625000D01*
X202565000Y-180720000D02*
X202565000Y-191483240D01*
X163195000Y-174625000D02*
X169164000Y-168656000D01*
X202565000Y-191483240D02*
X202633760Y-191552000D01*
%TO.N,/CPU_D3*%
X162660000Y-187934999D02*
X159148199Y-191446800D01*
X200025000Y-180320000D02*
X200025000Y-198120000D01*
X180340000Y-171450000D02*
X177038000Y-168148000D01*
X200025000Y-198120000D02*
X201295000Y-199390000D01*
X159148199Y-191446800D02*
X157783200Y-191446800D01*
X157783200Y-191446800D02*
X156845000Y-192385000D01*
X169037000Y-168148000D02*
X162660000Y-174525000D01*
X201295000Y-179050000D02*
X200025000Y-180320000D01*
X177038000Y-168148000D02*
X169037000Y-168148000D01*
X162660000Y-174525000D02*
X162660000Y-187934999D01*
%TO.N,/CPU_D2*%
X203835000Y-182129000D02*
X205105000Y-180859000D01*
X205105000Y-180859000D02*
X205105000Y-165080000D01*
X205105000Y-165080000D02*
X203835000Y-163810000D01*
X185801000Y-192405000D02*
X185801000Y-192004000D01*
X203835000Y-184150000D02*
X203835000Y-182129000D01*
X203835000Y-184150000D02*
X203835000Y-189865000D01*
X185801000Y-192004000D02*
X187960000Y-189845000D01*
%TO.N,/CPU_D1*%
X206375000Y-176657000D02*
X206375000Y-166370002D01*
X206375000Y-163810000D02*
X206375000Y-166370002D01*
X206375000Y-182245000D02*
X207645000Y-180975000D01*
X206375000Y-184150000D02*
X206375000Y-182245000D01*
X206375000Y-184150000D02*
X206375000Y-189103000D01*
X207645000Y-177927000D02*
X206375000Y-176657000D01*
X207645000Y-180975000D02*
X207645000Y-177927000D01*
%TO.N,/CPU_D0*%
X210184996Y-181426004D02*
X210184996Y-169418000D01*
X208915000Y-168148004D02*
X210184996Y-169418000D01*
X208915000Y-184150000D02*
X208915000Y-187960000D01*
X208915000Y-184150000D02*
X208915000Y-182696000D01*
X208915000Y-163810000D02*
X208915000Y-168148004D01*
X208915000Y-182696000D02*
X210184996Y-181426004D01*
%TO.N,/CPU_R~{W}*%
X150875501Y-196575501D02*
X151765000Y-197465000D01*
X148054501Y-185912255D02*
X148235501Y-186093256D01*
X148054501Y-170535313D02*
X148044000Y-170545814D01*
X189319000Y-170726000D02*
X189319000Y-183406000D01*
X150672800Y-191566800D02*
X150672800Y-195834690D01*
X148235501Y-186252786D02*
X148335501Y-186352787D01*
X151765000Y-171435000D02*
X149875000Y-169545000D01*
X148235501Y-186093256D02*
X148235501Y-186252786D01*
X150672800Y-195834690D02*
X150875501Y-196037391D01*
X148054501Y-170207499D02*
X148054501Y-170535313D01*
X193040000Y-167005000D02*
X189319000Y-170726000D01*
X189319000Y-183406000D02*
X187960000Y-184765000D01*
X149875000Y-169545000D02*
X148717000Y-169545000D01*
X148335501Y-189229501D02*
X150672800Y-191566800D01*
X193040000Y-163830000D02*
X193040000Y-167005000D01*
X148717000Y-169545000D02*
X148054501Y-170207499D01*
X148044000Y-172324186D02*
X148054501Y-172334687D01*
X148335501Y-186352787D02*
X148335501Y-189229501D01*
X150875501Y-196037391D02*
X150875501Y-196575501D01*
X148054501Y-172334687D02*
X148054501Y-185912255D01*
X148044000Y-170545814D02*
X148044000Y-172324186D01*
%TO.N,/PHI2*%
X150495000Y-177950727D02*
X149225000Y-176680727D01*
X155575000Y-196195000D02*
X155575000Y-204216000D01*
X154305000Y-194925000D02*
X154305000Y-193919212D01*
X149225000Y-176680727D02*
X149225000Y-171435000D01*
X184277000Y-185908000D02*
X184277000Y-204343000D01*
X154305000Y-194925000D02*
X155575000Y-196195000D01*
X154305000Y-193919212D02*
X150495000Y-190109212D01*
X150495000Y-190109212D02*
X150495000Y-177950727D01*
X267335000Y-198120000D02*
X267335000Y-203200000D01*
X187960000Y-182225000D02*
X184277000Y-185908000D01*
%TO.N,/~{CSW_VDP}*%
X273685000Y-176530000D02*
X273685000Y-166788292D01*
X277495000Y-180340000D02*
X273685000Y-176530000D01*
X273685000Y-166788292D02*
X267208000Y-160311292D01*
X178218656Y-151219800D02*
X176016038Y-153422418D01*
X182185000Y-148077156D02*
X179042356Y-151219800D01*
X182185000Y-133350000D02*
X182185000Y-148077156D01*
X267208000Y-160311292D02*
X267208000Y-153289000D01*
X179042356Y-151219800D02*
X178218656Y-151219800D01*
X176016038Y-153422418D02*
X176016038Y-154216600D01*
%TO.N,/RESET_TRIG*%
X135890000Y-174625000D02*
X135914266Y-174649266D01*
X126437000Y-198120000D02*
X125222000Y-196905000D01*
X120650000Y-116840000D02*
X119380000Y-118110000D01*
X135890000Y-157480000D02*
X135890000Y-174625000D01*
X125222000Y-196905000D02*
X125222000Y-174752000D01*
X135890000Y-157480000D02*
X135890000Y-152019000D01*
X119380000Y-118110000D02*
X119380000Y-147193000D01*
%TO.N,/~{OE}*%
X219075000Y-174244010D02*
X219074990Y-174244000D01*
X268478000Y-196977000D02*
X268478000Y-201295000D01*
X219075000Y-180721000D02*
X219075000Y-179050000D01*
X269875000Y-195580000D02*
X268478000Y-196977000D01*
X268478000Y-201295000D02*
X268351000Y-201422000D01*
X217805000Y-181991000D02*
X219075000Y-180721000D01*
X219075000Y-199390000D02*
X217805000Y-198120000D01*
X219075000Y-179050000D02*
X219075000Y-174244010D01*
X217805000Y-198120000D02*
X217805000Y-181991000D01*
%TO.N,/EXT_A14*%
X234315000Y-192278000D02*
X234315000Y-184150000D01*
X234315000Y-182118000D02*
X235585000Y-180848000D01*
X234315000Y-184150000D02*
X234315000Y-182118000D01*
X235585000Y-165080000D02*
X234315000Y-163810000D01*
X235585000Y-180848000D02*
X235585000Y-165080000D01*
%TO.N,/EXT_A17*%
X264795000Y-199878331D02*
X263949331Y-200724000D01*
X235792171Y-201502171D02*
X235792171Y-201739000D01*
X264795000Y-198120000D02*
X264795000Y-199878331D01*
X234315000Y-200025000D02*
X235792171Y-201502171D01*
%TO.N,/EXT_A16*%
X236855000Y-192850000D02*
X236347000Y-193358000D01*
X236855000Y-184150000D02*
X236855000Y-192850000D01*
%TO.N,/EXT_A15*%
X237810495Y-201361495D02*
X238010408Y-201361495D01*
X262255000Y-198120000D02*
X262255000Y-200415053D01*
X236855000Y-200406000D02*
X237810495Y-201361495D01*
X262255000Y-200415053D02*
X261947053Y-200723000D01*
%TO.N,/~{CS_RAM}*%
X269875000Y-198120000D02*
X269875000Y-202819000D01*
%TO.N,Net-(U6-INTR)*%
X130942000Y-160279000D02*
X129540000Y-158877000D01*
X129540000Y-148590000D02*
X129032000Y-148082000D01*
X129540000Y-158877000D02*
X129540000Y-148590000D01*
X156210000Y-127000000D02*
X156210000Y-130873500D01*
X129032000Y-148082000D02*
X129032000Y-128778000D01*
X130942000Y-163815000D02*
X130942000Y-160279000D01*
%TO.N,/BUF_D0*%
X175514000Y-106426000D02*
X177800000Y-108712000D01*
X188341000Y-133991738D02*
X188341000Y-149706800D01*
X189230000Y-131879445D02*
X188371091Y-132738354D01*
X169354500Y-113855500D02*
X169354500Y-106489500D01*
X166370000Y-116840000D02*
X169354500Y-113855500D01*
X147475772Y-104047630D02*
X147475772Y-106687443D01*
X190500000Y-163830000D02*
X190500000Y-153035800D01*
X145384778Y-101956636D02*
X147475772Y-104047630D01*
X177800000Y-111760000D02*
X189230000Y-123190000D01*
X188371091Y-132738354D02*
X188379000Y-132746262D01*
X188379000Y-133953738D02*
X188341000Y-133991738D01*
X169354500Y-106489500D02*
X169418000Y-106426000D01*
X169418000Y-106426000D02*
X175514000Y-106426000D01*
X139700000Y-91440000D02*
X145384778Y-97124778D01*
X188379000Y-132746262D02*
X188379000Y-133953738D01*
X145384778Y-97124778D02*
X145384778Y-101956636D01*
X188341000Y-149706800D02*
X191085000Y-152450800D01*
X190500000Y-153035800D02*
X191085000Y-152450800D01*
X189230000Y-123190000D02*
X189230000Y-131879445D01*
X177800000Y-108712000D02*
X177800000Y-111760000D01*
%TO.N,/BUF_D1*%
X144877272Y-102797051D02*
X146616895Y-104536674D01*
X146616895Y-104536674D02*
X146616895Y-107373895D01*
X187960000Y-153795800D02*
X189305000Y-152450800D01*
X139700000Y-93980000D02*
X144877272Y-99157272D01*
X171450000Y-119126000D02*
X171450000Y-115970000D01*
X165455600Y-151180800D02*
X165455600Y-127101600D01*
X175133000Y-107696000D02*
X175260000Y-107823000D01*
X146616895Y-107373895D02*
X146939000Y-107696000D01*
X187960000Y-157073600D02*
X188163200Y-157073600D01*
X157353000Y-114046000D02*
X157353000Y-107493798D01*
X175260000Y-107823000D02*
X175260000Y-111760000D01*
X157353000Y-107493798D02*
X156972000Y-107112798D01*
X167487600Y-125069600D02*
X167487600Y-121437400D01*
X165455600Y-127101600D02*
X167487600Y-125069600D01*
X168171632Y-120753368D02*
X169822632Y-120753368D01*
X157734000Y-114427000D02*
X157353000Y-114046000D01*
X144877272Y-99157272D02*
X144877272Y-102797051D01*
X167487600Y-121437400D02*
X168171632Y-120753368D01*
X169822632Y-120753368D02*
X171450000Y-119126000D01*
X171450000Y-115970000D02*
X175260000Y-112160000D01*
X187960000Y-157073600D02*
X187960000Y-153795800D01*
X187960000Y-163830000D02*
X187960000Y-157073600D01*
%TO.N,/BUF_D2*%
X166370000Y-114300000D02*
X168021000Y-112649000D01*
X168021000Y-105411000D02*
X167386000Y-104776000D01*
X144369771Y-103456277D02*
X145791895Y-104878401D01*
X174858501Y-147467499D02*
X174752000Y-147574000D01*
X168021000Y-112649000D02*
X168021000Y-105411000D01*
X174858501Y-129138501D02*
X174858501Y-147467499D01*
X144369771Y-101189771D02*
X144369771Y-103456277D01*
X139700000Y-96520000D02*
X144369771Y-101189771D01*
X172720000Y-127000000D02*
X174858501Y-129138501D01*
X185420000Y-163830000D02*
X185420000Y-154555800D01*
X185420000Y-154555800D02*
X187525000Y-152450800D01*
%TO.N,/BUF_D3*%
X175260000Y-128454000D02*
X175683501Y-128877501D01*
X182880000Y-155315800D02*
X185745000Y-152450800D01*
X175683501Y-128877501D02*
X175683501Y-142965476D01*
X163830000Y-114300000D02*
X165174171Y-112955829D01*
X182880000Y-163830000D02*
X182880000Y-155315800D01*
X139700000Y-99060000D02*
X143154188Y-102514188D01*
X175260000Y-127000000D02*
X175260000Y-128454000D01*
X165174171Y-112955829D02*
X165174171Y-105601000D01*
X143154188Y-102514188D02*
X143154188Y-104998072D01*
%TO.N,/BUF_D4*%
X180340000Y-163830000D02*
X180340000Y-156075800D01*
X176988198Y-131151574D02*
X176607551Y-131532221D01*
X176607551Y-143813449D02*
X175958500Y-144462500D01*
X176607551Y-131532221D02*
X176607551Y-143813449D01*
X177800000Y-127000000D02*
X176988198Y-127811802D01*
X176988198Y-127811802D02*
X176988198Y-131151574D01*
X166116000Y-102870000D02*
X166370000Y-103124000D01*
X166370000Y-103124000D02*
X166370000Y-111760000D01*
X180340000Y-156075800D02*
X183965000Y-152450800D01*
%TO.N,/BUF_D5*%
X177495699Y-131666587D02*
X177115052Y-132047234D01*
X177115052Y-132047234D02*
X177115052Y-147549452D01*
X177495699Y-129844301D02*
X177495699Y-131666587D01*
X177800000Y-163830000D02*
X177800000Y-156835800D01*
X180340000Y-127000000D02*
X177495699Y-129844301D01*
X177115052Y-147549452D02*
X177342800Y-147777200D01*
X177800000Y-156835800D02*
X182185000Y-152450800D01*
X163830000Y-109220000D02*
X163830000Y-104458000D01*
%TO.N,/BUF_D6*%
X179019200Y-124002800D02*
X179882800Y-124002800D01*
X177633727Y-132703473D02*
X177633727Y-146901400D01*
X179882800Y-124002800D02*
X182880000Y-127000000D01*
X175260000Y-157595800D02*
X180405000Y-152450800D01*
X180537000Y-128581000D02*
X178003200Y-131114800D01*
X181299000Y-128581000D02*
X180537000Y-128581000D01*
X178003200Y-131114800D02*
X178003200Y-132334000D01*
X175260000Y-163830000D02*
X175260000Y-157595800D01*
X177633727Y-146901400D02*
X178167800Y-147435473D01*
X178003200Y-132334000D02*
X177633727Y-132703473D01*
X182880000Y-127000000D02*
X181299000Y-128581000D01*
X178167800Y-147435473D02*
X178167800Y-149232137D01*
X178167800Y-149232137D02*
X178020139Y-149379798D01*
%TO.N,/BUF_D7*%
X146964400Y-109778800D02*
X148945600Y-107797600D01*
X172720000Y-163830000D02*
X172720000Y-155283027D01*
X178625000Y-131855617D02*
X179171162Y-131309455D01*
X177798228Y-150204798D02*
X178621929Y-150204798D01*
X185420000Y-131114800D02*
X185420000Y-127000000D01*
X178879000Y-149947727D02*
X178879000Y-133604000D01*
X178621929Y-150204798D02*
X178879000Y-149947727D01*
X185166000Y-131368800D02*
X185420000Y-131114800D01*
X172720000Y-155283027D02*
X177798228Y-150204798D01*
X178625000Y-133350000D02*
X178625000Y-131855617D01*
X146964400Y-111048800D02*
X146964400Y-109778800D01*
%TO.N,Net-(U6-RCLK)*%
X152527000Y-110617000D02*
X152527000Y-112550170D01*
X151130000Y-109220000D02*
X152527000Y-110617000D01*
X152527000Y-112550170D02*
X152639916Y-112663086D01*
%TO.N,Net-(U6-SIN)*%
X148713400Y-97409000D02*
X150241000Y-97409000D01*
X150241000Y-97409000D02*
X150982107Y-98150107D01*
X150976400Y-98155814D02*
X150976400Y-100025673D01*
X158750000Y-107470071D02*
X158750000Y-109220000D01*
X147077400Y-99045000D02*
X148713400Y-97409000D01*
X157567727Y-106287798D02*
X158750000Y-107470071D01*
X150982107Y-98150107D02*
X150976400Y-98155814D01*
X157238525Y-106287798D02*
X157567727Y-106287798D01*
X150976400Y-100025673D02*
X157238525Y-106287798D01*
%TO.N,Net-(U6-SOUT)*%
X149617400Y-99045000D02*
X149617400Y-102627400D01*
X149617400Y-102627400D02*
X156210000Y-109220000D01*
%TO.N,/~{CS_UART}*%
X258445000Y-167005000D02*
X256667000Y-165227000D01*
X157480000Y-115570000D02*
X157480000Y-127274605D01*
X153670000Y-111760000D02*
X157480000Y-115570000D01*
X259715000Y-170180000D02*
X258445000Y-168910000D01*
X256667000Y-165227000D02*
X256667000Y-163893500D01*
X258445000Y-168910000D02*
X258445000Y-167005000D01*
X161163000Y-130957605D02*
X161163000Y-161734000D01*
X157480000Y-127274605D02*
X161163000Y-130957605D01*
%TO.N,Net-(U6-XIN)*%
X157480000Y-142875000D02*
X154940000Y-140335000D01*
X154940000Y-140335000D02*
X154940000Y-116332000D01*
X154940000Y-116332000D02*
X152908000Y-114300000D01*
%TO.N,/~{BUF_WE}*%
X150806661Y-128599701D02*
X152360402Y-130153442D01*
X152614402Y-144143830D02*
X152614402Y-146832622D01*
X152360402Y-130153442D02*
X152360402Y-143889830D01*
X142644723Y-105917996D02*
X142494000Y-105917996D01*
X167767000Y-116967000D02*
X167766992Y-116967000D01*
X156845000Y-151063220D02*
X156845000Y-163815000D01*
X152360402Y-143889830D02*
X152614402Y-144143830D01*
X170053000Y-114681000D02*
X167767000Y-116967000D01*
X150467382Y-128599701D02*
X150806661Y-128599701D01*
X146939499Y-115950501D02*
X146939499Y-125071818D01*
X170053000Y-109220000D02*
X170053000Y-114681000D01*
X152614402Y-146832622D02*
X156845000Y-151063220D01*
X148590000Y-114300000D02*
X146939499Y-115950501D01*
X146939499Y-125071818D02*
X150467382Y-128599701D01*
X144907000Y-114300000D02*
X144907000Y-108180273D01*
X144907000Y-108180273D02*
X142644723Y-105917996D01*
%TO.N,/~{BUF_OE}*%
X152994903Y-146675013D02*
X157226499Y-150906609D01*
X167470443Y-118406557D02*
X167411150Y-118406557D01*
X143891499Y-108331499D02*
X143383000Y-107823000D01*
X151016874Y-128092200D02*
X152867903Y-129943229D01*
X148590000Y-119380000D02*
X147447000Y-120523000D01*
X171196000Y-110109000D02*
X171196000Y-114681000D01*
X171196000Y-114681000D02*
X167470443Y-118406557D01*
X150677595Y-128092200D02*
X151016874Y-128092200D01*
X152867903Y-129943229D02*
X152867903Y-143679617D01*
X152867903Y-143679617D02*
X152994903Y-143806617D01*
X144653000Y-119253000D02*
X143891499Y-118491499D01*
X147447000Y-120523000D02*
X147447000Y-124861605D01*
X152994903Y-143806617D02*
X152994903Y-146675013D01*
X157226499Y-150906609D02*
X157226499Y-161656499D01*
X147447000Y-124861605D02*
X150677595Y-128092200D01*
X143891499Y-118491499D02*
X143891499Y-108331499D01*
X157226499Y-161656499D02*
X159385000Y-163815000D01*
%TO.N,/BUF_A2*%
X145846800Y-106707073D02*
X145846800Y-125145800D01*
X138469000Y-97829000D02*
X140209897Y-97829000D01*
X148901155Y-128200155D02*
X148904456Y-128200155D01*
X145846800Y-125145800D02*
X148901155Y-128200155D01*
X137160000Y-96520000D02*
X138469000Y-97829000D01*
X140209897Y-97829000D02*
X143862270Y-101481373D01*
X143862270Y-101481373D02*
X143862270Y-104722543D01*
X151130000Y-127000000D02*
X153375404Y-129245404D01*
X143862270Y-104722543D02*
X145846800Y-106707073D01*
X153375404Y-146517404D02*
X158369000Y-151511000D01*
X153375404Y-129245404D02*
X153375404Y-146517404D01*
X158369000Y-151511000D02*
X158369000Y-161734000D01*
%TO.N,/BUF_A1*%
X149987000Y-147701000D02*
X149532796Y-147246796D01*
X146685000Y-163815000D02*
X149987000Y-160513000D01*
X149987000Y-105841144D02*
X149987000Y-123317000D01*
X149987000Y-123317000D02*
X151130000Y-124460000D01*
X149532796Y-134800796D02*
X148472614Y-133740614D01*
X171462184Y-128021669D02*
X171462184Y-125171200D01*
X145669000Y-95250000D02*
X145896400Y-95477400D01*
X145896400Y-101750544D02*
X149987000Y-105841144D01*
X148472614Y-133740614D02*
X148472614Y-130546386D01*
X145896400Y-95477400D02*
X145896400Y-101750544D01*
X172415200Y-128974685D02*
X171462184Y-128021669D01*
X172415200Y-131826000D02*
X172415200Y-128974685D01*
X149532796Y-147246796D02*
X149532796Y-134800796D01*
X149987000Y-160513000D02*
X149987000Y-147701000D01*
%TO.N,/BUF_A0*%
X183965000Y-130106631D02*
X184035831Y-130035800D01*
X149913796Y-146484796D02*
X149913796Y-130648533D01*
X149913796Y-130648533D02*
X149984498Y-130577831D01*
X150495000Y-162145000D02*
X150495000Y-147066000D01*
X194310000Y-118872000D02*
X194310000Y-128905000D01*
X193040000Y-112007900D02*
X193040000Y-117602000D01*
X193040000Y-117602000D02*
X194310000Y-118872000D01*
X150495000Y-147066000D02*
X149913796Y-146484796D01*
X149225000Y-163415000D02*
X150495000Y-162145000D01*
X183965000Y-133350000D02*
X183965000Y-130106631D01*
X194310000Y-128905000D02*
X193040000Y-130175000D01*
%TO.N,Net-(U6-~{RTS})*%
X159893000Y-106780600D02*
X159893000Y-123317000D01*
X152157400Y-99045000D02*
X159893000Y-106780600D01*
X159893000Y-123317000D02*
X158750000Y-124460000D01*
%TO.N,Net-(BT1-+)*%
X145351500Y-128206500D02*
X140970000Y-123825000D01*
X145351500Y-135699500D02*
X145351500Y-128206500D01*
%TO.N,Net-(U6-~{CTS})*%
X162433000Y-106780600D02*
X162433000Y-122067605D01*
X163555395Y-123190000D02*
X165100000Y-123190000D01*
X165100000Y-123190000D02*
X166370000Y-124460000D01*
X162433000Y-122067605D02*
X163555395Y-123190000D01*
X154697400Y-99045000D02*
X162433000Y-106780600D01*
%TO.N,/SPI_MISO*%
X124460000Y-146939000D02*
X124460000Y-150749000D01*
X137160000Y-174371000D02*
X137160000Y-153035000D01*
X146685000Y-196926200D02*
X147828000Y-195783200D01*
X123190000Y-152019000D02*
X124460000Y-150749000D01*
X143692595Y-183317200D02*
X142896701Y-182521306D01*
X123190000Y-145669000D02*
X124460000Y-146939000D01*
X147828000Y-195783200D02*
X147828000Y-186903395D01*
X142896701Y-182521306D02*
X142896701Y-180107701D01*
X123190000Y-140970000D02*
X123190000Y-145669000D01*
X123190000Y-157480000D02*
X123190000Y-152019000D01*
X142896701Y-180107701D02*
X137160000Y-174371000D01*
X144241805Y-183317200D02*
X143692595Y-183317200D01*
X147828000Y-186903395D02*
X144241805Y-183317200D01*
%TO.N,/~{SPI_SS_PS2}*%
X114648000Y-172814000D02*
X115386496Y-173552496D01*
X118110000Y-157480000D02*
X114648000Y-160942000D01*
X115386496Y-173552496D02*
X115386496Y-189166500D01*
X114648000Y-160942000D02*
X114648000Y-172814000D01*
%TO.N,/SPI_CLK*%
X142895000Y-183515000D02*
X141350395Y-183515000D01*
X127063000Y-156147000D02*
X127063000Y-142303000D01*
X141350395Y-183515000D02*
X135001000Y-177165605D01*
X135001000Y-177165605D02*
X135001000Y-170688000D01*
X144145000Y-194925000D02*
X145415000Y-193655000D01*
X125730000Y-157480000D02*
X127063000Y-156147000D01*
X145415000Y-186035000D02*
X144145000Y-184765000D01*
X145415000Y-193655000D02*
X145415000Y-186035000D01*
X144145000Y-184765000D02*
X142895000Y-183515000D01*
X129583000Y-161333000D02*
X125730000Y-157480000D01*
X135001000Y-170688000D02*
X129583000Y-165270000D01*
X129583000Y-165270000D02*
X129583000Y-161333000D01*
X127063000Y-142303000D02*
X123190000Y-138430000D01*
%TO.N,/~{SPI_SS_SDCARD}*%
X99060000Y-142494000D02*
X99060000Y-134874000D01*
X113284000Y-143002000D02*
X113284000Y-186690002D01*
X99060000Y-134874000D02*
X100584000Y-133350000D01*
X97790000Y-143764000D02*
X99060000Y-142494000D01*
X100584000Y-133350000D02*
X102489000Y-133350000D01*
X102489000Y-133350000D02*
X105410000Y-130429000D01*
%TO.N,/~{SPI_SS_RTC}*%
X105161000Y-171435000D02*
X105161000Y-188468000D01*
%TO.N,/SPI_MOSI*%
X123698000Y-160528000D02*
X120650000Y-157480000D01*
X121920000Y-139700000D02*
X120650000Y-138430000D01*
X125476000Y-160528000D02*
X123698000Y-160528000D01*
X129667000Y-168808234D02*
X127127000Y-166268234D01*
X138176000Y-183261000D02*
X129667000Y-174752000D01*
X120650000Y-157480000D02*
X121920000Y-156210000D01*
X144145000Y-197465000D02*
X141712000Y-197465000D01*
X141712000Y-197465000D02*
X138176000Y-193929000D01*
X121920000Y-156210000D02*
X121920000Y-139700000D01*
X127127000Y-166268234D02*
X127127000Y-162179000D01*
X127127000Y-162179000D02*
X125476000Y-160528000D01*
X129667000Y-174752000D02*
X129667000Y-168808234D01*
X138176000Y-193929000D02*
X138176000Y-183261000D01*
%TO.N,/~{CS_VIA}*%
X257086131Y-194321000D02*
X257460605Y-194321000D01*
X258267200Y-195127595D02*
X258267200Y-203581000D01*
X254635000Y-167640000D02*
X255916000Y-168921000D01*
X255916000Y-193150869D02*
X257086131Y-194321000D01*
X257460605Y-194321000D02*
X258267200Y-195127595D01*
X255916000Y-168921000D02*
X255916000Y-193150869D01*
%TO.N,/BUF_R~{W}*%
X150498844Y-129107202D02*
X148644776Y-129107202D01*
X143383998Y-123846424D02*
X143383998Y-112848181D01*
X152693000Y-147449330D02*
X152233901Y-146990231D01*
X152233901Y-146990231D02*
X152233901Y-144577231D01*
X141605000Y-111069183D02*
X141605000Y-104521000D01*
X141887866Y-104238134D02*
X141887866Y-102822584D01*
X152233901Y-144577231D02*
X151852901Y-144196231D01*
X143383998Y-112848181D02*
X141605000Y-111069183D01*
X154305000Y-163815000D02*
X152693000Y-162203000D01*
X148644776Y-129107202D02*
X143383998Y-123846424D01*
X141605000Y-104521000D02*
X141887866Y-104238134D01*
X151852901Y-144196231D02*
X151852901Y-130461259D01*
X151852901Y-130461259D02*
X150498844Y-129107202D01*
X152693000Y-162203000D02*
X152693000Y-147449330D01*
%TO.N,/BUF_PHI2*%
X150162129Y-129488202D02*
X148486960Y-129488202D01*
X152209500Y-147504646D02*
X151852901Y-147148046D01*
X151852901Y-147148046D02*
X151852901Y-144817758D01*
X151345400Y-130671473D02*
X150162129Y-129488202D01*
X142367000Y-123356428D02*
X142367000Y-116205000D01*
X152209500Y-163370500D02*
X152209500Y-147504646D01*
X151345400Y-144310257D02*
X151345400Y-130671473D01*
X142494000Y-123495242D02*
X142494000Y-123483428D01*
X148486960Y-129488202D02*
X142494000Y-123495242D01*
X151852901Y-144817758D02*
X151345400Y-144310257D01*
X142494000Y-123483428D02*
X142367000Y-123356428D01*
%TO.N,/BUF_A3*%
X144653000Y-160767000D02*
X144653000Y-130556000D01*
X139700000Y-125603000D02*
X139700000Y-122555000D01*
X141605000Y-163815000D02*
X144653000Y-160767000D01*
X139700000Y-122555000D02*
X140970499Y-121284501D01*
X140970499Y-101048213D02*
X140291286Y-100369000D01*
X140291286Y-100369000D02*
X138469000Y-100369000D01*
X144653000Y-130556000D02*
X139700000Y-125603000D01*
X138469000Y-100369000D02*
X137160000Y-99060000D01*
X140970499Y-121284501D02*
X140970499Y-101048213D01*
%TO.N,Net-(U18-XTAL1)*%
X232025000Y-156135000D02*
X230680000Y-157480000D01*
X232025000Y-152450800D02*
X232025000Y-156135000D01*
%TO.N,Net-(U18-XTAL2)*%
X235560000Y-157480000D02*
X233805000Y-155725000D01*
X233805000Y-155725000D02*
X233805000Y-152450800D01*
%TO.N,Net-(JP2-B)*%
X237363000Y-154051000D02*
X238887000Y-154051000D01*
X235598199Y-152286199D02*
X237363000Y-154051000D01*
X196067000Y-140716000D02*
X228854000Y-140716000D01*
X189305000Y-133954000D02*
X196067000Y-140716000D01*
X235598199Y-140716001D02*
X235598199Y-152286199D01*
%TO.N,/~{CS_OPL}*%
X237236000Y-130048000D02*
X237236000Y-140716000D01*
X235966000Y-120650000D02*
X235966000Y-128778000D01*
X242951000Y-155829000D02*
X242951000Y-165671500D01*
X235966000Y-128778000D02*
X237236000Y-130048000D01*
X239611000Y-152489000D02*
X242951000Y-155829000D01*
X239611000Y-143091000D02*
X239611000Y-152489000D01*
X236093000Y-120523000D02*
X235966000Y-120650000D01*
X237236000Y-140716000D02*
X239611000Y-143091000D01*
X185420000Y-111760000D02*
X185420000Y-116789200D01*
%TO.N,/Video_Audio/Audio_analog/LOAD*%
X173244499Y-98149313D02*
X173244499Y-92820501D01*
X173266000Y-99949186D02*
X173266000Y-98170814D01*
X190500000Y-123647200D02*
X181610000Y-114757200D01*
X173266000Y-98170814D02*
X173244499Y-98149313D01*
X181610000Y-108293186D02*
X173266000Y-99949186D01*
X181610000Y-114757200D02*
X181610000Y-108293186D01*
X173244499Y-92820501D02*
X174625000Y-91440000D01*
X190500000Y-127000000D02*
X190500000Y-123647200D01*
%TO.N,/Video_Audio/Audio_analog/SD*%
X178346000Y-90550814D02*
X178346000Y-92399000D01*
X178346000Y-92399000D02*
X175895000Y-94850000D01*
X193040000Y-118910186D02*
X193040000Y-127000000D01*
X175895000Y-94850000D02*
X175895000Y-99860186D01*
X177222000Y-100641000D02*
X186779000Y-110198000D01*
X177584186Y-89789000D02*
X178346000Y-90550814D01*
X172085000Y-91440000D02*
X173736000Y-89789000D01*
X186779000Y-112649186D02*
X193040000Y-118910186D01*
X186779000Y-110198000D02*
X186779000Y-112649186D01*
X175895000Y-99860186D02*
X176675814Y-100641000D01*
X176675814Y-100641000D02*
X177222000Y-100641000D01*
X173736000Y-89789000D02*
X177584186Y-89789000D01*
%TO.N,/Video_Audio/Audio_analog/fl*%
X196850002Y-113284002D02*
X196850002Y-110236001D01*
X198120000Y-114554000D02*
X196850002Y-113284002D01*
X198120000Y-127000000D02*
X198120000Y-114554000D01*
%TO.N,/Video_Audio/CSYNC*%
X226314000Y-126492000D02*
X226314000Y-118999000D01*
X227965000Y-117348000D02*
X227965000Y-116205000D01*
X224917000Y-133338000D02*
X224917000Y-127889000D01*
X226314000Y-118999000D02*
X227965000Y-117348000D01*
X224917000Y-127889000D02*
X226314000Y-126492000D01*
%TO.N,/Video_Audio/RGB_G*%
X197436698Y-132001302D02*
X201627698Y-132001302D01*
X196425000Y-133013000D02*
X197436698Y-132001302D01*
X212217000Y-121412000D02*
X212217000Y-114554000D01*
X201627698Y-132001302D02*
X212217000Y-121412000D01*
%TO.N,/Video_Audio/RGB_R*%
X196088000Y-131445000D02*
X200274700Y-131445000D01*
X209804000Y-121915700D02*
X209804000Y-114554000D01*
X194645000Y-132888000D02*
X196088000Y-131445000D01*
X200274700Y-131445000D02*
X209804000Y-121915700D01*
%TO.N,/Video_Audio/RGB_B*%
X199644000Y-130810000D02*
X207391000Y-123063000D01*
X192865000Y-132739000D02*
X194794000Y-130810000D01*
X194794000Y-130810000D02*
X199644000Y-130810000D01*
X207391000Y-123063000D02*
X207391000Y-114554000D01*
%TO.N,/Kbd_controller/PS2_KBD_DATA*%
X120650000Y-149860000D02*
X116713000Y-145923000D01*
X117221000Y-77089000D02*
X123317000Y-70993000D01*
X124683520Y-70993000D02*
X125953520Y-72263000D01*
X123317000Y-70993000D02*
X124683520Y-70993000D01*
X117221000Y-126710671D02*
X117221000Y-77089000D01*
X116713000Y-145923000D02*
X116713000Y-127218671D01*
X116713000Y-127218671D02*
X117221000Y-126710671D01*
%TO.N,/Kbd_controller/PS2_MOU_DATA*%
X125469197Y-70358000D02*
X127374197Y-72263000D01*
X116332000Y-148082000D02*
X116332000Y-127060855D01*
X116840000Y-76454000D02*
X122936000Y-70358000D01*
X116332000Y-127060855D02*
X116840000Y-126552855D01*
X122936000Y-70358000D02*
X125469197Y-70358000D01*
X116840000Y-126552855D02*
X116840000Y-76454000D01*
X118110000Y-149860000D02*
X116332000Y-148082000D01*
X127374197Y-72263000D02*
X128554480Y-72263000D01*
%TO.N,Net-(RR1-R4)*%
X81534000Y-109220000D02*
X82677000Y-110363000D01*
X85090000Y-151930186D02*
X85090000Y-157480000D01*
X82677000Y-110363000D02*
X82677000Y-149517186D01*
X82677000Y-149517186D02*
X85090000Y-151930186D01*
%TO.N,/Video_Audio/{slash}CAS_X*%
X224905000Y-149872000D02*
X235712000Y-139065000D01*
X224905000Y-152450800D02*
X224905000Y-149872000D01*
X235712000Y-139065000D02*
X235712000Y-130048000D01*
%TO.N,/Video_Audio/{slash}CAS1*%
X255270000Y-152400000D02*
X255143000Y-152527000D01*
X255270000Y-141439814D02*
X255270000Y-152400000D01*
X256540000Y-140169814D02*
X255270000Y-141439814D01*
X256540000Y-138430000D02*
X256540000Y-140169814D01*
%TO.N,/Video_Audio/{slash}CAS0*%
X228465000Y-147862850D02*
X228562850Y-147765000D01*
X228465000Y-152450800D02*
X228465000Y-147862850D01*
%TO.N,/Video_Audio/{slash}RAS*%
X279946000Y-128105000D02*
X279946000Y-125387000D01*
X278755000Y-136369814D02*
X278755000Y-130820000D01*
X252730000Y-127889000D02*
X252730000Y-120035000D01*
X252730000Y-120035000D02*
X251450000Y-118755000D01*
X279936000Y-140669000D02*
X279936000Y-137550814D01*
X252730000Y-147447000D02*
X252730000Y-151448499D01*
X251450000Y-146167000D02*
X252730000Y-147447000D01*
X252730000Y-136652000D02*
X251460000Y-135382000D01*
X251450000Y-142497900D02*
X251450000Y-146167000D01*
X251460000Y-129159000D02*
X252730000Y-127889000D01*
X251450000Y-142250000D02*
X251450000Y-140599000D01*
X278755000Y-129296000D02*
X279946000Y-128105000D01*
X252730000Y-139319000D02*
X252730000Y-136652000D01*
X278765000Y-141840000D02*
X279936000Y-140669000D01*
X278765000Y-124206000D02*
X278765000Y-118745000D01*
X279936000Y-137550814D02*
X278755000Y-136369814D01*
X251460000Y-135382000D02*
X251460000Y-130810000D01*
X279946000Y-125387000D02*
X278765000Y-124206000D01*
X278755000Y-130820000D02*
X278755000Y-129296000D01*
X251450000Y-140599000D02*
X252730000Y-139319000D01*
X251460000Y-130810000D02*
X251460000Y-129159000D01*
%TO.N,Net-(U8-C1+)*%
X164857400Y-91425000D02*
X164857400Y-88856600D01*
X164857400Y-88856600D02*
X167608000Y-86106000D01*
%TO.N,Net-(U8-C1-)*%
X160289000Y-91425000D02*
X165608000Y-86106000D01*
%TO.N,Net-(U8-C2+)*%
X157237400Y-86813200D02*
X157944600Y-86106000D01*
X157237400Y-91425000D02*
X157237400Y-86813200D01*
%TO.N,Net-(U8-C2-)*%
X154697400Y-91425000D02*
X154697400Y-87353200D01*
X154697400Y-87353200D02*
X155944600Y-86106000D01*
%TO.N,Net-(U8-VS-)*%
X152157400Y-91425000D02*
X152157400Y-87101400D01*
X152157400Y-87101400D02*
X151162000Y-86106000D01*
%TO.N,Net-(U8-VS+)*%
X160651400Y-93091000D02*
X159131000Y-93091000D01*
X158496000Y-92456000D02*
X158496000Y-88424000D01*
X161417000Y-80137000D02*
X163957000Y-77597000D01*
X162317400Y-91425000D02*
X160651400Y-93091000D01*
X161417000Y-85503000D02*
X161417000Y-80137000D01*
X158496000Y-88424000D02*
X160814000Y-86106000D01*
X159131000Y-93091000D02*
X158496000Y-92456000D01*
X160814000Y-86106000D02*
X161417000Y-85503000D01*
%TO.N,Net-(U8-R2IN)*%
X155881813Y-71253331D02*
X155852312Y-71282832D01*
X160730000Y-71253331D02*
X155881813Y-71253331D01*
X155852312Y-71282832D02*
X154119688Y-71282832D01*
X161911000Y-72434331D02*
X160730000Y-71253331D01*
X154119688Y-71282832D02*
X154090187Y-71253331D01*
X154090187Y-71253331D02*
X153111813Y-71253331D01*
X147077400Y-77287744D02*
X147077400Y-91425000D01*
X153111813Y-71253331D02*
X147077400Y-77287744D01*
%TO.N,Net-(U8-T2OUT)*%
X153416000Y-82296000D02*
X152146000Y-82296000D01*
X149617400Y-84824600D02*
X149617400Y-91425000D01*
X159141000Y-76571000D02*
X153416000Y-82296000D01*
X152146000Y-82296000D02*
X149617400Y-84824600D01*
X159141000Y-72434331D02*
X159141000Y-76571000D01*
%TO.N,Net-(J2-Pad4)*%
X156371000Y-72434331D02*
X156371000Y-77563000D01*
%TO.N,Net-(U8-T1OUT)*%
X159777400Y-99045000D02*
X168435000Y-90387400D01*
X168589000Y-86933000D02*
X168589000Y-73980331D01*
X168435000Y-90387400D02*
X168435000Y-87087000D01*
X168435000Y-87087000D02*
X168589000Y-86933000D01*
X165601669Y-70993000D02*
X161924669Y-70993000D01*
X161924669Y-70993000D02*
X160526000Y-69594331D01*
X168589000Y-73980331D02*
X165601669Y-70993000D01*
%TO.N,Net-(U8-R1IN)*%
X145896400Y-92314186D02*
X145896400Y-77751029D01*
X146588214Y-93006000D02*
X145896400Y-92314186D01*
X151598400Y-93006000D02*
X146588214Y-93006000D01*
X155642098Y-70775331D02*
X156823098Y-69594331D01*
X157237400Y-98645000D02*
X151598400Y-93006000D01*
X152901599Y-70745830D02*
X154300401Y-70745830D01*
X156823098Y-69594331D02*
X157756000Y-69594331D01*
X154300401Y-70745830D02*
X154329902Y-70775331D01*
X145896400Y-77751029D02*
X152901599Y-70745830D01*
X154329902Y-70775331D02*
X155642098Y-70775331D01*
%TO.N,/PA0*%
X85852000Y-178943000D02*
X85852000Y-171261000D01*
X88265000Y-171196000D02*
X88265000Y-160782000D01*
X88265000Y-160782000D02*
X88900000Y-160147000D01*
X88900000Y-160147000D02*
X88900000Y-151530000D01*
X81915000Y-182880000D02*
X85852000Y-178943000D01*
X87630000Y-150260000D02*
X88900000Y-151530000D01*
%TO.N,/PA1*%
X77470998Y-156824294D02*
X80010000Y-154285292D01*
X81915000Y-187960000D02*
X77978000Y-184023000D01*
X94440054Y-154130054D02*
X94440054Y-154114000D01*
X77470998Y-171577998D02*
X77470998Y-156824294D01*
X92710000Y-149860000D02*
X92710000Y-152400000D01*
X92710000Y-152400000D02*
X94424000Y-154114000D01*
X97790000Y-157480000D02*
X94440054Y-154130054D01*
X77978000Y-184023000D02*
X77978000Y-172085000D01*
X77978000Y-172085000D02*
X77470998Y-171577998D01*
X94424000Y-154114000D02*
X94440054Y-154114000D01*
%TO.N,/PA2*%
X84836000Y-160782000D02*
X85471000Y-160147000D01*
X84836000Y-168910000D02*
X84836000Y-160782000D01*
X97790000Y-149860000D02*
X97790000Y-151314000D01*
X94361000Y-159131000D02*
X92710000Y-157480000D01*
X97790000Y-151314000D02*
X99060000Y-152584000D01*
X84836000Y-174879000D02*
X81915000Y-177800000D01*
X84836000Y-168910000D02*
X84836000Y-174879000D01*
X99060000Y-152584000D02*
X99060000Y-158496000D01*
X99060000Y-158496000D02*
X98425000Y-159131000D01*
X98425000Y-159131000D02*
X94361000Y-159131000D01*
%TO.N,/PA3*%
X78813765Y-182318765D02*
X78813765Y-169350685D01*
X77978499Y-168515419D02*
X77978499Y-158398309D01*
X78813765Y-169350685D02*
X78688470Y-169225390D01*
X77978499Y-158398309D02*
X78360000Y-158016808D01*
X78688470Y-169225390D02*
X77978499Y-168515419D01*
X87630000Y-162179000D02*
X87630000Y-157480000D01*
X81915000Y-185420000D02*
X78813765Y-182318765D01*
X87376000Y-162433000D02*
X87630000Y-162179000D01*
%TO.N,/PA4*%
X79185000Y-158940000D02*
X80835500Y-157289500D01*
X79566499Y-152674357D02*
X79566499Y-138557000D01*
X79743083Y-166301600D02*
X79743083Y-165658083D01*
X80835500Y-153943358D02*
X79566499Y-152674357D01*
X79185000Y-165100000D02*
X79185000Y-158940000D01*
X80226356Y-166784873D02*
X79743083Y-166301600D01*
X81915000Y-175260000D02*
X80226356Y-173571356D01*
X80226356Y-173571356D02*
X80226356Y-166784873D01*
X79743083Y-165658083D02*
X79185000Y-165100000D01*
X80835500Y-157289500D02*
X80835500Y-153943358D01*
%TO.N,/PA5*%
X81915000Y-180340000D02*
X79513586Y-177938586D01*
X79511627Y-167236871D02*
X79401356Y-167126600D01*
X79513586Y-168881804D02*
X79511627Y-168879845D01*
X79511627Y-168879845D02*
X79511627Y-167236871D01*
X79513586Y-177938586D02*
X79513586Y-168881804D01*
%TO.N,/PA6*%
X80733857Y-166574659D02*
X80326499Y-166167302D01*
X80733857Y-168998857D02*
X80733857Y-166574659D01*
X81915000Y-170180000D02*
X80733857Y-168998857D01*
X80326499Y-166167302D02*
X80326499Y-162687501D01*
X80326499Y-162687501D02*
X80454000Y-162560000D01*
%TO.N,/PA7*%
X81915000Y-172720000D02*
X83566000Y-171069000D01*
X83566000Y-171069000D02*
X83566000Y-163791000D01*
%TO.N,/CA2*%
X81915000Y-165100000D02*
X82615000Y-164400000D01*
X82615000Y-164400000D02*
X82615000Y-153100000D01*
X82615000Y-153100000D02*
X81280000Y-151765000D01*
%TO.N,/CA1*%
X80834000Y-165569051D02*
X80834000Y-163346727D01*
X80834000Y-163346727D02*
X81280000Y-162900727D01*
X81915000Y-166650051D02*
X80834000Y-165569051D01*
X81280000Y-162900727D02*
X81280000Y-153035000D01*
X81915000Y-167640000D02*
X81915000Y-166650051D01*
%TO.N,/~{SD_CARD_DETECT}*%
X104107000Y-169917000D02*
X110236000Y-163788000D01*
X108966000Y-100838000D02*
X106680000Y-100838000D01*
X115604001Y-107476001D02*
X108966000Y-100838000D01*
X110871000Y-143764000D02*
X115604001Y-139030998D01*
X110236000Y-163788000D02*
X110236000Y-158496000D01*
X110236000Y-158496000D02*
X110871000Y-157861000D01*
X115604001Y-139030998D02*
X115604001Y-107476001D01*
X104107000Y-174404000D02*
X104107000Y-169917000D01*
X110871000Y-157861000D02*
X110871000Y-143764000D01*
X101092000Y-177419000D02*
X104107000Y-174404000D01*
%TO.N,Net-(U10-Q)*%
X119507000Y-165090000D02*
X120782000Y-163815000D01*
X120660000Y-196479000D02*
X119380000Y-195199000D01*
X120650000Y-174926840D02*
X120650000Y-173609000D01*
X117856000Y-177720840D02*
X120650000Y-174926840D01*
X120650000Y-173609000D02*
X119507000Y-172466000D01*
X120660000Y-199898000D02*
X120660000Y-196479000D01*
X119507000Y-172466000D02*
X119507000Y-165090000D01*
X117856000Y-189611000D02*
X117856000Y-177720840D01*
X119380000Y-191135000D02*
X117856000Y-189611000D01*
X119380000Y-195199000D02*
X119380000Y-191135000D01*
%TO.N,/~{CS_SLOT1}*%
X158699200Y-131699000D02*
X157759400Y-131699000D01*
X120650000Y-109220000D02*
X122046996Y-110616996D01*
X157759400Y-131699000D02*
X157734000Y-131673600D01*
X255727200Y-167726412D02*
X255727200Y-162509200D01*
X159461200Y-132461000D02*
X158699200Y-131699000D01*
X257175000Y-169174212D02*
X255727200Y-167726412D01*
X257175000Y-170180000D02*
X257175000Y-169174212D01*
X159461200Y-155651200D02*
X159461200Y-132461000D01*
X255727200Y-162509200D02*
X254635000Y-161417000D01*
X122046996Y-110616996D02*
X122046996Y-129540000D01*
%TO.N,/~{CS_SLOT0}*%
X137160000Y-109220000D02*
X134620000Y-111760000D01*
X170179501Y-159519592D02*
X169859922Y-159839171D01*
X169418000Y-135255000D02*
X170179501Y-136016501D01*
X170179501Y-136016501D02*
X170179501Y-159519592D01*
X134620000Y-111760000D02*
X134620000Y-131064000D01*
X269875000Y-167640000D02*
X264985500Y-162750500D01*
%TO.N,Net-(J6-VDD)*%
X110490000Y-82550000D02*
X110490000Y-77470000D01*
X92837000Y-91567000D02*
X92837000Y-88773000D01*
X109220000Y-76200000D02*
X111760000Y-73660000D01*
X111760000Y-73660000D02*
X111760000Y-69850000D01*
X99060000Y-82550000D02*
X110490000Y-82550000D01*
X110490000Y-77470000D02*
X109220000Y-76200000D01*
X92837000Y-88773000D02*
X99060000Y-82550000D01*
%TO.N,/SD Card/CLK*%
X92710000Y-130429000D02*
X93980000Y-129159000D01*
X93980000Y-129159000D02*
X93980000Y-121412000D01*
X95209999Y-120182001D02*
X95209999Y-96098999D01*
X93980000Y-121412000D02*
X95209999Y-120182001D01*
%TO.N,/SD Card/CMD*%
X91567000Y-126677987D02*
X91567000Y-99985606D01*
X91567000Y-99985606D02*
X87508637Y-95927243D01*
X92329000Y-128524000D02*
X92329000Y-127439987D01*
X92329000Y-127439987D02*
X91567000Y-126677987D01*
%TO.N,/SD Card/DAT0*%
X95250000Y-143764000D02*
X96520000Y-142494000D01*
X96520000Y-99695000D02*
X100076000Y-96139000D01*
X96520000Y-142494000D02*
X96520000Y-99695000D01*
%TO.N,/~{SD_WRITE_PROTECT}*%
X103886000Y-163199419D02*
X105541419Y-161544000D01*
X105410000Y-105313816D02*
X105410000Y-96139000D01*
X106649184Y-161544000D02*
X110490000Y-157703184D01*
X110490000Y-157703184D02*
X110490000Y-143606184D01*
X101346000Y-174371000D02*
X101346000Y-167640000D01*
X105541419Y-161544000D02*
X106649184Y-161544000D01*
X114299500Y-139796683D02*
X114299500Y-114203316D01*
X114299500Y-114203316D02*
X105410000Y-105313816D01*
X103886000Y-165100000D02*
X103886000Y-163199419D01*
X110490000Y-143606184D02*
X114299500Y-139796683D01*
X101346000Y-167640000D02*
X103886000Y-165100000D01*
%TO.N,/SD Card/DAT3*%
X91186000Y-102108000D02*
X91186000Y-127381000D01*
X85217000Y-96139000D02*
X91186000Y-102108000D01*
X91186000Y-127381000D02*
X91059000Y-127508000D01*
%TO.N,Net-(U25-RB)*%
X177165000Y-97606000D02*
X185554888Y-89216112D01*
X188276112Y-86995000D02*
X188276112Y-89216112D01*
X185554888Y-89216112D02*
X188276112Y-89216112D01*
X177165000Y-99060000D02*
X177165000Y-97606000D01*
X188276112Y-89216112D02*
X190500000Y-91440000D01*
%TO.N,Net-(U26C-+)*%
X190500000Y-102235000D02*
X190500000Y-99060000D01*
%TO.N,Net-(U26C--)*%
X195580000Y-102235000D02*
X195580000Y-99060000D01*
%TO.N,Net-(C43-Pad1)*%
X198842000Y-83780000D02*
X205740000Y-90678000D01*
X205740000Y-93345000D02*
X207010000Y-94615000D01*
X205740000Y-90678000D02*
X205740000Y-93345000D01*
X198120000Y-83780000D02*
X198842000Y-83780000D01*
X204470000Y-102235000D02*
X201295000Y-99060000D01*
%TO.N,/Video_Audio/Audio_analog/AUDIO_OUT*%
X198120000Y-75475000D02*
X197328000Y-74683000D01*
X198120000Y-81280000D02*
X198120000Y-75475000D01*
%TO.N,Net-(U25-MP)*%
X185420000Y-91440000D02*
X185420000Y-93345000D01*
X185420000Y-93345000D02*
X179705000Y-99060000D01*
%TO.N,Net-(C49-Pad1)*%
X238760000Y-91440000D02*
X245110000Y-85090000D01*
X245110000Y-81827380D02*
X244983000Y-81700380D01*
X236220000Y-91440000D02*
X238760000Y-91440000D01*
X245110000Y-85090000D02*
X245110000Y-81827380D01*
%TO.N,/Video_Audio/Video_analog/C_OUT*%
X244983000Y-79200380D02*
X244983000Y-77645260D01*
X244983000Y-77645260D02*
X241965480Y-74627740D01*
%TO.N,Net-(C50-Pad1)*%
X212344000Y-87590000D02*
X216194000Y-91440000D01*
X216194000Y-91440000D02*
X218440000Y-91440000D01*
%TO.N,Net-(C50-Pad2)*%
X208152000Y-80898000D02*
X212344000Y-85090000D01*
X206495000Y-80898000D02*
X208152000Y-80898000D01*
%TO.N,Net-(C51-Pad1)*%
X237871000Y-81748000D02*
X237871000Y-87249000D01*
X237871000Y-87249000D02*
X233680000Y-91440000D01*
%TO.N,/Video_Audio/Video_analog/Y_OUT*%
X237871000Y-79248000D02*
X237871000Y-77233780D01*
X237871000Y-77233780D02*
X235264960Y-74627740D01*
%TO.N,Net-(C53-Pad1)*%
X222123000Y-92583000D02*
X220980000Y-91440000D01*
X224790000Y-91948000D02*
X224155000Y-92583000D01*
X224155000Y-92583000D02*
X222123000Y-92583000D01*
X226568000Y-87590000D02*
X224790000Y-89368000D01*
X224790000Y-89368000D02*
X224790000Y-91948000D01*
%TO.N,/Video_Audio/Video_analog/G_OUT*%
X226568000Y-85090000D02*
X223012000Y-85090000D01*
X223012000Y-85090000D02*
X218995000Y-81073000D01*
X218995000Y-81073000D02*
X218995000Y-78398000D01*
%TO.N,Net-(C55-Pad1)*%
X223520000Y-91440000D02*
X219670000Y-87590000D01*
X219670000Y-87590000D02*
X219456000Y-87590000D01*
%TO.N,Net-(C55-Pad2)*%
X213995000Y-80898000D02*
X218187000Y-85090000D01*
X218187000Y-85090000D02*
X219456000Y-85090000D01*
%TO.N,Net-(C56-Pad1)*%
X230186000Y-90486000D02*
X231140000Y-91440000D01*
X227014000Y-90486000D02*
X230186000Y-90486000D01*
X226060000Y-91440000D02*
X227014000Y-90486000D01*
%TO.N,Net-(C56-Pad2)*%
X221495000Y-80898000D02*
X221495000Y-75898000D01*
%TO.N,Net-(RR1-R6)*%
X88900000Y-150660186D02*
X88900000Y-149059814D01*
X90170000Y-157480000D02*
X90170000Y-151930186D01*
X88900000Y-149059814D02*
X83693000Y-143852814D01*
X83693000Y-143852814D02*
X83693000Y-114300000D01*
X90170000Y-151930186D02*
X88900000Y-150660186D01*
%TO.N,Net-(RR1-R7)*%
X91948000Y-146939000D02*
X90233500Y-145224500D01*
X101701500Y-147548500D02*
X101092000Y-146939000D01*
X101092000Y-146939000D02*
X91948000Y-146939000D01*
X90233500Y-116903500D02*
X90297000Y-116840000D01*
X90233500Y-145224500D02*
X90233500Y-116903500D01*
X101701500Y-152996500D02*
X101701500Y-147548500D01*
X100520000Y-154178000D02*
X101701500Y-152996500D01*
%TO.N,Net-(U29-I0a)*%
X88519000Y-144145000D02*
X87757000Y-143383000D01*
X105410000Y-149860000D02*
X105410000Y-147701000D01*
X73109000Y-87299000D02*
X73109000Y-102451362D01*
X77470000Y-107823000D02*
X76581000Y-107823000D01*
X73109000Y-102451362D02*
X76200000Y-105542362D01*
X87757000Y-143383000D02*
X87757000Y-107950000D01*
X76200000Y-105542362D02*
X76200000Y-107442000D01*
X72055000Y-86245000D02*
X73109000Y-87299000D01*
X76581000Y-107823000D02*
X76200000Y-107442000D01*
%TO.N,Net-(RR1-R8)*%
X81280000Y-150368000D02*
X84201000Y-153289000D01*
X99695000Y-156845000D02*
X100330000Y-157480000D01*
X99695000Y-151765000D02*
X99695000Y-156845000D01*
X80264499Y-120395501D02*
X80264499Y-147642795D01*
X81280000Y-119380000D02*
X80264499Y-120395501D01*
X81280000Y-148658296D02*
X81280000Y-150368000D01*
X80264499Y-147642795D02*
X81280000Y-148658296D01*
%TO.N,Net-(RR1-R5)*%
X85028996Y-133977217D02*
X85090000Y-134038221D01*
X85028996Y-114186006D02*
X85028996Y-133977217D01*
%TO.N,Net-(U29-OEb)*%
X109220000Y-142240000D02*
X107950000Y-140970000D01*
X109220000Y-153270000D02*
X109220000Y-142240000D01*
X105410000Y-157080000D02*
X109220000Y-153270000D01*
X107950000Y-140970000D02*
X107950000Y-136144000D01*
X95001000Y-160988765D02*
X95088267Y-160901498D01*
X95001000Y-163815000D02*
X95001000Y-160988765D01*
%TO.N,/~{JOYPORT_ENABLE}*%
X112649000Y-140908368D02*
X112649000Y-127952000D01*
X97932000Y-163815000D02*
X101854000Y-159893000D01*
X95001000Y-171435000D02*
X95001000Y-169981000D01*
X110109000Y-143448368D02*
X112649000Y-140908368D01*
X101854000Y-159893000D02*
X107427580Y-159893000D01*
X95001000Y-169981000D02*
X97541000Y-167441000D01*
X97541000Y-167441000D02*
X97541000Y-163815000D01*
X110109000Y-157211580D02*
X110109000Y-143448368D01*
X107427580Y-159893000D02*
X110109000Y-157211580D01*
X112649000Y-127952000D02*
X113601000Y-127000000D01*
%TO.N,Net-(U29-OEa)*%
X106680000Y-142494000D02*
X100330000Y-136144000D01*
X101600000Y-158623000D02*
X101600000Y-156210000D01*
X106680000Y-144526000D02*
X106680000Y-142494000D01*
X99314000Y-159766000D02*
X100457000Y-159766000D01*
X100457000Y-159766000D02*
X101600000Y-158623000D01*
X92461000Y-171435000D02*
X96266000Y-167630000D01*
X101600000Y-156210000D02*
X107950000Y-149860000D01*
X96266000Y-167630000D02*
X96266000Y-162814000D01*
X107950000Y-145796000D02*
X106680000Y-144526000D01*
X107950000Y-149860000D02*
X107950000Y-145796000D01*
X96266000Y-162814000D02*
X99314000Y-159766000D01*
%TO.N,Net-(U30-CE)*%
X134112000Y-159996273D02*
X134112000Y-164211000D01*
X134709000Y-159399273D02*
X134112000Y-159996273D01*
X133096000Y-146812000D02*
X134709000Y-148425000D01*
X134709000Y-148425000D02*
X134709000Y-159399273D01*
X133096000Y-144164000D02*
X133096000Y-146812000D01*
%TO.N,Net-(U28-Pad10)*%
X97541000Y-171435000D02*
X97541000Y-168895000D01*
X97541000Y-168895000D02*
X102621000Y-163815000D01*
%TO.N,Net-(U30-X1)*%
X143256000Y-136144000D02*
X143256000Y-132588000D01*
X143256000Y-132588000D02*
X142748000Y-132080000D01*
%TO.N,Net-(U30-X2)*%
X140848000Y-132080000D02*
X140848000Y-136012000D01*
%TO.N,/~{CSR_VDP}*%
X259715000Y-167640000D02*
X259715000Y-165354000D01*
X259715000Y-165354000D02*
X257531500Y-163170500D01*
X180405000Y-133350000D02*
X180405000Y-149139442D01*
X180405000Y-149139442D02*
X178832143Y-150712299D01*
X178832143Y-150712299D02*
X178008442Y-150712299D01*
X174858494Y-153862247D02*
X174858494Y-155866600D01*
X178008442Y-150712299D02*
X174858494Y-153862247D01*
X257531500Y-159773320D02*
X254031180Y-156273000D01*
X257531500Y-163170500D02*
X257531500Y-159773320D01*
%TO.N,/Video_Audio/VDP_R~{W}*%
X255270000Y-133477000D02*
X254000000Y-132207000D01*
X253990000Y-145151000D02*
X253990000Y-142250000D01*
X254000000Y-129159000D02*
X255270000Y-127889000D01*
X255270000Y-140570000D02*
X255270000Y-133477000D01*
X221488000Y-142748000D02*
X221345000Y-142891000D01*
X281305000Y-142240000D02*
X282575000Y-140970000D01*
X281305000Y-124206000D02*
X281305000Y-118745000D01*
X253990000Y-141850000D02*
X255270000Y-140570000D01*
X282575000Y-132100000D02*
X281295000Y-130820000D01*
X281295000Y-130820000D02*
X281295000Y-129423000D01*
X282575000Y-128143000D02*
X282575000Y-125476000D01*
X221345000Y-142891000D02*
X221345000Y-152450800D01*
X254000000Y-130810000D02*
X254000000Y-129159000D01*
X282575000Y-125476000D02*
X281305000Y-124206000D01*
X282575000Y-140970000D02*
X282575000Y-132100000D01*
X254508000Y-145669000D02*
X253990000Y-145151000D01*
X281295000Y-129423000D02*
X282575000Y-128143000D01*
X281305000Y-146812000D02*
X281305000Y-142240000D01*
X255270000Y-127889000D02*
X255270000Y-120035000D01*
X255270000Y-120035000D02*
X253990000Y-118755000D01*
X254000000Y-132207000D02*
X254000000Y-130810000D01*
%TO.N,/Video_Audio/VDP_RD4*%
X286385000Y-142240000D02*
X287655000Y-140970000D01*
X286375000Y-130820000D02*
X286375000Y-129296000D01*
X286375000Y-129296000D02*
X287655000Y-128016000D01*
X287655000Y-128016000D02*
X287655000Y-125476000D01*
X286385000Y-124206000D02*
X286385000Y-118745000D01*
X287655000Y-125476000D02*
X286385000Y-124206000D01*
X286375000Y-130820000D02*
X287655000Y-132100000D01*
X287655000Y-140970000D02*
X287655000Y-135890000D01*
X287655000Y-132100000D02*
X287655000Y-135890000D01*
%TO.N,Net-(RR1-R1)*%
X86868499Y-108058312D02*
X86868499Y-143854996D01*
X86868499Y-143854996D02*
X90523503Y-147510000D01*
X83185000Y-103505000D02*
X83185000Y-104374813D01*
X90523503Y-147510000D02*
X97980000Y-147510000D01*
X97980000Y-147510000D02*
X100330000Y-149860000D01*
X83185000Y-104374813D02*
X86868499Y-108058312D01*
X81280000Y-101600000D02*
X83185000Y-103505000D01*
%TO.N,Net-(RR1-R2)*%
X90313290Y-148017501D02*
X93407501Y-148017501D01*
X93407501Y-148017501D02*
X95250000Y-149860000D01*
X86360998Y-109220998D02*
X86360998Y-144065209D01*
X81280000Y-104140000D02*
X86360998Y-109220998D01*
X86360998Y-144065209D02*
X90313290Y-148017501D01*
%TO.N,Net-(RR1-R3)*%
X85853497Y-145143497D02*
X85853497Y-116888647D01*
X85853996Y-116888148D02*
X85853996Y-111253996D01*
X90170000Y-149460000D02*
X85853497Y-145143497D01*
X85853996Y-111253996D02*
X81280000Y-106680000D01*
X85853497Y-116888647D02*
X85853996Y-116888148D01*
%TO.N,Net-(U7B-D)*%
X77470000Y-97790000D02*
X79794000Y-100114000D01*
X69215000Y-87630000D02*
X69215000Y-86498630D01*
X70522630Y-85191000D02*
X73253000Y-85191000D01*
X81284582Y-100114000D02*
X88712360Y-107541778D01*
X77470000Y-89408000D02*
X77470000Y-97790000D01*
X79794000Y-100114000D02*
X81284582Y-100114000D01*
X73253000Y-85191000D02*
X77470000Y-89408000D01*
X88712360Y-107541778D02*
X88712360Y-134747000D01*
X69215000Y-86498630D02*
X70522630Y-85191000D01*
%TO.N,/Video_Audio/VDP_RD0*%
X260350000Y-127889000D02*
X260350000Y-120035000D01*
X260350000Y-120035000D02*
X259070000Y-118755000D01*
X260350000Y-132461000D02*
X260350000Y-132588000D01*
X260350000Y-140970000D02*
X260350000Y-132588000D01*
X259080000Y-131191000D02*
X260350000Y-132461000D01*
X259070000Y-142250000D02*
X260350000Y-140970000D01*
X259080000Y-129159000D02*
X260350000Y-127889000D01*
X259080000Y-130810000D02*
X259080000Y-129159000D01*
%TO.N,/Video_Audio/VDP_RD1*%
X256540000Y-130810000D02*
X256540000Y-133350000D01*
X257810000Y-127889000D02*
X257810000Y-120035000D01*
X257810000Y-120035000D02*
X256530000Y-118755000D01*
X256530000Y-141850000D02*
X257810000Y-140570000D01*
X256540000Y-129159000D02*
X257810000Y-127889000D01*
X256540000Y-135763000D02*
X256540000Y-133350000D01*
X256540000Y-130810000D02*
X256540000Y-129159000D01*
X257810000Y-137033000D02*
X256540000Y-135763000D01*
X257810000Y-140570000D02*
X257810000Y-137033000D01*
%TO.N,/Video_Audio/VDP_RD2*%
X252730000Y-129159000D02*
X253990000Y-127899000D01*
X254000000Y-138430000D02*
X254000000Y-133350000D01*
X254000000Y-133350000D02*
X252730000Y-132080000D01*
X252730000Y-132080000D02*
X252730000Y-129159000D01*
X253527507Y-146974507D02*
X253527507Y-149407507D01*
X252730000Y-146177000D02*
X253527507Y-146974507D01*
X253990000Y-127899000D02*
X253990000Y-126375000D01*
X254000000Y-138830000D02*
X252730000Y-140100000D01*
X252730000Y-140100000D02*
X252730000Y-146177000D01*
%TO.N,/Video_Audio/VDP_RD3*%
X259080000Y-140169814D02*
X259080000Y-138430000D01*
X257810000Y-129159000D02*
X259070000Y-127899000D01*
X257810000Y-132080000D02*
X257810000Y-129159000D01*
X259070000Y-127899000D02*
X259070000Y-126375000D01*
X259080000Y-133350000D02*
X257810000Y-132080000D01*
X257810000Y-141439814D02*
X259080000Y-140169814D01*
X257810000Y-148610000D02*
X257810000Y-141439814D01*
X259080000Y-138430000D02*
X259080000Y-133350000D01*
X259070000Y-149870000D02*
X257810000Y-148610000D01*
%TO.N,/Video_Audio/VDP_RD5*%
X283845000Y-142240000D02*
X283845000Y-140716000D01*
X283845000Y-140716000D02*
X285115000Y-139446000D01*
X283845000Y-124206000D02*
X283845000Y-118745000D01*
X285115000Y-125476000D02*
X283845000Y-124206000D01*
X285115000Y-132500000D02*
X283835000Y-131220000D01*
X283835000Y-129296000D02*
X285115000Y-128016000D01*
X285115000Y-139446000D02*
X285115000Y-132500000D01*
X285115000Y-128016000D02*
X285115000Y-125476000D01*
X283835000Y-130820000D02*
X283835000Y-129296000D01*
%TO.N,/Video_Audio/VDP_RD6*%
X281295000Y-136398000D02*
X281295000Y-138440000D01*
X281305000Y-128143000D02*
X280035000Y-129413000D01*
X280035000Y-133096000D02*
X281295000Y-134356000D01*
X281295000Y-134356000D02*
X281295000Y-136398000D01*
X281295000Y-138440000D02*
X281295000Y-140028420D01*
X281305000Y-149860000D02*
X280034999Y-148589999D01*
X280035000Y-129413000D02*
X280035000Y-133096000D01*
X281305000Y-126365000D02*
X281305000Y-128143000D01*
X281295000Y-140028420D02*
X280034999Y-141288421D01*
X280034999Y-148589999D02*
X280034999Y-141288421D01*
%TO.N,/Video_Audio/VDP_RD7*%
X286375000Y-139964000D02*
X285115000Y-141224000D01*
X286375000Y-132672397D02*
X286103603Y-132401000D01*
X286385000Y-128143000D02*
X286385000Y-126365000D01*
X286385000Y-149606000D02*
X285115000Y-148336000D01*
X285115000Y-148336000D02*
X285115000Y-144526000D01*
X285115000Y-141224000D02*
X285115000Y-144526000D01*
X286375000Y-138440000D02*
X286375000Y-132672397D01*
X285885814Y-132401000D02*
X285194000Y-131709186D01*
X285194000Y-129334000D02*
X286385000Y-128143000D01*
X286103603Y-132401000D02*
X285885814Y-132401000D01*
X286375000Y-138440000D02*
X286375000Y-139964000D01*
X285194000Y-131709186D02*
X285194000Y-129334000D01*
%TO.N,/Video_Audio/VDP_AD0*%
X278002501Y-137687501D02*
X278002501Y-136187787D01*
X251460000Y-139827000D02*
X250269000Y-141018000D01*
X278765000Y-128143000D02*
X278765000Y-126365000D01*
X277495000Y-135680286D02*
X277495000Y-129413000D01*
X250190000Y-135382000D02*
X250190000Y-129286000D01*
X277495000Y-129413000D02*
X278765000Y-128143000D01*
X277501499Y-145902693D02*
X277585806Y-145987000D01*
X278755000Y-138440000D02*
X278755000Y-139894000D01*
X277501499Y-141147501D02*
X277501499Y-145902693D01*
X251460000Y-136652000D02*
X250190000Y-135382000D01*
X278755000Y-139894000D02*
X277501499Y-141147501D01*
X278002501Y-136187787D02*
X277495000Y-135680286D01*
X250190000Y-129286000D02*
X251450000Y-128026000D01*
X278755000Y-138440000D02*
X278002501Y-137687501D01*
X251460000Y-138430000D02*
X251460000Y-139827000D01*
X250269000Y-141018000D02*
X250269000Y-148689000D01*
X250269000Y-148689000D02*
X251450000Y-149870000D01*
X278765000Y-149860000D02*
X278765000Y-147166194D01*
X251460000Y-138430000D02*
X251460000Y-136652000D01*
X278765000Y-147166194D02*
X277585806Y-145987000D01*
X251450000Y-128026000D02*
X251450000Y-126375000D01*
%TO.N,/Video_Audio/VDP_AD1*%
X274955000Y-148590000D02*
X274955000Y-140716000D01*
X274955000Y-129413000D02*
X276225000Y-128143000D01*
X276225000Y-149860000D02*
X274955000Y-148590000D01*
X276225000Y-138430000D02*
X276225000Y-136271000D01*
X248910000Y-146991501D02*
X247650000Y-145731501D01*
X248920000Y-138030000D02*
X247650000Y-136760000D01*
X247650000Y-129286000D02*
X248910000Y-128026000D01*
X274955000Y-140716000D02*
X276215000Y-139456000D01*
X276225000Y-128143000D02*
X276225000Y-126365000D01*
X248920000Y-139991814D02*
X247650000Y-141261814D01*
X274955000Y-135001000D02*
X274955000Y-129413000D01*
X247650000Y-136760000D02*
X247650000Y-129286000D01*
X248910000Y-128026000D02*
X248910000Y-126375000D01*
X248920000Y-138430000D02*
X248920000Y-139991814D01*
X248910000Y-149870000D02*
X248910000Y-146991501D01*
X276225000Y-136271000D02*
X274955000Y-135001000D01*
X247650000Y-141261814D02*
X247650000Y-145731501D01*
%TO.N,/Video_Audio/VDP_AD2*%
X245110000Y-148610000D02*
X245110000Y-141097000D01*
X246370000Y-127899000D02*
X246370000Y-126375000D01*
X273685000Y-128077893D02*
X272415000Y-129347893D01*
X273685000Y-126365000D02*
X273685000Y-128077893D01*
X272515501Y-143140687D02*
X272504000Y-143129186D01*
X272415000Y-129347893D02*
X272415000Y-136780000D01*
X246380000Y-139827000D02*
X246380000Y-138430000D01*
X245110000Y-136760000D02*
X245110000Y-129159000D01*
X246370000Y-149870000D02*
X245110000Y-148610000D01*
X272415000Y-136780000D02*
X273675000Y-138040000D01*
X272504000Y-140346501D02*
X273675000Y-139175501D01*
X272504000Y-143129186D02*
X272504000Y-140346501D01*
X210665000Y-152450800D02*
X210665000Y-148618000D01*
X273685000Y-149860000D02*
X272515501Y-148690501D01*
X272515501Y-148690501D02*
X272515501Y-143140687D01*
X245110000Y-141097000D02*
X246380000Y-139827000D01*
X245110000Y-129159000D02*
X246370000Y-127899000D01*
X210665000Y-148618000D02*
X210693000Y-148590000D01*
X246380000Y-138030000D02*
X245110000Y-136760000D01*
%TO.N,/Video_Audio/VDP_AD3*%
X269954000Y-137259000D02*
X269954000Y-129334000D01*
X243840000Y-139700000D02*
X243840000Y-138430000D01*
X212445000Y-152450800D02*
X212445000Y-146711000D01*
X243830000Y-127899000D02*
X243830000Y-126375000D01*
X243830000Y-149870000D02*
X242570000Y-148610000D01*
X242570000Y-148610000D02*
X242570000Y-140970000D01*
X271145000Y-128143000D02*
X271145000Y-126365000D01*
X243840000Y-138430000D02*
X242570000Y-137160000D01*
X242570000Y-140970000D02*
X243840000Y-139700000D01*
X271135000Y-138440000D02*
X269954000Y-137259000D01*
X269954000Y-129334000D02*
X271145000Y-128143000D01*
X269875000Y-148590000D02*
X269875000Y-139700000D01*
X242570000Y-129159000D02*
X243830000Y-127899000D01*
X271145000Y-149860000D02*
X269875000Y-148590000D01*
X242570000Y-137160000D02*
X242570000Y-129159000D01*
X269875000Y-139700000D02*
X271135000Y-138440000D01*
X212445000Y-146711000D02*
X212598000Y-146558000D01*
%TO.N,/Video_Audio/VDP_AD4*%
X243830000Y-142250000D02*
X243830000Y-140853000D01*
X245110000Y-137541000D02*
X243967000Y-136398000D01*
X214225000Y-144677000D02*
X214225000Y-152450800D01*
X271135000Y-130820000D02*
X271135000Y-136369814D01*
X272316000Y-139329186D02*
X271145000Y-140500186D01*
X245110000Y-127952500D02*
X245110000Y-120035000D01*
X245110000Y-120035000D02*
X243830000Y-118755000D01*
X243840000Y-129222500D02*
X245110000Y-127952500D01*
X271135000Y-129359500D02*
X272415000Y-128079500D01*
X272316000Y-137550814D02*
X272316000Y-139329186D01*
X271145000Y-118745000D02*
X271145000Y-123959000D01*
X243967000Y-136398000D02*
X243967000Y-130937000D01*
X243830000Y-140853000D02*
X245110000Y-139573000D01*
X272415000Y-128079500D02*
X272415000Y-125229000D01*
X243840000Y-130810000D02*
X243840000Y-129222500D01*
X271135000Y-136369814D02*
X272316000Y-137550814D01*
X245110000Y-139573000D02*
X245110000Y-137541000D01*
X215900000Y-143002000D02*
X214225000Y-144677000D01*
X272415000Y-125229000D02*
X271145000Y-123959000D01*
X271145000Y-140500186D02*
X271145000Y-142240000D01*
X271135000Y-130820000D02*
X271135000Y-129359500D01*
%TO.N,/Video_Audio/VDP_AD5*%
X273675000Y-130820000D02*
X273675000Y-129423000D01*
X246380000Y-136359814D02*
X246380000Y-130810000D01*
X246370000Y-142250000D02*
X246370000Y-146862291D01*
X273685000Y-124206000D02*
X273685000Y-118745000D01*
X274856000Y-139329186D02*
X273685000Y-140500186D01*
X246380000Y-129159000D02*
X247650000Y-127889000D01*
X216005000Y-152450800D02*
X216005000Y-147596000D01*
X247561000Y-139319186D02*
X247561000Y-137540814D01*
X273685000Y-140500186D02*
X273685000Y-142240000D01*
X246370000Y-140796000D02*
X247407000Y-139759000D01*
X273675000Y-129423000D02*
X274955000Y-128143000D01*
X216005000Y-147596000D02*
X216027000Y-147574000D01*
X273675000Y-136369814D02*
X274856000Y-137550814D01*
X247650000Y-120035000D02*
X246370000Y-118755000D01*
X273675000Y-130820000D02*
X273675000Y-136369814D01*
X246380000Y-130810000D02*
X246380000Y-129159000D01*
X274856000Y-137550814D02*
X274856000Y-139329186D01*
X274955000Y-128143000D02*
X274955000Y-125476000D01*
X247650000Y-127889000D02*
X247650000Y-120035000D01*
X247407000Y-139759000D02*
X247407000Y-139473186D01*
X274955000Y-125476000D02*
X273685000Y-124206000D01*
X247561000Y-137540814D02*
X246380000Y-136359814D01*
X246370000Y-146862291D02*
X246382207Y-146874498D01*
X273685000Y-147701000D02*
X273685000Y-142240000D01*
X246370000Y-142250000D02*
X246370000Y-140796000D01*
X247407000Y-139473186D02*
X247561000Y-139319186D01*
%TO.N,/Video_Audio/VDP_AD6*%
X277495000Y-125476000D02*
X276098000Y-124079000D01*
X248920000Y-135382000D02*
X248920000Y-130810000D01*
X250190000Y-120035000D02*
X248910000Y-118755000D01*
X250190000Y-136652000D02*
X248920000Y-135382000D01*
X250190000Y-127762000D02*
X250190000Y-120035000D01*
X217785000Y-142260000D02*
X217805000Y-142240000D01*
X276215000Y-129423000D02*
X277495000Y-128143000D01*
X250190000Y-139700000D02*
X250190000Y-136652000D01*
X248920000Y-130810000D02*
X248920000Y-129032000D01*
X248910000Y-142250000D02*
X248910000Y-140980000D01*
X277495000Y-139954000D02*
X277495000Y-136398000D01*
X248920000Y-129032000D02*
X250190000Y-127762000D01*
X277495000Y-128143000D02*
X277495000Y-125476000D01*
X276215000Y-135118000D02*
X276215000Y-130820000D01*
X276215000Y-130820000D02*
X276215000Y-129423000D01*
X276098000Y-124079000D02*
X276098000Y-118872000D01*
X248910000Y-140980000D02*
X250190000Y-139700000D01*
X277495000Y-136398000D02*
X276215000Y-135118000D01*
X276225000Y-141224000D02*
X277495000Y-139954000D01*
X217785000Y-152450800D02*
X217785000Y-142260000D01*
%TO.N,/Video_Audio/VDP_AD7*%
X239903000Y-129286000D02*
X241290000Y-127899000D01*
X267335000Y-139700000D02*
X268595000Y-138440000D01*
X239903000Y-137033000D02*
X239903000Y-129286000D01*
X267414000Y-129334000D02*
X268605000Y-128143000D01*
X241300000Y-139954000D02*
X241300000Y-138430000D01*
X268605000Y-149860000D02*
X267335000Y-148590000D01*
X219565000Y-149765800D02*
X219557600Y-149758400D01*
X267335000Y-148590000D02*
X267335000Y-139700000D01*
X268595000Y-138440000D02*
X267414000Y-137259000D01*
X241290000Y-127899000D02*
X241290000Y-126375000D01*
X240030000Y-141224000D02*
X241300000Y-139954000D01*
X241300000Y-138430000D02*
X239903000Y-137033000D01*
X219565000Y-152450800D02*
X219565000Y-149765800D01*
X268605000Y-128143000D02*
X268605000Y-126365000D01*
X241290000Y-149870000D02*
X240030000Y-148610000D01*
X267414000Y-137259000D02*
X267414000Y-129334000D01*
X240030000Y-148610000D02*
X240030000Y-141224000D01*
%TO.N,Net-(D1-K)*%
X147955000Y-196195000D02*
X147955000Y-199475629D01*
X147955000Y-199475629D02*
X151044371Y-202565000D01*
X151044371Y-202565000D02*
X154051000Y-202565000D01*
X149225000Y-194925000D02*
X147955000Y-196195000D01*
%TO.N,/Kbd_controller/PS2_KBD_CLK*%
X139446000Y-145034000D02*
X139446000Y-141605000D01*
X139446000Y-141605000D02*
X137033000Y-139192000D01*
X137033000Y-139192000D02*
X137033000Y-121539000D01*
X118005034Y-121500239D02*
X118005034Y-80653446D01*
X140970000Y-146558000D02*
X139446000Y-145034000D01*
X118005034Y-80653446D02*
X123903740Y-74754740D01*
X140970000Y-149860000D02*
X140970000Y-146558000D01*
%TO.N,/Kbd_controller/PS2_MOU_CLK*%
X118714185Y-121950815D02*
X118364000Y-122301000D01*
X138430000Y-149860000D02*
X134366000Y-145796000D01*
X118714185Y-86644815D02*
X118714185Y-121950815D01*
X131826000Y-127762000D02*
X131826000Y-125222000D01*
X131826000Y-139192000D02*
X131826000Y-127762000D01*
X134366000Y-145796000D02*
X134366000Y-141732000D01*
X130604260Y-74754740D02*
X118714185Y-86644815D01*
X134366000Y-141732000D02*
X131826000Y-139192000D01*
X118364000Y-125222000D02*
X118364000Y-122301000D01*
%TO.N,Net-(U11-PB5)*%
X107696000Y-175641000D02*
X107696000Y-189865000D01*
X108712000Y-174625000D02*
X107696000Y-175641000D01*
%TD*%
M02*
