M48
; DRILL file {KiCad 7.0.6-7.0.6~ubuntu22.04.1} date Sun 30 Jul 2023 01:24:29 PM CEST
; FORMAT={-:-/ absolute / metric / decimal}
; #@! TF.CreationDate,2023-07-30T13:24:29+02:00
; #@! TF.GenerationSoftware,Kicad,Pcbnew,7.0.6-7.0.6~ubuntu22.04.1
; #@! TF.FileFunction,Plated,1,4,PTH
FMAT,2
METRIC
; #@! TA.AperFunction,Plated,PTH,ComponentDrill
T1C0.500
; #@! TA.AperFunction,Plated,PTH,ComponentDrill
T2C0.600
; #@! TA.AperFunction,Plated,PTH,ViaDrill
T3C0.635
; #@! TA.AperFunction,Plated,PTH,ComponentDrill
T4C0.700
; #@! TA.AperFunction,Plated,PTH,ComponentDrill
T5C0.750
; #@! TA.AperFunction,Plated,PTH,ComponentDrill
T6C0.800
; #@! TA.AperFunction,Plated,PTH,ComponentDrill
T7C0.899
; #@! TA.AperFunction,Plated,PTH,ComponentDrill
T8C0.920
; #@! TA.AperFunction,Plated,PTH,ComponentDrill
T9C1.000
; #@! TA.AperFunction,Plated,PTH,ComponentDrill
T10C1.200
; #@! TA.AperFunction,Plated,PTH,ComponentDrill
T11C1.500
; #@! TA.AperFunction,Plated,PTH,ComponentDrill
T12C2.301
; #@! TA.AperFunction,Plated,PTH,ComponentDrill
T13C2.330
; #@! TA.AperFunction,Plated,PTH,ComponentDrill
T14C3.200
%
G90
G05
T1
X140.848Y-132.08
X142.748Y-132.08
T2
X132.62Y-195.58
X134.62Y-195.58
X151.162Y-86.106
X153.162Y-86.106
X155.945Y-86.106
X157.945Y-86.106
X160.814Y-86.106
X162.676Y-103.124
X162.814Y-86.106
X164.676Y-103.124
X165.608Y-86.106
X167.608Y-86.106
X191.378Y-86.995
X193.378Y-86.995
X205.74Y-129.54
X207.74Y-129.54
T3
X75.819Y-72.771
X77.978Y-172.085
X78.36Y-158.017
X78.688Y-169.225
X79.185Y-165.1
X79.401Y-167.127
X79.566Y-138.557
X80.01Y-154.285
X80.454Y-162.56
X81.28Y-151.765
X81.28Y-153.035
X83.566Y-163.791
X83.693Y-114.3
X84.201Y-153.289
X84.836Y-168.91
X85.029Y-114.186
X85.09Y-134.038
X85.217Y-96.139
X85.471Y-160.147
X85.852Y-171.261
X87.376Y-162.433
X87.509Y-95.927
X87.757Y-107.95
X88.265Y-171.196
X88.519Y-144.145
X88.712Y-134.747
X88.9Y-160.147
X89.408Y-98.933
X90.297Y-116.84
X91.059Y-127.508
X91.186Y-91.567
X91.186Y-181.61
X92.248Y-176.42
X92.329Y-128.524
X92.837Y-91.567
X94.44Y-154.114
X95.088Y-160.901
X95.21Y-96.099
X97.79Y-91.567
X99.695Y-151.765
X100.076Y-96.139
X100.52Y-154.178
X105.161Y-188.468
X105.41Y-96.139
X105.41Y-147.701
X106.68Y-100.838
X106.934Y-71.501
X107.696Y-189.865
X108.712Y-190.627
X111.125Y-125.095
X111.125Y-138.43
X111.569Y-152.01
X112.204Y-168.275
X113.284Y-143.002
X113.284Y-186.69
X113.601Y-127.0
X115.386Y-189.166
X118.005Y-121.5
X118.364Y-125.222
X119.38Y-147.193
X122.047Y-129.54
X125.222Y-174.752
X125.857Y-114.3
X125.857Y-130.302
X129.032Y-128.778
X131.826Y-125.222
X133.985Y-176.784
X134.078Y-166.463
X134.112Y-164.211
X134.62Y-131.064
X135.89Y-152.019
X135.914Y-174.649
X137.033Y-121.539
X137.16Y-153.035
X137.985Y-165.989
X140.97Y-123.825
X140.97Y-161.036
X141.888Y-102.823
X142.367Y-116.205
X142.494Y-105.918
X143.154Y-104.998
X143.383Y-107.823
X144.653Y-119.253
X144.907Y-114.3
X145.669Y-95.25
X145.792Y-104.878
X146.939Y-107.696
X146.964Y-111.049
X147.476Y-106.687
X148.473Y-130.546
X148.904Y-128.2
X148.946Y-107.798
X149.492Y-200.025
X149.984Y-130.578
X150.612Y-141.803
X151.257Y-177.546
X151.36Y-149.86
X151.384Y-160.274
X152.019Y-173.736
X152.64Y-112.663
X152.908Y-114.3
X155.575Y-166.008
X155.575Y-172.911
X155.575Y-204.216
X156.21Y-130.874
X156.718Y-175.641
X156.972Y-107.113
X157.734Y-114.427
X157.734Y-131.674
X158.369Y-161.734
X158.447Y-178.435
X159.385Y-177.546
X159.461Y-155.651
X161.163Y-161.734
X161.29Y-177.8
X161.798Y-187.198
X163.83Y-104.458
X164.719Y-159.512
X165.174Y-105.601
X165.456Y-151.181
X165.735Y-178.943
X166.116Y-102.87
X166.307Y-168.209
X166.37Y-149.225
X167.386Y-104.776
X167.386Y-161.036
X167.411Y-118.407
X167.767Y-116.967
X168.529Y-138.557
X168.542Y-124.46
X168.542Y-128.715
X169.418Y-106.426
X169.418Y-135.255
X169.545Y-132.969
X169.86Y-159.839
X170.053Y-109.22
X170.308Y-185.547
X170.93Y-158.115
X171.006Y-183.451
X171.196Y-110.109
X171.462Y-125.171
X171.639Y-186.499
X172.415Y-131.826
X174.142Y-177.597
X174.625Y-88.265
X174.752Y-147.574
X174.858Y-155.867
X175.133Y-107.696
X175.387Y-176.657
X175.684Y-142.965
X175.958Y-144.463
X176.016Y-154.217
X177.343Y-147.777
X178.02Y-149.38
X179.019Y-124.003
X179.171Y-131.309
X183.007Y-185.801
X183.388Y-199.263
X184.036Y-130.036
X184.277Y-168.148
X184.277Y-204.343
X185.166Y-131.369
X185.42Y-116.789
X185.801Y-192.405
X186.69Y-202.311
X188.163Y-157.074
X189.23Y-158.115
X192.151Y-199.263
X193.04Y-130.175
X193.042Y-190.342
X193.421Y-200.025
X193.929Y-195.326
X195.584Y-108.522
X196.233Y-167.086
X196.85Y-128.93
X196.85Y-110.236
X199.39Y-129.877
X200.025Y-190.754
X202.634Y-191.552
X203.835Y-189.865
X205.105Y-172.64
X205.105Y-192.405
X206.375Y-166.37
X206.375Y-189.103
X207.714Y-194.119
X208.407Y-181.927
X208.915Y-187.96
X210.185Y-169.418
X210.185Y-194.84
X210.693Y-148.59
X211.074Y-181.483
X212.598Y-146.558
X215.265Y-194.31
X215.9Y-143.002
X216.027Y-147.574
X216.535Y-186.5
X217.805Y-142.24
X219.075Y-174.244
X219.075Y-189.103
X219.558Y-149.758
X220.345Y-104.902
X220.345Y-110.236
X221.488Y-142.748
X221.492Y-195.421
X221.615Y-187.071
X222.885Y-193.04
X224.155Y-187.96
X225.425Y-191.389
X226.695Y-189.23
X227.876Y-202.755
X228.563Y-147.765
X228.854Y-140.716
X228.981Y-194.755
X229.235Y-190.5
X232.772Y-196.869
X234.315Y-192.278
X235.598Y-140.716
X235.712Y-130.048
X235.792Y-201.739
X236.093Y-120.523
X236.347Y-193.358
X238.01Y-201.361
X238.125Y-173.482
X238.15Y-137.414
X238.887Y-154.051
X239.839Y-123.839
X239.839Y-125.476
X242.062Y-177.292
X242.57Y-146.366
X242.951Y-165.671
X244.983Y-165.29
X245.11Y-124.079
X245.11Y-196.215
X246.382Y-146.874
X247.015Y-187.642
X247.269Y-194.691
X247.65Y-145.732
X249.936Y-140.018
X250.269Y-144.78
X252.73Y-151.448
X254.0Y-133.994
X254.031Y-156.273
X254.508Y-145.669
X254.635Y-161.417
X254.635Y-185.42
X255.143Y-152.527
X255.565Y-202.883
X256.54Y-133.35
X256.667Y-163.893
X257.048Y-199.965
X258.267Y-203.581
X259.08Y-133.985
X259.715Y-193.04
X259.715Y-203.073
X260.35Y-132.588
X261.947Y-200.723
X263.906Y-133.35
X263.906Y-139.192
X263.949Y-200.724
X264.986Y-162.75
X265.557Y-123.698
X267.208Y-153.289
X267.335Y-203.2
X268.351Y-201.422
X269.657Y-147.004
X269.875Y-202.819
X271.145Y-123.959
X272.415Y-177.8
X273.685Y-147.701
X274.955Y-146.62
X277.586Y-145.987
X281.295Y-136.398
X281.305Y-146.812
X285.115Y-136.779
X285.115Y-144.526
X287.655Y-135.89
T4
X77.47Y-97.79
X77.47Y-105.41
X77.47Y-107.823
X77.47Y-115.443
X81.915Y-165.1
X81.915Y-167.64
X81.915Y-170.18
X81.915Y-172.72
X81.915Y-175.26
X81.915Y-177.8
X81.915Y-180.34
X81.915Y-182.88
X81.915Y-185.42
X81.915Y-187.96
X89.535Y-165.1
X89.535Y-167.64
X89.535Y-170.18
X89.535Y-172.72
X89.535Y-175.26
X89.535Y-177.8
X89.535Y-180.34
X89.535Y-182.88
X89.535Y-185.42
X89.535Y-187.96
X101.092Y-174.625
X101.092Y-177.419
X108.712Y-174.625
X108.712Y-177.419
X109.728Y-192.278
X109.728Y-199.898
X111.887Y-174.625
X111.887Y-177.419
X112.141Y-192.278
X112.141Y-199.898
X119.507Y-174.625
X119.507Y-177.419
X156.337Y-77.597
X163.957Y-77.597
X166.878Y-188.087
X166.878Y-195.707
X178.625Y-133.35
X178.625Y-152.451
X180.405Y-133.35
X180.405Y-152.451
X182.185Y-133.35
X182.185Y-152.451
X183.965Y-133.35
X183.965Y-152.451
X185.745Y-133.35
X185.745Y-152.451
X187.525Y-133.35
X187.525Y-152.451
X189.305Y-133.35
X189.305Y-152.451
X191.085Y-133.35
X191.085Y-152.451
X192.865Y-133.35
X192.865Y-152.451
X194.645Y-133.35
X194.645Y-152.451
X196.425Y-133.35
X196.425Y-152.451
X198.205Y-133.35
X198.205Y-152.451
X199.985Y-133.35
X199.985Y-152.451
X201.765Y-133.35
X201.765Y-152.451
X203.545Y-133.35
X203.545Y-152.451
X204.47Y-84.455
X204.47Y-92.075
X204.47Y-94.615
X204.47Y-102.235
X205.325Y-133.35
X205.325Y-152.451
X207.01Y-84.455
X207.01Y-92.075
X207.01Y-94.615
X207.01Y-102.235
X207.105Y-133.35
X207.105Y-152.451
X207.391Y-106.934
X207.391Y-114.554
X208.885Y-133.35
X208.885Y-152.451
X209.55Y-94.615
X209.55Y-102.235
X209.804Y-106.934
X209.804Y-114.554
X210.665Y-133.35
X210.665Y-152.451
X212.09Y-94.615
X212.09Y-102.235
X212.217Y-106.934
X212.217Y-114.554
X212.445Y-133.35
X212.445Y-152.451
X214.225Y-133.35
X214.225Y-152.451
X216.005Y-133.35
X216.005Y-152.451
X217.785Y-133.35
X217.785Y-152.451
X217.805Y-116.205
X218.44Y-91.44
X218.44Y-99.06
X219.565Y-133.35
X219.565Y-152.451
X220.98Y-91.44
X220.98Y-99.06
X221.345Y-133.35
X221.345Y-152.451
X223.125Y-133.35
X223.125Y-152.451
X223.52Y-91.44
X223.52Y-99.06
X224.905Y-133.35
X224.905Y-152.451
X225.425Y-116.205
X226.06Y-91.44
X226.06Y-99.06
X226.685Y-133.35
X226.685Y-152.451
X227.965Y-116.205
X228.465Y-133.35
X228.465Y-152.451
X228.6Y-91.44
X228.6Y-99.06
X230.245Y-133.35
X230.245Y-152.451
X231.14Y-91.44
X231.14Y-99.06
X232.025Y-133.35
X232.025Y-152.451
X233.68Y-91.44
X233.68Y-99.06
X233.805Y-133.35
X233.805Y-152.451
X235.585Y-116.205
X236.22Y-91.44
X236.22Y-99.06
T5
X109.22Y-69.85
X110.49Y-69.85
X111.76Y-69.85
T6
X81.28Y-99.06
X81.28Y-101.6
X81.28Y-104.14
X81.28Y-106.68
X81.28Y-109.22
X81.28Y-111.76
X81.28Y-114.3
X81.28Y-116.84
X81.28Y-119.38
X85.09Y-149.86
X85.09Y-157.48
X87.63Y-149.86
X87.63Y-157.48
X90.17Y-149.86
X90.17Y-157.48
X92.461Y-163.815
X92.461Y-171.435
X92.71Y-122.809
X92.71Y-130.429
X92.71Y-136.144
X92.71Y-143.764
X92.71Y-149.86
X92.71Y-157.48
X95.001Y-163.815
X95.001Y-171.435
X95.25Y-122.809
X95.25Y-130.429
X95.25Y-136.144
X95.25Y-143.764
X95.25Y-149.86
X95.25Y-157.48
X97.541Y-163.815
X97.541Y-171.435
X97.79Y-122.809
X97.79Y-130.429
X97.79Y-136.144
X97.79Y-143.764
X97.79Y-149.86
X97.79Y-157.48
X100.081Y-163.815
X100.081Y-171.435
X100.33Y-122.809
X100.33Y-130.429
X100.33Y-136.144
X100.33Y-143.764
X100.33Y-149.86
X100.33Y-157.48
X102.621Y-163.815
X102.621Y-171.435
X102.87Y-122.809
X102.87Y-130.429
X102.87Y-136.144
X102.87Y-143.764
X102.87Y-149.86
X102.87Y-157.48
X105.161Y-163.815
X105.161Y-171.435
X105.41Y-122.809
X105.41Y-130.429
X105.41Y-136.144
X105.41Y-143.764
X105.41Y-149.86
X105.41Y-157.48
X107.701Y-163.815
X107.701Y-171.435
X107.95Y-122.809
X107.95Y-130.429
X107.95Y-136.144
X107.95Y-143.764
X107.95Y-149.86
X107.95Y-157.48
X109.22Y-76.2
X110.49Y-82.55
X110.49Y-85.09
X110.49Y-87.63
X110.49Y-90.17
X110.49Y-92.71
X110.49Y-95.25
X111.72Y-76.2
X115.57Y-149.86
X115.57Y-157.48
X115.58Y-192.278
X115.58Y-199.898
X115.702Y-163.815
X115.702Y-171.435
X118.11Y-149.86
X118.11Y-157.48
X118.12Y-192.278
X118.12Y-199.898
X118.242Y-163.815
X118.242Y-171.435
X120.65Y-149.86
X120.65Y-157.48
X120.66Y-192.278
X120.66Y-199.898
X120.782Y-163.815
X120.782Y-171.435
X123.19Y-149.86
X123.19Y-157.48
X123.2Y-192.278
X123.2Y-199.898
X123.322Y-163.815
X123.322Y-171.435
X125.73Y-149.86
X125.73Y-157.48
X125.862Y-163.815
X125.862Y-171.435
X126.397Y-193.04
X126.437Y-198.12
X128.27Y-149.86
X128.27Y-157.48
X128.402Y-163.815
X128.402Y-171.435
X128.897Y-193.04
X128.937Y-198.12
X130.556Y-136.144
X130.556Y-143.764
X130.81Y-149.86
X130.81Y-157.48
X130.942Y-163.815
X130.942Y-171.435
X133.096Y-136.144
X133.096Y-143.764
X133.35Y-149.86
X133.35Y-157.48
X135.636Y-136.144
X135.636Y-143.764
X135.89Y-149.86
X135.89Y-157.48
X138.176Y-136.144
X138.176Y-143.764
X138.43Y-149.86
X138.43Y-157.48
X139.065Y-163.815
X139.065Y-171.435
X140.716Y-136.144
X140.716Y-143.764
X140.97Y-149.86
X140.97Y-157.48
X141.605Y-163.815
X141.605Y-171.435
X141.605Y-182.225
X141.605Y-184.765
X141.605Y-187.305
X141.605Y-189.845
X141.605Y-192.385
X141.605Y-194.925
X143.256Y-136.144
X143.256Y-143.764
X143.51Y-149.86
X143.51Y-157.48
X144.145Y-163.815
X144.145Y-171.435
X144.145Y-179.685
X144.145Y-182.225
X144.145Y-184.765
X144.145Y-187.305
X144.145Y-189.845
X144.145Y-192.385
X144.145Y-194.925
X144.145Y-197.465
X145.796Y-136.144
X145.796Y-143.764
X146.05Y-149.86
X146.05Y-157.48
X146.685Y-163.815
X146.685Y-171.435
X146.685Y-179.685
X146.685Y-182.225
X146.685Y-194.925
X146.685Y-197.465
X147.077Y-91.425
X147.077Y-99.045
X148.336Y-136.144
X148.336Y-143.764
X148.59Y-111.76
X148.59Y-114.3
X148.59Y-116.84
X148.59Y-119.38
X148.59Y-121.92
X148.59Y-124.46
X148.59Y-149.86
X148.59Y-157.48
X149.225Y-163.815
X149.225Y-171.435
X149.225Y-179.685
X149.225Y-182.225
X149.225Y-194.925
X149.225Y-197.465
X149.617Y-91.425
X149.617Y-99.045
X151.13Y-109.22
X151.13Y-111.76
X151.13Y-114.3
X151.13Y-116.84
X151.13Y-119.38
X151.13Y-121.92
X151.13Y-124.46
X151.13Y-127.0
X151.765Y-163.815
X151.765Y-171.435
X151.765Y-179.685
X151.765Y-182.225
X151.765Y-194.925
X151.765Y-197.465
X152.157Y-91.425
X152.157Y-99.045
X153.67Y-109.22
X153.67Y-111.76
X153.67Y-124.46
X153.67Y-127.0
X154.051Y-202.565
X154.305Y-163.815
X154.305Y-171.435
X154.305Y-179.685
X154.305Y-182.225
X154.305Y-194.925
X154.305Y-197.465
X154.697Y-91.425
X154.697Y-99.045
X156.21Y-109.22
X156.21Y-111.76
X156.21Y-124.46
X156.21Y-127.0
X156.845Y-163.815
X156.845Y-171.435
X156.845Y-179.685
X156.845Y-182.225
X156.845Y-184.765
X156.845Y-187.305
X156.845Y-189.845
X156.845Y-192.385
X156.845Y-194.925
X156.845Y-197.465
X157.237Y-91.425
X157.237Y-99.045
X158.75Y-109.22
X158.75Y-111.76
X158.75Y-124.46
X158.75Y-127.0
X159.385Y-163.815
X159.385Y-171.435
X159.385Y-182.225
X159.385Y-184.765
X159.385Y-187.305
X159.385Y-189.845
X159.385Y-192.385
X159.385Y-194.925
X159.777Y-91.425
X159.777Y-99.045
X161.29Y-109.22
X161.29Y-111.76
X161.29Y-124.46
X161.29Y-127.0
X161.671Y-202.565
X161.925Y-163.815
X161.925Y-171.435
X162.317Y-91.425
X162.317Y-99.045
X163.83Y-109.22
X163.83Y-111.76
X163.83Y-114.3
X163.83Y-116.84
X163.83Y-119.38
X163.83Y-121.92
X163.83Y-124.46
X163.83Y-127.0
X164.857Y-91.425
X164.857Y-99.045
X166.37Y-111.76
X166.37Y-114.3
X166.37Y-116.84
X166.37Y-119.38
X166.37Y-121.92
X166.37Y-124.46
X166.878Y-175.26
X166.878Y-177.8
X166.878Y-180.34
X166.878Y-182.88
X166.878Y-185.42
X170.18Y-163.83
X170.18Y-171.45
X172.085Y-91.44
X172.085Y-99.06
X172.72Y-111.76
X172.72Y-127.0
X172.72Y-163.83
X172.72Y-171.45
X172.72Y-182.225
X172.72Y-184.765
X172.72Y-187.305
X172.72Y-189.845
X172.72Y-192.385
X172.72Y-194.925
X174.625Y-91.44
X174.625Y-99.06
X175.26Y-111.76
X175.26Y-127.0
X175.26Y-163.83
X175.26Y-171.45
X175.26Y-179.685
X175.26Y-182.225
X175.26Y-184.765
X175.26Y-187.305
X175.26Y-189.845
X175.26Y-192.385
X175.26Y-194.925
X175.26Y-197.465
X177.165Y-91.44
X177.165Y-99.06
X177.8Y-111.76
X177.8Y-127.0
X177.8Y-163.83
X177.8Y-171.45
X177.8Y-179.685
X177.8Y-182.225
X177.8Y-194.925
X177.8Y-197.465
X179.705Y-91.44
X179.705Y-99.06
X180.34Y-111.76
X180.34Y-127.0
X180.34Y-163.83
X180.34Y-171.45
X180.34Y-179.685
X180.34Y-182.225
X180.34Y-194.925
X180.34Y-197.465
X182.88Y-111.76
X182.88Y-127.0
X182.88Y-163.83
X182.88Y-171.45
X182.88Y-179.685
X182.88Y-182.225
X182.88Y-194.925
X182.88Y-197.465
X185.42Y-91.44
X185.42Y-99.06
X185.42Y-111.76
X185.42Y-127.0
X185.42Y-163.83
X185.42Y-171.45
X185.42Y-179.685
X185.42Y-182.225
X185.42Y-194.925
X185.42Y-197.465
X185.776Y-86.995
X187.96Y-91.44
X187.96Y-99.06
X187.96Y-111.76
X187.96Y-127.0
X187.96Y-163.83
X187.96Y-171.45
X187.96Y-179.685
X187.96Y-182.225
X187.96Y-184.765
X187.96Y-187.305
X187.96Y-189.845
X187.96Y-192.385
X187.96Y-194.925
X187.96Y-197.465
X188.276Y-86.995
X190.5Y-91.44
X190.5Y-99.06
X190.5Y-102.235
X190.5Y-111.76
X190.5Y-127.0
X190.5Y-163.83
X190.5Y-171.45
X190.5Y-182.225
X190.5Y-184.765
X190.5Y-187.305
X190.5Y-189.845
X190.5Y-192.385
X190.5Y-194.925
X193.0Y-102.235
X193.04Y-91.44
X193.04Y-99.06
X193.04Y-111.76
X193.04Y-127.0
X193.04Y-163.83
X193.04Y-171.45
X195.58Y-91.44
X195.58Y-99.06
X195.58Y-102.235
X195.58Y-111.76
X195.58Y-127.0
X198.08Y-102.235
X198.12Y-81.28
X198.12Y-83.78
X198.12Y-91.44
X198.12Y-99.06
X198.12Y-111.76
X198.12Y-127.0
X200.66Y-91.44
X200.66Y-99.06
X200.66Y-111.76
X200.66Y-127.0
X201.295Y-163.81
X201.295Y-179.05
X201.295Y-184.15
X201.295Y-199.39
X203.835Y-163.81
X203.835Y-179.05
X203.835Y-184.15
X203.835Y-199.39
X206.375Y-163.81
X206.375Y-179.05
X206.375Y-184.15
X206.375Y-199.39
X208.915Y-163.81
X208.915Y-179.05
X208.915Y-184.15
X208.915Y-199.39
X211.455Y-163.81
X211.455Y-179.05
X211.455Y-184.15
X211.455Y-199.39
X212.344Y-85.09
X212.344Y-87.59
X213.995Y-163.81
X213.995Y-179.05
X213.995Y-184.15
X213.995Y-199.39
X216.535Y-163.81
X216.535Y-179.05
X216.535Y-184.15
X216.535Y-199.39
X219.075Y-163.81
X219.075Y-179.05
X219.075Y-184.15
X219.075Y-199.39
X219.456Y-85.09
X219.456Y-87.59
X221.615Y-163.81
X221.615Y-179.05
X221.615Y-184.15
X221.615Y-199.39
X224.155Y-163.81
X224.155Y-179.05
X224.155Y-184.15
X224.155Y-199.39
X225.425Y-156.21
X225.425Y-158.71
X226.568Y-85.09
X226.568Y-87.59
X226.695Y-163.81
X226.695Y-179.05
X226.695Y-184.15
X226.695Y-199.39
X229.235Y-163.81
X229.235Y-179.05
X229.235Y-184.15
X229.235Y-199.39
X230.68Y-157.48
X231.775Y-163.81
X231.775Y-179.05
X231.775Y-184.15
X231.775Y-199.39
X233.68Y-85.09
X233.68Y-87.59
X234.315Y-163.81
X234.315Y-179.05
X234.315Y-184.15
X234.315Y-199.39
X235.56Y-157.48
X236.855Y-184.15
X236.855Y-199.39
X237.871Y-79.248
X237.871Y-81.748
X239.395Y-184.15
X239.395Y-199.39
X240.665Y-156.23
X240.665Y-158.73
X241.29Y-118.755
X241.29Y-126.375
X241.29Y-142.25
X241.29Y-149.87
X241.3Y-102.87
X241.3Y-105.37
X241.3Y-109.26
X241.3Y-111.76
X241.3Y-130.81
X241.3Y-138.43
X243.83Y-118.755
X243.83Y-126.375
X243.83Y-142.25
X243.83Y-149.87
X243.84Y-130.81
X243.84Y-138.43
X244.983Y-79.2
X244.983Y-81.7
X246.37Y-118.755
X246.37Y-126.375
X246.37Y-142.25
X246.37Y-149.87
X246.38Y-130.81
X246.38Y-138.43
X248.91Y-118.755
X248.91Y-126.375
X248.91Y-142.25
X248.91Y-149.87
X248.92Y-130.81
X248.92Y-138.43
X249.555Y-170.18
X249.555Y-172.72
X249.555Y-175.26
X249.555Y-177.8
X249.555Y-180.34
X249.555Y-182.88
X249.555Y-185.42
X249.555Y-187.96
X249.555Y-190.5
X249.555Y-193.04
X249.555Y-195.58
X251.45Y-118.755
X251.45Y-126.375
X251.45Y-142.25
X251.45Y-149.87
X251.46Y-130.81
X251.46Y-138.43
X252.095Y-167.64
X252.095Y-170.18
X252.095Y-172.72
X252.095Y-175.26
X252.095Y-177.8
X252.095Y-180.34
X252.095Y-182.88
X252.095Y-185.42
X252.095Y-187.96
X252.095Y-190.5
X252.095Y-193.04
X252.095Y-195.58
X252.095Y-198.12
X253.99Y-118.755
X253.99Y-126.375
X253.99Y-142.25
X253.99Y-149.87
X254.0Y-130.81
X254.0Y-138.43
X254.635Y-167.64
X254.635Y-170.18
X254.635Y-195.58
X254.635Y-198.12
X256.53Y-118.755
X256.53Y-126.375
X256.53Y-142.25
X256.53Y-149.87
X256.54Y-130.81
X256.54Y-138.43
X257.175Y-167.64
X257.175Y-170.18
X257.175Y-195.58
X257.175Y-198.12
X259.07Y-118.755
X259.07Y-126.375
X259.07Y-142.25
X259.07Y-149.87
X259.08Y-130.81
X259.08Y-138.43
X259.715Y-167.64
X259.715Y-170.18
X259.715Y-195.58
X259.715Y-198.12
X261.61Y-118.755
X261.61Y-126.375
X261.61Y-142.25
X261.61Y-149.87
X261.62Y-130.81
X261.62Y-138.43
X262.255Y-167.64
X262.255Y-170.18
X262.255Y-195.58
X262.255Y-198.12
X264.795Y-167.64
X264.795Y-170.18
X264.795Y-195.58
X264.795Y-198.12
X267.335Y-167.64
X267.335Y-170.18
X267.335Y-195.58
X267.335Y-198.12
X268.595Y-130.82
X268.595Y-138.44
X268.605Y-118.745
X268.605Y-126.365
X268.605Y-142.24
X268.605Y-149.86
X269.875Y-167.64
X269.875Y-170.18
X269.875Y-195.58
X269.875Y-198.12
X271.135Y-130.82
X271.135Y-138.44
X271.145Y-118.745
X271.145Y-126.365
X271.145Y-142.24
X271.145Y-149.86
X272.415Y-167.64
X272.415Y-170.18
X272.415Y-195.58
X272.415Y-198.12
X273.675Y-130.82
X273.675Y-138.44
X273.685Y-118.745
X273.685Y-126.365
X273.685Y-142.24
X273.685Y-149.86
X274.955Y-167.64
X274.955Y-170.18
X274.955Y-195.58
X274.955Y-198.12
X276.215Y-130.82
X276.215Y-138.44
X276.225Y-118.745
X276.225Y-126.365
X276.225Y-142.24
X276.225Y-149.86
X277.495Y-167.64
X277.495Y-170.18
X277.495Y-172.72
X277.495Y-175.26
X277.495Y-177.8
X277.495Y-180.34
X277.495Y-182.88
X277.495Y-185.42
X277.495Y-187.96
X277.495Y-190.5
X277.495Y-193.04
X277.495Y-195.58
X277.495Y-198.12
X278.755Y-130.82
X278.755Y-138.44
X278.765Y-118.745
X278.765Y-126.365
X278.765Y-142.24
X278.765Y-149.86
X280.035Y-170.18
X280.035Y-172.72
X280.035Y-175.26
X280.035Y-177.8
X280.035Y-180.34
X280.035Y-182.88
X280.035Y-185.42
X280.035Y-187.96
X280.035Y-190.5
X280.035Y-193.04
X280.035Y-195.58
X281.295Y-130.82
X281.295Y-138.44
X281.305Y-118.745
X281.305Y-126.365
X281.305Y-142.24
X281.305Y-149.86
X283.835Y-130.82
X283.835Y-138.44
X283.845Y-118.745
X283.845Y-126.365
X283.845Y-142.24
X283.845Y-149.86
X286.375Y-130.82
X286.375Y-138.44
X286.385Y-118.745
X286.385Y-126.365
X286.385Y-142.24
X286.385Y-149.86
X288.915Y-130.82
X288.915Y-138.44
X288.925Y-118.745
X288.925Y-126.365
X288.925Y-142.24
X288.925Y-149.86
T7
X123.904Y-72.263
X123.904Y-74.755
X125.954Y-72.263
X128.554Y-72.263
X130.604Y-72.263
X130.604Y-74.755
X235.265Y-72.136
X235.265Y-74.628
X241.965Y-72.136
X241.965Y-74.628
T8
X276.169Y-76.751
X276.169Y-78.751
X278.669Y-76.751
X278.669Y-78.751
T9
X66.099Y-177.78
X66.099Y-182.28
X69.215Y-87.63
X69.215Y-90.4
X69.215Y-93.17
X69.215Y-95.94
X69.215Y-120.105
X69.215Y-122.875
X69.215Y-125.645
X69.215Y-128.415
X72.055Y-86.245
X72.055Y-89.015
X72.055Y-91.785
X72.055Y-94.555
X72.055Y-97.325
X72.055Y-118.72
X72.055Y-121.49
X72.055Y-124.26
X72.055Y-127.03
X72.055Y-129.8
X73.66Y-152.4
X73.66Y-154.94
X73.66Y-157.48
X73.66Y-160.02
X73.66Y-162.56
X73.66Y-165.1
X73.66Y-167.64
X73.66Y-170.18
X76.2Y-152.4
X76.2Y-154.94
X76.2Y-157.48
X76.2Y-160.02
X76.2Y-162.56
X76.2Y-165.1
X76.2Y-167.64
X76.2Y-170.18
X120.65Y-91.44
X120.65Y-93.98
X120.65Y-96.52
X120.65Y-99.06
X120.65Y-101.6
X120.65Y-104.14
X120.65Y-106.68
X120.65Y-109.22
X120.65Y-111.76
X120.65Y-114.3
X120.65Y-116.84
X120.65Y-119.38
X120.65Y-135.89
X120.65Y-138.43
X120.65Y-140.97
X123.19Y-91.44
X123.19Y-93.98
X123.19Y-96.52
X123.19Y-99.06
X123.19Y-101.6
X123.19Y-104.14
X123.19Y-106.68
X123.19Y-109.22
X123.19Y-111.76
X123.19Y-114.3
X123.19Y-116.84
X123.19Y-119.38
X123.19Y-135.89
X123.19Y-138.43
X123.19Y-140.97
X137.16Y-91.44
X137.16Y-93.98
X137.16Y-96.52
X137.16Y-99.06
X137.16Y-101.6
X137.16Y-104.14
X137.16Y-106.68
X137.16Y-109.22
X137.16Y-111.76
X137.16Y-114.3
X137.16Y-116.84
X137.16Y-119.38
X139.7Y-91.44
X139.7Y-93.98
X139.7Y-96.52
X139.7Y-99.06
X139.7Y-101.6
X139.7Y-104.14
X139.7Y-106.68
X139.7Y-109.22
X139.7Y-111.76
X139.7Y-114.3
X139.7Y-116.84
X139.7Y-119.38
X153.601Y-72.434
X153.924Y-150.876
X153.924Y-153.416
X153.924Y-155.956
X154.986Y-69.594
X156.371Y-72.434
X157.48Y-135.255
X157.48Y-142.875
X157.756Y-69.594
X159.141Y-72.434
X160.526Y-69.594
X161.911Y-72.434
X163.24Y-154.178
X163.296Y-69.594
X164.681Y-72.434
X168.24Y-154.178
X172.72Y-135.255
X172.72Y-142.875
X213.995Y-121.285
X213.995Y-128.905
X229.235Y-121.285
X229.235Y-128.905
X238.125Y-180.34
X240.665Y-180.34
X243.205Y-180.34
X259.08Y-160.401
X261.62Y-160.401
X262.427Y-86.36
X267.427Y-86.36
X268.859Y-160.401
X271.399Y-160.401
X273.939Y-160.401
X276.479Y-160.401
X279.019Y-160.401
X281.559Y-160.401
X287.02Y-175.26
X287.02Y-190.5
X294.64Y-175.26
X294.64Y-190.5
T10
X206.495Y-75.898
X206.495Y-80.898
X208.915Y-65.992
X208.995Y-78.398
X211.495Y-65.998
X213.995Y-75.898
X213.995Y-80.898
X216.495Y-65.998
X218.995Y-78.398
X219.075Y-65.992
X221.495Y-75.898
X221.495Y-80.898
T11
X68.599Y-176.53
X68.599Y-183.53
X93.36Y-109.22
X113.85Y-109.22
T12
X120.495Y-69.263
X127.254Y-68.453
X134.013Y-69.263
X231.856Y-69.136
X238.615Y-68.326
X245.374Y-69.136
T13
X271.399Y-74.041
X283.439Y-74.041
T14
X71.755Y-79.285
X71.755Y-104.285
X71.755Y-111.76
X71.755Y-136.76
X146.641Y-72.134
X171.641Y-72.134
T6
X192.728Y-74.433G85X192.728Y-74.933
G05
X197.328Y-74.433G85X197.328Y-74.933
G05
T9
X192.278Y-67.033G85X192.278Y-67.333
G05
X197.778Y-67.033G85X197.778Y-67.333
G05
X254.38Y-73.374G85X254.38Y-75.374
G05
X260.08Y-71.374G85X258.08Y-71.374
G05
X260.08Y-77.374G85X258.08Y-77.374
G05
T0
M30
