%TF.GenerationSoftware,KiCad,Pcbnew,7.0.6-7.0.6~ubuntu22.04.1*%
%TF.CreationDate,2023-07-20T21:28:58+02:00*%
%TF.ProjectId,sbc,7362632e-6b69-4636-9164-5f7063625858,rev?*%
%TF.SameCoordinates,Original*%
%TF.FileFunction,Soldermask,Bot*%
%TF.FilePolarity,Negative*%
%FSLAX46Y46*%
G04 Gerber Fmt 4.6, Leading zero omitted, Abs format (unit mm)*
G04 Created by KiCad (PCBNEW 7.0.6-7.0.6~ubuntu22.04.1) date 2023-07-20 21:28:58*
%MOMM*%
%LPD*%
G01*
G04 APERTURE LIST*
G04 Aperture macros list*
%AMRoundRect*
0 Rectangle with rounded corners*
0 $1 Rounding radius*
0 $2 $3 $4 $5 $6 $7 $8 $9 X,Y pos of 4 corners*
0 Add a 4 corners polygon primitive as box body*
4,1,4,$2,$3,$4,$5,$6,$7,$8,$9,$2,$3,0*
0 Add four circle primitives for the rounded corners*
1,1,$1+$1,$2,$3*
1,1,$1+$1,$4,$5*
1,1,$1+$1,$6,$7*
1,1,$1+$1,$8,$9*
0 Add four rect primitives between the rounded corners*
20,1,$1+$1,$2,$3,$4,$5,0*
20,1,$1+$1,$4,$5,$6,$7,0*
20,1,$1+$1,$6,$7,$8,$9,0*
20,1,$1+$1,$8,$9,$2,$3,0*%
G04 Aperture macros list end*
%ADD10C,1.100000*%
%ADD11O,1.800000X2.300000*%
%ADD12O,2.000000X2.300000*%
%ADD13R,1.422400X1.422400*%
%ADD14C,1.422400*%
%ADD15C,3.200000*%
%ADD16R,2.000000X2.000000*%
%ADD17C,2.000000*%
%ADD18C,1.400000*%
%ADD19O,1.400000X1.400000*%
%ADD20R,1.200000X1.200000*%
%ADD21C,1.200000*%
%ADD22R,1.600000X1.600000*%
%ADD23C,1.600000*%
%ADD24R,1.700000X1.700000*%
%ADD25O,1.700000X1.700000*%
%ADD26R,1.600000X2.400000*%
%ADD27O,1.600000X2.400000*%
%ADD28R,2.500000X2.500000*%
%ADD29C,2.500000*%
%ADD30O,1.600000X1.600000*%
%ADD31R,3.000000X3.000000*%
%ADD32C,3.000000*%
%ADD33C,1.500000*%
%ADD34C,4.000000*%
%ADD35C,1.700000*%
%ADD36C,3.500000*%
%ADD37C,1.000000*%
%ADD38C,2.300000*%
%ADD39C,2.400000*%
%ADD40C,1.521460*%
%ADD41C,3.721100*%
%ADD42R,1.050000X1.500000*%
%ADD43O,1.050000X1.500000*%
%ADD44R,1.200000X1.700000*%
%ADD45O,1.200000X1.700000*%
%ADD46R,3.500000X3.500000*%
%ADD47RoundRect,0.750000X-1.000000X0.750000X-1.000000X-0.750000X1.000000X-0.750000X1.000000X0.750000X0*%
%ADD48RoundRect,0.875000X-0.875000X0.875000X-0.875000X-0.875000X0.875000X-0.875000X0.875000X0.875000X0*%
%ADD49RoundRect,0.250000X-0.650000X0.412500X-0.650000X-0.412500X0.650000X-0.412500X0.650000X0.412500X0*%
%ADD50RoundRect,0.250000X0.412500X0.650000X-0.412500X0.650000X-0.412500X-0.650000X0.412500X-0.650000X0*%
%ADD51RoundRect,0.250000X-0.412500X-0.650000X0.412500X-0.650000X0.412500X0.650000X-0.412500X0.650000X0*%
%ADD52RoundRect,0.250000X0.650000X-0.412500X0.650000X0.412500X-0.650000X0.412500X-0.650000X-0.412500X0*%
G04 APERTURE END LIST*
D10*
%TO.C,J3*%
X192528000Y-73477000D03*
X197528000Y-73477000D03*
D11*
X197328000Y-77477000D03*
X192728000Y-77477000D03*
D12*
X192278000Y-69977000D03*
X197778000Y-69977000D03*
%TD*%
D13*
%TO.C,U11*%
X151765000Y-182225000D03*
D14*
X149225000Y-179685000D03*
X149225000Y-182225000D03*
X146685000Y-179685000D03*
X146685000Y-182225000D03*
X144145000Y-179685000D03*
X141605000Y-182225000D03*
X144145000Y-182225000D03*
X141605000Y-184765000D03*
X144145000Y-184765000D03*
X141605000Y-187305000D03*
X144145000Y-187305000D03*
X141605000Y-189845000D03*
X144145000Y-189845000D03*
X141605000Y-192385000D03*
X144145000Y-192385000D03*
X141605000Y-194925000D03*
X144145000Y-197465000D03*
X144145000Y-194925000D03*
X146685000Y-197465000D03*
X146685000Y-194925000D03*
X149225000Y-197465000D03*
X149225000Y-194925000D03*
X151765000Y-197465000D03*
X151765000Y-194925000D03*
X154305000Y-197465000D03*
X154305000Y-194925000D03*
X156845000Y-197465000D03*
X159385000Y-194925000D03*
X156845000Y-194925000D03*
X159385000Y-192385000D03*
X156845000Y-192385000D03*
X159385000Y-189845000D03*
X156845000Y-189845000D03*
X159385000Y-187305000D03*
X156845000Y-187305000D03*
X159385000Y-184765000D03*
X156845000Y-184765000D03*
X159385000Y-182225000D03*
X156845000Y-179685000D03*
X156845000Y-182225000D03*
X154305000Y-179685000D03*
X154305000Y-182225000D03*
X151765000Y-179685000D03*
%TD*%
D15*
%TO.C,H2*%
X297815000Y-68580000D03*
%TD*%
D16*
%TO.C,C3*%
X163240323Y-154178000D03*
D17*
X168240323Y-154178000D03*
%TD*%
D15*
%TO.C,H3*%
X297815000Y-200660000D03*
%TD*%
D18*
%TO.C,R30*%
X207391000Y-106934000D03*
D19*
X207391000Y-114554000D03*
%TD*%
D18*
%TO.C,R10*%
X81915000Y-170180000D03*
D19*
X89535000Y-170180000D03*
%TD*%
D18*
%TO.C,R6*%
X81915000Y-177800000D03*
D19*
X89535000Y-177800000D03*
%TD*%
D20*
%TO.C,C38*%
X205740000Y-129540000D03*
D21*
X207740000Y-129540000D03*
%TD*%
D15*
%TO.C,H1*%
X68580000Y-68580000D03*
%TD*%
D22*
%TO.C,C46*%
X241300000Y-111760000D03*
D23*
X241300000Y-109260000D03*
%TD*%
D24*
%TO.C,JTAG1*%
X281559000Y-160401000D03*
D25*
X279019000Y-160401000D03*
X276479000Y-160401000D03*
X273939000Y-160401000D03*
X271399000Y-160401000D03*
X268859000Y-160401000D03*
%TD*%
D18*
%TO.C,R27*%
X207010000Y-102235000D03*
D19*
X207010000Y-94615000D03*
%TD*%
D26*
%TO.C,U12*%
X161925000Y-163815000D03*
D27*
X159385000Y-163815000D03*
X156845000Y-163815000D03*
X154305000Y-163815000D03*
X151765000Y-163815000D03*
X149225000Y-163815000D03*
X146685000Y-163815000D03*
X144145000Y-163815000D03*
X141605000Y-163815000D03*
X139065000Y-163815000D03*
X139065000Y-171435000D03*
X141605000Y-171435000D03*
X144145000Y-171435000D03*
X146685000Y-171435000D03*
X149225000Y-171435000D03*
X151765000Y-171435000D03*
X154305000Y-171435000D03*
X156845000Y-171435000D03*
X159385000Y-171435000D03*
X161925000Y-171435000D03*
%TD*%
D26*
%TO.C,U7*%
X107950000Y-136144000D03*
D27*
X105410000Y-136144000D03*
X102870000Y-136144000D03*
X100330000Y-136144000D03*
X97790000Y-136144000D03*
X95250000Y-136144000D03*
X92710000Y-136144000D03*
X92710000Y-143764000D03*
X95250000Y-143764000D03*
X97790000Y-143764000D03*
X100330000Y-143764000D03*
X102870000Y-143764000D03*
X105410000Y-143764000D03*
X107950000Y-143764000D03*
%TD*%
D18*
%TO.C,R40*%
X231140000Y-91440000D03*
D19*
X231140000Y-99060000D03*
%TD*%
D26*
%TO.C,U26*%
X200660000Y-91440000D03*
D27*
X198120000Y-91440000D03*
X195580000Y-91440000D03*
X193040000Y-91440000D03*
X190500000Y-91440000D03*
X187960000Y-91440000D03*
X185420000Y-91440000D03*
X185420000Y-99060000D03*
X187960000Y-99060000D03*
X190500000Y-99060000D03*
X193040000Y-99060000D03*
X195580000Y-99060000D03*
X198120000Y-99060000D03*
X200660000Y-99060000D03*
%TD*%
D24*
%TO.C,JP2*%
X261620000Y-160401000D03*
D25*
X259080000Y-160401000D03*
%TD*%
D18*
%TO.C,R7*%
X81915000Y-185420000D03*
D19*
X89535000Y-185420000D03*
%TD*%
D28*
%TO.C,X3*%
X213995000Y-128905000D03*
D29*
X229235000Y-128905000D03*
X229235000Y-121285000D03*
X213995000Y-121285000D03*
%TD*%
D18*
%TO.C,R31*%
X225425000Y-116205000D03*
D19*
X217805000Y-116205000D03*
%TD*%
D22*
%TO.C,RR1*%
X81280000Y-99060000D03*
D30*
X81280000Y-101600000D03*
X81280000Y-104140000D03*
X81280000Y-106680000D03*
X81280000Y-109220000D03*
X81280000Y-111760000D03*
X81280000Y-114300000D03*
X81280000Y-116840000D03*
X81280000Y-119380000D03*
%TD*%
D23*
%TO.C,C32*%
X225425000Y-156210000D03*
X225425000Y-158710000D03*
%TD*%
D22*
%TO.C,C56*%
X232410000Y-87757000D03*
D23*
X232410000Y-85257000D03*
%TD*%
D18*
%TO.C,R26*%
X204470000Y-94615000D03*
D19*
X204470000Y-102235000D03*
%TD*%
D15*
%TO.C,H4*%
X68580000Y-200660000D03*
%TD*%
D26*
%TO.C,U28*%
X107701000Y-163815000D03*
D27*
X105161000Y-163815000D03*
X102621000Y-163815000D03*
X100081000Y-163815000D03*
X97541000Y-163815000D03*
X95001000Y-163815000D03*
X92461000Y-163815000D03*
X92461000Y-171435000D03*
X95001000Y-171435000D03*
X97541000Y-171435000D03*
X100081000Y-171435000D03*
X102621000Y-171435000D03*
X105161000Y-171435000D03*
X107701000Y-171435000D03*
%TD*%
D20*
%TO.C,C17*%
X164675600Y-103124000D03*
D21*
X162675600Y-103124000D03*
%TD*%
D22*
%TO.C,C51*%
X239903000Y-87757000D03*
D23*
X239903000Y-85257000D03*
%TD*%
D22*
%TO.C,C50*%
X217424000Y-87630000D03*
D23*
X217424000Y-85130000D03*
%TD*%
D18*
%TO.C,R25*%
X204470000Y-84455000D03*
D19*
X204470000Y-92075000D03*
%TD*%
D22*
%TO.C,C43*%
X210185000Y-90170000D03*
D23*
X212685000Y-90170000D03*
%TD*%
D22*
%TO.C,D1*%
X154051000Y-202565000D03*
D30*
X161671000Y-202565000D03*
%TD*%
D26*
%TO.C,U21*%
X261620000Y-130810000D03*
D27*
X259080000Y-130810000D03*
X256540000Y-130810000D03*
X254000000Y-130810000D03*
X251460000Y-130810000D03*
X248920000Y-130810000D03*
X246380000Y-130810000D03*
X243840000Y-130810000D03*
X241300000Y-130810000D03*
X241300000Y-138430000D03*
X243840000Y-138430000D03*
X246380000Y-138430000D03*
X248920000Y-138430000D03*
X251460000Y-138430000D03*
X254000000Y-138430000D03*
X256540000Y-138430000D03*
X259080000Y-138430000D03*
X261620000Y-138430000D03*
%TD*%
D26*
%TO.C,U19*%
X261610000Y-142250000D03*
D27*
X259070000Y-142250000D03*
X256530000Y-142250000D03*
X253990000Y-142250000D03*
X251450000Y-142250000D03*
X248910000Y-142250000D03*
X246370000Y-142250000D03*
X243830000Y-142250000D03*
X241290000Y-142250000D03*
X241290000Y-149870000D03*
X243830000Y-149870000D03*
X246370000Y-149870000D03*
X248910000Y-149870000D03*
X251450000Y-149870000D03*
X253990000Y-149870000D03*
X256530000Y-149870000D03*
X259070000Y-149870000D03*
X261610000Y-149870000D03*
%TD*%
D26*
%TO.C,U25*%
X179705000Y-91440000D03*
D27*
X177165000Y-91440000D03*
X174625000Y-91440000D03*
X172085000Y-91440000D03*
X172085000Y-99060000D03*
X174625000Y-99060000D03*
X177165000Y-99060000D03*
X179705000Y-99060000D03*
%TD*%
D23*
%TO.C,C35*%
X240665000Y-156230000D03*
X240665000Y-158730000D03*
%TD*%
D18*
%TO.C,R36*%
X226060000Y-99060000D03*
D19*
X226060000Y-91440000D03*
%TD*%
D26*
%TO.C,U16*%
X200660000Y-111760000D03*
D27*
X198120000Y-111760000D03*
X195580000Y-111760000D03*
X193040000Y-111760000D03*
X190500000Y-111760000D03*
X187960000Y-111760000D03*
X185420000Y-111760000D03*
X182880000Y-111760000D03*
X180340000Y-111760000D03*
X177800000Y-111760000D03*
X175260000Y-111760000D03*
X172720000Y-111760000D03*
X172720000Y-127000000D03*
X175260000Y-127000000D03*
X177800000Y-127000000D03*
X180340000Y-127000000D03*
X182880000Y-127000000D03*
X185420000Y-127000000D03*
X187960000Y-127000000D03*
X190500000Y-127000000D03*
X193040000Y-127000000D03*
X195580000Y-127000000D03*
X198120000Y-127000000D03*
X200660000Y-127000000D03*
%TD*%
D18*
%TO.C,R34*%
X220980000Y-99060000D03*
D19*
X220980000Y-91440000D03*
%TD*%
D31*
%TO.C,BT1*%
X113850001Y-109220001D03*
D32*
X93360001Y-109220001D03*
%TD*%
D18*
%TO.C,R39*%
X236220000Y-99060000D03*
D19*
X236220000Y-91440000D03*
%TD*%
D26*
%TO.C,U10*%
X115580000Y-199898000D03*
D27*
X118120000Y-199898000D03*
X120660000Y-199898000D03*
X123200000Y-199898000D03*
X123200000Y-192278000D03*
X120660000Y-192278000D03*
X118120000Y-192278000D03*
X115580000Y-192278000D03*
%TD*%
D28*
%TO.C,X1*%
X287020000Y-175260000D03*
D29*
X287020000Y-190500000D03*
X294640000Y-190500000D03*
X294640000Y-175260000D03*
%TD*%
D18*
%TO.C,R17*%
X166878000Y-195707000D03*
D19*
X166878000Y-188087000D03*
%TD*%
D33*
%TO.C,J6*%
X104210000Y-69469000D03*
X80010000Y-69469000D03*
%TD*%
D22*
%TO.C,C53*%
X228727000Y-80645000D03*
D23*
X228727000Y-78145000D03*
%TD*%
D34*
%TO.C,J2*%
X171641000Y-72134331D03*
X146641000Y-72134331D03*
D22*
X164681000Y-72434331D03*
D23*
X161911000Y-72434331D03*
X159141000Y-72434331D03*
X156371000Y-72434331D03*
X153601000Y-72434331D03*
X163296000Y-69594331D03*
X160526000Y-69594331D03*
X157756000Y-69594331D03*
X154986000Y-69594331D03*
%TD*%
D18*
%TO.C,R43*%
X101092000Y-174625000D03*
D19*
X108712000Y-174625000D03*
%TD*%
D22*
%TO.C,C20*%
X109220000Y-76200000D03*
D23*
X111720000Y-76200000D03*
%TD*%
D26*
%TO.C,U5*%
X130942000Y-163815000D03*
D27*
X128402000Y-163815000D03*
X125862000Y-163815000D03*
X123322000Y-163815000D03*
X120782000Y-163815000D03*
X118242000Y-163815000D03*
X115702000Y-163815000D03*
X115702000Y-171435000D03*
X118242000Y-171435000D03*
X120782000Y-171435000D03*
X123322000Y-171435000D03*
X125862000Y-171435000D03*
X128402000Y-171435000D03*
X130942000Y-171435000D03*
%TD*%
D20*
%TO.C,C19*%
X167608000Y-86106000D03*
D21*
X165608000Y-86106000D03*
%TD*%
D26*
%TO.C,U22*%
X288915000Y-130820000D03*
D27*
X286375000Y-130820000D03*
X283835000Y-130820000D03*
X281295000Y-130820000D03*
X278755000Y-130820000D03*
X276215000Y-130820000D03*
X273675000Y-130820000D03*
X271135000Y-130820000D03*
X268595000Y-130820000D03*
X268595000Y-138440000D03*
X271135000Y-138440000D03*
X273675000Y-138440000D03*
X276215000Y-138440000D03*
X278755000Y-138440000D03*
X281295000Y-138440000D03*
X283835000Y-138440000D03*
X286375000Y-138440000D03*
X288915000Y-138440000D03*
%TD*%
D24*
%TO.C,SLOT1*%
X123190000Y-91440000D03*
D25*
X120650000Y-91440000D03*
X123190000Y-93980000D03*
X120650000Y-93980000D03*
X123190000Y-96520000D03*
X120650000Y-96520000D03*
X123190000Y-99060000D03*
X120650000Y-99060000D03*
X123190000Y-101600000D03*
X120650000Y-101600000D03*
X123190000Y-104140000D03*
X120650000Y-104140000D03*
X123190000Y-106680000D03*
X120650000Y-106680000D03*
X123190000Y-109220000D03*
X120650000Y-109220000D03*
X123190000Y-111760000D03*
X120650000Y-111760000D03*
X123190000Y-114300000D03*
X120650000Y-114300000D03*
X123190000Y-116840000D03*
X120650000Y-116840000D03*
X123190000Y-119380000D03*
X120650000Y-119380000D03*
%TD*%
D26*
%TO.C,U8*%
X164857400Y-91425000D03*
D27*
X162317400Y-91425000D03*
X159777400Y-91425000D03*
X157237400Y-91425000D03*
X154697400Y-91425000D03*
X152157400Y-91425000D03*
X149617400Y-91425000D03*
X147077400Y-91425000D03*
X147077400Y-99045000D03*
X149617400Y-99045000D03*
X152157400Y-99045000D03*
X154697400Y-99045000D03*
X157237400Y-99045000D03*
X159777400Y-99045000D03*
X162317400Y-99045000D03*
X164857400Y-99045000D03*
%TD*%
D18*
%TO.C,R5*%
X81915000Y-187960000D03*
D19*
X89535000Y-187960000D03*
%TD*%
D18*
%TO.C,R12*%
X81915000Y-167640000D03*
D19*
X89535000Y-167640000D03*
%TD*%
D18*
%TO.C,R3*%
X111887000Y-174625000D03*
D19*
X119507000Y-174625000D03*
%TD*%
D13*
%TO.C,U6*%
X163830000Y-119380000D03*
D14*
X166370000Y-116840000D03*
X163830000Y-116840000D03*
X166370000Y-114300000D03*
X163830000Y-114300000D03*
X166370000Y-111760000D03*
X163830000Y-109220000D03*
X163830000Y-111760000D03*
X161290000Y-109220000D03*
X161290000Y-111760000D03*
X158750000Y-109220000D03*
X158750000Y-111760000D03*
X156210000Y-109220000D03*
X156210000Y-111760000D03*
X153670000Y-109220000D03*
X153670000Y-111760000D03*
X151130000Y-109220000D03*
X148590000Y-111760000D03*
X151130000Y-111760000D03*
X148590000Y-114300000D03*
X151130000Y-114300000D03*
X148590000Y-116840000D03*
X151130000Y-116840000D03*
X148590000Y-119380000D03*
X151130000Y-119380000D03*
X148590000Y-121920000D03*
X151130000Y-121920000D03*
X148590000Y-124460000D03*
X151130000Y-127000000D03*
X151130000Y-124460000D03*
X153670000Y-127000000D03*
X153670000Y-124460000D03*
X156210000Y-127000000D03*
X156210000Y-124460000D03*
X158750000Y-127000000D03*
X158750000Y-124460000D03*
X161290000Y-127000000D03*
X161290000Y-124460000D03*
X163830000Y-127000000D03*
X166370000Y-124460000D03*
X163830000Y-124460000D03*
X166370000Y-121920000D03*
X163830000Y-121920000D03*
X166370000Y-119380000D03*
%TD*%
D18*
%TO.C,R24*%
X209550000Y-102235000D03*
D19*
X209550000Y-94615000D03*
%TD*%
D26*
%TO.C,U30*%
X148336000Y-136144000D03*
D27*
X145796000Y-136144000D03*
X143256000Y-136144000D03*
X140716000Y-136144000D03*
X138176000Y-136144000D03*
X135636000Y-136144000D03*
X133096000Y-136144000D03*
X130556000Y-136144000D03*
X130556000Y-143764000D03*
X133096000Y-143764000D03*
X135636000Y-143764000D03*
X138176000Y-143764000D03*
X140716000Y-143764000D03*
X143256000Y-143764000D03*
X145796000Y-143764000D03*
X148336000Y-143764000D03*
%TD*%
D18*
%TO.C,R35*%
X223520000Y-99060000D03*
D19*
X223520000Y-91440000D03*
%TD*%
D24*
%TO.C,SLOT0*%
X139700000Y-91440000D03*
D25*
X137160000Y-91440000D03*
X139700000Y-93980000D03*
X137160000Y-93980000D03*
X139700000Y-96520000D03*
X137160000Y-96520000D03*
X139700000Y-99060000D03*
X137160000Y-99060000D03*
X139700000Y-101600000D03*
X137160000Y-101600000D03*
X139700000Y-104140000D03*
X137160000Y-104140000D03*
X139700000Y-106680000D03*
X137160000Y-106680000D03*
X139700000Y-109220000D03*
X137160000Y-109220000D03*
X139700000Y-111760000D03*
X137160000Y-111760000D03*
X139700000Y-114300000D03*
X137160000Y-114300000D03*
X139700000Y-116840000D03*
X137160000Y-116840000D03*
X139700000Y-119380000D03*
X137160000Y-119380000D03*
%TD*%
D18*
%TO.C,R1*%
X112141000Y-192278000D03*
D19*
X112141000Y-199898000D03*
%TD*%
D18*
%TO.C,R29*%
X209804000Y-106934000D03*
D19*
X209804000Y-114554000D03*
%TD*%
D26*
%TO.C,U3*%
X239395000Y-184150000D03*
D27*
X236855000Y-184150000D03*
X234315000Y-184150000D03*
X231775000Y-184150000D03*
X229235000Y-184150000D03*
X226695000Y-184150000D03*
X224155000Y-184150000D03*
X221615000Y-184150000D03*
X219075000Y-184150000D03*
X216535000Y-184150000D03*
X213995000Y-184150000D03*
X211455000Y-184150000D03*
X208915000Y-184150000D03*
X206375000Y-184150000D03*
X203835000Y-184150000D03*
X201295000Y-184150000D03*
X201295000Y-199390000D03*
X203835000Y-199390000D03*
X206375000Y-199390000D03*
X208915000Y-199390000D03*
X211455000Y-199390000D03*
X213995000Y-199390000D03*
X216535000Y-199390000D03*
X219075000Y-199390000D03*
X221615000Y-199390000D03*
X224155000Y-199390000D03*
X226695000Y-199390000D03*
X229235000Y-199390000D03*
X231775000Y-199390000D03*
X234315000Y-199390000D03*
X236855000Y-199390000D03*
X239395000Y-199390000D03*
%TD*%
D34*
%TO.C,Port2*%
X71755000Y-79285000D03*
X71755000Y-104285000D03*
D22*
X72055000Y-86245000D03*
D23*
X72055000Y-89015000D03*
X72055000Y-91785000D03*
X72055000Y-94555000D03*
X72055000Y-97325000D03*
X69215000Y-87630000D03*
X69215000Y-90400000D03*
X69215000Y-93170000D03*
X69215000Y-95940000D03*
%TD*%
D22*
%TO.C,RN2*%
X110490000Y-82550000D03*
D30*
X110490000Y-85090000D03*
X110490000Y-87630000D03*
X110490000Y-90170000D03*
X110490000Y-92710000D03*
X110490000Y-95250000D03*
%TD*%
D24*
%TO.C,J1*%
X276169000Y-78878000D03*
D35*
X278669000Y-78878000D03*
X278669000Y-76878000D03*
X276169000Y-76878000D03*
D36*
X271399000Y-74168000D03*
X283439000Y-74168000D03*
%TD*%
D22*
%TO.C,RN1*%
X166878000Y-185420000D03*
D30*
X166878000Y-182880000D03*
X166878000Y-180340000D03*
X166878000Y-177800000D03*
X166878000Y-175260000D03*
%TD*%
D24*
%TO.C,JP1*%
X238125000Y-180340000D03*
D25*
X240665000Y-180340000D03*
X243205000Y-180340000D03*
%TD*%
D24*
%TO.C,P3*%
X123190000Y-140970000D03*
D25*
X120650000Y-140970000D03*
X123190000Y-138430000D03*
X120650000Y-138430000D03*
X123190000Y-135890000D03*
X120650000Y-135890000D03*
%TD*%
D23*
%TO.C,C2*%
X126397000Y-193040000D03*
X128897000Y-193040000D03*
%TD*%
D26*
%TO.C,U13*%
X193040000Y-163830000D03*
D27*
X190500000Y-163830000D03*
X187960000Y-163830000D03*
X185420000Y-163830000D03*
X182880000Y-163830000D03*
X180340000Y-163830000D03*
X177800000Y-163830000D03*
X175260000Y-163830000D03*
X172720000Y-163830000D03*
X170180000Y-163830000D03*
X170180000Y-171450000D03*
X172720000Y-171450000D03*
X175260000Y-171450000D03*
X177800000Y-171450000D03*
X180340000Y-171450000D03*
X182880000Y-171450000D03*
X185420000Y-171450000D03*
X187960000Y-171450000D03*
X190500000Y-171450000D03*
X193040000Y-171450000D03*
%TD*%
D18*
%TO.C,R14*%
X212090000Y-94615000D03*
D19*
X212090000Y-102235000D03*
%TD*%
D26*
%TO.C,U20*%
X288925000Y-142240000D03*
D27*
X286385000Y-142240000D03*
X283845000Y-142240000D03*
X281305000Y-142240000D03*
X278765000Y-142240000D03*
X276225000Y-142240000D03*
X273685000Y-142240000D03*
X271145000Y-142240000D03*
X268605000Y-142240000D03*
X268605000Y-149860000D03*
X271145000Y-149860000D03*
X273685000Y-149860000D03*
X276225000Y-149860000D03*
X278765000Y-149860000D03*
X281305000Y-149860000D03*
X283845000Y-149860000D03*
X286385000Y-149860000D03*
X288925000Y-149860000D03*
%TD*%
D37*
%TO.C,X4*%
X140848000Y-132080000D03*
X142748000Y-132080000D03*
%TD*%
D23*
%TO.C,C41*%
X193000000Y-102235000D03*
X190500000Y-102235000D03*
%TD*%
D18*
%TO.C,R28*%
X212217000Y-106934000D03*
D19*
X212217000Y-114554000D03*
%TD*%
D18*
%TO.C,R38*%
X233680000Y-99060000D03*
D19*
X233680000Y-91440000D03*
%TD*%
D18*
%TO.C,R23*%
X207010000Y-92075000D03*
D19*
X207010000Y-84455000D03*
%TD*%
D20*
%TO.C,C25*%
X162814000Y-86106000D03*
D21*
X160814000Y-86106000D03*
%TD*%
D20*
%TO.C,C21*%
X157944600Y-86106000D03*
D21*
X155944600Y-86106000D03*
%TD*%
D18*
%TO.C,R32*%
X227965000Y-116205000D03*
D19*
X235585000Y-116205000D03*
%TD*%
D20*
%TO.C,C39*%
X193377599Y-86995000D03*
D21*
X191377599Y-86995000D03*
%TD*%
D23*
%TO.C,C1*%
X126437000Y-198120000D03*
X128937000Y-198120000D03*
%TD*%
D13*
%TO.C,U2*%
X264795000Y-198120000D03*
D14*
X264795000Y-195580000D03*
X267335000Y-198120000D03*
X267335000Y-195580000D03*
X269875000Y-198120000D03*
X269875000Y-195580000D03*
X272415000Y-198120000D03*
X272415000Y-195580000D03*
X274955000Y-198120000D03*
X274955000Y-195580000D03*
X277495000Y-198120000D03*
X280035000Y-195580000D03*
X277495000Y-195580000D03*
X280035000Y-193040000D03*
X277495000Y-193040000D03*
X280035000Y-190500000D03*
X277495000Y-190500000D03*
X280035000Y-187960000D03*
X277495000Y-187960000D03*
X280035000Y-185420000D03*
X277495000Y-185420000D03*
X280035000Y-182880000D03*
X277495000Y-182880000D03*
X280035000Y-180340000D03*
X277495000Y-180340000D03*
X280035000Y-177800000D03*
X277495000Y-177800000D03*
X280035000Y-175260000D03*
X277495000Y-175260000D03*
X280035000Y-172720000D03*
X277495000Y-172720000D03*
X280035000Y-170180000D03*
X277495000Y-167640000D03*
X277495000Y-170180000D03*
X274955000Y-167640000D03*
X274955000Y-170180000D03*
X272415000Y-167640000D03*
X272415000Y-170180000D03*
X269875000Y-167640000D03*
X269875000Y-170180000D03*
X267335000Y-167640000D03*
X267335000Y-170180000D03*
X264795000Y-167640000D03*
X264795000Y-170180000D03*
X262255000Y-167640000D03*
X262255000Y-170180000D03*
X259715000Y-167640000D03*
X259715000Y-170180000D03*
X257175000Y-167640000D03*
X257175000Y-170180000D03*
X254635000Y-167640000D03*
X254635000Y-170180000D03*
X252095000Y-167640000D03*
X249555000Y-170180000D03*
X252095000Y-170180000D03*
X249555000Y-172720000D03*
X252095000Y-172720000D03*
X249555000Y-175260000D03*
X252095000Y-175260000D03*
X249555000Y-177800000D03*
X252095000Y-177800000D03*
X249555000Y-180340000D03*
X252095000Y-180340000D03*
X249555000Y-182880000D03*
X252095000Y-182880000D03*
X249555000Y-185420000D03*
X252095000Y-185420000D03*
X249555000Y-187960000D03*
X252095000Y-187960000D03*
X249555000Y-190500000D03*
X252095000Y-190500000D03*
X249555000Y-193040000D03*
X252095000Y-193040000D03*
X249555000Y-195580000D03*
X252095000Y-198120000D03*
X252095000Y-195580000D03*
X254635000Y-198120000D03*
X254635000Y-195580000D03*
X257175000Y-198120000D03*
X257175000Y-195580000D03*
X259715000Y-198120000D03*
X259715000Y-195580000D03*
X262255000Y-198120000D03*
X262255000Y-195580000D03*
%TD*%
D18*
%TO.C,R2*%
X109728000Y-199898000D03*
D19*
X109728000Y-192278000D03*
%TD*%
D38*
%TO.C,J5*%
X208915000Y-66294000D03*
X211495000Y-66300000D03*
X216495000Y-66300000D03*
X219075000Y-66294000D03*
X206495000Y-76200000D03*
X213995000Y-76200000D03*
X221495000Y-76200000D03*
X208995000Y-78700000D03*
X218995000Y-78700000D03*
X206495000Y-81200000D03*
X221495000Y-81200000D03*
X213995000Y-81200000D03*
%TD*%
D39*
%TO.C,SW1*%
X71120000Y-183530000D03*
X71120000Y-176530000D03*
D35*
X68620000Y-182280000D03*
X68620000Y-177780000D03*
%TD*%
D20*
%TO.C,C4*%
X134620000Y-195580000D03*
D21*
X132620000Y-195580000D03*
%TD*%
D24*
%TO.C,P1*%
X76200000Y-170180000D03*
D25*
X73660000Y-170180000D03*
X76200000Y-167640000D03*
X73660000Y-167640000D03*
X76200000Y-165100000D03*
X73660000Y-165100000D03*
X76200000Y-162560000D03*
X73660000Y-162560000D03*
X76200000Y-160020000D03*
X73660000Y-160020000D03*
X76200000Y-157480000D03*
X73660000Y-157480000D03*
X76200000Y-154940000D03*
X73660000Y-154940000D03*
X76200000Y-152400000D03*
X73660000Y-152400000D03*
%TD*%
D26*
%TO.C,U29*%
X107950000Y-149860000D03*
D27*
X105410000Y-149860000D03*
X102870000Y-149860000D03*
X100330000Y-149860000D03*
X97790000Y-149860000D03*
X95250000Y-149860000D03*
X92710000Y-149860000D03*
X90170000Y-149860000D03*
X87630000Y-149860000D03*
X85090000Y-149860000D03*
X85090000Y-157480000D03*
X87630000Y-157480000D03*
X90170000Y-157480000D03*
X92710000Y-157480000D03*
X95250000Y-157480000D03*
X97790000Y-157480000D03*
X100330000Y-157480000D03*
X102870000Y-157480000D03*
X105410000Y-157480000D03*
X107950000Y-157480000D03*
%TD*%
D26*
%TO.C,U14*%
X107950000Y-122809000D03*
D27*
X105410000Y-122809000D03*
X102870000Y-122809000D03*
X100330000Y-122809000D03*
X97790000Y-122809000D03*
X95250000Y-122809000D03*
X92710000Y-122809000D03*
X92710000Y-130429000D03*
X95250000Y-130429000D03*
X97790000Y-130429000D03*
X100330000Y-130429000D03*
X102870000Y-130429000D03*
X105410000Y-130429000D03*
X107950000Y-130429000D03*
%TD*%
D18*
%TO.C,R8*%
X81915000Y-175260000D03*
D19*
X89535000Y-175260000D03*
%TD*%
D18*
%TO.C,R41*%
X77470000Y-107823000D03*
D19*
X77470000Y-115443000D03*
%TD*%
D26*
%TO.C,U4*%
X234315000Y-163810000D03*
D27*
X231775000Y-163810000D03*
X229235000Y-163810000D03*
X226695000Y-163810000D03*
X224155000Y-163810000D03*
X221615000Y-163810000D03*
X219075000Y-163810000D03*
X216535000Y-163810000D03*
X213995000Y-163810000D03*
X211455000Y-163810000D03*
X208915000Y-163810000D03*
X206375000Y-163810000D03*
X203835000Y-163810000D03*
X201295000Y-163810000D03*
X201295000Y-179050000D03*
X203835000Y-179050000D03*
X206375000Y-179050000D03*
X208915000Y-179050000D03*
X211455000Y-179050000D03*
X213995000Y-179050000D03*
X216535000Y-179050000D03*
X219075000Y-179050000D03*
X221615000Y-179050000D03*
X224155000Y-179050000D03*
X226695000Y-179050000D03*
X229235000Y-179050000D03*
X231775000Y-179050000D03*
X234315000Y-179050000D03*
%TD*%
D34*
%TO.C,Port1*%
X71755000Y-111760000D03*
X71755000Y-136760000D03*
D22*
X72055000Y-118720000D03*
D23*
X72055000Y-121490000D03*
X72055000Y-124260000D03*
X72055000Y-127030000D03*
X72055000Y-129800000D03*
X69215000Y-120105000D03*
X69215000Y-122875000D03*
X69215000Y-125645000D03*
X69215000Y-128415000D03*
%TD*%
D18*
%TO.C,R9*%
X81915000Y-180340000D03*
D19*
X89535000Y-180340000D03*
%TD*%
D40*
%TO.C,J4*%
X235264960Y-72263000D03*
X241965480Y-72263000D03*
X235264960Y-74754740D03*
X241965480Y-74754740D03*
D41*
X231856280Y-69263260D03*
X238615220Y-68453000D03*
X245374160Y-69263260D03*
%TD*%
D18*
%TO.C,R11*%
X81915000Y-172720000D03*
D19*
X89535000Y-172720000D03*
%TD*%
D18*
%TO.C,R37*%
X228600000Y-99060000D03*
D19*
X228600000Y-91440000D03*
%TD*%
D18*
%TO.C,R13*%
X81915000Y-165100000D03*
D19*
X89535000Y-165100000D03*
%TD*%
D40*
%TO.C,P4*%
X125953520Y-72263000D03*
X128554480Y-72263000D03*
X123903740Y-72263000D03*
X130604260Y-72263000D03*
X123903740Y-74754740D03*
X130604260Y-74754740D03*
D41*
X120495060Y-69263260D03*
X127254000Y-68453000D03*
X134012940Y-69263260D03*
%TD*%
D42*
%TO.C,U9*%
X111760000Y-69850000D03*
D43*
X110490000Y-69850000D03*
X109220000Y-69850000D03*
%TD*%
D26*
%TO.C,IC1*%
X148590000Y-149860000D03*
D27*
X146050000Y-149860000D03*
X143510000Y-149860000D03*
X140970000Y-149860000D03*
X138430000Y-149860000D03*
X135890000Y-149860000D03*
X133350000Y-149860000D03*
X130810000Y-149860000D03*
X128270000Y-149860000D03*
X125730000Y-149860000D03*
X123190000Y-149860000D03*
X120650000Y-149860000D03*
X118110000Y-149860000D03*
X115570000Y-149860000D03*
X115570000Y-157480000D03*
X118110000Y-157480000D03*
X120650000Y-157480000D03*
X123190000Y-157480000D03*
X125730000Y-157480000D03*
X128270000Y-157480000D03*
X130810000Y-157480000D03*
X133350000Y-157480000D03*
X135890000Y-157480000D03*
X138430000Y-157480000D03*
X140970000Y-157480000D03*
X143510000Y-157480000D03*
X146050000Y-157480000D03*
X148590000Y-157480000D03*
%TD*%
D20*
%TO.C,C22*%
X153162000Y-86106000D03*
D21*
X151162000Y-86106000D03*
%TD*%
D22*
%TO.C,C49*%
X247523000Y-87757000D03*
D23*
X247523000Y-85257000D03*
%TD*%
D18*
%TO.C,R33*%
X218440000Y-99060000D03*
D19*
X218440000Y-91440000D03*
%TD*%
D22*
%TO.C,C55*%
X224917000Y-87717000D03*
D23*
X224917000Y-85217000D03*
%TD*%
D16*
%TO.C,C18*%
X262427323Y-86360000D03*
D17*
X267427323Y-86360000D03*
%TD*%
D24*
%TO.C,P2*%
X153924000Y-150876000D03*
D25*
X153924000Y-153416000D03*
X153924000Y-155956000D03*
%TD*%
D18*
%TO.C,R18*%
X156337000Y-77597000D03*
D19*
X163957000Y-77597000D03*
%TD*%
D33*
%TO.C,Y1*%
X230680000Y-157480000D03*
X235560000Y-157480000D03*
%TD*%
D18*
%TO.C,R15*%
X101092000Y-177419000D03*
D19*
X108712000Y-177419000D03*
%TD*%
D26*
%TO.C,U23*%
X261610000Y-118755000D03*
D27*
X259070000Y-118755000D03*
X256530000Y-118755000D03*
X253990000Y-118755000D03*
X251450000Y-118755000D03*
X248910000Y-118755000D03*
X246370000Y-118755000D03*
X243830000Y-118755000D03*
X241290000Y-118755000D03*
X241290000Y-126375000D03*
X243830000Y-126375000D03*
X246370000Y-126375000D03*
X248910000Y-126375000D03*
X251450000Y-126375000D03*
X253990000Y-126375000D03*
X256530000Y-126375000D03*
X259070000Y-126375000D03*
X261610000Y-126375000D03*
%TD*%
D26*
%TO.C,U24*%
X288925000Y-118745000D03*
D27*
X286385000Y-118745000D03*
X283845000Y-118745000D03*
X281305000Y-118745000D03*
X278765000Y-118745000D03*
X276225000Y-118745000D03*
X273685000Y-118745000D03*
X271145000Y-118745000D03*
X268605000Y-118745000D03*
X268605000Y-126365000D03*
X271145000Y-126365000D03*
X273685000Y-126365000D03*
X276225000Y-126365000D03*
X278765000Y-126365000D03*
X281305000Y-126365000D03*
X283845000Y-126365000D03*
X286385000Y-126365000D03*
X288925000Y-126365000D03*
%TD*%
D23*
%TO.C,C42*%
X195580000Y-102235000D03*
X198080000Y-102235000D03*
%TD*%
D22*
%TO.C,C40*%
X188276112Y-86995000D03*
D23*
X185776112Y-86995000D03*
%TD*%
D22*
%TO.C,C52*%
X241300000Y-105370000D03*
D23*
X241300000Y-102870000D03*
%TD*%
D44*
%TO.C,U18*%
X233805000Y-133350000D03*
D45*
X232025000Y-133350000D03*
X230245000Y-133350000D03*
X228465000Y-133350000D03*
X226685000Y-133350000D03*
X224905000Y-133350000D03*
X223125000Y-133350000D03*
X221345000Y-133350000D03*
X219565000Y-133350000D03*
X217785000Y-133350000D03*
X216005000Y-133350000D03*
X214225000Y-133350000D03*
X212445000Y-133350000D03*
X210665000Y-133350000D03*
X208885000Y-133350000D03*
X207105000Y-133350000D03*
X205325000Y-133350000D03*
X203545000Y-133350000D03*
X201765000Y-133350000D03*
X199985000Y-133350000D03*
X198205000Y-133350000D03*
X196425000Y-133350000D03*
X194645000Y-133350000D03*
X192865000Y-133350000D03*
X191085000Y-133350000D03*
X189305000Y-133350000D03*
X187525000Y-133350000D03*
X185745000Y-133350000D03*
X183965000Y-133350000D03*
X182185000Y-133350000D03*
X180405000Y-133350000D03*
X178625000Y-133350000D03*
X178625000Y-152450800D03*
X180405000Y-152450800D03*
X182185000Y-152450800D03*
X183965000Y-152450800D03*
X185745000Y-152450800D03*
X187525000Y-152450800D03*
X189305000Y-152450800D03*
X191085000Y-152450800D03*
X192865000Y-152450800D03*
X194645000Y-152450800D03*
X196425000Y-152450800D03*
X198205000Y-152450800D03*
X199985000Y-152450800D03*
X201765000Y-152450800D03*
X203545000Y-152450800D03*
X205325000Y-152450800D03*
X207105000Y-152450800D03*
X208885000Y-152450800D03*
X210665000Y-152450800D03*
X212445000Y-152450800D03*
X214225000Y-152450800D03*
X216005000Y-152450800D03*
X217785000Y-152450800D03*
X219565000Y-152450800D03*
X221345000Y-152450800D03*
X223125000Y-152450800D03*
X224905000Y-152450800D03*
X226685000Y-152450800D03*
X228465000Y-152450800D03*
X230245000Y-152450800D03*
X232025000Y-152450800D03*
X233805000Y-152450800D03*
%TD*%
D18*
%TO.C,R42*%
X77470000Y-97790000D03*
D19*
X77470000Y-105410000D03*
%TD*%
D46*
%TO.C,CON1*%
X259080000Y-77374000D03*
D47*
X259080000Y-71374000D03*
D48*
X254380000Y-74374000D03*
%TD*%
D13*
%TO.C,U1*%
X182880000Y-182225000D03*
D14*
X180340000Y-179685000D03*
X180340000Y-182225000D03*
X177800000Y-179685000D03*
X177800000Y-182225000D03*
X175260000Y-179685000D03*
X172720000Y-182225000D03*
X175260000Y-182225000D03*
X172720000Y-184765000D03*
X175260000Y-184765000D03*
X172720000Y-187305000D03*
X175260000Y-187305000D03*
X172720000Y-189845000D03*
X175260000Y-189845000D03*
X172720000Y-192385000D03*
X175260000Y-192385000D03*
X172720000Y-194925000D03*
X175260000Y-197465000D03*
X175260000Y-194925000D03*
X177800000Y-197465000D03*
X177800000Y-194925000D03*
X180340000Y-197465000D03*
X180340000Y-194925000D03*
X182880000Y-197465000D03*
X182880000Y-194925000D03*
X185420000Y-197465000D03*
X185420000Y-194925000D03*
X187960000Y-197465000D03*
X190500000Y-194925000D03*
X187960000Y-194925000D03*
X190500000Y-192385000D03*
X187960000Y-192385000D03*
X190500000Y-189845000D03*
X187960000Y-189845000D03*
X190500000Y-187305000D03*
X187960000Y-187305000D03*
X190500000Y-184765000D03*
X187960000Y-184765000D03*
X190500000Y-182225000D03*
X187960000Y-179685000D03*
X187960000Y-182225000D03*
X185420000Y-179685000D03*
X185420000Y-182225000D03*
X182880000Y-179685000D03*
%TD*%
D18*
%TO.C,R4*%
X81915000Y-182880000D03*
D19*
X89535000Y-182880000D03*
%TD*%
D18*
%TO.C,R16*%
X119507000Y-177419000D03*
D19*
X111887000Y-177419000D03*
%TD*%
D28*
%TO.C,X2*%
X172720000Y-135255000D03*
D29*
X157480000Y-135255000D03*
X157480000Y-142875000D03*
X172720000Y-142875000D03*
%TD*%
D49*
%TO.C,C14*%
X272415000Y-172720000D03*
X272415000Y-175845000D03*
%TD*%
%TO.C,C37*%
X168910000Y-119380000D03*
X168910000Y-122505000D03*
%TD*%
%TO.C,C13*%
X247015000Y-182880000D03*
X247015000Y-186005000D03*
%TD*%
D50*
%TO.C,C5*%
X154255000Y-200025000D03*
X151130000Y-200025000D03*
%TD*%
D49*
%TO.C,C11*%
X282575000Y-182880000D03*
X282575000Y-186005000D03*
%TD*%
D51*
%TO.C,C15*%
X254635000Y-193040000D03*
X257760000Y-193040000D03*
%TD*%
D52*
%TO.C,C16*%
X254635000Y-190450000D03*
X254635000Y-187325000D03*
%TD*%
D49*
%TO.C,C6*%
X193040000Y-184785000D03*
X193040000Y-187910000D03*
%TD*%
D51*
%TO.C,C34*%
X197620000Y-136525000D03*
X200745000Y-136525000D03*
%TD*%
M02*
