%TF.FileFunction,Copper,L1,Top,Signal*%
%FSLAX46Y46*%
G04 Gerber Fmt 4.6, Leading zero omitted, Abs format (unit mm)*
G04 Created by KiCad (PCBNEW (2014-12-04 BZR 5312)-product) date Wed 04 Feb 2015 12:38:23 PM CET*
%MOMM*%
G01*
G04 APERTURE LIST*
%ADD10C,0.100000*%
%ADD11C,0.300000*%
%ADD12C,0.150000*%
%ADD13R,1.727200X1.727200*%
%ADD14O,1.727200X1.727200*%
%ADD15C,2.286000*%
%ADD16C,1.397000*%
%ADD17C,1.501140*%
%ADD18O,2.286000X1.574800*%
%ADD19R,2.286000X1.574800*%
%ADD20C,1.422400*%
%ADD21C,3.497580*%
%ADD22R,1.574800X2.286000*%
%ADD23O,1.574800X2.286000*%
%ADD24C,1.524000*%
%ADD25O,1.000760X1.501140*%
%ADD26C,5.001260*%
%ADD27O,1.501140X1.998980*%
%ADD28R,1.559560X1.049020*%
%ADD29R,1.099820X1.348740*%
%ADD30R,1.899920X1.899920*%
%ADD31R,1.099820X1.600200*%
%ADD32R,1.600200X1.600200*%
%ADD33C,1.300480*%
%ADD34C,1.800860*%
%ADD35C,0.889000*%
%ADD36C,0.635000*%
%ADD37C,0.254000*%
G04 APERTURE END LIST*
D10*
D11*
X74053572Y-139259571D02*
X74910715Y-139259571D01*
X74482144Y-140759571D02*
X74482144Y-139259571D01*
X75625001Y-140759571D02*
X75482143Y-140688143D01*
X75410715Y-140616714D01*
X75339286Y-140473857D01*
X75339286Y-140045286D01*
X75410715Y-139902429D01*
X75482143Y-139831000D01*
X75625001Y-139759571D01*
X75839286Y-139759571D01*
X75982143Y-139831000D01*
X76053572Y-139902429D01*
X76125001Y-140045286D01*
X76125001Y-140473857D01*
X76053572Y-140616714D01*
X75982143Y-140688143D01*
X75839286Y-140759571D01*
X75625001Y-140759571D01*
X76767858Y-139759571D02*
X76767858Y-141259571D01*
X76767858Y-139831000D02*
X76910715Y-139759571D01*
X77196429Y-139759571D01*
X77339286Y-139831000D01*
X77410715Y-139902429D01*
X77482144Y-140045286D01*
X77482144Y-140473857D01*
X77410715Y-140616714D01*
X77339286Y-140688143D01*
X77196429Y-140759571D01*
X76910715Y-140759571D01*
X76767858Y-140688143D01*
X79982144Y-140759571D02*
X79267858Y-140759571D01*
X79267858Y-139259571D01*
X81125001Y-140759571D02*
X81125001Y-139973857D01*
X81053572Y-139831000D01*
X80910715Y-139759571D01*
X80625001Y-139759571D01*
X80482144Y-139831000D01*
X81125001Y-140688143D02*
X80982144Y-140759571D01*
X80625001Y-140759571D01*
X80482144Y-140688143D01*
X80410715Y-140545286D01*
X80410715Y-140402429D01*
X80482144Y-140259571D01*
X80625001Y-140188143D01*
X80982144Y-140188143D01*
X81125001Y-140116714D01*
X81696430Y-139759571D02*
X82053573Y-140759571D01*
X82410715Y-139759571D02*
X82053573Y-140759571D01*
X81910715Y-141116714D01*
X81839287Y-141188143D01*
X81696430Y-141259571D01*
X83553572Y-140688143D02*
X83410715Y-140759571D01*
X83125001Y-140759571D01*
X82982144Y-140688143D01*
X82910715Y-140545286D01*
X82910715Y-139973857D01*
X82982144Y-139831000D01*
X83125001Y-139759571D01*
X83410715Y-139759571D01*
X83553572Y-139831000D01*
X83625001Y-139973857D01*
X83625001Y-140116714D01*
X82910715Y-140259571D01*
X84267858Y-140759571D02*
X84267858Y-139759571D01*
X84267858Y-140045286D02*
X84339286Y-139902429D01*
X84410715Y-139831000D01*
X84553572Y-139759571D01*
X84696429Y-139759571D01*
D12*
X66245740Y-99171760D02*
X66245740Y-98671380D01*
X66245740Y-99171760D02*
X65745360Y-99171760D01*
X66245740Y-99672140D02*
X66245740Y-99171760D01*
X66245740Y-99171760D02*
X66644520Y-99171760D01*
X66644520Y-99171760D02*
X66746120Y-99171760D01*
X210820000Y-122555000D02*
X209804000Y-122555000D01*
X210312000Y-122047000D02*
X210312000Y-123063000D01*
D13*
X215265000Y-65405000D03*
D14*
X217805000Y-65405000D03*
X215265000Y-67945000D03*
X217805000Y-67945000D03*
X215265000Y-70485000D03*
X217805000Y-70485000D03*
X215265000Y-73025000D03*
X217805000Y-73025000D03*
X215265000Y-75565000D03*
X217805000Y-75565000D03*
X215265000Y-78105000D03*
X217805000Y-78105000D03*
X215265000Y-80645000D03*
X217805000Y-80645000D03*
X215265000Y-83185000D03*
X217805000Y-83185000D03*
X215265000Y-85725000D03*
X217805000Y-85725000D03*
X215265000Y-88265000D03*
X217805000Y-88265000D03*
X215265000Y-90805000D03*
X217805000Y-90805000D03*
X215265000Y-93345000D03*
X217805000Y-93345000D03*
X215265000Y-95885000D03*
X217805000Y-95885000D03*
X215265000Y-98425000D03*
X217805000Y-98425000D03*
X215265000Y-100965000D03*
X217805000Y-100965000D03*
X215265000Y-103505000D03*
X217805000Y-103505000D03*
X215265000Y-106045000D03*
X217805000Y-106045000D03*
X215265000Y-108585000D03*
X217805000Y-108585000D03*
X215265000Y-111125000D03*
X217805000Y-111125000D03*
X215265000Y-113665000D03*
X217805000Y-113665000D03*
X215265000Y-116205000D03*
X217805000Y-116205000D03*
X215265000Y-118745000D03*
X217805000Y-118745000D03*
X215265000Y-121285000D03*
X217805000Y-121285000D03*
X215265000Y-123825000D03*
X217805000Y-123825000D03*
X215265000Y-126365000D03*
X217805000Y-126365000D03*
D15*
X191770000Y-139700000D03*
X191770000Y-116840000D03*
D16*
X187960000Y-64770000D03*
X185420000Y-64770000D03*
D17*
X67945000Y-96901000D03*
X67945000Y-99441000D03*
D16*
X78105000Y-94361000D03*
X78105000Y-96901000D03*
X173990000Y-87630000D03*
X171450000Y-87630000D03*
X96520000Y-132080000D03*
X96520000Y-134620000D03*
X173990000Y-113030000D03*
X171450000Y-113030000D03*
X121920000Y-118110000D03*
X121920000Y-120650000D03*
D17*
X208280000Y-125730000D03*
X208280000Y-121920000D03*
D16*
X146050000Y-72390000D03*
X143510000Y-72390000D03*
X94615000Y-119126000D03*
X94615000Y-121666000D03*
D18*
X124460000Y-105410000D03*
X124460000Y-107950000D03*
X124460000Y-110490000D03*
X124460000Y-113030000D03*
X124460000Y-115570000D03*
X124460000Y-118110000D03*
X124460000Y-120650000D03*
X124460000Y-123190000D03*
X124460000Y-125730000D03*
X124460000Y-128270000D03*
X124460000Y-130810000D03*
X124460000Y-133350000D03*
X124460000Y-135890000D03*
D19*
X124460000Y-102870000D03*
D18*
X132080000Y-135890000D03*
X132080000Y-133350000D03*
X132080000Y-130810000D03*
X132080000Y-128270000D03*
X132080000Y-125730000D03*
X132080000Y-123190000D03*
X132080000Y-120650000D03*
X132080000Y-118110000D03*
X132080000Y-115570000D03*
X132080000Y-113030000D03*
X132080000Y-110490000D03*
X132080000Y-107950000D03*
X132080000Y-105410000D03*
X132080000Y-102870000D03*
D20*
X74869040Y-82577940D03*
X74869040Y-79982060D03*
X74869040Y-84678520D03*
X74869040Y-77881480D03*
X77317600Y-84678520D03*
X77368400Y-77881480D03*
D21*
X71869300Y-74480420D03*
X71071740Y-81280000D03*
X71869300Y-88028780D03*
D13*
X148590000Y-102870000D03*
D14*
X148590000Y-105410000D03*
X146050000Y-102870000D03*
X146050000Y-105410000D03*
X143510000Y-102870000D03*
X143510000Y-105410000D03*
D13*
X187960000Y-104140000D03*
D14*
X187960000Y-106680000D03*
X185420000Y-104140000D03*
X185420000Y-106680000D03*
X182880000Y-104140000D03*
X182880000Y-106680000D03*
D13*
X187960000Y-92710000D03*
D14*
X187960000Y-95250000D03*
X185420000Y-92710000D03*
X185420000Y-95250000D03*
X182880000Y-92710000D03*
X182880000Y-95250000D03*
D13*
X187960000Y-81280000D03*
D14*
X187960000Y-83820000D03*
X185420000Y-81280000D03*
X185420000Y-83820000D03*
X182880000Y-81280000D03*
X182880000Y-83820000D03*
D16*
X88265000Y-94361000D03*
X88265000Y-101981000D03*
X85725000Y-94361000D03*
X85725000Y-101981000D03*
X83185000Y-94361000D03*
X83185000Y-101981000D03*
X80645000Y-94361000D03*
X80645000Y-101981000D03*
X90805000Y-94361000D03*
X90805000Y-101981000D03*
X162560000Y-88900000D03*
X162560000Y-81280000D03*
X160020000Y-88900000D03*
X160020000Y-81280000D03*
X152400000Y-88900000D03*
X152400000Y-81280000D03*
X149860000Y-88900000D03*
X149860000Y-81280000D03*
X157480000Y-88900000D03*
X157480000Y-81280000D03*
X154940000Y-88900000D03*
X154940000Y-81280000D03*
X119380000Y-80010000D03*
X111760000Y-80010000D03*
X119380000Y-82550000D03*
X111760000Y-82550000D03*
X119380000Y-74930000D03*
X111760000Y-74930000D03*
X119380000Y-77470000D03*
X111760000Y-77470000D03*
D22*
X144780000Y-68580000D03*
D23*
X147320000Y-68580000D03*
X149860000Y-68580000D03*
X152400000Y-68580000D03*
X154940000Y-68580000D03*
X157480000Y-68580000D03*
X160020000Y-68580000D03*
X162560000Y-68580000D03*
X165100000Y-68580000D03*
X167640000Y-68580000D03*
X170180000Y-68580000D03*
X172720000Y-68580000D03*
X175260000Y-68580000D03*
X177800000Y-68580000D03*
X180340000Y-68580000D03*
X182880000Y-68580000D03*
X185420000Y-68580000D03*
X187960000Y-68580000D03*
X190500000Y-68580000D03*
X193040000Y-68580000D03*
X193040000Y-53340000D03*
X190500000Y-53340000D03*
X187960000Y-53340000D03*
X185420000Y-53340000D03*
X182880000Y-53340000D03*
X180340000Y-53340000D03*
X177800000Y-53340000D03*
X175260000Y-53340000D03*
X172720000Y-53340000D03*
X170180000Y-53340000D03*
X167640000Y-53340000D03*
X165100000Y-53340000D03*
X162560000Y-53340000D03*
X160020000Y-53340000D03*
X157480000Y-53340000D03*
X154940000Y-53340000D03*
X152400000Y-53340000D03*
X149860000Y-53340000D03*
X147320000Y-53340000D03*
X144780000Y-53340000D03*
D22*
X101600000Y-139700000D03*
D23*
X104140000Y-139700000D03*
X106680000Y-139700000D03*
X109220000Y-139700000D03*
X111760000Y-139700000D03*
X114300000Y-139700000D03*
X116840000Y-139700000D03*
X116840000Y-132080000D03*
X114300000Y-132080000D03*
X111760000Y-132080000D03*
X109220000Y-132080000D03*
X106680000Y-132080000D03*
X104140000Y-132080000D03*
X101600000Y-132080000D03*
D19*
X138430000Y-77470000D03*
D18*
X138430000Y-80010000D03*
X138430000Y-82550000D03*
X138430000Y-85090000D03*
X138430000Y-87630000D03*
X138430000Y-90170000D03*
X138430000Y-92710000D03*
X146050000Y-92710000D03*
X146050000Y-90170000D03*
X146050000Y-87630000D03*
X146050000Y-85090000D03*
X146050000Y-82550000D03*
X146050000Y-80010000D03*
X146050000Y-77470000D03*
D19*
X166370000Y-92710000D03*
D18*
X166370000Y-95250000D03*
X166370000Y-97790000D03*
X166370000Y-100330000D03*
X166370000Y-102870000D03*
X166370000Y-105410000D03*
X166370000Y-107950000D03*
X173990000Y-107950000D03*
X173990000Y-105410000D03*
X173990000Y-102870000D03*
X173990000Y-100330000D03*
X173990000Y-97790000D03*
X173990000Y-95250000D03*
X173990000Y-92710000D03*
D24*
X73025000Y-96901000D03*
X73025000Y-99441000D03*
X73025000Y-94361000D03*
D19*
X99060000Y-74930000D03*
D18*
X99060000Y-77470000D03*
X99060000Y-80010000D03*
X99060000Y-82550000D03*
X99060000Y-85090000D03*
X99060000Y-87630000D03*
X99060000Y-90170000D03*
X99060000Y-92710000D03*
X106680000Y-92710000D03*
X106680000Y-90170000D03*
X106680000Y-87630000D03*
X106680000Y-85090000D03*
X106680000Y-82550000D03*
X106680000Y-80010000D03*
X106680000Y-77470000D03*
X106680000Y-74930000D03*
D19*
X166370000Y-118110000D03*
D18*
X166370000Y-120650000D03*
X166370000Y-123190000D03*
X166370000Y-125730000D03*
X166370000Y-128270000D03*
X166370000Y-130810000D03*
X166370000Y-133350000D03*
X166370000Y-135890000D03*
X173990000Y-135890000D03*
X173990000Y-133350000D03*
X173990000Y-130810000D03*
X173990000Y-128270000D03*
X173990000Y-125730000D03*
X173990000Y-123190000D03*
X173990000Y-120650000D03*
X173990000Y-118110000D03*
D19*
X124460000Y-74930000D03*
D18*
X124460000Y-77470000D03*
X124460000Y-80010000D03*
X124460000Y-82550000D03*
X124460000Y-85090000D03*
X124460000Y-87630000D03*
X124460000Y-90170000D03*
X124460000Y-92710000D03*
X132080000Y-92710000D03*
X132080000Y-90170000D03*
X132080000Y-87630000D03*
X132080000Y-85090000D03*
X132080000Y-82550000D03*
X132080000Y-80010000D03*
X132080000Y-77470000D03*
X132080000Y-74930000D03*
D25*
X162560000Y-125509020D03*
X162560000Y-123410980D03*
D13*
X149860000Y-77470000D03*
D14*
X149860000Y-74930000D03*
X152400000Y-77470000D03*
X152400000Y-74930000D03*
X154940000Y-77470000D03*
X154940000Y-74930000D03*
X157480000Y-77470000D03*
X157480000Y-74930000D03*
X160020000Y-77470000D03*
X160020000Y-74930000D03*
X162560000Y-77470000D03*
X162560000Y-74930000D03*
D26*
X77040740Y-63373000D03*
D27*
X89535000Y-64891920D03*
X86763860Y-64891920D03*
X83995260Y-64891920D03*
X92306140Y-64891920D03*
X95074740Y-64891920D03*
X93690440Y-61854080D03*
X90919300Y-61854080D03*
X88150700Y-61854080D03*
X85379560Y-61854080D03*
D26*
X102029260Y-63373000D03*
X110060740Y-63373000D03*
D27*
X122555000Y-64891920D03*
X119783860Y-64891920D03*
X117015260Y-64891920D03*
X125326140Y-64891920D03*
X128094740Y-64891920D03*
X126710440Y-61854080D03*
X123939300Y-61854080D03*
X121170700Y-61854080D03*
X118399560Y-61854080D03*
D26*
X135049260Y-63373000D03*
D28*
X92649040Y-129032000D03*
X92649040Y-126532640D03*
X92649040Y-124030740D03*
X92649040Y-121531380D03*
X92649040Y-119032020D03*
X92649040Y-116532660D03*
X92649040Y-114030760D03*
X92649040Y-111612680D03*
X92649040Y-109910880D03*
D29*
X92420440Y-107632500D03*
D30*
X87680800Y-134510780D03*
X72229980Y-134510780D03*
X87680800Y-104891840D03*
D31*
X82280760Y-105211880D03*
D32*
X72610980Y-105161080D03*
D33*
X68280280Y-131861560D03*
D34*
X68280280Y-107660440D03*
D35*
X94615000Y-114046000D03*
X134239000Y-91186000D03*
X213874341Y-69091170D03*
X212725000Y-68770520D03*
X164465000Y-89281000D03*
X208280000Y-78232000D03*
X152019000Y-105156000D03*
X151130000Y-101981000D03*
X149479000Y-133350000D03*
X134429530Y-122545531D03*
X128143000Y-67310000D03*
X95123000Y-67246480D03*
X125349000Y-68072000D03*
X92329000Y-68071960D03*
X89535000Y-68897480D03*
X122555000Y-68961000D03*
X86741000Y-69723000D03*
X119761000Y-69913510D03*
X116967000Y-70612000D03*
X83947000Y-70612000D03*
X90932000Y-59372480D03*
X93726000Y-58483480D03*
X135382000Y-82169000D03*
X142113000Y-78740000D03*
X150876000Y-133477000D03*
X149987000Y-111252000D03*
X172720000Y-111125000D03*
X171195990Y-133350000D03*
X102108000Y-86487000D03*
X146304000Y-136906000D03*
X146304000Y-115570000D03*
X195707000Y-53911520D03*
X148590000Y-141224000D03*
X127889000Y-141097000D03*
X80264000Y-77978000D03*
X80264000Y-86487000D03*
D36*
X171450000Y-87630000D02*
X179070000Y-95250000D01*
X179070000Y-95250000D02*
X182880000Y-95250000D01*
X121920000Y-120650000D02*
X124460000Y-120650000D01*
X182016401Y-94386401D02*
X182880000Y-95250000D01*
X181444899Y-93814899D02*
X182016401Y-94386401D01*
X181444899Y-85255101D02*
X181444899Y-93814899D01*
X182880000Y-83820000D02*
X181444899Y-85255101D01*
X182016401Y-105816401D02*
X182880000Y-106680000D01*
X181444899Y-105244899D02*
X182016401Y-105816401D01*
X181444899Y-96685101D02*
X181444899Y-105244899D01*
X182880000Y-95250000D02*
X181444899Y-96685101D01*
X92783660Y-121666000D02*
X92649040Y-121531380D01*
X94615000Y-121666000D02*
X92783660Y-121666000D01*
X94599760Y-114030760D02*
X94615000Y-114046000D01*
X92649040Y-114030760D02*
X94599760Y-114030760D01*
D37*
X134239000Y-91186000D02*
X134239000Y-93446600D01*
X134239000Y-93446600D02*
X124815600Y-102870000D01*
X124815600Y-102870000D02*
X124460000Y-102870000D01*
X190500000Y-53340000D02*
X190500000Y-53695600D01*
X213874341Y-68462553D02*
X213874341Y-69091170D01*
X190500000Y-53695600D02*
X191668410Y-54864010D01*
X191668410Y-54864010D02*
X193523971Y-54864010D01*
X193523971Y-54864010D02*
X193524001Y-54863980D01*
X193524001Y-54863980D02*
X200275768Y-54863980D01*
X200275768Y-54863980D02*
X213874341Y-68462553D01*
X187960000Y-53340000D02*
X187960000Y-53695600D01*
X187960000Y-53695600D02*
X189890400Y-55626000D01*
X189890400Y-55626000D02*
X199580480Y-55626000D01*
X212280501Y-68326021D02*
X212725000Y-68770520D01*
X199580480Y-55626000D02*
X212280501Y-68326021D01*
X175514000Y-78232000D02*
X164909499Y-88836501D01*
X208280000Y-78232000D02*
X175514000Y-78232000D01*
X164909499Y-88836501D02*
X164465000Y-89281000D01*
X132080000Y-113030000D02*
X144145000Y-113030000D01*
X144145000Y-113030000D02*
X151574501Y-105600499D01*
X151574501Y-105600499D02*
X152019000Y-105156000D01*
X217805000Y-70485000D02*
X216560399Y-71729601D01*
X198866748Y-56134010D02*
X182778410Y-56134010D01*
X214462339Y-71729601D02*
X198866748Y-56134010D01*
X180340000Y-53695600D02*
X180340000Y-53340000D01*
X182778410Y-56134010D02*
X180340000Y-53695600D01*
X216560399Y-71729601D02*
X214462339Y-71729601D01*
X180746420Y-56642020D02*
X198656324Y-56642020D01*
X177800000Y-53695600D02*
X180746420Y-56642020D01*
X215039304Y-73025000D02*
X215265000Y-73025000D01*
X198656324Y-56642020D02*
X215039304Y-73025000D01*
X177800000Y-53340000D02*
X177800000Y-53695600D01*
X217805000Y-73025000D02*
X216560399Y-74269601D01*
X175260000Y-53695600D02*
X175260000Y-53340000D01*
X214667591Y-74269601D02*
X197548020Y-57150030D01*
X197548020Y-57150030D02*
X178714430Y-57150030D01*
X178714430Y-57150030D02*
X175260000Y-53695600D01*
X216560399Y-74269601D02*
X214667591Y-74269601D01*
X215265000Y-75565000D02*
X215244556Y-75565000D01*
X215244556Y-75565000D02*
X197337596Y-57658040D01*
X172720000Y-53695600D02*
X172720000Y-53340000D01*
X197337596Y-57658040D02*
X176682440Y-57658040D01*
X176682440Y-57658040D02*
X172720000Y-53695600D01*
X170180000Y-53695600D02*
X170180000Y-53340000D01*
X214731601Y-76809601D02*
X196088049Y-58166049D01*
X216560399Y-76809601D02*
X214731601Y-76809601D01*
X196088049Y-58166049D02*
X174650449Y-58166049D01*
X217805000Y-75565000D02*
X216560399Y-76809601D01*
X174650449Y-58166049D02*
X170180000Y-53695600D01*
X172618458Y-58674058D02*
X167640000Y-53695600D01*
X167640000Y-53695600D02*
X167640000Y-53340000D01*
X195834058Y-58674058D02*
X172618458Y-58674058D01*
X215265000Y-78105000D02*
X195834058Y-58674058D01*
X170586467Y-59182067D02*
X165100000Y-53695600D01*
X214688035Y-79349601D02*
X194520501Y-59182067D01*
X194520501Y-59182067D02*
X170586467Y-59182067D01*
X217805000Y-78105000D02*
X216560399Y-79349601D01*
X165100000Y-53695600D02*
X165100000Y-53340000D01*
X216560399Y-79349601D02*
X214688035Y-79349601D01*
X215265000Y-80645000D02*
X194310076Y-59690076D01*
X162560000Y-53695600D02*
X162560000Y-53340000D01*
X194310076Y-59690076D02*
X168554476Y-59690076D01*
X168554476Y-59690076D02*
X162560000Y-53695600D01*
X215265000Y-98425000D02*
X210947030Y-94107030D01*
X193671386Y-60198085D02*
X163982485Y-60198085D01*
X157480000Y-53695600D02*
X157480000Y-53340000D01*
X163982485Y-60198085D02*
X157480000Y-53695600D01*
X210947030Y-94107030D02*
X210947030Y-77473728D01*
X210947030Y-77473728D02*
X193671386Y-60198085D01*
X216560399Y-99669601D02*
X216941401Y-99288599D01*
X214667591Y-99669601D02*
X216560399Y-99669601D01*
X210439020Y-77684153D02*
X210439020Y-95441030D01*
X193460961Y-60706094D02*
X210439020Y-77684153D01*
X161950494Y-60706094D02*
X193460961Y-60706094D01*
X154940000Y-53340000D02*
X154940000Y-53695600D01*
X216941401Y-99288599D02*
X217805000Y-98425000D01*
X154940000Y-53695600D02*
X161950494Y-60706094D01*
X210439020Y-95441030D02*
X214667591Y-99669601D01*
X161897385Y-61214102D02*
X193250535Y-61214102D01*
X193250535Y-61214102D02*
X209931010Y-77894577D01*
X161897253Y-61213970D02*
X161897385Y-61214102D01*
X159918370Y-61213970D02*
X161897253Y-61213970D01*
X152400000Y-53340000D02*
X152400000Y-53695600D01*
X214043686Y-100965000D02*
X215265000Y-100965000D01*
X209931010Y-77894577D02*
X209931010Y-96852324D01*
X209931010Y-96852324D02*
X214043686Y-100965000D01*
X152400000Y-53695600D02*
X159918370Y-61213970D01*
X216560399Y-102209601D02*
X213675733Y-102209601D01*
X213675733Y-102209601D02*
X209423000Y-97956868D01*
X149860000Y-53695600D02*
X149860000Y-53340000D01*
X161686829Y-61721980D02*
X157886380Y-61721980D01*
X161686961Y-61722112D02*
X161686829Y-61721980D01*
X157886380Y-61721980D02*
X149860000Y-53695600D01*
X217805000Y-100965000D02*
X216560399Y-102209601D01*
X209423000Y-78105001D02*
X193040111Y-61722112D01*
X209423000Y-97956868D02*
X209423000Y-78105001D01*
X193040111Y-61722112D02*
X161686961Y-61722112D01*
X166370000Y-120650000D02*
X167640000Y-120650000D01*
X171450000Y-116840000D02*
X191770000Y-116840000D01*
X167640000Y-120650000D02*
X171450000Y-116840000D01*
X73025000Y-94361000D02*
X78105000Y-94361000D01*
X78105000Y-94361000D02*
X80645000Y-94361000D01*
X80645000Y-94361000D02*
X83185000Y-94361000D01*
X80645000Y-94361000D02*
X85725000Y-94361000D01*
X85725000Y-94361000D02*
X88265000Y-94361000D01*
X88265000Y-94361000D02*
X90805000Y-94361000D01*
X94521020Y-119032020D02*
X94615000Y-119126000D01*
X92649040Y-119032020D02*
X94521020Y-119032020D01*
X86423499Y-95059499D02*
X85725000Y-94361000D01*
X86995000Y-95631000D02*
X86423499Y-95059499D01*
X86995000Y-102308662D02*
X86995000Y-95631000D01*
X86360000Y-102943662D02*
X86995000Y-102308662D01*
X86360000Y-103626918D02*
X86360000Y-102943662D01*
X86349839Y-103637079D02*
X86360000Y-103626918D01*
X86360000Y-106156762D02*
X86349839Y-106146601D01*
X86360000Y-112998250D02*
X86360000Y-106156762D01*
X86349839Y-106146601D02*
X86349839Y-103637079D01*
X92393770Y-119032020D02*
X86360000Y-112998250D01*
X92649040Y-119032020D02*
X92393770Y-119032020D01*
X83125808Y-82577940D02*
X76880617Y-82577940D01*
X76880617Y-82577940D02*
X74869040Y-82577940D01*
X116879868Y-105410000D02*
X110275848Y-98805980D01*
X99353848Y-98805980D02*
X83125808Y-82577940D01*
X110275848Y-98805980D02*
X99353848Y-98805980D01*
X124460000Y-105410000D02*
X116879868Y-105410000D01*
X123063000Y-110490000D02*
X124460000Y-110490000D01*
X110065424Y-99313990D02*
X121241434Y-110490000D01*
X99143424Y-99313990D02*
X110065424Y-99313990D01*
X84507954Y-84678520D02*
X99143424Y-99313990D01*
X77317600Y-84678520D02*
X84507954Y-84678520D01*
X121241434Y-110490000D02*
X123063000Y-110490000D01*
X166370000Y-100330000D02*
X164719000Y-101981000D01*
X164719000Y-101981000D02*
X151638000Y-101981000D01*
X151638000Y-101981000D02*
X151130000Y-101981000D01*
X132080000Y-133350000D02*
X149479000Y-133350000D01*
X134429530Y-128816070D02*
X134429530Y-123174148D01*
X132080000Y-130810000D02*
X132435600Y-130810000D01*
X134429530Y-123174148D02*
X134429530Y-122545531D01*
X132435600Y-130810000D02*
X134429530Y-128816070D01*
X130683000Y-130810000D02*
X132080000Y-130810000D01*
X129514590Y-131978410D02*
X130683000Y-130810000D01*
X123823609Y-131978410D02*
X129514590Y-131978410D01*
X110896420Y-134112020D02*
X121689999Y-134112020D01*
X109220000Y-132080000D02*
X109220000Y-132435600D01*
X109220000Y-132435600D02*
X110896420Y-134112020D01*
X121689999Y-134112020D02*
X123823609Y-131978410D01*
X146050000Y-105410000D02*
X146177000Y-105537000D01*
X133477000Y-130810000D02*
X132080000Y-130810000D01*
X133604000Y-130810000D02*
X133477000Y-130810000D01*
X134874000Y-132080000D02*
X133604000Y-130810000D01*
X169824400Y-132080000D02*
X134874000Y-132080000D01*
X173634400Y-128270000D02*
X169824400Y-132080000D01*
X173990000Y-128270000D02*
X173634400Y-128270000D01*
X148590000Y-102870000D02*
X164973000Y-102870000D01*
X164973000Y-102870000D02*
X166370000Y-102870000D01*
X146050000Y-102870000D02*
X147294601Y-104114601D01*
X183198010Y-108204000D02*
X184150000Y-107252010D01*
X184556401Y-105003599D02*
X185420000Y-104140000D01*
X147294601Y-104114601D02*
X174726601Y-104114601D01*
X174726601Y-104114601D02*
X178816000Y-108204000D01*
X178816000Y-108204000D02*
X183198010Y-108204000D01*
X184150000Y-107252010D02*
X184150000Y-105410000D01*
X184150000Y-105410000D02*
X184556401Y-105003599D01*
X167640000Y-68580000D02*
X167640000Y-68935600D01*
X167640000Y-68580000D02*
X167640000Y-68224400D01*
X187960000Y-68224400D02*
X187960000Y-68580000D01*
X114300000Y-132435600D02*
X114300000Y-132080000D01*
X119633990Y-133604010D02*
X115468410Y-133604010D01*
X123596410Y-129641590D02*
X119633990Y-133604010D01*
X115468410Y-133604010D02*
X114300000Y-132435600D01*
X127812810Y-129641590D02*
X123596410Y-129641590D01*
X131724400Y-125730000D02*
X127812810Y-129641590D01*
X132080000Y-125730000D02*
X131724400Y-125730000D01*
X171094400Y-105410000D02*
X173634400Y-107950000D01*
X173634400Y-107950000D02*
X173990000Y-107950000D01*
X166370000Y-105410000D02*
X171094400Y-105410000D01*
X186664601Y-107277409D02*
X185103010Y-108839000D01*
X186664601Y-104317799D02*
X186664601Y-107277409D01*
X186842400Y-104140000D02*
X186664601Y-104317799D01*
X187960000Y-104140000D02*
X186842400Y-104140000D01*
X175387000Y-107950000D02*
X173990000Y-107950000D01*
X176276000Y-108839000D02*
X175387000Y-107950000D01*
X185103010Y-108839000D02*
X176276000Y-108839000D01*
X94990013Y-64193273D02*
X94545514Y-64637772D01*
X127514383Y-67310000D02*
X127450863Y-67246480D01*
X128143000Y-67310000D02*
X127514383Y-67310000D01*
X127450863Y-67246480D02*
X95123000Y-67246480D01*
X124847383Y-68072000D02*
X125349000Y-68072000D01*
X125349000Y-68072000D02*
X92329040Y-68072000D01*
X92329040Y-68072000D02*
X92329000Y-68071960D01*
X122555000Y-64643000D02*
X122555000Y-64891920D01*
X122491480Y-68897480D02*
X122555000Y-68961000D01*
X89535000Y-68897480D02*
X122491480Y-68897480D01*
X86763860Y-64891920D02*
X86763860Y-64643000D01*
X119783860Y-64643000D02*
X119783860Y-64891920D01*
X119570490Y-69723000D02*
X119761000Y-69913510D01*
X86741000Y-69723000D02*
X119570490Y-69723000D01*
X116967000Y-70612000D02*
X84074000Y-70612000D01*
X84074000Y-70612000D02*
X83947000Y-70612000D01*
X117394990Y-62103000D02*
X118399560Y-62103000D01*
X85379560Y-61854080D02*
X87035640Y-60198000D01*
X85379560Y-62103000D02*
X85379560Y-61854080D01*
X115489990Y-60198000D02*
X117394990Y-62103000D01*
X87035640Y-60198000D02*
X115489990Y-60198000D01*
X90995480Y-59309000D02*
X90932000Y-59372480D01*
X121145300Y-59309000D02*
X90995480Y-59309000D01*
X123939300Y-62103000D02*
X121145300Y-59309000D01*
X126710440Y-61813440D02*
X126710440Y-62103000D01*
X123380480Y-58483480D02*
X126710440Y-61813440D01*
X93726000Y-58483480D02*
X123380480Y-58483480D01*
X136677410Y-89001590D02*
X135509000Y-90170000D01*
X135509000Y-90170000D02*
X132080000Y-90170000D01*
X162560000Y-81280000D02*
X157581590Y-86258410D01*
X157581590Y-86258410D02*
X141809571Y-86258410D01*
X141809571Y-86258410D02*
X139066391Y-89001590D01*
X139066391Y-89001590D02*
X136677410Y-89001590D01*
X157480000Y-68580000D02*
X157480000Y-68224400D01*
X157480000Y-68580000D02*
X157480000Y-68935600D01*
X135356600Y-82169000D02*
X135382000Y-82169000D01*
X132080000Y-85090000D02*
X132435600Y-85090000D01*
X132435600Y-85090000D02*
X135356600Y-82169000D01*
X157480000Y-77470000D02*
X156210020Y-78739980D01*
X156210020Y-78739980D02*
X142741637Y-78739980D01*
X142741637Y-78739980D02*
X142741617Y-78740000D01*
X142741617Y-78740000D02*
X142113000Y-78740000D01*
X149860000Y-70896096D02*
X149860000Y-69977000D01*
X145318087Y-75438009D02*
X149860000Y-70896096D01*
X137007591Y-75438009D02*
X145318087Y-75438009D01*
X132435600Y-80010000D02*
X137007591Y-75438009D01*
X149860000Y-69977000D02*
X149860000Y-68580000D01*
X132080000Y-80010000D02*
X132435600Y-80010000D01*
X154940000Y-68580000D02*
X152527000Y-70993000D01*
X111986072Y-83921590D02*
X105840429Y-83921590D01*
X152527000Y-70993000D02*
X150481530Y-70993000D01*
X150481530Y-70993000D02*
X145528512Y-75946018D01*
X105840429Y-83921590D02*
X105155990Y-84606029D01*
X145528512Y-75946018D02*
X137337780Y-75946018D01*
X137337780Y-75946018D02*
X133604010Y-79679788D01*
X132969000Y-81280000D02*
X114627662Y-81280000D01*
X133604010Y-79679788D02*
X133604010Y-80644990D01*
X133604010Y-80644990D02*
X132969000Y-81280000D01*
X114627662Y-81280000D02*
X111986072Y-83921590D01*
X105155990Y-84606029D02*
X105155990Y-89001590D01*
X105155990Y-89001590D02*
X106324400Y-90170000D01*
X106324400Y-90170000D02*
X106680000Y-90170000D01*
X106680000Y-85090000D02*
X122452019Y-85090000D01*
X122452019Y-85090000D02*
X123722019Y-83820000D01*
X132817981Y-83820000D02*
X133985000Y-82652981D01*
X123722019Y-83820000D02*
X132817981Y-83820000D01*
X133985000Y-82652981D02*
X133985000Y-82296000D01*
X152400000Y-83820000D02*
X154241501Y-81978499D01*
X133985000Y-82296000D02*
X135064501Y-81216499D01*
X135064501Y-81216499D02*
X142708518Y-81216499D01*
X142708518Y-81216499D02*
X145312019Y-83820000D01*
X145312019Y-83820000D02*
X152400000Y-83820000D01*
X154241501Y-81978499D02*
X154940000Y-81280000D01*
X106680000Y-77470000D02*
X109220000Y-77470000D01*
X109220000Y-77470000D02*
X111760000Y-80010000D01*
X106680000Y-82550000D02*
X111760000Y-82550000D01*
X99060000Y-74930000D02*
X99415600Y-74930000D01*
X99415600Y-74930000D02*
X100584010Y-73761590D01*
X100584010Y-73761590D02*
X110591590Y-73761590D01*
X110591590Y-73761590D02*
X111061501Y-74231501D01*
X111061501Y-74231501D02*
X111760000Y-74930000D01*
X99060000Y-80010000D02*
X102132019Y-80010000D01*
X102132019Y-80010000D02*
X105840429Y-76301590D01*
X105840429Y-76301590D02*
X110591590Y-76301590D01*
X110591590Y-76301590D02*
X111061501Y-76771501D01*
X111061501Y-76771501D02*
X111760000Y-77470000D01*
X138430000Y-78968600D02*
X138430000Y-77470000D01*
X138430000Y-80010000D02*
X138430000Y-78968600D01*
X162560000Y-68580000D02*
X162560000Y-68935600D01*
X138785600Y-77470000D02*
X138430000Y-77470000D01*
X138430000Y-77470000D02*
X138430000Y-80010000D01*
X159156401Y-78333599D02*
X160020000Y-77470000D01*
X148336000Y-79756000D02*
X157734000Y-79756000D01*
X146913590Y-81178410D02*
X148336000Y-79756000D01*
X157734000Y-79756000D02*
X159156401Y-78333599D01*
X144932410Y-81178410D02*
X146913590Y-81178410D01*
X143764000Y-80010000D02*
X144932410Y-81178410D01*
X138430000Y-80010000D02*
X143764000Y-80010000D01*
X165100000Y-68935600D02*
X165100000Y-68580000D01*
X146050000Y-80010000D02*
X146405600Y-80010000D01*
X146050000Y-80010000D02*
X146812010Y-79247990D01*
X146812010Y-79247990D02*
X157523576Y-79247990D01*
X157523576Y-79247990D02*
X158775399Y-77996167D01*
X158775399Y-76174601D02*
X159156401Y-75793599D01*
X159156401Y-75793599D02*
X160020000Y-74930000D01*
X158775399Y-77996167D02*
X158775399Y-76174601D01*
X104140000Y-132080000D02*
X104140000Y-132435600D01*
X104140000Y-132435600D02*
X106387899Y-134683499D01*
X106387899Y-134683499D02*
X149669501Y-134683499D01*
X149669501Y-134683499D02*
X150431501Y-133921499D01*
X150431501Y-133921499D02*
X150876000Y-133477000D01*
X169545000Y-98780600D02*
X169545000Y-93268798D01*
X169545000Y-93268798D02*
X166446202Y-90170000D01*
X166446202Y-90170000D02*
X147447000Y-90170000D01*
X147447000Y-90170000D02*
X146050000Y-90170000D01*
X173990000Y-102870000D02*
X173634400Y-102870000D01*
X173634400Y-102870000D02*
X169545000Y-98780600D01*
X146050000Y-90170000D02*
X146050000Y-87630000D01*
X138430000Y-82550000D02*
X138074400Y-82550000D01*
X138074400Y-82550000D02*
X134264400Y-86360000D01*
X134264400Y-86360000D02*
X114173000Y-86360000D01*
X105942019Y-91440000D02*
X102933501Y-88431482D01*
X114173000Y-86360000D02*
X109093000Y-91440000D01*
X101092000Y-83820000D02*
X98322019Y-83820000D01*
X109093000Y-91440000D02*
X105942019Y-91440000D01*
X97535990Y-78638410D02*
X98704400Y-77470000D01*
X102933501Y-88431482D02*
X102933501Y-85661501D01*
X98704400Y-77470000D02*
X99060000Y-77470000D01*
X102933501Y-85661501D02*
X101092000Y-83820000D01*
X98322019Y-83820000D02*
X97535990Y-83033971D01*
X97535990Y-83033971D02*
X97535990Y-78638410D01*
X150114000Y-111125000D02*
X149987000Y-111252000D01*
X172720000Y-111125000D02*
X150114000Y-111125000D01*
X173990000Y-133350000D02*
X171195990Y-133350000D01*
X173990000Y-133350000D02*
X173634400Y-133350000D01*
X145694400Y-92710000D02*
X146050000Y-92710000D01*
X146050000Y-93065600D02*
X145694400Y-92710000D01*
X146050000Y-92710000D02*
X146405600Y-92710000D01*
X102108000Y-90163617D02*
X102108000Y-87115617D01*
X106241882Y-94297499D02*
X102108000Y-90163617D01*
X107251501Y-94297499D02*
X106241882Y-94297499D01*
X102108000Y-87115617D02*
X102108000Y-86487000D01*
X139269571Y-86258410D02*
X137590429Y-86258410D01*
X112750590Y-88798410D02*
X107251501Y-94297499D01*
X137590429Y-86258410D02*
X135050429Y-88798410D01*
X140437981Y-85090000D02*
X139269571Y-86258410D01*
X135050429Y-88798410D02*
X112750590Y-88798410D01*
X146050000Y-85090000D02*
X140437981Y-85090000D01*
X165849300Y-123710700D02*
X166370000Y-123190000D01*
X162560000Y-123710700D02*
X165849300Y-123710700D01*
X165849300Y-125209300D02*
X166370000Y-125730000D01*
X162560000Y-125209300D02*
X165849300Y-125209300D01*
X217805000Y-111125000D02*
X216509601Y-112420399D01*
X146748499Y-137350499D02*
X146304000Y-136906000D01*
X216509601Y-112420399D02*
X213842601Y-112420399D01*
X213842601Y-112420399D02*
X211582000Y-114681000D01*
X211582000Y-114681000D02*
X211582000Y-131890010D01*
X211582000Y-131890010D02*
X208788509Y-134683501D01*
X208788509Y-134683501D02*
X173164499Y-134683501D01*
X173164499Y-134683501D02*
X170561000Y-137287000D01*
X170561000Y-137287000D02*
X146811998Y-137287000D01*
X146811998Y-137287000D02*
X146748499Y-137350499D01*
X132080000Y-115570000D02*
X146304000Y-115570000D01*
X132080000Y-115570000D02*
X132435600Y-115570000D01*
X116840000Y-131724400D02*
X116840000Y-132080000D01*
X101648260Y-116532660D02*
X116840000Y-131724400D01*
X92649040Y-116532660D02*
X101648260Y-116532660D01*
X89916000Y-103632000D02*
X88265000Y-101981000D01*
X89916000Y-114054890D02*
X89916000Y-103632000D01*
X92393770Y-116532660D02*
X89916000Y-114054890D01*
X92649040Y-116532660D02*
X92393770Y-116532660D01*
X93682820Y-124030740D02*
X92649040Y-124030740D01*
X104066340Y-124030740D02*
X93682820Y-124030740D01*
X111760000Y-131724400D02*
X104066340Y-124030740D01*
X111760000Y-132080000D02*
X111760000Y-131724400D01*
X92393770Y-124030740D02*
X92649040Y-124030740D01*
X85725000Y-117361970D02*
X92393770Y-124030740D01*
X85725000Y-101981000D02*
X85725000Y-117361970D01*
X93682820Y-126532640D02*
X92649040Y-126532640D01*
X101488240Y-126532640D02*
X93682820Y-126532640D01*
X106680000Y-131724400D02*
X101488240Y-126532640D01*
X106680000Y-132080000D02*
X106680000Y-131724400D01*
X92393770Y-126532640D02*
X92649040Y-126532640D01*
X84201000Y-118339870D02*
X92393770Y-126532640D01*
X84201000Y-104013000D02*
X84201000Y-118339870D01*
X83185000Y-102997000D02*
X84201000Y-104013000D01*
X83185000Y-101981000D02*
X83185000Y-102997000D01*
X92393770Y-129032000D02*
X92649040Y-129032000D01*
X83211671Y-110008671D02*
X83211671Y-119849901D01*
X80645000Y-107442000D02*
X83211671Y-110008671D01*
X83211671Y-119849901D02*
X92393770Y-129032000D01*
X80645000Y-101981000D02*
X80645000Y-107442000D01*
X92393770Y-109910880D02*
X92649040Y-109910880D01*
X90805020Y-108322130D02*
X92393770Y-109910880D01*
X90805020Y-102968848D02*
X90805020Y-108322130D01*
X90805000Y-102968828D02*
X90805020Y-102968848D01*
X90805000Y-101981000D02*
X90805000Y-102968828D01*
X166014400Y-95250000D02*
X166370000Y-95250000D01*
X165354000Y-95250000D02*
X166370000Y-95250000D01*
X159766000Y-100838000D02*
X165354000Y-95250000D01*
X143764000Y-100838000D02*
X159766000Y-100838000D01*
X132740410Y-111861590D02*
X143764000Y-100838000D01*
X130555990Y-112546029D02*
X131240429Y-111861590D01*
X130555990Y-113513971D02*
X130555990Y-112546029D01*
X131240429Y-111861590D02*
X132740410Y-111861590D01*
X130822010Y-113779991D02*
X130555990Y-113513971D01*
X130302000Y-114300000D02*
X130822010Y-113779991D01*
X123571000Y-114300000D02*
X130302000Y-114300000D01*
X120883680Y-111612680D02*
X123571000Y-114300000D01*
X92649040Y-111612680D02*
X120883680Y-111612680D01*
X145107662Y-74930000D02*
X147320000Y-72717662D01*
X132080000Y-74930000D02*
X145107662Y-74930000D01*
X147320000Y-72717662D02*
X147320000Y-69977000D01*
X147320000Y-69977000D02*
X147320000Y-68580000D01*
X144780000Y-53340000D02*
X144780000Y-53695600D01*
X144780000Y-53695600D02*
X156210000Y-65125600D01*
X161696401Y-76606401D02*
X162560000Y-77470000D01*
X156210000Y-65125600D02*
X156210000Y-69317981D01*
X156210000Y-69317981D02*
X156742019Y-69850000D01*
X156742019Y-69850000D02*
X156731212Y-69850000D01*
X156731212Y-69850000D02*
X161264601Y-74383389D01*
X161264601Y-74383389D02*
X161264601Y-76174601D01*
X161264601Y-76174601D02*
X161696401Y-76606401D01*
X162560000Y-74930000D02*
X158750000Y-71120000D01*
X158750000Y-71120000D02*
X158750000Y-65151000D01*
X158750000Y-65151000D02*
X155854390Y-62255390D01*
X155854390Y-62255390D02*
X155854390Y-62229990D01*
X155854390Y-62229990D02*
X147320000Y-53695600D01*
X147320000Y-53695600D02*
X147320000Y-53340000D01*
D36*
X124460000Y-74930000D02*
X126238000Y-74930000D01*
X126238000Y-74930000D02*
X132041898Y-69126102D01*
X132041898Y-69126102D02*
X142367000Y-69126102D01*
X142367000Y-69126102D02*
X142367000Y-49022000D01*
X145630898Y-72390000D02*
X142367000Y-69126102D01*
X146050000Y-72390000D02*
X145630898Y-72390000D01*
X74869040Y-77881480D02*
X74869040Y-77429866D01*
X74869040Y-77429866D02*
X76479906Y-75819000D01*
X76479906Y-75819000D02*
X85090000Y-75819000D01*
X85090000Y-75819000D02*
X94361000Y-85090000D01*
X94361000Y-85090000D02*
X99060000Y-85090000D01*
X173863000Y-92710000D02*
X173990000Y-92710000D01*
X95249999Y-143509999D02*
X95249999Y-133350001D01*
X95249999Y-133350001D02*
X96520000Y-132080000D01*
X96520000Y-132080000D02*
X101600000Y-132080000D01*
X187960000Y-64770000D02*
X189585600Y-64770000D01*
X189585600Y-64770000D02*
X193040000Y-68224400D01*
X193040000Y-68224400D02*
X193040000Y-68580000D01*
X195580000Y-48260000D02*
X195707000Y-48387000D01*
X195707000Y-48387000D02*
X195707000Y-53282903D01*
X195707000Y-53282903D02*
X195707000Y-53911520D01*
X173990000Y-135890000D02*
X173990000Y-138744762D01*
X173990000Y-138744762D02*
X173990000Y-143129000D01*
X148590000Y-141224000D02*
X148590000Y-142875000D01*
X185420000Y-53340000D02*
X185420000Y-48260000D01*
X215265000Y-65405000D02*
X215265000Y-63881000D01*
X216916000Y-62230000D02*
X219710000Y-62230000D01*
X215265000Y-63881000D02*
X216916000Y-62230000D01*
X74869040Y-77881480D02*
X64546480Y-77881480D01*
X188823599Y-84683599D02*
X187960000Y-83820000D01*
X189395101Y-85255101D02*
X188823599Y-84683599D01*
X189395101Y-93814899D02*
X189395101Y-85255101D01*
X187960000Y-95250000D02*
X189395101Y-93814899D01*
X188823599Y-96113599D02*
X187960000Y-95250000D01*
X189395101Y-96685101D02*
X188823599Y-96113599D01*
X189395101Y-105244899D02*
X189395101Y-96685101D01*
X187960000Y-106680000D02*
X189395101Y-105244899D01*
X121920000Y-118110000D02*
X124460000Y-118110000D01*
X124460000Y-118110000D02*
X127000000Y-118110000D01*
X129540000Y-120650000D02*
X132080000Y-120650000D01*
X127000000Y-118110000D02*
X129540000Y-120650000D01*
X132080000Y-123190000D02*
X132080000Y-120650000D01*
X124460000Y-74930000D02*
X124815600Y-74930000D01*
X203200000Y-121920000D02*
X187960000Y-106680000D01*
X208280000Y-121920000D02*
X203200000Y-121920000D01*
X127889000Y-141097000D02*
X127889000Y-141725617D01*
X127889000Y-141725617D02*
X127889000Y-142748000D01*
X146050000Y-72390000D02*
X145669000Y-72390000D01*
X119380000Y-74930000D02*
X124460000Y-74930000D01*
X73025000Y-99441000D02*
X67945000Y-99441000D01*
X67945000Y-99441000D02*
X64135000Y-99441000D01*
D37*
X76880617Y-79982060D02*
X74869040Y-79982060D01*
X124460000Y-107950000D02*
X124815600Y-107950000D01*
X81248362Y-79982060D02*
X76880617Y-79982060D01*
X99564272Y-98297970D02*
X81248362Y-79982060D01*
X110486272Y-98297970D02*
X99564272Y-98297970D01*
X116226703Y-104038401D02*
X110486272Y-98297970D01*
X125984010Y-106781590D02*
X125984010Y-104926029D01*
X125096382Y-104038401D02*
X116226703Y-104038401D01*
X125984010Y-104926029D02*
X125096382Y-104038401D01*
X124815600Y-107950000D02*
X125984010Y-106781590D01*
X98933000Y-99822000D02*
X85592921Y-86481921D01*
X124460000Y-113030000D02*
X123063000Y-113030000D01*
X123063000Y-113030000D02*
X109855000Y-99822000D01*
X85592921Y-86481921D02*
X80269079Y-86481921D01*
X109855000Y-99822000D02*
X98933000Y-99822000D01*
X80269079Y-86481921D02*
X80264000Y-86487000D01*
X80264000Y-77978000D02*
X77464920Y-77978000D01*
X77464920Y-77978000D02*
X77368400Y-77881480D01*
G36*
X221565000Y-145365000D02*
X219329000Y-145365000D01*
X219329000Y-142367000D01*
X219329000Y-122301000D01*
X217824903Y-122301000D01*
X217805000Y-122297041D01*
X217785096Y-122301000D01*
X215284903Y-122301000D01*
X215265000Y-122297041D01*
X215245096Y-122301000D01*
X214249000Y-122301000D01*
X214249000Y-117729000D01*
X215245096Y-117729000D01*
X215265000Y-117732959D01*
X215284903Y-117729000D01*
X217785096Y-117729000D01*
X217805000Y-117732959D01*
X217824903Y-117729000D01*
X219329000Y-117729000D01*
X219329000Y-49403000D01*
X65151000Y-49403000D01*
X65151000Y-98807872D01*
X65089406Y-98900055D01*
X65035360Y-99171760D01*
X65089406Y-99443465D01*
X65151000Y-99535647D01*
X65151000Y-142367000D01*
X219329000Y-142367000D01*
X219329000Y-145365000D01*
X62915000Y-145365000D01*
X62915000Y-46405000D01*
X221565000Y-46405000D01*
X221565000Y-145365000D01*
X221565000Y-145365000D01*
G37*
X221565000Y-145365000D02*
X219329000Y-145365000D01*
X219329000Y-142367000D01*
X219329000Y-122301000D01*
X217824903Y-122301000D01*
X217805000Y-122297041D01*
X217785096Y-122301000D01*
X215284903Y-122301000D01*
X215265000Y-122297041D01*
X215245096Y-122301000D01*
X214249000Y-122301000D01*
X214249000Y-117729000D01*
X215245096Y-117729000D01*
X215265000Y-117732959D01*
X215284903Y-117729000D01*
X217785096Y-117729000D01*
X217805000Y-117732959D01*
X217824903Y-117729000D01*
X219329000Y-117729000D01*
X219329000Y-49403000D01*
X65151000Y-49403000D01*
X65151000Y-98807872D01*
X65089406Y-98900055D01*
X65035360Y-99171760D01*
X65089406Y-99443465D01*
X65151000Y-99535647D01*
X65151000Y-142367000D01*
X219329000Y-142367000D01*
X219329000Y-145365000D01*
X62915000Y-145365000D01*
X62915000Y-46405000D01*
X221565000Y-46405000D01*
X221565000Y-145365000D01*
G36*
X170688000Y-116524369D02*
X168119248Y-119093121D01*
X168148000Y-119023709D01*
X168148000Y-118395750D01*
X168148000Y-117824250D01*
X168148000Y-117196291D01*
X168051327Y-116962902D01*
X167872699Y-116784273D01*
X167639310Y-116687600D01*
X167386691Y-116687600D01*
X166655750Y-116687600D01*
X166497000Y-116846350D01*
X166497000Y-117983000D01*
X167989250Y-117983000D01*
X168148000Y-117824250D01*
X168148000Y-118395750D01*
X167989250Y-118237000D01*
X166497000Y-118237000D01*
X166497000Y-118257000D01*
X166243000Y-118257000D01*
X166243000Y-118237000D01*
X166243000Y-117983000D01*
X166243000Y-116846350D01*
X166084250Y-116687600D01*
X165353309Y-116687600D01*
X165100690Y-116687600D01*
X164867301Y-116784273D01*
X164688673Y-116962902D01*
X164592000Y-117196291D01*
X164592000Y-117824250D01*
X164750750Y-117983000D01*
X166243000Y-117983000D01*
X166243000Y-118237000D01*
X164750750Y-118237000D01*
X164592000Y-118395750D01*
X164592000Y-119023709D01*
X164688673Y-119257098D01*
X164867301Y-119435727D01*
X165100690Y-119532400D01*
X165141115Y-119532400D01*
X164973778Y-119644211D01*
X164665441Y-120105671D01*
X164557167Y-120650000D01*
X164665441Y-121194329D01*
X164973778Y-121655789D01*
X165369198Y-121919999D01*
X164973778Y-122184211D01*
X164665441Y-122645671D01*
X164605164Y-122948700D01*
X163658591Y-122948700D01*
X163608954Y-122699154D01*
X163362835Y-122330810D01*
X162994491Y-122084691D01*
X162560000Y-121998265D01*
X162125509Y-122084691D01*
X161757165Y-122330810D01*
X161511046Y-122699154D01*
X161424620Y-123133645D01*
X161424620Y-123688315D01*
X161511046Y-124122806D01*
X161736351Y-124460000D01*
X161511046Y-124797194D01*
X161424620Y-125231685D01*
X161424620Y-125786355D01*
X161511046Y-126220846D01*
X161757165Y-126589190D01*
X162125509Y-126835309D01*
X162560000Y-126921735D01*
X162994491Y-126835309D01*
X163362835Y-126589190D01*
X163608954Y-126220846D01*
X163658591Y-125971300D01*
X164605164Y-125971300D01*
X164665441Y-126274329D01*
X164973778Y-126735789D01*
X165369198Y-126999999D01*
X164973778Y-127264211D01*
X164665441Y-127725671D01*
X164557167Y-128270000D01*
X164665441Y-128814329D01*
X164973778Y-129275789D01*
X165369198Y-129539999D01*
X164973778Y-129804211D01*
X164665441Y-130265671D01*
X164557167Y-130810000D01*
X164658214Y-131318000D01*
X151765000Y-131318000D01*
X151765000Y-115697000D01*
X170688000Y-115697000D01*
X170688000Y-116524369D01*
X170688000Y-116524369D01*
G37*
X170688000Y-116524369D02*
X168119248Y-119093121D01*
X168148000Y-119023709D01*
X168148000Y-118395750D01*
X168148000Y-117824250D01*
X168148000Y-117196291D01*
X168051327Y-116962902D01*
X167872699Y-116784273D01*
X167639310Y-116687600D01*
X167386691Y-116687600D01*
X166655750Y-116687600D01*
X166497000Y-116846350D01*
X166497000Y-117983000D01*
X167989250Y-117983000D01*
X168148000Y-117824250D01*
X168148000Y-118395750D01*
X167989250Y-118237000D01*
X166497000Y-118237000D01*
X166497000Y-118257000D01*
X166243000Y-118257000D01*
X166243000Y-118237000D01*
X166243000Y-117983000D01*
X166243000Y-116846350D01*
X166084250Y-116687600D01*
X165353309Y-116687600D01*
X165100690Y-116687600D01*
X164867301Y-116784273D01*
X164688673Y-116962902D01*
X164592000Y-117196291D01*
X164592000Y-117824250D01*
X164750750Y-117983000D01*
X166243000Y-117983000D01*
X166243000Y-118237000D01*
X164750750Y-118237000D01*
X164592000Y-118395750D01*
X164592000Y-119023709D01*
X164688673Y-119257098D01*
X164867301Y-119435727D01*
X165100690Y-119532400D01*
X165141115Y-119532400D01*
X164973778Y-119644211D01*
X164665441Y-120105671D01*
X164557167Y-120650000D01*
X164665441Y-121194329D01*
X164973778Y-121655789D01*
X165369198Y-121919999D01*
X164973778Y-122184211D01*
X164665441Y-122645671D01*
X164605164Y-122948700D01*
X163658591Y-122948700D01*
X163608954Y-122699154D01*
X163362835Y-122330810D01*
X162994491Y-122084691D01*
X162560000Y-121998265D01*
X162125509Y-122084691D01*
X161757165Y-122330810D01*
X161511046Y-122699154D01*
X161424620Y-123133645D01*
X161424620Y-123688315D01*
X161511046Y-124122806D01*
X161736351Y-124460000D01*
X161511046Y-124797194D01*
X161424620Y-125231685D01*
X161424620Y-125786355D01*
X161511046Y-126220846D01*
X161757165Y-126589190D01*
X162125509Y-126835309D01*
X162560000Y-126921735D01*
X162994491Y-126835309D01*
X163362835Y-126589190D01*
X163608954Y-126220846D01*
X163658591Y-125971300D01*
X164605164Y-125971300D01*
X164665441Y-126274329D01*
X164973778Y-126735789D01*
X165369198Y-126999999D01*
X164973778Y-127264211D01*
X164665441Y-127725671D01*
X164557167Y-128270000D01*
X164665441Y-128814329D01*
X164973778Y-129275789D01*
X165369198Y-129539999D01*
X164973778Y-129804211D01*
X164665441Y-130265671D01*
X164557167Y-130810000D01*
X164658214Y-131318000D01*
X151765000Y-131318000D01*
X151765000Y-115697000D01*
X170688000Y-115697000D01*
X170688000Y-116524369D01*
G36*
X170688000Y-136082369D02*
X170245369Y-136525000D01*
X167974694Y-136525000D01*
X168088327Y-136316996D01*
X168105010Y-136237060D01*
X167982852Y-136017000D01*
X166497000Y-136017000D01*
X166497000Y-136037000D01*
X166243000Y-136037000D01*
X166243000Y-136017000D01*
X164757148Y-136017000D01*
X164634990Y-136237060D01*
X164651673Y-136316996D01*
X164765305Y-136525000D01*
X151765000Y-136525000D01*
X151765000Y-134114863D01*
X151790622Y-134089286D01*
X151955313Y-133692668D01*
X151955687Y-133263216D01*
X151791689Y-132866311D01*
X151767420Y-132842000D01*
X164658214Y-132842000D01*
X164557167Y-133350000D01*
X164665441Y-133894329D01*
X164973778Y-134355789D01*
X165368829Y-134619753D01*
X165352738Y-134624475D01*
X164918809Y-134974014D01*
X164651673Y-135463004D01*
X164634990Y-135542940D01*
X164757148Y-135763000D01*
X166243000Y-135763000D01*
X166243000Y-135743000D01*
X166497000Y-135743000D01*
X166497000Y-135763000D01*
X167982852Y-135763000D01*
X168105010Y-135542940D01*
X168088327Y-135463004D01*
X167821191Y-134974014D01*
X167387262Y-134624475D01*
X167371170Y-134619753D01*
X167766222Y-134355789D01*
X168074559Y-133894329D01*
X168182833Y-133350000D01*
X168081785Y-132842000D01*
X169824400Y-132842000D01*
X169824400Y-132841999D01*
X170116004Y-132783996D01*
X170116005Y-132783996D01*
X170363215Y-132618815D01*
X170688000Y-132294030D01*
X170688000Y-132391876D01*
X170585301Y-132434311D01*
X170281368Y-132737714D01*
X170116677Y-133134332D01*
X170116303Y-133563784D01*
X170280301Y-133960689D01*
X170583704Y-134264622D01*
X170688000Y-134307929D01*
X170688000Y-136082369D01*
X170688000Y-136082369D01*
G37*
X170688000Y-136082369D02*
X170245369Y-136525000D01*
X167974694Y-136525000D01*
X168088327Y-136316996D01*
X168105010Y-136237060D01*
X167982852Y-136017000D01*
X166497000Y-136017000D01*
X166497000Y-136037000D01*
X166243000Y-136037000D01*
X166243000Y-136017000D01*
X164757148Y-136017000D01*
X164634990Y-136237060D01*
X164651673Y-136316996D01*
X164765305Y-136525000D01*
X151765000Y-136525000D01*
X151765000Y-134114863D01*
X151790622Y-134089286D01*
X151955313Y-133692668D01*
X151955687Y-133263216D01*
X151791689Y-132866311D01*
X151767420Y-132842000D01*
X164658214Y-132842000D01*
X164557167Y-133350000D01*
X164665441Y-133894329D01*
X164973778Y-134355789D01*
X165368829Y-134619753D01*
X165352738Y-134624475D01*
X164918809Y-134974014D01*
X164651673Y-135463004D01*
X164634990Y-135542940D01*
X164757148Y-135763000D01*
X166243000Y-135763000D01*
X166243000Y-135743000D01*
X166497000Y-135743000D01*
X166497000Y-135763000D01*
X167982852Y-135763000D01*
X168105010Y-135542940D01*
X168088327Y-135463004D01*
X167821191Y-134974014D01*
X167387262Y-134624475D01*
X167371170Y-134619753D01*
X167766222Y-134355789D01*
X168074559Y-133894329D01*
X168182833Y-133350000D01*
X168081785Y-132842000D01*
X169824400Y-132842000D01*
X169824400Y-132841999D01*
X170116004Y-132783996D01*
X170116005Y-132783996D01*
X170363215Y-132618815D01*
X170688000Y-132294030D01*
X170688000Y-132391876D01*
X170585301Y-132434311D01*
X170281368Y-132737714D01*
X170116677Y-133134332D01*
X170116303Y-133563784D01*
X170280301Y-133960689D01*
X170583704Y-134264622D01*
X170688000Y-134307929D01*
X170688000Y-136082369D01*
M02*
