%TF.GenerationSoftware,KiCad,Pcbnew,8.0.1-8.0.1-1~ubuntu22.04.1*%
%TF.CreationDate,2024-03-26T21:41:54+01:00*%
%TF.ProjectId,flash,666c6173-682e-46b6-9963-61645f706362,rev?*%
%TF.SameCoordinates,Original*%
%TF.FileFunction,Legend,Top*%
%TF.FilePolarity,Positive*%
%FSLAX46Y46*%
G04 Gerber Fmt 4.6, Leading zero omitted, Abs format (unit mm)*
G04 Created by KiCad (PCBNEW 8.0.1-8.0.1-1~ubuntu22.04.1) date 2024-03-26 21:41:54*
%MOMM*%
%LPD*%
G01*
G04 APERTURE LIST*
%ADD10C,0.150000*%
%ADD11C,0.120000*%
G04 APERTURE END LIST*
D10*
X220101619Y-168147904D02*
X220911142Y-168147904D01*
X220911142Y-168147904D02*
X221006380Y-168100285D01*
X221006380Y-168100285D02*
X221054000Y-168052666D01*
X221054000Y-168052666D02*
X221101619Y-167957428D01*
X221101619Y-167957428D02*
X221101619Y-167766952D01*
X221101619Y-167766952D02*
X221054000Y-167671714D01*
X221054000Y-167671714D02*
X221006380Y-167624095D01*
X221006380Y-167624095D02*
X220911142Y-167576476D01*
X220911142Y-167576476D02*
X220101619Y-167576476D01*
X220196857Y-167147904D02*
X220149238Y-167100285D01*
X220149238Y-167100285D02*
X220101619Y-167005047D01*
X220101619Y-167005047D02*
X220101619Y-166766952D01*
X220101619Y-166766952D02*
X220149238Y-166671714D01*
X220149238Y-166671714D02*
X220196857Y-166624095D01*
X220196857Y-166624095D02*
X220292095Y-166576476D01*
X220292095Y-166576476D02*
X220387333Y-166576476D01*
X220387333Y-166576476D02*
X220530190Y-166624095D01*
X220530190Y-166624095D02*
X221101619Y-167195523D01*
X221101619Y-167195523D02*
X221101619Y-166576476D01*
X241179819Y-192531904D02*
X241989342Y-192531904D01*
X241989342Y-192531904D02*
X242084580Y-192484285D01*
X242084580Y-192484285D02*
X242132200Y-192436666D01*
X242132200Y-192436666D02*
X242179819Y-192341428D01*
X242179819Y-192341428D02*
X242179819Y-192150952D01*
X242179819Y-192150952D02*
X242132200Y-192055714D01*
X242132200Y-192055714D02*
X242084580Y-192008095D01*
X242084580Y-192008095D02*
X241989342Y-191960476D01*
X241989342Y-191960476D02*
X241179819Y-191960476D01*
X242179819Y-190960476D02*
X242179819Y-191531904D01*
X242179819Y-191246190D02*
X241179819Y-191246190D01*
X241179819Y-191246190D02*
X241322676Y-191341428D01*
X241322676Y-191341428D02*
X241417914Y-191436666D01*
X241417914Y-191436666D02*
X241465533Y-191531904D01*
X219723619Y-197307104D02*
X220533142Y-197307104D01*
X220533142Y-197307104D02*
X220628380Y-197259485D01*
X220628380Y-197259485D02*
X220676000Y-197211866D01*
X220676000Y-197211866D02*
X220723619Y-197116628D01*
X220723619Y-197116628D02*
X220723619Y-196926152D01*
X220723619Y-196926152D02*
X220676000Y-196830914D01*
X220676000Y-196830914D02*
X220628380Y-196783295D01*
X220628380Y-196783295D02*
X220533142Y-196735676D01*
X220533142Y-196735676D02*
X219723619Y-196735676D01*
X219723619Y-196354723D02*
X219723619Y-195735676D01*
X219723619Y-195735676D02*
X220104571Y-196069009D01*
X220104571Y-196069009D02*
X220104571Y-195926152D01*
X220104571Y-195926152D02*
X220152190Y-195830914D01*
X220152190Y-195830914D02*
X220199809Y-195783295D01*
X220199809Y-195783295D02*
X220295047Y-195735676D01*
X220295047Y-195735676D02*
X220533142Y-195735676D01*
X220533142Y-195735676D02*
X220628380Y-195783295D01*
X220628380Y-195783295D02*
X220676000Y-195830914D01*
X220676000Y-195830914D02*
X220723619Y-195926152D01*
X220723619Y-195926152D02*
X220723619Y-196211866D01*
X220723619Y-196211866D02*
X220676000Y-196307104D01*
X220676000Y-196307104D02*
X220628380Y-196354723D01*
X207051542Y-180699580D02*
X207003923Y-180747200D01*
X207003923Y-180747200D02*
X206861066Y-180794819D01*
X206861066Y-180794819D02*
X206765828Y-180794819D01*
X206765828Y-180794819D02*
X206622971Y-180747200D01*
X206622971Y-180747200D02*
X206527733Y-180651961D01*
X206527733Y-180651961D02*
X206480114Y-180556723D01*
X206480114Y-180556723D02*
X206432495Y-180366247D01*
X206432495Y-180366247D02*
X206432495Y-180223390D01*
X206432495Y-180223390D02*
X206480114Y-180032914D01*
X206480114Y-180032914D02*
X206527733Y-179937676D01*
X206527733Y-179937676D02*
X206622971Y-179842438D01*
X206622971Y-179842438D02*
X206765828Y-179794819D01*
X206765828Y-179794819D02*
X206861066Y-179794819D01*
X206861066Y-179794819D02*
X207003923Y-179842438D01*
X207003923Y-179842438D02*
X207051542Y-179890057D01*
X207432495Y-180747200D02*
X207575352Y-180794819D01*
X207575352Y-180794819D02*
X207813447Y-180794819D01*
X207813447Y-180794819D02*
X207908685Y-180747200D01*
X207908685Y-180747200D02*
X207956304Y-180699580D01*
X207956304Y-180699580D02*
X208003923Y-180604342D01*
X208003923Y-180604342D02*
X208003923Y-180509104D01*
X208003923Y-180509104D02*
X207956304Y-180413866D01*
X207956304Y-180413866D02*
X207908685Y-180366247D01*
X207908685Y-180366247D02*
X207813447Y-180318628D01*
X207813447Y-180318628D02*
X207622971Y-180271009D01*
X207622971Y-180271009D02*
X207527733Y-180223390D01*
X207527733Y-180223390D02*
X207480114Y-180175771D01*
X207480114Y-180175771D02*
X207432495Y-180080533D01*
X207432495Y-180080533D02*
X207432495Y-179985295D01*
X207432495Y-179985295D02*
X207480114Y-179890057D01*
X207480114Y-179890057D02*
X207527733Y-179842438D01*
X207527733Y-179842438D02*
X207622971Y-179794819D01*
X207622971Y-179794819D02*
X207861066Y-179794819D01*
X207861066Y-179794819D02*
X208003923Y-179842438D01*
X208194400Y-180890057D02*
X208956304Y-180890057D01*
X209765828Y-180794819D02*
X209432495Y-180318628D01*
X209194400Y-180794819D02*
X209194400Y-179794819D01*
X209194400Y-179794819D02*
X209575352Y-179794819D01*
X209575352Y-179794819D02*
X209670590Y-179842438D01*
X209670590Y-179842438D02*
X209718209Y-179890057D01*
X209718209Y-179890057D02*
X209765828Y-179985295D01*
X209765828Y-179985295D02*
X209765828Y-180128152D01*
X209765828Y-180128152D02*
X209718209Y-180223390D01*
X209718209Y-180223390D02*
X209670590Y-180271009D01*
X209670590Y-180271009D02*
X209575352Y-180318628D01*
X209575352Y-180318628D02*
X209194400Y-180318628D01*
X210384876Y-179794819D02*
X210575352Y-179794819D01*
X210575352Y-179794819D02*
X210670590Y-179842438D01*
X210670590Y-179842438D02*
X210765828Y-179937676D01*
X210765828Y-179937676D02*
X210813447Y-180128152D01*
X210813447Y-180128152D02*
X210813447Y-180461485D01*
X210813447Y-180461485D02*
X210765828Y-180651961D01*
X210765828Y-180651961D02*
X210670590Y-180747200D01*
X210670590Y-180747200D02*
X210575352Y-180794819D01*
X210575352Y-180794819D02*
X210384876Y-180794819D01*
X210384876Y-180794819D02*
X210289638Y-180747200D01*
X210289638Y-180747200D02*
X210194400Y-180651961D01*
X210194400Y-180651961D02*
X210146781Y-180461485D01*
X210146781Y-180461485D02*
X210146781Y-180128152D01*
X210146781Y-180128152D02*
X210194400Y-179937676D01*
X210194400Y-179937676D02*
X210289638Y-179842438D01*
X210289638Y-179842438D02*
X210384876Y-179794819D01*
X211242019Y-180794819D02*
X211242019Y-179794819D01*
X211242019Y-179794819D02*
X211575352Y-180509104D01*
X211575352Y-180509104D02*
X211908685Y-179794819D01*
X211908685Y-179794819D02*
X211908685Y-180794819D01*
X220353180Y-167310966D02*
X220400800Y-167358585D01*
X220400800Y-167358585D02*
X220448419Y-167501442D01*
X220448419Y-167501442D02*
X220448419Y-167596680D01*
X220448419Y-167596680D02*
X220400800Y-167739537D01*
X220400800Y-167739537D02*
X220305561Y-167834775D01*
X220305561Y-167834775D02*
X220210323Y-167882394D01*
X220210323Y-167882394D02*
X220019847Y-167930013D01*
X220019847Y-167930013D02*
X219876990Y-167930013D01*
X219876990Y-167930013D02*
X219686514Y-167882394D01*
X219686514Y-167882394D02*
X219591276Y-167834775D01*
X219591276Y-167834775D02*
X219496038Y-167739537D01*
X219496038Y-167739537D02*
X219448419Y-167596680D01*
X219448419Y-167596680D02*
X219448419Y-167501442D01*
X219448419Y-167501442D02*
X219496038Y-167358585D01*
X219496038Y-167358585D02*
X219543657Y-167310966D01*
X219543657Y-166930013D02*
X219496038Y-166882394D01*
X219496038Y-166882394D02*
X219448419Y-166787156D01*
X219448419Y-166787156D02*
X219448419Y-166549061D01*
X219448419Y-166549061D02*
X219496038Y-166453823D01*
X219496038Y-166453823D02*
X219543657Y-166406204D01*
X219543657Y-166406204D02*
X219638895Y-166358585D01*
X219638895Y-166358585D02*
X219734133Y-166358585D01*
X219734133Y-166358585D02*
X219876990Y-166406204D01*
X219876990Y-166406204D02*
X220448419Y-166977632D01*
X220448419Y-166977632D02*
X220448419Y-166358585D01*
D11*
%TO.C,U2*%
X198946800Y-158261000D02*
X198946800Y-176511000D01*
X198946800Y-176511000D02*
X219746800Y-176511000D01*
X218746800Y-158261000D02*
X198946800Y-158261000D01*
X219746800Y-159261000D02*
X218746800Y-158261000D01*
X219746800Y-166386000D02*
X219746800Y-159261000D01*
X219746800Y-176511000D02*
X219746800Y-168386000D01*
%TO.C,U1*%
X199965000Y-185710000D02*
X199965000Y-197830000D01*
X199965000Y-197830000D02*
X240725000Y-197830000D01*
X240725000Y-185710000D02*
X199965000Y-185710000D01*
X240725000Y-190770000D02*
X240725000Y-185710000D01*
X240725000Y-197830000D02*
X240725000Y-192770000D01*
X240725000Y-192770000D02*
G75*
G02*
X240725000Y-190770000I0J1000000D01*
G01*
%TO.C,U3*%
X240699600Y-197470000D02*
G75*
G02*
X240699600Y-195470000I0J1000000D01*
G01*
X240699600Y-202530000D02*
X240699600Y-197470000D01*
X240699600Y-195470000D02*
X240699600Y-190410000D01*
X240699600Y-190410000D02*
X199939600Y-190410000D01*
X199939600Y-202530000D02*
X240699600Y-202530000D01*
X199939600Y-190410000D02*
X199939600Y-202530000D01*
%TO.C,CS_ROM*%
X212665000Y-177740000D02*
X213995000Y-177740000D01*
X212665000Y-179070000D02*
X212665000Y-177740000D01*
X212665000Y-180340000D02*
X212665000Y-180400000D01*
X212665000Y-180340000D02*
X215325000Y-180340000D01*
X212665000Y-180400000D02*
X215325000Y-180400000D01*
X215325000Y-180340000D02*
X215325000Y-180400000D01*
%TO.C,C2*%
X222753600Y-167855552D02*
X222753600Y-166433048D01*
X220933600Y-167855552D02*
X220933600Y-166433048D01*
%TD*%
M02*
