%TF.GenerationSoftware,KiCad,Pcbnew,8.0.1-8.0.1-1~ubuntu22.04.1*%
%TF.CreationDate,2024-03-26T21:41:54+01:00*%
%TF.ProjectId,flash,666c6173-682e-46b6-9963-61645f706362,rev?*%
%TF.SameCoordinates,Original*%
%TF.FileFunction,Soldermask,Top*%
%TF.FilePolarity,Negative*%
%FSLAX46Y46*%
G04 Gerber Fmt 4.6, Leading zero omitted, Abs format (unit mm)*
G04 Created by KiCad (PCBNEW 8.0.1-8.0.1-1~ubuntu22.04.1) date 2024-03-26 21:41:54*
%MOMM*%
%LPD*%
G01*
G04 APERTURE LIST*
G04 Aperture macros list*
%AMRoundRect*
0 Rectangle with rounded corners*
0 $1 Rounding radius*
0 $2 $3 $4 $5 $6 $7 $8 $9 X,Y pos of 4 corners*
0 Add a 4 corners polygon primitive as box body*
4,1,4,$2,$3,$4,$5,$6,$7,$8,$9,$2,$3,0*
0 Add four circle primitives for the rounded corners*
1,1,$1+$1,$2,$3*
1,1,$1+$1,$4,$5*
1,1,$1+$1,$6,$7*
1,1,$1+$1,$8,$9*
0 Add four rect primitives between the rounded corners*
20,1,$1+$1,$2,$3,$4,$5,0*
20,1,$1+$1,$4,$5,$6,$7,0*
20,1,$1+$1,$6,$7,$8,$9,0*
20,1,$1+$1,$8,$9,$2,$3,0*%
G04 Aperture macros list end*
%ADD10R,1.422400X1.422400*%
%ADD11C,1.422400*%
%ADD12R,1.600000X2.400000*%
%ADD13O,1.600000X2.400000*%
%ADD14R,1.700000X1.700000*%
%ADD15RoundRect,0.250000X0.650000X-0.412500X0.650000X0.412500X-0.650000X0.412500X-0.650000X-0.412500X0*%
G04 APERTURE END LIST*
D10*
%TO.C,U2*%
X214426800Y-168656000D03*
D11*
X216966800Y-166116000D03*
X214426800Y-166116000D03*
X216966800Y-163576000D03*
X214426800Y-161036000D03*
X214426800Y-163576000D03*
X211886800Y-161036000D03*
X211886800Y-163576000D03*
X209346800Y-161036000D03*
X209346800Y-163576000D03*
X206806800Y-161036000D03*
X206806800Y-163576000D03*
X204266800Y-161036000D03*
X201726800Y-163576000D03*
X204266800Y-163576000D03*
X201726800Y-166116000D03*
X204266800Y-166116000D03*
X201726800Y-168656000D03*
X204266800Y-168656000D03*
X201726800Y-171196000D03*
X204266800Y-173736000D03*
X204266800Y-171196000D03*
X206806800Y-173736000D03*
X206806800Y-171196000D03*
X209346800Y-173736000D03*
X209346800Y-171196000D03*
X211886800Y-173736000D03*
X211886800Y-171196000D03*
X214426800Y-173736000D03*
X216966800Y-171196000D03*
X214426800Y-171196000D03*
X216966800Y-168656000D03*
%TD*%
D12*
%TO.C,U1*%
X239395000Y-184150000D03*
D13*
X236855000Y-184150000D03*
X234315000Y-184150000D03*
X231775000Y-184150000D03*
X229235000Y-184150000D03*
X226695000Y-184150000D03*
X224155000Y-184150000D03*
X221615000Y-184150000D03*
X219075000Y-184150000D03*
X216535000Y-184150000D03*
X213995000Y-184150000D03*
X211455000Y-184150000D03*
X208915000Y-184150000D03*
X206375000Y-184150000D03*
X203835000Y-184150000D03*
X201295000Y-184150000D03*
X201295000Y-199390000D03*
X203835000Y-199390000D03*
X206375000Y-199390000D03*
X208915000Y-199390000D03*
X211455000Y-199390000D03*
X213995000Y-199390000D03*
X216535000Y-199390000D03*
X219075000Y-199390000D03*
X221615000Y-199390000D03*
X224155000Y-199390000D03*
X226695000Y-199390000D03*
X229235000Y-199390000D03*
X231775000Y-199390000D03*
X234315000Y-199390000D03*
X236855000Y-199390000D03*
X239395000Y-199390000D03*
%TD*%
%TO.C,U3*%
X239369600Y-204090000D03*
X236829600Y-204090000D03*
X234289600Y-204090000D03*
X231749600Y-204090000D03*
X229209600Y-204090000D03*
X226669600Y-204090000D03*
X224129600Y-204090000D03*
X221589600Y-204090000D03*
X219049600Y-204090000D03*
X216509600Y-204090000D03*
X213969600Y-204090000D03*
X211429600Y-204090000D03*
X208889600Y-204090000D03*
X206349600Y-204090000D03*
X203809600Y-204090000D03*
X201269600Y-204090000D03*
X201269600Y-188850000D03*
X203809600Y-188850000D03*
X206349600Y-188850000D03*
X208889600Y-188850000D03*
X211429600Y-188850000D03*
X213969600Y-188850000D03*
X216509600Y-188850000D03*
X219049600Y-188850000D03*
X221589600Y-188850000D03*
X224129600Y-188850000D03*
X226669600Y-188850000D03*
X229209600Y-188850000D03*
X231749600Y-188850000D03*
X234289600Y-188850000D03*
X236829600Y-188850000D03*
D12*
X239369600Y-188850000D03*
%TD*%
D14*
%TO.C,CS_ROM*%
X213995000Y-179070000D03*
%TD*%
D15*
%TO.C,C2*%
X221843600Y-168706800D03*
X221843600Y-165581800D03*
%TD*%
M02*
