%TF.GenerationSoftware,KiCad,Pcbnew,8.0.1-8.0.1-1~ubuntu22.04.1*%
%TF.CreationDate,2024-03-26T21:41:54+01:00*%
%TF.ProjectId,flash,666c6173-682e-46b6-9963-61645f706362,rev?*%
%TF.SameCoordinates,Original*%
%TF.FileFunction,Legend,Bot*%
%TF.FilePolarity,Positive*%
%FSLAX46Y46*%
G04 Gerber Fmt 4.6, Leading zero omitted, Abs format (unit mm)*
G04 Created by KiCad (PCBNEW 8.0.1-8.0.1-1~ubuntu22.04.1) date 2024-03-26 21:41:54*
%MOMM*%
%LPD*%
G01*
G04 APERTURE LIST*
%ADD10C,0.150000*%
%ADD11C,0.120000*%
G04 APERTURE END LIST*
D10*
X237949166Y-194724580D02*
X237996785Y-194772200D01*
X237996785Y-194772200D02*
X238139642Y-194819819D01*
X238139642Y-194819819D02*
X238234880Y-194819819D01*
X238234880Y-194819819D02*
X238377737Y-194772200D01*
X238377737Y-194772200D02*
X238472975Y-194676961D01*
X238472975Y-194676961D02*
X238520594Y-194581723D01*
X238520594Y-194581723D02*
X238568213Y-194391247D01*
X238568213Y-194391247D02*
X238568213Y-194248390D01*
X238568213Y-194248390D02*
X238520594Y-194057914D01*
X238520594Y-194057914D02*
X238472975Y-193962676D01*
X238472975Y-193962676D02*
X238377737Y-193867438D01*
X238377737Y-193867438D02*
X238234880Y-193819819D01*
X238234880Y-193819819D02*
X238139642Y-193819819D01*
X238139642Y-193819819D02*
X237996785Y-193867438D01*
X237996785Y-193867438D02*
X237949166Y-193915057D01*
X236996785Y-194819819D02*
X237568213Y-194819819D01*
X237282499Y-194819819D02*
X237282499Y-193819819D01*
X237282499Y-193819819D02*
X237377737Y-193962676D01*
X237377737Y-193962676D02*
X237472975Y-194057914D01*
X237472975Y-194057914D02*
X237568213Y-194105533D01*
D11*
%TO.C,C1*%
X237071248Y-197125000D02*
X238493752Y-197125000D01*
X237071248Y-195305000D02*
X238493752Y-195305000D01*
%TD*%
M02*
