%TF.GenerationSoftware,KiCad,Pcbnew,8.0.1-8.0.1-1~ubuntu22.04.1*%
%TF.CreationDate,2024-03-26T21:41:53+01:00*%
%TF.ProjectId,flash,666c6173-682e-46b6-9963-61645f706362,rev?*%
%TF.SameCoordinates,Original*%
%TF.FileFunction,Copper,L2,Inr*%
%TF.FilePolarity,Positive*%
%FSLAX46Y46*%
G04 Gerber Fmt 4.6, Leading zero omitted, Abs format (unit mm)*
G04 Created by KiCad (PCBNEW 8.0.1-8.0.1-1~ubuntu22.04.1) date 2024-03-26 21:41:53*
%MOMM*%
%LPD*%
G01*
G04 APERTURE LIST*
%TA.AperFunction,ComponentPad*%
%ADD10R,1.422400X1.422400*%
%TD*%
%TA.AperFunction,ComponentPad*%
%ADD11C,1.422400*%
%TD*%
%TA.AperFunction,ComponentPad*%
%ADD12R,1.600000X2.400000*%
%TD*%
%TA.AperFunction,ComponentPad*%
%ADD13O,1.600000X2.400000*%
%TD*%
%TA.AperFunction,ComponentPad*%
%ADD14R,1.700000X1.700000*%
%TD*%
%TA.AperFunction,ViaPad*%
%ADD15C,0.800000*%
%TD*%
%TA.AperFunction,ViaPad*%
%ADD16C,0.600000*%
%TD*%
G04 APERTURE END LIST*
D10*
%TO.N,/A18*%
%TO.C,U2*%
X214426800Y-168656000D03*
D11*
%TO.N,/A16*%
X216966800Y-166116000D03*
%TO.N,/A15*%
X214426800Y-166116000D03*
%TO.N,/A12*%
X216966800Y-163576000D03*
%TO.N,/A7*%
X214426800Y-161036000D03*
%TO.N,/A6*%
X214426800Y-163576000D03*
%TO.N,/A5*%
X211886800Y-161036000D03*
%TO.N,/A4*%
X211886800Y-163576000D03*
%TO.N,/A3*%
X209346800Y-161036000D03*
%TO.N,/A2*%
X209346800Y-163576000D03*
%TO.N,/A1*%
X206806800Y-161036000D03*
%TO.N,/A0*%
X206806800Y-163576000D03*
%TO.N,/D0*%
X204266800Y-161036000D03*
%TO.N,/D1*%
X201726800Y-163576000D03*
%TO.N,/D2*%
X204266800Y-163576000D03*
%TO.N,GND*%
X201726800Y-166116000D03*
%TO.N,/D3*%
X204266800Y-166116000D03*
%TO.N,/D4*%
X201726800Y-168656000D03*
%TO.N,/D5*%
X204266800Y-168656000D03*
%TO.N,/D6*%
X201726800Y-171196000D03*
%TO.N,/D7*%
X204266800Y-173736000D03*
%TO.N,/~{CS_ROM}*%
X204266800Y-171196000D03*
%TO.N,/A10*%
X206806800Y-173736000D03*
%TO.N,/~{OE}*%
X206806800Y-171196000D03*
%TO.N,/A11*%
X209346800Y-173736000D03*
%TO.N,/A9*%
X209346800Y-171196000D03*
%TO.N,/A8*%
X211886800Y-173736000D03*
%TO.N,/A13*%
X211886800Y-171196000D03*
%TO.N,/A14*%
X214426800Y-173736000D03*
%TO.N,/A17*%
X216966800Y-171196000D03*
%TO.N,/~{WE}*%
X214426800Y-171196000D03*
%TO.N,VCC*%
X216966800Y-168656000D03*
%TD*%
D12*
%TO.N,/A18*%
%TO.C,U1*%
X239395000Y-184150000D03*
D13*
%TO.N,/A16*%
X236855000Y-184150000D03*
%TO.N,/A14*%
X234315000Y-184150000D03*
%TO.N,/A12*%
X231775000Y-184150000D03*
%TO.N,/A7*%
X229235000Y-184150000D03*
%TO.N,/A6*%
X226695000Y-184150000D03*
%TO.N,/A5*%
X224155000Y-184150000D03*
%TO.N,/A4*%
X221615000Y-184150000D03*
%TO.N,/A3*%
X219075000Y-184150000D03*
%TO.N,/A2*%
X216535000Y-184150000D03*
%TO.N,/A1*%
X213995000Y-184150000D03*
%TO.N,/A0*%
X211455000Y-184150000D03*
%TO.N,/D0*%
X208915000Y-184150000D03*
%TO.N,/D1*%
X206375000Y-184150000D03*
%TO.N,/D2*%
X203835000Y-184150000D03*
%TO.N,GND*%
X201295000Y-184150000D03*
%TO.N,/D3*%
X201295000Y-199390000D03*
%TO.N,/D4*%
X203835000Y-199390000D03*
%TO.N,/D5*%
X206375000Y-199390000D03*
%TO.N,/D6*%
X208915000Y-199390000D03*
%TO.N,/D7*%
X211455000Y-199390000D03*
%TO.N,/~{CE}*%
X213995000Y-199390000D03*
%TO.N,/A10*%
X216535000Y-199390000D03*
%TO.N,/~{OE}*%
X219075000Y-199390000D03*
%TO.N,/A11*%
X221615000Y-199390000D03*
%TO.N,/A9*%
X224155000Y-199390000D03*
%TO.N,/A8*%
X226695000Y-199390000D03*
%TO.N,/A13*%
X229235000Y-199390000D03*
%TO.N,/~{WE}*%
X231775000Y-199390000D03*
%TO.N,/A17*%
X234315000Y-199390000D03*
%TO.N,/A15*%
X236855000Y-199390000D03*
%TO.N,VCC*%
X239395000Y-199390000D03*
%TD*%
%TO.N,VCC*%
%TO.C,U3*%
X239369600Y-204090000D03*
%TO.N,/A15*%
X236829600Y-204090000D03*
%TO.N,/A17*%
X234289600Y-204090000D03*
%TO.N,/~{WE}*%
X231749600Y-204090000D03*
%TO.N,/A13*%
X229209600Y-204090000D03*
%TO.N,/A8*%
X226669600Y-204090000D03*
%TO.N,/A9*%
X224129600Y-204090000D03*
%TO.N,/A11*%
X221589600Y-204090000D03*
%TO.N,/~{OE}*%
X219049600Y-204090000D03*
%TO.N,/A10*%
X216509600Y-204090000D03*
%TO.N,/~{CE}*%
X213969600Y-204090000D03*
%TO.N,/D7*%
X211429600Y-204090000D03*
%TO.N,/D6*%
X208889600Y-204090000D03*
%TO.N,/D5*%
X206349600Y-204090000D03*
%TO.N,/D4*%
X203809600Y-204090000D03*
%TO.N,/D3*%
X201269600Y-204090000D03*
%TO.N,GND*%
X201269600Y-188850000D03*
%TO.N,/D2*%
X203809600Y-188850000D03*
%TO.N,/D1*%
X206349600Y-188850000D03*
%TO.N,/D0*%
X208889600Y-188850000D03*
%TO.N,/A0*%
X211429600Y-188850000D03*
%TO.N,/A1*%
X213969600Y-188850000D03*
%TO.N,/A2*%
X216509600Y-188850000D03*
%TO.N,/A3*%
X219049600Y-188850000D03*
%TO.N,/A4*%
X221589600Y-188850000D03*
%TO.N,/A5*%
X224129600Y-188850000D03*
%TO.N,/A6*%
X226669600Y-188850000D03*
%TO.N,/A7*%
X229209600Y-188850000D03*
%TO.N,/A12*%
X231749600Y-188850000D03*
%TO.N,/A14*%
X234289600Y-188850000D03*
%TO.N,/A16*%
X236829600Y-188850000D03*
D12*
%TO.N,/A18*%
X239369600Y-188850000D03*
%TD*%
D14*
%TO.N,/~{CS_ROM}*%
%TO.C,CS_ROM*%
X213995000Y-179070000D03*
%TD*%
D15*
%TO.N,GND*%
X234442000Y-196215000D03*
D16*
%TO.N,/A15*%
X225298000Y-167386000D03*
%TO.N,/A7*%
X225948001Y-163576000D03*
%TO.N,/A12*%
X227895000Y-165100000D03*
%TO.N,/A6*%
X224286000Y-163957000D03*
%TO.N,/A5*%
X224282000Y-163068000D03*
%TO.N,/A15*%
X228600000Y-182245000D03*
%TO.N,/A17*%
X229209600Y-172364400D03*
%TO.N,/~{WE}*%
X226949000Y-172466000D03*
%TO.N,/A13*%
X224028000Y-174244000D03*
%TO.N,/A8*%
X224194755Y-177425997D03*
%TO.N,/A16*%
X232562400Y-181508408D03*
X222351600Y-181457600D03*
%TO.N,/A14*%
X231902000Y-180212996D03*
X215950800Y-180086000D03*
%TO.N,/A9*%
X223062800Y-175869600D03*
D15*
%TO.N,GND*%
X219583000Y-165481000D03*
D16*
%TO.N,/A11*%
X220370398Y-175768000D03*
%TO.N,/A1*%
X212750400Y-177596800D03*
X208686400Y-177596800D03*
%TO.N,/A10*%
X215300800Y-176910996D03*
X206303434Y-176249728D03*
%TO.N,/~{OE}*%
X207822800Y-175412400D03*
X217779600Y-176418000D03*
%TO.N,/D7*%
X204266800Y-178308000D03*
X209651600Y-178308000D03*
%TO.N,/D6*%
X201726800Y-175514000D03*
X206806800Y-175358968D03*
%TO.N,/D3*%
X200063800Y-167216620D03*
%TO.N,/D2*%
X203860400Y-181965600D03*
X205928000Y-181965600D03*
%TO.N,/D0*%
X203250800Y-180340000D03*
X208889600Y-180390800D03*
%TO.N,/D1*%
X202742800Y-181102000D03*
X206400401Y-181101999D03*
%TO.N,/~{CS_ROM}*%
X203504800Y-179120800D03*
%TD*%
M02*
