M48
; DRILL file {KiCad 8.0.1-8.0.1-1~ubuntu22.04.1} date 2024-03-26T21:42:06+0100
; FORMAT={-:-/ absolute / metric / decimal}
; #@! TF.CreationDate,2024-03-26T21:42:06+01:00
; #@! TF.GenerationSoftware,Kicad,Pcbnew,8.0.1-8.0.1-1~ubuntu22.04.1
; #@! TF.FileFunction,Plated,1,4,PTH
FMAT,2
METRIC
; #@! TA.AperFunction,Plated,PTH,ViaDrill
T1C0.300
; #@! TA.AperFunction,Plated,PTH,ComponentDrill
T2C0.800
; #@! TA.AperFunction,Plated,PTH,ComponentDrill
T3C1.000
%
G90
G05
T1
X200.064Y-167.217
X201.727Y-175.514
X202.743Y-181.102
X203.251Y-180.34
X203.505Y-179.121
X203.86Y-181.966
X204.267Y-178.308
X205.928Y-181.966
X206.303Y-176.25
X206.4Y-181.102
X206.807Y-175.359
X207.823Y-175.412
X208.686Y-177.597
X208.89Y-180.391
X209.652Y-178.308
X212.75Y-177.597
X215.301Y-176.911
X215.951Y-180.086
X217.78Y-176.418
X219.583Y-165.481
X220.37Y-175.768
X222.352Y-181.458
X223.063Y-175.87
X224.028Y-174.244
X224.195Y-177.426
X224.282Y-163.068
X224.286Y-163.957
X225.298Y-167.386
X225.948Y-163.576
X226.949Y-172.466
X227.895Y-165.1
X228.6Y-182.245
X229.21Y-172.364
X231.902Y-180.213
X232.562Y-181.508
X234.442Y-196.215
T2
X201.27Y-188.85
X201.27Y-204.09
X201.295Y-184.15
X201.295Y-199.39
X201.727Y-163.576
X201.727Y-166.116
X201.727Y-168.656
X201.727Y-171.196
X203.81Y-188.85
X203.81Y-204.09
X203.835Y-184.15
X203.835Y-199.39
X204.267Y-161.036
X204.267Y-163.576
X204.267Y-166.116
X204.267Y-168.656
X204.267Y-171.196
X204.267Y-173.736
X206.35Y-188.85
X206.35Y-204.09
X206.375Y-184.15
X206.375Y-199.39
X206.807Y-161.036
X206.807Y-163.576
X206.807Y-171.196
X206.807Y-173.736
X208.89Y-188.85
X208.89Y-204.09
X208.915Y-184.15
X208.915Y-199.39
X209.347Y-161.036
X209.347Y-163.576
X209.347Y-171.196
X209.347Y-173.736
X211.43Y-188.85
X211.43Y-204.09
X211.455Y-184.15
X211.455Y-199.39
X211.887Y-161.036
X211.887Y-163.576
X211.887Y-171.196
X211.887Y-173.736
X213.97Y-188.85
X213.97Y-204.09
X213.995Y-184.15
X213.995Y-199.39
X214.427Y-161.036
X214.427Y-163.576
X214.427Y-166.116
X214.427Y-168.656
X214.427Y-171.196
X214.427Y-173.736
X216.51Y-188.85
X216.51Y-204.09
X216.535Y-184.15
X216.535Y-199.39
X216.967Y-163.576
X216.967Y-166.116
X216.967Y-168.656
X216.967Y-171.196
X219.05Y-188.85
X219.05Y-204.09
X219.075Y-184.15
X219.075Y-199.39
X221.59Y-188.85
X221.59Y-204.09
X221.615Y-184.15
X221.615Y-199.39
X224.13Y-188.85
X224.13Y-204.09
X224.155Y-184.15
X224.155Y-199.39
X226.67Y-188.85
X226.67Y-204.09
X226.695Y-184.15
X226.695Y-199.39
X229.21Y-188.85
X229.21Y-204.09
X229.235Y-184.15
X229.235Y-199.39
X231.75Y-188.85
X231.75Y-204.09
X231.775Y-184.15
X231.775Y-199.39
X234.29Y-188.85
X234.29Y-204.09
X234.315Y-184.15
X234.315Y-199.39
X236.83Y-188.85
X236.83Y-204.09
X236.855Y-184.15
X236.855Y-199.39
X239.37Y-188.85
X239.37Y-204.09
X239.395Y-184.15
X239.395Y-199.39
T3
X213.995Y-179.07
M30
