G04 #@! TF.FileFunction,Legend,Top*
%FSLAX46Y46*%
G04 Gerber Fmt 4.6, Leading zero omitted, Abs format (unit mm)*
G04 Created by KiCad (PCBNEW 4.0.2+dfsg1-stable) date Tue 27 Feb 2018 09:46:13 PM CET*
%MOMM*%
G01*
G04 APERTURE LIST*
%ADD10C,0.100000*%
%ADD11C,0.300000*%
%ADD12C,0.150000*%
%ADD13C,0.381000*%
%ADD14C,0.127000*%
%ADD15C,0.203200*%
%ADD16C,0.304800*%
%ADD17C,0.088900*%
G04 APERTURE END LIST*
D10*
D11*
X80168714Y-52690143D02*
X80383000Y-52761571D01*
X80740143Y-52761571D01*
X80883000Y-52690143D01*
X80954429Y-52618714D01*
X81025857Y-52475857D01*
X81025857Y-52333000D01*
X80954429Y-52190143D01*
X80883000Y-52118714D01*
X80740143Y-52047286D01*
X80454429Y-51975857D01*
X80311571Y-51904429D01*
X80240143Y-51833000D01*
X80168714Y-51690143D01*
X80168714Y-51547286D01*
X80240143Y-51404429D01*
X80311571Y-51333000D01*
X80454429Y-51261571D01*
X80811571Y-51261571D01*
X81025857Y-51333000D01*
X81454428Y-51761571D02*
X82025857Y-51761571D01*
X81668714Y-51261571D02*
X81668714Y-52547286D01*
X81740142Y-52690143D01*
X81883000Y-52761571D01*
X82025857Y-52761571D01*
X83097285Y-52690143D02*
X82954428Y-52761571D01*
X82668714Y-52761571D01*
X82525857Y-52690143D01*
X82454428Y-52547286D01*
X82454428Y-51975857D01*
X82525857Y-51833000D01*
X82668714Y-51761571D01*
X82954428Y-51761571D01*
X83097285Y-51833000D01*
X83168714Y-51975857D01*
X83168714Y-52118714D01*
X82454428Y-52261571D01*
X84454428Y-52690143D02*
X84311571Y-52761571D01*
X84025857Y-52761571D01*
X83882999Y-52690143D01*
X83811571Y-52618714D01*
X83740142Y-52475857D01*
X83740142Y-52047286D01*
X83811571Y-51904429D01*
X83882999Y-51833000D01*
X84025857Y-51761571D01*
X84311571Y-51761571D01*
X84454428Y-51833000D01*
X85097285Y-52761571D02*
X85097285Y-51261571D01*
X85240142Y-52190143D02*
X85668713Y-52761571D01*
X85668713Y-51761571D02*
X85097285Y-52333000D01*
X86240142Y-52690143D02*
X86382999Y-52761571D01*
X86668714Y-52761571D01*
X86811571Y-52690143D01*
X86882999Y-52547286D01*
X86882999Y-52475857D01*
X86811571Y-52333000D01*
X86668714Y-52261571D01*
X86454428Y-52261571D01*
X86311571Y-52190143D01*
X86240142Y-52047286D01*
X86240142Y-51975857D01*
X86311571Y-51833000D01*
X86454428Y-51761571D01*
X86668714Y-51761571D01*
X86811571Y-51833000D01*
X88168714Y-52690143D02*
X88025857Y-52761571D01*
X87740143Y-52761571D01*
X87597285Y-52690143D01*
X87525857Y-52618714D01*
X87454428Y-52475857D01*
X87454428Y-52047286D01*
X87525857Y-51904429D01*
X87597285Y-51833000D01*
X87740143Y-51761571D01*
X88025857Y-51761571D01*
X88168714Y-51833000D01*
X88811571Y-52761571D02*
X88811571Y-51261571D01*
X89454428Y-52761571D02*
X89454428Y-51975857D01*
X89382999Y-51833000D01*
X89240142Y-51761571D01*
X89025857Y-51761571D01*
X88882999Y-51833000D01*
X88811571Y-51904429D01*
X90025857Y-51761571D02*
X90311571Y-52761571D01*
X90597285Y-52047286D01*
X90883000Y-52761571D01*
X91168714Y-51761571D01*
X92311571Y-52690143D02*
X92168714Y-52761571D01*
X91883000Y-52761571D01*
X91740143Y-52690143D01*
X91668714Y-52547286D01*
X91668714Y-51975857D01*
X91740143Y-51833000D01*
X91883000Y-51761571D01*
X92168714Y-51761571D01*
X92311571Y-51833000D01*
X92383000Y-51975857D01*
X92383000Y-52118714D01*
X91668714Y-52261571D01*
X93025857Y-52761571D02*
X93025857Y-51761571D01*
X93025857Y-51261571D02*
X92954428Y-51333000D01*
X93025857Y-51404429D01*
X93097285Y-51333000D01*
X93025857Y-51261571D01*
X93025857Y-51404429D01*
X93740143Y-51761571D02*
X93740143Y-52761571D01*
X93740143Y-51904429D02*
X93811571Y-51833000D01*
X93954429Y-51761571D01*
X94168714Y-51761571D01*
X94311571Y-51833000D01*
X94383000Y-51975857D01*
X94383000Y-52761571D01*
X96025857Y-51261571D02*
X96525857Y-52761571D01*
X97025857Y-51261571D01*
X97597285Y-52761571D02*
X97883000Y-52761571D01*
X98025857Y-52690143D01*
X98097285Y-52618714D01*
X98240143Y-52404429D01*
X98311571Y-52118714D01*
X98311571Y-51547286D01*
X98240143Y-51404429D01*
X98168714Y-51333000D01*
X98025857Y-51261571D01*
X97740143Y-51261571D01*
X97597285Y-51333000D01*
X97525857Y-51404429D01*
X97454428Y-51547286D01*
X97454428Y-51904429D01*
X97525857Y-52047286D01*
X97597285Y-52118714D01*
X97740143Y-52190143D01*
X98025857Y-52190143D01*
X98168714Y-52118714D01*
X98240143Y-52047286D01*
X98311571Y-51904429D01*
X99025856Y-52761571D02*
X99311571Y-52761571D01*
X99454428Y-52690143D01*
X99525856Y-52618714D01*
X99668714Y-52404429D01*
X99740142Y-52118714D01*
X99740142Y-51547286D01*
X99668714Y-51404429D01*
X99597285Y-51333000D01*
X99454428Y-51261571D01*
X99168714Y-51261571D01*
X99025856Y-51333000D01*
X98954428Y-51404429D01*
X98882999Y-51547286D01*
X98882999Y-51904429D01*
X98954428Y-52047286D01*
X99025856Y-52118714D01*
X99168714Y-52190143D01*
X99454428Y-52190143D01*
X99597285Y-52118714D01*
X99668714Y-52047286D01*
X99740142Y-51904429D01*
X101097285Y-51261571D02*
X100382999Y-51261571D01*
X100311570Y-51975857D01*
X100382999Y-51904429D01*
X100525856Y-51833000D01*
X100882999Y-51833000D01*
X101025856Y-51904429D01*
X101097285Y-51975857D01*
X101168713Y-52118714D01*
X101168713Y-52475857D01*
X101097285Y-52618714D01*
X101025856Y-52690143D01*
X100882999Y-52761571D01*
X100525856Y-52761571D01*
X100382999Y-52690143D01*
X100311570Y-52618714D01*
X102025856Y-51904429D02*
X101882998Y-51833000D01*
X101811570Y-51761571D01*
X101740141Y-51618714D01*
X101740141Y-51547286D01*
X101811570Y-51404429D01*
X101882998Y-51333000D01*
X102025856Y-51261571D01*
X102311570Y-51261571D01*
X102454427Y-51333000D01*
X102525856Y-51404429D01*
X102597284Y-51547286D01*
X102597284Y-51618714D01*
X102525856Y-51761571D01*
X102454427Y-51833000D01*
X102311570Y-51904429D01*
X102025856Y-51904429D01*
X101882998Y-51975857D01*
X101811570Y-52047286D01*
X101740141Y-52190143D01*
X101740141Y-52475857D01*
X101811570Y-52618714D01*
X101882998Y-52690143D01*
X102025856Y-52761571D01*
X102311570Y-52761571D01*
X102454427Y-52690143D01*
X102525856Y-52618714D01*
X102597284Y-52475857D01*
X102597284Y-52190143D01*
X102525856Y-52047286D01*
X102454427Y-51975857D01*
X102311570Y-51904429D01*
X104311569Y-51190143D02*
X103025855Y-53118714D01*
X104597284Y-51261571D02*
X105097284Y-52761571D01*
X105597284Y-51261571D01*
X106097284Y-52761571D02*
X106097284Y-51761571D01*
X106097284Y-51261571D02*
X106025855Y-51333000D01*
X106097284Y-51404429D01*
X106168712Y-51333000D01*
X106097284Y-51261571D01*
X106097284Y-51404429D01*
X107454427Y-52761571D02*
X107454427Y-51261571D01*
X107454427Y-52690143D02*
X107311570Y-52761571D01*
X107025856Y-52761571D01*
X106882998Y-52690143D01*
X106811570Y-52618714D01*
X106740141Y-52475857D01*
X106740141Y-52047286D01*
X106811570Y-51904429D01*
X106882998Y-51833000D01*
X107025856Y-51761571D01*
X107311570Y-51761571D01*
X107454427Y-51833000D01*
X108740141Y-52690143D02*
X108597284Y-52761571D01*
X108311570Y-52761571D01*
X108168713Y-52690143D01*
X108097284Y-52547286D01*
X108097284Y-51975857D01*
X108168713Y-51833000D01*
X108311570Y-51761571D01*
X108597284Y-51761571D01*
X108740141Y-51833000D01*
X108811570Y-51975857D01*
X108811570Y-52118714D01*
X108097284Y-52261571D01*
X109668713Y-52761571D02*
X109525855Y-52690143D01*
X109454427Y-52618714D01*
X109382998Y-52475857D01*
X109382998Y-52047286D01*
X109454427Y-51904429D01*
X109525855Y-51833000D01*
X109668713Y-51761571D01*
X109882998Y-51761571D01*
X110025855Y-51833000D01*
X110097284Y-51904429D01*
X110168713Y-52047286D01*
X110168713Y-52475857D01*
X110097284Y-52618714D01*
X110025855Y-52690143D01*
X109882998Y-52761571D01*
X109668713Y-52761571D01*
X112454427Y-51975857D02*
X112668713Y-52047286D01*
X112740141Y-52118714D01*
X112811570Y-52261571D01*
X112811570Y-52475857D01*
X112740141Y-52618714D01*
X112668713Y-52690143D01*
X112525855Y-52761571D01*
X111954427Y-52761571D01*
X111954427Y-51261571D01*
X112454427Y-51261571D01*
X112597284Y-51333000D01*
X112668713Y-51404429D01*
X112740141Y-51547286D01*
X112740141Y-51690143D01*
X112668713Y-51833000D01*
X112597284Y-51904429D01*
X112454427Y-51975857D01*
X111954427Y-51975857D01*
X113668713Y-52761571D02*
X113525855Y-52690143D01*
X113454427Y-52618714D01*
X113382998Y-52475857D01*
X113382998Y-52047286D01*
X113454427Y-51904429D01*
X113525855Y-51833000D01*
X113668713Y-51761571D01*
X113882998Y-51761571D01*
X114025855Y-51833000D01*
X114097284Y-51904429D01*
X114168713Y-52047286D01*
X114168713Y-52475857D01*
X114097284Y-52618714D01*
X114025855Y-52690143D01*
X113882998Y-52761571D01*
X113668713Y-52761571D01*
X115454427Y-52761571D02*
X115454427Y-51975857D01*
X115382998Y-51833000D01*
X115240141Y-51761571D01*
X114954427Y-51761571D01*
X114811570Y-51833000D01*
X115454427Y-52690143D02*
X115311570Y-52761571D01*
X114954427Y-52761571D01*
X114811570Y-52690143D01*
X114740141Y-52547286D01*
X114740141Y-52404429D01*
X114811570Y-52261571D01*
X114954427Y-52190143D01*
X115311570Y-52190143D01*
X115454427Y-52118714D01*
X116168713Y-52761571D02*
X116168713Y-51761571D01*
X116168713Y-52047286D02*
X116240141Y-51904429D01*
X116311570Y-51833000D01*
X116454427Y-51761571D01*
X116597284Y-51761571D01*
X117740141Y-52761571D02*
X117740141Y-51261571D01*
X117740141Y-52690143D02*
X117597284Y-52761571D01*
X117311570Y-52761571D01*
X117168712Y-52690143D01*
X117097284Y-52618714D01*
X117025855Y-52475857D01*
X117025855Y-52047286D01*
X117097284Y-51904429D01*
X117168712Y-51833000D01*
X117311570Y-51761571D01*
X117597284Y-51761571D01*
X117740141Y-51833000D01*
X119454427Y-51761571D02*
X119811570Y-52761571D01*
X120168712Y-51761571D01*
X121025855Y-51261571D02*
X121168712Y-51261571D01*
X121311569Y-51333000D01*
X121382998Y-51404429D01*
X121454427Y-51547286D01*
X121525855Y-51833000D01*
X121525855Y-52190143D01*
X121454427Y-52475857D01*
X121382998Y-52618714D01*
X121311569Y-52690143D01*
X121168712Y-52761571D01*
X121025855Y-52761571D01*
X120882998Y-52690143D01*
X120811569Y-52618714D01*
X120740141Y-52475857D01*
X120668712Y-52190143D01*
X120668712Y-51833000D01*
X120740141Y-51547286D01*
X120811569Y-51404429D01*
X120882998Y-51333000D01*
X121025855Y-51261571D01*
X122168712Y-52618714D02*
X122240140Y-52690143D01*
X122168712Y-52761571D01*
X122097283Y-52690143D01*
X122168712Y-52618714D01*
X122168712Y-52761571D01*
X123668712Y-52761571D02*
X122811569Y-52761571D01*
X123240141Y-52761571D02*
X123240141Y-51261571D01*
X123097284Y-51475857D01*
X122954426Y-51618714D01*
X122811569Y-51690143D01*
X80168714Y-53804429D02*
X80240143Y-53733000D01*
X80383000Y-53661571D01*
X80740143Y-53661571D01*
X80883000Y-53733000D01*
X80954429Y-53804429D01*
X81025857Y-53947286D01*
X81025857Y-54090143D01*
X80954429Y-54304429D01*
X80097286Y-55161571D01*
X81025857Y-55161571D01*
X81954428Y-53661571D02*
X82097285Y-53661571D01*
X82240142Y-53733000D01*
X82311571Y-53804429D01*
X82383000Y-53947286D01*
X82454428Y-54233000D01*
X82454428Y-54590143D01*
X82383000Y-54875857D01*
X82311571Y-55018714D01*
X82240142Y-55090143D01*
X82097285Y-55161571D01*
X81954428Y-55161571D01*
X81811571Y-55090143D01*
X81740142Y-55018714D01*
X81668714Y-54875857D01*
X81597285Y-54590143D01*
X81597285Y-54233000D01*
X81668714Y-53947286D01*
X81740142Y-53804429D01*
X81811571Y-53733000D01*
X81954428Y-53661571D01*
X83882999Y-55161571D02*
X83025856Y-55161571D01*
X83454428Y-55161571D02*
X83454428Y-53661571D01*
X83311571Y-53875857D01*
X83168713Y-54018714D01*
X83025856Y-54090143D01*
X84740142Y-54304429D02*
X84597284Y-54233000D01*
X84525856Y-54161571D01*
X84454427Y-54018714D01*
X84454427Y-53947286D01*
X84525856Y-53804429D01*
X84597284Y-53733000D01*
X84740142Y-53661571D01*
X85025856Y-53661571D01*
X85168713Y-53733000D01*
X85240142Y-53804429D01*
X85311570Y-53947286D01*
X85311570Y-54018714D01*
X85240142Y-54161571D01*
X85168713Y-54233000D01*
X85025856Y-54304429D01*
X84740142Y-54304429D01*
X84597284Y-54375857D01*
X84525856Y-54447286D01*
X84454427Y-54590143D01*
X84454427Y-54875857D01*
X84525856Y-55018714D01*
X84597284Y-55090143D01*
X84740142Y-55161571D01*
X85025856Y-55161571D01*
X85168713Y-55090143D01*
X85240142Y-55018714D01*
X85311570Y-54875857D01*
X85311570Y-54590143D01*
X85240142Y-54447286D01*
X85168713Y-54375857D01*
X85025856Y-54304429D01*
X86882998Y-53661571D02*
X87740141Y-53661571D01*
X87311570Y-55161571D02*
X87311570Y-53661571D01*
X88240141Y-55161571D02*
X88240141Y-53661571D01*
X88882998Y-55161571D02*
X88882998Y-54375857D01*
X88811569Y-54233000D01*
X88668712Y-54161571D01*
X88454427Y-54161571D01*
X88311569Y-54233000D01*
X88240141Y-54304429D01*
X89811570Y-55161571D02*
X89668712Y-55090143D01*
X89597284Y-55018714D01*
X89525855Y-54875857D01*
X89525855Y-54447286D01*
X89597284Y-54304429D01*
X89668712Y-54233000D01*
X89811570Y-54161571D01*
X90025855Y-54161571D01*
X90168712Y-54233000D01*
X90240141Y-54304429D01*
X90311570Y-54447286D01*
X90311570Y-54875857D01*
X90240141Y-55018714D01*
X90168712Y-55090143D01*
X90025855Y-55161571D01*
X89811570Y-55161571D01*
X90954427Y-55161571D02*
X90954427Y-54161571D01*
X90954427Y-54304429D02*
X91025855Y-54233000D01*
X91168713Y-54161571D01*
X91382998Y-54161571D01*
X91525855Y-54233000D01*
X91597284Y-54375857D01*
X91597284Y-55161571D01*
X91597284Y-54375857D02*
X91668713Y-54233000D01*
X91811570Y-54161571D01*
X92025855Y-54161571D01*
X92168713Y-54233000D01*
X92240141Y-54375857D01*
X92240141Y-55161571D01*
X93597284Y-55161571D02*
X93597284Y-54375857D01*
X93525855Y-54233000D01*
X93382998Y-54161571D01*
X93097284Y-54161571D01*
X92954427Y-54233000D01*
X93597284Y-55090143D02*
X93454427Y-55161571D01*
X93097284Y-55161571D01*
X92954427Y-55090143D01*
X92882998Y-54947286D01*
X92882998Y-54804429D01*
X92954427Y-54661571D01*
X93097284Y-54590143D01*
X93454427Y-54590143D01*
X93597284Y-54518714D01*
X94240141Y-55090143D02*
X94382998Y-55161571D01*
X94668713Y-55161571D01*
X94811570Y-55090143D01*
X94882998Y-54947286D01*
X94882998Y-54875857D01*
X94811570Y-54733000D01*
X94668713Y-54661571D01*
X94454427Y-54661571D01*
X94311570Y-54590143D01*
X94240141Y-54447286D01*
X94240141Y-54375857D01*
X94311570Y-54233000D01*
X94454427Y-54161571D01*
X94668713Y-54161571D01*
X94811570Y-54233000D01*
X96525856Y-53661571D02*
X96882999Y-55161571D01*
X97168713Y-54090143D01*
X97454427Y-55161571D01*
X97811570Y-53661571D01*
X98597285Y-55161571D02*
X98454427Y-55090143D01*
X98382999Y-55018714D01*
X98311570Y-54875857D01*
X98311570Y-54447286D01*
X98382999Y-54304429D01*
X98454427Y-54233000D01*
X98597285Y-54161571D01*
X98811570Y-54161571D01*
X98954427Y-54233000D01*
X99025856Y-54304429D01*
X99097285Y-54447286D01*
X99097285Y-54875857D01*
X99025856Y-55018714D01*
X98954427Y-55090143D01*
X98811570Y-55161571D01*
X98597285Y-55161571D01*
X99740142Y-55161571D02*
X99740142Y-54161571D01*
X99740142Y-53661571D02*
X99668713Y-53733000D01*
X99740142Y-53804429D01*
X99811570Y-53733000D01*
X99740142Y-53661571D01*
X99740142Y-53804429D01*
X100454428Y-54161571D02*
X100454428Y-55161571D01*
X100454428Y-54304429D02*
X100525856Y-54233000D01*
X100668714Y-54161571D01*
X100882999Y-54161571D01*
X101025856Y-54233000D01*
X101097285Y-54375857D01*
X101097285Y-55161571D01*
X101811571Y-55161571D02*
X101811571Y-53661571D01*
X101954428Y-54590143D02*
X102382999Y-55161571D01*
X102382999Y-54161571D02*
X101811571Y-54733000D01*
X103597285Y-55090143D02*
X103454428Y-55161571D01*
X103168714Y-55161571D01*
X103025857Y-55090143D01*
X102954428Y-54947286D01*
X102954428Y-54375857D01*
X103025857Y-54233000D01*
X103168714Y-54161571D01*
X103454428Y-54161571D01*
X103597285Y-54233000D01*
X103668714Y-54375857D01*
X103668714Y-54518714D01*
X102954428Y-54661571D01*
X106525856Y-53590143D02*
X105240142Y-55518714D01*
X108168714Y-55161571D02*
X108168714Y-53661571D01*
X108668714Y-54733000D01*
X109168714Y-53661571D01*
X109168714Y-55161571D01*
X110525857Y-55161571D02*
X110525857Y-54375857D01*
X110454428Y-54233000D01*
X110311571Y-54161571D01*
X110025857Y-54161571D01*
X109883000Y-54233000D01*
X110525857Y-55090143D02*
X110383000Y-55161571D01*
X110025857Y-55161571D01*
X109883000Y-55090143D01*
X109811571Y-54947286D01*
X109811571Y-54804429D01*
X109883000Y-54661571D01*
X110025857Y-54590143D01*
X110383000Y-54590143D01*
X110525857Y-54518714D01*
X111240143Y-55161571D02*
X111240143Y-54161571D01*
X111240143Y-54447286D02*
X111311571Y-54304429D01*
X111383000Y-54233000D01*
X111525857Y-54161571D01*
X111668714Y-54161571D01*
X112168714Y-55161571D02*
X112168714Y-53661571D01*
X112311571Y-54590143D02*
X112740142Y-55161571D01*
X112740142Y-54161571D02*
X112168714Y-54733000D01*
X113597286Y-55161571D02*
X113454428Y-55090143D01*
X113383000Y-55018714D01*
X113311571Y-54875857D01*
X113311571Y-54447286D01*
X113383000Y-54304429D01*
X113454428Y-54233000D01*
X113597286Y-54161571D01*
X113811571Y-54161571D01*
X113954428Y-54233000D01*
X114025857Y-54304429D01*
X114097286Y-54447286D01*
X114097286Y-54875857D01*
X114025857Y-55018714D01*
X113954428Y-55090143D01*
X113811571Y-55161571D01*
X113597286Y-55161571D01*
X116597286Y-55161571D02*
X115883000Y-55161571D01*
X115883000Y-53661571D01*
X117740143Y-55161571D02*
X117740143Y-54375857D01*
X117668714Y-54233000D01*
X117525857Y-54161571D01*
X117240143Y-54161571D01*
X117097286Y-54233000D01*
X117740143Y-55090143D02*
X117597286Y-55161571D01*
X117240143Y-55161571D01*
X117097286Y-55090143D01*
X117025857Y-54947286D01*
X117025857Y-54804429D01*
X117097286Y-54661571D01*
X117240143Y-54590143D01*
X117597286Y-54590143D01*
X117740143Y-54518714D01*
X119097286Y-54161571D02*
X119097286Y-55161571D01*
X118454429Y-54161571D02*
X118454429Y-54947286D01*
X118525857Y-55090143D01*
X118668715Y-55161571D01*
X118883000Y-55161571D01*
X119025857Y-55090143D01*
X119097286Y-55018714D01*
X119811572Y-55161571D02*
X119811572Y-53661571D01*
X119954429Y-54590143D02*
X120383000Y-55161571D01*
X120383000Y-54161571D02*
X119811572Y-54733000D01*
X121597286Y-55090143D02*
X121454429Y-55161571D01*
X121168715Y-55161571D01*
X121025858Y-55090143D01*
X120954429Y-54947286D01*
X120954429Y-54375857D01*
X121025858Y-54233000D01*
X121168715Y-54161571D01*
X121454429Y-54161571D01*
X121597286Y-54233000D01*
X121668715Y-54375857D01*
X121668715Y-54518714D01*
X120954429Y-54661571D01*
X80240143Y-57561571D02*
X80240143Y-56061571D01*
X80883000Y-57561571D02*
X80883000Y-56775857D01*
X80811571Y-56633000D01*
X80668714Y-56561571D01*
X80454429Y-56561571D01*
X80311571Y-56633000D01*
X80240143Y-56704429D01*
X81383000Y-56561571D02*
X81954429Y-56561571D01*
X81597286Y-56061571D02*
X81597286Y-57347286D01*
X81668714Y-57490143D01*
X81811572Y-57561571D01*
X81954429Y-57561571D01*
X82240143Y-56561571D02*
X82811572Y-56561571D01*
X82454429Y-56061571D02*
X82454429Y-57347286D01*
X82525857Y-57490143D01*
X82668715Y-57561571D01*
X82811572Y-57561571D01*
X83311572Y-56561571D02*
X83311572Y-58061571D01*
X83311572Y-56633000D02*
X83454429Y-56561571D01*
X83740143Y-56561571D01*
X83883000Y-56633000D01*
X83954429Y-56704429D01*
X84025858Y-56847286D01*
X84025858Y-57275857D01*
X83954429Y-57418714D01*
X83883000Y-57490143D01*
X83740143Y-57561571D01*
X83454429Y-57561571D01*
X83311572Y-57490143D01*
X84668715Y-57418714D02*
X84740143Y-57490143D01*
X84668715Y-57561571D01*
X84597286Y-57490143D01*
X84668715Y-57418714D01*
X84668715Y-57561571D01*
X84668715Y-56633000D02*
X84740143Y-56704429D01*
X84668715Y-56775857D01*
X84597286Y-56704429D01*
X84668715Y-56633000D01*
X84668715Y-56775857D01*
X86454429Y-55990143D02*
X85168715Y-57918714D01*
X88025858Y-55990143D02*
X86740144Y-57918714D01*
X88383002Y-56561571D02*
X88668716Y-57561571D01*
X88954430Y-56847286D01*
X89240145Y-57561571D01*
X89525859Y-56561571D01*
X89954431Y-56561571D02*
X90240145Y-57561571D01*
X90525859Y-56847286D01*
X90811574Y-57561571D01*
X91097288Y-56561571D01*
X91525860Y-56561571D02*
X91811574Y-57561571D01*
X92097288Y-56847286D01*
X92383003Y-57561571D01*
X92668717Y-56561571D01*
X93240146Y-57418714D02*
X93311574Y-57490143D01*
X93240146Y-57561571D01*
X93168717Y-57490143D01*
X93240146Y-57418714D01*
X93240146Y-57561571D01*
X93883003Y-57490143D02*
X94025860Y-57561571D01*
X94311575Y-57561571D01*
X94454432Y-57490143D01*
X94525860Y-57347286D01*
X94525860Y-57275857D01*
X94454432Y-57133000D01*
X94311575Y-57061571D01*
X94097289Y-57061571D01*
X93954432Y-56990143D01*
X93883003Y-56847286D01*
X93883003Y-56775857D01*
X93954432Y-56633000D01*
X94097289Y-56561571D01*
X94311575Y-56561571D01*
X94454432Y-56633000D01*
X94954432Y-56561571D02*
X95525861Y-56561571D01*
X95168718Y-56061571D02*
X95168718Y-57347286D01*
X95240146Y-57490143D01*
X95383004Y-57561571D01*
X95525861Y-57561571D01*
X96597289Y-57490143D02*
X96454432Y-57561571D01*
X96168718Y-57561571D01*
X96025861Y-57490143D01*
X95954432Y-57347286D01*
X95954432Y-56775857D01*
X96025861Y-56633000D01*
X96168718Y-56561571D01*
X96454432Y-56561571D01*
X96597289Y-56633000D01*
X96668718Y-56775857D01*
X96668718Y-56918714D01*
X95954432Y-57061571D01*
X97954432Y-57490143D02*
X97811575Y-57561571D01*
X97525861Y-57561571D01*
X97383003Y-57490143D01*
X97311575Y-57418714D01*
X97240146Y-57275857D01*
X97240146Y-56847286D01*
X97311575Y-56704429D01*
X97383003Y-56633000D01*
X97525861Y-56561571D01*
X97811575Y-56561571D01*
X97954432Y-56633000D01*
X98597289Y-57561571D02*
X98597289Y-56061571D01*
X98740146Y-56990143D02*
X99168717Y-57561571D01*
X99168717Y-56561571D02*
X98597289Y-57133000D01*
X99740146Y-57490143D02*
X99883003Y-57561571D01*
X100168718Y-57561571D01*
X100311575Y-57490143D01*
X100383003Y-57347286D01*
X100383003Y-57275857D01*
X100311575Y-57133000D01*
X100168718Y-57061571D01*
X99954432Y-57061571D01*
X99811575Y-56990143D01*
X99740146Y-56847286D01*
X99740146Y-56775857D01*
X99811575Y-56633000D01*
X99954432Y-56561571D01*
X100168718Y-56561571D01*
X100311575Y-56633000D01*
X101668718Y-57490143D02*
X101525861Y-57561571D01*
X101240147Y-57561571D01*
X101097289Y-57490143D01*
X101025861Y-57418714D01*
X100954432Y-57275857D01*
X100954432Y-56847286D01*
X101025861Y-56704429D01*
X101097289Y-56633000D01*
X101240147Y-56561571D01*
X101525861Y-56561571D01*
X101668718Y-56633000D01*
X102311575Y-57561571D02*
X102311575Y-56061571D01*
X102954432Y-57561571D02*
X102954432Y-56775857D01*
X102883003Y-56633000D01*
X102740146Y-56561571D01*
X102525861Y-56561571D01*
X102383003Y-56633000D01*
X102311575Y-56704429D01*
X103525861Y-56561571D02*
X103811575Y-57561571D01*
X104097289Y-56847286D01*
X104383004Y-57561571D01*
X104668718Y-56561571D01*
X105811575Y-57490143D02*
X105668718Y-57561571D01*
X105383004Y-57561571D01*
X105240147Y-57490143D01*
X105168718Y-57347286D01*
X105168718Y-56775857D01*
X105240147Y-56633000D01*
X105383004Y-56561571D01*
X105668718Y-56561571D01*
X105811575Y-56633000D01*
X105883004Y-56775857D01*
X105883004Y-56918714D01*
X105168718Y-57061571D01*
X106525861Y-57561571D02*
X106525861Y-56561571D01*
X106525861Y-56061571D02*
X106454432Y-56133000D01*
X106525861Y-56204429D01*
X106597289Y-56133000D01*
X106525861Y-56061571D01*
X106525861Y-56204429D01*
X107240147Y-56561571D02*
X107240147Y-57561571D01*
X107240147Y-56704429D02*
X107311575Y-56633000D01*
X107454433Y-56561571D01*
X107668718Y-56561571D01*
X107811575Y-56633000D01*
X107883004Y-56775857D01*
X107883004Y-57561571D01*
X108597290Y-57418714D02*
X108668718Y-57490143D01*
X108597290Y-57561571D01*
X108525861Y-57490143D01*
X108597290Y-57418714D01*
X108597290Y-57561571D01*
X109954433Y-57561571D02*
X109954433Y-56061571D01*
X109954433Y-57490143D02*
X109811576Y-57561571D01*
X109525862Y-57561571D01*
X109383004Y-57490143D01*
X109311576Y-57418714D01*
X109240147Y-57275857D01*
X109240147Y-56847286D01*
X109311576Y-56704429D01*
X109383004Y-56633000D01*
X109525862Y-56561571D01*
X109811576Y-56561571D01*
X109954433Y-56633000D01*
X111240147Y-57490143D02*
X111097290Y-57561571D01*
X110811576Y-57561571D01*
X110668719Y-57490143D01*
X110597290Y-57347286D01*
X110597290Y-56775857D01*
X110668719Y-56633000D01*
X110811576Y-56561571D01*
X111097290Y-56561571D01*
X111240147Y-56633000D01*
X111311576Y-56775857D01*
X111311576Y-56918714D01*
X110597290Y-57061571D01*
X113025861Y-55990143D02*
X111740147Y-57918714D01*
D12*
X125750000Y-96770000D02*
X125750000Y-93770000D01*
X128250000Y-93770000D02*
X128250000Y-96770000D01*
X216789000Y-65659000D02*
X216281000Y-65659000D01*
X216789000Y-65151000D02*
X216281000Y-65151000D01*
X216789000Y-82931000D02*
X216281000Y-82931000D01*
X216789000Y-83439000D02*
X216281000Y-83439000D01*
X216789000Y-85471000D02*
X216281000Y-85471000D01*
X216789000Y-85979000D02*
X216281000Y-85979000D01*
X216789000Y-80899000D02*
X216281000Y-80899000D01*
X216789000Y-80391000D02*
X216281000Y-80391000D01*
X216789000Y-78359000D02*
X216281000Y-78359000D01*
X216789000Y-77851000D02*
X216281000Y-77851000D01*
X216789000Y-67691000D02*
X216281000Y-67691000D01*
X216789000Y-68199000D02*
X216281000Y-68199000D01*
X216789000Y-70231000D02*
X216281000Y-70231000D01*
X216789000Y-70739000D02*
X216281000Y-70739000D01*
X216789000Y-75819000D02*
X216281000Y-75819000D01*
X216789000Y-75311000D02*
X216281000Y-75311000D01*
X216789000Y-73279000D02*
X216281000Y-73279000D01*
X216789000Y-72771000D02*
X216281000Y-72771000D01*
X216789000Y-113411000D02*
X216281000Y-113411000D01*
X216789000Y-113919000D02*
X216281000Y-113919000D01*
X216789000Y-115951000D02*
X216281000Y-115951000D01*
X216789000Y-116459000D02*
X216281000Y-116459000D01*
X216789000Y-111379000D02*
X216281000Y-111379000D01*
X216789000Y-110871000D02*
X216281000Y-110871000D01*
X216789000Y-108839000D02*
X216281000Y-108839000D01*
X216789000Y-108331000D02*
X216281000Y-108331000D01*
X216789000Y-118491000D02*
X216281000Y-118491000D01*
X216789000Y-118999000D02*
X216281000Y-118999000D01*
X216789000Y-121031000D02*
X216281000Y-121031000D01*
X216789000Y-121539000D02*
X216281000Y-121539000D01*
X216789000Y-126619000D02*
X216281000Y-126619000D01*
X216789000Y-126111000D02*
X216281000Y-126111000D01*
X216789000Y-124079000D02*
X216281000Y-124079000D01*
X216789000Y-123571000D02*
X216281000Y-123571000D01*
X216789000Y-103251000D02*
X216281000Y-103251000D01*
X216789000Y-103759000D02*
X216281000Y-103759000D01*
X216789000Y-105791000D02*
X216281000Y-105791000D01*
X216789000Y-106299000D02*
X216281000Y-106299000D01*
X216789000Y-101219000D02*
X216281000Y-101219000D01*
X216789000Y-100711000D02*
X216281000Y-100711000D01*
X216789000Y-98679000D02*
X216281000Y-98679000D01*
X216789000Y-98171000D02*
X216281000Y-98171000D01*
X216789000Y-88011000D02*
X216281000Y-88011000D01*
X216789000Y-88519000D02*
X216281000Y-88519000D01*
X216789000Y-90551000D02*
X216281000Y-90551000D01*
X216789000Y-91059000D02*
X216281000Y-91059000D01*
X216789000Y-96139000D02*
X216281000Y-96139000D01*
X216789000Y-95631000D02*
X216281000Y-95631000D01*
X216789000Y-93599000D02*
X216281000Y-93599000D01*
X216789000Y-93091000D02*
X216281000Y-93091000D01*
X219329000Y-110871000D02*
X218821000Y-110871000D01*
X219329000Y-111379000D02*
X218821000Y-111379000D01*
X219329000Y-113411000D02*
X218821000Y-113411000D01*
X219329000Y-113919000D02*
X218821000Y-113919000D01*
X219329000Y-108839000D02*
X218821000Y-108839000D01*
X219329000Y-108331000D02*
X218821000Y-108331000D01*
X219329000Y-106299000D02*
X218821000Y-106299000D01*
X219329000Y-105791000D02*
X218821000Y-105791000D01*
X219329000Y-115951000D02*
X218821000Y-115951000D01*
X219329000Y-116459000D02*
X218821000Y-116459000D01*
X219329000Y-118491000D02*
X218821000Y-118491000D01*
X219329000Y-118999000D02*
X218821000Y-118999000D01*
X219329000Y-124079000D02*
X218821000Y-124079000D01*
X219329000Y-123571000D02*
X218821000Y-123571000D01*
X219329000Y-121539000D02*
X218821000Y-121539000D01*
X219329000Y-121031000D02*
X218821000Y-121031000D01*
X219329000Y-126111000D02*
X218821000Y-126111000D01*
X219329000Y-126619000D02*
X218821000Y-126619000D01*
X219329000Y-90551000D02*
X218821000Y-90551000D01*
X219329000Y-91059000D02*
X218821000Y-91059000D01*
X219329000Y-93091000D02*
X218821000Y-93091000D01*
X219329000Y-93599000D02*
X218821000Y-93599000D01*
X219329000Y-88519000D02*
X218821000Y-88519000D01*
X219329000Y-88011000D02*
X218821000Y-88011000D01*
X219329000Y-85979000D02*
X218821000Y-85979000D01*
X219329000Y-85471000D02*
X218821000Y-85471000D01*
X219329000Y-95631000D02*
X218821000Y-95631000D01*
X219329000Y-96139000D02*
X218821000Y-96139000D01*
X219329000Y-98171000D02*
X218821000Y-98171000D01*
X219329000Y-98679000D02*
X218821000Y-98679000D01*
X219329000Y-103759000D02*
X218821000Y-103759000D01*
X219329000Y-103251000D02*
X218821000Y-103251000D01*
X219329000Y-101219000D02*
X218821000Y-101219000D01*
X219329000Y-100711000D02*
X218821000Y-100711000D01*
X219329000Y-80391000D02*
X218821000Y-80391000D01*
X219329000Y-80899000D02*
X218821000Y-80899000D01*
X219329000Y-82931000D02*
X218821000Y-82931000D01*
X219329000Y-83439000D02*
X218821000Y-83439000D01*
X219329000Y-78359000D02*
X218821000Y-78359000D01*
X219329000Y-77851000D02*
X218821000Y-77851000D01*
X219329000Y-75819000D02*
X218821000Y-75819000D01*
X219329000Y-75311000D02*
X218821000Y-75311000D01*
X219329000Y-65151000D02*
X218821000Y-65151000D01*
X219329000Y-65659000D02*
X218821000Y-65659000D01*
X219329000Y-67691000D02*
X218821000Y-67691000D01*
X219329000Y-68199000D02*
X218821000Y-68199000D01*
X219329000Y-73279000D02*
X218821000Y-73279000D01*
X219329000Y-72771000D02*
X218821000Y-72771000D01*
X219329000Y-70739000D02*
X218821000Y-70739000D01*
X219329000Y-70231000D02*
X218821000Y-70231000D01*
X219329000Y-64135000D02*
X221869000Y-66675000D01*
X221869000Y-64135000D02*
X219329000Y-66675000D01*
X221869000Y-65278000D02*
X227838000Y-65278000D01*
X227838000Y-65278000D02*
X227838000Y-65532000D01*
X227838000Y-65532000D02*
X221996000Y-65532000D01*
X221996000Y-65532000D02*
X221996000Y-65405000D01*
X221996000Y-65405000D02*
X227838000Y-65405000D01*
X219329000Y-104775000D02*
X221869000Y-104775000D01*
X219329000Y-104775000D02*
X219329000Y-107315000D01*
X219329000Y-107315000D02*
X221869000Y-107315000D01*
X221869000Y-105791000D02*
X227965000Y-105791000D01*
X227965000Y-105791000D02*
X227965000Y-106299000D01*
X227965000Y-106299000D02*
X221869000Y-106299000D01*
X221869000Y-107315000D02*
X221869000Y-104775000D01*
X221869000Y-109855000D02*
X221869000Y-107315000D01*
X227965000Y-108839000D02*
X221869000Y-108839000D01*
X227965000Y-108331000D02*
X227965000Y-108839000D01*
X221869000Y-108331000D02*
X227965000Y-108331000D01*
X219329000Y-109855000D02*
X221869000Y-109855000D01*
X219329000Y-107315000D02*
X219329000Y-109855000D01*
X219329000Y-107315000D02*
X221869000Y-107315000D01*
X219329000Y-112395000D02*
X221869000Y-112395000D01*
X219329000Y-112395000D02*
X219329000Y-114935000D01*
X219329000Y-114935000D02*
X221869000Y-114935000D01*
X221869000Y-113411000D02*
X227965000Y-113411000D01*
X227965000Y-113411000D02*
X227965000Y-113919000D01*
X227965000Y-113919000D02*
X221869000Y-113919000D01*
X221869000Y-114935000D02*
X221869000Y-112395000D01*
X221869000Y-112395000D02*
X221869000Y-109855000D01*
X227965000Y-111379000D02*
X221869000Y-111379000D01*
X227965000Y-110871000D02*
X227965000Y-111379000D01*
X221869000Y-110871000D02*
X227965000Y-110871000D01*
X219329000Y-112395000D02*
X221869000Y-112395000D01*
X219329000Y-109855000D02*
X219329000Y-112395000D01*
X219329000Y-109855000D02*
X221869000Y-109855000D01*
X219329000Y-120015000D02*
X221869000Y-120015000D01*
X219329000Y-120015000D02*
X219329000Y-122555000D01*
X219329000Y-122555000D02*
X221869000Y-122555000D01*
X221869000Y-121031000D02*
X227965000Y-121031000D01*
X227965000Y-121031000D02*
X227965000Y-121539000D01*
X227965000Y-121539000D02*
X221869000Y-121539000D01*
X221869000Y-122555000D02*
X221869000Y-120015000D01*
X221869000Y-125095000D02*
X221869000Y-122555000D01*
X227965000Y-124079000D02*
X221869000Y-124079000D01*
X227965000Y-123571000D02*
X227965000Y-124079000D01*
X221869000Y-123571000D02*
X227965000Y-123571000D01*
X219329000Y-125095000D02*
X221869000Y-125095000D01*
X219329000Y-122555000D02*
X219329000Y-125095000D01*
X219329000Y-122555000D02*
X221869000Y-122555000D01*
X219329000Y-117475000D02*
X221869000Y-117475000D01*
X219329000Y-117475000D02*
X219329000Y-120015000D01*
X219329000Y-120015000D02*
X221869000Y-120015000D01*
X221869000Y-118491000D02*
X227965000Y-118491000D01*
X227965000Y-118491000D02*
X227965000Y-118999000D01*
X227965000Y-118999000D02*
X221869000Y-118999000D01*
X221869000Y-120015000D02*
X221869000Y-117475000D01*
X221869000Y-117475000D02*
X221869000Y-114935000D01*
X227965000Y-116459000D02*
X221869000Y-116459000D01*
X227965000Y-115951000D02*
X227965000Y-116459000D01*
X221869000Y-115951000D02*
X227965000Y-115951000D01*
X219329000Y-117475000D02*
X221869000Y-117475000D01*
X219329000Y-114935000D02*
X219329000Y-117475000D01*
X219329000Y-114935000D02*
X221869000Y-114935000D01*
X221869000Y-127635000D02*
X221869000Y-125095000D01*
X227965000Y-126619000D02*
X221869000Y-126619000D01*
X227965000Y-126111000D02*
X227965000Y-126619000D01*
X221869000Y-126111000D02*
X227965000Y-126111000D01*
X219329000Y-127635000D02*
X221869000Y-127635000D01*
X219329000Y-125095000D02*
X219329000Y-127635000D01*
X219329000Y-125095000D02*
X221869000Y-125095000D01*
X219329000Y-84455000D02*
X221869000Y-84455000D01*
X219329000Y-84455000D02*
X219329000Y-86995000D01*
X219329000Y-86995000D02*
X221869000Y-86995000D01*
X221869000Y-85471000D02*
X227965000Y-85471000D01*
X227965000Y-85471000D02*
X227965000Y-85979000D01*
X227965000Y-85979000D02*
X221869000Y-85979000D01*
X221869000Y-86995000D02*
X221869000Y-84455000D01*
X221869000Y-89535000D02*
X221869000Y-86995000D01*
X227965000Y-88519000D02*
X221869000Y-88519000D01*
X227965000Y-88011000D02*
X227965000Y-88519000D01*
X221869000Y-88011000D02*
X227965000Y-88011000D01*
X219329000Y-89535000D02*
X221869000Y-89535000D01*
X219329000Y-86995000D02*
X219329000Y-89535000D01*
X219329000Y-86995000D02*
X221869000Y-86995000D01*
X219329000Y-92075000D02*
X221869000Y-92075000D01*
X219329000Y-92075000D02*
X219329000Y-94615000D01*
X219329000Y-94615000D02*
X221869000Y-94615000D01*
X221869000Y-93091000D02*
X227965000Y-93091000D01*
X227965000Y-93091000D02*
X227965000Y-93599000D01*
X227965000Y-93599000D02*
X221869000Y-93599000D01*
X221869000Y-94615000D02*
X221869000Y-92075000D01*
X221869000Y-92075000D02*
X221869000Y-89535000D01*
X227965000Y-91059000D02*
X221869000Y-91059000D01*
X227965000Y-90551000D02*
X227965000Y-91059000D01*
X221869000Y-90551000D02*
X227965000Y-90551000D01*
X219329000Y-92075000D02*
X221869000Y-92075000D01*
X219329000Y-89535000D02*
X219329000Y-92075000D01*
X219329000Y-89535000D02*
X221869000Y-89535000D01*
X219329000Y-99695000D02*
X221869000Y-99695000D01*
X219329000Y-99695000D02*
X219329000Y-102235000D01*
X219329000Y-102235000D02*
X221869000Y-102235000D01*
X221869000Y-100711000D02*
X227965000Y-100711000D01*
X227965000Y-100711000D02*
X227965000Y-101219000D01*
X227965000Y-101219000D02*
X221869000Y-101219000D01*
X221869000Y-102235000D02*
X221869000Y-99695000D01*
X221869000Y-104775000D02*
X221869000Y-102235000D01*
X227965000Y-103759000D02*
X221869000Y-103759000D01*
X227965000Y-103251000D02*
X227965000Y-103759000D01*
X221869000Y-103251000D02*
X227965000Y-103251000D01*
X219329000Y-104775000D02*
X221869000Y-104775000D01*
X219329000Y-102235000D02*
X219329000Y-104775000D01*
X219329000Y-102235000D02*
X221869000Y-102235000D01*
X219329000Y-97155000D02*
X221869000Y-97155000D01*
X219329000Y-97155000D02*
X219329000Y-99695000D01*
X219329000Y-99695000D02*
X221869000Y-99695000D01*
X221869000Y-98171000D02*
X227965000Y-98171000D01*
X227965000Y-98171000D02*
X227965000Y-98679000D01*
X227965000Y-98679000D02*
X221869000Y-98679000D01*
X221869000Y-99695000D02*
X221869000Y-97155000D01*
X221869000Y-97155000D02*
X221869000Y-94615000D01*
X227965000Y-96139000D02*
X221869000Y-96139000D01*
X227965000Y-95631000D02*
X227965000Y-96139000D01*
X221869000Y-95631000D02*
X227965000Y-95631000D01*
X219329000Y-97155000D02*
X221869000Y-97155000D01*
X219329000Y-94615000D02*
X219329000Y-97155000D01*
X219329000Y-94615000D02*
X221869000Y-94615000D01*
X219329000Y-74295000D02*
X221869000Y-74295000D01*
X219329000Y-74295000D02*
X219329000Y-76835000D01*
X219329000Y-76835000D02*
X221869000Y-76835000D01*
X221869000Y-75311000D02*
X227965000Y-75311000D01*
X227965000Y-75311000D02*
X227965000Y-75819000D01*
X227965000Y-75819000D02*
X221869000Y-75819000D01*
X221869000Y-76835000D02*
X221869000Y-74295000D01*
X221869000Y-79375000D02*
X221869000Y-76835000D01*
X227965000Y-78359000D02*
X221869000Y-78359000D01*
X227965000Y-77851000D02*
X227965000Y-78359000D01*
X221869000Y-77851000D02*
X227965000Y-77851000D01*
X219329000Y-79375000D02*
X221869000Y-79375000D01*
X219329000Y-76835000D02*
X219329000Y-79375000D01*
X219329000Y-76835000D02*
X221869000Y-76835000D01*
X219329000Y-81915000D02*
X221869000Y-81915000D01*
X219329000Y-81915000D02*
X219329000Y-84455000D01*
X219329000Y-84455000D02*
X221869000Y-84455000D01*
X221869000Y-82931000D02*
X227965000Y-82931000D01*
X227965000Y-82931000D02*
X227965000Y-83439000D01*
X227965000Y-83439000D02*
X221869000Y-83439000D01*
X221869000Y-84455000D02*
X221869000Y-81915000D01*
X221869000Y-81915000D02*
X221869000Y-79375000D01*
X227965000Y-80899000D02*
X221869000Y-80899000D01*
X227965000Y-80391000D02*
X227965000Y-80899000D01*
X221869000Y-80391000D02*
X227965000Y-80391000D01*
X219329000Y-81915000D02*
X221869000Y-81915000D01*
X219329000Y-79375000D02*
X219329000Y-81915000D01*
X219329000Y-79375000D02*
X221869000Y-79375000D01*
X219329000Y-69215000D02*
X221869000Y-69215000D01*
X219329000Y-69215000D02*
X219329000Y-71755000D01*
X219329000Y-71755000D02*
X221869000Y-71755000D01*
X221869000Y-70231000D02*
X227965000Y-70231000D01*
X227965000Y-70231000D02*
X227965000Y-70739000D01*
X227965000Y-70739000D02*
X221869000Y-70739000D01*
X221869000Y-71755000D02*
X221869000Y-69215000D01*
X221869000Y-74295000D02*
X221869000Y-71755000D01*
X227965000Y-73279000D02*
X221869000Y-73279000D01*
X227965000Y-72771000D02*
X227965000Y-73279000D01*
X221869000Y-72771000D02*
X227965000Y-72771000D01*
X219329000Y-74295000D02*
X221869000Y-74295000D01*
X219329000Y-71755000D02*
X219329000Y-74295000D01*
X219329000Y-71755000D02*
X221869000Y-71755000D01*
X219329000Y-66675000D02*
X221869000Y-66675000D01*
X219329000Y-66675000D02*
X219329000Y-69215000D01*
X219329000Y-69215000D02*
X221869000Y-69215000D01*
X221869000Y-67691000D02*
X227965000Y-67691000D01*
X227965000Y-67691000D02*
X227965000Y-68199000D01*
X227965000Y-68199000D02*
X221869000Y-68199000D01*
X221869000Y-69215000D02*
X221869000Y-66675000D01*
X221869000Y-66675000D02*
X221869000Y-64135000D01*
X227965000Y-65659000D02*
X221869000Y-65659000D01*
X227965000Y-65151000D02*
X227965000Y-65659000D01*
X221869000Y-65151000D02*
X227965000Y-65151000D01*
X219329000Y-66675000D02*
X221869000Y-66675000D01*
X219329000Y-64135000D02*
X219329000Y-66675000D01*
X219329000Y-64135000D02*
X221869000Y-64135000D01*
X125750000Y-101850000D02*
X125750000Y-98850000D01*
X128250000Y-98850000D02*
X128250000Y-101850000D01*
X184019000Y-61575000D02*
X181019000Y-61575000D01*
X181019000Y-59075000D02*
X184019000Y-59075000D01*
X158619000Y-61575000D02*
X155619000Y-61575000D01*
X155619000Y-59075000D02*
X158619000Y-59075000D01*
X171279000Y-61575000D02*
X168279000Y-61575000D01*
X168279000Y-59075000D02*
X171279000Y-59075000D01*
X145919000Y-61575000D02*
X142919000Y-61575000D01*
X142919000Y-59075000D02*
X145919000Y-59075000D01*
X208530000Y-91420000D02*
X205530000Y-91420000D01*
X205530000Y-88920000D02*
X208530000Y-88920000D01*
X148840000Y-97770000D02*
X145840000Y-97770000D01*
X145840000Y-95270000D02*
X148840000Y-95270000D01*
X171700000Y-118090000D02*
X168700000Y-118090000D01*
X168700000Y-115590000D02*
X171700000Y-115590000D01*
X171700000Y-115550000D02*
X168700000Y-115550000D01*
X168700000Y-113050000D02*
X171700000Y-113050000D01*
X121975000Y-99101000D02*
X121975000Y-104099000D01*
X122115000Y-99109000D02*
X122115000Y-104091000D01*
X122255000Y-99125000D02*
X122255000Y-101505000D01*
X122255000Y-101695000D02*
X122255000Y-104075000D01*
X122395000Y-99149000D02*
X122395000Y-101110000D01*
X122395000Y-102090000D02*
X122395000Y-104051000D01*
X122535000Y-99182000D02*
X122535000Y-100943000D01*
X122535000Y-102257000D02*
X122535000Y-104018000D01*
X122675000Y-99223000D02*
X122675000Y-100836000D01*
X122675000Y-102364000D02*
X122675000Y-103977000D01*
X122815000Y-99273000D02*
X122815000Y-100765000D01*
X122815000Y-102435000D02*
X122815000Y-103927000D01*
X122955000Y-99334000D02*
X122955000Y-100721000D01*
X122955000Y-102479000D02*
X122955000Y-103866000D01*
X123095000Y-99404000D02*
X123095000Y-100702000D01*
X123095000Y-102498000D02*
X123095000Y-103796000D01*
X123235000Y-99486000D02*
X123235000Y-100704000D01*
X123235000Y-102496000D02*
X123235000Y-103714000D01*
X123375000Y-99581000D02*
X123375000Y-100729000D01*
X123375000Y-102471000D02*
X123375000Y-103619000D01*
X123515000Y-99692000D02*
X123515000Y-100777000D01*
X123515000Y-102423000D02*
X123515000Y-103508000D01*
X123655000Y-99820000D02*
X123655000Y-100855000D01*
X123655000Y-102345000D02*
X123655000Y-103380000D01*
X123795000Y-99969000D02*
X123795000Y-100972000D01*
X123795000Y-102228000D02*
X123795000Y-103231000D01*
X123935000Y-100148000D02*
X123935000Y-101160000D01*
X123935000Y-102040000D02*
X123935000Y-103052000D01*
X124075000Y-100367000D02*
X124075000Y-102833000D01*
X124215000Y-100656000D02*
X124215000Y-102544000D01*
X124355000Y-101128000D02*
X124355000Y-102072000D01*
X124050000Y-101600000D02*
G75*
G03X124050000Y-101600000I-900000J0D01*
G01*
X124437500Y-101600000D02*
G75*
G03X124437500Y-101600000I-2537500J0D01*
G01*
X171700000Y-120630000D02*
X168700000Y-120630000D01*
X168700000Y-118130000D02*
X171700000Y-118130000D01*
X120400000Y-96540000D02*
X123400000Y-96540000D01*
X123400000Y-99040000D02*
X120400000Y-99040000D01*
X82495000Y-123799000D02*
X82495000Y-117501000D01*
X82355000Y-123793000D02*
X82355000Y-117507000D01*
X82215000Y-123780000D02*
X82215000Y-121096000D01*
X82215000Y-120204000D02*
X82215000Y-117520000D01*
X82075000Y-123761000D02*
X82075000Y-121306000D01*
X82075000Y-119994000D02*
X82075000Y-117539000D01*
X81935000Y-123735000D02*
X81935000Y-121439000D01*
X81935000Y-119861000D02*
X81935000Y-117565000D01*
X81795000Y-123703000D02*
X81795000Y-121530000D01*
X81795000Y-119770000D02*
X81795000Y-117597000D01*
X81655000Y-123664000D02*
X81655000Y-121592000D01*
X81655000Y-119708000D02*
X81655000Y-117636000D01*
X81515000Y-123618000D02*
X81515000Y-121631000D01*
X81515000Y-119669000D02*
X81515000Y-117682000D01*
X81375000Y-123565000D02*
X81375000Y-121648000D01*
X81375000Y-119652000D02*
X81375000Y-117735000D01*
X81235000Y-123503000D02*
X81235000Y-121646000D01*
X81235000Y-119654000D02*
X81235000Y-117797000D01*
X81095000Y-123433000D02*
X81095000Y-121624000D01*
X81095000Y-119676000D02*
X81095000Y-117867000D01*
X80955000Y-123354000D02*
X80955000Y-121581000D01*
X80955000Y-119719000D02*
X80955000Y-117946000D01*
X80815000Y-123266000D02*
X80815000Y-121513000D01*
X80815000Y-119787000D02*
X80815000Y-118034000D01*
X80675000Y-123166000D02*
X80675000Y-121414000D01*
X80675000Y-119886000D02*
X80675000Y-118134000D01*
X80535000Y-123054000D02*
X80535000Y-121269000D01*
X80535000Y-120031000D02*
X80535000Y-118246000D01*
X80395000Y-122929000D02*
X80395000Y-121030000D01*
X80395000Y-120270000D02*
X80395000Y-118371000D01*
X80255000Y-122786000D02*
X80255000Y-118514000D01*
X80115000Y-122624000D02*
X80115000Y-118676000D01*
X79975000Y-122436000D02*
X79975000Y-118864000D01*
X79835000Y-122213000D02*
X79835000Y-119087000D01*
X79695000Y-121937000D02*
X79695000Y-119363000D01*
X79555000Y-121562000D02*
X79555000Y-119738000D01*
X82320000Y-120650000D02*
G75*
G03X82320000Y-120650000I-1000000J0D01*
G01*
X85757500Y-120650000D02*
G75*
G03X85757500Y-120650000I-3187500J0D01*
G01*
X82495000Y-66649000D02*
X82495000Y-60351000D01*
X82355000Y-66643000D02*
X82355000Y-60357000D01*
X82215000Y-66630000D02*
X82215000Y-63946000D01*
X82215000Y-63054000D02*
X82215000Y-60370000D01*
X82075000Y-66611000D02*
X82075000Y-64156000D01*
X82075000Y-62844000D02*
X82075000Y-60389000D01*
X81935000Y-66585000D02*
X81935000Y-64289000D01*
X81935000Y-62711000D02*
X81935000Y-60415000D01*
X81795000Y-66553000D02*
X81795000Y-64380000D01*
X81795000Y-62620000D02*
X81795000Y-60447000D01*
X81655000Y-66514000D02*
X81655000Y-64442000D01*
X81655000Y-62558000D02*
X81655000Y-60486000D01*
X81515000Y-66468000D02*
X81515000Y-64481000D01*
X81515000Y-62519000D02*
X81515000Y-60532000D01*
X81375000Y-66415000D02*
X81375000Y-64498000D01*
X81375000Y-62502000D02*
X81375000Y-60585000D01*
X81235000Y-66353000D02*
X81235000Y-64496000D01*
X81235000Y-62504000D02*
X81235000Y-60647000D01*
X81095000Y-66283000D02*
X81095000Y-64474000D01*
X81095000Y-62526000D02*
X81095000Y-60717000D01*
X80955000Y-66204000D02*
X80955000Y-64431000D01*
X80955000Y-62569000D02*
X80955000Y-60796000D01*
X80815000Y-66116000D02*
X80815000Y-64363000D01*
X80815000Y-62637000D02*
X80815000Y-60884000D01*
X80675000Y-66016000D02*
X80675000Y-64264000D01*
X80675000Y-62736000D02*
X80675000Y-60984000D01*
X80535000Y-65904000D02*
X80535000Y-64119000D01*
X80535000Y-62881000D02*
X80535000Y-61096000D01*
X80395000Y-65779000D02*
X80395000Y-63880000D01*
X80395000Y-63120000D02*
X80395000Y-61221000D01*
X80255000Y-65636000D02*
X80255000Y-61364000D01*
X80115000Y-65474000D02*
X80115000Y-61526000D01*
X79975000Y-65286000D02*
X79975000Y-61714000D01*
X79835000Y-65063000D02*
X79835000Y-61937000D01*
X79695000Y-64787000D02*
X79695000Y-62213000D01*
X79555000Y-64412000D02*
X79555000Y-62588000D01*
X82320000Y-63500000D02*
G75*
G03X82320000Y-63500000I-1000000J0D01*
G01*
X85757500Y-63500000D02*
G75*
G03X85757500Y-63500000I-3187500J0D01*
G01*
X82495000Y-131419000D02*
X82495000Y-125121000D01*
X82355000Y-131413000D02*
X82355000Y-125127000D01*
X82215000Y-131400000D02*
X82215000Y-128716000D01*
X82215000Y-127824000D02*
X82215000Y-125140000D01*
X82075000Y-131381000D02*
X82075000Y-128926000D01*
X82075000Y-127614000D02*
X82075000Y-125159000D01*
X81935000Y-131355000D02*
X81935000Y-129059000D01*
X81935000Y-127481000D02*
X81935000Y-125185000D01*
X81795000Y-131323000D02*
X81795000Y-129150000D01*
X81795000Y-127390000D02*
X81795000Y-125217000D01*
X81655000Y-131284000D02*
X81655000Y-129212000D01*
X81655000Y-127328000D02*
X81655000Y-125256000D01*
X81515000Y-131238000D02*
X81515000Y-129251000D01*
X81515000Y-127289000D02*
X81515000Y-125302000D01*
X81375000Y-131185000D02*
X81375000Y-129268000D01*
X81375000Y-127272000D02*
X81375000Y-125355000D01*
X81235000Y-131123000D02*
X81235000Y-129266000D01*
X81235000Y-127274000D02*
X81235000Y-125417000D01*
X81095000Y-131053000D02*
X81095000Y-129244000D01*
X81095000Y-127296000D02*
X81095000Y-125487000D01*
X80955000Y-130974000D02*
X80955000Y-129201000D01*
X80955000Y-127339000D02*
X80955000Y-125566000D01*
X80815000Y-130886000D02*
X80815000Y-129133000D01*
X80815000Y-127407000D02*
X80815000Y-125654000D01*
X80675000Y-130786000D02*
X80675000Y-129034000D01*
X80675000Y-127506000D02*
X80675000Y-125754000D01*
X80535000Y-130674000D02*
X80535000Y-128889000D01*
X80535000Y-127651000D02*
X80535000Y-125866000D01*
X80395000Y-130549000D02*
X80395000Y-128650000D01*
X80395000Y-127890000D02*
X80395000Y-125991000D01*
X80255000Y-130406000D02*
X80255000Y-126134000D01*
X80115000Y-130244000D02*
X80115000Y-126296000D01*
X79975000Y-130056000D02*
X79975000Y-126484000D01*
X79835000Y-129833000D02*
X79835000Y-126707000D01*
X79695000Y-129557000D02*
X79695000Y-126983000D01*
X79555000Y-129182000D02*
X79555000Y-127358000D01*
X82320000Y-128270000D02*
G75*
G03X82320000Y-128270000I-1000000J0D01*
G01*
X85757500Y-128270000D02*
G75*
G03X85757500Y-128270000I-3187500J0D01*
G01*
X102815000Y-85049000D02*
X102815000Y-80051000D01*
X102675000Y-85041000D02*
X102675000Y-80059000D01*
X102535000Y-85025000D02*
X102535000Y-82645000D01*
X102535000Y-82455000D02*
X102535000Y-80075000D01*
X102395000Y-85001000D02*
X102395000Y-83040000D01*
X102395000Y-82060000D02*
X102395000Y-80099000D01*
X102255000Y-84968000D02*
X102255000Y-83207000D01*
X102255000Y-81893000D02*
X102255000Y-80132000D01*
X102115000Y-84927000D02*
X102115000Y-83314000D01*
X102115000Y-81786000D02*
X102115000Y-80173000D01*
X101975000Y-84877000D02*
X101975000Y-83385000D01*
X101975000Y-81715000D02*
X101975000Y-80223000D01*
X101835000Y-84816000D02*
X101835000Y-83429000D01*
X101835000Y-81671000D02*
X101835000Y-80284000D01*
X101695000Y-84746000D02*
X101695000Y-83448000D01*
X101695000Y-81652000D02*
X101695000Y-80354000D01*
X101555000Y-84664000D02*
X101555000Y-83446000D01*
X101555000Y-81654000D02*
X101555000Y-80436000D01*
X101415000Y-84569000D02*
X101415000Y-83421000D01*
X101415000Y-81679000D02*
X101415000Y-80531000D01*
X101275000Y-84458000D02*
X101275000Y-83373000D01*
X101275000Y-81727000D02*
X101275000Y-80642000D01*
X101135000Y-84330000D02*
X101135000Y-83295000D01*
X101135000Y-81805000D02*
X101135000Y-80770000D01*
X100995000Y-84181000D02*
X100995000Y-83178000D01*
X100995000Y-81922000D02*
X100995000Y-80919000D01*
X100855000Y-84002000D02*
X100855000Y-82990000D01*
X100855000Y-82110000D02*
X100855000Y-81098000D01*
X100715000Y-83783000D02*
X100715000Y-81317000D01*
X100575000Y-83494000D02*
X100575000Y-81606000D01*
X100435000Y-83022000D02*
X100435000Y-82078000D01*
X102540000Y-82550000D02*
G75*
G03X102540000Y-82550000I-900000J0D01*
G01*
X105427500Y-82550000D02*
G75*
G03X105427500Y-82550000I-2537500J0D01*
G01*
X82495000Y-79349000D02*
X82495000Y-73051000D01*
X82355000Y-79343000D02*
X82355000Y-73057000D01*
X82215000Y-79330000D02*
X82215000Y-76646000D01*
X82215000Y-75754000D02*
X82215000Y-73070000D01*
X82075000Y-79311000D02*
X82075000Y-76856000D01*
X82075000Y-75544000D02*
X82075000Y-73089000D01*
X81935000Y-79285000D02*
X81935000Y-76989000D01*
X81935000Y-75411000D02*
X81935000Y-73115000D01*
X81795000Y-79253000D02*
X81795000Y-77080000D01*
X81795000Y-75320000D02*
X81795000Y-73147000D01*
X81655000Y-79214000D02*
X81655000Y-77142000D01*
X81655000Y-75258000D02*
X81655000Y-73186000D01*
X81515000Y-79168000D02*
X81515000Y-77181000D01*
X81515000Y-75219000D02*
X81515000Y-73232000D01*
X81375000Y-79115000D02*
X81375000Y-77198000D01*
X81375000Y-75202000D02*
X81375000Y-73285000D01*
X81235000Y-79053000D02*
X81235000Y-77196000D01*
X81235000Y-75204000D02*
X81235000Y-73347000D01*
X81095000Y-78983000D02*
X81095000Y-77174000D01*
X81095000Y-75226000D02*
X81095000Y-73417000D01*
X80955000Y-78904000D02*
X80955000Y-77131000D01*
X80955000Y-75269000D02*
X80955000Y-73496000D01*
X80815000Y-78816000D02*
X80815000Y-77063000D01*
X80815000Y-75337000D02*
X80815000Y-73584000D01*
X80675000Y-78716000D02*
X80675000Y-76964000D01*
X80675000Y-75436000D02*
X80675000Y-73684000D01*
X80535000Y-78604000D02*
X80535000Y-76819000D01*
X80535000Y-75581000D02*
X80535000Y-73796000D01*
X80395000Y-78479000D02*
X80395000Y-76580000D01*
X80395000Y-75820000D02*
X80395000Y-73921000D01*
X80255000Y-78336000D02*
X80255000Y-74064000D01*
X80115000Y-78174000D02*
X80115000Y-74226000D01*
X79975000Y-77986000D02*
X79975000Y-74414000D01*
X79835000Y-77763000D02*
X79835000Y-74637000D01*
X79695000Y-77487000D02*
X79695000Y-74913000D01*
X79555000Y-77112000D02*
X79555000Y-75288000D01*
X82320000Y-76200000D02*
G75*
G03X82320000Y-76200000I-1000000J0D01*
G01*
X85757500Y-76200000D02*
G75*
G03X85757500Y-76200000I-3187500J0D01*
G01*
X109470000Y-83800000D02*
X106470000Y-83800000D01*
X106470000Y-81300000D02*
X109470000Y-81300000D01*
X82495000Y-92049000D02*
X82495000Y-85751000D01*
X82355000Y-92043000D02*
X82355000Y-85757000D01*
X82215000Y-92030000D02*
X82215000Y-89346000D01*
X82215000Y-88454000D02*
X82215000Y-85770000D01*
X82075000Y-92011000D02*
X82075000Y-89556000D01*
X82075000Y-88244000D02*
X82075000Y-85789000D01*
X81935000Y-91985000D02*
X81935000Y-89689000D01*
X81935000Y-88111000D02*
X81935000Y-85815000D01*
X81795000Y-91953000D02*
X81795000Y-89780000D01*
X81795000Y-88020000D02*
X81795000Y-85847000D01*
X81655000Y-91914000D02*
X81655000Y-89842000D01*
X81655000Y-87958000D02*
X81655000Y-85886000D01*
X81515000Y-91868000D02*
X81515000Y-89881000D01*
X81515000Y-87919000D02*
X81515000Y-85932000D01*
X81375000Y-91815000D02*
X81375000Y-89898000D01*
X81375000Y-87902000D02*
X81375000Y-85985000D01*
X81235000Y-91753000D02*
X81235000Y-89896000D01*
X81235000Y-87904000D02*
X81235000Y-86047000D01*
X81095000Y-91683000D02*
X81095000Y-89874000D01*
X81095000Y-87926000D02*
X81095000Y-86117000D01*
X80955000Y-91604000D02*
X80955000Y-89831000D01*
X80955000Y-87969000D02*
X80955000Y-86196000D01*
X80815000Y-91516000D02*
X80815000Y-89763000D01*
X80815000Y-88037000D02*
X80815000Y-86284000D01*
X80675000Y-91416000D02*
X80675000Y-89664000D01*
X80675000Y-88136000D02*
X80675000Y-86384000D01*
X80535000Y-91304000D02*
X80535000Y-89519000D01*
X80535000Y-88281000D02*
X80535000Y-86496000D01*
X80395000Y-91179000D02*
X80395000Y-89280000D01*
X80395000Y-88520000D02*
X80395000Y-86621000D01*
X80255000Y-91036000D02*
X80255000Y-86764000D01*
X80115000Y-90874000D02*
X80115000Y-86926000D01*
X79975000Y-90686000D02*
X79975000Y-87114000D01*
X79835000Y-90463000D02*
X79835000Y-87337000D01*
X79695000Y-90187000D02*
X79695000Y-87613000D01*
X79555000Y-89812000D02*
X79555000Y-87988000D01*
X82320000Y-88900000D02*
G75*
G03X82320000Y-88900000I-1000000J0D01*
G01*
X85757500Y-88900000D02*
G75*
G03X85757500Y-88900000I-3187500J0D01*
G01*
X82495000Y-104749000D02*
X82495000Y-98451000D01*
X82355000Y-104743000D02*
X82355000Y-98457000D01*
X82215000Y-104730000D02*
X82215000Y-102046000D01*
X82215000Y-101154000D02*
X82215000Y-98470000D01*
X82075000Y-104711000D02*
X82075000Y-102256000D01*
X82075000Y-100944000D02*
X82075000Y-98489000D01*
X81935000Y-104685000D02*
X81935000Y-102389000D01*
X81935000Y-100811000D02*
X81935000Y-98515000D01*
X81795000Y-104653000D02*
X81795000Y-102480000D01*
X81795000Y-100720000D02*
X81795000Y-98547000D01*
X81655000Y-104614000D02*
X81655000Y-102542000D01*
X81655000Y-100658000D02*
X81655000Y-98586000D01*
X81515000Y-104568000D02*
X81515000Y-102581000D01*
X81515000Y-100619000D02*
X81515000Y-98632000D01*
X81375000Y-104515000D02*
X81375000Y-102598000D01*
X81375000Y-100602000D02*
X81375000Y-98685000D01*
X81235000Y-104453000D02*
X81235000Y-102596000D01*
X81235000Y-100604000D02*
X81235000Y-98747000D01*
X81095000Y-104383000D02*
X81095000Y-102574000D01*
X81095000Y-100626000D02*
X81095000Y-98817000D01*
X80955000Y-104304000D02*
X80955000Y-102531000D01*
X80955000Y-100669000D02*
X80955000Y-98896000D01*
X80815000Y-104216000D02*
X80815000Y-102463000D01*
X80815000Y-100737000D02*
X80815000Y-98984000D01*
X80675000Y-104116000D02*
X80675000Y-102364000D01*
X80675000Y-100836000D02*
X80675000Y-99084000D01*
X80535000Y-104004000D02*
X80535000Y-102219000D01*
X80535000Y-100981000D02*
X80535000Y-99196000D01*
X80395000Y-103879000D02*
X80395000Y-101980000D01*
X80395000Y-101220000D02*
X80395000Y-99321000D01*
X80255000Y-103736000D02*
X80255000Y-99464000D01*
X80115000Y-103574000D02*
X80115000Y-99626000D01*
X79975000Y-103386000D02*
X79975000Y-99814000D01*
X79835000Y-103163000D02*
X79835000Y-100037000D01*
X79695000Y-102887000D02*
X79695000Y-100313000D01*
X79555000Y-102512000D02*
X79555000Y-100688000D01*
X82320000Y-101600000D02*
G75*
G03X82320000Y-101600000I-1000000J0D01*
G01*
X85757500Y-101600000D02*
G75*
G03X85757500Y-101600000I-3187500J0D01*
G01*
X210820000Y-86995000D02*
X208280000Y-86995000D01*
X213640000Y-87275000D02*
X212090000Y-87275000D01*
X210820000Y-86995000D02*
X210820000Y-84455000D01*
X212090000Y-84175000D02*
X213640000Y-84175000D01*
X213640000Y-84175000D02*
X213640000Y-87275000D01*
X210820000Y-84455000D02*
X208280000Y-84455000D01*
X208280000Y-84455000D02*
X208280000Y-86995000D01*
D13*
X77467460Y-60248800D02*
G75*
G03X77467460Y-60248800I-548640J0D01*
G01*
X77472336Y-66751200D02*
G75*
G03X77472336Y-66751200I-553516J0D01*
G01*
X67672789Y-66751200D02*
G75*
G03X67672789Y-66751200I-553289J0D01*
G01*
X67670487Y-60248800D02*
G75*
G03X67670487Y-60248800I-550987J0D01*
G01*
X71668640Y-60248800D02*
G75*
G03X71668640Y-60248800I-548640J0D01*
G01*
X71673516Y-66751200D02*
G75*
G03X71673516Y-66751200I-553516J0D01*
G01*
X66118740Y-59199780D02*
X57119520Y-59199780D01*
X57119520Y-59199780D02*
X57119520Y-67800220D01*
X57119520Y-67800220D02*
X66118740Y-67800220D01*
X76019660Y-68300600D02*
X76019660Y-68900040D01*
X76019660Y-68900040D02*
X74218800Y-68900040D01*
X74218800Y-68900040D02*
X74218800Y-68300600D01*
X76019660Y-58099960D02*
X76019660Y-58699400D01*
X74218800Y-58699400D02*
X74218800Y-58099960D01*
X74218800Y-58099960D02*
X76019660Y-58099960D01*
X77919580Y-58699400D02*
X77919580Y-61699140D01*
X77919580Y-61699140D02*
X77119480Y-61699140D01*
X77119480Y-61699140D02*
X77119480Y-65300860D01*
X77119480Y-65300860D02*
X77919580Y-65300860D01*
X77919580Y-65300860D02*
X77919580Y-68300600D01*
X66118740Y-68300600D02*
X66118740Y-58699400D01*
X66121280Y-58699400D02*
X77922120Y-58699400D01*
X77919580Y-68300600D02*
X66118740Y-68300600D01*
X77467460Y-72948800D02*
G75*
G03X77467460Y-72948800I-548640J0D01*
G01*
X77472336Y-79451200D02*
G75*
G03X77472336Y-79451200I-553516J0D01*
G01*
X67672789Y-79451200D02*
G75*
G03X67672789Y-79451200I-553289J0D01*
G01*
X67670487Y-72948800D02*
G75*
G03X67670487Y-72948800I-550987J0D01*
G01*
X71668640Y-72948800D02*
G75*
G03X71668640Y-72948800I-548640J0D01*
G01*
X71673516Y-79451200D02*
G75*
G03X71673516Y-79451200I-553516J0D01*
G01*
X66118740Y-71899780D02*
X57119520Y-71899780D01*
X57119520Y-71899780D02*
X57119520Y-80500220D01*
X57119520Y-80500220D02*
X66118740Y-80500220D01*
X76019660Y-81000600D02*
X76019660Y-81600040D01*
X76019660Y-81600040D02*
X74218800Y-81600040D01*
X74218800Y-81600040D02*
X74218800Y-81000600D01*
X76019660Y-70799960D02*
X76019660Y-71399400D01*
X74218800Y-71399400D02*
X74218800Y-70799960D01*
X74218800Y-70799960D02*
X76019660Y-70799960D01*
X77919580Y-71399400D02*
X77919580Y-74399140D01*
X77919580Y-74399140D02*
X77119480Y-74399140D01*
X77119480Y-74399140D02*
X77119480Y-78000860D01*
X77119480Y-78000860D02*
X77919580Y-78000860D01*
X77919580Y-78000860D02*
X77919580Y-81000600D01*
X66118740Y-81000600D02*
X66118740Y-71399400D01*
X66121280Y-71399400D02*
X77922120Y-71399400D01*
X77919580Y-81000600D02*
X66118740Y-81000600D01*
X77467460Y-85648800D02*
G75*
G03X77467460Y-85648800I-548640J0D01*
G01*
X77472336Y-92151200D02*
G75*
G03X77472336Y-92151200I-553516J0D01*
G01*
X67672789Y-92151200D02*
G75*
G03X67672789Y-92151200I-553289J0D01*
G01*
X67670487Y-85648800D02*
G75*
G03X67670487Y-85648800I-550987J0D01*
G01*
X71668640Y-85648800D02*
G75*
G03X71668640Y-85648800I-548640J0D01*
G01*
X71673516Y-92151200D02*
G75*
G03X71673516Y-92151200I-553516J0D01*
G01*
X66118740Y-84599780D02*
X57119520Y-84599780D01*
X57119520Y-84599780D02*
X57119520Y-93200220D01*
X57119520Y-93200220D02*
X66118740Y-93200220D01*
X76019660Y-93700600D02*
X76019660Y-94300040D01*
X76019660Y-94300040D02*
X74218800Y-94300040D01*
X74218800Y-94300040D02*
X74218800Y-93700600D01*
X76019660Y-83499960D02*
X76019660Y-84099400D01*
X74218800Y-84099400D02*
X74218800Y-83499960D01*
X74218800Y-83499960D02*
X76019660Y-83499960D01*
X77919580Y-84099400D02*
X77919580Y-87099140D01*
X77919580Y-87099140D02*
X77119480Y-87099140D01*
X77119480Y-87099140D02*
X77119480Y-90700860D01*
X77119480Y-90700860D02*
X77919580Y-90700860D01*
X77919580Y-90700860D02*
X77919580Y-93700600D01*
X66118740Y-93700600D02*
X66118740Y-84099400D01*
X66121280Y-84099400D02*
X77922120Y-84099400D01*
X77919580Y-93700600D02*
X66118740Y-93700600D01*
X77467460Y-98348800D02*
G75*
G03X77467460Y-98348800I-548640J0D01*
G01*
X77472336Y-104851200D02*
G75*
G03X77472336Y-104851200I-553516J0D01*
G01*
X67672789Y-104851200D02*
G75*
G03X67672789Y-104851200I-553289J0D01*
G01*
X67670487Y-98348800D02*
G75*
G03X67670487Y-98348800I-550987J0D01*
G01*
X71668640Y-98348800D02*
G75*
G03X71668640Y-98348800I-548640J0D01*
G01*
X71673516Y-104851200D02*
G75*
G03X71673516Y-104851200I-553516J0D01*
G01*
X66118740Y-97299780D02*
X57119520Y-97299780D01*
X57119520Y-97299780D02*
X57119520Y-105900220D01*
X57119520Y-105900220D02*
X66118740Y-105900220D01*
X76019660Y-106400600D02*
X76019660Y-107000040D01*
X76019660Y-107000040D02*
X74218800Y-107000040D01*
X74218800Y-107000040D02*
X74218800Y-106400600D01*
X76019660Y-96199960D02*
X76019660Y-96799400D01*
X74218800Y-96799400D02*
X74218800Y-96199960D01*
X74218800Y-96199960D02*
X76019660Y-96199960D01*
X77919580Y-96799400D02*
X77919580Y-99799140D01*
X77919580Y-99799140D02*
X77119480Y-99799140D01*
X77119480Y-99799140D02*
X77119480Y-103400860D01*
X77119480Y-103400860D02*
X77919580Y-103400860D01*
X77919580Y-103400860D02*
X77919580Y-106400600D01*
X66118740Y-106400600D02*
X66118740Y-96799400D01*
X66121280Y-96799400D02*
X77922120Y-96799400D01*
X77919580Y-106400600D02*
X66118740Y-106400600D01*
D11*
X136100000Y-102600000D02*
X136100000Y-109600000D01*
X136100000Y-93600000D02*
X136100000Y-100600000D01*
X137100000Y-101600000D02*
G75*
G03X136100000Y-100600000I-1000000J0D01*
G01*
X136100000Y-102600000D02*
G75*
G03X137100000Y-101600000I0J1000000D01*
G01*
X136100000Y-109600000D02*
X194100000Y-109600000D01*
X194100000Y-109600000D02*
X194100000Y-93600000D01*
X194100000Y-93600000D02*
X136100000Y-93600000D01*
D12*
X183634000Y-86750000D02*
X183634000Y-85480000D01*
X176284000Y-86750000D02*
X176284000Y-85480000D01*
X176284000Y-61840000D02*
X176284000Y-63110000D01*
X183634000Y-61840000D02*
X183634000Y-63110000D01*
X183634000Y-86750000D02*
X176284000Y-86750000D01*
X183634000Y-61840000D02*
X176284000Y-61840000D01*
X183634000Y-85480000D02*
X184919000Y-85480000D01*
X158234000Y-86750000D02*
X158234000Y-85480000D01*
X150884000Y-86750000D02*
X150884000Y-85480000D01*
X150884000Y-61840000D02*
X150884000Y-63110000D01*
X158234000Y-61840000D02*
X158234000Y-63110000D01*
X158234000Y-86750000D02*
X150884000Y-86750000D01*
X158234000Y-61840000D02*
X150884000Y-61840000D01*
X158234000Y-85480000D02*
X159519000Y-85480000D01*
X170934000Y-86750000D02*
X170934000Y-85480000D01*
X163584000Y-86750000D02*
X163584000Y-85480000D01*
X163584000Y-61840000D02*
X163584000Y-63110000D01*
X170934000Y-61840000D02*
X170934000Y-63110000D01*
X170934000Y-86750000D02*
X163584000Y-86750000D01*
X170934000Y-61840000D02*
X163584000Y-61840000D01*
X170934000Y-85480000D02*
X172219000Y-85480000D01*
X145534000Y-86750000D02*
X145534000Y-85480000D01*
X138184000Y-86750000D02*
X138184000Y-85480000D01*
X138184000Y-61840000D02*
X138184000Y-63110000D01*
X145534000Y-61840000D02*
X145534000Y-63110000D01*
X145534000Y-86750000D02*
X138184000Y-86750000D01*
X145534000Y-61840000D02*
X138184000Y-61840000D01*
X145534000Y-85480000D02*
X146819000Y-85480000D01*
X103885000Y-95315000D02*
X104250000Y-95315000D01*
X103885000Y-87565000D02*
X104250000Y-87565000D01*
X119635000Y-87565000D02*
X119270000Y-87565000D01*
X119635000Y-95315000D02*
X119270000Y-95315000D01*
X103885000Y-95315000D02*
X103885000Y-87565000D01*
X119635000Y-95315000D02*
X119635000Y-87565000D01*
X104250000Y-95315000D02*
X104250000Y-97140000D01*
X102616000Y-122174000D02*
G75*
G03X102616000Y-122174000I-254000J0D01*
G01*
X101361240Y-111439960D02*
X101361240Y-123438920D01*
X121160540Y-123438920D02*
X101361240Y-123438920D01*
X122158760Y-111239300D02*
X122158760Y-122339100D01*
X102659180Y-110241080D02*
X121160540Y-110241080D01*
X122158760Y-111239300D02*
G75*
G03X121160540Y-110241080I-998220J0D01*
G01*
X102555040Y-110241080D02*
G75*
G03X101356160Y-111439960I0J-1198880D01*
G01*
X121160540Y-123438920D02*
G75*
G03X122158760Y-122440700I0J998220D01*
G01*
D14*
X61290200Y-117462300D02*
X61290200Y-131457700D01*
X61290200Y-131457700D02*
X65791080Y-131457700D01*
X65791080Y-131457700D02*
X74089260Y-131457700D01*
X74089260Y-131457700D02*
X74038460Y-117462300D01*
X74038460Y-117462300D02*
X67787520Y-117462300D01*
X67787520Y-117462300D02*
X65791080Y-117462300D01*
X65791080Y-117462300D02*
X61290200Y-117462300D01*
X65791080Y-117462300D02*
X65791080Y-117762020D01*
X65791080Y-117762020D02*
X67787520Y-117762020D01*
X67787520Y-117762020D02*
X67787520Y-117462300D01*
X65791080Y-131457700D02*
X65791080Y-131157980D01*
X65791080Y-131157980D02*
X67787520Y-131157980D01*
X67787520Y-131157980D02*
X67787520Y-131409440D01*
D12*
X131079240Y-94361000D02*
X131480560Y-94160340D01*
X131480560Y-94160340D02*
X132080000Y-94058740D01*
X132080000Y-94058740D02*
X132580380Y-94160340D01*
X132580380Y-94160340D02*
X133278880Y-94559120D01*
X133278880Y-94559120D02*
X133680200Y-95161100D01*
X133680200Y-95161100D02*
X133880860Y-95760540D01*
X133880860Y-95760540D02*
X133880860Y-102359460D01*
X133880860Y-102359460D02*
X133680200Y-103060500D01*
X133680200Y-103060500D02*
X133380480Y-103459280D01*
X133380480Y-103459280D02*
X132880100Y-103860600D01*
X132880100Y-103860600D02*
X132280660Y-104061260D01*
X132280660Y-104061260D02*
X131780280Y-104061260D01*
X131780280Y-104061260D02*
X131279900Y-103860600D01*
X131279900Y-103860600D02*
X130680460Y-103360220D01*
X130680460Y-103360220D02*
X130380740Y-102859840D01*
X130380740Y-102859840D02*
X130279140Y-102359460D01*
X130279140Y-102260400D02*
X130279140Y-95658940D01*
X130279140Y-95658940D02*
X130380740Y-95260160D01*
X130380740Y-95260160D02*
X130680460Y-94759780D01*
X130680460Y-94759780D02*
X131180840Y-94259400D01*
X129750820Y-102250240D02*
X129799080Y-102709980D01*
X129799080Y-102709980D02*
X129910840Y-103108760D01*
X129910840Y-103108760D02*
X130129280Y-103540560D01*
X130129280Y-103540560D02*
X130360420Y-103830120D01*
X130360420Y-103830120D02*
X130710940Y-104160320D01*
X130710940Y-104160320D02*
X131249420Y-104449880D01*
X131249420Y-104449880D02*
X131848860Y-104579420D01*
X131848860Y-104579420D02*
X132359400Y-104579420D01*
X132359400Y-104579420D02*
X133060440Y-104409240D01*
X133060440Y-104409240D02*
X133649720Y-104010460D01*
X133649720Y-104010460D02*
X134020560Y-103550720D01*
X134020560Y-103550720D02*
X134228840Y-103129080D01*
X134228840Y-103129080D02*
X134388860Y-102679500D01*
X134388860Y-102679500D02*
X134419340Y-102240080D01*
X134200900Y-94899480D02*
X133979920Y-94521020D01*
X133979920Y-94521020D02*
X133700520Y-94200980D01*
X133700520Y-94200980D02*
X133370320Y-93949520D01*
X133370320Y-93949520D02*
X132819140Y-93649800D01*
X132819140Y-93649800D02*
X132349240Y-93540580D01*
X132349240Y-93540580D02*
X131889500Y-93520260D01*
X131889500Y-93520260D02*
X131429760Y-93609160D01*
X131429760Y-93609160D02*
X130980180Y-93799660D01*
X130980180Y-93799660D02*
X130510280Y-94160340D01*
X130510280Y-94160340D02*
X130190240Y-94510860D01*
X130190240Y-94510860D02*
X129959100Y-94899480D01*
X129959100Y-94899480D02*
X129819400Y-95328740D01*
X129819400Y-95328740D02*
X129750820Y-95770700D01*
X134409180Y-102260400D02*
X134409180Y-95808800D01*
X134409180Y-95808800D02*
X134371080Y-95389700D01*
X134371080Y-95389700D02*
X134200900Y-94899480D01*
X129750820Y-102260400D02*
X129750820Y-95808800D01*
X173990000Y-121920000D02*
X173990000Y-121412000D01*
X173990000Y-114300000D02*
X173990000Y-114808000D01*
X173990000Y-114808000D02*
X172974000Y-114808000D01*
X172974000Y-114808000D02*
X172974000Y-121412000D01*
X172974000Y-121412000D02*
X175006000Y-121412000D01*
X175006000Y-121412000D02*
X175006000Y-114808000D01*
X175006000Y-114808000D02*
X173990000Y-114808000D01*
X173482000Y-121412000D02*
X172974000Y-120904000D01*
X176530000Y-121920000D02*
X176530000Y-121412000D01*
X176530000Y-114300000D02*
X176530000Y-114808000D01*
X176530000Y-114808000D02*
X175514000Y-114808000D01*
X175514000Y-114808000D02*
X175514000Y-121412000D01*
X175514000Y-121412000D02*
X177546000Y-121412000D01*
X177546000Y-121412000D02*
X177546000Y-114808000D01*
X177546000Y-114808000D02*
X176530000Y-114808000D01*
X176022000Y-121412000D02*
X175514000Y-120904000D01*
X179070000Y-121920000D02*
X179070000Y-121412000D01*
X179070000Y-114300000D02*
X179070000Y-114808000D01*
X179070000Y-114808000D02*
X178054000Y-114808000D01*
X178054000Y-114808000D02*
X178054000Y-121412000D01*
X178054000Y-121412000D02*
X180086000Y-121412000D01*
X180086000Y-121412000D02*
X180086000Y-114808000D01*
X180086000Y-114808000D02*
X179070000Y-114808000D01*
X178562000Y-121412000D02*
X178054000Y-120904000D01*
X111125000Y-106934000D02*
X111125000Y-106426000D01*
X111125000Y-99314000D02*
X111125000Y-99822000D01*
X111125000Y-99822000D02*
X110109000Y-99822000D01*
X110109000Y-99822000D02*
X110109000Y-106426000D01*
X110109000Y-106426000D02*
X112141000Y-106426000D01*
X112141000Y-106426000D02*
X112141000Y-99822000D01*
X112141000Y-99822000D02*
X111125000Y-99822000D01*
X110617000Y-106426000D02*
X110109000Y-105918000D01*
X144780000Y-114300000D02*
X144272000Y-114300000D01*
X137160000Y-114300000D02*
X137668000Y-114300000D01*
X137668000Y-114300000D02*
X137668000Y-115316000D01*
X137668000Y-115316000D02*
X144272000Y-115316000D01*
X144272000Y-115316000D02*
X144272000Y-113284000D01*
X144272000Y-113284000D02*
X137668000Y-113284000D01*
X137668000Y-113284000D02*
X137668000Y-114300000D01*
X144272000Y-114808000D02*
X143764000Y-115316000D01*
X95250000Y-83820000D02*
X94742000Y-83820000D01*
X87630000Y-83820000D02*
X88138000Y-83820000D01*
X88138000Y-83820000D02*
X88138000Y-84836000D01*
X88138000Y-84836000D02*
X94742000Y-84836000D01*
X94742000Y-84836000D02*
X94742000Y-82804000D01*
X94742000Y-82804000D02*
X88138000Y-82804000D01*
X88138000Y-82804000D02*
X88138000Y-83820000D01*
X94742000Y-84328000D02*
X94234000Y-84836000D01*
X95250000Y-86360000D02*
X94742000Y-86360000D01*
X87630000Y-86360000D02*
X88138000Y-86360000D01*
X88138000Y-86360000D02*
X88138000Y-87376000D01*
X88138000Y-87376000D02*
X94742000Y-87376000D01*
X94742000Y-87376000D02*
X94742000Y-85344000D01*
X94742000Y-85344000D02*
X88138000Y-85344000D01*
X88138000Y-85344000D02*
X88138000Y-86360000D01*
X94742000Y-86868000D02*
X94234000Y-87376000D01*
X95250000Y-88900000D02*
X94742000Y-88900000D01*
X87630000Y-88900000D02*
X88138000Y-88900000D01*
X88138000Y-88900000D02*
X88138000Y-89916000D01*
X88138000Y-89916000D02*
X94742000Y-89916000D01*
X94742000Y-89916000D02*
X94742000Y-87884000D01*
X94742000Y-87884000D02*
X88138000Y-87884000D01*
X88138000Y-87884000D02*
X88138000Y-88900000D01*
X94742000Y-89408000D02*
X94234000Y-89916000D01*
X95250000Y-91440000D02*
X94742000Y-91440000D01*
X87630000Y-91440000D02*
X88138000Y-91440000D01*
X88138000Y-91440000D02*
X88138000Y-92456000D01*
X88138000Y-92456000D02*
X94742000Y-92456000D01*
X94742000Y-92456000D02*
X94742000Y-90424000D01*
X94742000Y-90424000D02*
X88138000Y-90424000D01*
X88138000Y-90424000D02*
X88138000Y-91440000D01*
X94742000Y-91948000D02*
X94234000Y-92456000D01*
X121920000Y-87630000D02*
X121920000Y-88138000D01*
X121920000Y-95250000D02*
X121920000Y-94742000D01*
X121920000Y-94742000D02*
X122936000Y-94742000D01*
X122936000Y-94742000D02*
X122936000Y-88138000D01*
X122936000Y-88138000D02*
X120904000Y-88138000D01*
X120904000Y-88138000D02*
X120904000Y-94742000D01*
X120904000Y-94742000D02*
X121920000Y-94742000D01*
X122428000Y-88138000D02*
X122936000Y-88646000D01*
X95250000Y-96520000D02*
X94742000Y-96520000D01*
X87630000Y-96520000D02*
X88138000Y-96520000D01*
X88138000Y-96520000D02*
X88138000Y-97536000D01*
X88138000Y-97536000D02*
X94742000Y-97536000D01*
X94742000Y-97536000D02*
X94742000Y-95504000D01*
X94742000Y-95504000D02*
X88138000Y-95504000D01*
X88138000Y-95504000D02*
X88138000Y-96520000D01*
X94742000Y-97028000D02*
X94234000Y-97536000D01*
X95250000Y-99060000D02*
X94742000Y-99060000D01*
X87630000Y-99060000D02*
X88138000Y-99060000D01*
X88138000Y-99060000D02*
X88138000Y-100076000D01*
X88138000Y-100076000D02*
X94742000Y-100076000D01*
X94742000Y-100076000D02*
X94742000Y-98044000D01*
X94742000Y-98044000D02*
X88138000Y-98044000D01*
X88138000Y-98044000D02*
X88138000Y-99060000D01*
X94742000Y-99568000D02*
X94234000Y-100076000D01*
X95250000Y-93980000D02*
X94742000Y-93980000D01*
X87630000Y-93980000D02*
X88138000Y-93980000D01*
X88138000Y-93980000D02*
X88138000Y-94996000D01*
X88138000Y-94996000D02*
X94742000Y-94996000D01*
X94742000Y-94996000D02*
X94742000Y-92964000D01*
X94742000Y-92964000D02*
X88138000Y-92964000D01*
X88138000Y-92964000D02*
X88138000Y-93980000D01*
X94742000Y-94488000D02*
X94234000Y-94996000D01*
X200795000Y-91685000D02*
X200795000Y-92955000D01*
X208145000Y-91685000D02*
X208145000Y-92955000D01*
X208145000Y-114055000D02*
X208145000Y-112785000D01*
X200795000Y-114055000D02*
X200795000Y-112785000D01*
X200795000Y-91685000D02*
X208145000Y-91685000D01*
X200795000Y-114055000D02*
X208145000Y-114055000D01*
X200795000Y-92955000D02*
X199510000Y-92955000D01*
X124857143Y-95436666D02*
X124904762Y-95484285D01*
X124952381Y-95627142D01*
X124952381Y-95722380D01*
X124904762Y-95865238D01*
X124809524Y-95960476D01*
X124714286Y-96008095D01*
X124523810Y-96055714D01*
X124380952Y-96055714D01*
X124190476Y-96008095D01*
X124095238Y-95960476D01*
X124000000Y-95865238D01*
X123952381Y-95722380D01*
X123952381Y-95627142D01*
X124000000Y-95484285D01*
X124047619Y-95436666D01*
X124047619Y-95055714D02*
X124000000Y-95008095D01*
X123952381Y-94912857D01*
X123952381Y-94674761D01*
X124000000Y-94579523D01*
X124047619Y-94531904D01*
X124142857Y-94484285D01*
X124238095Y-94484285D01*
X124380952Y-94531904D01*
X124952381Y-95103333D01*
X124952381Y-94484285D01*
D15*
X213299524Y-96822381D02*
X212029524Y-96822381D01*
X212029524Y-96338572D01*
X212090000Y-96217619D01*
X212150476Y-96157143D01*
X212271429Y-96096667D01*
X212452857Y-96096667D01*
X212573810Y-96157143D01*
X212634286Y-96217619D01*
X212694762Y-96338572D01*
X212694762Y-96822381D01*
X212029524Y-94947619D02*
X212029524Y-95552381D01*
X212634286Y-95612857D01*
X212573810Y-95552381D01*
X212513333Y-95431429D01*
X212513333Y-95129048D01*
X212573810Y-95008095D01*
X212634286Y-94947619D01*
X212755238Y-94887143D01*
X213057619Y-94887143D01*
X213178571Y-94947619D01*
X213239048Y-95008095D01*
X213299524Y-95129048D01*
X213299524Y-95431429D01*
X213239048Y-95552381D01*
X213178571Y-95612857D01*
D12*
X124857143Y-100516666D02*
X124904762Y-100564285D01*
X124952381Y-100707142D01*
X124952381Y-100802380D01*
X124904762Y-100945238D01*
X124809524Y-101040476D01*
X124714286Y-101088095D01*
X124523810Y-101135714D01*
X124380952Y-101135714D01*
X124190476Y-101088095D01*
X124095238Y-101040476D01*
X124000000Y-100945238D01*
X123952381Y-100802380D01*
X123952381Y-100707142D01*
X124000000Y-100564285D01*
X124047619Y-100516666D01*
X124952381Y-99564285D02*
X124952381Y-100135714D01*
X124952381Y-99850000D02*
X123952381Y-99850000D01*
X124095238Y-99945238D01*
X124190476Y-100040476D01*
X124238095Y-100135714D01*
X182713334Y-58777143D02*
X182665715Y-58824762D01*
X182522858Y-58872381D01*
X182427620Y-58872381D01*
X182284762Y-58824762D01*
X182189524Y-58729524D01*
X182141905Y-58634286D01*
X182094286Y-58443810D01*
X182094286Y-58300952D01*
X182141905Y-58110476D01*
X182189524Y-58015238D01*
X182284762Y-57920000D01*
X182427620Y-57872381D01*
X182522858Y-57872381D01*
X182665715Y-57920000D01*
X182713334Y-57967619D01*
X183046667Y-57872381D02*
X183665715Y-57872381D01*
X183332381Y-58253333D01*
X183475239Y-58253333D01*
X183570477Y-58300952D01*
X183618096Y-58348571D01*
X183665715Y-58443810D01*
X183665715Y-58681905D01*
X183618096Y-58777143D01*
X183570477Y-58824762D01*
X183475239Y-58872381D01*
X183189524Y-58872381D01*
X183094286Y-58824762D01*
X183046667Y-58777143D01*
X157313334Y-58777143D02*
X157265715Y-58824762D01*
X157122858Y-58872381D01*
X157027620Y-58872381D01*
X156884762Y-58824762D01*
X156789524Y-58729524D01*
X156741905Y-58634286D01*
X156694286Y-58443810D01*
X156694286Y-58300952D01*
X156741905Y-58110476D01*
X156789524Y-58015238D01*
X156884762Y-57920000D01*
X157027620Y-57872381D01*
X157122858Y-57872381D01*
X157265715Y-57920000D01*
X157313334Y-57967619D01*
X158170477Y-58205714D02*
X158170477Y-58872381D01*
X157932381Y-57824762D02*
X157694286Y-58539048D01*
X158313334Y-58539048D01*
X170013334Y-58777143D02*
X169965715Y-58824762D01*
X169822858Y-58872381D01*
X169727620Y-58872381D01*
X169584762Y-58824762D01*
X169489524Y-58729524D01*
X169441905Y-58634286D01*
X169394286Y-58443810D01*
X169394286Y-58300952D01*
X169441905Y-58110476D01*
X169489524Y-58015238D01*
X169584762Y-57920000D01*
X169727620Y-57872381D01*
X169822858Y-57872381D01*
X169965715Y-57920000D01*
X170013334Y-57967619D01*
X170918096Y-57872381D02*
X170441905Y-57872381D01*
X170394286Y-58348571D01*
X170441905Y-58300952D01*
X170537143Y-58253333D01*
X170775239Y-58253333D01*
X170870477Y-58300952D01*
X170918096Y-58348571D01*
X170965715Y-58443810D01*
X170965715Y-58681905D01*
X170918096Y-58777143D01*
X170870477Y-58824762D01*
X170775239Y-58872381D01*
X170537143Y-58872381D01*
X170441905Y-58824762D01*
X170394286Y-58777143D01*
X144613334Y-58777143D02*
X144565715Y-58824762D01*
X144422858Y-58872381D01*
X144327620Y-58872381D01*
X144184762Y-58824762D01*
X144089524Y-58729524D01*
X144041905Y-58634286D01*
X143994286Y-58443810D01*
X143994286Y-58300952D01*
X144041905Y-58110476D01*
X144089524Y-58015238D01*
X144184762Y-57920000D01*
X144327620Y-57872381D01*
X144422858Y-57872381D01*
X144565715Y-57920000D01*
X144613334Y-57967619D01*
X145470477Y-57872381D02*
X145280000Y-57872381D01*
X145184762Y-57920000D01*
X145137143Y-57967619D01*
X145041905Y-58110476D01*
X144994286Y-58300952D01*
X144994286Y-58681905D01*
X145041905Y-58777143D01*
X145089524Y-58824762D01*
X145184762Y-58872381D01*
X145375239Y-58872381D01*
X145470477Y-58824762D01*
X145518096Y-58777143D01*
X145565715Y-58681905D01*
X145565715Y-58443810D01*
X145518096Y-58348571D01*
X145470477Y-58300952D01*
X145375239Y-58253333D01*
X145184762Y-58253333D01*
X145089524Y-58300952D01*
X145041905Y-58348571D01*
X144994286Y-58443810D01*
X210653334Y-90527143D02*
X210605715Y-90574762D01*
X210462858Y-90622381D01*
X210367620Y-90622381D01*
X210224762Y-90574762D01*
X210129524Y-90479524D01*
X210081905Y-90384286D01*
X210034286Y-90193810D01*
X210034286Y-90050952D01*
X210081905Y-89860476D01*
X210129524Y-89765238D01*
X210224762Y-89670000D01*
X210367620Y-89622381D01*
X210462858Y-89622381D01*
X210605715Y-89670000D01*
X210653334Y-89717619D01*
X210986667Y-89622381D02*
X211653334Y-89622381D01*
X211224762Y-90622381D01*
X147173334Y-99377143D02*
X147125715Y-99424762D01*
X146982858Y-99472381D01*
X146887620Y-99472381D01*
X146744762Y-99424762D01*
X146649524Y-99329524D01*
X146601905Y-99234286D01*
X146554286Y-99043810D01*
X146554286Y-98900952D01*
X146601905Y-98710476D01*
X146649524Y-98615238D01*
X146744762Y-98520000D01*
X146887620Y-98472381D01*
X146982858Y-98472381D01*
X147125715Y-98520000D01*
X147173334Y-98567619D01*
X147744762Y-98900952D02*
X147649524Y-98853333D01*
X147601905Y-98805714D01*
X147554286Y-98710476D01*
X147554286Y-98662857D01*
X147601905Y-98567619D01*
X147649524Y-98520000D01*
X147744762Y-98472381D01*
X147935239Y-98472381D01*
X148030477Y-98520000D01*
X148078096Y-98567619D01*
X148125715Y-98662857D01*
X148125715Y-98710476D01*
X148078096Y-98805714D01*
X148030477Y-98853333D01*
X147935239Y-98900952D01*
X147744762Y-98900952D01*
X147649524Y-98948571D01*
X147601905Y-98996190D01*
X147554286Y-99091429D01*
X147554286Y-99281905D01*
X147601905Y-99377143D01*
X147649524Y-99424762D01*
X147744762Y-99472381D01*
X147935239Y-99472381D01*
X148030477Y-99424762D01*
X148078096Y-99377143D01*
X148125715Y-99281905D01*
X148125715Y-99091429D01*
X148078096Y-98996190D01*
X148030477Y-98948571D01*
X147935239Y-98900952D01*
X166203334Y-117197143D02*
X166155715Y-117244762D01*
X166012858Y-117292381D01*
X165917620Y-117292381D01*
X165774762Y-117244762D01*
X165679524Y-117149524D01*
X165631905Y-117054286D01*
X165584286Y-116863810D01*
X165584286Y-116720952D01*
X165631905Y-116530476D01*
X165679524Y-116435238D01*
X165774762Y-116340000D01*
X165917620Y-116292381D01*
X166012858Y-116292381D01*
X166155715Y-116340000D01*
X166203334Y-116387619D01*
X166679524Y-117292381D02*
X166870000Y-117292381D01*
X166965239Y-117244762D01*
X167012858Y-117197143D01*
X167108096Y-117054286D01*
X167155715Y-116863810D01*
X167155715Y-116482857D01*
X167108096Y-116387619D01*
X167060477Y-116340000D01*
X166965239Y-116292381D01*
X166774762Y-116292381D01*
X166679524Y-116340000D01*
X166631905Y-116387619D01*
X166584286Y-116482857D01*
X166584286Y-116720952D01*
X166631905Y-116816190D01*
X166679524Y-116863810D01*
X166774762Y-116911429D01*
X166965239Y-116911429D01*
X167060477Y-116863810D01*
X167108096Y-116816190D01*
X167155715Y-116720952D01*
X165727143Y-114657143D02*
X165679524Y-114704762D01*
X165536667Y-114752381D01*
X165441429Y-114752381D01*
X165298571Y-114704762D01*
X165203333Y-114609524D01*
X165155714Y-114514286D01*
X165108095Y-114323810D01*
X165108095Y-114180952D01*
X165155714Y-113990476D01*
X165203333Y-113895238D01*
X165298571Y-113800000D01*
X165441429Y-113752381D01*
X165536667Y-113752381D01*
X165679524Y-113800000D01*
X165727143Y-113847619D01*
X166679524Y-114752381D02*
X166108095Y-114752381D01*
X166393809Y-114752381D02*
X166393809Y-113752381D01*
X166298571Y-113895238D01*
X166203333Y-113990476D01*
X166108095Y-114038095D01*
X167298571Y-113752381D02*
X167393810Y-113752381D01*
X167489048Y-113800000D01*
X167536667Y-113847619D01*
X167584286Y-113942857D01*
X167631905Y-114133333D01*
X167631905Y-114371429D01*
X167584286Y-114561905D01*
X167536667Y-114657143D01*
X167489048Y-114704762D01*
X167393810Y-114752381D01*
X167298571Y-114752381D01*
X167203333Y-114704762D01*
X167155714Y-114657143D01*
X167108095Y-114561905D01*
X167060476Y-114371429D01*
X167060476Y-114133333D01*
X167108095Y-113942857D01*
X167155714Y-113847619D01*
X167203333Y-113800000D01*
X167298571Y-113752381D01*
X121257143Y-98157143D02*
X121209524Y-98204762D01*
X121066667Y-98252381D01*
X120971429Y-98252381D01*
X120828571Y-98204762D01*
X120733333Y-98109524D01*
X120685714Y-98014286D01*
X120638095Y-97823810D01*
X120638095Y-97680952D01*
X120685714Y-97490476D01*
X120733333Y-97395238D01*
X120828571Y-97300000D01*
X120971429Y-97252381D01*
X121066667Y-97252381D01*
X121209524Y-97300000D01*
X121257143Y-97347619D01*
X122209524Y-98252381D02*
X121638095Y-98252381D01*
X121923809Y-98252381D02*
X121923809Y-97252381D01*
X121828571Y-97395238D01*
X121733333Y-97490476D01*
X121638095Y-97538095D01*
X123161905Y-98252381D02*
X122590476Y-98252381D01*
X122876190Y-98252381D02*
X122876190Y-97252381D01*
X122780952Y-97395238D01*
X122685714Y-97490476D01*
X122590476Y-97538095D01*
X165727143Y-119737143D02*
X165679524Y-119784762D01*
X165536667Y-119832381D01*
X165441429Y-119832381D01*
X165298571Y-119784762D01*
X165203333Y-119689524D01*
X165155714Y-119594286D01*
X165108095Y-119403810D01*
X165108095Y-119260952D01*
X165155714Y-119070476D01*
X165203333Y-118975238D01*
X165298571Y-118880000D01*
X165441429Y-118832381D01*
X165536667Y-118832381D01*
X165679524Y-118880000D01*
X165727143Y-118927619D01*
X166679524Y-119832381D02*
X166108095Y-119832381D01*
X166393809Y-119832381D02*
X166393809Y-118832381D01*
X166298571Y-118975238D01*
X166203333Y-119070476D01*
X166108095Y-119118095D01*
X167060476Y-118927619D02*
X167108095Y-118880000D01*
X167203333Y-118832381D01*
X167441429Y-118832381D01*
X167536667Y-118880000D01*
X167584286Y-118927619D01*
X167631905Y-119022857D01*
X167631905Y-119118095D01*
X167584286Y-119260952D01*
X167012857Y-119832381D01*
X167631905Y-119832381D01*
X121257143Y-95647143D02*
X121209524Y-95694762D01*
X121066667Y-95742381D01*
X120971429Y-95742381D01*
X120828571Y-95694762D01*
X120733333Y-95599524D01*
X120685714Y-95504286D01*
X120638095Y-95313810D01*
X120638095Y-95170952D01*
X120685714Y-94980476D01*
X120733333Y-94885238D01*
X120828571Y-94790000D01*
X120971429Y-94742381D01*
X121066667Y-94742381D01*
X121209524Y-94790000D01*
X121257143Y-94837619D01*
X122209524Y-95742381D02*
X121638095Y-95742381D01*
X121923809Y-95742381D02*
X121923809Y-94742381D01*
X121828571Y-94885238D01*
X121733333Y-94980476D01*
X121638095Y-95028095D01*
X122542857Y-94742381D02*
X123161905Y-94742381D01*
X122828571Y-95123333D01*
X122971429Y-95123333D01*
X123066667Y-95170952D01*
X123114286Y-95218571D01*
X123161905Y-95313810D01*
X123161905Y-95551905D01*
X123114286Y-95647143D01*
X123066667Y-95694762D01*
X122971429Y-95742381D01*
X122685714Y-95742381D01*
X122590476Y-95694762D01*
X122542857Y-95647143D01*
X78097143Y-123547143D02*
X78049524Y-123594762D01*
X77906667Y-123642381D01*
X77811429Y-123642381D01*
X77668571Y-123594762D01*
X77573333Y-123499524D01*
X77525714Y-123404286D01*
X77478095Y-123213810D01*
X77478095Y-123070952D01*
X77525714Y-122880476D01*
X77573333Y-122785238D01*
X77668571Y-122690000D01*
X77811429Y-122642381D01*
X77906667Y-122642381D01*
X78049524Y-122690000D01*
X78097143Y-122737619D01*
X79049524Y-123642381D02*
X78478095Y-123642381D01*
X78763809Y-123642381D02*
X78763809Y-122642381D01*
X78668571Y-122785238D01*
X78573333Y-122880476D01*
X78478095Y-122928095D01*
X79906667Y-122975714D02*
X79906667Y-123642381D01*
X79668571Y-122594762D02*
X79430476Y-123309048D01*
X80049524Y-123309048D01*
X81927143Y-68257143D02*
X81879524Y-68304762D01*
X81736667Y-68352381D01*
X81641429Y-68352381D01*
X81498571Y-68304762D01*
X81403333Y-68209524D01*
X81355714Y-68114286D01*
X81308095Y-67923810D01*
X81308095Y-67780952D01*
X81355714Y-67590476D01*
X81403333Y-67495238D01*
X81498571Y-67400000D01*
X81641429Y-67352381D01*
X81736667Y-67352381D01*
X81879524Y-67400000D01*
X81927143Y-67447619D01*
X82879524Y-68352381D02*
X82308095Y-68352381D01*
X82593809Y-68352381D02*
X82593809Y-67352381D01*
X82498571Y-67495238D01*
X82403333Y-67590476D01*
X82308095Y-67638095D01*
X83784286Y-67352381D02*
X83308095Y-67352381D01*
X83260476Y-67828571D01*
X83308095Y-67780952D01*
X83403333Y-67733333D01*
X83641429Y-67733333D01*
X83736667Y-67780952D01*
X83784286Y-67828571D01*
X83831905Y-67923810D01*
X83831905Y-68161905D01*
X83784286Y-68257143D01*
X83736667Y-68304762D01*
X83641429Y-68352381D01*
X83403333Y-68352381D01*
X83308095Y-68304762D01*
X83260476Y-68257143D01*
X78097143Y-131167143D02*
X78049524Y-131214762D01*
X77906667Y-131262381D01*
X77811429Y-131262381D01*
X77668571Y-131214762D01*
X77573333Y-131119524D01*
X77525714Y-131024286D01*
X77478095Y-130833810D01*
X77478095Y-130690952D01*
X77525714Y-130500476D01*
X77573333Y-130405238D01*
X77668571Y-130310000D01*
X77811429Y-130262381D01*
X77906667Y-130262381D01*
X78049524Y-130310000D01*
X78097143Y-130357619D01*
X79049524Y-131262381D02*
X78478095Y-131262381D01*
X78763809Y-131262381D02*
X78763809Y-130262381D01*
X78668571Y-130405238D01*
X78573333Y-130500476D01*
X78478095Y-130548095D01*
X79906667Y-130262381D02*
X79716190Y-130262381D01*
X79620952Y-130310000D01*
X79573333Y-130357619D01*
X79478095Y-130500476D01*
X79430476Y-130690952D01*
X79430476Y-131071905D01*
X79478095Y-131167143D01*
X79525714Y-131214762D01*
X79620952Y-131262381D01*
X79811429Y-131262381D01*
X79906667Y-131214762D01*
X79954286Y-131167143D01*
X80001905Y-131071905D01*
X80001905Y-130833810D01*
X79954286Y-130738571D01*
X79906667Y-130690952D01*
X79811429Y-130643333D01*
X79620952Y-130643333D01*
X79525714Y-130690952D01*
X79478095Y-130738571D01*
X79430476Y-130833810D01*
X102227143Y-79097143D02*
X102179524Y-79144762D01*
X102036667Y-79192381D01*
X101941429Y-79192381D01*
X101798571Y-79144762D01*
X101703333Y-79049524D01*
X101655714Y-78954286D01*
X101608095Y-78763810D01*
X101608095Y-78620952D01*
X101655714Y-78430476D01*
X101703333Y-78335238D01*
X101798571Y-78240000D01*
X101941429Y-78192381D01*
X102036667Y-78192381D01*
X102179524Y-78240000D01*
X102227143Y-78287619D01*
X103179524Y-79192381D02*
X102608095Y-79192381D01*
X102893809Y-79192381D02*
X102893809Y-78192381D01*
X102798571Y-78335238D01*
X102703333Y-78430476D01*
X102608095Y-78478095D01*
X103512857Y-78192381D02*
X104179524Y-78192381D01*
X103750952Y-79192381D01*
X81927143Y-80957143D02*
X81879524Y-81004762D01*
X81736667Y-81052381D01*
X81641429Y-81052381D01*
X81498571Y-81004762D01*
X81403333Y-80909524D01*
X81355714Y-80814286D01*
X81308095Y-80623810D01*
X81308095Y-80480952D01*
X81355714Y-80290476D01*
X81403333Y-80195238D01*
X81498571Y-80100000D01*
X81641429Y-80052381D01*
X81736667Y-80052381D01*
X81879524Y-80100000D01*
X81927143Y-80147619D01*
X82879524Y-81052381D02*
X82308095Y-81052381D01*
X82593809Y-81052381D02*
X82593809Y-80052381D01*
X82498571Y-80195238D01*
X82403333Y-80290476D01*
X82308095Y-80338095D01*
X83450952Y-80480952D02*
X83355714Y-80433333D01*
X83308095Y-80385714D01*
X83260476Y-80290476D01*
X83260476Y-80242857D01*
X83308095Y-80147619D01*
X83355714Y-80100000D01*
X83450952Y-80052381D01*
X83641429Y-80052381D01*
X83736667Y-80100000D01*
X83784286Y-80147619D01*
X83831905Y-80242857D01*
X83831905Y-80290476D01*
X83784286Y-80385714D01*
X83736667Y-80433333D01*
X83641429Y-80480952D01*
X83450952Y-80480952D01*
X83355714Y-80528571D01*
X83308095Y-80576190D01*
X83260476Y-80671429D01*
X83260476Y-80861905D01*
X83308095Y-80957143D01*
X83355714Y-81004762D01*
X83450952Y-81052381D01*
X83641429Y-81052381D01*
X83736667Y-81004762D01*
X83784286Y-80957143D01*
X83831905Y-80861905D01*
X83831905Y-80671429D01*
X83784286Y-80576190D01*
X83736667Y-80528571D01*
X83641429Y-80480952D01*
X107307143Y-80367143D02*
X107259524Y-80414762D01*
X107116667Y-80462381D01*
X107021429Y-80462381D01*
X106878571Y-80414762D01*
X106783333Y-80319524D01*
X106735714Y-80224286D01*
X106688095Y-80033810D01*
X106688095Y-79890952D01*
X106735714Y-79700476D01*
X106783333Y-79605238D01*
X106878571Y-79510000D01*
X107021429Y-79462381D01*
X107116667Y-79462381D01*
X107259524Y-79510000D01*
X107307143Y-79557619D01*
X108259524Y-80462381D02*
X107688095Y-80462381D01*
X107973809Y-80462381D02*
X107973809Y-79462381D01*
X107878571Y-79605238D01*
X107783333Y-79700476D01*
X107688095Y-79748095D01*
X108735714Y-80462381D02*
X108926190Y-80462381D01*
X109021429Y-80414762D01*
X109069048Y-80367143D01*
X109164286Y-80224286D01*
X109211905Y-80033810D01*
X109211905Y-79652857D01*
X109164286Y-79557619D01*
X109116667Y-79510000D01*
X109021429Y-79462381D01*
X108830952Y-79462381D01*
X108735714Y-79510000D01*
X108688095Y-79557619D01*
X108640476Y-79652857D01*
X108640476Y-79890952D01*
X108688095Y-79986190D01*
X108735714Y-80033810D01*
X108830952Y-80081429D01*
X109021429Y-80081429D01*
X109116667Y-80033810D01*
X109164286Y-79986190D01*
X109211905Y-79890952D01*
X81927143Y-93657143D02*
X81879524Y-93704762D01*
X81736667Y-93752381D01*
X81641429Y-93752381D01*
X81498571Y-93704762D01*
X81403333Y-93609524D01*
X81355714Y-93514286D01*
X81308095Y-93323810D01*
X81308095Y-93180952D01*
X81355714Y-92990476D01*
X81403333Y-92895238D01*
X81498571Y-92800000D01*
X81641429Y-92752381D01*
X81736667Y-92752381D01*
X81879524Y-92800000D01*
X81927143Y-92847619D01*
X82308095Y-92847619D02*
X82355714Y-92800000D01*
X82450952Y-92752381D01*
X82689048Y-92752381D01*
X82784286Y-92800000D01*
X82831905Y-92847619D01*
X82879524Y-92942857D01*
X82879524Y-93038095D01*
X82831905Y-93180952D01*
X82260476Y-93752381D01*
X82879524Y-93752381D01*
X83498571Y-92752381D02*
X83593810Y-92752381D01*
X83689048Y-92800000D01*
X83736667Y-92847619D01*
X83784286Y-92942857D01*
X83831905Y-93133333D01*
X83831905Y-93371429D01*
X83784286Y-93561905D01*
X83736667Y-93657143D01*
X83689048Y-93704762D01*
X83593810Y-93752381D01*
X83498571Y-93752381D01*
X83403333Y-93704762D01*
X83355714Y-93657143D01*
X83308095Y-93561905D01*
X83260476Y-93371429D01*
X83260476Y-93133333D01*
X83308095Y-92942857D01*
X83355714Y-92847619D01*
X83403333Y-92800000D01*
X83498571Y-92752381D01*
X82034143Y-106529143D02*
X81986524Y-106576762D01*
X81843667Y-106624381D01*
X81748429Y-106624381D01*
X81605571Y-106576762D01*
X81510333Y-106481524D01*
X81462714Y-106386286D01*
X81415095Y-106195810D01*
X81415095Y-106052952D01*
X81462714Y-105862476D01*
X81510333Y-105767238D01*
X81605571Y-105672000D01*
X81748429Y-105624381D01*
X81843667Y-105624381D01*
X81986524Y-105672000D01*
X82034143Y-105719619D01*
X82415095Y-105719619D02*
X82462714Y-105672000D01*
X82557952Y-105624381D01*
X82796048Y-105624381D01*
X82891286Y-105672000D01*
X82938905Y-105719619D01*
X82986524Y-105814857D01*
X82986524Y-105910095D01*
X82938905Y-106052952D01*
X82367476Y-106624381D01*
X82986524Y-106624381D01*
X83938905Y-106624381D02*
X83367476Y-106624381D01*
X83653190Y-106624381D02*
X83653190Y-105624381D01*
X83557952Y-105767238D01*
X83462714Y-105862476D01*
X83367476Y-105910095D01*
X216642381Y-86558333D02*
X217356667Y-86558333D01*
X217499524Y-86605953D01*
X217594762Y-86701191D01*
X217642381Y-86844048D01*
X217642381Y-86939286D01*
X217642381Y-86082143D02*
X216642381Y-86082143D01*
X216642381Y-85701190D01*
X216690000Y-85605952D01*
X216737619Y-85558333D01*
X216832857Y-85510714D01*
X216975714Y-85510714D01*
X217070952Y-85558333D01*
X217118571Y-85605952D01*
X217166190Y-85701190D01*
X217166190Y-86082143D01*
X217642381Y-84558333D02*
X217642381Y-85129762D01*
X217642381Y-84844048D02*
X216642381Y-84844048D01*
X216785238Y-84939286D01*
X216880476Y-85034524D01*
X216928095Y-85129762D01*
D16*
X56010629Y-64624857D02*
X54486629Y-64624857D01*
X54486629Y-64044285D01*
X54559200Y-63899143D01*
X54631771Y-63826571D01*
X54776914Y-63754000D01*
X54994629Y-63754000D01*
X55139771Y-63826571D01*
X55212343Y-63899143D01*
X55284914Y-64044285D01*
X55284914Y-64624857D01*
X56010629Y-62302571D02*
X56010629Y-63173428D01*
X56010629Y-62738000D02*
X54486629Y-62738000D01*
X54704343Y-62883143D01*
X54849486Y-63028285D01*
X54922057Y-63173428D01*
X79508169Y-64479714D02*
X78782454Y-64987714D01*
X79508169Y-65350571D02*
X77984169Y-65350571D01*
X77984169Y-64769999D01*
X78056740Y-64624857D01*
X78129311Y-64552285D01*
X78274454Y-64479714D01*
X78492169Y-64479714D01*
X78637311Y-64552285D01*
X78709883Y-64624857D01*
X78782454Y-64769999D01*
X78782454Y-65350571D01*
X78709883Y-63826571D02*
X78709883Y-63318571D01*
X79508169Y-63100857D02*
X79508169Y-63826571D01*
X77984169Y-63826571D01*
X77984169Y-63100857D01*
X79508169Y-62447714D02*
X77984169Y-62447714D01*
X77984169Y-62084857D01*
X78056740Y-61867142D01*
X78201883Y-61722000D01*
X78347026Y-61649428D01*
X78637311Y-61576857D01*
X78855026Y-61576857D01*
X79145311Y-61649428D01*
X79290454Y-61722000D01*
X79435597Y-61867142D01*
X79508169Y-62084857D01*
X79508169Y-62447714D01*
X56010629Y-77324857D02*
X54486629Y-77324857D01*
X54486629Y-76744285D01*
X54559200Y-76599143D01*
X54631771Y-76526571D01*
X54776914Y-76454000D01*
X54994629Y-76454000D01*
X55139771Y-76526571D01*
X55212343Y-76599143D01*
X55284914Y-76744285D01*
X55284914Y-77324857D01*
X54631771Y-75873428D02*
X54559200Y-75800857D01*
X54486629Y-75655714D01*
X54486629Y-75292857D01*
X54559200Y-75147714D01*
X54631771Y-75075143D01*
X54776914Y-75002571D01*
X54922057Y-75002571D01*
X55139771Y-75075143D01*
X56010629Y-75946000D01*
X56010629Y-75002571D01*
X78056740Y-78739999D02*
X77984169Y-78885142D01*
X77984169Y-79102856D01*
X78056740Y-79320571D01*
X78201883Y-79465713D01*
X78347026Y-79538285D01*
X78637311Y-79610856D01*
X78855026Y-79610856D01*
X79145311Y-79538285D01*
X79290454Y-79465713D01*
X79435597Y-79320571D01*
X79508169Y-79102856D01*
X79508169Y-78957713D01*
X79435597Y-78739999D01*
X79363026Y-78667428D01*
X78855026Y-78667428D01*
X78855026Y-78957713D01*
X79508169Y-77143428D02*
X78782454Y-77651428D01*
X79508169Y-78014285D02*
X77984169Y-78014285D01*
X77984169Y-77433713D01*
X78056740Y-77288571D01*
X78129311Y-77215999D01*
X78274454Y-77143428D01*
X78492169Y-77143428D01*
X78637311Y-77215999D01*
X78709883Y-77288571D01*
X78782454Y-77433713D01*
X78782454Y-78014285D01*
X78709883Y-76490285D02*
X78709883Y-75982285D01*
X79508169Y-75764571D02*
X79508169Y-76490285D01*
X77984169Y-76490285D01*
X77984169Y-75764571D01*
X78709883Y-75111428D02*
X78709883Y-74603428D01*
X79508169Y-74385714D02*
X79508169Y-75111428D01*
X77984169Y-75111428D01*
X77984169Y-74385714D01*
X79508169Y-73732571D02*
X77984169Y-73732571D01*
X79508169Y-72861714D01*
X77984169Y-72861714D01*
X56010629Y-90024857D02*
X54486629Y-90024857D01*
X54486629Y-89444285D01*
X54559200Y-89299143D01*
X54631771Y-89226571D01*
X54776914Y-89154000D01*
X54994629Y-89154000D01*
X55139771Y-89226571D01*
X55212343Y-89299143D01*
X55284914Y-89444285D01*
X55284914Y-90024857D01*
X54486629Y-88646000D02*
X54486629Y-87702571D01*
X55067200Y-88210571D01*
X55067200Y-87992857D01*
X55139771Y-87847714D01*
X55212343Y-87775143D01*
X55357486Y-87702571D01*
X55720343Y-87702571D01*
X55865486Y-87775143D01*
X55938057Y-87847714D01*
X56010629Y-87992857D01*
X56010629Y-88428285D01*
X55938057Y-88573428D01*
X55865486Y-88646000D01*
X78709883Y-90895714D02*
X78782454Y-90678000D01*
X78855026Y-90605428D01*
X79000169Y-90532857D01*
X79217883Y-90532857D01*
X79363026Y-90605428D01*
X79435597Y-90678000D01*
X79508169Y-90823142D01*
X79508169Y-91403714D01*
X77984169Y-91403714D01*
X77984169Y-90895714D01*
X78056740Y-90750571D01*
X78129311Y-90678000D01*
X78274454Y-90605428D01*
X78419597Y-90605428D01*
X78564740Y-90678000D01*
X78637311Y-90750571D01*
X78709883Y-90895714D01*
X78709883Y-91403714D01*
X79508169Y-89154000D02*
X79508169Y-89879714D01*
X77984169Y-89879714D01*
X77984169Y-88646000D02*
X79217883Y-88646000D01*
X79363026Y-88573428D01*
X79435597Y-88500857D01*
X79508169Y-88355714D01*
X79508169Y-88065428D01*
X79435597Y-87920286D01*
X79363026Y-87847714D01*
X79217883Y-87775143D01*
X77984169Y-87775143D01*
X78709883Y-87049429D02*
X78709883Y-86541429D01*
X79508169Y-86323715D02*
X79508169Y-87049429D01*
X77984169Y-87049429D01*
X77984169Y-86323715D01*
X56010629Y-102724857D02*
X54486629Y-102724857D01*
X54486629Y-102144285D01*
X54559200Y-101999143D01*
X54631771Y-101926571D01*
X54776914Y-101854000D01*
X54994629Y-101854000D01*
X55139771Y-101926571D01*
X55212343Y-101999143D01*
X55284914Y-102144285D01*
X55284914Y-102724857D01*
X54994629Y-100547714D02*
X56010629Y-100547714D01*
X54414057Y-100910571D02*
X55502629Y-101273428D01*
X55502629Y-100330000D01*
X79435597Y-105809142D02*
X79508169Y-105591428D01*
X79508169Y-105228571D01*
X79435597Y-105083428D01*
X79363026Y-105010857D01*
X79217883Y-104938285D01*
X79072740Y-104938285D01*
X78927597Y-105010857D01*
X78855026Y-105083428D01*
X78782454Y-105228571D01*
X78709883Y-105518857D01*
X78637311Y-105663999D01*
X78564740Y-105736571D01*
X78419597Y-105809142D01*
X78274454Y-105809142D01*
X78129311Y-105736571D01*
X78056740Y-105663999D01*
X77984169Y-105518857D01*
X77984169Y-105155999D01*
X78056740Y-104938285D01*
X78782454Y-103994856D02*
X79508169Y-103994856D01*
X77984169Y-104502856D02*
X78782454Y-103994856D01*
X77984169Y-103486856D01*
X79508169Y-102978856D02*
X77984169Y-102978856D01*
X79508169Y-102107999D01*
X77984169Y-102107999D01*
X79363026Y-100511428D02*
X79435597Y-100583999D01*
X79508169Y-100801713D01*
X79508169Y-100946856D01*
X79435597Y-101164571D01*
X79290454Y-101309713D01*
X79145311Y-101382285D01*
X78855026Y-101454856D01*
X78637311Y-101454856D01*
X78347026Y-101382285D01*
X78201883Y-101309713D01*
X78056740Y-101164571D01*
X77984169Y-100946856D01*
X77984169Y-100801713D01*
X78056740Y-100583999D01*
X78129311Y-100511428D01*
X77911597Y-98769713D02*
X79871026Y-100075999D01*
X79363026Y-97390857D02*
X79435597Y-97463428D01*
X79508169Y-97681142D01*
X79508169Y-97826285D01*
X79435597Y-98044000D01*
X79290454Y-98189142D01*
X79145311Y-98261714D01*
X78855026Y-98334285D01*
X78637311Y-98334285D01*
X78347026Y-98261714D01*
X78201883Y-98189142D01*
X78056740Y-98044000D01*
X77984169Y-97826285D01*
X77984169Y-97681142D01*
X78056740Y-97463428D01*
X78129311Y-97390857D01*
D11*
X194922857Y-103784286D02*
X195894286Y-103784286D01*
X196008571Y-103727143D01*
X196065714Y-103670000D01*
X196122857Y-103555714D01*
X196122857Y-103327143D01*
X196065714Y-103212857D01*
X196008571Y-103155714D01*
X195894286Y-103098571D01*
X194922857Y-103098571D01*
X195037143Y-102584286D02*
X194980000Y-102527143D01*
X194922857Y-102412857D01*
X194922857Y-102127143D01*
X194980000Y-102012857D01*
X195037143Y-101955714D01*
X195151429Y-101898571D01*
X195265714Y-101898571D01*
X195437143Y-101955714D01*
X196122857Y-102641428D01*
X196122857Y-101898571D01*
D12*
X179578095Y-87082381D02*
X179578095Y-87891905D01*
X179625714Y-87987143D01*
X179673333Y-88034762D01*
X179768571Y-88082381D01*
X179959048Y-88082381D01*
X180054286Y-88034762D01*
X180101905Y-87987143D01*
X180149524Y-87891905D01*
X180149524Y-87082381D01*
X180530476Y-87082381D02*
X181149524Y-87082381D01*
X180816190Y-87463333D01*
X180959048Y-87463333D01*
X181054286Y-87510952D01*
X181101905Y-87558571D01*
X181149524Y-87653810D01*
X181149524Y-87891905D01*
X181101905Y-87987143D01*
X181054286Y-88034762D01*
X180959048Y-88082381D01*
X180673333Y-88082381D01*
X180578095Y-88034762D01*
X180530476Y-87987143D01*
X154178095Y-87082381D02*
X154178095Y-87891905D01*
X154225714Y-87987143D01*
X154273333Y-88034762D01*
X154368571Y-88082381D01*
X154559048Y-88082381D01*
X154654286Y-88034762D01*
X154701905Y-87987143D01*
X154749524Y-87891905D01*
X154749524Y-87082381D01*
X155654286Y-87415714D02*
X155654286Y-88082381D01*
X155416190Y-87034762D02*
X155178095Y-87749048D01*
X155797143Y-87749048D01*
X166878095Y-87082381D02*
X166878095Y-87891905D01*
X166925714Y-87987143D01*
X166973333Y-88034762D01*
X167068571Y-88082381D01*
X167259048Y-88082381D01*
X167354286Y-88034762D01*
X167401905Y-87987143D01*
X167449524Y-87891905D01*
X167449524Y-87082381D01*
X168401905Y-87082381D02*
X167925714Y-87082381D01*
X167878095Y-87558571D01*
X167925714Y-87510952D01*
X168020952Y-87463333D01*
X168259048Y-87463333D01*
X168354286Y-87510952D01*
X168401905Y-87558571D01*
X168449524Y-87653810D01*
X168449524Y-87891905D01*
X168401905Y-87987143D01*
X168354286Y-88034762D01*
X168259048Y-88082381D01*
X168020952Y-88082381D01*
X167925714Y-88034762D01*
X167878095Y-87987143D01*
X141478095Y-87082381D02*
X141478095Y-87891905D01*
X141525714Y-87987143D01*
X141573333Y-88034762D01*
X141668571Y-88082381D01*
X141859048Y-88082381D01*
X141954286Y-88034762D01*
X142001905Y-87987143D01*
X142049524Y-87891905D01*
X142049524Y-87082381D01*
X142954286Y-87082381D02*
X142763809Y-87082381D01*
X142668571Y-87130000D01*
X142620952Y-87177619D01*
X142525714Y-87320476D01*
X142478095Y-87510952D01*
X142478095Y-87891905D01*
X142525714Y-87987143D01*
X142573333Y-88034762D01*
X142668571Y-88082381D01*
X142859048Y-88082381D01*
X142954286Y-88034762D01*
X143001905Y-87987143D01*
X143049524Y-87891905D01*
X143049524Y-87653810D01*
X143001905Y-87558571D01*
X142954286Y-87510952D01*
X142859048Y-87463333D01*
X142668571Y-87463333D01*
X142573333Y-87510952D01*
X142525714Y-87558571D01*
X142478095Y-87653810D01*
X102412381Y-92201905D02*
X103221905Y-92201905D01*
X103317143Y-92154286D01*
X103364762Y-92106667D01*
X103412381Y-92011429D01*
X103412381Y-91820952D01*
X103364762Y-91725714D01*
X103317143Y-91678095D01*
X103221905Y-91630476D01*
X102412381Y-91630476D01*
X102412381Y-91249524D02*
X102412381Y-90582857D01*
X103412381Y-91011429D01*
X110696476Y-107656381D02*
X111363143Y-108656381D01*
X111363143Y-107656381D02*
X110696476Y-108656381D01*
X112267905Y-108656381D02*
X111696476Y-108656381D01*
X111982190Y-108656381D02*
X111982190Y-107656381D01*
X111886952Y-107799238D01*
X111791714Y-107894476D01*
X111696476Y-107942095D01*
D17*
X76919667Y-129878666D02*
X77004333Y-129624666D01*
X77004333Y-129201333D01*
X76919667Y-129032000D01*
X76835000Y-128947333D01*
X76665667Y-128862666D01*
X76496333Y-128862666D01*
X76327000Y-128947333D01*
X76242333Y-129032000D01*
X76157667Y-129201333D01*
X76073000Y-129540000D01*
X75988333Y-129709333D01*
X75903667Y-129794000D01*
X75734333Y-129878666D01*
X75565000Y-129878666D01*
X75395667Y-129794000D01*
X75311000Y-129709333D01*
X75226333Y-129540000D01*
X75226333Y-129116666D01*
X75311000Y-128862666D01*
X76327000Y-128100667D02*
X76327000Y-126746000D01*
X75226333Y-126153334D02*
X77004333Y-125560667D01*
X75226333Y-124968000D01*
X77004333Y-124375334D02*
X75226333Y-124375334D01*
X77004333Y-123528667D02*
X75226333Y-123528667D01*
X75226333Y-123105333D01*
X75311000Y-122851333D01*
X75480333Y-122682000D01*
X75649667Y-122597333D01*
X75988333Y-122512667D01*
X76242333Y-122512667D01*
X76581000Y-122597333D01*
X76750333Y-122682000D01*
X76919667Y-122851333D01*
X77004333Y-123105333D01*
X77004333Y-123528667D01*
X76073000Y-121750667D02*
X76073000Y-121158000D01*
X77004333Y-120904000D02*
X77004333Y-121750667D01*
X75226333Y-121750667D01*
X75226333Y-120904000D01*
X75226333Y-119803333D02*
X75226333Y-119464666D01*
X75311000Y-119295333D01*
X75480333Y-119126000D01*
X75819000Y-119041333D01*
X76411667Y-119041333D01*
X76750333Y-119126000D01*
X76919667Y-119295333D01*
X77004333Y-119464666D01*
X77004333Y-119803333D01*
X76919667Y-119972666D01*
X76750333Y-120142000D01*
X76411667Y-120226666D01*
X75819000Y-120226666D01*
X75480333Y-120142000D01*
X75311000Y-119972666D01*
X75226333Y-119803333D01*
D12*
X128246190Y-99536191D02*
X128722381Y-99536191D01*
X127722381Y-99869524D02*
X128246190Y-99536191D01*
X127722381Y-99202857D01*
X128722381Y-98345714D02*
X128722381Y-98917143D01*
X128722381Y-98631429D02*
X127722381Y-98631429D01*
X127865238Y-98726667D01*
X127960476Y-98821905D01*
X128008095Y-98917143D01*
X128222857Y-92257619D02*
X128270476Y-92210000D01*
X128365714Y-92162381D01*
X128603810Y-92162381D01*
X128699048Y-92210000D01*
X128746667Y-92257619D01*
X128794286Y-92352857D01*
X128794286Y-92448095D01*
X128746667Y-92590952D01*
X128175238Y-93162381D01*
X128794286Y-93162381D01*
X129746667Y-93162381D02*
X129175238Y-93162381D01*
X129460952Y-93162381D02*
X129460952Y-92162381D01*
X129365714Y-92305238D01*
X129270476Y-92400476D01*
X129175238Y-92448095D01*
X130222857Y-93114762D02*
X130222857Y-93162381D01*
X130175238Y-93257619D01*
X130127619Y-93305238D01*
X131080000Y-92495714D02*
X131080000Y-93162381D01*
X130841904Y-92114762D02*
X130603809Y-92829048D01*
X131222857Y-92829048D01*
X132032381Y-92495714D02*
X132032381Y-93162381D01*
X131794285Y-92114762D02*
X131556190Y-92829048D01*
X132175238Y-92829048D01*
X132460952Y-92162381D02*
X133080000Y-92162381D01*
X132746666Y-92543333D01*
X132889524Y-92543333D01*
X132984762Y-92590952D01*
X133032381Y-92638571D01*
X133080000Y-92733810D01*
X133080000Y-92971905D01*
X133032381Y-93067143D01*
X132984762Y-93114762D01*
X132889524Y-93162381D01*
X132603809Y-93162381D01*
X132508571Y-93114762D01*
X132460952Y-93067143D01*
X133508571Y-93162381D02*
X133508571Y-92162381D01*
X133841905Y-92876667D01*
X134175238Y-92162381D01*
X134175238Y-93162381D01*
X134651428Y-93162381D02*
X134651428Y-92162381D01*
X135080000Y-93162381D02*
X135080000Y-92638571D01*
X135032381Y-92543333D01*
X134937143Y-92495714D01*
X134794285Y-92495714D01*
X134699047Y-92543333D01*
X134651428Y-92590952D01*
X135460952Y-92495714D02*
X135984762Y-92495714D01*
X135460952Y-93162381D01*
X135984762Y-93162381D01*
X174442381Y-124626666D02*
X173966190Y-124960000D01*
X174442381Y-125198095D02*
X173442381Y-125198095D01*
X173442381Y-124817142D01*
X173490000Y-124721904D01*
X173537619Y-124674285D01*
X173632857Y-124626666D01*
X173775714Y-124626666D01*
X173870952Y-124674285D01*
X173918571Y-124721904D01*
X173966190Y-124817142D01*
X173966190Y-125198095D01*
X174442381Y-123674285D02*
X174442381Y-124245714D01*
X174442381Y-123960000D02*
X173442381Y-123960000D01*
X173585238Y-124055238D01*
X173680476Y-124150476D01*
X173728095Y-124245714D01*
X176982381Y-124626666D02*
X176506190Y-124960000D01*
X176982381Y-125198095D02*
X175982381Y-125198095D01*
X175982381Y-124817142D01*
X176030000Y-124721904D01*
X176077619Y-124674285D01*
X176172857Y-124626666D01*
X176315714Y-124626666D01*
X176410952Y-124674285D01*
X176458571Y-124721904D01*
X176506190Y-124817142D01*
X176506190Y-125198095D01*
X176077619Y-124245714D02*
X176030000Y-124198095D01*
X175982381Y-124102857D01*
X175982381Y-123864761D01*
X176030000Y-123769523D01*
X176077619Y-123721904D01*
X176172857Y-123674285D01*
X176268095Y-123674285D01*
X176410952Y-123721904D01*
X176982381Y-124293333D01*
X176982381Y-123674285D01*
X179522381Y-124626666D02*
X179046190Y-124960000D01*
X179522381Y-125198095D02*
X178522381Y-125198095D01*
X178522381Y-124817142D01*
X178570000Y-124721904D01*
X178617619Y-124674285D01*
X178712857Y-124626666D01*
X178855714Y-124626666D01*
X178950952Y-124674285D01*
X178998571Y-124721904D01*
X179046190Y-124817142D01*
X179046190Y-125198095D01*
X178522381Y-124293333D02*
X178522381Y-123674285D01*
X178903333Y-124007619D01*
X178903333Y-123864761D01*
X178950952Y-123769523D01*
X178998571Y-123721904D01*
X179093810Y-123674285D01*
X179331905Y-123674285D01*
X179427143Y-123721904D01*
X179474762Y-123769523D01*
X179522381Y-123864761D01*
X179522381Y-124150476D01*
X179474762Y-124245714D01*
X179427143Y-124293333D01*
X113482381Y-103036666D02*
X113006190Y-103370000D01*
X113482381Y-103608095D02*
X112482381Y-103608095D01*
X112482381Y-103227142D01*
X112530000Y-103131904D01*
X112577619Y-103084285D01*
X112672857Y-103036666D01*
X112815714Y-103036666D01*
X112910952Y-103084285D01*
X112958571Y-103131904D01*
X113006190Y-103227142D01*
X113006190Y-103608095D01*
X112815714Y-102179523D02*
X113482381Y-102179523D01*
X112434762Y-102417619D02*
X113149048Y-102655714D01*
X113149048Y-102036666D01*
X140803334Y-117292381D02*
X140470000Y-116816190D01*
X140231905Y-117292381D02*
X140231905Y-116292381D01*
X140612858Y-116292381D01*
X140708096Y-116340000D01*
X140755715Y-116387619D01*
X140803334Y-116482857D01*
X140803334Y-116625714D01*
X140755715Y-116720952D01*
X140708096Y-116768571D01*
X140612858Y-116816190D01*
X140231905Y-116816190D01*
X141708096Y-116292381D02*
X141231905Y-116292381D01*
X141184286Y-116768571D01*
X141231905Y-116720952D01*
X141327143Y-116673333D01*
X141565239Y-116673333D01*
X141660477Y-116720952D01*
X141708096Y-116768571D01*
X141755715Y-116863810D01*
X141755715Y-117101905D01*
X141708096Y-117197143D01*
X141660477Y-117244762D01*
X141565239Y-117292381D01*
X141327143Y-117292381D01*
X141231905Y-117244762D01*
X141184286Y-117197143D01*
X139565238Y-113720619D02*
X139612857Y-113673000D01*
X139708095Y-113625381D01*
X139946191Y-113625381D01*
X140041429Y-113673000D01*
X140089048Y-113720619D01*
X140136667Y-113815857D01*
X140136667Y-113911095D01*
X140089048Y-114053952D01*
X139517619Y-114625381D01*
X140136667Y-114625381D01*
X140565238Y-114530143D02*
X140612857Y-114577762D01*
X140565238Y-114625381D01*
X140517619Y-114577762D01*
X140565238Y-114530143D01*
X140565238Y-114625381D01*
X140993809Y-113720619D02*
X141041428Y-113673000D01*
X141136666Y-113625381D01*
X141374762Y-113625381D01*
X141470000Y-113673000D01*
X141517619Y-113720619D01*
X141565238Y-113815857D01*
X141565238Y-113911095D01*
X141517619Y-114053952D01*
X140946190Y-114625381D01*
X141565238Y-114625381D01*
X141993809Y-114625381D02*
X141993809Y-113625381D01*
X142089047Y-114244429D02*
X142374762Y-114625381D01*
X142374762Y-113958714D02*
X141993809Y-114339667D01*
X97623334Y-84272381D02*
X97290000Y-83796190D01*
X97051905Y-84272381D02*
X97051905Y-83272381D01*
X97432858Y-83272381D01*
X97528096Y-83320000D01*
X97575715Y-83367619D01*
X97623334Y-83462857D01*
X97623334Y-83605714D01*
X97575715Y-83700952D01*
X97528096Y-83748571D01*
X97432858Y-83796190D01*
X97051905Y-83796190D01*
X98480477Y-83272381D02*
X98290000Y-83272381D01*
X98194762Y-83320000D01*
X98147143Y-83367619D01*
X98051905Y-83510476D01*
X98004286Y-83700952D01*
X98004286Y-84081905D01*
X98051905Y-84177143D01*
X98099524Y-84224762D01*
X98194762Y-84272381D01*
X98385239Y-84272381D01*
X98480477Y-84224762D01*
X98528096Y-84177143D01*
X98575715Y-84081905D01*
X98575715Y-83843810D01*
X98528096Y-83748571D01*
X98480477Y-83700952D01*
X98385239Y-83653333D01*
X98194762Y-83653333D01*
X98099524Y-83700952D01*
X98051905Y-83748571D01*
X98004286Y-83843810D01*
X97623334Y-86812381D02*
X97290000Y-86336190D01*
X97051905Y-86812381D02*
X97051905Y-85812381D01*
X97432858Y-85812381D01*
X97528096Y-85860000D01*
X97575715Y-85907619D01*
X97623334Y-86002857D01*
X97623334Y-86145714D01*
X97575715Y-86240952D01*
X97528096Y-86288571D01*
X97432858Y-86336190D01*
X97051905Y-86336190D01*
X97956667Y-85812381D02*
X98623334Y-85812381D01*
X98194762Y-86812381D01*
X97623334Y-89352381D02*
X97290000Y-88876190D01*
X97051905Y-89352381D02*
X97051905Y-88352381D01*
X97432858Y-88352381D01*
X97528096Y-88400000D01*
X97575715Y-88447619D01*
X97623334Y-88542857D01*
X97623334Y-88685714D01*
X97575715Y-88780952D01*
X97528096Y-88828571D01*
X97432858Y-88876190D01*
X97051905Y-88876190D01*
X98194762Y-88780952D02*
X98099524Y-88733333D01*
X98051905Y-88685714D01*
X98004286Y-88590476D01*
X98004286Y-88542857D01*
X98051905Y-88447619D01*
X98099524Y-88400000D01*
X98194762Y-88352381D01*
X98385239Y-88352381D01*
X98480477Y-88400000D01*
X98528096Y-88447619D01*
X98575715Y-88542857D01*
X98575715Y-88590476D01*
X98528096Y-88685714D01*
X98480477Y-88733333D01*
X98385239Y-88780952D01*
X98194762Y-88780952D01*
X98099524Y-88828571D01*
X98051905Y-88876190D01*
X98004286Y-88971429D01*
X98004286Y-89161905D01*
X98051905Y-89257143D01*
X98099524Y-89304762D01*
X98194762Y-89352381D01*
X98385239Y-89352381D01*
X98480477Y-89304762D01*
X98528096Y-89257143D01*
X98575715Y-89161905D01*
X98575715Y-88971429D01*
X98528096Y-88876190D01*
X98480477Y-88828571D01*
X98385239Y-88780952D01*
X97623334Y-91892381D02*
X97290000Y-91416190D01*
X97051905Y-91892381D02*
X97051905Y-90892381D01*
X97432858Y-90892381D01*
X97528096Y-90940000D01*
X97575715Y-90987619D01*
X97623334Y-91082857D01*
X97623334Y-91225714D01*
X97575715Y-91320952D01*
X97528096Y-91368571D01*
X97432858Y-91416190D01*
X97051905Y-91416190D01*
X98099524Y-91892381D02*
X98290000Y-91892381D01*
X98385239Y-91844762D01*
X98432858Y-91797143D01*
X98528096Y-91654286D01*
X98575715Y-91463810D01*
X98575715Y-91082857D01*
X98528096Y-90987619D01*
X98480477Y-90940000D01*
X98385239Y-90892381D01*
X98194762Y-90892381D01*
X98099524Y-90940000D01*
X98051905Y-90987619D01*
X98004286Y-91082857D01*
X98004286Y-91320952D01*
X98051905Y-91416190D01*
X98099524Y-91463810D01*
X98194762Y-91511429D01*
X98385239Y-91511429D01*
X98480477Y-91463810D01*
X98528096Y-91416190D01*
X98575715Y-91320952D01*
X124912381Y-92082857D02*
X124436190Y-92416191D01*
X124912381Y-92654286D02*
X123912381Y-92654286D01*
X123912381Y-92273333D01*
X123960000Y-92178095D01*
X124007619Y-92130476D01*
X124102857Y-92082857D01*
X124245714Y-92082857D01*
X124340952Y-92130476D01*
X124388571Y-92178095D01*
X124436190Y-92273333D01*
X124436190Y-92654286D01*
X124912381Y-91130476D02*
X124912381Y-91701905D01*
X124912381Y-91416191D02*
X123912381Y-91416191D01*
X124055238Y-91511429D01*
X124150476Y-91606667D01*
X124198095Y-91701905D01*
X123912381Y-90511429D02*
X123912381Y-90416190D01*
X123960000Y-90320952D01*
X124007619Y-90273333D01*
X124102857Y-90225714D01*
X124293333Y-90178095D01*
X124531429Y-90178095D01*
X124721905Y-90225714D01*
X124817143Y-90273333D01*
X124864762Y-90320952D01*
X124912381Y-90416190D01*
X124912381Y-90511429D01*
X124864762Y-90606667D01*
X124817143Y-90654286D01*
X124721905Y-90701905D01*
X124531429Y-90749524D01*
X124293333Y-90749524D01*
X124102857Y-90701905D01*
X124007619Y-90654286D01*
X123960000Y-90606667D01*
X123912381Y-90511429D01*
X97147143Y-96972381D02*
X96813809Y-96496190D01*
X96575714Y-96972381D02*
X96575714Y-95972381D01*
X96956667Y-95972381D01*
X97051905Y-96020000D01*
X97099524Y-96067619D01*
X97147143Y-96162857D01*
X97147143Y-96305714D01*
X97099524Y-96400952D01*
X97051905Y-96448571D01*
X96956667Y-96496190D01*
X96575714Y-96496190D01*
X98099524Y-96972381D02*
X97528095Y-96972381D01*
X97813809Y-96972381D02*
X97813809Y-95972381D01*
X97718571Y-96115238D01*
X97623333Y-96210476D01*
X97528095Y-96258095D01*
X99051905Y-96972381D02*
X98480476Y-96972381D01*
X98766190Y-96972381D02*
X98766190Y-95972381D01*
X98670952Y-96115238D01*
X98575714Y-96210476D01*
X98480476Y-96258095D01*
X97147143Y-99512381D02*
X96813809Y-99036190D01*
X96575714Y-99512381D02*
X96575714Y-98512381D01*
X96956667Y-98512381D01*
X97051905Y-98560000D01*
X97099524Y-98607619D01*
X97147143Y-98702857D01*
X97147143Y-98845714D01*
X97099524Y-98940952D01*
X97051905Y-98988571D01*
X96956667Y-99036190D01*
X96575714Y-99036190D01*
X98099524Y-99512381D02*
X97528095Y-99512381D01*
X97813809Y-99512381D02*
X97813809Y-98512381D01*
X97718571Y-98655238D01*
X97623333Y-98750476D01*
X97528095Y-98798095D01*
X98480476Y-98607619D02*
X98528095Y-98560000D01*
X98623333Y-98512381D01*
X98861429Y-98512381D01*
X98956667Y-98560000D01*
X99004286Y-98607619D01*
X99051905Y-98702857D01*
X99051905Y-98798095D01*
X99004286Y-98940952D01*
X98432857Y-99512381D01*
X99051905Y-99512381D01*
X97147143Y-94432381D02*
X96813809Y-93956190D01*
X96575714Y-94432381D02*
X96575714Y-93432381D01*
X96956667Y-93432381D01*
X97051905Y-93480000D01*
X97099524Y-93527619D01*
X97147143Y-93622857D01*
X97147143Y-93765714D01*
X97099524Y-93860952D01*
X97051905Y-93908571D01*
X96956667Y-93956190D01*
X96575714Y-93956190D01*
X98099524Y-94432381D02*
X97528095Y-94432381D01*
X97813809Y-94432381D02*
X97813809Y-93432381D01*
X97718571Y-93575238D01*
X97623333Y-93670476D01*
X97528095Y-93718095D01*
X98432857Y-93432381D02*
X99051905Y-93432381D01*
X98718571Y-93813333D01*
X98861429Y-93813333D01*
X98956667Y-93860952D01*
X99004286Y-93908571D01*
X99051905Y-94003810D01*
X99051905Y-94241905D01*
X99004286Y-94337143D01*
X98956667Y-94384762D01*
X98861429Y-94432381D01*
X98575714Y-94432381D01*
X98480476Y-94384762D01*
X98432857Y-94337143D01*
X202438095Y-115022381D02*
X202438095Y-115831905D01*
X202485714Y-115927143D01*
X202533333Y-115974762D01*
X202628571Y-116022381D01*
X202819048Y-116022381D01*
X202914286Y-115974762D01*
X202961905Y-115927143D01*
X203009524Y-115831905D01*
X203009524Y-115022381D01*
X204009524Y-116022381D02*
X203438095Y-116022381D01*
X203723809Y-116022381D02*
X203723809Y-115022381D01*
X203628571Y-115165238D01*
X203533333Y-115260476D01*
X203438095Y-115308095D01*
X204176381Y-107147857D02*
X204176381Y-106481190D01*
X205176381Y-106909762D01*
X204509714Y-105671666D02*
X205176381Y-105671666D01*
X204128762Y-105909762D02*
X204843048Y-106147857D01*
X204843048Y-105528809D01*
X205176381Y-105147857D02*
X204176381Y-105147857D01*
X204652571Y-105147857D02*
X204652571Y-104576428D01*
X205176381Y-104576428D02*
X204176381Y-104576428D01*
X205081143Y-103528809D02*
X205128762Y-103576428D01*
X205176381Y-103719285D01*
X205176381Y-103814523D01*
X205128762Y-103957381D01*
X205033524Y-104052619D01*
X204938286Y-104100238D01*
X204747810Y-104147857D01*
X204604952Y-104147857D01*
X204414476Y-104100238D01*
X204319238Y-104052619D01*
X204224000Y-103957381D01*
X204176381Y-103814523D01*
X204176381Y-103719285D01*
X204224000Y-103576428D01*
X204271619Y-103528809D01*
X204176381Y-103243095D02*
X204176381Y-102671666D01*
X205176381Y-102957381D02*
X204176381Y-102957381D01*
X205176381Y-101814523D02*
X205176381Y-102385952D01*
X205176381Y-102100238D02*
X204176381Y-102100238D01*
X204319238Y-102195476D01*
X204414476Y-102290714D01*
X204462095Y-102385952D01*
X204176381Y-101481190D02*
X204176381Y-100862142D01*
X204557333Y-101195476D01*
X204557333Y-101052618D01*
X204604952Y-100957380D01*
X204652571Y-100909761D01*
X204747810Y-100862142D01*
X204985905Y-100862142D01*
X205081143Y-100909761D01*
X205128762Y-100957380D01*
X205176381Y-101052618D01*
X205176381Y-101338333D01*
X205128762Y-101433571D01*
X205081143Y-101481190D01*
X205176381Y-100385952D02*
X205176381Y-100195476D01*
X205128762Y-100100237D01*
X205081143Y-100052618D01*
X204938286Y-99957380D01*
X204747810Y-99909761D01*
X204366857Y-99909761D01*
X204271619Y-99957380D01*
X204224000Y-100004999D01*
X204176381Y-100100237D01*
X204176381Y-100290714D01*
X204224000Y-100385952D01*
X204271619Y-100433571D01*
X204366857Y-100481190D01*
X204604952Y-100481190D01*
X204700190Y-100433571D01*
X204747810Y-100385952D01*
X204795429Y-100290714D01*
X204795429Y-100100237D01*
X204747810Y-100004999D01*
X204700190Y-99957380D01*
X204604952Y-99909761D01*
M02*
