M48
;DRILL file {KiCad 4.0.7-e2-6376~61~ubuntu18.04.1} date Wed Dec  5 23:40:58 2018
;FORMAT={-:-/ absolute / metric / decimal}
FMAT,2
METRIC,TZ
T1C0.635
T2C0.700
T3C0.800
T4C0.813
T5C0.899
T6C1.000
T7C1.016
T8C1.200
T9C1.800
T10C1.900
T11C2.299
T12C3.000
%
G90
G05
M71
T1
X104.885Y-108.585
X110.998Y-108.585
X111.015Y-100.965
X145.224Y-81.28
X145.859Y-68.58
X147.193Y-55.88
X153.67Y-76.2
X157.568Y-81.216
X159.258Y-83.445
X159.893Y-69.215
X163.551Y-89.275
X163.726Y-69.152
X163.778Y-70.803
X166.243Y-71.12
X167.164Y-87.979
X167.513Y-77.089
X168.783Y-81.216
X170.002Y-76.01
X170.106Y-83.726
X170.307Y-80.327
X170.79Y-60.96
X170.815Y-50.165
X170.879Y-73.66
X171.45Y-86.36
X172.72Y-82.042
X177.8Y-81.28
X180.213Y-76.575
X180.34Y-68.453
X181.483Y-82.55
X184.023Y-85.165
X186.551Y-69.33
X186.563Y-84.201
X189.23Y-69.85
X190.373Y-68.58
X192.913Y-71.12
X192.913Y-76.708
X195.58Y-118.11
X195.58Y-128.27
X195.809Y-75.516
X198.12Y-127.
X203.297Y-119.644
X205.74Y-120.65
X207.01Y-94.107
X207.01Y-96.52
X207.01Y-99.06
X207.01Y-101.727
X207.018Y-97.693
X207.022Y-95.262
X208.28Y-100.33
T2
X140.05Y-90.78
X140.05Y-109.88
X141.83Y-90.78
X141.83Y-109.88
X143.61Y-90.78
X143.61Y-109.88
X145.39Y-90.78
X145.39Y-109.88
X147.17Y-90.78
X147.17Y-109.88
X148.95Y-90.78
X148.95Y-109.88
X150.73Y-90.78
X150.73Y-109.88
X152.51Y-90.78
X152.51Y-109.88
X154.29Y-90.78
X154.29Y-109.88
X156.07Y-90.78
X156.07Y-109.88
X157.85Y-90.78
X157.85Y-109.88
X159.63Y-90.78
X159.63Y-109.88
X161.41Y-90.78
X161.41Y-109.88
X163.19Y-90.78
X163.19Y-109.88
X164.97Y-90.78
X164.97Y-109.88
X166.75Y-90.78
X166.75Y-109.88
X168.53Y-90.78
X168.53Y-109.88
X170.31Y-90.78
X170.31Y-109.88
X172.09Y-90.78
X172.09Y-109.88
X173.87Y-90.78
X173.87Y-109.88
X175.65Y-90.78
X175.65Y-109.88
X177.43Y-90.78
X177.43Y-109.88
X179.21Y-90.78
X179.21Y-109.88
X180.99Y-90.78
X180.99Y-109.88
X182.77Y-90.78
X182.77Y-109.88
X184.55Y-90.78
X184.55Y-109.88
X186.33Y-90.78
X186.33Y-109.88
X188.11Y-90.78
X188.11Y-109.88
X189.89Y-90.78
X189.89Y-109.88
X191.67Y-90.78
X191.67Y-109.88
X193.45Y-90.78
X193.45Y-109.88
X195.23Y-90.78
X195.23Y-109.88
T3
X86.36Y-87.63
X86.4Y-71.12
X86.4Y-78.74
X86.4Y-95.25
X86.4Y-102.87
X86.4Y-110.49
X86.4Y-127.
X88.86Y-87.63
X88.9Y-71.12
X88.9Y-78.74
X88.9Y-95.25
X88.9Y-102.87
X88.9Y-110.49
X88.9Y-127.
X98.806Y-124.714
X98.806Y-132.334
X101.346Y-124.714
X101.346Y-132.334
X102.87Y-111.76
X103.886Y-119.38
X103.886Y-121.88
X103.886Y-124.714
X103.886Y-132.334
X105.37Y-111.76
X106.426Y-124.714
X106.426Y-132.334
X106.68Y-137.16
X106.68Y-139.66
X107.95Y-88.9
X108.966Y-124.714
X108.966Y-132.334
X110.45Y-88.9
X111.506Y-119.42
X111.506Y-121.92
X111.506Y-124.714
X111.506Y-132.334
X113.03Y-91.44
X113.03Y-113.03
X114.046Y-124.714
X114.046Y-132.334
X115.53Y-91.44
X115.53Y-113.03
X116.84Y-127.04
X116.84Y-129.54
X122.428Y-124.714
X122.428Y-132.334
X124.968Y-124.714
X124.968Y-132.334
X127.508Y-124.714
X127.508Y-132.334
X130.048Y-124.714
X130.048Y-132.334
X133.35Y-92.075
X133.35Y-107.315
X134.62Y-97.355
X134.62Y-102.235
X134.66Y-124.46
X135.85Y-92.075
X135.85Y-107.315
X137.16Y-124.46
X139.319Y-124.46
X139.319Y-132.08
X141.859Y-124.46
X141.859Y-132.08
X142.28Y-104.14
X144.399Y-124.46
X144.399Y-132.08
X144.78Y-104.14
X146.939Y-124.46
X146.939Y-132.08
X148.463Y-53.34
X148.463Y-60.96
X148.463Y-66.04
X148.463Y-73.66
X148.463Y-78.74
X148.463Y-86.36
X149.479Y-124.46
X149.479Y-132.08
X151.003Y-53.34
X151.003Y-60.96
X151.003Y-66.04
X151.003Y-73.66
X151.003Y-78.74
X151.003Y-86.36
X152.019Y-124.46
X152.019Y-132.08
X153.543Y-53.34
X153.543Y-60.96
X153.543Y-66.04
X153.543Y-73.66
X153.543Y-78.74
X153.543Y-86.36
X154.559Y-124.46
X154.559Y-132.08
X156.083Y-53.34
X156.083Y-60.96
X156.083Y-66.04
X156.083Y-73.66
X156.083Y-78.74
X156.083Y-86.36
X157.099Y-124.46
X157.099Y-132.08
X158.623Y-53.34
X158.623Y-60.96
X158.623Y-66.04
X158.623Y-73.66
X158.623Y-78.74
X158.623Y-86.36
X161.163Y-53.34
X161.163Y-60.96
X161.163Y-66.04
X161.163Y-73.66
X161.163Y-78.74
X161.163Y-86.36
X162.6Y-139.7
X163.703Y-53.34
X163.703Y-60.96
X163.703Y-66.04
X163.703Y-73.66
X163.703Y-78.74
X163.703Y-86.36
X165.1Y-139.7
X166.243Y-53.34
X166.243Y-60.96
X166.243Y-66.04
X166.243Y-73.66
X166.243Y-78.74
X166.243Y-86.36
X167.259Y-124.46
X167.259Y-139.7
X168.783Y-53.34
X168.783Y-60.96
X168.783Y-66.04
X168.783Y-73.66
X168.783Y-78.74
X168.783Y-86.36
X169.799Y-124.46
X169.799Y-139.7
X171.45Y-118.11
X171.49Y-88.265
X171.49Y-113.03
X171.49Y-115.57
X172.339Y-124.46
X172.339Y-139.7
X172.72Y-58.46
X172.72Y-60.96
X172.72Y-72.43
X172.72Y-74.93
X173.95Y-118.11
X173.99Y-88.265
X173.99Y-113.03
X173.99Y-115.57
X174.879Y-124.46
X174.879Y-139.7
X175.133Y-53.34
X175.133Y-60.96
X175.133Y-66.04
X175.133Y-73.66
X175.133Y-78.74
X175.133Y-86.36
X177.419Y-124.46
X177.419Y-139.7
X177.673Y-53.34
X177.673Y-60.96
X177.673Y-66.04
X177.673Y-73.66
X177.673Y-78.74
X177.673Y-86.36
X179.959Y-124.46
X179.959Y-139.7
X180.213Y-53.34
X180.213Y-60.96
X180.213Y-66.04
X180.213Y-73.66
X180.213Y-78.74
X180.213Y-86.36
X182.499Y-124.46
X182.499Y-139.7
X182.753Y-53.34
X182.753Y-60.96
X182.753Y-66.04
X182.753Y-73.66
X182.753Y-78.74
X182.753Y-86.36
X185.039Y-124.46
X185.039Y-139.7
X185.293Y-53.34
X185.293Y-60.96
X185.293Y-66.04
X185.293Y-73.66
X185.293Y-78.74
X185.293Y-86.36
X187.579Y-124.46
X187.579Y-139.7
X187.833Y-53.34
X187.833Y-60.96
X187.833Y-66.04
X187.833Y-73.66
X187.833Y-78.74
X187.833Y-86.36
X190.119Y-124.46
X190.119Y-139.7
X190.373Y-53.34
X190.373Y-60.96
X190.373Y-66.04
X190.373Y-73.66
X190.373Y-78.74
X190.373Y-86.36
X192.659Y-124.46
X192.659Y-139.7
X192.913Y-53.34
X192.913Y-60.96
X192.913Y-66.04
X192.913Y-73.66
X192.913Y-78.74
X192.913Y-86.36
X195.199Y-124.46
X195.199Y-139.7
X195.453Y-53.34
X195.453Y-60.96
X195.453Y-66.04
X195.453Y-73.66
X195.453Y-78.74
X195.453Y-86.36
X198.12Y-61.
X198.12Y-63.5
X198.12Y-72.43
X198.12Y-74.93
X198.12Y-82.59
X198.12Y-85.09
X209.55Y-120.65
X209.55Y-123.15
T4
X92.71Y-87.63
X92.71Y-90.17
X92.71Y-99.06
X92.71Y-101.6
X92.71Y-104.14
X92.71Y-106.68
X92.71Y-109.22
X92.71Y-111.76
X98.806Y-114.3
X98.806Y-121.92
X98.806Y-134.874
X98.806Y-142.494
X100.33Y-87.63
X100.33Y-90.17
X100.33Y-99.06
X100.33Y-101.6
X100.33Y-104.14
X100.33Y-106.68
X100.33Y-109.22
X100.33Y-111.76
X101.346Y-114.3
X101.346Y-121.92
X106.426Y-114.3
X106.426Y-121.92
X108.966Y-114.3
X108.966Y-121.92
X111.506Y-135.128
X111.506Y-142.748
X115.57Y-97.79
X115.57Y-102.87
X123.19Y-97.79
X123.19Y-102.87
X179.07Y-113.03
X179.07Y-115.57
X179.07Y-118.11
X186.69Y-113.03
X186.69Y-115.57
X186.69Y-118.11
T5
X71.059Y-71.531
X71.059Y-78.329
X73.508Y-78.329
X73.558Y-71.531
T6
X119.38Y-78.74
X119.38Y-86.36
X134.62Y-78.74
X134.62Y-86.36
X201.295Y-91.44
X203.835Y-91.44
T7
X215.265Y-65.405
X215.265Y-67.945
X215.265Y-70.485
X215.265Y-73.025
X215.265Y-75.565
X215.265Y-78.105
X215.265Y-80.645
X215.265Y-83.185
X215.265Y-85.725
X215.265Y-88.265
X215.265Y-90.805
X215.265Y-93.345
X215.265Y-95.885
X215.265Y-98.425
X215.265Y-100.965
X215.265Y-103.505
X215.265Y-106.045
X215.265Y-108.585
X215.265Y-111.125
X215.265Y-113.665
X215.265Y-116.205
X215.265Y-118.745
X215.265Y-121.285
X215.265Y-123.825
X215.265Y-126.365
X217.805Y-65.405
X217.805Y-67.945
X217.805Y-70.485
X217.805Y-73.025
X217.805Y-75.565
X217.805Y-78.105
X217.805Y-80.645
X217.805Y-83.185
X217.805Y-85.725
X217.805Y-88.265
X217.805Y-90.805
X217.805Y-93.345
X217.805Y-95.885
X217.805Y-98.425
X217.805Y-100.965
X217.805Y-103.505
X217.805Y-106.045
X217.805Y-108.585
X217.805Y-111.125
X217.805Y-113.665
X217.805Y-116.205
X217.805Y-118.745
X217.805Y-121.285
X217.805Y-123.825
X217.805Y-126.365
T8
X65.024Y-90.17
X65.024Y-100.33
X65.03Y-92.75
X65.03Y-97.75
X74.93Y-87.75
X74.93Y-95.25
X74.93Y-102.75
X77.43Y-90.25
X77.43Y-100.25
X79.93Y-87.75
X79.93Y-95.25
X79.93Y-102.75
T9
X67.564Y-113.03
X67.564Y-127.
X76.454Y-107.95
X76.454Y-118.11
X76.454Y-121.92
X76.454Y-132.08
T10
X76.454Y-113.03
X76.454Y-127.
T11
X67.262Y-74.93
X68.059Y-68.13
X68.059Y-81.679
T12
X68.58Y-52.832
X68.58Y-138.938
X215.646Y-52.578
X215.646Y-138.938
T0
M30
