G04 #@! TF.FileFunction,Soldermask,Top*
%FSLAX46Y46*%
G04 Gerber Fmt 4.6, Leading zero omitted, Abs format (unit mm)*
G04 Created by KiCad (PCBNEW 4.0.2+dfsg1-stable) date Tue 27 Feb 2018 09:46:13 PM CET*
%MOMM*%
G01*
G04 APERTURE LIST*
%ADD10C,0.100000*%
%ADD11R,1.300000X1.300000*%
%ADD12C,1.300000*%
%ADD13R,1.727200X1.727200*%
%ADD14O,1.727200X1.727200*%
%ADD15R,2.032000X2.032000*%
%ADD16O,2.032000X2.032000*%
%ADD17O,3.197860X1.998980*%
%ADD18O,1.998980X3.197860*%
%ADD19R,1.200000X1.700000*%
%ADD20O,1.200000X1.700000*%
%ADD21O,2.300000X1.600000*%
%ADD22R,0.600000X2.000000*%
%ADD23R,2.499360X2.499360*%
%ADD24C,2.499360*%
%ADD25C,1.422400*%
%ADD26C,3.497580*%
%ADD27C,1.501140*%
%ADD28C,1.397000*%
G04 APERTURE END LIST*
D10*
D11*
X127000000Y-96520000D03*
D12*
X127000000Y-94020000D03*
D13*
X215265000Y-65405000D03*
D14*
X217805000Y-65405000D03*
X215265000Y-67945000D03*
X217805000Y-67945000D03*
X215265000Y-70485000D03*
X217805000Y-70485000D03*
X215265000Y-73025000D03*
X217805000Y-73025000D03*
X215265000Y-75565000D03*
X217805000Y-75565000D03*
X215265000Y-78105000D03*
X217805000Y-78105000D03*
X215265000Y-80645000D03*
X217805000Y-80645000D03*
X215265000Y-83185000D03*
X217805000Y-83185000D03*
X215265000Y-85725000D03*
X217805000Y-85725000D03*
X215265000Y-88265000D03*
X217805000Y-88265000D03*
X215265000Y-90805000D03*
X217805000Y-90805000D03*
X215265000Y-93345000D03*
X217805000Y-93345000D03*
X215265000Y-95885000D03*
X217805000Y-95885000D03*
X215265000Y-98425000D03*
X217805000Y-98425000D03*
X215265000Y-100965000D03*
X217805000Y-100965000D03*
X215265000Y-103505000D03*
X217805000Y-103505000D03*
X215265000Y-106045000D03*
X217805000Y-106045000D03*
X215265000Y-108585000D03*
X217805000Y-108585000D03*
X215265000Y-111125000D03*
X217805000Y-111125000D03*
X215265000Y-113665000D03*
X217805000Y-113665000D03*
X215265000Y-116205000D03*
X217805000Y-116205000D03*
X215265000Y-118745000D03*
X217805000Y-118745000D03*
X215265000Y-121285000D03*
X217805000Y-121285000D03*
X215265000Y-123825000D03*
X217805000Y-123825000D03*
X215265000Y-126365000D03*
X217805000Y-126365000D03*
D11*
X127000000Y-101600000D03*
D12*
X127000000Y-99100000D03*
D11*
X183769000Y-60325000D03*
D12*
X181269000Y-60325000D03*
D11*
X158369000Y-60325000D03*
D12*
X155869000Y-60325000D03*
D11*
X171029000Y-60325000D03*
D12*
X168529000Y-60325000D03*
D11*
X145669000Y-60325000D03*
D12*
X143169000Y-60325000D03*
D11*
X208280000Y-90170000D03*
D12*
X205780000Y-90170000D03*
D11*
X148590000Y-96520000D03*
D12*
X146090000Y-96520000D03*
D11*
X171450000Y-116840000D03*
D12*
X168950000Y-116840000D03*
D11*
X171450000Y-114300000D03*
D12*
X168950000Y-114300000D03*
D11*
X120650000Y-101600000D03*
D12*
X123150000Y-101600000D03*
D11*
X171450000Y-119380000D03*
D12*
X168950000Y-119380000D03*
D11*
X120650000Y-97790000D03*
D12*
X123150000Y-97790000D03*
X81320000Y-120650000D03*
D11*
X83820000Y-120650000D03*
D12*
X81320000Y-63500000D03*
D11*
X83820000Y-63500000D03*
D12*
X81320000Y-128270000D03*
D11*
X83820000Y-128270000D03*
X104140000Y-82550000D03*
D12*
X101640000Y-82550000D03*
X81320000Y-76200000D03*
D11*
X83820000Y-76200000D03*
X109220000Y-82550000D03*
D12*
X106720000Y-82550000D03*
X81320000Y-88900000D03*
D11*
X83820000Y-88900000D03*
D12*
X81320000Y-101600000D03*
D11*
X83820000Y-101600000D03*
D15*
X212090000Y-85725000D03*
D16*
X209550000Y-85725000D03*
D17*
X75117960Y-68554600D03*
D18*
X71120000Y-63500000D03*
D17*
X75117960Y-58445400D03*
X75117960Y-81254600D03*
D18*
X71120000Y-76200000D03*
D17*
X75117960Y-71145400D03*
X75117960Y-93954600D03*
D18*
X71120000Y-88900000D03*
D17*
X75117960Y-83845400D03*
X75117960Y-106654600D03*
D18*
X71120000Y-101600000D03*
D17*
X75117960Y-96545400D03*
D19*
X137510000Y-111150400D03*
D20*
X139290000Y-111150400D03*
X141070000Y-111150400D03*
X142850000Y-111150400D03*
X144630000Y-111150400D03*
X146410000Y-111150400D03*
X148190000Y-111150400D03*
X149970000Y-111150400D03*
X151750000Y-111150400D03*
X153530000Y-111150400D03*
X155310000Y-111150400D03*
X157090000Y-111150400D03*
X158870000Y-111150400D03*
X160650000Y-111150400D03*
X162430000Y-111150400D03*
X164210000Y-111150400D03*
X165990000Y-111150400D03*
X167770000Y-111150400D03*
X169550000Y-111150400D03*
X171330000Y-111150400D03*
X173110000Y-111150400D03*
X174890000Y-111150400D03*
X176670000Y-111150400D03*
X178450000Y-111150400D03*
X180230000Y-111150400D03*
X182010000Y-111150400D03*
X183790000Y-111150400D03*
X185570000Y-111150400D03*
X187350000Y-111150400D03*
X189130000Y-111150400D03*
X190910000Y-111150400D03*
X192690000Y-111150400D03*
X192690000Y-92049600D03*
X190910000Y-92049600D03*
X189130000Y-92049600D03*
X187350000Y-92049600D03*
X185570000Y-92049600D03*
X183790000Y-92049600D03*
X182010000Y-92049600D03*
X180230000Y-92049600D03*
X178450000Y-92049600D03*
X176670000Y-92049600D03*
X174890000Y-92049600D03*
X173110000Y-92049600D03*
X171330000Y-92049600D03*
X169550000Y-92049600D03*
X167770000Y-92049600D03*
X165990000Y-92049600D03*
X164210000Y-92049600D03*
X162430000Y-92049600D03*
X160650000Y-92049600D03*
X158870000Y-92049600D03*
X157090000Y-92049600D03*
X155310000Y-92049600D03*
X153530000Y-92049600D03*
X151750000Y-92049600D03*
X149970000Y-92049600D03*
X148190000Y-92049600D03*
X146410000Y-92049600D03*
X144630000Y-92049600D03*
X142850000Y-92049600D03*
X141070000Y-92049600D03*
X139290000Y-92049600D03*
X137510000Y-92049600D03*
D21*
X183769000Y-84455000D03*
X183769000Y-81915000D03*
X183769000Y-79375000D03*
X183769000Y-76835000D03*
X183769000Y-74295000D03*
X183769000Y-71755000D03*
X183769000Y-69215000D03*
X183769000Y-66675000D03*
X183769000Y-64135000D03*
X176149000Y-64135000D03*
X176149000Y-66675000D03*
X176149000Y-69215000D03*
X176149000Y-71755000D03*
X176149000Y-74295000D03*
X176149000Y-76835000D03*
X176149000Y-79375000D03*
X176149000Y-81915000D03*
X176149000Y-84455000D03*
X158369000Y-84455000D03*
X158369000Y-81915000D03*
X158369000Y-79375000D03*
X158369000Y-76835000D03*
X158369000Y-74295000D03*
X158369000Y-71755000D03*
X158369000Y-69215000D03*
X158369000Y-66675000D03*
X158369000Y-64135000D03*
X150749000Y-64135000D03*
X150749000Y-66675000D03*
X150749000Y-69215000D03*
X150749000Y-71755000D03*
X150749000Y-74295000D03*
X150749000Y-76835000D03*
X150749000Y-79375000D03*
X150749000Y-81915000D03*
X150749000Y-84455000D03*
X171069000Y-84455000D03*
X171069000Y-81915000D03*
X171069000Y-79375000D03*
X171069000Y-76835000D03*
X171069000Y-74295000D03*
X171069000Y-71755000D03*
X171069000Y-69215000D03*
X171069000Y-66675000D03*
X171069000Y-64135000D03*
X163449000Y-64135000D03*
X163449000Y-66675000D03*
X163449000Y-69215000D03*
X163449000Y-71755000D03*
X163449000Y-74295000D03*
X163449000Y-76835000D03*
X163449000Y-79375000D03*
X163449000Y-81915000D03*
X163449000Y-84455000D03*
X145669000Y-84455000D03*
X145669000Y-81915000D03*
X145669000Y-79375000D03*
X145669000Y-76835000D03*
X145669000Y-74295000D03*
X145669000Y-71755000D03*
X145669000Y-69215000D03*
X145669000Y-66675000D03*
X145669000Y-64135000D03*
X138049000Y-64135000D03*
X138049000Y-66675000D03*
X138049000Y-69215000D03*
X138049000Y-71755000D03*
X138049000Y-74295000D03*
X138049000Y-76835000D03*
X138049000Y-79375000D03*
X138049000Y-81915000D03*
X138049000Y-84455000D03*
D22*
X104775000Y-96140000D03*
X106045000Y-96140000D03*
X107315000Y-96140000D03*
X108585000Y-96140000D03*
X109855000Y-96140000D03*
X111125000Y-96140000D03*
X112395000Y-96140000D03*
X113665000Y-96140000D03*
X114935000Y-96140000D03*
X116205000Y-96140000D03*
X117475000Y-96140000D03*
X118745000Y-96140000D03*
X118745000Y-86740000D03*
X117475000Y-86740000D03*
X116205000Y-86740000D03*
X114935000Y-86740000D03*
X113665000Y-86740000D03*
X112395000Y-86740000D03*
X111125000Y-86740000D03*
X109855000Y-86740000D03*
X108585000Y-86740000D03*
X107315000Y-86740000D03*
X106045000Y-86740000D03*
X104775000Y-86740000D03*
D23*
X104140000Y-120650000D03*
D24*
X119380000Y-120650000D03*
X119380000Y-113030000D03*
X104140000Y-113030000D03*
D25*
X69789040Y-127858520D03*
X69789040Y-121061480D03*
X72237600Y-127858520D03*
X72288400Y-121061480D03*
D26*
X66789300Y-117660420D03*
X65991740Y-124460000D03*
X66789300Y-131208780D03*
D27*
X132080000Y-101500940D03*
X132080000Y-96619060D03*
D28*
X173990000Y-121920000D03*
X173990000Y-114300000D03*
X176530000Y-121920000D03*
X176530000Y-114300000D03*
X179070000Y-121920000D03*
X179070000Y-114300000D03*
X111125000Y-106934000D03*
X111125000Y-99314000D03*
X144780000Y-114300000D03*
X137160000Y-114300000D03*
X95250000Y-83820000D03*
X87630000Y-83820000D03*
X95250000Y-86360000D03*
X87630000Y-86360000D03*
X95250000Y-88900000D03*
X87630000Y-88900000D03*
X95250000Y-91440000D03*
X87630000Y-91440000D03*
X121920000Y-87630000D03*
X121920000Y-95250000D03*
X95250000Y-96520000D03*
X87630000Y-96520000D03*
X95250000Y-99060000D03*
X87630000Y-99060000D03*
X95250000Y-93980000D03*
X87630000Y-93980000D03*
D21*
X200660000Y-93980000D03*
X200660000Y-96520000D03*
X200660000Y-99060000D03*
X200660000Y-101600000D03*
X200660000Y-104140000D03*
X200660000Y-106680000D03*
X200660000Y-109220000D03*
X200660000Y-111760000D03*
X208280000Y-111760000D03*
X208280000Y-109220000D03*
X208280000Y-106680000D03*
X208280000Y-104140000D03*
X208280000Y-101600000D03*
X208280000Y-99060000D03*
X208280000Y-96520000D03*
X208280000Y-93980000D03*
M02*
