%FSLAX45Y45*%
G04 Gerber Fmt 4.5, Leading zero omitted, Abs format (unit mm)*
G04 Created by KiCad (PCBNEW 4.0.7-e2-6376~61~ubuntu18.04.1) date Thu Dec  6 17:39:00 2018*
%MOMM*%
%LPD*%
G01*
G04 APERTURE LIST*
%ADD10C,0.127000*%
%ADD11C,0.100000*%
%ADD12C,0.200000*%
%ADD13C,0.300000*%
G04 APERTURE END LIST*
D10*
D11*
X22225000Y-4572000D02*
X22225000Y-14605000D01*
X6223000Y-14605000D02*
X6223000Y-4572000D01*
X22225000Y-14605000D02*
X6223000Y-14605000D01*
X6223000Y-4572000D02*
X22225000Y-4572000D01*
D12*
X10456750Y-10826750D02*
X10520250Y-10890250D01*
X10520250Y-10826750D02*
X10456750Y-10890250D01*
X11068050Y-10826750D02*
X11131550Y-10890250D01*
X11131550Y-10826750D02*
X11068050Y-10890250D01*
X11069750Y-10064750D02*
X11133250Y-10128250D01*
X11133250Y-10064750D02*
X11069750Y-10128250D01*
X14490699Y-8096250D02*
X14554199Y-8159750D01*
X14554199Y-8096250D02*
X14490699Y-8159750D01*
X14554199Y-6826250D02*
X14617699Y-6889750D01*
X14617699Y-6826250D02*
X14554199Y-6889750D01*
X14687550Y-5556250D02*
X14751050Y-5619750D01*
X14751050Y-5556250D02*
X14687550Y-5619750D01*
X15335250Y-7588250D02*
X15398750Y-7651750D01*
X15398750Y-7588250D02*
X15335250Y-7651750D01*
X15725057Y-8089899D02*
X15788557Y-8153399D01*
X15788557Y-8089899D02*
X15725057Y-8153399D01*
X15894050Y-8312790D02*
X15957550Y-8376290D01*
X15957550Y-8312790D02*
X15894050Y-8376290D01*
X15957550Y-6889754D02*
X16021050Y-6953254D01*
X16021050Y-6889754D02*
X15957550Y-6953254D01*
X16323315Y-8895703D02*
X16386815Y-8959203D01*
X16386815Y-8895703D02*
X16323315Y-8959203D01*
X16340804Y-6883401D02*
X16404304Y-6946901D01*
X16404304Y-6883401D02*
X16340804Y-6946901D01*
X16346002Y-7048502D02*
X16409502Y-7112002D01*
X16409502Y-7048502D02*
X16346002Y-7112002D01*
X16592550Y-7080250D02*
X16656050Y-7143750D01*
X16656050Y-7080250D02*
X16592550Y-7143750D01*
X16684667Y-8766132D02*
X16748167Y-8829632D01*
X16748167Y-8766132D02*
X16684667Y-8829632D01*
X16719550Y-7677150D02*
X16783050Y-7740650D01*
X16783050Y-7677150D02*
X16719550Y-7740650D01*
X16846550Y-8089899D02*
X16910050Y-8153399D01*
X16910050Y-8089899D02*
X16846550Y-8153399D01*
X16968471Y-7569200D02*
X17031971Y-7632700D01*
X17031971Y-7569200D02*
X16968471Y-7632700D01*
X16978800Y-8340892D02*
X17042300Y-8404392D01*
X17042300Y-8340892D02*
X16978800Y-8404392D01*
X16998949Y-8000999D02*
X17062449Y-8064499D01*
X17062449Y-8000999D02*
X16998949Y-8064499D01*
X17047208Y-6064250D02*
X17110708Y-6127750D01*
X17110708Y-6064250D02*
X17047208Y-6127750D01*
X17049750Y-4984750D02*
X17113250Y-5048250D01*
X17113250Y-4984750D02*
X17049750Y-5048250D01*
X17056101Y-7334250D02*
X17119601Y-7397750D01*
X17119601Y-7334250D02*
X17056101Y-7397750D01*
X17113250Y-8604250D02*
X17176750Y-8667750D01*
X17176750Y-8604250D02*
X17113250Y-8667750D01*
X17240250Y-8172450D02*
X17303750Y-8235950D01*
X17303750Y-8172450D02*
X17240250Y-8235950D01*
X17748250Y-8096250D02*
X17811750Y-8159750D01*
X17811750Y-8096250D02*
X17748250Y-8159750D01*
X17989550Y-7625705D02*
X18053050Y-7689205D01*
X18053050Y-7625705D02*
X17989550Y-7689205D01*
X18002250Y-6813550D02*
X18065750Y-6877050D01*
X18065750Y-6813550D02*
X18002250Y-6877050D01*
X18116550Y-8223250D02*
X18180050Y-8286750D01*
X18180050Y-8223250D02*
X18116550Y-8286750D01*
X18370550Y-8484712D02*
X18434050Y-8548212D01*
X18434050Y-8484712D02*
X18370550Y-8548212D01*
X18623328Y-6901227D02*
X18686828Y-6964727D01*
X18686828Y-6901227D02*
X18623328Y-6964727D01*
X18624550Y-8388350D02*
X18688050Y-8451850D01*
X18688050Y-8388350D02*
X18624550Y-8451850D01*
X18891251Y-6953250D02*
X18954751Y-7016750D01*
X18954751Y-6953250D02*
X18891251Y-7016750D01*
X19005550Y-6826250D02*
X19069050Y-6889750D01*
X19069050Y-6826250D02*
X19005550Y-6889750D01*
X19259549Y-7080250D02*
X19323049Y-7143750D01*
X19323049Y-7080250D02*
X19259549Y-7143750D01*
X19259550Y-7639050D02*
X19323050Y-7702550D01*
X19323050Y-7639050D02*
X19259550Y-7702550D01*
X19526250Y-11779250D02*
X19589750Y-11842750D01*
X19589750Y-11779250D02*
X19526250Y-11842750D01*
X19526250Y-12795250D02*
X19589750Y-12858750D01*
X19589750Y-12795250D02*
X19526250Y-12858750D01*
X19549100Y-7519823D02*
X19612600Y-7583323D01*
X19612600Y-7519823D02*
X19549100Y-7583323D01*
X19780250Y-12668250D02*
X19843750Y-12731750D01*
X19843750Y-12668250D02*
X19780250Y-12731750D01*
X20297981Y-11932667D02*
X20361481Y-11996167D01*
X20361481Y-11932667D02*
X20297981Y-11996167D01*
X20542250Y-12033250D02*
X20605750Y-12096750D01*
X20605750Y-12033250D02*
X20542250Y-12096750D01*
X20669250Y-9378950D02*
X20732750Y-9442450D01*
X20732750Y-9378950D02*
X20669250Y-9442450D01*
X20669251Y-9620250D02*
X20732751Y-9683750D01*
X20732751Y-9620250D02*
X20669251Y-9683750D01*
X20669251Y-9874250D02*
X20732751Y-9937750D01*
X20732751Y-9874250D02*
X20669251Y-9937750D01*
X20669251Y-10140950D02*
X20732751Y-10204450D01*
X20732751Y-10140950D02*
X20669251Y-10204450D01*
X20670039Y-9737584D02*
X20733539Y-9801084D01*
X20733539Y-9737584D02*
X20670039Y-9801084D01*
X20670472Y-9494472D02*
X20733972Y-9557972D01*
X20733972Y-9494472D02*
X20670472Y-9557972D01*
X20796250Y-10001250D02*
X20859750Y-10064750D01*
X20859750Y-10001250D02*
X20796250Y-10064750D01*
X14040000Y-9077960D02*
G75*
G03X14040000Y-9077960I-35000J0D01*
G01*
X14040000Y-10988040D02*
G75*
G03X14040000Y-10988040I-35000J0D01*
G01*
X14218000Y-9077960D02*
G75*
G03X14218000Y-9077960I-35000J0D01*
G01*
X14218000Y-10988040D02*
G75*
G03X14218000Y-10988040I-35000J0D01*
G01*
X14396000Y-9077960D02*
G75*
G03X14396000Y-9077960I-35000J0D01*
G01*
X14396000Y-10988040D02*
G75*
G03X14396000Y-10988040I-35000J0D01*
G01*
X14574000Y-9077960D02*
G75*
G03X14574000Y-9077960I-35000J0D01*
G01*
X14574000Y-10988040D02*
G75*
G03X14574000Y-10988040I-35000J0D01*
G01*
X14752000Y-9077960D02*
G75*
G03X14752000Y-9077960I-35000J0D01*
G01*
X14752000Y-10988040D02*
G75*
G03X14752000Y-10988040I-35000J0D01*
G01*
X14930000Y-9077960D02*
G75*
G03X14930000Y-9077960I-35000J0D01*
G01*
X14930000Y-10988040D02*
G75*
G03X14930000Y-10988040I-35000J0D01*
G01*
X15108000Y-9077960D02*
G75*
G03X15108000Y-9077960I-35000J0D01*
G01*
X15108000Y-10988040D02*
G75*
G03X15108000Y-10988040I-35000J0D01*
G01*
X15286000Y-9077960D02*
G75*
G03X15286000Y-9077960I-35000J0D01*
G01*
X15286000Y-10988040D02*
G75*
G03X15286000Y-10988040I-35000J0D01*
G01*
X15464000Y-9077960D02*
G75*
G03X15464000Y-9077960I-35000J0D01*
G01*
X15464000Y-10988040D02*
G75*
G03X15464000Y-10988040I-35000J0D01*
G01*
X15642000Y-9077960D02*
G75*
G03X15642000Y-9077960I-35000J0D01*
G01*
X15642000Y-10988040D02*
G75*
G03X15642000Y-10988040I-35000J0D01*
G01*
X15820000Y-9077960D02*
G75*
G03X15820000Y-9077960I-35000J0D01*
G01*
X15820000Y-10988040D02*
G75*
G03X15820000Y-10988040I-35000J0D01*
G01*
X15998000Y-9077960D02*
G75*
G03X15998000Y-9077960I-35000J0D01*
G01*
X15998000Y-10988040D02*
G75*
G03X15998000Y-10988040I-35000J0D01*
G01*
X16176000Y-9077960D02*
G75*
G03X16176000Y-9077960I-35000J0D01*
G01*
X16176000Y-10988040D02*
G75*
G03X16176000Y-10988040I-35000J0D01*
G01*
X16354000Y-9077960D02*
G75*
G03X16354000Y-9077960I-35000J0D01*
G01*
X16354000Y-10988040D02*
G75*
G03X16354000Y-10988040I-35000J0D01*
G01*
X16532000Y-9077960D02*
G75*
G03X16532000Y-9077960I-35000J0D01*
G01*
X16532000Y-10988040D02*
G75*
G03X16532000Y-10988040I-35000J0D01*
G01*
X16710000Y-9077960D02*
G75*
G03X16710000Y-9077960I-35000J0D01*
G01*
X16710000Y-10988040D02*
G75*
G03X16710000Y-10988040I-35000J0D01*
G01*
X16888000Y-9077960D02*
G75*
G03X16888000Y-9077960I-35000J0D01*
G01*
X16888000Y-10988040D02*
G75*
G03X16888000Y-10988040I-35000J0D01*
G01*
X17066000Y-9077960D02*
G75*
G03X17066000Y-9077960I-35000J0D01*
G01*
X17066000Y-10988040D02*
G75*
G03X17066000Y-10988040I-35000J0D01*
G01*
X17244000Y-9077960D02*
G75*
G03X17244000Y-9077960I-35000J0D01*
G01*
X17244000Y-10988040D02*
G75*
G03X17244000Y-10988040I-35000J0D01*
G01*
X17422000Y-9077960D02*
G75*
G03X17422000Y-9077960I-35000J0D01*
G01*
X17422000Y-10988040D02*
G75*
G03X17422000Y-10988040I-35000J0D01*
G01*
X17600000Y-9077960D02*
G75*
G03X17600000Y-9077960I-35000J0D01*
G01*
X17600000Y-10988040D02*
G75*
G03X17600000Y-10988040I-35000J0D01*
G01*
X17778000Y-9077960D02*
G75*
G03X17778000Y-9077960I-35000J0D01*
G01*
X17778000Y-10988040D02*
G75*
G03X17778000Y-10988040I-35000J0D01*
G01*
X17956000Y-9077960D02*
G75*
G03X17956000Y-9077960I-35000J0D01*
G01*
X17956000Y-10988040D02*
G75*
G03X17956000Y-10988040I-35000J0D01*
G01*
X18134000Y-9077960D02*
G75*
G03X18134000Y-9077960I-35000J0D01*
G01*
X18134000Y-10988040D02*
G75*
G03X18134000Y-10988040I-35000J0D01*
G01*
X18312000Y-9077960D02*
G75*
G03X18312000Y-9077960I-35000J0D01*
G01*
X18312000Y-10988040D02*
G75*
G03X18312000Y-10988040I-35000J0D01*
G01*
X18490000Y-9077960D02*
G75*
G03X18490000Y-9077960I-35000J0D01*
G01*
X18490000Y-10988040D02*
G75*
G03X18490000Y-10988040I-35000J0D01*
G01*
X18668000Y-9077960D02*
G75*
G03X18668000Y-9077960I-35000J0D01*
G01*
X18668000Y-10988040D02*
G75*
G03X18668000Y-10988040I-35000J0D01*
G01*
X18846000Y-9077960D02*
G75*
G03X18846000Y-9077960I-35000J0D01*
G01*
X18846000Y-10988040D02*
G75*
G03X18846000Y-10988040I-35000J0D01*
G01*
X19024000Y-9077960D02*
G75*
G03X19024000Y-9077960I-35000J0D01*
G01*
X19024000Y-10988040D02*
G75*
G03X19024000Y-10988040I-35000J0D01*
G01*
X19202000Y-9077960D02*
G75*
G03X19202000Y-9077960I-35000J0D01*
G01*
X19202000Y-10988040D02*
G75*
G03X19202000Y-10988040I-35000J0D01*
G01*
X19380000Y-9077960D02*
G75*
G03X19380000Y-9077960I-35000J0D01*
G01*
X19380000Y-10988040D02*
G75*
G03X19380000Y-10988040I-35000J0D01*
G01*
X19558000Y-9077960D02*
G75*
G03X19558000Y-9077960I-35000J0D01*
G01*
X19558000Y-10988040D02*
G75*
G03X19558000Y-10988040I-35000J0D01*
G01*
X8636000Y-8723000D02*
X8636000Y-8803000D01*
X8596000Y-8763000D02*
X8676000Y-8763000D01*
X8640000Y-7072000D02*
X8640000Y-7152000D01*
X8600000Y-7112000D02*
X8680000Y-7112000D01*
X8640000Y-7834000D02*
X8640000Y-7914000D01*
X8600000Y-7874000D02*
X8680000Y-7874000D01*
X8640000Y-9485000D02*
X8640000Y-9565000D01*
X8600000Y-9525000D02*
X8680000Y-9525000D01*
X8640000Y-10247000D02*
X8640000Y-10327000D01*
X8600000Y-10287000D02*
X8680000Y-10287000D01*
X8640000Y-11009000D02*
X8640000Y-11089000D01*
X8600000Y-11049000D02*
X8680000Y-11049000D01*
X8640000Y-12660000D02*
X8640000Y-12740000D01*
X8600000Y-12700000D02*
X8680000Y-12700000D01*
X8886000Y-8723000D02*
X8886000Y-8803000D01*
X8846000Y-8763000D02*
X8926000Y-8763000D01*
X8890000Y-7072000D02*
X8890000Y-7152000D01*
X8850000Y-7112000D02*
X8930000Y-7112000D01*
X8890000Y-7834000D02*
X8890000Y-7914000D01*
X8850000Y-7874000D02*
X8930000Y-7874000D01*
X8890000Y-9485000D02*
X8890000Y-9565000D01*
X8850000Y-9525000D02*
X8930000Y-9525000D01*
X8890000Y-10247000D02*
X8890000Y-10327000D01*
X8850000Y-10287000D02*
X8930000Y-10287000D01*
X8890000Y-11009000D02*
X8890000Y-11089000D01*
X8850000Y-11049000D02*
X8930000Y-11049000D01*
X8890000Y-12660000D02*
X8890000Y-12740000D01*
X8850000Y-12700000D02*
X8930000Y-12700000D01*
X9880600Y-12431400D02*
X9880600Y-12511400D01*
X9840600Y-12471400D02*
X9920600Y-12471400D01*
X9880600Y-13193400D02*
X9880600Y-13273400D01*
X9840600Y-13233400D02*
X9920600Y-13233400D01*
X10134600Y-12431400D02*
X10134600Y-12511400D01*
X10094600Y-12471400D02*
X10174600Y-12471400D01*
X10134600Y-13193400D02*
X10134600Y-13273400D01*
X10094600Y-13233400D02*
X10174600Y-13233400D01*
X10287000Y-11136000D02*
X10287000Y-11216000D01*
X10247000Y-11176000D02*
X10327000Y-11176000D01*
X10388600Y-11898000D02*
X10388600Y-11978000D01*
X10348600Y-11938000D02*
X10428600Y-11938000D01*
X10388600Y-12148000D02*
X10388600Y-12228000D01*
X10348600Y-12188000D02*
X10428600Y-12188000D01*
X10388600Y-12431400D02*
X10388600Y-12511400D01*
X10348600Y-12471400D02*
X10428600Y-12471400D01*
X10388600Y-13193400D02*
X10388600Y-13273400D01*
X10348600Y-13233400D02*
X10428600Y-13233400D01*
X10537000Y-11136000D02*
X10537000Y-11216000D01*
X10497000Y-11176000D02*
X10577000Y-11176000D01*
X10642600Y-12431400D02*
X10642600Y-12511400D01*
X10602600Y-12471400D02*
X10682600Y-12471400D01*
X10642600Y-13193400D02*
X10642600Y-13273400D01*
X10602600Y-13233400D02*
X10682600Y-13233400D01*
X10668000Y-13676000D02*
X10668000Y-13756000D01*
X10628000Y-13716000D02*
X10708000Y-13716000D01*
X10668000Y-13926000D02*
X10668000Y-14006000D01*
X10628000Y-13966000D02*
X10708000Y-13966000D01*
X10795000Y-8850000D02*
X10795000Y-8930000D01*
X10755000Y-8890000D02*
X10835000Y-8890000D01*
X10896600Y-12431400D02*
X10896600Y-12511400D01*
X10856600Y-12471400D02*
X10936600Y-12471400D01*
X10896600Y-13193400D02*
X10896600Y-13273400D01*
X10856600Y-13233400D02*
X10936600Y-13233400D01*
X11045000Y-8850000D02*
X11045000Y-8930000D01*
X11005000Y-8890000D02*
X11085000Y-8890000D01*
X11150600Y-11902000D02*
X11150600Y-11982000D01*
X11110600Y-11942000D02*
X11190600Y-11942000D01*
X11150600Y-12152000D02*
X11150600Y-12232000D01*
X11110600Y-12192000D02*
X11190600Y-12192000D01*
X11150600Y-12431400D02*
X11150600Y-12511400D01*
X11110600Y-12471400D02*
X11190600Y-12471400D01*
X11150600Y-13193400D02*
X11150600Y-13273400D01*
X11110600Y-13233400D02*
X11190600Y-13233400D01*
X11303000Y-9104000D02*
X11303000Y-9184000D01*
X11263000Y-9144000D02*
X11343000Y-9144000D01*
X11303000Y-11263000D02*
X11303000Y-11343000D01*
X11263000Y-11303000D02*
X11343000Y-11303000D01*
X11404600Y-12431400D02*
X11404600Y-12511400D01*
X11364600Y-12471400D02*
X11444600Y-12471400D01*
X11404600Y-13193400D02*
X11404600Y-13273400D01*
X11364600Y-13233400D02*
X11444600Y-13233400D01*
X11553000Y-9104000D02*
X11553000Y-9184000D01*
X11513000Y-9144000D02*
X11593000Y-9144000D01*
X11553000Y-11263000D02*
X11553000Y-11343000D01*
X11513000Y-11303000D02*
X11593000Y-11303000D01*
X11684000Y-12152000D02*
X11684000Y-12232000D01*
X11644000Y-12192000D02*
X11724000Y-12192000D01*
X11684000Y-12664000D02*
X11684000Y-12744000D01*
X11644000Y-12704000D02*
X11724000Y-12704000D01*
X11684000Y-12914000D02*
X11684000Y-12994000D01*
X11644000Y-12954000D02*
X11724000Y-12954000D01*
X11934000Y-12152000D02*
X11934000Y-12232000D01*
X11894000Y-12192000D02*
X11974000Y-12192000D01*
X12242800Y-12431400D02*
X12242800Y-12511400D01*
X12202800Y-12471400D02*
X12282800Y-12471400D01*
X12242800Y-13193400D02*
X12242800Y-13273400D01*
X12202800Y-13233400D02*
X12282800Y-13233400D01*
X12496800Y-12431400D02*
X12496800Y-12511400D01*
X12456800Y-12471400D02*
X12536800Y-12471400D01*
X12496800Y-13193400D02*
X12496800Y-13273400D01*
X12456800Y-13233400D02*
X12536800Y-13233400D01*
X12750800Y-12431400D02*
X12750800Y-12511400D01*
X12710800Y-12471400D02*
X12790800Y-12471400D01*
X12750800Y-13193400D02*
X12750800Y-13273400D01*
X12710800Y-13233400D02*
X12790800Y-13233400D01*
X13004800Y-12431400D02*
X13004800Y-12511400D01*
X12964800Y-12471400D02*
X13044800Y-12471400D01*
X13004800Y-13193400D02*
X13004800Y-13273400D01*
X12964800Y-13233400D02*
X13044800Y-13233400D01*
X13335000Y-9167500D02*
X13335000Y-9247500D01*
X13295000Y-9207500D02*
X13375000Y-9207500D01*
X13335000Y-10691500D02*
X13335000Y-10771500D01*
X13295000Y-10731500D02*
X13375000Y-10731500D01*
X13462000Y-9695500D02*
X13462000Y-9775500D01*
X13422000Y-9735500D02*
X13502000Y-9735500D01*
X13462000Y-10183500D02*
X13462000Y-10263500D01*
X13422000Y-10223500D02*
X13502000Y-10223500D01*
X13466000Y-12406000D02*
X13466000Y-12486000D01*
X13426000Y-12446000D02*
X13506000Y-12446000D01*
X13585000Y-9167500D02*
X13585000Y-9247500D01*
X13545000Y-9207500D02*
X13625000Y-9207500D01*
X13585000Y-10691500D02*
X13585000Y-10771500D01*
X13545000Y-10731500D02*
X13625000Y-10731500D01*
X13716000Y-12406000D02*
X13716000Y-12486000D01*
X13676000Y-12446000D02*
X13756000Y-12446000D01*
X13931900Y-12406000D02*
X13931900Y-12486000D01*
X13891900Y-12446000D02*
X13971900Y-12446000D01*
X13931900Y-13168000D02*
X13931900Y-13248000D01*
X13891900Y-13208000D02*
X13971900Y-13208000D01*
X14185900Y-12406000D02*
X14185900Y-12486000D01*
X14145900Y-12446000D02*
X14225900Y-12446000D01*
X14185900Y-13168000D02*
X14185900Y-13248000D01*
X14145900Y-13208000D02*
X14225900Y-13208000D01*
X14228000Y-10374000D02*
X14228000Y-10454000D01*
X14188000Y-10414000D02*
X14268000Y-10414000D01*
X14439900Y-12406000D02*
X14439900Y-12486000D01*
X14399900Y-12446000D02*
X14479900Y-12446000D01*
X14439900Y-13168000D02*
X14439900Y-13248000D01*
X14399900Y-13208000D02*
X14479900Y-13208000D01*
X14478000Y-10374000D02*
X14478000Y-10454000D01*
X14438000Y-10414000D02*
X14518000Y-10414000D01*
X14693900Y-12406000D02*
X14693900Y-12486000D01*
X14653900Y-12446000D02*
X14733900Y-12446000D01*
X14693900Y-13168000D02*
X14693900Y-13248000D01*
X14653900Y-13208000D02*
X14733900Y-13208000D01*
X14846300Y-5294000D02*
X14846300Y-5374000D01*
X14806300Y-5334000D02*
X14886300Y-5334000D01*
X14846300Y-6056000D02*
X14846300Y-6136000D01*
X14806300Y-6096000D02*
X14886300Y-6096000D01*
X14846300Y-6564000D02*
X14846300Y-6644000D01*
X14806300Y-6604000D02*
X14886300Y-6604000D01*
X14846300Y-7326000D02*
X14846300Y-7406000D01*
X14806300Y-7366000D02*
X14886300Y-7366000D01*
X14846300Y-7834000D02*
X14846300Y-7914000D01*
X14806300Y-7874000D02*
X14886300Y-7874000D01*
X14846300Y-8596000D02*
X14846300Y-8676000D01*
X14806300Y-8636000D02*
X14886300Y-8636000D01*
X14947900Y-12406000D02*
X14947900Y-12486000D01*
X14907900Y-12446000D02*
X14987900Y-12446000D01*
X14947900Y-13168000D02*
X14947900Y-13248000D01*
X14907900Y-13208000D02*
X14987900Y-13208000D01*
X15100300Y-5294000D02*
X15100300Y-5374000D01*
X15060300Y-5334000D02*
X15140300Y-5334000D01*
X15100300Y-6056000D02*
X15100300Y-6136000D01*
X15060300Y-6096000D02*
X15140300Y-6096000D01*
X15100300Y-6564000D02*
X15100300Y-6644000D01*
X15060300Y-6604000D02*
X15140300Y-6604000D01*
X15100300Y-7326000D02*
X15100300Y-7406000D01*
X15060300Y-7366000D02*
X15140300Y-7366000D01*
X15100300Y-7834000D02*
X15100300Y-7914000D01*
X15060300Y-7874000D02*
X15140300Y-7874000D01*
X15100300Y-8596000D02*
X15100300Y-8676000D01*
X15060300Y-8636000D02*
X15140300Y-8636000D01*
X15201900Y-12406000D02*
X15201900Y-12486000D01*
X15161900Y-12446000D02*
X15241900Y-12446000D01*
X15201900Y-13168000D02*
X15201900Y-13248000D01*
X15161900Y-13208000D02*
X15241900Y-13208000D01*
X15354300Y-5294000D02*
X15354300Y-5374000D01*
X15314300Y-5334000D02*
X15394300Y-5334000D01*
X15354300Y-6056000D02*
X15354300Y-6136000D01*
X15314300Y-6096000D02*
X15394300Y-6096000D01*
X15354300Y-6564000D02*
X15354300Y-6644000D01*
X15314300Y-6604000D02*
X15394300Y-6604000D01*
X15354300Y-7326000D02*
X15354300Y-7406000D01*
X15314300Y-7366000D02*
X15394300Y-7366000D01*
X15354300Y-7834000D02*
X15354300Y-7914000D01*
X15314300Y-7874000D02*
X15394300Y-7874000D01*
X15354300Y-8596000D02*
X15354300Y-8676000D01*
X15314300Y-8636000D02*
X15394300Y-8636000D01*
X15455900Y-12406000D02*
X15455900Y-12486000D01*
X15415900Y-12446000D02*
X15495900Y-12446000D01*
X15455900Y-13168000D02*
X15455900Y-13248000D01*
X15415900Y-13208000D02*
X15495900Y-13208000D01*
X15608300Y-5294000D02*
X15608300Y-5374000D01*
X15568300Y-5334000D02*
X15648300Y-5334000D01*
X15608300Y-6056000D02*
X15608300Y-6136000D01*
X15568300Y-6096000D02*
X15648300Y-6096000D01*
X15608300Y-6564000D02*
X15608300Y-6644000D01*
X15568300Y-6604000D02*
X15648300Y-6604000D01*
X15608300Y-7326000D02*
X15608300Y-7406000D01*
X15568300Y-7366000D02*
X15648300Y-7366000D01*
X15608300Y-7834000D02*
X15608300Y-7914000D01*
X15568300Y-7874000D02*
X15648300Y-7874000D01*
X15608300Y-8596000D02*
X15608300Y-8676000D01*
X15568300Y-8636000D02*
X15648300Y-8636000D01*
X15709900Y-12406000D02*
X15709900Y-12486000D01*
X15669900Y-12446000D02*
X15749900Y-12446000D01*
X15709900Y-13168000D02*
X15709900Y-13248000D01*
X15669900Y-13208000D02*
X15749900Y-13208000D01*
X15862300Y-5294000D02*
X15862300Y-5374000D01*
X15822300Y-5334000D02*
X15902300Y-5334000D01*
X15862300Y-6056000D02*
X15862300Y-6136000D01*
X15822300Y-6096000D02*
X15902300Y-6096000D01*
X15862300Y-6564000D02*
X15862300Y-6644000D01*
X15822300Y-6604000D02*
X15902300Y-6604000D01*
X15862300Y-7326000D02*
X15862300Y-7406000D01*
X15822300Y-7366000D02*
X15902300Y-7366000D01*
X15862300Y-7834000D02*
X15862300Y-7914000D01*
X15822300Y-7874000D02*
X15902300Y-7874000D01*
X15862300Y-8596000D02*
X15862300Y-8676000D01*
X15822300Y-8636000D02*
X15902300Y-8636000D01*
X16116300Y-5294000D02*
X16116300Y-5374000D01*
X16076300Y-5334000D02*
X16156300Y-5334000D01*
X16116300Y-6056000D02*
X16116300Y-6136000D01*
X16076300Y-6096000D02*
X16156300Y-6096000D01*
X16116300Y-6564000D02*
X16116300Y-6644000D01*
X16076300Y-6604000D02*
X16156300Y-6604000D01*
X16116300Y-7326000D02*
X16116300Y-7406000D01*
X16076300Y-7366000D02*
X16156300Y-7366000D01*
X16116300Y-7834000D02*
X16116300Y-7914000D01*
X16076300Y-7874000D02*
X16156300Y-7874000D01*
X16116300Y-8596000D02*
X16116300Y-8676000D01*
X16076300Y-8636000D02*
X16156300Y-8636000D01*
X16260000Y-13930000D02*
X16260000Y-14010000D01*
X16220000Y-13970000D02*
X16300000Y-13970000D01*
X16370300Y-5294000D02*
X16370300Y-5374000D01*
X16330300Y-5334000D02*
X16410300Y-5334000D01*
X16370300Y-6056000D02*
X16370300Y-6136000D01*
X16330300Y-6096000D02*
X16410300Y-6096000D01*
X16370300Y-6564000D02*
X16370300Y-6644000D01*
X16330300Y-6604000D02*
X16410300Y-6604000D01*
X16370300Y-7326000D02*
X16370300Y-7406000D01*
X16330300Y-7366000D02*
X16410300Y-7366000D01*
X16370300Y-7834000D02*
X16370300Y-7914000D01*
X16330300Y-7874000D02*
X16410300Y-7874000D01*
X16370300Y-8596000D02*
X16370300Y-8676000D01*
X16330300Y-8636000D02*
X16410300Y-8636000D01*
X16510000Y-13930000D02*
X16510000Y-14010000D01*
X16470000Y-13970000D02*
X16550000Y-13970000D01*
X16624300Y-5294000D02*
X16624300Y-5374000D01*
X16584300Y-5334000D02*
X16664300Y-5334000D01*
X16624300Y-6056000D02*
X16624300Y-6136000D01*
X16584300Y-6096000D02*
X16664300Y-6096000D01*
X16624300Y-6564000D02*
X16624300Y-6644000D01*
X16584300Y-6604000D02*
X16664300Y-6604000D01*
X16624300Y-7326000D02*
X16624300Y-7406000D01*
X16584300Y-7366000D02*
X16664300Y-7366000D01*
X16624300Y-7834000D02*
X16624300Y-7914000D01*
X16584300Y-7874000D02*
X16664300Y-7874000D01*
X16624300Y-8596000D02*
X16624300Y-8676000D01*
X16584300Y-8636000D02*
X16664300Y-8636000D01*
X16725900Y-12406000D02*
X16725900Y-12486000D01*
X16685900Y-12446000D02*
X16765900Y-12446000D01*
X16725900Y-13930000D02*
X16725900Y-14010000D01*
X16685900Y-13970000D02*
X16765900Y-13970000D01*
X16878300Y-5294000D02*
X16878300Y-5374000D01*
X16838300Y-5334000D02*
X16918300Y-5334000D01*
X16878300Y-6056000D02*
X16878300Y-6136000D01*
X16838300Y-6096000D02*
X16918300Y-6096000D01*
X16878300Y-6564000D02*
X16878300Y-6644000D01*
X16838300Y-6604000D02*
X16918300Y-6604000D01*
X16878300Y-7326000D02*
X16878300Y-7406000D01*
X16838300Y-7366000D02*
X16918300Y-7366000D01*
X16878300Y-7834000D02*
X16878300Y-7914000D01*
X16838300Y-7874000D02*
X16918300Y-7874000D01*
X16878300Y-8596000D02*
X16878300Y-8676000D01*
X16838300Y-8636000D02*
X16918300Y-8636000D01*
X16979900Y-12406000D02*
X16979900Y-12486000D01*
X16939900Y-12446000D02*
X17019900Y-12446000D01*
X16979900Y-13930000D02*
X16979900Y-14010000D01*
X16939900Y-13970000D02*
X17019900Y-13970000D01*
X17145000Y-11771000D02*
X17145000Y-11851000D01*
X17105000Y-11811000D02*
X17185000Y-11811000D01*
X17149000Y-8786500D02*
X17149000Y-8866500D01*
X17109000Y-8826500D02*
X17189000Y-8826500D01*
X17149000Y-11263000D02*
X17149000Y-11343000D01*
X17109000Y-11303000D02*
X17189000Y-11303000D01*
X17149000Y-11517000D02*
X17149000Y-11597000D01*
X17109000Y-11557000D02*
X17189000Y-11557000D01*
X17233900Y-12406000D02*
X17233900Y-12486000D01*
X17193900Y-12446000D02*
X17273900Y-12446000D01*
X17233900Y-13930000D02*
X17233900Y-14010000D01*
X17193900Y-13970000D02*
X17273900Y-13970000D01*
X17272000Y-5806000D02*
X17272000Y-5886000D01*
X17232000Y-5846000D02*
X17312000Y-5846000D01*
X17272000Y-6056000D02*
X17272000Y-6136000D01*
X17232000Y-6096000D02*
X17312000Y-6096000D01*
X17272000Y-7203000D02*
X17272000Y-7283000D01*
X17232000Y-7243000D02*
X17312000Y-7243000D01*
X17272000Y-7453000D02*
X17272000Y-7533000D01*
X17232000Y-7493000D02*
X17312000Y-7493000D01*
X17395000Y-11771000D02*
X17395000Y-11851000D01*
X17355000Y-11811000D02*
X17435000Y-11811000D01*
X17399000Y-8786500D02*
X17399000Y-8866500D01*
X17359000Y-8826500D02*
X17439000Y-8826500D01*
X17399000Y-11263000D02*
X17399000Y-11343000D01*
X17359000Y-11303000D02*
X17439000Y-11303000D01*
X17399000Y-11517000D02*
X17399000Y-11597000D01*
X17359000Y-11557000D02*
X17439000Y-11557000D01*
X17487900Y-12406000D02*
X17487900Y-12486000D01*
X17447900Y-12446000D02*
X17527900Y-12446000D01*
X17487900Y-13930000D02*
X17487900Y-14010000D01*
X17447900Y-13970000D02*
X17527900Y-13970000D01*
X17513300Y-5294000D02*
X17513300Y-5374000D01*
X17473300Y-5334000D02*
X17553300Y-5334000D01*
X17513300Y-6056000D02*
X17513300Y-6136000D01*
X17473300Y-6096000D02*
X17553300Y-6096000D01*
X17513300Y-6564000D02*
X17513300Y-6644000D01*
X17473300Y-6604000D02*
X17553300Y-6604000D01*
X17513300Y-7326000D02*
X17513300Y-7406000D01*
X17473300Y-7366000D02*
X17553300Y-7366000D01*
X17513300Y-7834000D02*
X17513300Y-7914000D01*
X17473300Y-7874000D02*
X17553300Y-7874000D01*
X17513300Y-8596000D02*
X17513300Y-8676000D01*
X17473300Y-8636000D02*
X17553300Y-8636000D01*
X17741900Y-12406000D02*
X17741900Y-12486000D01*
X17701900Y-12446000D02*
X17781900Y-12446000D01*
X17741900Y-13930000D02*
X17741900Y-14010000D01*
X17701900Y-13970000D02*
X17781900Y-13970000D01*
X17767300Y-5294000D02*
X17767300Y-5374000D01*
X17727300Y-5334000D02*
X17807300Y-5334000D01*
X17767300Y-6056000D02*
X17767300Y-6136000D01*
X17727300Y-6096000D02*
X17807300Y-6096000D01*
X17767300Y-6564000D02*
X17767300Y-6644000D01*
X17727300Y-6604000D02*
X17807300Y-6604000D01*
X17767300Y-7326000D02*
X17767300Y-7406000D01*
X17727300Y-7366000D02*
X17807300Y-7366000D01*
X17767300Y-7834000D02*
X17767300Y-7914000D01*
X17727300Y-7874000D02*
X17807300Y-7874000D01*
X17767300Y-8596000D02*
X17767300Y-8676000D01*
X17727300Y-8636000D02*
X17807300Y-8636000D01*
X17995900Y-12406000D02*
X17995900Y-12486000D01*
X17955900Y-12446000D02*
X18035900Y-12446000D01*
X17995900Y-13930000D02*
X17995900Y-14010000D01*
X17955900Y-13970000D02*
X18035900Y-13970000D01*
X18021300Y-5294000D02*
X18021300Y-5374000D01*
X17981300Y-5334000D02*
X18061300Y-5334000D01*
X18021300Y-6056000D02*
X18021300Y-6136000D01*
X17981300Y-6096000D02*
X18061300Y-6096000D01*
X18021300Y-6564000D02*
X18021300Y-6644000D01*
X17981300Y-6604000D02*
X18061300Y-6604000D01*
X18021300Y-7326000D02*
X18021300Y-7406000D01*
X17981300Y-7366000D02*
X18061300Y-7366000D01*
X18021300Y-7834000D02*
X18021300Y-7914000D01*
X17981300Y-7874000D02*
X18061300Y-7874000D01*
X18021300Y-8596000D02*
X18021300Y-8676000D01*
X17981300Y-8636000D02*
X18061300Y-8636000D01*
X18249900Y-12406000D02*
X18249900Y-12486000D01*
X18209900Y-12446000D02*
X18289900Y-12446000D01*
X18249900Y-13930000D02*
X18249900Y-14010000D01*
X18209900Y-13970000D02*
X18289900Y-13970000D01*
X18275300Y-5294000D02*
X18275300Y-5374000D01*
X18235300Y-5334000D02*
X18315300Y-5334000D01*
X18275300Y-6056000D02*
X18275300Y-6136000D01*
X18235300Y-6096000D02*
X18315300Y-6096000D01*
X18275300Y-6564000D02*
X18275300Y-6644000D01*
X18235300Y-6604000D02*
X18315300Y-6604000D01*
X18275300Y-7326000D02*
X18275300Y-7406000D01*
X18235300Y-7366000D02*
X18315300Y-7366000D01*
X18275300Y-7834000D02*
X18275300Y-7914000D01*
X18235300Y-7874000D02*
X18315300Y-7874000D01*
X18275300Y-8596000D02*
X18275300Y-8676000D01*
X18235300Y-8636000D02*
X18315300Y-8636000D01*
X18503900Y-12406000D02*
X18503900Y-12486000D01*
X18463900Y-12446000D02*
X18543900Y-12446000D01*
X18503900Y-13930000D02*
X18503900Y-14010000D01*
X18463900Y-13970000D02*
X18543900Y-13970000D01*
X18529300Y-5294000D02*
X18529300Y-5374000D01*
X18489300Y-5334000D02*
X18569300Y-5334000D01*
X18529300Y-6056000D02*
X18529300Y-6136000D01*
X18489300Y-6096000D02*
X18569300Y-6096000D01*
X18529300Y-6564000D02*
X18529300Y-6644000D01*
X18489300Y-6604000D02*
X18569300Y-6604000D01*
X18529300Y-7326000D02*
X18529300Y-7406000D01*
X18489300Y-7366000D02*
X18569300Y-7366000D01*
X18529300Y-7834000D02*
X18529300Y-7914000D01*
X18489300Y-7874000D02*
X18569300Y-7874000D01*
X18529300Y-8596000D02*
X18529300Y-8676000D01*
X18489300Y-8636000D02*
X18569300Y-8636000D01*
X18757900Y-12406000D02*
X18757900Y-12486000D01*
X18717900Y-12446000D02*
X18797900Y-12446000D01*
X18757900Y-13930000D02*
X18757900Y-14010000D01*
X18717900Y-13970000D02*
X18797900Y-13970000D01*
X18783300Y-5294000D02*
X18783300Y-5374000D01*
X18743300Y-5334000D02*
X18823300Y-5334000D01*
X18783300Y-6056000D02*
X18783300Y-6136000D01*
X18743300Y-6096000D02*
X18823300Y-6096000D01*
X18783300Y-6564000D02*
X18783300Y-6644000D01*
X18743300Y-6604000D02*
X18823300Y-6604000D01*
X18783300Y-7326000D02*
X18783300Y-7406000D01*
X18743300Y-7366000D02*
X18823300Y-7366000D01*
X18783300Y-7834000D02*
X18783300Y-7914000D01*
X18743300Y-7874000D02*
X18823300Y-7874000D01*
X18783300Y-8596000D02*
X18783300Y-8676000D01*
X18743300Y-8636000D02*
X18823300Y-8636000D01*
X19011900Y-12406000D02*
X19011900Y-12486000D01*
X18971900Y-12446000D02*
X19051900Y-12446000D01*
X19011900Y-13930000D02*
X19011900Y-14010000D01*
X18971900Y-13970000D02*
X19051900Y-13970000D01*
X19037300Y-5294000D02*
X19037300Y-5374000D01*
X18997300Y-5334000D02*
X19077300Y-5334000D01*
X19037300Y-6056000D02*
X19037300Y-6136000D01*
X18997300Y-6096000D02*
X19077300Y-6096000D01*
X19037300Y-6564000D02*
X19037300Y-6644000D01*
X18997300Y-6604000D02*
X19077300Y-6604000D01*
X19037300Y-7326000D02*
X19037300Y-7406000D01*
X18997300Y-7366000D02*
X19077300Y-7366000D01*
X19037300Y-7834000D02*
X19037300Y-7914000D01*
X18997300Y-7874000D02*
X19077300Y-7874000D01*
X19037300Y-8596000D02*
X19037300Y-8676000D01*
X18997300Y-8636000D02*
X19077300Y-8636000D01*
X19265900Y-12406000D02*
X19265900Y-12486000D01*
X19225900Y-12446000D02*
X19305900Y-12446000D01*
X19265900Y-13930000D02*
X19265900Y-14010000D01*
X19225900Y-13970000D02*
X19305900Y-13970000D01*
X19291300Y-5294000D02*
X19291300Y-5374000D01*
X19251300Y-5334000D02*
X19331300Y-5334000D01*
X19291300Y-6056000D02*
X19291300Y-6136000D01*
X19251300Y-6096000D02*
X19331300Y-6096000D01*
X19291300Y-6564000D02*
X19291300Y-6644000D01*
X19251300Y-6604000D02*
X19331300Y-6604000D01*
X19291300Y-7326000D02*
X19291300Y-7406000D01*
X19251300Y-7366000D02*
X19331300Y-7366000D01*
X19291300Y-7834000D02*
X19291300Y-7914000D01*
X19251300Y-7874000D02*
X19331300Y-7874000D01*
X19291300Y-8596000D02*
X19291300Y-8676000D01*
X19251300Y-8636000D02*
X19331300Y-8636000D01*
X19519900Y-12406000D02*
X19519900Y-12486000D01*
X19479900Y-12446000D02*
X19559900Y-12446000D01*
X19519900Y-13930000D02*
X19519900Y-14010000D01*
X19479900Y-13970000D02*
X19559900Y-13970000D01*
X19545300Y-5294000D02*
X19545300Y-5374000D01*
X19505300Y-5334000D02*
X19585300Y-5334000D01*
X19545300Y-6056000D02*
X19545300Y-6136000D01*
X19505300Y-6096000D02*
X19585300Y-6096000D01*
X19545300Y-6564000D02*
X19545300Y-6644000D01*
X19505300Y-6604000D02*
X19585300Y-6604000D01*
X19545300Y-7326000D02*
X19545300Y-7406000D01*
X19505300Y-7366000D02*
X19585300Y-7366000D01*
X19545300Y-7834000D02*
X19545300Y-7914000D01*
X19505300Y-7874000D02*
X19585300Y-7874000D01*
X19545300Y-8596000D02*
X19545300Y-8676000D01*
X19505300Y-8636000D02*
X19585300Y-8636000D01*
X19812000Y-6060000D02*
X19812000Y-6140000D01*
X19772000Y-6100000D02*
X19852000Y-6100000D01*
X19812000Y-6310000D02*
X19812000Y-6390000D01*
X19772000Y-6350000D02*
X19852000Y-6350000D01*
X19812000Y-7203000D02*
X19812000Y-7283000D01*
X19772000Y-7243000D02*
X19852000Y-7243000D01*
X19812000Y-7453000D02*
X19812000Y-7533000D01*
X19772000Y-7493000D02*
X19852000Y-7493000D01*
X19812000Y-8219000D02*
X19812000Y-8299000D01*
X19772000Y-8259000D02*
X19852000Y-8259000D01*
X19812000Y-8469000D02*
X19812000Y-8549000D01*
X19772000Y-8509000D02*
X19852000Y-8509000D01*
X20955000Y-12025000D02*
X20955000Y-12105000D01*
X20915000Y-12065000D02*
X20995000Y-12065000D01*
X20955000Y-12275000D02*
X20955000Y-12355000D01*
X20915000Y-12315000D02*
X20995000Y-12315000D01*
X9299737Y-8791737D02*
X9299737Y-8734263D01*
X9242263Y-8734263D01*
X9242263Y-8791737D01*
X9299737Y-8791737D01*
X9299737Y-9045737D02*
X9299737Y-8988263D01*
X9242263Y-8988263D01*
X9242263Y-9045737D01*
X9299737Y-9045737D01*
X9299737Y-9934737D02*
X9299737Y-9877263D01*
X9242263Y-9877263D01*
X9242263Y-9934737D01*
X9299737Y-9934737D01*
X9299737Y-10188737D02*
X9299737Y-10131263D01*
X9242263Y-10131263D01*
X9242263Y-10188737D01*
X9299737Y-10188737D01*
X9299737Y-10442737D02*
X9299737Y-10385263D01*
X9242263Y-10385263D01*
X9242263Y-10442737D01*
X9299737Y-10442737D01*
X9299737Y-10696737D02*
X9299737Y-10639263D01*
X9242263Y-10639263D01*
X9242263Y-10696737D01*
X9299737Y-10696737D01*
X9299737Y-10950737D02*
X9299737Y-10893263D01*
X9242263Y-10893263D01*
X9242263Y-10950737D01*
X9299737Y-10950737D01*
X9299737Y-11204737D02*
X9299737Y-11147263D01*
X9242263Y-11147263D01*
X9242263Y-11204737D01*
X9299737Y-11204737D01*
X9909337Y-11458737D02*
X9909337Y-11401263D01*
X9851863Y-11401263D01*
X9851863Y-11458737D01*
X9909337Y-11458737D01*
X9909337Y-12220737D02*
X9909337Y-12163263D01*
X9851863Y-12163263D01*
X9851863Y-12220737D01*
X9909337Y-12220737D01*
X9909337Y-13516137D02*
X9909337Y-13458663D01*
X9851863Y-13458663D01*
X9851863Y-13516137D01*
X9909337Y-13516137D01*
X9909337Y-14278137D02*
X9909337Y-14220663D01*
X9851863Y-14220663D01*
X9851863Y-14278137D01*
X9909337Y-14278137D01*
X10061737Y-8791737D02*
X10061737Y-8734263D01*
X10004263Y-8734263D01*
X10004263Y-8791737D01*
X10061737Y-8791737D01*
X10061737Y-9045737D02*
X10061737Y-8988263D01*
X10004263Y-8988263D01*
X10004263Y-9045737D01*
X10061737Y-9045737D01*
X10061737Y-9934737D02*
X10061737Y-9877263D01*
X10004263Y-9877263D01*
X10004263Y-9934737D01*
X10061737Y-9934737D01*
X10061737Y-10188737D02*
X10061737Y-10131263D01*
X10004263Y-10131263D01*
X10004263Y-10188737D01*
X10061737Y-10188737D01*
X10061737Y-10442737D02*
X10061737Y-10385263D01*
X10004263Y-10385263D01*
X10004263Y-10442737D01*
X10061737Y-10442737D01*
X10061737Y-10696737D02*
X10061737Y-10639263D01*
X10004263Y-10639263D01*
X10004263Y-10696737D01*
X10061737Y-10696737D01*
X10061737Y-10950737D02*
X10061737Y-10893263D01*
X10004263Y-10893263D01*
X10004263Y-10950737D01*
X10061737Y-10950737D01*
X10061737Y-11204737D02*
X10061737Y-11147263D01*
X10004263Y-11147263D01*
X10004263Y-11204737D01*
X10061737Y-11204737D01*
X10163337Y-11458737D02*
X10163337Y-11401263D01*
X10105863Y-11401263D01*
X10105863Y-11458737D01*
X10163337Y-11458737D01*
X10163337Y-12220737D02*
X10163337Y-12163263D01*
X10105863Y-12163263D01*
X10105863Y-12220737D01*
X10163337Y-12220737D01*
X10671337Y-11458737D02*
X10671337Y-11401263D01*
X10613863Y-11401263D01*
X10613863Y-11458737D01*
X10671337Y-11458737D01*
X10671337Y-12220737D02*
X10671337Y-12163263D01*
X10613863Y-12163263D01*
X10613863Y-12220737D01*
X10671337Y-12220737D01*
X10925337Y-11458737D02*
X10925337Y-11401263D01*
X10867863Y-11401263D01*
X10867863Y-11458737D01*
X10925337Y-11458737D01*
X10925337Y-12220737D02*
X10925337Y-12163263D01*
X10867863Y-12163263D01*
X10867863Y-12220737D01*
X10925337Y-12220737D01*
X11179337Y-13541537D02*
X11179337Y-13484063D01*
X11121863Y-13484063D01*
X11121863Y-13541537D01*
X11179337Y-13541537D01*
X11179337Y-14303537D02*
X11179337Y-14246063D01*
X11121863Y-14246063D01*
X11121863Y-14303537D01*
X11179337Y-14303537D01*
X11585737Y-9807737D02*
X11585737Y-9750263D01*
X11528263Y-9750263D01*
X11528263Y-9807737D01*
X11585737Y-9807737D01*
X11585737Y-10315737D02*
X11585737Y-10258263D01*
X11528263Y-10258263D01*
X11528263Y-10315737D01*
X11585737Y-10315737D01*
X12347737Y-9807737D02*
X12347737Y-9750263D01*
X12290263Y-9750263D01*
X12290263Y-9807737D01*
X12347737Y-9807737D01*
X12347737Y-10315737D02*
X12347737Y-10258263D01*
X12290263Y-10258263D01*
X12290263Y-10315737D01*
X12347737Y-10315737D01*
X17935737Y-11331737D02*
X17935737Y-11274263D01*
X17878263Y-11274263D01*
X17878263Y-11331737D01*
X17935737Y-11331737D01*
X17935737Y-11585737D02*
X17935737Y-11528263D01*
X17878263Y-11528263D01*
X17878263Y-11585737D01*
X17935737Y-11585737D01*
X17935737Y-11839737D02*
X17935737Y-11782263D01*
X17878263Y-11782263D01*
X17878263Y-11839737D01*
X17935737Y-11839737D01*
X18697737Y-11331737D02*
X18697737Y-11274263D01*
X18640263Y-11274263D01*
X18640263Y-11331737D01*
X18697737Y-11331737D01*
X18697737Y-11585737D02*
X18697737Y-11528263D01*
X18640263Y-11528263D01*
X18640263Y-11585737D01*
X18697737Y-11585737D01*
X18697737Y-11839737D02*
X18697737Y-11782263D01*
X18640263Y-11782263D01*
X18640263Y-11839737D01*
X18697737Y-11839737D01*
X7105904Y-7198106D02*
X7150862Y-7153148D01*
X7105904Y-7108190D01*
X7060946Y-7153148D01*
X7105904Y-7198106D01*
X7105904Y-7877810D02*
X7150862Y-7832852D01*
X7105904Y-7787894D01*
X7060946Y-7832852D01*
X7105904Y-7877810D01*
X7350760Y-7877810D02*
X7395718Y-7832852D01*
X7350760Y-7787894D01*
X7305802Y-7832852D01*
X7350760Y-7877810D01*
X7355840Y-7198106D02*
X7400798Y-7153148D01*
X7355840Y-7108190D01*
X7310882Y-7153148D01*
X7355840Y-7198106D01*
X11888000Y-7824000D02*
X11988000Y-7924000D01*
X11988000Y-7824000D02*
X11888000Y-7924000D01*
X11988000Y-7874000D02*
G75*
G03X11988000Y-7874000I-50000J0D01*
G01*
X11888000Y-8586000D02*
X11988000Y-8686000D01*
X11988000Y-8586000D02*
X11888000Y-8686000D01*
X11988000Y-8636000D02*
G75*
G03X11988000Y-8636000I-50000J0D01*
G01*
X13412000Y-7824000D02*
X13512000Y-7924000D01*
X13512000Y-7824000D02*
X13412000Y-7924000D01*
X13512000Y-7874000D02*
G75*
G03X13512000Y-7874000I-50000J0D01*
G01*
X13412000Y-8586000D02*
X13512000Y-8686000D01*
X13512000Y-8586000D02*
X13412000Y-8686000D01*
X13512000Y-8636000D02*
G75*
G03X13512000Y-8636000I-50000J0D01*
G01*
X20079500Y-9094000D02*
X20179500Y-9194000D01*
X20179500Y-9094000D02*
X20079500Y-9194000D01*
X20179500Y-9144000D02*
G75*
G03X20179500Y-9144000I-50000J0D01*
G01*
X20333500Y-9094000D02*
X20433500Y-9194000D01*
X20433500Y-9094000D02*
X20333500Y-9194000D01*
X20433500Y-9144000D02*
G75*
G03X20433500Y-9144000I-50000J0D01*
G01*
X21475700Y-6489700D02*
X21577300Y-6591300D01*
X21577300Y-6489700D02*
X21475700Y-6591300D01*
X21526500Y-6489700D02*
X21526500Y-6591300D01*
X21475700Y-6540500D02*
X21577300Y-6540500D01*
X21475700Y-6743700D02*
X21577300Y-6845300D01*
X21577300Y-6743700D02*
X21475700Y-6845300D01*
X21526500Y-6743700D02*
X21526500Y-6845300D01*
X21475700Y-6794500D02*
X21577300Y-6794500D01*
X21475700Y-6997700D02*
X21577300Y-7099300D01*
X21577300Y-6997700D02*
X21475700Y-7099300D01*
X21526500Y-6997700D02*
X21526500Y-7099300D01*
X21475700Y-7048500D02*
X21577300Y-7048500D01*
X21475700Y-7251700D02*
X21577300Y-7353300D01*
X21577300Y-7251700D02*
X21475700Y-7353300D01*
X21526500Y-7251700D02*
X21526500Y-7353300D01*
X21475700Y-7302500D02*
X21577300Y-7302500D01*
X21475700Y-7505700D02*
X21577300Y-7607300D01*
X21577300Y-7505700D02*
X21475700Y-7607300D01*
X21526500Y-7505700D02*
X21526500Y-7607300D01*
X21475700Y-7556500D02*
X21577300Y-7556500D01*
X21475700Y-7759700D02*
X21577300Y-7861300D01*
X21577300Y-7759700D02*
X21475700Y-7861300D01*
X21526500Y-7759700D02*
X21526500Y-7861300D01*
X21475700Y-7810500D02*
X21577300Y-7810500D01*
X21475700Y-8013700D02*
X21577300Y-8115300D01*
X21577300Y-8013700D02*
X21475700Y-8115300D01*
X21526500Y-8013700D02*
X21526500Y-8115300D01*
X21475700Y-8064500D02*
X21577300Y-8064500D01*
X21475700Y-8267700D02*
X21577300Y-8369300D01*
X21577300Y-8267700D02*
X21475700Y-8369300D01*
X21526500Y-8267700D02*
X21526500Y-8369300D01*
X21475700Y-8318500D02*
X21577300Y-8318500D01*
X21475700Y-8521700D02*
X21577300Y-8623300D01*
X21577300Y-8521700D02*
X21475700Y-8623300D01*
X21526500Y-8521700D02*
X21526500Y-8623300D01*
X21475700Y-8572500D02*
X21577300Y-8572500D01*
X21475700Y-8775700D02*
X21577300Y-8877300D01*
X21577300Y-8775700D02*
X21475700Y-8877300D01*
X21526500Y-8775700D02*
X21526500Y-8877300D01*
X21475700Y-8826500D02*
X21577300Y-8826500D01*
X21475700Y-9029700D02*
X21577300Y-9131300D01*
X21577300Y-9029700D02*
X21475700Y-9131300D01*
X21526500Y-9029700D02*
X21526500Y-9131300D01*
X21475700Y-9080500D02*
X21577300Y-9080500D01*
X21475700Y-9283700D02*
X21577300Y-9385300D01*
X21577300Y-9283700D02*
X21475700Y-9385300D01*
X21526500Y-9283700D02*
X21526500Y-9385300D01*
X21475700Y-9334500D02*
X21577300Y-9334500D01*
X21475700Y-9537700D02*
X21577300Y-9639300D01*
X21577300Y-9537700D02*
X21475700Y-9639300D01*
X21526500Y-9537700D02*
X21526500Y-9639300D01*
X21475700Y-9588500D02*
X21577300Y-9588500D01*
X21475700Y-9791700D02*
X21577300Y-9893300D01*
X21577300Y-9791700D02*
X21475700Y-9893300D01*
X21526500Y-9791700D02*
X21526500Y-9893300D01*
X21475700Y-9842500D02*
X21577300Y-9842500D01*
X21475700Y-10045700D02*
X21577300Y-10147300D01*
X21577300Y-10045700D02*
X21475700Y-10147300D01*
X21526500Y-10045700D02*
X21526500Y-10147300D01*
X21475700Y-10096500D02*
X21577300Y-10096500D01*
X21475700Y-10299700D02*
X21577300Y-10401300D01*
X21577300Y-10299700D02*
X21475700Y-10401300D01*
X21526500Y-10299700D02*
X21526500Y-10401300D01*
X21475700Y-10350500D02*
X21577300Y-10350500D01*
X21475700Y-10553700D02*
X21577300Y-10655300D01*
X21577300Y-10553700D02*
X21475700Y-10655300D01*
X21526500Y-10553700D02*
X21526500Y-10655300D01*
X21475700Y-10604500D02*
X21577300Y-10604500D01*
X21475700Y-10807700D02*
X21577300Y-10909300D01*
X21577300Y-10807700D02*
X21475700Y-10909300D01*
X21526500Y-10807700D02*
X21526500Y-10909300D01*
X21475700Y-10858500D02*
X21577300Y-10858500D01*
X21475700Y-11061700D02*
X21577300Y-11163300D01*
X21577300Y-11061700D02*
X21475700Y-11163300D01*
X21526500Y-11061700D02*
X21526500Y-11163300D01*
X21475700Y-11112500D02*
X21577300Y-11112500D01*
X21475700Y-11315700D02*
X21577300Y-11417300D01*
X21577300Y-11315700D02*
X21475700Y-11417300D01*
X21526500Y-11315700D02*
X21526500Y-11417300D01*
X21475700Y-11366500D02*
X21577300Y-11366500D01*
X21475700Y-11569700D02*
X21577300Y-11671300D01*
X21577300Y-11569700D02*
X21475700Y-11671300D01*
X21526500Y-11569700D02*
X21526500Y-11671300D01*
X21475700Y-11620500D02*
X21577300Y-11620500D01*
X21475700Y-11823700D02*
X21577300Y-11925300D01*
X21577300Y-11823700D02*
X21475700Y-11925300D01*
X21526500Y-11823700D02*
X21526500Y-11925300D01*
X21475700Y-11874500D02*
X21577300Y-11874500D01*
X21475700Y-12077700D02*
X21577300Y-12179300D01*
X21577300Y-12077700D02*
X21475700Y-12179300D01*
X21526500Y-12077700D02*
X21526500Y-12179300D01*
X21475700Y-12128500D02*
X21577300Y-12128500D01*
X21475700Y-12331700D02*
X21577300Y-12433300D01*
X21577300Y-12331700D02*
X21475700Y-12433300D01*
X21526500Y-12331700D02*
X21526500Y-12433300D01*
X21475700Y-12382500D02*
X21577300Y-12382500D01*
X21475700Y-12585700D02*
X21577300Y-12687300D01*
X21577300Y-12585700D02*
X21475700Y-12687300D01*
X21526500Y-12585700D02*
X21526500Y-12687300D01*
X21475700Y-12636500D02*
X21577300Y-12636500D01*
X21729700Y-6489700D02*
X21831300Y-6591300D01*
X21831300Y-6489700D02*
X21729700Y-6591300D01*
X21780500Y-6489700D02*
X21780500Y-6591300D01*
X21729700Y-6540500D02*
X21831300Y-6540500D01*
X21729700Y-6743700D02*
X21831300Y-6845300D01*
X21831300Y-6743700D02*
X21729700Y-6845300D01*
X21780500Y-6743700D02*
X21780500Y-6845300D01*
X21729700Y-6794500D02*
X21831300Y-6794500D01*
X21729700Y-6997700D02*
X21831300Y-7099300D01*
X21831300Y-6997700D02*
X21729700Y-7099300D01*
X21780500Y-6997700D02*
X21780500Y-7099300D01*
X21729700Y-7048500D02*
X21831300Y-7048500D01*
X21729700Y-7251700D02*
X21831300Y-7353300D01*
X21831300Y-7251700D02*
X21729700Y-7353300D01*
X21780500Y-7251700D02*
X21780500Y-7353300D01*
X21729700Y-7302500D02*
X21831300Y-7302500D01*
X21729700Y-7505700D02*
X21831300Y-7607300D01*
X21831300Y-7505700D02*
X21729700Y-7607300D01*
X21780500Y-7505700D02*
X21780500Y-7607300D01*
X21729700Y-7556500D02*
X21831300Y-7556500D01*
X21729700Y-7759700D02*
X21831300Y-7861300D01*
X21831300Y-7759700D02*
X21729700Y-7861300D01*
X21780500Y-7759700D02*
X21780500Y-7861300D01*
X21729700Y-7810500D02*
X21831300Y-7810500D01*
X21729700Y-8013700D02*
X21831300Y-8115300D01*
X21831300Y-8013700D02*
X21729700Y-8115300D01*
X21780500Y-8013700D02*
X21780500Y-8115300D01*
X21729700Y-8064500D02*
X21831300Y-8064500D01*
X21729700Y-8267700D02*
X21831300Y-8369300D01*
X21831300Y-8267700D02*
X21729700Y-8369300D01*
X21780500Y-8267700D02*
X21780500Y-8369300D01*
X21729700Y-8318500D02*
X21831300Y-8318500D01*
X21729700Y-8521700D02*
X21831300Y-8623300D01*
X21831300Y-8521700D02*
X21729700Y-8623300D01*
X21780500Y-8521700D02*
X21780500Y-8623300D01*
X21729700Y-8572500D02*
X21831300Y-8572500D01*
X21729700Y-8775700D02*
X21831300Y-8877300D01*
X21831300Y-8775700D02*
X21729700Y-8877300D01*
X21780500Y-8775700D02*
X21780500Y-8877300D01*
X21729700Y-8826500D02*
X21831300Y-8826500D01*
X21729700Y-9029700D02*
X21831300Y-9131300D01*
X21831300Y-9029700D02*
X21729700Y-9131300D01*
X21780500Y-9029700D02*
X21780500Y-9131300D01*
X21729700Y-9080500D02*
X21831300Y-9080500D01*
X21729700Y-9283700D02*
X21831300Y-9385300D01*
X21831300Y-9283700D02*
X21729700Y-9385300D01*
X21780500Y-9283700D02*
X21780500Y-9385300D01*
X21729700Y-9334500D02*
X21831300Y-9334500D01*
X21729700Y-9537700D02*
X21831300Y-9639300D01*
X21831300Y-9537700D02*
X21729700Y-9639300D01*
X21780500Y-9537700D02*
X21780500Y-9639300D01*
X21729700Y-9588500D02*
X21831300Y-9588500D01*
X21729700Y-9791700D02*
X21831300Y-9893300D01*
X21831300Y-9791700D02*
X21729700Y-9893300D01*
X21780500Y-9791700D02*
X21780500Y-9893300D01*
X21729700Y-9842500D02*
X21831300Y-9842500D01*
X21729700Y-10045700D02*
X21831300Y-10147300D01*
X21831300Y-10045700D02*
X21729700Y-10147300D01*
X21780500Y-10045700D02*
X21780500Y-10147300D01*
X21729700Y-10096500D02*
X21831300Y-10096500D01*
X21729700Y-10299700D02*
X21831300Y-10401300D01*
X21831300Y-10299700D02*
X21729700Y-10401300D01*
X21780500Y-10299700D02*
X21780500Y-10401300D01*
X21729700Y-10350500D02*
X21831300Y-10350500D01*
X21729700Y-10553700D02*
X21831300Y-10655300D01*
X21831300Y-10553700D02*
X21729700Y-10655300D01*
X21780500Y-10553700D02*
X21780500Y-10655300D01*
X21729700Y-10604500D02*
X21831300Y-10604500D01*
X21729700Y-10807700D02*
X21831300Y-10909300D01*
X21831300Y-10807700D02*
X21729700Y-10909300D01*
X21780500Y-10807700D02*
X21780500Y-10909300D01*
X21729700Y-10858500D02*
X21831300Y-10858500D01*
X21729700Y-11061700D02*
X21831300Y-11163300D01*
X21831300Y-11061700D02*
X21729700Y-11163300D01*
X21780500Y-11061700D02*
X21780500Y-11163300D01*
X21729700Y-11112500D02*
X21831300Y-11112500D01*
X21729700Y-11315700D02*
X21831300Y-11417300D01*
X21831300Y-11315700D02*
X21729700Y-11417300D01*
X21780500Y-11315700D02*
X21780500Y-11417300D01*
X21729700Y-11366500D02*
X21831300Y-11366500D01*
X21729700Y-11569700D02*
X21831300Y-11671300D01*
X21831300Y-11569700D02*
X21729700Y-11671300D01*
X21780500Y-11569700D02*
X21780500Y-11671300D01*
X21729700Y-11620500D02*
X21831300Y-11620500D01*
X21729700Y-11823700D02*
X21831300Y-11925300D01*
X21831300Y-11823700D02*
X21729700Y-11925300D01*
X21780500Y-11823700D02*
X21780500Y-11925300D01*
X21729700Y-11874500D02*
X21831300Y-11874500D01*
X21729700Y-12077700D02*
X21831300Y-12179300D01*
X21831300Y-12077700D02*
X21729700Y-12179300D01*
X21780500Y-12077700D02*
X21780500Y-12179300D01*
X21729700Y-12128500D02*
X21831300Y-12128500D01*
X21729700Y-12331700D02*
X21831300Y-12433300D01*
X21831300Y-12331700D02*
X21729700Y-12433300D01*
X21780500Y-12331700D02*
X21780500Y-12433300D01*
X21729700Y-12382500D02*
X21831300Y-12382500D01*
X21729700Y-12585700D02*
X21831300Y-12687300D01*
X21831300Y-12585700D02*
X21729700Y-12687300D01*
X21780500Y-12585700D02*
X21780500Y-12687300D01*
X21729700Y-12636500D02*
X21831300Y-12636500D01*
X6442400Y-8957000D02*
X6562400Y-9077000D01*
X6562400Y-8957000D02*
X6442400Y-9077000D01*
X6544827Y-9059427D02*
X6544827Y-8974573D01*
X6459973Y-8974573D01*
X6459973Y-9059427D01*
X6544827Y-9059427D01*
X6442400Y-9973000D02*
X6562400Y-10093000D01*
X6562400Y-9973000D02*
X6442400Y-10093000D01*
X6544827Y-10075427D02*
X6544827Y-9990573D01*
X6459973Y-9990573D01*
X6459973Y-10075427D01*
X6544827Y-10075427D01*
X6443000Y-9215000D02*
X6563000Y-9335000D01*
X6563000Y-9215000D02*
X6443000Y-9335000D01*
X6545427Y-9317427D02*
X6545427Y-9232573D01*
X6460573Y-9232573D01*
X6460573Y-9317427D01*
X6545427Y-9317427D01*
X6443000Y-9715000D02*
X6563000Y-9835000D01*
X6563000Y-9715000D02*
X6443000Y-9835000D01*
X6545427Y-9817427D02*
X6545427Y-9732573D01*
X6460573Y-9732573D01*
X6460573Y-9817427D01*
X6545427Y-9817427D01*
X7433000Y-8715000D02*
X7553000Y-8835000D01*
X7553000Y-8715000D02*
X7433000Y-8835000D01*
X7535427Y-8817427D02*
X7535427Y-8732573D01*
X7450573Y-8732573D01*
X7450573Y-8817427D01*
X7535427Y-8817427D01*
X7433000Y-9465000D02*
X7553000Y-9585000D01*
X7553000Y-9465000D02*
X7433000Y-9585000D01*
X7535427Y-9567427D02*
X7535427Y-9482573D01*
X7450573Y-9482573D01*
X7450573Y-9567427D01*
X7535427Y-9567427D01*
X7433000Y-10215000D02*
X7553000Y-10335000D01*
X7553000Y-10215000D02*
X7433000Y-10335000D01*
X7535427Y-10317427D02*
X7535427Y-10232573D01*
X7450573Y-10232573D01*
X7450573Y-10317427D01*
X7535427Y-10317427D01*
X7683000Y-8965000D02*
X7803000Y-9085000D01*
X7803000Y-8965000D02*
X7683000Y-9085000D01*
X7785427Y-9067427D02*
X7785427Y-8982573D01*
X7700573Y-8982573D01*
X7700573Y-9067427D01*
X7785427Y-9067427D01*
X7683000Y-9965000D02*
X7803000Y-10085000D01*
X7803000Y-9965000D02*
X7683000Y-10085000D01*
X7785427Y-10067427D02*
X7785427Y-9982573D01*
X7700573Y-9982573D01*
X7700573Y-10067427D01*
X7785427Y-10067427D01*
X7933000Y-8715000D02*
X8053000Y-8835000D01*
X8053000Y-8715000D02*
X7933000Y-8835000D01*
X8035427Y-8817427D02*
X8035427Y-8732573D01*
X7950573Y-8732573D01*
X7950573Y-8817427D01*
X8035427Y-8817427D01*
X7933000Y-9465000D02*
X8053000Y-9585000D01*
X8053000Y-9465000D02*
X7933000Y-9585000D01*
X8035427Y-9567427D02*
X8035427Y-9482573D01*
X7950573Y-9482573D01*
X7950573Y-9567427D01*
X8035427Y-9567427D01*
X7933000Y-10215000D02*
X8053000Y-10335000D01*
X8053000Y-10215000D02*
X7933000Y-10335000D01*
X8035427Y-10317427D02*
X8035427Y-10232573D01*
X7950573Y-10232573D01*
X7950573Y-10317427D01*
X8035427Y-10317427D01*
X6666400Y-11213000D02*
X6846400Y-11393000D01*
X6846400Y-11213000D02*
X6666400Y-11393000D01*
X6756400Y-11393000D02*
X6846400Y-11303000D01*
X6756400Y-11213000D01*
X6666400Y-11303000D01*
X6756400Y-11393000D01*
X6666400Y-12610000D02*
X6846400Y-12790000D01*
X6846400Y-12610000D02*
X6666400Y-12790000D01*
X6756400Y-12790000D02*
X6846400Y-12700000D01*
X6756400Y-12610000D01*
X6666400Y-12700000D01*
X6756400Y-12790000D01*
X7555400Y-10705000D02*
X7735400Y-10885000D01*
X7735400Y-10705000D02*
X7555400Y-10885000D01*
X7645400Y-10885000D02*
X7735400Y-10795000D01*
X7645400Y-10705000D01*
X7555400Y-10795000D01*
X7645400Y-10885000D01*
X7555400Y-11721000D02*
X7735400Y-11901000D01*
X7735400Y-11721000D02*
X7555400Y-11901000D01*
X7645400Y-11901000D02*
X7735400Y-11811000D01*
X7645400Y-11721000D01*
X7555400Y-11811000D01*
X7645400Y-11901000D01*
X7555400Y-12102000D02*
X7735400Y-12282000D01*
X7735400Y-12102000D02*
X7555400Y-12282000D01*
X7645400Y-12282000D02*
X7735400Y-12192000D01*
X7645400Y-12102000D01*
X7555400Y-12192000D01*
X7645400Y-12282000D01*
X7555400Y-13118000D02*
X7735400Y-13298000D01*
X7735400Y-13118000D02*
X7555400Y-13298000D01*
X7645400Y-13298000D02*
X7735400Y-13208000D01*
X7645400Y-13118000D01*
X7555400Y-13208000D01*
X7645400Y-13298000D01*
X7645400Y-11208000D02*
X7645400Y-11398000D01*
X7550400Y-11303000D02*
X7740400Y-11303000D01*
X7740400Y-11303000D02*
G75*
G03X7740400Y-11303000I-95000J0D01*
G01*
X7645400Y-12605000D02*
X7645400Y-12795000D01*
X7550400Y-12700000D02*
X7740400Y-12700000D01*
X7740400Y-12700000D02*
G75*
G03X7740400Y-12700000I-95000J0D01*
G01*
X6807446Y-7574272D02*
X6807446Y-7411728D01*
X6644902Y-7411728D01*
X6644902Y-7574272D01*
X6807446Y-7574272D01*
X6841109Y-7493000D02*
G75*
G03X6841109Y-7493000I-114935J0D01*
G01*
X6887202Y-6894314D02*
X6887202Y-6731770D01*
X6724658Y-6731770D01*
X6724658Y-6894314D01*
X6887202Y-6894314D01*
X6920865Y-6813042D02*
G75*
G03X6920865Y-6813042I-114935J0D01*
G01*
X6887202Y-8249150D02*
X6887202Y-8086606D01*
X6724658Y-8086606D01*
X6724658Y-8249150D01*
X6887202Y-8249150D01*
X6920865Y-8167878D02*
G75*
G03X6920865Y-8167878I-114935J0D01*
G01*
X6858000Y-5433187D02*
X7007987Y-5283200D01*
X6858000Y-5133213D01*
X6708013Y-5283200D01*
X6858000Y-5433187D01*
X7007987Y-5283200D02*
G75*
G03X7007987Y-5283200I-149987J0D01*
G01*
X6858000Y-14043787D02*
X7007987Y-13893800D01*
X6858000Y-13743813D01*
X6708013Y-13893800D01*
X6858000Y-14043787D01*
X7007987Y-13893800D02*
G75*
G03X7007987Y-13893800I-149987J0D01*
G01*
X21564600Y-5407787D02*
X21714587Y-5257800D01*
X21564600Y-5107813D01*
X21414613Y-5257800D01*
X21564600Y-5407787D01*
X21714587Y-5257800D02*
G75*
G03X21714587Y-5257800I-149987J0D01*
G01*
X21564600Y-14043787D02*
X21714587Y-13893800D01*
X21564600Y-13743813D01*
X21414613Y-13893800D01*
X21564600Y-14043787D01*
X21714587Y-13893800D02*
G75*
G03X21714587Y-13893800I-149987J0D01*
G01*
D13*
X6489428Y-15075714D02*
X6489428Y-14775714D01*
X6560857Y-14775714D01*
X6603714Y-14790000D01*
X6632286Y-14818571D01*
X6646571Y-14847143D01*
X6660857Y-14904286D01*
X6660857Y-14947143D01*
X6646571Y-15004286D01*
X6632286Y-15032857D01*
X6603714Y-15061429D01*
X6560857Y-15075714D01*
X6489428Y-15075714D01*
X6789428Y-15075714D02*
X6789428Y-14875714D01*
X6789428Y-14932857D02*
X6803714Y-14904286D01*
X6818000Y-14890000D01*
X6846571Y-14875714D01*
X6875143Y-14875714D01*
X6975143Y-15075714D02*
X6975143Y-14875714D01*
X6975143Y-14775714D02*
X6960857Y-14790000D01*
X6975143Y-14804286D01*
X6989428Y-14790000D01*
X6975143Y-14775714D01*
X6975143Y-14804286D01*
X7160857Y-15075714D02*
X7132286Y-15061429D01*
X7118000Y-15032857D01*
X7118000Y-14775714D01*
X7318000Y-15075714D02*
X7289428Y-15061429D01*
X7275143Y-15032857D01*
X7275143Y-14775714D01*
X7660857Y-15075714D02*
X7660857Y-14775714D01*
X7760857Y-14990000D01*
X7860857Y-14775714D01*
X7860857Y-15075714D01*
X8132286Y-15075714D02*
X8132286Y-14918571D01*
X8118000Y-14890000D01*
X8089428Y-14875714D01*
X8032286Y-14875714D01*
X8003714Y-14890000D01*
X8132286Y-15061429D02*
X8103714Y-15075714D01*
X8032286Y-15075714D01*
X8003714Y-15061429D01*
X7989428Y-15032857D01*
X7989428Y-15004286D01*
X8003714Y-14975714D01*
X8032286Y-14961429D01*
X8103714Y-14961429D01*
X8132286Y-14947143D01*
X8275143Y-14875714D02*
X8275143Y-15175714D01*
X8275143Y-14890000D02*
X8303714Y-14875714D01*
X8360857Y-14875714D01*
X8389429Y-14890000D01*
X8403714Y-14904286D01*
X8418000Y-14932857D01*
X8418000Y-15018571D01*
X8403714Y-15047143D01*
X8389429Y-15061429D01*
X8360857Y-15075714D01*
X8303714Y-15075714D01*
X8275143Y-15061429D01*
X8546571Y-15047143D02*
X8560857Y-15061429D01*
X8546571Y-15075714D01*
X8532286Y-15061429D01*
X8546571Y-15047143D01*
X8546571Y-15075714D01*
X8546571Y-14890000D02*
X8560857Y-14904286D01*
X8546571Y-14918571D01*
X8532286Y-14904286D01*
X8546571Y-14890000D01*
X8546571Y-14918571D01*
X6154500Y-15538250D02*
X6218000Y-15601750D01*
X6218000Y-15538250D02*
X6154500Y-15601750D01*
X6546571Y-15405714D02*
X6575143Y-15405714D01*
X6603714Y-15420000D01*
X6618000Y-15434286D01*
X6632286Y-15462857D01*
X6646571Y-15520000D01*
X6646571Y-15591429D01*
X6632286Y-15648571D01*
X6618000Y-15677143D01*
X6603714Y-15691429D01*
X6575143Y-15705714D01*
X6546571Y-15705714D01*
X6518000Y-15691429D01*
X6503714Y-15677143D01*
X6489428Y-15648571D01*
X6475143Y-15591429D01*
X6475143Y-15520000D01*
X6489428Y-15462857D01*
X6503714Y-15434286D01*
X6518000Y-15420000D01*
X6546571Y-15405714D01*
X6775143Y-15677143D02*
X6789428Y-15691429D01*
X6775143Y-15705714D01*
X6760857Y-15691429D01*
X6775143Y-15677143D01*
X6775143Y-15705714D01*
X7046571Y-15405714D02*
X6989428Y-15405714D01*
X6960857Y-15420000D01*
X6946571Y-15434286D01*
X6918000Y-15477143D01*
X6903714Y-15534286D01*
X6903714Y-15648571D01*
X6918000Y-15677143D01*
X6932286Y-15691429D01*
X6960857Y-15705714D01*
X7018000Y-15705714D01*
X7046571Y-15691429D01*
X7060857Y-15677143D01*
X7075143Y-15648571D01*
X7075143Y-15577143D01*
X7060857Y-15548571D01*
X7046571Y-15534286D01*
X7018000Y-15520000D01*
X6960857Y-15520000D01*
X6932286Y-15534286D01*
X6918000Y-15548571D01*
X6903714Y-15577143D01*
X7332286Y-15505714D02*
X7332286Y-15705714D01*
X7260857Y-15391429D02*
X7189428Y-15605714D01*
X7375143Y-15605714D01*
X7489428Y-15705714D02*
X7489428Y-15505714D01*
X7489428Y-15534286D02*
X7503714Y-15520000D01*
X7532286Y-15505714D01*
X7575143Y-15505714D01*
X7603714Y-15520000D01*
X7618000Y-15548571D01*
X7618000Y-15705714D01*
X7618000Y-15548571D02*
X7632286Y-15520000D01*
X7660857Y-15505714D01*
X7703714Y-15505714D01*
X7732286Y-15520000D01*
X7746571Y-15548571D01*
X7746571Y-15705714D01*
X7889428Y-15705714D02*
X7889428Y-15505714D01*
X7889428Y-15534286D02*
X7903714Y-15520000D01*
X7932286Y-15505714D01*
X7975143Y-15505714D01*
X8003714Y-15520000D01*
X8018000Y-15548571D01*
X8018000Y-15705714D01*
X8018000Y-15548571D02*
X8032286Y-15520000D01*
X8060857Y-15505714D01*
X8103714Y-15505714D01*
X8132286Y-15520000D01*
X8146571Y-15548571D01*
X8146571Y-15705714D01*
X8732286Y-15391429D02*
X8475143Y-15777143D01*
X9118000Y-15405714D02*
X9146571Y-15405714D01*
X9175143Y-15420000D01*
X9189428Y-15434286D01*
X9203714Y-15462857D01*
X9218000Y-15520000D01*
X9218000Y-15591429D01*
X9203714Y-15648571D01*
X9189428Y-15677143D01*
X9175143Y-15691429D01*
X9146571Y-15705714D01*
X9118000Y-15705714D01*
X9089428Y-15691429D01*
X9075143Y-15677143D01*
X9060857Y-15648571D01*
X9046571Y-15591429D01*
X9046571Y-15520000D01*
X9060857Y-15462857D01*
X9075143Y-15434286D01*
X9089428Y-15420000D01*
X9118000Y-15405714D01*
X9346571Y-15677143D02*
X9360857Y-15691429D01*
X9346571Y-15705714D01*
X9332286Y-15691429D01*
X9346571Y-15677143D01*
X9346571Y-15705714D01*
X9546571Y-15405714D02*
X9575143Y-15405714D01*
X9603714Y-15420000D01*
X9618000Y-15434286D01*
X9632286Y-15462857D01*
X9646571Y-15520000D01*
X9646571Y-15591429D01*
X9632286Y-15648571D01*
X9618000Y-15677143D01*
X9603714Y-15691429D01*
X9575143Y-15705714D01*
X9546571Y-15705714D01*
X9518000Y-15691429D01*
X9503714Y-15677143D01*
X9489428Y-15648571D01*
X9475143Y-15591429D01*
X9475143Y-15520000D01*
X9489428Y-15462857D01*
X9503714Y-15434286D01*
X9518000Y-15420000D01*
X9546571Y-15405714D01*
X9760857Y-15434286D02*
X9775143Y-15420000D01*
X9803714Y-15405714D01*
X9875143Y-15405714D01*
X9903714Y-15420000D01*
X9918000Y-15434286D01*
X9932286Y-15462857D01*
X9932286Y-15491429D01*
X9918000Y-15534286D01*
X9746571Y-15705714D01*
X9932286Y-15705714D01*
X10203714Y-15405714D02*
X10060857Y-15405714D01*
X10046571Y-15548571D01*
X10060857Y-15534286D01*
X10089428Y-15520000D01*
X10160857Y-15520000D01*
X10189428Y-15534286D01*
X10203714Y-15548571D01*
X10218000Y-15577143D01*
X10218000Y-15648571D01*
X10203714Y-15677143D01*
X10189428Y-15691429D01*
X10160857Y-15705714D01*
X10089428Y-15705714D01*
X10060857Y-15691429D01*
X10046571Y-15677143D01*
X10332286Y-15405714D02*
X10332286Y-15462857D01*
X10446571Y-15405714D02*
X10446571Y-15462857D01*
X10889428Y-15820000D02*
X10875143Y-15805714D01*
X10846571Y-15762857D01*
X10832286Y-15734286D01*
X10818000Y-15691429D01*
X10803714Y-15620000D01*
X10803714Y-15562857D01*
X10818000Y-15491429D01*
X10832286Y-15448571D01*
X10846571Y-15420000D01*
X10875143Y-15377143D01*
X10889428Y-15362857D01*
X11132286Y-15505714D02*
X11132286Y-15705714D01*
X11060857Y-15391429D02*
X10989428Y-15605714D01*
X11175143Y-15605714D01*
X11303714Y-15705714D02*
X11360857Y-15705714D01*
X11389428Y-15691429D01*
X11403714Y-15677143D01*
X11432285Y-15634286D01*
X11446571Y-15577143D01*
X11446571Y-15462857D01*
X11432285Y-15434286D01*
X11418000Y-15420000D01*
X11389428Y-15405714D01*
X11332285Y-15405714D01*
X11303714Y-15420000D01*
X11289428Y-15434286D01*
X11275143Y-15462857D01*
X11275143Y-15534286D01*
X11289428Y-15562857D01*
X11303714Y-15577143D01*
X11332285Y-15591429D01*
X11389428Y-15591429D01*
X11418000Y-15577143D01*
X11432285Y-15562857D01*
X11446571Y-15534286D01*
X11803714Y-15705714D02*
X11803714Y-15405714D01*
X11932285Y-15705714D02*
X11932285Y-15548571D01*
X11918000Y-15520000D01*
X11889428Y-15505714D01*
X11846571Y-15505714D01*
X11818000Y-15520000D01*
X11803714Y-15534286D01*
X12118000Y-15705714D02*
X12089428Y-15691429D01*
X12075143Y-15677143D01*
X12060857Y-15648571D01*
X12060857Y-15562857D01*
X12075143Y-15534286D01*
X12089428Y-15520000D01*
X12118000Y-15505714D01*
X12160857Y-15505714D01*
X12189428Y-15520000D01*
X12203714Y-15534286D01*
X12218000Y-15562857D01*
X12218000Y-15648571D01*
X12203714Y-15677143D01*
X12189428Y-15691429D01*
X12160857Y-15705714D01*
X12118000Y-15705714D01*
X12389428Y-15705714D02*
X12360857Y-15691429D01*
X12346571Y-15662857D01*
X12346571Y-15405714D01*
X12618000Y-15691429D02*
X12589428Y-15705714D01*
X12532286Y-15705714D01*
X12503714Y-15691429D01*
X12489428Y-15662857D01*
X12489428Y-15548571D01*
X12503714Y-15520000D01*
X12532286Y-15505714D01*
X12589428Y-15505714D01*
X12618000Y-15520000D01*
X12632286Y-15548571D01*
X12632286Y-15577143D01*
X12489428Y-15605714D01*
X12746571Y-15691429D02*
X12775143Y-15705714D01*
X12832286Y-15705714D01*
X12860857Y-15691429D01*
X12875143Y-15662857D01*
X12875143Y-15648571D01*
X12860857Y-15620000D01*
X12832286Y-15605714D01*
X12789428Y-15605714D01*
X12760857Y-15591429D01*
X12746571Y-15562857D01*
X12746571Y-15548571D01*
X12760857Y-15520000D01*
X12789428Y-15505714D01*
X12832286Y-15505714D01*
X12860857Y-15520000D01*
X12975143Y-15820000D02*
X12989428Y-15805714D01*
X13018000Y-15762857D01*
X13032286Y-15734286D01*
X13046571Y-15691429D01*
X13060857Y-15620000D01*
X13060857Y-15562857D01*
X13046571Y-15491429D01*
X13032286Y-15448571D01*
X13018000Y-15420000D01*
X12989428Y-15377143D01*
X12975143Y-15362857D01*
X6218000Y-15966000D02*
G75*
G03X6218000Y-15966000I-35000J0D01*
G01*
X6546571Y-15801714D02*
X6575143Y-15801714D01*
X6603714Y-15816000D01*
X6618000Y-15830286D01*
X6632286Y-15858857D01*
X6646571Y-15916000D01*
X6646571Y-15987429D01*
X6632286Y-16044571D01*
X6618000Y-16073143D01*
X6603714Y-16087429D01*
X6575143Y-16101714D01*
X6546571Y-16101714D01*
X6518000Y-16087429D01*
X6503714Y-16073143D01*
X6489428Y-16044571D01*
X6475143Y-15987429D01*
X6475143Y-15916000D01*
X6489428Y-15858857D01*
X6503714Y-15830286D01*
X6518000Y-15816000D01*
X6546571Y-15801714D01*
X6775143Y-16073143D02*
X6789428Y-16087429D01*
X6775143Y-16101714D01*
X6760857Y-16087429D01*
X6775143Y-16073143D01*
X6775143Y-16101714D01*
X6889428Y-15801714D02*
X7089428Y-15801714D01*
X6960857Y-16101714D01*
X7260857Y-15801714D02*
X7289428Y-15801714D01*
X7318000Y-15816000D01*
X7332286Y-15830286D01*
X7346571Y-15858857D01*
X7360857Y-15916000D01*
X7360857Y-15987429D01*
X7346571Y-16044571D01*
X7332286Y-16073143D01*
X7318000Y-16087429D01*
X7289428Y-16101714D01*
X7260857Y-16101714D01*
X7232286Y-16087429D01*
X7218000Y-16073143D01*
X7203714Y-16044571D01*
X7189428Y-15987429D01*
X7189428Y-15916000D01*
X7203714Y-15858857D01*
X7218000Y-15830286D01*
X7232286Y-15816000D01*
X7260857Y-15801714D01*
X7489428Y-16101714D02*
X7489428Y-15901714D01*
X7489428Y-15930286D02*
X7503714Y-15916000D01*
X7532286Y-15901714D01*
X7575143Y-15901714D01*
X7603714Y-15916000D01*
X7618000Y-15944571D01*
X7618000Y-16101714D01*
X7618000Y-15944571D02*
X7632286Y-15916000D01*
X7660857Y-15901714D01*
X7703714Y-15901714D01*
X7732286Y-15916000D01*
X7746571Y-15944571D01*
X7746571Y-16101714D01*
X7889428Y-16101714D02*
X7889428Y-15901714D01*
X7889428Y-15930286D02*
X7903714Y-15916000D01*
X7932286Y-15901714D01*
X7975143Y-15901714D01*
X8003714Y-15916000D01*
X8018000Y-15944571D01*
X8018000Y-16101714D01*
X8018000Y-15944571D02*
X8032286Y-15916000D01*
X8060857Y-15901714D01*
X8103714Y-15901714D01*
X8132286Y-15916000D01*
X8146571Y-15944571D01*
X8146571Y-16101714D01*
X8732286Y-15787429D02*
X8475143Y-16173143D01*
X9118000Y-15801714D02*
X9146571Y-15801714D01*
X9175143Y-15816000D01*
X9189428Y-15830286D01*
X9203714Y-15858857D01*
X9218000Y-15916000D01*
X9218000Y-15987429D01*
X9203714Y-16044571D01*
X9189428Y-16073143D01*
X9175143Y-16087429D01*
X9146571Y-16101714D01*
X9118000Y-16101714D01*
X9089428Y-16087429D01*
X9075143Y-16073143D01*
X9060857Y-16044571D01*
X9046571Y-15987429D01*
X9046571Y-15916000D01*
X9060857Y-15858857D01*
X9075143Y-15830286D01*
X9089428Y-15816000D01*
X9118000Y-15801714D01*
X9346571Y-16073143D02*
X9360857Y-16087429D01*
X9346571Y-16101714D01*
X9332286Y-16087429D01*
X9346571Y-16073143D01*
X9346571Y-16101714D01*
X9546571Y-15801714D02*
X9575143Y-15801714D01*
X9603714Y-15816000D01*
X9618000Y-15830286D01*
X9632286Y-15858857D01*
X9646571Y-15916000D01*
X9646571Y-15987429D01*
X9632286Y-16044571D01*
X9618000Y-16073143D01*
X9603714Y-16087429D01*
X9575143Y-16101714D01*
X9546571Y-16101714D01*
X9518000Y-16087429D01*
X9503714Y-16073143D01*
X9489428Y-16044571D01*
X9475143Y-15987429D01*
X9475143Y-15916000D01*
X9489428Y-15858857D01*
X9503714Y-15830286D01*
X9518000Y-15816000D01*
X9546571Y-15801714D01*
X9760857Y-15830286D02*
X9775143Y-15816000D01*
X9803714Y-15801714D01*
X9875143Y-15801714D01*
X9903714Y-15816000D01*
X9918000Y-15830286D01*
X9932286Y-15858857D01*
X9932286Y-15887429D01*
X9918000Y-15930286D01*
X9746571Y-16101714D01*
X9932286Y-16101714D01*
X10103714Y-15930286D02*
X10075143Y-15916000D01*
X10060857Y-15901714D01*
X10046571Y-15873143D01*
X10046571Y-15858857D01*
X10060857Y-15830286D01*
X10075143Y-15816000D01*
X10103714Y-15801714D01*
X10160857Y-15801714D01*
X10189428Y-15816000D01*
X10203714Y-15830286D01*
X10218000Y-15858857D01*
X10218000Y-15873143D01*
X10203714Y-15901714D01*
X10189428Y-15916000D01*
X10160857Y-15930286D01*
X10103714Y-15930286D01*
X10075143Y-15944571D01*
X10060857Y-15958857D01*
X10046571Y-15987429D01*
X10046571Y-16044571D01*
X10060857Y-16073143D01*
X10075143Y-16087429D01*
X10103714Y-16101714D01*
X10160857Y-16101714D01*
X10189428Y-16087429D01*
X10203714Y-16073143D01*
X10218000Y-16044571D01*
X10218000Y-15987429D01*
X10203714Y-15958857D01*
X10189428Y-15944571D01*
X10160857Y-15930286D01*
X10332286Y-15801714D02*
X10332286Y-15858857D01*
X10446571Y-15801714D02*
X10446571Y-15858857D01*
X10889428Y-16216000D02*
X10875143Y-16201714D01*
X10846571Y-16158857D01*
X10832286Y-16130286D01*
X10818000Y-16087429D01*
X10803714Y-16016000D01*
X10803714Y-15958857D01*
X10818000Y-15887429D01*
X10832286Y-15844571D01*
X10846571Y-15816000D01*
X10875143Y-15773143D01*
X10889428Y-15758857D01*
X11132286Y-15801714D02*
X11075143Y-15801714D01*
X11046571Y-15816000D01*
X11032286Y-15830286D01*
X11003714Y-15873143D01*
X10989428Y-15930286D01*
X10989428Y-16044571D01*
X11003714Y-16073143D01*
X11018000Y-16087429D01*
X11046571Y-16101714D01*
X11103714Y-16101714D01*
X11132286Y-16087429D01*
X11146571Y-16073143D01*
X11160857Y-16044571D01*
X11160857Y-15973143D01*
X11146571Y-15944571D01*
X11132286Y-15930286D01*
X11103714Y-15916000D01*
X11046571Y-15916000D01*
X11018000Y-15930286D01*
X11003714Y-15944571D01*
X10989428Y-15973143D01*
X11418000Y-15901714D02*
X11418000Y-16101714D01*
X11346571Y-15787429D02*
X11275143Y-16001714D01*
X11460857Y-16001714D01*
X11803714Y-16101714D02*
X11803714Y-15801714D01*
X11932285Y-16101714D02*
X11932285Y-15944571D01*
X11918000Y-15916000D01*
X11889428Y-15901714D01*
X11846571Y-15901714D01*
X11818000Y-15916000D01*
X11803714Y-15930286D01*
X12118000Y-16101714D02*
X12089428Y-16087429D01*
X12075143Y-16073143D01*
X12060857Y-16044571D01*
X12060857Y-15958857D01*
X12075143Y-15930286D01*
X12089428Y-15916000D01*
X12118000Y-15901714D01*
X12160857Y-15901714D01*
X12189428Y-15916000D01*
X12203714Y-15930286D01*
X12218000Y-15958857D01*
X12218000Y-16044571D01*
X12203714Y-16073143D01*
X12189428Y-16087429D01*
X12160857Y-16101714D01*
X12118000Y-16101714D01*
X12389428Y-16101714D02*
X12360857Y-16087429D01*
X12346571Y-16058857D01*
X12346571Y-15801714D01*
X12618000Y-16087429D02*
X12589428Y-16101714D01*
X12532286Y-16101714D01*
X12503714Y-16087429D01*
X12489428Y-16058857D01*
X12489428Y-15944571D01*
X12503714Y-15916000D01*
X12532286Y-15901714D01*
X12589428Y-15901714D01*
X12618000Y-15916000D01*
X12632286Y-15944571D01*
X12632286Y-15973143D01*
X12489428Y-16001714D01*
X12746571Y-16087429D02*
X12775143Y-16101714D01*
X12832286Y-16101714D01*
X12860857Y-16087429D01*
X12875143Y-16058857D01*
X12875143Y-16044571D01*
X12860857Y-16016000D01*
X12832286Y-16001714D01*
X12789428Y-16001714D01*
X12760857Y-15987429D01*
X12746571Y-15958857D01*
X12746571Y-15944571D01*
X12760857Y-15916000D01*
X12789428Y-15901714D01*
X12832286Y-15901714D01*
X12860857Y-15916000D01*
X12975143Y-16216000D02*
X12989428Y-16201714D01*
X13018000Y-16158857D01*
X13032286Y-16130286D01*
X13046571Y-16087429D01*
X13060857Y-16016000D01*
X13060857Y-15958857D01*
X13046571Y-15887429D01*
X13032286Y-15844571D01*
X13018000Y-15816000D01*
X12989428Y-15773143D01*
X12975143Y-15758857D01*
X6178000Y-16322000D02*
X6178000Y-16402000D01*
X6138000Y-16362000D02*
X6218000Y-16362000D01*
X6546571Y-16197714D02*
X6575143Y-16197714D01*
X6603714Y-16212000D01*
X6618000Y-16226286D01*
X6632286Y-16254857D01*
X6646571Y-16312000D01*
X6646571Y-16383429D01*
X6632286Y-16440571D01*
X6618000Y-16469143D01*
X6603714Y-16483429D01*
X6575143Y-16497714D01*
X6546571Y-16497714D01*
X6518000Y-16483429D01*
X6503714Y-16469143D01*
X6489428Y-16440571D01*
X6475143Y-16383429D01*
X6475143Y-16312000D01*
X6489428Y-16254857D01*
X6503714Y-16226286D01*
X6518000Y-16212000D01*
X6546571Y-16197714D01*
X6775143Y-16469143D02*
X6789428Y-16483429D01*
X6775143Y-16497714D01*
X6760857Y-16483429D01*
X6775143Y-16469143D01*
X6775143Y-16497714D01*
X6960857Y-16326286D02*
X6932286Y-16312000D01*
X6918000Y-16297714D01*
X6903714Y-16269143D01*
X6903714Y-16254857D01*
X6918000Y-16226286D01*
X6932286Y-16212000D01*
X6960857Y-16197714D01*
X7018000Y-16197714D01*
X7046571Y-16212000D01*
X7060857Y-16226286D01*
X7075143Y-16254857D01*
X7075143Y-16269143D01*
X7060857Y-16297714D01*
X7046571Y-16312000D01*
X7018000Y-16326286D01*
X6960857Y-16326286D01*
X6932286Y-16340571D01*
X6918000Y-16354857D01*
X6903714Y-16383429D01*
X6903714Y-16440571D01*
X6918000Y-16469143D01*
X6932286Y-16483429D01*
X6960857Y-16497714D01*
X7018000Y-16497714D01*
X7046571Y-16483429D01*
X7060857Y-16469143D01*
X7075143Y-16440571D01*
X7075143Y-16383429D01*
X7060857Y-16354857D01*
X7046571Y-16340571D01*
X7018000Y-16326286D01*
X7260857Y-16197714D02*
X7289428Y-16197714D01*
X7318000Y-16212000D01*
X7332286Y-16226286D01*
X7346571Y-16254857D01*
X7360857Y-16312000D01*
X7360857Y-16383429D01*
X7346571Y-16440571D01*
X7332286Y-16469143D01*
X7318000Y-16483429D01*
X7289428Y-16497714D01*
X7260857Y-16497714D01*
X7232286Y-16483429D01*
X7218000Y-16469143D01*
X7203714Y-16440571D01*
X7189428Y-16383429D01*
X7189428Y-16312000D01*
X7203714Y-16254857D01*
X7218000Y-16226286D01*
X7232286Y-16212000D01*
X7260857Y-16197714D01*
X7489428Y-16497714D02*
X7489428Y-16297714D01*
X7489428Y-16326286D02*
X7503714Y-16312000D01*
X7532286Y-16297714D01*
X7575143Y-16297714D01*
X7603714Y-16312000D01*
X7618000Y-16340571D01*
X7618000Y-16497714D01*
X7618000Y-16340571D02*
X7632286Y-16312000D01*
X7660857Y-16297714D01*
X7703714Y-16297714D01*
X7732286Y-16312000D01*
X7746571Y-16340571D01*
X7746571Y-16497714D01*
X7889428Y-16497714D02*
X7889428Y-16297714D01*
X7889428Y-16326286D02*
X7903714Y-16312000D01*
X7932286Y-16297714D01*
X7975143Y-16297714D01*
X8003714Y-16312000D01*
X8018000Y-16340571D01*
X8018000Y-16497714D01*
X8018000Y-16340571D02*
X8032286Y-16312000D01*
X8060857Y-16297714D01*
X8103714Y-16297714D01*
X8132286Y-16312000D01*
X8146571Y-16340571D01*
X8146571Y-16497714D01*
X8732286Y-16183429D02*
X8475143Y-16569143D01*
X9118000Y-16197714D02*
X9146571Y-16197714D01*
X9175143Y-16212000D01*
X9189428Y-16226286D01*
X9203714Y-16254857D01*
X9218000Y-16312000D01*
X9218000Y-16383429D01*
X9203714Y-16440571D01*
X9189428Y-16469143D01*
X9175143Y-16483429D01*
X9146571Y-16497714D01*
X9118000Y-16497714D01*
X9089428Y-16483429D01*
X9075143Y-16469143D01*
X9060857Y-16440571D01*
X9046571Y-16383429D01*
X9046571Y-16312000D01*
X9060857Y-16254857D01*
X9075143Y-16226286D01*
X9089428Y-16212000D01*
X9118000Y-16197714D01*
X9346571Y-16469143D02*
X9360857Y-16483429D01*
X9346571Y-16497714D01*
X9332286Y-16483429D01*
X9346571Y-16469143D01*
X9346571Y-16497714D01*
X9546571Y-16197714D02*
X9575143Y-16197714D01*
X9603714Y-16212000D01*
X9618000Y-16226286D01*
X9632286Y-16254857D01*
X9646571Y-16312000D01*
X9646571Y-16383429D01*
X9632286Y-16440571D01*
X9618000Y-16469143D01*
X9603714Y-16483429D01*
X9575143Y-16497714D01*
X9546571Y-16497714D01*
X9518000Y-16483429D01*
X9503714Y-16469143D01*
X9489428Y-16440571D01*
X9475143Y-16383429D01*
X9475143Y-16312000D01*
X9489428Y-16254857D01*
X9503714Y-16226286D01*
X9518000Y-16212000D01*
X9546571Y-16197714D01*
X9746571Y-16197714D02*
X9932286Y-16197714D01*
X9832286Y-16312000D01*
X9875143Y-16312000D01*
X9903714Y-16326286D01*
X9918000Y-16340571D01*
X9932286Y-16369143D01*
X9932286Y-16440571D01*
X9918000Y-16469143D01*
X9903714Y-16483429D01*
X9875143Y-16497714D01*
X9789428Y-16497714D01*
X9760857Y-16483429D01*
X9746571Y-16469143D01*
X10218000Y-16497714D02*
X10046571Y-16497714D01*
X10132286Y-16497714D02*
X10132286Y-16197714D01*
X10103714Y-16240571D01*
X10075143Y-16269143D01*
X10046571Y-16283429D01*
X10332286Y-16197714D02*
X10332286Y-16254857D01*
X10446571Y-16197714D02*
X10446571Y-16254857D01*
X10889428Y-16612000D02*
X10875143Y-16597714D01*
X10846571Y-16554857D01*
X10832286Y-16526286D01*
X10818000Y-16483429D01*
X10803714Y-16412000D01*
X10803714Y-16354857D01*
X10818000Y-16283429D01*
X10832286Y-16240571D01*
X10846571Y-16212000D01*
X10875143Y-16169143D01*
X10889428Y-16154857D01*
X10989428Y-16226286D02*
X11003714Y-16212000D01*
X11032286Y-16197714D01*
X11103714Y-16197714D01*
X11132286Y-16212000D01*
X11146571Y-16226286D01*
X11160857Y-16254857D01*
X11160857Y-16283429D01*
X11146571Y-16326286D01*
X10975143Y-16497714D01*
X11160857Y-16497714D01*
X11260857Y-16197714D02*
X11446571Y-16197714D01*
X11346571Y-16312000D01*
X11389428Y-16312000D01*
X11418000Y-16326286D01*
X11432285Y-16340571D01*
X11446571Y-16369143D01*
X11446571Y-16440571D01*
X11432285Y-16469143D01*
X11418000Y-16483429D01*
X11389428Y-16497714D01*
X11303714Y-16497714D01*
X11275143Y-16483429D01*
X11260857Y-16469143D01*
X11703714Y-16297714D02*
X11703714Y-16497714D01*
X11632285Y-16183429D02*
X11560857Y-16397714D01*
X11746571Y-16397714D01*
X12089428Y-16497714D02*
X12089428Y-16197714D01*
X12218000Y-16497714D02*
X12218000Y-16340571D01*
X12203714Y-16312000D01*
X12175143Y-16297714D01*
X12132285Y-16297714D01*
X12103714Y-16312000D01*
X12089428Y-16326286D01*
X12403714Y-16497714D02*
X12375143Y-16483429D01*
X12360857Y-16469143D01*
X12346571Y-16440571D01*
X12346571Y-16354857D01*
X12360857Y-16326286D01*
X12375143Y-16312000D01*
X12403714Y-16297714D01*
X12446571Y-16297714D01*
X12475143Y-16312000D01*
X12489428Y-16326286D01*
X12503714Y-16354857D01*
X12503714Y-16440571D01*
X12489428Y-16469143D01*
X12475143Y-16483429D01*
X12446571Y-16497714D01*
X12403714Y-16497714D01*
X12675143Y-16497714D02*
X12646571Y-16483429D01*
X12632286Y-16454857D01*
X12632286Y-16197714D01*
X12903714Y-16483429D02*
X12875143Y-16497714D01*
X12818000Y-16497714D01*
X12789428Y-16483429D01*
X12775143Y-16454857D01*
X12775143Y-16340571D01*
X12789428Y-16312000D01*
X12818000Y-16297714D01*
X12875143Y-16297714D01*
X12903714Y-16312000D01*
X12918000Y-16340571D01*
X12918000Y-16369143D01*
X12775143Y-16397714D01*
X13032286Y-16483429D02*
X13060857Y-16497714D01*
X13118000Y-16497714D01*
X13146571Y-16483429D01*
X13160857Y-16454857D01*
X13160857Y-16440571D01*
X13146571Y-16412000D01*
X13118000Y-16397714D01*
X13075143Y-16397714D01*
X13046571Y-16383429D01*
X13032286Y-16354857D01*
X13032286Y-16340571D01*
X13046571Y-16312000D01*
X13075143Y-16297714D01*
X13118000Y-16297714D01*
X13146571Y-16312000D01*
X13260857Y-16612000D02*
X13275143Y-16597714D01*
X13303714Y-16554857D01*
X13318000Y-16526286D01*
X13332286Y-16483429D01*
X13346571Y-16412000D01*
X13346571Y-16354857D01*
X13332286Y-16283429D01*
X13318000Y-16240571D01*
X13303714Y-16212000D01*
X13275143Y-16169143D01*
X13260857Y-16154857D01*
X6206097Y-16786737D02*
X6206097Y-16729263D01*
X6148623Y-16729263D01*
X6148623Y-16786737D01*
X6206097Y-16786737D01*
X6546571Y-16593714D02*
X6575143Y-16593714D01*
X6603714Y-16608000D01*
X6618000Y-16622286D01*
X6632286Y-16650857D01*
X6646571Y-16708000D01*
X6646571Y-16779429D01*
X6632286Y-16836572D01*
X6618000Y-16865143D01*
X6603714Y-16879429D01*
X6575143Y-16893714D01*
X6546571Y-16893714D01*
X6518000Y-16879429D01*
X6503714Y-16865143D01*
X6489428Y-16836572D01*
X6475143Y-16779429D01*
X6475143Y-16708000D01*
X6489428Y-16650857D01*
X6503714Y-16622286D01*
X6518000Y-16608000D01*
X6546571Y-16593714D01*
X6775143Y-16865143D02*
X6789428Y-16879429D01*
X6775143Y-16893714D01*
X6760857Y-16879429D01*
X6775143Y-16865143D01*
X6775143Y-16893714D01*
X6960857Y-16722286D02*
X6932286Y-16708000D01*
X6918000Y-16693714D01*
X6903714Y-16665143D01*
X6903714Y-16650857D01*
X6918000Y-16622286D01*
X6932286Y-16608000D01*
X6960857Y-16593714D01*
X7018000Y-16593714D01*
X7046571Y-16608000D01*
X7060857Y-16622286D01*
X7075143Y-16650857D01*
X7075143Y-16665143D01*
X7060857Y-16693714D01*
X7046571Y-16708000D01*
X7018000Y-16722286D01*
X6960857Y-16722286D01*
X6932286Y-16736571D01*
X6918000Y-16750857D01*
X6903714Y-16779429D01*
X6903714Y-16836572D01*
X6918000Y-16865143D01*
X6932286Y-16879429D01*
X6960857Y-16893714D01*
X7018000Y-16893714D01*
X7046571Y-16879429D01*
X7060857Y-16865143D01*
X7075143Y-16836572D01*
X7075143Y-16779429D01*
X7060857Y-16750857D01*
X7046571Y-16736571D01*
X7018000Y-16722286D01*
X7360857Y-16893714D02*
X7189428Y-16893714D01*
X7275143Y-16893714D02*
X7275143Y-16593714D01*
X7246571Y-16636571D01*
X7218000Y-16665143D01*
X7189428Y-16679429D01*
X7489428Y-16893714D02*
X7489428Y-16693714D01*
X7489428Y-16722286D02*
X7503714Y-16708000D01*
X7532286Y-16693714D01*
X7575143Y-16693714D01*
X7603714Y-16708000D01*
X7618000Y-16736571D01*
X7618000Y-16893714D01*
X7618000Y-16736571D02*
X7632286Y-16708000D01*
X7660857Y-16693714D01*
X7703714Y-16693714D01*
X7732286Y-16708000D01*
X7746571Y-16736571D01*
X7746571Y-16893714D01*
X7889428Y-16893714D02*
X7889428Y-16693714D01*
X7889428Y-16722286D02*
X7903714Y-16708000D01*
X7932286Y-16693714D01*
X7975143Y-16693714D01*
X8003714Y-16708000D01*
X8018000Y-16736571D01*
X8018000Y-16893714D01*
X8018000Y-16736571D02*
X8032286Y-16708000D01*
X8060857Y-16693714D01*
X8103714Y-16693714D01*
X8132286Y-16708000D01*
X8146571Y-16736571D01*
X8146571Y-16893714D01*
X8732286Y-16579429D02*
X8475143Y-16965143D01*
X9118000Y-16593714D02*
X9146571Y-16593714D01*
X9175143Y-16608000D01*
X9189428Y-16622286D01*
X9203714Y-16650857D01*
X9218000Y-16708000D01*
X9218000Y-16779429D01*
X9203714Y-16836572D01*
X9189428Y-16865143D01*
X9175143Y-16879429D01*
X9146571Y-16893714D01*
X9118000Y-16893714D01*
X9089428Y-16879429D01*
X9075143Y-16865143D01*
X9060857Y-16836572D01*
X9046571Y-16779429D01*
X9046571Y-16708000D01*
X9060857Y-16650857D01*
X9075143Y-16622286D01*
X9089428Y-16608000D01*
X9118000Y-16593714D01*
X9346571Y-16865143D02*
X9360857Y-16879429D01*
X9346571Y-16893714D01*
X9332286Y-16879429D01*
X9346571Y-16865143D01*
X9346571Y-16893714D01*
X9546571Y-16593714D02*
X9575143Y-16593714D01*
X9603714Y-16608000D01*
X9618000Y-16622286D01*
X9632286Y-16650857D01*
X9646571Y-16708000D01*
X9646571Y-16779429D01*
X9632286Y-16836572D01*
X9618000Y-16865143D01*
X9603714Y-16879429D01*
X9575143Y-16893714D01*
X9546571Y-16893714D01*
X9518000Y-16879429D01*
X9503714Y-16865143D01*
X9489428Y-16836572D01*
X9475143Y-16779429D01*
X9475143Y-16708000D01*
X9489428Y-16650857D01*
X9503714Y-16622286D01*
X9518000Y-16608000D01*
X9546571Y-16593714D01*
X9746571Y-16593714D02*
X9932286Y-16593714D01*
X9832286Y-16708000D01*
X9875143Y-16708000D01*
X9903714Y-16722286D01*
X9918000Y-16736571D01*
X9932286Y-16765143D01*
X9932286Y-16836572D01*
X9918000Y-16865143D01*
X9903714Y-16879429D01*
X9875143Y-16893714D01*
X9789428Y-16893714D01*
X9760857Y-16879429D01*
X9746571Y-16865143D01*
X10046571Y-16622286D02*
X10060857Y-16608000D01*
X10089428Y-16593714D01*
X10160857Y-16593714D01*
X10189428Y-16608000D01*
X10203714Y-16622286D01*
X10218000Y-16650857D01*
X10218000Y-16679429D01*
X10203714Y-16722286D01*
X10032286Y-16893714D01*
X10218000Y-16893714D01*
X10332286Y-16593714D02*
X10332286Y-16650857D01*
X10446571Y-16593714D02*
X10446571Y-16650857D01*
X10889428Y-17008000D02*
X10875143Y-16993714D01*
X10846571Y-16950857D01*
X10832286Y-16922286D01*
X10818000Y-16879429D01*
X10803714Y-16808000D01*
X10803714Y-16750857D01*
X10818000Y-16679429D01*
X10832286Y-16636571D01*
X10846571Y-16608000D01*
X10875143Y-16565143D01*
X10889428Y-16550857D01*
X10975143Y-16593714D02*
X11160857Y-16593714D01*
X11060857Y-16708000D01*
X11103714Y-16708000D01*
X11132286Y-16722286D01*
X11146571Y-16736571D01*
X11160857Y-16765143D01*
X11160857Y-16836572D01*
X11146571Y-16865143D01*
X11132286Y-16879429D01*
X11103714Y-16893714D01*
X11018000Y-16893714D01*
X10989428Y-16879429D01*
X10975143Y-16865143D01*
X11332285Y-16722286D02*
X11303714Y-16708000D01*
X11289428Y-16693714D01*
X11275143Y-16665143D01*
X11275143Y-16650857D01*
X11289428Y-16622286D01*
X11303714Y-16608000D01*
X11332285Y-16593714D01*
X11389428Y-16593714D01*
X11418000Y-16608000D01*
X11432285Y-16622286D01*
X11446571Y-16650857D01*
X11446571Y-16665143D01*
X11432285Y-16693714D01*
X11418000Y-16708000D01*
X11389428Y-16722286D01*
X11332285Y-16722286D01*
X11303714Y-16736571D01*
X11289428Y-16750857D01*
X11275143Y-16779429D01*
X11275143Y-16836572D01*
X11289428Y-16865143D01*
X11303714Y-16879429D01*
X11332285Y-16893714D01*
X11389428Y-16893714D01*
X11418000Y-16879429D01*
X11432285Y-16865143D01*
X11446571Y-16836572D01*
X11446571Y-16779429D01*
X11432285Y-16750857D01*
X11418000Y-16736571D01*
X11389428Y-16722286D01*
X11803714Y-16893714D02*
X11803714Y-16593714D01*
X11932285Y-16893714D02*
X11932285Y-16736571D01*
X11918000Y-16708000D01*
X11889428Y-16693714D01*
X11846571Y-16693714D01*
X11818000Y-16708000D01*
X11803714Y-16722286D01*
X12118000Y-16893714D02*
X12089428Y-16879429D01*
X12075143Y-16865143D01*
X12060857Y-16836572D01*
X12060857Y-16750857D01*
X12075143Y-16722286D01*
X12089428Y-16708000D01*
X12118000Y-16693714D01*
X12160857Y-16693714D01*
X12189428Y-16708000D01*
X12203714Y-16722286D01*
X12218000Y-16750857D01*
X12218000Y-16836572D01*
X12203714Y-16865143D01*
X12189428Y-16879429D01*
X12160857Y-16893714D01*
X12118000Y-16893714D01*
X12389428Y-16893714D02*
X12360857Y-16879429D01*
X12346571Y-16850857D01*
X12346571Y-16593714D01*
X12618000Y-16879429D02*
X12589428Y-16893714D01*
X12532286Y-16893714D01*
X12503714Y-16879429D01*
X12489428Y-16850857D01*
X12489428Y-16736571D01*
X12503714Y-16708000D01*
X12532286Y-16693714D01*
X12589428Y-16693714D01*
X12618000Y-16708000D01*
X12632286Y-16736571D01*
X12632286Y-16765143D01*
X12489428Y-16793714D01*
X12746571Y-16879429D02*
X12775143Y-16893714D01*
X12832286Y-16893714D01*
X12860857Y-16879429D01*
X12875143Y-16850857D01*
X12875143Y-16836572D01*
X12860857Y-16808000D01*
X12832286Y-16793714D01*
X12789428Y-16793714D01*
X12760857Y-16779429D01*
X12746571Y-16750857D01*
X12746571Y-16736571D01*
X12760857Y-16708000D01*
X12789428Y-16693714D01*
X12832286Y-16693714D01*
X12860857Y-16708000D01*
X12975143Y-17008000D02*
X12989428Y-16993714D01*
X13018000Y-16950857D01*
X13032286Y-16922286D01*
X13046571Y-16879429D01*
X13060857Y-16808000D01*
X13060857Y-16750857D01*
X13046571Y-16679429D01*
X13032286Y-16636571D01*
X13018000Y-16608000D01*
X12989428Y-16565143D01*
X12975143Y-16550857D01*
X6173042Y-17198958D02*
X6218000Y-17154000D01*
X6173042Y-17109042D01*
X6128084Y-17154000D01*
X6173042Y-17198958D01*
X6546571Y-16989714D02*
X6575143Y-16989714D01*
X6603714Y-17004000D01*
X6618000Y-17018286D01*
X6632286Y-17046857D01*
X6646571Y-17104000D01*
X6646571Y-17175429D01*
X6632286Y-17232572D01*
X6618000Y-17261143D01*
X6603714Y-17275429D01*
X6575143Y-17289714D01*
X6546571Y-17289714D01*
X6518000Y-17275429D01*
X6503714Y-17261143D01*
X6489428Y-17232572D01*
X6475143Y-17175429D01*
X6475143Y-17104000D01*
X6489428Y-17046857D01*
X6503714Y-17018286D01*
X6518000Y-17004000D01*
X6546571Y-16989714D01*
X6775143Y-17261143D02*
X6789428Y-17275429D01*
X6775143Y-17289714D01*
X6760857Y-17275429D01*
X6775143Y-17261143D01*
X6775143Y-17289714D01*
X6932286Y-17289714D02*
X6989428Y-17289714D01*
X7018000Y-17275429D01*
X7032286Y-17261143D01*
X7060857Y-17218286D01*
X7075143Y-17161143D01*
X7075143Y-17046857D01*
X7060857Y-17018286D01*
X7046571Y-17004000D01*
X7018000Y-16989714D01*
X6960857Y-16989714D01*
X6932286Y-17004000D01*
X6918000Y-17018286D01*
X6903714Y-17046857D01*
X6903714Y-17118286D01*
X6918000Y-17146857D01*
X6932286Y-17161143D01*
X6960857Y-17175429D01*
X7018000Y-17175429D01*
X7046571Y-17161143D01*
X7060857Y-17146857D01*
X7075143Y-17118286D01*
X7260857Y-16989714D02*
X7289428Y-16989714D01*
X7318000Y-17004000D01*
X7332286Y-17018286D01*
X7346571Y-17046857D01*
X7360857Y-17104000D01*
X7360857Y-17175429D01*
X7346571Y-17232572D01*
X7332286Y-17261143D01*
X7318000Y-17275429D01*
X7289428Y-17289714D01*
X7260857Y-17289714D01*
X7232286Y-17275429D01*
X7218000Y-17261143D01*
X7203714Y-17232572D01*
X7189428Y-17175429D01*
X7189428Y-17104000D01*
X7203714Y-17046857D01*
X7218000Y-17018286D01*
X7232286Y-17004000D01*
X7260857Y-16989714D01*
X7489428Y-17289714D02*
X7489428Y-17089714D01*
X7489428Y-17118286D02*
X7503714Y-17104000D01*
X7532286Y-17089714D01*
X7575143Y-17089714D01*
X7603714Y-17104000D01*
X7618000Y-17132572D01*
X7618000Y-17289714D01*
X7618000Y-17132572D02*
X7632286Y-17104000D01*
X7660857Y-17089714D01*
X7703714Y-17089714D01*
X7732286Y-17104000D01*
X7746571Y-17132572D01*
X7746571Y-17289714D01*
X7889428Y-17289714D02*
X7889428Y-17089714D01*
X7889428Y-17118286D02*
X7903714Y-17104000D01*
X7932286Y-17089714D01*
X7975143Y-17089714D01*
X8003714Y-17104000D01*
X8018000Y-17132572D01*
X8018000Y-17289714D01*
X8018000Y-17132572D02*
X8032286Y-17104000D01*
X8060857Y-17089714D01*
X8103714Y-17089714D01*
X8132286Y-17104000D01*
X8146571Y-17132572D01*
X8146571Y-17289714D01*
X8732286Y-16975429D02*
X8475143Y-17361143D01*
X9118000Y-16989714D02*
X9146571Y-16989714D01*
X9175143Y-17004000D01*
X9189428Y-17018286D01*
X9203714Y-17046857D01*
X9218000Y-17104000D01*
X9218000Y-17175429D01*
X9203714Y-17232572D01*
X9189428Y-17261143D01*
X9175143Y-17275429D01*
X9146571Y-17289714D01*
X9118000Y-17289714D01*
X9089428Y-17275429D01*
X9075143Y-17261143D01*
X9060857Y-17232572D01*
X9046571Y-17175429D01*
X9046571Y-17104000D01*
X9060857Y-17046857D01*
X9075143Y-17018286D01*
X9089428Y-17004000D01*
X9118000Y-16989714D01*
X9346571Y-17261143D02*
X9360857Y-17275429D01*
X9346571Y-17289714D01*
X9332286Y-17275429D01*
X9346571Y-17261143D01*
X9346571Y-17289714D01*
X9546571Y-16989714D02*
X9575143Y-16989714D01*
X9603714Y-17004000D01*
X9618000Y-17018286D01*
X9632286Y-17046857D01*
X9646571Y-17104000D01*
X9646571Y-17175429D01*
X9632286Y-17232572D01*
X9618000Y-17261143D01*
X9603714Y-17275429D01*
X9575143Y-17289714D01*
X9546571Y-17289714D01*
X9518000Y-17275429D01*
X9503714Y-17261143D01*
X9489428Y-17232572D01*
X9475143Y-17175429D01*
X9475143Y-17104000D01*
X9489428Y-17046857D01*
X9503714Y-17018286D01*
X9518000Y-17004000D01*
X9546571Y-16989714D01*
X9746571Y-16989714D02*
X9932286Y-16989714D01*
X9832286Y-17104000D01*
X9875143Y-17104000D01*
X9903714Y-17118286D01*
X9918000Y-17132572D01*
X9932286Y-17161143D01*
X9932286Y-17232572D01*
X9918000Y-17261143D01*
X9903714Y-17275429D01*
X9875143Y-17289714D01*
X9789428Y-17289714D01*
X9760857Y-17275429D01*
X9746571Y-17261143D01*
X10203714Y-16989714D02*
X10060857Y-16989714D01*
X10046571Y-17132572D01*
X10060857Y-17118286D01*
X10089428Y-17104000D01*
X10160857Y-17104000D01*
X10189428Y-17118286D01*
X10203714Y-17132572D01*
X10218000Y-17161143D01*
X10218000Y-17232572D01*
X10203714Y-17261143D01*
X10189428Y-17275429D01*
X10160857Y-17289714D01*
X10089428Y-17289714D01*
X10060857Y-17275429D01*
X10046571Y-17261143D01*
X10332286Y-16989714D02*
X10332286Y-17046857D01*
X10446571Y-16989714D02*
X10446571Y-17046857D01*
X10889428Y-17404000D02*
X10875143Y-17389714D01*
X10846571Y-17346857D01*
X10832286Y-17318286D01*
X10818000Y-17275429D01*
X10803714Y-17204000D01*
X10803714Y-17146857D01*
X10818000Y-17075429D01*
X10832286Y-17032572D01*
X10846571Y-17004000D01*
X10875143Y-16961143D01*
X10889428Y-16946857D01*
X11132286Y-17089714D02*
X11132286Y-17289714D01*
X11060857Y-16975429D02*
X10989428Y-17189714D01*
X11175143Y-17189714D01*
X11518000Y-17289714D02*
X11518000Y-16989714D01*
X11646571Y-17289714D02*
X11646571Y-17132572D01*
X11632285Y-17104000D01*
X11603714Y-17089714D01*
X11560857Y-17089714D01*
X11532285Y-17104000D01*
X11518000Y-17118286D01*
X11832285Y-17289714D02*
X11803714Y-17275429D01*
X11789428Y-17261143D01*
X11775143Y-17232572D01*
X11775143Y-17146857D01*
X11789428Y-17118286D01*
X11803714Y-17104000D01*
X11832285Y-17089714D01*
X11875143Y-17089714D01*
X11903714Y-17104000D01*
X11918000Y-17118286D01*
X11932285Y-17146857D01*
X11932285Y-17232572D01*
X11918000Y-17261143D01*
X11903714Y-17275429D01*
X11875143Y-17289714D01*
X11832285Y-17289714D01*
X12103714Y-17289714D02*
X12075143Y-17275429D01*
X12060857Y-17246857D01*
X12060857Y-16989714D01*
X12332286Y-17275429D02*
X12303714Y-17289714D01*
X12246571Y-17289714D01*
X12218000Y-17275429D01*
X12203714Y-17246857D01*
X12203714Y-17132572D01*
X12218000Y-17104000D01*
X12246571Y-17089714D01*
X12303714Y-17089714D01*
X12332286Y-17104000D01*
X12346571Y-17132572D01*
X12346571Y-17161143D01*
X12203714Y-17189714D01*
X12460857Y-17275429D02*
X12489428Y-17289714D01*
X12546571Y-17289714D01*
X12575143Y-17275429D01*
X12589428Y-17246857D01*
X12589428Y-17232572D01*
X12575143Y-17204000D01*
X12546571Y-17189714D01*
X12503714Y-17189714D01*
X12475143Y-17175429D01*
X12460857Y-17146857D01*
X12460857Y-17132572D01*
X12475143Y-17104000D01*
X12503714Y-17089714D01*
X12546571Y-17089714D01*
X12575143Y-17104000D01*
X12689428Y-17404000D02*
X12703714Y-17389714D01*
X12732286Y-17346857D01*
X12746571Y-17318286D01*
X12760857Y-17275429D01*
X12775143Y-17204000D01*
X12775143Y-17146857D01*
X12760857Y-17075429D01*
X12746571Y-17032572D01*
X12732286Y-17004000D01*
X12703714Y-16961143D01*
X12689428Y-16946857D01*
X6118000Y-17500000D02*
X6218000Y-17600000D01*
X6218000Y-17500000D02*
X6118000Y-17600000D01*
X6218000Y-17550000D02*
G75*
G03X6218000Y-17550000I-50000J0D01*
G01*
X6646571Y-17685714D02*
X6475143Y-17685714D01*
X6560857Y-17685714D02*
X6560857Y-17385714D01*
X6532286Y-17428572D01*
X6503714Y-17457143D01*
X6475143Y-17471429D01*
X6775143Y-17657143D02*
X6789428Y-17671429D01*
X6775143Y-17685714D01*
X6760857Y-17671429D01*
X6775143Y-17657143D01*
X6775143Y-17685714D01*
X6975143Y-17385714D02*
X7003714Y-17385714D01*
X7032286Y-17400000D01*
X7046571Y-17414286D01*
X7060857Y-17442857D01*
X7075143Y-17500000D01*
X7075143Y-17571429D01*
X7060857Y-17628572D01*
X7046571Y-17657143D01*
X7032286Y-17671429D01*
X7003714Y-17685714D01*
X6975143Y-17685714D01*
X6946571Y-17671429D01*
X6932286Y-17657143D01*
X6918000Y-17628572D01*
X6903714Y-17571429D01*
X6903714Y-17500000D01*
X6918000Y-17442857D01*
X6932286Y-17414286D01*
X6946571Y-17400000D01*
X6975143Y-17385714D01*
X7260857Y-17385714D02*
X7289428Y-17385714D01*
X7318000Y-17400000D01*
X7332286Y-17414286D01*
X7346571Y-17442857D01*
X7360857Y-17500000D01*
X7360857Y-17571429D01*
X7346571Y-17628572D01*
X7332286Y-17657143D01*
X7318000Y-17671429D01*
X7289428Y-17685714D01*
X7260857Y-17685714D01*
X7232286Y-17671429D01*
X7218000Y-17657143D01*
X7203714Y-17628572D01*
X7189428Y-17571429D01*
X7189428Y-17500000D01*
X7203714Y-17442857D01*
X7218000Y-17414286D01*
X7232286Y-17400000D01*
X7260857Y-17385714D01*
X7489428Y-17685714D02*
X7489428Y-17485714D01*
X7489428Y-17514286D02*
X7503714Y-17500000D01*
X7532286Y-17485714D01*
X7575143Y-17485714D01*
X7603714Y-17500000D01*
X7618000Y-17528572D01*
X7618000Y-17685714D01*
X7618000Y-17528572D02*
X7632286Y-17500000D01*
X7660857Y-17485714D01*
X7703714Y-17485714D01*
X7732286Y-17500000D01*
X7746571Y-17528572D01*
X7746571Y-17685714D01*
X7889428Y-17685714D02*
X7889428Y-17485714D01*
X7889428Y-17514286D02*
X7903714Y-17500000D01*
X7932286Y-17485714D01*
X7975143Y-17485714D01*
X8003714Y-17500000D01*
X8018000Y-17528572D01*
X8018000Y-17685714D01*
X8018000Y-17528572D02*
X8032286Y-17500000D01*
X8060857Y-17485714D01*
X8103714Y-17485714D01*
X8132286Y-17500000D01*
X8146571Y-17528572D01*
X8146571Y-17685714D01*
X8732286Y-17371429D02*
X8475143Y-17757143D01*
X9118000Y-17385714D02*
X9146571Y-17385714D01*
X9175143Y-17400000D01*
X9189428Y-17414286D01*
X9203714Y-17442857D01*
X9218000Y-17500000D01*
X9218000Y-17571429D01*
X9203714Y-17628572D01*
X9189428Y-17657143D01*
X9175143Y-17671429D01*
X9146571Y-17685714D01*
X9118000Y-17685714D01*
X9089428Y-17671429D01*
X9075143Y-17657143D01*
X9060857Y-17628572D01*
X9046571Y-17571429D01*
X9046571Y-17500000D01*
X9060857Y-17442857D01*
X9075143Y-17414286D01*
X9089428Y-17400000D01*
X9118000Y-17385714D01*
X9346571Y-17657143D02*
X9360857Y-17671429D01*
X9346571Y-17685714D01*
X9332286Y-17671429D01*
X9346571Y-17657143D01*
X9346571Y-17685714D01*
X9546571Y-17385714D02*
X9575143Y-17385714D01*
X9603714Y-17400000D01*
X9618000Y-17414286D01*
X9632286Y-17442857D01*
X9646571Y-17500000D01*
X9646571Y-17571429D01*
X9632286Y-17628572D01*
X9618000Y-17657143D01*
X9603714Y-17671429D01*
X9575143Y-17685714D01*
X9546571Y-17685714D01*
X9518000Y-17671429D01*
X9503714Y-17657143D01*
X9489428Y-17628572D01*
X9475143Y-17571429D01*
X9475143Y-17500000D01*
X9489428Y-17442857D01*
X9503714Y-17414286D01*
X9518000Y-17400000D01*
X9546571Y-17385714D01*
X9746571Y-17385714D02*
X9932286Y-17385714D01*
X9832286Y-17500000D01*
X9875143Y-17500000D01*
X9903714Y-17514286D01*
X9918000Y-17528572D01*
X9932286Y-17557143D01*
X9932286Y-17628572D01*
X9918000Y-17657143D01*
X9903714Y-17671429D01*
X9875143Y-17685714D01*
X9789428Y-17685714D01*
X9760857Y-17671429D01*
X9746571Y-17657143D01*
X10075143Y-17685714D02*
X10132286Y-17685714D01*
X10160857Y-17671429D01*
X10175143Y-17657143D01*
X10203714Y-17614286D01*
X10218000Y-17557143D01*
X10218000Y-17442857D01*
X10203714Y-17414286D01*
X10189428Y-17400000D01*
X10160857Y-17385714D01*
X10103714Y-17385714D01*
X10075143Y-17400000D01*
X10060857Y-17414286D01*
X10046571Y-17442857D01*
X10046571Y-17514286D01*
X10060857Y-17542857D01*
X10075143Y-17557143D01*
X10103714Y-17571429D01*
X10160857Y-17571429D01*
X10189428Y-17557143D01*
X10203714Y-17542857D01*
X10218000Y-17514286D01*
X10332286Y-17385714D02*
X10332286Y-17442857D01*
X10446571Y-17385714D02*
X10446571Y-17442857D01*
X10889428Y-17800000D02*
X10875143Y-17785714D01*
X10846571Y-17742857D01*
X10832286Y-17714286D01*
X10818000Y-17671429D01*
X10803714Y-17600000D01*
X10803714Y-17542857D01*
X10818000Y-17471429D01*
X10832286Y-17428572D01*
X10846571Y-17400000D01*
X10875143Y-17357143D01*
X10889428Y-17342857D01*
X11132286Y-17385714D02*
X11075143Y-17385714D01*
X11046571Y-17400000D01*
X11032286Y-17414286D01*
X11003714Y-17457143D01*
X10989428Y-17514286D01*
X10989428Y-17628572D01*
X11003714Y-17657143D01*
X11018000Y-17671429D01*
X11046571Y-17685714D01*
X11103714Y-17685714D01*
X11132286Y-17671429D01*
X11146571Y-17657143D01*
X11160857Y-17628572D01*
X11160857Y-17557143D01*
X11146571Y-17528572D01*
X11132286Y-17514286D01*
X11103714Y-17500000D01*
X11046571Y-17500000D01*
X11018000Y-17514286D01*
X11003714Y-17528572D01*
X10989428Y-17557143D01*
X11518000Y-17685714D02*
X11518000Y-17385714D01*
X11646571Y-17685714D02*
X11646571Y-17528572D01*
X11632285Y-17500000D01*
X11603714Y-17485714D01*
X11560857Y-17485714D01*
X11532285Y-17500000D01*
X11518000Y-17514286D01*
X11832285Y-17685714D02*
X11803714Y-17671429D01*
X11789428Y-17657143D01*
X11775143Y-17628572D01*
X11775143Y-17542857D01*
X11789428Y-17514286D01*
X11803714Y-17500000D01*
X11832285Y-17485714D01*
X11875143Y-17485714D01*
X11903714Y-17500000D01*
X11918000Y-17514286D01*
X11932285Y-17542857D01*
X11932285Y-17628572D01*
X11918000Y-17657143D01*
X11903714Y-17671429D01*
X11875143Y-17685714D01*
X11832285Y-17685714D01*
X12103714Y-17685714D02*
X12075143Y-17671429D01*
X12060857Y-17642857D01*
X12060857Y-17385714D01*
X12332286Y-17671429D02*
X12303714Y-17685714D01*
X12246571Y-17685714D01*
X12218000Y-17671429D01*
X12203714Y-17642857D01*
X12203714Y-17528572D01*
X12218000Y-17500000D01*
X12246571Y-17485714D01*
X12303714Y-17485714D01*
X12332286Y-17500000D01*
X12346571Y-17528572D01*
X12346571Y-17557143D01*
X12203714Y-17585714D01*
X12460857Y-17671429D02*
X12489428Y-17685714D01*
X12546571Y-17685714D01*
X12575143Y-17671429D01*
X12589428Y-17642857D01*
X12589428Y-17628572D01*
X12575143Y-17600000D01*
X12546571Y-17585714D01*
X12503714Y-17585714D01*
X12475143Y-17571429D01*
X12460857Y-17542857D01*
X12460857Y-17528572D01*
X12475143Y-17500000D01*
X12503714Y-17485714D01*
X12546571Y-17485714D01*
X12575143Y-17500000D01*
X12689428Y-17800000D02*
X12703714Y-17785714D01*
X12732286Y-17742857D01*
X12746571Y-17714286D01*
X12760857Y-17671429D01*
X12775143Y-17600000D01*
X12775143Y-17542857D01*
X12760857Y-17471429D01*
X12746571Y-17428572D01*
X12732286Y-17400000D01*
X12703714Y-17357143D01*
X12689428Y-17342857D01*
X6116400Y-17895200D02*
X6218000Y-17996800D01*
X6218000Y-17895200D02*
X6116400Y-17996800D01*
X6167200Y-17895200D02*
X6167200Y-17996800D01*
X6116400Y-17946000D02*
X6218000Y-17946000D01*
X6646571Y-18081714D02*
X6475143Y-18081714D01*
X6560857Y-18081714D02*
X6560857Y-17781714D01*
X6532286Y-17824572D01*
X6503714Y-17853143D01*
X6475143Y-17867429D01*
X6775143Y-18053143D02*
X6789428Y-18067429D01*
X6775143Y-18081714D01*
X6760857Y-18067429D01*
X6775143Y-18053143D01*
X6775143Y-18081714D01*
X6975143Y-17781714D02*
X7003714Y-17781714D01*
X7032286Y-17796000D01*
X7046571Y-17810286D01*
X7060857Y-17838857D01*
X7075143Y-17896000D01*
X7075143Y-17967429D01*
X7060857Y-18024572D01*
X7046571Y-18053143D01*
X7032286Y-18067429D01*
X7003714Y-18081714D01*
X6975143Y-18081714D01*
X6946571Y-18067429D01*
X6932286Y-18053143D01*
X6918000Y-18024572D01*
X6903714Y-17967429D01*
X6903714Y-17896000D01*
X6918000Y-17838857D01*
X6932286Y-17810286D01*
X6946571Y-17796000D01*
X6975143Y-17781714D01*
X7189428Y-17810286D02*
X7203714Y-17796000D01*
X7232286Y-17781714D01*
X7303714Y-17781714D01*
X7332286Y-17796000D01*
X7346571Y-17810286D01*
X7360857Y-17838857D01*
X7360857Y-17867429D01*
X7346571Y-17910286D01*
X7175143Y-18081714D01*
X7360857Y-18081714D01*
X7489428Y-18081714D02*
X7489428Y-17881714D01*
X7489428Y-17910286D02*
X7503714Y-17896000D01*
X7532286Y-17881714D01*
X7575143Y-17881714D01*
X7603714Y-17896000D01*
X7618000Y-17924572D01*
X7618000Y-18081714D01*
X7618000Y-17924572D02*
X7632286Y-17896000D01*
X7660857Y-17881714D01*
X7703714Y-17881714D01*
X7732286Y-17896000D01*
X7746571Y-17924572D01*
X7746571Y-18081714D01*
X7889428Y-18081714D02*
X7889428Y-17881714D01*
X7889428Y-17910286D02*
X7903714Y-17896000D01*
X7932286Y-17881714D01*
X7975143Y-17881714D01*
X8003714Y-17896000D01*
X8018000Y-17924572D01*
X8018000Y-18081714D01*
X8018000Y-17924572D02*
X8032286Y-17896000D01*
X8060857Y-17881714D01*
X8103714Y-17881714D01*
X8132286Y-17896000D01*
X8146571Y-17924572D01*
X8146571Y-18081714D01*
X8732286Y-17767429D02*
X8475143Y-18153143D01*
X9118000Y-17781714D02*
X9146571Y-17781714D01*
X9175143Y-17796000D01*
X9189428Y-17810286D01*
X9203714Y-17838857D01*
X9218000Y-17896000D01*
X9218000Y-17967429D01*
X9203714Y-18024572D01*
X9189428Y-18053143D01*
X9175143Y-18067429D01*
X9146571Y-18081714D01*
X9118000Y-18081714D01*
X9089428Y-18067429D01*
X9075143Y-18053143D01*
X9060857Y-18024572D01*
X9046571Y-17967429D01*
X9046571Y-17896000D01*
X9060857Y-17838857D01*
X9075143Y-17810286D01*
X9089428Y-17796000D01*
X9118000Y-17781714D01*
X9346571Y-18053143D02*
X9360857Y-18067429D01*
X9346571Y-18081714D01*
X9332286Y-18067429D01*
X9346571Y-18053143D01*
X9346571Y-18081714D01*
X9546571Y-17781714D02*
X9575143Y-17781714D01*
X9603714Y-17796000D01*
X9618000Y-17810286D01*
X9632286Y-17838857D01*
X9646571Y-17896000D01*
X9646571Y-17967429D01*
X9632286Y-18024572D01*
X9618000Y-18053143D01*
X9603714Y-18067429D01*
X9575143Y-18081714D01*
X9546571Y-18081714D01*
X9518000Y-18067429D01*
X9503714Y-18053143D01*
X9489428Y-18024572D01*
X9475143Y-17967429D01*
X9475143Y-17896000D01*
X9489428Y-17838857D01*
X9503714Y-17810286D01*
X9518000Y-17796000D01*
X9546571Y-17781714D01*
X9903714Y-17881714D02*
X9903714Y-18081714D01*
X9832286Y-17767429D02*
X9760857Y-17981714D01*
X9946571Y-17981714D01*
X10118000Y-17781714D02*
X10146571Y-17781714D01*
X10175143Y-17796000D01*
X10189428Y-17810286D01*
X10203714Y-17838857D01*
X10218000Y-17896000D01*
X10218000Y-17967429D01*
X10203714Y-18024572D01*
X10189428Y-18053143D01*
X10175143Y-18067429D01*
X10146571Y-18081714D01*
X10118000Y-18081714D01*
X10089428Y-18067429D01*
X10075143Y-18053143D01*
X10060857Y-18024572D01*
X10046571Y-17967429D01*
X10046571Y-17896000D01*
X10060857Y-17838857D01*
X10075143Y-17810286D01*
X10089428Y-17796000D01*
X10118000Y-17781714D01*
X10332286Y-17781714D02*
X10332286Y-17838857D01*
X10446571Y-17781714D02*
X10446571Y-17838857D01*
X10889428Y-18196000D02*
X10875143Y-18181714D01*
X10846571Y-18138857D01*
X10832286Y-18110286D01*
X10818000Y-18067429D01*
X10803714Y-17996000D01*
X10803714Y-17938857D01*
X10818000Y-17867429D01*
X10832286Y-17824572D01*
X10846571Y-17796000D01*
X10875143Y-17753143D01*
X10889428Y-17738857D01*
X11146571Y-17781714D02*
X11003714Y-17781714D01*
X10989428Y-17924572D01*
X11003714Y-17910286D01*
X11032286Y-17896000D01*
X11103714Y-17896000D01*
X11132286Y-17910286D01*
X11146571Y-17924572D01*
X11160857Y-17953143D01*
X11160857Y-18024572D01*
X11146571Y-18053143D01*
X11132286Y-18067429D01*
X11103714Y-18081714D01*
X11032286Y-18081714D01*
X11003714Y-18067429D01*
X10989428Y-18053143D01*
X11346571Y-17781714D02*
X11375143Y-17781714D01*
X11403714Y-17796000D01*
X11418000Y-17810286D01*
X11432285Y-17838857D01*
X11446571Y-17896000D01*
X11446571Y-17967429D01*
X11432285Y-18024572D01*
X11418000Y-18053143D01*
X11403714Y-18067429D01*
X11375143Y-18081714D01*
X11346571Y-18081714D01*
X11318000Y-18067429D01*
X11303714Y-18053143D01*
X11289428Y-18024572D01*
X11275143Y-17967429D01*
X11275143Y-17896000D01*
X11289428Y-17838857D01*
X11303714Y-17810286D01*
X11318000Y-17796000D01*
X11346571Y-17781714D01*
X11803714Y-18081714D02*
X11803714Y-17781714D01*
X11932285Y-18081714D02*
X11932285Y-17924572D01*
X11918000Y-17896000D01*
X11889428Y-17881714D01*
X11846571Y-17881714D01*
X11818000Y-17896000D01*
X11803714Y-17910286D01*
X12118000Y-18081714D02*
X12089428Y-18067429D01*
X12075143Y-18053143D01*
X12060857Y-18024572D01*
X12060857Y-17938857D01*
X12075143Y-17910286D01*
X12089428Y-17896000D01*
X12118000Y-17881714D01*
X12160857Y-17881714D01*
X12189428Y-17896000D01*
X12203714Y-17910286D01*
X12218000Y-17938857D01*
X12218000Y-18024572D01*
X12203714Y-18053143D01*
X12189428Y-18067429D01*
X12160857Y-18081714D01*
X12118000Y-18081714D01*
X12389428Y-18081714D02*
X12360857Y-18067429D01*
X12346571Y-18038857D01*
X12346571Y-17781714D01*
X12618000Y-18067429D02*
X12589428Y-18081714D01*
X12532286Y-18081714D01*
X12503714Y-18067429D01*
X12489428Y-18038857D01*
X12489428Y-17924572D01*
X12503714Y-17896000D01*
X12532286Y-17881714D01*
X12589428Y-17881714D01*
X12618000Y-17896000D01*
X12632286Y-17924572D01*
X12632286Y-17953143D01*
X12489428Y-17981714D01*
X12746571Y-18067429D02*
X12775143Y-18081714D01*
X12832286Y-18081714D01*
X12860857Y-18067429D01*
X12875143Y-18038857D01*
X12875143Y-18024572D01*
X12860857Y-17996000D01*
X12832286Y-17981714D01*
X12789428Y-17981714D01*
X12760857Y-17967429D01*
X12746571Y-17938857D01*
X12746571Y-17924572D01*
X12760857Y-17896000D01*
X12789428Y-17881714D01*
X12832286Y-17881714D01*
X12860857Y-17896000D01*
X12975143Y-18196000D02*
X12989428Y-18181714D01*
X13018000Y-18138857D01*
X13032286Y-18110286D01*
X13046571Y-18067429D01*
X13060857Y-17996000D01*
X13060857Y-17938857D01*
X13046571Y-17867429D01*
X13032286Y-17824572D01*
X13018000Y-17796000D01*
X12989428Y-17753143D01*
X12975143Y-17738857D01*
X6098000Y-18282000D02*
X6218000Y-18402000D01*
X6218000Y-18282000D02*
X6098000Y-18402000D01*
X6200427Y-18384427D02*
X6200427Y-18299573D01*
X6115573Y-18299573D01*
X6115573Y-18384427D01*
X6200427Y-18384427D01*
X6646571Y-18477714D02*
X6475143Y-18477714D01*
X6560857Y-18477714D02*
X6560857Y-18177714D01*
X6532286Y-18220572D01*
X6503714Y-18249143D01*
X6475143Y-18263429D01*
X6775143Y-18449143D02*
X6789428Y-18463429D01*
X6775143Y-18477714D01*
X6760857Y-18463429D01*
X6775143Y-18449143D01*
X6775143Y-18477714D01*
X6903714Y-18206286D02*
X6918000Y-18192000D01*
X6946571Y-18177714D01*
X7018000Y-18177714D01*
X7046571Y-18192000D01*
X7060857Y-18206286D01*
X7075143Y-18234857D01*
X7075143Y-18263429D01*
X7060857Y-18306286D01*
X6889428Y-18477714D01*
X7075143Y-18477714D01*
X7260857Y-18177714D02*
X7289428Y-18177714D01*
X7318000Y-18192000D01*
X7332286Y-18206286D01*
X7346571Y-18234857D01*
X7360857Y-18292000D01*
X7360857Y-18363429D01*
X7346571Y-18420572D01*
X7332286Y-18449143D01*
X7318000Y-18463429D01*
X7289428Y-18477714D01*
X7260857Y-18477714D01*
X7232286Y-18463429D01*
X7218000Y-18449143D01*
X7203714Y-18420572D01*
X7189428Y-18363429D01*
X7189428Y-18292000D01*
X7203714Y-18234857D01*
X7218000Y-18206286D01*
X7232286Y-18192000D01*
X7260857Y-18177714D01*
X7489428Y-18477714D02*
X7489428Y-18277714D01*
X7489428Y-18306286D02*
X7503714Y-18292000D01*
X7532286Y-18277714D01*
X7575143Y-18277714D01*
X7603714Y-18292000D01*
X7618000Y-18320572D01*
X7618000Y-18477714D01*
X7618000Y-18320572D02*
X7632286Y-18292000D01*
X7660857Y-18277714D01*
X7703714Y-18277714D01*
X7732286Y-18292000D01*
X7746571Y-18320572D01*
X7746571Y-18477714D01*
X7889428Y-18477714D02*
X7889428Y-18277714D01*
X7889428Y-18306286D02*
X7903714Y-18292000D01*
X7932286Y-18277714D01*
X7975143Y-18277714D01*
X8003714Y-18292000D01*
X8018000Y-18320572D01*
X8018000Y-18477714D01*
X8018000Y-18320572D02*
X8032286Y-18292000D01*
X8060857Y-18277714D01*
X8103714Y-18277714D01*
X8132286Y-18292000D01*
X8146571Y-18320572D01*
X8146571Y-18477714D01*
X8732286Y-18163429D02*
X8475143Y-18549143D01*
X9118000Y-18177714D02*
X9146571Y-18177714D01*
X9175143Y-18192000D01*
X9189428Y-18206286D01*
X9203714Y-18234857D01*
X9218000Y-18292000D01*
X9218000Y-18363429D01*
X9203714Y-18420572D01*
X9189428Y-18449143D01*
X9175143Y-18463429D01*
X9146571Y-18477714D01*
X9118000Y-18477714D01*
X9089428Y-18463429D01*
X9075143Y-18449143D01*
X9060857Y-18420572D01*
X9046571Y-18363429D01*
X9046571Y-18292000D01*
X9060857Y-18234857D01*
X9075143Y-18206286D01*
X9089428Y-18192000D01*
X9118000Y-18177714D01*
X9346571Y-18449143D02*
X9360857Y-18463429D01*
X9346571Y-18477714D01*
X9332286Y-18463429D01*
X9346571Y-18449143D01*
X9346571Y-18477714D01*
X9546571Y-18177714D02*
X9575143Y-18177714D01*
X9603714Y-18192000D01*
X9618000Y-18206286D01*
X9632286Y-18234857D01*
X9646571Y-18292000D01*
X9646571Y-18363429D01*
X9632286Y-18420572D01*
X9618000Y-18449143D01*
X9603714Y-18463429D01*
X9575143Y-18477714D01*
X9546571Y-18477714D01*
X9518000Y-18463429D01*
X9503714Y-18449143D01*
X9489428Y-18420572D01*
X9475143Y-18363429D01*
X9475143Y-18292000D01*
X9489428Y-18234857D01*
X9503714Y-18206286D01*
X9518000Y-18192000D01*
X9546571Y-18177714D01*
X9903714Y-18277714D02*
X9903714Y-18477714D01*
X9832286Y-18163429D02*
X9760857Y-18377714D01*
X9946571Y-18377714D01*
X10032286Y-18177714D02*
X10232286Y-18177714D01*
X10103714Y-18477714D01*
X10332286Y-18177714D02*
X10332286Y-18234857D01*
X10446571Y-18177714D02*
X10446571Y-18234857D01*
X10889428Y-18592000D02*
X10875143Y-18577714D01*
X10846571Y-18534857D01*
X10832286Y-18506286D01*
X10818000Y-18463429D01*
X10803714Y-18392000D01*
X10803714Y-18334857D01*
X10818000Y-18263429D01*
X10832286Y-18220572D01*
X10846571Y-18192000D01*
X10875143Y-18149143D01*
X10889428Y-18134857D01*
X11160857Y-18477714D02*
X10989428Y-18477714D01*
X11075143Y-18477714D02*
X11075143Y-18177714D01*
X11046571Y-18220572D01*
X11018000Y-18249143D01*
X10989428Y-18263429D01*
X11275143Y-18206286D02*
X11289428Y-18192000D01*
X11318000Y-18177714D01*
X11389428Y-18177714D01*
X11418000Y-18192000D01*
X11432285Y-18206286D01*
X11446571Y-18234857D01*
X11446571Y-18263429D01*
X11432285Y-18306286D01*
X11260857Y-18477714D01*
X11446571Y-18477714D01*
X11803714Y-18477714D02*
X11803714Y-18177714D01*
X11932285Y-18477714D02*
X11932285Y-18320572D01*
X11918000Y-18292000D01*
X11889428Y-18277714D01*
X11846571Y-18277714D01*
X11818000Y-18292000D01*
X11803714Y-18306286D01*
X12118000Y-18477714D02*
X12089428Y-18463429D01*
X12075143Y-18449143D01*
X12060857Y-18420572D01*
X12060857Y-18334857D01*
X12075143Y-18306286D01*
X12089428Y-18292000D01*
X12118000Y-18277714D01*
X12160857Y-18277714D01*
X12189428Y-18292000D01*
X12203714Y-18306286D01*
X12218000Y-18334857D01*
X12218000Y-18420572D01*
X12203714Y-18449143D01*
X12189428Y-18463429D01*
X12160857Y-18477714D01*
X12118000Y-18477714D01*
X12389428Y-18477714D02*
X12360857Y-18463429D01*
X12346571Y-18434857D01*
X12346571Y-18177714D01*
X12618000Y-18463429D02*
X12589428Y-18477714D01*
X12532286Y-18477714D01*
X12503714Y-18463429D01*
X12489428Y-18434857D01*
X12489428Y-18320572D01*
X12503714Y-18292000D01*
X12532286Y-18277714D01*
X12589428Y-18277714D01*
X12618000Y-18292000D01*
X12632286Y-18320572D01*
X12632286Y-18349143D01*
X12489428Y-18377714D01*
X12746571Y-18463429D02*
X12775143Y-18477714D01*
X12832286Y-18477714D01*
X12860857Y-18463429D01*
X12875143Y-18434857D01*
X12875143Y-18420572D01*
X12860857Y-18392000D01*
X12832286Y-18377714D01*
X12789428Y-18377714D01*
X12760857Y-18363429D01*
X12746571Y-18334857D01*
X12746571Y-18320572D01*
X12760857Y-18292000D01*
X12789428Y-18277714D01*
X12832286Y-18277714D01*
X12860857Y-18292000D01*
X12975143Y-18592000D02*
X12989428Y-18577714D01*
X13018000Y-18534857D01*
X13032286Y-18506286D01*
X13046571Y-18463429D01*
X13060857Y-18392000D01*
X13060857Y-18334857D01*
X13046571Y-18263429D01*
X13032286Y-18220572D01*
X13018000Y-18192000D01*
X12989428Y-18149143D01*
X12975143Y-18134857D01*
X6038000Y-18648000D02*
X6218000Y-18828000D01*
X6218000Y-18648000D02*
X6038000Y-18828000D01*
X6128000Y-18828000D02*
X6218000Y-18738000D01*
X6128000Y-18648000D01*
X6038000Y-18738000D01*
X6128000Y-18828000D01*
X6646571Y-18873714D02*
X6475143Y-18873714D01*
X6560857Y-18873714D02*
X6560857Y-18573714D01*
X6532286Y-18616572D01*
X6503714Y-18645143D01*
X6475143Y-18659429D01*
X6775143Y-18845143D02*
X6789428Y-18859429D01*
X6775143Y-18873714D01*
X6760857Y-18859429D01*
X6775143Y-18845143D01*
X6775143Y-18873714D01*
X6960857Y-18702286D02*
X6932286Y-18688000D01*
X6918000Y-18673714D01*
X6903714Y-18645143D01*
X6903714Y-18630857D01*
X6918000Y-18602286D01*
X6932286Y-18588000D01*
X6960857Y-18573714D01*
X7018000Y-18573714D01*
X7046571Y-18588000D01*
X7060857Y-18602286D01*
X7075143Y-18630857D01*
X7075143Y-18645143D01*
X7060857Y-18673714D01*
X7046571Y-18688000D01*
X7018000Y-18702286D01*
X6960857Y-18702286D01*
X6932286Y-18716572D01*
X6918000Y-18730857D01*
X6903714Y-18759429D01*
X6903714Y-18816572D01*
X6918000Y-18845143D01*
X6932286Y-18859429D01*
X6960857Y-18873714D01*
X7018000Y-18873714D01*
X7046571Y-18859429D01*
X7060857Y-18845143D01*
X7075143Y-18816572D01*
X7075143Y-18759429D01*
X7060857Y-18730857D01*
X7046571Y-18716572D01*
X7018000Y-18702286D01*
X7260857Y-18573714D02*
X7289428Y-18573714D01*
X7318000Y-18588000D01*
X7332286Y-18602286D01*
X7346571Y-18630857D01*
X7360857Y-18688000D01*
X7360857Y-18759429D01*
X7346571Y-18816572D01*
X7332286Y-18845143D01*
X7318000Y-18859429D01*
X7289428Y-18873714D01*
X7260857Y-18873714D01*
X7232286Y-18859429D01*
X7218000Y-18845143D01*
X7203714Y-18816572D01*
X7189428Y-18759429D01*
X7189428Y-18688000D01*
X7203714Y-18630857D01*
X7218000Y-18602286D01*
X7232286Y-18588000D01*
X7260857Y-18573714D01*
X7489428Y-18873714D02*
X7489428Y-18673714D01*
X7489428Y-18702286D02*
X7503714Y-18688000D01*
X7532286Y-18673714D01*
X7575143Y-18673714D01*
X7603714Y-18688000D01*
X7618000Y-18716572D01*
X7618000Y-18873714D01*
X7618000Y-18716572D02*
X7632286Y-18688000D01*
X7660857Y-18673714D01*
X7703714Y-18673714D01*
X7732286Y-18688000D01*
X7746571Y-18716572D01*
X7746571Y-18873714D01*
X7889428Y-18873714D02*
X7889428Y-18673714D01*
X7889428Y-18702286D02*
X7903714Y-18688000D01*
X7932286Y-18673714D01*
X7975143Y-18673714D01*
X8003714Y-18688000D01*
X8018000Y-18716572D01*
X8018000Y-18873714D01*
X8018000Y-18716572D02*
X8032286Y-18688000D01*
X8060857Y-18673714D01*
X8103714Y-18673714D01*
X8132286Y-18688000D01*
X8146571Y-18716572D01*
X8146571Y-18873714D01*
X8732286Y-18559429D02*
X8475143Y-18945143D01*
X9118000Y-18573714D02*
X9146571Y-18573714D01*
X9175143Y-18588000D01*
X9189428Y-18602286D01*
X9203714Y-18630857D01*
X9218000Y-18688000D01*
X9218000Y-18759429D01*
X9203714Y-18816572D01*
X9189428Y-18845143D01*
X9175143Y-18859429D01*
X9146571Y-18873714D01*
X9118000Y-18873714D01*
X9089428Y-18859429D01*
X9075143Y-18845143D01*
X9060857Y-18816572D01*
X9046571Y-18759429D01*
X9046571Y-18688000D01*
X9060857Y-18630857D01*
X9075143Y-18602286D01*
X9089428Y-18588000D01*
X9118000Y-18573714D01*
X9346571Y-18845143D02*
X9360857Y-18859429D01*
X9346571Y-18873714D01*
X9332286Y-18859429D01*
X9346571Y-18845143D01*
X9346571Y-18873714D01*
X9546571Y-18573714D02*
X9575143Y-18573714D01*
X9603714Y-18588000D01*
X9618000Y-18602286D01*
X9632286Y-18630857D01*
X9646571Y-18688000D01*
X9646571Y-18759429D01*
X9632286Y-18816572D01*
X9618000Y-18845143D01*
X9603714Y-18859429D01*
X9575143Y-18873714D01*
X9546571Y-18873714D01*
X9518000Y-18859429D01*
X9503714Y-18845143D01*
X9489428Y-18816572D01*
X9475143Y-18759429D01*
X9475143Y-18688000D01*
X9489428Y-18630857D01*
X9503714Y-18602286D01*
X9518000Y-18588000D01*
X9546571Y-18573714D01*
X9746571Y-18573714D02*
X9946571Y-18573714D01*
X9818000Y-18873714D01*
X10218000Y-18873714D02*
X10046571Y-18873714D01*
X10132286Y-18873714D02*
X10132286Y-18573714D01*
X10103714Y-18616572D01*
X10075143Y-18645143D01*
X10046571Y-18659429D01*
X10332286Y-18573714D02*
X10332286Y-18630857D01*
X10446571Y-18573714D02*
X10446571Y-18630857D01*
X10889428Y-18988000D02*
X10875143Y-18973714D01*
X10846571Y-18930857D01*
X10832286Y-18902286D01*
X10818000Y-18859429D01*
X10803714Y-18788000D01*
X10803714Y-18730857D01*
X10818000Y-18659429D01*
X10832286Y-18616572D01*
X10846571Y-18588000D01*
X10875143Y-18545143D01*
X10889428Y-18530857D01*
X11132286Y-18573714D02*
X11075143Y-18573714D01*
X11046571Y-18588000D01*
X11032286Y-18602286D01*
X11003714Y-18645143D01*
X10989428Y-18702286D01*
X10989428Y-18816572D01*
X11003714Y-18845143D01*
X11018000Y-18859429D01*
X11046571Y-18873714D01*
X11103714Y-18873714D01*
X11132286Y-18859429D01*
X11146571Y-18845143D01*
X11160857Y-18816572D01*
X11160857Y-18745143D01*
X11146571Y-18716572D01*
X11132286Y-18702286D01*
X11103714Y-18688000D01*
X11046571Y-18688000D01*
X11018000Y-18702286D01*
X11003714Y-18716572D01*
X10989428Y-18745143D01*
X11518000Y-18873714D02*
X11518000Y-18573714D01*
X11646571Y-18873714D02*
X11646571Y-18716572D01*
X11632285Y-18688000D01*
X11603714Y-18673714D01*
X11560857Y-18673714D01*
X11532285Y-18688000D01*
X11518000Y-18702286D01*
X11832285Y-18873714D02*
X11803714Y-18859429D01*
X11789428Y-18845143D01*
X11775143Y-18816572D01*
X11775143Y-18730857D01*
X11789428Y-18702286D01*
X11803714Y-18688000D01*
X11832285Y-18673714D01*
X11875143Y-18673714D01*
X11903714Y-18688000D01*
X11918000Y-18702286D01*
X11932285Y-18730857D01*
X11932285Y-18816572D01*
X11918000Y-18845143D01*
X11903714Y-18859429D01*
X11875143Y-18873714D01*
X11832285Y-18873714D01*
X12103714Y-18873714D02*
X12075143Y-18859429D01*
X12060857Y-18830857D01*
X12060857Y-18573714D01*
X12332286Y-18859429D02*
X12303714Y-18873714D01*
X12246571Y-18873714D01*
X12218000Y-18859429D01*
X12203714Y-18830857D01*
X12203714Y-18716572D01*
X12218000Y-18688000D01*
X12246571Y-18673714D01*
X12303714Y-18673714D01*
X12332286Y-18688000D01*
X12346571Y-18716572D01*
X12346571Y-18745143D01*
X12203714Y-18773714D01*
X12460857Y-18859429D02*
X12489428Y-18873714D01*
X12546571Y-18873714D01*
X12575143Y-18859429D01*
X12589428Y-18830857D01*
X12589428Y-18816572D01*
X12575143Y-18788000D01*
X12546571Y-18773714D01*
X12503714Y-18773714D01*
X12475143Y-18759429D01*
X12460857Y-18730857D01*
X12460857Y-18716572D01*
X12475143Y-18688000D01*
X12503714Y-18673714D01*
X12546571Y-18673714D01*
X12575143Y-18688000D01*
X12689428Y-18988000D02*
X12703714Y-18973714D01*
X12732286Y-18930857D01*
X12746571Y-18902286D01*
X12760857Y-18859429D01*
X12775143Y-18788000D01*
X12775143Y-18730857D01*
X12760857Y-18659429D01*
X12746571Y-18616572D01*
X12732286Y-18588000D01*
X12703714Y-18545143D01*
X12689428Y-18530857D01*
X6123000Y-19039000D02*
X6123000Y-19229000D01*
X6028000Y-19134000D02*
X6218000Y-19134000D01*
X6218000Y-19134000D02*
G75*
G03X6218000Y-19134000I-95000J0D01*
G01*
X6646571Y-19269714D02*
X6475143Y-19269714D01*
X6560857Y-19269714D02*
X6560857Y-18969714D01*
X6532286Y-19012572D01*
X6503714Y-19041143D01*
X6475143Y-19055429D01*
X6775143Y-19241143D02*
X6789428Y-19255429D01*
X6775143Y-19269714D01*
X6760857Y-19255429D01*
X6775143Y-19241143D01*
X6775143Y-19269714D01*
X6932286Y-19269714D02*
X6989428Y-19269714D01*
X7018000Y-19255429D01*
X7032286Y-19241143D01*
X7060857Y-19198286D01*
X7075143Y-19141143D01*
X7075143Y-19026857D01*
X7060857Y-18998286D01*
X7046571Y-18984000D01*
X7018000Y-18969714D01*
X6960857Y-18969714D01*
X6932286Y-18984000D01*
X6918000Y-18998286D01*
X6903714Y-19026857D01*
X6903714Y-19098286D01*
X6918000Y-19126857D01*
X6932286Y-19141143D01*
X6960857Y-19155429D01*
X7018000Y-19155429D01*
X7046571Y-19141143D01*
X7060857Y-19126857D01*
X7075143Y-19098286D01*
X7260857Y-18969714D02*
X7289428Y-18969714D01*
X7318000Y-18984000D01*
X7332286Y-18998286D01*
X7346571Y-19026857D01*
X7360857Y-19084000D01*
X7360857Y-19155429D01*
X7346571Y-19212572D01*
X7332286Y-19241143D01*
X7318000Y-19255429D01*
X7289428Y-19269714D01*
X7260857Y-19269714D01*
X7232286Y-19255429D01*
X7218000Y-19241143D01*
X7203714Y-19212572D01*
X7189428Y-19155429D01*
X7189428Y-19084000D01*
X7203714Y-19026857D01*
X7218000Y-18998286D01*
X7232286Y-18984000D01*
X7260857Y-18969714D01*
X7489428Y-19269714D02*
X7489428Y-19069714D01*
X7489428Y-19098286D02*
X7503714Y-19084000D01*
X7532286Y-19069714D01*
X7575143Y-19069714D01*
X7603714Y-19084000D01*
X7618000Y-19112572D01*
X7618000Y-19269714D01*
X7618000Y-19112572D02*
X7632286Y-19084000D01*
X7660857Y-19069714D01*
X7703714Y-19069714D01*
X7732286Y-19084000D01*
X7746571Y-19112572D01*
X7746571Y-19269714D01*
X7889428Y-19269714D02*
X7889428Y-19069714D01*
X7889428Y-19098286D02*
X7903714Y-19084000D01*
X7932286Y-19069714D01*
X7975143Y-19069714D01*
X8003714Y-19084000D01*
X8018000Y-19112572D01*
X8018000Y-19269714D01*
X8018000Y-19112572D02*
X8032286Y-19084000D01*
X8060857Y-19069714D01*
X8103714Y-19069714D01*
X8132286Y-19084000D01*
X8146571Y-19112572D01*
X8146571Y-19269714D01*
X8732286Y-18955429D02*
X8475143Y-19341143D01*
X9118000Y-18969714D02*
X9146571Y-18969714D01*
X9175143Y-18984000D01*
X9189428Y-18998286D01*
X9203714Y-19026857D01*
X9218000Y-19084000D01*
X9218000Y-19155429D01*
X9203714Y-19212572D01*
X9189428Y-19241143D01*
X9175143Y-19255429D01*
X9146571Y-19269714D01*
X9118000Y-19269714D01*
X9089428Y-19255429D01*
X9075143Y-19241143D01*
X9060857Y-19212572D01*
X9046571Y-19155429D01*
X9046571Y-19084000D01*
X9060857Y-19026857D01*
X9075143Y-18998286D01*
X9089428Y-18984000D01*
X9118000Y-18969714D01*
X9346571Y-19241143D02*
X9360857Y-19255429D01*
X9346571Y-19269714D01*
X9332286Y-19255429D01*
X9346571Y-19241143D01*
X9346571Y-19269714D01*
X9546571Y-18969714D02*
X9575143Y-18969714D01*
X9603714Y-18984000D01*
X9618000Y-18998286D01*
X9632286Y-19026857D01*
X9646571Y-19084000D01*
X9646571Y-19155429D01*
X9632286Y-19212572D01*
X9618000Y-19241143D01*
X9603714Y-19255429D01*
X9575143Y-19269714D01*
X9546571Y-19269714D01*
X9518000Y-19255429D01*
X9503714Y-19241143D01*
X9489428Y-19212572D01*
X9475143Y-19155429D01*
X9475143Y-19084000D01*
X9489428Y-19026857D01*
X9503714Y-18998286D01*
X9518000Y-18984000D01*
X9546571Y-18969714D01*
X9746571Y-18969714D02*
X9946571Y-18969714D01*
X9818000Y-19269714D01*
X10203714Y-18969714D02*
X10060857Y-18969714D01*
X10046571Y-19112572D01*
X10060857Y-19098286D01*
X10089428Y-19084000D01*
X10160857Y-19084000D01*
X10189428Y-19098286D01*
X10203714Y-19112572D01*
X10218000Y-19141143D01*
X10218000Y-19212572D01*
X10203714Y-19241143D01*
X10189428Y-19255429D01*
X10160857Y-19269714D01*
X10089428Y-19269714D01*
X10060857Y-19255429D01*
X10046571Y-19241143D01*
X10332286Y-18969714D02*
X10332286Y-19026857D01*
X10446571Y-18969714D02*
X10446571Y-19026857D01*
X10889428Y-19384000D02*
X10875143Y-19369714D01*
X10846571Y-19326857D01*
X10832286Y-19298286D01*
X10818000Y-19255429D01*
X10803714Y-19184000D01*
X10803714Y-19126857D01*
X10818000Y-19055429D01*
X10832286Y-19012572D01*
X10846571Y-18984000D01*
X10875143Y-18941143D01*
X10889428Y-18926857D01*
X10989428Y-18998286D02*
X11003714Y-18984000D01*
X11032286Y-18969714D01*
X11103714Y-18969714D01*
X11132286Y-18984000D01*
X11146571Y-18998286D01*
X11160857Y-19026857D01*
X11160857Y-19055429D01*
X11146571Y-19098286D01*
X10975143Y-19269714D01*
X11160857Y-19269714D01*
X11518000Y-19269714D02*
X11518000Y-18969714D01*
X11646571Y-19269714D02*
X11646571Y-19112572D01*
X11632285Y-19084000D01*
X11603714Y-19069714D01*
X11560857Y-19069714D01*
X11532285Y-19084000D01*
X11518000Y-19098286D01*
X11832285Y-19269714D02*
X11803714Y-19255429D01*
X11789428Y-19241143D01*
X11775143Y-19212572D01*
X11775143Y-19126857D01*
X11789428Y-19098286D01*
X11803714Y-19084000D01*
X11832285Y-19069714D01*
X11875143Y-19069714D01*
X11903714Y-19084000D01*
X11918000Y-19098286D01*
X11932285Y-19126857D01*
X11932285Y-19212572D01*
X11918000Y-19241143D01*
X11903714Y-19255429D01*
X11875143Y-19269714D01*
X11832285Y-19269714D01*
X12103714Y-19269714D02*
X12075143Y-19255429D01*
X12060857Y-19226857D01*
X12060857Y-18969714D01*
X12332286Y-19255429D02*
X12303714Y-19269714D01*
X12246571Y-19269714D01*
X12218000Y-19255429D01*
X12203714Y-19226857D01*
X12203714Y-19112572D01*
X12218000Y-19084000D01*
X12246571Y-19069714D01*
X12303714Y-19069714D01*
X12332286Y-19084000D01*
X12346571Y-19112572D01*
X12346571Y-19141143D01*
X12203714Y-19169714D01*
X12460857Y-19255429D02*
X12489428Y-19269714D01*
X12546571Y-19269714D01*
X12575143Y-19255429D01*
X12589428Y-19226857D01*
X12589428Y-19212572D01*
X12575143Y-19184000D01*
X12546571Y-19169714D01*
X12503714Y-19169714D01*
X12475143Y-19155429D01*
X12460857Y-19126857D01*
X12460857Y-19112572D01*
X12475143Y-19084000D01*
X12503714Y-19069714D01*
X12546571Y-19069714D01*
X12575143Y-19084000D01*
X12689428Y-19384000D02*
X12703714Y-19369714D01*
X12732286Y-19326857D01*
X12746571Y-19298286D01*
X12760857Y-19255429D01*
X12775143Y-19184000D01*
X12775143Y-19126857D01*
X12760857Y-19055429D01*
X12746571Y-19012572D01*
X12732286Y-18984000D01*
X12703714Y-18941143D01*
X12689428Y-18926857D01*
X6184337Y-19611272D02*
X6184337Y-19448728D01*
X6021793Y-19448728D01*
X6021793Y-19611272D01*
X6184337Y-19611272D01*
X6218000Y-19530000D02*
G75*
G03X6218000Y-19530000I-114935J0D01*
G01*
X6475143Y-19394286D02*
X6489428Y-19380000D01*
X6518000Y-19365714D01*
X6589428Y-19365714D01*
X6618000Y-19380000D01*
X6632286Y-19394286D01*
X6646571Y-19422857D01*
X6646571Y-19451429D01*
X6632286Y-19494286D01*
X6460857Y-19665714D01*
X6646571Y-19665714D01*
X6775143Y-19637143D02*
X6789428Y-19651429D01*
X6775143Y-19665714D01*
X6760857Y-19651429D01*
X6775143Y-19637143D01*
X6775143Y-19665714D01*
X6889428Y-19365714D02*
X7075143Y-19365714D01*
X6975143Y-19480000D01*
X7018000Y-19480000D01*
X7046571Y-19494286D01*
X7060857Y-19508572D01*
X7075143Y-19537143D01*
X7075143Y-19608572D01*
X7060857Y-19637143D01*
X7046571Y-19651429D01*
X7018000Y-19665714D01*
X6932286Y-19665714D01*
X6903714Y-19651429D01*
X6889428Y-19637143D01*
X7260857Y-19365714D02*
X7289428Y-19365714D01*
X7318000Y-19380000D01*
X7332286Y-19394286D01*
X7346571Y-19422857D01*
X7360857Y-19480000D01*
X7360857Y-19551429D01*
X7346571Y-19608572D01*
X7332286Y-19637143D01*
X7318000Y-19651429D01*
X7289428Y-19665714D01*
X7260857Y-19665714D01*
X7232286Y-19651429D01*
X7218000Y-19637143D01*
X7203714Y-19608572D01*
X7189428Y-19551429D01*
X7189428Y-19480000D01*
X7203714Y-19422857D01*
X7218000Y-19394286D01*
X7232286Y-19380000D01*
X7260857Y-19365714D01*
X7489428Y-19665714D02*
X7489428Y-19465714D01*
X7489428Y-19494286D02*
X7503714Y-19480000D01*
X7532286Y-19465714D01*
X7575143Y-19465714D01*
X7603714Y-19480000D01*
X7618000Y-19508572D01*
X7618000Y-19665714D01*
X7618000Y-19508572D02*
X7632286Y-19480000D01*
X7660857Y-19465714D01*
X7703714Y-19465714D01*
X7732286Y-19480000D01*
X7746571Y-19508572D01*
X7746571Y-19665714D01*
X7889428Y-19665714D02*
X7889428Y-19465714D01*
X7889428Y-19494286D02*
X7903714Y-19480000D01*
X7932286Y-19465714D01*
X7975143Y-19465714D01*
X8003714Y-19480000D01*
X8018000Y-19508572D01*
X8018000Y-19665714D01*
X8018000Y-19508572D02*
X8032286Y-19480000D01*
X8060857Y-19465714D01*
X8103714Y-19465714D01*
X8132286Y-19480000D01*
X8146571Y-19508572D01*
X8146571Y-19665714D01*
X8732286Y-19351429D02*
X8475143Y-19737143D01*
X9118000Y-19365714D02*
X9146571Y-19365714D01*
X9175143Y-19380000D01*
X9189428Y-19394286D01*
X9203714Y-19422857D01*
X9218000Y-19480000D01*
X9218000Y-19551429D01*
X9203714Y-19608572D01*
X9189428Y-19637143D01*
X9175143Y-19651429D01*
X9146571Y-19665714D01*
X9118000Y-19665714D01*
X9089428Y-19651429D01*
X9075143Y-19637143D01*
X9060857Y-19608572D01*
X9046571Y-19551429D01*
X9046571Y-19480000D01*
X9060857Y-19422857D01*
X9075143Y-19394286D01*
X9089428Y-19380000D01*
X9118000Y-19365714D01*
X9346571Y-19637143D02*
X9360857Y-19651429D01*
X9346571Y-19665714D01*
X9332286Y-19651429D01*
X9346571Y-19637143D01*
X9346571Y-19665714D01*
X9546571Y-19365714D02*
X9575143Y-19365714D01*
X9603714Y-19380000D01*
X9618000Y-19394286D01*
X9632286Y-19422857D01*
X9646571Y-19480000D01*
X9646571Y-19551429D01*
X9632286Y-19608572D01*
X9618000Y-19637143D01*
X9603714Y-19651429D01*
X9575143Y-19665714D01*
X9546571Y-19665714D01*
X9518000Y-19651429D01*
X9503714Y-19637143D01*
X9489428Y-19608572D01*
X9475143Y-19551429D01*
X9475143Y-19480000D01*
X9489428Y-19422857D01*
X9503714Y-19394286D01*
X9518000Y-19380000D01*
X9546571Y-19365714D01*
X9789428Y-19665714D02*
X9846571Y-19665714D01*
X9875143Y-19651429D01*
X9889428Y-19637143D01*
X9918000Y-19594286D01*
X9932286Y-19537143D01*
X9932286Y-19422857D01*
X9918000Y-19394286D01*
X9903714Y-19380000D01*
X9875143Y-19365714D01*
X9818000Y-19365714D01*
X9789428Y-19380000D01*
X9775143Y-19394286D01*
X9760857Y-19422857D01*
X9760857Y-19494286D01*
X9775143Y-19522857D01*
X9789428Y-19537143D01*
X9818000Y-19551429D01*
X9875143Y-19551429D01*
X9903714Y-19537143D01*
X9918000Y-19522857D01*
X9932286Y-19494286D01*
X10218000Y-19665714D02*
X10046571Y-19665714D01*
X10132286Y-19665714D02*
X10132286Y-19365714D01*
X10103714Y-19408572D01*
X10075143Y-19437143D01*
X10046571Y-19451429D01*
X10332286Y-19365714D02*
X10332286Y-19422857D01*
X10446571Y-19365714D02*
X10446571Y-19422857D01*
X10889428Y-19780000D02*
X10875143Y-19765714D01*
X10846571Y-19722857D01*
X10832286Y-19694286D01*
X10818000Y-19651429D01*
X10803714Y-19580000D01*
X10803714Y-19522857D01*
X10818000Y-19451429D01*
X10832286Y-19408572D01*
X10846571Y-19380000D01*
X10875143Y-19337143D01*
X10889428Y-19322857D01*
X10975143Y-19365714D02*
X11160857Y-19365714D01*
X11060857Y-19480000D01*
X11103714Y-19480000D01*
X11132286Y-19494286D01*
X11146571Y-19508572D01*
X11160857Y-19537143D01*
X11160857Y-19608572D01*
X11146571Y-19637143D01*
X11132286Y-19651429D01*
X11103714Y-19665714D01*
X11018000Y-19665714D01*
X10989428Y-19651429D01*
X10975143Y-19637143D01*
X11518000Y-19665714D02*
X11518000Y-19365714D01*
X11646571Y-19665714D02*
X11646571Y-19508572D01*
X11632285Y-19480000D01*
X11603714Y-19465714D01*
X11560857Y-19465714D01*
X11532285Y-19480000D01*
X11518000Y-19494286D01*
X11832285Y-19665714D02*
X11803714Y-19651429D01*
X11789428Y-19637143D01*
X11775143Y-19608572D01*
X11775143Y-19522857D01*
X11789428Y-19494286D01*
X11803714Y-19480000D01*
X11832285Y-19465714D01*
X11875143Y-19465714D01*
X11903714Y-19480000D01*
X11918000Y-19494286D01*
X11932285Y-19522857D01*
X11932285Y-19608572D01*
X11918000Y-19637143D01*
X11903714Y-19651429D01*
X11875143Y-19665714D01*
X11832285Y-19665714D01*
X12103714Y-19665714D02*
X12075143Y-19651429D01*
X12060857Y-19622857D01*
X12060857Y-19365714D01*
X12332286Y-19651429D02*
X12303714Y-19665714D01*
X12246571Y-19665714D01*
X12218000Y-19651429D01*
X12203714Y-19622857D01*
X12203714Y-19508572D01*
X12218000Y-19480000D01*
X12246571Y-19465714D01*
X12303714Y-19465714D01*
X12332286Y-19480000D01*
X12346571Y-19508572D01*
X12346571Y-19537143D01*
X12203714Y-19565714D01*
X12460857Y-19651429D02*
X12489428Y-19665714D01*
X12546571Y-19665714D01*
X12575143Y-19651429D01*
X12589428Y-19622857D01*
X12589428Y-19608572D01*
X12575143Y-19580000D01*
X12546571Y-19565714D01*
X12503714Y-19565714D01*
X12475143Y-19551429D01*
X12460857Y-19522857D01*
X12460857Y-19508572D01*
X12475143Y-19480000D01*
X12503714Y-19465714D01*
X12546571Y-19465714D01*
X12575143Y-19480000D01*
X12689428Y-19780000D02*
X12703714Y-19765714D01*
X12732286Y-19722857D01*
X12746571Y-19694286D01*
X12760857Y-19651429D01*
X12775143Y-19580000D01*
X12775143Y-19522857D01*
X12760857Y-19451429D01*
X12746571Y-19408572D01*
X12732286Y-19380000D01*
X12703714Y-19337143D01*
X12689428Y-19322857D01*
X6068013Y-20075987D02*
X6218000Y-19926000D01*
X6068013Y-19776013D01*
X5918026Y-19926000D01*
X6068013Y-20075987D01*
X6218000Y-19926000D02*
G75*
G03X6218000Y-19926000I-149987J0D01*
G01*
X6460857Y-19761714D02*
X6646571Y-19761714D01*
X6546571Y-19876000D01*
X6589428Y-19876000D01*
X6618000Y-19890286D01*
X6632286Y-19904572D01*
X6646571Y-19933143D01*
X6646571Y-20004572D01*
X6632286Y-20033143D01*
X6618000Y-20047429D01*
X6589428Y-20061714D01*
X6503714Y-20061714D01*
X6475143Y-20047429D01*
X6460857Y-20033143D01*
X6775143Y-20033143D02*
X6789428Y-20047429D01*
X6775143Y-20061714D01*
X6760857Y-20047429D01*
X6775143Y-20033143D01*
X6775143Y-20061714D01*
X6975143Y-19761714D02*
X7003714Y-19761714D01*
X7032286Y-19776000D01*
X7046571Y-19790286D01*
X7060857Y-19818857D01*
X7075143Y-19876000D01*
X7075143Y-19947429D01*
X7060857Y-20004572D01*
X7046571Y-20033143D01*
X7032286Y-20047429D01*
X7003714Y-20061714D01*
X6975143Y-20061714D01*
X6946571Y-20047429D01*
X6932286Y-20033143D01*
X6918000Y-20004572D01*
X6903714Y-19947429D01*
X6903714Y-19876000D01*
X6918000Y-19818857D01*
X6932286Y-19790286D01*
X6946571Y-19776000D01*
X6975143Y-19761714D01*
X7260857Y-19761714D02*
X7289428Y-19761714D01*
X7318000Y-19776000D01*
X7332286Y-19790286D01*
X7346571Y-19818857D01*
X7360857Y-19876000D01*
X7360857Y-19947429D01*
X7346571Y-20004572D01*
X7332286Y-20033143D01*
X7318000Y-20047429D01*
X7289428Y-20061714D01*
X7260857Y-20061714D01*
X7232286Y-20047429D01*
X7218000Y-20033143D01*
X7203714Y-20004572D01*
X7189428Y-19947429D01*
X7189428Y-19876000D01*
X7203714Y-19818857D01*
X7218000Y-19790286D01*
X7232286Y-19776000D01*
X7260857Y-19761714D01*
X7489428Y-20061714D02*
X7489428Y-19861714D01*
X7489428Y-19890286D02*
X7503714Y-19876000D01*
X7532286Y-19861714D01*
X7575143Y-19861714D01*
X7603714Y-19876000D01*
X7618000Y-19904572D01*
X7618000Y-20061714D01*
X7618000Y-19904572D02*
X7632286Y-19876000D01*
X7660857Y-19861714D01*
X7703714Y-19861714D01*
X7732286Y-19876000D01*
X7746571Y-19904572D01*
X7746571Y-20061714D01*
X7889428Y-20061714D02*
X7889428Y-19861714D01*
X7889428Y-19890286D02*
X7903714Y-19876000D01*
X7932286Y-19861714D01*
X7975143Y-19861714D01*
X8003714Y-19876000D01*
X8018000Y-19904572D01*
X8018000Y-20061714D01*
X8018000Y-19904572D02*
X8032286Y-19876000D01*
X8060857Y-19861714D01*
X8103714Y-19861714D01*
X8132286Y-19876000D01*
X8146571Y-19904572D01*
X8146571Y-20061714D01*
X8732286Y-19747429D02*
X8475143Y-20133143D01*
X9118000Y-19761714D02*
X9146571Y-19761714D01*
X9175143Y-19776000D01*
X9189428Y-19790286D01*
X9203714Y-19818857D01*
X9218000Y-19876000D01*
X9218000Y-19947429D01*
X9203714Y-20004572D01*
X9189428Y-20033143D01*
X9175143Y-20047429D01*
X9146571Y-20061714D01*
X9118000Y-20061714D01*
X9089428Y-20047429D01*
X9075143Y-20033143D01*
X9060857Y-20004572D01*
X9046571Y-19947429D01*
X9046571Y-19876000D01*
X9060857Y-19818857D01*
X9075143Y-19790286D01*
X9089428Y-19776000D01*
X9118000Y-19761714D01*
X9346571Y-20033143D02*
X9360857Y-20047429D01*
X9346571Y-20061714D01*
X9332286Y-20047429D01*
X9346571Y-20033143D01*
X9346571Y-20061714D01*
X9646571Y-20061714D02*
X9475143Y-20061714D01*
X9560857Y-20061714D02*
X9560857Y-19761714D01*
X9532286Y-19804572D01*
X9503714Y-19833143D01*
X9475143Y-19847429D01*
X9932286Y-20061714D02*
X9760857Y-20061714D01*
X9846571Y-20061714D02*
X9846571Y-19761714D01*
X9818000Y-19804572D01*
X9789428Y-19833143D01*
X9760857Y-19847429D01*
X10103714Y-19890286D02*
X10075143Y-19876000D01*
X10060857Y-19861714D01*
X10046571Y-19833143D01*
X10046571Y-19818857D01*
X10060857Y-19790286D01*
X10075143Y-19776000D01*
X10103714Y-19761714D01*
X10160857Y-19761714D01*
X10189428Y-19776000D01*
X10203714Y-19790286D01*
X10218000Y-19818857D01*
X10218000Y-19833143D01*
X10203714Y-19861714D01*
X10189428Y-19876000D01*
X10160857Y-19890286D01*
X10103714Y-19890286D01*
X10075143Y-19904572D01*
X10060857Y-19918857D01*
X10046571Y-19947429D01*
X10046571Y-20004572D01*
X10060857Y-20033143D01*
X10075143Y-20047429D01*
X10103714Y-20061714D01*
X10160857Y-20061714D01*
X10189428Y-20047429D01*
X10203714Y-20033143D01*
X10218000Y-20004572D01*
X10218000Y-19947429D01*
X10203714Y-19918857D01*
X10189428Y-19904572D01*
X10160857Y-19890286D01*
X10332286Y-19761714D02*
X10332286Y-19818857D01*
X10446571Y-19761714D02*
X10446571Y-19818857D01*
X10889428Y-20176000D02*
X10875143Y-20161714D01*
X10846571Y-20118857D01*
X10832286Y-20090286D01*
X10818000Y-20047429D01*
X10803714Y-19976000D01*
X10803714Y-19918857D01*
X10818000Y-19847429D01*
X10832286Y-19804572D01*
X10846571Y-19776000D01*
X10875143Y-19733143D01*
X10889428Y-19718857D01*
X11132286Y-19861714D02*
X11132286Y-20061714D01*
X11060857Y-19747429D02*
X10989428Y-19961714D01*
X11175143Y-19961714D01*
X11518000Y-20061714D02*
X11518000Y-19761714D01*
X11646571Y-20061714D02*
X11646571Y-19904572D01*
X11632285Y-19876000D01*
X11603714Y-19861714D01*
X11560857Y-19861714D01*
X11532285Y-19876000D01*
X11518000Y-19890286D01*
X11832285Y-20061714D02*
X11803714Y-20047429D01*
X11789428Y-20033143D01*
X11775143Y-20004572D01*
X11775143Y-19918857D01*
X11789428Y-19890286D01*
X11803714Y-19876000D01*
X11832285Y-19861714D01*
X11875143Y-19861714D01*
X11903714Y-19876000D01*
X11918000Y-19890286D01*
X11932285Y-19918857D01*
X11932285Y-20004572D01*
X11918000Y-20033143D01*
X11903714Y-20047429D01*
X11875143Y-20061714D01*
X11832285Y-20061714D01*
X12103714Y-20061714D02*
X12075143Y-20047429D01*
X12060857Y-20018857D01*
X12060857Y-19761714D01*
X12332286Y-20047429D02*
X12303714Y-20061714D01*
X12246571Y-20061714D01*
X12218000Y-20047429D01*
X12203714Y-20018857D01*
X12203714Y-19904572D01*
X12218000Y-19876000D01*
X12246571Y-19861714D01*
X12303714Y-19861714D01*
X12332286Y-19876000D01*
X12346571Y-19904572D01*
X12346571Y-19933143D01*
X12203714Y-19961714D01*
X12460857Y-20047429D02*
X12489428Y-20061714D01*
X12546571Y-20061714D01*
X12575143Y-20047429D01*
X12589428Y-20018857D01*
X12589428Y-20004572D01*
X12575143Y-19976000D01*
X12546571Y-19961714D01*
X12503714Y-19961714D01*
X12475143Y-19947429D01*
X12460857Y-19918857D01*
X12460857Y-19904572D01*
X12475143Y-19876000D01*
X12503714Y-19861714D01*
X12546571Y-19861714D01*
X12575143Y-19876000D01*
X12689428Y-20176000D02*
X12703714Y-20161714D01*
X12732286Y-20118857D01*
X12746571Y-20090286D01*
X12760857Y-20047429D01*
X12775143Y-19976000D01*
X12775143Y-19918857D01*
X12760857Y-19847429D01*
X12746571Y-19804572D01*
X12732286Y-19776000D01*
X12703714Y-19733143D01*
X12689428Y-19718857D01*
M02*
