%FSLAX45Y45*%
G04 Gerber Fmt 4.5, Leading zero omitted, Abs format (unit mm)*
G04 Created by KiCad (PCBNEW 4.0.2+dfsg1-stable) date Tue 27 Feb 2018 09:46:24 PM CET*
%MOMM*%
G01*
G04 APERTURE LIST*
%ADD10C,0.127000*%
%ADD11C,0.100000*%
%ADD12C,0.200000*%
%ADD13C,0.300000*%
G04 APERTURE END LIST*
D10*
D11*
X6223000Y-14605000D02*
X6223000Y-4572000D01*
X22225000Y-14605000D02*
X6223000Y-14605000D01*
X22225000Y-4572000D02*
X22225000Y-14605000D01*
X6223000Y-4572000D02*
X22225000Y-4572000D01*
D12*
X10255250Y-8655050D02*
X10318750Y-8718550D01*
X10318750Y-8655050D02*
X10255250Y-8718550D01*
X13938249Y-8731250D02*
X14001749Y-8794750D01*
X14001749Y-8731250D02*
X13938249Y-8794750D01*
X14763750Y-8680450D02*
X14827250Y-8743950D01*
X14827250Y-8680450D02*
X14763750Y-8743950D01*
X15017750Y-8889998D02*
X15081250Y-8953498D01*
X15081250Y-8889998D02*
X15017750Y-8953498D01*
X16338550Y-8972550D02*
X16402050Y-9036050D01*
X16402050Y-8972550D02*
X16338550Y-9036050D01*
X16605250Y-7842250D02*
X16668750Y-7905750D01*
X16668750Y-7842250D02*
X16605250Y-7905750D01*
X16744950Y-8324850D02*
X16808450Y-8388350D01*
X16808450Y-8324850D02*
X16744950Y-8388350D01*
X18522950Y-10255250D02*
X18586450Y-10318750D01*
X18586450Y-10255250D02*
X18522950Y-10318750D01*
X18713450Y-10509250D02*
X18776950Y-10572750D01*
X18776950Y-10509250D02*
X18713450Y-10572750D01*
X18891250Y-10128250D02*
X18954750Y-10191750D01*
X18954750Y-10128250D02*
X18891250Y-10191750D01*
X19069050Y-10382250D02*
X19132550Y-10445750D01*
X19132550Y-10382250D02*
X19069050Y-10445750D01*
X19716750Y-8401048D02*
X19780250Y-8464548D01*
X19780250Y-8401048D02*
X19716750Y-8464548D01*
X19809761Y-8318498D02*
X19873261Y-8381998D01*
X19873261Y-8318498D02*
X19809761Y-8381998D01*
X19898526Y-8229598D02*
X19962026Y-8293098D01*
X19962026Y-8229598D02*
X19898526Y-8293098D01*
X19990572Y-8137851D02*
X20054072Y-8201351D01*
X20054072Y-8137851D02*
X19990572Y-8201351D01*
X20091398Y-8064498D02*
X20154898Y-8127998D01*
X20154898Y-8064498D02*
X20091398Y-8127998D01*
X20185726Y-7999946D02*
X20249226Y-8063446D01*
X20249226Y-7999946D02*
X20185726Y-8063446D01*
X13786000Y-9204960D02*
G75*
G03X13786000Y-9204960I-35000J0D01*
G01*
X13786000Y-11115040D02*
G75*
G03X13786000Y-11115040I-35000J0D01*
G01*
X13964000Y-9204960D02*
G75*
G03X13964000Y-9204960I-35000J0D01*
G01*
X13964000Y-11115040D02*
G75*
G03X13964000Y-11115040I-35000J0D01*
G01*
X14142000Y-9204960D02*
G75*
G03X14142000Y-9204960I-35000J0D01*
G01*
X14142000Y-11115040D02*
G75*
G03X14142000Y-11115040I-35000J0D01*
G01*
X14320000Y-9204960D02*
G75*
G03X14320000Y-9204960I-35000J0D01*
G01*
X14320000Y-11115040D02*
G75*
G03X14320000Y-11115040I-35000J0D01*
G01*
X14498000Y-9204960D02*
G75*
G03X14498000Y-9204960I-35000J0D01*
G01*
X14498000Y-11115040D02*
G75*
G03X14498000Y-11115040I-35000J0D01*
G01*
X14676000Y-9204960D02*
G75*
G03X14676000Y-9204960I-35000J0D01*
G01*
X14676000Y-11115040D02*
G75*
G03X14676000Y-11115040I-35000J0D01*
G01*
X14854000Y-9204960D02*
G75*
G03X14854000Y-9204960I-35000J0D01*
G01*
X14854000Y-11115040D02*
G75*
G03X14854000Y-11115040I-35000J0D01*
G01*
X15032000Y-9204960D02*
G75*
G03X15032000Y-9204960I-35000J0D01*
G01*
X15032000Y-11115040D02*
G75*
G03X15032000Y-11115040I-35000J0D01*
G01*
X15210000Y-9204960D02*
G75*
G03X15210000Y-9204960I-35000J0D01*
G01*
X15210000Y-11115040D02*
G75*
G03X15210000Y-11115040I-35000J0D01*
G01*
X15388000Y-9204960D02*
G75*
G03X15388000Y-9204960I-35000J0D01*
G01*
X15388000Y-11115040D02*
G75*
G03X15388000Y-11115040I-35000J0D01*
G01*
X15566000Y-9204960D02*
G75*
G03X15566000Y-9204960I-35000J0D01*
G01*
X15566000Y-11115040D02*
G75*
G03X15566000Y-11115040I-35000J0D01*
G01*
X15744000Y-9204960D02*
G75*
G03X15744000Y-9204960I-35000J0D01*
G01*
X15744000Y-11115040D02*
G75*
G03X15744000Y-11115040I-35000J0D01*
G01*
X15922000Y-9204960D02*
G75*
G03X15922000Y-9204960I-35000J0D01*
G01*
X15922000Y-11115040D02*
G75*
G03X15922000Y-11115040I-35000J0D01*
G01*
X16100000Y-9204960D02*
G75*
G03X16100000Y-9204960I-35000J0D01*
G01*
X16100000Y-11115040D02*
G75*
G03X16100000Y-11115040I-35000J0D01*
G01*
X16278000Y-9204960D02*
G75*
G03X16278000Y-9204960I-35000J0D01*
G01*
X16278000Y-11115040D02*
G75*
G03X16278000Y-11115040I-35000J0D01*
G01*
X16456000Y-9204960D02*
G75*
G03X16456000Y-9204960I-35000J0D01*
G01*
X16456000Y-11115040D02*
G75*
G03X16456000Y-11115040I-35000J0D01*
G01*
X16634000Y-9204960D02*
G75*
G03X16634000Y-9204960I-35000J0D01*
G01*
X16634000Y-11115040D02*
G75*
G03X16634000Y-11115040I-35000J0D01*
G01*
X16812000Y-9204960D02*
G75*
G03X16812000Y-9204960I-35000J0D01*
G01*
X16812000Y-11115040D02*
G75*
G03X16812000Y-11115040I-35000J0D01*
G01*
X16990000Y-9204960D02*
G75*
G03X16990000Y-9204960I-35000J0D01*
G01*
X16990000Y-11115040D02*
G75*
G03X16990000Y-11115040I-35000J0D01*
G01*
X17168000Y-9204960D02*
G75*
G03X17168000Y-9204960I-35000J0D01*
G01*
X17168000Y-11115040D02*
G75*
G03X17168000Y-11115040I-35000J0D01*
G01*
X17346000Y-9204960D02*
G75*
G03X17346000Y-9204960I-35000J0D01*
G01*
X17346000Y-11115040D02*
G75*
G03X17346000Y-11115040I-35000J0D01*
G01*
X17524000Y-9204960D02*
G75*
G03X17524000Y-9204960I-35000J0D01*
G01*
X17524000Y-11115040D02*
G75*
G03X17524000Y-11115040I-35000J0D01*
G01*
X17702000Y-9204960D02*
G75*
G03X17702000Y-9204960I-35000J0D01*
G01*
X17702000Y-11115040D02*
G75*
G03X17702000Y-11115040I-35000J0D01*
G01*
X17880000Y-9204960D02*
G75*
G03X17880000Y-9204960I-35000J0D01*
G01*
X17880000Y-11115040D02*
G75*
G03X17880000Y-11115040I-35000J0D01*
G01*
X18058000Y-9204960D02*
G75*
G03X18058000Y-9204960I-35000J0D01*
G01*
X18058000Y-11115040D02*
G75*
G03X18058000Y-11115040I-35000J0D01*
G01*
X18236000Y-9204960D02*
G75*
G03X18236000Y-9204960I-35000J0D01*
G01*
X18236000Y-11115040D02*
G75*
G03X18236000Y-11115040I-35000J0D01*
G01*
X18414000Y-9204960D02*
G75*
G03X18414000Y-9204960I-35000J0D01*
G01*
X18414000Y-11115040D02*
G75*
G03X18414000Y-11115040I-35000J0D01*
G01*
X18592000Y-9204960D02*
G75*
G03X18592000Y-9204960I-35000J0D01*
G01*
X18592000Y-11115040D02*
G75*
G03X18592000Y-11115040I-35000J0D01*
G01*
X18770000Y-9204960D02*
G75*
G03X18770000Y-9204960I-35000J0D01*
G01*
X18770000Y-11115040D02*
G75*
G03X18770000Y-11115040I-35000J0D01*
G01*
X18948000Y-9204960D02*
G75*
G03X18948000Y-9204960I-35000J0D01*
G01*
X18948000Y-11115040D02*
G75*
G03X18948000Y-11115040I-35000J0D01*
G01*
X19126000Y-9204960D02*
G75*
G03X19126000Y-9204960I-35000J0D01*
G01*
X19126000Y-11115040D02*
G75*
G03X19126000Y-11115040I-35000J0D01*
G01*
X19304000Y-9204960D02*
G75*
G03X19304000Y-9204960I-35000J0D01*
G01*
X19304000Y-11115040D02*
G75*
G03X19304000Y-11115040I-35000J0D01*
G01*
X8132000Y-6310000D02*
X8132000Y-6390000D01*
X8092000Y-6350000D02*
X8172000Y-6350000D01*
X8132000Y-7580000D02*
X8132000Y-7660000D01*
X8092000Y-7620000D02*
X8172000Y-7620000D01*
X8132000Y-8850000D02*
X8132000Y-8930000D01*
X8092000Y-8890000D02*
X8172000Y-8890000D01*
X8132000Y-10120000D02*
X8132000Y-10200000D01*
X8092000Y-10160000D02*
X8172000Y-10160000D01*
X8132000Y-12025000D02*
X8132000Y-12105000D01*
X8092000Y-12065000D02*
X8172000Y-12065000D01*
X8132000Y-12787000D02*
X8132000Y-12867000D01*
X8092000Y-12827000D02*
X8172000Y-12827000D01*
X8382000Y-6310000D02*
X8382000Y-6390000D01*
X8342000Y-6350000D02*
X8422000Y-6350000D01*
X8382000Y-7580000D02*
X8382000Y-7660000D01*
X8342000Y-7620000D02*
X8422000Y-7620000D01*
X8382000Y-8850000D02*
X8382000Y-8930000D01*
X8342000Y-8890000D02*
X8422000Y-8890000D01*
X8382000Y-10120000D02*
X8382000Y-10200000D01*
X8342000Y-10160000D02*
X8422000Y-10160000D01*
X8382000Y-12025000D02*
X8382000Y-12105000D01*
X8342000Y-12065000D02*
X8422000Y-12065000D01*
X8382000Y-12787000D02*
X8382000Y-12867000D01*
X8342000Y-12827000D02*
X8422000Y-12827000D01*
X10164000Y-8215000D02*
X10164000Y-8295000D01*
X10124000Y-8255000D02*
X10204000Y-8255000D01*
X10414000Y-8215000D02*
X10414000Y-8295000D01*
X10374000Y-8255000D02*
X10454000Y-8255000D01*
X10922000Y-8215000D02*
X10922000Y-8295000D01*
X10882000Y-8255000D02*
X10962000Y-8255000D01*
X12065000Y-9739000D02*
X12065000Y-9819000D01*
X12025000Y-9779000D02*
X12105000Y-9779000D01*
X12065000Y-10120000D02*
X12065000Y-10200000D01*
X12025000Y-10160000D02*
X12105000Y-10160000D01*
X12315000Y-10120000D02*
X12315000Y-10200000D01*
X12275000Y-10160000D02*
X12355000Y-10160000D01*
X12700000Y-9612000D02*
X12700000Y-9692000D01*
X12660000Y-9652000D02*
X12740000Y-9652000D01*
X12700000Y-10120000D02*
X12700000Y-10200000D01*
X12660000Y-10160000D02*
X12740000Y-10160000D01*
X13804900Y-6373500D02*
X13804900Y-6453500D01*
X13764900Y-6413500D02*
X13844900Y-6413500D01*
X13804900Y-6627500D02*
X13804900Y-6707500D01*
X13764900Y-6667500D02*
X13844900Y-6667500D01*
X13804900Y-6881500D02*
X13804900Y-6961500D01*
X13764900Y-6921500D02*
X13844900Y-6921500D01*
X13804900Y-7135500D02*
X13804900Y-7215500D01*
X13764900Y-7175500D02*
X13844900Y-7175500D01*
X13804900Y-7389500D02*
X13804900Y-7469500D01*
X13764900Y-7429500D02*
X13844900Y-7429500D01*
X13804900Y-7643500D02*
X13804900Y-7723500D01*
X13764900Y-7683500D02*
X13844900Y-7683500D01*
X13804900Y-7897500D02*
X13804900Y-7977500D01*
X13764900Y-7937500D02*
X13844900Y-7937500D01*
X13804900Y-8151500D02*
X13804900Y-8231500D01*
X13764900Y-8191500D02*
X13844900Y-8191500D01*
X13804900Y-8405500D02*
X13804900Y-8485500D01*
X13764900Y-8445500D02*
X13844900Y-8445500D01*
X14566900Y-5992500D02*
X14566900Y-6072500D01*
X14526900Y-6032500D02*
X14606900Y-6032500D01*
X14566900Y-6373500D02*
X14566900Y-6453500D01*
X14526900Y-6413500D02*
X14606900Y-6413500D01*
X14566900Y-6627500D02*
X14566900Y-6707500D01*
X14526900Y-6667500D02*
X14606900Y-6667500D01*
X14566900Y-6881500D02*
X14566900Y-6961500D01*
X14526900Y-6921500D02*
X14606900Y-6921500D01*
X14566900Y-7135500D02*
X14566900Y-7215500D01*
X14526900Y-7175500D02*
X14606900Y-7175500D01*
X14566900Y-7389500D02*
X14566900Y-7469500D01*
X14526900Y-7429500D02*
X14606900Y-7429500D01*
X14566900Y-7643500D02*
X14566900Y-7723500D01*
X14526900Y-7683500D02*
X14606900Y-7683500D01*
X14566900Y-7897500D02*
X14566900Y-7977500D01*
X14526900Y-7937500D02*
X14606900Y-7937500D01*
X14566900Y-8151500D02*
X14566900Y-8231500D01*
X14526900Y-8191500D02*
X14606900Y-8191500D01*
X14566900Y-8405500D02*
X14566900Y-8485500D01*
X14526900Y-8445500D02*
X14606900Y-8445500D01*
X14859000Y-9612000D02*
X14859000Y-9692000D01*
X14819000Y-9652000D02*
X14899000Y-9652000D01*
X15074900Y-6373500D02*
X15074900Y-6453500D01*
X15034900Y-6413500D02*
X15114900Y-6413500D01*
X15074900Y-6627500D02*
X15074900Y-6707500D01*
X15034900Y-6667500D02*
X15114900Y-6667500D01*
X15074900Y-6881500D02*
X15074900Y-6961500D01*
X15034900Y-6921500D02*
X15114900Y-6921500D01*
X15074900Y-7135500D02*
X15074900Y-7215500D01*
X15034900Y-7175500D02*
X15114900Y-7175500D01*
X15074900Y-7389500D02*
X15074900Y-7469500D01*
X15034900Y-7429500D02*
X15114900Y-7429500D01*
X15074900Y-7643500D02*
X15074900Y-7723500D01*
X15034900Y-7683500D02*
X15114900Y-7683500D01*
X15074900Y-7897500D02*
X15074900Y-7977500D01*
X15034900Y-7937500D02*
X15114900Y-7937500D01*
X15074900Y-8151500D02*
X15074900Y-8231500D01*
X15034900Y-8191500D02*
X15114900Y-8191500D01*
X15074900Y-8405500D02*
X15074900Y-8485500D01*
X15034900Y-8445500D02*
X15114900Y-8445500D01*
X15836900Y-5992500D02*
X15836900Y-6072500D01*
X15796900Y-6032500D02*
X15876900Y-6032500D01*
X15836900Y-6373500D02*
X15836900Y-6453500D01*
X15796900Y-6413500D02*
X15876900Y-6413500D01*
X15836900Y-6627500D02*
X15836900Y-6707500D01*
X15796900Y-6667500D02*
X15876900Y-6667500D01*
X15836900Y-6881500D02*
X15836900Y-6961500D01*
X15796900Y-6921500D02*
X15876900Y-6921500D01*
X15836900Y-7135500D02*
X15836900Y-7215500D01*
X15796900Y-7175500D02*
X15876900Y-7175500D01*
X15836900Y-7389500D02*
X15836900Y-7469500D01*
X15796900Y-7429500D02*
X15876900Y-7429500D01*
X15836900Y-7643500D02*
X15836900Y-7723500D01*
X15796900Y-7683500D02*
X15876900Y-7683500D01*
X15836900Y-7897500D02*
X15836900Y-7977500D01*
X15796900Y-7937500D02*
X15876900Y-7937500D01*
X15836900Y-8151500D02*
X15836900Y-8231500D01*
X15796900Y-8191500D02*
X15876900Y-8191500D01*
X15836900Y-8405500D02*
X15836900Y-8485500D01*
X15796900Y-8445500D02*
X15876900Y-8445500D01*
X16344900Y-6373500D02*
X16344900Y-6453500D01*
X16304900Y-6413500D02*
X16384900Y-6413500D01*
X16344900Y-6627500D02*
X16344900Y-6707500D01*
X16304900Y-6667500D02*
X16384900Y-6667500D01*
X16344900Y-6881500D02*
X16344900Y-6961500D01*
X16304900Y-6921500D02*
X16384900Y-6921500D01*
X16344900Y-7135500D02*
X16344900Y-7215500D01*
X16304900Y-7175500D02*
X16384900Y-7175500D01*
X16344900Y-7389500D02*
X16344900Y-7469500D01*
X16304900Y-7429500D02*
X16384900Y-7429500D01*
X16344900Y-7643500D02*
X16344900Y-7723500D01*
X16304900Y-7683500D02*
X16384900Y-7683500D01*
X16344900Y-7897500D02*
X16344900Y-7977500D01*
X16304900Y-7937500D02*
X16384900Y-7937500D01*
X16344900Y-8151500D02*
X16344900Y-8231500D01*
X16304900Y-8191500D02*
X16384900Y-8191500D01*
X16344900Y-8405500D02*
X16344900Y-8485500D01*
X16304900Y-8445500D02*
X16384900Y-8445500D01*
X17102900Y-5992500D02*
X17102900Y-6072500D01*
X17062900Y-6032500D02*
X17142900Y-6032500D01*
X17106900Y-6373500D02*
X17106900Y-6453500D01*
X17066900Y-6413500D02*
X17146900Y-6413500D01*
X17106900Y-6627500D02*
X17106900Y-6707500D01*
X17066900Y-6667500D02*
X17146900Y-6667500D01*
X17106900Y-6881500D02*
X17106900Y-6961500D01*
X17066900Y-6921500D02*
X17146900Y-6921500D01*
X17106900Y-7135500D02*
X17106900Y-7215500D01*
X17066900Y-7175500D02*
X17146900Y-7175500D01*
X17106900Y-7389500D02*
X17106900Y-7469500D01*
X17066900Y-7429500D02*
X17146900Y-7429500D01*
X17106900Y-7643500D02*
X17106900Y-7723500D01*
X17066900Y-7683500D02*
X17146900Y-7683500D01*
X17106900Y-7897500D02*
X17106900Y-7977500D01*
X17066900Y-7937500D02*
X17146900Y-7937500D01*
X17106900Y-8151500D02*
X17106900Y-8231500D01*
X17066900Y-8191500D02*
X17146900Y-8191500D01*
X17106900Y-8405500D02*
X17106900Y-8485500D01*
X17066900Y-8445500D02*
X17146900Y-8445500D01*
X17145000Y-11390000D02*
X17145000Y-11470000D01*
X17105000Y-11430000D02*
X17185000Y-11430000D01*
X17145000Y-11644000D02*
X17145000Y-11724000D01*
X17105000Y-11684000D02*
X17185000Y-11684000D01*
X17145000Y-11898000D02*
X17145000Y-11978000D01*
X17105000Y-11938000D02*
X17185000Y-11938000D01*
X17614900Y-6373500D02*
X17614900Y-6453500D01*
X17574900Y-6413500D02*
X17654900Y-6413500D01*
X17614900Y-6627500D02*
X17614900Y-6707500D01*
X17574900Y-6667500D02*
X17654900Y-6667500D01*
X17614900Y-6881500D02*
X17614900Y-6961500D01*
X17574900Y-6921500D02*
X17654900Y-6921500D01*
X17614900Y-7135500D02*
X17614900Y-7215500D01*
X17574900Y-7175500D02*
X17654900Y-7175500D01*
X17614900Y-7389500D02*
X17614900Y-7469500D01*
X17574900Y-7429500D02*
X17654900Y-7429500D01*
X17614900Y-7643500D02*
X17614900Y-7723500D01*
X17574900Y-7683500D02*
X17654900Y-7683500D01*
X17614900Y-7897500D02*
X17614900Y-7977500D01*
X17574900Y-7937500D02*
X17654900Y-7937500D01*
X17614900Y-8151500D02*
X17614900Y-8231500D01*
X17574900Y-8191500D02*
X17654900Y-8191500D01*
X17614900Y-8405500D02*
X17614900Y-8485500D01*
X17574900Y-8445500D02*
X17654900Y-8445500D01*
X18376900Y-5992500D02*
X18376900Y-6072500D01*
X18336900Y-6032500D02*
X18416900Y-6032500D01*
X18376900Y-6373500D02*
X18376900Y-6453500D01*
X18336900Y-6413500D02*
X18416900Y-6413500D01*
X18376900Y-6627500D02*
X18376900Y-6707500D01*
X18336900Y-6667500D02*
X18416900Y-6667500D01*
X18376900Y-6881500D02*
X18376900Y-6961500D01*
X18336900Y-6921500D02*
X18416900Y-6921500D01*
X18376900Y-7135500D02*
X18376900Y-7215500D01*
X18336900Y-7175500D02*
X18416900Y-7175500D01*
X18376900Y-7389500D02*
X18376900Y-7469500D01*
X18336900Y-7429500D02*
X18416900Y-7429500D01*
X18376900Y-7643500D02*
X18376900Y-7723500D01*
X18336900Y-7683500D02*
X18416900Y-7683500D01*
X18376900Y-7897500D02*
X18376900Y-7977500D01*
X18336900Y-7937500D02*
X18416900Y-7937500D01*
X18376900Y-8151500D02*
X18376900Y-8231500D01*
X18336900Y-8191500D02*
X18416900Y-8191500D01*
X18376900Y-8405500D02*
X18376900Y-8485500D01*
X18336900Y-8445500D02*
X18416900Y-8445500D01*
X20066000Y-9358000D02*
X20066000Y-9438000D01*
X20026000Y-9398000D02*
X20106000Y-9398000D01*
X20066000Y-9612000D02*
X20066000Y-9692000D01*
X20026000Y-9652000D02*
X20106000Y-9652000D01*
X20066000Y-9866000D02*
X20066000Y-9946000D01*
X20026000Y-9906000D02*
X20106000Y-9906000D01*
X20066000Y-10120000D02*
X20066000Y-10200000D01*
X20026000Y-10160000D02*
X20106000Y-10160000D01*
X20066000Y-10374000D02*
X20066000Y-10454000D01*
X20026000Y-10414000D02*
X20106000Y-10414000D01*
X20066000Y-10628000D02*
X20066000Y-10708000D01*
X20026000Y-10668000D02*
X20106000Y-10668000D01*
X20066000Y-10882000D02*
X20066000Y-10962000D01*
X20026000Y-10922000D02*
X20106000Y-10922000D01*
X20066000Y-11136000D02*
X20066000Y-11216000D01*
X20026000Y-11176000D02*
X20106000Y-11176000D01*
X20828000Y-8977000D02*
X20828000Y-9057000D01*
X20788000Y-9017000D02*
X20868000Y-9017000D01*
X20828000Y-9358000D02*
X20828000Y-9438000D01*
X20788000Y-9398000D02*
X20868000Y-9398000D01*
X20828000Y-9612000D02*
X20828000Y-9692000D01*
X20788000Y-9652000D02*
X20868000Y-9652000D01*
X20828000Y-9866000D02*
X20828000Y-9946000D01*
X20788000Y-9906000D02*
X20868000Y-9906000D01*
X20828000Y-10120000D02*
X20828000Y-10200000D01*
X20788000Y-10160000D02*
X20868000Y-10160000D01*
X20828000Y-10374000D02*
X20828000Y-10454000D01*
X20788000Y-10414000D02*
X20868000Y-10414000D01*
X20828000Y-10628000D02*
X20828000Y-10708000D01*
X20788000Y-10668000D02*
X20868000Y-10668000D01*
X20828000Y-10882000D02*
X20828000Y-10962000D01*
X20788000Y-10922000D02*
X20868000Y-10922000D01*
X20828000Y-11136000D02*
X20828000Y-11216000D01*
X20788000Y-11176000D02*
X20868000Y-11176000D01*
X10700288Y-8283288D02*
X10700288Y-8226712D01*
X10643712Y-8226712D01*
X10643712Y-8283288D01*
X10700288Y-8283288D01*
X12343288Y-9807288D02*
X12343288Y-9750712D01*
X12286712Y-9750712D01*
X12286712Y-9807288D01*
X12343288Y-9807288D01*
X12728288Y-9430288D02*
X12728288Y-9373712D01*
X12671712Y-9373712D01*
X12671712Y-9430288D01*
X12728288Y-9430288D01*
X12728288Y-9938288D02*
X12728288Y-9881712D01*
X12671712Y-9881712D01*
X12671712Y-9938288D01*
X12728288Y-9938288D01*
X13236288Y-9690194D02*
X13236288Y-9633618D01*
X13179712Y-9633618D01*
X13179712Y-9690194D01*
X13236288Y-9690194D01*
X13236288Y-10178382D02*
X13236288Y-10121806D01*
X13179712Y-10121806D01*
X13179712Y-10178382D01*
X13236288Y-10178382D01*
X14345188Y-6060788D02*
X14345188Y-6004212D01*
X14288612Y-6004212D01*
X14288612Y-6060788D01*
X14345188Y-6060788D01*
X14637288Y-9680288D02*
X14637288Y-9623712D01*
X14580712Y-9623712D01*
X14580712Y-9680288D01*
X14637288Y-9680288D01*
X15615188Y-6060788D02*
X15615188Y-6004212D01*
X15558612Y-6004212D01*
X15558612Y-6060788D01*
X15615188Y-6060788D01*
X16881188Y-6060788D02*
X16881188Y-6004212D01*
X16824612Y-6004212D01*
X16824612Y-6060788D01*
X16881188Y-6060788D01*
X16923288Y-11458288D02*
X16923288Y-11401712D01*
X16866712Y-11401712D01*
X16866712Y-11458288D01*
X16923288Y-11458288D01*
X16923288Y-11712288D02*
X16923288Y-11655712D01*
X16866712Y-11655712D01*
X16866712Y-11712288D01*
X16923288Y-11712288D01*
X16923288Y-11966288D02*
X16923288Y-11909712D01*
X16866712Y-11909712D01*
X16866712Y-11966288D01*
X16923288Y-11966288D01*
X18155188Y-6060788D02*
X18155188Y-6004212D01*
X18098612Y-6004212D01*
X18098612Y-6060788D01*
X18155188Y-6060788D01*
X20606288Y-9045288D02*
X20606288Y-8988712D01*
X20549712Y-8988712D01*
X20549712Y-9045288D01*
X20606288Y-9045288D01*
X8763000Y-8422640D02*
X8803640Y-8382000D01*
X8763000Y-8341360D01*
X8722360Y-8382000D01*
X8763000Y-8422640D01*
X8763000Y-8676640D02*
X8803640Y-8636000D01*
X8763000Y-8595360D01*
X8722360Y-8636000D01*
X8763000Y-8676640D01*
X8763000Y-8930640D02*
X8803640Y-8890000D01*
X8763000Y-8849360D01*
X8722360Y-8890000D01*
X8763000Y-8930640D01*
X8763000Y-9184640D02*
X8803640Y-9144000D01*
X8763000Y-9103360D01*
X8722360Y-9144000D01*
X8763000Y-9184640D01*
X8763000Y-9438640D02*
X8803640Y-9398000D01*
X8763000Y-9357360D01*
X8722360Y-9398000D01*
X8763000Y-9438640D01*
X8763000Y-9692640D02*
X8803640Y-9652000D01*
X8763000Y-9611360D01*
X8722360Y-9652000D01*
X8763000Y-9692640D01*
X8763000Y-9946640D02*
X8803640Y-9906000D01*
X8763000Y-9865360D01*
X8722360Y-9906000D01*
X8763000Y-9946640D01*
X9525000Y-8422640D02*
X9565640Y-8382000D01*
X9525000Y-8341360D01*
X9484360Y-8382000D01*
X9525000Y-8422640D01*
X9525000Y-8676640D02*
X9565640Y-8636000D01*
X9525000Y-8595360D01*
X9484360Y-8636000D01*
X9525000Y-8676640D01*
X9525000Y-8930640D02*
X9565640Y-8890000D01*
X9525000Y-8849360D01*
X9484360Y-8890000D01*
X9525000Y-8930640D01*
X9525000Y-9184640D02*
X9565640Y-9144000D01*
X9525000Y-9103360D01*
X9484360Y-9144000D01*
X9525000Y-9184640D01*
X9525000Y-9438640D02*
X9565640Y-9398000D01*
X9525000Y-9357360D01*
X9484360Y-9398000D01*
X9525000Y-9438640D01*
X9525000Y-9692640D02*
X9565640Y-9652000D01*
X9525000Y-9611360D01*
X9484360Y-9652000D01*
X9525000Y-9692640D01*
X9525000Y-9946640D02*
X9565640Y-9906000D01*
X9525000Y-9865360D01*
X9484360Y-9906000D01*
X9525000Y-9946640D01*
X11112500Y-9972040D02*
X11153140Y-9931400D01*
X11112500Y-9890760D01*
X11071860Y-9931400D01*
X11112500Y-9972040D01*
X11112500Y-10734040D02*
X11153140Y-10693400D01*
X11112500Y-10652760D01*
X11071860Y-10693400D01*
X11112500Y-10734040D01*
X12192000Y-8803640D02*
X12232640Y-8763000D01*
X12192000Y-8722360D01*
X12151360Y-8763000D01*
X12192000Y-8803640D01*
X12192000Y-9565640D02*
X12232640Y-9525000D01*
X12192000Y-9484360D01*
X12151360Y-9525000D01*
X12192000Y-9565640D01*
X13716000Y-11470640D02*
X13756640Y-11430000D01*
X13716000Y-11389360D01*
X13675360Y-11430000D01*
X13716000Y-11470640D01*
X14478000Y-11470640D02*
X14518640Y-11430000D01*
X14478000Y-11389360D01*
X14437360Y-11430000D01*
X14478000Y-11470640D01*
X17399000Y-11470640D02*
X17439640Y-11430000D01*
X17399000Y-11389360D01*
X17358360Y-11430000D01*
X17399000Y-11470640D01*
X17399000Y-12232640D02*
X17439640Y-12192000D01*
X17399000Y-12151360D01*
X17358360Y-12192000D01*
X17399000Y-12232640D01*
X17653000Y-11470640D02*
X17693640Y-11430000D01*
X17653000Y-11389360D01*
X17612360Y-11430000D01*
X17653000Y-11470640D01*
X17653000Y-12232640D02*
X17693640Y-12192000D01*
X17653000Y-12151360D01*
X17612360Y-12192000D01*
X17653000Y-12232640D01*
X17907000Y-11470640D02*
X17947640Y-11430000D01*
X17907000Y-11389360D01*
X17866360Y-11430000D01*
X17907000Y-11470640D01*
X17907000Y-12232640D02*
X17947640Y-12192000D01*
X17907000Y-12151360D01*
X17866360Y-12192000D01*
X17907000Y-12232640D01*
X6933946Y-12061190D02*
X7023862Y-12151106D01*
X7023862Y-12061190D02*
X6933946Y-12151106D01*
X7023862Y-12106148D02*
G75*
G03X7023862Y-12106148I-44958J0D01*
G01*
X6933946Y-12740894D02*
X7023862Y-12830810D01*
X7023862Y-12740894D02*
X6933946Y-12830810D01*
X7023862Y-12785852D02*
G75*
G03X7023862Y-12785852I-44958J0D01*
G01*
X7178802Y-12740894D02*
X7268718Y-12830810D01*
X7268718Y-12740894D02*
X7178802Y-12830810D01*
X7268718Y-12785852D02*
G75*
G03X7268718Y-12785852I-44958J0D01*
G01*
X7183882Y-12061190D02*
X7273798Y-12151106D01*
X7273798Y-12061190D02*
X7183882Y-12151106D01*
X7273798Y-12106148D02*
G75*
G03X7273798Y-12106148I-44958J0D01*
G01*
X7062216Y-6300216D02*
X7161784Y-6399784D01*
X7161784Y-6300216D02*
X7062216Y-6399784D01*
X7112000Y-6300216D02*
X7112000Y-6399784D01*
X7062216Y-6350000D02*
X7161784Y-6350000D01*
X7072216Y-6289929D02*
X7072216Y-6410071D01*
X7151784Y-6289929D02*
X7151784Y-6410071D01*
X7072216Y-6410071D02*
G75*
G03X7151784Y-6410071I39784J0D01*
G01*
X7151784Y-6289929D02*
G75*
G03X7072216Y-6289929I-39784J0D01*
G01*
X7062216Y-7570216D02*
X7161784Y-7669784D01*
X7161784Y-7570216D02*
X7062216Y-7669784D01*
X7112000Y-7570216D02*
X7112000Y-7669784D01*
X7062216Y-7620000D02*
X7161784Y-7620000D01*
X7072216Y-7559929D02*
X7072216Y-7680071D01*
X7151784Y-7559929D02*
X7151784Y-7680071D01*
X7072216Y-7680071D02*
G75*
G03X7151784Y-7680071I39784J0D01*
G01*
X7151784Y-7559929D02*
G75*
G03X7072216Y-7559929I-39784J0D01*
G01*
X7062216Y-8840216D02*
X7161784Y-8939784D01*
X7161784Y-8840216D02*
X7062216Y-8939784D01*
X7112000Y-8840216D02*
X7112000Y-8939784D01*
X7062216Y-8890000D02*
X7161784Y-8890000D01*
X7072216Y-8829929D02*
X7072216Y-8950071D01*
X7151784Y-8829929D02*
X7151784Y-8950071D01*
X7072216Y-8950071D02*
G75*
G03X7151784Y-8950071I39784J0D01*
G01*
X7151784Y-8829929D02*
G75*
G03X7072216Y-8829929I-39784J0D01*
G01*
X7062216Y-10110216D02*
X7161784Y-10209784D01*
X7161784Y-10110216D02*
X7062216Y-10209784D01*
X7112000Y-10110216D02*
X7112000Y-10209784D01*
X7062216Y-10160000D02*
X7161784Y-10160000D01*
X7072216Y-10099929D02*
X7072216Y-10220071D01*
X7151784Y-10099929D02*
X7151784Y-10220071D01*
X7072216Y-10220071D02*
G75*
G03X7151784Y-10220071I39784J0D01*
G01*
X7151784Y-10099929D02*
G75*
G03X7072216Y-10099929I-39784J0D01*
G01*
X7462012Y-5794756D02*
X7561580Y-5894324D01*
X7561580Y-5794756D02*
X7462012Y-5894324D01*
X7511796Y-5794756D02*
X7511796Y-5894324D01*
X7462012Y-5844540D02*
X7561580Y-5844540D01*
X7571867Y-5804756D02*
X7451725Y-5804756D01*
X7571867Y-5884324D02*
X7451725Y-5884324D01*
X7451725Y-5804756D02*
G75*
G03X7451725Y-5884324I0J-39784D01*
G01*
X7571867Y-5884324D02*
G75*
G03X7571867Y-5804756I0J39784D01*
G01*
X7462012Y-6805676D02*
X7561580Y-6905244D01*
X7561580Y-6805676D02*
X7462012Y-6905244D01*
X7511796Y-6805676D02*
X7511796Y-6905244D01*
X7462012Y-6855460D02*
X7561580Y-6855460D01*
X7571867Y-6815676D02*
X7451725Y-6815676D01*
X7571867Y-6895244D02*
X7451725Y-6895244D01*
X7451725Y-6815676D02*
G75*
G03X7451725Y-6895244I0J-39784D01*
G01*
X7571867Y-6895244D02*
G75*
G03X7571867Y-6815676I0J39784D01*
G01*
X7462012Y-7064756D02*
X7561580Y-7164324D01*
X7561580Y-7064756D02*
X7462012Y-7164324D01*
X7511796Y-7064756D02*
X7511796Y-7164324D01*
X7462012Y-7114540D02*
X7561580Y-7114540D01*
X7571867Y-7074756D02*
X7451725Y-7074756D01*
X7571867Y-7154324D02*
X7451725Y-7154324D01*
X7451725Y-7074756D02*
G75*
G03X7451725Y-7154324I0J-39784D01*
G01*
X7571867Y-7154324D02*
G75*
G03X7571867Y-7074756I0J39784D01*
G01*
X7462012Y-8075676D02*
X7561580Y-8175244D01*
X7561580Y-8075676D02*
X7462012Y-8175244D01*
X7511796Y-8075676D02*
X7511796Y-8175244D01*
X7462012Y-8125460D02*
X7561580Y-8125460D01*
X7571867Y-8085676D02*
X7451725Y-8085676D01*
X7571867Y-8165244D02*
X7451725Y-8165244D01*
X7451725Y-8085676D02*
G75*
G03X7451725Y-8165244I0J-39784D01*
G01*
X7571867Y-8165244D02*
G75*
G03X7571867Y-8085676I0J39784D01*
G01*
X7462012Y-8334756D02*
X7561580Y-8434324D01*
X7561580Y-8334756D02*
X7462012Y-8434324D01*
X7511796Y-8334756D02*
X7511796Y-8434324D01*
X7462012Y-8384540D02*
X7561580Y-8384540D01*
X7571867Y-8344756D02*
X7451725Y-8344756D01*
X7571867Y-8424324D02*
X7451725Y-8424324D01*
X7451725Y-8344756D02*
G75*
G03X7451725Y-8424324I0J-39784D01*
G01*
X7571867Y-8424324D02*
G75*
G03X7571867Y-8344756I0J39784D01*
G01*
X7462012Y-9345676D02*
X7561580Y-9445244D01*
X7561580Y-9345676D02*
X7462012Y-9445244D01*
X7511796Y-9345676D02*
X7511796Y-9445244D01*
X7462012Y-9395460D02*
X7561580Y-9395460D01*
X7571867Y-9355676D02*
X7451725Y-9355676D01*
X7571867Y-9435244D02*
X7451725Y-9435244D01*
X7451725Y-9355676D02*
G75*
G03X7451725Y-9435244I0J-39784D01*
G01*
X7571867Y-9435244D02*
G75*
G03X7571867Y-9355676I0J39784D01*
G01*
X7462012Y-9604756D02*
X7561580Y-9704324D01*
X7561580Y-9604756D02*
X7462012Y-9704324D01*
X7511796Y-9604756D02*
X7511796Y-9704324D01*
X7462012Y-9654540D02*
X7561580Y-9654540D01*
X7571867Y-9614756D02*
X7451725Y-9614756D01*
X7571867Y-9694324D02*
X7451725Y-9694324D01*
X7451725Y-9614756D02*
G75*
G03X7451725Y-9694324I0J-39784D01*
G01*
X7571867Y-9694324D02*
G75*
G03X7571867Y-9614756I0J39784D01*
G01*
X7462012Y-10615676D02*
X7561580Y-10715244D01*
X7561580Y-10615676D02*
X7462012Y-10715244D01*
X7511796Y-10615676D02*
X7511796Y-10715244D01*
X7462012Y-10665460D02*
X7561580Y-10665460D01*
X7571867Y-10625676D02*
X7451725Y-10625676D01*
X7571867Y-10705244D02*
X7451725Y-10705244D01*
X7451725Y-10625676D02*
G75*
G03X7451725Y-10705244I0J-39784D01*
G01*
X7571867Y-10705244D02*
G75*
G03X7571867Y-10625676I0J39784D01*
G01*
X10363962Y-11252962D02*
X10464038Y-11353038D01*
X10464038Y-11252962D02*
X10363962Y-11353038D01*
X10449383Y-11338382D02*
X10449383Y-11267617D01*
X10378618Y-11267617D01*
X10378618Y-11338382D01*
X10449383Y-11338382D01*
X10363962Y-12014962D02*
X10464038Y-12115038D01*
X10464038Y-12014962D02*
X10363962Y-12115038D01*
X10449383Y-12100382D02*
X10449383Y-12029617D01*
X10378618Y-12029617D01*
X10378618Y-12100382D01*
X10449383Y-12100382D01*
X11887962Y-11252962D02*
X11988038Y-11353038D01*
X11988038Y-11252962D02*
X11887962Y-11353038D01*
X11973382Y-11338382D02*
X11973382Y-11267617D01*
X11902617Y-11267617D01*
X11902617Y-11338382D01*
X11973382Y-11338382D01*
X11887962Y-12014962D02*
X11988038Y-12115038D01*
X11988038Y-12014962D02*
X11887962Y-12115038D01*
X11973382Y-12100382D02*
X11973382Y-12029617D01*
X11902617Y-12029617D01*
X11902617Y-12100382D01*
X11973382Y-12100382D01*
X20904200Y-8521700D02*
X21005800Y-8623300D01*
X21005800Y-8521700D02*
X20904200Y-8623300D01*
X20955000Y-8623300D02*
X21005800Y-8572500D01*
X20955000Y-8521700D01*
X20904200Y-8572500D01*
X20955000Y-8623300D01*
X21158200Y-8521700D02*
X21259800Y-8623300D01*
X21259800Y-8521700D02*
X21158200Y-8623300D01*
X21209000Y-8623300D02*
X21259800Y-8572500D01*
X21209000Y-8521700D01*
X21158200Y-8572500D01*
X21209000Y-8623300D01*
X21475700Y-6489700D02*
X21577300Y-6591300D01*
X21577300Y-6489700D02*
X21475700Y-6591300D01*
X21526500Y-6591300D02*
X21577300Y-6540500D01*
X21526500Y-6489700D01*
X21475700Y-6540500D01*
X21526500Y-6591300D01*
X21475700Y-6743700D02*
X21577300Y-6845300D01*
X21577300Y-6743700D02*
X21475700Y-6845300D01*
X21526500Y-6845300D02*
X21577300Y-6794500D01*
X21526500Y-6743700D01*
X21475700Y-6794500D01*
X21526500Y-6845300D01*
X21475700Y-6997700D02*
X21577300Y-7099300D01*
X21577300Y-6997700D02*
X21475700Y-7099300D01*
X21526500Y-7099300D02*
X21577300Y-7048500D01*
X21526500Y-6997700D01*
X21475700Y-7048500D01*
X21526500Y-7099300D01*
X21475700Y-7251700D02*
X21577300Y-7353300D01*
X21577300Y-7251700D02*
X21475700Y-7353300D01*
X21526500Y-7353300D02*
X21577300Y-7302500D01*
X21526500Y-7251700D01*
X21475700Y-7302500D01*
X21526500Y-7353300D01*
X21475700Y-7505700D02*
X21577300Y-7607300D01*
X21577300Y-7505700D02*
X21475700Y-7607300D01*
X21526500Y-7607300D02*
X21577300Y-7556500D01*
X21526500Y-7505700D01*
X21475700Y-7556500D01*
X21526500Y-7607300D01*
X21475700Y-7759700D02*
X21577300Y-7861300D01*
X21577300Y-7759700D02*
X21475700Y-7861300D01*
X21526500Y-7861300D02*
X21577300Y-7810500D01*
X21526500Y-7759700D01*
X21475700Y-7810500D01*
X21526500Y-7861300D01*
X21475700Y-8013700D02*
X21577300Y-8115300D01*
X21577300Y-8013700D02*
X21475700Y-8115300D01*
X21526500Y-8115300D02*
X21577300Y-8064500D01*
X21526500Y-8013700D01*
X21475700Y-8064500D01*
X21526500Y-8115300D01*
X21475700Y-8267700D02*
X21577300Y-8369300D01*
X21577300Y-8267700D02*
X21475700Y-8369300D01*
X21526500Y-8369300D02*
X21577300Y-8318500D01*
X21526500Y-8267700D01*
X21475700Y-8318500D01*
X21526500Y-8369300D01*
X21475700Y-8521700D02*
X21577300Y-8623300D01*
X21577300Y-8521700D02*
X21475700Y-8623300D01*
X21526500Y-8623300D02*
X21577300Y-8572500D01*
X21526500Y-8521700D01*
X21475700Y-8572500D01*
X21526500Y-8623300D01*
X21475700Y-8775700D02*
X21577300Y-8877300D01*
X21577300Y-8775700D02*
X21475700Y-8877300D01*
X21526500Y-8877300D02*
X21577300Y-8826500D01*
X21526500Y-8775700D01*
X21475700Y-8826500D01*
X21526500Y-8877300D01*
X21475700Y-9029700D02*
X21577300Y-9131300D01*
X21577300Y-9029700D02*
X21475700Y-9131300D01*
X21526500Y-9131300D02*
X21577300Y-9080500D01*
X21526500Y-9029700D01*
X21475700Y-9080500D01*
X21526500Y-9131300D01*
X21475700Y-9283700D02*
X21577300Y-9385300D01*
X21577300Y-9283700D02*
X21475700Y-9385300D01*
X21526500Y-9385300D02*
X21577300Y-9334500D01*
X21526500Y-9283700D01*
X21475700Y-9334500D01*
X21526500Y-9385300D01*
X21475700Y-9537700D02*
X21577300Y-9639300D01*
X21577300Y-9537700D02*
X21475700Y-9639300D01*
X21526500Y-9639300D02*
X21577300Y-9588500D01*
X21526500Y-9537700D01*
X21475700Y-9588500D01*
X21526500Y-9639300D01*
X21475700Y-9791700D02*
X21577300Y-9893300D01*
X21577300Y-9791700D02*
X21475700Y-9893300D01*
X21526500Y-9893300D02*
X21577300Y-9842500D01*
X21526500Y-9791700D01*
X21475700Y-9842500D01*
X21526500Y-9893300D01*
X21475700Y-10045700D02*
X21577300Y-10147300D01*
X21577300Y-10045700D02*
X21475700Y-10147300D01*
X21526500Y-10147300D02*
X21577300Y-10096500D01*
X21526500Y-10045700D01*
X21475700Y-10096500D01*
X21526500Y-10147300D01*
X21475700Y-10299700D02*
X21577300Y-10401300D01*
X21577300Y-10299700D02*
X21475700Y-10401300D01*
X21526500Y-10401300D02*
X21577300Y-10350500D01*
X21526500Y-10299700D01*
X21475700Y-10350500D01*
X21526500Y-10401300D01*
X21475700Y-10553700D02*
X21577300Y-10655300D01*
X21577300Y-10553700D02*
X21475700Y-10655300D01*
X21526500Y-10655300D02*
X21577300Y-10604500D01*
X21526500Y-10553700D01*
X21475700Y-10604500D01*
X21526500Y-10655300D01*
X21475700Y-10807700D02*
X21577300Y-10909300D01*
X21577300Y-10807700D02*
X21475700Y-10909300D01*
X21526500Y-10909300D02*
X21577300Y-10858500D01*
X21526500Y-10807700D01*
X21475700Y-10858500D01*
X21526500Y-10909300D01*
X21475700Y-11061700D02*
X21577300Y-11163300D01*
X21577300Y-11061700D02*
X21475700Y-11163300D01*
X21526500Y-11163300D02*
X21577300Y-11112500D01*
X21526500Y-11061700D01*
X21475700Y-11112500D01*
X21526500Y-11163300D01*
X21475700Y-11315700D02*
X21577300Y-11417300D01*
X21577300Y-11315700D02*
X21475700Y-11417300D01*
X21526500Y-11417300D02*
X21577300Y-11366500D01*
X21526500Y-11315700D01*
X21475700Y-11366500D01*
X21526500Y-11417300D01*
X21475700Y-11569700D02*
X21577300Y-11671300D01*
X21577300Y-11569700D02*
X21475700Y-11671300D01*
X21526500Y-11671300D02*
X21577300Y-11620500D01*
X21526500Y-11569700D01*
X21475700Y-11620500D01*
X21526500Y-11671300D01*
X21475700Y-11823700D02*
X21577300Y-11925300D01*
X21577300Y-11823700D02*
X21475700Y-11925300D01*
X21526500Y-11925300D02*
X21577300Y-11874500D01*
X21526500Y-11823700D01*
X21475700Y-11874500D01*
X21526500Y-11925300D01*
X21475700Y-12077700D02*
X21577300Y-12179300D01*
X21577300Y-12077700D02*
X21475700Y-12179300D01*
X21526500Y-12179300D02*
X21577300Y-12128500D01*
X21526500Y-12077700D01*
X21475700Y-12128500D01*
X21526500Y-12179300D01*
X21475700Y-12331700D02*
X21577300Y-12433300D01*
X21577300Y-12331700D02*
X21475700Y-12433300D01*
X21526500Y-12433300D02*
X21577300Y-12382500D01*
X21526500Y-12331700D01*
X21475700Y-12382500D01*
X21526500Y-12433300D01*
X21475700Y-12585700D02*
X21577300Y-12687300D01*
X21577300Y-12585700D02*
X21475700Y-12687300D01*
X21526500Y-12687300D02*
X21577300Y-12636500D01*
X21526500Y-12585700D01*
X21475700Y-12636500D01*
X21526500Y-12687300D01*
X21729700Y-6489700D02*
X21831300Y-6591300D01*
X21831300Y-6489700D02*
X21729700Y-6591300D01*
X21780500Y-6591300D02*
X21831300Y-6540500D01*
X21780500Y-6489700D01*
X21729700Y-6540500D01*
X21780500Y-6591300D01*
X21729700Y-6743700D02*
X21831300Y-6845300D01*
X21831300Y-6743700D02*
X21729700Y-6845300D01*
X21780500Y-6845300D02*
X21831300Y-6794500D01*
X21780500Y-6743700D01*
X21729700Y-6794500D01*
X21780500Y-6845300D01*
X21729700Y-6997700D02*
X21831300Y-7099300D01*
X21831300Y-6997700D02*
X21729700Y-7099300D01*
X21780500Y-7099300D02*
X21831300Y-7048500D01*
X21780500Y-6997700D01*
X21729700Y-7048500D01*
X21780500Y-7099300D01*
X21729700Y-7251700D02*
X21831300Y-7353300D01*
X21831300Y-7251700D02*
X21729700Y-7353300D01*
X21780500Y-7353300D02*
X21831300Y-7302500D01*
X21780500Y-7251700D01*
X21729700Y-7302500D01*
X21780500Y-7353300D01*
X21729700Y-7505700D02*
X21831300Y-7607300D01*
X21831300Y-7505700D02*
X21729700Y-7607300D01*
X21780500Y-7607300D02*
X21831300Y-7556500D01*
X21780500Y-7505700D01*
X21729700Y-7556500D01*
X21780500Y-7607300D01*
X21729700Y-7759700D02*
X21831300Y-7861300D01*
X21831300Y-7759700D02*
X21729700Y-7861300D01*
X21780500Y-7861300D02*
X21831300Y-7810500D01*
X21780500Y-7759700D01*
X21729700Y-7810500D01*
X21780500Y-7861300D01*
X21729700Y-8013700D02*
X21831300Y-8115300D01*
X21831300Y-8013700D02*
X21729700Y-8115300D01*
X21780500Y-8115300D02*
X21831300Y-8064500D01*
X21780500Y-8013700D01*
X21729700Y-8064500D01*
X21780500Y-8115300D01*
X21729700Y-8267700D02*
X21831300Y-8369300D01*
X21831300Y-8267700D02*
X21729700Y-8369300D01*
X21780500Y-8369300D02*
X21831300Y-8318500D01*
X21780500Y-8267700D01*
X21729700Y-8318500D01*
X21780500Y-8369300D01*
X21729700Y-8521700D02*
X21831300Y-8623300D01*
X21831300Y-8521700D02*
X21729700Y-8623300D01*
X21780500Y-8623300D02*
X21831300Y-8572500D01*
X21780500Y-8521700D01*
X21729700Y-8572500D01*
X21780500Y-8623300D01*
X21729700Y-8775700D02*
X21831300Y-8877300D01*
X21831300Y-8775700D02*
X21729700Y-8877300D01*
X21780500Y-8877300D02*
X21831300Y-8826500D01*
X21780500Y-8775700D01*
X21729700Y-8826500D01*
X21780500Y-8877300D01*
X21729700Y-9029700D02*
X21831300Y-9131300D01*
X21831300Y-9029700D02*
X21729700Y-9131300D01*
X21780500Y-9131300D02*
X21831300Y-9080500D01*
X21780500Y-9029700D01*
X21729700Y-9080500D01*
X21780500Y-9131300D01*
X21729700Y-9283700D02*
X21831300Y-9385300D01*
X21831300Y-9283700D02*
X21729700Y-9385300D01*
X21780500Y-9385300D02*
X21831300Y-9334500D01*
X21780500Y-9283700D01*
X21729700Y-9334500D01*
X21780500Y-9385300D01*
X21729700Y-9537700D02*
X21831300Y-9639300D01*
X21831300Y-9537700D02*
X21729700Y-9639300D01*
X21780500Y-9639300D02*
X21831300Y-9588500D01*
X21780500Y-9537700D01*
X21729700Y-9588500D01*
X21780500Y-9639300D01*
X21729700Y-9791700D02*
X21831300Y-9893300D01*
X21831300Y-9791700D02*
X21729700Y-9893300D01*
X21780500Y-9893300D02*
X21831300Y-9842500D01*
X21780500Y-9791700D01*
X21729700Y-9842500D01*
X21780500Y-9893300D01*
X21729700Y-10045700D02*
X21831300Y-10147300D01*
X21831300Y-10045700D02*
X21729700Y-10147300D01*
X21780500Y-10147300D02*
X21831300Y-10096500D01*
X21780500Y-10045700D01*
X21729700Y-10096500D01*
X21780500Y-10147300D01*
X21729700Y-10299700D02*
X21831300Y-10401300D01*
X21831300Y-10299700D02*
X21729700Y-10401300D01*
X21780500Y-10401300D02*
X21831300Y-10350500D01*
X21780500Y-10299700D01*
X21729700Y-10350500D01*
X21780500Y-10401300D01*
X21729700Y-10553700D02*
X21831300Y-10655300D01*
X21831300Y-10553700D02*
X21729700Y-10655300D01*
X21780500Y-10655300D02*
X21831300Y-10604500D01*
X21780500Y-10553700D01*
X21729700Y-10604500D01*
X21780500Y-10655300D01*
X21729700Y-10807700D02*
X21831300Y-10909300D01*
X21831300Y-10807700D02*
X21729700Y-10909300D01*
X21780500Y-10909300D02*
X21831300Y-10858500D01*
X21780500Y-10807700D01*
X21729700Y-10858500D01*
X21780500Y-10909300D01*
X21729700Y-11061700D02*
X21831300Y-11163300D01*
X21831300Y-11061700D02*
X21729700Y-11163300D01*
X21780500Y-11163300D02*
X21831300Y-11112500D01*
X21780500Y-11061700D01*
X21729700Y-11112500D01*
X21780500Y-11163300D01*
X21729700Y-11315700D02*
X21831300Y-11417300D01*
X21831300Y-11315700D02*
X21729700Y-11417300D01*
X21780500Y-11417300D02*
X21831300Y-11366500D01*
X21780500Y-11315700D01*
X21729700Y-11366500D01*
X21780500Y-11417300D01*
X21729700Y-11569700D02*
X21831300Y-11671300D01*
X21831300Y-11569700D02*
X21729700Y-11671300D01*
X21780500Y-11671300D02*
X21831300Y-11620500D01*
X21780500Y-11569700D01*
X21729700Y-11620500D01*
X21780500Y-11671300D01*
X21729700Y-11823700D02*
X21831300Y-11925300D01*
X21831300Y-11823700D02*
X21729700Y-11925300D01*
X21780500Y-11925300D02*
X21831300Y-11874500D01*
X21780500Y-11823700D01*
X21729700Y-11874500D01*
X21780500Y-11925300D01*
X21729700Y-12077700D02*
X21831300Y-12179300D01*
X21831300Y-12077700D02*
X21729700Y-12179300D01*
X21780500Y-12179300D02*
X21831300Y-12128500D01*
X21780500Y-12077700D01*
X21729700Y-12128500D01*
X21780500Y-12179300D01*
X21729700Y-12331700D02*
X21831300Y-12433300D01*
X21831300Y-12331700D02*
X21729700Y-12433300D01*
X21780500Y-12433300D02*
X21831300Y-12382500D01*
X21780500Y-12331700D01*
X21729700Y-12382500D01*
X21780500Y-12433300D01*
X21729700Y-12585700D02*
X21831300Y-12687300D01*
X21831300Y-12585700D02*
X21729700Y-12687300D01*
X21780500Y-12687300D02*
X21831300Y-12636500D01*
X21780500Y-12585700D01*
X21729700Y-12636500D01*
X21780500Y-12687300D01*
X6599174Y-12331065D02*
X6599174Y-12560935D01*
X6484239Y-12446000D02*
X6714109Y-12446000D01*
X6714109Y-12446000D02*
G75*
G03X6714109Y-12446000I-114935J0D01*
G01*
X6678930Y-11651107D02*
X6678930Y-11880977D01*
X6563995Y-11766042D02*
X6793865Y-11766042D01*
X6793865Y-11766042D02*
G75*
G03X6793865Y-11766042I-114935J0D01*
G01*
X6678930Y-13005943D02*
X6678930Y-13235813D01*
X6563995Y-13120878D02*
X6793865Y-13120878D01*
X6793865Y-13120878D02*
G75*
G03X6793865Y-13120878I-114935J0D01*
G01*
X6964058Y-5389258D02*
X6964058Y-5177142D01*
X6751942Y-5177142D01*
X6751942Y-5389258D01*
X6964058Y-5389258D01*
X7007987Y-5283200D02*
G75*
G03X7007987Y-5283200I-149987J0D01*
G01*
X6964058Y-13999858D02*
X6964058Y-13787742D01*
X6751942Y-13787742D01*
X6751942Y-13999858D01*
X6964058Y-13999858D01*
X7007987Y-13893800D02*
G75*
G03X7007987Y-13893800I-149987J0D01*
G01*
X21670658Y-5363858D02*
X21670658Y-5151742D01*
X21458542Y-5151742D01*
X21458542Y-5363858D01*
X21670658Y-5363858D01*
X21714587Y-5257800D02*
G75*
G03X21714587Y-5257800I-149987J0D01*
G01*
X21670658Y-13999858D02*
X21670658Y-13787742D01*
X21458542Y-13787742D01*
X21458542Y-13999858D01*
X21670658Y-13999858D01*
X21714587Y-13893800D02*
G75*
G03X21714587Y-13893800I-149987J0D01*
G01*
D13*
X6489428Y-15075714D02*
X6489428Y-14775714D01*
X6560857Y-14775714D01*
X6603714Y-14790000D01*
X6632286Y-14818571D01*
X6646571Y-14847143D01*
X6660857Y-14904286D01*
X6660857Y-14947143D01*
X6646571Y-15004286D01*
X6632286Y-15032857D01*
X6603714Y-15061429D01*
X6560857Y-15075714D01*
X6489428Y-15075714D01*
X6789428Y-15075714D02*
X6789428Y-14875714D01*
X6789428Y-14932857D02*
X6803714Y-14904286D01*
X6818000Y-14890000D01*
X6846571Y-14875714D01*
X6875143Y-14875714D01*
X6975143Y-15075714D02*
X6975143Y-14875714D01*
X6975143Y-14775714D02*
X6960857Y-14790000D01*
X6975143Y-14804286D01*
X6989428Y-14790000D01*
X6975143Y-14775714D01*
X6975143Y-14804286D01*
X7160857Y-15075714D02*
X7132286Y-15061429D01*
X7118000Y-15032857D01*
X7118000Y-14775714D01*
X7318000Y-15075714D02*
X7289428Y-15061429D01*
X7275143Y-15032857D01*
X7275143Y-14775714D01*
X7660857Y-15075714D02*
X7660857Y-14775714D01*
X7760857Y-14990000D01*
X7860857Y-14775714D01*
X7860857Y-15075714D01*
X8132286Y-15075714D02*
X8132286Y-14918571D01*
X8118000Y-14890000D01*
X8089428Y-14875714D01*
X8032286Y-14875714D01*
X8003714Y-14890000D01*
X8132286Y-15061429D02*
X8103714Y-15075714D01*
X8032286Y-15075714D01*
X8003714Y-15061429D01*
X7989428Y-15032857D01*
X7989428Y-15004286D01*
X8003714Y-14975714D01*
X8032286Y-14961429D01*
X8103714Y-14961429D01*
X8132286Y-14947143D01*
X8275143Y-14875714D02*
X8275143Y-15175714D01*
X8275143Y-14890000D02*
X8303714Y-14875714D01*
X8360857Y-14875714D01*
X8389429Y-14890000D01*
X8403714Y-14904286D01*
X8418000Y-14932857D01*
X8418000Y-15018571D01*
X8403714Y-15047143D01*
X8389429Y-15061429D01*
X8360857Y-15075714D01*
X8303714Y-15075714D01*
X8275143Y-15061429D01*
X8546571Y-15047143D02*
X8560857Y-15061429D01*
X8546571Y-15075714D01*
X8532286Y-15061429D01*
X8546571Y-15047143D01*
X8546571Y-15075714D01*
X8546571Y-14890000D02*
X8560857Y-14904286D01*
X8546571Y-14918571D01*
X8532286Y-14904286D01*
X8546571Y-14890000D01*
X8546571Y-14918571D01*
X6154500Y-15538250D02*
X6218000Y-15601750D01*
X6218000Y-15538250D02*
X6154500Y-15601750D01*
X6546571Y-15405714D02*
X6575143Y-15405714D01*
X6603714Y-15420000D01*
X6618000Y-15434286D01*
X6632286Y-15462857D01*
X6646571Y-15520000D01*
X6646571Y-15591429D01*
X6632286Y-15648571D01*
X6618000Y-15677143D01*
X6603714Y-15691429D01*
X6575143Y-15705714D01*
X6546571Y-15705714D01*
X6518000Y-15691429D01*
X6503714Y-15677143D01*
X6489428Y-15648571D01*
X6475143Y-15591429D01*
X6475143Y-15520000D01*
X6489428Y-15462857D01*
X6503714Y-15434286D01*
X6518000Y-15420000D01*
X6546571Y-15405714D01*
X6775143Y-15677143D02*
X6789428Y-15691429D01*
X6775143Y-15705714D01*
X6760857Y-15691429D01*
X6775143Y-15677143D01*
X6775143Y-15705714D01*
X7046571Y-15405714D02*
X6989428Y-15405714D01*
X6960857Y-15420000D01*
X6946571Y-15434286D01*
X6918000Y-15477143D01*
X6903714Y-15534286D01*
X6903714Y-15648571D01*
X6918000Y-15677143D01*
X6932286Y-15691429D01*
X6960857Y-15705714D01*
X7018000Y-15705714D01*
X7046571Y-15691429D01*
X7060857Y-15677143D01*
X7075143Y-15648571D01*
X7075143Y-15577143D01*
X7060857Y-15548571D01*
X7046571Y-15534286D01*
X7018000Y-15520000D01*
X6960857Y-15520000D01*
X6932286Y-15534286D01*
X6918000Y-15548571D01*
X6903714Y-15577143D01*
X7332286Y-15505714D02*
X7332286Y-15705714D01*
X7260857Y-15391429D02*
X7189428Y-15605714D01*
X7375143Y-15605714D01*
X7489428Y-15705714D02*
X7489428Y-15505714D01*
X7489428Y-15534286D02*
X7503714Y-15520000D01*
X7532286Y-15505714D01*
X7575143Y-15505714D01*
X7603714Y-15520000D01*
X7618000Y-15548571D01*
X7618000Y-15705714D01*
X7618000Y-15548571D02*
X7632286Y-15520000D01*
X7660857Y-15505714D01*
X7703714Y-15505714D01*
X7732286Y-15520000D01*
X7746571Y-15548571D01*
X7746571Y-15705714D01*
X7889428Y-15705714D02*
X7889428Y-15505714D01*
X7889428Y-15534286D02*
X7903714Y-15520000D01*
X7932286Y-15505714D01*
X7975143Y-15505714D01*
X8003714Y-15520000D01*
X8018000Y-15548571D01*
X8018000Y-15705714D01*
X8018000Y-15548571D02*
X8032286Y-15520000D01*
X8060857Y-15505714D01*
X8103714Y-15505714D01*
X8132286Y-15520000D01*
X8146571Y-15548571D01*
X8146571Y-15705714D01*
X8732286Y-15391429D02*
X8475143Y-15777143D01*
X9118000Y-15405714D02*
X9146571Y-15405714D01*
X9175143Y-15420000D01*
X9189428Y-15434286D01*
X9203714Y-15462857D01*
X9218000Y-15520000D01*
X9218000Y-15591429D01*
X9203714Y-15648571D01*
X9189428Y-15677143D01*
X9175143Y-15691429D01*
X9146571Y-15705714D01*
X9118000Y-15705714D01*
X9089428Y-15691429D01*
X9075143Y-15677143D01*
X9060857Y-15648571D01*
X9046571Y-15591429D01*
X9046571Y-15520000D01*
X9060857Y-15462857D01*
X9075143Y-15434286D01*
X9089428Y-15420000D01*
X9118000Y-15405714D01*
X9346571Y-15677143D02*
X9360857Y-15691429D01*
X9346571Y-15705714D01*
X9332286Y-15691429D01*
X9346571Y-15677143D01*
X9346571Y-15705714D01*
X9546571Y-15405714D02*
X9575143Y-15405714D01*
X9603714Y-15420000D01*
X9618000Y-15434286D01*
X9632286Y-15462857D01*
X9646571Y-15520000D01*
X9646571Y-15591429D01*
X9632286Y-15648571D01*
X9618000Y-15677143D01*
X9603714Y-15691429D01*
X9575143Y-15705714D01*
X9546571Y-15705714D01*
X9518000Y-15691429D01*
X9503714Y-15677143D01*
X9489428Y-15648571D01*
X9475143Y-15591429D01*
X9475143Y-15520000D01*
X9489428Y-15462857D01*
X9503714Y-15434286D01*
X9518000Y-15420000D01*
X9546571Y-15405714D01*
X9760857Y-15434286D02*
X9775143Y-15420000D01*
X9803714Y-15405714D01*
X9875143Y-15405714D01*
X9903714Y-15420000D01*
X9918000Y-15434286D01*
X9932286Y-15462857D01*
X9932286Y-15491429D01*
X9918000Y-15534286D01*
X9746571Y-15705714D01*
X9932286Y-15705714D01*
X10203714Y-15405714D02*
X10060857Y-15405714D01*
X10046571Y-15548571D01*
X10060857Y-15534286D01*
X10089428Y-15520000D01*
X10160857Y-15520000D01*
X10189428Y-15534286D01*
X10203714Y-15548571D01*
X10218000Y-15577143D01*
X10218000Y-15648571D01*
X10203714Y-15677143D01*
X10189428Y-15691429D01*
X10160857Y-15705714D01*
X10089428Y-15705714D01*
X10060857Y-15691429D01*
X10046571Y-15677143D01*
X10332286Y-15405714D02*
X10332286Y-15462857D01*
X10446571Y-15405714D02*
X10446571Y-15462857D01*
X10889428Y-15820000D02*
X10875143Y-15805714D01*
X10846571Y-15762857D01*
X10832286Y-15734286D01*
X10818000Y-15691429D01*
X10803714Y-15620000D01*
X10803714Y-15562857D01*
X10818000Y-15491429D01*
X10832286Y-15448571D01*
X10846571Y-15420000D01*
X10875143Y-15377143D01*
X10889428Y-15362857D01*
X11160857Y-15705714D02*
X10989428Y-15705714D01*
X11075143Y-15705714D02*
X11075143Y-15405714D01*
X11046571Y-15448571D01*
X11018000Y-15477143D01*
X10989428Y-15491429D01*
X11260857Y-15405714D02*
X11460857Y-15405714D01*
X11332285Y-15705714D01*
X11803714Y-15705714D02*
X11803714Y-15405714D01*
X11932285Y-15705714D02*
X11932285Y-15548571D01*
X11918000Y-15520000D01*
X11889428Y-15505714D01*
X11846571Y-15505714D01*
X11818000Y-15520000D01*
X11803714Y-15534286D01*
X12118000Y-15705714D02*
X12089428Y-15691429D01*
X12075143Y-15677143D01*
X12060857Y-15648571D01*
X12060857Y-15562857D01*
X12075143Y-15534286D01*
X12089428Y-15520000D01*
X12118000Y-15505714D01*
X12160857Y-15505714D01*
X12189428Y-15520000D01*
X12203714Y-15534286D01*
X12218000Y-15562857D01*
X12218000Y-15648571D01*
X12203714Y-15677143D01*
X12189428Y-15691429D01*
X12160857Y-15705714D01*
X12118000Y-15705714D01*
X12389428Y-15705714D02*
X12360857Y-15691429D01*
X12346571Y-15662857D01*
X12346571Y-15405714D01*
X12618000Y-15691429D02*
X12589428Y-15705714D01*
X12532286Y-15705714D01*
X12503714Y-15691429D01*
X12489428Y-15662857D01*
X12489428Y-15548571D01*
X12503714Y-15520000D01*
X12532286Y-15505714D01*
X12589428Y-15505714D01*
X12618000Y-15520000D01*
X12632286Y-15548571D01*
X12632286Y-15577143D01*
X12489428Y-15605714D01*
X12746571Y-15691429D02*
X12775143Y-15705714D01*
X12832286Y-15705714D01*
X12860857Y-15691429D01*
X12875143Y-15662857D01*
X12875143Y-15648571D01*
X12860857Y-15620000D01*
X12832286Y-15605714D01*
X12789428Y-15605714D01*
X12760857Y-15591429D01*
X12746571Y-15562857D01*
X12746571Y-15548571D01*
X12760857Y-15520000D01*
X12789428Y-15505714D01*
X12832286Y-15505714D01*
X12860857Y-15520000D01*
X12975143Y-15820000D02*
X12989428Y-15805714D01*
X13018000Y-15762857D01*
X13032286Y-15734286D01*
X13046571Y-15691429D01*
X13060857Y-15620000D01*
X13060857Y-15562857D01*
X13046571Y-15491429D01*
X13032286Y-15448571D01*
X13018000Y-15420000D01*
X12989428Y-15377143D01*
X12975143Y-15362857D01*
X6218000Y-15966000D02*
G75*
G03X6218000Y-15966000I-35000J0D01*
G01*
X6546571Y-15801714D02*
X6575143Y-15801714D01*
X6603714Y-15816000D01*
X6618000Y-15830286D01*
X6632286Y-15858857D01*
X6646571Y-15916000D01*
X6646571Y-15987429D01*
X6632286Y-16044571D01*
X6618000Y-16073143D01*
X6603714Y-16087429D01*
X6575143Y-16101714D01*
X6546571Y-16101714D01*
X6518000Y-16087429D01*
X6503714Y-16073143D01*
X6489428Y-16044571D01*
X6475143Y-15987429D01*
X6475143Y-15916000D01*
X6489428Y-15858857D01*
X6503714Y-15830286D01*
X6518000Y-15816000D01*
X6546571Y-15801714D01*
X6775143Y-16073143D02*
X6789428Y-16087429D01*
X6775143Y-16101714D01*
X6760857Y-16087429D01*
X6775143Y-16073143D01*
X6775143Y-16101714D01*
X6889428Y-15801714D02*
X7089428Y-15801714D01*
X6960857Y-16101714D01*
X7260857Y-15801714D02*
X7289428Y-15801714D01*
X7318000Y-15816000D01*
X7332286Y-15830286D01*
X7346571Y-15858857D01*
X7360857Y-15916000D01*
X7360857Y-15987429D01*
X7346571Y-16044571D01*
X7332286Y-16073143D01*
X7318000Y-16087429D01*
X7289428Y-16101714D01*
X7260857Y-16101714D01*
X7232286Y-16087429D01*
X7218000Y-16073143D01*
X7203714Y-16044571D01*
X7189428Y-15987429D01*
X7189428Y-15916000D01*
X7203714Y-15858857D01*
X7218000Y-15830286D01*
X7232286Y-15816000D01*
X7260857Y-15801714D01*
X7489428Y-16101714D02*
X7489428Y-15901714D01*
X7489428Y-15930286D02*
X7503714Y-15916000D01*
X7532286Y-15901714D01*
X7575143Y-15901714D01*
X7603714Y-15916000D01*
X7618000Y-15944571D01*
X7618000Y-16101714D01*
X7618000Y-15944571D02*
X7632286Y-15916000D01*
X7660857Y-15901714D01*
X7703714Y-15901714D01*
X7732286Y-15916000D01*
X7746571Y-15944571D01*
X7746571Y-16101714D01*
X7889428Y-16101714D02*
X7889428Y-15901714D01*
X7889428Y-15930286D02*
X7903714Y-15916000D01*
X7932286Y-15901714D01*
X7975143Y-15901714D01*
X8003714Y-15916000D01*
X8018000Y-15944571D01*
X8018000Y-16101714D01*
X8018000Y-15944571D02*
X8032286Y-15916000D01*
X8060857Y-15901714D01*
X8103714Y-15901714D01*
X8132286Y-15916000D01*
X8146571Y-15944571D01*
X8146571Y-16101714D01*
X8732286Y-15787429D02*
X8475143Y-16173143D01*
X9118000Y-15801714D02*
X9146571Y-15801714D01*
X9175143Y-15816000D01*
X9189428Y-15830286D01*
X9203714Y-15858857D01*
X9218000Y-15916000D01*
X9218000Y-15987429D01*
X9203714Y-16044571D01*
X9189428Y-16073143D01*
X9175143Y-16087429D01*
X9146571Y-16101714D01*
X9118000Y-16101714D01*
X9089428Y-16087429D01*
X9075143Y-16073143D01*
X9060857Y-16044571D01*
X9046571Y-15987429D01*
X9046571Y-15916000D01*
X9060857Y-15858857D01*
X9075143Y-15830286D01*
X9089428Y-15816000D01*
X9118000Y-15801714D01*
X9346571Y-16073143D02*
X9360857Y-16087429D01*
X9346571Y-16101714D01*
X9332286Y-16087429D01*
X9346571Y-16073143D01*
X9346571Y-16101714D01*
X9546571Y-15801714D02*
X9575143Y-15801714D01*
X9603714Y-15816000D01*
X9618000Y-15830286D01*
X9632286Y-15858857D01*
X9646571Y-15916000D01*
X9646571Y-15987429D01*
X9632286Y-16044571D01*
X9618000Y-16073143D01*
X9603714Y-16087429D01*
X9575143Y-16101714D01*
X9546571Y-16101714D01*
X9518000Y-16087429D01*
X9503714Y-16073143D01*
X9489428Y-16044571D01*
X9475143Y-15987429D01*
X9475143Y-15916000D01*
X9489428Y-15858857D01*
X9503714Y-15830286D01*
X9518000Y-15816000D01*
X9546571Y-15801714D01*
X9760857Y-15830286D02*
X9775143Y-15816000D01*
X9803714Y-15801714D01*
X9875143Y-15801714D01*
X9903714Y-15816000D01*
X9918000Y-15830286D01*
X9932286Y-15858857D01*
X9932286Y-15887429D01*
X9918000Y-15930286D01*
X9746571Y-16101714D01*
X9932286Y-16101714D01*
X10103714Y-15930286D02*
X10075143Y-15916000D01*
X10060857Y-15901714D01*
X10046571Y-15873143D01*
X10046571Y-15858857D01*
X10060857Y-15830286D01*
X10075143Y-15816000D01*
X10103714Y-15801714D01*
X10160857Y-15801714D01*
X10189428Y-15816000D01*
X10203714Y-15830286D01*
X10218000Y-15858857D01*
X10218000Y-15873143D01*
X10203714Y-15901714D01*
X10189428Y-15916000D01*
X10160857Y-15930286D01*
X10103714Y-15930286D01*
X10075143Y-15944571D01*
X10060857Y-15958857D01*
X10046571Y-15987429D01*
X10046571Y-16044571D01*
X10060857Y-16073143D01*
X10075143Y-16087429D01*
X10103714Y-16101714D01*
X10160857Y-16101714D01*
X10189428Y-16087429D01*
X10203714Y-16073143D01*
X10218000Y-16044571D01*
X10218000Y-15987429D01*
X10203714Y-15958857D01*
X10189428Y-15944571D01*
X10160857Y-15930286D01*
X10332286Y-15801714D02*
X10332286Y-15858857D01*
X10446571Y-15801714D02*
X10446571Y-15858857D01*
X10889428Y-16216000D02*
X10875143Y-16201714D01*
X10846571Y-16158857D01*
X10832286Y-16130286D01*
X10818000Y-16087429D01*
X10803714Y-16016000D01*
X10803714Y-15958857D01*
X10818000Y-15887429D01*
X10832286Y-15844571D01*
X10846571Y-15816000D01*
X10875143Y-15773143D01*
X10889428Y-15758857D01*
X11132286Y-15801714D02*
X11075143Y-15801714D01*
X11046571Y-15816000D01*
X11032286Y-15830286D01*
X11003714Y-15873143D01*
X10989428Y-15930286D01*
X10989428Y-16044571D01*
X11003714Y-16073143D01*
X11018000Y-16087429D01*
X11046571Y-16101714D01*
X11103714Y-16101714D01*
X11132286Y-16087429D01*
X11146571Y-16073143D01*
X11160857Y-16044571D01*
X11160857Y-15973143D01*
X11146571Y-15944571D01*
X11132286Y-15930286D01*
X11103714Y-15916000D01*
X11046571Y-15916000D01*
X11018000Y-15930286D01*
X11003714Y-15944571D01*
X10989428Y-15973143D01*
X11418000Y-15901714D02*
X11418000Y-16101714D01*
X11346571Y-15787429D02*
X11275143Y-16001714D01*
X11460857Y-16001714D01*
X11803714Y-16101714D02*
X11803714Y-15801714D01*
X11932285Y-16101714D02*
X11932285Y-15944571D01*
X11918000Y-15916000D01*
X11889428Y-15901714D01*
X11846571Y-15901714D01*
X11818000Y-15916000D01*
X11803714Y-15930286D01*
X12118000Y-16101714D02*
X12089428Y-16087429D01*
X12075143Y-16073143D01*
X12060857Y-16044571D01*
X12060857Y-15958857D01*
X12075143Y-15930286D01*
X12089428Y-15916000D01*
X12118000Y-15901714D01*
X12160857Y-15901714D01*
X12189428Y-15916000D01*
X12203714Y-15930286D01*
X12218000Y-15958857D01*
X12218000Y-16044571D01*
X12203714Y-16073143D01*
X12189428Y-16087429D01*
X12160857Y-16101714D01*
X12118000Y-16101714D01*
X12389428Y-16101714D02*
X12360857Y-16087429D01*
X12346571Y-16058857D01*
X12346571Y-15801714D01*
X12618000Y-16087429D02*
X12589428Y-16101714D01*
X12532286Y-16101714D01*
X12503714Y-16087429D01*
X12489428Y-16058857D01*
X12489428Y-15944571D01*
X12503714Y-15916000D01*
X12532286Y-15901714D01*
X12589428Y-15901714D01*
X12618000Y-15916000D01*
X12632286Y-15944571D01*
X12632286Y-15973143D01*
X12489428Y-16001714D01*
X12746571Y-16087429D02*
X12775143Y-16101714D01*
X12832286Y-16101714D01*
X12860857Y-16087429D01*
X12875143Y-16058857D01*
X12875143Y-16044571D01*
X12860857Y-16016000D01*
X12832286Y-16001714D01*
X12789428Y-16001714D01*
X12760857Y-15987429D01*
X12746571Y-15958857D01*
X12746571Y-15944571D01*
X12760857Y-15916000D01*
X12789428Y-15901714D01*
X12832286Y-15901714D01*
X12860857Y-15916000D01*
X12975143Y-16216000D02*
X12989428Y-16201714D01*
X13018000Y-16158857D01*
X13032286Y-16130286D01*
X13046571Y-16087429D01*
X13060857Y-16016000D01*
X13060857Y-15958857D01*
X13046571Y-15887429D01*
X13032286Y-15844571D01*
X13018000Y-15816000D01*
X12989428Y-15773143D01*
X12975143Y-15758857D01*
X6178000Y-16322000D02*
X6178000Y-16402000D01*
X6138000Y-16362000D02*
X6218000Y-16362000D01*
X6546571Y-16197714D02*
X6575143Y-16197714D01*
X6603714Y-16212000D01*
X6618000Y-16226286D01*
X6632286Y-16254857D01*
X6646571Y-16312000D01*
X6646571Y-16383429D01*
X6632286Y-16440571D01*
X6618000Y-16469143D01*
X6603714Y-16483429D01*
X6575143Y-16497714D01*
X6546571Y-16497714D01*
X6518000Y-16483429D01*
X6503714Y-16469143D01*
X6489428Y-16440571D01*
X6475143Y-16383429D01*
X6475143Y-16312000D01*
X6489428Y-16254857D01*
X6503714Y-16226286D01*
X6518000Y-16212000D01*
X6546571Y-16197714D01*
X6775143Y-16469143D02*
X6789428Y-16483429D01*
X6775143Y-16497714D01*
X6760857Y-16483429D01*
X6775143Y-16469143D01*
X6775143Y-16497714D01*
X6960857Y-16326286D02*
X6932286Y-16312000D01*
X6918000Y-16297714D01*
X6903714Y-16269143D01*
X6903714Y-16254857D01*
X6918000Y-16226286D01*
X6932286Y-16212000D01*
X6960857Y-16197714D01*
X7018000Y-16197714D01*
X7046571Y-16212000D01*
X7060857Y-16226286D01*
X7075143Y-16254857D01*
X7075143Y-16269143D01*
X7060857Y-16297714D01*
X7046571Y-16312000D01*
X7018000Y-16326286D01*
X6960857Y-16326286D01*
X6932286Y-16340571D01*
X6918000Y-16354857D01*
X6903714Y-16383429D01*
X6903714Y-16440571D01*
X6918000Y-16469143D01*
X6932286Y-16483429D01*
X6960857Y-16497714D01*
X7018000Y-16497714D01*
X7046571Y-16483429D01*
X7060857Y-16469143D01*
X7075143Y-16440571D01*
X7075143Y-16383429D01*
X7060857Y-16354857D01*
X7046571Y-16340571D01*
X7018000Y-16326286D01*
X7260857Y-16197714D02*
X7289428Y-16197714D01*
X7318000Y-16212000D01*
X7332286Y-16226286D01*
X7346571Y-16254857D01*
X7360857Y-16312000D01*
X7360857Y-16383429D01*
X7346571Y-16440571D01*
X7332286Y-16469143D01*
X7318000Y-16483429D01*
X7289428Y-16497714D01*
X7260857Y-16497714D01*
X7232286Y-16483429D01*
X7218000Y-16469143D01*
X7203714Y-16440571D01*
X7189428Y-16383429D01*
X7189428Y-16312000D01*
X7203714Y-16254857D01*
X7218000Y-16226286D01*
X7232286Y-16212000D01*
X7260857Y-16197714D01*
X7489428Y-16497714D02*
X7489428Y-16297714D01*
X7489428Y-16326286D02*
X7503714Y-16312000D01*
X7532286Y-16297714D01*
X7575143Y-16297714D01*
X7603714Y-16312000D01*
X7618000Y-16340571D01*
X7618000Y-16497714D01*
X7618000Y-16340571D02*
X7632286Y-16312000D01*
X7660857Y-16297714D01*
X7703714Y-16297714D01*
X7732286Y-16312000D01*
X7746571Y-16340571D01*
X7746571Y-16497714D01*
X7889428Y-16497714D02*
X7889428Y-16297714D01*
X7889428Y-16326286D02*
X7903714Y-16312000D01*
X7932286Y-16297714D01*
X7975143Y-16297714D01*
X8003714Y-16312000D01*
X8018000Y-16340571D01*
X8018000Y-16497714D01*
X8018000Y-16340571D02*
X8032286Y-16312000D01*
X8060857Y-16297714D01*
X8103714Y-16297714D01*
X8132286Y-16312000D01*
X8146571Y-16340571D01*
X8146571Y-16497714D01*
X8732286Y-16183429D02*
X8475143Y-16569143D01*
X9118000Y-16197714D02*
X9146571Y-16197714D01*
X9175143Y-16212000D01*
X9189428Y-16226286D01*
X9203714Y-16254857D01*
X9218000Y-16312000D01*
X9218000Y-16383429D01*
X9203714Y-16440571D01*
X9189428Y-16469143D01*
X9175143Y-16483429D01*
X9146571Y-16497714D01*
X9118000Y-16497714D01*
X9089428Y-16483429D01*
X9075143Y-16469143D01*
X9060857Y-16440571D01*
X9046571Y-16383429D01*
X9046571Y-16312000D01*
X9060857Y-16254857D01*
X9075143Y-16226286D01*
X9089428Y-16212000D01*
X9118000Y-16197714D01*
X9346571Y-16469143D02*
X9360857Y-16483429D01*
X9346571Y-16497714D01*
X9332286Y-16483429D01*
X9346571Y-16469143D01*
X9346571Y-16497714D01*
X9546571Y-16197714D02*
X9575143Y-16197714D01*
X9603714Y-16212000D01*
X9618000Y-16226286D01*
X9632286Y-16254857D01*
X9646571Y-16312000D01*
X9646571Y-16383429D01*
X9632286Y-16440571D01*
X9618000Y-16469143D01*
X9603714Y-16483429D01*
X9575143Y-16497714D01*
X9546571Y-16497714D01*
X9518000Y-16483429D01*
X9503714Y-16469143D01*
X9489428Y-16440571D01*
X9475143Y-16383429D01*
X9475143Y-16312000D01*
X9489428Y-16254857D01*
X9503714Y-16226286D01*
X9518000Y-16212000D01*
X9546571Y-16197714D01*
X9746571Y-16197714D02*
X9932286Y-16197714D01*
X9832286Y-16312000D01*
X9875143Y-16312000D01*
X9903714Y-16326286D01*
X9918000Y-16340571D01*
X9932286Y-16369143D01*
X9932286Y-16440571D01*
X9918000Y-16469143D01*
X9903714Y-16483429D01*
X9875143Y-16497714D01*
X9789428Y-16497714D01*
X9760857Y-16483429D01*
X9746571Y-16469143D01*
X10218000Y-16497714D02*
X10046571Y-16497714D01*
X10132286Y-16497714D02*
X10132286Y-16197714D01*
X10103714Y-16240571D01*
X10075143Y-16269143D01*
X10046571Y-16283429D01*
X10332286Y-16197714D02*
X10332286Y-16254857D01*
X10446571Y-16197714D02*
X10446571Y-16254857D01*
X10889428Y-16612000D02*
X10875143Y-16597714D01*
X10846571Y-16554857D01*
X10832286Y-16526286D01*
X10818000Y-16483429D01*
X10803714Y-16412000D01*
X10803714Y-16354857D01*
X10818000Y-16283429D01*
X10832286Y-16240571D01*
X10846571Y-16212000D01*
X10875143Y-16169143D01*
X10889428Y-16154857D01*
X11160857Y-16497714D02*
X10989428Y-16497714D01*
X11075143Y-16497714D02*
X11075143Y-16197714D01*
X11046571Y-16240571D01*
X11018000Y-16269143D01*
X10989428Y-16283429D01*
X11446571Y-16497714D02*
X11275143Y-16497714D01*
X11360857Y-16497714D02*
X11360857Y-16197714D01*
X11332285Y-16240571D01*
X11303714Y-16269143D01*
X11275143Y-16283429D01*
X11546571Y-16197714D02*
X11746571Y-16197714D01*
X11618000Y-16497714D01*
X12089428Y-16497714D02*
X12089428Y-16197714D01*
X12218000Y-16497714D02*
X12218000Y-16340571D01*
X12203714Y-16312000D01*
X12175143Y-16297714D01*
X12132285Y-16297714D01*
X12103714Y-16312000D01*
X12089428Y-16326286D01*
X12403714Y-16497714D02*
X12375143Y-16483429D01*
X12360857Y-16469143D01*
X12346571Y-16440571D01*
X12346571Y-16354857D01*
X12360857Y-16326286D01*
X12375143Y-16312000D01*
X12403714Y-16297714D01*
X12446571Y-16297714D01*
X12475143Y-16312000D01*
X12489428Y-16326286D01*
X12503714Y-16354857D01*
X12503714Y-16440571D01*
X12489428Y-16469143D01*
X12475143Y-16483429D01*
X12446571Y-16497714D01*
X12403714Y-16497714D01*
X12675143Y-16497714D02*
X12646571Y-16483429D01*
X12632286Y-16454857D01*
X12632286Y-16197714D01*
X12903714Y-16483429D02*
X12875143Y-16497714D01*
X12818000Y-16497714D01*
X12789428Y-16483429D01*
X12775143Y-16454857D01*
X12775143Y-16340571D01*
X12789428Y-16312000D01*
X12818000Y-16297714D01*
X12875143Y-16297714D01*
X12903714Y-16312000D01*
X12918000Y-16340571D01*
X12918000Y-16369143D01*
X12775143Y-16397714D01*
X13032286Y-16483429D02*
X13060857Y-16497714D01*
X13118000Y-16497714D01*
X13146571Y-16483429D01*
X13160857Y-16454857D01*
X13160857Y-16440571D01*
X13146571Y-16412000D01*
X13118000Y-16397714D01*
X13075143Y-16397714D01*
X13046571Y-16383429D01*
X13032286Y-16354857D01*
X13032286Y-16340571D01*
X13046571Y-16312000D01*
X13075143Y-16297714D01*
X13118000Y-16297714D01*
X13146571Y-16312000D01*
X13260857Y-16612000D02*
X13275143Y-16597714D01*
X13303714Y-16554857D01*
X13318000Y-16526286D01*
X13332286Y-16483429D01*
X13346571Y-16412000D01*
X13346571Y-16354857D01*
X13332286Y-16283429D01*
X13318000Y-16240571D01*
X13303714Y-16212000D01*
X13275143Y-16169143D01*
X13260857Y-16154857D01*
X6206283Y-16786288D02*
X6206283Y-16729712D01*
X6149707Y-16729712D01*
X6149707Y-16786288D01*
X6206283Y-16786288D01*
X6546571Y-16593714D02*
X6575143Y-16593714D01*
X6603714Y-16608000D01*
X6618000Y-16622286D01*
X6632286Y-16650857D01*
X6646571Y-16708000D01*
X6646571Y-16779429D01*
X6632286Y-16836572D01*
X6618000Y-16865143D01*
X6603714Y-16879429D01*
X6575143Y-16893714D01*
X6546571Y-16893714D01*
X6518000Y-16879429D01*
X6503714Y-16865143D01*
X6489428Y-16836572D01*
X6475143Y-16779429D01*
X6475143Y-16708000D01*
X6489428Y-16650857D01*
X6503714Y-16622286D01*
X6518000Y-16608000D01*
X6546571Y-16593714D01*
X6775143Y-16865143D02*
X6789428Y-16879429D01*
X6775143Y-16893714D01*
X6760857Y-16879429D01*
X6775143Y-16865143D01*
X6775143Y-16893714D01*
X6960857Y-16722286D02*
X6932286Y-16708000D01*
X6918000Y-16693714D01*
X6903714Y-16665143D01*
X6903714Y-16650857D01*
X6918000Y-16622286D01*
X6932286Y-16608000D01*
X6960857Y-16593714D01*
X7018000Y-16593714D01*
X7046571Y-16608000D01*
X7060857Y-16622286D01*
X7075143Y-16650857D01*
X7075143Y-16665143D01*
X7060857Y-16693714D01*
X7046571Y-16708000D01*
X7018000Y-16722286D01*
X6960857Y-16722286D01*
X6932286Y-16736571D01*
X6918000Y-16750857D01*
X6903714Y-16779429D01*
X6903714Y-16836572D01*
X6918000Y-16865143D01*
X6932286Y-16879429D01*
X6960857Y-16893714D01*
X7018000Y-16893714D01*
X7046571Y-16879429D01*
X7060857Y-16865143D01*
X7075143Y-16836572D01*
X7075143Y-16779429D01*
X7060857Y-16750857D01*
X7046571Y-16736571D01*
X7018000Y-16722286D01*
X7260857Y-16593714D02*
X7289428Y-16593714D01*
X7318000Y-16608000D01*
X7332286Y-16622286D01*
X7346571Y-16650857D01*
X7360857Y-16708000D01*
X7360857Y-16779429D01*
X7346571Y-16836572D01*
X7332286Y-16865143D01*
X7318000Y-16879429D01*
X7289428Y-16893714D01*
X7260857Y-16893714D01*
X7232286Y-16879429D01*
X7218000Y-16865143D01*
X7203714Y-16836572D01*
X7189428Y-16779429D01*
X7189428Y-16708000D01*
X7203714Y-16650857D01*
X7218000Y-16622286D01*
X7232286Y-16608000D01*
X7260857Y-16593714D01*
X7489428Y-16893714D02*
X7489428Y-16693714D01*
X7489428Y-16722286D02*
X7503714Y-16708000D01*
X7532286Y-16693714D01*
X7575143Y-16693714D01*
X7603714Y-16708000D01*
X7618000Y-16736571D01*
X7618000Y-16893714D01*
X7618000Y-16736571D02*
X7632286Y-16708000D01*
X7660857Y-16693714D01*
X7703714Y-16693714D01*
X7732286Y-16708000D01*
X7746571Y-16736571D01*
X7746571Y-16893714D01*
X7889428Y-16893714D02*
X7889428Y-16693714D01*
X7889428Y-16722286D02*
X7903714Y-16708000D01*
X7932286Y-16693714D01*
X7975143Y-16693714D01*
X8003714Y-16708000D01*
X8018000Y-16736571D01*
X8018000Y-16893714D01*
X8018000Y-16736571D02*
X8032286Y-16708000D01*
X8060857Y-16693714D01*
X8103714Y-16693714D01*
X8132286Y-16708000D01*
X8146571Y-16736571D01*
X8146571Y-16893714D01*
X8732286Y-16579429D02*
X8475143Y-16965143D01*
X9118000Y-16593714D02*
X9146571Y-16593714D01*
X9175143Y-16608000D01*
X9189428Y-16622286D01*
X9203714Y-16650857D01*
X9218000Y-16708000D01*
X9218000Y-16779429D01*
X9203714Y-16836572D01*
X9189428Y-16865143D01*
X9175143Y-16879429D01*
X9146571Y-16893714D01*
X9118000Y-16893714D01*
X9089428Y-16879429D01*
X9075143Y-16865143D01*
X9060857Y-16836572D01*
X9046571Y-16779429D01*
X9046571Y-16708000D01*
X9060857Y-16650857D01*
X9075143Y-16622286D01*
X9089428Y-16608000D01*
X9118000Y-16593714D01*
X9346571Y-16865143D02*
X9360857Y-16879429D01*
X9346571Y-16893714D01*
X9332286Y-16879429D01*
X9346571Y-16865143D01*
X9346571Y-16893714D01*
X9546571Y-16593714D02*
X9575143Y-16593714D01*
X9603714Y-16608000D01*
X9618000Y-16622286D01*
X9632286Y-16650857D01*
X9646571Y-16708000D01*
X9646571Y-16779429D01*
X9632286Y-16836572D01*
X9618000Y-16865143D01*
X9603714Y-16879429D01*
X9575143Y-16893714D01*
X9546571Y-16893714D01*
X9518000Y-16879429D01*
X9503714Y-16865143D01*
X9489428Y-16836572D01*
X9475143Y-16779429D01*
X9475143Y-16708000D01*
X9489428Y-16650857D01*
X9503714Y-16622286D01*
X9518000Y-16608000D01*
X9546571Y-16593714D01*
X9746571Y-16593714D02*
X9932286Y-16593714D01*
X9832286Y-16708000D01*
X9875143Y-16708000D01*
X9903714Y-16722286D01*
X9918000Y-16736571D01*
X9932286Y-16765143D01*
X9932286Y-16836572D01*
X9918000Y-16865143D01*
X9903714Y-16879429D01*
X9875143Y-16893714D01*
X9789428Y-16893714D01*
X9760857Y-16879429D01*
X9746571Y-16865143D01*
X10046571Y-16622286D02*
X10060857Y-16608000D01*
X10089428Y-16593714D01*
X10160857Y-16593714D01*
X10189428Y-16608000D01*
X10203714Y-16622286D01*
X10218000Y-16650857D01*
X10218000Y-16679429D01*
X10203714Y-16722286D01*
X10032286Y-16893714D01*
X10218000Y-16893714D01*
X10332286Y-16593714D02*
X10332286Y-16650857D01*
X10446571Y-16593714D02*
X10446571Y-16650857D01*
X10889428Y-17008000D02*
X10875143Y-16993714D01*
X10846571Y-16950857D01*
X10832286Y-16922286D01*
X10818000Y-16879429D01*
X10803714Y-16808000D01*
X10803714Y-16750857D01*
X10818000Y-16679429D01*
X10832286Y-16636571D01*
X10846571Y-16608000D01*
X10875143Y-16565143D01*
X10889428Y-16550857D01*
X11160857Y-16893714D02*
X10989428Y-16893714D01*
X11075143Y-16893714D02*
X11075143Y-16593714D01*
X11046571Y-16636571D01*
X11018000Y-16665143D01*
X10989428Y-16679429D01*
X11432285Y-16593714D02*
X11289428Y-16593714D01*
X11275143Y-16736571D01*
X11289428Y-16722286D01*
X11318000Y-16708000D01*
X11389428Y-16708000D01*
X11418000Y-16722286D01*
X11432285Y-16736571D01*
X11446571Y-16765143D01*
X11446571Y-16836572D01*
X11432285Y-16865143D01*
X11418000Y-16879429D01*
X11389428Y-16893714D01*
X11318000Y-16893714D01*
X11289428Y-16879429D01*
X11275143Y-16865143D01*
X11803714Y-16893714D02*
X11803714Y-16593714D01*
X11932285Y-16893714D02*
X11932285Y-16736571D01*
X11918000Y-16708000D01*
X11889428Y-16693714D01*
X11846571Y-16693714D01*
X11818000Y-16708000D01*
X11803714Y-16722286D01*
X12118000Y-16893714D02*
X12089428Y-16879429D01*
X12075143Y-16865143D01*
X12060857Y-16836572D01*
X12060857Y-16750857D01*
X12075143Y-16722286D01*
X12089428Y-16708000D01*
X12118000Y-16693714D01*
X12160857Y-16693714D01*
X12189428Y-16708000D01*
X12203714Y-16722286D01*
X12218000Y-16750857D01*
X12218000Y-16836572D01*
X12203714Y-16865143D01*
X12189428Y-16879429D01*
X12160857Y-16893714D01*
X12118000Y-16893714D01*
X12389428Y-16893714D02*
X12360857Y-16879429D01*
X12346571Y-16850857D01*
X12346571Y-16593714D01*
X12618000Y-16879429D02*
X12589428Y-16893714D01*
X12532286Y-16893714D01*
X12503714Y-16879429D01*
X12489428Y-16850857D01*
X12489428Y-16736571D01*
X12503714Y-16708000D01*
X12532286Y-16693714D01*
X12589428Y-16693714D01*
X12618000Y-16708000D01*
X12632286Y-16736571D01*
X12632286Y-16765143D01*
X12489428Y-16793714D01*
X12746571Y-16879429D02*
X12775143Y-16893714D01*
X12832286Y-16893714D01*
X12860857Y-16879429D01*
X12875143Y-16850857D01*
X12875143Y-16836572D01*
X12860857Y-16808000D01*
X12832286Y-16793714D01*
X12789428Y-16793714D01*
X12760857Y-16779429D01*
X12746571Y-16750857D01*
X12746571Y-16736571D01*
X12760857Y-16708000D01*
X12789428Y-16693714D01*
X12832286Y-16693714D01*
X12860857Y-16708000D01*
X12975143Y-17008000D02*
X12989428Y-16993714D01*
X13018000Y-16950857D01*
X13032286Y-16922286D01*
X13046571Y-16879429D01*
X13060857Y-16808000D01*
X13060857Y-16750857D01*
X13046571Y-16679429D01*
X13032286Y-16636571D01*
X13018000Y-16608000D01*
X12989428Y-16565143D01*
X12975143Y-16550857D01*
X6177360Y-17194640D02*
X6218000Y-17154000D01*
X6177360Y-17113360D01*
X6136720Y-17154000D01*
X6177360Y-17194640D01*
X6546571Y-16989714D02*
X6575143Y-16989714D01*
X6603714Y-17004000D01*
X6618000Y-17018286D01*
X6632286Y-17046857D01*
X6646571Y-17104000D01*
X6646571Y-17175429D01*
X6632286Y-17232572D01*
X6618000Y-17261143D01*
X6603714Y-17275429D01*
X6575143Y-17289714D01*
X6546571Y-17289714D01*
X6518000Y-17275429D01*
X6503714Y-17261143D01*
X6489428Y-17232572D01*
X6475143Y-17175429D01*
X6475143Y-17104000D01*
X6489428Y-17046857D01*
X6503714Y-17018286D01*
X6518000Y-17004000D01*
X6546571Y-16989714D01*
X6775143Y-17261143D02*
X6789428Y-17275429D01*
X6775143Y-17289714D01*
X6760857Y-17275429D01*
X6775143Y-17261143D01*
X6775143Y-17289714D01*
X6960857Y-17118286D02*
X6932286Y-17104000D01*
X6918000Y-17089714D01*
X6903714Y-17061143D01*
X6903714Y-17046857D01*
X6918000Y-17018286D01*
X6932286Y-17004000D01*
X6960857Y-16989714D01*
X7018000Y-16989714D01*
X7046571Y-17004000D01*
X7060857Y-17018286D01*
X7075143Y-17046857D01*
X7075143Y-17061143D01*
X7060857Y-17089714D01*
X7046571Y-17104000D01*
X7018000Y-17118286D01*
X6960857Y-17118286D01*
X6932286Y-17132572D01*
X6918000Y-17146857D01*
X6903714Y-17175429D01*
X6903714Y-17232572D01*
X6918000Y-17261143D01*
X6932286Y-17275429D01*
X6960857Y-17289714D01*
X7018000Y-17289714D01*
X7046571Y-17275429D01*
X7060857Y-17261143D01*
X7075143Y-17232572D01*
X7075143Y-17175429D01*
X7060857Y-17146857D01*
X7046571Y-17132572D01*
X7018000Y-17118286D01*
X7360857Y-17289714D02*
X7189428Y-17289714D01*
X7275143Y-17289714D02*
X7275143Y-16989714D01*
X7246571Y-17032572D01*
X7218000Y-17061143D01*
X7189428Y-17075429D01*
X7489428Y-17289714D02*
X7489428Y-17089714D01*
X7489428Y-17118286D02*
X7503714Y-17104000D01*
X7532286Y-17089714D01*
X7575143Y-17089714D01*
X7603714Y-17104000D01*
X7618000Y-17132572D01*
X7618000Y-17289714D01*
X7618000Y-17132572D02*
X7632286Y-17104000D01*
X7660857Y-17089714D01*
X7703714Y-17089714D01*
X7732286Y-17104000D01*
X7746571Y-17132572D01*
X7746571Y-17289714D01*
X7889428Y-17289714D02*
X7889428Y-17089714D01*
X7889428Y-17118286D02*
X7903714Y-17104000D01*
X7932286Y-17089714D01*
X7975143Y-17089714D01*
X8003714Y-17104000D01*
X8018000Y-17132572D01*
X8018000Y-17289714D01*
X8018000Y-17132572D02*
X8032286Y-17104000D01*
X8060857Y-17089714D01*
X8103714Y-17089714D01*
X8132286Y-17104000D01*
X8146571Y-17132572D01*
X8146571Y-17289714D01*
X8732286Y-16975429D02*
X8475143Y-17361143D01*
X9118000Y-16989714D02*
X9146571Y-16989714D01*
X9175143Y-17004000D01*
X9189428Y-17018286D01*
X9203714Y-17046857D01*
X9218000Y-17104000D01*
X9218000Y-17175429D01*
X9203714Y-17232572D01*
X9189428Y-17261143D01*
X9175143Y-17275429D01*
X9146571Y-17289714D01*
X9118000Y-17289714D01*
X9089428Y-17275429D01*
X9075143Y-17261143D01*
X9060857Y-17232572D01*
X9046571Y-17175429D01*
X9046571Y-17104000D01*
X9060857Y-17046857D01*
X9075143Y-17018286D01*
X9089428Y-17004000D01*
X9118000Y-16989714D01*
X9346571Y-17261143D02*
X9360857Y-17275429D01*
X9346571Y-17289714D01*
X9332286Y-17275429D01*
X9346571Y-17261143D01*
X9346571Y-17289714D01*
X9546571Y-16989714D02*
X9575143Y-16989714D01*
X9603714Y-17004000D01*
X9618000Y-17018286D01*
X9632286Y-17046857D01*
X9646571Y-17104000D01*
X9646571Y-17175429D01*
X9632286Y-17232572D01*
X9618000Y-17261143D01*
X9603714Y-17275429D01*
X9575143Y-17289714D01*
X9546571Y-17289714D01*
X9518000Y-17275429D01*
X9503714Y-17261143D01*
X9489428Y-17232572D01*
X9475143Y-17175429D01*
X9475143Y-17104000D01*
X9489428Y-17046857D01*
X9503714Y-17018286D01*
X9518000Y-17004000D01*
X9546571Y-16989714D01*
X9746571Y-16989714D02*
X9932286Y-16989714D01*
X9832286Y-17104000D01*
X9875143Y-17104000D01*
X9903714Y-17118286D01*
X9918000Y-17132572D01*
X9932286Y-17161143D01*
X9932286Y-17232572D01*
X9918000Y-17261143D01*
X9903714Y-17275429D01*
X9875143Y-17289714D01*
X9789428Y-17289714D01*
X9760857Y-17275429D01*
X9746571Y-17261143D01*
X10046571Y-17018286D02*
X10060857Y-17004000D01*
X10089428Y-16989714D01*
X10160857Y-16989714D01*
X10189428Y-17004000D01*
X10203714Y-17018286D01*
X10218000Y-17046857D01*
X10218000Y-17075429D01*
X10203714Y-17118286D01*
X10032286Y-17289714D01*
X10218000Y-17289714D01*
X10332286Y-16989714D02*
X10332286Y-17046857D01*
X10446571Y-16989714D02*
X10446571Y-17046857D01*
X10889428Y-17404000D02*
X10875143Y-17389714D01*
X10846571Y-17346857D01*
X10832286Y-17318286D01*
X10818000Y-17275429D01*
X10803714Y-17204000D01*
X10803714Y-17146857D01*
X10818000Y-17075429D01*
X10832286Y-17032572D01*
X10846571Y-17004000D01*
X10875143Y-16961143D01*
X10889428Y-16946857D01*
X10989428Y-17018286D02*
X11003714Y-17004000D01*
X11032286Y-16989714D01*
X11103714Y-16989714D01*
X11132286Y-17004000D01*
X11146571Y-17018286D01*
X11160857Y-17046857D01*
X11160857Y-17075429D01*
X11146571Y-17118286D01*
X10975143Y-17289714D01*
X11160857Y-17289714D01*
X11418000Y-16989714D02*
X11360857Y-16989714D01*
X11332285Y-17004000D01*
X11318000Y-17018286D01*
X11289428Y-17061143D01*
X11275143Y-17118286D01*
X11275143Y-17232572D01*
X11289428Y-17261143D01*
X11303714Y-17275429D01*
X11332285Y-17289714D01*
X11389428Y-17289714D01*
X11418000Y-17275429D01*
X11432285Y-17261143D01*
X11446571Y-17232572D01*
X11446571Y-17161143D01*
X11432285Y-17132572D01*
X11418000Y-17118286D01*
X11389428Y-17104000D01*
X11332285Y-17104000D01*
X11303714Y-17118286D01*
X11289428Y-17132572D01*
X11275143Y-17161143D01*
X11803714Y-17289714D02*
X11803714Y-16989714D01*
X11932285Y-17289714D02*
X11932285Y-17132572D01*
X11918000Y-17104000D01*
X11889428Y-17089714D01*
X11846571Y-17089714D01*
X11818000Y-17104000D01*
X11803714Y-17118286D01*
X12118000Y-17289714D02*
X12089428Y-17275429D01*
X12075143Y-17261143D01*
X12060857Y-17232572D01*
X12060857Y-17146857D01*
X12075143Y-17118286D01*
X12089428Y-17104000D01*
X12118000Y-17089714D01*
X12160857Y-17089714D01*
X12189428Y-17104000D01*
X12203714Y-17118286D01*
X12218000Y-17146857D01*
X12218000Y-17232572D01*
X12203714Y-17261143D01*
X12189428Y-17275429D01*
X12160857Y-17289714D01*
X12118000Y-17289714D01*
X12389428Y-17289714D02*
X12360857Y-17275429D01*
X12346571Y-17246857D01*
X12346571Y-16989714D01*
X12618000Y-17275429D02*
X12589428Y-17289714D01*
X12532286Y-17289714D01*
X12503714Y-17275429D01*
X12489428Y-17246857D01*
X12489428Y-17132572D01*
X12503714Y-17104000D01*
X12532286Y-17089714D01*
X12589428Y-17089714D01*
X12618000Y-17104000D01*
X12632286Y-17132572D01*
X12632286Y-17161143D01*
X12489428Y-17189714D01*
X12746571Y-17275429D02*
X12775143Y-17289714D01*
X12832286Y-17289714D01*
X12860857Y-17275429D01*
X12875143Y-17246857D01*
X12875143Y-17232572D01*
X12860857Y-17204000D01*
X12832286Y-17189714D01*
X12789428Y-17189714D01*
X12760857Y-17175429D01*
X12746571Y-17146857D01*
X12746571Y-17132572D01*
X12760857Y-17104000D01*
X12789428Y-17089714D01*
X12832286Y-17089714D01*
X12860857Y-17104000D01*
X12975143Y-17404000D02*
X12989428Y-17389714D01*
X13018000Y-17346857D01*
X13032286Y-17318286D01*
X13046571Y-17275429D01*
X13060857Y-17204000D01*
X13060857Y-17146857D01*
X13046571Y-17075429D01*
X13032286Y-17032572D01*
X13018000Y-17004000D01*
X12989428Y-16961143D01*
X12975143Y-16946857D01*
X6128084Y-17505042D02*
X6218000Y-17594958D01*
X6218000Y-17505042D02*
X6128084Y-17594958D01*
X6218000Y-17550000D02*
G75*
G03X6218000Y-17550000I-44958J0D01*
G01*
X6546571Y-17385714D02*
X6575143Y-17385714D01*
X6603714Y-17400000D01*
X6618000Y-17414286D01*
X6632286Y-17442857D01*
X6646571Y-17500000D01*
X6646571Y-17571429D01*
X6632286Y-17628572D01*
X6618000Y-17657143D01*
X6603714Y-17671429D01*
X6575143Y-17685714D01*
X6546571Y-17685714D01*
X6518000Y-17671429D01*
X6503714Y-17657143D01*
X6489428Y-17628572D01*
X6475143Y-17571429D01*
X6475143Y-17500000D01*
X6489428Y-17442857D01*
X6503714Y-17414286D01*
X6518000Y-17400000D01*
X6546571Y-17385714D01*
X6775143Y-17657143D02*
X6789428Y-17671429D01*
X6775143Y-17685714D01*
X6760857Y-17671429D01*
X6775143Y-17657143D01*
X6775143Y-17685714D01*
X6932286Y-17685714D02*
X6989428Y-17685714D01*
X7018000Y-17671429D01*
X7032286Y-17657143D01*
X7060857Y-17614286D01*
X7075143Y-17557143D01*
X7075143Y-17442857D01*
X7060857Y-17414286D01*
X7046571Y-17400000D01*
X7018000Y-17385714D01*
X6960857Y-17385714D01*
X6932286Y-17400000D01*
X6918000Y-17414286D01*
X6903714Y-17442857D01*
X6903714Y-17514286D01*
X6918000Y-17542857D01*
X6932286Y-17557143D01*
X6960857Y-17571429D01*
X7018000Y-17571429D01*
X7046571Y-17557143D01*
X7060857Y-17542857D01*
X7075143Y-17514286D01*
X7260857Y-17385714D02*
X7289428Y-17385714D01*
X7318000Y-17400000D01*
X7332286Y-17414286D01*
X7346571Y-17442857D01*
X7360857Y-17500000D01*
X7360857Y-17571429D01*
X7346571Y-17628572D01*
X7332286Y-17657143D01*
X7318000Y-17671429D01*
X7289428Y-17685714D01*
X7260857Y-17685714D01*
X7232286Y-17671429D01*
X7218000Y-17657143D01*
X7203714Y-17628572D01*
X7189428Y-17571429D01*
X7189428Y-17500000D01*
X7203714Y-17442857D01*
X7218000Y-17414286D01*
X7232286Y-17400000D01*
X7260857Y-17385714D01*
X7489428Y-17685714D02*
X7489428Y-17485714D01*
X7489428Y-17514286D02*
X7503714Y-17500000D01*
X7532286Y-17485714D01*
X7575143Y-17485714D01*
X7603714Y-17500000D01*
X7618000Y-17528572D01*
X7618000Y-17685714D01*
X7618000Y-17528572D02*
X7632286Y-17500000D01*
X7660857Y-17485714D01*
X7703714Y-17485714D01*
X7732286Y-17500000D01*
X7746571Y-17528572D01*
X7746571Y-17685714D01*
X7889428Y-17685714D02*
X7889428Y-17485714D01*
X7889428Y-17514286D02*
X7903714Y-17500000D01*
X7932286Y-17485714D01*
X7975143Y-17485714D01*
X8003714Y-17500000D01*
X8018000Y-17528572D01*
X8018000Y-17685714D01*
X8018000Y-17528572D02*
X8032286Y-17500000D01*
X8060857Y-17485714D01*
X8103714Y-17485714D01*
X8132286Y-17500000D01*
X8146571Y-17528572D01*
X8146571Y-17685714D01*
X8732286Y-17371429D02*
X8475143Y-17757143D01*
X9118000Y-17385714D02*
X9146571Y-17385714D01*
X9175143Y-17400000D01*
X9189428Y-17414286D01*
X9203714Y-17442857D01*
X9218000Y-17500000D01*
X9218000Y-17571429D01*
X9203714Y-17628572D01*
X9189428Y-17657143D01*
X9175143Y-17671429D01*
X9146571Y-17685714D01*
X9118000Y-17685714D01*
X9089428Y-17671429D01*
X9075143Y-17657143D01*
X9060857Y-17628572D01*
X9046571Y-17571429D01*
X9046571Y-17500000D01*
X9060857Y-17442857D01*
X9075143Y-17414286D01*
X9089428Y-17400000D01*
X9118000Y-17385714D01*
X9346571Y-17657143D02*
X9360857Y-17671429D01*
X9346571Y-17685714D01*
X9332286Y-17671429D01*
X9346571Y-17657143D01*
X9346571Y-17685714D01*
X9546571Y-17385714D02*
X9575143Y-17385714D01*
X9603714Y-17400000D01*
X9618000Y-17414286D01*
X9632286Y-17442857D01*
X9646571Y-17500000D01*
X9646571Y-17571429D01*
X9632286Y-17628572D01*
X9618000Y-17657143D01*
X9603714Y-17671429D01*
X9575143Y-17685714D01*
X9546571Y-17685714D01*
X9518000Y-17671429D01*
X9503714Y-17657143D01*
X9489428Y-17628572D01*
X9475143Y-17571429D01*
X9475143Y-17500000D01*
X9489428Y-17442857D01*
X9503714Y-17414286D01*
X9518000Y-17400000D01*
X9546571Y-17385714D01*
X9746571Y-17385714D02*
X9932286Y-17385714D01*
X9832286Y-17500000D01*
X9875143Y-17500000D01*
X9903714Y-17514286D01*
X9918000Y-17528572D01*
X9932286Y-17557143D01*
X9932286Y-17628572D01*
X9918000Y-17657143D01*
X9903714Y-17671429D01*
X9875143Y-17685714D01*
X9789428Y-17685714D01*
X9760857Y-17671429D01*
X9746571Y-17657143D01*
X10203714Y-17385714D02*
X10060857Y-17385714D01*
X10046571Y-17528572D01*
X10060857Y-17514286D01*
X10089428Y-17500000D01*
X10160857Y-17500000D01*
X10189428Y-17514286D01*
X10203714Y-17528572D01*
X10218000Y-17557143D01*
X10218000Y-17628572D01*
X10203714Y-17657143D01*
X10189428Y-17671429D01*
X10160857Y-17685714D01*
X10089428Y-17685714D01*
X10060857Y-17671429D01*
X10046571Y-17657143D01*
X10332286Y-17385714D02*
X10332286Y-17442857D01*
X10446571Y-17385714D02*
X10446571Y-17442857D01*
X10889428Y-17800000D02*
X10875143Y-17785714D01*
X10846571Y-17742857D01*
X10832286Y-17714286D01*
X10818000Y-17671429D01*
X10803714Y-17600000D01*
X10803714Y-17542857D01*
X10818000Y-17471429D01*
X10832286Y-17428572D01*
X10846571Y-17400000D01*
X10875143Y-17357143D01*
X10889428Y-17342857D01*
X11132286Y-17485714D02*
X11132286Y-17685714D01*
X11060857Y-17371429D02*
X10989428Y-17585714D01*
X11175143Y-17585714D01*
X11518000Y-17685714D02*
X11518000Y-17385714D01*
X11646571Y-17685714D02*
X11646571Y-17528572D01*
X11632285Y-17500000D01*
X11603714Y-17485714D01*
X11560857Y-17485714D01*
X11532285Y-17500000D01*
X11518000Y-17514286D01*
X11832285Y-17685714D02*
X11803714Y-17671429D01*
X11789428Y-17657143D01*
X11775143Y-17628572D01*
X11775143Y-17542857D01*
X11789428Y-17514286D01*
X11803714Y-17500000D01*
X11832285Y-17485714D01*
X11875143Y-17485714D01*
X11903714Y-17500000D01*
X11918000Y-17514286D01*
X11932285Y-17542857D01*
X11932285Y-17628572D01*
X11918000Y-17657143D01*
X11903714Y-17671429D01*
X11875143Y-17685714D01*
X11832285Y-17685714D01*
X12103714Y-17685714D02*
X12075143Y-17671429D01*
X12060857Y-17642857D01*
X12060857Y-17385714D01*
X12332286Y-17671429D02*
X12303714Y-17685714D01*
X12246571Y-17685714D01*
X12218000Y-17671429D01*
X12203714Y-17642857D01*
X12203714Y-17528572D01*
X12218000Y-17500000D01*
X12246571Y-17485714D01*
X12303714Y-17485714D01*
X12332286Y-17500000D01*
X12346571Y-17528572D01*
X12346571Y-17557143D01*
X12203714Y-17585714D01*
X12460857Y-17671429D02*
X12489428Y-17685714D01*
X12546571Y-17685714D01*
X12575143Y-17671429D01*
X12589428Y-17642857D01*
X12589428Y-17628572D01*
X12575143Y-17600000D01*
X12546571Y-17585714D01*
X12503714Y-17585714D01*
X12475143Y-17571429D01*
X12460857Y-17542857D01*
X12460857Y-17528572D01*
X12475143Y-17500000D01*
X12503714Y-17485714D01*
X12546571Y-17485714D01*
X12575143Y-17500000D01*
X12689428Y-17800000D02*
X12703714Y-17785714D01*
X12732286Y-17742857D01*
X12746571Y-17714286D01*
X12760857Y-17671429D01*
X12775143Y-17600000D01*
X12775143Y-17542857D01*
X12760857Y-17471429D01*
X12746571Y-17428572D01*
X12732286Y-17400000D01*
X12703714Y-17357143D01*
X12689428Y-17342857D01*
X6118432Y-17896216D02*
X6218000Y-17995784D01*
X6218000Y-17896216D02*
X6118432Y-17995784D01*
X6168216Y-17896216D02*
X6168216Y-17995784D01*
X6118432Y-17946000D02*
X6218000Y-17946000D01*
X6646571Y-18081714D02*
X6475143Y-18081714D01*
X6560857Y-18081714D02*
X6560857Y-17781714D01*
X6532286Y-17824572D01*
X6503714Y-17853143D01*
X6475143Y-17867429D01*
X6775143Y-18053143D02*
X6789428Y-18067429D01*
X6775143Y-18081714D01*
X6760857Y-18067429D01*
X6775143Y-18053143D01*
X6775143Y-18081714D01*
X6975143Y-17781714D02*
X7003714Y-17781714D01*
X7032286Y-17796000D01*
X7046571Y-17810286D01*
X7060857Y-17838857D01*
X7075143Y-17896000D01*
X7075143Y-17967429D01*
X7060857Y-18024572D01*
X7046571Y-18053143D01*
X7032286Y-18067429D01*
X7003714Y-18081714D01*
X6975143Y-18081714D01*
X6946571Y-18067429D01*
X6932286Y-18053143D01*
X6918000Y-18024572D01*
X6903714Y-17967429D01*
X6903714Y-17896000D01*
X6918000Y-17838857D01*
X6932286Y-17810286D01*
X6946571Y-17796000D01*
X6975143Y-17781714D01*
X7260857Y-17781714D02*
X7289428Y-17781714D01*
X7318000Y-17796000D01*
X7332286Y-17810286D01*
X7346571Y-17838857D01*
X7360857Y-17896000D01*
X7360857Y-17967429D01*
X7346571Y-18024572D01*
X7332286Y-18053143D01*
X7318000Y-18067429D01*
X7289428Y-18081714D01*
X7260857Y-18081714D01*
X7232286Y-18067429D01*
X7218000Y-18053143D01*
X7203714Y-18024572D01*
X7189428Y-17967429D01*
X7189428Y-17896000D01*
X7203714Y-17838857D01*
X7218000Y-17810286D01*
X7232286Y-17796000D01*
X7260857Y-17781714D01*
X7489428Y-18081714D02*
X7489428Y-17881714D01*
X7489428Y-17910286D02*
X7503714Y-17896000D01*
X7532286Y-17881714D01*
X7575143Y-17881714D01*
X7603714Y-17896000D01*
X7618000Y-17924572D01*
X7618000Y-18081714D01*
X7618000Y-17924572D02*
X7632286Y-17896000D01*
X7660857Y-17881714D01*
X7703714Y-17881714D01*
X7732286Y-17896000D01*
X7746571Y-17924572D01*
X7746571Y-18081714D01*
X7889428Y-18081714D02*
X7889428Y-17881714D01*
X7889428Y-17910286D02*
X7903714Y-17896000D01*
X7932286Y-17881714D01*
X7975143Y-17881714D01*
X8003714Y-17896000D01*
X8018000Y-17924572D01*
X8018000Y-18081714D01*
X8018000Y-17924572D02*
X8032286Y-17896000D01*
X8060857Y-17881714D01*
X8103714Y-17881714D01*
X8132286Y-17896000D01*
X8146571Y-17924572D01*
X8146571Y-18081714D01*
X8732286Y-17767429D02*
X8475143Y-18153143D01*
X9118000Y-17781714D02*
X9146571Y-17781714D01*
X9175143Y-17796000D01*
X9189428Y-17810286D01*
X9203714Y-17838857D01*
X9218000Y-17896000D01*
X9218000Y-17967429D01*
X9203714Y-18024572D01*
X9189428Y-18053143D01*
X9175143Y-18067429D01*
X9146571Y-18081714D01*
X9118000Y-18081714D01*
X9089428Y-18067429D01*
X9075143Y-18053143D01*
X9060857Y-18024572D01*
X9046571Y-17967429D01*
X9046571Y-17896000D01*
X9060857Y-17838857D01*
X9075143Y-17810286D01*
X9089428Y-17796000D01*
X9118000Y-17781714D01*
X9346571Y-18053143D02*
X9360857Y-18067429D01*
X9346571Y-18081714D01*
X9332286Y-18067429D01*
X9346571Y-18053143D01*
X9346571Y-18081714D01*
X9546571Y-17781714D02*
X9575143Y-17781714D01*
X9603714Y-17796000D01*
X9618000Y-17810286D01*
X9632286Y-17838857D01*
X9646571Y-17896000D01*
X9646571Y-17967429D01*
X9632286Y-18024572D01*
X9618000Y-18053143D01*
X9603714Y-18067429D01*
X9575143Y-18081714D01*
X9546571Y-18081714D01*
X9518000Y-18067429D01*
X9503714Y-18053143D01*
X9489428Y-18024572D01*
X9475143Y-17967429D01*
X9475143Y-17896000D01*
X9489428Y-17838857D01*
X9503714Y-17810286D01*
X9518000Y-17796000D01*
X9546571Y-17781714D01*
X9746571Y-17781714D02*
X9932286Y-17781714D01*
X9832286Y-17896000D01*
X9875143Y-17896000D01*
X9903714Y-17910286D01*
X9918000Y-17924572D01*
X9932286Y-17953143D01*
X9932286Y-18024572D01*
X9918000Y-18053143D01*
X9903714Y-18067429D01*
X9875143Y-18081714D01*
X9789428Y-18081714D01*
X9760857Y-18067429D01*
X9746571Y-18053143D01*
X10075143Y-18081714D02*
X10132286Y-18081714D01*
X10160857Y-18067429D01*
X10175143Y-18053143D01*
X10203714Y-18010286D01*
X10218000Y-17953143D01*
X10218000Y-17838857D01*
X10203714Y-17810286D01*
X10189428Y-17796000D01*
X10160857Y-17781714D01*
X10103714Y-17781714D01*
X10075143Y-17796000D01*
X10060857Y-17810286D01*
X10046571Y-17838857D01*
X10046571Y-17910286D01*
X10060857Y-17938857D01*
X10075143Y-17953143D01*
X10103714Y-17967429D01*
X10160857Y-17967429D01*
X10189428Y-17953143D01*
X10203714Y-17938857D01*
X10218000Y-17910286D01*
X10332286Y-17781714D02*
X10332286Y-17838857D01*
X10446571Y-17781714D02*
X10446571Y-17838857D01*
X10889428Y-18196000D02*
X10875143Y-18181714D01*
X10846571Y-18138857D01*
X10832286Y-18110286D01*
X10818000Y-18067429D01*
X10803714Y-17996000D01*
X10803714Y-17938857D01*
X10818000Y-17867429D01*
X10832286Y-17824572D01*
X10846571Y-17796000D01*
X10875143Y-17753143D01*
X10889428Y-17738857D01*
X11060857Y-17781714D02*
X11089428Y-17781714D01*
X11118000Y-17796000D01*
X11132286Y-17810286D01*
X11146571Y-17838857D01*
X11160857Y-17896000D01*
X11160857Y-17967429D01*
X11146571Y-18024572D01*
X11132286Y-18053143D01*
X11118000Y-18067429D01*
X11089428Y-18081714D01*
X11060857Y-18081714D01*
X11032286Y-18067429D01*
X11018000Y-18053143D01*
X11003714Y-18024572D01*
X10989428Y-17967429D01*
X10989428Y-17896000D01*
X11003714Y-17838857D01*
X11018000Y-17810286D01*
X11032286Y-17796000D01*
X11060857Y-17781714D01*
X11518000Y-18081714D02*
X11518000Y-17781714D01*
X11646571Y-18081714D02*
X11646571Y-17924572D01*
X11632285Y-17896000D01*
X11603714Y-17881714D01*
X11560857Y-17881714D01*
X11532285Y-17896000D01*
X11518000Y-17910286D01*
X11832285Y-18081714D02*
X11803714Y-18067429D01*
X11789428Y-18053143D01*
X11775143Y-18024572D01*
X11775143Y-17938857D01*
X11789428Y-17910286D01*
X11803714Y-17896000D01*
X11832285Y-17881714D01*
X11875143Y-17881714D01*
X11903714Y-17896000D01*
X11918000Y-17910286D01*
X11932285Y-17938857D01*
X11932285Y-18024572D01*
X11918000Y-18053143D01*
X11903714Y-18067429D01*
X11875143Y-18081714D01*
X11832285Y-18081714D01*
X12103714Y-18081714D02*
X12075143Y-18067429D01*
X12060857Y-18038857D01*
X12060857Y-17781714D01*
X12332286Y-18067429D02*
X12303714Y-18081714D01*
X12246571Y-18081714D01*
X12218000Y-18067429D01*
X12203714Y-18038857D01*
X12203714Y-17924572D01*
X12218000Y-17896000D01*
X12246571Y-17881714D01*
X12303714Y-17881714D01*
X12332286Y-17896000D01*
X12346571Y-17924572D01*
X12346571Y-17953143D01*
X12203714Y-17981714D01*
X12460857Y-18067429D02*
X12489428Y-18081714D01*
X12546571Y-18081714D01*
X12575143Y-18067429D01*
X12589428Y-18038857D01*
X12589428Y-18024572D01*
X12575143Y-17996000D01*
X12546571Y-17981714D01*
X12503714Y-17981714D01*
X12475143Y-17967429D01*
X12460857Y-17938857D01*
X12460857Y-17924572D01*
X12475143Y-17896000D01*
X12503714Y-17881714D01*
X12546571Y-17881714D01*
X12575143Y-17896000D01*
X12946571Y-17967429D02*
X13175143Y-17967429D01*
X13060857Y-18081714D02*
X13060857Y-17853143D01*
X13703714Y-18081714D02*
X13532286Y-18081714D01*
X13618000Y-18081714D02*
X13618000Y-17781714D01*
X13589428Y-17824572D01*
X13560857Y-17853143D01*
X13532286Y-17867429D01*
X13818000Y-17810286D02*
X13832286Y-17796000D01*
X13860857Y-17781714D01*
X13932286Y-17781714D01*
X13960857Y-17796000D01*
X13975143Y-17810286D01*
X13989428Y-17838857D01*
X13989428Y-17867429D01*
X13975143Y-17910286D01*
X13803714Y-18081714D01*
X13989428Y-18081714D01*
X14332286Y-18067429D02*
X14360857Y-18081714D01*
X14418000Y-18081714D01*
X14446571Y-18067429D01*
X14460857Y-18038857D01*
X14460857Y-18024572D01*
X14446571Y-17996000D01*
X14418000Y-17981714D01*
X14375143Y-17981714D01*
X14346571Y-17967429D01*
X14332286Y-17938857D01*
X14332286Y-17924572D01*
X14346571Y-17896000D01*
X14375143Y-17881714D01*
X14418000Y-17881714D01*
X14446571Y-17896000D01*
X14632285Y-18081714D02*
X14603714Y-18067429D01*
X14589428Y-18038857D01*
X14589428Y-17781714D01*
X14789428Y-18081714D02*
X14760857Y-18067429D01*
X14746571Y-18053143D01*
X14732286Y-18024572D01*
X14732286Y-17938857D01*
X14746571Y-17910286D01*
X14760857Y-17896000D01*
X14789428Y-17881714D01*
X14832286Y-17881714D01*
X14860857Y-17896000D01*
X14875143Y-17910286D01*
X14889428Y-17938857D01*
X14889428Y-18024572D01*
X14875143Y-18053143D01*
X14860857Y-18067429D01*
X14832286Y-18081714D01*
X14789428Y-18081714D01*
X14975143Y-17881714D02*
X15089428Y-17881714D01*
X15018000Y-17781714D02*
X15018000Y-18038857D01*
X15032286Y-18067429D01*
X15060857Y-18081714D01*
X15089428Y-18081714D01*
X15175143Y-18067429D02*
X15203714Y-18081714D01*
X15260857Y-18081714D01*
X15289428Y-18067429D01*
X15303714Y-18038857D01*
X15303714Y-18024572D01*
X15289428Y-17996000D01*
X15260857Y-17981714D01*
X15218000Y-17981714D01*
X15189428Y-17967429D01*
X15175143Y-17938857D01*
X15175143Y-17924572D01*
X15189428Y-17896000D01*
X15218000Y-17881714D01*
X15260857Y-17881714D01*
X15289428Y-17896000D01*
X15403714Y-18196000D02*
X15418000Y-18181714D01*
X15446571Y-18138857D01*
X15460857Y-18110286D01*
X15475143Y-18067429D01*
X15489428Y-17996000D01*
X15489428Y-17938857D01*
X15475143Y-17867429D01*
X15460857Y-17824572D01*
X15446571Y-17796000D01*
X15418000Y-17753143D01*
X15403714Y-17738857D01*
X6117924Y-18291962D02*
X6218000Y-18392038D01*
X6218000Y-18291962D02*
X6117924Y-18392038D01*
X6203344Y-18377383D02*
X6203344Y-18306618D01*
X6132579Y-18306618D01*
X6132579Y-18377383D01*
X6203344Y-18377383D01*
X6646571Y-18477714D02*
X6475143Y-18477714D01*
X6560857Y-18477714D02*
X6560857Y-18177714D01*
X6532286Y-18220572D01*
X6503714Y-18249143D01*
X6475143Y-18263429D01*
X6775143Y-18449143D02*
X6789428Y-18463429D01*
X6775143Y-18477714D01*
X6760857Y-18463429D01*
X6775143Y-18449143D01*
X6775143Y-18477714D01*
X6975143Y-18177714D02*
X7003714Y-18177714D01*
X7032286Y-18192000D01*
X7046571Y-18206286D01*
X7060857Y-18234857D01*
X7075143Y-18292000D01*
X7075143Y-18363429D01*
X7060857Y-18420572D01*
X7046571Y-18449143D01*
X7032286Y-18463429D01*
X7003714Y-18477714D01*
X6975143Y-18477714D01*
X6946571Y-18463429D01*
X6932286Y-18449143D01*
X6918000Y-18420572D01*
X6903714Y-18363429D01*
X6903714Y-18292000D01*
X6918000Y-18234857D01*
X6932286Y-18206286D01*
X6946571Y-18192000D01*
X6975143Y-18177714D01*
X7260857Y-18177714D02*
X7289428Y-18177714D01*
X7318000Y-18192000D01*
X7332286Y-18206286D01*
X7346571Y-18234857D01*
X7360857Y-18292000D01*
X7360857Y-18363429D01*
X7346571Y-18420572D01*
X7332286Y-18449143D01*
X7318000Y-18463429D01*
X7289428Y-18477714D01*
X7260857Y-18477714D01*
X7232286Y-18463429D01*
X7218000Y-18449143D01*
X7203714Y-18420572D01*
X7189428Y-18363429D01*
X7189428Y-18292000D01*
X7203714Y-18234857D01*
X7218000Y-18206286D01*
X7232286Y-18192000D01*
X7260857Y-18177714D01*
X7489428Y-18477714D02*
X7489428Y-18277714D01*
X7489428Y-18306286D02*
X7503714Y-18292000D01*
X7532286Y-18277714D01*
X7575143Y-18277714D01*
X7603714Y-18292000D01*
X7618000Y-18320572D01*
X7618000Y-18477714D01*
X7618000Y-18320572D02*
X7632286Y-18292000D01*
X7660857Y-18277714D01*
X7703714Y-18277714D01*
X7732286Y-18292000D01*
X7746571Y-18320572D01*
X7746571Y-18477714D01*
X7889428Y-18477714D02*
X7889428Y-18277714D01*
X7889428Y-18306286D02*
X7903714Y-18292000D01*
X7932286Y-18277714D01*
X7975143Y-18277714D01*
X8003714Y-18292000D01*
X8018000Y-18320572D01*
X8018000Y-18477714D01*
X8018000Y-18320572D02*
X8032286Y-18292000D01*
X8060857Y-18277714D01*
X8103714Y-18277714D01*
X8132286Y-18292000D01*
X8146571Y-18320572D01*
X8146571Y-18477714D01*
X8732286Y-18163429D02*
X8475143Y-18549143D01*
X9118000Y-18177714D02*
X9146571Y-18177714D01*
X9175143Y-18192000D01*
X9189428Y-18206286D01*
X9203714Y-18234857D01*
X9218000Y-18292000D01*
X9218000Y-18363429D01*
X9203714Y-18420572D01*
X9189428Y-18449143D01*
X9175143Y-18463429D01*
X9146571Y-18477714D01*
X9118000Y-18477714D01*
X9089428Y-18463429D01*
X9075143Y-18449143D01*
X9060857Y-18420572D01*
X9046571Y-18363429D01*
X9046571Y-18292000D01*
X9060857Y-18234857D01*
X9075143Y-18206286D01*
X9089428Y-18192000D01*
X9118000Y-18177714D01*
X9346571Y-18449143D02*
X9360857Y-18463429D01*
X9346571Y-18477714D01*
X9332286Y-18463429D01*
X9346571Y-18449143D01*
X9346571Y-18477714D01*
X9546571Y-18177714D02*
X9575143Y-18177714D01*
X9603714Y-18192000D01*
X9618000Y-18206286D01*
X9632286Y-18234857D01*
X9646571Y-18292000D01*
X9646571Y-18363429D01*
X9632286Y-18420572D01*
X9618000Y-18449143D01*
X9603714Y-18463429D01*
X9575143Y-18477714D01*
X9546571Y-18477714D01*
X9518000Y-18463429D01*
X9503714Y-18449143D01*
X9489428Y-18420572D01*
X9475143Y-18363429D01*
X9475143Y-18292000D01*
X9489428Y-18234857D01*
X9503714Y-18206286D01*
X9518000Y-18192000D01*
X9546571Y-18177714D01*
X9746571Y-18177714D02*
X9932286Y-18177714D01*
X9832286Y-18292000D01*
X9875143Y-18292000D01*
X9903714Y-18306286D01*
X9918000Y-18320572D01*
X9932286Y-18349143D01*
X9932286Y-18420572D01*
X9918000Y-18449143D01*
X9903714Y-18463429D01*
X9875143Y-18477714D01*
X9789428Y-18477714D01*
X9760857Y-18463429D01*
X9746571Y-18449143D01*
X10075143Y-18477714D02*
X10132286Y-18477714D01*
X10160857Y-18463429D01*
X10175143Y-18449143D01*
X10203714Y-18406286D01*
X10218000Y-18349143D01*
X10218000Y-18234857D01*
X10203714Y-18206286D01*
X10189428Y-18192000D01*
X10160857Y-18177714D01*
X10103714Y-18177714D01*
X10075143Y-18192000D01*
X10060857Y-18206286D01*
X10046571Y-18234857D01*
X10046571Y-18306286D01*
X10060857Y-18334857D01*
X10075143Y-18349143D01*
X10103714Y-18363429D01*
X10160857Y-18363429D01*
X10189428Y-18349143D01*
X10203714Y-18334857D01*
X10218000Y-18306286D01*
X10332286Y-18177714D02*
X10332286Y-18234857D01*
X10446571Y-18177714D02*
X10446571Y-18234857D01*
X10889428Y-18592000D02*
X10875143Y-18577714D01*
X10846571Y-18534857D01*
X10832286Y-18506286D01*
X10818000Y-18463429D01*
X10803714Y-18392000D01*
X10803714Y-18334857D01*
X10818000Y-18263429D01*
X10832286Y-18220572D01*
X10846571Y-18192000D01*
X10875143Y-18149143D01*
X10889428Y-18134857D01*
X11132286Y-18277714D02*
X11132286Y-18477714D01*
X11060857Y-18163429D02*
X10989428Y-18377714D01*
X11175143Y-18377714D01*
X11518000Y-18477714D02*
X11518000Y-18177714D01*
X11646571Y-18477714D02*
X11646571Y-18320572D01*
X11632285Y-18292000D01*
X11603714Y-18277714D01*
X11560857Y-18277714D01*
X11532285Y-18292000D01*
X11518000Y-18306286D01*
X11832285Y-18477714D02*
X11803714Y-18463429D01*
X11789428Y-18449143D01*
X11775143Y-18420572D01*
X11775143Y-18334857D01*
X11789428Y-18306286D01*
X11803714Y-18292000D01*
X11832285Y-18277714D01*
X11875143Y-18277714D01*
X11903714Y-18292000D01*
X11918000Y-18306286D01*
X11932285Y-18334857D01*
X11932285Y-18420572D01*
X11918000Y-18449143D01*
X11903714Y-18463429D01*
X11875143Y-18477714D01*
X11832285Y-18477714D01*
X12103714Y-18477714D02*
X12075143Y-18463429D01*
X12060857Y-18434857D01*
X12060857Y-18177714D01*
X12332286Y-18463429D02*
X12303714Y-18477714D01*
X12246571Y-18477714D01*
X12218000Y-18463429D01*
X12203714Y-18434857D01*
X12203714Y-18320572D01*
X12218000Y-18292000D01*
X12246571Y-18277714D01*
X12303714Y-18277714D01*
X12332286Y-18292000D01*
X12346571Y-18320572D01*
X12346571Y-18349143D01*
X12203714Y-18377714D01*
X12460857Y-18463429D02*
X12489428Y-18477714D01*
X12546571Y-18477714D01*
X12575143Y-18463429D01*
X12589428Y-18434857D01*
X12589428Y-18420572D01*
X12575143Y-18392000D01*
X12546571Y-18377714D01*
X12503714Y-18377714D01*
X12475143Y-18363429D01*
X12460857Y-18334857D01*
X12460857Y-18320572D01*
X12475143Y-18292000D01*
X12503714Y-18277714D01*
X12546571Y-18277714D01*
X12575143Y-18292000D01*
X12689428Y-18592000D02*
X12703714Y-18577714D01*
X12732286Y-18534857D01*
X12746571Y-18506286D01*
X12760857Y-18463429D01*
X12775143Y-18392000D01*
X12775143Y-18334857D01*
X12760857Y-18263429D01*
X12746571Y-18220572D01*
X12732286Y-18192000D01*
X12703714Y-18149143D01*
X12689428Y-18134857D01*
X6116400Y-18687200D02*
X6218000Y-18788800D01*
X6218000Y-18687200D02*
X6116400Y-18788800D01*
X6167200Y-18788800D02*
X6218000Y-18738000D01*
X6167200Y-18687200D01*
X6116400Y-18738000D01*
X6167200Y-18788800D01*
X6646571Y-18873714D02*
X6475143Y-18873714D01*
X6560857Y-18873714D02*
X6560857Y-18573714D01*
X6532286Y-18616572D01*
X6503714Y-18645143D01*
X6475143Y-18659429D01*
X6775143Y-18845143D02*
X6789428Y-18859429D01*
X6775143Y-18873714D01*
X6760857Y-18859429D01*
X6775143Y-18845143D01*
X6775143Y-18873714D01*
X6975143Y-18573714D02*
X7003714Y-18573714D01*
X7032286Y-18588000D01*
X7046571Y-18602286D01*
X7060857Y-18630857D01*
X7075143Y-18688000D01*
X7075143Y-18759429D01*
X7060857Y-18816572D01*
X7046571Y-18845143D01*
X7032286Y-18859429D01*
X7003714Y-18873714D01*
X6975143Y-18873714D01*
X6946571Y-18859429D01*
X6932286Y-18845143D01*
X6918000Y-18816572D01*
X6903714Y-18759429D01*
X6903714Y-18688000D01*
X6918000Y-18630857D01*
X6932286Y-18602286D01*
X6946571Y-18588000D01*
X6975143Y-18573714D01*
X7189428Y-18602286D02*
X7203714Y-18588000D01*
X7232286Y-18573714D01*
X7303714Y-18573714D01*
X7332286Y-18588000D01*
X7346571Y-18602286D01*
X7360857Y-18630857D01*
X7360857Y-18659429D01*
X7346571Y-18702286D01*
X7175143Y-18873714D01*
X7360857Y-18873714D01*
X7489428Y-18873714D02*
X7489428Y-18673714D01*
X7489428Y-18702286D02*
X7503714Y-18688000D01*
X7532286Y-18673714D01*
X7575143Y-18673714D01*
X7603714Y-18688000D01*
X7618000Y-18716572D01*
X7618000Y-18873714D01*
X7618000Y-18716572D02*
X7632286Y-18688000D01*
X7660857Y-18673714D01*
X7703714Y-18673714D01*
X7732286Y-18688000D01*
X7746571Y-18716572D01*
X7746571Y-18873714D01*
X7889428Y-18873714D02*
X7889428Y-18673714D01*
X7889428Y-18702286D02*
X7903714Y-18688000D01*
X7932286Y-18673714D01*
X7975143Y-18673714D01*
X8003714Y-18688000D01*
X8018000Y-18716572D01*
X8018000Y-18873714D01*
X8018000Y-18716572D02*
X8032286Y-18688000D01*
X8060857Y-18673714D01*
X8103714Y-18673714D01*
X8132286Y-18688000D01*
X8146571Y-18716572D01*
X8146571Y-18873714D01*
X8732286Y-18559429D02*
X8475143Y-18945143D01*
X9118000Y-18573714D02*
X9146571Y-18573714D01*
X9175143Y-18588000D01*
X9189428Y-18602286D01*
X9203714Y-18630857D01*
X9218000Y-18688000D01*
X9218000Y-18759429D01*
X9203714Y-18816572D01*
X9189428Y-18845143D01*
X9175143Y-18859429D01*
X9146571Y-18873714D01*
X9118000Y-18873714D01*
X9089428Y-18859429D01*
X9075143Y-18845143D01*
X9060857Y-18816572D01*
X9046571Y-18759429D01*
X9046571Y-18688000D01*
X9060857Y-18630857D01*
X9075143Y-18602286D01*
X9089428Y-18588000D01*
X9118000Y-18573714D01*
X9346571Y-18845143D02*
X9360857Y-18859429D01*
X9346571Y-18873714D01*
X9332286Y-18859429D01*
X9346571Y-18845143D01*
X9346571Y-18873714D01*
X9546571Y-18573714D02*
X9575143Y-18573714D01*
X9603714Y-18588000D01*
X9618000Y-18602286D01*
X9632286Y-18630857D01*
X9646571Y-18688000D01*
X9646571Y-18759429D01*
X9632286Y-18816572D01*
X9618000Y-18845143D01*
X9603714Y-18859429D01*
X9575143Y-18873714D01*
X9546571Y-18873714D01*
X9518000Y-18859429D01*
X9503714Y-18845143D01*
X9489428Y-18816572D01*
X9475143Y-18759429D01*
X9475143Y-18688000D01*
X9489428Y-18630857D01*
X9503714Y-18602286D01*
X9518000Y-18588000D01*
X9546571Y-18573714D01*
X9903714Y-18673714D02*
X9903714Y-18873714D01*
X9832286Y-18559429D02*
X9760857Y-18773714D01*
X9946571Y-18773714D01*
X10118000Y-18573714D02*
X10146571Y-18573714D01*
X10175143Y-18588000D01*
X10189428Y-18602286D01*
X10203714Y-18630857D01*
X10218000Y-18688000D01*
X10218000Y-18759429D01*
X10203714Y-18816572D01*
X10189428Y-18845143D01*
X10175143Y-18859429D01*
X10146571Y-18873714D01*
X10118000Y-18873714D01*
X10089428Y-18859429D01*
X10075143Y-18845143D01*
X10060857Y-18816572D01*
X10046571Y-18759429D01*
X10046571Y-18688000D01*
X10060857Y-18630857D01*
X10075143Y-18602286D01*
X10089428Y-18588000D01*
X10118000Y-18573714D01*
X10332286Y-18573714D02*
X10332286Y-18630857D01*
X10446571Y-18573714D02*
X10446571Y-18630857D01*
X10889428Y-18988000D02*
X10875143Y-18973714D01*
X10846571Y-18930857D01*
X10832286Y-18902286D01*
X10818000Y-18859429D01*
X10803714Y-18788000D01*
X10803714Y-18730857D01*
X10818000Y-18659429D01*
X10832286Y-18616572D01*
X10846571Y-18588000D01*
X10875143Y-18545143D01*
X10889428Y-18530857D01*
X11146571Y-18573714D02*
X11003714Y-18573714D01*
X10989428Y-18716572D01*
X11003714Y-18702286D01*
X11032286Y-18688000D01*
X11103714Y-18688000D01*
X11132286Y-18702286D01*
X11146571Y-18716572D01*
X11160857Y-18745143D01*
X11160857Y-18816572D01*
X11146571Y-18845143D01*
X11132286Y-18859429D01*
X11103714Y-18873714D01*
X11032286Y-18873714D01*
X11003714Y-18859429D01*
X10989428Y-18845143D01*
X11275143Y-18602286D02*
X11289428Y-18588000D01*
X11318000Y-18573714D01*
X11389428Y-18573714D01*
X11418000Y-18588000D01*
X11432285Y-18602286D01*
X11446571Y-18630857D01*
X11446571Y-18659429D01*
X11432285Y-18702286D01*
X11260857Y-18873714D01*
X11446571Y-18873714D01*
X11803714Y-18873714D02*
X11803714Y-18573714D01*
X11932285Y-18873714D02*
X11932285Y-18716572D01*
X11918000Y-18688000D01*
X11889428Y-18673714D01*
X11846571Y-18673714D01*
X11818000Y-18688000D01*
X11803714Y-18702286D01*
X12118000Y-18873714D02*
X12089428Y-18859429D01*
X12075143Y-18845143D01*
X12060857Y-18816572D01*
X12060857Y-18730857D01*
X12075143Y-18702286D01*
X12089428Y-18688000D01*
X12118000Y-18673714D01*
X12160857Y-18673714D01*
X12189428Y-18688000D01*
X12203714Y-18702286D01*
X12218000Y-18730857D01*
X12218000Y-18816572D01*
X12203714Y-18845143D01*
X12189428Y-18859429D01*
X12160857Y-18873714D01*
X12118000Y-18873714D01*
X12389428Y-18873714D02*
X12360857Y-18859429D01*
X12346571Y-18830857D01*
X12346571Y-18573714D01*
X12618000Y-18859429D02*
X12589428Y-18873714D01*
X12532286Y-18873714D01*
X12503714Y-18859429D01*
X12489428Y-18830857D01*
X12489428Y-18716572D01*
X12503714Y-18688000D01*
X12532286Y-18673714D01*
X12589428Y-18673714D01*
X12618000Y-18688000D01*
X12632286Y-18716572D01*
X12632286Y-18745143D01*
X12489428Y-18773714D01*
X12746571Y-18859429D02*
X12775143Y-18873714D01*
X12832286Y-18873714D01*
X12860857Y-18859429D01*
X12875143Y-18830857D01*
X12875143Y-18816572D01*
X12860857Y-18788000D01*
X12832286Y-18773714D01*
X12789428Y-18773714D01*
X12760857Y-18759429D01*
X12746571Y-18730857D01*
X12746571Y-18716572D01*
X12760857Y-18688000D01*
X12789428Y-18673714D01*
X12832286Y-18673714D01*
X12860857Y-18688000D01*
X12975143Y-18988000D02*
X12989428Y-18973714D01*
X13018000Y-18930857D01*
X13032286Y-18902286D01*
X13046571Y-18859429D01*
X13060857Y-18788000D01*
X13060857Y-18730857D01*
X13046571Y-18659429D01*
X13032286Y-18616572D01*
X13018000Y-18588000D01*
X12989428Y-18545143D01*
X12975143Y-18530857D01*
X6103065Y-19019065D02*
X6103065Y-19248935D01*
X5988130Y-19134000D02*
X6218000Y-19134000D01*
X6218000Y-19134000D02*
G75*
G03X6218000Y-19134000I-114935J0D01*
G01*
X6475143Y-18998286D02*
X6489428Y-18984000D01*
X6518000Y-18969714D01*
X6589428Y-18969714D01*
X6618000Y-18984000D01*
X6632286Y-18998286D01*
X6646571Y-19026857D01*
X6646571Y-19055429D01*
X6632286Y-19098286D01*
X6460857Y-19269714D01*
X6646571Y-19269714D01*
X6775143Y-19241143D02*
X6789428Y-19255429D01*
X6775143Y-19269714D01*
X6760857Y-19255429D01*
X6775143Y-19241143D01*
X6775143Y-19269714D01*
X6889428Y-18969714D02*
X7075143Y-18969714D01*
X6975143Y-19084000D01*
X7018000Y-19084000D01*
X7046571Y-19098286D01*
X7060857Y-19112572D01*
X7075143Y-19141143D01*
X7075143Y-19212572D01*
X7060857Y-19241143D01*
X7046571Y-19255429D01*
X7018000Y-19269714D01*
X6932286Y-19269714D01*
X6903714Y-19255429D01*
X6889428Y-19241143D01*
X7260857Y-18969714D02*
X7289428Y-18969714D01*
X7318000Y-18984000D01*
X7332286Y-18998286D01*
X7346571Y-19026857D01*
X7360857Y-19084000D01*
X7360857Y-19155429D01*
X7346571Y-19212572D01*
X7332286Y-19241143D01*
X7318000Y-19255429D01*
X7289428Y-19269714D01*
X7260857Y-19269714D01*
X7232286Y-19255429D01*
X7218000Y-19241143D01*
X7203714Y-19212572D01*
X7189428Y-19155429D01*
X7189428Y-19084000D01*
X7203714Y-19026857D01*
X7218000Y-18998286D01*
X7232286Y-18984000D01*
X7260857Y-18969714D01*
X7489428Y-19269714D02*
X7489428Y-19069714D01*
X7489428Y-19098286D02*
X7503714Y-19084000D01*
X7532286Y-19069714D01*
X7575143Y-19069714D01*
X7603714Y-19084000D01*
X7618000Y-19112572D01*
X7618000Y-19269714D01*
X7618000Y-19112572D02*
X7632286Y-19084000D01*
X7660857Y-19069714D01*
X7703714Y-19069714D01*
X7732286Y-19084000D01*
X7746571Y-19112572D01*
X7746571Y-19269714D01*
X7889428Y-19269714D02*
X7889428Y-19069714D01*
X7889428Y-19098286D02*
X7903714Y-19084000D01*
X7932286Y-19069714D01*
X7975143Y-19069714D01*
X8003714Y-19084000D01*
X8018000Y-19112572D01*
X8018000Y-19269714D01*
X8018000Y-19112572D02*
X8032286Y-19084000D01*
X8060857Y-19069714D01*
X8103714Y-19069714D01*
X8132286Y-19084000D01*
X8146571Y-19112572D01*
X8146571Y-19269714D01*
X8732286Y-18955429D02*
X8475143Y-19341143D01*
X9118000Y-18969714D02*
X9146571Y-18969714D01*
X9175143Y-18984000D01*
X9189428Y-18998286D01*
X9203714Y-19026857D01*
X9218000Y-19084000D01*
X9218000Y-19155429D01*
X9203714Y-19212572D01*
X9189428Y-19241143D01*
X9175143Y-19255429D01*
X9146571Y-19269714D01*
X9118000Y-19269714D01*
X9089428Y-19255429D01*
X9075143Y-19241143D01*
X9060857Y-19212572D01*
X9046571Y-19155429D01*
X9046571Y-19084000D01*
X9060857Y-19026857D01*
X9075143Y-18998286D01*
X9089428Y-18984000D01*
X9118000Y-18969714D01*
X9346571Y-19241143D02*
X9360857Y-19255429D01*
X9346571Y-19269714D01*
X9332286Y-19255429D01*
X9346571Y-19241143D01*
X9346571Y-19269714D01*
X9546571Y-18969714D02*
X9575143Y-18969714D01*
X9603714Y-18984000D01*
X9618000Y-18998286D01*
X9632286Y-19026857D01*
X9646571Y-19084000D01*
X9646571Y-19155429D01*
X9632286Y-19212572D01*
X9618000Y-19241143D01*
X9603714Y-19255429D01*
X9575143Y-19269714D01*
X9546571Y-19269714D01*
X9518000Y-19255429D01*
X9503714Y-19241143D01*
X9489428Y-19212572D01*
X9475143Y-19155429D01*
X9475143Y-19084000D01*
X9489428Y-19026857D01*
X9503714Y-18998286D01*
X9518000Y-18984000D01*
X9546571Y-18969714D01*
X9789428Y-19269714D02*
X9846571Y-19269714D01*
X9875143Y-19255429D01*
X9889428Y-19241143D01*
X9918000Y-19198286D01*
X9932286Y-19141143D01*
X9932286Y-19026857D01*
X9918000Y-18998286D01*
X9903714Y-18984000D01*
X9875143Y-18969714D01*
X9818000Y-18969714D01*
X9789428Y-18984000D01*
X9775143Y-18998286D01*
X9760857Y-19026857D01*
X9760857Y-19098286D01*
X9775143Y-19126857D01*
X9789428Y-19141143D01*
X9818000Y-19155429D01*
X9875143Y-19155429D01*
X9903714Y-19141143D01*
X9918000Y-19126857D01*
X9932286Y-19098286D01*
X10218000Y-19269714D02*
X10046571Y-19269714D01*
X10132286Y-19269714D02*
X10132286Y-18969714D01*
X10103714Y-19012572D01*
X10075143Y-19041143D01*
X10046571Y-19055429D01*
X10332286Y-18969714D02*
X10332286Y-19026857D01*
X10446571Y-18969714D02*
X10446571Y-19026857D01*
X10889428Y-19384000D02*
X10875143Y-19369714D01*
X10846571Y-19326857D01*
X10832286Y-19298286D01*
X10818000Y-19255429D01*
X10803714Y-19184000D01*
X10803714Y-19126857D01*
X10818000Y-19055429D01*
X10832286Y-19012572D01*
X10846571Y-18984000D01*
X10875143Y-18941143D01*
X10889428Y-18926857D01*
X10975143Y-18969714D02*
X11160857Y-18969714D01*
X11060857Y-19084000D01*
X11103714Y-19084000D01*
X11132286Y-19098286D01*
X11146571Y-19112572D01*
X11160857Y-19141143D01*
X11160857Y-19212572D01*
X11146571Y-19241143D01*
X11132286Y-19255429D01*
X11103714Y-19269714D01*
X11018000Y-19269714D01*
X10989428Y-19255429D01*
X10975143Y-19241143D01*
X11518000Y-19269714D02*
X11518000Y-18969714D01*
X11646571Y-19269714D02*
X11646571Y-19112572D01*
X11632285Y-19084000D01*
X11603714Y-19069714D01*
X11560857Y-19069714D01*
X11532285Y-19084000D01*
X11518000Y-19098286D01*
X11832285Y-19269714D02*
X11803714Y-19255429D01*
X11789428Y-19241143D01*
X11775143Y-19212572D01*
X11775143Y-19126857D01*
X11789428Y-19098286D01*
X11803714Y-19084000D01*
X11832285Y-19069714D01*
X11875143Y-19069714D01*
X11903714Y-19084000D01*
X11918000Y-19098286D01*
X11932285Y-19126857D01*
X11932285Y-19212572D01*
X11918000Y-19241143D01*
X11903714Y-19255429D01*
X11875143Y-19269714D01*
X11832285Y-19269714D01*
X12103714Y-19269714D02*
X12075143Y-19255429D01*
X12060857Y-19226857D01*
X12060857Y-18969714D01*
X12332286Y-19255429D02*
X12303714Y-19269714D01*
X12246571Y-19269714D01*
X12218000Y-19255429D01*
X12203714Y-19226857D01*
X12203714Y-19112572D01*
X12218000Y-19084000D01*
X12246571Y-19069714D01*
X12303714Y-19069714D01*
X12332286Y-19084000D01*
X12346571Y-19112572D01*
X12346571Y-19141143D01*
X12203714Y-19169714D01*
X12460857Y-19255429D02*
X12489428Y-19269714D01*
X12546571Y-19269714D01*
X12575143Y-19255429D01*
X12589428Y-19226857D01*
X12589428Y-19212572D01*
X12575143Y-19184000D01*
X12546571Y-19169714D01*
X12503714Y-19169714D01*
X12475143Y-19155429D01*
X12460857Y-19126857D01*
X12460857Y-19112572D01*
X12475143Y-19084000D01*
X12503714Y-19069714D01*
X12546571Y-19069714D01*
X12575143Y-19084000D01*
X12689428Y-19384000D02*
X12703714Y-19369714D01*
X12732286Y-19326857D01*
X12746571Y-19298286D01*
X12760857Y-19255429D01*
X12775143Y-19184000D01*
X12775143Y-19126857D01*
X12760857Y-19055429D01*
X12746571Y-19012572D01*
X12732286Y-18984000D01*
X12703714Y-18941143D01*
X12689428Y-18926857D01*
X6174071Y-19636058D02*
X6174071Y-19423942D01*
X5961955Y-19423942D01*
X5961955Y-19636058D01*
X6174071Y-19636058D01*
X6218000Y-19530000D02*
G75*
G03X6218000Y-19530000I-149987J0D01*
G01*
X6460857Y-19365714D02*
X6646571Y-19365714D01*
X6546571Y-19480000D01*
X6589428Y-19480000D01*
X6618000Y-19494286D01*
X6632286Y-19508572D01*
X6646571Y-19537143D01*
X6646571Y-19608572D01*
X6632286Y-19637143D01*
X6618000Y-19651429D01*
X6589428Y-19665714D01*
X6503714Y-19665714D01*
X6475143Y-19651429D01*
X6460857Y-19637143D01*
X6775143Y-19637143D02*
X6789428Y-19651429D01*
X6775143Y-19665714D01*
X6760857Y-19651429D01*
X6775143Y-19637143D01*
X6775143Y-19665714D01*
X6975143Y-19365714D02*
X7003714Y-19365714D01*
X7032286Y-19380000D01*
X7046571Y-19394286D01*
X7060857Y-19422857D01*
X7075143Y-19480000D01*
X7075143Y-19551429D01*
X7060857Y-19608572D01*
X7046571Y-19637143D01*
X7032286Y-19651429D01*
X7003714Y-19665714D01*
X6975143Y-19665714D01*
X6946571Y-19651429D01*
X6932286Y-19637143D01*
X6918000Y-19608572D01*
X6903714Y-19551429D01*
X6903714Y-19480000D01*
X6918000Y-19422857D01*
X6932286Y-19394286D01*
X6946571Y-19380000D01*
X6975143Y-19365714D01*
X7260857Y-19365714D02*
X7289428Y-19365714D01*
X7318000Y-19380000D01*
X7332286Y-19394286D01*
X7346571Y-19422857D01*
X7360857Y-19480000D01*
X7360857Y-19551429D01*
X7346571Y-19608572D01*
X7332286Y-19637143D01*
X7318000Y-19651429D01*
X7289428Y-19665714D01*
X7260857Y-19665714D01*
X7232286Y-19651429D01*
X7218000Y-19637143D01*
X7203714Y-19608572D01*
X7189428Y-19551429D01*
X7189428Y-19480000D01*
X7203714Y-19422857D01*
X7218000Y-19394286D01*
X7232286Y-19380000D01*
X7260857Y-19365714D01*
X7489428Y-19665714D02*
X7489428Y-19465714D01*
X7489428Y-19494286D02*
X7503714Y-19480000D01*
X7532286Y-19465714D01*
X7575143Y-19465714D01*
X7603714Y-19480000D01*
X7618000Y-19508572D01*
X7618000Y-19665714D01*
X7618000Y-19508572D02*
X7632286Y-19480000D01*
X7660857Y-19465714D01*
X7703714Y-19465714D01*
X7732286Y-19480000D01*
X7746571Y-19508572D01*
X7746571Y-19665714D01*
X7889428Y-19665714D02*
X7889428Y-19465714D01*
X7889428Y-19494286D02*
X7903714Y-19480000D01*
X7932286Y-19465714D01*
X7975143Y-19465714D01*
X8003714Y-19480000D01*
X8018000Y-19508572D01*
X8018000Y-19665714D01*
X8018000Y-19508572D02*
X8032286Y-19480000D01*
X8060857Y-19465714D01*
X8103714Y-19465714D01*
X8132286Y-19480000D01*
X8146571Y-19508572D01*
X8146571Y-19665714D01*
X8732286Y-19351429D02*
X8475143Y-19737143D01*
X9118000Y-19365714D02*
X9146571Y-19365714D01*
X9175143Y-19380000D01*
X9189428Y-19394286D01*
X9203714Y-19422857D01*
X9218000Y-19480000D01*
X9218000Y-19551429D01*
X9203714Y-19608572D01*
X9189428Y-19637143D01*
X9175143Y-19651429D01*
X9146571Y-19665714D01*
X9118000Y-19665714D01*
X9089428Y-19651429D01*
X9075143Y-19637143D01*
X9060857Y-19608572D01*
X9046571Y-19551429D01*
X9046571Y-19480000D01*
X9060857Y-19422857D01*
X9075143Y-19394286D01*
X9089428Y-19380000D01*
X9118000Y-19365714D01*
X9346571Y-19637143D02*
X9360857Y-19651429D01*
X9346571Y-19665714D01*
X9332286Y-19651429D01*
X9346571Y-19637143D01*
X9346571Y-19665714D01*
X9646571Y-19665714D02*
X9475143Y-19665714D01*
X9560857Y-19665714D02*
X9560857Y-19365714D01*
X9532286Y-19408572D01*
X9503714Y-19437143D01*
X9475143Y-19451429D01*
X9932286Y-19665714D02*
X9760857Y-19665714D01*
X9846571Y-19665714D02*
X9846571Y-19365714D01*
X9818000Y-19408572D01*
X9789428Y-19437143D01*
X9760857Y-19451429D01*
X10103714Y-19494286D02*
X10075143Y-19480000D01*
X10060857Y-19465714D01*
X10046571Y-19437143D01*
X10046571Y-19422857D01*
X10060857Y-19394286D01*
X10075143Y-19380000D01*
X10103714Y-19365714D01*
X10160857Y-19365714D01*
X10189428Y-19380000D01*
X10203714Y-19394286D01*
X10218000Y-19422857D01*
X10218000Y-19437143D01*
X10203714Y-19465714D01*
X10189428Y-19480000D01*
X10160857Y-19494286D01*
X10103714Y-19494286D01*
X10075143Y-19508572D01*
X10060857Y-19522857D01*
X10046571Y-19551429D01*
X10046571Y-19608572D01*
X10060857Y-19637143D01*
X10075143Y-19651429D01*
X10103714Y-19665714D01*
X10160857Y-19665714D01*
X10189428Y-19651429D01*
X10203714Y-19637143D01*
X10218000Y-19608572D01*
X10218000Y-19551429D01*
X10203714Y-19522857D01*
X10189428Y-19508572D01*
X10160857Y-19494286D01*
X10332286Y-19365714D02*
X10332286Y-19422857D01*
X10446571Y-19365714D02*
X10446571Y-19422857D01*
X10889428Y-19780000D02*
X10875143Y-19765714D01*
X10846571Y-19722857D01*
X10832286Y-19694286D01*
X10818000Y-19651429D01*
X10803714Y-19580000D01*
X10803714Y-19522857D01*
X10818000Y-19451429D01*
X10832286Y-19408572D01*
X10846571Y-19380000D01*
X10875143Y-19337143D01*
X10889428Y-19322857D01*
X11132286Y-19465714D02*
X11132286Y-19665714D01*
X11060857Y-19351429D02*
X10989428Y-19565714D01*
X11175143Y-19565714D01*
X11518000Y-19665714D02*
X11518000Y-19365714D01*
X11646571Y-19665714D02*
X11646571Y-19508572D01*
X11632285Y-19480000D01*
X11603714Y-19465714D01*
X11560857Y-19465714D01*
X11532285Y-19480000D01*
X11518000Y-19494286D01*
X11832285Y-19665714D02*
X11803714Y-19651429D01*
X11789428Y-19637143D01*
X11775143Y-19608572D01*
X11775143Y-19522857D01*
X11789428Y-19494286D01*
X11803714Y-19480000D01*
X11832285Y-19465714D01*
X11875143Y-19465714D01*
X11903714Y-19480000D01*
X11918000Y-19494286D01*
X11932285Y-19522857D01*
X11932285Y-19608572D01*
X11918000Y-19637143D01*
X11903714Y-19651429D01*
X11875143Y-19665714D01*
X11832285Y-19665714D01*
X12103714Y-19665714D02*
X12075143Y-19651429D01*
X12060857Y-19622857D01*
X12060857Y-19365714D01*
X12332286Y-19651429D02*
X12303714Y-19665714D01*
X12246571Y-19665714D01*
X12218000Y-19651429D01*
X12203714Y-19622857D01*
X12203714Y-19508572D01*
X12218000Y-19480000D01*
X12246571Y-19465714D01*
X12303714Y-19465714D01*
X12332286Y-19480000D01*
X12346571Y-19508572D01*
X12346571Y-19537143D01*
X12203714Y-19565714D01*
X12460857Y-19651429D02*
X12489428Y-19665714D01*
X12546571Y-19665714D01*
X12575143Y-19651429D01*
X12589428Y-19622857D01*
X12589428Y-19608572D01*
X12575143Y-19580000D01*
X12546571Y-19565714D01*
X12503714Y-19565714D01*
X12475143Y-19551429D01*
X12460857Y-19522857D01*
X12460857Y-19508572D01*
X12475143Y-19480000D01*
X12503714Y-19465714D01*
X12546571Y-19465714D01*
X12575143Y-19480000D01*
X12689428Y-19780000D02*
X12703714Y-19765714D01*
X12732286Y-19722857D01*
X12746571Y-19694286D01*
X12760857Y-19651429D01*
X12775143Y-19580000D01*
X12775143Y-19522857D01*
X12760857Y-19451429D01*
X12746571Y-19408572D01*
X12732286Y-19380000D01*
X12703714Y-19337143D01*
X12689428Y-19322857D01*
M02*
