G04 #@! TF.FileFunction,Legend,Bot*
%FSLAX46Y46*%
G04 Gerber Fmt 4.6, Leading zero omitted, Abs format (unit mm)*
G04 Created by KiCad (PCBNEW 4.0.2+dfsg1-stable) date Tue 27 Feb 2018 09:46:13 PM CET*
%MOMM*%
G01*
G04 APERTURE LIST*
%ADD10C,0.100000*%
%ADD11C,0.088900*%
G04 APERTURE END LIST*
D10*
D11*
X70217695Y-129291201D02*
X71030495Y-128749334D01*
X70217695Y-128749334D02*
X71030495Y-129291201D01*
X70295105Y-128478401D02*
X70256400Y-128439696D01*
X70217695Y-128362287D01*
X70217695Y-128168763D01*
X70256400Y-128091353D01*
X70295105Y-128052649D01*
X70372514Y-128013944D01*
X70449924Y-128013944D01*
X70566038Y-128052649D01*
X71030495Y-128517106D01*
X71030495Y-128013944D01*
X72717055Y-128554600D02*
X72717055Y-128709419D01*
X72755760Y-128786829D01*
X72794465Y-128825534D01*
X72910579Y-128902943D01*
X73065398Y-128941648D01*
X73375036Y-128941648D01*
X73452446Y-128902943D01*
X73491150Y-128864238D01*
X73529855Y-128786829D01*
X73529855Y-128632010D01*
X73491150Y-128554600D01*
X73452446Y-128515896D01*
X73375036Y-128477191D01*
X73181512Y-128477191D01*
X73104103Y-128515896D01*
X73065398Y-128554600D01*
X73026693Y-128632010D01*
X73026693Y-128786829D01*
X73065398Y-128864238D01*
X73104103Y-128902943D01*
X73181512Y-128941648D01*
X73106038Y-122020269D02*
X73067333Y-122097678D01*
X73028629Y-122136383D01*
X72951219Y-122175088D01*
X72912514Y-122175088D01*
X72835105Y-122136383D01*
X72796400Y-122097678D01*
X72757695Y-122020269D01*
X72757695Y-121865450D01*
X72796400Y-121788040D01*
X72835105Y-121749336D01*
X72912514Y-121710631D01*
X72951219Y-121710631D01*
X73028629Y-121749336D01*
X73067333Y-121788040D01*
X73106038Y-121865450D01*
X73106038Y-122020269D01*
X73144743Y-122097678D01*
X73183448Y-122136383D01*
X73260857Y-122175088D01*
X73415676Y-122175088D01*
X73493086Y-122136383D01*
X73531790Y-122097678D01*
X73570495Y-122020269D01*
X73570495Y-121865450D01*
X73531790Y-121788040D01*
X73493086Y-121749336D01*
X73415676Y-121710631D01*
X73260857Y-121710631D01*
X73183448Y-121749336D01*
X73144743Y-121788040D01*
X73106038Y-121865450D01*
M02*
