/* XPM */ 
static const unsigned char * sanduhr_180_xpm[] = {
"16 16 2 1",
" 	c None",
"!	c black",
"                ",
"                ",
"    !!!!!!!!!   ",
"    !       !   ",
"    !!!!!!!!!   ",
"     ! !!! !    ",
"     !  !  !    ",
"      !   !     ",
"      ! ! !     ",
"     !  !  !    ",
"     ! ! ! !    ",
"    !!!!!!!!!   ",
"    !       !   ",
"    !!!!!!!!!   ",
"                ",
"                "};