/* XPM */ 
static const unsigned char * sanduhr_45_xpm[] = {
"16 16 2 1",
" 	c None",
"!	c black",
"        !       ",
"       ! !      ",
"       !  !     ",
"      !!!  !    ",
"      ! !!  !   ",
"      ! ! !  !  ",
"  !!!! !!  ! !  ",
" !!!       !!   ",
"!! !!!! !!!     ",
" !! !!! !       ",
"  !! !! !       ",
"   !! !!        ",
"    !! !        ",
"     !!         ",
"                ",
"                "};