%FSLAX45Y45*%
G04 Gerber Fmt 4.5, Leading zero omitted, Abs format (unit mm)*
G04 Created by KiCad (PCBNEW (2014-12-04 BZR 5312)-product) date Wed 04 Feb 2015 08:29:29 AM CET*
%MOMM*%
G01*
G04 APERTURE LIST*
%ADD10C,0.127000*%
%ADD11C,0.100000*%
%ADD12C,0.200000*%
%ADD13C,0.300000*%
G04 APERTURE END LIST*
D10*
D11*
X6223000Y-14605000D02*
X6223000Y-4572000D01*
X22225000Y-14605000D02*
X6223000Y-14605000D01*
X22225000Y-4572000D02*
X22225000Y-14605000D01*
X6223000Y-4572000D02*
X22225000Y-4572000D01*
D12*
X16732250Y-9442450D02*
X16795750Y-9505950D01*
X16795750Y-9442450D02*
X16732250Y-9505950D01*
X18256250Y-10610850D02*
X18319750Y-10674350D01*
X18319750Y-10610850D02*
X18256250Y-10674350D01*
X19272250Y-10699750D02*
X19335750Y-10763250D01*
X19335750Y-10699750D02*
X19272250Y-10763250D01*
X9247505Y-8509000D02*
G75*
G03X9247505Y-8509000I-40005J0D01*
G01*
X9501505Y-8509000D02*
G75*
G03X9501505Y-8509000I-40005J0D01*
G01*
X10009505Y-8509000D02*
G75*
G03X10009505Y-8509000I-40005J0D01*
G01*
X10263505Y-8509000D02*
G75*
G03X10263505Y-8509000I-40005J0D01*
G01*
X10771505Y-8509000D02*
G75*
G03X10771505Y-8509000I-40005J0D01*
G01*
X10771505Y-10477500D02*
G75*
G03X10771505Y-10477500I-40005J0D01*
G01*
X11025505Y-8509000D02*
G75*
G03X11025505Y-8509000I-40005J0D01*
G01*
X11025505Y-10477500D02*
G75*
G03X11025505Y-10477500I-40005J0D01*
G01*
X11533505Y-8509000D02*
G75*
G03X11533505Y-8509000I-40005J0D01*
G01*
X11787505Y-8509000D02*
G75*
G03X11787505Y-8509000I-40005J0D01*
G01*
X20944205Y-12255500D02*
G75*
G03X20944205Y-12255500I-40005J0D01*
G01*
X20944205Y-12636500D02*
G75*
G03X20944205Y-12636500I-40005J0D01*
G01*
X8636000Y-8595360D02*
X8636000Y-8676640D01*
X8595360Y-8636000D02*
X8676640Y-8636000D01*
X8636000Y-9357360D02*
X8636000Y-9438640D01*
X8595360Y-9398000D02*
X8676640Y-9398000D01*
X9207500Y-9103360D02*
X9207500Y-9184640D01*
X9166860Y-9144000D02*
X9248140Y-9144000D01*
X9207500Y-9865360D02*
X9207500Y-9946640D01*
X9166860Y-9906000D02*
X9248140Y-9906000D01*
X9461500Y-9103360D02*
X9461500Y-9184640D01*
X9420860Y-9144000D02*
X9502140Y-9144000D01*
X9461500Y-9865360D02*
X9461500Y-9946640D01*
X9420860Y-9906000D02*
X9502140Y-9906000D01*
X9715500Y-9103360D02*
X9715500Y-9184640D01*
X9674860Y-9144000D02*
X9756140Y-9144000D01*
X9715500Y-9865360D02*
X9715500Y-9946640D01*
X9674860Y-9906000D02*
X9756140Y-9906000D01*
X9969500Y-9103360D02*
X9969500Y-9184640D01*
X9928860Y-9144000D02*
X10010140Y-9144000D01*
X9969500Y-9865360D02*
X9969500Y-9946640D01*
X9928860Y-9906000D02*
X10010140Y-9906000D01*
X10223500Y-9103360D02*
X10223500Y-9184640D01*
X10182860Y-9144000D02*
X10264140Y-9144000D01*
X10223500Y-9865360D02*
X10223500Y-9946640D01*
X10182860Y-9906000D02*
X10264140Y-9906000D01*
X10477500Y-9103360D02*
X10477500Y-9184640D01*
X10436860Y-9144000D02*
X10518140Y-9144000D01*
X10477500Y-9865360D02*
X10477500Y-9946640D01*
X10436860Y-9906000D02*
X10518140Y-9906000D01*
X10731500Y-9103360D02*
X10731500Y-9184640D01*
X10690860Y-9144000D02*
X10772140Y-9144000D01*
X10731500Y-9865360D02*
X10731500Y-9946640D01*
X10690860Y-9906000D02*
X10772140Y-9906000D01*
X10985500Y-9103360D02*
X10985500Y-9184640D01*
X10944860Y-9144000D02*
X11026140Y-9144000D01*
X10985500Y-9865360D02*
X10985500Y-9946640D01*
X10944860Y-9906000D02*
X11026140Y-9906000D01*
X15494000Y-8341360D02*
X15494000Y-8422640D01*
X15453360Y-8382000D02*
X15534640Y-8382000D01*
X15494000Y-9865360D02*
X15494000Y-9946640D01*
X15453360Y-9906000D02*
X15534640Y-9906000D01*
X15748000Y-8341360D02*
X15748000Y-8422640D01*
X15707360Y-8382000D02*
X15788640Y-8382000D01*
X15748000Y-9865360D02*
X15748000Y-9946640D01*
X15707360Y-9906000D02*
X15788640Y-9906000D01*
X16002000Y-8341360D02*
X16002000Y-8422640D01*
X15961360Y-8382000D02*
X16042640Y-8382000D01*
X16002000Y-9865360D02*
X16002000Y-9946640D01*
X15961360Y-9906000D02*
X16042640Y-9906000D01*
X16256000Y-8341360D02*
X16256000Y-8422640D01*
X16215360Y-8382000D02*
X16296640Y-8382000D01*
X16256000Y-9865360D02*
X16256000Y-9946640D01*
X16215360Y-9906000D02*
X16296640Y-9906000D01*
X16510000Y-8341360D02*
X16510000Y-8422640D01*
X16469360Y-8382000D02*
X16550640Y-8382000D01*
X16510000Y-9865360D02*
X16510000Y-9946640D01*
X16469360Y-9906000D02*
X16550640Y-9906000D01*
X16764000Y-8341360D02*
X16764000Y-8422640D01*
X16723360Y-8382000D02*
X16804640Y-8382000D01*
X16764000Y-9865360D02*
X16764000Y-9946640D01*
X16723360Y-9906000D02*
X16804640Y-9906000D01*
X17018000Y-8341360D02*
X17018000Y-8422640D01*
X16977360Y-8382000D02*
X17058640Y-8382000D01*
X17018000Y-9865360D02*
X17018000Y-9946640D01*
X16977360Y-9906000D02*
X17058640Y-9906000D01*
X17272000Y-8341360D02*
X17272000Y-8422640D01*
X17231360Y-8382000D02*
X17312640Y-8382000D01*
X17272000Y-9865360D02*
X17272000Y-9946640D01*
X17231360Y-9906000D02*
X17312640Y-9906000D01*
X17526000Y-8341360D02*
X17526000Y-8422640D01*
X17485360Y-8382000D02*
X17566640Y-8382000D01*
X17526000Y-9865360D02*
X17526000Y-9946640D01*
X17485360Y-9906000D02*
X17566640Y-9906000D01*
X17780000Y-8341360D02*
X17780000Y-8422640D01*
X17739360Y-8382000D02*
X17820640Y-8382000D01*
X17780000Y-9865360D02*
X17780000Y-9946640D01*
X17739360Y-9906000D02*
X17820640Y-9906000D01*
X18034000Y-8341360D02*
X18034000Y-8422640D01*
X17993360Y-8382000D02*
X18074640Y-8382000D01*
X18034000Y-9865360D02*
X18034000Y-9946640D01*
X17993360Y-9906000D02*
X18074640Y-9906000D01*
X18288000Y-8341360D02*
X18288000Y-8422640D01*
X18247360Y-8382000D02*
X18328640Y-8382000D01*
X18288000Y-9865360D02*
X18288000Y-9946640D01*
X18247360Y-9906000D02*
X18328640Y-9906000D01*
X18542000Y-8341360D02*
X18542000Y-8422640D01*
X18501360Y-8382000D02*
X18582640Y-8382000D01*
X18542000Y-9865360D02*
X18542000Y-9946640D01*
X18501360Y-9906000D02*
X18582640Y-9906000D01*
X18796000Y-6499860D02*
X18796000Y-6581140D01*
X18755360Y-6540500D02*
X18836640Y-6540500D01*
X18796000Y-7261860D02*
X18796000Y-7343140D01*
X18755360Y-7302500D02*
X18836640Y-7302500D01*
X18796000Y-8341360D02*
X18796000Y-8422640D01*
X18755360Y-8382000D02*
X18836640Y-8382000D01*
X18796000Y-9865360D02*
X18796000Y-9946640D01*
X18755360Y-9906000D02*
X18836640Y-9906000D01*
X19050000Y-6499860D02*
X19050000Y-6581140D01*
X19009360Y-6540500D02*
X19090640Y-6540500D01*
X19050000Y-7261860D02*
X19050000Y-7343140D01*
X19009360Y-7302500D02*
X19090640Y-7302500D01*
X19050000Y-8341360D02*
X19050000Y-8422640D01*
X19009360Y-8382000D02*
X19090640Y-8382000D01*
X19050000Y-9865360D02*
X19050000Y-9946640D01*
X19009360Y-9906000D02*
X19090640Y-9906000D01*
X19304000Y-6499860D02*
X19304000Y-6581140D01*
X19263360Y-6540500D02*
X19344640Y-6540500D01*
X19304000Y-7261860D02*
X19304000Y-7343140D01*
X19263360Y-7302500D02*
X19344640Y-7302500D01*
X19304000Y-8341360D02*
X19304000Y-8422640D01*
X19263360Y-8382000D02*
X19344640Y-8382000D01*
X19304000Y-9865360D02*
X19304000Y-9946640D01*
X19263360Y-9906000D02*
X19344640Y-9906000D01*
X19558000Y-6499860D02*
X19558000Y-6581140D01*
X19517360Y-6540500D02*
X19598640Y-6540500D01*
X19558000Y-7261860D02*
X19558000Y-7343140D01*
X19517360Y-7302500D02*
X19598640Y-7302500D01*
X19558000Y-8341360D02*
X19558000Y-8422640D01*
X19517360Y-8382000D02*
X19598640Y-8382000D01*
X19558000Y-9865360D02*
X19558000Y-9946640D01*
X19517360Y-9906000D02*
X19598640Y-9906000D01*
X19812000Y-6499860D02*
X19812000Y-6581140D01*
X19771360Y-6540500D02*
X19852640Y-6540500D01*
X19812000Y-7261860D02*
X19812000Y-7343140D01*
X19771360Y-7302500D02*
X19852640Y-7302500D01*
X19812000Y-8341360D02*
X19812000Y-8422640D01*
X19771360Y-8382000D02*
X19852640Y-8382000D01*
X19812000Y-9865360D02*
X19812000Y-9946640D01*
X19771360Y-9906000D02*
X19852640Y-9906000D01*
X20066000Y-5318760D02*
X20066000Y-5400040D01*
X20025360Y-5359400D02*
X20106640Y-5359400D01*
X20066000Y-6080760D02*
X20066000Y-6162040D01*
X20025360Y-6121400D02*
X20106640Y-6121400D01*
X20066000Y-6499860D02*
X20066000Y-6581140D01*
X20025360Y-6540500D02*
X20106640Y-6540500D01*
X20066000Y-7261860D02*
X20066000Y-7343140D01*
X20025360Y-7302500D02*
X20106640Y-7302500D01*
X20066000Y-8341360D02*
X20066000Y-8422640D01*
X20025360Y-8382000D02*
X20106640Y-8382000D01*
X20066000Y-9865360D02*
X20066000Y-9946640D01*
X20025360Y-9906000D02*
X20106640Y-9906000D01*
X20320000Y-6499860D02*
X20320000Y-6581140D01*
X20279360Y-6540500D02*
X20360640Y-6540500D01*
X20320000Y-7261860D02*
X20320000Y-7343140D01*
X20279360Y-7302500D02*
X20360640Y-7302500D01*
X20320000Y-8341360D02*
X20320000Y-8422640D01*
X20279360Y-8382000D02*
X20360640Y-8382000D01*
X20320000Y-9865360D02*
X20320000Y-9946640D01*
X20279360Y-9906000D02*
X20360640Y-9906000D01*
X20764500Y-7007860D02*
X20764500Y-7089140D01*
X20723860Y-7048500D02*
X20805140Y-7048500D01*
X20764500Y-7261860D02*
X20764500Y-7343140D01*
X20723860Y-7302500D02*
X20805140Y-7302500D01*
X20777200Y-9611360D02*
X20777200Y-9692640D01*
X20736560Y-9652000D02*
X20817840Y-9652000D01*
X20777200Y-9865360D02*
X20777200Y-9946640D01*
X20736560Y-9906000D02*
X20817840Y-9906000D01*
X7854990Y-8760246D02*
X7854990Y-8696666D01*
X7791410Y-8696666D01*
X7791410Y-8760246D01*
X7854990Y-8760246D01*
X7854990Y-9037360D02*
X7854990Y-8973780D01*
X7791410Y-8973780D01*
X7791410Y-9037360D01*
X7854990Y-9037360D01*
X7854990Y-9314220D02*
X7854990Y-9250640D01*
X7791410Y-9250640D01*
X7791410Y-9314220D01*
X7854990Y-9314220D01*
X7854990Y-9591334D02*
X7854990Y-9527754D01*
X7791410Y-9527754D01*
X7791410Y-9591334D01*
X7854990Y-9591334D01*
X8108990Y-8621816D02*
X8108990Y-8558236D01*
X8045410Y-8558236D01*
X8045410Y-8621816D01*
X8108990Y-8621816D01*
X8108990Y-8898676D02*
X8108990Y-8835096D01*
X8045410Y-8835096D01*
X8045410Y-8898676D01*
X8108990Y-8898676D01*
X8108990Y-9175790D02*
X8108990Y-9112210D01*
X8045410Y-9112210D01*
X8045410Y-9175790D01*
X8108990Y-9175790D01*
X8108990Y-9452904D02*
X8108990Y-9389324D01*
X8045410Y-9389324D01*
X8045410Y-9452904D01*
X8108990Y-9452904D01*
X8108990Y-9729764D02*
X8108990Y-9666184D01*
X8045410Y-9666184D01*
X8045410Y-9729764D01*
X8108990Y-9729764D01*
X16510000Y-6590538D02*
X16560038Y-6540500D01*
X16510000Y-6490462D01*
X16459962Y-6540500D01*
X16510000Y-6590538D01*
X16510000Y-7352538D02*
X16560038Y-7302500D01*
X16510000Y-7252462D01*
X16459962Y-7302500D01*
X16510000Y-7352538D01*
X18034000Y-6590538D02*
X18084038Y-6540500D01*
X18034000Y-6490462D01*
X17983962Y-6540500D01*
X18034000Y-6590538D01*
X18034000Y-7352538D02*
X18084038Y-7302500D01*
X18034000Y-7252462D01*
X17983962Y-7302500D01*
X18034000Y-7352538D01*
X21475700Y-6489700D02*
X21577300Y-6591300D01*
X21577300Y-6489700D02*
X21475700Y-6591300D01*
X21577300Y-6540500D02*
G75*
G03X21577300Y-6540500I-50800J0D01*
G01*
X21475700Y-6743700D02*
X21577300Y-6845300D01*
X21577300Y-6743700D02*
X21475700Y-6845300D01*
X21577300Y-6794500D02*
G75*
G03X21577300Y-6794500I-50800J0D01*
G01*
X21475700Y-6997700D02*
X21577300Y-7099300D01*
X21577300Y-6997700D02*
X21475700Y-7099300D01*
X21577300Y-7048500D02*
G75*
G03X21577300Y-7048500I-50800J0D01*
G01*
X21475700Y-7251700D02*
X21577300Y-7353300D01*
X21577300Y-7251700D02*
X21475700Y-7353300D01*
X21577300Y-7302500D02*
G75*
G03X21577300Y-7302500I-50800J0D01*
G01*
X21475700Y-7505700D02*
X21577300Y-7607300D01*
X21577300Y-7505700D02*
X21475700Y-7607300D01*
X21577300Y-7556500D02*
G75*
G03X21577300Y-7556500I-50800J0D01*
G01*
X21475700Y-7759700D02*
X21577300Y-7861300D01*
X21577300Y-7759700D02*
X21475700Y-7861300D01*
X21577300Y-7810500D02*
G75*
G03X21577300Y-7810500I-50800J0D01*
G01*
X21475700Y-8013700D02*
X21577300Y-8115300D01*
X21577300Y-8013700D02*
X21475700Y-8115300D01*
X21577300Y-8064500D02*
G75*
G03X21577300Y-8064500I-50800J0D01*
G01*
X21475700Y-8267700D02*
X21577300Y-8369300D01*
X21577300Y-8267700D02*
X21475700Y-8369300D01*
X21577300Y-8318500D02*
G75*
G03X21577300Y-8318500I-50800J0D01*
G01*
X21475700Y-8521700D02*
X21577300Y-8623300D01*
X21577300Y-8521700D02*
X21475700Y-8623300D01*
X21577300Y-8572500D02*
G75*
G03X21577300Y-8572500I-50800J0D01*
G01*
X21475700Y-8775700D02*
X21577300Y-8877300D01*
X21577300Y-8775700D02*
X21475700Y-8877300D01*
X21577300Y-8826500D02*
G75*
G03X21577300Y-8826500I-50800J0D01*
G01*
X21475700Y-9029700D02*
X21577300Y-9131300D01*
X21577300Y-9029700D02*
X21475700Y-9131300D01*
X21577300Y-9080500D02*
G75*
G03X21577300Y-9080500I-50800J0D01*
G01*
X21475700Y-9283700D02*
X21577300Y-9385300D01*
X21577300Y-9283700D02*
X21475700Y-9385300D01*
X21577300Y-9334500D02*
G75*
G03X21577300Y-9334500I-50800J0D01*
G01*
X21475700Y-9537700D02*
X21577300Y-9639300D01*
X21577300Y-9537700D02*
X21475700Y-9639300D01*
X21577300Y-9588500D02*
G75*
G03X21577300Y-9588500I-50800J0D01*
G01*
X21475700Y-9791700D02*
X21577300Y-9893300D01*
X21577300Y-9791700D02*
X21475700Y-9893300D01*
X21577300Y-9842500D02*
G75*
G03X21577300Y-9842500I-50800J0D01*
G01*
X21475700Y-10045700D02*
X21577300Y-10147300D01*
X21577300Y-10045700D02*
X21475700Y-10147300D01*
X21577300Y-10096500D02*
G75*
G03X21577300Y-10096500I-50800J0D01*
G01*
X21475700Y-10299700D02*
X21577300Y-10401300D01*
X21577300Y-10299700D02*
X21475700Y-10401300D01*
X21577300Y-10350500D02*
G75*
G03X21577300Y-10350500I-50800J0D01*
G01*
X21475700Y-10553700D02*
X21577300Y-10655300D01*
X21577300Y-10553700D02*
X21475700Y-10655300D01*
X21577300Y-10604500D02*
G75*
G03X21577300Y-10604500I-50800J0D01*
G01*
X21475700Y-10807700D02*
X21577300Y-10909300D01*
X21577300Y-10807700D02*
X21475700Y-10909300D01*
X21577300Y-10858500D02*
G75*
G03X21577300Y-10858500I-50800J0D01*
G01*
X21475700Y-11061700D02*
X21577300Y-11163300D01*
X21577300Y-11061700D02*
X21475700Y-11163300D01*
X21577300Y-11112500D02*
G75*
G03X21577300Y-11112500I-50800J0D01*
G01*
X21475700Y-11315700D02*
X21577300Y-11417300D01*
X21577300Y-11315700D02*
X21475700Y-11417300D01*
X21577300Y-11366500D02*
G75*
G03X21577300Y-11366500I-50800J0D01*
G01*
X21475700Y-11569700D02*
X21577300Y-11671300D01*
X21577300Y-11569700D02*
X21475700Y-11671300D01*
X21577300Y-11620500D02*
G75*
G03X21577300Y-11620500I-50800J0D01*
G01*
X21475700Y-11823700D02*
X21577300Y-11925300D01*
X21577300Y-11823700D02*
X21475700Y-11925300D01*
X21577300Y-11874500D02*
G75*
G03X21577300Y-11874500I-50800J0D01*
G01*
X21475700Y-12077700D02*
X21577300Y-12179300D01*
X21577300Y-12077700D02*
X21475700Y-12179300D01*
X21577300Y-12128500D02*
G75*
G03X21577300Y-12128500I-50800J0D01*
G01*
X21475700Y-12331700D02*
X21577300Y-12433300D01*
X21577300Y-12331700D02*
X21475700Y-12433300D01*
X21577300Y-12382500D02*
G75*
G03X21577300Y-12382500I-50800J0D01*
G01*
X21475700Y-12585700D02*
X21577300Y-12687300D01*
X21577300Y-12585700D02*
X21475700Y-12687300D01*
X21577300Y-12636500D02*
G75*
G03X21577300Y-12636500I-50800J0D01*
G01*
X21729700Y-6489700D02*
X21831300Y-6591300D01*
X21831300Y-6489700D02*
X21729700Y-6591300D01*
X21831300Y-6540500D02*
G75*
G03X21831300Y-6540500I-50800J0D01*
G01*
X21729700Y-6743700D02*
X21831300Y-6845300D01*
X21831300Y-6743700D02*
X21729700Y-6845300D01*
X21831300Y-6794500D02*
G75*
G03X21831300Y-6794500I-50800J0D01*
G01*
X21729700Y-6997700D02*
X21831300Y-7099300D01*
X21831300Y-6997700D02*
X21729700Y-7099300D01*
X21831300Y-7048500D02*
G75*
G03X21831300Y-7048500I-50800J0D01*
G01*
X21729700Y-7251700D02*
X21831300Y-7353300D01*
X21831300Y-7251700D02*
X21729700Y-7353300D01*
X21831300Y-7302500D02*
G75*
G03X21831300Y-7302500I-50800J0D01*
G01*
X21729700Y-7505700D02*
X21831300Y-7607300D01*
X21831300Y-7505700D02*
X21729700Y-7607300D01*
X21831300Y-7556500D02*
G75*
G03X21831300Y-7556500I-50800J0D01*
G01*
X21729700Y-7759700D02*
X21831300Y-7861300D01*
X21831300Y-7759700D02*
X21729700Y-7861300D01*
X21831300Y-7810500D02*
G75*
G03X21831300Y-7810500I-50800J0D01*
G01*
X21729700Y-8013700D02*
X21831300Y-8115300D01*
X21831300Y-8013700D02*
X21729700Y-8115300D01*
X21831300Y-8064500D02*
G75*
G03X21831300Y-8064500I-50800J0D01*
G01*
X21729700Y-8267700D02*
X21831300Y-8369300D01*
X21831300Y-8267700D02*
X21729700Y-8369300D01*
X21831300Y-8318500D02*
G75*
G03X21831300Y-8318500I-50800J0D01*
G01*
X21729700Y-8521700D02*
X21831300Y-8623300D01*
X21831300Y-8521700D02*
X21729700Y-8623300D01*
X21831300Y-8572500D02*
G75*
G03X21831300Y-8572500I-50800J0D01*
G01*
X21729700Y-8775700D02*
X21831300Y-8877300D01*
X21831300Y-8775700D02*
X21729700Y-8877300D01*
X21831300Y-8826500D02*
G75*
G03X21831300Y-8826500I-50800J0D01*
G01*
X21729700Y-9029700D02*
X21831300Y-9131300D01*
X21831300Y-9029700D02*
X21729700Y-9131300D01*
X21831300Y-9080500D02*
G75*
G03X21831300Y-9080500I-50800J0D01*
G01*
X21729700Y-9283700D02*
X21831300Y-9385300D01*
X21831300Y-9283700D02*
X21729700Y-9385300D01*
X21831300Y-9334500D02*
G75*
G03X21831300Y-9334500I-50800J0D01*
G01*
X21729700Y-9537700D02*
X21831300Y-9639300D01*
X21831300Y-9537700D02*
X21729700Y-9639300D01*
X21831300Y-9588500D02*
G75*
G03X21831300Y-9588500I-50800J0D01*
G01*
X21729700Y-9791700D02*
X21831300Y-9893300D01*
X21831300Y-9791700D02*
X21729700Y-9893300D01*
X21831300Y-9842500D02*
G75*
G03X21831300Y-9842500I-50800J0D01*
G01*
X21729700Y-10045700D02*
X21831300Y-10147300D01*
X21831300Y-10045700D02*
X21729700Y-10147300D01*
X21831300Y-10096500D02*
G75*
G03X21831300Y-10096500I-50800J0D01*
G01*
X21729700Y-10299700D02*
X21831300Y-10401300D01*
X21831300Y-10299700D02*
X21729700Y-10401300D01*
X21831300Y-10350500D02*
G75*
G03X21831300Y-10350500I-50800J0D01*
G01*
X21729700Y-10553700D02*
X21831300Y-10655300D01*
X21831300Y-10553700D02*
X21729700Y-10655300D01*
X21831300Y-10604500D02*
G75*
G03X21831300Y-10604500I-50800J0D01*
G01*
X21729700Y-10807700D02*
X21831300Y-10909300D01*
X21831300Y-10807700D02*
X21729700Y-10909300D01*
X21831300Y-10858500D02*
G75*
G03X21831300Y-10858500I-50800J0D01*
G01*
X21729700Y-11061700D02*
X21831300Y-11163300D01*
X21831300Y-11061700D02*
X21729700Y-11163300D01*
X21831300Y-11112500D02*
G75*
G03X21831300Y-11112500I-50800J0D01*
G01*
X21729700Y-11315700D02*
X21831300Y-11417300D01*
X21831300Y-11315700D02*
X21729700Y-11417300D01*
X21831300Y-11366500D02*
G75*
G03X21831300Y-11366500I-50800J0D01*
G01*
X21729700Y-11569700D02*
X21831300Y-11671300D01*
X21831300Y-11569700D02*
X21729700Y-11671300D01*
X21831300Y-11620500D02*
G75*
G03X21831300Y-11620500I-50800J0D01*
G01*
X21729700Y-11823700D02*
X21831300Y-11925300D01*
X21831300Y-11823700D02*
X21729700Y-11925300D01*
X21831300Y-11874500D02*
G75*
G03X21831300Y-11874500I-50800J0D01*
G01*
X21729700Y-12077700D02*
X21831300Y-12179300D01*
X21831300Y-12077700D02*
X21729700Y-12179300D01*
X21831300Y-12128500D02*
G75*
G03X21831300Y-12128500I-50800J0D01*
G01*
X21729700Y-12331700D02*
X21831300Y-12433300D01*
X21831300Y-12331700D02*
X21729700Y-12433300D01*
X21831300Y-12382500D02*
G75*
G03X21831300Y-12382500I-50800J0D01*
G01*
X21729700Y-12585700D02*
X21831300Y-12687300D01*
X21831300Y-12585700D02*
X21729700Y-12687300D01*
X21831300Y-12636500D02*
G75*
G03X21831300Y-12636500I-50800J0D01*
G01*
X6708013Y-5133213D02*
X7007987Y-5433187D01*
X7007987Y-5133213D02*
X6708013Y-5433187D01*
X6858000Y-5133213D02*
X6858000Y-5433187D01*
X6708013Y-5283200D02*
X7007987Y-5283200D01*
X6708013Y-13743813D02*
X7007987Y-14043787D01*
X7007987Y-13743813D02*
X6708013Y-14043787D01*
X6858000Y-13743813D02*
X6858000Y-14043787D01*
X6708013Y-13893800D02*
X7007987Y-13893800D01*
X21414613Y-5107813D02*
X21714587Y-5407787D01*
X21714587Y-5107813D02*
X21414613Y-5407787D01*
X21564600Y-5107813D02*
X21564600Y-5407787D01*
X21414613Y-5257800D02*
X21714587Y-5257800D01*
X21414613Y-13743813D02*
X21714587Y-14043787D01*
X21714587Y-13743813D02*
X21414613Y-14043787D01*
X21564600Y-13743813D02*
X21564600Y-14043787D01*
X21414613Y-13893800D02*
X21714587Y-13893800D01*
X7790180Y-7734554D02*
X8110220Y-8054594D01*
X8110220Y-7734554D02*
X7790180Y-8054594D01*
X8063352Y-8007726D02*
X8063352Y-7781422D01*
X7837048Y-7781422D01*
X7837048Y-8007726D01*
X8063352Y-8007726D01*
X7790180Y-10233406D02*
X8110220Y-10553446D01*
X8110220Y-10233406D02*
X7790180Y-10553446D01*
X8063352Y-10506578D02*
X8063352Y-10280274D01*
X7837048Y-10280274D01*
X7837048Y-10506578D01*
X8063352Y-10506578D01*
D13*
X6489428Y-15075714D02*
X6489428Y-14775714D01*
X6560857Y-14775714D01*
X6603714Y-14790000D01*
X6632286Y-14818571D01*
X6646571Y-14847143D01*
X6660857Y-14904286D01*
X6660857Y-14947143D01*
X6646571Y-15004286D01*
X6632286Y-15032857D01*
X6603714Y-15061429D01*
X6560857Y-15075714D01*
X6489428Y-15075714D01*
X6789428Y-15075714D02*
X6789428Y-14875714D01*
X6789428Y-14932857D02*
X6803714Y-14904286D01*
X6818000Y-14890000D01*
X6846571Y-14875714D01*
X6875143Y-14875714D01*
X6975143Y-15075714D02*
X6975143Y-14875714D01*
X6975143Y-14775714D02*
X6960857Y-14790000D01*
X6975143Y-14804286D01*
X6989428Y-14790000D01*
X6975143Y-14775714D01*
X6975143Y-14804286D01*
X7160857Y-15075714D02*
X7132286Y-15061429D01*
X7118000Y-15032857D01*
X7118000Y-14775714D01*
X7318000Y-15075714D02*
X7289428Y-15061429D01*
X7275143Y-15032857D01*
X7275143Y-14775714D01*
X7660857Y-15075714D02*
X7660857Y-14775714D01*
X7760857Y-14990000D01*
X7860857Y-14775714D01*
X7860857Y-15075714D01*
X8132286Y-15075714D02*
X8132286Y-14918571D01*
X8118000Y-14890000D01*
X8089428Y-14875714D01*
X8032286Y-14875714D01*
X8003714Y-14890000D01*
X8132286Y-15061429D02*
X8103714Y-15075714D01*
X8032286Y-15075714D01*
X8003714Y-15061429D01*
X7989428Y-15032857D01*
X7989428Y-15004286D01*
X8003714Y-14975714D01*
X8032286Y-14961429D01*
X8103714Y-14961429D01*
X8132286Y-14947143D01*
X8275143Y-14875714D02*
X8275143Y-15175714D01*
X8275143Y-14890000D02*
X8303714Y-14875714D01*
X8360857Y-14875714D01*
X8389429Y-14890000D01*
X8403714Y-14904286D01*
X8418000Y-14932857D01*
X8418000Y-15018571D01*
X8403714Y-15047143D01*
X8389429Y-15061429D01*
X8360857Y-15075714D01*
X8303714Y-15075714D01*
X8275143Y-15061429D01*
X8546571Y-15047143D02*
X8560857Y-15061429D01*
X8546571Y-15075714D01*
X8532286Y-15061429D01*
X8546571Y-15047143D01*
X8546571Y-15075714D01*
X8546571Y-14890000D02*
X8560857Y-14904286D01*
X8546571Y-14918571D01*
X8532286Y-14904286D01*
X8546571Y-14890000D01*
X8546571Y-14918571D01*
X6154500Y-15538250D02*
X6218000Y-15601750D01*
X6218000Y-15538250D02*
X6154500Y-15601750D01*
X6546571Y-15405714D02*
X6575143Y-15405714D01*
X6603714Y-15420000D01*
X6618000Y-15434286D01*
X6632286Y-15462857D01*
X6646571Y-15520000D01*
X6646571Y-15591429D01*
X6632286Y-15648571D01*
X6618000Y-15677143D01*
X6603714Y-15691429D01*
X6575143Y-15705714D01*
X6546571Y-15705714D01*
X6518000Y-15691429D01*
X6503714Y-15677143D01*
X6489428Y-15648571D01*
X6475143Y-15591429D01*
X6475143Y-15520000D01*
X6489428Y-15462857D01*
X6503714Y-15434286D01*
X6518000Y-15420000D01*
X6546571Y-15405714D01*
X6775143Y-15677143D02*
X6789428Y-15691429D01*
X6775143Y-15705714D01*
X6760857Y-15691429D01*
X6775143Y-15677143D01*
X6775143Y-15705714D01*
X7046571Y-15405714D02*
X6989428Y-15405714D01*
X6960857Y-15420000D01*
X6946571Y-15434286D01*
X6918000Y-15477143D01*
X6903714Y-15534286D01*
X6903714Y-15648571D01*
X6918000Y-15677143D01*
X6932286Y-15691429D01*
X6960857Y-15705714D01*
X7018000Y-15705714D01*
X7046571Y-15691429D01*
X7060857Y-15677143D01*
X7075143Y-15648571D01*
X7075143Y-15577143D01*
X7060857Y-15548571D01*
X7046571Y-15534286D01*
X7018000Y-15520000D01*
X6960857Y-15520000D01*
X6932286Y-15534286D01*
X6918000Y-15548571D01*
X6903714Y-15577143D01*
X7332286Y-15505714D02*
X7332286Y-15705714D01*
X7260857Y-15391429D02*
X7189428Y-15605714D01*
X7375143Y-15605714D01*
X7489428Y-15705714D02*
X7489428Y-15505714D01*
X7489428Y-15534286D02*
X7503714Y-15520000D01*
X7532286Y-15505714D01*
X7575143Y-15505714D01*
X7603714Y-15520000D01*
X7618000Y-15548571D01*
X7618000Y-15705714D01*
X7618000Y-15548571D02*
X7632286Y-15520000D01*
X7660857Y-15505714D01*
X7703714Y-15505714D01*
X7732286Y-15520000D01*
X7746571Y-15548571D01*
X7746571Y-15705714D01*
X7889428Y-15705714D02*
X7889428Y-15505714D01*
X7889428Y-15534286D02*
X7903714Y-15520000D01*
X7932286Y-15505714D01*
X7975143Y-15505714D01*
X8003714Y-15520000D01*
X8018000Y-15548571D01*
X8018000Y-15705714D01*
X8018000Y-15548571D02*
X8032286Y-15520000D01*
X8060857Y-15505714D01*
X8103714Y-15505714D01*
X8132286Y-15520000D01*
X8146571Y-15548571D01*
X8146571Y-15705714D01*
X8732286Y-15391429D02*
X8475143Y-15777143D01*
X9118000Y-15405714D02*
X9146571Y-15405714D01*
X9175143Y-15420000D01*
X9189428Y-15434286D01*
X9203714Y-15462857D01*
X9218000Y-15520000D01*
X9218000Y-15591429D01*
X9203714Y-15648571D01*
X9189428Y-15677143D01*
X9175143Y-15691429D01*
X9146571Y-15705714D01*
X9118000Y-15705714D01*
X9089428Y-15691429D01*
X9075143Y-15677143D01*
X9060857Y-15648571D01*
X9046571Y-15591429D01*
X9046571Y-15520000D01*
X9060857Y-15462857D01*
X9075143Y-15434286D01*
X9089428Y-15420000D01*
X9118000Y-15405714D01*
X9346571Y-15677143D02*
X9360857Y-15691429D01*
X9346571Y-15705714D01*
X9332286Y-15691429D01*
X9346571Y-15677143D01*
X9346571Y-15705714D01*
X9546571Y-15405714D02*
X9575143Y-15405714D01*
X9603714Y-15420000D01*
X9618000Y-15434286D01*
X9632286Y-15462857D01*
X9646571Y-15520000D01*
X9646571Y-15591429D01*
X9632286Y-15648571D01*
X9618000Y-15677143D01*
X9603714Y-15691429D01*
X9575143Y-15705714D01*
X9546571Y-15705714D01*
X9518000Y-15691429D01*
X9503714Y-15677143D01*
X9489428Y-15648571D01*
X9475143Y-15591429D01*
X9475143Y-15520000D01*
X9489428Y-15462857D01*
X9503714Y-15434286D01*
X9518000Y-15420000D01*
X9546571Y-15405714D01*
X9760857Y-15434286D02*
X9775143Y-15420000D01*
X9803714Y-15405714D01*
X9875143Y-15405714D01*
X9903714Y-15420000D01*
X9918000Y-15434286D01*
X9932286Y-15462857D01*
X9932286Y-15491429D01*
X9918000Y-15534286D01*
X9746571Y-15705714D01*
X9932286Y-15705714D01*
X10203714Y-15405714D02*
X10060857Y-15405714D01*
X10046571Y-15548571D01*
X10060857Y-15534286D01*
X10089428Y-15520000D01*
X10160857Y-15520000D01*
X10189428Y-15534286D01*
X10203714Y-15548571D01*
X10218000Y-15577143D01*
X10218000Y-15648571D01*
X10203714Y-15677143D01*
X10189428Y-15691429D01*
X10160857Y-15705714D01*
X10089428Y-15705714D01*
X10060857Y-15691429D01*
X10046571Y-15677143D01*
X10332286Y-15405714D02*
X10332286Y-15462857D01*
X10446571Y-15405714D02*
X10446571Y-15462857D01*
X10889428Y-15820000D02*
X10875143Y-15805714D01*
X10846571Y-15762857D01*
X10832286Y-15734286D01*
X10818000Y-15691429D01*
X10803714Y-15620000D01*
X10803714Y-15562857D01*
X10818000Y-15491429D01*
X10832286Y-15448571D01*
X10846571Y-15420000D01*
X10875143Y-15377143D01*
X10889428Y-15362857D01*
X10975143Y-15405714D02*
X11160857Y-15405714D01*
X11060857Y-15520000D01*
X11103714Y-15520000D01*
X11132286Y-15534286D01*
X11146571Y-15548571D01*
X11160857Y-15577143D01*
X11160857Y-15648571D01*
X11146571Y-15677143D01*
X11132286Y-15691429D01*
X11103714Y-15705714D01*
X11018000Y-15705714D01*
X10989428Y-15691429D01*
X10975143Y-15677143D01*
X11518000Y-15705714D02*
X11518000Y-15405714D01*
X11646571Y-15705714D02*
X11646571Y-15548571D01*
X11632285Y-15520000D01*
X11603714Y-15505714D01*
X11560857Y-15505714D01*
X11532285Y-15520000D01*
X11518000Y-15534286D01*
X11832285Y-15705714D02*
X11803714Y-15691429D01*
X11789428Y-15677143D01*
X11775143Y-15648571D01*
X11775143Y-15562857D01*
X11789428Y-15534286D01*
X11803714Y-15520000D01*
X11832285Y-15505714D01*
X11875143Y-15505714D01*
X11903714Y-15520000D01*
X11918000Y-15534286D01*
X11932285Y-15562857D01*
X11932285Y-15648571D01*
X11918000Y-15677143D01*
X11903714Y-15691429D01*
X11875143Y-15705714D01*
X11832285Y-15705714D01*
X12103714Y-15705714D02*
X12075143Y-15691429D01*
X12060857Y-15662857D01*
X12060857Y-15405714D01*
X12332286Y-15691429D02*
X12303714Y-15705714D01*
X12246571Y-15705714D01*
X12218000Y-15691429D01*
X12203714Y-15662857D01*
X12203714Y-15548571D01*
X12218000Y-15520000D01*
X12246571Y-15505714D01*
X12303714Y-15505714D01*
X12332286Y-15520000D01*
X12346571Y-15548571D01*
X12346571Y-15577143D01*
X12203714Y-15605714D01*
X12460857Y-15691429D02*
X12489428Y-15705714D01*
X12546571Y-15705714D01*
X12575143Y-15691429D01*
X12589428Y-15662857D01*
X12589428Y-15648571D01*
X12575143Y-15620000D01*
X12546571Y-15605714D01*
X12503714Y-15605714D01*
X12475143Y-15591429D01*
X12460857Y-15562857D01*
X12460857Y-15548571D01*
X12475143Y-15520000D01*
X12503714Y-15505714D01*
X12546571Y-15505714D01*
X12575143Y-15520000D01*
X12689428Y-15820000D02*
X12703714Y-15805714D01*
X12732286Y-15762857D01*
X12746571Y-15734286D01*
X12760857Y-15691429D01*
X12775143Y-15620000D01*
X12775143Y-15562857D01*
X12760857Y-15491429D01*
X12746571Y-15448571D01*
X12732286Y-15420000D01*
X12703714Y-15377143D01*
X12689428Y-15362857D01*
X6218000Y-15966000D02*
G75*
G03X6218000Y-15966000I-40005J0D01*
G01*
X6546571Y-15801714D02*
X6575143Y-15801714D01*
X6603714Y-15816000D01*
X6618000Y-15830286D01*
X6632286Y-15858857D01*
X6646571Y-15916000D01*
X6646571Y-15987429D01*
X6632286Y-16044571D01*
X6618000Y-16073143D01*
X6603714Y-16087429D01*
X6575143Y-16101714D01*
X6546571Y-16101714D01*
X6518000Y-16087429D01*
X6503714Y-16073143D01*
X6489428Y-16044571D01*
X6475143Y-15987429D01*
X6475143Y-15916000D01*
X6489428Y-15858857D01*
X6503714Y-15830286D01*
X6518000Y-15816000D01*
X6546571Y-15801714D01*
X6775143Y-16073143D02*
X6789428Y-16087429D01*
X6775143Y-16101714D01*
X6760857Y-16087429D01*
X6775143Y-16073143D01*
X6775143Y-16101714D01*
X6960857Y-15930286D02*
X6932286Y-15916000D01*
X6918000Y-15901714D01*
X6903714Y-15873143D01*
X6903714Y-15858857D01*
X6918000Y-15830286D01*
X6932286Y-15816000D01*
X6960857Y-15801714D01*
X7018000Y-15801714D01*
X7046571Y-15816000D01*
X7060857Y-15830286D01*
X7075143Y-15858857D01*
X7075143Y-15873143D01*
X7060857Y-15901714D01*
X7046571Y-15916000D01*
X7018000Y-15930286D01*
X6960857Y-15930286D01*
X6932286Y-15944571D01*
X6918000Y-15958857D01*
X6903714Y-15987429D01*
X6903714Y-16044571D01*
X6918000Y-16073143D01*
X6932286Y-16087429D01*
X6960857Y-16101714D01*
X7018000Y-16101714D01*
X7046571Y-16087429D01*
X7060857Y-16073143D01*
X7075143Y-16044571D01*
X7075143Y-15987429D01*
X7060857Y-15958857D01*
X7046571Y-15944571D01*
X7018000Y-15930286D01*
X7260857Y-15801714D02*
X7289428Y-15801714D01*
X7318000Y-15816000D01*
X7332286Y-15830286D01*
X7346571Y-15858857D01*
X7360857Y-15916000D01*
X7360857Y-15987429D01*
X7346571Y-16044571D01*
X7332286Y-16073143D01*
X7318000Y-16087429D01*
X7289428Y-16101714D01*
X7260857Y-16101714D01*
X7232286Y-16087429D01*
X7218000Y-16073143D01*
X7203714Y-16044571D01*
X7189428Y-15987429D01*
X7189428Y-15916000D01*
X7203714Y-15858857D01*
X7218000Y-15830286D01*
X7232286Y-15816000D01*
X7260857Y-15801714D01*
X7489428Y-16101714D02*
X7489428Y-15901714D01*
X7489428Y-15930286D02*
X7503714Y-15916000D01*
X7532286Y-15901714D01*
X7575143Y-15901714D01*
X7603714Y-15916000D01*
X7618000Y-15944571D01*
X7618000Y-16101714D01*
X7618000Y-15944571D02*
X7632286Y-15916000D01*
X7660857Y-15901714D01*
X7703714Y-15901714D01*
X7732286Y-15916000D01*
X7746571Y-15944571D01*
X7746571Y-16101714D01*
X7889428Y-16101714D02*
X7889428Y-15901714D01*
X7889428Y-15930286D02*
X7903714Y-15916000D01*
X7932286Y-15901714D01*
X7975143Y-15901714D01*
X8003714Y-15916000D01*
X8018000Y-15944571D01*
X8018000Y-16101714D01*
X8018000Y-15944571D02*
X8032286Y-15916000D01*
X8060857Y-15901714D01*
X8103714Y-15901714D01*
X8132286Y-15916000D01*
X8146571Y-15944571D01*
X8146571Y-16101714D01*
X8732286Y-15787429D02*
X8475143Y-16173143D01*
X9118000Y-15801714D02*
X9146571Y-15801714D01*
X9175143Y-15816000D01*
X9189428Y-15830286D01*
X9203714Y-15858857D01*
X9218000Y-15916000D01*
X9218000Y-15987429D01*
X9203714Y-16044571D01*
X9189428Y-16073143D01*
X9175143Y-16087429D01*
X9146571Y-16101714D01*
X9118000Y-16101714D01*
X9089428Y-16087429D01*
X9075143Y-16073143D01*
X9060857Y-16044571D01*
X9046571Y-15987429D01*
X9046571Y-15916000D01*
X9060857Y-15858857D01*
X9075143Y-15830286D01*
X9089428Y-15816000D01*
X9118000Y-15801714D01*
X9346571Y-16073143D02*
X9360857Y-16087429D01*
X9346571Y-16101714D01*
X9332286Y-16087429D01*
X9346571Y-16073143D01*
X9346571Y-16101714D01*
X9546571Y-15801714D02*
X9575143Y-15801714D01*
X9603714Y-15816000D01*
X9618000Y-15830286D01*
X9632286Y-15858857D01*
X9646571Y-15916000D01*
X9646571Y-15987429D01*
X9632286Y-16044571D01*
X9618000Y-16073143D01*
X9603714Y-16087429D01*
X9575143Y-16101714D01*
X9546571Y-16101714D01*
X9518000Y-16087429D01*
X9503714Y-16073143D01*
X9489428Y-16044571D01*
X9475143Y-15987429D01*
X9475143Y-15916000D01*
X9489428Y-15858857D01*
X9503714Y-15830286D01*
X9518000Y-15816000D01*
X9546571Y-15801714D01*
X9746571Y-15801714D02*
X9932286Y-15801714D01*
X9832286Y-15916000D01*
X9875143Y-15916000D01*
X9903714Y-15930286D01*
X9918000Y-15944571D01*
X9932286Y-15973143D01*
X9932286Y-16044571D01*
X9918000Y-16073143D01*
X9903714Y-16087429D01*
X9875143Y-16101714D01*
X9789428Y-16101714D01*
X9760857Y-16087429D01*
X9746571Y-16073143D01*
X10046571Y-15830286D02*
X10060857Y-15816000D01*
X10089428Y-15801714D01*
X10160857Y-15801714D01*
X10189428Y-15816000D01*
X10203714Y-15830286D01*
X10218000Y-15858857D01*
X10218000Y-15887429D01*
X10203714Y-15930286D01*
X10032286Y-16101714D01*
X10218000Y-16101714D01*
X10332286Y-15801714D02*
X10332286Y-15858857D01*
X10446571Y-15801714D02*
X10446571Y-15858857D01*
X10889428Y-16216000D02*
X10875143Y-16201714D01*
X10846571Y-16158857D01*
X10832286Y-16130286D01*
X10818000Y-16087429D01*
X10803714Y-16016000D01*
X10803714Y-15958857D01*
X10818000Y-15887429D01*
X10832286Y-15844571D01*
X10846571Y-15816000D01*
X10875143Y-15773143D01*
X10889428Y-15758857D01*
X11160857Y-16101714D02*
X10989428Y-16101714D01*
X11075143Y-16101714D02*
X11075143Y-15801714D01*
X11046571Y-15844571D01*
X11018000Y-15873143D01*
X10989428Y-15887429D01*
X11275143Y-15830286D02*
X11289428Y-15816000D01*
X11318000Y-15801714D01*
X11389428Y-15801714D01*
X11418000Y-15816000D01*
X11432285Y-15830286D01*
X11446571Y-15858857D01*
X11446571Y-15887429D01*
X11432285Y-15930286D01*
X11260857Y-16101714D01*
X11446571Y-16101714D01*
X11803714Y-16101714D02*
X11803714Y-15801714D01*
X11932285Y-16101714D02*
X11932285Y-15944571D01*
X11918000Y-15916000D01*
X11889428Y-15901714D01*
X11846571Y-15901714D01*
X11818000Y-15916000D01*
X11803714Y-15930286D01*
X12118000Y-16101714D02*
X12089428Y-16087429D01*
X12075143Y-16073143D01*
X12060857Y-16044571D01*
X12060857Y-15958857D01*
X12075143Y-15930286D01*
X12089428Y-15916000D01*
X12118000Y-15901714D01*
X12160857Y-15901714D01*
X12189428Y-15916000D01*
X12203714Y-15930286D01*
X12218000Y-15958857D01*
X12218000Y-16044571D01*
X12203714Y-16073143D01*
X12189428Y-16087429D01*
X12160857Y-16101714D01*
X12118000Y-16101714D01*
X12389428Y-16101714D02*
X12360857Y-16087429D01*
X12346571Y-16058857D01*
X12346571Y-15801714D01*
X12618000Y-16087429D02*
X12589428Y-16101714D01*
X12532286Y-16101714D01*
X12503714Y-16087429D01*
X12489428Y-16058857D01*
X12489428Y-15944571D01*
X12503714Y-15916000D01*
X12532286Y-15901714D01*
X12589428Y-15901714D01*
X12618000Y-15916000D01*
X12632286Y-15944571D01*
X12632286Y-15973143D01*
X12489428Y-16001714D01*
X12746571Y-16087429D02*
X12775143Y-16101714D01*
X12832286Y-16101714D01*
X12860857Y-16087429D01*
X12875143Y-16058857D01*
X12875143Y-16044571D01*
X12860857Y-16016000D01*
X12832286Y-16001714D01*
X12789428Y-16001714D01*
X12760857Y-15987429D01*
X12746571Y-15958857D01*
X12746571Y-15944571D01*
X12760857Y-15916000D01*
X12789428Y-15901714D01*
X12832286Y-15901714D01*
X12860857Y-15916000D01*
X12975143Y-16216000D02*
X12989428Y-16201714D01*
X13018000Y-16158857D01*
X13032286Y-16130286D01*
X13046571Y-16087429D01*
X13060857Y-16016000D01*
X13060857Y-15958857D01*
X13046571Y-15887429D01*
X13032286Y-15844571D01*
X13018000Y-15816000D01*
X12989428Y-15773143D01*
X12975143Y-15758857D01*
X6177360Y-16321360D02*
X6177360Y-16402640D01*
X6136720Y-16362000D02*
X6218000Y-16362000D01*
X6546571Y-16197714D02*
X6575143Y-16197714D01*
X6603714Y-16212000D01*
X6618000Y-16226286D01*
X6632286Y-16254857D01*
X6646571Y-16312000D01*
X6646571Y-16383429D01*
X6632286Y-16440571D01*
X6618000Y-16469143D01*
X6603714Y-16483429D01*
X6575143Y-16497714D01*
X6546571Y-16497714D01*
X6518000Y-16483429D01*
X6503714Y-16469143D01*
X6489428Y-16440571D01*
X6475143Y-16383429D01*
X6475143Y-16312000D01*
X6489428Y-16254857D01*
X6503714Y-16226286D01*
X6518000Y-16212000D01*
X6546571Y-16197714D01*
X6775143Y-16469143D02*
X6789428Y-16483429D01*
X6775143Y-16497714D01*
X6760857Y-16483429D01*
X6775143Y-16469143D01*
X6775143Y-16497714D01*
X6960857Y-16326286D02*
X6932286Y-16312000D01*
X6918000Y-16297714D01*
X6903714Y-16269143D01*
X6903714Y-16254857D01*
X6918000Y-16226286D01*
X6932286Y-16212000D01*
X6960857Y-16197714D01*
X7018000Y-16197714D01*
X7046571Y-16212000D01*
X7060857Y-16226286D01*
X7075143Y-16254857D01*
X7075143Y-16269143D01*
X7060857Y-16297714D01*
X7046571Y-16312000D01*
X7018000Y-16326286D01*
X6960857Y-16326286D01*
X6932286Y-16340571D01*
X6918000Y-16354857D01*
X6903714Y-16383429D01*
X6903714Y-16440571D01*
X6918000Y-16469143D01*
X6932286Y-16483429D01*
X6960857Y-16497714D01*
X7018000Y-16497714D01*
X7046571Y-16483429D01*
X7060857Y-16469143D01*
X7075143Y-16440571D01*
X7075143Y-16383429D01*
X7060857Y-16354857D01*
X7046571Y-16340571D01*
X7018000Y-16326286D01*
X7360857Y-16497714D02*
X7189428Y-16497714D01*
X7275143Y-16497714D02*
X7275143Y-16197714D01*
X7246571Y-16240571D01*
X7218000Y-16269143D01*
X7189428Y-16283429D01*
X7489428Y-16497714D02*
X7489428Y-16297714D01*
X7489428Y-16326286D02*
X7503714Y-16312000D01*
X7532286Y-16297714D01*
X7575143Y-16297714D01*
X7603714Y-16312000D01*
X7618000Y-16340571D01*
X7618000Y-16497714D01*
X7618000Y-16340571D02*
X7632286Y-16312000D01*
X7660857Y-16297714D01*
X7703714Y-16297714D01*
X7732286Y-16312000D01*
X7746571Y-16340571D01*
X7746571Y-16497714D01*
X7889428Y-16497714D02*
X7889428Y-16297714D01*
X7889428Y-16326286D02*
X7903714Y-16312000D01*
X7932286Y-16297714D01*
X7975143Y-16297714D01*
X8003714Y-16312000D01*
X8018000Y-16340571D01*
X8018000Y-16497714D01*
X8018000Y-16340571D02*
X8032286Y-16312000D01*
X8060857Y-16297714D01*
X8103714Y-16297714D01*
X8132286Y-16312000D01*
X8146571Y-16340571D01*
X8146571Y-16497714D01*
X8732286Y-16183429D02*
X8475143Y-16569143D01*
X9118000Y-16197714D02*
X9146571Y-16197714D01*
X9175143Y-16212000D01*
X9189428Y-16226286D01*
X9203714Y-16254857D01*
X9218000Y-16312000D01*
X9218000Y-16383429D01*
X9203714Y-16440571D01*
X9189428Y-16469143D01*
X9175143Y-16483429D01*
X9146571Y-16497714D01*
X9118000Y-16497714D01*
X9089428Y-16483429D01*
X9075143Y-16469143D01*
X9060857Y-16440571D01*
X9046571Y-16383429D01*
X9046571Y-16312000D01*
X9060857Y-16254857D01*
X9075143Y-16226286D01*
X9089428Y-16212000D01*
X9118000Y-16197714D01*
X9346571Y-16469143D02*
X9360857Y-16483429D01*
X9346571Y-16497714D01*
X9332286Y-16483429D01*
X9346571Y-16469143D01*
X9346571Y-16497714D01*
X9546571Y-16197714D02*
X9575143Y-16197714D01*
X9603714Y-16212000D01*
X9618000Y-16226286D01*
X9632286Y-16254857D01*
X9646571Y-16312000D01*
X9646571Y-16383429D01*
X9632286Y-16440571D01*
X9618000Y-16469143D01*
X9603714Y-16483429D01*
X9575143Y-16497714D01*
X9546571Y-16497714D01*
X9518000Y-16483429D01*
X9503714Y-16469143D01*
X9489428Y-16440571D01*
X9475143Y-16383429D01*
X9475143Y-16312000D01*
X9489428Y-16254857D01*
X9503714Y-16226286D01*
X9518000Y-16212000D01*
X9546571Y-16197714D01*
X9746571Y-16197714D02*
X9932286Y-16197714D01*
X9832286Y-16312000D01*
X9875143Y-16312000D01*
X9903714Y-16326286D01*
X9918000Y-16340571D01*
X9932286Y-16369143D01*
X9932286Y-16440571D01*
X9918000Y-16469143D01*
X9903714Y-16483429D01*
X9875143Y-16497714D01*
X9789428Y-16497714D01*
X9760857Y-16483429D01*
X9746571Y-16469143D01*
X10046571Y-16226286D02*
X10060857Y-16212000D01*
X10089428Y-16197714D01*
X10160857Y-16197714D01*
X10189428Y-16212000D01*
X10203714Y-16226286D01*
X10218000Y-16254857D01*
X10218000Y-16283429D01*
X10203714Y-16326286D01*
X10032286Y-16497714D01*
X10218000Y-16497714D01*
X10332286Y-16197714D02*
X10332286Y-16254857D01*
X10446571Y-16197714D02*
X10446571Y-16254857D01*
X10889428Y-16612000D02*
X10875143Y-16597714D01*
X10846571Y-16554857D01*
X10832286Y-16526286D01*
X10818000Y-16483429D01*
X10803714Y-16412000D01*
X10803714Y-16354857D01*
X10818000Y-16283429D01*
X10832286Y-16240571D01*
X10846571Y-16212000D01*
X10875143Y-16169143D01*
X10889428Y-16154857D01*
X10975143Y-16197714D02*
X11175143Y-16197714D01*
X11046571Y-16497714D01*
X11332285Y-16326286D02*
X11303714Y-16312000D01*
X11289428Y-16297714D01*
X11275143Y-16269143D01*
X11275143Y-16254857D01*
X11289428Y-16226286D01*
X11303714Y-16212000D01*
X11332285Y-16197714D01*
X11389428Y-16197714D01*
X11418000Y-16212000D01*
X11432285Y-16226286D01*
X11446571Y-16254857D01*
X11446571Y-16269143D01*
X11432285Y-16297714D01*
X11418000Y-16312000D01*
X11389428Y-16326286D01*
X11332285Y-16326286D01*
X11303714Y-16340571D01*
X11289428Y-16354857D01*
X11275143Y-16383429D01*
X11275143Y-16440571D01*
X11289428Y-16469143D01*
X11303714Y-16483429D01*
X11332285Y-16497714D01*
X11389428Y-16497714D01*
X11418000Y-16483429D01*
X11432285Y-16469143D01*
X11446571Y-16440571D01*
X11446571Y-16383429D01*
X11432285Y-16354857D01*
X11418000Y-16340571D01*
X11389428Y-16326286D01*
X11803714Y-16497714D02*
X11803714Y-16197714D01*
X11932285Y-16497714D02*
X11932285Y-16340571D01*
X11918000Y-16312000D01*
X11889428Y-16297714D01*
X11846571Y-16297714D01*
X11818000Y-16312000D01*
X11803714Y-16326286D01*
X12118000Y-16497714D02*
X12089428Y-16483429D01*
X12075143Y-16469143D01*
X12060857Y-16440571D01*
X12060857Y-16354857D01*
X12075143Y-16326286D01*
X12089428Y-16312000D01*
X12118000Y-16297714D01*
X12160857Y-16297714D01*
X12189428Y-16312000D01*
X12203714Y-16326286D01*
X12218000Y-16354857D01*
X12218000Y-16440571D01*
X12203714Y-16469143D01*
X12189428Y-16483429D01*
X12160857Y-16497714D01*
X12118000Y-16497714D01*
X12389428Y-16497714D02*
X12360857Y-16483429D01*
X12346571Y-16454857D01*
X12346571Y-16197714D01*
X12618000Y-16483429D02*
X12589428Y-16497714D01*
X12532286Y-16497714D01*
X12503714Y-16483429D01*
X12489428Y-16454857D01*
X12489428Y-16340571D01*
X12503714Y-16312000D01*
X12532286Y-16297714D01*
X12589428Y-16297714D01*
X12618000Y-16312000D01*
X12632286Y-16340571D01*
X12632286Y-16369143D01*
X12489428Y-16397714D01*
X12746571Y-16483429D02*
X12775143Y-16497714D01*
X12832286Y-16497714D01*
X12860857Y-16483429D01*
X12875143Y-16454857D01*
X12875143Y-16440571D01*
X12860857Y-16412000D01*
X12832286Y-16397714D01*
X12789428Y-16397714D01*
X12760857Y-16383429D01*
X12746571Y-16354857D01*
X12746571Y-16340571D01*
X12760857Y-16312000D01*
X12789428Y-16297714D01*
X12832286Y-16297714D01*
X12860857Y-16312000D01*
X12975143Y-16612000D02*
X12989428Y-16597714D01*
X13018000Y-16554857D01*
X13032286Y-16526286D01*
X13046571Y-16483429D01*
X13060857Y-16412000D01*
X13060857Y-16354857D01*
X13046571Y-16283429D01*
X13032286Y-16240571D01*
X13018000Y-16212000D01*
X12989428Y-16169143D01*
X12975143Y-16154857D01*
X6204832Y-16789791D02*
X6204832Y-16726210D01*
X6141251Y-16726210D01*
X6141251Y-16789791D01*
X6204832Y-16789791D01*
X6546571Y-16593714D02*
X6575143Y-16593714D01*
X6603714Y-16608000D01*
X6618000Y-16622286D01*
X6632286Y-16650857D01*
X6646571Y-16708000D01*
X6646571Y-16779429D01*
X6632286Y-16836572D01*
X6618000Y-16865143D01*
X6603714Y-16879429D01*
X6575143Y-16893714D01*
X6546571Y-16893714D01*
X6518000Y-16879429D01*
X6503714Y-16865143D01*
X6489428Y-16836572D01*
X6475143Y-16779429D01*
X6475143Y-16708000D01*
X6489428Y-16650857D01*
X6503714Y-16622286D01*
X6518000Y-16608000D01*
X6546571Y-16593714D01*
X6775143Y-16865143D02*
X6789428Y-16879429D01*
X6775143Y-16893714D01*
X6760857Y-16879429D01*
X6775143Y-16865143D01*
X6775143Y-16893714D01*
X6932286Y-16893714D02*
X6989428Y-16893714D01*
X7018000Y-16879429D01*
X7032286Y-16865143D01*
X7060857Y-16822286D01*
X7075143Y-16765143D01*
X7075143Y-16650857D01*
X7060857Y-16622286D01*
X7046571Y-16608000D01*
X7018000Y-16593714D01*
X6960857Y-16593714D01*
X6932286Y-16608000D01*
X6918000Y-16622286D01*
X6903714Y-16650857D01*
X6903714Y-16722286D01*
X6918000Y-16750857D01*
X6932286Y-16765143D01*
X6960857Y-16779429D01*
X7018000Y-16779429D01*
X7046571Y-16765143D01*
X7060857Y-16750857D01*
X7075143Y-16722286D01*
X7260857Y-16593714D02*
X7289428Y-16593714D01*
X7318000Y-16608000D01*
X7332286Y-16622286D01*
X7346571Y-16650857D01*
X7360857Y-16708000D01*
X7360857Y-16779429D01*
X7346571Y-16836572D01*
X7332286Y-16865143D01*
X7318000Y-16879429D01*
X7289428Y-16893714D01*
X7260857Y-16893714D01*
X7232286Y-16879429D01*
X7218000Y-16865143D01*
X7203714Y-16836572D01*
X7189428Y-16779429D01*
X7189428Y-16708000D01*
X7203714Y-16650857D01*
X7218000Y-16622286D01*
X7232286Y-16608000D01*
X7260857Y-16593714D01*
X7489428Y-16893714D02*
X7489428Y-16693714D01*
X7489428Y-16722286D02*
X7503714Y-16708000D01*
X7532286Y-16693714D01*
X7575143Y-16693714D01*
X7603714Y-16708000D01*
X7618000Y-16736571D01*
X7618000Y-16893714D01*
X7618000Y-16736571D02*
X7632286Y-16708000D01*
X7660857Y-16693714D01*
X7703714Y-16693714D01*
X7732286Y-16708000D01*
X7746571Y-16736571D01*
X7746571Y-16893714D01*
X7889428Y-16893714D02*
X7889428Y-16693714D01*
X7889428Y-16722286D02*
X7903714Y-16708000D01*
X7932286Y-16693714D01*
X7975143Y-16693714D01*
X8003714Y-16708000D01*
X8018000Y-16736571D01*
X8018000Y-16893714D01*
X8018000Y-16736571D02*
X8032286Y-16708000D01*
X8060857Y-16693714D01*
X8103714Y-16693714D01*
X8132286Y-16708000D01*
X8146571Y-16736571D01*
X8146571Y-16893714D01*
X8732286Y-16579429D02*
X8475143Y-16965143D01*
X9118000Y-16593714D02*
X9146571Y-16593714D01*
X9175143Y-16608000D01*
X9189428Y-16622286D01*
X9203714Y-16650857D01*
X9218000Y-16708000D01*
X9218000Y-16779429D01*
X9203714Y-16836572D01*
X9189428Y-16865143D01*
X9175143Y-16879429D01*
X9146571Y-16893714D01*
X9118000Y-16893714D01*
X9089428Y-16879429D01*
X9075143Y-16865143D01*
X9060857Y-16836572D01*
X9046571Y-16779429D01*
X9046571Y-16708000D01*
X9060857Y-16650857D01*
X9075143Y-16622286D01*
X9089428Y-16608000D01*
X9118000Y-16593714D01*
X9346571Y-16865143D02*
X9360857Y-16879429D01*
X9346571Y-16893714D01*
X9332286Y-16879429D01*
X9346571Y-16865143D01*
X9346571Y-16893714D01*
X9546571Y-16593714D02*
X9575143Y-16593714D01*
X9603714Y-16608000D01*
X9618000Y-16622286D01*
X9632286Y-16650857D01*
X9646571Y-16708000D01*
X9646571Y-16779429D01*
X9632286Y-16836572D01*
X9618000Y-16865143D01*
X9603714Y-16879429D01*
X9575143Y-16893714D01*
X9546571Y-16893714D01*
X9518000Y-16879429D01*
X9503714Y-16865143D01*
X9489428Y-16836572D01*
X9475143Y-16779429D01*
X9475143Y-16708000D01*
X9489428Y-16650857D01*
X9503714Y-16622286D01*
X9518000Y-16608000D01*
X9546571Y-16593714D01*
X9746571Y-16593714D02*
X9932286Y-16593714D01*
X9832286Y-16708000D01*
X9875143Y-16708000D01*
X9903714Y-16722286D01*
X9918000Y-16736571D01*
X9932286Y-16765143D01*
X9932286Y-16836572D01*
X9918000Y-16865143D01*
X9903714Y-16879429D01*
X9875143Y-16893714D01*
X9789428Y-16893714D01*
X9760857Y-16879429D01*
X9746571Y-16865143D01*
X10203714Y-16593714D02*
X10060857Y-16593714D01*
X10046571Y-16736571D01*
X10060857Y-16722286D01*
X10089428Y-16708000D01*
X10160857Y-16708000D01*
X10189428Y-16722286D01*
X10203714Y-16736571D01*
X10218000Y-16765143D01*
X10218000Y-16836572D01*
X10203714Y-16865143D01*
X10189428Y-16879429D01*
X10160857Y-16893714D01*
X10089428Y-16893714D01*
X10060857Y-16879429D01*
X10046571Y-16865143D01*
X10332286Y-16593714D02*
X10332286Y-16650857D01*
X10446571Y-16593714D02*
X10446571Y-16650857D01*
X10889428Y-17008000D02*
X10875143Y-16993714D01*
X10846571Y-16950857D01*
X10832286Y-16922286D01*
X10818000Y-16879429D01*
X10803714Y-16808000D01*
X10803714Y-16750857D01*
X10818000Y-16679429D01*
X10832286Y-16636571D01*
X10846571Y-16608000D01*
X10875143Y-16565143D01*
X10889428Y-16550857D01*
X11018000Y-16893714D02*
X11075143Y-16893714D01*
X11103714Y-16879429D01*
X11118000Y-16865143D01*
X11146571Y-16822286D01*
X11160857Y-16765143D01*
X11160857Y-16650857D01*
X11146571Y-16622286D01*
X11132286Y-16608000D01*
X11103714Y-16593714D01*
X11046571Y-16593714D01*
X11018000Y-16608000D01*
X11003714Y-16622286D01*
X10989428Y-16650857D01*
X10989428Y-16722286D01*
X11003714Y-16750857D01*
X11018000Y-16765143D01*
X11046571Y-16779429D01*
X11103714Y-16779429D01*
X11132286Y-16765143D01*
X11146571Y-16750857D01*
X11160857Y-16722286D01*
X11518000Y-16893714D02*
X11518000Y-16593714D01*
X11646571Y-16893714D02*
X11646571Y-16736571D01*
X11632285Y-16708000D01*
X11603714Y-16693714D01*
X11560857Y-16693714D01*
X11532285Y-16708000D01*
X11518000Y-16722286D01*
X11832285Y-16893714D02*
X11803714Y-16879429D01*
X11789428Y-16865143D01*
X11775143Y-16836572D01*
X11775143Y-16750857D01*
X11789428Y-16722286D01*
X11803714Y-16708000D01*
X11832285Y-16693714D01*
X11875143Y-16693714D01*
X11903714Y-16708000D01*
X11918000Y-16722286D01*
X11932285Y-16750857D01*
X11932285Y-16836572D01*
X11918000Y-16865143D01*
X11903714Y-16879429D01*
X11875143Y-16893714D01*
X11832285Y-16893714D01*
X12103714Y-16893714D02*
X12075143Y-16879429D01*
X12060857Y-16850857D01*
X12060857Y-16593714D01*
X12332286Y-16879429D02*
X12303714Y-16893714D01*
X12246571Y-16893714D01*
X12218000Y-16879429D01*
X12203714Y-16850857D01*
X12203714Y-16736571D01*
X12218000Y-16708000D01*
X12246571Y-16693714D01*
X12303714Y-16693714D01*
X12332286Y-16708000D01*
X12346571Y-16736571D01*
X12346571Y-16765143D01*
X12203714Y-16793714D01*
X12460857Y-16879429D02*
X12489428Y-16893714D01*
X12546571Y-16893714D01*
X12575143Y-16879429D01*
X12589428Y-16850857D01*
X12589428Y-16836572D01*
X12575143Y-16808000D01*
X12546571Y-16793714D01*
X12503714Y-16793714D01*
X12475143Y-16779429D01*
X12460857Y-16750857D01*
X12460857Y-16736571D01*
X12475143Y-16708000D01*
X12503714Y-16693714D01*
X12546571Y-16693714D01*
X12575143Y-16708000D01*
X12689428Y-17008000D02*
X12703714Y-16993714D01*
X12732286Y-16950857D01*
X12746571Y-16922286D01*
X12760857Y-16879429D01*
X12775143Y-16808000D01*
X12775143Y-16750857D01*
X12760857Y-16679429D01*
X12746571Y-16636571D01*
X12732286Y-16608000D01*
X12703714Y-16565143D01*
X12689428Y-16550857D01*
X6167962Y-17204038D02*
X6218000Y-17154000D01*
X6167962Y-17103962D01*
X6117924Y-17154000D01*
X6167962Y-17204038D01*
X6646571Y-17289714D02*
X6475143Y-17289714D01*
X6560857Y-17289714D02*
X6560857Y-16989714D01*
X6532286Y-17032572D01*
X6503714Y-17061143D01*
X6475143Y-17075429D01*
X6775143Y-17261143D02*
X6789428Y-17275429D01*
X6775143Y-17289714D01*
X6760857Y-17275429D01*
X6775143Y-17261143D01*
X6775143Y-17289714D01*
X6975143Y-16989714D02*
X7003714Y-16989714D01*
X7032286Y-17004000D01*
X7046571Y-17018286D01*
X7060857Y-17046857D01*
X7075143Y-17104000D01*
X7075143Y-17175429D01*
X7060857Y-17232572D01*
X7046571Y-17261143D01*
X7032286Y-17275429D01*
X7003714Y-17289714D01*
X6975143Y-17289714D01*
X6946571Y-17275429D01*
X6932286Y-17261143D01*
X6918000Y-17232572D01*
X6903714Y-17175429D01*
X6903714Y-17104000D01*
X6918000Y-17046857D01*
X6932286Y-17018286D01*
X6946571Y-17004000D01*
X6975143Y-16989714D01*
X7260857Y-16989714D02*
X7289428Y-16989714D01*
X7318000Y-17004000D01*
X7332286Y-17018286D01*
X7346571Y-17046857D01*
X7360857Y-17104000D01*
X7360857Y-17175429D01*
X7346571Y-17232572D01*
X7332286Y-17261143D01*
X7318000Y-17275429D01*
X7289428Y-17289714D01*
X7260857Y-17289714D01*
X7232286Y-17275429D01*
X7218000Y-17261143D01*
X7203714Y-17232572D01*
X7189428Y-17175429D01*
X7189428Y-17104000D01*
X7203714Y-17046857D01*
X7218000Y-17018286D01*
X7232286Y-17004000D01*
X7260857Y-16989714D01*
X7489428Y-17289714D02*
X7489428Y-17089714D01*
X7489428Y-17118286D02*
X7503714Y-17104000D01*
X7532286Y-17089714D01*
X7575143Y-17089714D01*
X7603714Y-17104000D01*
X7618000Y-17132572D01*
X7618000Y-17289714D01*
X7618000Y-17132572D02*
X7632286Y-17104000D01*
X7660857Y-17089714D01*
X7703714Y-17089714D01*
X7732286Y-17104000D01*
X7746571Y-17132572D01*
X7746571Y-17289714D01*
X7889428Y-17289714D02*
X7889428Y-17089714D01*
X7889428Y-17118286D02*
X7903714Y-17104000D01*
X7932286Y-17089714D01*
X7975143Y-17089714D01*
X8003714Y-17104000D01*
X8018000Y-17132572D01*
X8018000Y-17289714D01*
X8018000Y-17132572D02*
X8032286Y-17104000D01*
X8060857Y-17089714D01*
X8103714Y-17089714D01*
X8132286Y-17104000D01*
X8146571Y-17132572D01*
X8146571Y-17289714D01*
X8732286Y-16975429D02*
X8475143Y-17361143D01*
X9118000Y-16989714D02*
X9146571Y-16989714D01*
X9175143Y-17004000D01*
X9189428Y-17018286D01*
X9203714Y-17046857D01*
X9218000Y-17104000D01*
X9218000Y-17175429D01*
X9203714Y-17232572D01*
X9189428Y-17261143D01*
X9175143Y-17275429D01*
X9146571Y-17289714D01*
X9118000Y-17289714D01*
X9089428Y-17275429D01*
X9075143Y-17261143D01*
X9060857Y-17232572D01*
X9046571Y-17175429D01*
X9046571Y-17104000D01*
X9060857Y-17046857D01*
X9075143Y-17018286D01*
X9089428Y-17004000D01*
X9118000Y-16989714D01*
X9346571Y-17261143D02*
X9360857Y-17275429D01*
X9346571Y-17289714D01*
X9332286Y-17275429D01*
X9346571Y-17261143D01*
X9346571Y-17289714D01*
X9546571Y-16989714D02*
X9575143Y-16989714D01*
X9603714Y-17004000D01*
X9618000Y-17018286D01*
X9632286Y-17046857D01*
X9646571Y-17104000D01*
X9646571Y-17175429D01*
X9632286Y-17232572D01*
X9618000Y-17261143D01*
X9603714Y-17275429D01*
X9575143Y-17289714D01*
X9546571Y-17289714D01*
X9518000Y-17275429D01*
X9503714Y-17261143D01*
X9489428Y-17232572D01*
X9475143Y-17175429D01*
X9475143Y-17104000D01*
X9489428Y-17046857D01*
X9503714Y-17018286D01*
X9518000Y-17004000D01*
X9546571Y-16989714D01*
X9746571Y-16989714D02*
X9932286Y-16989714D01*
X9832286Y-17104000D01*
X9875143Y-17104000D01*
X9903714Y-17118286D01*
X9918000Y-17132572D01*
X9932286Y-17161143D01*
X9932286Y-17232572D01*
X9918000Y-17261143D01*
X9903714Y-17275429D01*
X9875143Y-17289714D01*
X9789428Y-17289714D01*
X9760857Y-17275429D01*
X9746571Y-17261143D01*
X10075143Y-17289714D02*
X10132286Y-17289714D01*
X10160857Y-17275429D01*
X10175143Y-17261143D01*
X10203714Y-17218286D01*
X10218000Y-17161143D01*
X10218000Y-17046857D01*
X10203714Y-17018286D01*
X10189428Y-17004000D01*
X10160857Y-16989714D01*
X10103714Y-16989714D01*
X10075143Y-17004000D01*
X10060857Y-17018286D01*
X10046571Y-17046857D01*
X10046571Y-17118286D01*
X10060857Y-17146857D01*
X10075143Y-17161143D01*
X10103714Y-17175429D01*
X10160857Y-17175429D01*
X10189428Y-17161143D01*
X10203714Y-17146857D01*
X10218000Y-17118286D01*
X10332286Y-16989714D02*
X10332286Y-17046857D01*
X10446571Y-16989714D02*
X10446571Y-17046857D01*
X10889428Y-17404000D02*
X10875143Y-17389714D01*
X10846571Y-17346857D01*
X10832286Y-17318286D01*
X10818000Y-17275429D01*
X10803714Y-17204000D01*
X10803714Y-17146857D01*
X10818000Y-17075429D01*
X10832286Y-17032572D01*
X10846571Y-17004000D01*
X10875143Y-16961143D01*
X10889428Y-16946857D01*
X11132286Y-17089714D02*
X11132286Y-17289714D01*
X11060857Y-16975429D02*
X10989428Y-17189714D01*
X11175143Y-17189714D01*
X11518000Y-17289714D02*
X11518000Y-16989714D01*
X11646571Y-17289714D02*
X11646571Y-17132572D01*
X11632285Y-17104000D01*
X11603714Y-17089714D01*
X11560857Y-17089714D01*
X11532285Y-17104000D01*
X11518000Y-17118286D01*
X11832285Y-17289714D02*
X11803714Y-17275429D01*
X11789428Y-17261143D01*
X11775143Y-17232572D01*
X11775143Y-17146857D01*
X11789428Y-17118286D01*
X11803714Y-17104000D01*
X11832285Y-17089714D01*
X11875143Y-17089714D01*
X11903714Y-17104000D01*
X11918000Y-17118286D01*
X11932285Y-17146857D01*
X11932285Y-17232572D01*
X11918000Y-17261143D01*
X11903714Y-17275429D01*
X11875143Y-17289714D01*
X11832285Y-17289714D01*
X12103714Y-17289714D02*
X12075143Y-17275429D01*
X12060857Y-17246857D01*
X12060857Y-16989714D01*
X12332286Y-17275429D02*
X12303714Y-17289714D01*
X12246571Y-17289714D01*
X12218000Y-17275429D01*
X12203714Y-17246857D01*
X12203714Y-17132572D01*
X12218000Y-17104000D01*
X12246571Y-17089714D01*
X12303714Y-17089714D01*
X12332286Y-17104000D01*
X12346571Y-17132572D01*
X12346571Y-17161143D01*
X12203714Y-17189714D01*
X12460857Y-17275429D02*
X12489428Y-17289714D01*
X12546571Y-17289714D01*
X12575143Y-17275429D01*
X12589428Y-17246857D01*
X12589428Y-17232572D01*
X12575143Y-17204000D01*
X12546571Y-17189714D01*
X12503714Y-17189714D01*
X12475143Y-17175429D01*
X12460857Y-17146857D01*
X12460857Y-17132572D01*
X12475143Y-17104000D01*
X12503714Y-17089714D01*
X12546571Y-17089714D01*
X12575143Y-17104000D01*
X12689428Y-17404000D02*
X12703714Y-17389714D01*
X12732286Y-17346857D01*
X12746571Y-17318286D01*
X12760857Y-17275429D01*
X12775143Y-17204000D01*
X12775143Y-17146857D01*
X12760857Y-17075429D01*
X12746571Y-17032572D01*
X12732286Y-17004000D01*
X12703714Y-16961143D01*
X12689428Y-16946857D01*
X6116400Y-17499200D02*
X6218000Y-17600800D01*
X6218000Y-17499200D02*
X6116400Y-17600800D01*
X6218000Y-17550000D02*
G75*
G03X6218000Y-17550000I-50800J0D01*
G01*
X6646571Y-17685714D02*
X6475143Y-17685714D01*
X6560857Y-17685714D02*
X6560857Y-17385714D01*
X6532286Y-17428572D01*
X6503714Y-17457143D01*
X6475143Y-17471429D01*
X6775143Y-17657143D02*
X6789428Y-17671429D01*
X6775143Y-17685714D01*
X6760857Y-17671429D01*
X6775143Y-17657143D01*
X6775143Y-17685714D01*
X6975143Y-17385714D02*
X7003714Y-17385714D01*
X7032286Y-17400000D01*
X7046571Y-17414286D01*
X7060857Y-17442857D01*
X7075143Y-17500000D01*
X7075143Y-17571429D01*
X7060857Y-17628572D01*
X7046571Y-17657143D01*
X7032286Y-17671429D01*
X7003714Y-17685714D01*
X6975143Y-17685714D01*
X6946571Y-17671429D01*
X6932286Y-17657143D01*
X6918000Y-17628572D01*
X6903714Y-17571429D01*
X6903714Y-17500000D01*
X6918000Y-17442857D01*
X6932286Y-17414286D01*
X6946571Y-17400000D01*
X6975143Y-17385714D01*
X7189428Y-17414286D02*
X7203714Y-17400000D01*
X7232286Y-17385714D01*
X7303714Y-17385714D01*
X7332286Y-17400000D01*
X7346571Y-17414286D01*
X7360857Y-17442857D01*
X7360857Y-17471429D01*
X7346571Y-17514286D01*
X7175143Y-17685714D01*
X7360857Y-17685714D01*
X7489428Y-17685714D02*
X7489428Y-17485714D01*
X7489428Y-17514286D02*
X7503714Y-17500000D01*
X7532286Y-17485714D01*
X7575143Y-17485714D01*
X7603714Y-17500000D01*
X7618000Y-17528572D01*
X7618000Y-17685714D01*
X7618000Y-17528572D02*
X7632286Y-17500000D01*
X7660857Y-17485714D01*
X7703714Y-17485714D01*
X7732286Y-17500000D01*
X7746571Y-17528572D01*
X7746571Y-17685714D01*
X7889428Y-17685714D02*
X7889428Y-17485714D01*
X7889428Y-17514286D02*
X7903714Y-17500000D01*
X7932286Y-17485714D01*
X7975143Y-17485714D01*
X8003714Y-17500000D01*
X8018000Y-17528572D01*
X8018000Y-17685714D01*
X8018000Y-17528572D02*
X8032286Y-17500000D01*
X8060857Y-17485714D01*
X8103714Y-17485714D01*
X8132286Y-17500000D01*
X8146571Y-17528572D01*
X8146571Y-17685714D01*
X8732286Y-17371429D02*
X8475143Y-17757143D01*
X9118000Y-17385714D02*
X9146571Y-17385714D01*
X9175143Y-17400000D01*
X9189428Y-17414286D01*
X9203714Y-17442857D01*
X9218000Y-17500000D01*
X9218000Y-17571429D01*
X9203714Y-17628572D01*
X9189428Y-17657143D01*
X9175143Y-17671429D01*
X9146571Y-17685714D01*
X9118000Y-17685714D01*
X9089428Y-17671429D01*
X9075143Y-17657143D01*
X9060857Y-17628572D01*
X9046571Y-17571429D01*
X9046571Y-17500000D01*
X9060857Y-17442857D01*
X9075143Y-17414286D01*
X9089428Y-17400000D01*
X9118000Y-17385714D01*
X9346571Y-17657143D02*
X9360857Y-17671429D01*
X9346571Y-17685714D01*
X9332286Y-17671429D01*
X9346571Y-17657143D01*
X9346571Y-17685714D01*
X9546571Y-17385714D02*
X9575143Y-17385714D01*
X9603714Y-17400000D01*
X9618000Y-17414286D01*
X9632286Y-17442857D01*
X9646571Y-17500000D01*
X9646571Y-17571429D01*
X9632286Y-17628572D01*
X9618000Y-17657143D01*
X9603714Y-17671429D01*
X9575143Y-17685714D01*
X9546571Y-17685714D01*
X9518000Y-17671429D01*
X9503714Y-17657143D01*
X9489428Y-17628572D01*
X9475143Y-17571429D01*
X9475143Y-17500000D01*
X9489428Y-17442857D01*
X9503714Y-17414286D01*
X9518000Y-17400000D01*
X9546571Y-17385714D01*
X9903714Y-17485714D02*
X9903714Y-17685714D01*
X9832286Y-17371429D02*
X9760857Y-17585714D01*
X9946571Y-17585714D01*
X10118000Y-17385714D02*
X10146571Y-17385714D01*
X10175143Y-17400000D01*
X10189428Y-17414286D01*
X10203714Y-17442857D01*
X10218000Y-17500000D01*
X10218000Y-17571429D01*
X10203714Y-17628572D01*
X10189428Y-17657143D01*
X10175143Y-17671429D01*
X10146571Y-17685714D01*
X10118000Y-17685714D01*
X10089428Y-17671429D01*
X10075143Y-17657143D01*
X10060857Y-17628572D01*
X10046571Y-17571429D01*
X10046571Y-17500000D01*
X10060857Y-17442857D01*
X10075143Y-17414286D01*
X10089428Y-17400000D01*
X10118000Y-17385714D01*
X10332286Y-17385714D02*
X10332286Y-17442857D01*
X10446571Y-17385714D02*
X10446571Y-17442857D01*
X10889428Y-17800000D02*
X10875143Y-17785714D01*
X10846571Y-17742857D01*
X10832286Y-17714286D01*
X10818000Y-17671429D01*
X10803714Y-17600000D01*
X10803714Y-17542857D01*
X10818000Y-17471429D01*
X10832286Y-17428572D01*
X10846571Y-17400000D01*
X10875143Y-17357143D01*
X10889428Y-17342857D01*
X11146571Y-17385714D02*
X11003714Y-17385714D01*
X10989428Y-17528572D01*
X11003714Y-17514286D01*
X11032286Y-17500000D01*
X11103714Y-17500000D01*
X11132286Y-17514286D01*
X11146571Y-17528572D01*
X11160857Y-17557143D01*
X11160857Y-17628572D01*
X11146571Y-17657143D01*
X11132286Y-17671429D01*
X11103714Y-17685714D01*
X11032286Y-17685714D01*
X11003714Y-17671429D01*
X10989428Y-17657143D01*
X11346571Y-17385714D02*
X11375143Y-17385714D01*
X11403714Y-17400000D01*
X11418000Y-17414286D01*
X11432285Y-17442857D01*
X11446571Y-17500000D01*
X11446571Y-17571429D01*
X11432285Y-17628572D01*
X11418000Y-17657143D01*
X11403714Y-17671429D01*
X11375143Y-17685714D01*
X11346571Y-17685714D01*
X11318000Y-17671429D01*
X11303714Y-17657143D01*
X11289428Y-17628572D01*
X11275143Y-17571429D01*
X11275143Y-17500000D01*
X11289428Y-17442857D01*
X11303714Y-17414286D01*
X11318000Y-17400000D01*
X11346571Y-17385714D01*
X11803714Y-17685714D02*
X11803714Y-17385714D01*
X11932285Y-17685714D02*
X11932285Y-17528572D01*
X11918000Y-17500000D01*
X11889428Y-17485714D01*
X11846571Y-17485714D01*
X11818000Y-17500000D01*
X11803714Y-17514286D01*
X12118000Y-17685714D02*
X12089428Y-17671429D01*
X12075143Y-17657143D01*
X12060857Y-17628572D01*
X12060857Y-17542857D01*
X12075143Y-17514286D01*
X12089428Y-17500000D01*
X12118000Y-17485714D01*
X12160857Y-17485714D01*
X12189428Y-17500000D01*
X12203714Y-17514286D01*
X12218000Y-17542857D01*
X12218000Y-17628572D01*
X12203714Y-17657143D01*
X12189428Y-17671429D01*
X12160857Y-17685714D01*
X12118000Y-17685714D01*
X12389428Y-17685714D02*
X12360857Y-17671429D01*
X12346571Y-17642857D01*
X12346571Y-17385714D01*
X12618000Y-17671429D02*
X12589428Y-17685714D01*
X12532286Y-17685714D01*
X12503714Y-17671429D01*
X12489428Y-17642857D01*
X12489428Y-17528572D01*
X12503714Y-17500000D01*
X12532286Y-17485714D01*
X12589428Y-17485714D01*
X12618000Y-17500000D01*
X12632286Y-17528572D01*
X12632286Y-17557143D01*
X12489428Y-17585714D01*
X12746571Y-17671429D02*
X12775143Y-17685714D01*
X12832286Y-17685714D01*
X12860857Y-17671429D01*
X12875143Y-17642857D01*
X12875143Y-17628572D01*
X12860857Y-17600000D01*
X12832286Y-17585714D01*
X12789428Y-17585714D01*
X12760857Y-17571429D01*
X12746571Y-17542857D01*
X12746571Y-17528572D01*
X12760857Y-17500000D01*
X12789428Y-17485714D01*
X12832286Y-17485714D01*
X12860857Y-17500000D01*
X12975143Y-17800000D02*
X12989428Y-17785714D01*
X13018000Y-17742857D01*
X13032286Y-17714286D01*
X13046571Y-17671429D01*
X13060857Y-17600000D01*
X13060857Y-17542857D01*
X13046571Y-17471429D01*
X13032286Y-17428572D01*
X13018000Y-17400000D01*
X12989428Y-17357143D01*
X12975143Y-17342857D01*
X5918026Y-17796013D02*
X6218000Y-18095987D01*
X6218000Y-17796013D02*
X5918026Y-18095987D01*
X6068013Y-17796013D02*
X6068013Y-18095987D01*
X5918026Y-17946000D02*
X6218000Y-17946000D01*
X6460857Y-17781714D02*
X6646571Y-17781714D01*
X6546571Y-17896000D01*
X6589428Y-17896000D01*
X6618000Y-17910286D01*
X6632286Y-17924572D01*
X6646571Y-17953143D01*
X6646571Y-18024572D01*
X6632286Y-18053143D01*
X6618000Y-18067429D01*
X6589428Y-18081714D01*
X6503714Y-18081714D01*
X6475143Y-18067429D01*
X6460857Y-18053143D01*
X6775143Y-18053143D02*
X6789428Y-18067429D01*
X6775143Y-18081714D01*
X6760857Y-18067429D01*
X6775143Y-18053143D01*
X6775143Y-18081714D01*
X6975143Y-17781714D02*
X7003714Y-17781714D01*
X7032286Y-17796000D01*
X7046571Y-17810286D01*
X7060857Y-17838857D01*
X7075143Y-17896000D01*
X7075143Y-17967429D01*
X7060857Y-18024572D01*
X7046571Y-18053143D01*
X7032286Y-18067429D01*
X7003714Y-18081714D01*
X6975143Y-18081714D01*
X6946571Y-18067429D01*
X6932286Y-18053143D01*
X6918000Y-18024572D01*
X6903714Y-17967429D01*
X6903714Y-17896000D01*
X6918000Y-17838857D01*
X6932286Y-17810286D01*
X6946571Y-17796000D01*
X6975143Y-17781714D01*
X7260857Y-17781714D02*
X7289428Y-17781714D01*
X7318000Y-17796000D01*
X7332286Y-17810286D01*
X7346571Y-17838857D01*
X7360857Y-17896000D01*
X7360857Y-17967429D01*
X7346571Y-18024572D01*
X7332286Y-18053143D01*
X7318000Y-18067429D01*
X7289428Y-18081714D01*
X7260857Y-18081714D01*
X7232286Y-18067429D01*
X7218000Y-18053143D01*
X7203714Y-18024572D01*
X7189428Y-17967429D01*
X7189428Y-17896000D01*
X7203714Y-17838857D01*
X7218000Y-17810286D01*
X7232286Y-17796000D01*
X7260857Y-17781714D01*
X7489428Y-18081714D02*
X7489428Y-17881714D01*
X7489428Y-17910286D02*
X7503714Y-17896000D01*
X7532286Y-17881714D01*
X7575143Y-17881714D01*
X7603714Y-17896000D01*
X7618000Y-17924572D01*
X7618000Y-18081714D01*
X7618000Y-17924572D02*
X7632286Y-17896000D01*
X7660857Y-17881714D01*
X7703714Y-17881714D01*
X7732286Y-17896000D01*
X7746571Y-17924572D01*
X7746571Y-18081714D01*
X7889428Y-18081714D02*
X7889428Y-17881714D01*
X7889428Y-17910286D02*
X7903714Y-17896000D01*
X7932286Y-17881714D01*
X7975143Y-17881714D01*
X8003714Y-17896000D01*
X8018000Y-17924572D01*
X8018000Y-18081714D01*
X8018000Y-17924572D02*
X8032286Y-17896000D01*
X8060857Y-17881714D01*
X8103714Y-17881714D01*
X8132286Y-17896000D01*
X8146571Y-17924572D01*
X8146571Y-18081714D01*
X8732286Y-17767429D02*
X8475143Y-18153143D01*
X9118000Y-17781714D02*
X9146571Y-17781714D01*
X9175143Y-17796000D01*
X9189428Y-17810286D01*
X9203714Y-17838857D01*
X9218000Y-17896000D01*
X9218000Y-17967429D01*
X9203714Y-18024572D01*
X9189428Y-18053143D01*
X9175143Y-18067429D01*
X9146571Y-18081714D01*
X9118000Y-18081714D01*
X9089428Y-18067429D01*
X9075143Y-18053143D01*
X9060857Y-18024572D01*
X9046571Y-17967429D01*
X9046571Y-17896000D01*
X9060857Y-17838857D01*
X9075143Y-17810286D01*
X9089428Y-17796000D01*
X9118000Y-17781714D01*
X9346571Y-18053143D02*
X9360857Y-18067429D01*
X9346571Y-18081714D01*
X9332286Y-18067429D01*
X9346571Y-18053143D01*
X9346571Y-18081714D01*
X9646571Y-18081714D02*
X9475143Y-18081714D01*
X9560857Y-18081714D02*
X9560857Y-17781714D01*
X9532286Y-17824572D01*
X9503714Y-17853143D01*
X9475143Y-17867429D01*
X9932286Y-18081714D02*
X9760857Y-18081714D01*
X9846571Y-18081714D02*
X9846571Y-17781714D01*
X9818000Y-17824572D01*
X9789428Y-17853143D01*
X9760857Y-17867429D01*
X10103714Y-17910286D02*
X10075143Y-17896000D01*
X10060857Y-17881714D01*
X10046571Y-17853143D01*
X10046571Y-17838857D01*
X10060857Y-17810286D01*
X10075143Y-17796000D01*
X10103714Y-17781714D01*
X10160857Y-17781714D01*
X10189428Y-17796000D01*
X10203714Y-17810286D01*
X10218000Y-17838857D01*
X10218000Y-17853143D01*
X10203714Y-17881714D01*
X10189428Y-17896000D01*
X10160857Y-17910286D01*
X10103714Y-17910286D01*
X10075143Y-17924572D01*
X10060857Y-17938857D01*
X10046571Y-17967429D01*
X10046571Y-18024572D01*
X10060857Y-18053143D01*
X10075143Y-18067429D01*
X10103714Y-18081714D01*
X10160857Y-18081714D01*
X10189428Y-18067429D01*
X10203714Y-18053143D01*
X10218000Y-18024572D01*
X10218000Y-17967429D01*
X10203714Y-17938857D01*
X10189428Y-17924572D01*
X10160857Y-17910286D01*
X10332286Y-17781714D02*
X10332286Y-17838857D01*
X10446571Y-17781714D02*
X10446571Y-17838857D01*
X10889428Y-18196000D02*
X10875143Y-18181714D01*
X10846571Y-18138857D01*
X10832286Y-18110286D01*
X10818000Y-18067429D01*
X10803714Y-17996000D01*
X10803714Y-17938857D01*
X10818000Y-17867429D01*
X10832286Y-17824572D01*
X10846571Y-17796000D01*
X10875143Y-17753143D01*
X10889428Y-17738857D01*
X11132286Y-17881714D02*
X11132286Y-18081714D01*
X11060857Y-17767429D02*
X10989428Y-17981714D01*
X11175143Y-17981714D01*
X11518000Y-18081714D02*
X11518000Y-17781714D01*
X11646571Y-18081714D02*
X11646571Y-17924572D01*
X11632285Y-17896000D01*
X11603714Y-17881714D01*
X11560857Y-17881714D01*
X11532285Y-17896000D01*
X11518000Y-17910286D01*
X11832285Y-18081714D02*
X11803714Y-18067429D01*
X11789428Y-18053143D01*
X11775143Y-18024572D01*
X11775143Y-17938857D01*
X11789428Y-17910286D01*
X11803714Y-17896000D01*
X11832285Y-17881714D01*
X11875143Y-17881714D01*
X11903714Y-17896000D01*
X11918000Y-17910286D01*
X11932285Y-17938857D01*
X11932285Y-18024572D01*
X11918000Y-18053143D01*
X11903714Y-18067429D01*
X11875143Y-18081714D01*
X11832285Y-18081714D01*
X12103714Y-18081714D02*
X12075143Y-18067429D01*
X12060857Y-18038857D01*
X12060857Y-17781714D01*
X12332286Y-18067429D02*
X12303714Y-18081714D01*
X12246571Y-18081714D01*
X12218000Y-18067429D01*
X12203714Y-18038857D01*
X12203714Y-17924572D01*
X12218000Y-17896000D01*
X12246571Y-17881714D01*
X12303714Y-17881714D01*
X12332286Y-17896000D01*
X12346571Y-17924572D01*
X12346571Y-17953143D01*
X12203714Y-17981714D01*
X12460857Y-18067429D02*
X12489428Y-18081714D01*
X12546571Y-18081714D01*
X12575143Y-18067429D01*
X12589428Y-18038857D01*
X12589428Y-18024572D01*
X12575143Y-17996000D01*
X12546571Y-17981714D01*
X12503714Y-17981714D01*
X12475143Y-17967429D01*
X12460857Y-17938857D01*
X12460857Y-17924572D01*
X12475143Y-17896000D01*
X12503714Y-17881714D01*
X12546571Y-17881714D01*
X12575143Y-17896000D01*
X12689428Y-18196000D02*
X12703714Y-18181714D01*
X12732286Y-18138857D01*
X12746571Y-18110286D01*
X12760857Y-18067429D01*
X12775143Y-17996000D01*
X12775143Y-17938857D01*
X12760857Y-17867429D01*
X12746571Y-17824572D01*
X12732286Y-17796000D01*
X12703714Y-17753143D01*
X12689428Y-17738857D01*
X5897960Y-18215954D02*
X6218000Y-18535994D01*
X6218000Y-18215954D02*
X5897960Y-18535994D01*
X6171132Y-18489126D02*
X6171132Y-18262822D01*
X5944828Y-18262822D01*
X5944828Y-18489126D01*
X6171132Y-18489126D01*
X6460857Y-18211688D02*
X6646571Y-18211688D01*
X6546571Y-18325974D01*
X6589428Y-18325974D01*
X6618000Y-18340260D01*
X6632286Y-18354546D01*
X6646571Y-18383117D01*
X6646571Y-18454546D01*
X6632286Y-18483117D01*
X6618000Y-18497403D01*
X6589428Y-18511688D01*
X6503714Y-18511688D01*
X6475143Y-18497403D01*
X6460857Y-18483117D01*
X6775143Y-18483117D02*
X6789428Y-18497403D01*
X6775143Y-18511688D01*
X6760857Y-18497403D01*
X6775143Y-18483117D01*
X6775143Y-18511688D01*
X6903714Y-18240260D02*
X6918000Y-18225974D01*
X6946571Y-18211688D01*
X7018000Y-18211688D01*
X7046571Y-18225974D01*
X7060857Y-18240260D01*
X7075143Y-18268831D01*
X7075143Y-18297403D01*
X7060857Y-18340260D01*
X6889428Y-18511688D01*
X7075143Y-18511688D01*
X7260857Y-18211688D02*
X7289428Y-18211688D01*
X7318000Y-18225974D01*
X7332286Y-18240260D01*
X7346571Y-18268831D01*
X7360857Y-18325974D01*
X7360857Y-18397403D01*
X7346571Y-18454546D01*
X7332286Y-18483117D01*
X7318000Y-18497403D01*
X7289428Y-18511688D01*
X7260857Y-18511688D01*
X7232286Y-18497403D01*
X7218000Y-18483117D01*
X7203714Y-18454546D01*
X7189428Y-18397403D01*
X7189428Y-18325974D01*
X7203714Y-18268831D01*
X7218000Y-18240260D01*
X7232286Y-18225974D01*
X7260857Y-18211688D01*
X7489428Y-18511688D02*
X7489428Y-18311688D01*
X7489428Y-18340260D02*
X7503714Y-18325974D01*
X7532286Y-18311688D01*
X7575143Y-18311688D01*
X7603714Y-18325974D01*
X7618000Y-18354546D01*
X7618000Y-18511688D01*
X7618000Y-18354546D02*
X7632286Y-18325974D01*
X7660857Y-18311688D01*
X7703714Y-18311688D01*
X7732286Y-18325974D01*
X7746571Y-18354546D01*
X7746571Y-18511688D01*
X7889428Y-18511688D02*
X7889428Y-18311688D01*
X7889428Y-18340260D02*
X7903714Y-18325974D01*
X7932286Y-18311688D01*
X7975143Y-18311688D01*
X8003714Y-18325974D01*
X8018000Y-18354546D01*
X8018000Y-18511688D01*
X8018000Y-18354546D02*
X8032286Y-18325974D01*
X8060857Y-18311688D01*
X8103714Y-18311688D01*
X8132286Y-18325974D01*
X8146571Y-18354546D01*
X8146571Y-18511688D01*
X8732286Y-18197403D02*
X8475143Y-18583117D01*
X9118000Y-18211688D02*
X9146571Y-18211688D01*
X9175143Y-18225974D01*
X9189428Y-18240260D01*
X9203714Y-18268831D01*
X9218000Y-18325974D01*
X9218000Y-18397403D01*
X9203714Y-18454546D01*
X9189428Y-18483117D01*
X9175143Y-18497403D01*
X9146571Y-18511688D01*
X9118000Y-18511688D01*
X9089428Y-18497403D01*
X9075143Y-18483117D01*
X9060857Y-18454546D01*
X9046571Y-18397403D01*
X9046571Y-18325974D01*
X9060857Y-18268831D01*
X9075143Y-18240260D01*
X9089428Y-18225974D01*
X9118000Y-18211688D01*
X9346571Y-18483117D02*
X9360857Y-18497403D01*
X9346571Y-18511688D01*
X9332286Y-18497403D01*
X9346571Y-18483117D01*
X9346571Y-18511688D01*
X9646571Y-18511688D02*
X9475143Y-18511688D01*
X9560857Y-18511688D02*
X9560857Y-18211688D01*
X9532286Y-18254546D01*
X9503714Y-18283117D01*
X9475143Y-18297403D01*
X9760857Y-18240260D02*
X9775143Y-18225974D01*
X9803714Y-18211688D01*
X9875143Y-18211688D01*
X9903714Y-18225974D01*
X9918000Y-18240260D01*
X9932286Y-18268831D01*
X9932286Y-18297403D01*
X9918000Y-18340260D01*
X9746571Y-18511688D01*
X9932286Y-18511688D01*
X10189428Y-18211688D02*
X10132286Y-18211688D01*
X10103714Y-18225974D01*
X10089428Y-18240260D01*
X10060857Y-18283117D01*
X10046571Y-18340260D01*
X10046571Y-18454546D01*
X10060857Y-18483117D01*
X10075143Y-18497403D01*
X10103714Y-18511688D01*
X10160857Y-18511688D01*
X10189428Y-18497403D01*
X10203714Y-18483117D01*
X10218000Y-18454546D01*
X10218000Y-18383117D01*
X10203714Y-18354546D01*
X10189428Y-18340260D01*
X10160857Y-18325974D01*
X10103714Y-18325974D01*
X10075143Y-18340260D01*
X10060857Y-18354546D01*
X10046571Y-18383117D01*
X10332286Y-18211688D02*
X10332286Y-18268831D01*
X10446571Y-18211688D02*
X10446571Y-18268831D01*
X10889428Y-18625974D02*
X10875143Y-18611688D01*
X10846571Y-18568831D01*
X10832286Y-18540260D01*
X10818000Y-18497403D01*
X10803714Y-18425974D01*
X10803714Y-18368831D01*
X10818000Y-18297403D01*
X10832286Y-18254546D01*
X10846571Y-18225974D01*
X10875143Y-18183117D01*
X10889428Y-18168831D01*
X10989428Y-18240260D02*
X11003714Y-18225974D01*
X11032286Y-18211688D01*
X11103714Y-18211688D01*
X11132286Y-18225974D01*
X11146571Y-18240260D01*
X11160857Y-18268831D01*
X11160857Y-18297403D01*
X11146571Y-18340260D01*
X10975143Y-18511688D01*
X11160857Y-18511688D01*
X11518000Y-18511688D02*
X11518000Y-18211688D01*
X11646571Y-18511688D02*
X11646571Y-18354546D01*
X11632285Y-18325974D01*
X11603714Y-18311688D01*
X11560857Y-18311688D01*
X11532285Y-18325974D01*
X11518000Y-18340260D01*
X11832285Y-18511688D02*
X11803714Y-18497403D01*
X11789428Y-18483117D01*
X11775143Y-18454546D01*
X11775143Y-18368831D01*
X11789428Y-18340260D01*
X11803714Y-18325974D01*
X11832285Y-18311688D01*
X11875143Y-18311688D01*
X11903714Y-18325974D01*
X11918000Y-18340260D01*
X11932285Y-18368831D01*
X11932285Y-18454546D01*
X11918000Y-18483117D01*
X11903714Y-18497403D01*
X11875143Y-18511688D01*
X11832285Y-18511688D01*
X12103714Y-18511688D02*
X12075143Y-18497403D01*
X12060857Y-18468831D01*
X12060857Y-18211688D01*
X12332286Y-18497403D02*
X12303714Y-18511688D01*
X12246571Y-18511688D01*
X12218000Y-18497403D01*
X12203714Y-18468831D01*
X12203714Y-18354546D01*
X12218000Y-18325974D01*
X12246571Y-18311688D01*
X12303714Y-18311688D01*
X12332286Y-18325974D01*
X12346571Y-18354546D01*
X12346571Y-18383117D01*
X12203714Y-18411688D01*
X12460857Y-18497403D02*
X12489428Y-18511688D01*
X12546571Y-18511688D01*
X12575143Y-18497403D01*
X12589428Y-18468831D01*
X12589428Y-18454546D01*
X12575143Y-18425974D01*
X12546571Y-18411688D01*
X12503714Y-18411688D01*
X12475143Y-18397403D01*
X12460857Y-18368831D01*
X12460857Y-18354546D01*
X12475143Y-18325974D01*
X12503714Y-18311688D01*
X12546571Y-18311688D01*
X12575143Y-18325974D01*
X12689428Y-18625974D02*
X12703714Y-18611688D01*
X12732286Y-18568831D01*
X12746571Y-18540260D01*
X12760857Y-18497403D01*
X12775143Y-18425974D01*
X12775143Y-18368831D01*
X12760857Y-18297403D01*
X12746571Y-18254546D01*
X12732286Y-18225974D01*
X12703714Y-18183117D01*
X12689428Y-18168831D01*
M02*
