M48
;DRILL file {kicad (2014-12-04 BZR 5312)-product} date Wed 04 Feb 2015 08:29:29 AM CET
;FORMAT={-:-/ absolute / metric / decimal}
FMAT,2
METRIC,TZ
T1C0.635
T2C0.800
T3C0.813
T4C0.899
T5C1.001
T6C1.016
T7C3.000
T8C3.200
%
G90
G05
M71
T1
X167.64Y-94.742
X182.88Y-106.426
X193.04Y-107.315
T2
X92.075Y-85.09
X94.615Y-85.09
X99.695Y-85.09
X102.235Y-85.09
X107.315Y-85.09
X107.315Y-104.775
X109.855Y-85.09
X109.855Y-104.775
X114.935Y-85.09
X117.475Y-85.09
X209.042Y-122.555
X209.042Y-126.365
T3
X86.36Y-86.36
X86.36Y-93.98
X92.075Y-91.44
X92.075Y-99.06
X94.615Y-91.44
X94.615Y-99.06
X97.155Y-91.44
X97.155Y-99.06
X99.695Y-91.44
X99.695Y-99.06
X102.235Y-91.44
X102.235Y-99.06
X104.775Y-91.44
X104.775Y-99.06
X107.315Y-91.44
X107.315Y-99.06
X109.855Y-91.44
X109.855Y-99.06
X154.94Y-83.82
X154.94Y-99.06
X157.48Y-83.82
X157.48Y-99.06
X160.02Y-83.82
X160.02Y-99.06
X162.56Y-83.82
X162.56Y-99.06
X165.1Y-83.82
X165.1Y-99.06
X167.64Y-83.82
X167.64Y-99.06
X170.18Y-83.82
X170.18Y-99.06
X172.72Y-83.82
X172.72Y-99.06
X175.26Y-83.82
X175.26Y-99.06
X177.8Y-83.82
X177.8Y-99.06
X180.34Y-83.82
X180.34Y-99.06
X182.88Y-83.82
X182.88Y-99.06
X185.42Y-83.82
X185.42Y-99.06
X187.96Y-65.405
X187.96Y-73.025
X187.96Y-83.82
X187.96Y-99.06
X190.5Y-65.405
X190.5Y-73.025
X190.5Y-83.82
X190.5Y-99.06
X193.04Y-65.405
X193.04Y-73.025
X193.04Y-83.82
X193.04Y-99.06
X195.58Y-65.405
X195.58Y-73.025
X195.58Y-83.82
X195.58Y-99.06
X198.12Y-65.405
X198.12Y-73.025
X198.12Y-83.82
X198.12Y-99.06
X200.66Y-53.594
X200.66Y-61.214
X200.66Y-65.405
X200.66Y-73.025
X200.66Y-83.82
X200.66Y-99.06
X203.2Y-65.405
X203.2Y-73.025
X203.2Y-83.82
X203.2Y-99.06
X207.645Y-70.485
X207.645Y-73.025
X207.772Y-96.52
X207.772Y-99.06
T4
X78.232Y-87.285
X78.232Y-90.056
X78.232Y-92.824
X78.232Y-95.595
X80.772Y-85.9
X80.772Y-88.669
X80.772Y-91.44
X80.772Y-94.211
X80.772Y-96.98
T5
X165.1Y-65.405
X165.1Y-73.025
X180.34Y-65.405
X180.34Y-73.025
T6
X215.265Y-65.405
X215.265Y-67.945
X215.265Y-70.485
X215.265Y-73.025
X215.265Y-75.565
X215.265Y-78.105
X215.265Y-80.645
X215.265Y-83.185
X215.265Y-85.725
X215.265Y-88.265
X215.265Y-90.805
X215.265Y-93.345
X215.265Y-95.885
X215.265Y-98.425
X215.265Y-100.965
X215.265Y-103.505
X215.265Y-106.045
X215.265Y-108.585
X215.265Y-111.125
X215.265Y-113.665
X215.265Y-116.205
X215.265Y-118.745
X215.265Y-121.285
X215.265Y-123.825
X215.265Y-126.365
X217.805Y-65.405
X217.805Y-67.945
X217.805Y-70.485
X217.805Y-73.025
X217.805Y-75.565
X217.805Y-78.105
X217.805Y-80.645
X217.805Y-83.185
X217.805Y-85.725
X217.805Y-88.265
X217.805Y-90.805
X217.805Y-93.345
X217.805Y-95.885
X217.805Y-98.425
X217.805Y-100.965
X217.805Y-103.505
X217.805Y-106.045
X217.805Y-108.585
X217.805Y-111.125
X217.805Y-113.665
X217.805Y-116.205
X217.805Y-118.745
X217.805Y-121.285
X217.805Y-123.825
X217.805Y-126.365
T7
X68.58Y-52.832
X68.58Y-138.938
X215.646Y-52.578
X215.646Y-138.938
T8
X79.502Y-78.946
X79.502Y-103.934
T0
M30
