%TF.FileFunction,Copper,L1,Top,Signal*%
%FSLAX46Y46*%
G04 Gerber Fmt 4.6, Leading zero omitted, Abs format (unit mm)*
G04 Created by KiCad (PCBNEW (2014-12-04 BZR 5312)-product) date Wed 04 Feb 2015 08:31:08 AM CET*
%MOMM*%
G01*
G04 APERTURE LIST*
%ADD10C,0.100000*%
%ADD11C,0.300000*%
%ADD12C,0.150000*%
%ADD13R,1.727200X1.727200*%
%ADD14O,1.727200X1.727200*%
%ADD15C,1.397000*%
%ADD16R,1.574800X2.286000*%
%ADD17O,1.574800X2.286000*%
%ADD18R,2.499360X2.499360*%
%ADD19C,2.499360*%
%ADD20C,1.501140*%
%ADD21C,5.001260*%
%ADD22O,1.998980X1.501140*%
%ADD23C,0.889000*%
%ADD24C,0.635000*%
%ADD25C,0.254000*%
G04 APERTURE END LIST*
D10*
D11*
X74688572Y-138878571D02*
X75545715Y-138878571D01*
X75117144Y-140378571D02*
X75117144Y-138878571D01*
X76260001Y-140378571D02*
X76117143Y-140307143D01*
X76045715Y-140235714D01*
X75974286Y-140092857D01*
X75974286Y-139664286D01*
X76045715Y-139521429D01*
X76117143Y-139450000D01*
X76260001Y-139378571D01*
X76474286Y-139378571D01*
X76617143Y-139450000D01*
X76688572Y-139521429D01*
X76760001Y-139664286D01*
X76760001Y-140092857D01*
X76688572Y-140235714D01*
X76617143Y-140307143D01*
X76474286Y-140378571D01*
X76260001Y-140378571D01*
X77402858Y-139378571D02*
X77402858Y-140878571D01*
X77402858Y-139450000D02*
X77545715Y-139378571D01*
X77831429Y-139378571D01*
X77974286Y-139450000D01*
X78045715Y-139521429D01*
X78117144Y-139664286D01*
X78117144Y-140092857D01*
X78045715Y-140235714D01*
X77974286Y-140307143D01*
X77831429Y-140378571D01*
X77545715Y-140378571D01*
X77402858Y-140307143D01*
X80617144Y-140378571D02*
X79902858Y-140378571D01*
X79902858Y-138878571D01*
X81760001Y-140378571D02*
X81760001Y-139592857D01*
X81688572Y-139450000D01*
X81545715Y-139378571D01*
X81260001Y-139378571D01*
X81117144Y-139450000D01*
X81760001Y-140307143D02*
X81617144Y-140378571D01*
X81260001Y-140378571D01*
X81117144Y-140307143D01*
X81045715Y-140164286D01*
X81045715Y-140021429D01*
X81117144Y-139878571D01*
X81260001Y-139807143D01*
X81617144Y-139807143D01*
X81760001Y-139735714D01*
X82331430Y-139378571D02*
X82688573Y-140378571D01*
X83045715Y-139378571D02*
X82688573Y-140378571D01*
X82545715Y-140735714D01*
X82474287Y-140807143D01*
X82331430Y-140878571D01*
X84188572Y-140307143D02*
X84045715Y-140378571D01*
X83760001Y-140378571D01*
X83617144Y-140307143D01*
X83545715Y-140164286D01*
X83545715Y-139592857D01*
X83617144Y-139450000D01*
X83760001Y-139378571D01*
X84045715Y-139378571D01*
X84188572Y-139450000D01*
X84260001Y-139592857D01*
X84260001Y-139735714D01*
X83545715Y-139878571D01*
X84902858Y-140378571D02*
X84902858Y-139378571D01*
X84902858Y-139664286D02*
X84974286Y-139521429D01*
X85045715Y-139450000D01*
X85188572Y-139378571D01*
X85331429Y-139378571D01*
D12*
X211582000Y-123190000D02*
X210566000Y-123190000D01*
X211074000Y-122682000D02*
X211074000Y-123698000D01*
D13*
X215265000Y-65405000D03*
D14*
X217805000Y-65405000D03*
X215265000Y-67945000D03*
X217805000Y-67945000D03*
X215265000Y-70485000D03*
X217805000Y-70485000D03*
X215265000Y-73025000D03*
X217805000Y-73025000D03*
X215265000Y-75565000D03*
X217805000Y-75565000D03*
X215265000Y-78105000D03*
X217805000Y-78105000D03*
X215265000Y-80645000D03*
X217805000Y-80645000D03*
X215265000Y-83185000D03*
X217805000Y-83185000D03*
X215265000Y-85725000D03*
X217805000Y-85725000D03*
X215265000Y-88265000D03*
X217805000Y-88265000D03*
X215265000Y-90805000D03*
X217805000Y-90805000D03*
X215265000Y-93345000D03*
X217805000Y-93345000D03*
X215265000Y-95885000D03*
X217805000Y-95885000D03*
X215265000Y-98425000D03*
X217805000Y-98425000D03*
X215265000Y-100965000D03*
X217805000Y-100965000D03*
X215265000Y-103505000D03*
X217805000Y-103505000D03*
X215265000Y-106045000D03*
X217805000Y-106045000D03*
X215265000Y-108585000D03*
X217805000Y-108585000D03*
X215265000Y-111125000D03*
X217805000Y-111125000D03*
X215265000Y-113665000D03*
X217805000Y-113665000D03*
X215265000Y-116205000D03*
X217805000Y-116205000D03*
X215265000Y-118745000D03*
X217805000Y-118745000D03*
X215265000Y-121285000D03*
X217805000Y-121285000D03*
X215265000Y-123825000D03*
X217805000Y-123825000D03*
X215265000Y-126365000D03*
X217805000Y-126365000D03*
D15*
X207645000Y-73025000D03*
X207645000Y-70485000D03*
X207772000Y-99060000D03*
X207772000Y-96520000D03*
X200660000Y-53594000D03*
X200660000Y-61214000D03*
X86360000Y-93980000D03*
X86360000Y-86360000D03*
D16*
X203200000Y-83820000D03*
D17*
X200660000Y-83820000D03*
X198120000Y-83820000D03*
X195580000Y-83820000D03*
X193040000Y-83820000D03*
X190500000Y-83820000D03*
X187960000Y-83820000D03*
X185420000Y-83820000D03*
X182880000Y-83820000D03*
X180340000Y-83820000D03*
X177800000Y-83820000D03*
X175260000Y-83820000D03*
X172720000Y-83820000D03*
X170180000Y-83820000D03*
X167640000Y-83820000D03*
X165100000Y-83820000D03*
X162560000Y-83820000D03*
X160020000Y-83820000D03*
X157480000Y-83820000D03*
X154940000Y-83820000D03*
X154940000Y-99060000D03*
X157480000Y-99060000D03*
X160020000Y-99060000D03*
X162560000Y-99060000D03*
X165100000Y-99060000D03*
X167640000Y-99060000D03*
X170180000Y-99060000D03*
X172720000Y-99060000D03*
X175260000Y-99060000D03*
X177800000Y-99060000D03*
X180340000Y-99060000D03*
X182880000Y-99060000D03*
X185420000Y-99060000D03*
X187960000Y-99060000D03*
X190500000Y-99060000D03*
X193040000Y-99060000D03*
X195580000Y-99060000D03*
X198120000Y-99060000D03*
X200660000Y-99060000D03*
X203200000Y-99060000D03*
D16*
X203200000Y-65405000D03*
D17*
X200660000Y-65405000D03*
X198120000Y-65405000D03*
X195580000Y-65405000D03*
X193040000Y-65405000D03*
X190500000Y-65405000D03*
X187960000Y-65405000D03*
X187960000Y-73025000D03*
X190500000Y-73025000D03*
X193040000Y-73025000D03*
X195580000Y-73025000D03*
X198120000Y-73025000D03*
X200660000Y-73025000D03*
X203200000Y-73025000D03*
D16*
X109855000Y-91440000D03*
D17*
X107315000Y-91440000D03*
X104775000Y-91440000D03*
X102235000Y-91440000D03*
X99695000Y-91440000D03*
X97155000Y-91440000D03*
X94615000Y-91440000D03*
X92075000Y-91440000D03*
X92075000Y-99060000D03*
X94615000Y-99060000D03*
X97155000Y-99060000D03*
X99695000Y-99060000D03*
X102235000Y-99060000D03*
X104775000Y-99060000D03*
X107315000Y-99060000D03*
X109855000Y-99060000D03*
D18*
X180340000Y-65405000D03*
D19*
X165100000Y-65405000D03*
X165100000Y-73025000D03*
X180340000Y-73025000D03*
D20*
X107315000Y-85090000D03*
X109855000Y-85090000D03*
X99695000Y-85090000D03*
X102235000Y-85090000D03*
X117475000Y-85090000D03*
X114935000Y-85090000D03*
X107315000Y-104775000D03*
X109855000Y-104775000D03*
X209042000Y-126365000D03*
X209042000Y-122555000D03*
X94615000Y-85090000D03*
X92075000Y-85090000D03*
D21*
X79502000Y-103934260D03*
D22*
X81020920Y-91440000D03*
X81020920Y-94211140D03*
X81020920Y-96979740D03*
X81020920Y-88668860D03*
X81020920Y-85900260D03*
X77983080Y-87284560D03*
X77983080Y-90055700D03*
X77983080Y-92824300D03*
X77983080Y-95595440D03*
D21*
X79502000Y-78945740D03*
D23*
X167640000Y-94742000D03*
X182880000Y-106426000D03*
X193040000Y-107315000D03*
D24*
X187960000Y-65760600D02*
X187960000Y-65405000D01*
X192684400Y-70485000D02*
X187960000Y-65760600D01*
X207645000Y-70485000D02*
X192684400Y-70485000D01*
X207772000Y-96520000D02*
X205994000Y-94742000D01*
X205994000Y-94742000D02*
X167640000Y-94742000D01*
X180340000Y-73025000D02*
X184023000Y-73025000D01*
X185293000Y-71755000D02*
X185293000Y-48895000D01*
X184023000Y-73025000D02*
X185293000Y-71755000D01*
X117475000Y-85090000D02*
X117475000Y-48133000D01*
X200660000Y-53594000D02*
X200660000Y-49276000D01*
X217164466Y-63246000D02*
X219456000Y-63246000D01*
X216408000Y-63246000D02*
X217164466Y-63246000D01*
X215265000Y-64389000D02*
X216408000Y-63246000D01*
X215265000Y-65405000D02*
X215265000Y-64389000D01*
D25*
X216535000Y-66675000D02*
X217805000Y-65405000D01*
X205232000Y-66675000D02*
X216535000Y-66675000D01*
X203962000Y-65405000D02*
X205232000Y-66675000D01*
X203200000Y-65405000D02*
X203962000Y-65405000D01*
X214043686Y-106045000D02*
X215265000Y-106045000D01*
X154940000Y-99415600D02*
X160870899Y-105346499D01*
X154940000Y-99060000D02*
X154940000Y-99415600D01*
X213345185Y-105346499D02*
X214043686Y-106045000D01*
X160870899Y-105346499D02*
X213345185Y-105346499D01*
X214043686Y-93345000D02*
X215265000Y-93345000D01*
X213154686Y-92456000D02*
X214043686Y-93345000D01*
X178460400Y-92456000D02*
X213154686Y-92456000D01*
X170180000Y-84175600D02*
X178460400Y-92456000D01*
X170180000Y-83820000D02*
X170180000Y-84175600D01*
X160020000Y-83820000D02*
X160020000Y-84175600D01*
X216560399Y-104800399D02*
X216941401Y-105181401D01*
X160020000Y-84175600D02*
X166370000Y-90525600D01*
X166370000Y-90525600D02*
X166370000Y-100266500D01*
X166370000Y-100266500D02*
X170903899Y-104800399D01*
X170903899Y-104800399D02*
X216560399Y-104800399D01*
X216941401Y-105181401D02*
X217805000Y-106045000D01*
X216535000Y-69215000D02*
X217805000Y-67945000D01*
X214122000Y-69215000D02*
X216535000Y-69215000D01*
X212471000Y-67564000D02*
X214122000Y-69215000D01*
X197383400Y-67564000D02*
X212471000Y-67564000D01*
X195580000Y-65760600D02*
X197383400Y-67564000D01*
X195580000Y-65405000D02*
X195580000Y-65760600D01*
X80772000Y-88668860D02*
X89659460Y-88668860D01*
X89659460Y-88668860D02*
X92075000Y-91084400D01*
X92075000Y-91084400D02*
X92075000Y-91440000D01*
X92075000Y-91084400D02*
X91668600Y-90678000D01*
X91694000Y-91821000D02*
X92075000Y-91440000D01*
X80772000Y-91440000D02*
X85417662Y-91440000D01*
X85417662Y-91440000D02*
X86941672Y-92964010D01*
X86941672Y-92964010D02*
X93446590Y-92964010D01*
X93446590Y-92964010D02*
X94615000Y-91795600D01*
X94615000Y-91795600D02*
X94615000Y-91440000D01*
X80772000Y-94211140D02*
X86128860Y-94211140D01*
X86128860Y-94211140D02*
X86360000Y-93980000D01*
X101066590Y-100584010D02*
X80899010Y-100584010D01*
X80899010Y-100584010D02*
X76454000Y-96139000D01*
X77983080Y-92824300D02*
X78232000Y-92824300D01*
X102235000Y-99060000D02*
X102235000Y-99415600D01*
X76454000Y-94353380D02*
X77983080Y-92824300D01*
X102235000Y-99415600D02*
X101066590Y-100584010D01*
X76454000Y-96139000D02*
X76454000Y-94353380D01*
X102235000Y-99060000D02*
X102235000Y-98704400D01*
X80688586Y-101092020D02*
X103098580Y-101092020D01*
X75945990Y-96349424D02*
X80688586Y-101092020D01*
X104775000Y-99415600D02*
X104775000Y-99060000D01*
X78232000Y-90055700D02*
X77983080Y-90055700D01*
X103098580Y-101092020D02*
X104775000Y-99415600D01*
X75945990Y-92092790D02*
X75945990Y-96349424D01*
X77983080Y-90055700D02*
X75945990Y-92092790D01*
X180340000Y-83820000D02*
X180340000Y-83464400D01*
X180340000Y-83464400D02*
X178219091Y-81343491D01*
X178219091Y-81343491D02*
X153924009Y-81343491D01*
X153924009Y-81343491D02*
X139636500Y-95631000D01*
X139636500Y-95631000D02*
X95148400Y-95631000D01*
X95148400Y-95631000D02*
X92075000Y-98704400D01*
X92075000Y-98704400D02*
X92075000Y-99060000D01*
X94615000Y-98704400D02*
X94615000Y-99060000D01*
X176187101Y-81851501D02*
X154134433Y-81851501D01*
X139846924Y-96139010D02*
X97180390Y-96139010D01*
X177800000Y-83820000D02*
X177800000Y-83464400D01*
X154134433Y-81851501D02*
X139846924Y-96139010D01*
X177800000Y-83464400D02*
X176187101Y-81851501D01*
X97180390Y-96139010D02*
X94615000Y-98704400D01*
X97155000Y-98704400D02*
X99212380Y-96647020D01*
X182251383Y-106426000D02*
X182880000Y-106426000D01*
X97155000Y-99060000D02*
X97155000Y-98704400D01*
X157690434Y-106426000D02*
X182251383Y-106426000D01*
X147911454Y-96647020D02*
X157690434Y-106426000D01*
X99212380Y-96647020D02*
X147911454Y-96647020D01*
X99695000Y-98704400D02*
X101244371Y-97155029D01*
X99695000Y-99060000D02*
X99695000Y-98704400D01*
X101244371Y-97155029D02*
X147701029Y-97155029D01*
X147701029Y-97155029D02*
X157861000Y-107315000D01*
X157861000Y-107315000D02*
X192411383Y-107315000D01*
X192411383Y-107315000D02*
X193040000Y-107315000D01*
X107315000Y-85090000D02*
X104775000Y-87630000D01*
X104775000Y-87630000D02*
X104775000Y-91440000D01*
X109855000Y-85090000D02*
X109855000Y-91440000D01*
X99695000Y-85090000D02*
X99695000Y-91440000D01*
X102235000Y-85090000D02*
X102235000Y-91440000D01*
X97155000Y-87630000D02*
X97155000Y-91440000D01*
X94615000Y-85090000D02*
X97155000Y-87630000D01*
X86360000Y-86360000D02*
X91542981Y-86360000D01*
X95986590Y-90803609D02*
X95986590Y-92279571D01*
X91542981Y-86360000D02*
X95986590Y-90803609D01*
X95986590Y-92279571D02*
X96671029Y-92964010D01*
X96671029Y-92964010D02*
X106146590Y-92964010D01*
X106146590Y-92964010D02*
X107315000Y-91795600D01*
X107315000Y-91795600D02*
X107315000Y-91440000D01*
X107315000Y-91795600D02*
X108483401Y-92964001D01*
X108483401Y-92964001D02*
X110947201Y-92964001D01*
X110947201Y-92964001D02*
X114184431Y-89726771D01*
X114184431Y-89726771D02*
X114184431Y-85840569D01*
X114184431Y-85840569D02*
X114935000Y-85090000D01*
X216941401Y-71348599D02*
X217805000Y-70485000D01*
X216509601Y-71780399D02*
X216941401Y-71348599D01*
X214667591Y-71780399D02*
X216509601Y-71780399D01*
X209612990Y-76835000D02*
X214667591Y-71780399D01*
X192405000Y-76835000D02*
X209612990Y-76835000D01*
X185420000Y-83820000D02*
X192405000Y-76835000D01*
X214630000Y-73660000D02*
X215265000Y-73025000D01*
X210946991Y-77343009D02*
X214630000Y-73660000D01*
X194436991Y-77343009D02*
X210946991Y-77343009D01*
X187960000Y-83820000D02*
X194436991Y-77343009D01*
X216941401Y-73888599D02*
X217805000Y-73025000D01*
X216509601Y-74320399D02*
X216941401Y-73888599D01*
X214731601Y-74320399D02*
X216509601Y-74320399D01*
X211200982Y-77851018D02*
X214731601Y-74320399D01*
X196468982Y-77851018D02*
X211200982Y-77851018D01*
X190500000Y-83820000D02*
X196468982Y-77851018D01*
X214630000Y-76200000D02*
X215265000Y-75565000D01*
X214376000Y-76200000D02*
X214630000Y-76200000D01*
X212216973Y-78359027D02*
X214376000Y-76200000D01*
X198500973Y-78359027D02*
X212216973Y-78359027D01*
X193040000Y-83820000D02*
X198500973Y-78359027D01*
X216560399Y-76809601D02*
X216941401Y-76428599D01*
X216941401Y-76428599D02*
X217805000Y-75565000D01*
X212470964Y-78867036D02*
X214528399Y-76809601D01*
X200177364Y-78867036D02*
X212470964Y-78867036D01*
X195580000Y-83464400D02*
X200177364Y-78867036D01*
X214528399Y-76809601D02*
X216560399Y-76809601D01*
X195580000Y-83820000D02*
X195580000Y-83464400D01*
X214043686Y-78105000D02*
X215265000Y-78105000D01*
X213995000Y-78105000D02*
X214043686Y-78105000D01*
X212661500Y-79438500D02*
X213995000Y-78105000D01*
X202501500Y-79438500D02*
X212661500Y-79438500D01*
X198120000Y-83820000D02*
X202501500Y-79438500D01*
X216560399Y-79349601D02*
X216941401Y-78968599D01*
X216941401Y-78968599D02*
X217805000Y-78105000D01*
X212852000Y-80010000D02*
X213512399Y-79349601D01*
X204470000Y-80010000D02*
X212852000Y-80010000D01*
X213512399Y-79349601D02*
X216560399Y-79349601D01*
X200660000Y-83820000D02*
X204470000Y-80010000D01*
X215201500Y-80581500D02*
X215265000Y-80645000D01*
X214043686Y-80645000D02*
X215265000Y-80645000D01*
X204978000Y-80645000D02*
X214043686Y-80645000D01*
X203200000Y-82423000D02*
X204978000Y-80645000D01*
X203200000Y-83820000D02*
X203200000Y-82423000D01*
X167640000Y-98704400D02*
X167640000Y-99060000D01*
X169570400Y-96774000D02*
X167640000Y-98704400D01*
X207772000Y-100838000D02*
X203708000Y-96774000D01*
X203708000Y-96774000D02*
X169570400Y-96774000D01*
X213549990Y-100838000D02*
X207772000Y-100838000D01*
X214692990Y-99695000D02*
X213549990Y-100838000D01*
X216535000Y-99695000D02*
X214692990Y-99695000D01*
X217805000Y-98425000D02*
X216535000Y-99695000D01*
X170180000Y-98704400D02*
X170180000Y-99060000D01*
X203751556Y-97535990D02*
X171348410Y-97535990D01*
X207561575Y-101346009D02*
X203751556Y-97535990D01*
X214883991Y-101346009D02*
X207561575Y-101346009D01*
X215265000Y-100965000D02*
X214883991Y-101346009D01*
X171348410Y-97535990D02*
X170180000Y-98704400D01*
X172720000Y-99415600D02*
X172720000Y-99060000D01*
X175514001Y-102209601D02*
X172720000Y-99415600D01*
X216560399Y-102209601D02*
X175514001Y-102209601D01*
X217805000Y-100965000D02*
X216560399Y-102209601D01*
G36*
X221565000Y-145365000D02*
X219329000Y-145365000D01*
X219329000Y-142367000D01*
X219329000Y-122301000D01*
X217824903Y-122301000D01*
X217805000Y-122297041D01*
X217785096Y-122301000D01*
X215284903Y-122301000D01*
X215265000Y-122297041D01*
X215245096Y-122301000D01*
X214249000Y-122301000D01*
X214249000Y-117729000D01*
X215245096Y-117729000D01*
X215265000Y-117732959D01*
X215284903Y-117729000D01*
X217785096Y-117729000D01*
X217805000Y-117732959D01*
X217824903Y-117729000D01*
X219329000Y-117729000D01*
X219329000Y-49403000D01*
X65151000Y-49403000D01*
X65151000Y-142367000D01*
X219329000Y-142367000D01*
X219329000Y-145365000D01*
X62915000Y-145365000D01*
X62915000Y-46405000D01*
X221565000Y-46405000D01*
X221565000Y-145365000D01*
X221565000Y-145365000D01*
G37*
X221565000Y-145365000D02*
X219329000Y-145365000D01*
X219329000Y-142367000D01*
X219329000Y-122301000D01*
X217824903Y-122301000D01*
X217805000Y-122297041D01*
X217785096Y-122301000D01*
X215284903Y-122301000D01*
X215265000Y-122297041D01*
X215245096Y-122301000D01*
X214249000Y-122301000D01*
X214249000Y-117729000D01*
X215245096Y-117729000D01*
X215265000Y-117732959D01*
X215284903Y-117729000D01*
X217785096Y-117729000D01*
X217805000Y-117732959D01*
X217824903Y-117729000D01*
X219329000Y-117729000D01*
X219329000Y-49403000D01*
X65151000Y-49403000D01*
X65151000Y-142367000D01*
X219329000Y-142367000D01*
X219329000Y-145365000D01*
X62915000Y-145365000D01*
X62915000Y-46405000D01*
X221565000Y-46405000D01*
X221565000Y-145365000D01*
G36*
X184023000Y-78994000D02*
X166985006Y-78994000D01*
X166985006Y-72651759D01*
X166698686Y-71958809D01*
X166168979Y-71428178D01*
X165476531Y-71140648D01*
X164726759Y-71139994D01*
X164033809Y-71426314D01*
X163503178Y-71956021D01*
X163215648Y-72648469D01*
X163214994Y-73398241D01*
X163501314Y-74091191D01*
X164031021Y-74621822D01*
X164723469Y-74909352D01*
X165473241Y-74910006D01*
X166166191Y-74623686D01*
X166696822Y-74093979D01*
X166984352Y-73401531D01*
X166985006Y-72651759D01*
X166985006Y-78994000D01*
X161417000Y-78994000D01*
X161417000Y-59309000D01*
X184023000Y-59309000D01*
X184023000Y-71677962D01*
X183628462Y-72072500D01*
X182237120Y-72072500D01*
X182237120Y-66654680D01*
X182237120Y-64155320D01*
X182190143Y-63913197D01*
X182050353Y-63700393D01*
X181839320Y-63557943D01*
X181589680Y-63507880D01*
X179090320Y-63507880D01*
X178848197Y-63554857D01*
X178635393Y-63694647D01*
X178492943Y-63905680D01*
X178442880Y-64155320D01*
X178442880Y-66654680D01*
X178489857Y-66896803D01*
X178629647Y-67109607D01*
X178840680Y-67252057D01*
X179090320Y-67302120D01*
X181589680Y-67302120D01*
X181831803Y-67255143D01*
X182044607Y-67115353D01*
X182187057Y-66904320D01*
X182237120Y-66654680D01*
X182237120Y-72072500D01*
X181985661Y-72072500D01*
X181938686Y-71958809D01*
X181408979Y-71428178D01*
X180716531Y-71140648D01*
X179966759Y-71139994D01*
X179273809Y-71426314D01*
X178743178Y-71956021D01*
X178455648Y-72648469D01*
X178454994Y-73398241D01*
X178741314Y-74091191D01*
X179271021Y-74621822D01*
X179963469Y-74909352D01*
X180713241Y-74910006D01*
X181406191Y-74623686D01*
X181936822Y-74093979D01*
X181985188Y-73977500D01*
X184023000Y-73977500D01*
X184023000Y-78994000D01*
X184023000Y-78994000D01*
G37*
X184023000Y-78994000D02*
X166985006Y-78994000D01*
X166985006Y-72651759D01*
X166698686Y-71958809D01*
X166168979Y-71428178D01*
X165476531Y-71140648D01*
X164726759Y-71139994D01*
X164033809Y-71426314D01*
X163503178Y-71956021D01*
X163215648Y-72648469D01*
X163214994Y-73398241D01*
X163501314Y-74091191D01*
X164031021Y-74621822D01*
X164723469Y-74909352D01*
X165473241Y-74910006D01*
X166166191Y-74623686D01*
X166696822Y-74093979D01*
X166984352Y-73401531D01*
X166985006Y-72651759D01*
X166985006Y-78994000D01*
X161417000Y-78994000D01*
X161417000Y-59309000D01*
X184023000Y-59309000D01*
X184023000Y-71677962D01*
X183628462Y-72072500D01*
X182237120Y-72072500D01*
X182237120Y-66654680D01*
X182237120Y-64155320D01*
X182190143Y-63913197D01*
X182050353Y-63700393D01*
X181839320Y-63557943D01*
X181589680Y-63507880D01*
X179090320Y-63507880D01*
X178848197Y-63554857D01*
X178635393Y-63694647D01*
X178492943Y-63905680D01*
X178442880Y-64155320D01*
X178442880Y-66654680D01*
X178489857Y-66896803D01*
X178629647Y-67109607D01*
X178840680Y-67252057D01*
X179090320Y-67302120D01*
X181589680Y-67302120D01*
X181831803Y-67255143D01*
X182044607Y-67115353D01*
X182187057Y-66904320D01*
X182237120Y-66654680D01*
X182237120Y-72072500D01*
X181985661Y-72072500D01*
X181938686Y-71958809D01*
X181408979Y-71428178D01*
X180716531Y-71140648D01*
X179966759Y-71139994D01*
X179273809Y-71426314D01*
X178743178Y-71956021D01*
X178455648Y-72648469D01*
X178454994Y-73398241D01*
X178741314Y-74091191D01*
X179271021Y-74621822D01*
X179963469Y-74909352D01*
X180713241Y-74910006D01*
X181406191Y-74623686D01*
X181936822Y-74093979D01*
X181985188Y-73977500D01*
X184023000Y-73977500D01*
X184023000Y-78994000D01*
M02*
