%TF.FileFunction,Copper,L2,Bot,Signal*%
%FSLAX46Y46*%
G04 Gerber Fmt 4.6, Leading zero omitted, Abs format (unit mm)*
G04 Created by KiCad (PCBNEW (2014-12-04 BZR 5312)-product) date Wed 04 Feb 2015 08:31:08 AM CET*
%MOMM*%
G01*
G04 APERTURE LIST*
%ADD10C,0.100000*%
%ADD11C,0.300000*%
%ADD12R,1.727200X1.727200*%
%ADD13O,1.727200X1.727200*%
%ADD14C,1.397000*%
%ADD15R,1.574800X2.286000*%
%ADD16O,1.574800X2.286000*%
%ADD17R,2.499360X2.499360*%
%ADD18C,2.499360*%
%ADD19C,1.501140*%
%ADD20C,5.001260*%
%ADD21O,1.998980X1.501140*%
%ADD22C,0.889000*%
%ADD23C,0.635000*%
%ADD24C,0.254000*%
G04 APERTURE END LIST*
D10*
D11*
X87922857Y-139592857D02*
X87708571Y-139664286D01*
X87637143Y-139735714D01*
X87565714Y-139878571D01*
X87565714Y-140092857D01*
X87637143Y-140235714D01*
X87708571Y-140307143D01*
X87851429Y-140378571D01*
X88422857Y-140378571D01*
X88422857Y-138878571D01*
X87922857Y-138878571D01*
X87780000Y-138950000D01*
X87708571Y-139021429D01*
X87637143Y-139164286D01*
X87637143Y-139307143D01*
X87708571Y-139450000D01*
X87780000Y-139521429D01*
X87922857Y-139592857D01*
X88422857Y-139592857D01*
X86708571Y-140378571D02*
X86851429Y-140307143D01*
X86922857Y-140235714D01*
X86994286Y-140092857D01*
X86994286Y-139664286D01*
X86922857Y-139521429D01*
X86851429Y-139450000D01*
X86708571Y-139378571D01*
X86494286Y-139378571D01*
X86351429Y-139450000D01*
X86280000Y-139521429D01*
X86208571Y-139664286D01*
X86208571Y-140092857D01*
X86280000Y-140235714D01*
X86351429Y-140307143D01*
X86494286Y-140378571D01*
X86708571Y-140378571D01*
X85780000Y-139378571D02*
X85208571Y-139378571D01*
X85565714Y-138878571D02*
X85565714Y-140164286D01*
X85494286Y-140307143D01*
X85351428Y-140378571D01*
X85208571Y-140378571D01*
X84922857Y-139378571D02*
X84351428Y-139378571D01*
X84708571Y-138878571D02*
X84708571Y-140164286D01*
X84637143Y-140307143D01*
X84494285Y-140378571D01*
X84351428Y-140378571D01*
X83637142Y-140378571D02*
X83780000Y-140307143D01*
X83851428Y-140235714D01*
X83922857Y-140092857D01*
X83922857Y-139664286D01*
X83851428Y-139521429D01*
X83780000Y-139450000D01*
X83637142Y-139378571D01*
X83422857Y-139378571D01*
X83280000Y-139450000D01*
X83208571Y-139521429D01*
X83137142Y-139664286D01*
X83137142Y-140092857D01*
X83208571Y-140235714D01*
X83280000Y-140307143D01*
X83422857Y-140378571D01*
X83637142Y-140378571D01*
X82494285Y-140378571D02*
X82494285Y-139378571D01*
X82494285Y-139521429D02*
X82422857Y-139450000D01*
X82279999Y-139378571D01*
X82065714Y-139378571D01*
X81922857Y-139450000D01*
X81851428Y-139592857D01*
X81851428Y-140378571D01*
X81851428Y-139592857D02*
X81779999Y-139450000D01*
X81637142Y-139378571D01*
X81422857Y-139378571D01*
X81279999Y-139450000D01*
X81208571Y-139592857D01*
X81208571Y-140378571D01*
X78637142Y-140378571D02*
X79351428Y-140378571D01*
X79351428Y-138878571D01*
X77494285Y-140378571D02*
X77494285Y-139592857D01*
X77565714Y-139450000D01*
X77708571Y-139378571D01*
X77994285Y-139378571D01*
X78137142Y-139450000D01*
X77494285Y-140307143D02*
X77637142Y-140378571D01*
X77994285Y-140378571D01*
X78137142Y-140307143D01*
X78208571Y-140164286D01*
X78208571Y-140021429D01*
X78137142Y-139878571D01*
X77994285Y-139807143D01*
X77637142Y-139807143D01*
X77494285Y-139735714D01*
X76922856Y-139378571D02*
X76565713Y-140378571D01*
X76208571Y-139378571D02*
X76565713Y-140378571D01*
X76708571Y-140735714D01*
X76779999Y-140807143D01*
X76922856Y-140878571D01*
X75065714Y-140307143D02*
X75208571Y-140378571D01*
X75494285Y-140378571D01*
X75637142Y-140307143D01*
X75708571Y-140164286D01*
X75708571Y-139592857D01*
X75637142Y-139450000D01*
X75494285Y-139378571D01*
X75208571Y-139378571D01*
X75065714Y-139450000D01*
X74994285Y-139592857D01*
X74994285Y-139735714D01*
X75708571Y-139878571D01*
X74351428Y-140378571D02*
X74351428Y-139378571D01*
X74351428Y-139664286D02*
X74280000Y-139521429D01*
X74208571Y-139450000D01*
X74065714Y-139378571D01*
X73922857Y-139378571D01*
D12*
X215265000Y-65405000D03*
D13*
X217805000Y-65405000D03*
X215265000Y-67945000D03*
X217805000Y-67945000D03*
X215265000Y-70485000D03*
X217805000Y-70485000D03*
X215265000Y-73025000D03*
X217805000Y-73025000D03*
X215265000Y-75565000D03*
X217805000Y-75565000D03*
X215265000Y-78105000D03*
X217805000Y-78105000D03*
X215265000Y-80645000D03*
X217805000Y-80645000D03*
X215265000Y-83185000D03*
X217805000Y-83185000D03*
X215265000Y-85725000D03*
X217805000Y-85725000D03*
X215265000Y-88265000D03*
X217805000Y-88265000D03*
X215265000Y-90805000D03*
X217805000Y-90805000D03*
X215265000Y-93345000D03*
X217805000Y-93345000D03*
X215265000Y-95885000D03*
X217805000Y-95885000D03*
X215265000Y-98425000D03*
X217805000Y-98425000D03*
X215265000Y-100965000D03*
X217805000Y-100965000D03*
X215265000Y-103505000D03*
X217805000Y-103505000D03*
X215265000Y-106045000D03*
X217805000Y-106045000D03*
X215265000Y-108585000D03*
X217805000Y-108585000D03*
X215265000Y-111125000D03*
X217805000Y-111125000D03*
X215265000Y-113665000D03*
X217805000Y-113665000D03*
X215265000Y-116205000D03*
X217805000Y-116205000D03*
X215265000Y-118745000D03*
X217805000Y-118745000D03*
X215265000Y-121285000D03*
X217805000Y-121285000D03*
X215265000Y-123825000D03*
X217805000Y-123825000D03*
X215265000Y-126365000D03*
X217805000Y-126365000D03*
D14*
X207645000Y-73025000D03*
X207645000Y-70485000D03*
X207772000Y-99060000D03*
X207772000Y-96520000D03*
X200660000Y-53594000D03*
X200660000Y-61214000D03*
X86360000Y-93980000D03*
X86360000Y-86360000D03*
D15*
X203200000Y-83820000D03*
D16*
X200660000Y-83820000D03*
X198120000Y-83820000D03*
X195580000Y-83820000D03*
X193040000Y-83820000D03*
X190500000Y-83820000D03*
X187960000Y-83820000D03*
X185420000Y-83820000D03*
X182880000Y-83820000D03*
X180340000Y-83820000D03*
X177800000Y-83820000D03*
X175260000Y-83820000D03*
X172720000Y-83820000D03*
X170180000Y-83820000D03*
X167640000Y-83820000D03*
X165100000Y-83820000D03*
X162560000Y-83820000D03*
X160020000Y-83820000D03*
X157480000Y-83820000D03*
X154940000Y-83820000D03*
X154940000Y-99060000D03*
X157480000Y-99060000D03*
X160020000Y-99060000D03*
X162560000Y-99060000D03*
X165100000Y-99060000D03*
X167640000Y-99060000D03*
X170180000Y-99060000D03*
X172720000Y-99060000D03*
X175260000Y-99060000D03*
X177800000Y-99060000D03*
X180340000Y-99060000D03*
X182880000Y-99060000D03*
X185420000Y-99060000D03*
X187960000Y-99060000D03*
X190500000Y-99060000D03*
X193040000Y-99060000D03*
X195580000Y-99060000D03*
X198120000Y-99060000D03*
X200660000Y-99060000D03*
X203200000Y-99060000D03*
D15*
X203200000Y-65405000D03*
D16*
X200660000Y-65405000D03*
X198120000Y-65405000D03*
X195580000Y-65405000D03*
X193040000Y-65405000D03*
X190500000Y-65405000D03*
X187960000Y-65405000D03*
X187960000Y-73025000D03*
X190500000Y-73025000D03*
X193040000Y-73025000D03*
X195580000Y-73025000D03*
X198120000Y-73025000D03*
X200660000Y-73025000D03*
X203200000Y-73025000D03*
D15*
X109855000Y-91440000D03*
D16*
X107315000Y-91440000D03*
X104775000Y-91440000D03*
X102235000Y-91440000D03*
X99695000Y-91440000D03*
X97155000Y-91440000D03*
X94615000Y-91440000D03*
X92075000Y-91440000D03*
X92075000Y-99060000D03*
X94615000Y-99060000D03*
X97155000Y-99060000D03*
X99695000Y-99060000D03*
X102235000Y-99060000D03*
X104775000Y-99060000D03*
X107315000Y-99060000D03*
X109855000Y-99060000D03*
D17*
X180340000Y-65405000D03*
D18*
X165100000Y-65405000D03*
X165100000Y-73025000D03*
X180340000Y-73025000D03*
D19*
X107315000Y-85090000D03*
X109855000Y-85090000D03*
X99695000Y-85090000D03*
X102235000Y-85090000D03*
X117475000Y-85090000D03*
X114935000Y-85090000D03*
X107315000Y-104775000D03*
X109855000Y-104775000D03*
X209042000Y-126365000D03*
X209042000Y-122555000D03*
X94615000Y-85090000D03*
X92075000Y-85090000D03*
D20*
X79502000Y-103934260D03*
D21*
X81020920Y-91440000D03*
X81020920Y-94211140D03*
X81020920Y-96979740D03*
X81020920Y-88668860D03*
X81020920Y-85900260D03*
X77983080Y-87284560D03*
X77983080Y-90055700D03*
X77983080Y-92824300D03*
X77983080Y-95595440D03*
D20*
X79502000Y-78945740D03*
D22*
X167640000Y-94742000D03*
X182880000Y-106426000D03*
X193040000Y-107315000D03*
D23*
X90805000Y-83820000D02*
X64770000Y-83820000D01*
X92075000Y-85090000D02*
X90805000Y-83820000D01*
X80772000Y-96979740D02*
X65229740Y-96979740D01*
X157480000Y-83820000D02*
X157480000Y-73025000D01*
X157480000Y-73025000D02*
X165100000Y-65405000D01*
X165100000Y-65405000D02*
X165100000Y-48895000D01*
X187960000Y-65405000D02*
X187960000Y-49276000D01*
X107315000Y-99060000D02*
X107315000Y-102870000D01*
X107315000Y-102870000D02*
X107315000Y-104775000D01*
X154940000Y-83820000D02*
X157480000Y-83820000D01*
X217932000Y-103632000D02*
X219202000Y-103632000D01*
X217805000Y-103505000D02*
X217932000Y-103632000D01*
X215265000Y-103505000D02*
X217805000Y-103505000D01*
X157480000Y-99415600D02*
X157480000Y-99060000D01*
X154940000Y-91948000D02*
X154940000Y-83820000D01*
X157734000Y-94742000D02*
X154940000Y-91948000D01*
X157480000Y-95264860D02*
X158002860Y-94742000D01*
X157480000Y-99060000D02*
X157480000Y-95264860D01*
X158002860Y-94742000D02*
X157734000Y-94742000D01*
X167640000Y-94742000D02*
X158002860Y-94742000D01*
X209042000Y-126365000D02*
X215265000Y-126365000D01*
X215265000Y-118745000D02*
X206756000Y-118745000D01*
X203200000Y-115189000D02*
X203200000Y-99060000D01*
X206756000Y-118745000D02*
X203200000Y-115189000D01*
X172720000Y-83820000D02*
X175260000Y-83820000D01*
X175260000Y-83820000D02*
X175260000Y-75438000D01*
X175260000Y-75438000D02*
X177673000Y-73025000D01*
X177673000Y-73025000D02*
X180340000Y-73025000D01*
X109855000Y-104775000D02*
X109855000Y-99060000D01*
X109855000Y-99060000D02*
X117475000Y-91440000D01*
X117475000Y-91440000D02*
X117475000Y-85090000D01*
X195580000Y-99060000D02*
X198120000Y-99060000D01*
X198120000Y-99060000D02*
X200660000Y-99060000D01*
X200660000Y-99060000D02*
X203200000Y-99060000D01*
X203200000Y-73025000D02*
X207645000Y-73025000D01*
X207645000Y-73025000D02*
X215265000Y-65405000D01*
X203200000Y-99060000D02*
X207772000Y-99060000D01*
X209042000Y-122555000D02*
X211582000Y-122555000D01*
X211582000Y-122555000D02*
X212852000Y-121285000D01*
X212852000Y-121285000D02*
X215265000Y-121285000D01*
X215265000Y-121285000D02*
X217805000Y-121285000D01*
X217805000Y-118745000D02*
X217805000Y-121285000D01*
X215265000Y-118745000D02*
X217805000Y-118745000D01*
D24*
X200660000Y-61214000D02*
X200660000Y-65405000D01*
X190500000Y-98704400D02*
X190500000Y-99060000D01*
X199390000Y-89814400D02*
X190500000Y-98704400D01*
X199390000Y-69215000D02*
X199390000Y-89814400D01*
X200660000Y-67945000D02*
X199390000Y-69215000D01*
X200660000Y-65405000D02*
X200660000Y-67945000D01*
X167640000Y-83820000D02*
X167640000Y-84175600D01*
X167640000Y-84175600D02*
X169443400Y-85979000D01*
X169443400Y-85979000D02*
X181076600Y-85979000D01*
X181076600Y-85979000D02*
X182880000Y-84175600D01*
X182880000Y-84175600D02*
X182880000Y-83820000D01*
X165100000Y-73025000D02*
X165100000Y-83820000D01*
X198120000Y-65405000D02*
X198120000Y-65760600D01*
X198120000Y-65760600D02*
X194310000Y-69570600D01*
X194310000Y-69570600D02*
X194310000Y-84557981D01*
X194310000Y-84557981D02*
X187808981Y-91059000D01*
X187808981Y-91059000D02*
X185445400Y-91059000D01*
X185445400Y-91059000D02*
X177800000Y-98704400D01*
X177800000Y-98704400D02*
X177800000Y-99060000D01*
X182880000Y-99060000D02*
X182880000Y-106426000D01*
X193040000Y-107315000D02*
X193040000Y-99060000D01*
G36*
X221565000Y-145365000D02*
X219303600Y-145365000D01*
X219303600Y-121314359D01*
X219303600Y-121255641D01*
X219202000Y-120744863D01*
X219202000Y-119285136D01*
X219303600Y-118774359D01*
X219303600Y-118715641D01*
X219202000Y-118204863D01*
X219202000Y-116745136D01*
X219303600Y-116234359D01*
X219303600Y-116175641D01*
X219202000Y-115664863D01*
X219202000Y-114205136D01*
X219303600Y-113694359D01*
X219303600Y-113635641D01*
X219202000Y-113124863D01*
X219202000Y-111665136D01*
X219303600Y-111154359D01*
X219303600Y-111095641D01*
X219202000Y-110584863D01*
X219202000Y-109125136D01*
X219303600Y-108614359D01*
X219303600Y-108555641D01*
X219202000Y-108044863D01*
X219202000Y-106585136D01*
X219303600Y-106074359D01*
X219303600Y-106015641D01*
X219202000Y-105504863D01*
X219202000Y-101505136D01*
X219303600Y-100994359D01*
X219303600Y-100935641D01*
X219202000Y-100424863D01*
X219202000Y-98965136D01*
X219303600Y-98454359D01*
X219303600Y-98395641D01*
X219202000Y-97884863D01*
X219202000Y-96425136D01*
X219303600Y-95914359D01*
X219303600Y-95855641D01*
X219202000Y-95344863D01*
X219202000Y-93885136D01*
X219303600Y-93374359D01*
X219303600Y-93315641D01*
X219202000Y-92804863D01*
X219202000Y-91345136D01*
X219303600Y-90834359D01*
X219303600Y-90775641D01*
X219202000Y-90264863D01*
X219202000Y-88805136D01*
X219303600Y-88294359D01*
X219303600Y-88235641D01*
X219202000Y-87724863D01*
X219202000Y-86265136D01*
X219303600Y-85754359D01*
X219303600Y-85695641D01*
X219202000Y-85184863D01*
X219202000Y-83725136D01*
X219303600Y-83214359D01*
X219303600Y-83155641D01*
X219202000Y-82644863D01*
X219202000Y-81185136D01*
X219303600Y-80674359D01*
X219303600Y-80615641D01*
X219202000Y-80104863D01*
X219202000Y-78645136D01*
X219303600Y-78134359D01*
X219303600Y-78075641D01*
X219202000Y-77564863D01*
X219202000Y-76105136D01*
X219303600Y-75594359D01*
X219303600Y-75535641D01*
X219202000Y-75024863D01*
X219202000Y-73565136D01*
X219303600Y-73054359D01*
X219303600Y-72995641D01*
X219202000Y-72484863D01*
X219202000Y-71025136D01*
X219303600Y-70514359D01*
X219303600Y-70455641D01*
X219202000Y-69944863D01*
X219202000Y-68485136D01*
X219303600Y-67974359D01*
X219303600Y-67915641D01*
X219202000Y-67404863D01*
X219202000Y-65945136D01*
X219303600Y-65434359D01*
X219303600Y-65375641D01*
X219202000Y-64864863D01*
X219202000Y-49403000D01*
X184023000Y-49403000D01*
X184023000Y-78994000D01*
X182237120Y-78994000D01*
X182237120Y-66654680D01*
X182237120Y-64155320D01*
X182190143Y-63913197D01*
X182050353Y-63700393D01*
X181839320Y-63557943D01*
X181589680Y-63507880D01*
X179090320Y-63507880D01*
X178848197Y-63554857D01*
X178635393Y-63694647D01*
X178492943Y-63905680D01*
X178442880Y-64155320D01*
X178442880Y-66654680D01*
X178489857Y-66896803D01*
X178629647Y-67109607D01*
X178840680Y-67252057D01*
X179090320Y-67302120D01*
X181589680Y-67302120D01*
X181831803Y-67255143D01*
X182044607Y-67115353D01*
X182187057Y-66904320D01*
X182237120Y-66654680D01*
X182237120Y-78994000D01*
X176212500Y-78994000D01*
X176212500Y-75832538D01*
X178067538Y-73977500D01*
X178694338Y-73977500D01*
X178741314Y-74091191D01*
X179271021Y-74621822D01*
X179963469Y-74909352D01*
X180713241Y-74910006D01*
X181406191Y-74623686D01*
X181936822Y-74093979D01*
X182224352Y-73401531D01*
X182225006Y-72651759D01*
X181938686Y-71958809D01*
X181408979Y-71428178D01*
X180716531Y-71140648D01*
X179966759Y-71139994D01*
X179273809Y-71426314D01*
X178743178Y-71956021D01*
X178694811Y-72072500D01*
X177673000Y-72072500D01*
X177308494Y-72145005D01*
X176999481Y-72351481D01*
X174586481Y-74764481D01*
X174380005Y-75073494D01*
X174307500Y-75438000D01*
X174307500Y-78994000D01*
X165862000Y-78994000D01*
X165862000Y-74749374D01*
X166166191Y-74623686D01*
X166696822Y-74093979D01*
X166984352Y-73401531D01*
X166985006Y-72651759D01*
X166698686Y-71958809D01*
X166168979Y-71428178D01*
X165476531Y-71140648D01*
X164726759Y-71139994D01*
X164033809Y-71426314D01*
X163503178Y-71956021D01*
X163215648Y-72648469D01*
X163214994Y-73398241D01*
X163501314Y-74091191D01*
X164031021Y-74621822D01*
X164338000Y-74749291D01*
X164338000Y-78994000D01*
X161417000Y-78994000D01*
X161417000Y-49403000D01*
X65278000Y-49403000D01*
X65278000Y-142367000D01*
X219202000Y-142367000D01*
X219202000Y-127381000D01*
X214249000Y-127381000D01*
X214249000Y-122809000D01*
X215245096Y-122809000D01*
X215265000Y-122812959D01*
X215284903Y-122809000D01*
X217785096Y-122809000D01*
X217805000Y-122812959D01*
X217824903Y-122809000D01*
X219202000Y-122809000D01*
X219202000Y-121825136D01*
X219303600Y-121314359D01*
X219303600Y-145365000D01*
X62915000Y-145365000D01*
X62915000Y-46405000D01*
X221565000Y-46405000D01*
X221565000Y-145365000D01*
X221565000Y-145365000D01*
G37*
X221565000Y-145365000D02*
X219303600Y-145365000D01*
X219303600Y-121314359D01*
X219303600Y-121255641D01*
X219202000Y-120744863D01*
X219202000Y-119285136D01*
X219303600Y-118774359D01*
X219303600Y-118715641D01*
X219202000Y-118204863D01*
X219202000Y-116745136D01*
X219303600Y-116234359D01*
X219303600Y-116175641D01*
X219202000Y-115664863D01*
X219202000Y-114205136D01*
X219303600Y-113694359D01*
X219303600Y-113635641D01*
X219202000Y-113124863D01*
X219202000Y-111665136D01*
X219303600Y-111154359D01*
X219303600Y-111095641D01*
X219202000Y-110584863D01*
X219202000Y-109125136D01*
X219303600Y-108614359D01*
X219303600Y-108555641D01*
X219202000Y-108044863D01*
X219202000Y-106585136D01*
X219303600Y-106074359D01*
X219303600Y-106015641D01*
X219202000Y-105504863D01*
X219202000Y-101505136D01*
X219303600Y-100994359D01*
X219303600Y-100935641D01*
X219202000Y-100424863D01*
X219202000Y-98965136D01*
X219303600Y-98454359D01*
X219303600Y-98395641D01*
X219202000Y-97884863D01*
X219202000Y-96425136D01*
X219303600Y-95914359D01*
X219303600Y-95855641D01*
X219202000Y-95344863D01*
X219202000Y-93885136D01*
X219303600Y-93374359D01*
X219303600Y-93315641D01*
X219202000Y-92804863D01*
X219202000Y-91345136D01*
X219303600Y-90834359D01*
X219303600Y-90775641D01*
X219202000Y-90264863D01*
X219202000Y-88805136D01*
X219303600Y-88294359D01*
X219303600Y-88235641D01*
X219202000Y-87724863D01*
X219202000Y-86265136D01*
X219303600Y-85754359D01*
X219303600Y-85695641D01*
X219202000Y-85184863D01*
X219202000Y-83725136D01*
X219303600Y-83214359D01*
X219303600Y-83155641D01*
X219202000Y-82644863D01*
X219202000Y-81185136D01*
X219303600Y-80674359D01*
X219303600Y-80615641D01*
X219202000Y-80104863D01*
X219202000Y-78645136D01*
X219303600Y-78134359D01*
X219303600Y-78075641D01*
X219202000Y-77564863D01*
X219202000Y-76105136D01*
X219303600Y-75594359D01*
X219303600Y-75535641D01*
X219202000Y-75024863D01*
X219202000Y-73565136D01*
X219303600Y-73054359D01*
X219303600Y-72995641D01*
X219202000Y-72484863D01*
X219202000Y-71025136D01*
X219303600Y-70514359D01*
X219303600Y-70455641D01*
X219202000Y-69944863D01*
X219202000Y-68485136D01*
X219303600Y-67974359D01*
X219303600Y-67915641D01*
X219202000Y-67404863D01*
X219202000Y-65945136D01*
X219303600Y-65434359D01*
X219303600Y-65375641D01*
X219202000Y-64864863D01*
X219202000Y-49403000D01*
X184023000Y-49403000D01*
X184023000Y-78994000D01*
X182237120Y-78994000D01*
X182237120Y-66654680D01*
X182237120Y-64155320D01*
X182190143Y-63913197D01*
X182050353Y-63700393D01*
X181839320Y-63557943D01*
X181589680Y-63507880D01*
X179090320Y-63507880D01*
X178848197Y-63554857D01*
X178635393Y-63694647D01*
X178492943Y-63905680D01*
X178442880Y-64155320D01*
X178442880Y-66654680D01*
X178489857Y-66896803D01*
X178629647Y-67109607D01*
X178840680Y-67252057D01*
X179090320Y-67302120D01*
X181589680Y-67302120D01*
X181831803Y-67255143D01*
X182044607Y-67115353D01*
X182187057Y-66904320D01*
X182237120Y-66654680D01*
X182237120Y-78994000D01*
X176212500Y-78994000D01*
X176212500Y-75832538D01*
X178067538Y-73977500D01*
X178694338Y-73977500D01*
X178741314Y-74091191D01*
X179271021Y-74621822D01*
X179963469Y-74909352D01*
X180713241Y-74910006D01*
X181406191Y-74623686D01*
X181936822Y-74093979D01*
X182224352Y-73401531D01*
X182225006Y-72651759D01*
X181938686Y-71958809D01*
X181408979Y-71428178D01*
X180716531Y-71140648D01*
X179966759Y-71139994D01*
X179273809Y-71426314D01*
X178743178Y-71956021D01*
X178694811Y-72072500D01*
X177673000Y-72072500D01*
X177308494Y-72145005D01*
X176999481Y-72351481D01*
X174586481Y-74764481D01*
X174380005Y-75073494D01*
X174307500Y-75438000D01*
X174307500Y-78994000D01*
X165862000Y-78994000D01*
X165862000Y-74749374D01*
X166166191Y-74623686D01*
X166696822Y-74093979D01*
X166984352Y-73401531D01*
X166985006Y-72651759D01*
X166698686Y-71958809D01*
X166168979Y-71428178D01*
X165476531Y-71140648D01*
X164726759Y-71139994D01*
X164033809Y-71426314D01*
X163503178Y-71956021D01*
X163215648Y-72648469D01*
X163214994Y-73398241D01*
X163501314Y-74091191D01*
X164031021Y-74621822D01*
X164338000Y-74749291D01*
X164338000Y-78994000D01*
X161417000Y-78994000D01*
X161417000Y-49403000D01*
X65278000Y-49403000D01*
X65278000Y-142367000D01*
X219202000Y-142367000D01*
X219202000Y-127381000D01*
X214249000Y-127381000D01*
X214249000Y-122809000D01*
X215245096Y-122809000D01*
X215265000Y-122812959D01*
X215284903Y-122809000D01*
X217785096Y-122809000D01*
X217805000Y-122812959D01*
X217824903Y-122809000D01*
X219202000Y-122809000D01*
X219202000Y-121825136D01*
X219303600Y-121314359D01*
X219303600Y-145365000D01*
X62915000Y-145365000D01*
X62915000Y-46405000D01*
X221565000Y-46405000D01*
X221565000Y-145365000D01*
G36*
X217952000Y-103632000D02*
X217932000Y-103632000D01*
X217932000Y-103652000D01*
X217678000Y-103652000D01*
X217678000Y-103632000D01*
X216599469Y-103632000D01*
X216470531Y-103632000D01*
X215392000Y-103632000D01*
X215392000Y-103652000D01*
X215138000Y-103652000D01*
X215138000Y-103632000D01*
X213930531Y-103632000D01*
X213810032Y-103864027D01*
X214058179Y-104393490D01*
X214476160Y-104775007D01*
X214205330Y-104955971D01*
X213880474Y-105442152D01*
X213766400Y-106015641D01*
X213766400Y-106074359D01*
X213880474Y-106647848D01*
X214205330Y-107134029D01*
X214476172Y-107315000D01*
X214205330Y-107495971D01*
X213880474Y-107982152D01*
X213766400Y-108555641D01*
X213766400Y-108614359D01*
X213880474Y-109187848D01*
X214205330Y-109674029D01*
X214476172Y-109855000D01*
X214205330Y-110035971D01*
X213880474Y-110522152D01*
X213766400Y-111095641D01*
X213766400Y-111154359D01*
X213880474Y-111727848D01*
X214205330Y-112214029D01*
X214476172Y-112395000D01*
X214205330Y-112575971D01*
X213880474Y-113062152D01*
X213766400Y-113635641D01*
X213766400Y-113694359D01*
X213880474Y-114267848D01*
X214205330Y-114754029D01*
X214476172Y-114935000D01*
X214205330Y-115115971D01*
X213880474Y-115602152D01*
X213766400Y-116175641D01*
X213766400Y-116234359D01*
X213880474Y-116807848D01*
X214205330Y-117294029D01*
X214476172Y-117475000D01*
X214205330Y-117655971D01*
X214114104Y-117792500D01*
X209117927Y-117792500D01*
X209117927Y-96712520D01*
X209089148Y-96182801D01*
X208941800Y-95827071D01*
X208706188Y-95765417D01*
X208526583Y-95945022D01*
X208526583Y-95585812D01*
X208464929Y-95350200D01*
X207964520Y-95174073D01*
X207434801Y-95202852D01*
X207079071Y-95350200D01*
X207017417Y-95585812D01*
X207772000Y-96340395D01*
X208526583Y-95585812D01*
X208526583Y-95945022D01*
X207951605Y-96520000D01*
X208706188Y-97274583D01*
X208941800Y-97212929D01*
X209117927Y-96712520D01*
X209117927Y-117792500D01*
X207150538Y-117792500D01*
X204152500Y-114794461D01*
X204152500Y-100491828D01*
X204205789Y-100456222D01*
X204502273Y-100012500D01*
X206838628Y-100012500D01*
X207015647Y-100189827D01*
X207505587Y-100393268D01*
X208036086Y-100393731D01*
X208526380Y-100191146D01*
X208901827Y-99816353D01*
X209105268Y-99326413D01*
X209105731Y-98795914D01*
X208903146Y-98305620D01*
X208528353Y-97930173D01*
X208206881Y-97796686D01*
X208464929Y-97689800D01*
X208526583Y-97454188D01*
X207772000Y-96699605D01*
X207592395Y-96879210D01*
X207592395Y-96520000D01*
X206837812Y-95765417D01*
X206602200Y-95827071D01*
X206426073Y-96327480D01*
X206454852Y-96857199D01*
X206602200Y-97212929D01*
X206837812Y-97274583D01*
X207592395Y-96520000D01*
X207592395Y-96879210D01*
X207017417Y-97454188D01*
X207079071Y-97689800D01*
X207358311Y-97788083D01*
X207017620Y-97928854D01*
X206838662Y-98107500D01*
X204502273Y-98107500D01*
X204205789Y-97663778D01*
X203744329Y-97355441D01*
X203200000Y-97247167D01*
X202655671Y-97355441D01*
X202194211Y-97663778D01*
X201930000Y-98059198D01*
X201665789Y-97663778D01*
X201204329Y-97355441D01*
X200660000Y-97247167D01*
X200115671Y-97355441D01*
X199654211Y-97663778D01*
X199390000Y-98059198D01*
X199125789Y-97663778D01*
X198664329Y-97355441D01*
X198120000Y-97247167D01*
X197575671Y-97355441D01*
X197114211Y-97663778D01*
X196850000Y-98059198D01*
X196585789Y-97663778D01*
X196124329Y-97355441D01*
X195580000Y-97247167D01*
X195035671Y-97355441D01*
X194574211Y-97663778D01*
X194310000Y-98059198D01*
X194045789Y-97663778D01*
X193584329Y-97355441D01*
X193040000Y-97247167D01*
X193033587Y-97248442D01*
X199928815Y-90353215D01*
X199928816Y-90353215D01*
X200093996Y-90106005D01*
X200093997Y-90106004D01*
X200152000Y-89814400D01*
X200152000Y-85531785D01*
X200660000Y-85632833D01*
X201204329Y-85524559D01*
X201665789Y-85216222D01*
X201780873Y-85043986D01*
X201812137Y-85205123D01*
X201951927Y-85417927D01*
X202162960Y-85560377D01*
X202412600Y-85610440D01*
X203987400Y-85610440D01*
X204229523Y-85563463D01*
X204442327Y-85423673D01*
X204584777Y-85212640D01*
X204634840Y-84963000D01*
X204634840Y-82677000D01*
X204587863Y-82434877D01*
X204448073Y-82222073D01*
X204237040Y-82079623D01*
X203987400Y-82029560D01*
X202412600Y-82029560D01*
X202170477Y-82076537D01*
X201957673Y-82216327D01*
X201815223Y-82427360D01*
X201781279Y-82596621D01*
X201665789Y-82423778D01*
X201204329Y-82115441D01*
X200660000Y-82007167D01*
X200152000Y-82108214D01*
X200152000Y-74736785D01*
X200660000Y-74837833D01*
X201204329Y-74729559D01*
X201665789Y-74421222D01*
X201930000Y-74025801D01*
X202194211Y-74421222D01*
X202655671Y-74729559D01*
X203200000Y-74837833D01*
X203744329Y-74729559D01*
X204205789Y-74421222D01*
X204502273Y-73977500D01*
X206711628Y-73977500D01*
X206888647Y-74154827D01*
X207378587Y-74358268D01*
X207909086Y-74358731D01*
X208399380Y-74156146D01*
X208774827Y-73781353D01*
X208978268Y-73291413D01*
X208978488Y-73038549D01*
X213812237Y-68204800D01*
X213880474Y-68547848D01*
X214205330Y-69034029D01*
X214476172Y-69215000D01*
X214205330Y-69395971D01*
X213880474Y-69882152D01*
X213766400Y-70455641D01*
X213766400Y-70514359D01*
X213880474Y-71087848D01*
X214205330Y-71574029D01*
X214476172Y-71755000D01*
X214205330Y-71935971D01*
X213880474Y-72422152D01*
X213766400Y-72995641D01*
X213766400Y-73054359D01*
X213880474Y-73627848D01*
X214205330Y-74114029D01*
X214476172Y-74295000D01*
X214205330Y-74475971D01*
X213880474Y-74962152D01*
X213766400Y-75535641D01*
X213766400Y-75594359D01*
X213880474Y-76167848D01*
X214205330Y-76654029D01*
X214476172Y-76835000D01*
X214205330Y-77015971D01*
X213880474Y-77502152D01*
X213766400Y-78075641D01*
X213766400Y-78134359D01*
X213880474Y-78707848D01*
X214205330Y-79194029D01*
X214476172Y-79375000D01*
X214205330Y-79555971D01*
X213880474Y-80042152D01*
X213766400Y-80615641D01*
X213766400Y-80674359D01*
X213880474Y-81247848D01*
X214205330Y-81734029D01*
X214476172Y-81915000D01*
X214205330Y-82095971D01*
X213880474Y-82582152D01*
X213766400Y-83155641D01*
X213766400Y-83214359D01*
X213880474Y-83787848D01*
X214205330Y-84274029D01*
X214476172Y-84455000D01*
X214205330Y-84635971D01*
X213880474Y-85122152D01*
X213766400Y-85695641D01*
X213766400Y-85754359D01*
X213880474Y-86327848D01*
X214205330Y-86814029D01*
X214476172Y-86995000D01*
X214205330Y-87175971D01*
X213880474Y-87662152D01*
X213766400Y-88235641D01*
X213766400Y-88294359D01*
X213880474Y-88867848D01*
X214205330Y-89354029D01*
X214476172Y-89535000D01*
X214205330Y-89715971D01*
X213880474Y-90202152D01*
X213766400Y-90775641D01*
X213766400Y-90834359D01*
X213880474Y-91407848D01*
X214205330Y-91894029D01*
X214476172Y-92075000D01*
X214205330Y-92255971D01*
X213880474Y-92742152D01*
X213766400Y-93315641D01*
X213766400Y-93374359D01*
X213880474Y-93947848D01*
X214205330Y-94434029D01*
X214476172Y-94615000D01*
X214205330Y-94795971D01*
X213880474Y-95282152D01*
X213766400Y-95855641D01*
X213766400Y-95914359D01*
X213880474Y-96487848D01*
X214205330Y-96974029D01*
X214476172Y-97155000D01*
X214205330Y-97335971D01*
X213880474Y-97822152D01*
X213766400Y-98395641D01*
X213766400Y-98454359D01*
X213880474Y-99027848D01*
X214205330Y-99514029D01*
X214476172Y-99695000D01*
X214205330Y-99875971D01*
X213880474Y-100362152D01*
X213766400Y-100935641D01*
X213766400Y-100994359D01*
X213880474Y-101567848D01*
X214205330Y-102054029D01*
X214476160Y-102234992D01*
X214058179Y-102616510D01*
X213810032Y-103145973D01*
X213930531Y-103378000D01*
X215138000Y-103378000D01*
X215138000Y-103358000D01*
X215392000Y-103358000D01*
X215392000Y-103378000D01*
X216470531Y-103378000D01*
X216599469Y-103378000D01*
X217678000Y-103378000D01*
X217678000Y-103358000D01*
X217932000Y-103358000D01*
X217932000Y-103378000D01*
X217952000Y-103378000D01*
X217952000Y-103632000D01*
X217952000Y-103632000D01*
G37*
X217952000Y-103632000D02*
X217932000Y-103632000D01*
X217932000Y-103652000D01*
X217678000Y-103652000D01*
X217678000Y-103632000D01*
X216599469Y-103632000D01*
X216470531Y-103632000D01*
X215392000Y-103632000D01*
X215392000Y-103652000D01*
X215138000Y-103652000D01*
X215138000Y-103632000D01*
X213930531Y-103632000D01*
X213810032Y-103864027D01*
X214058179Y-104393490D01*
X214476160Y-104775007D01*
X214205330Y-104955971D01*
X213880474Y-105442152D01*
X213766400Y-106015641D01*
X213766400Y-106074359D01*
X213880474Y-106647848D01*
X214205330Y-107134029D01*
X214476172Y-107315000D01*
X214205330Y-107495971D01*
X213880474Y-107982152D01*
X213766400Y-108555641D01*
X213766400Y-108614359D01*
X213880474Y-109187848D01*
X214205330Y-109674029D01*
X214476172Y-109855000D01*
X214205330Y-110035971D01*
X213880474Y-110522152D01*
X213766400Y-111095641D01*
X213766400Y-111154359D01*
X213880474Y-111727848D01*
X214205330Y-112214029D01*
X214476172Y-112395000D01*
X214205330Y-112575971D01*
X213880474Y-113062152D01*
X213766400Y-113635641D01*
X213766400Y-113694359D01*
X213880474Y-114267848D01*
X214205330Y-114754029D01*
X214476172Y-114935000D01*
X214205330Y-115115971D01*
X213880474Y-115602152D01*
X213766400Y-116175641D01*
X213766400Y-116234359D01*
X213880474Y-116807848D01*
X214205330Y-117294029D01*
X214476172Y-117475000D01*
X214205330Y-117655971D01*
X214114104Y-117792500D01*
X209117927Y-117792500D01*
X209117927Y-96712520D01*
X209089148Y-96182801D01*
X208941800Y-95827071D01*
X208706188Y-95765417D01*
X208526583Y-95945022D01*
X208526583Y-95585812D01*
X208464929Y-95350200D01*
X207964520Y-95174073D01*
X207434801Y-95202852D01*
X207079071Y-95350200D01*
X207017417Y-95585812D01*
X207772000Y-96340395D01*
X208526583Y-95585812D01*
X208526583Y-95945022D01*
X207951605Y-96520000D01*
X208706188Y-97274583D01*
X208941800Y-97212929D01*
X209117927Y-96712520D01*
X209117927Y-117792500D01*
X207150538Y-117792500D01*
X204152500Y-114794461D01*
X204152500Y-100491828D01*
X204205789Y-100456222D01*
X204502273Y-100012500D01*
X206838628Y-100012500D01*
X207015647Y-100189827D01*
X207505587Y-100393268D01*
X208036086Y-100393731D01*
X208526380Y-100191146D01*
X208901827Y-99816353D01*
X209105268Y-99326413D01*
X209105731Y-98795914D01*
X208903146Y-98305620D01*
X208528353Y-97930173D01*
X208206881Y-97796686D01*
X208464929Y-97689800D01*
X208526583Y-97454188D01*
X207772000Y-96699605D01*
X207592395Y-96879210D01*
X207592395Y-96520000D01*
X206837812Y-95765417D01*
X206602200Y-95827071D01*
X206426073Y-96327480D01*
X206454852Y-96857199D01*
X206602200Y-97212929D01*
X206837812Y-97274583D01*
X207592395Y-96520000D01*
X207592395Y-96879210D01*
X207017417Y-97454188D01*
X207079071Y-97689800D01*
X207358311Y-97788083D01*
X207017620Y-97928854D01*
X206838662Y-98107500D01*
X204502273Y-98107500D01*
X204205789Y-97663778D01*
X203744329Y-97355441D01*
X203200000Y-97247167D01*
X202655671Y-97355441D01*
X202194211Y-97663778D01*
X201930000Y-98059198D01*
X201665789Y-97663778D01*
X201204329Y-97355441D01*
X200660000Y-97247167D01*
X200115671Y-97355441D01*
X199654211Y-97663778D01*
X199390000Y-98059198D01*
X199125789Y-97663778D01*
X198664329Y-97355441D01*
X198120000Y-97247167D01*
X197575671Y-97355441D01*
X197114211Y-97663778D01*
X196850000Y-98059198D01*
X196585789Y-97663778D01*
X196124329Y-97355441D01*
X195580000Y-97247167D01*
X195035671Y-97355441D01*
X194574211Y-97663778D01*
X194310000Y-98059198D01*
X194045789Y-97663778D01*
X193584329Y-97355441D01*
X193040000Y-97247167D01*
X193033587Y-97248442D01*
X199928815Y-90353215D01*
X199928816Y-90353215D01*
X200093996Y-90106005D01*
X200093997Y-90106004D01*
X200152000Y-89814400D01*
X200152000Y-85531785D01*
X200660000Y-85632833D01*
X201204329Y-85524559D01*
X201665789Y-85216222D01*
X201780873Y-85043986D01*
X201812137Y-85205123D01*
X201951927Y-85417927D01*
X202162960Y-85560377D01*
X202412600Y-85610440D01*
X203987400Y-85610440D01*
X204229523Y-85563463D01*
X204442327Y-85423673D01*
X204584777Y-85212640D01*
X204634840Y-84963000D01*
X204634840Y-82677000D01*
X204587863Y-82434877D01*
X204448073Y-82222073D01*
X204237040Y-82079623D01*
X203987400Y-82029560D01*
X202412600Y-82029560D01*
X202170477Y-82076537D01*
X201957673Y-82216327D01*
X201815223Y-82427360D01*
X201781279Y-82596621D01*
X201665789Y-82423778D01*
X201204329Y-82115441D01*
X200660000Y-82007167D01*
X200152000Y-82108214D01*
X200152000Y-74736785D01*
X200660000Y-74837833D01*
X201204329Y-74729559D01*
X201665789Y-74421222D01*
X201930000Y-74025801D01*
X202194211Y-74421222D01*
X202655671Y-74729559D01*
X203200000Y-74837833D01*
X203744329Y-74729559D01*
X204205789Y-74421222D01*
X204502273Y-73977500D01*
X206711628Y-73977500D01*
X206888647Y-74154827D01*
X207378587Y-74358268D01*
X207909086Y-74358731D01*
X208399380Y-74156146D01*
X208774827Y-73781353D01*
X208978268Y-73291413D01*
X208978488Y-73038549D01*
X213812237Y-68204800D01*
X213880474Y-68547848D01*
X214205330Y-69034029D01*
X214476172Y-69215000D01*
X214205330Y-69395971D01*
X213880474Y-69882152D01*
X213766400Y-70455641D01*
X213766400Y-70514359D01*
X213880474Y-71087848D01*
X214205330Y-71574029D01*
X214476172Y-71755000D01*
X214205330Y-71935971D01*
X213880474Y-72422152D01*
X213766400Y-72995641D01*
X213766400Y-73054359D01*
X213880474Y-73627848D01*
X214205330Y-74114029D01*
X214476172Y-74295000D01*
X214205330Y-74475971D01*
X213880474Y-74962152D01*
X213766400Y-75535641D01*
X213766400Y-75594359D01*
X213880474Y-76167848D01*
X214205330Y-76654029D01*
X214476172Y-76835000D01*
X214205330Y-77015971D01*
X213880474Y-77502152D01*
X213766400Y-78075641D01*
X213766400Y-78134359D01*
X213880474Y-78707848D01*
X214205330Y-79194029D01*
X214476172Y-79375000D01*
X214205330Y-79555971D01*
X213880474Y-80042152D01*
X213766400Y-80615641D01*
X213766400Y-80674359D01*
X213880474Y-81247848D01*
X214205330Y-81734029D01*
X214476172Y-81915000D01*
X214205330Y-82095971D01*
X213880474Y-82582152D01*
X213766400Y-83155641D01*
X213766400Y-83214359D01*
X213880474Y-83787848D01*
X214205330Y-84274029D01*
X214476172Y-84455000D01*
X214205330Y-84635971D01*
X213880474Y-85122152D01*
X213766400Y-85695641D01*
X213766400Y-85754359D01*
X213880474Y-86327848D01*
X214205330Y-86814029D01*
X214476172Y-86995000D01*
X214205330Y-87175971D01*
X213880474Y-87662152D01*
X213766400Y-88235641D01*
X213766400Y-88294359D01*
X213880474Y-88867848D01*
X214205330Y-89354029D01*
X214476172Y-89535000D01*
X214205330Y-89715971D01*
X213880474Y-90202152D01*
X213766400Y-90775641D01*
X213766400Y-90834359D01*
X213880474Y-91407848D01*
X214205330Y-91894029D01*
X214476172Y-92075000D01*
X214205330Y-92255971D01*
X213880474Y-92742152D01*
X213766400Y-93315641D01*
X213766400Y-93374359D01*
X213880474Y-93947848D01*
X214205330Y-94434029D01*
X214476172Y-94615000D01*
X214205330Y-94795971D01*
X213880474Y-95282152D01*
X213766400Y-95855641D01*
X213766400Y-95914359D01*
X213880474Y-96487848D01*
X214205330Y-96974029D01*
X214476172Y-97155000D01*
X214205330Y-97335971D01*
X213880474Y-97822152D01*
X213766400Y-98395641D01*
X213766400Y-98454359D01*
X213880474Y-99027848D01*
X214205330Y-99514029D01*
X214476172Y-99695000D01*
X214205330Y-99875971D01*
X213880474Y-100362152D01*
X213766400Y-100935641D01*
X213766400Y-100994359D01*
X213880474Y-101567848D01*
X214205330Y-102054029D01*
X214476160Y-102234992D01*
X214058179Y-102616510D01*
X213810032Y-103145973D01*
X213930531Y-103378000D01*
X215138000Y-103378000D01*
X215138000Y-103358000D01*
X215392000Y-103358000D01*
X215392000Y-103378000D01*
X216470531Y-103378000D01*
X216599469Y-103378000D01*
X217678000Y-103378000D01*
X217678000Y-103358000D01*
X217932000Y-103358000D01*
X217932000Y-103378000D01*
X217952000Y-103378000D01*
X217952000Y-103632000D01*
G36*
X218948000Y-142113000D02*
X217781240Y-142113000D01*
X217781240Y-138515211D01*
X217678000Y-138265351D01*
X217678000Y-127698817D01*
X217678000Y-126492000D01*
X217678000Y-126238000D01*
X217678000Y-125158817D01*
X217678000Y-125031183D01*
X217678000Y-123952000D01*
X216599469Y-123952000D01*
X216470531Y-123952000D01*
X215392000Y-123952000D01*
X215392000Y-125031183D01*
X215392000Y-125158817D01*
X215392000Y-126238000D01*
X216470531Y-126238000D01*
X216599469Y-126238000D01*
X217678000Y-126238000D01*
X217678000Y-126492000D01*
X216599469Y-126492000D01*
X216470531Y-126492000D01*
X215392000Y-126492000D01*
X215392000Y-127698817D01*
X215624026Y-127819958D01*
X216039947Y-127647688D01*
X216471821Y-127253490D01*
X216534999Y-127118687D01*
X216598179Y-127253490D01*
X217030053Y-127647688D01*
X217445974Y-127819958D01*
X217678000Y-127698817D01*
X217678000Y-138265351D01*
X217456910Y-137730273D01*
X216856886Y-137129200D01*
X216072515Y-136803501D01*
X215223211Y-136802760D01*
X215138000Y-136837968D01*
X215138000Y-127698817D01*
X215138000Y-126492000D01*
X215138000Y-126238000D01*
X215138000Y-125158817D01*
X215138000Y-125031183D01*
X215138000Y-123952000D01*
X213930531Y-123952000D01*
X213810032Y-124184027D01*
X214058179Y-124713490D01*
X214476152Y-125095000D01*
X214058179Y-125476510D01*
X213810032Y-126005973D01*
X213930531Y-126238000D01*
X215138000Y-126238000D01*
X215138000Y-126492000D01*
X213930531Y-126492000D01*
X213810032Y-126724027D01*
X214058179Y-127253490D01*
X214490053Y-127647688D01*
X214905974Y-127819958D01*
X215138000Y-127698817D01*
X215138000Y-136837968D01*
X214438273Y-137127090D01*
X213837200Y-137727114D01*
X213511501Y-138511485D01*
X213510760Y-139360789D01*
X213835090Y-140145727D01*
X214435114Y-140746800D01*
X215219485Y-141072499D01*
X216068789Y-141073240D01*
X216853727Y-140748910D01*
X217454800Y-140148886D01*
X217780499Y-139364515D01*
X217781240Y-138515211D01*
X217781240Y-142113000D01*
X210439767Y-142113000D01*
X210439767Y-126569966D01*
X210411805Y-126019462D01*
X210254931Y-125640735D01*
X210013930Y-125572675D01*
X209834325Y-125752280D01*
X209834325Y-125393070D01*
X209766265Y-125152069D01*
X209246966Y-124967233D01*
X208696462Y-124995195D01*
X208317735Y-125152069D01*
X208249675Y-125393070D01*
X209042000Y-126185395D01*
X209834325Y-125393070D01*
X209834325Y-125752280D01*
X209221605Y-126365000D01*
X210013930Y-127157325D01*
X210254931Y-127089265D01*
X210439767Y-126569966D01*
X210439767Y-142113000D01*
X209834325Y-142113000D01*
X209834325Y-127336930D01*
X209042000Y-126544605D01*
X208862395Y-126724210D01*
X208862395Y-126365000D01*
X208070070Y-125572675D01*
X207829069Y-125640735D01*
X207644233Y-126160034D01*
X207672195Y-126710538D01*
X207829069Y-127089265D01*
X208070070Y-127157325D01*
X208862395Y-126365000D01*
X208862395Y-126724210D01*
X208249675Y-127336930D01*
X208317735Y-127577931D01*
X208837034Y-127762767D01*
X209387538Y-127734805D01*
X209766265Y-127577931D01*
X209834325Y-127336930D01*
X209834325Y-142113000D01*
X157353000Y-142113000D01*
X157353000Y-100672852D01*
X157353000Y-99187000D01*
X157333000Y-99187000D01*
X157333000Y-98933000D01*
X157353000Y-98933000D01*
X157353000Y-97447148D01*
X157353000Y-85432852D01*
X157353000Y-83947000D01*
X157353000Y-83693000D01*
X157353000Y-82207148D01*
X157132940Y-82084990D01*
X157053004Y-82101673D01*
X156564014Y-82368809D01*
X156214475Y-82802738D01*
X156210000Y-82817989D01*
X156205525Y-82802738D01*
X155855986Y-82368809D01*
X155366996Y-82101673D01*
X155287060Y-82084990D01*
X155067000Y-82207148D01*
X155067000Y-83693000D01*
X156057600Y-83693000D01*
X156362400Y-83693000D01*
X157353000Y-83693000D01*
X157353000Y-83947000D01*
X156362400Y-83947000D01*
X156057600Y-83947000D01*
X155067000Y-83947000D01*
X155067000Y-85432852D01*
X155287060Y-85555010D01*
X155366996Y-85538327D01*
X155855986Y-85271191D01*
X156205525Y-84837262D01*
X156210000Y-84822010D01*
X156214475Y-84837262D01*
X156564014Y-85271191D01*
X157053004Y-85538327D01*
X157132940Y-85555010D01*
X157353000Y-85432852D01*
X157353000Y-97447148D01*
X157132940Y-97324990D01*
X157053004Y-97341673D01*
X156564014Y-97608809D01*
X156214475Y-98042738D01*
X156209753Y-98058829D01*
X155945789Y-97663778D01*
X155484329Y-97355441D01*
X154940000Y-97247167D01*
X154813000Y-97272428D01*
X154813000Y-85432852D01*
X154813000Y-83947000D01*
X154813000Y-83693000D01*
X154813000Y-82207148D01*
X154592940Y-82084990D01*
X154513004Y-82101673D01*
X154024014Y-82368809D01*
X153674475Y-82802738D01*
X153517600Y-83337400D01*
X153517600Y-83693000D01*
X154813000Y-83693000D01*
X154813000Y-83947000D01*
X153517600Y-83947000D01*
X153517600Y-84302600D01*
X153674475Y-84837262D01*
X154024014Y-85271191D01*
X154513004Y-85538327D01*
X154592940Y-85555010D01*
X154813000Y-85432852D01*
X154813000Y-97272428D01*
X154395671Y-97355441D01*
X153934211Y-97663778D01*
X153625874Y-98125238D01*
X153517600Y-98669567D01*
X153517600Y-99450433D01*
X153625874Y-99994762D01*
X153934211Y-100456222D01*
X154395671Y-100764559D01*
X154940000Y-100872833D01*
X155484329Y-100764559D01*
X155945789Y-100456222D01*
X156209753Y-100061170D01*
X156214475Y-100077262D01*
X156564014Y-100511191D01*
X157053004Y-100778327D01*
X157132940Y-100795010D01*
X157353000Y-100672852D01*
X157353000Y-142113000D01*
X118860810Y-142113000D01*
X118860810Y-84815602D01*
X118650314Y-84306163D01*
X118260887Y-83916056D01*
X117751816Y-83704671D01*
X117200602Y-83704190D01*
X116691163Y-83914686D01*
X116301056Y-84304113D01*
X116205025Y-84535381D01*
X116110314Y-84306163D01*
X115720887Y-83916056D01*
X115211816Y-83704671D01*
X114660602Y-83704190D01*
X114151163Y-83914686D01*
X113761056Y-84304113D01*
X113549671Y-84813184D01*
X113549190Y-85364398D01*
X113759686Y-85873837D01*
X114149113Y-86263944D01*
X114658184Y-86475329D01*
X115209398Y-86475810D01*
X115718837Y-86265314D01*
X116108944Y-85875887D01*
X116204974Y-85644618D01*
X116299686Y-85873837D01*
X116522500Y-86097040D01*
X116522500Y-91045462D01*
X111289840Y-96278121D01*
X111289840Y-92583000D01*
X111289840Y-90297000D01*
X111242863Y-90054877D01*
X111240810Y-90051751D01*
X111240810Y-84815602D01*
X111030314Y-84306163D01*
X110640887Y-83916056D01*
X110131816Y-83704671D01*
X109580602Y-83704190D01*
X109071163Y-83914686D01*
X108681056Y-84304113D01*
X108585025Y-84535381D01*
X108490314Y-84306163D01*
X108100887Y-83916056D01*
X107591816Y-83704671D01*
X107040602Y-83704190D01*
X106531163Y-83914686D01*
X106141056Y-84304113D01*
X105929671Y-84813184D01*
X105929190Y-85364398D01*
X106139686Y-85873837D01*
X106529113Y-86263944D01*
X107038184Y-86475329D01*
X107589398Y-86475810D01*
X108098837Y-86265314D01*
X108488944Y-85875887D01*
X108584974Y-85644618D01*
X108679686Y-85873837D01*
X109069113Y-86263944D01*
X109578184Y-86475329D01*
X110129398Y-86475810D01*
X110638837Y-86265314D01*
X111028944Y-85875887D01*
X111240329Y-85366816D01*
X111240810Y-84815602D01*
X111240810Y-90051751D01*
X111103073Y-89842073D01*
X110892040Y-89699623D01*
X110642400Y-89649560D01*
X109067600Y-89649560D01*
X108825477Y-89696537D01*
X108612673Y-89836327D01*
X108470223Y-90047360D01*
X108436279Y-90216621D01*
X108320789Y-90043778D01*
X107859329Y-89735441D01*
X107315000Y-89627167D01*
X106770671Y-89735441D01*
X106309211Y-90043778D01*
X106044999Y-90439198D01*
X105780789Y-90043778D01*
X105319329Y-89735441D01*
X104775000Y-89627167D01*
X104230671Y-89735441D01*
X103769211Y-90043778D01*
X103620810Y-90265875D01*
X103620810Y-84815602D01*
X103410314Y-84306163D01*
X103020887Y-83916056D01*
X102511816Y-83704671D01*
X101960602Y-83704190D01*
X101451163Y-83914686D01*
X101061056Y-84304113D01*
X100965025Y-84535381D01*
X100870314Y-84306163D01*
X100480887Y-83916056D01*
X99971816Y-83704671D01*
X99420602Y-83704190D01*
X98911163Y-83914686D01*
X98521056Y-84304113D01*
X98309671Y-84813184D01*
X98309190Y-85364398D01*
X98519686Y-85873837D01*
X98909113Y-86263944D01*
X99418184Y-86475329D01*
X99969398Y-86475810D01*
X100478837Y-86265314D01*
X100868944Y-85875887D01*
X100964974Y-85644618D01*
X101059686Y-85873837D01*
X101449113Y-86263944D01*
X101958184Y-86475329D01*
X102509398Y-86475810D01*
X103018837Y-86265314D01*
X103408944Y-85875887D01*
X103620329Y-85366816D01*
X103620810Y-84815602D01*
X103620810Y-90265875D01*
X103504999Y-90439198D01*
X103240789Y-90043778D01*
X102779329Y-89735441D01*
X102235000Y-89627167D01*
X101690671Y-89735441D01*
X101229211Y-90043778D01*
X100964999Y-90439198D01*
X100700789Y-90043778D01*
X100239329Y-89735441D01*
X99695000Y-89627167D01*
X99150671Y-89735441D01*
X98689211Y-90043778D01*
X98425000Y-90439198D01*
X98160789Y-90043778D01*
X97699329Y-89735441D01*
X97155000Y-89627167D01*
X96610671Y-89735441D01*
X96149211Y-90043778D01*
X96000810Y-90265875D01*
X96000810Y-84815602D01*
X95790314Y-84306163D01*
X95400887Y-83916056D01*
X94891816Y-83704671D01*
X94340602Y-83704190D01*
X93831163Y-83914686D01*
X93441056Y-84304113D01*
X93351621Y-84519496D01*
X93287931Y-84365735D01*
X93046930Y-84297675D01*
X92867325Y-84477280D01*
X92867325Y-84118070D01*
X92799265Y-83877069D01*
X92279966Y-83692233D01*
X91729462Y-83720195D01*
X91350735Y-83877069D01*
X91282675Y-84118070D01*
X92075000Y-84910395D01*
X92867325Y-84118070D01*
X92867325Y-84477280D01*
X92254605Y-85090000D01*
X93046930Y-85882325D01*
X93287931Y-85814265D01*
X93346768Y-85648959D01*
X93439686Y-85873837D01*
X93829113Y-86263944D01*
X94338184Y-86475329D01*
X94889398Y-86475810D01*
X95398837Y-86265314D01*
X95788944Y-85875887D01*
X96000329Y-85366816D01*
X96000810Y-84815602D01*
X96000810Y-90265875D01*
X95885000Y-90439198D01*
X95620789Y-90043778D01*
X95159329Y-89735441D01*
X94615000Y-89627167D01*
X94070671Y-89735441D01*
X93609211Y-90043778D01*
X93345000Y-90439198D01*
X93080789Y-90043778D01*
X92867325Y-89901146D01*
X92867325Y-86061930D01*
X92075000Y-85269605D01*
X91895395Y-85449210D01*
X91895395Y-85090000D01*
X91103070Y-84297675D01*
X90862069Y-84365735D01*
X90677233Y-84885034D01*
X90705195Y-85435538D01*
X90862069Y-85814265D01*
X91103070Y-85882325D01*
X91895395Y-85090000D01*
X91895395Y-85449210D01*
X91282675Y-86061930D01*
X91350735Y-86302931D01*
X91870034Y-86487767D01*
X92420538Y-86459805D01*
X92799265Y-86302931D01*
X92867325Y-86061930D01*
X92867325Y-89901146D01*
X92619329Y-89735441D01*
X92075000Y-89627167D01*
X91530671Y-89735441D01*
X91069211Y-90043778D01*
X90760874Y-90505238D01*
X90652600Y-91049567D01*
X90652600Y-91830433D01*
X90760874Y-92374762D01*
X91069211Y-92836222D01*
X91530671Y-93144559D01*
X92075000Y-93252833D01*
X92619329Y-93144559D01*
X93080789Y-92836222D01*
X93345000Y-92440801D01*
X93609211Y-92836222D01*
X94070671Y-93144559D01*
X94615000Y-93252833D01*
X95159329Y-93144559D01*
X95620789Y-92836222D01*
X95885000Y-92440801D01*
X96149211Y-92836222D01*
X96610671Y-93144559D01*
X97155000Y-93252833D01*
X97699329Y-93144559D01*
X98160789Y-92836222D01*
X98425000Y-92440801D01*
X98689211Y-92836222D01*
X99150671Y-93144559D01*
X99695000Y-93252833D01*
X100239329Y-93144559D01*
X100700789Y-92836222D01*
X100965000Y-92440801D01*
X101229211Y-92836222D01*
X101690671Y-93144559D01*
X102235000Y-93252833D01*
X102779329Y-93144559D01*
X103240789Y-92836222D01*
X103505000Y-92440801D01*
X103769211Y-92836222D01*
X104230671Y-93144559D01*
X104775000Y-93252833D01*
X105319329Y-93144559D01*
X105780789Y-92836222D01*
X106045000Y-92440801D01*
X106309211Y-92836222D01*
X106770671Y-93144559D01*
X107315000Y-93252833D01*
X107859329Y-93144559D01*
X108320789Y-92836222D01*
X108435873Y-92663986D01*
X108467137Y-92825123D01*
X108606927Y-93037927D01*
X108817960Y-93180377D01*
X109067600Y-93230440D01*
X110642400Y-93230440D01*
X110884523Y-93183463D01*
X111097327Y-93043673D01*
X111239777Y-92832640D01*
X111289840Y-92583000D01*
X111289840Y-96278121D01*
X110243514Y-97324447D01*
X109855000Y-97247167D01*
X109310671Y-97355441D01*
X108849211Y-97663778D01*
X108585246Y-98058829D01*
X108580525Y-98042738D01*
X108230986Y-97608809D01*
X107741996Y-97341673D01*
X107662060Y-97324990D01*
X107442000Y-97447148D01*
X107442000Y-98933000D01*
X107462000Y-98933000D01*
X107462000Y-99187000D01*
X107442000Y-99187000D01*
X107442000Y-100672852D01*
X107662060Y-100795010D01*
X107741996Y-100778327D01*
X108230986Y-100511191D01*
X108580525Y-100077262D01*
X108585246Y-100061170D01*
X108849211Y-100456222D01*
X108902500Y-100491828D01*
X108902500Y-103768055D01*
X108681056Y-103989113D01*
X108591621Y-104204496D01*
X108527931Y-104050735D01*
X108286930Y-103982675D01*
X108107325Y-104162280D01*
X108107325Y-103803070D01*
X108039265Y-103562069D01*
X107519966Y-103377233D01*
X107188000Y-103394094D01*
X107188000Y-100672852D01*
X107188000Y-99187000D01*
X107168000Y-99187000D01*
X107168000Y-98933000D01*
X107188000Y-98933000D01*
X107188000Y-97447148D01*
X106967940Y-97324990D01*
X106888004Y-97341673D01*
X106399014Y-97608809D01*
X106049475Y-98042738D01*
X106044753Y-98058829D01*
X105780789Y-97663778D01*
X105319329Y-97355441D01*
X104775000Y-97247167D01*
X104230671Y-97355441D01*
X103769211Y-97663778D01*
X103504999Y-98059198D01*
X103240789Y-97663778D01*
X102779329Y-97355441D01*
X102235000Y-97247167D01*
X101690671Y-97355441D01*
X101229211Y-97663778D01*
X100964999Y-98059198D01*
X100700789Y-97663778D01*
X100239329Y-97355441D01*
X99695000Y-97247167D01*
X99150671Y-97355441D01*
X98689211Y-97663778D01*
X98424999Y-98059198D01*
X98160789Y-97663778D01*
X97699329Y-97355441D01*
X97155000Y-97247167D01*
X96610671Y-97355441D01*
X96149211Y-97663778D01*
X95885000Y-98059198D01*
X95620789Y-97663778D01*
X95159329Y-97355441D01*
X94615000Y-97247167D01*
X94070671Y-97355441D01*
X93609211Y-97663778D01*
X93345000Y-98059198D01*
X93080789Y-97663778D01*
X92619329Y-97355441D01*
X92075000Y-97247167D01*
X91530671Y-97355441D01*
X91069211Y-97663778D01*
X90760874Y-98125238D01*
X90652600Y-98669567D01*
X90652600Y-99450433D01*
X90760874Y-99994762D01*
X91069211Y-100456222D01*
X91530671Y-100764559D01*
X92075000Y-100872833D01*
X92619329Y-100764559D01*
X93080789Y-100456222D01*
X93345000Y-100060801D01*
X93609211Y-100456222D01*
X94070671Y-100764559D01*
X94615000Y-100872833D01*
X95159329Y-100764559D01*
X95620789Y-100456222D01*
X95885000Y-100060801D01*
X96149211Y-100456222D01*
X96610671Y-100764559D01*
X97155000Y-100872833D01*
X97699329Y-100764559D01*
X98160789Y-100456222D01*
X98425000Y-100060801D01*
X98689211Y-100456222D01*
X99150671Y-100764559D01*
X99695000Y-100872833D01*
X100239329Y-100764559D01*
X100700789Y-100456222D01*
X100965000Y-100060801D01*
X101229211Y-100456222D01*
X101690671Y-100764559D01*
X102235000Y-100872833D01*
X102779329Y-100764559D01*
X103240789Y-100456222D01*
X103505000Y-100060801D01*
X103769211Y-100456222D01*
X104230671Y-100764559D01*
X104775000Y-100872833D01*
X105319329Y-100764559D01*
X105780789Y-100456222D01*
X106044753Y-100061170D01*
X106049475Y-100077262D01*
X106399014Y-100511191D01*
X106888004Y-100778327D01*
X106967940Y-100795010D01*
X107188000Y-100672852D01*
X107188000Y-103394094D01*
X106969462Y-103405195D01*
X106590735Y-103562069D01*
X106522675Y-103803070D01*
X107315000Y-104595395D01*
X108107325Y-103803070D01*
X108107325Y-104162280D01*
X107494605Y-104775000D01*
X108286930Y-105567325D01*
X108527931Y-105499265D01*
X108586768Y-105333959D01*
X108679686Y-105558837D01*
X109069113Y-105948944D01*
X109578184Y-106160329D01*
X110129398Y-106160810D01*
X110638837Y-105950314D01*
X111028944Y-105560887D01*
X111240329Y-105051816D01*
X111240810Y-104500602D01*
X111030314Y-103991163D01*
X110807500Y-103767959D01*
X110807500Y-100491828D01*
X110860789Y-100456222D01*
X111169126Y-99994762D01*
X111277400Y-99450433D01*
X111277400Y-98984638D01*
X118148519Y-92113519D01*
X118354995Y-91804506D01*
X118427499Y-91440000D01*
X118427500Y-91440000D01*
X118427500Y-86096944D01*
X118648944Y-85875887D01*
X118860329Y-85366816D01*
X118860810Y-84815602D01*
X118860810Y-142113000D01*
X108107325Y-142113000D01*
X108107325Y-105746930D01*
X107315000Y-104954605D01*
X107135395Y-105134210D01*
X107135395Y-104775000D01*
X106343070Y-103982675D01*
X106102069Y-104050735D01*
X105917233Y-104570034D01*
X105945195Y-105120538D01*
X106102069Y-105499265D01*
X106343070Y-105567325D01*
X107135395Y-104775000D01*
X107135395Y-105134210D01*
X106522675Y-105746930D01*
X106590735Y-105987931D01*
X107110034Y-106172767D01*
X107660538Y-106144805D01*
X108039265Y-105987931D01*
X108107325Y-105746930D01*
X108107325Y-142113000D01*
X89565000Y-142113000D01*
X89565000Y-141535000D01*
X89565000Y-137565000D01*
X87693731Y-137565000D01*
X87693731Y-93715914D01*
X87693731Y-86095914D01*
X87491146Y-85605620D01*
X87116353Y-85230173D01*
X86626413Y-85026732D01*
X86095914Y-85026269D01*
X85605620Y-85228854D01*
X85230173Y-85603647D01*
X85026732Y-86093587D01*
X85026269Y-86624086D01*
X85228854Y-87114380D01*
X85603647Y-87489827D01*
X86093587Y-87693268D01*
X86624086Y-87693731D01*
X87114380Y-87491146D01*
X87489827Y-87116353D01*
X87693268Y-86626413D01*
X87693731Y-86095914D01*
X87693731Y-93715914D01*
X87491146Y-93225620D01*
X87116353Y-92850173D01*
X86626413Y-92646732D01*
X86095914Y-92646269D01*
X85605620Y-92848854D01*
X85230173Y-93223647D01*
X85026732Y-93713587D01*
X85026269Y-94244086D01*
X85228854Y-94734380D01*
X85603647Y-95109827D01*
X86093587Y-95313268D01*
X86624086Y-95313731D01*
X87114380Y-95111146D01*
X87489827Y-94736353D01*
X87693268Y-94246413D01*
X87693731Y-93715914D01*
X87693731Y-137565000D01*
X82687432Y-137565000D01*
X82687432Y-94211140D01*
X82581962Y-93680905D01*
X82281608Y-93231394D01*
X81832097Y-92931040D01*
X81301862Y-92825570D01*
X81832097Y-92720100D01*
X82281608Y-92419746D01*
X82581962Y-91970235D01*
X82687432Y-91440000D01*
X82581962Y-90909765D01*
X82281608Y-90460254D01*
X81832097Y-90159900D01*
X81301862Y-90054430D01*
X81832097Y-89948960D01*
X82281608Y-89648606D01*
X82581962Y-89199095D01*
X82687432Y-88668860D01*
X82581962Y-88138625D01*
X82281608Y-87689114D01*
X81832097Y-87388760D01*
X81308246Y-87284560D01*
X81832097Y-87180360D01*
X82281608Y-86880006D01*
X82581962Y-86430495D01*
X82687432Y-85900260D01*
X82638173Y-85652617D01*
X82638173Y-78324761D01*
X82161808Y-77171869D01*
X81280511Y-76289032D01*
X80128452Y-75810655D01*
X78881021Y-75809567D01*
X77728129Y-76285932D01*
X76845292Y-77167229D01*
X76366915Y-78319288D01*
X76365827Y-79566719D01*
X76842192Y-80719611D01*
X77723489Y-81602448D01*
X78875548Y-82080825D01*
X80122979Y-82081913D01*
X81275871Y-81605548D01*
X82158708Y-80724251D01*
X82637085Y-79572192D01*
X82638173Y-78324761D01*
X82638173Y-85652617D01*
X82581962Y-85370025D01*
X82281608Y-84920514D01*
X81832097Y-84620160D01*
X81301862Y-84514690D01*
X80739978Y-84514690D01*
X80209743Y-84620160D01*
X79760232Y-84920514D01*
X79459878Y-85370025D01*
X79354408Y-85900260D01*
X79459878Y-86430495D01*
X79760232Y-86880006D01*
X80209743Y-87180360D01*
X80733593Y-87284560D01*
X80209743Y-87388760D01*
X79760232Y-87689114D01*
X79459878Y-88138625D01*
X79354408Y-88668860D01*
X79459878Y-89199095D01*
X79760232Y-89648606D01*
X80209743Y-89948960D01*
X80739978Y-90054430D01*
X80209743Y-90159900D01*
X79760232Y-90460254D01*
X79459878Y-90909765D01*
X79354408Y-91440000D01*
X79459878Y-91970235D01*
X79760232Y-92419746D01*
X80209743Y-92720100D01*
X80739978Y-92825570D01*
X80209743Y-92931040D01*
X79760232Y-93231394D01*
X79459878Y-93680905D01*
X79354408Y-94211140D01*
X79459878Y-94741375D01*
X79760232Y-95190886D01*
X80209743Y-95491240D01*
X80739978Y-95596710D01*
X80893918Y-95596710D01*
X80893918Y-95747352D01*
X80674797Y-95586659D01*
X80149087Y-95729899D01*
X79718210Y-96063416D01*
X79649592Y-96183430D01*
X79649592Y-95595440D01*
X79544122Y-95065205D01*
X79243768Y-94615694D01*
X78794257Y-94315340D01*
X78264022Y-94209870D01*
X78794257Y-94104400D01*
X79243768Y-93804046D01*
X79544122Y-93354535D01*
X79649592Y-92824300D01*
X79544122Y-92294065D01*
X79243768Y-91844554D01*
X78794257Y-91544200D01*
X78270406Y-91440000D01*
X78794257Y-91335800D01*
X79243768Y-91035446D01*
X79544122Y-90585935D01*
X79649592Y-90055700D01*
X79544122Y-89525465D01*
X79243768Y-89075954D01*
X78794257Y-88775600D01*
X78264022Y-88670130D01*
X78794257Y-88564660D01*
X79243768Y-88264306D01*
X79544122Y-87814795D01*
X79649592Y-87284560D01*
X79544122Y-86754325D01*
X79243768Y-86304814D01*
X78794257Y-86004460D01*
X78264022Y-85898990D01*
X77702138Y-85898990D01*
X77171903Y-86004460D01*
X76722392Y-86304814D01*
X76422038Y-86754325D01*
X76316568Y-87284560D01*
X76422038Y-87814795D01*
X76722392Y-88264306D01*
X77171903Y-88564660D01*
X77702138Y-88670130D01*
X77171903Y-88775600D01*
X76722392Y-89075954D01*
X76422038Y-89525465D01*
X76316568Y-90055700D01*
X76422038Y-90585935D01*
X76722392Y-91035446D01*
X77171903Y-91335800D01*
X77695753Y-91440000D01*
X77171903Y-91544200D01*
X76722392Y-91844554D01*
X76422038Y-92294065D01*
X76316568Y-92824300D01*
X76422038Y-93354535D01*
X76722392Y-93804046D01*
X77171903Y-94104400D01*
X77702138Y-94209870D01*
X77171903Y-94315340D01*
X76722392Y-94615694D01*
X76422038Y-95065205D01*
X76316568Y-95595440D01*
X76422038Y-96125675D01*
X76722392Y-96575186D01*
X77171903Y-96875540D01*
X77702138Y-96981010D01*
X78264022Y-96981010D01*
X78794257Y-96875540D01*
X79243768Y-96575186D01*
X79544122Y-96125675D01*
X79649592Y-95595440D01*
X79649592Y-96183430D01*
X79447763Y-96536435D01*
X79429117Y-96638465D01*
X79551771Y-96852740D01*
X80893920Y-96852740D01*
X80893920Y-96832740D01*
X81147920Y-96832740D01*
X81147920Y-96852740D01*
X82490069Y-96852740D01*
X82612723Y-96638465D01*
X82594077Y-96536435D01*
X82323630Y-96063416D01*
X81892753Y-95729899D01*
X81367043Y-95586659D01*
X81147922Y-95747352D01*
X81147922Y-95596710D01*
X81301862Y-95596710D01*
X81832097Y-95491240D01*
X82281608Y-95190886D01*
X82581962Y-94741375D01*
X82687432Y-94211140D01*
X82687432Y-137565000D01*
X82638173Y-137565000D01*
X82638173Y-103313281D01*
X82612723Y-103251687D01*
X82612723Y-97321015D01*
X82490069Y-97106740D01*
X81147920Y-97106740D01*
X81147920Y-98212126D01*
X81367043Y-98372821D01*
X81892753Y-98229581D01*
X82323630Y-97896064D01*
X82594077Y-97423045D01*
X82612723Y-97321015D01*
X82612723Y-103251687D01*
X82161808Y-102160389D01*
X81280511Y-101277552D01*
X80893920Y-101117025D01*
X80893920Y-98212126D01*
X80893920Y-97106740D01*
X79551771Y-97106740D01*
X79429117Y-97321015D01*
X79447763Y-97423045D01*
X79718210Y-97896064D01*
X80149087Y-98229581D01*
X80674797Y-98372821D01*
X80893920Y-98212126D01*
X80893920Y-101117025D01*
X80128452Y-100799175D01*
X78881021Y-100798087D01*
X77728129Y-101274452D01*
X76845292Y-102155749D01*
X76366915Y-103307808D01*
X76365827Y-104555239D01*
X76842192Y-105708131D01*
X77723489Y-106590968D01*
X78875548Y-107069345D01*
X80122979Y-107070433D01*
X81275871Y-106594068D01*
X82158708Y-105712771D01*
X82637085Y-104560712D01*
X82638173Y-103313281D01*
X82638173Y-137565000D01*
X72995000Y-137565000D01*
X72995000Y-141535000D01*
X89565000Y-141535000D01*
X89565000Y-142113000D01*
X70715240Y-142113000D01*
X70715240Y-138515211D01*
X70715240Y-52409211D01*
X70390910Y-51624273D01*
X69790886Y-51023200D01*
X69006515Y-50697501D01*
X68157211Y-50696760D01*
X67372273Y-51021090D01*
X66771200Y-51621114D01*
X66445501Y-52405485D01*
X66444760Y-53254789D01*
X66769090Y-54039727D01*
X67369114Y-54640800D01*
X68153485Y-54966499D01*
X69002789Y-54967240D01*
X69787727Y-54642910D01*
X70388800Y-54042886D01*
X70714499Y-53258515D01*
X70715240Y-52409211D01*
X70715240Y-138515211D01*
X70390910Y-137730273D01*
X69790886Y-137129200D01*
X69006515Y-136803501D01*
X68157211Y-136802760D01*
X67372273Y-137127090D01*
X66771200Y-137727114D01*
X66445501Y-138511485D01*
X66444760Y-139360789D01*
X66769090Y-140145727D01*
X67369114Y-140746800D01*
X68153485Y-141072499D01*
X69002789Y-141073240D01*
X69787727Y-140748910D01*
X70388800Y-140148886D01*
X70714499Y-139364515D01*
X70715240Y-138515211D01*
X70715240Y-142113000D01*
X65532000Y-142113000D01*
X65532000Y-49657000D01*
X65532053Y-49657000D01*
X218948000Y-49530105D01*
X218948000Y-64440683D01*
X218864670Y-64315971D01*
X218378489Y-63991115D01*
X217805000Y-63877041D01*
X217781240Y-63881767D01*
X217781240Y-52155211D01*
X217456910Y-51370273D01*
X216856886Y-50769200D01*
X216072515Y-50443501D01*
X215223211Y-50442760D01*
X214438273Y-50767090D01*
X213837200Y-51367114D01*
X213511501Y-52151485D01*
X213510760Y-53000789D01*
X213835090Y-53785727D01*
X214435114Y-54386800D01*
X215219485Y-54712499D01*
X216068789Y-54713240D01*
X216853727Y-54388910D01*
X217454800Y-53788886D01*
X217780499Y-53004515D01*
X217781240Y-52155211D01*
X217781240Y-63881767D01*
X217231511Y-63991115D01*
X216745330Y-64315971D01*
X216735233Y-64331081D01*
X216729063Y-64299277D01*
X216589273Y-64086473D01*
X216378240Y-63944023D01*
X216128600Y-63893960D01*
X214401400Y-63893960D01*
X214159277Y-63940937D01*
X213946473Y-64080727D01*
X213804023Y-64291760D01*
X213753960Y-64541400D01*
X213753960Y-65569002D01*
X208973124Y-70349837D01*
X208962148Y-70147801D01*
X208814800Y-69792071D01*
X208579188Y-69730417D01*
X208399583Y-69910022D01*
X208399583Y-69550812D01*
X208337929Y-69315200D01*
X207837520Y-69139073D01*
X207307801Y-69167852D01*
X206952071Y-69315200D01*
X206890417Y-69550812D01*
X207645000Y-70305395D01*
X208399583Y-69550812D01*
X208399583Y-69910022D01*
X207824605Y-70485000D01*
X207838747Y-70499142D01*
X207659142Y-70678747D01*
X207645000Y-70664605D01*
X207465395Y-70844210D01*
X207465395Y-70485000D01*
X206710812Y-69730417D01*
X206475200Y-69792071D01*
X206299073Y-70292480D01*
X206327852Y-70822199D01*
X206475200Y-71177929D01*
X206710812Y-71239583D01*
X207465395Y-70485000D01*
X207465395Y-70844210D01*
X206890417Y-71419188D01*
X206952071Y-71654800D01*
X207231311Y-71753083D01*
X206890620Y-71893854D01*
X206711662Y-72072500D01*
X204502273Y-72072500D01*
X204205789Y-71628778D01*
X203744329Y-71320441D01*
X203200000Y-71212167D01*
X202655671Y-71320441D01*
X202194211Y-71628778D01*
X201930000Y-72024198D01*
X201665789Y-71628778D01*
X201204329Y-71320441D01*
X200660000Y-71212167D01*
X200152000Y-71313214D01*
X200152000Y-69530630D01*
X201198815Y-68483816D01*
X201198815Y-68483815D01*
X201363996Y-68236605D01*
X201421999Y-67945000D01*
X201422000Y-67945000D01*
X201422000Y-66964116D01*
X201665789Y-66801222D01*
X201780873Y-66628986D01*
X201812137Y-66790123D01*
X201951927Y-67002927D01*
X202162960Y-67145377D01*
X202412600Y-67195440D01*
X203987400Y-67195440D01*
X204229523Y-67148463D01*
X204442327Y-67008673D01*
X204584777Y-66797640D01*
X204634840Y-66548000D01*
X204634840Y-64262000D01*
X204587863Y-64019877D01*
X204448073Y-63807073D01*
X204237040Y-63664623D01*
X203987400Y-63614560D01*
X202412600Y-63614560D01*
X202170477Y-63661537D01*
X201957673Y-63801327D01*
X201815223Y-64012360D01*
X201781279Y-64181621D01*
X201665789Y-64008778D01*
X201422000Y-63845883D01*
X201422000Y-62337539D01*
X201789827Y-61970353D01*
X201993268Y-61480413D01*
X201993731Y-60949914D01*
X201993731Y-53329914D01*
X201791146Y-52839620D01*
X201416353Y-52464173D01*
X200926413Y-52260732D01*
X200395914Y-52260269D01*
X199905620Y-52462854D01*
X199530173Y-52837647D01*
X199326732Y-53327587D01*
X199326269Y-53858086D01*
X199528854Y-54348380D01*
X199903647Y-54723827D01*
X200393587Y-54927268D01*
X200924086Y-54927731D01*
X201414380Y-54725146D01*
X201789827Y-54350353D01*
X201993268Y-53860413D01*
X201993731Y-53329914D01*
X201993731Y-60949914D01*
X201791146Y-60459620D01*
X201416353Y-60084173D01*
X200926413Y-59880732D01*
X200395914Y-59880269D01*
X199905620Y-60082854D01*
X199530173Y-60457647D01*
X199326732Y-60947587D01*
X199326269Y-61478086D01*
X199528854Y-61968380D01*
X199898000Y-62338170D01*
X199898000Y-63845883D01*
X199654211Y-64008778D01*
X199390000Y-64404198D01*
X199125789Y-64008778D01*
X198664329Y-63700441D01*
X198120000Y-63592167D01*
X197575671Y-63700441D01*
X197114211Y-64008778D01*
X196850000Y-64404198D01*
X196585789Y-64008778D01*
X196124329Y-63700441D01*
X195580000Y-63592167D01*
X195035671Y-63700441D01*
X194574211Y-64008778D01*
X194310000Y-64404198D01*
X194045789Y-64008778D01*
X193584329Y-63700441D01*
X193040000Y-63592167D01*
X192495671Y-63700441D01*
X192034211Y-64008778D01*
X191770000Y-64404198D01*
X191505789Y-64008778D01*
X191044329Y-63700441D01*
X190500000Y-63592167D01*
X189955671Y-63700441D01*
X189494211Y-64008778D01*
X189230246Y-64403829D01*
X189225525Y-64387738D01*
X188875986Y-63953809D01*
X188386996Y-63686673D01*
X188307060Y-63669990D01*
X188087000Y-63792148D01*
X188087000Y-65278000D01*
X188107000Y-65278000D01*
X188107000Y-65532000D01*
X188087000Y-65532000D01*
X188087000Y-67017852D01*
X188307060Y-67140010D01*
X188386996Y-67123327D01*
X188875986Y-66856191D01*
X189225525Y-66422262D01*
X189230246Y-66406170D01*
X189494211Y-66801222D01*
X189955671Y-67109559D01*
X190500000Y-67217833D01*
X191044329Y-67109559D01*
X191505789Y-66801222D01*
X191770000Y-66405801D01*
X192034211Y-66801222D01*
X192495671Y-67109559D01*
X193040000Y-67217833D01*
X193584329Y-67109559D01*
X194045789Y-66801222D01*
X194310000Y-66405801D01*
X194574211Y-66801222D01*
X195035671Y-67109559D01*
X195580000Y-67217833D01*
X195586411Y-67216557D01*
X193771185Y-69031785D01*
X193606004Y-69278995D01*
X193548000Y-69570600D01*
X193548000Y-71313214D01*
X193040000Y-71212167D01*
X192495671Y-71320441D01*
X192034211Y-71628778D01*
X191770000Y-72024198D01*
X191505789Y-71628778D01*
X191044329Y-71320441D01*
X190500000Y-71212167D01*
X189955671Y-71320441D01*
X189494211Y-71628778D01*
X189230000Y-72024198D01*
X188965789Y-71628778D01*
X188504329Y-71320441D01*
X187960000Y-71212167D01*
X187833000Y-71237428D01*
X187833000Y-67017852D01*
X187833000Y-65532000D01*
X187833000Y-65278000D01*
X187833000Y-63792148D01*
X187612940Y-63669990D01*
X187533004Y-63686673D01*
X187044014Y-63953809D01*
X186694475Y-64387738D01*
X186537600Y-64922400D01*
X186537600Y-65278000D01*
X187833000Y-65278000D01*
X187833000Y-65532000D01*
X186537600Y-65532000D01*
X186537600Y-65887600D01*
X186694475Y-66422262D01*
X187044014Y-66856191D01*
X187533004Y-67123327D01*
X187612940Y-67140010D01*
X187833000Y-67017852D01*
X187833000Y-71237428D01*
X187415671Y-71320441D01*
X186954211Y-71628778D01*
X186645874Y-72090238D01*
X186537600Y-72634567D01*
X186537600Y-73415433D01*
X186645874Y-73959762D01*
X186954211Y-74421222D01*
X187415671Y-74729559D01*
X187960000Y-74837833D01*
X188504329Y-74729559D01*
X188965789Y-74421222D01*
X189230000Y-74025801D01*
X189494211Y-74421222D01*
X189955671Y-74729559D01*
X190500000Y-74837833D01*
X191044329Y-74729559D01*
X191505789Y-74421222D01*
X191770000Y-74025801D01*
X192034211Y-74421222D01*
X192495671Y-74729559D01*
X193040000Y-74837833D01*
X193548000Y-74736785D01*
X193548000Y-82108214D01*
X193040000Y-82007167D01*
X192495671Y-82115441D01*
X192034211Y-82423778D01*
X191770000Y-82819198D01*
X191505789Y-82423778D01*
X191044329Y-82115441D01*
X190500000Y-82007167D01*
X189955671Y-82115441D01*
X189494211Y-82423778D01*
X189230000Y-82819198D01*
X188965789Y-82423778D01*
X188504329Y-82115441D01*
X187960000Y-82007167D01*
X187415671Y-82115441D01*
X186954211Y-82423778D01*
X186690000Y-82819198D01*
X186425789Y-82423778D01*
X185964329Y-82115441D01*
X185420000Y-82007167D01*
X184875671Y-82115441D01*
X184414211Y-82423778D01*
X184150000Y-82819198D01*
X183885789Y-82423778D01*
X183424329Y-82115441D01*
X182880000Y-82007167D01*
X182335671Y-82115441D01*
X182237120Y-82181290D01*
X182237120Y-66654680D01*
X182237120Y-64155320D01*
X182190143Y-63913197D01*
X182050353Y-63700393D01*
X181839320Y-63557943D01*
X181589680Y-63507880D01*
X179090320Y-63507880D01*
X178848197Y-63554857D01*
X178635393Y-63694647D01*
X178492943Y-63905680D01*
X178442880Y-64155320D01*
X178442880Y-66654680D01*
X178489857Y-66896803D01*
X178629647Y-67109607D01*
X178840680Y-67252057D01*
X179090320Y-67302120D01*
X181589680Y-67302120D01*
X181831803Y-67255143D01*
X182044607Y-67115353D01*
X182187057Y-66904320D01*
X182237120Y-66654680D01*
X182237120Y-82181290D01*
X181874211Y-82423778D01*
X181610000Y-82819198D01*
X181345789Y-82423778D01*
X180884329Y-82115441D01*
X180340000Y-82007167D01*
X179795671Y-82115441D01*
X179334211Y-82423778D01*
X179070000Y-82819198D01*
X178805789Y-82423778D01*
X178344329Y-82115441D01*
X177800000Y-82007167D01*
X177255671Y-82115441D01*
X176794211Y-82423778D01*
X176530000Y-82819198D01*
X176265789Y-82423778D01*
X176212500Y-82388171D01*
X176212500Y-75832538D01*
X178067538Y-73977500D01*
X178694338Y-73977500D01*
X178741314Y-74091191D01*
X179271021Y-74621822D01*
X179963469Y-74909352D01*
X180713241Y-74910006D01*
X181406191Y-74623686D01*
X181936822Y-74093979D01*
X182224352Y-73401531D01*
X182225006Y-72651759D01*
X181938686Y-71958809D01*
X181408979Y-71428178D01*
X180716531Y-71140648D01*
X179966759Y-71139994D01*
X179273809Y-71426314D01*
X178743178Y-71956021D01*
X178694811Y-72072500D01*
X177673000Y-72072500D01*
X177308494Y-72145005D01*
X176999481Y-72351481D01*
X174586481Y-74764481D01*
X174380005Y-75073494D01*
X174307500Y-75438000D01*
X174307500Y-82388171D01*
X174254211Y-82423778D01*
X173990000Y-82819198D01*
X173725789Y-82423778D01*
X173264329Y-82115441D01*
X172720000Y-82007167D01*
X172175671Y-82115441D01*
X171714211Y-82423778D01*
X171450000Y-82819198D01*
X171185789Y-82423778D01*
X170724329Y-82115441D01*
X170180000Y-82007167D01*
X169635671Y-82115441D01*
X169174211Y-82423778D01*
X168910000Y-82819198D01*
X168645789Y-82423778D01*
X168184329Y-82115441D01*
X167640000Y-82007167D01*
X167095671Y-82115441D01*
X166994071Y-82183327D01*
X166994071Y-65729117D01*
X166973928Y-64979616D01*
X166725859Y-64380725D01*
X166433089Y-64251517D01*
X166253483Y-64431122D01*
X166253483Y-64071911D01*
X166124275Y-63779141D01*
X165424117Y-63510929D01*
X164674616Y-63531072D01*
X164075725Y-63779141D01*
X163946517Y-64071911D01*
X165100000Y-65225395D01*
X166253483Y-64071911D01*
X166253483Y-64431122D01*
X165279605Y-65405000D01*
X166433089Y-66558483D01*
X166725859Y-66429275D01*
X166994071Y-65729117D01*
X166994071Y-82183327D01*
X166634211Y-82423778D01*
X166370000Y-82819198D01*
X166105789Y-82423778D01*
X165862000Y-82260883D01*
X165862000Y-74749374D01*
X166166191Y-74623686D01*
X166696822Y-74093979D01*
X166984352Y-73401531D01*
X166985006Y-72651759D01*
X166698686Y-71958809D01*
X166253483Y-71512829D01*
X166253483Y-66738089D01*
X165100000Y-65584605D01*
X164920395Y-65764210D01*
X164920395Y-65405000D01*
X163766911Y-64251517D01*
X163474141Y-64380725D01*
X163205929Y-65080883D01*
X163226072Y-65830384D01*
X163474141Y-66429275D01*
X163766911Y-66558483D01*
X164920395Y-65405000D01*
X164920395Y-65764210D01*
X163946517Y-66738089D01*
X164075725Y-67030859D01*
X164775883Y-67299071D01*
X165525384Y-67278928D01*
X166124275Y-67030859D01*
X166253483Y-66738089D01*
X166253483Y-71512829D01*
X166168979Y-71428178D01*
X165476531Y-71140648D01*
X164726759Y-71139994D01*
X164033809Y-71426314D01*
X163503178Y-71956021D01*
X163215648Y-72648469D01*
X163214994Y-73398241D01*
X163501314Y-74091191D01*
X164031021Y-74621822D01*
X164338000Y-74749291D01*
X164338000Y-82260883D01*
X164094211Y-82423778D01*
X163830000Y-82819198D01*
X163565789Y-82423778D01*
X163104329Y-82115441D01*
X162560000Y-82007167D01*
X162015671Y-82115441D01*
X161554211Y-82423778D01*
X161290000Y-82819198D01*
X161025789Y-82423778D01*
X160564329Y-82115441D01*
X160020000Y-82007167D01*
X159475671Y-82115441D01*
X159014211Y-82423778D01*
X158750246Y-82818829D01*
X158745525Y-82802738D01*
X158395986Y-82368809D01*
X157906996Y-82101673D01*
X157827060Y-82084990D01*
X157607000Y-82207148D01*
X157607000Y-83693000D01*
X157627000Y-83693000D01*
X157627000Y-83947000D01*
X157607000Y-83947000D01*
X157607000Y-85432852D01*
X157827060Y-85555010D01*
X157906996Y-85538327D01*
X158395986Y-85271191D01*
X158745525Y-84837262D01*
X158750246Y-84821170D01*
X159014211Y-85216222D01*
X159475671Y-85524559D01*
X160020000Y-85632833D01*
X160564329Y-85524559D01*
X161025789Y-85216222D01*
X161290000Y-84820801D01*
X161554211Y-85216222D01*
X162015671Y-85524559D01*
X162560000Y-85632833D01*
X163104329Y-85524559D01*
X163565789Y-85216222D01*
X163830000Y-84820801D01*
X164094211Y-85216222D01*
X164555671Y-85524559D01*
X165100000Y-85632833D01*
X165644329Y-85524559D01*
X166105789Y-85216222D01*
X166370000Y-84820801D01*
X166634211Y-85216222D01*
X167095671Y-85524559D01*
X167640000Y-85632833D01*
X167956622Y-85569852D01*
X168904585Y-86517816D01*
X169052776Y-86616834D01*
X169151795Y-86682996D01*
X169151796Y-86682996D01*
X169443400Y-86741000D01*
X181076600Y-86741000D01*
X181076600Y-86740999D01*
X181368204Y-86682996D01*
X181368205Y-86682996D01*
X181615415Y-86517815D01*
X182563377Y-85569852D01*
X182880000Y-85632833D01*
X183424329Y-85524559D01*
X183885789Y-85216222D01*
X184150000Y-84820801D01*
X184414211Y-85216222D01*
X184875671Y-85524559D01*
X185420000Y-85632833D01*
X185964329Y-85524559D01*
X186425789Y-85216222D01*
X186690000Y-84820801D01*
X186954211Y-85216222D01*
X187415671Y-85524559D01*
X187960000Y-85632833D01*
X188504329Y-85524559D01*
X188965789Y-85216222D01*
X189230000Y-84820801D01*
X189494211Y-85216222D01*
X189955671Y-85524559D01*
X190500000Y-85632833D01*
X191044329Y-85524559D01*
X191505789Y-85216222D01*
X191770000Y-84820801D01*
X192034211Y-85216222D01*
X192357868Y-85432482D01*
X187493350Y-90297000D01*
X185445400Y-90297000D01*
X185153795Y-90355004D01*
X184906584Y-90520185D01*
X178116622Y-97310147D01*
X177800000Y-97247167D01*
X177255671Y-97355441D01*
X176794211Y-97663778D01*
X176530000Y-98059198D01*
X176265789Y-97663778D01*
X175804329Y-97355441D01*
X175260000Y-97247167D01*
X174715671Y-97355441D01*
X174254211Y-97663778D01*
X173990000Y-98059198D01*
X173725789Y-97663778D01*
X173264329Y-97355441D01*
X172720000Y-97247167D01*
X172175671Y-97355441D01*
X171714211Y-97663778D01*
X171450000Y-98059198D01*
X171185789Y-97663778D01*
X170724329Y-97355441D01*
X170180000Y-97247167D01*
X169635671Y-97355441D01*
X169174211Y-97663778D01*
X168910000Y-98059198D01*
X168645789Y-97663778D01*
X168184329Y-97355441D01*
X167640000Y-97247167D01*
X167095671Y-97355441D01*
X166634211Y-97663778D01*
X166370000Y-98059198D01*
X166105789Y-97663778D01*
X165644329Y-97355441D01*
X165100000Y-97247167D01*
X164555671Y-97355441D01*
X164094211Y-97663778D01*
X163830000Y-98059198D01*
X163565789Y-97663778D01*
X163104329Y-97355441D01*
X162560000Y-97247167D01*
X162015671Y-97355441D01*
X161554211Y-97663778D01*
X161290000Y-98059198D01*
X161025789Y-97663778D01*
X160564329Y-97355441D01*
X160020000Y-97247167D01*
X159475671Y-97355441D01*
X159014211Y-97663778D01*
X158750246Y-98058829D01*
X158745525Y-98042738D01*
X158395986Y-97608809D01*
X157906996Y-97341673D01*
X157827060Y-97324990D01*
X157607000Y-97447148D01*
X157607000Y-98933000D01*
X157627000Y-98933000D01*
X157627000Y-99187000D01*
X157607000Y-99187000D01*
X157607000Y-100672852D01*
X157827060Y-100795010D01*
X157906996Y-100778327D01*
X158395986Y-100511191D01*
X158745525Y-100077262D01*
X158750246Y-100061170D01*
X159014211Y-100456222D01*
X159475671Y-100764559D01*
X160020000Y-100872833D01*
X160564329Y-100764559D01*
X161025789Y-100456222D01*
X161290000Y-100060801D01*
X161554211Y-100456222D01*
X162015671Y-100764559D01*
X162560000Y-100872833D01*
X163104329Y-100764559D01*
X163565789Y-100456222D01*
X163830000Y-100060801D01*
X164094211Y-100456222D01*
X164555671Y-100764559D01*
X165100000Y-100872833D01*
X165644329Y-100764559D01*
X166105789Y-100456222D01*
X166370000Y-100060801D01*
X166634211Y-100456222D01*
X167095671Y-100764559D01*
X167640000Y-100872833D01*
X168184329Y-100764559D01*
X168645789Y-100456222D01*
X168910000Y-100060801D01*
X169174211Y-100456222D01*
X169635671Y-100764559D01*
X170180000Y-100872833D01*
X170724329Y-100764559D01*
X171185789Y-100456222D01*
X171450000Y-100060801D01*
X171714211Y-100456222D01*
X172175671Y-100764559D01*
X172720000Y-100872833D01*
X173264329Y-100764559D01*
X173725789Y-100456222D01*
X173990000Y-100060801D01*
X174254211Y-100456222D01*
X174715671Y-100764559D01*
X175260000Y-100872833D01*
X175804329Y-100764559D01*
X176265789Y-100456222D01*
X176530000Y-100060801D01*
X176794211Y-100456222D01*
X177255671Y-100764559D01*
X177800000Y-100872833D01*
X178344329Y-100764559D01*
X178805789Y-100456222D01*
X179070000Y-100060801D01*
X179334211Y-100456222D01*
X179795671Y-100764559D01*
X180340000Y-100872833D01*
X180884329Y-100764559D01*
X181345789Y-100456222D01*
X181610000Y-100060801D01*
X181874211Y-100456222D01*
X182118000Y-100619116D01*
X182118000Y-105661358D01*
X181965378Y-105813714D01*
X181800687Y-106210332D01*
X181800313Y-106639784D01*
X181964311Y-107036689D01*
X182267714Y-107340622D01*
X182664332Y-107505313D01*
X183093784Y-107505687D01*
X183490689Y-107341689D01*
X183794622Y-107038286D01*
X183959313Y-106641668D01*
X183959687Y-106212216D01*
X183795689Y-105815311D01*
X183642000Y-105661353D01*
X183642000Y-100619116D01*
X183885789Y-100456222D01*
X184150000Y-100060801D01*
X184414211Y-100456222D01*
X184875671Y-100764559D01*
X185420000Y-100872833D01*
X185964329Y-100764559D01*
X186425789Y-100456222D01*
X186690000Y-100060801D01*
X186954211Y-100456222D01*
X187415671Y-100764559D01*
X187960000Y-100872833D01*
X188504329Y-100764559D01*
X188965789Y-100456222D01*
X189230000Y-100060801D01*
X189494211Y-100456222D01*
X189955671Y-100764559D01*
X190500000Y-100872833D01*
X191044329Y-100764559D01*
X191505789Y-100456222D01*
X191770000Y-100060801D01*
X192034211Y-100456222D01*
X192278000Y-100619116D01*
X192278000Y-106550358D01*
X192125378Y-106702714D01*
X191960687Y-107099332D01*
X191960313Y-107528784D01*
X192124311Y-107925689D01*
X192427714Y-108229622D01*
X192824332Y-108394313D01*
X193253784Y-108394687D01*
X193650689Y-108230689D01*
X193954622Y-107927286D01*
X194119313Y-107530668D01*
X194119687Y-107101216D01*
X193955689Y-106704311D01*
X193802000Y-106550353D01*
X193802000Y-100619116D01*
X194045789Y-100456222D01*
X194310000Y-100060801D01*
X194574211Y-100456222D01*
X195035671Y-100764559D01*
X195580000Y-100872833D01*
X196124329Y-100764559D01*
X196585789Y-100456222D01*
X196850000Y-100060801D01*
X197114211Y-100456222D01*
X197575671Y-100764559D01*
X198120000Y-100872833D01*
X198664329Y-100764559D01*
X199125789Y-100456222D01*
X199390000Y-100060801D01*
X199654211Y-100456222D01*
X200115671Y-100764559D01*
X200660000Y-100872833D01*
X201204329Y-100764559D01*
X201665789Y-100456222D01*
X201930000Y-100060801D01*
X202194211Y-100456222D01*
X202247500Y-100491828D01*
X202247500Y-115189000D01*
X202320005Y-115553506D01*
X202526481Y-115862519D01*
X206082480Y-119418519D01*
X206082481Y-119418519D01*
X206391494Y-119624995D01*
X206756000Y-119697500D01*
X214114104Y-119697500D01*
X214205330Y-119834029D01*
X214476172Y-120015000D01*
X214205330Y-120195971D01*
X214114104Y-120332500D01*
X212852000Y-120332500D01*
X212487494Y-120405005D01*
X212178481Y-120611481D01*
X211187462Y-121602500D01*
X210048944Y-121602500D01*
X209827887Y-121381056D01*
X209318816Y-121169671D01*
X208767602Y-121169190D01*
X208258163Y-121379686D01*
X207868056Y-121769113D01*
X207656671Y-122278184D01*
X207656190Y-122829398D01*
X207866686Y-123338837D01*
X208256113Y-123728944D01*
X208765184Y-123940329D01*
X209316398Y-123940810D01*
X209825837Y-123730314D01*
X210049040Y-123507500D01*
X211582000Y-123507500D01*
X211946506Y-123434995D01*
X212255519Y-123228519D01*
X213246538Y-122237500D01*
X214114104Y-122237500D01*
X214205330Y-122374029D01*
X214476160Y-122554992D01*
X214058179Y-122936510D01*
X213810032Y-123465973D01*
X213930531Y-123698000D01*
X215138000Y-123698000D01*
X215138000Y-123678000D01*
X215392000Y-123678000D01*
X215392000Y-123698000D01*
X216470531Y-123698000D01*
X216599469Y-123698000D01*
X217678000Y-123698000D01*
X217678000Y-123678000D01*
X217932000Y-123678000D01*
X217932000Y-123698000D01*
X217952000Y-123698000D01*
X217952000Y-123952000D01*
X217932000Y-123952000D01*
X217932000Y-125031183D01*
X217932000Y-125158817D01*
X217932000Y-126238000D01*
X217952000Y-126238000D01*
X217952000Y-126492000D01*
X217932000Y-126492000D01*
X217932000Y-127698817D01*
X218164026Y-127819958D01*
X218579947Y-127647688D01*
X218948000Y-127311743D01*
X218948000Y-142113000D01*
X218948000Y-142113000D01*
G37*
X218948000Y-142113000D02*
X217781240Y-142113000D01*
X217781240Y-138515211D01*
X217678000Y-138265351D01*
X217678000Y-127698817D01*
X217678000Y-126492000D01*
X217678000Y-126238000D01*
X217678000Y-125158817D01*
X217678000Y-125031183D01*
X217678000Y-123952000D01*
X216599469Y-123952000D01*
X216470531Y-123952000D01*
X215392000Y-123952000D01*
X215392000Y-125031183D01*
X215392000Y-125158817D01*
X215392000Y-126238000D01*
X216470531Y-126238000D01*
X216599469Y-126238000D01*
X217678000Y-126238000D01*
X217678000Y-126492000D01*
X216599469Y-126492000D01*
X216470531Y-126492000D01*
X215392000Y-126492000D01*
X215392000Y-127698817D01*
X215624026Y-127819958D01*
X216039947Y-127647688D01*
X216471821Y-127253490D01*
X216534999Y-127118687D01*
X216598179Y-127253490D01*
X217030053Y-127647688D01*
X217445974Y-127819958D01*
X217678000Y-127698817D01*
X217678000Y-138265351D01*
X217456910Y-137730273D01*
X216856886Y-137129200D01*
X216072515Y-136803501D01*
X215223211Y-136802760D01*
X215138000Y-136837968D01*
X215138000Y-127698817D01*
X215138000Y-126492000D01*
X215138000Y-126238000D01*
X215138000Y-125158817D01*
X215138000Y-125031183D01*
X215138000Y-123952000D01*
X213930531Y-123952000D01*
X213810032Y-124184027D01*
X214058179Y-124713490D01*
X214476152Y-125095000D01*
X214058179Y-125476510D01*
X213810032Y-126005973D01*
X213930531Y-126238000D01*
X215138000Y-126238000D01*
X215138000Y-126492000D01*
X213930531Y-126492000D01*
X213810032Y-126724027D01*
X214058179Y-127253490D01*
X214490053Y-127647688D01*
X214905974Y-127819958D01*
X215138000Y-127698817D01*
X215138000Y-136837968D01*
X214438273Y-137127090D01*
X213837200Y-137727114D01*
X213511501Y-138511485D01*
X213510760Y-139360789D01*
X213835090Y-140145727D01*
X214435114Y-140746800D01*
X215219485Y-141072499D01*
X216068789Y-141073240D01*
X216853727Y-140748910D01*
X217454800Y-140148886D01*
X217780499Y-139364515D01*
X217781240Y-138515211D01*
X217781240Y-142113000D01*
X210439767Y-142113000D01*
X210439767Y-126569966D01*
X210411805Y-126019462D01*
X210254931Y-125640735D01*
X210013930Y-125572675D01*
X209834325Y-125752280D01*
X209834325Y-125393070D01*
X209766265Y-125152069D01*
X209246966Y-124967233D01*
X208696462Y-124995195D01*
X208317735Y-125152069D01*
X208249675Y-125393070D01*
X209042000Y-126185395D01*
X209834325Y-125393070D01*
X209834325Y-125752280D01*
X209221605Y-126365000D01*
X210013930Y-127157325D01*
X210254931Y-127089265D01*
X210439767Y-126569966D01*
X210439767Y-142113000D01*
X209834325Y-142113000D01*
X209834325Y-127336930D01*
X209042000Y-126544605D01*
X208862395Y-126724210D01*
X208862395Y-126365000D01*
X208070070Y-125572675D01*
X207829069Y-125640735D01*
X207644233Y-126160034D01*
X207672195Y-126710538D01*
X207829069Y-127089265D01*
X208070070Y-127157325D01*
X208862395Y-126365000D01*
X208862395Y-126724210D01*
X208249675Y-127336930D01*
X208317735Y-127577931D01*
X208837034Y-127762767D01*
X209387538Y-127734805D01*
X209766265Y-127577931D01*
X209834325Y-127336930D01*
X209834325Y-142113000D01*
X157353000Y-142113000D01*
X157353000Y-100672852D01*
X157353000Y-99187000D01*
X157333000Y-99187000D01*
X157333000Y-98933000D01*
X157353000Y-98933000D01*
X157353000Y-97447148D01*
X157353000Y-85432852D01*
X157353000Y-83947000D01*
X157353000Y-83693000D01*
X157353000Y-82207148D01*
X157132940Y-82084990D01*
X157053004Y-82101673D01*
X156564014Y-82368809D01*
X156214475Y-82802738D01*
X156210000Y-82817989D01*
X156205525Y-82802738D01*
X155855986Y-82368809D01*
X155366996Y-82101673D01*
X155287060Y-82084990D01*
X155067000Y-82207148D01*
X155067000Y-83693000D01*
X156057600Y-83693000D01*
X156362400Y-83693000D01*
X157353000Y-83693000D01*
X157353000Y-83947000D01*
X156362400Y-83947000D01*
X156057600Y-83947000D01*
X155067000Y-83947000D01*
X155067000Y-85432852D01*
X155287060Y-85555010D01*
X155366996Y-85538327D01*
X155855986Y-85271191D01*
X156205525Y-84837262D01*
X156210000Y-84822010D01*
X156214475Y-84837262D01*
X156564014Y-85271191D01*
X157053004Y-85538327D01*
X157132940Y-85555010D01*
X157353000Y-85432852D01*
X157353000Y-97447148D01*
X157132940Y-97324990D01*
X157053004Y-97341673D01*
X156564014Y-97608809D01*
X156214475Y-98042738D01*
X156209753Y-98058829D01*
X155945789Y-97663778D01*
X155484329Y-97355441D01*
X154940000Y-97247167D01*
X154813000Y-97272428D01*
X154813000Y-85432852D01*
X154813000Y-83947000D01*
X154813000Y-83693000D01*
X154813000Y-82207148D01*
X154592940Y-82084990D01*
X154513004Y-82101673D01*
X154024014Y-82368809D01*
X153674475Y-82802738D01*
X153517600Y-83337400D01*
X153517600Y-83693000D01*
X154813000Y-83693000D01*
X154813000Y-83947000D01*
X153517600Y-83947000D01*
X153517600Y-84302600D01*
X153674475Y-84837262D01*
X154024014Y-85271191D01*
X154513004Y-85538327D01*
X154592940Y-85555010D01*
X154813000Y-85432852D01*
X154813000Y-97272428D01*
X154395671Y-97355441D01*
X153934211Y-97663778D01*
X153625874Y-98125238D01*
X153517600Y-98669567D01*
X153517600Y-99450433D01*
X153625874Y-99994762D01*
X153934211Y-100456222D01*
X154395671Y-100764559D01*
X154940000Y-100872833D01*
X155484329Y-100764559D01*
X155945789Y-100456222D01*
X156209753Y-100061170D01*
X156214475Y-100077262D01*
X156564014Y-100511191D01*
X157053004Y-100778327D01*
X157132940Y-100795010D01*
X157353000Y-100672852D01*
X157353000Y-142113000D01*
X118860810Y-142113000D01*
X118860810Y-84815602D01*
X118650314Y-84306163D01*
X118260887Y-83916056D01*
X117751816Y-83704671D01*
X117200602Y-83704190D01*
X116691163Y-83914686D01*
X116301056Y-84304113D01*
X116205025Y-84535381D01*
X116110314Y-84306163D01*
X115720887Y-83916056D01*
X115211816Y-83704671D01*
X114660602Y-83704190D01*
X114151163Y-83914686D01*
X113761056Y-84304113D01*
X113549671Y-84813184D01*
X113549190Y-85364398D01*
X113759686Y-85873837D01*
X114149113Y-86263944D01*
X114658184Y-86475329D01*
X115209398Y-86475810D01*
X115718837Y-86265314D01*
X116108944Y-85875887D01*
X116204974Y-85644618D01*
X116299686Y-85873837D01*
X116522500Y-86097040D01*
X116522500Y-91045462D01*
X111289840Y-96278121D01*
X111289840Y-92583000D01*
X111289840Y-90297000D01*
X111242863Y-90054877D01*
X111240810Y-90051751D01*
X111240810Y-84815602D01*
X111030314Y-84306163D01*
X110640887Y-83916056D01*
X110131816Y-83704671D01*
X109580602Y-83704190D01*
X109071163Y-83914686D01*
X108681056Y-84304113D01*
X108585025Y-84535381D01*
X108490314Y-84306163D01*
X108100887Y-83916056D01*
X107591816Y-83704671D01*
X107040602Y-83704190D01*
X106531163Y-83914686D01*
X106141056Y-84304113D01*
X105929671Y-84813184D01*
X105929190Y-85364398D01*
X106139686Y-85873837D01*
X106529113Y-86263944D01*
X107038184Y-86475329D01*
X107589398Y-86475810D01*
X108098837Y-86265314D01*
X108488944Y-85875887D01*
X108584974Y-85644618D01*
X108679686Y-85873837D01*
X109069113Y-86263944D01*
X109578184Y-86475329D01*
X110129398Y-86475810D01*
X110638837Y-86265314D01*
X111028944Y-85875887D01*
X111240329Y-85366816D01*
X111240810Y-84815602D01*
X111240810Y-90051751D01*
X111103073Y-89842073D01*
X110892040Y-89699623D01*
X110642400Y-89649560D01*
X109067600Y-89649560D01*
X108825477Y-89696537D01*
X108612673Y-89836327D01*
X108470223Y-90047360D01*
X108436279Y-90216621D01*
X108320789Y-90043778D01*
X107859329Y-89735441D01*
X107315000Y-89627167D01*
X106770671Y-89735441D01*
X106309211Y-90043778D01*
X106044999Y-90439198D01*
X105780789Y-90043778D01*
X105319329Y-89735441D01*
X104775000Y-89627167D01*
X104230671Y-89735441D01*
X103769211Y-90043778D01*
X103620810Y-90265875D01*
X103620810Y-84815602D01*
X103410314Y-84306163D01*
X103020887Y-83916056D01*
X102511816Y-83704671D01*
X101960602Y-83704190D01*
X101451163Y-83914686D01*
X101061056Y-84304113D01*
X100965025Y-84535381D01*
X100870314Y-84306163D01*
X100480887Y-83916056D01*
X99971816Y-83704671D01*
X99420602Y-83704190D01*
X98911163Y-83914686D01*
X98521056Y-84304113D01*
X98309671Y-84813184D01*
X98309190Y-85364398D01*
X98519686Y-85873837D01*
X98909113Y-86263944D01*
X99418184Y-86475329D01*
X99969398Y-86475810D01*
X100478837Y-86265314D01*
X100868944Y-85875887D01*
X100964974Y-85644618D01*
X101059686Y-85873837D01*
X101449113Y-86263944D01*
X101958184Y-86475329D01*
X102509398Y-86475810D01*
X103018837Y-86265314D01*
X103408944Y-85875887D01*
X103620329Y-85366816D01*
X103620810Y-84815602D01*
X103620810Y-90265875D01*
X103504999Y-90439198D01*
X103240789Y-90043778D01*
X102779329Y-89735441D01*
X102235000Y-89627167D01*
X101690671Y-89735441D01*
X101229211Y-90043778D01*
X100964999Y-90439198D01*
X100700789Y-90043778D01*
X100239329Y-89735441D01*
X99695000Y-89627167D01*
X99150671Y-89735441D01*
X98689211Y-90043778D01*
X98425000Y-90439198D01*
X98160789Y-90043778D01*
X97699329Y-89735441D01*
X97155000Y-89627167D01*
X96610671Y-89735441D01*
X96149211Y-90043778D01*
X96000810Y-90265875D01*
X96000810Y-84815602D01*
X95790314Y-84306163D01*
X95400887Y-83916056D01*
X94891816Y-83704671D01*
X94340602Y-83704190D01*
X93831163Y-83914686D01*
X93441056Y-84304113D01*
X93351621Y-84519496D01*
X93287931Y-84365735D01*
X93046930Y-84297675D01*
X92867325Y-84477280D01*
X92867325Y-84118070D01*
X92799265Y-83877069D01*
X92279966Y-83692233D01*
X91729462Y-83720195D01*
X91350735Y-83877069D01*
X91282675Y-84118070D01*
X92075000Y-84910395D01*
X92867325Y-84118070D01*
X92867325Y-84477280D01*
X92254605Y-85090000D01*
X93046930Y-85882325D01*
X93287931Y-85814265D01*
X93346768Y-85648959D01*
X93439686Y-85873837D01*
X93829113Y-86263944D01*
X94338184Y-86475329D01*
X94889398Y-86475810D01*
X95398837Y-86265314D01*
X95788944Y-85875887D01*
X96000329Y-85366816D01*
X96000810Y-84815602D01*
X96000810Y-90265875D01*
X95885000Y-90439198D01*
X95620789Y-90043778D01*
X95159329Y-89735441D01*
X94615000Y-89627167D01*
X94070671Y-89735441D01*
X93609211Y-90043778D01*
X93345000Y-90439198D01*
X93080789Y-90043778D01*
X92867325Y-89901146D01*
X92867325Y-86061930D01*
X92075000Y-85269605D01*
X91895395Y-85449210D01*
X91895395Y-85090000D01*
X91103070Y-84297675D01*
X90862069Y-84365735D01*
X90677233Y-84885034D01*
X90705195Y-85435538D01*
X90862069Y-85814265D01*
X91103070Y-85882325D01*
X91895395Y-85090000D01*
X91895395Y-85449210D01*
X91282675Y-86061930D01*
X91350735Y-86302931D01*
X91870034Y-86487767D01*
X92420538Y-86459805D01*
X92799265Y-86302931D01*
X92867325Y-86061930D01*
X92867325Y-89901146D01*
X92619329Y-89735441D01*
X92075000Y-89627167D01*
X91530671Y-89735441D01*
X91069211Y-90043778D01*
X90760874Y-90505238D01*
X90652600Y-91049567D01*
X90652600Y-91830433D01*
X90760874Y-92374762D01*
X91069211Y-92836222D01*
X91530671Y-93144559D01*
X92075000Y-93252833D01*
X92619329Y-93144559D01*
X93080789Y-92836222D01*
X93345000Y-92440801D01*
X93609211Y-92836222D01*
X94070671Y-93144559D01*
X94615000Y-93252833D01*
X95159329Y-93144559D01*
X95620789Y-92836222D01*
X95885000Y-92440801D01*
X96149211Y-92836222D01*
X96610671Y-93144559D01*
X97155000Y-93252833D01*
X97699329Y-93144559D01*
X98160789Y-92836222D01*
X98425000Y-92440801D01*
X98689211Y-92836222D01*
X99150671Y-93144559D01*
X99695000Y-93252833D01*
X100239329Y-93144559D01*
X100700789Y-92836222D01*
X100965000Y-92440801D01*
X101229211Y-92836222D01*
X101690671Y-93144559D01*
X102235000Y-93252833D01*
X102779329Y-93144559D01*
X103240789Y-92836222D01*
X103505000Y-92440801D01*
X103769211Y-92836222D01*
X104230671Y-93144559D01*
X104775000Y-93252833D01*
X105319329Y-93144559D01*
X105780789Y-92836222D01*
X106045000Y-92440801D01*
X106309211Y-92836222D01*
X106770671Y-93144559D01*
X107315000Y-93252833D01*
X107859329Y-93144559D01*
X108320789Y-92836222D01*
X108435873Y-92663986D01*
X108467137Y-92825123D01*
X108606927Y-93037927D01*
X108817960Y-93180377D01*
X109067600Y-93230440D01*
X110642400Y-93230440D01*
X110884523Y-93183463D01*
X111097327Y-93043673D01*
X111239777Y-92832640D01*
X111289840Y-92583000D01*
X111289840Y-96278121D01*
X110243514Y-97324447D01*
X109855000Y-97247167D01*
X109310671Y-97355441D01*
X108849211Y-97663778D01*
X108585246Y-98058829D01*
X108580525Y-98042738D01*
X108230986Y-97608809D01*
X107741996Y-97341673D01*
X107662060Y-97324990D01*
X107442000Y-97447148D01*
X107442000Y-98933000D01*
X107462000Y-98933000D01*
X107462000Y-99187000D01*
X107442000Y-99187000D01*
X107442000Y-100672852D01*
X107662060Y-100795010D01*
X107741996Y-100778327D01*
X108230986Y-100511191D01*
X108580525Y-100077262D01*
X108585246Y-100061170D01*
X108849211Y-100456222D01*
X108902500Y-100491828D01*
X108902500Y-103768055D01*
X108681056Y-103989113D01*
X108591621Y-104204496D01*
X108527931Y-104050735D01*
X108286930Y-103982675D01*
X108107325Y-104162280D01*
X108107325Y-103803070D01*
X108039265Y-103562069D01*
X107519966Y-103377233D01*
X107188000Y-103394094D01*
X107188000Y-100672852D01*
X107188000Y-99187000D01*
X107168000Y-99187000D01*
X107168000Y-98933000D01*
X107188000Y-98933000D01*
X107188000Y-97447148D01*
X106967940Y-97324990D01*
X106888004Y-97341673D01*
X106399014Y-97608809D01*
X106049475Y-98042738D01*
X106044753Y-98058829D01*
X105780789Y-97663778D01*
X105319329Y-97355441D01*
X104775000Y-97247167D01*
X104230671Y-97355441D01*
X103769211Y-97663778D01*
X103504999Y-98059198D01*
X103240789Y-97663778D01*
X102779329Y-97355441D01*
X102235000Y-97247167D01*
X101690671Y-97355441D01*
X101229211Y-97663778D01*
X100964999Y-98059198D01*
X100700789Y-97663778D01*
X100239329Y-97355441D01*
X99695000Y-97247167D01*
X99150671Y-97355441D01*
X98689211Y-97663778D01*
X98424999Y-98059198D01*
X98160789Y-97663778D01*
X97699329Y-97355441D01*
X97155000Y-97247167D01*
X96610671Y-97355441D01*
X96149211Y-97663778D01*
X95885000Y-98059198D01*
X95620789Y-97663778D01*
X95159329Y-97355441D01*
X94615000Y-97247167D01*
X94070671Y-97355441D01*
X93609211Y-97663778D01*
X93345000Y-98059198D01*
X93080789Y-97663778D01*
X92619329Y-97355441D01*
X92075000Y-97247167D01*
X91530671Y-97355441D01*
X91069211Y-97663778D01*
X90760874Y-98125238D01*
X90652600Y-98669567D01*
X90652600Y-99450433D01*
X90760874Y-99994762D01*
X91069211Y-100456222D01*
X91530671Y-100764559D01*
X92075000Y-100872833D01*
X92619329Y-100764559D01*
X93080789Y-100456222D01*
X93345000Y-100060801D01*
X93609211Y-100456222D01*
X94070671Y-100764559D01*
X94615000Y-100872833D01*
X95159329Y-100764559D01*
X95620789Y-100456222D01*
X95885000Y-100060801D01*
X96149211Y-100456222D01*
X96610671Y-100764559D01*
X97155000Y-100872833D01*
X97699329Y-100764559D01*
X98160789Y-100456222D01*
X98425000Y-100060801D01*
X98689211Y-100456222D01*
X99150671Y-100764559D01*
X99695000Y-100872833D01*
X100239329Y-100764559D01*
X100700789Y-100456222D01*
X100965000Y-100060801D01*
X101229211Y-100456222D01*
X101690671Y-100764559D01*
X102235000Y-100872833D01*
X102779329Y-100764559D01*
X103240789Y-100456222D01*
X103505000Y-100060801D01*
X103769211Y-100456222D01*
X104230671Y-100764559D01*
X104775000Y-100872833D01*
X105319329Y-100764559D01*
X105780789Y-100456222D01*
X106044753Y-100061170D01*
X106049475Y-100077262D01*
X106399014Y-100511191D01*
X106888004Y-100778327D01*
X106967940Y-100795010D01*
X107188000Y-100672852D01*
X107188000Y-103394094D01*
X106969462Y-103405195D01*
X106590735Y-103562069D01*
X106522675Y-103803070D01*
X107315000Y-104595395D01*
X108107325Y-103803070D01*
X108107325Y-104162280D01*
X107494605Y-104775000D01*
X108286930Y-105567325D01*
X108527931Y-105499265D01*
X108586768Y-105333959D01*
X108679686Y-105558837D01*
X109069113Y-105948944D01*
X109578184Y-106160329D01*
X110129398Y-106160810D01*
X110638837Y-105950314D01*
X111028944Y-105560887D01*
X111240329Y-105051816D01*
X111240810Y-104500602D01*
X111030314Y-103991163D01*
X110807500Y-103767959D01*
X110807500Y-100491828D01*
X110860789Y-100456222D01*
X111169126Y-99994762D01*
X111277400Y-99450433D01*
X111277400Y-98984638D01*
X118148519Y-92113519D01*
X118354995Y-91804506D01*
X118427499Y-91440000D01*
X118427500Y-91440000D01*
X118427500Y-86096944D01*
X118648944Y-85875887D01*
X118860329Y-85366816D01*
X118860810Y-84815602D01*
X118860810Y-142113000D01*
X108107325Y-142113000D01*
X108107325Y-105746930D01*
X107315000Y-104954605D01*
X107135395Y-105134210D01*
X107135395Y-104775000D01*
X106343070Y-103982675D01*
X106102069Y-104050735D01*
X105917233Y-104570034D01*
X105945195Y-105120538D01*
X106102069Y-105499265D01*
X106343070Y-105567325D01*
X107135395Y-104775000D01*
X107135395Y-105134210D01*
X106522675Y-105746930D01*
X106590735Y-105987931D01*
X107110034Y-106172767D01*
X107660538Y-106144805D01*
X108039265Y-105987931D01*
X108107325Y-105746930D01*
X108107325Y-142113000D01*
X89565000Y-142113000D01*
X89565000Y-141535000D01*
X89565000Y-137565000D01*
X87693731Y-137565000D01*
X87693731Y-93715914D01*
X87693731Y-86095914D01*
X87491146Y-85605620D01*
X87116353Y-85230173D01*
X86626413Y-85026732D01*
X86095914Y-85026269D01*
X85605620Y-85228854D01*
X85230173Y-85603647D01*
X85026732Y-86093587D01*
X85026269Y-86624086D01*
X85228854Y-87114380D01*
X85603647Y-87489827D01*
X86093587Y-87693268D01*
X86624086Y-87693731D01*
X87114380Y-87491146D01*
X87489827Y-87116353D01*
X87693268Y-86626413D01*
X87693731Y-86095914D01*
X87693731Y-93715914D01*
X87491146Y-93225620D01*
X87116353Y-92850173D01*
X86626413Y-92646732D01*
X86095914Y-92646269D01*
X85605620Y-92848854D01*
X85230173Y-93223647D01*
X85026732Y-93713587D01*
X85026269Y-94244086D01*
X85228854Y-94734380D01*
X85603647Y-95109827D01*
X86093587Y-95313268D01*
X86624086Y-95313731D01*
X87114380Y-95111146D01*
X87489827Y-94736353D01*
X87693268Y-94246413D01*
X87693731Y-93715914D01*
X87693731Y-137565000D01*
X82687432Y-137565000D01*
X82687432Y-94211140D01*
X82581962Y-93680905D01*
X82281608Y-93231394D01*
X81832097Y-92931040D01*
X81301862Y-92825570D01*
X81832097Y-92720100D01*
X82281608Y-92419746D01*
X82581962Y-91970235D01*
X82687432Y-91440000D01*
X82581962Y-90909765D01*
X82281608Y-90460254D01*
X81832097Y-90159900D01*
X81301862Y-90054430D01*
X81832097Y-89948960D01*
X82281608Y-89648606D01*
X82581962Y-89199095D01*
X82687432Y-88668860D01*
X82581962Y-88138625D01*
X82281608Y-87689114D01*
X81832097Y-87388760D01*
X81308246Y-87284560D01*
X81832097Y-87180360D01*
X82281608Y-86880006D01*
X82581962Y-86430495D01*
X82687432Y-85900260D01*
X82638173Y-85652617D01*
X82638173Y-78324761D01*
X82161808Y-77171869D01*
X81280511Y-76289032D01*
X80128452Y-75810655D01*
X78881021Y-75809567D01*
X77728129Y-76285932D01*
X76845292Y-77167229D01*
X76366915Y-78319288D01*
X76365827Y-79566719D01*
X76842192Y-80719611D01*
X77723489Y-81602448D01*
X78875548Y-82080825D01*
X80122979Y-82081913D01*
X81275871Y-81605548D01*
X82158708Y-80724251D01*
X82637085Y-79572192D01*
X82638173Y-78324761D01*
X82638173Y-85652617D01*
X82581962Y-85370025D01*
X82281608Y-84920514D01*
X81832097Y-84620160D01*
X81301862Y-84514690D01*
X80739978Y-84514690D01*
X80209743Y-84620160D01*
X79760232Y-84920514D01*
X79459878Y-85370025D01*
X79354408Y-85900260D01*
X79459878Y-86430495D01*
X79760232Y-86880006D01*
X80209743Y-87180360D01*
X80733593Y-87284560D01*
X80209743Y-87388760D01*
X79760232Y-87689114D01*
X79459878Y-88138625D01*
X79354408Y-88668860D01*
X79459878Y-89199095D01*
X79760232Y-89648606D01*
X80209743Y-89948960D01*
X80739978Y-90054430D01*
X80209743Y-90159900D01*
X79760232Y-90460254D01*
X79459878Y-90909765D01*
X79354408Y-91440000D01*
X79459878Y-91970235D01*
X79760232Y-92419746D01*
X80209743Y-92720100D01*
X80739978Y-92825570D01*
X80209743Y-92931040D01*
X79760232Y-93231394D01*
X79459878Y-93680905D01*
X79354408Y-94211140D01*
X79459878Y-94741375D01*
X79760232Y-95190886D01*
X80209743Y-95491240D01*
X80739978Y-95596710D01*
X80893918Y-95596710D01*
X80893918Y-95747352D01*
X80674797Y-95586659D01*
X80149087Y-95729899D01*
X79718210Y-96063416D01*
X79649592Y-96183430D01*
X79649592Y-95595440D01*
X79544122Y-95065205D01*
X79243768Y-94615694D01*
X78794257Y-94315340D01*
X78264022Y-94209870D01*
X78794257Y-94104400D01*
X79243768Y-93804046D01*
X79544122Y-93354535D01*
X79649592Y-92824300D01*
X79544122Y-92294065D01*
X79243768Y-91844554D01*
X78794257Y-91544200D01*
X78270406Y-91440000D01*
X78794257Y-91335800D01*
X79243768Y-91035446D01*
X79544122Y-90585935D01*
X79649592Y-90055700D01*
X79544122Y-89525465D01*
X79243768Y-89075954D01*
X78794257Y-88775600D01*
X78264022Y-88670130D01*
X78794257Y-88564660D01*
X79243768Y-88264306D01*
X79544122Y-87814795D01*
X79649592Y-87284560D01*
X79544122Y-86754325D01*
X79243768Y-86304814D01*
X78794257Y-86004460D01*
X78264022Y-85898990D01*
X77702138Y-85898990D01*
X77171903Y-86004460D01*
X76722392Y-86304814D01*
X76422038Y-86754325D01*
X76316568Y-87284560D01*
X76422038Y-87814795D01*
X76722392Y-88264306D01*
X77171903Y-88564660D01*
X77702138Y-88670130D01*
X77171903Y-88775600D01*
X76722392Y-89075954D01*
X76422038Y-89525465D01*
X76316568Y-90055700D01*
X76422038Y-90585935D01*
X76722392Y-91035446D01*
X77171903Y-91335800D01*
X77695753Y-91440000D01*
X77171903Y-91544200D01*
X76722392Y-91844554D01*
X76422038Y-92294065D01*
X76316568Y-92824300D01*
X76422038Y-93354535D01*
X76722392Y-93804046D01*
X77171903Y-94104400D01*
X77702138Y-94209870D01*
X77171903Y-94315340D01*
X76722392Y-94615694D01*
X76422038Y-95065205D01*
X76316568Y-95595440D01*
X76422038Y-96125675D01*
X76722392Y-96575186D01*
X77171903Y-96875540D01*
X77702138Y-96981010D01*
X78264022Y-96981010D01*
X78794257Y-96875540D01*
X79243768Y-96575186D01*
X79544122Y-96125675D01*
X79649592Y-95595440D01*
X79649592Y-96183430D01*
X79447763Y-96536435D01*
X79429117Y-96638465D01*
X79551771Y-96852740D01*
X80893920Y-96852740D01*
X80893920Y-96832740D01*
X81147920Y-96832740D01*
X81147920Y-96852740D01*
X82490069Y-96852740D01*
X82612723Y-96638465D01*
X82594077Y-96536435D01*
X82323630Y-96063416D01*
X81892753Y-95729899D01*
X81367043Y-95586659D01*
X81147922Y-95747352D01*
X81147922Y-95596710D01*
X81301862Y-95596710D01*
X81832097Y-95491240D01*
X82281608Y-95190886D01*
X82581962Y-94741375D01*
X82687432Y-94211140D01*
X82687432Y-137565000D01*
X82638173Y-137565000D01*
X82638173Y-103313281D01*
X82612723Y-103251687D01*
X82612723Y-97321015D01*
X82490069Y-97106740D01*
X81147920Y-97106740D01*
X81147920Y-98212126D01*
X81367043Y-98372821D01*
X81892753Y-98229581D01*
X82323630Y-97896064D01*
X82594077Y-97423045D01*
X82612723Y-97321015D01*
X82612723Y-103251687D01*
X82161808Y-102160389D01*
X81280511Y-101277552D01*
X80893920Y-101117025D01*
X80893920Y-98212126D01*
X80893920Y-97106740D01*
X79551771Y-97106740D01*
X79429117Y-97321015D01*
X79447763Y-97423045D01*
X79718210Y-97896064D01*
X80149087Y-98229581D01*
X80674797Y-98372821D01*
X80893920Y-98212126D01*
X80893920Y-101117025D01*
X80128452Y-100799175D01*
X78881021Y-100798087D01*
X77728129Y-101274452D01*
X76845292Y-102155749D01*
X76366915Y-103307808D01*
X76365827Y-104555239D01*
X76842192Y-105708131D01*
X77723489Y-106590968D01*
X78875548Y-107069345D01*
X80122979Y-107070433D01*
X81275871Y-106594068D01*
X82158708Y-105712771D01*
X82637085Y-104560712D01*
X82638173Y-103313281D01*
X82638173Y-137565000D01*
X72995000Y-137565000D01*
X72995000Y-141535000D01*
X89565000Y-141535000D01*
X89565000Y-142113000D01*
X70715240Y-142113000D01*
X70715240Y-138515211D01*
X70715240Y-52409211D01*
X70390910Y-51624273D01*
X69790886Y-51023200D01*
X69006515Y-50697501D01*
X68157211Y-50696760D01*
X67372273Y-51021090D01*
X66771200Y-51621114D01*
X66445501Y-52405485D01*
X66444760Y-53254789D01*
X66769090Y-54039727D01*
X67369114Y-54640800D01*
X68153485Y-54966499D01*
X69002789Y-54967240D01*
X69787727Y-54642910D01*
X70388800Y-54042886D01*
X70714499Y-53258515D01*
X70715240Y-52409211D01*
X70715240Y-138515211D01*
X70390910Y-137730273D01*
X69790886Y-137129200D01*
X69006515Y-136803501D01*
X68157211Y-136802760D01*
X67372273Y-137127090D01*
X66771200Y-137727114D01*
X66445501Y-138511485D01*
X66444760Y-139360789D01*
X66769090Y-140145727D01*
X67369114Y-140746800D01*
X68153485Y-141072499D01*
X69002789Y-141073240D01*
X69787727Y-140748910D01*
X70388800Y-140148886D01*
X70714499Y-139364515D01*
X70715240Y-138515211D01*
X70715240Y-142113000D01*
X65532000Y-142113000D01*
X65532000Y-49657000D01*
X65532053Y-49657000D01*
X218948000Y-49530105D01*
X218948000Y-64440683D01*
X218864670Y-64315971D01*
X218378489Y-63991115D01*
X217805000Y-63877041D01*
X217781240Y-63881767D01*
X217781240Y-52155211D01*
X217456910Y-51370273D01*
X216856886Y-50769200D01*
X216072515Y-50443501D01*
X215223211Y-50442760D01*
X214438273Y-50767090D01*
X213837200Y-51367114D01*
X213511501Y-52151485D01*
X213510760Y-53000789D01*
X213835090Y-53785727D01*
X214435114Y-54386800D01*
X215219485Y-54712499D01*
X216068789Y-54713240D01*
X216853727Y-54388910D01*
X217454800Y-53788886D01*
X217780499Y-53004515D01*
X217781240Y-52155211D01*
X217781240Y-63881767D01*
X217231511Y-63991115D01*
X216745330Y-64315971D01*
X216735233Y-64331081D01*
X216729063Y-64299277D01*
X216589273Y-64086473D01*
X216378240Y-63944023D01*
X216128600Y-63893960D01*
X214401400Y-63893960D01*
X214159277Y-63940937D01*
X213946473Y-64080727D01*
X213804023Y-64291760D01*
X213753960Y-64541400D01*
X213753960Y-65569002D01*
X208973124Y-70349837D01*
X208962148Y-70147801D01*
X208814800Y-69792071D01*
X208579188Y-69730417D01*
X208399583Y-69910022D01*
X208399583Y-69550812D01*
X208337929Y-69315200D01*
X207837520Y-69139073D01*
X207307801Y-69167852D01*
X206952071Y-69315200D01*
X206890417Y-69550812D01*
X207645000Y-70305395D01*
X208399583Y-69550812D01*
X208399583Y-69910022D01*
X207824605Y-70485000D01*
X207838747Y-70499142D01*
X207659142Y-70678747D01*
X207645000Y-70664605D01*
X207465395Y-70844210D01*
X207465395Y-70485000D01*
X206710812Y-69730417D01*
X206475200Y-69792071D01*
X206299073Y-70292480D01*
X206327852Y-70822199D01*
X206475200Y-71177929D01*
X206710812Y-71239583D01*
X207465395Y-70485000D01*
X207465395Y-70844210D01*
X206890417Y-71419188D01*
X206952071Y-71654800D01*
X207231311Y-71753083D01*
X206890620Y-71893854D01*
X206711662Y-72072500D01*
X204502273Y-72072500D01*
X204205789Y-71628778D01*
X203744329Y-71320441D01*
X203200000Y-71212167D01*
X202655671Y-71320441D01*
X202194211Y-71628778D01*
X201930000Y-72024198D01*
X201665789Y-71628778D01*
X201204329Y-71320441D01*
X200660000Y-71212167D01*
X200152000Y-71313214D01*
X200152000Y-69530630D01*
X201198815Y-68483816D01*
X201198815Y-68483815D01*
X201363996Y-68236605D01*
X201421999Y-67945000D01*
X201422000Y-67945000D01*
X201422000Y-66964116D01*
X201665789Y-66801222D01*
X201780873Y-66628986D01*
X201812137Y-66790123D01*
X201951927Y-67002927D01*
X202162960Y-67145377D01*
X202412600Y-67195440D01*
X203987400Y-67195440D01*
X204229523Y-67148463D01*
X204442327Y-67008673D01*
X204584777Y-66797640D01*
X204634840Y-66548000D01*
X204634840Y-64262000D01*
X204587863Y-64019877D01*
X204448073Y-63807073D01*
X204237040Y-63664623D01*
X203987400Y-63614560D01*
X202412600Y-63614560D01*
X202170477Y-63661537D01*
X201957673Y-63801327D01*
X201815223Y-64012360D01*
X201781279Y-64181621D01*
X201665789Y-64008778D01*
X201422000Y-63845883D01*
X201422000Y-62337539D01*
X201789827Y-61970353D01*
X201993268Y-61480413D01*
X201993731Y-60949914D01*
X201993731Y-53329914D01*
X201791146Y-52839620D01*
X201416353Y-52464173D01*
X200926413Y-52260732D01*
X200395914Y-52260269D01*
X199905620Y-52462854D01*
X199530173Y-52837647D01*
X199326732Y-53327587D01*
X199326269Y-53858086D01*
X199528854Y-54348380D01*
X199903647Y-54723827D01*
X200393587Y-54927268D01*
X200924086Y-54927731D01*
X201414380Y-54725146D01*
X201789827Y-54350353D01*
X201993268Y-53860413D01*
X201993731Y-53329914D01*
X201993731Y-60949914D01*
X201791146Y-60459620D01*
X201416353Y-60084173D01*
X200926413Y-59880732D01*
X200395914Y-59880269D01*
X199905620Y-60082854D01*
X199530173Y-60457647D01*
X199326732Y-60947587D01*
X199326269Y-61478086D01*
X199528854Y-61968380D01*
X199898000Y-62338170D01*
X199898000Y-63845883D01*
X199654211Y-64008778D01*
X199390000Y-64404198D01*
X199125789Y-64008778D01*
X198664329Y-63700441D01*
X198120000Y-63592167D01*
X197575671Y-63700441D01*
X197114211Y-64008778D01*
X196850000Y-64404198D01*
X196585789Y-64008778D01*
X196124329Y-63700441D01*
X195580000Y-63592167D01*
X195035671Y-63700441D01*
X194574211Y-64008778D01*
X194310000Y-64404198D01*
X194045789Y-64008778D01*
X193584329Y-63700441D01*
X193040000Y-63592167D01*
X192495671Y-63700441D01*
X192034211Y-64008778D01*
X191770000Y-64404198D01*
X191505789Y-64008778D01*
X191044329Y-63700441D01*
X190500000Y-63592167D01*
X189955671Y-63700441D01*
X189494211Y-64008778D01*
X189230246Y-64403829D01*
X189225525Y-64387738D01*
X188875986Y-63953809D01*
X188386996Y-63686673D01*
X188307060Y-63669990D01*
X188087000Y-63792148D01*
X188087000Y-65278000D01*
X188107000Y-65278000D01*
X188107000Y-65532000D01*
X188087000Y-65532000D01*
X188087000Y-67017852D01*
X188307060Y-67140010D01*
X188386996Y-67123327D01*
X188875986Y-66856191D01*
X189225525Y-66422262D01*
X189230246Y-66406170D01*
X189494211Y-66801222D01*
X189955671Y-67109559D01*
X190500000Y-67217833D01*
X191044329Y-67109559D01*
X191505789Y-66801222D01*
X191770000Y-66405801D01*
X192034211Y-66801222D01*
X192495671Y-67109559D01*
X193040000Y-67217833D01*
X193584329Y-67109559D01*
X194045789Y-66801222D01*
X194310000Y-66405801D01*
X194574211Y-66801222D01*
X195035671Y-67109559D01*
X195580000Y-67217833D01*
X195586411Y-67216557D01*
X193771185Y-69031785D01*
X193606004Y-69278995D01*
X193548000Y-69570600D01*
X193548000Y-71313214D01*
X193040000Y-71212167D01*
X192495671Y-71320441D01*
X192034211Y-71628778D01*
X191770000Y-72024198D01*
X191505789Y-71628778D01*
X191044329Y-71320441D01*
X190500000Y-71212167D01*
X189955671Y-71320441D01*
X189494211Y-71628778D01*
X189230000Y-72024198D01*
X188965789Y-71628778D01*
X188504329Y-71320441D01*
X187960000Y-71212167D01*
X187833000Y-71237428D01*
X187833000Y-67017852D01*
X187833000Y-65532000D01*
X187833000Y-65278000D01*
X187833000Y-63792148D01*
X187612940Y-63669990D01*
X187533004Y-63686673D01*
X187044014Y-63953809D01*
X186694475Y-64387738D01*
X186537600Y-64922400D01*
X186537600Y-65278000D01*
X187833000Y-65278000D01*
X187833000Y-65532000D01*
X186537600Y-65532000D01*
X186537600Y-65887600D01*
X186694475Y-66422262D01*
X187044014Y-66856191D01*
X187533004Y-67123327D01*
X187612940Y-67140010D01*
X187833000Y-67017852D01*
X187833000Y-71237428D01*
X187415671Y-71320441D01*
X186954211Y-71628778D01*
X186645874Y-72090238D01*
X186537600Y-72634567D01*
X186537600Y-73415433D01*
X186645874Y-73959762D01*
X186954211Y-74421222D01*
X187415671Y-74729559D01*
X187960000Y-74837833D01*
X188504329Y-74729559D01*
X188965789Y-74421222D01*
X189230000Y-74025801D01*
X189494211Y-74421222D01*
X189955671Y-74729559D01*
X190500000Y-74837833D01*
X191044329Y-74729559D01*
X191505789Y-74421222D01*
X191770000Y-74025801D01*
X192034211Y-74421222D01*
X192495671Y-74729559D01*
X193040000Y-74837833D01*
X193548000Y-74736785D01*
X193548000Y-82108214D01*
X193040000Y-82007167D01*
X192495671Y-82115441D01*
X192034211Y-82423778D01*
X191770000Y-82819198D01*
X191505789Y-82423778D01*
X191044329Y-82115441D01*
X190500000Y-82007167D01*
X189955671Y-82115441D01*
X189494211Y-82423778D01*
X189230000Y-82819198D01*
X188965789Y-82423778D01*
X188504329Y-82115441D01*
X187960000Y-82007167D01*
X187415671Y-82115441D01*
X186954211Y-82423778D01*
X186690000Y-82819198D01*
X186425789Y-82423778D01*
X185964329Y-82115441D01*
X185420000Y-82007167D01*
X184875671Y-82115441D01*
X184414211Y-82423778D01*
X184150000Y-82819198D01*
X183885789Y-82423778D01*
X183424329Y-82115441D01*
X182880000Y-82007167D01*
X182335671Y-82115441D01*
X182237120Y-82181290D01*
X182237120Y-66654680D01*
X182237120Y-64155320D01*
X182190143Y-63913197D01*
X182050353Y-63700393D01*
X181839320Y-63557943D01*
X181589680Y-63507880D01*
X179090320Y-63507880D01*
X178848197Y-63554857D01*
X178635393Y-63694647D01*
X178492943Y-63905680D01*
X178442880Y-64155320D01*
X178442880Y-66654680D01*
X178489857Y-66896803D01*
X178629647Y-67109607D01*
X178840680Y-67252057D01*
X179090320Y-67302120D01*
X181589680Y-67302120D01*
X181831803Y-67255143D01*
X182044607Y-67115353D01*
X182187057Y-66904320D01*
X182237120Y-66654680D01*
X182237120Y-82181290D01*
X181874211Y-82423778D01*
X181610000Y-82819198D01*
X181345789Y-82423778D01*
X180884329Y-82115441D01*
X180340000Y-82007167D01*
X179795671Y-82115441D01*
X179334211Y-82423778D01*
X179070000Y-82819198D01*
X178805789Y-82423778D01*
X178344329Y-82115441D01*
X177800000Y-82007167D01*
X177255671Y-82115441D01*
X176794211Y-82423778D01*
X176530000Y-82819198D01*
X176265789Y-82423778D01*
X176212500Y-82388171D01*
X176212500Y-75832538D01*
X178067538Y-73977500D01*
X178694338Y-73977500D01*
X178741314Y-74091191D01*
X179271021Y-74621822D01*
X179963469Y-74909352D01*
X180713241Y-74910006D01*
X181406191Y-74623686D01*
X181936822Y-74093979D01*
X182224352Y-73401531D01*
X182225006Y-72651759D01*
X181938686Y-71958809D01*
X181408979Y-71428178D01*
X180716531Y-71140648D01*
X179966759Y-71139994D01*
X179273809Y-71426314D01*
X178743178Y-71956021D01*
X178694811Y-72072500D01*
X177673000Y-72072500D01*
X177308494Y-72145005D01*
X176999481Y-72351481D01*
X174586481Y-74764481D01*
X174380005Y-75073494D01*
X174307500Y-75438000D01*
X174307500Y-82388171D01*
X174254211Y-82423778D01*
X173990000Y-82819198D01*
X173725789Y-82423778D01*
X173264329Y-82115441D01*
X172720000Y-82007167D01*
X172175671Y-82115441D01*
X171714211Y-82423778D01*
X171450000Y-82819198D01*
X171185789Y-82423778D01*
X170724329Y-82115441D01*
X170180000Y-82007167D01*
X169635671Y-82115441D01*
X169174211Y-82423778D01*
X168910000Y-82819198D01*
X168645789Y-82423778D01*
X168184329Y-82115441D01*
X167640000Y-82007167D01*
X167095671Y-82115441D01*
X166994071Y-82183327D01*
X166994071Y-65729117D01*
X166973928Y-64979616D01*
X166725859Y-64380725D01*
X166433089Y-64251517D01*
X166253483Y-64431122D01*
X166253483Y-64071911D01*
X166124275Y-63779141D01*
X165424117Y-63510929D01*
X164674616Y-63531072D01*
X164075725Y-63779141D01*
X163946517Y-64071911D01*
X165100000Y-65225395D01*
X166253483Y-64071911D01*
X166253483Y-64431122D01*
X165279605Y-65405000D01*
X166433089Y-66558483D01*
X166725859Y-66429275D01*
X166994071Y-65729117D01*
X166994071Y-82183327D01*
X166634211Y-82423778D01*
X166370000Y-82819198D01*
X166105789Y-82423778D01*
X165862000Y-82260883D01*
X165862000Y-74749374D01*
X166166191Y-74623686D01*
X166696822Y-74093979D01*
X166984352Y-73401531D01*
X166985006Y-72651759D01*
X166698686Y-71958809D01*
X166253483Y-71512829D01*
X166253483Y-66738089D01*
X165100000Y-65584605D01*
X164920395Y-65764210D01*
X164920395Y-65405000D01*
X163766911Y-64251517D01*
X163474141Y-64380725D01*
X163205929Y-65080883D01*
X163226072Y-65830384D01*
X163474141Y-66429275D01*
X163766911Y-66558483D01*
X164920395Y-65405000D01*
X164920395Y-65764210D01*
X163946517Y-66738089D01*
X164075725Y-67030859D01*
X164775883Y-67299071D01*
X165525384Y-67278928D01*
X166124275Y-67030859D01*
X166253483Y-66738089D01*
X166253483Y-71512829D01*
X166168979Y-71428178D01*
X165476531Y-71140648D01*
X164726759Y-71139994D01*
X164033809Y-71426314D01*
X163503178Y-71956021D01*
X163215648Y-72648469D01*
X163214994Y-73398241D01*
X163501314Y-74091191D01*
X164031021Y-74621822D01*
X164338000Y-74749291D01*
X164338000Y-82260883D01*
X164094211Y-82423778D01*
X163830000Y-82819198D01*
X163565789Y-82423778D01*
X163104329Y-82115441D01*
X162560000Y-82007167D01*
X162015671Y-82115441D01*
X161554211Y-82423778D01*
X161290000Y-82819198D01*
X161025789Y-82423778D01*
X160564329Y-82115441D01*
X160020000Y-82007167D01*
X159475671Y-82115441D01*
X159014211Y-82423778D01*
X158750246Y-82818829D01*
X158745525Y-82802738D01*
X158395986Y-82368809D01*
X157906996Y-82101673D01*
X157827060Y-82084990D01*
X157607000Y-82207148D01*
X157607000Y-83693000D01*
X157627000Y-83693000D01*
X157627000Y-83947000D01*
X157607000Y-83947000D01*
X157607000Y-85432852D01*
X157827060Y-85555010D01*
X157906996Y-85538327D01*
X158395986Y-85271191D01*
X158745525Y-84837262D01*
X158750246Y-84821170D01*
X159014211Y-85216222D01*
X159475671Y-85524559D01*
X160020000Y-85632833D01*
X160564329Y-85524559D01*
X161025789Y-85216222D01*
X161290000Y-84820801D01*
X161554211Y-85216222D01*
X162015671Y-85524559D01*
X162560000Y-85632833D01*
X163104329Y-85524559D01*
X163565789Y-85216222D01*
X163830000Y-84820801D01*
X164094211Y-85216222D01*
X164555671Y-85524559D01*
X165100000Y-85632833D01*
X165644329Y-85524559D01*
X166105789Y-85216222D01*
X166370000Y-84820801D01*
X166634211Y-85216222D01*
X167095671Y-85524559D01*
X167640000Y-85632833D01*
X167956622Y-85569852D01*
X168904585Y-86517816D01*
X169052776Y-86616834D01*
X169151795Y-86682996D01*
X169151796Y-86682996D01*
X169443400Y-86741000D01*
X181076600Y-86741000D01*
X181076600Y-86740999D01*
X181368204Y-86682996D01*
X181368205Y-86682996D01*
X181615415Y-86517815D01*
X182563377Y-85569852D01*
X182880000Y-85632833D01*
X183424329Y-85524559D01*
X183885789Y-85216222D01*
X184150000Y-84820801D01*
X184414211Y-85216222D01*
X184875671Y-85524559D01*
X185420000Y-85632833D01*
X185964329Y-85524559D01*
X186425789Y-85216222D01*
X186690000Y-84820801D01*
X186954211Y-85216222D01*
X187415671Y-85524559D01*
X187960000Y-85632833D01*
X188504329Y-85524559D01*
X188965789Y-85216222D01*
X189230000Y-84820801D01*
X189494211Y-85216222D01*
X189955671Y-85524559D01*
X190500000Y-85632833D01*
X191044329Y-85524559D01*
X191505789Y-85216222D01*
X191770000Y-84820801D01*
X192034211Y-85216222D01*
X192357868Y-85432482D01*
X187493350Y-90297000D01*
X185445400Y-90297000D01*
X185153795Y-90355004D01*
X184906584Y-90520185D01*
X178116622Y-97310147D01*
X177800000Y-97247167D01*
X177255671Y-97355441D01*
X176794211Y-97663778D01*
X176530000Y-98059198D01*
X176265789Y-97663778D01*
X175804329Y-97355441D01*
X175260000Y-97247167D01*
X174715671Y-97355441D01*
X174254211Y-97663778D01*
X173990000Y-98059198D01*
X173725789Y-97663778D01*
X173264329Y-97355441D01*
X172720000Y-97247167D01*
X172175671Y-97355441D01*
X171714211Y-97663778D01*
X171450000Y-98059198D01*
X171185789Y-97663778D01*
X170724329Y-97355441D01*
X170180000Y-97247167D01*
X169635671Y-97355441D01*
X169174211Y-97663778D01*
X168910000Y-98059198D01*
X168645789Y-97663778D01*
X168184329Y-97355441D01*
X167640000Y-97247167D01*
X167095671Y-97355441D01*
X166634211Y-97663778D01*
X166370000Y-98059198D01*
X166105789Y-97663778D01*
X165644329Y-97355441D01*
X165100000Y-97247167D01*
X164555671Y-97355441D01*
X164094211Y-97663778D01*
X163830000Y-98059198D01*
X163565789Y-97663778D01*
X163104329Y-97355441D01*
X162560000Y-97247167D01*
X162015671Y-97355441D01*
X161554211Y-97663778D01*
X161290000Y-98059198D01*
X161025789Y-97663778D01*
X160564329Y-97355441D01*
X160020000Y-97247167D01*
X159475671Y-97355441D01*
X159014211Y-97663778D01*
X158750246Y-98058829D01*
X158745525Y-98042738D01*
X158395986Y-97608809D01*
X157906996Y-97341673D01*
X157827060Y-97324990D01*
X157607000Y-97447148D01*
X157607000Y-98933000D01*
X157627000Y-98933000D01*
X157627000Y-99187000D01*
X157607000Y-99187000D01*
X157607000Y-100672852D01*
X157827060Y-100795010D01*
X157906996Y-100778327D01*
X158395986Y-100511191D01*
X158745525Y-100077262D01*
X158750246Y-100061170D01*
X159014211Y-100456222D01*
X159475671Y-100764559D01*
X160020000Y-100872833D01*
X160564329Y-100764559D01*
X161025789Y-100456222D01*
X161290000Y-100060801D01*
X161554211Y-100456222D01*
X162015671Y-100764559D01*
X162560000Y-100872833D01*
X163104329Y-100764559D01*
X163565789Y-100456222D01*
X163830000Y-100060801D01*
X164094211Y-100456222D01*
X164555671Y-100764559D01*
X165100000Y-100872833D01*
X165644329Y-100764559D01*
X166105789Y-100456222D01*
X166370000Y-100060801D01*
X166634211Y-100456222D01*
X167095671Y-100764559D01*
X167640000Y-100872833D01*
X168184329Y-100764559D01*
X168645789Y-100456222D01*
X168910000Y-100060801D01*
X169174211Y-100456222D01*
X169635671Y-100764559D01*
X170180000Y-100872833D01*
X170724329Y-100764559D01*
X171185789Y-100456222D01*
X171450000Y-100060801D01*
X171714211Y-100456222D01*
X172175671Y-100764559D01*
X172720000Y-100872833D01*
X173264329Y-100764559D01*
X173725789Y-100456222D01*
X173990000Y-100060801D01*
X174254211Y-100456222D01*
X174715671Y-100764559D01*
X175260000Y-100872833D01*
X175804329Y-100764559D01*
X176265789Y-100456222D01*
X176530000Y-100060801D01*
X176794211Y-100456222D01*
X177255671Y-100764559D01*
X177800000Y-100872833D01*
X178344329Y-100764559D01*
X178805789Y-100456222D01*
X179070000Y-100060801D01*
X179334211Y-100456222D01*
X179795671Y-100764559D01*
X180340000Y-100872833D01*
X180884329Y-100764559D01*
X181345789Y-100456222D01*
X181610000Y-100060801D01*
X181874211Y-100456222D01*
X182118000Y-100619116D01*
X182118000Y-105661358D01*
X181965378Y-105813714D01*
X181800687Y-106210332D01*
X181800313Y-106639784D01*
X181964311Y-107036689D01*
X182267714Y-107340622D01*
X182664332Y-107505313D01*
X183093784Y-107505687D01*
X183490689Y-107341689D01*
X183794622Y-107038286D01*
X183959313Y-106641668D01*
X183959687Y-106212216D01*
X183795689Y-105815311D01*
X183642000Y-105661353D01*
X183642000Y-100619116D01*
X183885789Y-100456222D01*
X184150000Y-100060801D01*
X184414211Y-100456222D01*
X184875671Y-100764559D01*
X185420000Y-100872833D01*
X185964329Y-100764559D01*
X186425789Y-100456222D01*
X186690000Y-100060801D01*
X186954211Y-100456222D01*
X187415671Y-100764559D01*
X187960000Y-100872833D01*
X188504329Y-100764559D01*
X188965789Y-100456222D01*
X189230000Y-100060801D01*
X189494211Y-100456222D01*
X189955671Y-100764559D01*
X190500000Y-100872833D01*
X191044329Y-100764559D01*
X191505789Y-100456222D01*
X191770000Y-100060801D01*
X192034211Y-100456222D01*
X192278000Y-100619116D01*
X192278000Y-106550358D01*
X192125378Y-106702714D01*
X191960687Y-107099332D01*
X191960313Y-107528784D01*
X192124311Y-107925689D01*
X192427714Y-108229622D01*
X192824332Y-108394313D01*
X193253784Y-108394687D01*
X193650689Y-108230689D01*
X193954622Y-107927286D01*
X194119313Y-107530668D01*
X194119687Y-107101216D01*
X193955689Y-106704311D01*
X193802000Y-106550353D01*
X193802000Y-100619116D01*
X194045789Y-100456222D01*
X194310000Y-100060801D01*
X194574211Y-100456222D01*
X195035671Y-100764559D01*
X195580000Y-100872833D01*
X196124329Y-100764559D01*
X196585789Y-100456222D01*
X196850000Y-100060801D01*
X197114211Y-100456222D01*
X197575671Y-100764559D01*
X198120000Y-100872833D01*
X198664329Y-100764559D01*
X199125789Y-100456222D01*
X199390000Y-100060801D01*
X199654211Y-100456222D01*
X200115671Y-100764559D01*
X200660000Y-100872833D01*
X201204329Y-100764559D01*
X201665789Y-100456222D01*
X201930000Y-100060801D01*
X202194211Y-100456222D01*
X202247500Y-100491828D01*
X202247500Y-115189000D01*
X202320005Y-115553506D01*
X202526481Y-115862519D01*
X206082480Y-119418519D01*
X206082481Y-119418519D01*
X206391494Y-119624995D01*
X206756000Y-119697500D01*
X214114104Y-119697500D01*
X214205330Y-119834029D01*
X214476172Y-120015000D01*
X214205330Y-120195971D01*
X214114104Y-120332500D01*
X212852000Y-120332500D01*
X212487494Y-120405005D01*
X212178481Y-120611481D01*
X211187462Y-121602500D01*
X210048944Y-121602500D01*
X209827887Y-121381056D01*
X209318816Y-121169671D01*
X208767602Y-121169190D01*
X208258163Y-121379686D01*
X207868056Y-121769113D01*
X207656671Y-122278184D01*
X207656190Y-122829398D01*
X207866686Y-123338837D01*
X208256113Y-123728944D01*
X208765184Y-123940329D01*
X209316398Y-123940810D01*
X209825837Y-123730314D01*
X210049040Y-123507500D01*
X211582000Y-123507500D01*
X211946506Y-123434995D01*
X212255519Y-123228519D01*
X213246538Y-122237500D01*
X214114104Y-122237500D01*
X214205330Y-122374029D01*
X214476160Y-122554992D01*
X214058179Y-122936510D01*
X213810032Y-123465973D01*
X213930531Y-123698000D01*
X215138000Y-123698000D01*
X215138000Y-123678000D01*
X215392000Y-123678000D01*
X215392000Y-123698000D01*
X216470531Y-123698000D01*
X216599469Y-123698000D01*
X217678000Y-123698000D01*
X217678000Y-123678000D01*
X217932000Y-123678000D01*
X217932000Y-123698000D01*
X217952000Y-123698000D01*
X217952000Y-123952000D01*
X217932000Y-123952000D01*
X217932000Y-125031183D01*
X217932000Y-125158817D01*
X217932000Y-126238000D01*
X217952000Y-126238000D01*
X217952000Y-126492000D01*
X217932000Y-126492000D01*
X217932000Y-127698817D01*
X218164026Y-127819958D01*
X218579947Y-127647688D01*
X218948000Y-127311743D01*
X218948000Y-142113000D01*
M02*
