/* XPM */ 
static const unsigned char * cloud_xpm[] = {
"32 16 2 1",
" 	c None",
"!	c black",
"                                ",
"                !!!!            ",
"             !!!!  !!           ",
"           !!!      !!          ",
"           !         !!!        ",
"          !!     !  !  !!!!     ",
"         !      !         !!!   ",
"    !!!!!      !            !   ",
"   !!          !            !!  ",
" ! !  !          !            ! ",
"!      !!!!!!!!!!!!!!!!!!!!!!!! ",
"                                ",
"                                ",
"                                ",
"                                ",
"                                "};