/* XPM */ 
static const unsigned char * dino_chars1_xmas_xpm[] = {
"24 32 2 1",
" 	c None",
"!	c black",
"       !!               ",
"       !!               ",
"       !!               ",
"       !!               ",
"    !  !!               ",
"     !!!!               ",
"      !!!!              ",
"      !!!!              ",
"   !! !!!!! !           ",
"    !!!! !!!            ",
" !   !!!!!!             ",
" !!  !!!!!! !!          ",
"  !!!!!!!!!!!           ",
"    !!!!!!!!            ",
"!! !!!! !!!!!           ",
" !!!!!!!!!! ! !!!       ",
"  !!!!!!!!!!!!!         ",
"  !!!!!!!!!!!!!         ",
" !!! !!!! !!!!!  !!     ",
"!!!!!!!!!!!!! !!!!      ",
"!!!!!!!!!!!!!!!!!       ",
"     !!!!!!!!!!!!!      ",
"     !!!!!              ",
"     !!!!!              ",
"     !!!!!              ",
"     !!!!!              ",
"!!!! !!!!! !!!!!!!!!!!!!",
"     !!!!!              ",
"!    !!!!!        !!    ",
"     !!!!!  !  !        ",
"   !!!!!!!              ",
"          !             "};