/* XPM */ 
static const unsigned char * dinosaur_chars_2_xpm[] = {
"8 120 2 1",
" 	c None",
"!	c black",
"    !!  ",
"   !!!! ",
"   !!!! ",
"   !!!! ",
"   !!!! ",
"   !!!! ",
" ! !!!! ",
"!! !!!! ",
"!! !!!! ",
"!! !!!! ",
"!! !!!!!",
"!! !!!!!",
"!! !!!!!",
"!!!!!!! ",
"!!!!!!! ",
" !!!!!! ",
"   !!!! ",
"   !!!! ",
"!! !!!! ",
"   !!!! ",
"   !!!! ",
"   !!!! ",
" !!!!!  ",
"        ",
"       !",
"       !",
"       !",
" ! !!  !",
"!! !!  !",
"!! !!  !",
"!! !!  !",
"!! !!  !",
"!! !!  !",
"!! !!  !",
"!! !!  !",
"!! !!  !",
"!  !!  !",
"   !!  !",
"    !!!!",
"     !!!",
"      !!",
"       !",
"!!!!!! !",
"       !",
"       !",
"       !",
"  !   !!",
"        ",
"!       ",
"!       ",
"!       ",
"!     !!",
"!     !!",
"!     !!",
"!  !! !!",
"!  !! !!",
"!  !! !!",
"!  !! !!",
"!  !! !!",
"!  !! !!",
"!  !!  !",
"!  !!   ",
"!  !!   ",
"!!!!!   ",
"!!!!    ",
"!       ",
"! !!!!!!",
"!       ",
"!       ",
"!       ",
"!       ",
"        ",
"  !!    ",
" !!!!   ",
" !!!!   ",
" !!!! ! ",
" !!!! !!",
" !!!! !!",
" !!!! !!",
" !!!! !!",
" !!!! !!",
" !!!! !!",
"!!!!! !!",
"!!!!! !!",
"!!!!!!!!",
" !!!!!! ",
" !!!!   ",
" !!!!   ",
" !!!!   ",
" !!!!   ",
" !!!! !!",
" !!!!   ",
" !!!!   ",
" !!!!   ",
"!!!!    ",
"        ",
"        ",
"        ",
"        ",
"        ",
"        ",
"        ",
"        ",
"        ",
"        ",
"        ",
"        ",
"        ",
"        ",
"        ",
"        ",
"        ",
"        ",
"        ",
"!!!!!!!!",
"        ",
"        ",
"        ",
"        ",
"        "};