/* XPM */ 
static const unsigned char * dinosaur_sprites_pterodactyl_xpm[] = {
"16 128 2 1",
" 	c None",
"!	c black",
"                ",
"                ",
"      !!        ",
"     !!!        ",
"    !!!!        ",
"   !! !!!       ",
"  !!!!!!!       ",
"!!!!!!!!!!      ",
"!!!!!!!!!!!!!!!!",
"        !!!!!!!!",
"         !!!!!!!",
"          !!!!!!",
"           !!!!!",
"           !!!!!",
"           !!!!!",
"           !!!!!",
"           !!!!!",
"           !!!! ",
"           !!!  ",
"           !!   ",
"           !!   ",
"           !    ",
"                ",
"                ",
"                ",
"                ",
"                ",
"                ",
"                ",
"                ",
"                ",
"                ",
"                ",
"                ",
"                ",
"                ",
"                ",
"                ",
"                ",
"                ",
"!!!             ",
"!!!!            ",
"!!!!!!!!!!!!    ",
"!!!!!!!!!!!!    ",
"!!!!!!!!        ",
"!!!!!!!!!!!     ",
"!!!!!!!         ",
"!!!!!!          ",
"                ",
"                ",
"                ",
"                ",
"                ",
"                ",
"                ",
"                ",
"                ",
"                ",
"                ",
"                ",
"                ",
"                ",
"                ",
"                ",
"         !!     ",
"         !!!    ",
"         !!!    ",
"         !!!!   ",
"      !!   !!!! ",
"     !!!   !!!!!",
"    !!!!   !!!!!",
"   !! !!!  !!!!!",
"  !!!!!!!  !!!!!",
"!!!!!!!!!!!!!!!!",
"!!!!!!!!!!!!!!!!",
"        !!!!!!!!",
"         !!!!!!!",
"          !!!!!!",
"           !!!!!",
"            !!!!",
"             !!!",
"                ",
"                ",
"                ",
"                ",
"                ",
"                ",
"                ",
"                ",
"                ",
"                ",
"                ",
"                ",
"                ",
"                ",
"                ",
"                ",
"                ",
"                ",
"                ",
"                ",
"                ",
"                ",
"!               ",
"!!!             ",
"!!!             ",
"!!!             ",
"!!!!            ",
"!!!!!!!!!!!!    ",
"!!!!!!!!        ",
"!!!!!!!!        ",
"!!!!!!!!!!!     ",
"!!!!!!!         ",
"                ",
"                ",
"                ",
"                ",
"                ",
"                ",
"                ",
"                ",
"                ",
"                ",
"                ",
"                ",
"                ",
"                ",
"                "};