/* XPM */ 
static const unsigned char * dino_sprites_new_xpm[] = {
"32 96 2 1",
" 	c None",
"!	c black",
"                                ",
"                                ",
"                                ",
"               !!!!!!!!!        ",
"              !!!!!!!!!!!       ",
"             !!!  !!!!!!!!      ",
"             !!!  !!!!!!!!      ",
"             !!!!!!!!!!!!!      ",
"             !!!!!!!!!!!!!      ",
"             !!!!!!!!!!!!!      ",
"             !!!!!!!!!!!!!      ",
" !           !!!!!!!            ",
"!!           !!!!!!!!!!!        ",
"!           !!!!!!!             ",
"!          !!!!!!!              ",
"!         !!!!!!!!              ",
"!!      !!!!!!!!!!!!!           ",
"!!!    !!!!!!!!!!! !!           ",
"!!!!  !!!!!!!!!!!!  !           ",
"!!!!!!!!!!!!!!!!!!              ",
"!!!!!!!!!!!!!!!!!!              ",
" !!!!!!!!!!!!!!!!!              ",
" !!!!!!!!!!!!!!!!               ",
"   !!!!!!!!!!!!!!               ",
"    !!!!!!!!!!!!                ",
"     !!!!!!!!!                  ",
"     !!!!!!!!!!                 ",
"      !!!!   !!!                ",
"      !!!                       ",
"      !!                        ",
"      !!                        ",
"      !!!                       ",
"                                ",
"                                ",
"                                ",
"               !!!!!!!!!        ",
"              !!!!!!!!!!!       ",
"             !!!  !!!!!!!!      ",
"             !!!  !!!!!!!!      ",
"             !!!!!!!!!!!!!      ",
"             !!!!!!!!!!!!!      ",
"             !!!!!!!!!!!!!      ",
"             !!!!!!!!!!!!!      ",
"             !!!!!!!            ",
" !!          !!!!!!!!!!!        ",
"!!          !!!!!!!             ",
"!          !!!!!!!              ",
"!         !!!!!!!!              ",
"!!      !!!!!!!!!!!!!           ",
"!!!    !!!!!!!!!!! !!           ",
"!!!!  !!!!!!!!!!!!  !           ",
"!!!!!!!!!!!!!!!!!!              ",
"!!!!!!!!!!!!!!!!!!              ",
" !!!!!!!!!!!!!!!!!              ",
" !!!!!!!!!!!!!!!!               ",
"   !!!!!!!!!!!!!!               ",
"    !!!!!!!!!!!!                ",
"     !!!!!!!!!!                 ",
"     !!!!!!!!!!                 ",
"      !!!  !!!                  ",
"       !!!  !!                  ",
"            !!                  ",
"            !!                  ",
"            !!!                 ",
"                                ",
"                                ",
"                                ",
"               !!!!!!!!!        ",
"              !!!!!!!!!!!       ",
"             !!!   !!!!!!!      ",
"             !!! ! !!!!!!!      ",
"             !!!   !!!!!!!      ",
"             !!!!!!!!!!!!!      ",
"             !!!!!!!!!!!!!      ",
"             !!!!!!!!!!!!!      ",
"             !!!!!!!!!!!        ",
"             !!!!!!             ",
"!           !!!!!!!             ",
"!          !!!!!!!              ",
"!         !!!!!!!!              ",
"!!      !!!!!!!!!!!!!           ",
"!!!    !!!!!!!!!!! !!           ",
"!!!!  !!!!!!!!!!!!  !           ",
"!!!!!!!!!!!!!!!!!!              ",
"!!!!!!!!!!!!!!!!!!              ",
" !!!!!!!!!!!!!!!!!              ",
" !!!!!!!!!!!!!!!!               ",
"   !!!!!!!!!!!!!!               ",
"    !!!!!!!!!!!!                ",
"     !!!!!!!!!!                 ",
"     !!!!!!!!!!                 ",
"      !!!! !!!                  ",
"      !!!   !!                  ",
"      !!    !!                  ",
"      !!    !!                  ",
"      !!!   !!!                 "};