/* XPM */ 
static const unsigned char * dino_chars6_new_xpm[] = {
"32 16 2 1",
" 	c None",
"!	c black",
"                                ",
"                                ",
"!!!!!!!!!!!!!!!!!!!!!!!!!!!!!!!!",
"                                ",
"!   !          !                ",
"                      !!  !     ",
"       !!   !              !    ",
"                  !             ",
"                                ",
"                                ",
"!!!!!!!!!!!!!!!!!!!!!!!!!!!!!!!!",
"                                ",
"    !   !          !            ",
"                          !!  ! ",
"           !!   !              !",
"                      !         "};