/* XPM */ 
static const unsigned char * dino_sprites_duck_xpm[] = {
"32 32 2 1",
" 	c None",
"!	c black",
"                                ",
"!                    !!!!!!!!!  ",
"!                   !!!!!!!!!!! ",
"!!!!    !!!!!!!!   !!!  !!!!!!!!",
"!!!!!!!!!!!!!!!!!!!!!!  !!!!!!!!",
" !!!!!!!!!!!!!!!!!!!!!!!!!!!!!!!",
"  !!!!!!!!!!!!!!!!!!!!!!!!!!!!!!",
"   !!!!!!!!!!!!!!!!!!!!!!!!!!!!!",
"    !!!!!!!!!!!!!!!!!!!!!!!!!!!!",
"     !!!!!!!!!!!!!!!!!!!!!      ",
"      !!!!!!!!!!!!!!!!!!!!!!!!  ",
"       !!!!!!!  !!              ",
"      !!!!  !!!  !              ",
"      !!!        !!             ",
"      !!                        ",
"      !!!                       ",
"                                ",
"!                    !!!!!!!!!  ",
"!                   !!!!!!!!!!! ",
"!!!!    !!!!!!!!   !!!  !!!!!!!!",
"!!!!!!!!!!!!!!!!!!!!!!  !!!!!!!!",
" !!!!!!!!!!!!!!!!!!!!!!!!!!!!!!!",
"  !!!!!!!!!!!!!!!!!!!!!!!!!!!!!!",
"   !!!!!!!!!!!!!!!!!!!!!!!!!!!!!",
"    !!!!!!!!!!!!!!!!!!!!!!!!!!!!",
"     !!!!!!!!!!!!!!!!!!!!!      ",
"      !!!!!!!!!!!!!!!!!!!!!!!!  ",
"       !!!!!!!! !!              ",
"       !  !!!!   !              ",
"       !! !!!    !!             ",
"          !!                    ",
"          !!!                   "};