/* XPM */ 
static const unsigned char * dinosaur_chars_6_4px_xpm[] = {
"8 32 2 1",
" 	c None",
"!	c black",
"        ",
"        ",
"!!!!!!!!",
"        ",
"    !   ",
"        ",
"        ",
"        ",
"        ",
"        ",
"!!!!!!!!",
"        ",
"!       ",
"        ",
"   !!   ",
"        ",
"        ",
"        ",
"!!!!!!!!",
"        ",
"   !    ",
"        ",
"!       ",
"      ! ",
"        ",
"        ",
"!!!!!!!!",
"        ",
"        ",
"  !!  ! ",
"       !",
"        "};