/* XPM */ 
static const unsigned char * dinosaur_chars_6_xpm[] = {
"8 40 2 1",
" 	c None",
"!	c black",
"        ",
"        ",
"!!!!!!!!",
"        ",
"!   !   ",
"        ",
"       !",
"        ",
"        ",
"        ",
"!!!!!!!!",
"        ",
"       !",
"        ",
"!   !   ",
"        ",
"        ",
"        ",
"!!!!!!!!",
"        ",
"        ",
"      !!",
"        ",
"  !     ",
"        ",
"        ",
"!!!!!!!!",
"        ",
"        ",
"  !     ",
"   !    ",
"        ",
"        ",
"        ",
"        ",
"        ",
"        ",
"        ",
"        ",
"        "};