/* XPM */ 
static const unsigned char * dino_chars4_xmas_xpm[] = {
"40 32 2 1",
" 	c None",
"!	c black",
"        !              !!               ",
"        !              !!               ",
"       !!              !!               ",
"       !!              !!               ",
"      !!!             !!!!              ",
"      !!!            !!!!!              ",
"      !!!!        !! !!!!!!!!           ",
"    !!!!!! !!      !!!!!!!!             ",
"     !!!!!!        !!!! !!!!            ",
"     !!! !! !!  !! !!!!!!!!!            ",
"  !! !!!!!!!!    !!!!!!!!!!!! !!        ",
"   !!!!!!!!!  !!  !!!!!!!!!!!!!         ",
"    !!!!!!!    !!!!!!!!!!!!!!           ",
" !  !!! !!!!   !!!!!!!!!!!!!!!  !!      ",
"  !!!!!!!!!!!    !!!!! !!!!!!!!!!       ",
"   !!!!!!!!!!!! !!!!!!!!!!! !!!         ",
"  !!! !!! !!!! !!!!!!!!!!!!!!!!!        ",
"  !!!!!!!!!!!!!!!!!!!!!!!!!!!!!!!       ",
" !!!!!!!!!!!! !! !!!!!!!!! !!!!!!!      ",
"!!!!!! !!!! !!!!!!!!! !!!!!!!! !!!!!    ",
"!!!!!!!!!!!!!!!!!!!!!!!!!!!!!!!!!!!!    ",
" !!  !!!!!  !!!!      !!!!!!  !!!!!     ",
"     !!!!!            !!!!!             ",
"     !!!!!            !!!!!             ",
"     !!!!!            !!!!!             ",
"     !!!!!            !!!!!             ",
"!!!! !!!!! !!!!!!!!!! !!!!! !!!!!!!!!!!!",
"     !!!!!            !!!!!             ",
"     !!!!!    !!      !!!!!             ",
"     !!!!!            !!!!!             ",
"    !!!!!           !!!!!!              ",
"                                        "};