/* XPM */ 
static const unsigned char * dinosaur_chars_3_xpm[] = {
"8 200 2 1",
" 	c None",
"!	c black",
"      !!",
"     !!!",
"     !!!",
"     !!!",
"     !!!",
"     !!!",
"     !!!",
"     !!!",
"!!!  !!!",
"!!!  !!!",
"!!!  !!!",
"!!!  !!!",
"!!!  !!!",
"!!!  !!!",
"!!!  !!!",
"!!!  !!!",
"!!!  !!!",
"!!!  !!!",
"!!!!!!!!",
" !!!!!!!",
"  !!!!!!",
"     !!!",
"     !!!",
"     !!!",
"     !!!",
"     !!!",
"!!!! !!!",
"     !!!",
"!    !!!",
"     !!!",
"   !!!!!",
"        ",
"!       ",
"!!      ",
"!!      ",
"!!      ",
"!!      ",
"!!      ",
"!!   !  ",
"!!  !!! ",
"!!  !!! ",
"!!  !!! ",
"!!  !!! ",
"!!  !!! ",
"!!  !!! ",
"!!  !!! ",
"!!  !!! ",
"!!  !!! ",
"!!  !!! ",
"!!  !!! ",
"!!!!!!  ",
"!!!!!   ",
"!!      ",
"!!      ",
"!!      ",
"!!      ",
"!!      ",
"!!      ",
"!! !!!!!",
"!!      ",
"!!      ",
"!!  !  !",
"!       ",
"  !     ",
"        ",
"     !  ",
"    !!! ",
"    !!! ",
"    !!! ",
"    !!! ",
"    !!! ",
"    !!! ",
"    !!! ",
"    !!! ",
"    !!! ",
"!!  !!!!",
"!!! !!!!",
"!!! !!!!",
"!!! !!! ",
"!!! !!! ",
"!!! !!! ",
"!!! !!! ",
"!!! !!! ",
"!!!!!!! ",
" !!!!!! ",
"  !!!!! ",
"    !!! ",
"    !!! ",
"    !!! ",
"    !!! ",
"!!! !!! ",
"    !!! ",
"    !!! ",
"    !!! ",
"   !!!  ",
"        ",
"        ",
"        ",
"        ",
"        ",
"        ",
" !!     ",
" !!     ",
" !!     ",
" !!     ",
" !!     ",
" !!     ",
"!!!     ",
"!!      ",
"     !  ",
"    !!! ",
"    !!! ",
" !! !!! ",
" !! !!! ",
" !! !!! ",
" !! !!! ",
" !! !!! ",
" !! !!  ",
" !!!!!!!",
"  !!!!!!",
"   !!!! ",
"    !!! ",
"!!! !!! ",
"    !!! ",
"    !!! ",
"!!  !!! ",
"   !!!  ",
"        ",
"       !",
"      !!",
"      !!",
"      !!",
"  !!  !!",
" !!!! !!",
" !!!! !!",
" !!!! !!",
" !!!! !!",
" !!!! !!",
" !!!! !!",
" !!!! !!",
" !!!! !!",
" !!!!!!!",
" !!!!!!!",
"  !!!!!!",
"!! !!!!!",
"!!    !!",
"!!    !!",
"!!    !!",
"!!    !!",
"!!    !!",
"!!    !!",
"!     !!",
"      !!",
"      !!",
"!!!!! !!",
"      !!",
"!     !!",
"!     !!",
"     !!!",
"        ",
"!!      ",
"!!!     ",
"!!!     ",
"!!!     ",
"!!!     ",
"!!!     ",
"!!!     ",
"!!!   !!",
"!!!  !!!",
"!!!  !!!",
"!!!  !!!",
"!!!  !!!",
"!!!  !!!",
"!!!  !!!",
"!!!  !!!",
"!!!  !!!",
"!!!  !!!",
"!!!  !!!",
"!!!!!!! ",
"!!!!!!  ",
"!!!     ",
"!!!     ",
"!!!     ",
"!!!     ",
"!!!     ",
"!!!     ",
"!!! !!!!",
"!!!     ",
"!!!     ",
"!!!  !  ",
"!!      ",
"   !    ",
"        ",
"        ",
"!!!!!!!!",
"        ",
" !!     ",
"        ",
"        ",
"        "};