/* XPM */ 
static const unsigned char * dinosaur_chars_4_xmas_xpm[] = {
"8 160 2 1",
" 	c None",
"!	c black",
"        ",
"        ",
"       !",
"       !",
"      !!",
"      !!",
"      !!",
"    !!!!",
"     !!!",
"     !!!",
"  !! !!!",
"   !!!!!",
"    !!!!",
" !  !!! ",
"  !!!!!!",
"   !!!!!",
"  !!! !!",
"  !!!!!!",
" !!!!!!!",
"!!!!!! !",
"!!!!!!!!",
" !!  !!!",
"     !!!",
"     !!!",
"     !!!",
"     !!!",
"!!!! !!!",
"     !!!",
"     !!!",
"     !!!",
"    !!!!",
"        ",
"!       ",
"!       ",
"!       ",
"!       ",
"!       ",
"!       ",
"!!      ",
"!! !!   ",
"!!!     ",
" !! !!  ",
"!!!!!   ",
"!!!!  !!",
"!!!    !",
"!!!!   !",
"!!!!!   ",
"!!!!!!! ",
"! !!!! !",
"!!!!!!!!",
"!!!!! !!",
"!!! !!!!",
"!!!!!!!!",
"!!  !!!!",
"!!      ",
"!!      ",
"!!      ",
"!!      ",
"!! !!!!!",
"!!      ",
"!!    !!",
"!!      ",
"!       ",
"        ",
"       !",
"       !",
"       !",
"       !",
"      !!",
"     !!!",
"  !! !!!",
"   !!!!!",
"   !!!! ",
"!! !!!!!",
" !!!!!!!",
"  !!!!!!",
"!!!!!!!!",
"!!!!!!!!",
" !!!!! !",
"!!!!!!!!",
"!!!!!!!!",
"!!!!!!!!",
" !!!!!!!",
"!!!!! !!",
"!!!!!!!!",
"      !!",
"      !!",
"      !!",
"      !!",
"      !!",
"!!!!! !!",
"      !!",
"      !!",
"      !!",
"    !!!!",
"        ",
"!       ",
"!       ",
"!       ",
"!       ",
"!!      ",
"!!      ",
"!!!!!   ",
"!!!     ",
"!!!!    ",
"!!!!    ",
"!!!!! !!",
"!!!!!!! ",
"!!!!!   ",
"!!!!!!  ",
"!!!!!!!!",
"!!! !!! ",
"!!!!!!!!",
"!!!!!!!!",
"!! !!!!!",
"!!!!!! !",
"!!!!!!!!",
"!!!!  !!",
"!!!     ",
"!!!     ",
"!!!     ",
"!!!     ",
"!!! !!!!",
"!!!     ",
"!!!     ",
"!!!     ",
"!!      ",
"        ",
"        ",
"        ",
"        ",
"        ",
"        ",
"        ",
"        ",
"        ",
"        ",
"        ",
"        ",
"        ",
"        ",
"!!      ",
"!       ",
"        ",
"        ",
"!       ",
"!!      ",
"!!!!    ",
"!!!!    ",
"!!!     ",
"        ",
"        ",
"        ",
"        ",
"!!!!!!!!",
"        ",
"        ",
"        ",
"        ",
"        "};