/* XPM */ 
static const unsigned char * dinosaur_sprites_n_xpm[] = {
"16 256 2 1",
" 	c None",
"!	c black",
"                ",
"                ",
"                ",
"!!!!!!!!        ",
"!!!!!!!!!       ",
"  !!!!!!!!      ",
"  !!!!!!!!      ",
"!!!!!!!!!!      ",
"!!!!!!!!!!      ",
"!!!!!!!!!!      ",
"!!!!!!!!!!      ",
"!!!!            ",
"!!!!!!!!        ",
"!!!             ",
"!!              ",
"!!              ",
"!!!!!           ",
"!! !!           ",
"!!  !           ",
"!!              ",
"!!              ",
"!!              ",
"!               ",
"!               ",
"                ",
"                ",
"                ",
"                ",
"                ",
"                ",
"                ",
"                ",
"                ",
"                ",
"                ",
"               !",
"              !!",
"             !!!",
"             !!!",
"             !!!",
"             !!!",
"             !!!",
"             !!!",
" !           !!!",
"!!           !!!",
"!           !!!!",
"!          !!!!!",
"!         !!!!!!",
"!!      !!!!!!!!",
"!!!    !!!!!!!!!",
"!!!!  !!!!!!!!!!",
"!!!!!!!!!!!!!!!!",
"!!!!!!!!!!!!!!!!",
" !!!!!!!!!!!!!!!",
" !!!!!!!!!!!!!!!",
"   !!!!!!!!!!!!!",
"    !!!!!!!!!!!!",
"     !!!!!!!!!  ",
"     !!!!!!!!!! ",
"      !!!!   !!!",
"      !!!       ",
"      !!        ",
"      !!        ",
"      !!!       ",
"                ",
"                ",
"                ",
"               !",
"              !!",
"             !!!",
"             !!!",
"             !!!",
"             !!!",
"             !!!",
"             !!!",
"             !!!",
" !!          !!!",
"!!          !!!!",
"!          !!!!!",
"!         !!!!!!",
"!!      !!!!!!!!",
"!!!    !!!!!!!!!",
"!!!!  !!!!!!!!!!",
"!!!!!!!!!!!!!!!!",
"!!!!!!!!!!!!!!!!",
" !!!!!!!!!!!!!!!",
" !!!!!!!!!!!!!!!",
"   !!!!!!!!!!!!!",
"    !!!!!!!!!!!!",
"     !!!!!!!!!! ",
"     !!!!!!!!!! ",
"      !!!  !!!  ",
"       !!!  !!  ",
"            !!  ",
"            !!  ",
"            !!! ",
"                ",
"                ",
"                ",
"               !",
"              !!",
"             !!!",
"             !!!",
"             !!!",
"             !!!",
"             !!!",
"             !!!",
"             !!!",
"             !!!",
"!           !!!!",
"!          !!!!!",
"!         !!!!!!",
"!!      !!!!!!!!",
"!!!    !!!!!!!!!",
"!!!!  !!!!!!!!!!",
"!!!!!!!!!!!!!!!!",
"!!!!!!!!!!!!!!!!",
" !!!!!!!!!!!!!!!",
" !!!!!!!!!!!!!!!",
"   !!!!!!!!!!!!!",
"    !!!!!!!!!!!!",
"     !!!!!!!!!! ",
"     !!!!!!!!!! ",
"      !!!! !!!  ",
"      !!!   !!  ",
"      !!    !!  ",
"      !!    !!  ",
"      !!!   !!! ",
"                ",
"                ",
"                ",
"!!!!!!!!        ",
"!!!!!!!!!       ",
"   !!!!!!!      ",
" ! !!!!!!!      ",
"   !!!!!!!      ",
"!!!!!!!!!!      ",
"!!!!!!!!!!      ",
"!!!!!!!!!!      ",
"!!!!!!!!        ",
"!!!             ",
"!!!             ",
"!!              ",
"!!              ",
"                ",
"     !!!!!!!!!  ",
"    !!!!!!!!!!! ",
"   !!!  !!!!!!!!",
"!!!!!!  !!!!!!!!",
"!!!!!!!!!!!!!!!!",
"!!!!!!!!!!!!!!!!",
"!!!!!!!!!!!!!!!!",
"!!!!!!!!!!!!!!!!",
"!!!!!!!!!!      ",
"!!!!!!!!!!!!!!  ",
"!!              ",
" !              ",
" !!             ",
"                ",
"                ",
"                ",
"!               ",
"!               ",
"!!!!    !!!!!!!!",
"!!!!!!!!!!!!!!!!",
" !!!!!!!!!!!!!!!",
"  !!!!!!!!!!!!!!",
"   !!!!!!!!!!!!!",
"    !!!!!!!!!!!!",
"     !!!!!!!!!!!",
"      !!!!!!!!!!",
"       !!!!!!!  ",
"      !!!!  !!! ",
"      !!!       ",
"      !!        ",
"      !!!       ",
"                ",
"!               ",
"!               ",
"!!!!    !!!!!!!!",
"!!!!!!!!!!!!!!!!",
" !!!!!!!!!!!!!!!",
"  !!!!!!!!!!!!!!",
"   !!!!!!!!!!!!!",
"    !!!!!!!!!!!!",
"     !!!!!!!!!!!",
"      !!!!!!!!!!",
"       !!!!!!!! ",
"       !  !!!!  ",
"       !! !!!   ",
"          !!    ",
"          !!!   ",
"                ",
"                ",
"             !!!",
"           !!!  ",
"           !    ",
"          !!    ",
"         !      ",
"    !!!!!      !",
"   !!          !",
" ! !  !         ",
"!      !!!!!!!!!",
"                ",
"                ",
"                ",
"                ",
"                ",
"                ",
"                ",
"!!!!            ",
"!  !!           ",
"    !!          ",
"     !!!        ",
" !  !  !!!!     ",
"!         !!!   ",
"            !   ",
"            !!  ",
" !            ! ",
"!!!!!!!!!!!!!!! ",
"                ",
"                ",
"                ",
"                ",
"                ",
"                ",
"                ",
"                ",
"                ",
"  !!            ",
" !  !           ",
"  !!!!          ",
"   !!!!!        ",
"    !!!!!!      ",
"    !!!!!!!     ",
"   !!!!!!!!!    ",
"  !!!!!!!!!!!   ",
"  !!!!!!!!!!    ",
" !!!!           ",
"  !             ",
"                ",
"                ",
"                ",
"                ",
"                ",
"                ",
" !!             ",
"!  !!           ",
" !!!!!!         ",
"   !!!!!!       ",
"    !!!!!!!     ",
"   !!!!!!!!!    ",
"  !!!!!!!!!!!   ",
"  !!!!!!!!!!    ",
" !!!!           ",
"  !             "};