/* XPM */ 
static const unsigned char * dino_chars3_new_xpm[] = {
"56 64 2 1",
" 	c None",
"!	c black",
"      !!!                              !!!              ",
"     !!!!!           !                !!!!!             ",
"     !!!!!          !!!               !!!!!             ",
"     !!!!!          !!!               !!!!!             ",
"     !!!!!          !!!           !!  !!!!!             ",
"     !!!!!          !!!  !!      !!!! !!!!!             ",
"     !!!!!   !      !!!  !!      !!!! !!!!!             ",
"     !!!!!  !!!     !!!  !!      !!!! !!!!!   !!        ",
"!!!  !!!!!  !!!     !!!  !!      !!!! !!!!!  !!!        ",
"!!!  !!!!!  !!!     !!!  !!      !!!! !!!!!  !!!        ",
"!!!  !!!!!  !!!     !!!  !!      !!!! !!!!!  !!!        ",
"!!!  !!!!!  !!! !!  !!!!!!!      !!!! !!!!!  !!!        ",
"!!!  !!!!!  !!! !!! !!!!!!       !!!! !!!!!  !!!        ",
"!!!  !!!!!  !!! !!! !!!!     !   !!!!!!!!!!  !!!        ",
"!!!  !!!!!  !!! !!! !!!     !!!  !!!!!!!!!!  !!!        ",
"!!!  !!!!!  !!! !!! !!!     !!!   !!!!!!!!!  !!!        ",
"!!!  !!!!!  !!! !!! !!!  !! !!! !! !!!!!!!!  !!!        ",
"!!!  !!!!!  !!! !!! !!!  !! !!! !!    !!!!!  !!!        ",
"!!!!!!!!!!!!!!  !!! !!!  !! !!! !!    !!!!!!!!!         ",
" !!!!!!!!!!!!   !!!!!!!  !! !!! !!    !!!!!!!!          ",
"  !!!!!!!!       !!!!!!  !! !!! !!    !!!!!             ",
"     !!!!!        !!!!!  !! !!  !!    !!!!!             ",
"     !!!!!          !!!  !!!!!!!!!    !!!!!             ",
"     !!!!!          !!!   !!!!!!!     !!!!!             ",
"     !!!!!          !!!    !!!!       !!!!!             ",
"     !!!!!          !!!     !!!       !!!!!             ",
"!!!! !!!!! !!!!!!!! !!! !!! !!! !!!!! !!!!! !!!!!!!!!!!!",
"     !!!!!          !!!     !!!       !!!!!             ",
"!    !!!!!          !!!     !!! !     !!!!!      !!     ",
"     !!!!!  !  !    !!! !!  !!! !     !!!!!  !          ",
"   !!!!!!          !!!     !!!       !!!!!              ",
"          !                                !            ",
"          !!!                              !!!          ",
"         !!!!!           !                !!!!!         ",
"         !!!!!          !!!               !!!!!         ",
"         !!!!!          !!!               !!!!!         ",
"         !!!!!          !!!           !!  !!!!!         ",
"         !!!!!          !!!  !!      !!!! !!!!!         ",
"         !!!!!   !      !!!  !!      !!!! !!!!!         ",
"         !!!!!  !!!     !!!  !!      !!!! !!!!!   !!    ",
"    !!!  !!!!!  !!!     !!!  !!      !!!! !!!!!  !!!    ",
"    !!!  !!!!!  !!!     !!!  !!      !!!! !!!!!  !!!    ",
"    !!!  !!!!!  !!!     !!!  !!      !!!! !!!!!  !!!    ",
"    !!!  !!!!!  !!! !!  !!!!!!!      !!!! !!!!!  !!!    ",
"    !!!  !!!!!  !!! !!! !!!!!!       !!!! !!!!!  !!!    ",
"    !!!  !!!!!  !!! !!! !!!!     !   !!!!!!!!!!  !!!    ",
"    !!!  !!!!!  !!! !!! !!!     !!!  !!!!!!!!!!  !!!    ",
"    !!!  !!!!!  !!! !!! !!!     !!!   !!!!!!!!!  !!!    ",
"    !!!  !!!!!  !!! !!! !!!  !! !!! !! !!!!!!!!  !!!    ",
"    !!!  !!!!!  !!! !!! !!!  !! !!! !!    !!!!!  !!!    ",
"    !!!!!!!!!!!!!!  !!! !!!  !! !!! !!    !!!!!!!!!     ",
"     !!!!!!!!!!!!   !!!!!!!  !! !!! !!    !!!!!!!!      ",
"      !!!!!!!!       !!!!!!  !! !!! !!    !!!!!         ",
"         !!!!!        !!!!!  !! !!  !!    !!!!!         ",
"         !!!!!          !!!  !!!!!!!!!    !!!!!         ",
"         !!!!!          !!!   !!!!!!!     !!!!!         ",
"         !!!!!          !!!    !!!!       !!!!!         ",
"         !!!!!          !!!     !!!       !!!!!         ",
"!!!!!!!! !!!!! !!!!!!!! !!! !!! !!! !!!!! !!!!! !!!!!!!!",
"         !!!!!          !!!     !!!       !!!!!         ",
"    !    !!!!!          !!!     !!! !     !!!!!      !! ",
"         !!!!!  !  !    !!! !!  !!! !     !!!!!  !      ",
"       !!!!!!          !!!     !!!       !!!!!          ",
"              !                                !        "};