/* XPM */ 
static const unsigned char * dino_chars2_xmas_xpm[] = {
"40 24 2 1",
" 	c None",
"!	c black",
"               !           !            ",
"    !          !          !!            ",
"    !          !!         !!            ",
"    !!         !!         !!            ",
"    !!         !!       ! !!            ",
"    !!        !!!       !!!!  !!        ",
"   !!!        !!!!   !!  !!!!!!         ",
"   !!!       !!!!!    !!!!!!!!          ",
"   !!!!      !!! !!     !!! !! !!       ",
"  !!!!!     !!!!!!!! !! !!!!!!!!        ",
"  !!!!!!    !!!!!!!!  !!!!!!!!   !!     ",
" !!! !!!    !!! !!!!   !! !!!!! !!      ",
" !!!!!!!!  !!!!!!!!!! !!!!!!!!!!!       ",
"!!!!!!! ! !!!!!!!!! !!!!!!!! !!!!       ",
"!! !!!!!!! !! !!! !!!!!!!!!!!!! !!      ",
"!!!!!!! !!!!!!!!!!!!!!!! !!!!!!!!!!!    ",
"   !!!!       !!!!!!!!!!!!!!!           ",
"   !!!!        !!        !!!!           ",
"!! !!!! !!!!!! !! !!!!!! !!!! !!!!!!!!!!",
"   !!!!        !!        !!!!           ",
"   !!!!        !!        !!!!           ",
"   !!!!        !!        !!!!           ",
" !!!!!    !   !!!       !!!!            ",
"                                        "};