/* XPM */ 
static const unsigned char * dinosaur_pterodactyl_xpm[] = {
"32 64 2 1",
" 	c None",
"!	c black",
"                                ",
"                                ",
"      !!                        ",
"     !!!                        ",
"    !!!!                        ",
"   !! !!!                       ",
"  !!!!!!!                       ",
"!!!!!!!!!!                      ",
"!!!!!!!!!!!!!!!!!!!             ",
"        !!!!!!!!!!!!            ",
"         !!!!!!!!!!!!!!!!!!!    ",
"          !!!!!!!!!!!!!!!!!!    ",
"           !!!!!!!!!!!!!        ",
"           !!!!!!!!!!!!!!!!     ",
"           !!!!!!!!!!!!         ",
"           !!!!!!!!!!!          ",
"           !!!!!                ",
"           !!!!                 ",
"           !!!                  ",
"           !!                   ",
"           !!                   ",
"           !                    ",
"                                ",
"                                ",
"                                ",
"                                ",
"                                ",
"                                ",
"                                ",
"                                ",
"                                ",
"                                ",
"         !!                     ",
"         !!!                    ",
"         !!!                    ",
"         !!!!                   ",
"      !!   !!!!                 ",
"     !!!   !!!!!                ",
"    !!!!   !!!!!                ",
"   !! !!!  !!!!!!               ",
"  !!!!!!!  !!!!!!!!             ",
"!!!!!!!!!!!!!!!!!!!             ",
"!!!!!!!!!!!!!!!!!!!             ",
"        !!!!!!!!!!!!            ",
"         !!!!!!!!!!!!!!!!!!!    ",
"          !!!!!!!!!!!!!!        ",
"           !!!!!!!!!!!!!        ",
"            !!!!!!!!!!!!!!!     ",
"             !!!!!!!!!!         ",
"                                ",
"                                ",
"                                ",
"                                ",
"                                ",
"                                ",
"                                ",
"                                ",
"                                ",
"                                ",
"                                ",
"                                ",
"                                ",
"                                ",
"                                "};