/* XPM */ 
static const unsigned char * dino_chars_new_xpm[] = {
"24 64 2 1",
" 	c None",
"!	c black",
"      !!!               ",
"     !!!!!              ",
"     !!!!!              ",
"     !!!!!              ",
"     !!!!!              ",
"     !!!!!              ",
"     !!!!!   !          ",
"     !!!!!  !!!         ",
"!!!  !!!!!  !!!         ",
"!!!  !!!!!  !!!         ",
"!!!  !!!!!  !!!         ",
"!!!  !!!!!  !!!         ",
"!!!  !!!!!  !!!         ",
"!!!  !!!!!  !!!         ",
"!!!  !!!!!  !!!         ",
"!!!  !!!!!  !!!         ",
"!!!  !!!!!  !!!         ",
"!!!  !!!!!  !!!         ",
"!!!!!!!!!!!!!!          ",
" !!!!!!!!!!!!           ",
"  !!!!!!!!              ",
"     !!!!!              ",
"     !!!!!              ",
"     !!!!!              ",
"     !!!!!              ",
"     !!!!!              ",
"!!!! !!!!! !!!!!!!!!!!!!",
"     !!!!!              ",
"!    !!!!!        !!    ",
"     !!!!!  !  !        ",
"   !!!!!!!              ",
"          !             ",
"          !!!           ",
"         !!!!!          ",
"         !!!!!          ",
"         !!!!!          ",
"         !!!!!          ",
"         !!!!!          ",
"         !!!!!   !      ",
"         !!!!!  !!!     ",
"    !!!  !!!!!  !!!     ",
"    !!!  !!!!!  !!!     ",
"    !!!  !!!!!  !!!     ",
"    !!!  !!!!!  !!!     ",
"    !!!  !!!!!  !!!     ",
"    !!!  !!!!!  !!!     ",
"    !!!  !!!!!  !!!     ",
"    !!!  !!!!!  !!!     ",
"    !!!  !!!!!  !!!     ",
"    !!!  !!!!!  !!!     ",
"    !!!!!!!!!!!!!!      ",
"     !!!!!!!!!!!!       ",
"      !!!!!!!!          ",
"         !!!!!          ",
"         !!!!!          ",
"         !!!!!          ",
"         !!!!!          ",
"         !!!!!          ",
"!!!!!!!! !!!!! !!!!!!!!!",
"         !!!!!          ",
"    !    !!!!!        !!",
"         !!!!!  !  !    ",
"       !!!!!!!          ",
"              !         "};