/* XPM */ 
static const unsigned char * dinosaur_chars_1_4px_xmas_xpm[] = {
"8 96 2 1",
" 	c None",
"!	c black",
"        ",
"        ",
"        ",
"        ",
"        ",
"        ",
"        ",
"        ",
"       !",
"        ",
"     !  ",
"     !! ",
"      !!",
"        ",
"    !! !",
"     !!!",
"      !!",
"      !!",
"     !!!",
"    !!!!",
"    !!!!",
"        ",
"        ",
"        ",
"        ",
"        ",
"!!!!!!!!",
"        ",
"    !   ",
"        ",
"       !",
"        ",
"   !!   ",
"   !!   ",
"   !!   ",
"   !!   ",
"!  !!   ",
" !!!!   ",
"  !!!!  ",
"  !!!!  ",
"! !!!!! ",
"!!!! !!!",
" !!!!!! ",
" !!!!!! ",
"!!!!!!!!",
"!!!!!!!!",
"!!! !!!!",
"!!!!!!! ",
"!!!!!!!!",
"!!!!!!!!",
" !!!! !!",
"!!!!!!!!",
"!!!!!!!!",
" !!!!!!!",
" !!!!!  ",
" !!!!!  ",
" !!!!!  ",
" !!!!!  ",
" !!!!! !",
" !!!!!  ",
" !!!!!  ",
" !!!!!  ",
"!!!!!!  ",
"      ! ",
"        ",
"        ",
"        ",
"        ",
"        ",
"        ",
"        ",
"        ",
"!       ",
"        ",
"        ",
"!!      ",
"!       ",
"        ",
"!       ",
"! !!!   ",
"!!!     ",
"!!!     ",
"!!!  !! ",
"! !!!!  ",
"!!!!!   ",
"!!!!!!  ",
"        ",
"        ",
"        ",
"        ",
"!!!!!!!!",
"        ",
"      !!",
"!  !    ",
"        ",
"        "};