/* XPM */ 
static const unsigned char * dino_chars4_new_xpm[] = {
"40 64 2 1",
" 	c None",
"!	c black",
"      !!!!            !!!!              ",
"     !!!!!            !!!!!             ",
"     !!!!!            !!!!!             ",
"     !!!!!       !!   !!!!!             ",
"     !!!!!       !!!  !!!!!             ",
"     !!!!!       !!!  !!!!!             ",
"     !!!!!       !!!  !!!!!             ",
"     !!!!!  !!!  !!!  !!!!!  !!!        ",
"!!!  !!!!!  !!!  !!!  !!!!! !!!!        ",
"!!!! !!!!!  !!!  !!!  !!!!! !!!!        ",
"!!!! !!!!!  !!!  !!!  !!!!! !!!!        ",
"!!!! !!!!!  !!!  !!!  !!!!! !!!!        ",
"!!!! !!!!!  !!!  !!!  !!!!! !!!!        ",
"!!!! !!!!!  !!!  !!!!!!!!!! !!!!        ",
"!!!! !!!!!  !!!  !!!!!!!!!! !!!!        ",
"!!!! !!!!!  !!!   !!!!!!!!! !!!!        ",
"!!!! !!!!!  !!!    !!!!!!!! !!!!        ",
"!!!!!!!!!!!!!!        !!!!!!!!!!        ",
"!!!!!!!!!!!!!         !!!!!!!!!         ",
" !!!!!!!!!!           !!!!!!!!          ",
"  !!!!!!!!            !!!!!             ",
"     !!!!!            !!!!!             ",
"     !!!!!            !!!!!             ",
"     !!!!!            !!!!!             ",
"     !!!!!            !!!!!             ",
"     !!!!!            !!!!!             ",
"!!!! !!!!! !!!!!!!!!! !!!!! !!!!!!!!!!!!",
"     !!!!!            !!!!!             ",
"     !!!!!    !!      !!!!!             ",
"     !!!!!            !!!!!             ",
"    !!!!!           !!!!!!              ",
"                                        ",
"          !!!!            !!!!          ",
"         !!!!!            !!!!!         ",
"         !!!!!            !!!!!         ",
"         !!!!!       !!   !!!!!         ",
"         !!!!!       !!!  !!!!!         ",
"         !!!!!       !!!  !!!!!         ",
"         !!!!!       !!!  !!!!!         ",
"         !!!!!  !!!  !!!  !!!!!  !!!    ",
"    !!!  !!!!!  !!!  !!!  !!!!! !!!!    ",
"    !!!! !!!!!  !!!  !!!  !!!!! !!!!    ",
"    !!!! !!!!!  !!!  !!!  !!!!! !!!!    ",
"    !!!! !!!!!  !!!  !!!  !!!!! !!!!    ",
"    !!!! !!!!!  !!!  !!!  !!!!! !!!!    ",
"    !!!! !!!!!  !!!  !!!!!!!!!! !!!!    ",
"    !!!! !!!!!  !!!  !!!!!!!!!! !!!!    ",
"    !!!! !!!!!  !!!   !!!!!!!!! !!!!    ",
"    !!!! !!!!!  !!!    !!!!!!!! !!!!    ",
"    !!!!!!!!!!!!!!        !!!!!!!!!!    ",
"    !!!!!!!!!!!!!         !!!!!!!!!     ",
"     !!!!!!!!!!           !!!!!!!!      ",
"      !!!!!!!!            !!!!!         ",
"         !!!!!            !!!!!         ",
"         !!!!!            !!!!!         ",
"         !!!!!            !!!!!         ",
"         !!!!!            !!!!!         ",
"         !!!!!            !!!!!         ",
"!!!!!!!! !!!!! !!!!!!!!!! !!!!! !!!!!!!!",
"         !!!!!            !!!!!         ",
"         !!!!!    !!      !!!!!         ",
"         !!!!!            !!!!!         ",
"        !!!!!           !!!!!!          ",
"                                        "};