/* XPM */ 
static const unsigned char * dinosaur_chars_3_4px_xpm[] = {
"8 216 2 1",
" 	c None",
"!	c black",
"        ",
"        ",
"        ",
"        ",
"        ",
"        ",
"        ",
"        ",
"    !!! ",
"    !!! ",
"    !!! ",
"    !!! ",
"    !!! ",
"    !!! ",
"    !!! ",
"    !!! ",
"    !!! ",
"    !!! ",
"    !!!!",
"     !!!",
"      !!",
"        ",
"        ",
"        ",
"        ",
"        ",
"!!!!!!!!",
"        ",
"    !   ",
"        ",
"       !",
"        ",
"  !!!   ",
" !!!!!  ",
" !!!!!  ",
" !!!!!  ",
" !!!!!  ",
" !!!!!  ",
" !!!!!  ",
" !!!!!  ",
" !!!!!  ",
" !!!!!  ",
" !!!!!  ",
" !!!!!  ",
" !!!!!  ",
" !!!!!  ",
" !!!!!  ",
" !!!!!  ",
" !!!!!  ",
" !!!!!  ",
"!!!!!!!!",
"!!!!!!!!",
"!!!!!!  ",
" !!!!!  ",
" !!!!!  ",
" !!!!!  ",
" !!!!!  ",
" !!!!!  ",
" !!!!! !",
" !!!!!  ",
" !!!!!  ",
" !!!!!  ",
"!!!!!   ",
"      ! ",
"        ",
"        ",
"        ",
"        ",
"        ",
"        ",
" !      ",
"!!!     ",
"!!!     ",
"!!!     ",
"!!!     ",
"!!! !!  ",
"!!! !!! ",
"!!! !!! ",
"!!! !!! ",
"!!! !!! ",
"!!! !!! ",
"!!! !!! ",
"!!  !!! ",
"!   !!!!",
"     !!!",
"      !!",
"        ",
"        ",
"        ",
"        ",
"!!!!!!! ",
"        ",
"        ",
"!  !    ",
"       !",
"        ",
"        ",
" !      ",
"!!!     ",
"!!!     ",
"!!!     ",
"!!!  !! ",
"!!!  !! ",
"!!!  !! ",
"!!!  !! ",
"!!!  !! ",
"!!!  !! ",
"!!!!!!! ",
"!!!!!!  ",
"!!!!    ",
"!!!     ",
"!!!     ",
"!!!  !! ",
"!!!  !! ",
"!!!  !! ",
"!!!  !! ",
"!!!  !! ",
"!!!  !! ",
"!!!  !!!",
"!!!   !!",
"!!!    !",
"!!!     ",
"!!! !!! ",
"!!!     ",
"!!!     ",
"!!! !!  ",
"!!     !",
"        ",
"        ",
"        ",
"        ",
"        ",
"      !!",
"     !!!",
"     !!!",
"     !!!",
"     !!!",
"     !!!",
"     !!!",
"     !!!",
"     !!!",
" !   !!!",
"!!!  !!!",
"!!!   !!",
"!!! !! !",
"!!! !!  ",
"!!! !!  ",
"!!! !!  ",
"!!! !!  ",
"!!  !!  ",
"!!!!!!  ",
"!!!!!   ",
"!!!     ",
"!!!     ",
"!!! !!!!",
"!!!     ",
"!!! !   ",
"!!! !   ",
"!!      ",
"        ",
"   !!!  ",
"  !!!!! ",
"  !!!!! ",
"  !!!!! ",
"  !!!!! ",
"! !!!!! ",
"! !!!!! ",
"! !!!!! ",
"! !!!!! ",
"! !!!!! ",
"! !!!!! ",
"! !!!!! ",
"! !!!!! ",
"!!!!!!! ",
"!!!!!!! ",
"!!!!!!! ",
"!!!!!!! ",
"  !!!!! ",
"  !!!!!!",
"  !!!!!!",
"  !!!!! ",
"  !!!!! ",
"  !!!!! ",
"  !!!!! ",
"  !!!!! ",
"  !!!!! ",
"! !!!!! ",
"  !!!!! ",
"  !!!!! ",
"  !!!!! ",
" !!!!!  ",
"       !",
"        ",
"  !!    ",
" !!!    ",
" !!!    ",
" !!!    ",
" !!!    ",
" !!!    ",
" !!!    ",
" !!!    ",
" !!!    ",
" !!!    ",
" !!!    ",
"!!!     ",
"!!      ",
"        ",
"        ",
"        ",
"        ",
"        ",
"        ",
"!!!!!!!!",
"        ",
"     !! ",
" !      "};