/* XPM */ 
static const unsigned char * dino_chars3_xmas_xpm[] = {
"56 32 2 1",
" 	c None",
"!	c black",
"       !!                               !!              ",
"       !!            !                  !!              ",
"       !!           !!!                 !!              ",
"       !!           !!!                 !!              ",
"    !  !!!          !!!                !!!              ",
"     !!!!!          !!!                !!!!             ",
"      !!!! !        !!!               !!!!! !!          ",
"      !!!!!      ! !!!!            !! !!!!!!!           ",
"   !! !!!!        !!!!!             !!!!!!!!!           ",
"    !!!!!!!        !!!! !!           !!!!!!!!  !!       ",
" !   !!! !!        !!!!!!         !! !!! !!!!!!!        ",
" !!  !!!!!!  !! ! !!!!!!           !!!!!!!!!!!          ",
"  !!!!!!!!!!!!   !!!!!!!            !!!!!!!!!!          ",
"    !!!!!!!!      !!!!!!! !  !  !!  !! !!!!!!!! !!      ",
"!! !!!! !!!!     !!!!!!!!!  !!   !!!!!!!! !! !!!!       ",
" !!!!!!!!!!! !! !!!!!! !!!  !!     !!!!!!!!!!!!!        ",
"  !!!!!!!!!!!!  !!! !!!!!! !!!    !!! !!!!!!!!!!!       ",
"  !!!!!! !!!    !!!!!!!!!! !!!!  !!!!!!!!!! !!!!!!      ",
" !!! !!!!!!!!  !!!!!!!!!!!!!!!!! !!!!! !!!!!!!!!!!      ",
"!!!!!!!!!!!!!!!! !!!!!!! !!!! !!! !!!!!!!!!!!! !!!!     ",
"!!!!!!!!!!!!!!!!!!!!!!! !!!!!!!!!! !!!!!! !!!!!! !!!    ",
"     !!!!! !!!!!!!!!!!!!!! !!!! !!!  !!!!!!!!!!!!!      ",
"     !!!!! !!     !!!!!!!!!!! !!!!!!  !!!!!!!!          ",
"     !!!!!          !!!   !!!!!!! !!! !!!!!             ",
"     !!!!!          !!!    !!!!       !!!!!             ",
"     !!!!!          !!!     !!!       !!!!!             ",
"!!!! !!!!! !!!!!!!! !!! !!! !!! !!!!! !!!!! !!!!!!!!!!!!",
"     !!!!!          !!!     !!!       !!!!!             ",
"!    !!!!!          !!!     !!! !     !!!!!      !!     ",
"     !!!!!  !  !    !!! !!  !!! !     !!!!!  !          ",
"   !!!!!!          !!!     !!!       !!!!!              ",
"          !                                !            "};