/* XPM */ 
static const unsigned char * dinosaur_chars_3_4px_xmas_xpm[] = {
"8 192 2 1",
" 	c None",
"!	c black",
"   !!   ",
"   !!   ",
"   !!   ",
"   !!   ",
"!  !!!  ",
" !!!!!  ",
"  !!!! !",
"  !!!!! ",
"! !!!!  ",
"!!!!!!! ",
" !!! !! ",
" !!!!!! ",
"!!!!!!!!",
"!!!!!!!!",
"!!! !!!!",
"!!!!!!!!",
"!!!!!!!!",
"!!!! !!!",
" !!!!!!!",
"!!!!!!!!",
"!!!!!!!!",
" !!!!! !",
" !!!!! !",
" !!!!!  ",
" !!!!!  ",
" !!!!!  ",
" !!!!! !",
" !!!!!  ",
" !!!!!  ",
" !!!!!  ",
"!!!!!   ",
"      ! ",
"        ",
"        ",
"        ",
"        ",
"        ",
"        ",
"        ",
"     ! !",
"      !!",
"       !",
"       !",
" !! ! !!",
"!!   !!!",
"      !!",
"     !!!",
" !! !!!!",
"!!  !!! ",
"    !!!!",
"!  !!!!!",
"!!!! !!!",
"!!!!!!!!",
"!!!!!!!!",
"!     !!",
"        ",
"        ",
"        ",
"!!!!!!! ",
"        ",
"        ",
"!  !    ",
"       !",
"        ",
"        ",
" !      ",
"!!!     ",
"!!!     ",
"!!!     ",
"!!!     ",
"!!!     ",
"!!!     ",
"!!!     ",
"!!! !!  ",
"!!!!!   ",
"!!!!    ",
"!!!!    ",
"!!!!! ! ",
"!!!!!!  ",
"!! !!!  ",
"!!!!!! !",
"!!!!!! !",
"!!!!!!!!",
"!!!! !!!",
"!!! !!!!",
"!!!!!! !",
"!!!!!!!!",
"!!!   !!",
"!!!    !",
"!!!     ",
"!!! !!! ",
"!!!     ",
"!!!     ",
"!!! !!  ",
"!!     !",
"        ",
"        ",
"        ",
"        ",
"        ",
"        ",
"        ",
"        ",
"       !",
"        ",
"        ",
"      !!",
"       !",
"        ",
" !  !!  ",
"!!   !!!",
"!!     !",
"!!    !!",
"!!!  !!!",
"!!!! !!!",
"! !!! !!",
"!!!!!! !",
"!!! !!! ",
"! !!!!!!",
"!!!!! !!",
"!!!     ",
"!!!     ",
"!!! !!!!",
"!!!     ",
"!!! !   ",
"!!! !   ",
"!!      ",
"        ",
"    !!  ",
"    !!  ",
"    !!  ",
"    !!  ",
"   !!!  ",
"   !!!! ",
"  !!!!! ",
"! !!!!!!",
"!!!!!!!!",
" !!!!!!!",
" !!! !!!",
"!!!!!!!!",
"!!!!!!!!",
"!! !!!!!",
"!!!!! !!",
"!!!!!!!!",
"! !!!!!!",
"!!!!!!! ",
"!! !!!!!",
"!!!!!!!!",
"!!!!!!!!",
" !!!!!!!",
"  !!!!!!",
"! !!!!! ",
"  !!!!! ",
"  !!!!! ",
"! !!!!! ",
"  !!!!! ",
"  !!!!! ",
"  !!!!! ",
" !!!!!  ",
"       !",
"        ",
"        ",
"        ",
"        ",
"        ",
"        ",
"!!      ",
"!       ",
"!       ",
"!  !!   ",
"!!!!    ",
"!!      ",
"!!      ",
"!!! !!  ",
" !!!!   ",
"!!!!    ",
"!!!!!   ",
"!!!!!!  ",
"!!!!!!  ",
"!! !!!! ",
"!!!! !!!",
"!!!!!!  ",
"!!      ",
"        ",
"        ",
"        ",
"!!!!!!!!",
"        ",
"     !! ",
" !      ",
"        ",
"        "};