/* XPM */ 
static const unsigned char * dino_chars2_new_xpm[] = {
"40 48 2 1",
" 	c None",
"!	c black",
"    !!         !!         !!            ",
"   !!!!        !!        !!!!           ",
"   !!!!        !!        !!!!           ",
"   !!!!  ! !!  !!     !! !!!! !         ",
"   !!!! !! !!  !!     !! !!!! !!        ",
"   !!!! !! !!  !!     !! !!!! !!        ",
" ! !!!! !! !!  !!  !! !! !!!! !!        ",
"!! !!!! !! !!  !!  !! !! !!!! !!        ",
"!! !!!! !! !!  !!  !! !! !!!! !!        ",
"!! !!!! !! !!  !!  !! !! !!!! !!        ",
"!! !!!!!!! !!  !!  !! !!!!!!! !!        ",
"!! !!!!!!! !!  !!  !! !!!!!!! !!        ",
"!! !!!!!!  !!  !!  !!  !!!!!!!!!        ",
"!!!!!!!    !!  !!  !!    !!!!!!         ",
"!!!!!!!     !!!!!  !!    !!!!           ",
" !!!!!!      !!!!!!!!    !!!!           ",
"   !!!!       !!!!!!     !!!!           ",
"   !!!!        !!        !!!!           ",
"!! !!!! !!!!!! !! !!!!!! !!!! !!!!!!!!!!",
"   !!!!        !!        !!!!           ",
"   !!!!        !!        !!!!           ",
"   !!!!        !!        !!!!           ",
" !!!!!    !   !!!       !!!!            ",
"                                        ",
"        !!         !!         !!        ",
"       !!!!        !!        !!!!       ",
"       !!!!        !!        !!!!       ",
"       !!!!  ! !!  !!     !! !!!! !     ",
"       !!!! !! !!  !!     !! !!!! !!    ",
"       !!!! !! !!  !!     !! !!!! !!    ",
"     ! !!!! !! !!  !!  !! !! !!!! !!    ",
"    !! !!!! !! !!  !!  !! !! !!!! !!    ",
"    !! !!!! !! !!  !!  !! !! !!!! !!    ",
"    !! !!!! !! !!  !!  !! !! !!!! !!    ",
"    !! !!!!!!! !!  !!  !! !!!!!!! !!    ",
"    !! !!!!!!! !!  !!  !! !!!!!!! !!    ",
"    !! !!!!!!  !!  !!  !!  !!!!!!!!!    ",
"    !!!!!!!    !!  !!  !!    !!!!!!     ",
"    !!!!!!!     !!!!!  !!    !!!!       ",
"     !!!!!!      !!!!!!!!    !!!!       ",
"       !!!!       !!!!!!     !!!!       ",
"       !!!!        !!        !!!!       ",
"!!!!!! !!!! !!!!!! !! !!!!!! !!!! !!!!!!",
"       !!!!        !!        !!!!       ",
"       !!!!        !!        !!!!       ",
"       !!!!        !!        !!!!       ",
"     !!!!!    !   !!!       !!!!        ",
"                                        "};