%TF.FileFunction,Copper,L1,Top,Signal*%
%FSLAX46Y46*%
G04 Gerber Fmt 4.6, Leading zero omitted, Abs format (unit mm)*
G04 Created by KiCad (PCBNEW (2014-12-04 BZR 5312)-product) date Wed 04 Feb 2015 08:21:46 AM CET*
%MOMM*%
G01*
G04 APERTURE LIST*
%ADD10C,0.100000*%
%ADD11C,0.300000*%
%ADD12C,0.381000*%
%ADD13C,0.150000*%
%ADD14R,1.727200X1.727200*%
%ADD15O,1.727200X1.727200*%
%ADD16C,1.397000*%
%ADD17C,1.501140*%
%ADD18R,1.727200X2.032000*%
%ADD19O,1.727200X2.032000*%
%ADD20C,1.998980*%
%ADD21R,1.574800X2.286000*%
%ADD22O,1.574800X2.286000*%
%ADD23R,2.286000X1.574800*%
%ADD24O,2.286000X1.574800*%
%ADD25R,2.499360X2.499360*%
%ADD26C,2.499360*%
%ADD27R,2.032000X1.727200*%
%ADD28O,2.032000X1.727200*%
%ADD29C,1.676400*%
%ADD30C,0.889000*%
%ADD31C,0.635000*%
%ADD32C,0.254000*%
G04 APERTURE END LIST*
D10*
D11*
X74688572Y-138878571D02*
X75545715Y-138878571D01*
X75117144Y-140378571D02*
X75117144Y-138878571D01*
X76260001Y-140378571D02*
X76117143Y-140307143D01*
X76045715Y-140235714D01*
X75974286Y-140092857D01*
X75974286Y-139664286D01*
X76045715Y-139521429D01*
X76117143Y-139450000D01*
X76260001Y-139378571D01*
X76474286Y-139378571D01*
X76617143Y-139450000D01*
X76688572Y-139521429D01*
X76760001Y-139664286D01*
X76760001Y-140092857D01*
X76688572Y-140235714D01*
X76617143Y-140307143D01*
X76474286Y-140378571D01*
X76260001Y-140378571D01*
X77402858Y-139378571D02*
X77402858Y-140878571D01*
X77402858Y-139450000D02*
X77545715Y-139378571D01*
X77831429Y-139378571D01*
X77974286Y-139450000D01*
X78045715Y-139521429D01*
X78117144Y-139664286D01*
X78117144Y-140092857D01*
X78045715Y-140235714D01*
X77974286Y-140307143D01*
X77831429Y-140378571D01*
X77545715Y-140378571D01*
X77402858Y-140307143D01*
X80617144Y-140378571D02*
X79902858Y-140378571D01*
X79902858Y-138878571D01*
X81760001Y-140378571D02*
X81760001Y-139592857D01*
X81688572Y-139450000D01*
X81545715Y-139378571D01*
X81260001Y-139378571D01*
X81117144Y-139450000D01*
X81760001Y-140307143D02*
X81617144Y-140378571D01*
X81260001Y-140378571D01*
X81117144Y-140307143D01*
X81045715Y-140164286D01*
X81045715Y-140021429D01*
X81117144Y-139878571D01*
X81260001Y-139807143D01*
X81617144Y-139807143D01*
X81760001Y-139735714D01*
X82331430Y-139378571D02*
X82688573Y-140378571D01*
X83045715Y-139378571D02*
X82688573Y-140378571D01*
X82545715Y-140735714D01*
X82474287Y-140807143D01*
X82331430Y-140878571D01*
X84188572Y-140307143D02*
X84045715Y-140378571D01*
X83760001Y-140378571D01*
X83617144Y-140307143D01*
X83545715Y-140164286D01*
X83545715Y-139592857D01*
X83617144Y-139450000D01*
X83760001Y-139378571D01*
X84045715Y-139378571D01*
X84188572Y-139450000D01*
X84260001Y-139592857D01*
X84260001Y-139735714D01*
X83545715Y-139878571D01*
X84902858Y-140378571D02*
X84902858Y-139378571D01*
X84902858Y-139664286D02*
X84974286Y-139521429D01*
X85045715Y-139450000D01*
X85188572Y-139378571D01*
X85331429Y-139378571D01*
X67921429Y-72497143D02*
X69064286Y-72497143D01*
X68492857Y-73068571D02*
X68492857Y-71925714D01*
X70492858Y-71568571D02*
X69778572Y-71568571D01*
X69707143Y-72282857D01*
X69778572Y-72211429D01*
X69921429Y-72140000D01*
X70278572Y-72140000D01*
X70421429Y-72211429D01*
X70492858Y-72282857D01*
X70564286Y-72425714D01*
X70564286Y-72782857D01*
X70492858Y-72925714D01*
X70421429Y-72997143D01*
X70278572Y-73068571D01*
X69921429Y-73068571D01*
X69778572Y-72997143D01*
X69707143Y-72925714D01*
X70992857Y-71568571D02*
X71492857Y-73068571D01*
X71992857Y-71568571D01*
X158158571Y-68150715D02*
X156658571Y-68150715D01*
X158158571Y-67293572D01*
X156658571Y-67293572D01*
X156658571Y-66293572D02*
X156658571Y-66007858D01*
X156730000Y-65865000D01*
X156872857Y-65722143D01*
X157158571Y-65650715D01*
X157658571Y-65650715D01*
X157944286Y-65722143D01*
X158087143Y-65865000D01*
X158158571Y-66007858D01*
X158158571Y-66293572D01*
X158087143Y-66436429D01*
X157944286Y-66579286D01*
X157658571Y-66650715D01*
X157158571Y-66650715D01*
X156872857Y-66579286D01*
X156730000Y-66436429D01*
X156658571Y-66293572D01*
X158158571Y-65007857D02*
X156658571Y-65007857D01*
X158158571Y-64150714D01*
X156658571Y-64150714D01*
X157587143Y-63436428D02*
X157587143Y-62293571D01*
X156658571Y-61722142D02*
X158158571Y-61364999D01*
X157087143Y-61079285D01*
X158158571Y-60793571D01*
X156658571Y-60436428D01*
X158158571Y-59864999D02*
X156658571Y-59864999D01*
X156658571Y-59507856D01*
X156730000Y-59293571D01*
X156872857Y-59150713D01*
X157015714Y-59079285D01*
X157301429Y-59007856D01*
X157515714Y-59007856D01*
X157801429Y-59079285D01*
X157944286Y-59150713D01*
X158087143Y-59293571D01*
X158158571Y-59507856D01*
X158158571Y-59864999D01*
X158015714Y-57507856D02*
X158087143Y-57579285D01*
X158158571Y-57793571D01*
X158158571Y-57936428D01*
X158087143Y-58150713D01*
X157944286Y-58293571D01*
X157801429Y-58364999D01*
X157515714Y-58436428D01*
X157301429Y-58436428D01*
X157015714Y-58364999D01*
X156872857Y-58293571D01*
X156730000Y-58150713D01*
X156658571Y-57936428D01*
X156658571Y-57793571D01*
X156730000Y-57579285D01*
X156801429Y-57507856D01*
X161738571Y-68055857D02*
X163238571Y-67698714D01*
X162167143Y-67413000D01*
X163238571Y-67127286D01*
X161738571Y-66770143D01*
X163238571Y-66198714D02*
X161738571Y-66198714D01*
X161738571Y-65841571D01*
X161810000Y-65627286D01*
X161952857Y-65484428D01*
X162095714Y-65413000D01*
X162381429Y-65341571D01*
X162595714Y-65341571D01*
X162881429Y-65413000D01*
X163024286Y-65484428D01*
X163167143Y-65627286D01*
X163238571Y-65841571D01*
X163238571Y-66198714D01*
X163095714Y-63841571D02*
X163167143Y-63913000D01*
X163238571Y-64127286D01*
X163238571Y-64270143D01*
X163167143Y-64484428D01*
X163024286Y-64627286D01*
X162881429Y-64698714D01*
X162595714Y-64770143D01*
X162381429Y-64770143D01*
X162095714Y-64698714D01*
X161952857Y-64627286D01*
X161810000Y-64484428D01*
X161738571Y-64270143D01*
X161738571Y-64127286D01*
X161810000Y-63913000D01*
X161881429Y-63841571D01*
X148760571Y-61927715D02*
X147260571Y-61927715D01*
X148760571Y-61070572D01*
X147260571Y-61070572D01*
X147260571Y-60070572D02*
X147260571Y-59784858D01*
X147332000Y-59642000D01*
X147474857Y-59499143D01*
X147760571Y-59427715D01*
X148260571Y-59427715D01*
X148546286Y-59499143D01*
X148689143Y-59642000D01*
X148760571Y-59784858D01*
X148760571Y-60070572D01*
X148689143Y-60213429D01*
X148546286Y-60356286D01*
X148260571Y-60427715D01*
X147760571Y-60427715D01*
X147474857Y-60356286D01*
X147332000Y-60213429D01*
X147260571Y-60070572D01*
X148760571Y-58784857D02*
X147260571Y-58784857D01*
X148760571Y-57927714D01*
X147260571Y-57927714D01*
X148189143Y-57213428D02*
X148189143Y-56070571D01*
X147260571Y-55499142D02*
X148760571Y-55141999D01*
X147689143Y-54856285D01*
X148760571Y-54570571D01*
X147260571Y-54213428D01*
X148760571Y-53641999D02*
X147260571Y-53641999D01*
X147260571Y-53284856D01*
X147332000Y-53070571D01*
X147474857Y-52927713D01*
X147617714Y-52856285D01*
X147903429Y-52784856D01*
X148117714Y-52784856D01*
X148403429Y-52856285D01*
X148546286Y-52927713D01*
X148689143Y-53070571D01*
X148760571Y-53284856D01*
X148760571Y-53641999D01*
X148617714Y-51284856D02*
X148689143Y-51356285D01*
X148760571Y-51570571D01*
X148760571Y-51713428D01*
X148689143Y-51927713D01*
X148546286Y-52070571D01*
X148403429Y-52141999D01*
X148117714Y-52213428D01*
X147903429Y-52213428D01*
X147617714Y-52141999D01*
X147474857Y-52070571D01*
X147332000Y-51927713D01*
X147260571Y-51713428D01*
X147260571Y-51570571D01*
X147332000Y-51356285D01*
X147403429Y-51284856D01*
X149927571Y-61959857D02*
X151427571Y-61602714D01*
X150356143Y-61317000D01*
X151427571Y-61031286D01*
X149927571Y-60674143D01*
X151427571Y-60102714D02*
X149927571Y-60102714D01*
X149927571Y-59745571D01*
X149999000Y-59531286D01*
X150141857Y-59388428D01*
X150284714Y-59317000D01*
X150570429Y-59245571D01*
X150784714Y-59245571D01*
X151070429Y-59317000D01*
X151213286Y-59388428D01*
X151356143Y-59531286D01*
X151427571Y-59745571D01*
X151427571Y-60102714D01*
X151284714Y-57745571D02*
X151356143Y-57817000D01*
X151427571Y-58031286D01*
X151427571Y-58174143D01*
X151356143Y-58388428D01*
X151213286Y-58531286D01*
X151070429Y-58602714D01*
X150784714Y-58674143D01*
X150570429Y-58674143D01*
X150284714Y-58602714D01*
X150141857Y-58531286D01*
X149999000Y-58388428D01*
X149927571Y-58174143D01*
X149927571Y-58031286D01*
X149999000Y-57817000D01*
X150070429Y-57745571D01*
D12*
X106375200Y-73914000D02*
X107442000Y-73914000D01*
X106934000Y-73406000D02*
X106934000Y-74447400D01*
D13*
X77470000Y-70358000D02*
X78740000Y-70358000D01*
X78105000Y-70993000D02*
X78105000Y-69850000D01*
D14*
X215265000Y-65405000D03*
D15*
X217805000Y-65405000D03*
X215265000Y-67945000D03*
X217805000Y-67945000D03*
X215265000Y-70485000D03*
X217805000Y-70485000D03*
X215265000Y-73025000D03*
X217805000Y-73025000D03*
X215265000Y-75565000D03*
X217805000Y-75565000D03*
X215265000Y-78105000D03*
X217805000Y-78105000D03*
X215265000Y-80645000D03*
X217805000Y-80645000D03*
X215265000Y-83185000D03*
X217805000Y-83185000D03*
X215265000Y-85725000D03*
X217805000Y-85725000D03*
X215265000Y-88265000D03*
X217805000Y-88265000D03*
X215265000Y-90805000D03*
X217805000Y-90805000D03*
X215265000Y-93345000D03*
X217805000Y-93345000D03*
X215265000Y-95885000D03*
X217805000Y-95885000D03*
X215265000Y-98425000D03*
X217805000Y-98425000D03*
X215265000Y-100965000D03*
X217805000Y-100965000D03*
X215265000Y-103505000D03*
X217805000Y-103505000D03*
X215265000Y-106045000D03*
X217805000Y-106045000D03*
X215265000Y-108585000D03*
X217805000Y-108585000D03*
X215265000Y-111125000D03*
X217805000Y-111125000D03*
X215265000Y-113665000D03*
X217805000Y-113665000D03*
X215265000Y-116205000D03*
X217805000Y-116205000D03*
X215265000Y-118745000D03*
X217805000Y-118745000D03*
X215265000Y-121285000D03*
X217805000Y-121285000D03*
X215265000Y-123825000D03*
X217805000Y-123825000D03*
X215265000Y-126365000D03*
X217805000Y-126365000D03*
D16*
X172720000Y-83058000D03*
X175260000Y-83058000D03*
D17*
X108712000Y-75438000D03*
X106172000Y-75438000D03*
D16*
X200660000Y-99060000D03*
X198120000Y-99060000D03*
X157480000Y-99060000D03*
X154940000Y-99060000D03*
X116459000Y-83820000D03*
X116459000Y-86360000D03*
X90170000Y-83820000D03*
X90170000Y-86360000D03*
X161925000Y-53340000D03*
X161925000Y-50800000D03*
X131826000Y-109347000D03*
X134366000Y-109347000D03*
X180340000Y-99060000D03*
X177800000Y-99060000D03*
X118618000Y-109347000D03*
X116078000Y-109347000D03*
D14*
X171450000Y-67310000D03*
D15*
X171450000Y-64770000D03*
X173990000Y-67310000D03*
X173990000Y-64770000D03*
X176530000Y-67310000D03*
X176530000Y-64770000D03*
X179070000Y-67310000D03*
X179070000Y-64770000D03*
D18*
X162560000Y-71120000D03*
D19*
X160020000Y-71120000D03*
X157480000Y-71120000D03*
D14*
X150622000Y-64262000D03*
D15*
X150622000Y-66802000D03*
X148082000Y-64262000D03*
X148082000Y-66802000D03*
D16*
X150622000Y-74676000D03*
X143002000Y-74676000D03*
X150622000Y-72136000D03*
X143002000Y-72136000D03*
X150622000Y-77216000D03*
X143002000Y-77216000D03*
X143002000Y-69596000D03*
X150622000Y-69596000D03*
X92710000Y-71628000D03*
X92710000Y-79248000D03*
D20*
X72349360Y-80050640D03*
X72349360Y-85049360D03*
X67350640Y-85049360D03*
X67350640Y-80050640D03*
D21*
X154940000Y-91440000D03*
D22*
X157480000Y-91440000D03*
X160020000Y-91440000D03*
X162560000Y-91440000D03*
X165100000Y-91440000D03*
X167640000Y-91440000D03*
X170180000Y-91440000D03*
X172720000Y-91440000D03*
X175260000Y-91440000D03*
X177800000Y-91440000D03*
X180340000Y-91440000D03*
X182880000Y-91440000D03*
X185420000Y-91440000D03*
X187960000Y-91440000D03*
X190500000Y-91440000D03*
X193040000Y-91440000D03*
X195580000Y-91440000D03*
X198120000Y-91440000D03*
X200660000Y-91440000D03*
X203200000Y-91440000D03*
X203200000Y-76200000D03*
X200660000Y-76200000D03*
X198120000Y-76200000D03*
X195580000Y-76200000D03*
X193040000Y-76200000D03*
X190500000Y-76200000D03*
X187960000Y-76200000D03*
X185420000Y-76200000D03*
X182880000Y-76200000D03*
X180340000Y-76200000D03*
X177800000Y-76200000D03*
X175260000Y-76200000D03*
X172720000Y-76200000D03*
X170180000Y-76200000D03*
X167640000Y-76200000D03*
X165100000Y-76200000D03*
X162560000Y-76200000D03*
X160020000Y-76200000D03*
X157480000Y-76200000D03*
X154940000Y-76200000D03*
D21*
X95250000Y-91440000D03*
D22*
X97790000Y-91440000D03*
X100330000Y-91440000D03*
X102870000Y-91440000D03*
X105410000Y-91440000D03*
X107950000Y-91440000D03*
X110490000Y-91440000D03*
X110490000Y-83820000D03*
X107950000Y-83820000D03*
X105410000Y-83820000D03*
X102870000Y-83820000D03*
X100330000Y-83820000D03*
X97790000Y-83820000D03*
X95250000Y-83820000D03*
D21*
X166370000Y-60960000D03*
D22*
X168910000Y-60960000D03*
X171450000Y-60960000D03*
X173990000Y-60960000D03*
X176530000Y-60960000D03*
X179070000Y-60960000D03*
X181610000Y-60960000D03*
X181610000Y-53340000D03*
X179070000Y-53340000D03*
X176530000Y-53340000D03*
X173990000Y-53340000D03*
X171450000Y-53340000D03*
X168910000Y-53340000D03*
X166370000Y-53340000D03*
D21*
X120904000Y-91440000D03*
D22*
X123444000Y-91440000D03*
X125984000Y-91440000D03*
X128524000Y-91440000D03*
X131064000Y-91440000D03*
X133604000Y-91440000D03*
X136144000Y-91440000D03*
X138684000Y-91440000D03*
X141224000Y-91440000D03*
X143764000Y-91440000D03*
X146304000Y-91440000D03*
X148844000Y-91440000D03*
X148844000Y-83820000D03*
X146304000Y-83820000D03*
X143764000Y-83820000D03*
X141224000Y-83820000D03*
X138684000Y-83820000D03*
X136144000Y-83820000D03*
X133604000Y-83820000D03*
X131064000Y-83820000D03*
X128524000Y-83820000D03*
X125984000Y-83820000D03*
X123444000Y-83820000D03*
X120904000Y-83820000D03*
D23*
X142240000Y-104140000D03*
D24*
X142240000Y-106680000D03*
X142240000Y-109220000D03*
X142240000Y-111760000D03*
X142240000Y-114300000D03*
X142240000Y-116840000D03*
X142240000Y-119380000D03*
X142240000Y-121920000D03*
X142240000Y-124460000D03*
X142240000Y-127000000D03*
X142240000Y-129540000D03*
X142240000Y-132080000D03*
X142240000Y-134620000D03*
X142240000Y-137160000D03*
X157480000Y-137160000D03*
X157480000Y-134620000D03*
X157480000Y-132080000D03*
X157480000Y-129540000D03*
X157480000Y-127000000D03*
X157480000Y-124460000D03*
X157480000Y-121920000D03*
X157480000Y-119380000D03*
X157480000Y-116840000D03*
X157480000Y-114300000D03*
X157480000Y-111760000D03*
X157480000Y-109220000D03*
X157480000Y-106680000D03*
X157480000Y-104140000D03*
D23*
X187960000Y-104140000D03*
D24*
X187960000Y-106680000D03*
X187960000Y-109220000D03*
X187960000Y-111760000D03*
X187960000Y-114300000D03*
X187960000Y-116840000D03*
X187960000Y-119380000D03*
X187960000Y-121920000D03*
X187960000Y-124460000D03*
X187960000Y-127000000D03*
X187960000Y-129540000D03*
X187960000Y-132080000D03*
X187960000Y-134620000D03*
X187960000Y-137160000D03*
X203200000Y-137160000D03*
X203200000Y-134620000D03*
X203200000Y-132080000D03*
X203200000Y-129540000D03*
X203200000Y-127000000D03*
X203200000Y-124460000D03*
X203200000Y-121920000D03*
X203200000Y-119380000D03*
X203200000Y-116840000D03*
X203200000Y-114300000D03*
X203200000Y-111760000D03*
X203200000Y-109220000D03*
X203200000Y-106680000D03*
X203200000Y-104140000D03*
D23*
X165100000Y-104140000D03*
D24*
X165100000Y-106680000D03*
X165100000Y-109220000D03*
X165100000Y-111760000D03*
X165100000Y-114300000D03*
X165100000Y-116840000D03*
X165100000Y-119380000D03*
X165100000Y-121920000D03*
X165100000Y-124460000D03*
X165100000Y-127000000D03*
X165100000Y-129540000D03*
X165100000Y-132080000D03*
X165100000Y-134620000D03*
X165100000Y-137160000D03*
X180340000Y-137160000D03*
X180340000Y-134620000D03*
X180340000Y-132080000D03*
X180340000Y-129540000D03*
X180340000Y-127000000D03*
X180340000Y-124460000D03*
X180340000Y-121920000D03*
X180340000Y-119380000D03*
X180340000Y-116840000D03*
X180340000Y-114300000D03*
X180340000Y-111760000D03*
X180340000Y-109220000D03*
X180340000Y-106680000D03*
X180340000Y-104140000D03*
D21*
X120904000Y-79248000D03*
D22*
X123444000Y-79248000D03*
X125984000Y-79248000D03*
X128524000Y-79248000D03*
X131064000Y-79248000D03*
X133604000Y-79248000D03*
X136144000Y-79248000D03*
X138684000Y-79248000D03*
X138684000Y-71628000D03*
X136144000Y-71628000D03*
X133604000Y-71628000D03*
X131064000Y-71628000D03*
X128524000Y-71628000D03*
X125984000Y-71628000D03*
X123444000Y-71628000D03*
X120904000Y-71628000D03*
D23*
X124206000Y-113919000D03*
D24*
X124206000Y-116459000D03*
X124206000Y-118999000D03*
X124206000Y-121539000D03*
X124206000Y-124079000D03*
X124206000Y-126619000D03*
X124206000Y-129159000D03*
X124206000Y-131699000D03*
X124206000Y-134239000D03*
X124206000Y-136779000D03*
X131826000Y-136779000D03*
X131826000Y-134239000D03*
X131826000Y-131699000D03*
X131826000Y-129159000D03*
X131826000Y-126619000D03*
X131826000Y-124079000D03*
X131826000Y-121539000D03*
X131826000Y-118999000D03*
X131826000Y-116459000D03*
X131826000Y-113919000D03*
D25*
X187960000Y-62230000D03*
D26*
X203200000Y-62230000D03*
X203200000Y-54610000D03*
X187960000Y-54610000D03*
D16*
X120904000Y-67818000D03*
X123444000Y-67818000D03*
D17*
X80010000Y-67310000D03*
X80010000Y-69850000D03*
D27*
X104394000Y-116459000D03*
D28*
X104394000Y-118999000D03*
X104394000Y-121539000D03*
X104394000Y-124079000D03*
X104394000Y-126619000D03*
X104394000Y-129159000D03*
X104394000Y-131699000D03*
X104394000Y-134239000D03*
D23*
X110998000Y-113919000D03*
D24*
X110998000Y-116459000D03*
X110998000Y-118999000D03*
X110998000Y-121539000D03*
X110998000Y-124079000D03*
X110998000Y-126619000D03*
X110998000Y-129159000D03*
X110998000Y-131699000D03*
X110998000Y-134239000D03*
X110998000Y-136779000D03*
X118618000Y-136779000D03*
X118618000Y-134239000D03*
X118618000Y-131699000D03*
X118618000Y-129159000D03*
X118618000Y-126619000D03*
X118618000Y-124079000D03*
X118618000Y-121539000D03*
X118618000Y-118999000D03*
X118618000Y-116459000D03*
X118618000Y-113919000D03*
D16*
X106172000Y-79248000D03*
X108712000Y-79248000D03*
X106172000Y-71628000D03*
X108712000Y-71628000D03*
X90170000Y-71628000D03*
X90170000Y-79248000D03*
D21*
X95250000Y-79248000D03*
D22*
X97790000Y-79248000D03*
X100330000Y-79248000D03*
X102870000Y-79248000D03*
X102870000Y-71628000D03*
X100330000Y-71628000D03*
X97790000Y-71628000D03*
X95250000Y-71628000D03*
D27*
X73660000Y-69850000D03*
D28*
X73660000Y-67310000D03*
X73660000Y-64770000D03*
X73660000Y-62230000D03*
D29*
X157480000Y-140970000D03*
X160020000Y-140970000D03*
X203200000Y-140970000D03*
X205740000Y-140970000D03*
X180340000Y-140970000D03*
X182880000Y-140970000D03*
D16*
X152400000Y-140970000D03*
X144780000Y-140970000D03*
X198120000Y-140970000D03*
X190500000Y-140970000D03*
X175260000Y-140970000D03*
X167640000Y-140970000D03*
D29*
X67310000Y-96520000D03*
X67310000Y-99060000D03*
X67310000Y-101600000D03*
X67310000Y-104140000D03*
X67310000Y-106680000D03*
X67310000Y-109220000D03*
X67310000Y-111760000D03*
X67310000Y-114300000D03*
X67310000Y-116840000D03*
X67310000Y-119380000D03*
X67310000Y-121920000D03*
X67310000Y-124460000D03*
X67310000Y-127000000D03*
X67310000Y-129540000D03*
X67310000Y-132080000D03*
X67310000Y-134620000D03*
D16*
X91059000Y-116459000D03*
X98679000Y-116459000D03*
X91059000Y-118999000D03*
X98679000Y-118999000D03*
X91186000Y-121539000D03*
X98806000Y-121539000D03*
X91313000Y-124079000D03*
X98933000Y-124079000D03*
X91313000Y-126619000D03*
X98933000Y-126619000D03*
X91440000Y-129159000D03*
X99060000Y-129159000D03*
X91440000Y-131699000D03*
X99060000Y-131699000D03*
X91567000Y-134239000D03*
X99187000Y-134239000D03*
D30*
X201907070Y-82872239D03*
X133464770Y-88023230D03*
X177800000Y-140970000D03*
X154940000Y-140970000D03*
X199898000Y-141224000D03*
X143002000Y-50927000D03*
X120904000Y-50800000D03*
X204470000Y-71120000D03*
X203034886Y-83058001D03*
X209677000Y-83058000D03*
X146304000Y-79121000D03*
X211264501Y-113030000D03*
X211455000Y-87439490D03*
X213233021Y-87475327D03*
X168910000Y-70167480D03*
X168846936Y-74231520D03*
X166370000Y-74930000D03*
X205740000Y-135890000D03*
X138303000Y-123952000D03*
X206756000Y-133350000D03*
X140208000Y-127000000D03*
X209550000Y-130810000D03*
X213708284Y-85854726D03*
X213868000Y-84455000D03*
X211512345Y-85788520D03*
X210557969Y-89145284D03*
X129794000Y-89916000D03*
X140843000Y-110490000D03*
X140843000Y-113030000D03*
X140081000Y-119380000D03*
X138303000Y-114173000D03*
X133477000Y-93345000D03*
X132397480Y-106680000D03*
X131191000Y-106680000D03*
X187960000Y-95885000D03*
X189230000Y-89598540D03*
X203034886Y-86423521D03*
X149178183Y-86931443D03*
X161163000Y-124079000D03*
X127889000Y-107950000D03*
X138303000Y-125349000D03*
X145424758Y-109029480D03*
X127254000Y-82296000D03*
D31*
X201721309Y-83058000D02*
X201907070Y-82872239D01*
X175260000Y-83058000D02*
X201721309Y-83058000D01*
X110490000Y-91567000D02*
X110490000Y-91440000D01*
X133020271Y-87578731D02*
X133464770Y-88023230D01*
X131801540Y-86360000D02*
X133020271Y-87578731D01*
X116459000Y-86360000D02*
X131801540Y-86360000D01*
X144780000Y-140970000D02*
X144780000Y-143510000D01*
X167640000Y-140970000D02*
X167640000Y-143510000D01*
X177800000Y-143510000D02*
X177800000Y-140970000D01*
X154940000Y-143510000D02*
X154940000Y-140970000D01*
X190500000Y-140970000D02*
X190500000Y-143510000D01*
X199898000Y-143637000D02*
X199898000Y-141852617D01*
X199898000Y-141852617D02*
X199898000Y-141224000D01*
X118618000Y-109347000D02*
X131826000Y-109347000D01*
X201930000Y-99060000D02*
X203200000Y-100330000D01*
X203200000Y-100330000D02*
X203200000Y-104140000D01*
X200660000Y-99060000D02*
X201930000Y-99060000D01*
X215265000Y-65405000D02*
X215265000Y-63500000D01*
X217043000Y-61722000D02*
X219837000Y-61722000D01*
X215265000Y-63500000D02*
X217043000Y-61722000D01*
X187960000Y-54610000D02*
X187960000Y-48006000D01*
X143002000Y-48895000D02*
X143002000Y-50927000D01*
X120904000Y-50800000D02*
X120904000Y-48641000D01*
X166370000Y-53340000D02*
X161925000Y-53340000D01*
X215265000Y-121285000D02*
X217805000Y-121285000D01*
X217805000Y-121285000D02*
X217805000Y-118745000D01*
X217805000Y-118745000D02*
X215265000Y-118745000D01*
X215265000Y-118745000D02*
X215265000Y-121285000D01*
X166370000Y-53340000D02*
X166370000Y-51562000D01*
X166370000Y-51562000D02*
X166370000Y-48895000D01*
X95250000Y-71272400D02*
X95250000Y-71628000D01*
X102870000Y-78892400D02*
X99415600Y-75438000D01*
X102870000Y-79248000D02*
X102870000Y-78892400D01*
X98704400Y-75438000D02*
X95250000Y-71983600D01*
X95250000Y-71983600D02*
X95250000Y-71628000D01*
X99415600Y-75438000D02*
X98704400Y-75438000D01*
X64770000Y-69850000D02*
X63500000Y-69850000D01*
X73660000Y-69850000D02*
X64770000Y-69850000D01*
X80010000Y-69850000D02*
X73660000Y-69850000D01*
X88392000Y-69850000D02*
X90170000Y-71628000D01*
X80010000Y-69850000D02*
X88392000Y-69850000D01*
D32*
X161264601Y-69722999D02*
X163728401Y-69722999D01*
X163728401Y-69722999D02*
X165125402Y-71120000D01*
X165125402Y-71120000D02*
X203841383Y-71120000D01*
X203841383Y-71120000D02*
X204470000Y-71120000D01*
X160020000Y-71120000D02*
X160020000Y-70967600D01*
X160020000Y-70967600D02*
X161264601Y-69722999D01*
X128524000Y-71628000D02*
X128524000Y-71983600D01*
X114325390Y-77089010D02*
X123418590Y-77089010D01*
X107950000Y-83464400D02*
X114325390Y-77089010D01*
X107950000Y-83820000D02*
X107950000Y-83464400D01*
X123418590Y-77089010D02*
X128524000Y-71983600D01*
X159392544Y-71120000D02*
X160020000Y-71120000D01*
X157146393Y-73366151D02*
X159392544Y-71120000D01*
X129906551Y-73366151D02*
X157146393Y-73366151D01*
X128524000Y-71983600D02*
X129906551Y-73366151D01*
X203034886Y-83058001D02*
X209048383Y-83058000D01*
X209048383Y-83058000D02*
X209677000Y-83058000D01*
X123190000Y-113919000D02*
X124206000Y-113919000D01*
X116459000Y-112014000D02*
X121285000Y-112014000D01*
X106680000Y-102235000D02*
X116459000Y-112014000D01*
X106680000Y-88011000D02*
X106680000Y-102235000D01*
X102870000Y-84201000D02*
X106680000Y-88011000D01*
X121285000Y-112014000D02*
X123190000Y-113919000D01*
X102870000Y-83820000D02*
X102870000Y-84201000D01*
X154940000Y-75819000D02*
X154940000Y-76200000D01*
X156591000Y-74168000D02*
X154940000Y-75819000D01*
X165354000Y-74168000D02*
X156591000Y-74168000D01*
X166116000Y-73406000D02*
X165354000Y-74168000D01*
X208026000Y-73406000D02*
X166116000Y-73406000D01*
X214782399Y-66649601D02*
X208026000Y-73406000D01*
X216560399Y-66649601D02*
X214782399Y-66649601D01*
X217805000Y-65405000D02*
X216560399Y-66649601D01*
X153898600Y-76200000D02*
X154940000Y-76200000D01*
X153644600Y-75946000D02*
X153898600Y-76200000D01*
X114680980Y-77597020D02*
X123629014Y-77597020D01*
X123629014Y-77597020D02*
X125280034Y-75946000D01*
X109118410Y-83159590D02*
X114680980Y-77597020D01*
X109118410Y-84659571D02*
X109118410Y-83159590D01*
X108179981Y-85598000D02*
X109118410Y-84659571D01*
X104292400Y-85598000D02*
X108179981Y-85598000D01*
X125280034Y-75946000D02*
X153644600Y-75946000D01*
X102870000Y-84175600D02*
X104292400Y-85598000D01*
X102870000Y-83820000D02*
X102870000Y-84175600D01*
X146304000Y-83820000D02*
X146304000Y-83464400D01*
X95250000Y-91440000D02*
X96291400Y-91440000D01*
X102870000Y-91084400D02*
X102870000Y-91440000D01*
X96291400Y-91440000D02*
X97790000Y-91440000D01*
X170180000Y-76555600D02*
X170180000Y-76200000D01*
X102870000Y-91795600D02*
X102870000Y-91440000D01*
X101701600Y-92964000D02*
X102870000Y-91795600D01*
X100813981Y-92964000D02*
X101701600Y-92964000D01*
X100813971Y-92964010D02*
X100813981Y-92964000D01*
X99846029Y-92964010D02*
X100813971Y-92964010D01*
X99846019Y-92964000D02*
X99846029Y-92964010D01*
X98958400Y-92964000D02*
X99846019Y-92964000D01*
X97790000Y-91795600D02*
X98958400Y-92964000D01*
X97790000Y-91440000D02*
X97790000Y-91795600D01*
X101701590Y-82980429D02*
X101701590Y-88874590D01*
X103353981Y-82296000D02*
X103353971Y-82295990D01*
X103353971Y-82295990D02*
X102386029Y-82295990D01*
X101701590Y-88874590D02*
X102870000Y-90043000D01*
X102870000Y-90043000D02*
X102870000Y-91440000D01*
X104926019Y-82296000D02*
X103353981Y-82296000D01*
X104926029Y-82295990D02*
X104926019Y-82296000D01*
X105893981Y-82296000D02*
X105893971Y-82295990D01*
X102386029Y-82295990D02*
X101701590Y-82980429D01*
X107466019Y-82296000D02*
X105893981Y-82296000D01*
X108331010Y-82295990D02*
X107466029Y-82295990D01*
X114046000Y-76581000D02*
X108331010Y-82295990D01*
X123190000Y-76581000D02*
X114046000Y-76581000D01*
X125984000Y-73787000D02*
X123190000Y-76581000D01*
X107466029Y-82295990D02*
X107466019Y-82296000D01*
X105893971Y-82295990D02*
X104926029Y-82295990D01*
X125984000Y-71628000D02*
X125984000Y-73787000D01*
X214401401Y-82321401D02*
X215265000Y-83185000D01*
X175412486Y-81788086D02*
X213868086Y-81788086D01*
X170180000Y-76555600D02*
X175412486Y-81788086D01*
X213868086Y-81788086D02*
X214401401Y-82321401D01*
X167614600Y-79121000D02*
X146932617Y-79121000D01*
X146932617Y-79121000D02*
X146304000Y-79121000D01*
X170180000Y-76555600D02*
X167614600Y-79121000D01*
X180340000Y-119380000D02*
X185952019Y-119380000D01*
X185952019Y-119380000D02*
X187222019Y-118110000D01*
X187222019Y-118110000D02*
X201574400Y-118110000D01*
X201574400Y-118110000D02*
X202844400Y-119380000D01*
X202844400Y-119380000D02*
X203200000Y-119380000D01*
X203200000Y-119380000D02*
X204914501Y-119380000D01*
X204914501Y-119380000D02*
X210820002Y-113474499D01*
X210820002Y-113474499D02*
X211264501Y-113030000D01*
X107950000Y-102786566D02*
X107950000Y-92837000D01*
X134444732Y-111505990D02*
X116669424Y-111505990D01*
X141150332Y-118211590D02*
X134444732Y-111505990D01*
X107950000Y-92837000D02*
X107950000Y-91440000D01*
X148564590Y-118211590D02*
X141150332Y-118211590D01*
X116669424Y-111505990D02*
X107950000Y-102786566D01*
X149733000Y-119380000D02*
X148564590Y-118211590D01*
X157480000Y-119380000D02*
X149733000Y-119380000D01*
X171831000Y-119380000D02*
X180340000Y-119380000D01*
X170662590Y-118211590D02*
X171831000Y-119380000D01*
X164260429Y-118211590D02*
X170662590Y-118211590D01*
X163092019Y-119380000D02*
X164260429Y-118211590D01*
X157480000Y-119380000D02*
X163092019Y-119380000D01*
X133604000Y-84175600D02*
X136867854Y-87439454D01*
X210508910Y-87756963D02*
X210826383Y-87439490D01*
X148385669Y-87756963D02*
X210508910Y-87756963D01*
X210826383Y-87439490D02*
X211455000Y-87439490D01*
X148068160Y-87439454D02*
X148385669Y-87756963D01*
X136867854Y-87439454D02*
X148068160Y-87439454D01*
X133604000Y-83820000D02*
X133604000Y-84175600D01*
X215138000Y-93472000D02*
X215265000Y-93345000D01*
X135716417Y-87947463D02*
X147857735Y-87947463D01*
X131588954Y-83820000D02*
X135716417Y-87947463D01*
X212788522Y-87919826D02*
X213233021Y-87475327D01*
X212443338Y-88265010D02*
X212788522Y-87919826D01*
X148175282Y-88265010D02*
X212443338Y-88265010D01*
X147857735Y-87947463D02*
X148175282Y-88265010D01*
X131064000Y-83820000D02*
X131588954Y-83820000D01*
X203200000Y-106680000D02*
X201803000Y-106680000D01*
X201803000Y-106680000D02*
X200634590Y-105511590D01*
X200634590Y-105511590D02*
X182397410Y-105511590D01*
X182397410Y-105511590D02*
X181229000Y-106680000D01*
X181229000Y-106680000D02*
X180340000Y-106680000D01*
X110490000Y-83820000D02*
X110490000Y-89027000D01*
X110490000Y-89027000D02*
X123571000Y-102108000D01*
X123571000Y-102108000D02*
X160528000Y-102108000D01*
X160528000Y-102108000D02*
X163931590Y-105511590D01*
X165939571Y-105511590D02*
X167107981Y-106680000D01*
X163931590Y-105511590D02*
X165939571Y-105511590D01*
X167107981Y-106680000D02*
X180340000Y-106680000D01*
X218668599Y-105181401D02*
X217805000Y-106045000D01*
X219049601Y-104800399D02*
X218668599Y-105181401D01*
X219049601Y-95287591D02*
X219049601Y-104800399D01*
X218402409Y-94640399D02*
X219049601Y-95287591D01*
X214569853Y-94640399D02*
X218402409Y-94640399D01*
X210565991Y-98644261D02*
X214569853Y-94640399D01*
X210565990Y-99669610D02*
X210565991Y-98644261D01*
X203555600Y-106680000D02*
X210565990Y-99669610D01*
X203200000Y-106680000D02*
X203555600Y-106680000D01*
X215138000Y-67818000D02*
X215265000Y-67945000D01*
X167640000Y-91084400D02*
X167640000Y-91440000D01*
X215265000Y-67945000D02*
X209295990Y-73914010D01*
X209295990Y-73914010D02*
X169164446Y-73914010D01*
X169164446Y-73914010D02*
X168846936Y-74231520D01*
X168465501Y-69722981D02*
X168910000Y-70167480D01*
X167830520Y-69088000D02*
X168465501Y-69722981D01*
X153670000Y-69088000D02*
X167830520Y-69088000D01*
X150622000Y-72136000D02*
X153670000Y-69088000D01*
X162560000Y-91084400D02*
X162560000Y-91440000D01*
X216509601Y-69240399D02*
X214688035Y-69240399D01*
X214688035Y-69240399D02*
X209300673Y-74627761D01*
X166814499Y-74485501D02*
X166370000Y-74930000D01*
X167933482Y-74485501D02*
X166814499Y-74485501D01*
X168505002Y-75057021D02*
X167933482Y-74485501D01*
X209300673Y-74627761D02*
X169672429Y-74627761D01*
X169672429Y-74627761D02*
X169243169Y-75057021D01*
X169243169Y-75057021D02*
X168505002Y-75057021D01*
X217805000Y-67945000D02*
X216509601Y-69240399D01*
X215138000Y-85852000D02*
X215265000Y-85725000D01*
X157480000Y-91440000D02*
X157480000Y-91795600D01*
X214058522Y-86931478D02*
X214401401Y-86588599D01*
X214058522Y-87871568D02*
X214058522Y-86931478D01*
X208966080Y-92964010D02*
X214058522Y-87871568D01*
X158648410Y-92964010D02*
X208966080Y-92964010D01*
X157480000Y-91795600D02*
X158648410Y-92964010D01*
X214401401Y-86588599D02*
X215265000Y-85725000D01*
X216560399Y-71729601D02*
X216941401Y-71348599D01*
X214071361Y-71729601D02*
X216560399Y-71729601D01*
X208076958Y-77724004D02*
X214071361Y-71729601D01*
X190500000Y-76555600D02*
X191668404Y-77724004D01*
X190500000Y-76200000D02*
X190500000Y-76555600D01*
X191668404Y-77724004D02*
X208076958Y-77724004D01*
X216941401Y-71348599D02*
X217805000Y-70485000D01*
X136262608Y-118999000D02*
X140144520Y-122880912D01*
X150495000Y-127000000D02*
X156083000Y-127000000D01*
X141571200Y-125831590D02*
X149326590Y-125831590D01*
X131826000Y-118999000D02*
X136262608Y-118999000D01*
X140144520Y-124404905D02*
X141571200Y-125831590D01*
X149326590Y-125831590D02*
X150495000Y-127000000D01*
X140144520Y-122880912D02*
X140144520Y-124404905D01*
X156083000Y-127000000D02*
X157480000Y-127000000D01*
X203200000Y-127000000D02*
X195961000Y-127000000D01*
X195961000Y-127000000D02*
X194792590Y-125831590D01*
X187120429Y-125831590D02*
X185952019Y-127000000D01*
X194792590Y-125831590D02*
X187120429Y-125831590D01*
X185952019Y-127000000D02*
X182626000Y-127000000D01*
X182626000Y-127000000D02*
X180340000Y-127000000D01*
X203200000Y-127000000D02*
X203555600Y-127000000D01*
X172636566Y-127000000D02*
X180340000Y-127000000D01*
X171468156Y-125831590D02*
X172636566Y-127000000D01*
X164260429Y-125831590D02*
X171468156Y-125831590D01*
X163092019Y-127000000D02*
X164260429Y-125831590D01*
X157480000Y-127000000D02*
X163092019Y-127000000D01*
X187960000Y-76555600D02*
X189636414Y-78232014D01*
X214043686Y-73025000D02*
X215265000Y-73025000D01*
X213494396Y-73025000D02*
X214043686Y-73025000D01*
X208287382Y-78232014D02*
X213494396Y-73025000D01*
X189636414Y-78232014D02*
X208287382Y-78232014D01*
X187960000Y-76200000D02*
X187960000Y-76555600D01*
X139128501Y-123301759D02*
X139128501Y-127523243D01*
X137365742Y-121539000D02*
X139128501Y-123301759D01*
X139128501Y-127523243D02*
X139976848Y-128371590D01*
X131826000Y-121539000D02*
X137365742Y-121539000D01*
X139976848Y-128371590D02*
X144290156Y-128371590D01*
X156971990Y-129031990D02*
X157480000Y-129540000D01*
X144950556Y-129031990D02*
X156971990Y-129031990D01*
X144290156Y-128371590D02*
X144950556Y-129031990D01*
X180340000Y-129540000D02*
X185952019Y-129540000D01*
X185952019Y-129540000D02*
X187120429Y-128371590D01*
X187120429Y-128371590D02*
X195046590Y-128371590D01*
X195046590Y-128371590D02*
X196215000Y-129540000D01*
X196215000Y-129540000D02*
X203200000Y-129540000D01*
X215069034Y-73025000D02*
X215265000Y-73025000D01*
X203200000Y-129540000D02*
X203555600Y-129540000D01*
X173017566Y-129540000D02*
X180340000Y-129540000D01*
X171849156Y-128371590D02*
X173017566Y-129540000D01*
X164260429Y-128371590D02*
X171849156Y-128371590D01*
X163092019Y-129540000D02*
X164260429Y-128371590D01*
X157480000Y-129540000D02*
X163092019Y-129540000D01*
X216941401Y-73888599D02*
X217805000Y-73025000D01*
X185420000Y-76555600D02*
X187604424Y-78740024D01*
X212917431Y-74320399D02*
X216509601Y-74320399D01*
X208497806Y-78740024D02*
X212917431Y-74320399D01*
X187604424Y-78740024D02*
X208497806Y-78740024D01*
X185420000Y-76200000D02*
X185420000Y-76555600D01*
X216509601Y-74320399D02*
X216941401Y-73888599D01*
X157480000Y-132080000D02*
X150622000Y-132080000D01*
X150622000Y-132080000D02*
X149352000Y-130810000D01*
X149352000Y-130810000D02*
X139573000Y-130810000D01*
X139573000Y-130810000D02*
X137922000Y-129159000D01*
X137922000Y-129159000D02*
X131826000Y-129159000D01*
X180340000Y-132080000D02*
X185952019Y-132080000D01*
X185952019Y-132080000D02*
X187120429Y-130911590D01*
X187120429Y-130911590D02*
X194665590Y-130911590D01*
X194665590Y-130911590D02*
X195834000Y-132080000D01*
X195834000Y-132080000D02*
X203200000Y-132080000D01*
X157480000Y-132080000D02*
X157124400Y-132080000D01*
X163092019Y-132080000D02*
X158877000Y-132080000D01*
X164362019Y-130810000D02*
X163092019Y-132080000D01*
X158877000Y-132080000D02*
X157480000Y-132080000D01*
X172636566Y-130810000D02*
X164362019Y-130810000D01*
X173906566Y-132080000D02*
X172636566Y-130810000D01*
X180340000Y-132080000D02*
X173906566Y-132080000D01*
X208708230Y-79248034D02*
X212391264Y-75565000D01*
X182880000Y-76200000D02*
X182880000Y-76555600D01*
X214043686Y-75565000D02*
X215265000Y-75565000D01*
X212391264Y-75565000D02*
X214043686Y-75565000D01*
X185572434Y-79248034D02*
X208708230Y-79248034D01*
X182880000Y-76555600D02*
X185572434Y-79248034D01*
X131826000Y-131699000D02*
X138938000Y-131699000D01*
X138938000Y-131699000D02*
X140589000Y-133350000D01*
X140589000Y-133350000D02*
X149098000Y-133350000D01*
X149098000Y-133350000D02*
X150368000Y-134620000D01*
X150368000Y-134620000D02*
X156083000Y-134620000D01*
X156083000Y-134620000D02*
X157480000Y-134620000D01*
X180340000Y-134620000D02*
X185952019Y-134620000D01*
X185952019Y-134620000D02*
X187120429Y-133451590D01*
X187120429Y-133451590D02*
X194665590Y-133451590D01*
X194665590Y-133451590D02*
X195834000Y-134620000D01*
X195834000Y-134620000D02*
X203200000Y-134620000D01*
X203200000Y-134620000D02*
X203555600Y-134620000D01*
X157988010Y-134111990D02*
X157480000Y-134620000D01*
X164362019Y-133350000D02*
X163600029Y-134111990D01*
X173017566Y-133350000D02*
X164362019Y-133350000D01*
X174287566Y-134620000D02*
X173017566Y-133350000D01*
X163600029Y-134111990D02*
X157988010Y-134111990D01*
X180340000Y-134620000D02*
X174287566Y-134620000D01*
X208918654Y-79756044D02*
X211814299Y-76860399D01*
X180340000Y-76555600D02*
X183540444Y-79756044D01*
X211814299Y-76860399D02*
X216509601Y-76860399D01*
X216941401Y-76428599D02*
X217805000Y-75565000D01*
X183540444Y-79756044D02*
X208918654Y-79756044D01*
X180340000Y-76200000D02*
X180340000Y-76555600D01*
X216509601Y-76860399D02*
X216941401Y-76428599D01*
X124206000Y-131699000D02*
X125349000Y-131699000D01*
X125349000Y-131699000D02*
X129159000Y-135509000D01*
X129159000Y-135509000D02*
X140716000Y-135509000D01*
X140716000Y-135509000D02*
X141097000Y-135890000D01*
X141097000Y-135890000D02*
X148971000Y-135890000D01*
X148971000Y-135890000D02*
X150241000Y-137160000D01*
X150241000Y-137160000D02*
X156083000Y-137160000D01*
X156083000Y-137160000D02*
X157480000Y-137160000D01*
X180340000Y-137160000D02*
X185952019Y-137160000D01*
X185952019Y-137160000D02*
X187120429Y-135991590D01*
X187120429Y-135991590D02*
X194538590Y-135991590D01*
X194538590Y-135991590D02*
X195707000Y-137160000D01*
X195707000Y-137160000D02*
X203200000Y-137160000D01*
X203200000Y-137160000D02*
X203555600Y-137160000D01*
X118618000Y-134239000D02*
X118973600Y-134239000D01*
X178943000Y-137160000D02*
X180340000Y-137160000D01*
X168148000Y-137160000D02*
X178943000Y-137160000D01*
X166979590Y-135991590D02*
X168148000Y-137160000D01*
X160045410Y-135991590D02*
X166979590Y-135991590D01*
X158877000Y-137160000D02*
X160045410Y-135991590D01*
X157480000Y-137160000D02*
X158877000Y-137160000D01*
X177800000Y-76200000D02*
X177800000Y-76555600D01*
X209129078Y-80264054D02*
X211288132Y-78105000D01*
X177800000Y-76555600D02*
X181508454Y-80264054D01*
X211288132Y-78105000D02*
X214043686Y-78105000D01*
X181508454Y-80264054D02*
X209129078Y-80264054D01*
X214043686Y-78105000D02*
X215265000Y-78105000D01*
X124206000Y-129159000D02*
X124561600Y-129159000D01*
X124561600Y-129159000D02*
X128473190Y-133070590D01*
X128473190Y-133070590D02*
X138785590Y-133070590D01*
X138785590Y-133070590D02*
X140335000Y-134620000D01*
X140335000Y-134620000D02*
X140843000Y-134620000D01*
X140843000Y-134620000D02*
X142240000Y-134620000D01*
X142240000Y-134620000D02*
X149098000Y-134620000D01*
X158319571Y-135788410D02*
X159487981Y-134620000D01*
X149098000Y-134620000D02*
X150266410Y-135788410D01*
X163703000Y-134620000D02*
X165100000Y-134620000D01*
X150266410Y-135788410D02*
X158319571Y-135788410D01*
X159487981Y-134620000D02*
X163703000Y-134620000D01*
X187960000Y-134620000D02*
X194437000Y-134620000D01*
X194437000Y-134620000D02*
X195707000Y-135890000D01*
X195707000Y-135890000D02*
X205111383Y-135890000D01*
X205111383Y-135890000D02*
X205740000Y-135890000D01*
X142240000Y-134620000D02*
X141884400Y-134620000D01*
X186910004Y-135483581D02*
X187096419Y-135483581D01*
X186401995Y-135991590D02*
X186910004Y-135483581D01*
X165100000Y-134620000D02*
X172720000Y-134620000D01*
X187096419Y-135483581D02*
X187960000Y-134620000D01*
X172720000Y-134620000D02*
X174091590Y-135991590D01*
X174091590Y-135991590D02*
X186401995Y-135991590D01*
X175260000Y-76200000D02*
X175260000Y-76555600D01*
X179476464Y-80772064D02*
X209339502Y-80772064D01*
X175260000Y-76555600D02*
X179476464Y-80772064D01*
X210711167Y-79400399D02*
X216509601Y-79400399D01*
X209339502Y-80772064D02*
X210711167Y-79400399D01*
X216509601Y-79400399D02*
X216941401Y-78968599D01*
X216941401Y-78968599D02*
X217805000Y-78105000D01*
X124206000Y-121539000D02*
X127381000Y-121539000D01*
X127381000Y-121539000D02*
X128752590Y-122910590D01*
X128752590Y-122910590D02*
X137261590Y-122910590D01*
X137858501Y-123507501D02*
X138303000Y-123952000D01*
X137261590Y-122910590D02*
X137858501Y-123507501D01*
X142240000Y-132080000D02*
X143637000Y-132080000D01*
X143637000Y-132080000D02*
X143637009Y-132080009D01*
X149225009Y-132080009D02*
X150393410Y-133248410D01*
X143637009Y-132080009D02*
X149225009Y-132080009D01*
X150393410Y-133248410D02*
X163575990Y-133248410D01*
X163575990Y-133248410D02*
X164744400Y-132080000D01*
X164744400Y-132080000D02*
X165100000Y-132080000D01*
X187960000Y-132080000D02*
X194691000Y-132080000D01*
X206127383Y-133350000D02*
X206756000Y-133350000D01*
X194691000Y-132080000D02*
X195961000Y-133350000D01*
X195961000Y-133350000D02*
X206127383Y-133350000D01*
X142240000Y-132080000D02*
X141884400Y-132080000D01*
X187604400Y-132080000D02*
X187960000Y-132080000D01*
X172466000Y-132080000D02*
X173634410Y-133248410D01*
X165100000Y-132080000D02*
X172466000Y-132080000D01*
X186435990Y-133248410D02*
X187604400Y-132080000D01*
X173634410Y-133248410D02*
X186435990Y-133248410D01*
X177444476Y-81280076D02*
X209549924Y-81280076D01*
X172720000Y-76200000D02*
X172720000Y-76555600D01*
X172720000Y-76555600D02*
X177444476Y-81280076D01*
X209549924Y-81280076D02*
X210185000Y-80645000D01*
X210185000Y-80645000D02*
X215265000Y-80645000D01*
X124206000Y-118999000D02*
X127254000Y-118999000D01*
X127254000Y-118999000D02*
X128524000Y-120269000D01*
X128524000Y-120269000D02*
X136814176Y-120269000D01*
X136814176Y-120269000D02*
X139636511Y-123091335D01*
X139636511Y-123091335D02*
X139636511Y-126428511D01*
X139636511Y-126428511D02*
X139763501Y-126555501D01*
X139763501Y-126555501D02*
X140208000Y-127000000D01*
X187960000Y-129540000D02*
X194691000Y-129540000D01*
X194691000Y-129540000D02*
X195961000Y-130810000D01*
X195961000Y-130810000D02*
X208921383Y-130810000D01*
X208921383Y-130810000D02*
X209550000Y-130810000D01*
X164744400Y-129540000D02*
X165100000Y-129540000D01*
X142240000Y-129540000D02*
X141884400Y-129540000D01*
X155472019Y-129540000D02*
X156640429Y-130708410D01*
X142240000Y-129540000D02*
X155472019Y-129540000D01*
X163575990Y-130708410D02*
X164744400Y-129540000D01*
X156640429Y-130708410D02*
X163575990Y-130708410D01*
X187604400Y-129540000D02*
X187960000Y-129540000D01*
X173253410Y-130708410D02*
X186435990Y-130708410D01*
X186435990Y-130708410D02*
X187604400Y-129540000D01*
X165100000Y-129540000D02*
X172085000Y-129540000D01*
X172085000Y-129540000D02*
X173253410Y-130708410D01*
X141989728Y-81661030D02*
X147040630Y-81661030D01*
X141989688Y-81660990D02*
X141989728Y-81661030D01*
X147040630Y-81661030D02*
X148844000Y-83464400D01*
X129672465Y-81470499D02*
X129862956Y-81660990D01*
X123444000Y-79248000D02*
X123444000Y-79603600D01*
X125310899Y-81470499D02*
X129672465Y-81470499D01*
X129862956Y-81660990D02*
X141989688Y-81660990D01*
X123444000Y-79603600D02*
X125310899Y-81470499D01*
X148844000Y-83464400D02*
X148844000Y-83820000D01*
X201192019Y-116840000D02*
X189357000Y-116840000D01*
X217805000Y-95885000D02*
X216509601Y-97180399D01*
X213715601Y-97180399D02*
X211582010Y-99313990D01*
X211582010Y-110482503D02*
X204056103Y-118008410D01*
X204056103Y-118008410D02*
X202360429Y-118008410D01*
X211582010Y-99313990D02*
X211582010Y-110482503D01*
X202360429Y-118008410D02*
X201192019Y-116840000D01*
X189357000Y-116840000D02*
X187960000Y-116840000D01*
X216509601Y-97180399D02*
X213715601Y-97180399D01*
X164744400Y-116840000D02*
X165100000Y-116840000D01*
X163575990Y-118008410D02*
X164744400Y-116840000D01*
X149758410Y-118008410D02*
X163575990Y-118008410D01*
X148590000Y-116840000D02*
X149758410Y-118008410D01*
X142240000Y-116840000D02*
X148590000Y-116840000D01*
X187604400Y-116840000D02*
X187960000Y-116840000D01*
X186435990Y-118008410D02*
X187604400Y-116840000D01*
X178562000Y-117475000D02*
X179095410Y-118008410D01*
X179095410Y-118008410D02*
X186435990Y-118008410D01*
X165735000Y-117475000D02*
X178562000Y-117475000D01*
X165100000Y-116840000D02*
X165735000Y-117475000D01*
X165100000Y-119380000D02*
X170561000Y-119380000D01*
X170561000Y-119380000D02*
X171729410Y-120548410D01*
X171729410Y-120548410D02*
X181203590Y-120548410D01*
X181203590Y-120548410D02*
X181863990Y-119888010D01*
X181863990Y-119888010D02*
X187451990Y-119888010D01*
X187451990Y-119888010D02*
X187960000Y-119380000D01*
X142240000Y-119380000D02*
X148546434Y-119380000D01*
X148546434Y-119380000D02*
X149714844Y-120548410D01*
X149714844Y-120548410D02*
X163575990Y-120548410D01*
X163575990Y-120548410D02*
X164744400Y-119380000D01*
X164744400Y-119380000D02*
X165100000Y-119380000D01*
X214043686Y-98425000D02*
X212090021Y-100378665D01*
X212090021Y-112311291D02*
X212090021Y-113616722D01*
X212090020Y-100571996D02*
X212090017Y-112124245D01*
X212090021Y-113616722D02*
X204955152Y-120751590D01*
X212090017Y-112124245D02*
X212090021Y-112311291D01*
X189357000Y-119380000D02*
X187960000Y-119380000D01*
X198544566Y-119380000D02*
X189357000Y-119380000D01*
X204955152Y-120751590D02*
X199916156Y-120751590D01*
X212090021Y-100378665D02*
X212090020Y-100571996D01*
X215265000Y-98425000D02*
X214043686Y-98425000D01*
X199916156Y-120751590D02*
X198544566Y-119380000D01*
X165100000Y-121920000D02*
X170434000Y-121920000D01*
X170434000Y-121920000D02*
X171704000Y-123190000D01*
X171704000Y-123190000D02*
X185547000Y-123190000D01*
X185547000Y-123190000D02*
X186817000Y-121920000D01*
X186817000Y-121920000D02*
X187960000Y-121920000D01*
X164744400Y-121920000D02*
X165100000Y-121920000D01*
X142595600Y-121920000D02*
X143764010Y-123088410D01*
X142240000Y-121920000D02*
X142595600Y-121920000D01*
X143764010Y-123088410D02*
X163575990Y-123088410D01*
X163575990Y-123088410D02*
X164744400Y-121920000D01*
X189357000Y-121920000D02*
X187960000Y-121920000D01*
X216509601Y-99720399D02*
X213588601Y-99720399D01*
X212598027Y-115867539D02*
X205377156Y-123088410D01*
X212598027Y-100710973D02*
X212598027Y-115867539D01*
X190525410Y-123088410D02*
X189357000Y-121920000D01*
X213588601Y-99720399D02*
X212598027Y-100710973D01*
X217805000Y-98425000D02*
X216509601Y-99720399D01*
X205377156Y-123088410D02*
X190525410Y-123088410D01*
X162534590Y-125628410D02*
X163703000Y-124460000D01*
X142240000Y-124460000D02*
X148673434Y-124460000D01*
X148673434Y-124460000D02*
X149841844Y-125628410D01*
X149841844Y-125628410D02*
X162534590Y-125628410D01*
X163703000Y-124460000D02*
X165100000Y-124460000D01*
X202360429Y-125628410D02*
X201192019Y-124460000D01*
X213106037Y-116561944D02*
X204039571Y-125628410D01*
X204039571Y-125628410D02*
X202360429Y-125628410D01*
X215265000Y-100965000D02*
X214043686Y-100965000D01*
X201192019Y-124460000D02*
X189357000Y-124460000D01*
X189357000Y-124460000D02*
X187960000Y-124460000D01*
X214043686Y-100965000D02*
X213106038Y-101902648D01*
X213106038Y-101902648D02*
X213106037Y-102913529D01*
X213106037Y-102913529D02*
X213106037Y-116561944D01*
X185394590Y-125628410D02*
X186563000Y-124460000D01*
X171983410Y-125628410D02*
X185394590Y-125628410D01*
X186563000Y-124460000D02*
X187960000Y-124460000D01*
X170815000Y-124460000D02*
X171983410Y-125628410D01*
X165100000Y-124460000D02*
X170815000Y-124460000D01*
X217805000Y-100965000D02*
X216509601Y-102260399D01*
X216509601Y-102260399D02*
X214477601Y-102260399D01*
X213614047Y-116839953D02*
X204724000Y-125730000D01*
X204724000Y-125730000D02*
X204724000Y-125984000D01*
X214477601Y-102260399D02*
X213614047Y-103123953D01*
X213614047Y-103123953D02*
X213614047Y-116839953D01*
X194818000Y-127000000D02*
X189357000Y-127000000D01*
X204724000Y-125984000D02*
X204724010Y-125984010D01*
X204724010Y-125984010D02*
X204724010Y-127483971D01*
X204724010Y-127483971D02*
X204039571Y-128168410D01*
X204039571Y-128168410D02*
X202360429Y-128168410D01*
X202360429Y-128168410D02*
X202323010Y-128130991D01*
X202285590Y-128168410D02*
X195986410Y-128168410D01*
X195986410Y-128168410D02*
X194818000Y-127000000D01*
X202323010Y-128130991D02*
X202285590Y-128168410D01*
X189357000Y-127000000D02*
X187960000Y-127000000D01*
X164744400Y-127000000D02*
X165100000Y-127000000D01*
X163575990Y-128168410D02*
X164744400Y-127000000D01*
X144805410Y-128168410D02*
X163575990Y-128168410D01*
X143637000Y-127000000D02*
X144805410Y-128168410D01*
X142240000Y-127000000D02*
X143637000Y-127000000D01*
X186435990Y-128168410D02*
X187604400Y-127000000D01*
X172364410Y-128168410D02*
X186435990Y-128168410D01*
X171196000Y-127000000D02*
X172364410Y-128168410D01*
X187604400Y-127000000D02*
X187960000Y-127000000D01*
X165100000Y-127000000D02*
X171196000Y-127000000D01*
X165100000Y-76555600D02*
X165100000Y-76200000D01*
X150622000Y-66802000D02*
X150622000Y-69596000D01*
X133604000Y-79248000D02*
X133604000Y-78892400D01*
X139489558Y-77723992D02*
X142410576Y-80645010D01*
X142410576Y-80645010D02*
X148395425Y-80645010D01*
X134772408Y-77723992D02*
X139489558Y-77723992D01*
X152713415Y-84963000D02*
X212816558Y-84963000D01*
X133604000Y-78892400D02*
X134772408Y-77723992D01*
X212816558Y-84963000D02*
X213263785Y-85410227D01*
X148395425Y-80645010D02*
X152713415Y-84963000D01*
X213263785Y-85410227D02*
X213708284Y-85854726D01*
X213239383Y-84455000D02*
X213868000Y-84455000D01*
X148478849Y-80010000D02*
X152796849Y-84328000D01*
X213112383Y-84328000D02*
X213239383Y-84455000D01*
X142494000Y-80010000D02*
X148478849Y-80010000D01*
X139699982Y-77215982D02*
X142494000Y-80010000D01*
X132740418Y-77215982D02*
X139699982Y-77215982D01*
X131064000Y-78892400D02*
X132740418Y-77215982D01*
X131064000Y-79248000D02*
X131064000Y-78892400D01*
X152796849Y-84328000D02*
X213112383Y-84328000D01*
X210693140Y-85597932D02*
X210883728Y-85788520D01*
X152629913Y-85597932D02*
X210693140Y-85597932D01*
X148185001Y-81153020D02*
X152629913Y-85597932D01*
X210883728Y-85788520D02*
X211512345Y-85788520D01*
X142200152Y-81153020D02*
X148185001Y-81153020D01*
X142200112Y-81152980D02*
X142200152Y-81153020D01*
X130073380Y-81152980D02*
X142200112Y-81152980D01*
X128524000Y-79603600D02*
X130073380Y-81152980D01*
X128524000Y-79248000D02*
X128524000Y-79603600D01*
X147964858Y-88773020D02*
X209557088Y-88773020D01*
X209557088Y-88773020D02*
X209929352Y-89145284D01*
X130009890Y-85661490D02*
X132270490Y-85661490D01*
X135064474Y-88455474D02*
X147647312Y-88455474D01*
X209929352Y-89145284D02*
X210557969Y-89145284D01*
X147647312Y-88455474D02*
X147964858Y-88773020D01*
X128524000Y-84175600D02*
X130009890Y-85661490D01*
X128524000Y-83820000D02*
X128524000Y-84175600D01*
X132270490Y-85661490D02*
X135064474Y-88455474D01*
X142240000Y-114300000D02*
X148590000Y-114300000D01*
X148590000Y-114300000D02*
X149860000Y-115570000D01*
X149860000Y-115570000D02*
X162433000Y-115570000D01*
X162433000Y-115570000D02*
X163703000Y-114300000D01*
X163703000Y-114300000D02*
X165100000Y-114300000D01*
X146304000Y-91084400D02*
X144691101Y-89471501D01*
X144691101Y-89471501D02*
X130238499Y-89471501D01*
X130238499Y-89471501D02*
X129794000Y-89916000D01*
X146304000Y-91440000D02*
X146304000Y-91084400D01*
X211074000Y-98854686D02*
X214043686Y-95885000D01*
X202462019Y-115570000D02*
X204255815Y-115570000D01*
X187960000Y-114300000D02*
X201192019Y-114300000D01*
X204255815Y-115570000D02*
X211074000Y-108751815D01*
X214043686Y-95885000D02*
X215265000Y-95885000D01*
X211074000Y-108751815D02*
X211074000Y-98854686D01*
X201192019Y-114300000D02*
X202462019Y-115570000D01*
X187604400Y-114300000D02*
X187960000Y-114300000D01*
X186334400Y-115570000D02*
X187604400Y-114300000D01*
X166725600Y-115570000D02*
X186334400Y-115570000D01*
X165455600Y-114300000D02*
X166725600Y-115570000D01*
X165100000Y-114300000D02*
X165455600Y-114300000D01*
X142240000Y-111760000D02*
X148844000Y-111760000D01*
X148844000Y-111760000D02*
X150114000Y-113030000D01*
X150114000Y-113030000D02*
X158217981Y-113030000D01*
X158217981Y-113030000D02*
X159487981Y-111760000D01*
X159487981Y-111760000D02*
X163703000Y-111760000D01*
X163703000Y-111760000D02*
X165100000Y-111760000D01*
X165100000Y-111760000D02*
X166497000Y-111760000D01*
X166497000Y-111760000D02*
X167665410Y-112928410D01*
X167665410Y-112928410D02*
X181330590Y-112928410D01*
X181330590Y-112928410D02*
X182499000Y-111760000D01*
X182499000Y-111760000D02*
X187960000Y-111760000D01*
X142240000Y-109220000D02*
X143637000Y-109220000D01*
X143637000Y-109220000D02*
X144272000Y-109855000D01*
X144272000Y-109855000D02*
X149098000Y-109855000D01*
X149098000Y-109855000D02*
X149631410Y-110388410D01*
X163703000Y-109220000D02*
X165100000Y-109220000D01*
X149631410Y-110388410D02*
X161772590Y-110388410D01*
X161772590Y-110388410D02*
X162941000Y-109220000D01*
X162941000Y-109220000D02*
X163703000Y-109220000D01*
X165100000Y-109220000D02*
X165608010Y-109728010D01*
X186563000Y-109220000D02*
X187960000Y-109220000D01*
X165608010Y-109728010D02*
X178840029Y-109728010D01*
X178840029Y-109728010D02*
X179500429Y-110388410D01*
X179500429Y-110388410D02*
X181330590Y-110388410D01*
X181330590Y-110388410D02*
X182499000Y-109220000D01*
X182499000Y-109220000D02*
X186563000Y-109220000D01*
X157480000Y-111760000D02*
X158496000Y-111760000D01*
X158496000Y-111760000D02*
X159258000Y-110998000D01*
X163854019Y-110998000D02*
X164260429Y-110591590D01*
X159258000Y-110998000D02*
X163854019Y-110998000D01*
X164260429Y-110591590D02*
X178985175Y-110591590D01*
X178985175Y-110591590D02*
X180153585Y-111760000D01*
X180153585Y-111760000D02*
X180340000Y-111760000D01*
X180340000Y-111760000D02*
X181229000Y-111760000D01*
X200533000Y-110490000D02*
X201803000Y-111760000D01*
X181229000Y-111760000D02*
X182499000Y-110490000D01*
X182499000Y-110490000D02*
X200533000Y-110490000D01*
X201803000Y-111760000D02*
X203200000Y-111760000D01*
X150241000Y-111760000D02*
X148971000Y-110490000D01*
X157480000Y-111760000D02*
X150241000Y-111760000D01*
X148971000Y-110490000D02*
X141471617Y-110490000D01*
X141471617Y-110490000D02*
X140843000Y-110490000D01*
X157480000Y-114300000D02*
X158115000Y-114300000D01*
X158115000Y-114300000D02*
X159283410Y-113131590D01*
X159283410Y-113131590D02*
X165939571Y-113131590D01*
X165939571Y-113131590D02*
X167107981Y-114300000D01*
X167107981Y-114300000D02*
X178943000Y-114300000D01*
X178943000Y-114300000D02*
X180340000Y-114300000D01*
X180340000Y-114300000D02*
X181356000Y-114300000D01*
X181356000Y-114300000D02*
X182524410Y-113131590D01*
X182524410Y-113131590D02*
X201675990Y-113131590D01*
X202844400Y-114300000D02*
X203200000Y-114300000D01*
X201675990Y-113131590D02*
X202844400Y-114300000D01*
X156083000Y-114300000D02*
X157480000Y-114300000D01*
X149860000Y-114300000D02*
X156083000Y-114300000D01*
X148590000Y-113030000D02*
X149860000Y-114300000D01*
X140843000Y-113030000D02*
X148590000Y-113030000D01*
X180340000Y-121920000D02*
X180975000Y-121920000D01*
X180975000Y-121920000D02*
X182143410Y-120751590D01*
X182143410Y-120751590D02*
X188799571Y-120751590D01*
X188799571Y-120751590D02*
X188843127Y-120708034D01*
X188843127Y-120708034D02*
X189039123Y-120904030D01*
X189039123Y-120904030D02*
X199350162Y-120904030D01*
X199350162Y-120904030D02*
X200366132Y-121920000D01*
X200366132Y-121920000D02*
X203200000Y-121920000D01*
X140525499Y-119824499D02*
X140081000Y-119380000D01*
X141452590Y-120751590D02*
X140525499Y-119824499D01*
X148437590Y-120751590D02*
X141452590Y-120751590D01*
X149606000Y-121920000D02*
X148437590Y-120751590D01*
X157480000Y-121920000D02*
X149606000Y-121920000D01*
X178943000Y-121920000D02*
X180340000Y-121920000D01*
X171704000Y-121920000D02*
X178943000Y-121920000D01*
X170535590Y-120751590D02*
X171704000Y-121920000D01*
X164260429Y-120751590D02*
X170535590Y-120751590D01*
X163092019Y-121920000D02*
X164260429Y-120751590D01*
X157480000Y-121920000D02*
X163092019Y-121920000D01*
X132848383Y-93345000D02*
X133477000Y-93345000D01*
X132613400Y-93345000D02*
X132848383Y-93345000D01*
X131064000Y-91440000D02*
X131064000Y-91795600D01*
X131064000Y-91795600D02*
X132613400Y-93345000D01*
X201574400Y-115570000D02*
X202844400Y-116840000D01*
X187222019Y-115570000D02*
X201574400Y-115570000D01*
X202844400Y-116840000D02*
X203200000Y-116840000D01*
X185952019Y-116840000D02*
X187222019Y-115570000D01*
X180340000Y-116840000D02*
X185952019Y-116840000D01*
X139763499Y-115633499D02*
X138747499Y-114617499D01*
X138747499Y-114617499D02*
X138303000Y-114173000D01*
X148526499Y-115633499D02*
X139763499Y-115633499D01*
X149733000Y-116840000D02*
X148526499Y-115633499D01*
X157480000Y-116840000D02*
X149733000Y-116840000D01*
X178943000Y-116840000D02*
X180340000Y-116840000D01*
X167107981Y-116840000D02*
X178943000Y-116840000D01*
X164260429Y-115671590D02*
X165939571Y-115671590D01*
X163092019Y-116840000D02*
X164260429Y-115671590D01*
X165939571Y-115671590D02*
X167107981Y-116840000D01*
X157480000Y-116840000D02*
X163092019Y-116840000D01*
X165100000Y-106680000D02*
X165861990Y-107441990D01*
X165861990Y-107441990D02*
X177883424Y-107441990D01*
X186563000Y-106680000D02*
X187960000Y-106680000D01*
X177883424Y-107441990D02*
X178289844Y-107848410D01*
X181203590Y-107848410D02*
X182372000Y-106680000D01*
X178289844Y-107848410D02*
X181203590Y-107848410D01*
X182372000Y-106680000D02*
X186563000Y-106680000D01*
X142240000Y-106680000D02*
X154305000Y-106680000D01*
X154305000Y-106680000D02*
X155575000Y-105410000D01*
X155575000Y-105410000D02*
X161671000Y-105410000D01*
X161671000Y-105410000D02*
X162941000Y-106680000D01*
X162941000Y-106680000D02*
X163703000Y-106680000D01*
X163703000Y-106680000D02*
X165100000Y-106680000D01*
X142240000Y-106680000D02*
X132397480Y-106680000D01*
X180340000Y-109220000D02*
X181356000Y-109220000D01*
X181356000Y-109220000D02*
X182524410Y-108051590D01*
X182524410Y-108051590D02*
X200634590Y-108051590D01*
X200634590Y-108051590D02*
X201803000Y-109220000D01*
X201803000Y-109220000D02*
X203200000Y-109220000D01*
X180340000Y-109220000D02*
X178943000Y-109220000D01*
X132461000Y-107950000D02*
X131635499Y-107124499D01*
X131635499Y-107124499D02*
X131191000Y-106680000D01*
X178943000Y-109220000D02*
X177673000Y-107950000D01*
X177673000Y-107950000D02*
X132461000Y-107950000D01*
X123444000Y-91795600D02*
X129565400Y-97917000D01*
X129565400Y-97917000D02*
X158521400Y-97917000D01*
X123444000Y-91440000D02*
X123444000Y-91795600D01*
X158521400Y-97917000D02*
X164744400Y-104140000D01*
X164744400Y-104140000D02*
X165100000Y-104140000D01*
X186563000Y-104140000D02*
X187960000Y-104140000D01*
X182347981Y-104140000D02*
X186563000Y-104140000D01*
X167665410Y-105308410D02*
X181179571Y-105308410D01*
X166497000Y-104140000D02*
X167665410Y-105308410D01*
X165100000Y-104140000D02*
X166497000Y-104140000D01*
X181179571Y-105308410D02*
X182347981Y-104140000D01*
X187960000Y-104140000D02*
X187960000Y-95885000D01*
X120904000Y-91084400D02*
X123024917Y-88963483D01*
X148071944Y-89598540D02*
X188601383Y-89598540D01*
X147436887Y-88963483D02*
X148071944Y-89598540D01*
X120904000Y-91440000D02*
X120904000Y-91084400D01*
X188601383Y-89598540D02*
X189230000Y-89598540D01*
X123024917Y-88963483D02*
X147436887Y-88963483D01*
X97790000Y-83820000D02*
X100330000Y-83820000D01*
X166370000Y-60960000D02*
X166370000Y-59563000D01*
X166370000Y-59563000D02*
X168529000Y-57404000D01*
X168529000Y-57404000D02*
X200406000Y-57404000D01*
X200406000Y-57404000D02*
X201950321Y-55859679D01*
X201950321Y-55859679D02*
X203200000Y-54610000D01*
X138684000Y-84175600D02*
X140614342Y-86105942D01*
X202088690Y-86105942D02*
X202406269Y-86423521D01*
X140614342Y-86105942D02*
X202088690Y-86105942D01*
X202406269Y-86423521D02*
X203034886Y-86423521D01*
X138684000Y-83820000D02*
X138684000Y-84175600D01*
X203200000Y-124460000D02*
X202844400Y-124460000D01*
X136144000Y-83820000D02*
X136144000Y-84175600D01*
X136144000Y-84175600D02*
X138899843Y-86931443D01*
X138899843Y-86931443D02*
X148549566Y-86931443D01*
X148549566Y-86931443D02*
X149178183Y-86931443D01*
X170916590Y-123291590D02*
X164152976Y-123291590D01*
X172085000Y-124460000D02*
X170916590Y-123291590D01*
X163365566Y-124079000D02*
X161163000Y-124079000D01*
X164152976Y-123291590D02*
X163365566Y-124079000D01*
X180340000Y-124460000D02*
X172085000Y-124460000D01*
X124206000Y-126619000D02*
X122809000Y-126619000D01*
X121640590Y-127787410D02*
X115087410Y-127787410D01*
X122809000Y-126619000D02*
X121640590Y-127787410D01*
X115087410Y-127787410D02*
X113919000Y-126619000D01*
X113919000Y-126619000D02*
X110998000Y-126619000D01*
X128333499Y-107505501D02*
X127889000Y-107950000D01*
X142240000Y-104140000D02*
X131699000Y-104140000D01*
X131699000Y-104140000D02*
X128333499Y-107505501D01*
X142240000Y-104140000D02*
X141884400Y-104140000D01*
X104394000Y-118999000D02*
X98679000Y-118999000D01*
X124206000Y-124079000D02*
X127508000Y-124079000D01*
X127508000Y-124079000D02*
X128778000Y-125349000D01*
X137674383Y-125349000D02*
X138303000Y-125349000D01*
X128778000Y-125349000D02*
X137674383Y-125349000D01*
X114173000Y-121539000D02*
X115544590Y-122910590D01*
X110998000Y-121539000D02*
X114173000Y-121539000D01*
X115544590Y-122910590D02*
X121005590Y-122910590D01*
X121005590Y-122910590D02*
X122174000Y-124079000D01*
X122174000Y-124079000D02*
X124206000Y-124079000D01*
X145488278Y-109093000D02*
X145424758Y-109029480D01*
X157353000Y-109093000D02*
X145488278Y-109093000D01*
X157480000Y-109220000D02*
X157353000Y-109093000D01*
X98679000Y-116459000D02*
X104394000Y-116459000D01*
X127381000Y-82169000D02*
X127254000Y-82296000D01*
X143764000Y-83820000D02*
X143231981Y-83820000D01*
X143231981Y-83820000D02*
X141580981Y-82169000D01*
X141580981Y-82169000D02*
X127381000Y-82169000D01*
X217805000Y-111125000D02*
X216509601Y-112420399D01*
X216509601Y-112420399D02*
X216509601Y-116802409D01*
X216509601Y-116802409D02*
X215811611Y-117500399D01*
X215811611Y-117500399D02*
X213715601Y-117500399D01*
X213715601Y-117500399D02*
X210693000Y-120523000D01*
X210693000Y-133545632D02*
X210375501Y-133863131D01*
X210693000Y-120523000D02*
X210693000Y-133545632D01*
X96621599Y-77723999D02*
X97790000Y-78892400D01*
X97790000Y-78892400D02*
X97790000Y-79248000D01*
X91694001Y-77723999D02*
X96621599Y-77723999D01*
X90170000Y-79248000D02*
X91694001Y-77723999D01*
X97790000Y-79248000D02*
X97790000Y-80645000D01*
X97790000Y-80645000D02*
X96520000Y-81915000D01*
X96520000Y-81915000D02*
X96520000Y-84557981D01*
X205910222Y-138328410D02*
X210375501Y-133863131D01*
X96520000Y-84557981D02*
X94081599Y-86996382D01*
X94081599Y-86996382D02*
X94081599Y-132181599D01*
X94081599Y-132181599D02*
X100228410Y-138328410D01*
X100228410Y-138328410D02*
X205910222Y-138328410D01*
X210375501Y-133863131D02*
X210375501Y-133921499D01*
X97790000Y-79248000D02*
X97790000Y-79603600D01*
X97790000Y-79603600D02*
X98958410Y-80772010D01*
X98958410Y-80772010D02*
X104647990Y-80772010D01*
X104647990Y-80772010D02*
X105473501Y-79946499D01*
X105473501Y-79946499D02*
X106172000Y-79248000D01*
X89367360Y-80050640D02*
X90170000Y-79248000D01*
X72349360Y-80050640D02*
X89367360Y-80050640D01*
X152400000Y-140970000D02*
X153238199Y-140131801D01*
X153238199Y-140131801D02*
X156641801Y-140131801D01*
X156641801Y-140131801D02*
X157480000Y-140970000D01*
X157099000Y-140589000D02*
X157480000Y-140970000D01*
X198120000Y-140970000D02*
X198958199Y-140131801D01*
X198958199Y-140131801D02*
X202361801Y-140131801D01*
X202361801Y-140131801D02*
X203200000Y-140970000D01*
X180340000Y-140970000D02*
X179070000Y-139700000D01*
X179070000Y-139700000D02*
X176530000Y-139700000D01*
X176530000Y-139700000D02*
X175958499Y-140271501D01*
X175958499Y-140271501D02*
X175260000Y-140970000D01*
X180340000Y-140970000D02*
X180086000Y-140716000D01*
X67310000Y-111760000D02*
X79629000Y-124079000D01*
X79629000Y-124079000D02*
X91313000Y-124079000D01*
X67310000Y-116840000D02*
X77089000Y-126619000D01*
X77089000Y-126619000D02*
X91313000Y-126619000D01*
X67310000Y-121920000D02*
X74549000Y-129159000D01*
X74549000Y-129159000D02*
X91440000Y-129159000D01*
X67310000Y-127000000D02*
X72009000Y-131699000D01*
X72009000Y-131699000D02*
X91440000Y-131699000D01*
X67310000Y-132080000D02*
X69469000Y-134239000D01*
X69469000Y-134239000D02*
X91567000Y-134239000D01*
X91059000Y-116459000D02*
X87249000Y-116459000D01*
X87249000Y-116459000D02*
X67310000Y-96520000D01*
X67310000Y-101600000D02*
X84709000Y-118999000D01*
X84709000Y-118999000D02*
X91059000Y-118999000D01*
X67310000Y-106680000D02*
X82169000Y-121539000D01*
X82169000Y-121539000D02*
X91186000Y-121539000D01*
X124206000Y-134239000D02*
X121793000Y-134239000D01*
X121793000Y-134239000D02*
X120421410Y-132867410D01*
X120421410Y-132867410D02*
X114960410Y-132867410D01*
X114960410Y-132867410D02*
X113792000Y-131699000D01*
X113792000Y-131699000D02*
X110998000Y-131699000D01*
X104394000Y-129159000D02*
X105664000Y-129159000D01*
X107035590Y-130530590D02*
X114020590Y-130530590D01*
X105664000Y-129159000D02*
X107035590Y-130530590D01*
X114020590Y-130530590D02*
X115189000Y-131699000D01*
X115189000Y-131699000D02*
X118618000Y-131699000D01*
X118618000Y-131699000D02*
X119507000Y-131699000D01*
X119507000Y-131699000D02*
X123215410Y-127990590D01*
X127660410Y-127990590D02*
X129032000Y-126619000D01*
X123215410Y-127990590D02*
X127660410Y-127990590D01*
X129032000Y-126619000D02*
X131826000Y-126619000D01*
X104394000Y-131699000D02*
X104241600Y-131699000D01*
X104241600Y-131699000D02*
X102996990Y-130454390D01*
X102996990Y-130454390D02*
X102996990Y-126103466D01*
X102996990Y-126103466D02*
X103726066Y-125374390D01*
X103726066Y-125374390D02*
X114198390Y-125374390D01*
X115443000Y-126619000D02*
X118618000Y-126619000D01*
X114198390Y-125374390D02*
X115443000Y-126619000D01*
X104394000Y-134239000D02*
X104241600Y-134239000D01*
X104241600Y-134239000D02*
X102488980Y-132486380D01*
X102488980Y-132486380D02*
X102488980Y-121480696D01*
X102488980Y-121480696D02*
X103675286Y-120294390D01*
X115697000Y-121539000D02*
X118618000Y-121539000D01*
X103675286Y-120294390D02*
X114452390Y-120294390D01*
X114452390Y-120294390D02*
X115697000Y-121539000D01*
X131826000Y-116459000D02*
X129032000Y-116459000D01*
X129032000Y-116459000D02*
X127660410Y-117830590D01*
X127660410Y-117830590D02*
X123366429Y-117830590D01*
X123366429Y-117830590D02*
X119658019Y-121539000D01*
X119658019Y-121539000D02*
X118618000Y-121539000D01*
G36*
X221565000Y-145365000D02*
X219811601Y-145365000D01*
X219811601Y-104800399D01*
X219811601Y-95287591D01*
X219753597Y-94995987D01*
X219753597Y-94995986D01*
X219687435Y-94896967D01*
X219588417Y-94748776D01*
X219329000Y-94489359D01*
X219329000Y-49403000D01*
X65151000Y-49403000D01*
X65151000Y-142367000D01*
X157002783Y-142367000D01*
X157185677Y-142442944D01*
X157771752Y-142443455D01*
X157956788Y-142367000D01*
X159542783Y-142367000D01*
X159725677Y-142442944D01*
X160311752Y-142443455D01*
X160496788Y-142367000D01*
X179862783Y-142367000D01*
X180045677Y-142442944D01*
X180631752Y-142443455D01*
X180816788Y-142367000D01*
X182402783Y-142367000D01*
X182585677Y-142442944D01*
X183171752Y-142443455D01*
X183356788Y-142367000D01*
X202722783Y-142367000D01*
X202905677Y-142442944D01*
X203491752Y-142443455D01*
X203676788Y-142367000D01*
X205262783Y-142367000D01*
X205445677Y-142442944D01*
X206031752Y-142443455D01*
X206216788Y-142367000D01*
X219329000Y-142367000D01*
X219329000Y-122047000D01*
X214503000Y-122047000D01*
X214503000Y-118262399D01*
X215811611Y-118262399D01*
X215811611Y-118262398D01*
X216103215Y-118204395D01*
X216103216Y-118204395D01*
X216350426Y-118039214D01*
X216406640Y-117983000D01*
X219329000Y-117983000D01*
X219329000Y-105598630D01*
X219588416Y-105339215D01*
X219588416Y-105339214D01*
X219753597Y-105092004D01*
X219811600Y-104800399D01*
X219811601Y-104800399D01*
X219811601Y-145365000D01*
X62915000Y-145365000D01*
X62915000Y-46405000D01*
X221565000Y-46405000D01*
X221565000Y-145365000D01*
X221565000Y-145365000D01*
G37*
X221565000Y-145365000D02*
X219811601Y-145365000D01*
X219811601Y-104800399D01*
X219811601Y-95287591D01*
X219753597Y-94995987D01*
X219753597Y-94995986D01*
X219687435Y-94896967D01*
X219588417Y-94748776D01*
X219329000Y-94489359D01*
X219329000Y-49403000D01*
X65151000Y-49403000D01*
X65151000Y-142367000D01*
X157002783Y-142367000D01*
X157185677Y-142442944D01*
X157771752Y-142443455D01*
X157956788Y-142367000D01*
X159542783Y-142367000D01*
X159725677Y-142442944D01*
X160311752Y-142443455D01*
X160496788Y-142367000D01*
X179862783Y-142367000D01*
X180045677Y-142442944D01*
X180631752Y-142443455D01*
X180816788Y-142367000D01*
X182402783Y-142367000D01*
X182585677Y-142442944D01*
X183171752Y-142443455D01*
X183356788Y-142367000D01*
X202722783Y-142367000D01*
X202905677Y-142442944D01*
X203491752Y-142443455D01*
X203676788Y-142367000D01*
X205262783Y-142367000D01*
X205445677Y-142442944D01*
X206031752Y-142443455D01*
X206216788Y-142367000D01*
X219329000Y-142367000D01*
X219329000Y-122047000D01*
X214503000Y-122047000D01*
X214503000Y-118262399D01*
X215811611Y-118262399D01*
X215811611Y-118262398D01*
X216103215Y-118204395D01*
X216103216Y-118204395D01*
X216350426Y-118039214D01*
X216406640Y-117983000D01*
X219329000Y-117983000D01*
X219329000Y-105598630D01*
X219588416Y-105339215D01*
X219588416Y-105339214D01*
X219753597Y-105092004D01*
X219811600Y-104800399D01*
X219811601Y-104800399D01*
X219811601Y-145365000D01*
X62915000Y-145365000D01*
X62915000Y-46405000D01*
X221565000Y-46405000D01*
X221565000Y-145365000D01*
G36*
X206629000Y-72517000D02*
X163932307Y-72517000D01*
X164020977Y-72385640D01*
X164071040Y-72136000D01*
X164071040Y-71143268D01*
X164586587Y-71658816D01*
X164734778Y-71757834D01*
X164833797Y-71823996D01*
X164833798Y-71823996D01*
X165125402Y-71882000D01*
X203705358Y-71882000D01*
X203857714Y-72034622D01*
X204254332Y-72199313D01*
X204683784Y-72199687D01*
X205080689Y-72035689D01*
X205384622Y-71732286D01*
X205549313Y-71335668D01*
X205549687Y-70906216D01*
X205385689Y-70509311D01*
X205094071Y-70217183D01*
X205094071Y-62554117D01*
X205085006Y-62216817D01*
X205085006Y-54236759D01*
X204798686Y-53543809D01*
X204268979Y-53013178D01*
X203576531Y-52725648D01*
X202826759Y-52724994D01*
X202133809Y-53011314D01*
X201603178Y-53541021D01*
X201315648Y-54233469D01*
X201314994Y-54983241D01*
X201441926Y-55290443D01*
X201411509Y-55320860D01*
X201411506Y-55320863D01*
X200090369Y-56642000D01*
X183032400Y-56642000D01*
X183032400Y-53730433D01*
X183032400Y-52949567D01*
X182924126Y-52405238D01*
X182615789Y-51943778D01*
X182154329Y-51635441D01*
X181610000Y-51527167D01*
X181065671Y-51635441D01*
X180604211Y-51943778D01*
X180340000Y-52339198D01*
X180075789Y-51943778D01*
X179614329Y-51635441D01*
X179070000Y-51527167D01*
X178525671Y-51635441D01*
X178064211Y-51943778D01*
X177800000Y-52339198D01*
X177535789Y-51943778D01*
X177074329Y-51635441D01*
X176530000Y-51527167D01*
X175985671Y-51635441D01*
X175524211Y-51943778D01*
X175260000Y-52339198D01*
X174995789Y-51943778D01*
X174534329Y-51635441D01*
X173990000Y-51527167D01*
X173445671Y-51635441D01*
X172984211Y-51943778D01*
X172720246Y-52338829D01*
X172715525Y-52322738D01*
X172365986Y-51888809D01*
X171876996Y-51621673D01*
X171797060Y-51604990D01*
X171577000Y-51727148D01*
X171577000Y-53213000D01*
X171597000Y-53213000D01*
X171597000Y-53467000D01*
X171577000Y-53467000D01*
X171577000Y-54952852D01*
X171797060Y-55075010D01*
X171876996Y-55058327D01*
X172365986Y-54791191D01*
X172715525Y-54357262D01*
X172720246Y-54341170D01*
X172984211Y-54736222D01*
X173445671Y-55044559D01*
X173990000Y-55152833D01*
X174534329Y-55044559D01*
X174995789Y-54736222D01*
X175260000Y-54340801D01*
X175524211Y-54736222D01*
X175985671Y-55044559D01*
X176530000Y-55152833D01*
X177074329Y-55044559D01*
X177535789Y-54736222D01*
X177800000Y-54340801D01*
X178064211Y-54736222D01*
X178525671Y-55044559D01*
X179070000Y-55152833D01*
X179614329Y-55044559D01*
X180075789Y-54736222D01*
X180340000Y-54340801D01*
X180604211Y-54736222D01*
X181065671Y-55044559D01*
X181610000Y-55152833D01*
X182154329Y-55044559D01*
X182615789Y-54736222D01*
X182924126Y-54274762D01*
X183032400Y-53730433D01*
X183032400Y-56642000D01*
X171323000Y-56642000D01*
X171323000Y-54952852D01*
X171323000Y-53467000D01*
X171323000Y-53213000D01*
X171323000Y-51727148D01*
X171102940Y-51604990D01*
X171023004Y-51621673D01*
X170534014Y-51888809D01*
X170184475Y-52322738D01*
X170180000Y-52337989D01*
X170175525Y-52322738D01*
X169825986Y-51888809D01*
X169336996Y-51621673D01*
X169257060Y-51604990D01*
X169037000Y-51727148D01*
X169037000Y-53213000D01*
X170027600Y-53213000D01*
X170332400Y-53213000D01*
X171323000Y-53213000D01*
X171323000Y-53467000D01*
X170332400Y-53467000D01*
X170027600Y-53467000D01*
X169037000Y-53467000D01*
X169037000Y-54952852D01*
X169257060Y-55075010D01*
X169336996Y-55058327D01*
X169825986Y-54791191D01*
X170175525Y-54357262D01*
X170180000Y-54342010D01*
X170184475Y-54357262D01*
X170534014Y-54791191D01*
X171023004Y-55058327D01*
X171102940Y-55075010D01*
X171323000Y-54952852D01*
X171323000Y-56642000D01*
X168529000Y-56642000D01*
X168237395Y-56700004D01*
X167990185Y-56865185D01*
X165831185Y-59024185D01*
X165734048Y-59169560D01*
X165582600Y-59169560D01*
X165340477Y-59216537D01*
X165127673Y-59356327D01*
X164985223Y-59567360D01*
X164935160Y-59817000D01*
X164935160Y-62103000D01*
X164982137Y-62345123D01*
X165121927Y-62557927D01*
X165332960Y-62700377D01*
X165582600Y-62750440D01*
X167157400Y-62750440D01*
X167399523Y-62703463D01*
X167612327Y-62563673D01*
X167754777Y-62352640D01*
X167793063Y-62161724D01*
X167994014Y-62411191D01*
X168483004Y-62678327D01*
X168562940Y-62695010D01*
X168783000Y-62572852D01*
X168783000Y-61087000D01*
X168763000Y-61087000D01*
X168763000Y-60833000D01*
X168783000Y-60833000D01*
X168783000Y-59347148D01*
X168562940Y-59224990D01*
X168483004Y-59241673D01*
X167994014Y-59508809D01*
X167793371Y-59757892D01*
X167757863Y-59574877D01*
X167630158Y-59380471D01*
X168844630Y-58166000D01*
X200406000Y-58166000D01*
X200406000Y-58165999D01*
X200697604Y-58107996D01*
X200697605Y-58107996D01*
X200944815Y-57942815D01*
X202489136Y-56398494D01*
X202489137Y-56398494D01*
X202489139Y-56398490D01*
X202519497Y-56368132D01*
X202823469Y-56494352D01*
X203573241Y-56495006D01*
X204266191Y-56208686D01*
X204796822Y-55678979D01*
X205084352Y-54986531D01*
X205085006Y-54236759D01*
X205085006Y-62216817D01*
X205073928Y-61804616D01*
X204825859Y-61205725D01*
X204533089Y-61076517D01*
X204353483Y-61256122D01*
X204353483Y-60896911D01*
X204224275Y-60604141D01*
X203524117Y-60335929D01*
X202774616Y-60356072D01*
X202175725Y-60604141D01*
X202046517Y-60896911D01*
X203200000Y-62050395D01*
X204353483Y-60896911D01*
X204353483Y-61256122D01*
X203379605Y-62230000D01*
X204533089Y-63383483D01*
X204825859Y-63254275D01*
X205094071Y-62554117D01*
X205094071Y-70217183D01*
X205082286Y-70205378D01*
X204685668Y-70040687D01*
X204353483Y-70040397D01*
X204353483Y-63563089D01*
X203200000Y-62409605D01*
X203020395Y-62589210D01*
X203020395Y-62230000D01*
X201866911Y-61076517D01*
X201574141Y-61205725D01*
X201305929Y-61905883D01*
X201326072Y-62655384D01*
X201574141Y-63254275D01*
X201866911Y-63383483D01*
X203020395Y-62230000D01*
X203020395Y-62589210D01*
X202046517Y-63563089D01*
X202175725Y-63855859D01*
X202875883Y-64124071D01*
X203625384Y-64103928D01*
X204224275Y-63855859D01*
X204353483Y-63563089D01*
X204353483Y-70040397D01*
X204256216Y-70040313D01*
X203859311Y-70204311D01*
X203705353Y-70358000D01*
X189857120Y-70358000D01*
X189857120Y-63479680D01*
X189857120Y-60980320D01*
X189810143Y-60738197D01*
X189670353Y-60525393D01*
X189459320Y-60382943D01*
X189209680Y-60332880D01*
X186710320Y-60332880D01*
X186468197Y-60379857D01*
X186255393Y-60519647D01*
X186112943Y-60730680D01*
X186062880Y-60980320D01*
X186062880Y-63479680D01*
X186109857Y-63721803D01*
X186249647Y-63934607D01*
X186460680Y-64077057D01*
X186710320Y-64127120D01*
X189209680Y-64127120D01*
X189451803Y-64080143D01*
X189664607Y-63940353D01*
X189807057Y-63729320D01*
X189857120Y-63479680D01*
X189857120Y-70358000D01*
X183032400Y-70358000D01*
X183032400Y-61442600D01*
X183032400Y-61087000D01*
X183032400Y-60833000D01*
X183032400Y-60477400D01*
X182875525Y-59942738D01*
X182525986Y-59508809D01*
X182036996Y-59241673D01*
X181957060Y-59224990D01*
X181737000Y-59347148D01*
X181737000Y-60833000D01*
X183032400Y-60833000D01*
X183032400Y-61087000D01*
X181737000Y-61087000D01*
X181737000Y-62572852D01*
X181957060Y-62695010D01*
X182036996Y-62678327D01*
X182525986Y-62411191D01*
X182875525Y-61977262D01*
X183032400Y-61442600D01*
X183032400Y-70358000D01*
X181483000Y-70358000D01*
X181483000Y-62572852D01*
X181483000Y-61087000D01*
X181463000Y-61087000D01*
X181463000Y-60833000D01*
X181483000Y-60833000D01*
X181483000Y-59347148D01*
X181262940Y-59224990D01*
X181183004Y-59241673D01*
X180694014Y-59508809D01*
X180344475Y-59942738D01*
X180339753Y-59958829D01*
X180075789Y-59563778D01*
X179614329Y-59255441D01*
X179070000Y-59147167D01*
X178525671Y-59255441D01*
X178064211Y-59563778D01*
X177800000Y-59959198D01*
X177535789Y-59563778D01*
X177074329Y-59255441D01*
X176530000Y-59147167D01*
X175985671Y-59255441D01*
X175524211Y-59563778D01*
X175260000Y-59959198D01*
X174995789Y-59563778D01*
X174534329Y-59255441D01*
X173990000Y-59147167D01*
X173445671Y-59255441D01*
X172984211Y-59563778D01*
X172720000Y-59959198D01*
X172455789Y-59563778D01*
X171994329Y-59255441D01*
X171450000Y-59147167D01*
X170905671Y-59255441D01*
X170444211Y-59563778D01*
X170180246Y-59958829D01*
X170175525Y-59942738D01*
X169825986Y-59508809D01*
X169336996Y-59241673D01*
X169257060Y-59224990D01*
X169037000Y-59347148D01*
X169037000Y-60833000D01*
X169057000Y-60833000D01*
X169057000Y-61087000D01*
X169037000Y-61087000D01*
X169037000Y-62572852D01*
X169257060Y-62695010D01*
X169336996Y-62678327D01*
X169825986Y-62411191D01*
X170175525Y-61977262D01*
X170180246Y-61961170D01*
X170444211Y-62356222D01*
X170905671Y-62664559D01*
X171450000Y-62772833D01*
X171994329Y-62664559D01*
X172455789Y-62356222D01*
X172720000Y-61960801D01*
X172984211Y-62356222D01*
X173445671Y-62664559D01*
X173990000Y-62772833D01*
X174534329Y-62664559D01*
X174995789Y-62356222D01*
X175260000Y-61960801D01*
X175524211Y-62356222D01*
X175985671Y-62664559D01*
X176530000Y-62772833D01*
X177074329Y-62664559D01*
X177535789Y-62356222D01*
X177800000Y-61960801D01*
X178064211Y-62356222D01*
X178525671Y-62664559D01*
X179070000Y-62772833D01*
X179614329Y-62664559D01*
X180075789Y-62356222D01*
X180339753Y-61961170D01*
X180344475Y-61977262D01*
X180694014Y-62411191D01*
X181183004Y-62678327D01*
X181262940Y-62695010D01*
X181483000Y-62572852D01*
X181483000Y-70358000D01*
X180597959Y-70358000D01*
X180597959Y-67310000D01*
X180483885Y-66736511D01*
X180159029Y-66250330D01*
X179844248Y-66040000D01*
X180159029Y-65829670D01*
X180483885Y-65343489D01*
X180597959Y-64770000D01*
X180483885Y-64196511D01*
X180159029Y-63710330D01*
X179672848Y-63385474D01*
X179099359Y-63271400D01*
X179040641Y-63271400D01*
X178467152Y-63385474D01*
X177980971Y-63710330D01*
X177800000Y-63981172D01*
X177619029Y-63710330D01*
X177132848Y-63385474D01*
X176559359Y-63271400D01*
X176500641Y-63271400D01*
X175927152Y-63385474D01*
X175440971Y-63710330D01*
X175260000Y-63981172D01*
X175079029Y-63710330D01*
X174592848Y-63385474D01*
X174019359Y-63271400D01*
X173960641Y-63271400D01*
X173387152Y-63385474D01*
X172900971Y-63710330D01*
X172720000Y-63981172D01*
X172539029Y-63710330D01*
X172052848Y-63385474D01*
X171479359Y-63271400D01*
X171420641Y-63271400D01*
X170847152Y-63385474D01*
X170360971Y-63710330D01*
X170036115Y-64196511D01*
X169922041Y-64770000D01*
X170036115Y-65343489D01*
X170360971Y-65829670D01*
X170376081Y-65839766D01*
X170344277Y-65845937D01*
X170131473Y-65985727D01*
X169989023Y-66196760D01*
X169938960Y-66446400D01*
X169938960Y-68173600D01*
X169985937Y-68415723D01*
X170125727Y-68628527D01*
X170336760Y-68770977D01*
X170586400Y-68821040D01*
X172313600Y-68821040D01*
X172555723Y-68774063D01*
X172768527Y-68634273D01*
X172910977Y-68423240D01*
X172919268Y-68381895D01*
X173387152Y-68694526D01*
X173960641Y-68808600D01*
X174019359Y-68808600D01*
X174592848Y-68694526D01*
X175079029Y-68369670D01*
X175260000Y-68098827D01*
X175440971Y-68369670D01*
X175927152Y-68694526D01*
X176500641Y-68808600D01*
X176559359Y-68808600D01*
X177132848Y-68694526D01*
X177619029Y-68369670D01*
X177800000Y-68098827D01*
X177980971Y-68369670D01*
X178467152Y-68694526D01*
X179040641Y-68808600D01*
X179099359Y-68808600D01*
X179672848Y-68694526D01*
X180159029Y-68369670D01*
X180483885Y-67883489D01*
X180597959Y-67310000D01*
X180597959Y-70358000D01*
X169989334Y-70358000D01*
X169989687Y-69953696D01*
X169825689Y-69556791D01*
X169522286Y-69252858D01*
X169125668Y-69088167D01*
X168908128Y-69087977D01*
X168369335Y-68549185D01*
X168122125Y-68384004D01*
X167830520Y-68326000D01*
X164395000Y-68326000D01*
X164395000Y-62770857D01*
X163195000Y-62770857D01*
X163195000Y-54292500D01*
X165067726Y-54292500D01*
X165364211Y-54736222D01*
X165825671Y-55044559D01*
X166370000Y-55152833D01*
X166914329Y-55044559D01*
X167375789Y-54736222D01*
X167639753Y-54341170D01*
X167644475Y-54357262D01*
X167994014Y-54791191D01*
X168483004Y-55058327D01*
X168562940Y-55075010D01*
X168783000Y-54952852D01*
X168783000Y-53467000D01*
X168763000Y-53467000D01*
X168763000Y-53213000D01*
X168783000Y-53213000D01*
X168783000Y-51727148D01*
X168562940Y-51604990D01*
X168483004Y-51621673D01*
X167994014Y-51888809D01*
X167644475Y-52322738D01*
X167639753Y-52338829D01*
X167375789Y-51943778D01*
X167322500Y-51908171D01*
X167322500Y-51562000D01*
X167322500Y-50165000D01*
X187007500Y-50165000D01*
X187007500Y-52964338D01*
X186893809Y-53011314D01*
X186363178Y-53541021D01*
X186075648Y-54233469D01*
X186074994Y-54983241D01*
X186361314Y-55676191D01*
X186891021Y-56206822D01*
X187583469Y-56494352D01*
X188333241Y-56495006D01*
X189026191Y-56208686D01*
X189556822Y-55678979D01*
X189844352Y-54986531D01*
X189845006Y-54236759D01*
X189558686Y-53543809D01*
X189028979Y-53013178D01*
X188912500Y-52964811D01*
X188912500Y-50165000D01*
X206629000Y-50165000D01*
X206629000Y-69342000D01*
X206629000Y-72517000D01*
X206629000Y-72517000D01*
G37*
X206629000Y-72517000D02*
X163932307Y-72517000D01*
X164020977Y-72385640D01*
X164071040Y-72136000D01*
X164071040Y-71143268D01*
X164586587Y-71658816D01*
X164734778Y-71757834D01*
X164833797Y-71823996D01*
X164833798Y-71823996D01*
X165125402Y-71882000D01*
X203705358Y-71882000D01*
X203857714Y-72034622D01*
X204254332Y-72199313D01*
X204683784Y-72199687D01*
X205080689Y-72035689D01*
X205384622Y-71732286D01*
X205549313Y-71335668D01*
X205549687Y-70906216D01*
X205385689Y-70509311D01*
X205094071Y-70217183D01*
X205094071Y-62554117D01*
X205085006Y-62216817D01*
X205085006Y-54236759D01*
X204798686Y-53543809D01*
X204268979Y-53013178D01*
X203576531Y-52725648D01*
X202826759Y-52724994D01*
X202133809Y-53011314D01*
X201603178Y-53541021D01*
X201315648Y-54233469D01*
X201314994Y-54983241D01*
X201441926Y-55290443D01*
X201411509Y-55320860D01*
X201411506Y-55320863D01*
X200090369Y-56642000D01*
X183032400Y-56642000D01*
X183032400Y-53730433D01*
X183032400Y-52949567D01*
X182924126Y-52405238D01*
X182615789Y-51943778D01*
X182154329Y-51635441D01*
X181610000Y-51527167D01*
X181065671Y-51635441D01*
X180604211Y-51943778D01*
X180340000Y-52339198D01*
X180075789Y-51943778D01*
X179614329Y-51635441D01*
X179070000Y-51527167D01*
X178525671Y-51635441D01*
X178064211Y-51943778D01*
X177800000Y-52339198D01*
X177535789Y-51943778D01*
X177074329Y-51635441D01*
X176530000Y-51527167D01*
X175985671Y-51635441D01*
X175524211Y-51943778D01*
X175260000Y-52339198D01*
X174995789Y-51943778D01*
X174534329Y-51635441D01*
X173990000Y-51527167D01*
X173445671Y-51635441D01*
X172984211Y-51943778D01*
X172720246Y-52338829D01*
X172715525Y-52322738D01*
X172365986Y-51888809D01*
X171876996Y-51621673D01*
X171797060Y-51604990D01*
X171577000Y-51727148D01*
X171577000Y-53213000D01*
X171597000Y-53213000D01*
X171597000Y-53467000D01*
X171577000Y-53467000D01*
X171577000Y-54952852D01*
X171797060Y-55075010D01*
X171876996Y-55058327D01*
X172365986Y-54791191D01*
X172715525Y-54357262D01*
X172720246Y-54341170D01*
X172984211Y-54736222D01*
X173445671Y-55044559D01*
X173990000Y-55152833D01*
X174534329Y-55044559D01*
X174995789Y-54736222D01*
X175260000Y-54340801D01*
X175524211Y-54736222D01*
X175985671Y-55044559D01*
X176530000Y-55152833D01*
X177074329Y-55044559D01*
X177535789Y-54736222D01*
X177800000Y-54340801D01*
X178064211Y-54736222D01*
X178525671Y-55044559D01*
X179070000Y-55152833D01*
X179614329Y-55044559D01*
X180075789Y-54736222D01*
X180340000Y-54340801D01*
X180604211Y-54736222D01*
X181065671Y-55044559D01*
X181610000Y-55152833D01*
X182154329Y-55044559D01*
X182615789Y-54736222D01*
X182924126Y-54274762D01*
X183032400Y-53730433D01*
X183032400Y-56642000D01*
X171323000Y-56642000D01*
X171323000Y-54952852D01*
X171323000Y-53467000D01*
X171323000Y-53213000D01*
X171323000Y-51727148D01*
X171102940Y-51604990D01*
X171023004Y-51621673D01*
X170534014Y-51888809D01*
X170184475Y-52322738D01*
X170180000Y-52337989D01*
X170175525Y-52322738D01*
X169825986Y-51888809D01*
X169336996Y-51621673D01*
X169257060Y-51604990D01*
X169037000Y-51727148D01*
X169037000Y-53213000D01*
X170027600Y-53213000D01*
X170332400Y-53213000D01*
X171323000Y-53213000D01*
X171323000Y-53467000D01*
X170332400Y-53467000D01*
X170027600Y-53467000D01*
X169037000Y-53467000D01*
X169037000Y-54952852D01*
X169257060Y-55075010D01*
X169336996Y-55058327D01*
X169825986Y-54791191D01*
X170175525Y-54357262D01*
X170180000Y-54342010D01*
X170184475Y-54357262D01*
X170534014Y-54791191D01*
X171023004Y-55058327D01*
X171102940Y-55075010D01*
X171323000Y-54952852D01*
X171323000Y-56642000D01*
X168529000Y-56642000D01*
X168237395Y-56700004D01*
X167990185Y-56865185D01*
X165831185Y-59024185D01*
X165734048Y-59169560D01*
X165582600Y-59169560D01*
X165340477Y-59216537D01*
X165127673Y-59356327D01*
X164985223Y-59567360D01*
X164935160Y-59817000D01*
X164935160Y-62103000D01*
X164982137Y-62345123D01*
X165121927Y-62557927D01*
X165332960Y-62700377D01*
X165582600Y-62750440D01*
X167157400Y-62750440D01*
X167399523Y-62703463D01*
X167612327Y-62563673D01*
X167754777Y-62352640D01*
X167793063Y-62161724D01*
X167994014Y-62411191D01*
X168483004Y-62678327D01*
X168562940Y-62695010D01*
X168783000Y-62572852D01*
X168783000Y-61087000D01*
X168763000Y-61087000D01*
X168763000Y-60833000D01*
X168783000Y-60833000D01*
X168783000Y-59347148D01*
X168562940Y-59224990D01*
X168483004Y-59241673D01*
X167994014Y-59508809D01*
X167793371Y-59757892D01*
X167757863Y-59574877D01*
X167630158Y-59380471D01*
X168844630Y-58166000D01*
X200406000Y-58166000D01*
X200406000Y-58165999D01*
X200697604Y-58107996D01*
X200697605Y-58107996D01*
X200944815Y-57942815D01*
X202489136Y-56398494D01*
X202489137Y-56398494D01*
X202489139Y-56398490D01*
X202519497Y-56368132D01*
X202823469Y-56494352D01*
X203573241Y-56495006D01*
X204266191Y-56208686D01*
X204796822Y-55678979D01*
X205084352Y-54986531D01*
X205085006Y-54236759D01*
X205085006Y-62216817D01*
X205073928Y-61804616D01*
X204825859Y-61205725D01*
X204533089Y-61076517D01*
X204353483Y-61256122D01*
X204353483Y-60896911D01*
X204224275Y-60604141D01*
X203524117Y-60335929D01*
X202774616Y-60356072D01*
X202175725Y-60604141D01*
X202046517Y-60896911D01*
X203200000Y-62050395D01*
X204353483Y-60896911D01*
X204353483Y-61256122D01*
X203379605Y-62230000D01*
X204533089Y-63383483D01*
X204825859Y-63254275D01*
X205094071Y-62554117D01*
X205094071Y-70217183D01*
X205082286Y-70205378D01*
X204685668Y-70040687D01*
X204353483Y-70040397D01*
X204353483Y-63563089D01*
X203200000Y-62409605D01*
X203020395Y-62589210D01*
X203020395Y-62230000D01*
X201866911Y-61076517D01*
X201574141Y-61205725D01*
X201305929Y-61905883D01*
X201326072Y-62655384D01*
X201574141Y-63254275D01*
X201866911Y-63383483D01*
X203020395Y-62230000D01*
X203020395Y-62589210D01*
X202046517Y-63563089D01*
X202175725Y-63855859D01*
X202875883Y-64124071D01*
X203625384Y-64103928D01*
X204224275Y-63855859D01*
X204353483Y-63563089D01*
X204353483Y-70040397D01*
X204256216Y-70040313D01*
X203859311Y-70204311D01*
X203705353Y-70358000D01*
X189857120Y-70358000D01*
X189857120Y-63479680D01*
X189857120Y-60980320D01*
X189810143Y-60738197D01*
X189670353Y-60525393D01*
X189459320Y-60382943D01*
X189209680Y-60332880D01*
X186710320Y-60332880D01*
X186468197Y-60379857D01*
X186255393Y-60519647D01*
X186112943Y-60730680D01*
X186062880Y-60980320D01*
X186062880Y-63479680D01*
X186109857Y-63721803D01*
X186249647Y-63934607D01*
X186460680Y-64077057D01*
X186710320Y-64127120D01*
X189209680Y-64127120D01*
X189451803Y-64080143D01*
X189664607Y-63940353D01*
X189807057Y-63729320D01*
X189857120Y-63479680D01*
X189857120Y-70358000D01*
X183032400Y-70358000D01*
X183032400Y-61442600D01*
X183032400Y-61087000D01*
X183032400Y-60833000D01*
X183032400Y-60477400D01*
X182875525Y-59942738D01*
X182525986Y-59508809D01*
X182036996Y-59241673D01*
X181957060Y-59224990D01*
X181737000Y-59347148D01*
X181737000Y-60833000D01*
X183032400Y-60833000D01*
X183032400Y-61087000D01*
X181737000Y-61087000D01*
X181737000Y-62572852D01*
X181957060Y-62695010D01*
X182036996Y-62678327D01*
X182525986Y-62411191D01*
X182875525Y-61977262D01*
X183032400Y-61442600D01*
X183032400Y-70358000D01*
X181483000Y-70358000D01*
X181483000Y-62572852D01*
X181483000Y-61087000D01*
X181463000Y-61087000D01*
X181463000Y-60833000D01*
X181483000Y-60833000D01*
X181483000Y-59347148D01*
X181262940Y-59224990D01*
X181183004Y-59241673D01*
X180694014Y-59508809D01*
X180344475Y-59942738D01*
X180339753Y-59958829D01*
X180075789Y-59563778D01*
X179614329Y-59255441D01*
X179070000Y-59147167D01*
X178525671Y-59255441D01*
X178064211Y-59563778D01*
X177800000Y-59959198D01*
X177535789Y-59563778D01*
X177074329Y-59255441D01*
X176530000Y-59147167D01*
X175985671Y-59255441D01*
X175524211Y-59563778D01*
X175260000Y-59959198D01*
X174995789Y-59563778D01*
X174534329Y-59255441D01*
X173990000Y-59147167D01*
X173445671Y-59255441D01*
X172984211Y-59563778D01*
X172720000Y-59959198D01*
X172455789Y-59563778D01*
X171994329Y-59255441D01*
X171450000Y-59147167D01*
X170905671Y-59255441D01*
X170444211Y-59563778D01*
X170180246Y-59958829D01*
X170175525Y-59942738D01*
X169825986Y-59508809D01*
X169336996Y-59241673D01*
X169257060Y-59224990D01*
X169037000Y-59347148D01*
X169037000Y-60833000D01*
X169057000Y-60833000D01*
X169057000Y-61087000D01*
X169037000Y-61087000D01*
X169037000Y-62572852D01*
X169257060Y-62695010D01*
X169336996Y-62678327D01*
X169825986Y-62411191D01*
X170175525Y-61977262D01*
X170180246Y-61961170D01*
X170444211Y-62356222D01*
X170905671Y-62664559D01*
X171450000Y-62772833D01*
X171994329Y-62664559D01*
X172455789Y-62356222D01*
X172720000Y-61960801D01*
X172984211Y-62356222D01*
X173445671Y-62664559D01*
X173990000Y-62772833D01*
X174534329Y-62664559D01*
X174995789Y-62356222D01*
X175260000Y-61960801D01*
X175524211Y-62356222D01*
X175985671Y-62664559D01*
X176530000Y-62772833D01*
X177074329Y-62664559D01*
X177535789Y-62356222D01*
X177800000Y-61960801D01*
X178064211Y-62356222D01*
X178525671Y-62664559D01*
X179070000Y-62772833D01*
X179614329Y-62664559D01*
X180075789Y-62356222D01*
X180339753Y-61961170D01*
X180344475Y-61977262D01*
X180694014Y-62411191D01*
X181183004Y-62678327D01*
X181262940Y-62695010D01*
X181483000Y-62572852D01*
X181483000Y-70358000D01*
X180597959Y-70358000D01*
X180597959Y-67310000D01*
X180483885Y-66736511D01*
X180159029Y-66250330D01*
X179844248Y-66040000D01*
X180159029Y-65829670D01*
X180483885Y-65343489D01*
X180597959Y-64770000D01*
X180483885Y-64196511D01*
X180159029Y-63710330D01*
X179672848Y-63385474D01*
X179099359Y-63271400D01*
X179040641Y-63271400D01*
X178467152Y-63385474D01*
X177980971Y-63710330D01*
X177800000Y-63981172D01*
X177619029Y-63710330D01*
X177132848Y-63385474D01*
X176559359Y-63271400D01*
X176500641Y-63271400D01*
X175927152Y-63385474D01*
X175440971Y-63710330D01*
X175260000Y-63981172D01*
X175079029Y-63710330D01*
X174592848Y-63385474D01*
X174019359Y-63271400D01*
X173960641Y-63271400D01*
X173387152Y-63385474D01*
X172900971Y-63710330D01*
X172720000Y-63981172D01*
X172539029Y-63710330D01*
X172052848Y-63385474D01*
X171479359Y-63271400D01*
X171420641Y-63271400D01*
X170847152Y-63385474D01*
X170360971Y-63710330D01*
X170036115Y-64196511D01*
X169922041Y-64770000D01*
X170036115Y-65343489D01*
X170360971Y-65829670D01*
X170376081Y-65839766D01*
X170344277Y-65845937D01*
X170131473Y-65985727D01*
X169989023Y-66196760D01*
X169938960Y-66446400D01*
X169938960Y-68173600D01*
X169985937Y-68415723D01*
X170125727Y-68628527D01*
X170336760Y-68770977D01*
X170586400Y-68821040D01*
X172313600Y-68821040D01*
X172555723Y-68774063D01*
X172768527Y-68634273D01*
X172910977Y-68423240D01*
X172919268Y-68381895D01*
X173387152Y-68694526D01*
X173960641Y-68808600D01*
X174019359Y-68808600D01*
X174592848Y-68694526D01*
X175079029Y-68369670D01*
X175260000Y-68098827D01*
X175440971Y-68369670D01*
X175927152Y-68694526D01*
X176500641Y-68808600D01*
X176559359Y-68808600D01*
X177132848Y-68694526D01*
X177619029Y-68369670D01*
X177800000Y-68098827D01*
X177980971Y-68369670D01*
X178467152Y-68694526D01*
X179040641Y-68808600D01*
X179099359Y-68808600D01*
X179672848Y-68694526D01*
X180159029Y-68369670D01*
X180483885Y-67883489D01*
X180597959Y-67310000D01*
X180597959Y-70358000D01*
X169989334Y-70358000D01*
X169989687Y-69953696D01*
X169825689Y-69556791D01*
X169522286Y-69252858D01*
X169125668Y-69088167D01*
X168908128Y-69087977D01*
X168369335Y-68549185D01*
X168122125Y-68384004D01*
X167830520Y-68326000D01*
X164395000Y-68326000D01*
X164395000Y-62770857D01*
X163195000Y-62770857D01*
X163195000Y-54292500D01*
X165067726Y-54292500D01*
X165364211Y-54736222D01*
X165825671Y-55044559D01*
X166370000Y-55152833D01*
X166914329Y-55044559D01*
X167375789Y-54736222D01*
X167639753Y-54341170D01*
X167644475Y-54357262D01*
X167994014Y-54791191D01*
X168483004Y-55058327D01*
X168562940Y-55075010D01*
X168783000Y-54952852D01*
X168783000Y-53467000D01*
X168763000Y-53467000D01*
X168763000Y-53213000D01*
X168783000Y-53213000D01*
X168783000Y-51727148D01*
X168562940Y-51604990D01*
X168483004Y-51621673D01*
X167994014Y-51888809D01*
X167644475Y-52322738D01*
X167639753Y-52338829D01*
X167375789Y-51943778D01*
X167322500Y-51908171D01*
X167322500Y-51562000D01*
X167322500Y-50165000D01*
X187007500Y-50165000D01*
X187007500Y-52964338D01*
X186893809Y-53011314D01*
X186363178Y-53541021D01*
X186075648Y-54233469D01*
X186074994Y-54983241D01*
X186361314Y-55676191D01*
X186891021Y-56206822D01*
X187583469Y-56494352D01*
X188333241Y-56495006D01*
X189026191Y-56208686D01*
X189556822Y-55678979D01*
X189844352Y-54986531D01*
X189845006Y-54236759D01*
X189558686Y-53543809D01*
X189028979Y-53013178D01*
X188912500Y-52964811D01*
X188912500Y-50165000D01*
X206629000Y-50165000D01*
X206629000Y-69342000D01*
X206629000Y-72517000D01*
M02*
