M48
;DRILL file {kicad (2014-12-04 BZR 5312)-product} date Wed 04 Feb 2015 08:07:20 AM CET
;FORMAT={-:-/ absolute / metric / decimal}
FMAT,2
METRIC,TZ
T1C0.508
T2C0.635
T3C0.800
T4C0.813
T5C1.001
T6C1.016
T7C3.000
%
G90
G05
M71
T1
X67.351Y-80.051
X67.351Y-85.049
X72.349Y-80.051
X72.349Y-85.049
T2
X120.904Y-50.8
X127.254Y-82.296
X127.889Y-107.95
X129.794Y-89.916
X131.191Y-106.68
X132.397Y-106.68
X133.465Y-88.023
X133.477Y-93.345
X138.303Y-114.173
X138.303Y-123.952
X138.303Y-125.349
X140.081Y-119.38
X140.208Y-127.
X140.843Y-110.49
X140.843Y-113.03
X143.002Y-50.927
X145.425Y-109.029
X146.304Y-79.121
X149.178Y-86.931
X154.94Y-140.97
X161.163Y-124.079
X166.37Y-74.93
X168.847Y-74.232
X168.91Y-70.167
X177.8Y-140.97
X187.96Y-95.885
X189.23Y-89.599
X199.898Y-141.224
X201.907Y-82.872
X203.035Y-83.058
X203.035Y-86.424
X204.47Y-71.12
X205.74Y-135.89
X206.756Y-133.35
X209.55Y-130.81
X209.677Y-83.058
X210.558Y-89.145
X211.265Y-113.03
X211.455Y-87.439
X211.512Y-85.789
X213.233Y-87.475
X213.708Y-85.855
X213.868Y-84.455
T3
X80.01Y-67.31
X80.01Y-69.85
X106.172Y-75.438
X108.712Y-75.438
T4
X67.31Y-96.52
X67.31Y-99.06
X67.31Y-101.6
X67.31Y-104.14
X67.31Y-106.68
X67.31Y-109.22
X67.31Y-111.76
X67.31Y-114.3
X67.31Y-116.84
X67.31Y-119.38
X67.31Y-121.92
X67.31Y-124.46
X67.31Y-127.
X67.31Y-129.54
X67.31Y-132.08
X67.31Y-134.62
X90.17Y-71.628
X90.17Y-79.248
X90.17Y-83.82
X90.17Y-86.36
X91.059Y-116.459
X91.059Y-118.999
X91.186Y-121.539
X91.313Y-124.079
X91.313Y-126.619
X91.44Y-129.159
X91.44Y-131.699
X91.567Y-134.239
X92.71Y-71.628
X92.71Y-79.248
X95.25Y-71.628
X95.25Y-79.248
X95.25Y-83.82
X95.25Y-91.44
X97.79Y-71.628
X97.79Y-79.248
X97.79Y-83.82
X97.79Y-91.44
X98.679Y-116.459
X98.679Y-118.999
X98.806Y-121.539
X98.933Y-124.079
X98.933Y-126.619
X99.06Y-129.159
X99.06Y-131.699
X99.187Y-134.239
X100.33Y-71.628
X100.33Y-79.248
X100.33Y-83.82
X100.33Y-91.44
X102.87Y-71.628
X102.87Y-79.248
X102.87Y-83.82
X102.87Y-91.44
X105.41Y-83.82
X105.41Y-91.44
X106.172Y-71.628
X106.172Y-79.248
X107.95Y-83.82
X107.95Y-91.44
X108.712Y-71.628
X108.712Y-79.248
X110.49Y-83.82
X110.49Y-91.44
X110.998Y-113.919
X110.998Y-116.459
X110.998Y-118.999
X110.998Y-121.539
X110.998Y-124.079
X110.998Y-126.619
X110.998Y-129.159
X110.998Y-131.699
X110.998Y-134.239
X110.998Y-136.779
X116.078Y-109.347
X116.459Y-83.82
X116.459Y-86.36
X118.618Y-109.347
X118.618Y-113.919
X118.618Y-116.459
X118.618Y-118.999
X118.618Y-121.539
X118.618Y-124.079
X118.618Y-126.619
X118.618Y-129.159
X118.618Y-131.699
X118.618Y-134.239
X118.618Y-136.779
X120.904Y-67.818
X120.904Y-71.628
X120.904Y-79.248
X120.904Y-83.82
X120.904Y-91.44
X123.444Y-67.818
X123.444Y-71.628
X123.444Y-79.248
X123.444Y-83.82
X123.444Y-91.44
X124.206Y-113.919
X124.206Y-116.459
X124.206Y-118.999
X124.206Y-121.539
X124.206Y-124.079
X124.206Y-126.619
X124.206Y-129.159
X124.206Y-131.699
X124.206Y-134.239
X124.206Y-136.779
X125.984Y-71.628
X125.984Y-79.248
X125.984Y-83.82
X125.984Y-91.44
X128.524Y-71.628
X128.524Y-79.248
X128.524Y-83.82
X128.524Y-91.44
X131.064Y-71.628
X131.064Y-79.248
X131.064Y-83.82
X131.064Y-91.44
X131.826Y-109.347
X131.826Y-113.919
X131.826Y-116.459
X131.826Y-118.999
X131.826Y-121.539
X131.826Y-124.079
X131.826Y-126.619
X131.826Y-129.159
X131.826Y-131.699
X131.826Y-134.239
X131.826Y-136.779
X133.604Y-71.628
X133.604Y-79.248
X133.604Y-83.82
X133.604Y-91.44
X134.366Y-109.347
X136.144Y-71.628
X136.144Y-79.248
X136.144Y-83.82
X136.144Y-91.44
X138.684Y-71.628
X138.684Y-79.248
X138.684Y-83.82
X138.684Y-91.44
X141.224Y-83.82
X141.224Y-91.44
X142.24Y-104.14
X142.24Y-106.68
X142.24Y-109.22
X142.24Y-111.76
X142.24Y-114.3
X142.24Y-116.84
X142.24Y-119.38
X142.24Y-121.92
X142.24Y-124.46
X142.24Y-127.
X142.24Y-129.54
X142.24Y-132.08
X142.24Y-134.62
X142.24Y-137.16
X143.002Y-69.596
X143.002Y-72.136
X143.002Y-74.676
X143.002Y-77.216
X143.764Y-83.82
X143.764Y-91.44
X144.78Y-140.97
X146.304Y-83.82
X146.304Y-91.44
X148.844Y-83.82
X148.844Y-91.44
X150.622Y-69.596
X150.622Y-72.136
X150.622Y-74.676
X150.622Y-77.216
X152.4Y-140.97
X154.94Y-76.2
X154.94Y-91.44
X154.94Y-99.06
X157.48Y-76.2
X157.48Y-91.44
X157.48Y-99.06
X157.48Y-104.14
X157.48Y-106.68
X157.48Y-109.22
X157.48Y-111.76
X157.48Y-114.3
X157.48Y-116.84
X157.48Y-119.38
X157.48Y-121.92
X157.48Y-124.46
X157.48Y-127.
X157.48Y-129.54
X157.48Y-132.08
X157.48Y-134.62
X157.48Y-137.16
X157.48Y-140.97
X160.02Y-76.2
X160.02Y-91.44
X160.02Y-140.97
X161.925Y-50.8
X161.925Y-53.34
X162.56Y-76.2
X162.56Y-91.44
X165.1Y-76.2
X165.1Y-91.44
X165.1Y-104.14
X165.1Y-106.68
X165.1Y-109.22
X165.1Y-111.76
X165.1Y-114.3
X165.1Y-116.84
X165.1Y-119.38
X165.1Y-121.92
X165.1Y-124.46
X165.1Y-127.
X165.1Y-129.54
X165.1Y-132.08
X165.1Y-134.62
X165.1Y-137.16
X166.37Y-53.34
X166.37Y-60.96
X167.64Y-76.2
X167.64Y-91.44
X167.64Y-140.97
X168.91Y-53.34
X168.91Y-60.96
X170.18Y-76.2
X170.18Y-91.44
X171.45Y-53.34
X171.45Y-60.96
X172.72Y-76.2
X172.72Y-83.058
X172.72Y-91.44
X173.99Y-53.34
X173.99Y-60.96
X175.26Y-76.2
X175.26Y-83.058
X175.26Y-91.44
X175.26Y-140.97
X176.53Y-53.34
X176.53Y-60.96
X177.8Y-76.2
X177.8Y-91.44
X177.8Y-99.06
X179.07Y-53.34
X179.07Y-60.96
X180.34Y-76.2
X180.34Y-91.44
X180.34Y-99.06
X180.34Y-104.14
X180.34Y-106.68
X180.34Y-109.22
X180.34Y-111.76
X180.34Y-114.3
X180.34Y-116.84
X180.34Y-119.38
X180.34Y-121.92
X180.34Y-124.46
X180.34Y-127.
X180.34Y-129.54
X180.34Y-132.08
X180.34Y-134.62
X180.34Y-137.16
X180.34Y-140.97
X181.61Y-53.34
X181.61Y-60.96
X182.88Y-76.2
X182.88Y-91.44
X182.88Y-140.97
X185.42Y-76.2
X185.42Y-91.44
X187.96Y-76.2
X187.96Y-91.44
X187.96Y-104.14
X187.96Y-106.68
X187.96Y-109.22
X187.96Y-111.76
X187.96Y-114.3
X187.96Y-116.84
X187.96Y-119.38
X187.96Y-121.92
X187.96Y-124.46
X187.96Y-127.
X187.96Y-129.54
X187.96Y-132.08
X187.96Y-134.62
X187.96Y-137.16
X190.5Y-76.2
X190.5Y-91.44
X190.5Y-140.97
X193.04Y-76.2
X193.04Y-91.44
X195.58Y-76.2
X195.58Y-91.44
X198.12Y-76.2
X198.12Y-91.44
X198.12Y-99.06
X198.12Y-140.97
X200.66Y-76.2
X200.66Y-91.44
X200.66Y-99.06
X203.2Y-76.2
X203.2Y-91.44
X203.2Y-104.14
X203.2Y-106.68
X203.2Y-109.22
X203.2Y-111.76
X203.2Y-114.3
X203.2Y-116.84
X203.2Y-119.38
X203.2Y-121.92
X203.2Y-124.46
X203.2Y-127.
X203.2Y-129.54
X203.2Y-132.08
X203.2Y-134.62
X203.2Y-137.16
X203.2Y-140.97
X205.74Y-140.97
T5
X187.96Y-54.61
X187.96Y-62.23
X203.2Y-54.61
X203.2Y-62.23
T6
X73.66Y-62.23
X73.66Y-64.77
X73.66Y-67.31
X73.66Y-69.85
X104.394Y-116.459
X104.394Y-118.999
X104.394Y-121.539
X104.394Y-124.079
X104.394Y-126.619
X104.394Y-129.159
X104.394Y-131.699
X104.394Y-134.239
X148.082Y-64.262
X148.082Y-66.802
X150.622Y-64.262
X150.622Y-66.802
X157.48Y-71.12
X160.02Y-71.12
X162.56Y-71.12
X171.45Y-64.77
X171.45Y-67.31
X173.99Y-64.77
X173.99Y-67.31
X176.53Y-64.77
X176.53Y-67.31
X179.07Y-64.77
X179.07Y-67.31
X215.265Y-65.405
X215.265Y-67.945
X215.265Y-70.485
X215.265Y-73.025
X215.265Y-75.565
X215.265Y-78.105
X215.265Y-80.645
X215.265Y-83.185
X215.265Y-85.725
X215.265Y-88.265
X215.265Y-90.805
X215.265Y-93.345
X215.265Y-95.885
X215.265Y-98.425
X215.265Y-100.965
X215.265Y-103.505
X215.265Y-106.045
X215.265Y-108.585
X215.265Y-111.125
X215.265Y-113.665
X215.265Y-116.205
X215.265Y-118.745
X215.265Y-121.285
X215.265Y-123.825
X215.265Y-126.365
X217.805Y-65.405
X217.805Y-67.945
X217.805Y-70.485
X217.805Y-73.025
X217.805Y-75.565
X217.805Y-78.105
X217.805Y-80.645
X217.805Y-83.185
X217.805Y-85.725
X217.805Y-88.265
X217.805Y-90.805
X217.805Y-93.345
X217.805Y-95.885
X217.805Y-98.425
X217.805Y-100.965
X217.805Y-103.505
X217.805Y-106.045
X217.805Y-108.585
X217.805Y-111.125
X217.805Y-113.665
X217.805Y-116.205
X217.805Y-118.745
X217.805Y-121.285
X217.805Y-123.825
X217.805Y-126.365
T7
X68.58Y-52.832
X68.58Y-138.938
X215.646Y-52.578
X215.646Y-138.938
T0
M30
