%FSLAX45Y45*%
G04 Gerber Fmt 4.5, Leading zero omitted, Abs format (unit mm)*
G04 Created by KiCad (PCBNEW (2014-12-04 BZR 5312)-product) date Wed 04 Feb 2015 08:07:23 AM CET*
%MOMM*%
G01*
G04 APERTURE LIST*
%ADD10C,0.127000*%
%ADD11C,0.100000*%
%ADD12C,0.200000*%
%ADD13C,0.300000*%
G04 APERTURE END LIST*
D10*
D11*
X6223000Y-14605000D02*
X6223000Y-4572000D01*
X22225000Y-14605000D02*
X6223000Y-14605000D01*
X22225000Y-4572000D02*
X22225000Y-14605000D01*
X6223000Y-4572000D02*
X22225000Y-4572000D01*
D12*
X6709664Y-7979664D02*
X6760464Y-8030464D01*
X6760464Y-7979664D02*
X6709664Y-8030464D01*
X6709664Y-8479536D02*
X6760464Y-8530336D01*
X6760464Y-8479536D02*
X6709664Y-8530336D01*
X7209536Y-7979664D02*
X7260336Y-8030464D01*
X7260336Y-7979664D02*
X7209536Y-8030464D01*
X7209536Y-8479536D02*
X7260336Y-8530336D01*
X7260336Y-8479536D02*
X7209536Y-8530336D01*
X12122150Y-5080000D02*
G75*
G03X12122150Y-5080000I-31750J0D01*
G01*
X12757150Y-8229600D02*
G75*
G03X12757150Y-8229600I-31750J0D01*
G01*
X12820650Y-10795000D02*
G75*
G03X12820650Y-10795000I-31750J0D01*
G01*
X13011150Y-8991600D02*
G75*
G03X13011150Y-8991600I-31750J0D01*
G01*
X13150850Y-10668000D02*
G75*
G03X13150850Y-10668000I-31750J0D01*
G01*
X13271498Y-10668000D02*
G75*
G03X13271498Y-10668000I-31750J0D01*
G01*
X13378227Y-8802323D02*
G75*
G03X13378227Y-8802323I-31750J0D01*
G01*
X13379450Y-9334500D02*
G75*
G03X13379450Y-9334500I-31750J0D01*
G01*
X13862050Y-11417300D02*
G75*
G03X13862050Y-11417300I-31750J0D01*
G01*
X13862050Y-12395200D02*
G75*
G03X13862050Y-12395200I-31750J0D01*
G01*
X13862050Y-12534900D02*
G75*
G03X13862050Y-12534900I-31750J0D01*
G01*
X14039850Y-11938000D02*
G75*
G03X14039850Y-11938000I-31750J0D01*
G01*
X14052550Y-12700000D02*
G75*
G03X14052550Y-12700000I-31750J0D01*
G01*
X14116050Y-11049000D02*
G75*
G03X14116050Y-11049000I-31750J0D01*
G01*
X14116050Y-11303000D02*
G75*
G03X14116050Y-11303000I-31750J0D01*
G01*
X14331950Y-5092700D02*
G75*
G03X14331950Y-5092700I-31750J0D01*
G01*
X14574226Y-10902948D02*
G75*
G03X14574226Y-10902948I-31750J0D01*
G01*
X14662150Y-7912100D02*
G75*
G03X14662150Y-7912100I-31750J0D01*
G01*
X14949568Y-8693144D02*
G75*
G03X14949568Y-8693144I-31750J0D01*
G01*
X15525750Y-14097000D02*
G75*
G03X15525750Y-14097000I-31750J0D01*
G01*
X16148050Y-12407900D02*
G75*
G03X16148050Y-12407900I-31750J0D01*
G01*
X16668750Y-7493000D02*
G75*
G03X16668750Y-7493000I-31750J0D01*
G01*
X16916444Y-7423152D02*
G75*
G03X16916444Y-7423152I-31750J0D01*
G01*
X16922750Y-7016748D02*
G75*
G03X16922750Y-7016748I-31750J0D01*
G01*
X17811750Y-14097000D02*
G75*
G03X17811750Y-14097000I-31750J0D01*
G01*
X18827750Y-9588500D02*
G75*
G03X18827750Y-9588500I-31750J0D01*
G01*
X18954750Y-8959854D02*
G75*
G03X18954750Y-8959854I-31750J0D01*
G01*
X20021550Y-14122400D02*
G75*
G03X20021550Y-14122400I-31750J0D01*
G01*
X20222457Y-8287224D02*
G75*
G03X20222457Y-8287224I-31750J0D01*
G01*
X20335239Y-8305800D02*
G75*
G03X20335239Y-8305800I-31750J0D01*
G01*
X20335239Y-8642352D02*
G75*
G03X20335239Y-8642352I-31750J0D01*
G01*
X20478750Y-7112000D02*
G75*
G03X20478750Y-7112000I-31750J0D01*
G01*
X20605750Y-13589000D02*
G75*
G03X20605750Y-13589000I-31750J0D01*
G01*
X20707350Y-13335000D02*
G75*
G03X20707350Y-13335000I-31750J0D01*
G01*
X20986750Y-13081000D02*
G75*
G03X20986750Y-13081000I-31750J0D01*
G01*
X20999450Y-8305800D02*
G75*
G03X20999450Y-8305800I-31750J0D01*
G01*
X21087547Y-8914528D02*
G75*
G03X21087547Y-8914528I-31750J0D01*
G01*
X21158200Y-11303000D02*
G75*
G03X21158200Y-11303000I-31750J0D01*
G01*
X21177250Y-8743949D02*
G75*
G03X21177250Y-8743949I-31750J0D01*
G01*
X21182985Y-8578852D02*
G75*
G03X21182985Y-8578852I-31750J0D01*
G01*
X21355052Y-8747533D02*
G75*
G03X21355052Y-8747533I-31750J0D01*
G01*
X21402578Y-8585473D02*
G75*
G03X21402578Y-8585473I-31750J0D01*
G01*
X21418550Y-8445500D02*
G75*
G03X21418550Y-8445500I-31750J0D01*
G01*
X8001000Y-6690995D02*
X8001000Y-6771005D01*
X7960995Y-6731000D02*
X8041005Y-6731000D01*
X8001000Y-6944995D02*
X8001000Y-7025005D01*
X7960995Y-6985000D02*
X8041005Y-6985000D01*
X10617200Y-7503795D02*
X10617200Y-7583805D01*
X10577195Y-7543800D02*
X10657205Y-7543800D01*
X10871200Y-7503795D02*
X10871200Y-7583805D01*
X10831195Y-7543800D02*
X10911205Y-7543800D01*
X6759737Y-9680737D02*
X6759737Y-9623263D01*
X6702263Y-9623263D01*
X6702263Y-9680737D01*
X6759737Y-9680737D01*
X6759737Y-9934737D02*
X6759737Y-9877263D01*
X6702263Y-9877263D01*
X6702263Y-9934737D01*
X6759737Y-9934737D01*
X6759737Y-10188737D02*
X6759737Y-10131263D01*
X6702263Y-10131263D01*
X6702263Y-10188737D01*
X6759737Y-10188737D01*
X6759737Y-10442737D02*
X6759737Y-10385263D01*
X6702263Y-10385263D01*
X6702263Y-10442737D01*
X6759737Y-10442737D01*
X6759737Y-10696737D02*
X6759737Y-10639263D01*
X6702263Y-10639263D01*
X6702263Y-10696737D01*
X6759737Y-10696737D01*
X6759737Y-10950737D02*
X6759737Y-10893263D01*
X6702263Y-10893263D01*
X6702263Y-10950737D01*
X6759737Y-10950737D01*
X6759737Y-11204737D02*
X6759737Y-11147263D01*
X6702263Y-11147263D01*
X6702263Y-11204737D01*
X6759737Y-11204737D01*
X6759737Y-11458737D02*
X6759737Y-11401263D01*
X6702263Y-11401263D01*
X6702263Y-11458737D01*
X6759737Y-11458737D01*
X6759737Y-11712737D02*
X6759737Y-11655263D01*
X6702263Y-11655263D01*
X6702263Y-11712737D01*
X6759737Y-11712737D01*
X6759737Y-11966737D02*
X6759737Y-11909263D01*
X6702263Y-11909263D01*
X6702263Y-11966737D01*
X6759737Y-11966737D01*
X6759737Y-12220737D02*
X6759737Y-12163263D01*
X6702263Y-12163263D01*
X6702263Y-12220737D01*
X6759737Y-12220737D01*
X6759737Y-12474737D02*
X6759737Y-12417263D01*
X6702263Y-12417263D01*
X6702263Y-12474737D01*
X6759737Y-12474737D01*
X6759737Y-12728737D02*
X6759737Y-12671263D01*
X6702263Y-12671263D01*
X6702263Y-12728737D01*
X6759737Y-12728737D01*
X6759737Y-12982737D02*
X6759737Y-12925263D01*
X6702263Y-12925263D01*
X6702263Y-12982737D01*
X6759737Y-12982737D01*
X6759737Y-13236737D02*
X6759737Y-13179263D01*
X6702263Y-13179263D01*
X6702263Y-13236737D01*
X6759737Y-13236737D01*
X6759737Y-13490737D02*
X6759737Y-13433263D01*
X6702263Y-13433263D01*
X6702263Y-13490737D01*
X6759737Y-13490737D01*
X9045737Y-7191537D02*
X9045737Y-7134063D01*
X8988263Y-7134063D01*
X8988263Y-7191537D01*
X9045737Y-7191537D01*
X9045737Y-7953537D02*
X9045737Y-7896063D01*
X8988263Y-7896063D01*
X8988263Y-7953537D01*
X9045737Y-7953537D01*
X9045737Y-8410737D02*
X9045737Y-8353263D01*
X8988263Y-8353263D01*
X8988263Y-8410737D01*
X9045737Y-8410737D01*
X9045737Y-8664737D02*
X9045737Y-8607263D01*
X8988263Y-8607263D01*
X8988263Y-8664737D01*
X9045737Y-8664737D01*
X9134637Y-11674637D02*
X9134637Y-11617163D01*
X9077163Y-11617163D01*
X9077163Y-11674637D01*
X9134637Y-11674637D01*
X9134637Y-11928637D02*
X9134637Y-11871163D01*
X9077163Y-11871163D01*
X9077163Y-11928637D01*
X9134637Y-11928637D01*
X9147337Y-12182637D02*
X9147337Y-12125163D01*
X9089863Y-12125163D01*
X9089863Y-12182637D01*
X9147337Y-12182637D01*
X9160037Y-12436637D02*
X9160037Y-12379163D01*
X9102563Y-12379163D01*
X9102563Y-12436637D01*
X9160037Y-12436637D01*
X9160037Y-12690637D02*
X9160037Y-12633163D01*
X9102563Y-12633163D01*
X9102563Y-12690637D01*
X9160037Y-12690637D01*
X9172737Y-12944637D02*
X9172737Y-12887163D01*
X9115263Y-12887163D01*
X9115263Y-12944637D01*
X9172737Y-12944637D01*
X9172737Y-13198637D02*
X9172737Y-13141163D01*
X9115263Y-13141163D01*
X9115263Y-13198637D01*
X9172737Y-13198637D01*
X9185437Y-13452637D02*
X9185437Y-13395163D01*
X9127963Y-13395163D01*
X9127963Y-13452637D01*
X9185437Y-13452637D01*
X9299737Y-7191537D02*
X9299737Y-7134063D01*
X9242263Y-7134063D01*
X9242263Y-7191537D01*
X9299737Y-7191537D01*
X9299737Y-7953537D02*
X9299737Y-7896063D01*
X9242263Y-7896063D01*
X9242263Y-7953537D01*
X9299737Y-7953537D01*
X9553737Y-7191537D02*
X9553737Y-7134063D01*
X9496263Y-7134063D01*
X9496263Y-7191537D01*
X9553737Y-7191537D01*
X9553737Y-7953537D02*
X9553737Y-7896063D01*
X9496263Y-7896063D01*
X9496263Y-7953537D01*
X9553737Y-7953537D01*
X9553737Y-8410737D02*
X9553737Y-8353263D01*
X9496263Y-8353263D01*
X9496263Y-8410737D01*
X9553737Y-8410737D01*
X9553737Y-9172737D02*
X9553737Y-9115263D01*
X9496263Y-9115263D01*
X9496263Y-9172737D01*
X9553737Y-9172737D01*
X9807737Y-7191537D02*
X9807737Y-7134063D01*
X9750263Y-7134063D01*
X9750263Y-7191537D01*
X9807737Y-7191537D01*
X9807737Y-7953537D02*
X9807737Y-7896063D01*
X9750263Y-7896063D01*
X9750263Y-7953537D01*
X9807737Y-7953537D01*
X9807737Y-8410737D02*
X9807737Y-8353263D01*
X9750263Y-8353263D01*
X9750263Y-8410737D01*
X9807737Y-8410737D01*
X9807737Y-9172737D02*
X9807737Y-9115263D01*
X9750263Y-9115263D01*
X9750263Y-9172737D01*
X9807737Y-9172737D01*
X9896637Y-11674637D02*
X9896637Y-11617163D01*
X9839163Y-11617163D01*
X9839163Y-11674637D01*
X9896637Y-11674637D01*
X9896637Y-11928637D02*
X9896637Y-11871163D01*
X9839163Y-11871163D01*
X9839163Y-11928637D01*
X9896637Y-11928637D01*
X9909337Y-12182637D02*
X9909337Y-12125163D01*
X9851863Y-12125163D01*
X9851863Y-12182637D01*
X9909337Y-12182637D01*
X9922037Y-12436637D02*
X9922037Y-12379163D01*
X9864563Y-12379163D01*
X9864563Y-12436637D01*
X9922037Y-12436637D01*
X9922037Y-12690637D02*
X9922037Y-12633163D01*
X9864563Y-12633163D01*
X9864563Y-12690637D01*
X9922037Y-12690637D01*
X9934737Y-12944637D02*
X9934737Y-12887163D01*
X9877263Y-12887163D01*
X9877263Y-12944637D01*
X9934737Y-12944637D01*
X9934737Y-13198637D02*
X9934737Y-13141163D01*
X9877263Y-13141163D01*
X9877263Y-13198637D01*
X9934737Y-13198637D01*
X9947437Y-13452637D02*
X9947437Y-13395163D01*
X9889963Y-13395163D01*
X9889963Y-13452637D01*
X9947437Y-13452637D01*
X10061737Y-7191537D02*
X10061737Y-7134063D01*
X10004263Y-7134063D01*
X10004263Y-7191537D01*
X10061737Y-7191537D01*
X10061737Y-7953537D02*
X10061737Y-7896063D01*
X10004263Y-7896063D01*
X10004263Y-7953537D01*
X10061737Y-7953537D01*
X10061737Y-8410737D02*
X10061737Y-8353263D01*
X10004263Y-8353263D01*
X10004263Y-8410737D01*
X10061737Y-8410737D01*
X10061737Y-9172737D02*
X10061737Y-9115263D01*
X10004263Y-9115263D01*
X10004263Y-9172737D01*
X10061737Y-9172737D01*
X10315737Y-7191537D02*
X10315737Y-7134063D01*
X10258263Y-7134063D01*
X10258263Y-7191537D01*
X10315737Y-7191537D01*
X10315737Y-7953537D02*
X10315737Y-7896063D01*
X10258263Y-7896063D01*
X10258263Y-7953537D01*
X10315737Y-7953537D01*
X10315737Y-8410737D02*
X10315737Y-8353263D01*
X10258263Y-8353263D01*
X10258263Y-8410737D01*
X10315737Y-8410737D01*
X10315737Y-9172737D02*
X10315737Y-9115263D01*
X10258263Y-9115263D01*
X10258263Y-9172737D01*
X10315737Y-9172737D01*
X10569737Y-8410737D02*
X10569737Y-8353263D01*
X10512263Y-8353263D01*
X10512263Y-8410737D01*
X10569737Y-8410737D01*
X10569737Y-9172737D02*
X10569737Y-9115263D01*
X10512263Y-9115263D01*
X10512263Y-9172737D01*
X10569737Y-9172737D01*
X10645937Y-7191537D02*
X10645937Y-7134063D01*
X10588463Y-7134063D01*
X10588463Y-7191537D01*
X10645937Y-7191537D01*
X10645937Y-7953537D02*
X10645937Y-7896063D01*
X10588463Y-7896063D01*
X10588463Y-7953537D01*
X10645937Y-7953537D01*
X10823737Y-8410737D02*
X10823737Y-8353263D01*
X10766263Y-8353263D01*
X10766263Y-8410737D01*
X10823737Y-8410737D01*
X10823737Y-9172737D02*
X10823737Y-9115263D01*
X10766263Y-9115263D01*
X10766263Y-9172737D01*
X10823737Y-9172737D01*
X10899937Y-7191537D02*
X10899937Y-7134063D01*
X10842463Y-7134063D01*
X10842463Y-7191537D01*
X10899937Y-7191537D01*
X10899937Y-7953537D02*
X10899937Y-7896063D01*
X10842463Y-7896063D01*
X10842463Y-7953537D01*
X10899937Y-7953537D01*
X11077737Y-8410737D02*
X11077737Y-8353263D01*
X11020263Y-8353263D01*
X11020263Y-8410737D01*
X11077737Y-8410737D01*
X11077737Y-9172737D02*
X11077737Y-9115263D01*
X11020263Y-9115263D01*
X11020263Y-9172737D01*
X11077737Y-9172737D01*
X11128537Y-11420637D02*
X11128537Y-11363163D01*
X11071063Y-11363163D01*
X11071063Y-11420637D01*
X11128537Y-11420637D01*
X11128537Y-11674637D02*
X11128537Y-11617163D01*
X11071063Y-11617163D01*
X11071063Y-11674637D01*
X11128537Y-11674637D01*
X11128537Y-11928637D02*
X11128537Y-11871163D01*
X11071063Y-11871163D01*
X11071063Y-11928637D01*
X11128537Y-11928637D01*
X11128537Y-12182637D02*
X11128537Y-12125163D01*
X11071063Y-12125163D01*
X11071063Y-12182637D01*
X11128537Y-12182637D01*
X11128537Y-12436637D02*
X11128537Y-12379163D01*
X11071063Y-12379163D01*
X11071063Y-12436637D01*
X11128537Y-12436637D01*
X11128537Y-12690637D02*
X11128537Y-12633163D01*
X11071063Y-12633163D01*
X11071063Y-12690637D01*
X11128537Y-12690637D01*
X11128537Y-12944637D02*
X11128537Y-12887163D01*
X11071063Y-12887163D01*
X11071063Y-12944637D01*
X11128537Y-12944637D01*
X11128537Y-13198637D02*
X11128537Y-13141163D01*
X11071063Y-13141163D01*
X11071063Y-13198637D01*
X11128537Y-13198637D01*
X11128537Y-13452637D02*
X11128537Y-13395163D01*
X11071063Y-13395163D01*
X11071063Y-13452637D01*
X11128537Y-13452637D01*
X11128537Y-13706637D02*
X11128537Y-13649163D01*
X11071063Y-13649163D01*
X11071063Y-13706637D01*
X11128537Y-13706637D01*
X11636537Y-10963437D02*
X11636537Y-10905963D01*
X11579063Y-10905963D01*
X11579063Y-10963437D01*
X11636537Y-10963437D01*
X11674637Y-8410737D02*
X11674637Y-8353263D01*
X11617163Y-8353263D01*
X11617163Y-8410737D01*
X11674637Y-8410737D01*
X11674637Y-8664737D02*
X11674637Y-8607263D01*
X11617163Y-8607263D01*
X11617163Y-8664737D01*
X11674637Y-8664737D01*
X11890537Y-10963437D02*
X11890537Y-10905963D01*
X11833063Y-10905963D01*
X11833063Y-10963437D01*
X11890537Y-10963437D01*
X11890537Y-11420637D02*
X11890537Y-11363163D01*
X11833063Y-11363163D01*
X11833063Y-11420637D01*
X11890537Y-11420637D01*
X11890537Y-11674637D02*
X11890537Y-11617163D01*
X11833063Y-11617163D01*
X11833063Y-11674637D01*
X11890537Y-11674637D01*
X11890537Y-11928637D02*
X11890537Y-11871163D01*
X11833063Y-11871163D01*
X11833063Y-11928637D01*
X11890537Y-11928637D01*
X11890537Y-12182637D02*
X11890537Y-12125163D01*
X11833063Y-12125163D01*
X11833063Y-12182637D01*
X11890537Y-12182637D01*
X11890537Y-12436637D02*
X11890537Y-12379163D01*
X11833063Y-12379163D01*
X11833063Y-12436637D01*
X11890537Y-12436637D01*
X11890537Y-12690637D02*
X11890537Y-12633163D01*
X11833063Y-12633163D01*
X11833063Y-12690637D01*
X11890537Y-12690637D01*
X11890537Y-12944637D02*
X11890537Y-12887163D01*
X11833063Y-12887163D01*
X11833063Y-12944637D01*
X11890537Y-12944637D01*
X11890537Y-13198637D02*
X11890537Y-13141163D01*
X11833063Y-13141163D01*
X11833063Y-13198637D01*
X11890537Y-13198637D01*
X11890537Y-13452637D02*
X11890537Y-13395163D01*
X11833063Y-13395163D01*
X11833063Y-13452637D01*
X11890537Y-13452637D01*
X11890537Y-13706637D02*
X11890537Y-13649163D01*
X11833063Y-13649163D01*
X11833063Y-13706637D01*
X11890537Y-13706637D01*
X12119137Y-6810537D02*
X12119137Y-6753063D01*
X12061663Y-6753063D01*
X12061663Y-6810537D01*
X12119137Y-6810537D01*
X12119137Y-7191537D02*
X12119137Y-7134063D01*
X12061663Y-7134063D01*
X12061663Y-7191537D01*
X12119137Y-7191537D01*
X12119137Y-7953537D02*
X12119137Y-7896063D01*
X12061663Y-7896063D01*
X12061663Y-7953537D01*
X12119137Y-7953537D01*
X12119137Y-8410737D02*
X12119137Y-8353263D01*
X12061663Y-8353263D01*
X12061663Y-8410737D01*
X12119137Y-8410737D01*
X12119137Y-9172737D02*
X12119137Y-9115263D01*
X12061663Y-9115263D01*
X12061663Y-9172737D01*
X12119137Y-9172737D01*
X12373137Y-6810537D02*
X12373137Y-6753063D01*
X12315663Y-6753063D01*
X12315663Y-6810537D01*
X12373137Y-6810537D01*
X12373137Y-7191537D02*
X12373137Y-7134063D01*
X12315663Y-7134063D01*
X12315663Y-7191537D01*
X12373137Y-7191537D01*
X12373137Y-7953537D02*
X12373137Y-7896063D01*
X12315663Y-7896063D01*
X12315663Y-7953537D01*
X12373137Y-7953537D01*
X12373137Y-8410737D02*
X12373137Y-8353263D01*
X12315663Y-8353263D01*
X12315663Y-8410737D01*
X12373137Y-8410737D01*
X12373137Y-9172737D02*
X12373137Y-9115263D01*
X12315663Y-9115263D01*
X12315663Y-9172737D01*
X12373137Y-9172737D01*
X12449337Y-11420637D02*
X12449337Y-11363163D01*
X12391863Y-11363163D01*
X12391863Y-11420637D01*
X12449337Y-11420637D01*
X12449337Y-11674637D02*
X12449337Y-11617163D01*
X12391863Y-11617163D01*
X12391863Y-11674637D01*
X12449337Y-11674637D01*
X12449337Y-11928637D02*
X12449337Y-11871163D01*
X12391863Y-11871163D01*
X12391863Y-11928637D01*
X12449337Y-11928637D01*
X12449337Y-12182637D02*
X12449337Y-12125163D01*
X12391863Y-12125163D01*
X12391863Y-12182637D01*
X12449337Y-12182637D01*
X12449337Y-12436637D02*
X12449337Y-12379163D01*
X12391863Y-12379163D01*
X12391863Y-12436637D01*
X12449337Y-12436637D01*
X12449337Y-12690637D02*
X12449337Y-12633163D01*
X12391863Y-12633163D01*
X12391863Y-12690637D01*
X12449337Y-12690637D01*
X12449337Y-12944637D02*
X12449337Y-12887163D01*
X12391863Y-12887163D01*
X12391863Y-12944637D01*
X12449337Y-12944637D01*
X12449337Y-13198637D02*
X12449337Y-13141163D01*
X12391863Y-13141163D01*
X12391863Y-13198637D01*
X12449337Y-13198637D01*
X12449337Y-13452637D02*
X12449337Y-13395163D01*
X12391863Y-13395163D01*
X12391863Y-13452637D01*
X12449337Y-13452637D01*
X12449337Y-13706637D02*
X12449337Y-13649163D01*
X12391863Y-13649163D01*
X12391863Y-13706637D01*
X12449337Y-13706637D01*
X12627137Y-7191537D02*
X12627137Y-7134063D01*
X12569663Y-7134063D01*
X12569663Y-7191537D01*
X12627137Y-7191537D01*
X12627137Y-7953537D02*
X12627137Y-7896063D01*
X12569663Y-7896063D01*
X12569663Y-7953537D01*
X12627137Y-7953537D01*
X12627137Y-8410737D02*
X12627137Y-8353263D01*
X12569663Y-8353263D01*
X12569663Y-8410737D01*
X12627137Y-8410737D01*
X12627137Y-9172737D02*
X12627137Y-9115263D01*
X12569663Y-9115263D01*
X12569663Y-9172737D01*
X12627137Y-9172737D01*
X12881137Y-7191537D02*
X12881137Y-7134063D01*
X12823663Y-7134063D01*
X12823663Y-7191537D01*
X12881137Y-7191537D01*
X12881137Y-7953537D02*
X12881137Y-7896063D01*
X12823663Y-7896063D01*
X12823663Y-7953537D01*
X12881137Y-7953537D01*
X12881137Y-8410737D02*
X12881137Y-8353263D01*
X12823663Y-8353263D01*
X12823663Y-8410737D01*
X12881137Y-8410737D01*
X12881137Y-9172737D02*
X12881137Y-9115263D01*
X12823663Y-9115263D01*
X12823663Y-9172737D01*
X12881137Y-9172737D01*
X13135137Y-7191537D02*
X13135137Y-7134063D01*
X13077663Y-7134063D01*
X13077663Y-7191537D01*
X13135137Y-7191537D01*
X13135137Y-7953537D02*
X13135137Y-7896063D01*
X13077663Y-7896063D01*
X13077663Y-7953537D01*
X13135137Y-7953537D01*
X13135137Y-8410737D02*
X13135137Y-8353263D01*
X13077663Y-8353263D01*
X13077663Y-8410737D01*
X13135137Y-8410737D01*
X13135137Y-9172737D02*
X13135137Y-9115263D01*
X13077663Y-9115263D01*
X13077663Y-9172737D01*
X13135137Y-9172737D01*
X13211337Y-10963437D02*
X13211337Y-10905963D01*
X13153863Y-10905963D01*
X13153863Y-10963437D01*
X13211337Y-10963437D01*
X13211337Y-11420637D02*
X13211337Y-11363163D01*
X13153863Y-11363163D01*
X13153863Y-11420637D01*
X13211337Y-11420637D01*
X13211337Y-11674637D02*
X13211337Y-11617163D01*
X13153863Y-11617163D01*
X13153863Y-11674637D01*
X13211337Y-11674637D01*
X13211337Y-11928637D02*
X13211337Y-11871163D01*
X13153863Y-11871163D01*
X13153863Y-11928637D01*
X13211337Y-11928637D01*
X13211337Y-12182637D02*
X13211337Y-12125163D01*
X13153863Y-12125163D01*
X13153863Y-12182637D01*
X13211337Y-12182637D01*
X13211337Y-12436637D02*
X13211337Y-12379163D01*
X13153863Y-12379163D01*
X13153863Y-12436637D01*
X13211337Y-12436637D01*
X13211337Y-12690637D02*
X13211337Y-12633163D01*
X13153863Y-12633163D01*
X13153863Y-12690637D01*
X13211337Y-12690637D01*
X13211337Y-12944637D02*
X13211337Y-12887163D01*
X13153863Y-12887163D01*
X13153863Y-12944637D01*
X13211337Y-12944637D01*
X13211337Y-13198637D02*
X13211337Y-13141163D01*
X13153863Y-13141163D01*
X13153863Y-13198637D01*
X13211337Y-13198637D01*
X13211337Y-13452637D02*
X13211337Y-13395163D01*
X13153863Y-13395163D01*
X13153863Y-13452637D01*
X13211337Y-13452637D01*
X13211337Y-13706637D02*
X13211337Y-13649163D01*
X13153863Y-13649163D01*
X13153863Y-13706637D01*
X13211337Y-13706637D01*
X13389137Y-7191537D02*
X13389137Y-7134063D01*
X13331663Y-7134063D01*
X13331663Y-7191537D01*
X13389137Y-7191537D01*
X13389137Y-7953537D02*
X13389137Y-7896063D01*
X13331663Y-7896063D01*
X13331663Y-7953537D01*
X13389137Y-7953537D01*
X13389137Y-8410737D02*
X13389137Y-8353263D01*
X13331663Y-8353263D01*
X13331663Y-8410737D01*
X13389137Y-8410737D01*
X13389137Y-9172737D02*
X13389137Y-9115263D01*
X13331663Y-9115263D01*
X13331663Y-9172737D01*
X13389137Y-9172737D01*
X13465337Y-10963437D02*
X13465337Y-10905963D01*
X13407863Y-10905963D01*
X13407863Y-10963437D01*
X13465337Y-10963437D01*
X13643137Y-7191537D02*
X13643137Y-7134063D01*
X13585663Y-7134063D01*
X13585663Y-7191537D01*
X13643137Y-7191537D01*
X13643137Y-7953537D02*
X13643137Y-7896063D01*
X13585663Y-7896063D01*
X13585663Y-7953537D01*
X13643137Y-7953537D01*
X13643137Y-8410737D02*
X13643137Y-8353263D01*
X13585663Y-8353263D01*
X13585663Y-8410737D01*
X13643137Y-8410737D01*
X13643137Y-9172737D02*
X13643137Y-9115263D01*
X13585663Y-9115263D01*
X13585663Y-9172737D01*
X13643137Y-9172737D01*
X13897137Y-7191537D02*
X13897137Y-7134063D01*
X13839663Y-7134063D01*
X13839663Y-7191537D01*
X13897137Y-7191537D01*
X13897137Y-7953537D02*
X13897137Y-7896063D01*
X13839663Y-7896063D01*
X13839663Y-7953537D01*
X13897137Y-7953537D01*
X13897137Y-8410737D02*
X13897137Y-8353263D01*
X13839663Y-8353263D01*
X13839663Y-8410737D01*
X13897137Y-8410737D01*
X13897137Y-9172737D02*
X13897137Y-9115263D01*
X13839663Y-9115263D01*
X13839663Y-9172737D01*
X13897137Y-9172737D01*
X14151137Y-8410737D02*
X14151137Y-8353263D01*
X14093663Y-8353263D01*
X14093663Y-8410737D01*
X14151137Y-8410737D01*
X14151137Y-9172737D02*
X14151137Y-9115263D01*
X14093663Y-9115263D01*
X14093663Y-9172737D01*
X14151137Y-9172737D01*
X14252737Y-10442737D02*
X14252737Y-10385263D01*
X14195263Y-10385263D01*
X14195263Y-10442737D01*
X14252737Y-10442737D01*
X14252737Y-10696737D02*
X14252737Y-10639263D01*
X14195263Y-10639263D01*
X14195263Y-10696737D01*
X14252737Y-10696737D01*
X14252737Y-10950737D02*
X14252737Y-10893263D01*
X14195263Y-10893263D01*
X14195263Y-10950737D01*
X14252737Y-10950737D01*
X14252737Y-11204737D02*
X14252737Y-11147263D01*
X14195263Y-11147263D01*
X14195263Y-11204737D01*
X14252737Y-11204737D01*
X14252737Y-11458737D02*
X14252737Y-11401263D01*
X14195263Y-11401263D01*
X14195263Y-11458737D01*
X14252737Y-11458737D01*
X14252737Y-11712737D02*
X14252737Y-11655263D01*
X14195263Y-11655263D01*
X14195263Y-11712737D01*
X14252737Y-11712737D01*
X14252737Y-11966737D02*
X14252737Y-11909263D01*
X14195263Y-11909263D01*
X14195263Y-11966737D01*
X14252737Y-11966737D01*
X14252737Y-12220737D02*
X14252737Y-12163263D01*
X14195263Y-12163263D01*
X14195263Y-12220737D01*
X14252737Y-12220737D01*
X14252737Y-12474737D02*
X14252737Y-12417263D01*
X14195263Y-12417263D01*
X14195263Y-12474737D01*
X14252737Y-12474737D01*
X14252737Y-12728737D02*
X14252737Y-12671263D01*
X14195263Y-12671263D01*
X14195263Y-12728737D01*
X14252737Y-12728737D01*
X14252737Y-12982737D02*
X14252737Y-12925263D01*
X14195263Y-12925263D01*
X14195263Y-12982737D01*
X14252737Y-12982737D01*
X14252737Y-13236737D02*
X14252737Y-13179263D01*
X14195263Y-13179263D01*
X14195263Y-13236737D01*
X14252737Y-13236737D01*
X14252737Y-13490737D02*
X14252737Y-13433263D01*
X14195263Y-13433263D01*
X14195263Y-13490737D01*
X14252737Y-13490737D01*
X14252737Y-13744737D02*
X14252737Y-13687263D01*
X14195263Y-13687263D01*
X14195263Y-13744737D01*
X14252737Y-13744737D01*
X14328937Y-6988337D02*
X14328937Y-6930863D01*
X14271463Y-6930863D01*
X14271463Y-6988337D01*
X14328937Y-6988337D01*
X14328937Y-7242337D02*
X14328937Y-7184863D01*
X14271463Y-7184863D01*
X14271463Y-7242337D01*
X14328937Y-7242337D01*
X14328937Y-7496337D02*
X14328937Y-7438863D01*
X14271463Y-7438863D01*
X14271463Y-7496337D01*
X14328937Y-7496337D01*
X14328937Y-7750337D02*
X14328937Y-7692863D01*
X14271463Y-7692863D01*
X14271463Y-7750337D01*
X14328937Y-7750337D01*
X14405137Y-8410737D02*
X14405137Y-8353263D01*
X14347663Y-8353263D01*
X14347663Y-8410737D01*
X14405137Y-8410737D01*
X14405137Y-9172737D02*
X14405137Y-9115263D01*
X14347663Y-9115263D01*
X14347663Y-9172737D01*
X14405137Y-9172737D01*
X14506737Y-14125737D02*
X14506737Y-14068263D01*
X14449263Y-14068263D01*
X14449263Y-14125737D01*
X14506737Y-14125737D01*
X14659137Y-8410737D02*
X14659137Y-8353263D01*
X14601663Y-8353263D01*
X14601663Y-8410737D01*
X14659137Y-8410737D01*
X14659137Y-9172737D02*
X14659137Y-9115263D01*
X14601663Y-9115263D01*
X14601663Y-9172737D01*
X14659137Y-9172737D01*
X14913137Y-8410737D02*
X14913137Y-8353263D01*
X14855663Y-8353263D01*
X14855663Y-8410737D01*
X14913137Y-8410737D01*
X14913137Y-9172737D02*
X14913137Y-9115263D01*
X14855663Y-9115263D01*
X14855663Y-9172737D01*
X14913137Y-9172737D01*
X15090937Y-6988337D02*
X15090937Y-6930863D01*
X15033463Y-6930863D01*
X15033463Y-6988337D01*
X15090937Y-6988337D01*
X15090937Y-7242337D02*
X15090937Y-7184863D01*
X15033463Y-7184863D01*
X15033463Y-7242337D01*
X15090937Y-7242337D01*
X15090937Y-7496337D02*
X15090937Y-7438863D01*
X15033463Y-7438863D01*
X15033463Y-7496337D01*
X15090937Y-7496337D01*
X15090937Y-7750337D02*
X15090937Y-7692863D01*
X15033463Y-7692863D01*
X15033463Y-7750337D01*
X15090937Y-7750337D01*
X15268737Y-14125737D02*
X15268737Y-14068263D01*
X15211263Y-14068263D01*
X15211263Y-14125737D01*
X15268737Y-14125737D01*
X15522737Y-7648737D02*
X15522737Y-7591263D01*
X15465263Y-7591263D01*
X15465263Y-7648737D01*
X15522737Y-7648737D01*
X15522737Y-9172737D02*
X15522737Y-9115263D01*
X15465263Y-9115263D01*
X15465263Y-9172737D01*
X15522737Y-9172737D01*
X15522737Y-9934737D02*
X15522737Y-9877263D01*
X15465263Y-9877263D01*
X15465263Y-9934737D01*
X15522737Y-9934737D01*
X15776737Y-7648737D02*
X15776737Y-7591263D01*
X15719263Y-7591263D01*
X15719263Y-7648737D01*
X15776737Y-7648737D01*
X15776737Y-9172737D02*
X15776737Y-9115263D01*
X15719263Y-9115263D01*
X15719263Y-9172737D01*
X15776737Y-9172737D01*
X15776737Y-9934737D02*
X15776737Y-9877263D01*
X15719263Y-9877263D01*
X15719263Y-9934737D01*
X15776737Y-9934737D01*
X15776737Y-10442737D02*
X15776737Y-10385263D01*
X15719263Y-10385263D01*
X15719263Y-10442737D01*
X15776737Y-10442737D01*
X15776737Y-10696737D02*
X15776737Y-10639263D01*
X15719263Y-10639263D01*
X15719263Y-10696737D01*
X15776737Y-10696737D01*
X15776737Y-10950737D02*
X15776737Y-10893263D01*
X15719263Y-10893263D01*
X15719263Y-10950737D01*
X15776737Y-10950737D01*
X15776737Y-11204737D02*
X15776737Y-11147263D01*
X15719263Y-11147263D01*
X15719263Y-11204737D01*
X15776737Y-11204737D01*
X15776737Y-11458737D02*
X15776737Y-11401263D01*
X15719263Y-11401263D01*
X15719263Y-11458737D01*
X15776737Y-11458737D01*
X15776737Y-11712737D02*
X15776737Y-11655263D01*
X15719263Y-11655263D01*
X15719263Y-11712737D01*
X15776737Y-11712737D01*
X15776737Y-11966737D02*
X15776737Y-11909263D01*
X15719263Y-11909263D01*
X15719263Y-11966737D01*
X15776737Y-11966737D01*
X15776737Y-12220737D02*
X15776737Y-12163263D01*
X15719263Y-12163263D01*
X15719263Y-12220737D01*
X15776737Y-12220737D01*
X15776737Y-12474737D02*
X15776737Y-12417263D01*
X15719263Y-12417263D01*
X15719263Y-12474737D01*
X15776737Y-12474737D01*
X15776737Y-12728737D02*
X15776737Y-12671263D01*
X15719263Y-12671263D01*
X15719263Y-12728737D01*
X15776737Y-12728737D01*
X15776737Y-12982737D02*
X15776737Y-12925263D01*
X15719263Y-12925263D01*
X15719263Y-12982737D01*
X15776737Y-12982737D01*
X15776737Y-13236737D02*
X15776737Y-13179263D01*
X15719263Y-13179263D01*
X15719263Y-13236737D01*
X15776737Y-13236737D01*
X15776737Y-13490737D02*
X15776737Y-13433263D01*
X15719263Y-13433263D01*
X15719263Y-13490737D01*
X15776737Y-13490737D01*
X15776737Y-13744737D02*
X15776737Y-13687263D01*
X15719263Y-13687263D01*
X15719263Y-13744737D01*
X15776737Y-13744737D01*
X15776737Y-14125737D02*
X15776737Y-14068263D01*
X15719263Y-14068263D01*
X15719263Y-14125737D01*
X15776737Y-14125737D01*
X16030737Y-7648737D02*
X16030737Y-7591263D01*
X15973263Y-7591263D01*
X15973263Y-7648737D01*
X16030737Y-7648737D01*
X16030737Y-9172737D02*
X16030737Y-9115263D01*
X15973263Y-9115263D01*
X15973263Y-9172737D01*
X16030737Y-9172737D01*
X16030737Y-14125737D02*
X16030737Y-14068263D01*
X15973263Y-14068263D01*
X15973263Y-14125737D01*
X16030737Y-14125737D01*
X16221237Y-5108737D02*
X16221237Y-5051263D01*
X16163763Y-5051263D01*
X16163763Y-5108737D01*
X16221237Y-5108737D01*
X16221237Y-5362737D02*
X16221237Y-5305263D01*
X16163763Y-5305263D01*
X16163763Y-5362737D01*
X16221237Y-5362737D01*
X16284737Y-7648737D02*
X16284737Y-7591263D01*
X16227263Y-7591263D01*
X16227263Y-7648737D01*
X16284737Y-7648737D01*
X16284737Y-9172737D02*
X16284737Y-9115263D01*
X16227263Y-9115263D01*
X16227263Y-9172737D01*
X16284737Y-9172737D01*
X16538737Y-7648737D02*
X16538737Y-7591263D01*
X16481263Y-7591263D01*
X16481263Y-7648737D01*
X16538737Y-7648737D01*
X16538737Y-9172737D02*
X16538737Y-9115263D01*
X16481263Y-9115263D01*
X16481263Y-9172737D01*
X16538737Y-9172737D01*
X16538737Y-10442737D02*
X16538737Y-10385263D01*
X16481263Y-10385263D01*
X16481263Y-10442737D01*
X16538737Y-10442737D01*
X16538737Y-10696737D02*
X16538737Y-10639263D01*
X16481263Y-10639263D01*
X16481263Y-10696737D01*
X16538737Y-10696737D01*
X16538737Y-10950737D02*
X16538737Y-10893263D01*
X16481263Y-10893263D01*
X16481263Y-10950737D01*
X16538737Y-10950737D01*
X16538737Y-11204737D02*
X16538737Y-11147263D01*
X16481263Y-11147263D01*
X16481263Y-11204737D01*
X16538737Y-11204737D01*
X16538737Y-11458737D02*
X16538737Y-11401263D01*
X16481263Y-11401263D01*
X16481263Y-11458737D01*
X16538737Y-11458737D01*
X16538737Y-11712737D02*
X16538737Y-11655263D01*
X16481263Y-11655263D01*
X16481263Y-11712737D01*
X16538737Y-11712737D01*
X16538737Y-11966737D02*
X16538737Y-11909263D01*
X16481263Y-11909263D01*
X16481263Y-11966737D01*
X16538737Y-11966737D01*
X16538737Y-12220737D02*
X16538737Y-12163263D01*
X16481263Y-12163263D01*
X16481263Y-12220737D01*
X16538737Y-12220737D01*
X16538737Y-12474737D02*
X16538737Y-12417263D01*
X16481263Y-12417263D01*
X16481263Y-12474737D01*
X16538737Y-12474737D01*
X16538737Y-12728737D02*
X16538737Y-12671263D01*
X16481263Y-12671263D01*
X16481263Y-12728737D01*
X16538737Y-12728737D01*
X16538737Y-12982737D02*
X16538737Y-12925263D01*
X16481263Y-12925263D01*
X16481263Y-12982737D01*
X16538737Y-12982737D01*
X16538737Y-13236737D02*
X16538737Y-13179263D01*
X16481263Y-13179263D01*
X16481263Y-13236737D01*
X16538737Y-13236737D01*
X16538737Y-13490737D02*
X16538737Y-13433263D01*
X16481263Y-13433263D01*
X16481263Y-13490737D01*
X16538737Y-13490737D01*
X16538737Y-13744737D02*
X16538737Y-13687263D01*
X16481263Y-13687263D01*
X16481263Y-13744737D01*
X16538737Y-13744737D01*
X16665737Y-5362737D02*
X16665737Y-5305263D01*
X16608263Y-5305263D01*
X16608263Y-5362737D01*
X16665737Y-5362737D01*
X16665737Y-6124737D02*
X16665737Y-6067263D01*
X16608263Y-6067263D01*
X16608263Y-6124737D01*
X16665737Y-6124737D01*
X16792737Y-7648737D02*
X16792737Y-7591263D01*
X16735263Y-7591263D01*
X16735263Y-7648737D01*
X16792737Y-7648737D01*
X16792737Y-9172737D02*
X16792737Y-9115263D01*
X16735263Y-9115263D01*
X16735263Y-9172737D01*
X16792737Y-9172737D01*
X16792737Y-14125737D02*
X16792737Y-14068263D01*
X16735263Y-14068263D01*
X16735263Y-14125737D01*
X16792737Y-14125737D01*
X16919737Y-5362737D02*
X16919737Y-5305263D01*
X16862263Y-5305263D01*
X16862263Y-5362737D01*
X16919737Y-5362737D01*
X16919737Y-6124737D02*
X16919737Y-6067263D01*
X16862263Y-6067263D01*
X16862263Y-6124737D01*
X16919737Y-6124737D01*
X17046737Y-7648737D02*
X17046737Y-7591263D01*
X16989263Y-7591263D01*
X16989263Y-7648737D01*
X17046737Y-7648737D01*
X17046737Y-9172737D02*
X17046737Y-9115263D01*
X16989263Y-9115263D01*
X16989263Y-9172737D01*
X17046737Y-9172737D01*
X17173737Y-5362737D02*
X17173737Y-5305263D01*
X17116263Y-5305263D01*
X17116263Y-5362737D01*
X17173737Y-5362737D01*
X17173737Y-6124737D02*
X17173737Y-6067263D01*
X17116263Y-6067263D01*
X17116263Y-6124737D01*
X17173737Y-6124737D01*
X17300737Y-7648737D02*
X17300737Y-7591263D01*
X17243263Y-7591263D01*
X17243263Y-7648737D01*
X17300737Y-7648737D01*
X17300737Y-8334537D02*
X17300737Y-8277063D01*
X17243263Y-8277063D01*
X17243263Y-8334537D01*
X17300737Y-8334537D01*
X17300737Y-9172737D02*
X17300737Y-9115263D01*
X17243263Y-9115263D01*
X17243263Y-9172737D01*
X17300737Y-9172737D01*
X17427737Y-5362737D02*
X17427737Y-5305263D01*
X17370263Y-5305263D01*
X17370263Y-5362737D01*
X17427737Y-5362737D01*
X17427737Y-6124737D02*
X17427737Y-6067263D01*
X17370263Y-6067263D01*
X17370263Y-6124737D01*
X17427737Y-6124737D01*
X17554737Y-7648737D02*
X17554737Y-7591263D01*
X17497263Y-7591263D01*
X17497263Y-7648737D01*
X17554737Y-7648737D01*
X17554737Y-8334537D02*
X17554737Y-8277063D01*
X17497263Y-8277063D01*
X17497263Y-8334537D01*
X17554737Y-8334537D01*
X17554737Y-9172737D02*
X17554737Y-9115263D01*
X17497263Y-9115263D01*
X17497263Y-9172737D01*
X17554737Y-9172737D01*
X17554737Y-14125737D02*
X17554737Y-14068263D01*
X17497263Y-14068263D01*
X17497263Y-14125737D01*
X17554737Y-14125737D01*
X17681737Y-5362737D02*
X17681737Y-5305263D01*
X17624263Y-5305263D01*
X17624263Y-5362737D01*
X17681737Y-5362737D01*
X17681737Y-6124737D02*
X17681737Y-6067263D01*
X17624263Y-6067263D01*
X17624263Y-6124737D01*
X17681737Y-6124737D01*
X17808737Y-7648737D02*
X17808737Y-7591263D01*
X17751263Y-7591263D01*
X17751263Y-7648737D01*
X17808737Y-7648737D01*
X17808737Y-9172737D02*
X17808737Y-9115263D01*
X17751263Y-9115263D01*
X17751263Y-9172737D01*
X17808737Y-9172737D01*
X17808737Y-9934737D02*
X17808737Y-9877263D01*
X17751263Y-9877263D01*
X17751263Y-9934737D01*
X17808737Y-9934737D01*
X17935737Y-5362737D02*
X17935737Y-5305263D01*
X17878263Y-5305263D01*
X17878263Y-5362737D01*
X17935737Y-5362737D01*
X17935737Y-6124737D02*
X17935737Y-6067263D01*
X17878263Y-6067263D01*
X17878263Y-6124737D01*
X17935737Y-6124737D01*
X18062737Y-7648737D02*
X18062737Y-7591263D01*
X18005263Y-7591263D01*
X18005263Y-7648737D01*
X18062737Y-7648737D01*
X18062737Y-9172737D02*
X18062737Y-9115263D01*
X18005263Y-9115263D01*
X18005263Y-9172737D01*
X18062737Y-9172737D01*
X18062737Y-9934737D02*
X18062737Y-9877263D01*
X18005263Y-9877263D01*
X18005263Y-9934737D01*
X18062737Y-9934737D01*
X18062737Y-10442737D02*
X18062737Y-10385263D01*
X18005263Y-10385263D01*
X18005263Y-10442737D01*
X18062737Y-10442737D01*
X18062737Y-10696737D02*
X18062737Y-10639263D01*
X18005263Y-10639263D01*
X18005263Y-10696737D01*
X18062737Y-10696737D01*
X18062737Y-10950737D02*
X18062737Y-10893263D01*
X18005263Y-10893263D01*
X18005263Y-10950737D01*
X18062737Y-10950737D01*
X18062737Y-11204737D02*
X18062737Y-11147263D01*
X18005263Y-11147263D01*
X18005263Y-11204737D01*
X18062737Y-11204737D01*
X18062737Y-11458737D02*
X18062737Y-11401263D01*
X18005263Y-11401263D01*
X18005263Y-11458737D01*
X18062737Y-11458737D01*
X18062737Y-11712737D02*
X18062737Y-11655263D01*
X18005263Y-11655263D01*
X18005263Y-11712737D01*
X18062737Y-11712737D01*
X18062737Y-11966737D02*
X18062737Y-11909263D01*
X18005263Y-11909263D01*
X18005263Y-11966737D01*
X18062737Y-11966737D01*
X18062737Y-12220737D02*
X18062737Y-12163263D01*
X18005263Y-12163263D01*
X18005263Y-12220737D01*
X18062737Y-12220737D01*
X18062737Y-12474737D02*
X18062737Y-12417263D01*
X18005263Y-12417263D01*
X18005263Y-12474737D01*
X18062737Y-12474737D01*
X18062737Y-12728737D02*
X18062737Y-12671263D01*
X18005263Y-12671263D01*
X18005263Y-12728737D01*
X18062737Y-12728737D01*
X18062737Y-12982737D02*
X18062737Y-12925263D01*
X18005263Y-12925263D01*
X18005263Y-12982737D01*
X18062737Y-12982737D01*
X18062737Y-13236737D02*
X18062737Y-13179263D01*
X18005263Y-13179263D01*
X18005263Y-13236737D01*
X18062737Y-13236737D01*
X18062737Y-13490737D02*
X18062737Y-13433263D01*
X18005263Y-13433263D01*
X18005263Y-13490737D01*
X18062737Y-13490737D01*
X18062737Y-13744737D02*
X18062737Y-13687263D01*
X18005263Y-13687263D01*
X18005263Y-13744737D01*
X18062737Y-13744737D01*
X18062737Y-14125737D02*
X18062737Y-14068263D01*
X18005263Y-14068263D01*
X18005263Y-14125737D01*
X18062737Y-14125737D01*
X18189737Y-5362737D02*
X18189737Y-5305263D01*
X18132263Y-5305263D01*
X18132263Y-5362737D01*
X18189737Y-5362737D01*
X18189737Y-6124737D02*
X18189737Y-6067263D01*
X18132263Y-6067263D01*
X18132263Y-6124737D01*
X18189737Y-6124737D01*
X18316737Y-7648737D02*
X18316737Y-7591263D01*
X18259263Y-7591263D01*
X18259263Y-7648737D01*
X18316737Y-7648737D01*
X18316737Y-9172737D02*
X18316737Y-9115263D01*
X18259263Y-9115263D01*
X18259263Y-9172737D01*
X18316737Y-9172737D01*
X18316737Y-14125737D02*
X18316737Y-14068263D01*
X18259263Y-14068263D01*
X18259263Y-14125737D01*
X18316737Y-14125737D01*
X18570737Y-7648737D02*
X18570737Y-7591263D01*
X18513263Y-7591263D01*
X18513263Y-7648737D01*
X18570737Y-7648737D01*
X18570737Y-9172737D02*
X18570737Y-9115263D01*
X18513263Y-9115263D01*
X18513263Y-9172737D01*
X18570737Y-9172737D01*
X18824737Y-7648737D02*
X18824737Y-7591263D01*
X18767263Y-7591263D01*
X18767263Y-7648737D01*
X18824737Y-7648737D01*
X18824737Y-9172737D02*
X18824737Y-9115263D01*
X18767263Y-9115263D01*
X18767263Y-9172737D01*
X18824737Y-9172737D01*
X18824737Y-10442737D02*
X18824737Y-10385263D01*
X18767263Y-10385263D01*
X18767263Y-10442737D01*
X18824737Y-10442737D01*
X18824737Y-10696737D02*
X18824737Y-10639263D01*
X18767263Y-10639263D01*
X18767263Y-10696737D01*
X18824737Y-10696737D01*
X18824737Y-10950737D02*
X18824737Y-10893263D01*
X18767263Y-10893263D01*
X18767263Y-10950737D01*
X18824737Y-10950737D01*
X18824737Y-11204737D02*
X18824737Y-11147263D01*
X18767263Y-11147263D01*
X18767263Y-11204737D01*
X18824737Y-11204737D01*
X18824737Y-11458737D02*
X18824737Y-11401263D01*
X18767263Y-11401263D01*
X18767263Y-11458737D01*
X18824737Y-11458737D01*
X18824737Y-11712737D02*
X18824737Y-11655263D01*
X18767263Y-11655263D01*
X18767263Y-11712737D01*
X18824737Y-11712737D01*
X18824737Y-11966737D02*
X18824737Y-11909263D01*
X18767263Y-11909263D01*
X18767263Y-11966737D01*
X18824737Y-11966737D01*
X18824737Y-12220737D02*
X18824737Y-12163263D01*
X18767263Y-12163263D01*
X18767263Y-12220737D01*
X18824737Y-12220737D01*
X18824737Y-12474737D02*
X18824737Y-12417263D01*
X18767263Y-12417263D01*
X18767263Y-12474737D01*
X18824737Y-12474737D01*
X18824737Y-12728737D02*
X18824737Y-12671263D01*
X18767263Y-12671263D01*
X18767263Y-12728737D01*
X18824737Y-12728737D01*
X18824737Y-12982737D02*
X18824737Y-12925263D01*
X18767263Y-12925263D01*
X18767263Y-12982737D01*
X18824737Y-12982737D01*
X18824737Y-13236737D02*
X18824737Y-13179263D01*
X18767263Y-13179263D01*
X18767263Y-13236737D01*
X18824737Y-13236737D01*
X18824737Y-13490737D02*
X18824737Y-13433263D01*
X18767263Y-13433263D01*
X18767263Y-13490737D01*
X18824737Y-13490737D01*
X18824737Y-13744737D02*
X18824737Y-13687263D01*
X18767263Y-13687263D01*
X18767263Y-13744737D01*
X18824737Y-13744737D01*
X19078737Y-7648737D02*
X19078737Y-7591263D01*
X19021263Y-7591263D01*
X19021263Y-7648737D01*
X19078737Y-7648737D01*
X19078737Y-9172737D02*
X19078737Y-9115263D01*
X19021263Y-9115263D01*
X19021263Y-9172737D01*
X19078737Y-9172737D01*
X19078737Y-14125737D02*
X19078737Y-14068263D01*
X19021263Y-14068263D01*
X19021263Y-14125737D01*
X19078737Y-14125737D01*
X19332737Y-7648737D02*
X19332737Y-7591263D01*
X19275263Y-7591263D01*
X19275263Y-7648737D01*
X19332737Y-7648737D01*
X19332737Y-9172737D02*
X19332737Y-9115263D01*
X19275263Y-9115263D01*
X19275263Y-9172737D01*
X19332737Y-9172737D01*
X19586737Y-7648737D02*
X19586737Y-7591263D01*
X19529263Y-7591263D01*
X19529263Y-7648737D01*
X19586737Y-7648737D01*
X19586737Y-9172737D02*
X19586737Y-9115263D01*
X19529263Y-9115263D01*
X19529263Y-9172737D01*
X19586737Y-9172737D01*
X19840737Y-7648737D02*
X19840737Y-7591263D01*
X19783263Y-7591263D01*
X19783263Y-7648737D01*
X19840737Y-7648737D01*
X19840737Y-9172737D02*
X19840737Y-9115263D01*
X19783263Y-9115263D01*
X19783263Y-9172737D01*
X19840737Y-9172737D01*
X19840737Y-9934737D02*
X19840737Y-9877263D01*
X19783263Y-9877263D01*
X19783263Y-9934737D01*
X19840737Y-9934737D01*
X19840737Y-14125737D02*
X19840737Y-14068263D01*
X19783263Y-14068263D01*
X19783263Y-14125737D01*
X19840737Y-14125737D01*
X20094737Y-7648737D02*
X20094737Y-7591263D01*
X20037263Y-7591263D01*
X20037263Y-7648737D01*
X20094737Y-7648737D01*
X20094737Y-9172737D02*
X20094737Y-9115263D01*
X20037263Y-9115263D01*
X20037263Y-9172737D01*
X20094737Y-9172737D01*
X20094737Y-9934737D02*
X20094737Y-9877263D01*
X20037263Y-9877263D01*
X20037263Y-9934737D01*
X20094737Y-9934737D01*
X20348737Y-7648737D02*
X20348737Y-7591263D01*
X20291263Y-7591263D01*
X20291263Y-7648737D01*
X20348737Y-7648737D01*
X20348737Y-9172737D02*
X20348737Y-9115263D01*
X20291263Y-9115263D01*
X20291263Y-9172737D01*
X20348737Y-9172737D01*
X20348737Y-10442737D02*
X20348737Y-10385263D01*
X20291263Y-10385263D01*
X20291263Y-10442737D01*
X20348737Y-10442737D01*
X20348737Y-10696737D02*
X20348737Y-10639263D01*
X20291263Y-10639263D01*
X20291263Y-10696737D01*
X20348737Y-10696737D01*
X20348737Y-10950737D02*
X20348737Y-10893263D01*
X20291263Y-10893263D01*
X20291263Y-10950737D01*
X20348737Y-10950737D01*
X20348737Y-11204737D02*
X20348737Y-11147263D01*
X20291263Y-11147263D01*
X20291263Y-11204737D01*
X20348737Y-11204737D01*
X20348737Y-11458737D02*
X20348737Y-11401263D01*
X20291263Y-11401263D01*
X20291263Y-11458737D01*
X20348737Y-11458737D01*
X20348737Y-11712737D02*
X20348737Y-11655263D01*
X20291263Y-11655263D01*
X20291263Y-11712737D01*
X20348737Y-11712737D01*
X20348737Y-11966737D02*
X20348737Y-11909263D01*
X20291263Y-11909263D01*
X20291263Y-11966737D01*
X20348737Y-11966737D01*
X20348737Y-12220737D02*
X20348737Y-12163263D01*
X20291263Y-12163263D01*
X20291263Y-12220737D01*
X20348737Y-12220737D01*
X20348737Y-12474737D02*
X20348737Y-12417263D01*
X20291263Y-12417263D01*
X20291263Y-12474737D01*
X20348737Y-12474737D01*
X20348737Y-12728737D02*
X20348737Y-12671263D01*
X20291263Y-12671263D01*
X20291263Y-12728737D01*
X20348737Y-12728737D01*
X20348737Y-12982737D02*
X20348737Y-12925263D01*
X20291263Y-12925263D01*
X20291263Y-12982737D01*
X20348737Y-12982737D01*
X20348737Y-13236737D02*
X20348737Y-13179263D01*
X20291263Y-13179263D01*
X20291263Y-13236737D01*
X20348737Y-13236737D01*
X20348737Y-13490737D02*
X20348737Y-13433263D01*
X20291263Y-13433263D01*
X20291263Y-13490737D01*
X20348737Y-13490737D01*
X20348737Y-13744737D02*
X20348737Y-13687263D01*
X20291263Y-13687263D01*
X20291263Y-13744737D01*
X20348737Y-13744737D01*
X20348737Y-14125737D02*
X20348737Y-14068263D01*
X20291263Y-14068263D01*
X20291263Y-14125737D01*
X20348737Y-14125737D01*
X20602737Y-14125737D02*
X20602737Y-14068263D01*
X20545263Y-14068263D01*
X20545263Y-14125737D01*
X20602737Y-14125737D01*
X18796000Y-5511038D02*
X18846038Y-5461000D01*
X18796000Y-5410962D01*
X18745962Y-5461000D01*
X18796000Y-5511038D01*
X18796000Y-6273038D02*
X18846038Y-6223000D01*
X18796000Y-6172962D01*
X18745962Y-6223000D01*
X18796000Y-6273038D01*
X20320000Y-5511038D02*
X20370038Y-5461000D01*
X20320000Y-5410962D01*
X20269962Y-5461000D01*
X20320000Y-5511038D01*
X20320000Y-6273038D02*
X20370038Y-6223000D01*
X20320000Y-6172962D01*
X20269962Y-6223000D01*
X20320000Y-6273038D01*
X7315200Y-6172200D02*
X7416800Y-6273800D01*
X7416800Y-6172200D02*
X7315200Y-6273800D01*
X7416800Y-6223000D02*
G75*
G03X7416800Y-6223000I-50800J0D01*
G01*
X7315200Y-6426200D02*
X7416800Y-6527800D01*
X7416800Y-6426200D02*
X7315200Y-6527800D01*
X7416800Y-6477000D02*
G75*
G03X7416800Y-6477000I-50800J0D01*
G01*
X7315200Y-6680200D02*
X7416800Y-6781800D01*
X7416800Y-6680200D02*
X7315200Y-6781800D01*
X7416800Y-6731000D02*
G75*
G03X7416800Y-6731000I-50800J0D01*
G01*
X7315200Y-6934200D02*
X7416800Y-7035800D01*
X7416800Y-6934200D02*
X7315200Y-7035800D01*
X7416800Y-6985000D02*
G75*
G03X7416800Y-6985000I-50800J0D01*
G01*
X10388600Y-11595100D02*
X10490200Y-11696700D01*
X10490200Y-11595100D02*
X10388600Y-11696700D01*
X10490200Y-11645900D02*
G75*
G03X10490200Y-11645900I-50800J0D01*
G01*
X10388600Y-11849100D02*
X10490200Y-11950700D01*
X10490200Y-11849100D02*
X10388600Y-11950700D01*
X10490200Y-11899900D02*
G75*
G03X10490200Y-11899900I-50800J0D01*
G01*
X10388600Y-12103100D02*
X10490200Y-12204700D01*
X10490200Y-12103100D02*
X10388600Y-12204700D01*
X10490200Y-12153900D02*
G75*
G03X10490200Y-12153900I-50800J0D01*
G01*
X10388600Y-12357100D02*
X10490200Y-12458700D01*
X10490200Y-12357100D02*
X10388600Y-12458700D01*
X10490200Y-12407900D02*
G75*
G03X10490200Y-12407900I-50800J0D01*
G01*
X10388600Y-12611100D02*
X10490200Y-12712700D01*
X10490200Y-12611100D02*
X10388600Y-12712700D01*
X10490200Y-12661900D02*
G75*
G03X10490200Y-12661900I-50800J0D01*
G01*
X10388600Y-12865100D02*
X10490200Y-12966700D01*
X10490200Y-12865100D02*
X10388600Y-12966700D01*
X10490200Y-12915900D02*
G75*
G03X10490200Y-12915900I-50800J0D01*
G01*
X10388600Y-13119100D02*
X10490200Y-13220700D01*
X10490200Y-13119100D02*
X10388600Y-13220700D01*
X10490200Y-13169900D02*
G75*
G03X10490200Y-13169900I-50800J0D01*
G01*
X10388600Y-13373100D02*
X10490200Y-13474700D01*
X10490200Y-13373100D02*
X10388600Y-13474700D01*
X10490200Y-13423900D02*
G75*
G03X10490200Y-13423900I-50800J0D01*
G01*
X14757400Y-6375400D02*
X14859000Y-6477000D01*
X14859000Y-6375400D02*
X14757400Y-6477000D01*
X14859000Y-6426200D02*
G75*
G03X14859000Y-6426200I-50800J0D01*
G01*
X14757400Y-6629400D02*
X14859000Y-6731000D01*
X14859000Y-6629400D02*
X14757400Y-6731000D01*
X14859000Y-6680200D02*
G75*
G03X14859000Y-6680200I-50800J0D01*
G01*
X15011400Y-6375400D02*
X15113000Y-6477000D01*
X15113000Y-6375400D02*
X15011400Y-6477000D01*
X15113000Y-6426200D02*
G75*
G03X15113000Y-6426200I-50800J0D01*
G01*
X15011400Y-6629400D02*
X15113000Y-6731000D01*
X15113000Y-6629400D02*
X15011400Y-6731000D01*
X15113000Y-6680200D02*
G75*
G03X15113000Y-6680200I-50800J0D01*
G01*
X15697200Y-7061200D02*
X15798800Y-7162800D01*
X15798800Y-7061200D02*
X15697200Y-7162800D01*
X15798800Y-7112000D02*
G75*
G03X15798800Y-7112000I-50800J0D01*
G01*
X15951200Y-7061200D02*
X16052800Y-7162800D01*
X16052800Y-7061200D02*
X15951200Y-7162800D01*
X16052800Y-7112000D02*
G75*
G03X16052800Y-7112000I-50800J0D01*
G01*
X16205200Y-7061200D02*
X16306800Y-7162800D01*
X16306800Y-7061200D02*
X16205200Y-7162800D01*
X16306800Y-7112000D02*
G75*
G03X16306800Y-7112000I-50800J0D01*
G01*
X17094200Y-6426200D02*
X17195800Y-6527800D01*
X17195800Y-6426200D02*
X17094200Y-6527800D01*
X17195800Y-6477000D02*
G75*
G03X17195800Y-6477000I-50800J0D01*
G01*
X17094200Y-6680200D02*
X17195800Y-6781800D01*
X17195800Y-6680200D02*
X17094200Y-6781800D01*
X17195800Y-6731000D02*
G75*
G03X17195800Y-6731000I-50800J0D01*
G01*
X17348200Y-6426200D02*
X17449800Y-6527800D01*
X17449800Y-6426200D02*
X17348200Y-6527800D01*
X17449800Y-6477000D02*
G75*
G03X17449800Y-6477000I-50800J0D01*
G01*
X17348200Y-6680200D02*
X17449800Y-6781800D01*
X17449800Y-6680200D02*
X17348200Y-6781800D01*
X17449800Y-6731000D02*
G75*
G03X17449800Y-6731000I-50800J0D01*
G01*
X17602200Y-6426200D02*
X17703800Y-6527800D01*
X17703800Y-6426200D02*
X17602200Y-6527800D01*
X17703800Y-6477000D02*
G75*
G03X17703800Y-6477000I-50800J0D01*
G01*
X17602200Y-6680200D02*
X17703800Y-6781800D01*
X17703800Y-6680200D02*
X17602200Y-6781800D01*
X17703800Y-6731000D02*
G75*
G03X17703800Y-6731000I-50800J0D01*
G01*
X17856200Y-6426200D02*
X17957800Y-6527800D01*
X17957800Y-6426200D02*
X17856200Y-6527800D01*
X17957800Y-6477000D02*
G75*
G03X17957800Y-6477000I-50800J0D01*
G01*
X17856200Y-6680200D02*
X17957800Y-6781800D01*
X17957800Y-6680200D02*
X17856200Y-6781800D01*
X17957800Y-6731000D02*
G75*
G03X17957800Y-6731000I-50800J0D01*
G01*
X21475700Y-6489700D02*
X21577300Y-6591300D01*
X21577300Y-6489700D02*
X21475700Y-6591300D01*
X21577300Y-6540500D02*
G75*
G03X21577300Y-6540500I-50800J0D01*
G01*
X21475700Y-6743700D02*
X21577300Y-6845300D01*
X21577300Y-6743700D02*
X21475700Y-6845300D01*
X21577300Y-6794500D02*
G75*
G03X21577300Y-6794500I-50800J0D01*
G01*
X21475700Y-6997700D02*
X21577300Y-7099300D01*
X21577300Y-6997700D02*
X21475700Y-7099300D01*
X21577300Y-7048500D02*
G75*
G03X21577300Y-7048500I-50800J0D01*
G01*
X21475700Y-7251700D02*
X21577300Y-7353300D01*
X21577300Y-7251700D02*
X21475700Y-7353300D01*
X21577300Y-7302500D02*
G75*
G03X21577300Y-7302500I-50800J0D01*
G01*
X21475700Y-7505700D02*
X21577300Y-7607300D01*
X21577300Y-7505700D02*
X21475700Y-7607300D01*
X21577300Y-7556500D02*
G75*
G03X21577300Y-7556500I-50800J0D01*
G01*
X21475700Y-7759700D02*
X21577300Y-7861300D01*
X21577300Y-7759700D02*
X21475700Y-7861300D01*
X21577300Y-7810500D02*
G75*
G03X21577300Y-7810500I-50800J0D01*
G01*
X21475700Y-8013700D02*
X21577300Y-8115300D01*
X21577300Y-8013700D02*
X21475700Y-8115300D01*
X21577300Y-8064500D02*
G75*
G03X21577300Y-8064500I-50800J0D01*
G01*
X21475700Y-8267700D02*
X21577300Y-8369300D01*
X21577300Y-8267700D02*
X21475700Y-8369300D01*
X21577300Y-8318500D02*
G75*
G03X21577300Y-8318500I-50800J0D01*
G01*
X21475700Y-8521700D02*
X21577300Y-8623300D01*
X21577300Y-8521700D02*
X21475700Y-8623300D01*
X21577300Y-8572500D02*
G75*
G03X21577300Y-8572500I-50800J0D01*
G01*
X21475700Y-8775700D02*
X21577300Y-8877300D01*
X21577300Y-8775700D02*
X21475700Y-8877300D01*
X21577300Y-8826500D02*
G75*
G03X21577300Y-8826500I-50800J0D01*
G01*
X21475700Y-9029700D02*
X21577300Y-9131300D01*
X21577300Y-9029700D02*
X21475700Y-9131300D01*
X21577300Y-9080500D02*
G75*
G03X21577300Y-9080500I-50800J0D01*
G01*
X21475700Y-9283700D02*
X21577300Y-9385300D01*
X21577300Y-9283700D02*
X21475700Y-9385300D01*
X21577300Y-9334500D02*
G75*
G03X21577300Y-9334500I-50800J0D01*
G01*
X21475700Y-9537700D02*
X21577300Y-9639300D01*
X21577300Y-9537700D02*
X21475700Y-9639300D01*
X21577300Y-9588500D02*
G75*
G03X21577300Y-9588500I-50800J0D01*
G01*
X21475700Y-9791700D02*
X21577300Y-9893300D01*
X21577300Y-9791700D02*
X21475700Y-9893300D01*
X21577300Y-9842500D02*
G75*
G03X21577300Y-9842500I-50800J0D01*
G01*
X21475700Y-10045700D02*
X21577300Y-10147300D01*
X21577300Y-10045700D02*
X21475700Y-10147300D01*
X21577300Y-10096500D02*
G75*
G03X21577300Y-10096500I-50800J0D01*
G01*
X21475700Y-10299700D02*
X21577300Y-10401300D01*
X21577300Y-10299700D02*
X21475700Y-10401300D01*
X21577300Y-10350500D02*
G75*
G03X21577300Y-10350500I-50800J0D01*
G01*
X21475700Y-10553700D02*
X21577300Y-10655300D01*
X21577300Y-10553700D02*
X21475700Y-10655300D01*
X21577300Y-10604500D02*
G75*
G03X21577300Y-10604500I-50800J0D01*
G01*
X21475700Y-10807700D02*
X21577300Y-10909300D01*
X21577300Y-10807700D02*
X21475700Y-10909300D01*
X21577300Y-10858500D02*
G75*
G03X21577300Y-10858500I-50800J0D01*
G01*
X21475700Y-11061700D02*
X21577300Y-11163300D01*
X21577300Y-11061700D02*
X21475700Y-11163300D01*
X21577300Y-11112500D02*
G75*
G03X21577300Y-11112500I-50800J0D01*
G01*
X21475700Y-11315700D02*
X21577300Y-11417300D01*
X21577300Y-11315700D02*
X21475700Y-11417300D01*
X21577300Y-11366500D02*
G75*
G03X21577300Y-11366500I-50800J0D01*
G01*
X21475700Y-11569700D02*
X21577300Y-11671300D01*
X21577300Y-11569700D02*
X21475700Y-11671300D01*
X21577300Y-11620500D02*
G75*
G03X21577300Y-11620500I-50800J0D01*
G01*
X21475700Y-11823700D02*
X21577300Y-11925300D01*
X21577300Y-11823700D02*
X21475700Y-11925300D01*
X21577300Y-11874500D02*
G75*
G03X21577300Y-11874500I-50800J0D01*
G01*
X21475700Y-12077700D02*
X21577300Y-12179300D01*
X21577300Y-12077700D02*
X21475700Y-12179300D01*
X21577300Y-12128500D02*
G75*
G03X21577300Y-12128500I-50800J0D01*
G01*
X21475700Y-12331700D02*
X21577300Y-12433300D01*
X21577300Y-12331700D02*
X21475700Y-12433300D01*
X21577300Y-12382500D02*
G75*
G03X21577300Y-12382500I-50800J0D01*
G01*
X21475700Y-12585700D02*
X21577300Y-12687300D01*
X21577300Y-12585700D02*
X21475700Y-12687300D01*
X21577300Y-12636500D02*
G75*
G03X21577300Y-12636500I-50800J0D01*
G01*
X21729700Y-6489700D02*
X21831300Y-6591300D01*
X21831300Y-6489700D02*
X21729700Y-6591300D01*
X21831300Y-6540500D02*
G75*
G03X21831300Y-6540500I-50800J0D01*
G01*
X21729700Y-6743700D02*
X21831300Y-6845300D01*
X21831300Y-6743700D02*
X21729700Y-6845300D01*
X21831300Y-6794500D02*
G75*
G03X21831300Y-6794500I-50800J0D01*
G01*
X21729700Y-6997700D02*
X21831300Y-7099300D01*
X21831300Y-6997700D02*
X21729700Y-7099300D01*
X21831300Y-7048500D02*
G75*
G03X21831300Y-7048500I-50800J0D01*
G01*
X21729700Y-7251700D02*
X21831300Y-7353300D01*
X21831300Y-7251700D02*
X21729700Y-7353300D01*
X21831300Y-7302500D02*
G75*
G03X21831300Y-7302500I-50800J0D01*
G01*
X21729700Y-7505700D02*
X21831300Y-7607300D01*
X21831300Y-7505700D02*
X21729700Y-7607300D01*
X21831300Y-7556500D02*
G75*
G03X21831300Y-7556500I-50800J0D01*
G01*
X21729700Y-7759700D02*
X21831300Y-7861300D01*
X21831300Y-7759700D02*
X21729700Y-7861300D01*
X21831300Y-7810500D02*
G75*
G03X21831300Y-7810500I-50800J0D01*
G01*
X21729700Y-8013700D02*
X21831300Y-8115300D01*
X21831300Y-8013700D02*
X21729700Y-8115300D01*
X21831300Y-8064500D02*
G75*
G03X21831300Y-8064500I-50800J0D01*
G01*
X21729700Y-8267700D02*
X21831300Y-8369300D01*
X21831300Y-8267700D02*
X21729700Y-8369300D01*
X21831300Y-8318500D02*
G75*
G03X21831300Y-8318500I-50800J0D01*
G01*
X21729700Y-8521700D02*
X21831300Y-8623300D01*
X21831300Y-8521700D02*
X21729700Y-8623300D01*
X21831300Y-8572500D02*
G75*
G03X21831300Y-8572500I-50800J0D01*
G01*
X21729700Y-8775700D02*
X21831300Y-8877300D01*
X21831300Y-8775700D02*
X21729700Y-8877300D01*
X21831300Y-8826500D02*
G75*
G03X21831300Y-8826500I-50800J0D01*
G01*
X21729700Y-9029700D02*
X21831300Y-9131300D01*
X21831300Y-9029700D02*
X21729700Y-9131300D01*
X21831300Y-9080500D02*
G75*
G03X21831300Y-9080500I-50800J0D01*
G01*
X21729700Y-9283700D02*
X21831300Y-9385300D01*
X21831300Y-9283700D02*
X21729700Y-9385300D01*
X21831300Y-9334500D02*
G75*
G03X21831300Y-9334500I-50800J0D01*
G01*
X21729700Y-9537700D02*
X21831300Y-9639300D01*
X21831300Y-9537700D02*
X21729700Y-9639300D01*
X21831300Y-9588500D02*
G75*
G03X21831300Y-9588500I-50800J0D01*
G01*
X21729700Y-9791700D02*
X21831300Y-9893300D01*
X21831300Y-9791700D02*
X21729700Y-9893300D01*
X21831300Y-9842500D02*
G75*
G03X21831300Y-9842500I-50800J0D01*
G01*
X21729700Y-10045700D02*
X21831300Y-10147300D01*
X21831300Y-10045700D02*
X21729700Y-10147300D01*
X21831300Y-10096500D02*
G75*
G03X21831300Y-10096500I-50800J0D01*
G01*
X21729700Y-10299700D02*
X21831300Y-10401300D01*
X21831300Y-10299700D02*
X21729700Y-10401300D01*
X21831300Y-10350500D02*
G75*
G03X21831300Y-10350500I-50800J0D01*
G01*
X21729700Y-10553700D02*
X21831300Y-10655300D01*
X21831300Y-10553700D02*
X21729700Y-10655300D01*
X21831300Y-10604500D02*
G75*
G03X21831300Y-10604500I-50800J0D01*
G01*
X21729700Y-10807700D02*
X21831300Y-10909300D01*
X21831300Y-10807700D02*
X21729700Y-10909300D01*
X21831300Y-10858500D02*
G75*
G03X21831300Y-10858500I-50800J0D01*
G01*
X21729700Y-11061700D02*
X21831300Y-11163300D01*
X21831300Y-11061700D02*
X21729700Y-11163300D01*
X21831300Y-11112500D02*
G75*
G03X21831300Y-11112500I-50800J0D01*
G01*
X21729700Y-11315700D02*
X21831300Y-11417300D01*
X21831300Y-11315700D02*
X21729700Y-11417300D01*
X21831300Y-11366500D02*
G75*
G03X21831300Y-11366500I-50800J0D01*
G01*
X21729700Y-11569700D02*
X21831300Y-11671300D01*
X21831300Y-11569700D02*
X21729700Y-11671300D01*
X21831300Y-11620500D02*
G75*
G03X21831300Y-11620500I-50800J0D01*
G01*
X21729700Y-11823700D02*
X21831300Y-11925300D01*
X21831300Y-11823700D02*
X21729700Y-11925300D01*
X21831300Y-11874500D02*
G75*
G03X21831300Y-11874500I-50800J0D01*
G01*
X21729700Y-12077700D02*
X21831300Y-12179300D01*
X21831300Y-12077700D02*
X21729700Y-12179300D01*
X21831300Y-12128500D02*
G75*
G03X21831300Y-12128500I-50800J0D01*
G01*
X21729700Y-12331700D02*
X21831300Y-12433300D01*
X21831300Y-12331700D02*
X21729700Y-12433300D01*
X21831300Y-12382500D02*
G75*
G03X21831300Y-12382500I-50800J0D01*
G01*
X21729700Y-12585700D02*
X21831300Y-12687300D01*
X21831300Y-12585700D02*
X21729700Y-12687300D01*
X21831300Y-12636500D02*
G75*
G03X21831300Y-12636500I-50800J0D01*
G01*
X6708013Y-5133213D02*
X7007987Y-5433187D01*
X7007987Y-5133213D02*
X6708013Y-5433187D01*
X6858000Y-5133213D02*
X6858000Y-5433187D01*
X6708013Y-5283200D02*
X7007987Y-5283200D01*
X6708013Y-13743813D02*
X7007987Y-14043787D01*
X7007987Y-13743813D02*
X6708013Y-14043787D01*
X6858000Y-13743813D02*
X6858000Y-14043787D01*
X6708013Y-13893800D02*
X7007987Y-13893800D01*
X21414613Y-5107813D02*
X21714587Y-5407787D01*
X21714587Y-5107813D02*
X21414613Y-5407787D01*
X21564600Y-5107813D02*
X21564600Y-5407787D01*
X21414613Y-5257800D02*
X21714587Y-5257800D01*
X21414613Y-13743813D02*
X21714587Y-14043787D01*
X21714587Y-13743813D02*
X21414613Y-14043787D01*
X21564600Y-13743813D02*
X21564600Y-14043787D01*
X21414613Y-13893800D02*
X21714587Y-13893800D01*
D13*
X6489428Y-15075714D02*
X6489428Y-14775714D01*
X6560857Y-14775714D01*
X6603714Y-14790000D01*
X6632286Y-14818571D01*
X6646571Y-14847143D01*
X6660857Y-14904286D01*
X6660857Y-14947143D01*
X6646571Y-15004286D01*
X6632286Y-15032857D01*
X6603714Y-15061429D01*
X6560857Y-15075714D01*
X6489428Y-15075714D01*
X6789428Y-15075714D02*
X6789428Y-14875714D01*
X6789428Y-14932857D02*
X6803714Y-14904286D01*
X6818000Y-14890000D01*
X6846571Y-14875714D01*
X6875143Y-14875714D01*
X6975143Y-15075714D02*
X6975143Y-14875714D01*
X6975143Y-14775714D02*
X6960857Y-14790000D01*
X6975143Y-14804286D01*
X6989428Y-14790000D01*
X6975143Y-14775714D01*
X6975143Y-14804286D01*
X7160857Y-15075714D02*
X7132286Y-15061429D01*
X7118000Y-15032857D01*
X7118000Y-14775714D01*
X7318000Y-15075714D02*
X7289428Y-15061429D01*
X7275143Y-15032857D01*
X7275143Y-14775714D01*
X7660857Y-15075714D02*
X7660857Y-14775714D01*
X7760857Y-14990000D01*
X7860857Y-14775714D01*
X7860857Y-15075714D01*
X8132286Y-15075714D02*
X8132286Y-14918571D01*
X8118000Y-14890000D01*
X8089428Y-14875714D01*
X8032286Y-14875714D01*
X8003714Y-14890000D01*
X8132286Y-15061429D02*
X8103714Y-15075714D01*
X8032286Y-15075714D01*
X8003714Y-15061429D01*
X7989428Y-15032857D01*
X7989428Y-15004286D01*
X8003714Y-14975714D01*
X8032286Y-14961429D01*
X8103714Y-14961429D01*
X8132286Y-14947143D01*
X8275143Y-14875714D02*
X8275143Y-15175714D01*
X8275143Y-14890000D02*
X8303714Y-14875714D01*
X8360857Y-14875714D01*
X8389429Y-14890000D01*
X8403714Y-14904286D01*
X8418000Y-14932857D01*
X8418000Y-15018571D01*
X8403714Y-15047143D01*
X8389429Y-15061429D01*
X8360857Y-15075714D01*
X8303714Y-15075714D01*
X8275143Y-15061429D01*
X8546571Y-15047143D02*
X8560857Y-15061429D01*
X8546571Y-15075714D01*
X8532286Y-15061429D01*
X8546571Y-15047143D01*
X8546571Y-15075714D01*
X8546571Y-14890000D02*
X8560857Y-14904286D01*
X8546571Y-14918571D01*
X8532286Y-14904286D01*
X8546571Y-14890000D01*
X8546571Y-14918571D01*
X6167200Y-15544600D02*
X6218000Y-15595400D01*
X6218000Y-15544600D02*
X6167200Y-15595400D01*
X6546571Y-15405714D02*
X6575143Y-15405714D01*
X6603714Y-15420000D01*
X6618000Y-15434286D01*
X6632286Y-15462857D01*
X6646571Y-15520000D01*
X6646571Y-15591429D01*
X6632286Y-15648571D01*
X6618000Y-15677143D01*
X6603714Y-15691429D01*
X6575143Y-15705714D01*
X6546571Y-15705714D01*
X6518000Y-15691429D01*
X6503714Y-15677143D01*
X6489428Y-15648571D01*
X6475143Y-15591429D01*
X6475143Y-15520000D01*
X6489428Y-15462857D01*
X6503714Y-15434286D01*
X6518000Y-15420000D01*
X6546571Y-15405714D01*
X6775143Y-15677143D02*
X6789428Y-15691429D01*
X6775143Y-15705714D01*
X6760857Y-15691429D01*
X6775143Y-15677143D01*
X6775143Y-15705714D01*
X7060857Y-15405714D02*
X6918000Y-15405714D01*
X6903714Y-15548571D01*
X6918000Y-15534286D01*
X6946571Y-15520000D01*
X7018000Y-15520000D01*
X7046571Y-15534286D01*
X7060857Y-15548571D01*
X7075143Y-15577143D01*
X7075143Y-15648571D01*
X7060857Y-15677143D01*
X7046571Y-15691429D01*
X7018000Y-15705714D01*
X6946571Y-15705714D01*
X6918000Y-15691429D01*
X6903714Y-15677143D01*
X7360857Y-15705714D02*
X7189428Y-15705714D01*
X7275143Y-15705714D02*
X7275143Y-15405714D01*
X7246571Y-15448571D01*
X7218000Y-15477143D01*
X7189428Y-15491429D01*
X7489428Y-15705714D02*
X7489428Y-15505714D01*
X7489428Y-15534286D02*
X7503714Y-15520000D01*
X7532286Y-15505714D01*
X7575143Y-15505714D01*
X7603714Y-15520000D01*
X7618000Y-15548571D01*
X7618000Y-15705714D01*
X7618000Y-15548571D02*
X7632286Y-15520000D01*
X7660857Y-15505714D01*
X7703714Y-15505714D01*
X7732286Y-15520000D01*
X7746571Y-15548571D01*
X7746571Y-15705714D01*
X7889428Y-15705714D02*
X7889428Y-15505714D01*
X7889428Y-15534286D02*
X7903714Y-15520000D01*
X7932286Y-15505714D01*
X7975143Y-15505714D01*
X8003714Y-15520000D01*
X8018000Y-15548571D01*
X8018000Y-15705714D01*
X8018000Y-15548571D02*
X8032286Y-15520000D01*
X8060857Y-15505714D01*
X8103714Y-15505714D01*
X8132286Y-15520000D01*
X8146571Y-15548571D01*
X8146571Y-15705714D01*
X8732286Y-15391429D02*
X8475143Y-15777143D01*
X9118000Y-15405714D02*
X9146571Y-15405714D01*
X9175143Y-15420000D01*
X9189428Y-15434286D01*
X9203714Y-15462857D01*
X9218000Y-15520000D01*
X9218000Y-15591429D01*
X9203714Y-15648571D01*
X9189428Y-15677143D01*
X9175143Y-15691429D01*
X9146571Y-15705714D01*
X9118000Y-15705714D01*
X9089428Y-15691429D01*
X9075143Y-15677143D01*
X9060857Y-15648571D01*
X9046571Y-15591429D01*
X9046571Y-15520000D01*
X9060857Y-15462857D01*
X9075143Y-15434286D01*
X9089428Y-15420000D01*
X9118000Y-15405714D01*
X9346571Y-15677143D02*
X9360857Y-15691429D01*
X9346571Y-15705714D01*
X9332286Y-15691429D01*
X9346571Y-15677143D01*
X9346571Y-15705714D01*
X9546571Y-15405714D02*
X9575143Y-15405714D01*
X9603714Y-15420000D01*
X9618000Y-15434286D01*
X9632286Y-15462857D01*
X9646571Y-15520000D01*
X9646571Y-15591429D01*
X9632286Y-15648571D01*
X9618000Y-15677143D01*
X9603714Y-15691429D01*
X9575143Y-15705714D01*
X9546571Y-15705714D01*
X9518000Y-15691429D01*
X9503714Y-15677143D01*
X9489428Y-15648571D01*
X9475143Y-15591429D01*
X9475143Y-15520000D01*
X9489428Y-15462857D01*
X9503714Y-15434286D01*
X9518000Y-15420000D01*
X9546571Y-15405714D01*
X9760857Y-15434286D02*
X9775143Y-15420000D01*
X9803714Y-15405714D01*
X9875143Y-15405714D01*
X9903714Y-15420000D01*
X9918000Y-15434286D01*
X9932286Y-15462857D01*
X9932286Y-15491429D01*
X9918000Y-15534286D01*
X9746571Y-15705714D01*
X9932286Y-15705714D01*
X10118000Y-15405714D02*
X10146571Y-15405714D01*
X10175143Y-15420000D01*
X10189428Y-15434286D01*
X10203714Y-15462857D01*
X10218000Y-15520000D01*
X10218000Y-15591429D01*
X10203714Y-15648571D01*
X10189428Y-15677143D01*
X10175143Y-15691429D01*
X10146571Y-15705714D01*
X10118000Y-15705714D01*
X10089428Y-15691429D01*
X10075143Y-15677143D01*
X10060857Y-15648571D01*
X10046571Y-15591429D01*
X10046571Y-15520000D01*
X10060857Y-15462857D01*
X10075143Y-15434286D01*
X10089428Y-15420000D01*
X10118000Y-15405714D01*
X10332286Y-15405714D02*
X10332286Y-15462857D01*
X10446571Y-15405714D02*
X10446571Y-15462857D01*
X10889428Y-15820000D02*
X10875143Y-15805714D01*
X10846571Y-15762857D01*
X10832286Y-15734286D01*
X10818000Y-15691429D01*
X10803714Y-15620000D01*
X10803714Y-15562857D01*
X10818000Y-15491429D01*
X10832286Y-15448571D01*
X10846571Y-15420000D01*
X10875143Y-15377143D01*
X10889428Y-15362857D01*
X11132286Y-15505714D02*
X11132286Y-15705714D01*
X11060857Y-15391429D02*
X10989428Y-15605714D01*
X11175143Y-15605714D01*
X11518000Y-15705714D02*
X11518000Y-15405714D01*
X11646571Y-15705714D02*
X11646571Y-15548571D01*
X11632285Y-15520000D01*
X11603714Y-15505714D01*
X11560857Y-15505714D01*
X11532285Y-15520000D01*
X11518000Y-15534286D01*
X11832285Y-15705714D02*
X11803714Y-15691429D01*
X11789428Y-15677143D01*
X11775143Y-15648571D01*
X11775143Y-15562857D01*
X11789428Y-15534286D01*
X11803714Y-15520000D01*
X11832285Y-15505714D01*
X11875143Y-15505714D01*
X11903714Y-15520000D01*
X11918000Y-15534286D01*
X11932285Y-15562857D01*
X11932285Y-15648571D01*
X11918000Y-15677143D01*
X11903714Y-15691429D01*
X11875143Y-15705714D01*
X11832285Y-15705714D01*
X12103714Y-15705714D02*
X12075143Y-15691429D01*
X12060857Y-15662857D01*
X12060857Y-15405714D01*
X12332286Y-15691429D02*
X12303714Y-15705714D01*
X12246571Y-15705714D01*
X12218000Y-15691429D01*
X12203714Y-15662857D01*
X12203714Y-15548571D01*
X12218000Y-15520000D01*
X12246571Y-15505714D01*
X12303714Y-15505714D01*
X12332286Y-15520000D01*
X12346571Y-15548571D01*
X12346571Y-15577143D01*
X12203714Y-15605714D01*
X12460857Y-15691429D02*
X12489428Y-15705714D01*
X12546571Y-15705714D01*
X12575143Y-15691429D01*
X12589428Y-15662857D01*
X12589428Y-15648571D01*
X12575143Y-15620000D01*
X12546571Y-15605714D01*
X12503714Y-15605714D01*
X12475143Y-15591429D01*
X12460857Y-15562857D01*
X12460857Y-15548571D01*
X12475143Y-15520000D01*
X12503714Y-15505714D01*
X12546571Y-15505714D01*
X12575143Y-15520000D01*
X12689428Y-15820000D02*
X12703714Y-15805714D01*
X12732286Y-15762857D01*
X12746571Y-15734286D01*
X12760857Y-15691429D01*
X12775143Y-15620000D01*
X12775143Y-15562857D01*
X12760857Y-15491429D01*
X12746571Y-15448571D01*
X12732286Y-15420000D01*
X12703714Y-15377143D01*
X12689428Y-15362857D01*
X6218000Y-15966000D02*
G75*
G03X6218000Y-15966000I-31750J0D01*
G01*
X6546571Y-15801714D02*
X6575143Y-15801714D01*
X6603714Y-15816000D01*
X6618000Y-15830286D01*
X6632286Y-15858857D01*
X6646571Y-15916000D01*
X6646571Y-15987429D01*
X6632286Y-16044571D01*
X6618000Y-16073143D01*
X6603714Y-16087429D01*
X6575143Y-16101714D01*
X6546571Y-16101714D01*
X6518000Y-16087429D01*
X6503714Y-16073143D01*
X6489428Y-16044571D01*
X6475143Y-15987429D01*
X6475143Y-15916000D01*
X6489428Y-15858857D01*
X6503714Y-15830286D01*
X6518000Y-15816000D01*
X6546571Y-15801714D01*
X6775143Y-16073143D02*
X6789428Y-16087429D01*
X6775143Y-16101714D01*
X6760857Y-16087429D01*
X6775143Y-16073143D01*
X6775143Y-16101714D01*
X7046571Y-15801714D02*
X6989428Y-15801714D01*
X6960857Y-15816000D01*
X6946571Y-15830286D01*
X6918000Y-15873143D01*
X6903714Y-15930286D01*
X6903714Y-16044571D01*
X6918000Y-16073143D01*
X6932286Y-16087429D01*
X6960857Y-16101714D01*
X7018000Y-16101714D01*
X7046571Y-16087429D01*
X7060857Y-16073143D01*
X7075143Y-16044571D01*
X7075143Y-15973143D01*
X7060857Y-15944571D01*
X7046571Y-15930286D01*
X7018000Y-15916000D01*
X6960857Y-15916000D01*
X6932286Y-15930286D01*
X6918000Y-15944571D01*
X6903714Y-15973143D01*
X7332286Y-15901714D02*
X7332286Y-16101714D01*
X7260857Y-15787429D02*
X7189428Y-16001714D01*
X7375143Y-16001714D01*
X7489428Y-16101714D02*
X7489428Y-15901714D01*
X7489428Y-15930286D02*
X7503714Y-15916000D01*
X7532286Y-15901714D01*
X7575143Y-15901714D01*
X7603714Y-15916000D01*
X7618000Y-15944571D01*
X7618000Y-16101714D01*
X7618000Y-15944571D02*
X7632286Y-15916000D01*
X7660857Y-15901714D01*
X7703714Y-15901714D01*
X7732286Y-15916000D01*
X7746571Y-15944571D01*
X7746571Y-16101714D01*
X7889428Y-16101714D02*
X7889428Y-15901714D01*
X7889428Y-15930286D02*
X7903714Y-15916000D01*
X7932286Y-15901714D01*
X7975143Y-15901714D01*
X8003714Y-15916000D01*
X8018000Y-15944571D01*
X8018000Y-16101714D01*
X8018000Y-15944571D02*
X8032286Y-15916000D01*
X8060857Y-15901714D01*
X8103714Y-15901714D01*
X8132286Y-15916000D01*
X8146571Y-15944571D01*
X8146571Y-16101714D01*
X8732286Y-15787429D02*
X8475143Y-16173143D01*
X9118000Y-15801714D02*
X9146571Y-15801714D01*
X9175143Y-15816000D01*
X9189428Y-15830286D01*
X9203714Y-15858857D01*
X9218000Y-15916000D01*
X9218000Y-15987429D01*
X9203714Y-16044571D01*
X9189428Y-16073143D01*
X9175143Y-16087429D01*
X9146571Y-16101714D01*
X9118000Y-16101714D01*
X9089428Y-16087429D01*
X9075143Y-16073143D01*
X9060857Y-16044571D01*
X9046571Y-15987429D01*
X9046571Y-15916000D01*
X9060857Y-15858857D01*
X9075143Y-15830286D01*
X9089428Y-15816000D01*
X9118000Y-15801714D01*
X9346571Y-16073143D02*
X9360857Y-16087429D01*
X9346571Y-16101714D01*
X9332286Y-16087429D01*
X9346571Y-16073143D01*
X9346571Y-16101714D01*
X9546571Y-15801714D02*
X9575143Y-15801714D01*
X9603714Y-15816000D01*
X9618000Y-15830286D01*
X9632286Y-15858857D01*
X9646571Y-15916000D01*
X9646571Y-15987429D01*
X9632286Y-16044571D01*
X9618000Y-16073143D01*
X9603714Y-16087429D01*
X9575143Y-16101714D01*
X9546571Y-16101714D01*
X9518000Y-16087429D01*
X9503714Y-16073143D01*
X9489428Y-16044571D01*
X9475143Y-15987429D01*
X9475143Y-15916000D01*
X9489428Y-15858857D01*
X9503714Y-15830286D01*
X9518000Y-15816000D01*
X9546571Y-15801714D01*
X9760857Y-15830286D02*
X9775143Y-15816000D01*
X9803714Y-15801714D01*
X9875143Y-15801714D01*
X9903714Y-15816000D01*
X9918000Y-15830286D01*
X9932286Y-15858857D01*
X9932286Y-15887429D01*
X9918000Y-15930286D01*
X9746571Y-16101714D01*
X9932286Y-16101714D01*
X10203714Y-15801714D02*
X10060857Y-15801714D01*
X10046571Y-15944571D01*
X10060857Y-15930286D01*
X10089428Y-15916000D01*
X10160857Y-15916000D01*
X10189428Y-15930286D01*
X10203714Y-15944571D01*
X10218000Y-15973143D01*
X10218000Y-16044571D01*
X10203714Y-16073143D01*
X10189428Y-16087429D01*
X10160857Y-16101714D01*
X10089428Y-16101714D01*
X10060857Y-16087429D01*
X10046571Y-16073143D01*
X10332286Y-15801714D02*
X10332286Y-15858857D01*
X10446571Y-15801714D02*
X10446571Y-15858857D01*
X10889428Y-16216000D02*
X10875143Y-16201714D01*
X10846571Y-16158857D01*
X10832286Y-16130286D01*
X10818000Y-16087429D01*
X10803714Y-16016000D01*
X10803714Y-15958857D01*
X10818000Y-15887429D01*
X10832286Y-15844571D01*
X10846571Y-15816000D01*
X10875143Y-15773143D01*
X10889428Y-15758857D01*
X11132286Y-15901714D02*
X11132286Y-16101714D01*
X11060857Y-15787429D02*
X10989428Y-16001714D01*
X11175143Y-16001714D01*
X11260857Y-15801714D02*
X11446571Y-15801714D01*
X11346571Y-15916000D01*
X11389428Y-15916000D01*
X11418000Y-15930286D01*
X11432285Y-15944571D01*
X11446571Y-15973143D01*
X11446571Y-16044571D01*
X11432285Y-16073143D01*
X11418000Y-16087429D01*
X11389428Y-16101714D01*
X11303714Y-16101714D01*
X11275143Y-16087429D01*
X11260857Y-16073143D01*
X11803714Y-16101714D02*
X11803714Y-15801714D01*
X11932285Y-16101714D02*
X11932285Y-15944571D01*
X11918000Y-15916000D01*
X11889428Y-15901714D01*
X11846571Y-15901714D01*
X11818000Y-15916000D01*
X11803714Y-15930286D01*
X12118000Y-16101714D02*
X12089428Y-16087429D01*
X12075143Y-16073143D01*
X12060857Y-16044571D01*
X12060857Y-15958857D01*
X12075143Y-15930286D01*
X12089428Y-15916000D01*
X12118000Y-15901714D01*
X12160857Y-15901714D01*
X12189428Y-15916000D01*
X12203714Y-15930286D01*
X12218000Y-15958857D01*
X12218000Y-16044571D01*
X12203714Y-16073143D01*
X12189428Y-16087429D01*
X12160857Y-16101714D01*
X12118000Y-16101714D01*
X12389428Y-16101714D02*
X12360857Y-16087429D01*
X12346571Y-16058857D01*
X12346571Y-15801714D01*
X12618000Y-16087429D02*
X12589428Y-16101714D01*
X12532286Y-16101714D01*
X12503714Y-16087429D01*
X12489428Y-16058857D01*
X12489428Y-15944571D01*
X12503714Y-15916000D01*
X12532286Y-15901714D01*
X12589428Y-15901714D01*
X12618000Y-15916000D01*
X12632286Y-15944571D01*
X12632286Y-15973143D01*
X12489428Y-16001714D01*
X12746571Y-16087429D02*
X12775143Y-16101714D01*
X12832286Y-16101714D01*
X12860857Y-16087429D01*
X12875143Y-16058857D01*
X12875143Y-16044571D01*
X12860857Y-16016000D01*
X12832286Y-16001714D01*
X12789428Y-16001714D01*
X12760857Y-15987429D01*
X12746571Y-15958857D01*
X12746571Y-15944571D01*
X12760857Y-15916000D01*
X12789428Y-15901714D01*
X12832286Y-15901714D01*
X12860857Y-15916000D01*
X12975143Y-16216000D02*
X12989428Y-16201714D01*
X13018000Y-16158857D01*
X13032286Y-16130286D01*
X13046571Y-16087429D01*
X13060857Y-16016000D01*
X13060857Y-15958857D01*
X13046571Y-15887429D01*
X13032286Y-15844571D01*
X13018000Y-15816000D01*
X12989428Y-15773143D01*
X12975143Y-15758857D01*
X6177995Y-16321995D02*
X6177995Y-16402005D01*
X6137990Y-16362000D02*
X6218000Y-16362000D01*
X6546571Y-16197714D02*
X6575143Y-16197714D01*
X6603714Y-16212000D01*
X6618000Y-16226286D01*
X6632286Y-16254857D01*
X6646571Y-16312000D01*
X6646571Y-16383429D01*
X6632286Y-16440571D01*
X6618000Y-16469143D01*
X6603714Y-16483429D01*
X6575143Y-16497714D01*
X6546571Y-16497714D01*
X6518000Y-16483429D01*
X6503714Y-16469143D01*
X6489428Y-16440571D01*
X6475143Y-16383429D01*
X6475143Y-16312000D01*
X6489428Y-16254857D01*
X6503714Y-16226286D01*
X6518000Y-16212000D01*
X6546571Y-16197714D01*
X6775143Y-16469143D02*
X6789428Y-16483429D01*
X6775143Y-16497714D01*
X6760857Y-16483429D01*
X6775143Y-16469143D01*
X6775143Y-16497714D01*
X6960857Y-16326286D02*
X6932286Y-16312000D01*
X6918000Y-16297714D01*
X6903714Y-16269143D01*
X6903714Y-16254857D01*
X6918000Y-16226286D01*
X6932286Y-16212000D01*
X6960857Y-16197714D01*
X7018000Y-16197714D01*
X7046571Y-16212000D01*
X7060857Y-16226286D01*
X7075143Y-16254857D01*
X7075143Y-16269143D01*
X7060857Y-16297714D01*
X7046571Y-16312000D01*
X7018000Y-16326286D01*
X6960857Y-16326286D01*
X6932286Y-16340571D01*
X6918000Y-16354857D01*
X6903714Y-16383429D01*
X6903714Y-16440571D01*
X6918000Y-16469143D01*
X6932286Y-16483429D01*
X6960857Y-16497714D01*
X7018000Y-16497714D01*
X7046571Y-16483429D01*
X7060857Y-16469143D01*
X7075143Y-16440571D01*
X7075143Y-16383429D01*
X7060857Y-16354857D01*
X7046571Y-16340571D01*
X7018000Y-16326286D01*
X7260857Y-16197714D02*
X7289428Y-16197714D01*
X7318000Y-16212000D01*
X7332286Y-16226286D01*
X7346571Y-16254857D01*
X7360857Y-16312000D01*
X7360857Y-16383429D01*
X7346571Y-16440571D01*
X7332286Y-16469143D01*
X7318000Y-16483429D01*
X7289428Y-16497714D01*
X7260857Y-16497714D01*
X7232286Y-16483429D01*
X7218000Y-16469143D01*
X7203714Y-16440571D01*
X7189428Y-16383429D01*
X7189428Y-16312000D01*
X7203714Y-16254857D01*
X7218000Y-16226286D01*
X7232286Y-16212000D01*
X7260857Y-16197714D01*
X7489428Y-16497714D02*
X7489428Y-16297714D01*
X7489428Y-16326286D02*
X7503714Y-16312000D01*
X7532286Y-16297714D01*
X7575143Y-16297714D01*
X7603714Y-16312000D01*
X7618000Y-16340571D01*
X7618000Y-16497714D01*
X7618000Y-16340571D02*
X7632286Y-16312000D01*
X7660857Y-16297714D01*
X7703714Y-16297714D01*
X7732286Y-16312000D01*
X7746571Y-16340571D01*
X7746571Y-16497714D01*
X7889428Y-16497714D02*
X7889428Y-16297714D01*
X7889428Y-16326286D02*
X7903714Y-16312000D01*
X7932286Y-16297714D01*
X7975143Y-16297714D01*
X8003714Y-16312000D01*
X8018000Y-16340571D01*
X8018000Y-16497714D01*
X8018000Y-16340571D02*
X8032286Y-16312000D01*
X8060857Y-16297714D01*
X8103714Y-16297714D01*
X8132286Y-16312000D01*
X8146571Y-16340571D01*
X8146571Y-16497714D01*
X8732286Y-16183429D02*
X8475143Y-16569143D01*
X9118000Y-16197714D02*
X9146571Y-16197714D01*
X9175143Y-16212000D01*
X9189428Y-16226286D01*
X9203714Y-16254857D01*
X9218000Y-16312000D01*
X9218000Y-16383429D01*
X9203714Y-16440571D01*
X9189428Y-16469143D01*
X9175143Y-16483429D01*
X9146571Y-16497714D01*
X9118000Y-16497714D01*
X9089428Y-16483429D01*
X9075143Y-16469143D01*
X9060857Y-16440571D01*
X9046571Y-16383429D01*
X9046571Y-16312000D01*
X9060857Y-16254857D01*
X9075143Y-16226286D01*
X9089428Y-16212000D01*
X9118000Y-16197714D01*
X9346571Y-16469143D02*
X9360857Y-16483429D01*
X9346571Y-16497714D01*
X9332286Y-16483429D01*
X9346571Y-16469143D01*
X9346571Y-16497714D01*
X9546571Y-16197714D02*
X9575143Y-16197714D01*
X9603714Y-16212000D01*
X9618000Y-16226286D01*
X9632286Y-16254857D01*
X9646571Y-16312000D01*
X9646571Y-16383429D01*
X9632286Y-16440571D01*
X9618000Y-16469143D01*
X9603714Y-16483429D01*
X9575143Y-16497714D01*
X9546571Y-16497714D01*
X9518000Y-16483429D01*
X9503714Y-16469143D01*
X9489428Y-16440571D01*
X9475143Y-16383429D01*
X9475143Y-16312000D01*
X9489428Y-16254857D01*
X9503714Y-16226286D01*
X9518000Y-16212000D01*
X9546571Y-16197714D01*
X9746571Y-16197714D02*
X9932286Y-16197714D01*
X9832286Y-16312000D01*
X9875143Y-16312000D01*
X9903714Y-16326286D01*
X9918000Y-16340571D01*
X9932286Y-16369143D01*
X9932286Y-16440571D01*
X9918000Y-16469143D01*
X9903714Y-16483429D01*
X9875143Y-16497714D01*
X9789428Y-16497714D01*
X9760857Y-16483429D01*
X9746571Y-16469143D01*
X10046571Y-16226286D02*
X10060857Y-16212000D01*
X10089428Y-16197714D01*
X10160857Y-16197714D01*
X10189428Y-16212000D01*
X10203714Y-16226286D01*
X10218000Y-16254857D01*
X10218000Y-16283429D01*
X10203714Y-16326286D01*
X10032286Y-16497714D01*
X10218000Y-16497714D01*
X10332286Y-16197714D02*
X10332286Y-16254857D01*
X10446571Y-16197714D02*
X10446571Y-16254857D01*
X10889428Y-16612000D02*
X10875143Y-16597714D01*
X10846571Y-16554857D01*
X10832286Y-16526286D01*
X10818000Y-16483429D01*
X10803714Y-16412000D01*
X10803714Y-16354857D01*
X10818000Y-16283429D01*
X10832286Y-16240571D01*
X10846571Y-16212000D01*
X10875143Y-16169143D01*
X10889428Y-16154857D01*
X11132286Y-16297714D02*
X11132286Y-16497714D01*
X11060857Y-16183429D02*
X10989428Y-16397714D01*
X11175143Y-16397714D01*
X11518000Y-16497714D02*
X11518000Y-16197714D01*
X11646571Y-16497714D02*
X11646571Y-16340571D01*
X11632285Y-16312000D01*
X11603714Y-16297714D01*
X11560857Y-16297714D01*
X11532285Y-16312000D01*
X11518000Y-16326286D01*
X11832285Y-16497714D02*
X11803714Y-16483429D01*
X11789428Y-16469143D01*
X11775143Y-16440571D01*
X11775143Y-16354857D01*
X11789428Y-16326286D01*
X11803714Y-16312000D01*
X11832285Y-16297714D01*
X11875143Y-16297714D01*
X11903714Y-16312000D01*
X11918000Y-16326286D01*
X11932285Y-16354857D01*
X11932285Y-16440571D01*
X11918000Y-16469143D01*
X11903714Y-16483429D01*
X11875143Y-16497714D01*
X11832285Y-16497714D01*
X12103714Y-16497714D02*
X12075143Y-16483429D01*
X12060857Y-16454857D01*
X12060857Y-16197714D01*
X12332286Y-16483429D02*
X12303714Y-16497714D01*
X12246571Y-16497714D01*
X12218000Y-16483429D01*
X12203714Y-16454857D01*
X12203714Y-16340571D01*
X12218000Y-16312000D01*
X12246571Y-16297714D01*
X12303714Y-16297714D01*
X12332286Y-16312000D01*
X12346571Y-16340571D01*
X12346571Y-16369143D01*
X12203714Y-16397714D01*
X12460857Y-16483429D02*
X12489428Y-16497714D01*
X12546571Y-16497714D01*
X12575143Y-16483429D01*
X12589428Y-16454857D01*
X12589428Y-16440571D01*
X12575143Y-16412000D01*
X12546571Y-16397714D01*
X12503714Y-16397714D01*
X12475143Y-16383429D01*
X12460857Y-16354857D01*
X12460857Y-16340571D01*
X12475143Y-16312000D01*
X12503714Y-16297714D01*
X12546571Y-16297714D01*
X12575143Y-16312000D01*
X12689428Y-16612000D02*
X12703714Y-16597714D01*
X12732286Y-16554857D01*
X12746571Y-16526286D01*
X12760857Y-16483429D01*
X12775143Y-16412000D01*
X12775143Y-16354857D01*
X12760857Y-16283429D01*
X12746571Y-16240571D01*
X12732286Y-16212000D01*
X12703714Y-16169143D01*
X12689428Y-16154857D01*
X6206097Y-16786737D02*
X6206097Y-16729263D01*
X6148623Y-16729263D01*
X6148623Y-16786737D01*
X6206097Y-16786737D01*
X6546571Y-16593714D02*
X6575143Y-16593714D01*
X6603714Y-16608000D01*
X6618000Y-16622286D01*
X6632286Y-16650857D01*
X6646571Y-16708000D01*
X6646571Y-16779429D01*
X6632286Y-16836572D01*
X6618000Y-16865143D01*
X6603714Y-16879429D01*
X6575143Y-16893714D01*
X6546571Y-16893714D01*
X6518000Y-16879429D01*
X6503714Y-16865143D01*
X6489428Y-16836572D01*
X6475143Y-16779429D01*
X6475143Y-16708000D01*
X6489428Y-16650857D01*
X6503714Y-16622286D01*
X6518000Y-16608000D01*
X6546571Y-16593714D01*
X6775143Y-16865143D02*
X6789428Y-16879429D01*
X6775143Y-16893714D01*
X6760857Y-16879429D01*
X6775143Y-16865143D01*
X6775143Y-16893714D01*
X6960857Y-16722286D02*
X6932286Y-16708000D01*
X6918000Y-16693714D01*
X6903714Y-16665143D01*
X6903714Y-16650857D01*
X6918000Y-16622286D01*
X6932286Y-16608000D01*
X6960857Y-16593714D01*
X7018000Y-16593714D01*
X7046571Y-16608000D01*
X7060857Y-16622286D01*
X7075143Y-16650857D01*
X7075143Y-16665143D01*
X7060857Y-16693714D01*
X7046571Y-16708000D01*
X7018000Y-16722286D01*
X6960857Y-16722286D01*
X6932286Y-16736571D01*
X6918000Y-16750857D01*
X6903714Y-16779429D01*
X6903714Y-16836572D01*
X6918000Y-16865143D01*
X6932286Y-16879429D01*
X6960857Y-16893714D01*
X7018000Y-16893714D01*
X7046571Y-16879429D01*
X7060857Y-16865143D01*
X7075143Y-16836572D01*
X7075143Y-16779429D01*
X7060857Y-16750857D01*
X7046571Y-16736571D01*
X7018000Y-16722286D01*
X7360857Y-16893714D02*
X7189428Y-16893714D01*
X7275143Y-16893714D02*
X7275143Y-16593714D01*
X7246571Y-16636571D01*
X7218000Y-16665143D01*
X7189428Y-16679429D01*
X7489428Y-16893714D02*
X7489428Y-16693714D01*
X7489428Y-16722286D02*
X7503714Y-16708000D01*
X7532286Y-16693714D01*
X7575143Y-16693714D01*
X7603714Y-16708000D01*
X7618000Y-16736571D01*
X7618000Y-16893714D01*
X7618000Y-16736571D02*
X7632286Y-16708000D01*
X7660857Y-16693714D01*
X7703714Y-16693714D01*
X7732286Y-16708000D01*
X7746571Y-16736571D01*
X7746571Y-16893714D01*
X7889428Y-16893714D02*
X7889428Y-16693714D01*
X7889428Y-16722286D02*
X7903714Y-16708000D01*
X7932286Y-16693714D01*
X7975143Y-16693714D01*
X8003714Y-16708000D01*
X8018000Y-16736571D01*
X8018000Y-16893714D01*
X8018000Y-16736571D02*
X8032286Y-16708000D01*
X8060857Y-16693714D01*
X8103714Y-16693714D01*
X8132286Y-16708000D01*
X8146571Y-16736571D01*
X8146571Y-16893714D01*
X8732286Y-16579429D02*
X8475143Y-16965143D01*
X9118000Y-16593714D02*
X9146571Y-16593714D01*
X9175143Y-16608000D01*
X9189428Y-16622286D01*
X9203714Y-16650857D01*
X9218000Y-16708000D01*
X9218000Y-16779429D01*
X9203714Y-16836572D01*
X9189428Y-16865143D01*
X9175143Y-16879429D01*
X9146571Y-16893714D01*
X9118000Y-16893714D01*
X9089428Y-16879429D01*
X9075143Y-16865143D01*
X9060857Y-16836572D01*
X9046571Y-16779429D01*
X9046571Y-16708000D01*
X9060857Y-16650857D01*
X9075143Y-16622286D01*
X9089428Y-16608000D01*
X9118000Y-16593714D01*
X9346571Y-16865143D02*
X9360857Y-16879429D01*
X9346571Y-16893714D01*
X9332286Y-16879429D01*
X9346571Y-16865143D01*
X9346571Y-16893714D01*
X9546571Y-16593714D02*
X9575143Y-16593714D01*
X9603714Y-16608000D01*
X9618000Y-16622286D01*
X9632286Y-16650857D01*
X9646571Y-16708000D01*
X9646571Y-16779429D01*
X9632286Y-16836572D01*
X9618000Y-16865143D01*
X9603714Y-16879429D01*
X9575143Y-16893714D01*
X9546571Y-16893714D01*
X9518000Y-16879429D01*
X9503714Y-16865143D01*
X9489428Y-16836572D01*
X9475143Y-16779429D01*
X9475143Y-16708000D01*
X9489428Y-16650857D01*
X9503714Y-16622286D01*
X9518000Y-16608000D01*
X9546571Y-16593714D01*
X9746571Y-16593714D02*
X9932286Y-16593714D01*
X9832286Y-16708000D01*
X9875143Y-16708000D01*
X9903714Y-16722286D01*
X9918000Y-16736571D01*
X9932286Y-16765143D01*
X9932286Y-16836572D01*
X9918000Y-16865143D01*
X9903714Y-16879429D01*
X9875143Y-16893714D01*
X9789428Y-16893714D01*
X9760857Y-16879429D01*
X9746571Y-16865143D01*
X10046571Y-16622286D02*
X10060857Y-16608000D01*
X10089428Y-16593714D01*
X10160857Y-16593714D01*
X10189428Y-16608000D01*
X10203714Y-16622286D01*
X10218000Y-16650857D01*
X10218000Y-16679429D01*
X10203714Y-16722286D01*
X10032286Y-16893714D01*
X10218000Y-16893714D01*
X10332286Y-16593714D02*
X10332286Y-16650857D01*
X10446571Y-16593714D02*
X10446571Y-16650857D01*
X10889428Y-17008000D02*
X10875143Y-16993714D01*
X10846571Y-16950857D01*
X10832286Y-16922286D01*
X10818000Y-16879429D01*
X10803714Y-16808000D01*
X10803714Y-16750857D01*
X10818000Y-16679429D01*
X10832286Y-16636571D01*
X10846571Y-16608000D01*
X10875143Y-16565143D01*
X10889428Y-16550857D01*
X10975143Y-16593714D02*
X11160857Y-16593714D01*
X11060857Y-16708000D01*
X11103714Y-16708000D01*
X11132286Y-16722286D01*
X11146571Y-16736571D01*
X11160857Y-16765143D01*
X11160857Y-16836572D01*
X11146571Y-16865143D01*
X11132286Y-16879429D01*
X11103714Y-16893714D01*
X11018000Y-16893714D01*
X10989428Y-16879429D01*
X10975143Y-16865143D01*
X11275143Y-16622286D02*
X11289428Y-16608000D01*
X11318000Y-16593714D01*
X11389428Y-16593714D01*
X11418000Y-16608000D01*
X11432285Y-16622286D01*
X11446571Y-16650857D01*
X11446571Y-16679429D01*
X11432285Y-16722286D01*
X11260857Y-16893714D01*
X11446571Y-16893714D01*
X11632285Y-16593714D02*
X11660857Y-16593714D01*
X11689428Y-16608000D01*
X11703714Y-16622286D01*
X11718000Y-16650857D01*
X11732285Y-16708000D01*
X11732285Y-16779429D01*
X11718000Y-16836572D01*
X11703714Y-16865143D01*
X11689428Y-16879429D01*
X11660857Y-16893714D01*
X11632285Y-16893714D01*
X11603714Y-16879429D01*
X11589428Y-16865143D01*
X11575143Y-16836572D01*
X11560857Y-16779429D01*
X11560857Y-16708000D01*
X11575143Y-16650857D01*
X11589428Y-16622286D01*
X11603714Y-16608000D01*
X11632285Y-16593714D01*
X12089428Y-16893714D02*
X12089428Y-16593714D01*
X12218000Y-16893714D02*
X12218000Y-16736571D01*
X12203714Y-16708000D01*
X12175143Y-16693714D01*
X12132285Y-16693714D01*
X12103714Y-16708000D01*
X12089428Y-16722286D01*
X12403714Y-16893714D02*
X12375143Y-16879429D01*
X12360857Y-16865143D01*
X12346571Y-16836572D01*
X12346571Y-16750857D01*
X12360857Y-16722286D01*
X12375143Y-16708000D01*
X12403714Y-16693714D01*
X12446571Y-16693714D01*
X12475143Y-16708000D01*
X12489428Y-16722286D01*
X12503714Y-16750857D01*
X12503714Y-16836572D01*
X12489428Y-16865143D01*
X12475143Y-16879429D01*
X12446571Y-16893714D01*
X12403714Y-16893714D01*
X12675143Y-16893714D02*
X12646571Y-16879429D01*
X12632286Y-16850857D01*
X12632286Y-16593714D01*
X12903714Y-16879429D02*
X12875143Y-16893714D01*
X12818000Y-16893714D01*
X12789428Y-16879429D01*
X12775143Y-16850857D01*
X12775143Y-16736571D01*
X12789428Y-16708000D01*
X12818000Y-16693714D01*
X12875143Y-16693714D01*
X12903714Y-16708000D01*
X12918000Y-16736571D01*
X12918000Y-16765143D01*
X12775143Y-16793714D01*
X13032286Y-16879429D02*
X13060857Y-16893714D01*
X13118000Y-16893714D01*
X13146571Y-16879429D01*
X13160857Y-16850857D01*
X13160857Y-16836572D01*
X13146571Y-16808000D01*
X13118000Y-16793714D01*
X13075143Y-16793714D01*
X13046571Y-16779429D01*
X13032286Y-16750857D01*
X13032286Y-16736571D01*
X13046571Y-16708000D01*
X13075143Y-16693714D01*
X13118000Y-16693714D01*
X13146571Y-16708000D01*
X13260857Y-17008000D02*
X13275143Y-16993714D01*
X13303714Y-16950857D01*
X13318000Y-16922286D01*
X13332286Y-16879429D01*
X13346571Y-16808000D01*
X13346571Y-16750857D01*
X13332286Y-16679429D01*
X13318000Y-16636571D01*
X13303714Y-16608000D01*
X13275143Y-16565143D01*
X13260857Y-16550857D01*
X6167962Y-17204038D02*
X6218000Y-17154000D01*
X6167962Y-17103962D01*
X6117924Y-17154000D01*
X6167962Y-17204038D01*
X6646571Y-17289714D02*
X6475143Y-17289714D01*
X6560857Y-17289714D02*
X6560857Y-16989714D01*
X6532286Y-17032572D01*
X6503714Y-17061143D01*
X6475143Y-17075429D01*
X6775143Y-17261143D02*
X6789428Y-17275429D01*
X6775143Y-17289714D01*
X6760857Y-17275429D01*
X6775143Y-17261143D01*
X6775143Y-17289714D01*
X6975143Y-16989714D02*
X7003714Y-16989714D01*
X7032286Y-17004000D01*
X7046571Y-17018286D01*
X7060857Y-17046857D01*
X7075143Y-17104000D01*
X7075143Y-17175429D01*
X7060857Y-17232572D01*
X7046571Y-17261143D01*
X7032286Y-17275429D01*
X7003714Y-17289714D01*
X6975143Y-17289714D01*
X6946571Y-17275429D01*
X6932286Y-17261143D01*
X6918000Y-17232572D01*
X6903714Y-17175429D01*
X6903714Y-17104000D01*
X6918000Y-17046857D01*
X6932286Y-17018286D01*
X6946571Y-17004000D01*
X6975143Y-16989714D01*
X7260857Y-16989714D02*
X7289428Y-16989714D01*
X7318000Y-17004000D01*
X7332286Y-17018286D01*
X7346571Y-17046857D01*
X7360857Y-17104000D01*
X7360857Y-17175429D01*
X7346571Y-17232572D01*
X7332286Y-17261143D01*
X7318000Y-17275429D01*
X7289428Y-17289714D01*
X7260857Y-17289714D01*
X7232286Y-17275429D01*
X7218000Y-17261143D01*
X7203714Y-17232572D01*
X7189428Y-17175429D01*
X7189428Y-17104000D01*
X7203714Y-17046857D01*
X7218000Y-17018286D01*
X7232286Y-17004000D01*
X7260857Y-16989714D01*
X7489428Y-17289714D02*
X7489428Y-17089714D01*
X7489428Y-17118286D02*
X7503714Y-17104000D01*
X7532286Y-17089714D01*
X7575143Y-17089714D01*
X7603714Y-17104000D01*
X7618000Y-17132572D01*
X7618000Y-17289714D01*
X7618000Y-17132572D02*
X7632286Y-17104000D01*
X7660857Y-17089714D01*
X7703714Y-17089714D01*
X7732286Y-17104000D01*
X7746571Y-17132572D01*
X7746571Y-17289714D01*
X7889428Y-17289714D02*
X7889428Y-17089714D01*
X7889428Y-17118286D02*
X7903714Y-17104000D01*
X7932286Y-17089714D01*
X7975143Y-17089714D01*
X8003714Y-17104000D01*
X8018000Y-17132572D01*
X8018000Y-17289714D01*
X8018000Y-17132572D02*
X8032286Y-17104000D01*
X8060857Y-17089714D01*
X8103714Y-17089714D01*
X8132286Y-17104000D01*
X8146571Y-17132572D01*
X8146571Y-17289714D01*
X8732286Y-16975429D02*
X8475143Y-17361143D01*
X9118000Y-16989714D02*
X9146571Y-16989714D01*
X9175143Y-17004000D01*
X9189428Y-17018286D01*
X9203714Y-17046857D01*
X9218000Y-17104000D01*
X9218000Y-17175429D01*
X9203714Y-17232572D01*
X9189428Y-17261143D01*
X9175143Y-17275429D01*
X9146571Y-17289714D01*
X9118000Y-17289714D01*
X9089428Y-17275429D01*
X9075143Y-17261143D01*
X9060857Y-17232572D01*
X9046571Y-17175429D01*
X9046571Y-17104000D01*
X9060857Y-17046857D01*
X9075143Y-17018286D01*
X9089428Y-17004000D01*
X9118000Y-16989714D01*
X9346571Y-17261143D02*
X9360857Y-17275429D01*
X9346571Y-17289714D01*
X9332286Y-17275429D01*
X9346571Y-17261143D01*
X9346571Y-17289714D01*
X9546571Y-16989714D02*
X9575143Y-16989714D01*
X9603714Y-17004000D01*
X9618000Y-17018286D01*
X9632286Y-17046857D01*
X9646571Y-17104000D01*
X9646571Y-17175429D01*
X9632286Y-17232572D01*
X9618000Y-17261143D01*
X9603714Y-17275429D01*
X9575143Y-17289714D01*
X9546571Y-17289714D01*
X9518000Y-17275429D01*
X9503714Y-17261143D01*
X9489428Y-17232572D01*
X9475143Y-17175429D01*
X9475143Y-17104000D01*
X9489428Y-17046857D01*
X9503714Y-17018286D01*
X9518000Y-17004000D01*
X9546571Y-16989714D01*
X9746571Y-16989714D02*
X9932286Y-16989714D01*
X9832286Y-17104000D01*
X9875143Y-17104000D01*
X9903714Y-17118286D01*
X9918000Y-17132572D01*
X9932286Y-17161143D01*
X9932286Y-17232572D01*
X9918000Y-17261143D01*
X9903714Y-17275429D01*
X9875143Y-17289714D01*
X9789428Y-17289714D01*
X9760857Y-17275429D01*
X9746571Y-17261143D01*
X10075143Y-17289714D02*
X10132286Y-17289714D01*
X10160857Y-17275429D01*
X10175143Y-17261143D01*
X10203714Y-17218286D01*
X10218000Y-17161143D01*
X10218000Y-17046857D01*
X10203714Y-17018286D01*
X10189428Y-17004000D01*
X10160857Y-16989714D01*
X10103714Y-16989714D01*
X10075143Y-17004000D01*
X10060857Y-17018286D01*
X10046571Y-17046857D01*
X10046571Y-17118286D01*
X10060857Y-17146857D01*
X10075143Y-17161143D01*
X10103714Y-17175429D01*
X10160857Y-17175429D01*
X10189428Y-17161143D01*
X10203714Y-17146857D01*
X10218000Y-17118286D01*
X10332286Y-16989714D02*
X10332286Y-17046857D01*
X10446571Y-16989714D02*
X10446571Y-17046857D01*
X10889428Y-17404000D02*
X10875143Y-17389714D01*
X10846571Y-17346857D01*
X10832286Y-17318286D01*
X10818000Y-17275429D01*
X10803714Y-17204000D01*
X10803714Y-17146857D01*
X10818000Y-17075429D01*
X10832286Y-17032572D01*
X10846571Y-17004000D01*
X10875143Y-16961143D01*
X10889428Y-16946857D01*
X11132286Y-17089714D02*
X11132286Y-17289714D01*
X11060857Y-16975429D02*
X10989428Y-17189714D01*
X11175143Y-17189714D01*
X11518000Y-17289714D02*
X11518000Y-16989714D01*
X11646571Y-17289714D02*
X11646571Y-17132572D01*
X11632285Y-17104000D01*
X11603714Y-17089714D01*
X11560857Y-17089714D01*
X11532285Y-17104000D01*
X11518000Y-17118286D01*
X11832285Y-17289714D02*
X11803714Y-17275429D01*
X11789428Y-17261143D01*
X11775143Y-17232572D01*
X11775143Y-17146857D01*
X11789428Y-17118286D01*
X11803714Y-17104000D01*
X11832285Y-17089714D01*
X11875143Y-17089714D01*
X11903714Y-17104000D01*
X11918000Y-17118286D01*
X11932285Y-17146857D01*
X11932285Y-17232572D01*
X11918000Y-17261143D01*
X11903714Y-17275429D01*
X11875143Y-17289714D01*
X11832285Y-17289714D01*
X12103714Y-17289714D02*
X12075143Y-17275429D01*
X12060857Y-17246857D01*
X12060857Y-16989714D01*
X12332286Y-17275429D02*
X12303714Y-17289714D01*
X12246571Y-17289714D01*
X12218000Y-17275429D01*
X12203714Y-17246857D01*
X12203714Y-17132572D01*
X12218000Y-17104000D01*
X12246571Y-17089714D01*
X12303714Y-17089714D01*
X12332286Y-17104000D01*
X12346571Y-17132572D01*
X12346571Y-17161143D01*
X12203714Y-17189714D01*
X12460857Y-17275429D02*
X12489428Y-17289714D01*
X12546571Y-17289714D01*
X12575143Y-17275429D01*
X12589428Y-17246857D01*
X12589428Y-17232572D01*
X12575143Y-17204000D01*
X12546571Y-17189714D01*
X12503714Y-17189714D01*
X12475143Y-17175429D01*
X12460857Y-17146857D01*
X12460857Y-17132572D01*
X12475143Y-17104000D01*
X12503714Y-17089714D01*
X12546571Y-17089714D01*
X12575143Y-17104000D01*
X12689428Y-17404000D02*
X12703714Y-17389714D01*
X12732286Y-17346857D01*
X12746571Y-17318286D01*
X12760857Y-17275429D01*
X12775143Y-17204000D01*
X12775143Y-17146857D01*
X12760857Y-17075429D01*
X12746571Y-17032572D01*
X12732286Y-17004000D01*
X12703714Y-16961143D01*
X12689428Y-16946857D01*
X6116400Y-17499200D02*
X6218000Y-17600800D01*
X6218000Y-17499200D02*
X6116400Y-17600800D01*
X6218000Y-17550000D02*
G75*
G03X6218000Y-17550000I-50800J0D01*
G01*
X6646571Y-17685714D02*
X6475143Y-17685714D01*
X6560857Y-17685714D02*
X6560857Y-17385714D01*
X6532286Y-17428572D01*
X6503714Y-17457143D01*
X6475143Y-17471429D01*
X6775143Y-17657143D02*
X6789428Y-17671429D01*
X6775143Y-17685714D01*
X6760857Y-17671429D01*
X6775143Y-17657143D01*
X6775143Y-17685714D01*
X6975143Y-17385714D02*
X7003714Y-17385714D01*
X7032286Y-17400000D01*
X7046571Y-17414286D01*
X7060857Y-17442857D01*
X7075143Y-17500000D01*
X7075143Y-17571429D01*
X7060857Y-17628572D01*
X7046571Y-17657143D01*
X7032286Y-17671429D01*
X7003714Y-17685714D01*
X6975143Y-17685714D01*
X6946571Y-17671429D01*
X6932286Y-17657143D01*
X6918000Y-17628572D01*
X6903714Y-17571429D01*
X6903714Y-17500000D01*
X6918000Y-17442857D01*
X6932286Y-17414286D01*
X6946571Y-17400000D01*
X6975143Y-17385714D01*
X7189428Y-17414286D02*
X7203714Y-17400000D01*
X7232286Y-17385714D01*
X7303714Y-17385714D01*
X7332286Y-17400000D01*
X7346571Y-17414286D01*
X7360857Y-17442857D01*
X7360857Y-17471429D01*
X7346571Y-17514286D01*
X7175143Y-17685714D01*
X7360857Y-17685714D01*
X7489428Y-17685714D02*
X7489428Y-17485714D01*
X7489428Y-17514286D02*
X7503714Y-17500000D01*
X7532286Y-17485714D01*
X7575143Y-17485714D01*
X7603714Y-17500000D01*
X7618000Y-17528572D01*
X7618000Y-17685714D01*
X7618000Y-17528572D02*
X7632286Y-17500000D01*
X7660857Y-17485714D01*
X7703714Y-17485714D01*
X7732286Y-17500000D01*
X7746571Y-17528572D01*
X7746571Y-17685714D01*
X7889428Y-17685714D02*
X7889428Y-17485714D01*
X7889428Y-17514286D02*
X7903714Y-17500000D01*
X7932286Y-17485714D01*
X7975143Y-17485714D01*
X8003714Y-17500000D01*
X8018000Y-17528572D01*
X8018000Y-17685714D01*
X8018000Y-17528572D02*
X8032286Y-17500000D01*
X8060857Y-17485714D01*
X8103714Y-17485714D01*
X8132286Y-17500000D01*
X8146571Y-17528572D01*
X8146571Y-17685714D01*
X8732286Y-17371429D02*
X8475143Y-17757143D01*
X9118000Y-17385714D02*
X9146571Y-17385714D01*
X9175143Y-17400000D01*
X9189428Y-17414286D01*
X9203714Y-17442857D01*
X9218000Y-17500000D01*
X9218000Y-17571429D01*
X9203714Y-17628572D01*
X9189428Y-17657143D01*
X9175143Y-17671429D01*
X9146571Y-17685714D01*
X9118000Y-17685714D01*
X9089428Y-17671429D01*
X9075143Y-17657143D01*
X9060857Y-17628572D01*
X9046571Y-17571429D01*
X9046571Y-17500000D01*
X9060857Y-17442857D01*
X9075143Y-17414286D01*
X9089428Y-17400000D01*
X9118000Y-17385714D01*
X9346571Y-17657143D02*
X9360857Y-17671429D01*
X9346571Y-17685714D01*
X9332286Y-17671429D01*
X9346571Y-17657143D01*
X9346571Y-17685714D01*
X9546571Y-17385714D02*
X9575143Y-17385714D01*
X9603714Y-17400000D01*
X9618000Y-17414286D01*
X9632286Y-17442857D01*
X9646571Y-17500000D01*
X9646571Y-17571429D01*
X9632286Y-17628572D01*
X9618000Y-17657143D01*
X9603714Y-17671429D01*
X9575143Y-17685714D01*
X9546571Y-17685714D01*
X9518000Y-17671429D01*
X9503714Y-17657143D01*
X9489428Y-17628572D01*
X9475143Y-17571429D01*
X9475143Y-17500000D01*
X9489428Y-17442857D01*
X9503714Y-17414286D01*
X9518000Y-17400000D01*
X9546571Y-17385714D01*
X9903714Y-17485714D02*
X9903714Y-17685714D01*
X9832286Y-17371429D02*
X9760857Y-17585714D01*
X9946571Y-17585714D01*
X10118000Y-17385714D02*
X10146571Y-17385714D01*
X10175143Y-17400000D01*
X10189428Y-17414286D01*
X10203714Y-17442857D01*
X10218000Y-17500000D01*
X10218000Y-17571429D01*
X10203714Y-17628572D01*
X10189428Y-17657143D01*
X10175143Y-17671429D01*
X10146571Y-17685714D01*
X10118000Y-17685714D01*
X10089428Y-17671429D01*
X10075143Y-17657143D01*
X10060857Y-17628572D01*
X10046571Y-17571429D01*
X10046571Y-17500000D01*
X10060857Y-17442857D01*
X10075143Y-17414286D01*
X10089428Y-17400000D01*
X10118000Y-17385714D01*
X10332286Y-17385714D02*
X10332286Y-17442857D01*
X10446571Y-17385714D02*
X10446571Y-17442857D01*
X10889428Y-17800000D02*
X10875143Y-17785714D01*
X10846571Y-17742857D01*
X10832286Y-17714286D01*
X10818000Y-17671429D01*
X10803714Y-17600000D01*
X10803714Y-17542857D01*
X10818000Y-17471429D01*
X10832286Y-17428572D01*
X10846571Y-17400000D01*
X10875143Y-17357143D01*
X10889428Y-17342857D01*
X10975143Y-17385714D02*
X11175143Y-17385714D01*
X11046571Y-17685714D01*
X11260857Y-17385714D02*
X11460857Y-17385714D01*
X11332285Y-17685714D01*
X11803714Y-17685714D02*
X11803714Y-17385714D01*
X11932285Y-17685714D02*
X11932285Y-17528572D01*
X11918000Y-17500000D01*
X11889428Y-17485714D01*
X11846571Y-17485714D01*
X11818000Y-17500000D01*
X11803714Y-17514286D01*
X12118000Y-17685714D02*
X12089428Y-17671429D01*
X12075143Y-17657143D01*
X12060857Y-17628572D01*
X12060857Y-17542857D01*
X12075143Y-17514286D01*
X12089428Y-17500000D01*
X12118000Y-17485714D01*
X12160857Y-17485714D01*
X12189428Y-17500000D01*
X12203714Y-17514286D01*
X12218000Y-17542857D01*
X12218000Y-17628572D01*
X12203714Y-17657143D01*
X12189428Y-17671429D01*
X12160857Y-17685714D01*
X12118000Y-17685714D01*
X12389428Y-17685714D02*
X12360857Y-17671429D01*
X12346571Y-17642857D01*
X12346571Y-17385714D01*
X12618000Y-17671429D02*
X12589428Y-17685714D01*
X12532286Y-17685714D01*
X12503714Y-17671429D01*
X12489428Y-17642857D01*
X12489428Y-17528572D01*
X12503714Y-17500000D01*
X12532286Y-17485714D01*
X12589428Y-17485714D01*
X12618000Y-17500000D01*
X12632286Y-17528572D01*
X12632286Y-17557143D01*
X12489428Y-17585714D01*
X12746571Y-17671429D02*
X12775143Y-17685714D01*
X12832286Y-17685714D01*
X12860857Y-17671429D01*
X12875143Y-17642857D01*
X12875143Y-17628572D01*
X12860857Y-17600000D01*
X12832286Y-17585714D01*
X12789428Y-17585714D01*
X12760857Y-17571429D01*
X12746571Y-17542857D01*
X12746571Y-17528572D01*
X12760857Y-17500000D01*
X12789428Y-17485714D01*
X12832286Y-17485714D01*
X12860857Y-17500000D01*
X12975143Y-17800000D02*
X12989428Y-17785714D01*
X13018000Y-17742857D01*
X13032286Y-17714286D01*
X13046571Y-17671429D01*
X13060857Y-17600000D01*
X13060857Y-17542857D01*
X13046571Y-17471429D01*
X13032286Y-17428572D01*
X13018000Y-17400000D01*
X12989428Y-17357143D01*
X12975143Y-17342857D01*
X5918026Y-17796013D02*
X6218000Y-18095987D01*
X6218000Y-17796013D02*
X5918026Y-18095987D01*
X6068013Y-17796013D02*
X6068013Y-18095987D01*
X5918026Y-17946000D02*
X6218000Y-17946000D01*
X6460857Y-17781714D02*
X6646571Y-17781714D01*
X6546571Y-17896000D01*
X6589428Y-17896000D01*
X6618000Y-17910286D01*
X6632286Y-17924572D01*
X6646571Y-17953143D01*
X6646571Y-18024572D01*
X6632286Y-18053143D01*
X6618000Y-18067429D01*
X6589428Y-18081714D01*
X6503714Y-18081714D01*
X6475143Y-18067429D01*
X6460857Y-18053143D01*
X6775143Y-18053143D02*
X6789428Y-18067429D01*
X6775143Y-18081714D01*
X6760857Y-18067429D01*
X6775143Y-18053143D01*
X6775143Y-18081714D01*
X6975143Y-17781714D02*
X7003714Y-17781714D01*
X7032286Y-17796000D01*
X7046571Y-17810286D01*
X7060857Y-17838857D01*
X7075143Y-17896000D01*
X7075143Y-17967429D01*
X7060857Y-18024572D01*
X7046571Y-18053143D01*
X7032286Y-18067429D01*
X7003714Y-18081714D01*
X6975143Y-18081714D01*
X6946571Y-18067429D01*
X6932286Y-18053143D01*
X6918000Y-18024572D01*
X6903714Y-17967429D01*
X6903714Y-17896000D01*
X6918000Y-17838857D01*
X6932286Y-17810286D01*
X6946571Y-17796000D01*
X6975143Y-17781714D01*
X7260857Y-17781714D02*
X7289428Y-17781714D01*
X7318000Y-17796000D01*
X7332286Y-17810286D01*
X7346571Y-17838857D01*
X7360857Y-17896000D01*
X7360857Y-17967429D01*
X7346571Y-18024572D01*
X7332286Y-18053143D01*
X7318000Y-18067429D01*
X7289428Y-18081714D01*
X7260857Y-18081714D01*
X7232286Y-18067429D01*
X7218000Y-18053143D01*
X7203714Y-18024572D01*
X7189428Y-17967429D01*
X7189428Y-17896000D01*
X7203714Y-17838857D01*
X7218000Y-17810286D01*
X7232286Y-17796000D01*
X7260857Y-17781714D01*
X7489428Y-18081714D02*
X7489428Y-17881714D01*
X7489428Y-17910286D02*
X7503714Y-17896000D01*
X7532286Y-17881714D01*
X7575143Y-17881714D01*
X7603714Y-17896000D01*
X7618000Y-17924572D01*
X7618000Y-18081714D01*
X7618000Y-17924572D02*
X7632286Y-17896000D01*
X7660857Y-17881714D01*
X7703714Y-17881714D01*
X7732286Y-17896000D01*
X7746571Y-17924572D01*
X7746571Y-18081714D01*
X7889428Y-18081714D02*
X7889428Y-17881714D01*
X7889428Y-17910286D02*
X7903714Y-17896000D01*
X7932286Y-17881714D01*
X7975143Y-17881714D01*
X8003714Y-17896000D01*
X8018000Y-17924572D01*
X8018000Y-18081714D01*
X8018000Y-17924572D02*
X8032286Y-17896000D01*
X8060857Y-17881714D01*
X8103714Y-17881714D01*
X8132286Y-17896000D01*
X8146571Y-17924572D01*
X8146571Y-18081714D01*
X8732286Y-17767429D02*
X8475143Y-18153143D01*
X9118000Y-17781714D02*
X9146571Y-17781714D01*
X9175143Y-17796000D01*
X9189428Y-17810286D01*
X9203714Y-17838857D01*
X9218000Y-17896000D01*
X9218000Y-17967429D01*
X9203714Y-18024572D01*
X9189428Y-18053143D01*
X9175143Y-18067429D01*
X9146571Y-18081714D01*
X9118000Y-18081714D01*
X9089428Y-18067429D01*
X9075143Y-18053143D01*
X9060857Y-18024572D01*
X9046571Y-17967429D01*
X9046571Y-17896000D01*
X9060857Y-17838857D01*
X9075143Y-17810286D01*
X9089428Y-17796000D01*
X9118000Y-17781714D01*
X9346571Y-18053143D02*
X9360857Y-18067429D01*
X9346571Y-18081714D01*
X9332286Y-18067429D01*
X9346571Y-18053143D01*
X9346571Y-18081714D01*
X9646571Y-18081714D02*
X9475143Y-18081714D01*
X9560857Y-18081714D02*
X9560857Y-17781714D01*
X9532286Y-17824572D01*
X9503714Y-17853143D01*
X9475143Y-17867429D01*
X9932286Y-18081714D02*
X9760857Y-18081714D01*
X9846571Y-18081714D02*
X9846571Y-17781714D01*
X9818000Y-17824572D01*
X9789428Y-17853143D01*
X9760857Y-17867429D01*
X10103714Y-17910286D02*
X10075143Y-17896000D01*
X10060857Y-17881714D01*
X10046571Y-17853143D01*
X10046571Y-17838857D01*
X10060857Y-17810286D01*
X10075143Y-17796000D01*
X10103714Y-17781714D01*
X10160857Y-17781714D01*
X10189428Y-17796000D01*
X10203714Y-17810286D01*
X10218000Y-17838857D01*
X10218000Y-17853143D01*
X10203714Y-17881714D01*
X10189428Y-17896000D01*
X10160857Y-17910286D01*
X10103714Y-17910286D01*
X10075143Y-17924572D01*
X10060857Y-17938857D01*
X10046571Y-17967429D01*
X10046571Y-18024572D01*
X10060857Y-18053143D01*
X10075143Y-18067429D01*
X10103714Y-18081714D01*
X10160857Y-18081714D01*
X10189428Y-18067429D01*
X10203714Y-18053143D01*
X10218000Y-18024572D01*
X10218000Y-17967429D01*
X10203714Y-17938857D01*
X10189428Y-17924572D01*
X10160857Y-17910286D01*
X10332286Y-17781714D02*
X10332286Y-17838857D01*
X10446571Y-17781714D02*
X10446571Y-17838857D01*
X10889428Y-18196000D02*
X10875143Y-18181714D01*
X10846571Y-18138857D01*
X10832286Y-18110286D01*
X10818000Y-18067429D01*
X10803714Y-17996000D01*
X10803714Y-17938857D01*
X10818000Y-17867429D01*
X10832286Y-17824572D01*
X10846571Y-17796000D01*
X10875143Y-17753143D01*
X10889428Y-17738857D01*
X11132286Y-17881714D02*
X11132286Y-18081714D01*
X11060857Y-17767429D02*
X10989428Y-17981714D01*
X11175143Y-17981714D01*
X11518000Y-18081714D02*
X11518000Y-17781714D01*
X11646571Y-18081714D02*
X11646571Y-17924572D01*
X11632285Y-17896000D01*
X11603714Y-17881714D01*
X11560857Y-17881714D01*
X11532285Y-17896000D01*
X11518000Y-17910286D01*
X11832285Y-18081714D02*
X11803714Y-18067429D01*
X11789428Y-18053143D01*
X11775143Y-18024572D01*
X11775143Y-17938857D01*
X11789428Y-17910286D01*
X11803714Y-17896000D01*
X11832285Y-17881714D01*
X11875143Y-17881714D01*
X11903714Y-17896000D01*
X11918000Y-17910286D01*
X11932285Y-17938857D01*
X11932285Y-18024572D01*
X11918000Y-18053143D01*
X11903714Y-18067429D01*
X11875143Y-18081714D01*
X11832285Y-18081714D01*
X12103714Y-18081714D02*
X12075143Y-18067429D01*
X12060857Y-18038857D01*
X12060857Y-17781714D01*
X12332286Y-18067429D02*
X12303714Y-18081714D01*
X12246571Y-18081714D01*
X12218000Y-18067429D01*
X12203714Y-18038857D01*
X12203714Y-17924572D01*
X12218000Y-17896000D01*
X12246571Y-17881714D01*
X12303714Y-17881714D01*
X12332286Y-17896000D01*
X12346571Y-17924572D01*
X12346571Y-17953143D01*
X12203714Y-17981714D01*
X12460857Y-18067429D02*
X12489428Y-18081714D01*
X12546571Y-18081714D01*
X12575143Y-18067429D01*
X12589428Y-18038857D01*
X12589428Y-18024572D01*
X12575143Y-17996000D01*
X12546571Y-17981714D01*
X12503714Y-17981714D01*
X12475143Y-17967429D01*
X12460857Y-17938857D01*
X12460857Y-17924572D01*
X12475143Y-17896000D01*
X12503714Y-17881714D01*
X12546571Y-17881714D01*
X12575143Y-17896000D01*
X12689428Y-18196000D02*
X12703714Y-18181714D01*
X12732286Y-18138857D01*
X12746571Y-18110286D01*
X12760857Y-18067429D01*
X12775143Y-17996000D01*
X12775143Y-17938857D01*
X12760857Y-17867429D01*
X12746571Y-17824572D01*
X12732286Y-17796000D01*
X12703714Y-17753143D01*
X12689428Y-17738857D01*
M02*
