M48
;DRILL file {KiCad 4.0.2+dfsg1-stable} date Tue 27 Feb 2018 09:46:23 PM CET
;FORMAT={-:-/ absolute / metric / decimal}
FMAT,2
METRIC,TZ
T1C0.635
T2C0.700
T3C0.800
T4C0.800
T5C0.813
T6C0.899
T7C0.996
T8C1.001
T9C1.016
T10C2.299
T11C3.000
%
G90
G05
M71
T1
X102.87Y-86.868
X139.7Y-87.63
X147.955Y-87.122
X150.495Y-89.217
X163.703Y-90.043
X166.37Y-78.74
X167.767Y-83.566
X185.547Y-102.87
X187.452Y-105.41
X189.23Y-101.6
X191.008Y-104.14
X197.485Y-84.328
X198.415Y-83.502
X199.303Y-82.613
X200.223Y-81.696
X201.231Y-80.962
X202.175Y-80.317
T2
X137.51Y-92.05
X137.51Y-111.15
X139.29Y-92.05
X139.29Y-111.15
X141.07Y-92.05
X141.07Y-111.15
X142.85Y-92.05
X142.85Y-111.15
X144.63Y-92.05
X144.63Y-111.15
X146.41Y-92.05
X146.41Y-111.15
X148.19Y-92.05
X148.19Y-111.15
X149.97Y-92.05
X149.97Y-111.15
X151.75Y-92.05
X151.75Y-111.15
X153.53Y-92.05
X153.53Y-111.15
X155.31Y-92.05
X155.31Y-111.15
X157.09Y-92.05
X157.09Y-111.15
X158.87Y-92.05
X158.87Y-111.15
X160.65Y-92.05
X160.65Y-111.15
X162.43Y-92.05
X162.43Y-111.15
X164.21Y-92.05
X164.21Y-111.15
X165.99Y-92.05
X165.99Y-111.15
X167.77Y-92.05
X167.77Y-111.15
X169.55Y-92.05
X169.55Y-111.15
X171.33Y-92.05
X171.33Y-111.15
X173.11Y-92.05
X173.11Y-111.15
X174.89Y-92.05
X174.89Y-111.15
X176.67Y-92.05
X176.67Y-111.15
X178.45Y-92.05
X178.45Y-111.15
X180.23Y-92.05
X180.23Y-111.15
X182.01Y-92.05
X182.01Y-111.15
X183.79Y-92.05
X183.79Y-111.15
X185.57Y-92.05
X185.57Y-111.15
X187.35Y-92.05
X187.35Y-111.15
X189.13Y-92.05
X189.13Y-111.15
X190.91Y-92.05
X190.91Y-111.15
X192.69Y-92.05
X192.69Y-111.15
T3
X81.32Y-63.5
X81.32Y-76.2
X81.32Y-88.9
X81.32Y-101.6
X81.32Y-120.65
X81.32Y-128.27
X83.82Y-63.5
X83.82Y-76.2
X83.82Y-88.9
X83.82Y-101.6
X83.82Y-120.65
X83.82Y-128.27
X101.64Y-82.55
X104.14Y-82.55
X109.22Y-82.55
X120.65Y-97.79
X120.65Y-101.6
X123.15Y-101.6
X127.Y-96.52
X127.Y-101.6
X138.049Y-64.135
X138.049Y-66.675
X138.049Y-69.215
X138.049Y-71.755
X138.049Y-74.295
X138.049Y-76.835
X138.049Y-79.375
X138.049Y-81.915
X138.049Y-84.455
X145.669Y-60.325
X145.669Y-64.135
X145.669Y-66.675
X145.669Y-69.215
X145.669Y-71.755
X145.669Y-74.295
X145.669Y-76.835
X145.669Y-79.375
X145.669Y-81.915
X145.669Y-84.455
X148.59Y-96.52
X150.749Y-64.135
X150.749Y-66.675
X150.749Y-69.215
X150.749Y-71.755
X150.749Y-74.295
X150.749Y-76.835
X150.749Y-79.375
X150.749Y-81.915
X150.749Y-84.455
X158.369Y-60.325
X158.369Y-64.135
X158.369Y-66.675
X158.369Y-69.215
X158.369Y-71.755
X158.369Y-74.295
X158.369Y-76.835
X158.369Y-79.375
X158.369Y-81.915
X158.369Y-84.455
X163.449Y-64.135
X163.449Y-66.675
X163.449Y-69.215
X163.449Y-71.755
X163.449Y-74.295
X163.449Y-76.835
X163.449Y-79.375
X163.449Y-81.915
X163.449Y-84.455
X171.029Y-60.325
X171.069Y-64.135
X171.069Y-66.675
X171.069Y-69.215
X171.069Y-71.755
X171.069Y-74.295
X171.069Y-76.835
X171.069Y-79.375
X171.069Y-81.915
X171.069Y-84.455
X171.45Y-114.3
X171.45Y-116.84
X171.45Y-119.38
X176.149Y-64.135
X176.149Y-66.675
X176.149Y-69.215
X176.149Y-71.755
X176.149Y-74.295
X176.149Y-76.835
X176.149Y-79.375
X176.149Y-81.915
X176.149Y-84.455
X183.769Y-60.325
X183.769Y-64.135
X183.769Y-66.675
X183.769Y-69.215
X183.769Y-71.755
X183.769Y-74.295
X183.769Y-76.835
X183.769Y-79.375
X183.769Y-81.915
X183.769Y-84.455
X200.66Y-93.98
X200.66Y-96.52
X200.66Y-99.06
X200.66Y-101.6
X200.66Y-104.14
X200.66Y-106.68
X200.66Y-109.22
X200.66Y-111.76
X208.28Y-90.17
X208.28Y-93.98
X208.28Y-96.52
X208.28Y-99.06
X208.28Y-101.6
X208.28Y-104.14
X208.28Y-106.68
X208.28Y-109.22
X208.28Y-111.76
T4
X106.72Y-82.55
X123.15Y-97.79
X127.Y-94.02
X127.Y-99.1
X132.08Y-96.619
X132.08Y-101.501
X143.169Y-60.325
X146.09Y-96.52
X155.869Y-60.325
X168.529Y-60.325
X168.95Y-114.3
X168.95Y-116.84
X168.95Y-119.38
X181.269Y-60.325
X205.78Y-90.17
T5
X87.63Y-83.82
X87.63Y-86.36
X87.63Y-88.9
X87.63Y-91.44
X87.63Y-93.98
X87.63Y-96.52
X87.63Y-99.06
X95.25Y-83.82
X95.25Y-86.36
X95.25Y-88.9
X95.25Y-91.44
X95.25Y-93.98
X95.25Y-96.52
X95.25Y-99.06
X111.125Y-99.314
X111.125Y-106.934
X121.92Y-87.63
X121.92Y-95.25
X137.16Y-114.3
X144.78Y-114.3
X173.99Y-114.3
X173.99Y-121.92
X176.53Y-114.3
X176.53Y-121.92
X179.07Y-114.3
X179.07Y-121.92
T6
X69.789Y-121.061
X69.789Y-127.859
X72.238Y-127.859
X72.288Y-121.061
T8
X104.14Y-113.03
X104.14Y-120.65
X119.38Y-113.03
X119.38Y-120.65
T9
X209.55Y-85.725
X212.09Y-85.725
X215.265Y-65.405
X215.265Y-67.945
X215.265Y-70.485
X215.265Y-73.025
X215.265Y-75.565
X215.265Y-78.105
X215.265Y-80.645
X215.265Y-83.185
X215.265Y-85.725
X215.265Y-88.265
X215.265Y-90.805
X215.265Y-93.345
X215.265Y-95.885
X215.265Y-98.425
X215.265Y-100.965
X215.265Y-103.505
X215.265Y-106.045
X215.265Y-108.585
X215.265Y-111.125
X215.265Y-113.665
X215.265Y-116.205
X215.265Y-118.745
X215.265Y-121.285
X215.265Y-123.825
X215.265Y-126.365
X217.805Y-65.405
X217.805Y-67.945
X217.805Y-70.485
X217.805Y-73.025
X217.805Y-75.565
X217.805Y-78.105
X217.805Y-80.645
X217.805Y-83.185
X217.805Y-85.725
X217.805Y-88.265
X217.805Y-90.805
X217.805Y-93.345
X217.805Y-95.885
X217.805Y-98.425
X217.805Y-100.965
X217.805Y-103.505
X217.805Y-106.045
X217.805Y-108.585
X217.805Y-111.125
X217.805Y-113.665
X217.805Y-116.205
X217.805Y-118.745
X217.805Y-121.285
X217.805Y-123.825
X217.805Y-126.365
T10
X65.992Y-124.46
X66.789Y-117.66
X66.789Y-131.209
T11
X68.58Y-52.832
X68.58Y-138.938
X215.646Y-52.578
X215.646Y-138.938
T7
X71.12Y-62.899G85X71.12Y-64.101
G05
X71.12Y-75.599G85X71.12Y-76.801
G05
X71.12Y-88.299G85X71.12Y-89.501
G05
X71.12Y-100.999G85X71.12Y-102.201
G05
X75.719Y-58.445G85X74.517Y-58.445
G05
X75.719Y-68.555G85X74.517Y-68.555
G05
X75.719Y-71.145G85X74.517Y-71.145
G05
X75.719Y-81.255G85X74.517Y-81.255
G05
X75.719Y-83.845G85X74.517Y-83.845
G05
X75.719Y-93.955G85X74.517Y-93.955
G05
X75.719Y-96.545G85X74.517Y-96.545
G05
X75.719Y-106.655G85X74.517Y-106.655
G05
T0
M30
