%TF.GenerationSoftware,KiCad,Pcbnew,6.0.5-a6ca702e91~116~ubuntu20.04.1*%
%TF.CreationDate,2022-05-16T22:00:56+02:00*%
%TF.ProjectId,cpu_mem_cpld,6370755f-6d65-46d5-9f63-706c642e6b69,rev?*%
%TF.SameCoordinates,Original*%
%TF.FileFunction,Copper,L4,Bot*%
%TF.FilePolarity,Positive*%
%FSLAX46Y46*%
G04 Gerber Fmt 4.6, Leading zero omitted, Abs format (unit mm)*
G04 Created by KiCad (PCBNEW 6.0.5-a6ca702e91~116~ubuntu20.04.1) date 2022-05-16 22:00:56*
%MOMM*%
%LPD*%
G01*
G04 APERTURE LIST*
G04 Aperture macros list*
%AMRoundRect*
0 Rectangle with rounded corners*
0 $1 Rounding radius*
0 $2 $3 $4 $5 $6 $7 $8 $9 X,Y pos of 4 corners*
0 Add a 4 corners polygon primitive as box body*
4,1,4,$2,$3,$4,$5,$6,$7,$8,$9,$2,$3,0*
0 Add four circle primitives for the rounded corners*
1,1,$1+$1,$2,$3*
1,1,$1+$1,$4,$5*
1,1,$1+$1,$6,$7*
1,1,$1+$1,$8,$9*
0 Add four rect primitives between the rounded corners*
20,1,$1+$1,$2,$3,$4,$5,0*
20,1,$1+$1,$4,$5,$6,$7,0*
20,1,$1+$1,$6,$7,$8,$9,0*
20,1,$1+$1,$8,$9,$2,$3,0*%
G04 Aperture macros list end*
%TA.AperFunction,ComponentPad*%
%ADD10R,1.700000X1.700000*%
%TD*%
%TA.AperFunction,ComponentPad*%
%ADD11O,1.700000X1.700000*%
%TD*%
%TA.AperFunction,ComponentPad*%
%ADD12C,1.400000*%
%TD*%
%TA.AperFunction,ComponentPad*%
%ADD13O,1.400000X1.400000*%
%TD*%
%TA.AperFunction,ComponentPad*%
%ADD14R,1.200000X1.200000*%
%TD*%
%TA.AperFunction,ComponentPad*%
%ADD15C,1.200000*%
%TD*%
%TA.AperFunction,ComponentPad*%
%ADD16R,1.600000X1.600000*%
%TD*%
%TA.AperFunction,ComponentPad*%
%ADD17O,1.600000X1.600000*%
%TD*%
%TA.AperFunction,ComponentPad*%
%ADD18R,1.422400X1.422400*%
%TD*%
%TA.AperFunction,ComponentPad*%
%ADD19C,1.422400*%
%TD*%
%TA.AperFunction,ComponentPad*%
%ADD20R,2.400000X1.600000*%
%TD*%
%TA.AperFunction,ComponentPad*%
%ADD21O,2.400000X1.600000*%
%TD*%
%TA.AperFunction,ComponentPad*%
%ADD22C,2.000000*%
%TD*%
%TA.AperFunction,ComponentPad*%
%ADD23R,2.500000X2.500000*%
%TD*%
%TA.AperFunction,ComponentPad*%
%ADD24C,2.500000*%
%TD*%
%TA.AperFunction,ComponentPad*%
%ADD25R,3.500000X3.500000*%
%TD*%
%TA.AperFunction,ComponentPad*%
%ADD26RoundRect,0.750000X-0.750000X-1.000000X0.750000X-1.000000X0.750000X1.000000X-0.750000X1.000000X0*%
%TD*%
%TA.AperFunction,ComponentPad*%
%ADD27RoundRect,0.875000X-0.875000X-0.875000X0.875000X-0.875000X0.875000X0.875000X-0.875000X0.875000X0*%
%TD*%
%TA.AperFunction,ComponentPad*%
%ADD28C,1.600000*%
%TD*%
%TA.AperFunction,ComponentPad*%
%ADD29R,1.500000X1.600000*%
%TD*%
%TA.AperFunction,ComponentPad*%
%ADD30C,3.000000*%
%TD*%
%TA.AperFunction,ComponentPad*%
%ADD31C,4.000000*%
%TD*%
%TA.AperFunction,ComponentPad*%
%ADD32R,2.000000X2.000000*%
%TD*%
%TA.AperFunction,SMDPad,CuDef*%
%ADD33RoundRect,0.250000X-0.650000X0.412500X-0.650000X-0.412500X0.650000X-0.412500X0.650000X0.412500X0*%
%TD*%
%TA.AperFunction,SMDPad,CuDef*%
%ADD34RoundRect,0.250000X0.412500X0.650000X-0.412500X0.650000X-0.412500X-0.650000X0.412500X-0.650000X0*%
%TD*%
%TA.AperFunction,SMDPad,CuDef*%
%ADD35RoundRect,0.250000X-0.412500X-0.650000X0.412500X-0.650000X0.412500X0.650000X-0.412500X0.650000X0*%
%TD*%
%TA.AperFunction,SMDPad,CuDef*%
%ADD36RoundRect,0.250000X0.650000X-0.412500X0.650000X0.412500X-0.650000X0.412500X-0.650000X-0.412500X0*%
%TD*%
%TA.AperFunction,ViaPad*%
%ADD37C,0.889000*%
%TD*%
%TA.AperFunction,Conductor*%
%ADD38C,0.635000*%
%TD*%
%TA.AperFunction,Conductor*%
%ADD39C,0.254000*%
%TD*%
G04 APERTURE END LIST*
D10*
%TO.P,P5,1,Pin_1*%
%TO.N,VCC*%
X215265000Y-65405000D03*
D11*
%TO.P,P5,2,Pin_2*%
%TO.N,/~{RESET}*%
X217805000Y-65405000D03*
%TO.P,P5,3,Pin_3*%
%TO.N,/~{NMI}*%
X215265000Y-67945000D03*
%TO.P,P5,4,Pin_4*%
%TO.N,/~{IRQ}*%
X217805000Y-67945000D03*
%TO.P,P5,5,Pin_5*%
%TO.N,unconnected-(P5-Pad5)*%
X215265000Y-70485000D03*
%TO.P,P5,6,Pin_6*%
%TO.N,/Connector/D7*%
X217805000Y-70485000D03*
%TO.P,P5,7,Pin_7*%
%TO.N,/Connector/D6*%
X215265000Y-73025000D03*
%TO.P,P5,8,Pin_8*%
%TO.N,/Connector/D5*%
X217805000Y-73025000D03*
%TO.P,P5,9,Pin_9*%
%TO.N,/Connector/D4*%
X215265000Y-75565000D03*
%TO.P,P5,10,Pin_10*%
%TO.N,/Connector/D3*%
X217805000Y-75565000D03*
%TO.P,P5,11,Pin_11*%
%TO.N,/Connector/D2*%
X215265000Y-78105000D03*
%TO.P,P5,12,Pin_12*%
%TO.N,/Connector/D1*%
X217805000Y-78105000D03*
%TO.P,P5,13,Pin_13*%
%TO.N,/Connector/D0*%
X215265000Y-80645000D03*
%TO.P,P5,14,Pin_14*%
%TO.N,unconnected-(P5-Pad14)*%
X217805000Y-80645000D03*
%TO.P,P5,15,Pin_15*%
%TO.N,/Connector/R~{W}*%
X215265000Y-83185000D03*
%TO.P,P5,16,Pin_16*%
%TO.N,unconnected-(P5-Pad16)*%
X217805000Y-83185000D03*
%TO.P,P5,17,Pin_17*%
%TO.N,/CPU_RDY*%
X215265000Y-85725000D03*
%TO.P,P5,18,Pin_18*%
%TO.N,unconnected-(P5-Pad18)*%
X217805000Y-85725000D03*
%TO.P,P5,19,Pin_19*%
%TO.N,unconnected-(P5-Pad19)*%
X215265000Y-88265000D03*
%TO.P,P5,20,Pin_20*%
%TO.N,unconnected-(P5-Pad20)*%
X217805000Y-88265000D03*
%TO.P,P5,21,Pin_21*%
%TO.N,/~{CS_OPL}*%
X215265000Y-90805000D03*
%TO.P,P5,22,Pin_22*%
%TO.N,/~{CS_VIA}*%
X217805000Y-90805000D03*
%TO.P,P5,23,Pin_23*%
%TO.N,/~{CS_UART2}*%
X215265000Y-93345000D03*
%TO.P,P5,24,Pin_24*%
%TO.N,/~{CSR_VDP}*%
X217805000Y-93345000D03*
%TO.P,P5,25,Pin_25*%
%TO.N,GND*%
X215265000Y-95885000D03*
%TO.P,P5,26,Pin_26*%
X217805000Y-95885000D03*
%TO.P,P5,27,Pin_27*%
%TO.N,/Connector/A3*%
X215265000Y-98425000D03*
%TO.P,P5,28,Pin_28*%
%TO.N,/Connector/A2*%
X217805000Y-98425000D03*
%TO.P,P5,29,Pin_29*%
%TO.N,/Connector/A1*%
X215265000Y-100965000D03*
%TO.P,P5,30,Pin_30*%
%TO.N,/Connector/A0*%
X217805000Y-100965000D03*
%TO.P,P5,31,Pin_31*%
%TO.N,GND*%
X215265000Y-103505000D03*
%TO.P,P5,32,Pin_32*%
X217805000Y-103505000D03*
%TO.P,P5,33,Pin_33*%
%TO.N,/Connector/~{OE}*%
X215265000Y-106045000D03*
%TO.P,P5,34,Pin_34*%
%TO.N,/Connector/~{WE}*%
X217805000Y-106045000D03*
%TO.P,P5,35,Pin_35*%
%TO.N,GND*%
X215265000Y-108585000D03*
%TO.P,P5,36,Pin_36*%
%TO.N,/Connector/PHI2*%
X217805000Y-108585000D03*
%TO.P,P5,37,Pin_37*%
%TO.N,GND*%
X215265000Y-111125000D03*
%TO.P,P5,38,Pin_38*%
%TO.N,/RESET_TRIG*%
X217805000Y-111125000D03*
%TO.P,P5,39,Pin_39*%
%TO.N,unconnected-(P5-Pad39)*%
X215265000Y-113665000D03*
%TO.P,P5,40,Pin_40*%
%TO.N,unconnected-(P5-Pad40)*%
X217805000Y-113665000D03*
%TO.P,P5,41,Pin_41*%
%TO.N,unconnected-(P5-Pad41)*%
X215265000Y-116205000D03*
%TO.P,P5,42,Pin_42*%
%TO.N,unconnected-(P5-Pad42)*%
X217805000Y-116205000D03*
%TO.P,P5,43,Pin_43*%
%TO.N,VCC*%
X215265000Y-118745000D03*
%TO.P,P5,44,Pin_44*%
X217805000Y-118745000D03*
%TO.P,P5,45,Pin_45*%
X215265000Y-121285000D03*
%TO.P,P5,46,Pin_46*%
X217805000Y-121285000D03*
%TO.P,P5,47,Pin_47*%
%TO.N,GND*%
X215265000Y-123825000D03*
%TO.P,P5,48,Pin_48*%
X217805000Y-123825000D03*
%TO.P,P5,49,Pin_49*%
X215265000Y-126365000D03*
%TO.P,P5,50,Pin_50*%
X217805000Y-126365000D03*
%TD*%
D12*
%TO.P,R2,1*%
%TO.N,VCC*%
X110490000Y-96520000D03*
D13*
%TO.P,R2,2*%
%TO.N,/~{RESET}*%
X105410000Y-96520000D03*
%TD*%
D12*
%TO.P,R5,1*%
%TO.N,VCC*%
X87630000Y-77470000D03*
D13*
%TO.P,R5,2*%
%TO.N,/RESET_TRIG*%
X87630000Y-72390000D03*
%TD*%
D14*
%TO.P,C25,1*%
%TO.N,VCC*%
X80010000Y-105410000D03*
D15*
%TO.P,C25,2*%
%TO.N,Net-(C25-Pad2)*%
X80010000Y-107410000D03*
%TD*%
D16*
%TO.P,U6,1,GND*%
%TO.N,GND*%
X91450000Y-69860000D03*
D17*
%TO.P,U6,2,TR*%
%TO.N,/RESET_TRIG*%
X91450000Y-72400000D03*
%TO.P,U6,3,Q*%
%TO.N,Net-(U5-Pad5)*%
X91450000Y-74940000D03*
%TO.P,U6,4,R*%
%TO.N,VCC*%
X91450000Y-77480000D03*
%TO.P,U6,5,CV*%
%TO.N,Net-(C3-Pad1)*%
X99070000Y-77480000D03*
%TO.P,U6,6,THR*%
%TO.N,Net-(C4-Pad1)*%
X99070000Y-74940000D03*
%TO.P,U6,7,DIS*%
X99070000Y-72400000D03*
%TO.P,U6,8,VCC*%
%TO.N,VCC*%
X99070000Y-69860000D03*
%TD*%
D18*
%TO.P,U11,1,NC*%
%TO.N,unconnected-(U11-Pad1)*%
X105410000Y-116840000D03*
D19*
%TO.P,U11,2,D0*%
%TO.N,/D0*%
X102870000Y-119380000D03*
%TO.P,U11,3,D1*%
%TO.N,/D1*%
X105410000Y-119380000D03*
%TO.P,U11,4,D2*%
%TO.N,/D2*%
X102870000Y-121920000D03*
%TO.P,U11,5,D3*%
%TO.N,/D3*%
X105410000Y-121920000D03*
%TO.P,U11,6,D4*%
%TO.N,/D4*%
X102870000Y-124460000D03*
%TO.P,U11,7,D5*%
%TO.N,/D5*%
X105410000Y-127000000D03*
%TO.P,U11,8,D6*%
%TO.N,/D6*%
X105410000Y-124460000D03*
%TO.P,U11,9,D7*%
%TO.N,/D7*%
X107950000Y-127000000D03*
%TO.P,U11,10,RCLK*%
%TO.N,Net-(U11-Pad10)*%
X107950000Y-124460000D03*
%TO.P,U11,11,SIN*%
%TO.N,Net-(U11-Pad11)*%
X110490000Y-127000000D03*
%TO.P,U11,12,NC*%
%TO.N,unconnected-(U11-Pad12)*%
X110490000Y-124460000D03*
%TO.P,U11,13,SOUT*%
%TO.N,Net-(U11-Pad13)*%
X113030000Y-127000000D03*
%TO.P,U11,14,CS0*%
%TO.N,VCC*%
X113030000Y-124460000D03*
%TO.P,U11,15,CS1*%
X115570000Y-127000000D03*
%TO.P,U11,16,~{CS2}*%
%TO.N,/~{CS_UART}*%
X115570000Y-124460000D03*
%TO.P,U11,17,~{BAUDOUT}*%
%TO.N,Net-(U11-Pad10)*%
X118110000Y-127000000D03*
%TO.P,U11,18,XIN*%
%TO.N,Net-(U11-Pad18)*%
X120650000Y-124460000D03*
%TO.P,U11,19,XOUT*%
%TO.N,unconnected-(U11-Pad19)*%
X118110000Y-124460000D03*
%TO.P,U11,20,~{WR}*%
%TO.N,/~{WE}*%
X120650000Y-121920000D03*
%TO.P,U11,21,WR*%
%TO.N,GND*%
X118110000Y-121920000D03*
%TO.P,U11,22,GND*%
X120650000Y-119380000D03*
%TO.P,U11,23,NC*%
%TO.N,unconnected-(U11-Pad23)*%
X118110000Y-119380000D03*
%TO.P,U11,24,~{RD}*%
%TO.N,/~{OE}*%
X120650000Y-116840000D03*
%TO.P,U11,25,RD*%
%TO.N,GND*%
X118110000Y-116840000D03*
%TO.P,U11,26,DDIS*%
%TO.N,unconnected-(U11-Pad26)*%
X120650000Y-114300000D03*
%TO.P,U11,27,~{TXRDY}*%
%TO.N,unconnected-(U11-Pad27)*%
X118110000Y-114300000D03*
%TO.P,U11,28,~{ADS}*%
%TO.N,GND*%
X120650000Y-111760000D03*
%TO.P,U11,29,A2*%
%TO.N,/CPU_A2*%
X118110000Y-109220000D03*
%TO.P,U11,30,A1*%
%TO.N,/CPU_A1*%
X118110000Y-111760000D03*
%TO.P,U11,31,A0*%
%TO.N,/CPU_A0*%
X115570000Y-109220000D03*
%TO.P,U11,32,~{RXRDY}*%
%TO.N,unconnected-(U11-Pad32)*%
X115570000Y-111760000D03*
%TO.P,U11,33,INTR*%
%TO.N,Net-(U11-Pad33)*%
X113030000Y-109220000D03*
%TO.P,U11,34,NC*%
%TO.N,unconnected-(U11-Pad34)*%
X113030000Y-111760000D03*
%TO.P,U11,35,~{OUT2}*%
%TO.N,unconnected-(U11-Pad35)*%
X110490000Y-109220000D03*
%TO.P,U11,36,~{RTS}*%
%TO.N,Net-(U11-Pad36)*%
X110490000Y-111760000D03*
%TO.P,U11,37,~{DTR}*%
%TO.N,unconnected-(U11-Pad37)*%
X107950000Y-109220000D03*
%TO.P,U11,38,~{OUT1}*%
%TO.N,unconnected-(U11-Pad38)*%
X107950000Y-111760000D03*
%TO.P,U11,39,MR*%
%TO.N,Net-(R1-Pad2)*%
X105410000Y-109220000D03*
%TO.P,U11,40,~{CTS}*%
%TO.N,Net-(U11-Pad40)*%
X102870000Y-111760000D03*
%TO.P,U11,41,~{DSR}*%
%TO.N,VCC*%
X105410000Y-111760000D03*
%TO.P,U11,42,~{DCD}*%
X102870000Y-114300000D03*
%TO.P,U11,43,~{RI}*%
X105410000Y-114300000D03*
%TO.P,U11,44,VCC*%
X102870000Y-116840000D03*
%TD*%
D10*
%TO.P,JTAG,1,Pin_1*%
%TO.N,/TMS*%
X203200000Y-142240000D03*
D11*
%TO.P,JTAG,2,Pin_2*%
%TO.N,/TDI*%
X200660000Y-142240000D03*
%TO.P,JTAG,3,Pin_3*%
%TO.N,/TDO*%
X198120000Y-142240000D03*
%TO.P,JTAG,4,Pin_4*%
%TO.N,/TCK*%
X195580000Y-142240000D03*
%TO.P,JTAG,5,Pin_5*%
%TO.N,GND*%
X193040000Y-142240000D03*
%TO.P,JTAG,6,Pin_6*%
%TO.N,VCC*%
X190500000Y-142240000D03*
%TD*%
D14*
%TO.P,C4,1*%
%TO.N,Net-(C4-Pad1)*%
X99060000Y-64770000D03*
D15*
%TO.P,C4,2*%
%TO.N,GND*%
X97060000Y-64770000D03*
%TD*%
D20*
%TO.P,U10,1,A->B*%
%TO.N,/CPU_RW*%
X207010000Y-87630000D03*
D21*
%TO.P,U10,2,A0*%
%TO.N,/Connector/D0*%
X207010000Y-85090000D03*
%TO.P,U10,3,A1*%
%TO.N,/Connector/D1*%
X207010000Y-82550000D03*
%TO.P,U10,4,A2*%
%TO.N,/Connector/D2*%
X207010000Y-80010000D03*
%TO.P,U10,5,A3*%
%TO.N,/Connector/D3*%
X207010000Y-77470000D03*
%TO.P,U10,6,A4*%
%TO.N,/Connector/D4*%
X207010000Y-74930000D03*
%TO.P,U10,7,A5*%
%TO.N,/Connector/D5*%
X207010000Y-72390000D03*
%TO.P,U10,8,A6*%
%TO.N,/Connector/D6*%
X207010000Y-69850000D03*
%TO.P,U10,9,A7*%
%TO.N,/Connector/D7*%
X207010000Y-67310000D03*
%TO.P,U10,10,GND*%
%TO.N,GND*%
X207010000Y-64770000D03*
%TO.P,U10,11,B7*%
%TO.N,/D7*%
X199390000Y-64770000D03*
%TO.P,U10,12,B6*%
%TO.N,/D6*%
X199390000Y-67310000D03*
%TO.P,U10,13,B5*%
%TO.N,/D5*%
X199390000Y-69850000D03*
%TO.P,U10,14,B4*%
%TO.N,/D4*%
X199390000Y-72390000D03*
%TO.P,U10,15,B3*%
%TO.N,/D3*%
X199390000Y-74930000D03*
%TO.P,U10,16,B2*%
%TO.N,/D2*%
X199390000Y-77470000D03*
%TO.P,U10,17,B1*%
%TO.N,/D1*%
X199390000Y-80010000D03*
%TO.P,U10,18,B0*%
%TO.N,/D0*%
X199390000Y-82550000D03*
%TO.P,U10,19,CE*%
%TO.N,GND*%
X199390000Y-85090000D03*
%TO.P,U10,20,VCC*%
%TO.N,VCC*%
X199390000Y-87630000D03*
%TD*%
D22*
%TO.P,RESET,1,1*%
%TO.N,/RESET_TRIG*%
X71120000Y-62230000D03*
%TO.P,RESET,2,2*%
%TO.N,GND*%
X71120000Y-67230000D03*
%TO.P,RESET,3,3*%
%TO.N,/RESET_TRIG*%
X66120000Y-62230000D03*
%TO.P,RESET,4,4*%
%TO.N,GND*%
X66120000Y-67230000D03*
%TD*%
D23*
%TO.P,X2,1,NC*%
%TO.N,unconnected-(X2-Pad1)*%
X137795000Y-139700000D03*
D24*
%TO.P,X2,7,GND*%
%TO.N,GND*%
X137795000Y-124460000D03*
%TO.P,X2,8,FREQ*%
%TO.N,Net-(U11-Pad18)*%
X130175000Y-124460000D03*
%TO.P,X2,14,+5V*%
%TO.N,VCC*%
X130175000Y-139700000D03*
%TD*%
D20*
%TO.P,U9,1,A->B*%
%TO.N,GND*%
X207010000Y-116840000D03*
D21*
%TO.P,U9,2,A0*%
%TO.N,/Connector/~{OE}*%
X207010000Y-114300000D03*
%TO.P,U9,3,A1*%
%TO.N,/Connector/~{WE}*%
X207010000Y-111760000D03*
%TO.P,U9,4,A2*%
%TO.N,/Connector/R~{W}*%
X207010000Y-109220000D03*
%TO.P,U9,5,A3*%
%TO.N,/Connector/PHI2*%
X207010000Y-106680000D03*
%TO.P,U9,6,A4*%
%TO.N,/Connector/A0*%
X207010000Y-104140000D03*
%TO.P,U9,7,A5*%
%TO.N,/Connector/A1*%
X207010000Y-101600000D03*
%TO.P,U9,8,A6*%
%TO.N,/Connector/A2*%
X207010000Y-99060000D03*
%TO.P,U9,9,A7*%
%TO.N,/Connector/A3*%
X207010000Y-96520000D03*
%TO.P,U9,10,GND*%
%TO.N,GND*%
X207010000Y-93980000D03*
%TO.P,U9,11,B7*%
%TO.N,/CPU_A3*%
X199390000Y-93980000D03*
%TO.P,U9,12,B6*%
%TO.N,/CPU_A2*%
X199390000Y-96520000D03*
%TO.P,U9,13,B5*%
%TO.N,/CPU_A1*%
X199390000Y-99060000D03*
%TO.P,U9,14,B4*%
%TO.N,/CPU_A0*%
X199390000Y-101600000D03*
%TO.P,U9,15,B3*%
%TO.N,/PHI2*%
X199390000Y-104140000D03*
%TO.P,U9,16,B2*%
%TO.N,/CPU_R~{W}*%
X199390000Y-106680000D03*
%TO.P,U9,17,B1*%
%TO.N,/~{WE}*%
X199390000Y-109220000D03*
%TO.P,U9,18,B0*%
%TO.N,/~{OE}*%
X199390000Y-111760000D03*
%TO.P,U9,19,CE*%
%TO.N,GND*%
X199390000Y-114300000D03*
%TO.P,U9,20,VCC*%
%TO.N,VCC*%
X199390000Y-116840000D03*
%TD*%
D25*
%TO.P,5V,1*%
%TO.N,VCC*%
X75850000Y-94292500D03*
D26*
%TO.P,5V,2*%
%TO.N,GND*%
X69850000Y-94292500D03*
D27*
%TO.P,5V,3*%
%TO.N,N/C*%
X72850000Y-98992500D03*
%TD*%
D18*
%TO.P,U2,1,P1*%
%TO.N,/D0*%
X161290000Y-101600000D03*
D19*
%TO.P,U2,2,P2*%
%TO.N,/D1*%
X161290000Y-104140000D03*
%TO.P,U2,3,P3*%
%TO.N,/CPU_A15*%
X158750000Y-101600000D03*
%TO.P,U2,4,P4*%
%TO.N,unconnected-(U2-Pad4)*%
X158750000Y-104140000D03*
%TO.P,U2,5,P5*%
%TO.N,/EXT_A14*%
X156210000Y-101600000D03*
%TO.P,U2,6,P6*%
%TO.N,unconnected-(U2-Pad6)*%
X156210000Y-104140000D03*
%TO.P,U2,7,P7*%
%TO.N,unconnected-(U2-Pad7)*%
X153670000Y-101600000D03*
%TO.P,U2,8,GND*%
%TO.N,GND*%
X153670000Y-104140000D03*
%TO.P,U2,9,I/O/GCK1*%
%TO.N,/CLKIN*%
X151130000Y-101600000D03*
%TO.P,U2,10,I/O/GCK2*%
%TO.N,unconnected-(U2-Pad10)*%
X151130000Y-104140000D03*
%TO.P,U2,11,P11*%
%TO.N,unconnected-(U2-Pad11)*%
X148590000Y-101600000D03*
%TO.P,U2,12,I/O/GCK3*%
%TO.N,unconnected-(U2-Pad12)*%
X146050000Y-104140000D03*
%TO.P,U2,13,P13*%
%TO.N,/CPU_A14*%
X148590000Y-104140000D03*
%TO.P,U2,14,P14*%
%TO.N,/CPU_RDY*%
X146050000Y-106680000D03*
%TO.P,U2,15,P15*%
%TO.N,/CPU_A1*%
X148590000Y-106680000D03*
%TO.P,U2,16,GND*%
%TO.N,GND*%
X146050000Y-109220000D03*
%TO.P,U2,17,P17*%
%TO.N,/CPU_A8*%
X148590000Y-109220000D03*
%TO.P,U2,18,P18*%
%TO.N,/EXT_A15*%
X146050000Y-111760000D03*
%TO.P,U2,19,P19*%
%TO.N,/PHI2*%
X148590000Y-111760000D03*
%TO.P,U2,20,P20*%
%TO.N,unconnected-(U2-Pad20)*%
X146050000Y-114300000D03*
%TO.P,U2,21,P21*%
%TO.N,unconnected-(U2-Pad21)*%
X148590000Y-114300000D03*
%TO.P,U2,22,VCCIO*%
%TO.N,VCC*%
X146050000Y-116840000D03*
%TO.P,U2,23,P23*%
%TO.N,/D6*%
X148590000Y-116840000D03*
%TO.P,U2,24,P24*%
%TO.N,unconnected-(U2-Pad24)*%
X146050000Y-119380000D03*
%TO.P,U2,25,P25*%
%TO.N,/~{CS_RAM}*%
X148590000Y-119380000D03*
%TO.P,U2,26,P26*%
%TO.N,/~{CS_UART}*%
X146050000Y-121920000D03*
%TO.P,U2,27,GND*%
%TO.N,GND*%
X148590000Y-121920000D03*
%TO.P,U2,28,TDI*%
%TO.N,/TDI*%
X146050000Y-124460000D03*
%TO.P,U2,29,TMS*%
%TO.N,/TMS*%
X148590000Y-124460000D03*
%TO.P,U2,30,TCK*%
%TO.N,/TCK*%
X146050000Y-127000000D03*
%TO.P,U2,31,P31*%
%TO.N,/~{CS_ROM}*%
X148590000Y-127000000D03*
%TO.P,U2,32,P32*%
%TO.N,unconnected-(U2-Pad32)*%
X146050000Y-129540000D03*
%TO.P,U2,33,P33*%
%TO.N,/~{CS_VDP}*%
X148590000Y-132080000D03*
%TO.P,U2,34,P34*%
%TO.N,unconnected-(U2-Pad34)*%
X148590000Y-129540000D03*
%TO.P,U2,35,P35*%
%TO.N,/~{CS_OPL}*%
X151130000Y-132080000D03*
%TO.P,U2,36,P36*%
%TO.N,unconnected-(U2-Pad36)*%
X151130000Y-129540000D03*
%TO.P,U2,37,P37*%
%TO.N,/~{OE}*%
X153670000Y-132080000D03*
%TO.P,U2,38,VCC*%
%TO.N,VCC*%
X153670000Y-129540000D03*
%TO.P,U2,39,P39*%
%TO.N,/~{WE}*%
X156210000Y-132080000D03*
%TO.P,U2,40,P40*%
%TO.N,unconnected-(U2-Pad40)*%
X156210000Y-129540000D03*
%TO.P,U2,41,P41*%
%TO.N,unconnected-(U2-Pad41)*%
X158750000Y-132080000D03*
%TO.P,U2,42,GND*%
%TO.N,GND*%
X158750000Y-129540000D03*
%TO.P,U2,43,P43*%
%TO.N,/~{CS_VIA}*%
X161290000Y-132080000D03*
%TO.P,U2,44,P44*%
%TO.N,/CPU_A9*%
X161290000Y-129540000D03*
%TO.P,U2,45,P45*%
%TO.N,unconnected-(U2-Pad45)*%
X163830000Y-132080000D03*
%TO.P,U2,46,P46*%
%TO.N,/D2*%
X163830000Y-129540000D03*
%TO.P,U2,47,P47*%
%TO.N,/EXT_A16*%
X166370000Y-132080000D03*
%TO.P,U2,48,P48*%
%TO.N,/CPU_A4*%
X166370000Y-129540000D03*
%TO.P,U2,49,GND*%
%TO.N,GND*%
X168910000Y-132080000D03*
%TO.P,U2,50,P50*%
%TO.N,unconnected-(U2-Pad50)*%
X168910000Y-129540000D03*
%TO.P,U2,51,P51*%
%TO.N,unconnected-(U2-Pad51)*%
X171450000Y-132080000D03*
%TO.P,U2,52,P52*%
%TO.N,/EXT_A17*%
X171450000Y-129540000D03*
%TO.P,U2,53,P53*%
%TO.N,/CPU_A6*%
X173990000Y-132080000D03*
%TO.P,U2,54,P54*%
%TO.N,unconnected-(U2-Pad54)*%
X176530000Y-129540000D03*
%TO.P,U2,55,P55*%
%TO.N,unconnected-(U2-Pad55)*%
X173990000Y-129540000D03*
%TO.P,U2,56,P56*%
%TO.N,/CPU_A12*%
X176530000Y-127000000D03*
%TO.P,U2,57,P57*%
%TO.N,unconnected-(U2-Pad57)*%
X173990000Y-127000000D03*
%TO.P,U2,58,P58*%
%TO.N,unconnected-(U2-Pad58)*%
X176530000Y-124460000D03*
%TO.P,U2,59,TDO*%
%TO.N,/TDO*%
X173990000Y-124460000D03*
%TO.P,U2,60,GND*%
%TO.N,GND*%
X176530000Y-121920000D03*
%TO.P,U2,61,P61*%
%TO.N,/EXT_A18*%
X173990000Y-121920000D03*
%TO.P,U2,62,P62*%
%TO.N,unconnected-(U2-Pad62)*%
X176530000Y-119380000D03*
%TO.P,U2,63,P63*%
%TO.N,unconnected-(U2-Pad63)*%
X173990000Y-119380000D03*
%TO.P,U2,64,VCCIO*%
%TO.N,VCC*%
X176530000Y-116840000D03*
%TO.P,U2,65,P65*%
%TO.N,/CPU_A10*%
X173990000Y-116840000D03*
%TO.P,U2,66,P66*%
%TO.N,/CPU_A11*%
X176530000Y-114300000D03*
%TO.P,U2,67,P67*%
%TO.N,unconnected-(U2-Pad67)*%
X173990000Y-114300000D03*
%TO.P,U2,68,P68*%
%TO.N,/D4*%
X176530000Y-111760000D03*
%TO.P,U2,69,P69*%
%TO.N,unconnected-(U2-Pad69)*%
X173990000Y-111760000D03*
%TO.P,U2,70,P70*%
%TO.N,/CPU_A5*%
X176530000Y-109220000D03*
%TO.P,U2,71,P71*%
%TO.N,/CPU_R~{W}*%
X173990000Y-109220000D03*
%TO.P,U2,72,P72*%
%TO.N,/D3*%
X176530000Y-106680000D03*
%TO.P,U2,73,VCC*%
%TO.N,VCC*%
X173990000Y-106680000D03*
%TO.P,U2,74,I/O/GSR*%
%TO.N,/~{RESET}*%
X176530000Y-104140000D03*
%TO.P,U2,75,P75*%
%TO.N,unconnected-(U2-Pad75)*%
X173990000Y-101600000D03*
%TO.P,U2,76,I/O/GTS1*%
%TO.N,unconnected-(U2-Pad76)*%
X173990000Y-104140000D03*
%TO.P,U2,77,I/O/GTS2*%
%TO.N,unconnected-(U2-Pad77)*%
X171450000Y-101600000D03*
%TO.P,U2,78,VCC*%
%TO.N,VCC*%
X171450000Y-104140000D03*
%TO.P,U2,79,P79*%
%TO.N,/D7*%
X168910000Y-101600000D03*
%TO.P,U2,80,P80*%
%TO.N,unconnected-(U2-Pad80)*%
X168910000Y-104140000D03*
%TO.P,U2,81,P81*%
%TO.N,/CPU_A0*%
X166370000Y-101600000D03*
%TO.P,U2,82,P82*%
%TO.N,/D5*%
X166370000Y-104140000D03*
%TO.P,U2,83,P83*%
%TO.N,/CPU_A7*%
X163830000Y-101600000D03*
%TO.P,U2,84,P84*%
%TO.N,/CPU_A13*%
X163830000Y-104140000D03*
%TD*%
D23*
%TO.P,X1,1,NC*%
%TO.N,unconnected-(X1-Pad1)*%
X137795000Y-116205000D03*
D24*
%TO.P,X1,7,GND*%
%TO.N,GND*%
X137795000Y-100965000D03*
%TO.P,X1,8,FREQ*%
%TO.N,/CLKIN*%
X130175000Y-100965000D03*
%TO.P,X1,14,+5V*%
%TO.N,VCC*%
X130175000Y-116205000D03*
%TD*%
D28*
%TO.P,C2,1*%
%TO.N,/RESET_TRIG*%
X93980000Y-66040000D03*
%TO.P,C2,2*%
%TO.N,GND*%
X91480000Y-66040000D03*
%TD*%
D20*
%TO.P,U3,1,A14*%
%TO.N,/EXT_A14*%
X172715000Y-54595000D03*
D21*
%TO.P,U3,2,A12*%
%TO.N,/CPU_A12*%
X172715000Y-57135000D03*
%TO.P,U3,3,A7*%
%TO.N,/CPU_A7*%
X172715000Y-59675000D03*
%TO.P,U3,4,A6*%
%TO.N,/CPU_A6*%
X172715000Y-62215000D03*
%TO.P,U3,5,A5*%
%TO.N,/CPU_A5*%
X172715000Y-64755000D03*
%TO.P,U3,6,A4*%
%TO.N,/CPU_A4*%
X172715000Y-67295000D03*
%TO.P,U3,7,A3*%
%TO.N,/CPU_A3*%
X172715000Y-69835000D03*
%TO.P,U3,8,A2*%
%TO.N,/CPU_A2*%
X172715000Y-72375000D03*
%TO.P,U3,9,A1*%
%TO.N,/CPU_A1*%
X172715000Y-74915000D03*
%TO.P,U3,10,A0*%
%TO.N,/CPU_A0*%
X172715000Y-77455000D03*
%TO.P,U3,11,D0*%
%TO.N,/D0*%
X172715000Y-79995000D03*
%TO.P,U3,12,D1*%
%TO.N,/D1*%
X172715000Y-82535000D03*
%TO.P,U3,13,D2*%
%TO.N,/D2*%
X172715000Y-85075000D03*
%TO.P,U3,14,GND*%
%TO.N,GND*%
X172715000Y-87615000D03*
%TO.P,U3,15,D3*%
%TO.N,/D3*%
X187955000Y-87615000D03*
%TO.P,U3,16,D4*%
%TO.N,/D4*%
X187955000Y-85075000D03*
%TO.P,U3,17,D5*%
%TO.N,/D5*%
X187955000Y-82535000D03*
%TO.P,U3,18,D6*%
%TO.N,/D6*%
X187955000Y-79995000D03*
%TO.P,U3,19,D7*%
%TO.N,/D7*%
X187955000Y-77455000D03*
%TO.P,U3,20,~{CS}*%
%TO.N,/~{CS_ROM}*%
X187955000Y-74915000D03*
%TO.P,U3,21,A10*%
%TO.N,/CPU_A10*%
X187955000Y-72375000D03*
%TO.P,U3,22,~{OE}*%
%TO.N,/~{OE}*%
X187955000Y-69835000D03*
%TO.P,U3,23,A11*%
%TO.N,/CPU_A11*%
X187955000Y-67295000D03*
%TO.P,U3,24,A9*%
%TO.N,/CPU_A9*%
X187955000Y-64755000D03*
%TO.P,U3,25,A8*%
%TO.N,/CPU_A8*%
X187955000Y-62215000D03*
%TO.P,U3,26,A13*%
%TO.N,/CPU_A13*%
X187955000Y-59675000D03*
%TO.P,U3,27,~{WE}*%
%TO.N,VCC*%
X187955000Y-57135000D03*
%TO.P,U3,28,VCC*%
X187955000Y-54595000D03*
%TD*%
D20*
%TO.P,U4,1,A18*%
%TO.N,/EXT_A18*%
X152420000Y-49530000D03*
D21*
%TO.P,U4,2,A16*%
%TO.N,/EXT_A16*%
X152420000Y-52070000D03*
%TO.P,U4,3,A14*%
%TO.N,/EXT_A14*%
X152420000Y-54610000D03*
%TO.P,U4,4,A12*%
%TO.N,/CPU_A12*%
X152420000Y-57150000D03*
%TO.P,U4,5,A7*%
%TO.N,/CPU_A7*%
X152420000Y-59690000D03*
%TO.P,U4,6,A6*%
%TO.N,/CPU_A6*%
X152420000Y-62230000D03*
%TO.P,U4,7,A5*%
%TO.N,/CPU_A5*%
X152420000Y-64770000D03*
%TO.P,U4,8,A4*%
%TO.N,/CPU_A4*%
X152420000Y-67310000D03*
%TO.P,U4,9,A3*%
%TO.N,/CPU_A3*%
X152420000Y-69850000D03*
%TO.P,U4,10,A2*%
%TO.N,/CPU_A2*%
X152420000Y-72390000D03*
%TO.P,U4,11,A1*%
%TO.N,/CPU_A1*%
X152420000Y-74930000D03*
%TO.P,U4,12,A0*%
%TO.N,/CPU_A0*%
X152420000Y-77470000D03*
%TO.P,U4,13,DQ0*%
%TO.N,/D0*%
X152420000Y-80010000D03*
%TO.P,U4,14,DQ1*%
%TO.N,/D1*%
X152420000Y-82550000D03*
%TO.P,U4,15,DQ2*%
%TO.N,/D2*%
X152420000Y-85090000D03*
%TO.P,U4,16,VSS*%
%TO.N,GND*%
X152420000Y-87630000D03*
%TO.P,U4,17,DQ3*%
%TO.N,/D3*%
X167660000Y-87630000D03*
%TO.P,U4,18,DQ4*%
%TO.N,/D4*%
X167660000Y-85090000D03*
%TO.P,U4,19,DQ5*%
%TO.N,/D5*%
X167660000Y-82550000D03*
%TO.P,U4,20,DQ6*%
%TO.N,/D6*%
X167660000Y-80010000D03*
%TO.P,U4,21,DQ7*%
%TO.N,/D7*%
X167660000Y-77470000D03*
%TO.P,U4,22,CE#*%
%TO.N,/~{CS_RAM}*%
X167660000Y-74930000D03*
%TO.P,U4,23,A10*%
%TO.N,/CPU_A10*%
X167660000Y-72390000D03*
%TO.P,U4,24,OE#*%
%TO.N,/~{OE}*%
X167660000Y-69850000D03*
%TO.P,U4,25,A11*%
%TO.N,/CPU_A11*%
X167660000Y-67310000D03*
%TO.P,U4,26,A9*%
%TO.N,/CPU_A9*%
X167660000Y-64770000D03*
%TO.P,U4,27,A8*%
%TO.N,/CPU_A8*%
X167660000Y-62230000D03*
%TO.P,U4,28,A13*%
%TO.N,/CPU_A13*%
X167660000Y-59690000D03*
%TO.P,U4,29,WE#*%
%TO.N,/~{WE}*%
X167660000Y-57150000D03*
%TO.P,U4,30,A17*%
%TO.N,/EXT_A17*%
X167660000Y-54610000D03*
%TO.P,U4,31,A15*%
%TO.N,/EXT_A15*%
X167660000Y-52070000D03*
%TO.P,U4,32,VCC*%
%TO.N,VCC*%
X167660000Y-49530000D03*
%TD*%
D12*
%TO.P,R6,1*%
%TO.N,Net-(C4-Pad1)*%
X101600000Y-74930000D03*
D13*
%TO.P,R6,2*%
%TO.N,VCC*%
X101600000Y-69850000D03*
%TD*%
D14*
%TO.P,C21,1*%
%TO.N,Net-(C21-Pad1)*%
X80010000Y-118110000D03*
D15*
%TO.P,C21,2*%
%TO.N,Net-(C21-Pad2)*%
X80010000Y-120110000D03*
%TD*%
D20*
%TO.P,U5,1*%
%TO.N,Net-(U11-Pad33)*%
X91425000Y-86355000D03*
D21*
%TO.P,U5,2*%
%TO.N,/~{IRQ}*%
X91425000Y-88895000D03*
%TO.P,U5,3*%
%TO.N,/~{RESET}*%
X91425000Y-91435000D03*
%TO.P,U5,4*%
%TO.N,Net-(R1-Pad2)*%
X91425000Y-93975000D03*
%TO.P,U5,5*%
%TO.N,Net-(U5-Pad5)*%
X91425000Y-96515000D03*
%TO.P,U5,6*%
%TO.N,/~{RESET}*%
X91425000Y-99055000D03*
%TO.P,U5,7,GND*%
%TO.N,GND*%
X91425000Y-101595000D03*
%TO.P,U5,8*%
%TO.N,unconnected-(U5-Pad8)*%
X99045000Y-101595000D03*
%TO.P,U5,9*%
%TO.N,GND*%
X99045000Y-99055000D03*
%TO.P,U5,10*%
%TO.N,unconnected-(U5-Pad10)*%
X99045000Y-96515000D03*
%TO.P,U5,11*%
%TO.N,GND*%
X99045000Y-93975000D03*
%TO.P,U5,12*%
%TO.N,unconnected-(U5-Pad12)*%
X99045000Y-91435000D03*
%TO.P,U5,13*%
%TO.N,GND*%
X99045000Y-88895000D03*
%TO.P,U5,14,VCC*%
%TO.N,VCC*%
X99045000Y-86355000D03*
%TD*%
D29*
%TO.P,J1,1,VBUS*%
%TO.N,VCC*%
X74930000Y-76510000D03*
D28*
%TO.P,J1,2,D-*%
%TO.N,unconnected-(J1-Pad2)*%
X74930000Y-79010000D03*
%TO.P,J1,3,D+*%
%TO.N,unconnected-(J1-Pad3)*%
X74930000Y-81010000D03*
%TO.P,J1,4,GND*%
%TO.N,GND*%
X74930000Y-83510000D03*
D30*
%TO.P,J1,5,Shield*%
%TO.N,unconnected-(J1-Pad5)*%
X72220000Y-86580000D03*
X72220000Y-73440000D03*
%TD*%
D14*
%TO.P,C20,1*%
%TO.N,Net-(C20-Pad1)*%
X80010000Y-111760000D03*
D15*
%TO.P,C20,2*%
%TO.N,Net-(C20-Pad2)*%
X80010000Y-113760000D03*
%TD*%
D14*
%TO.P,C17,1*%
%TO.N,VCC*%
X95250000Y-106680000D03*
D15*
%TO.P,C17,2*%
%TO.N,GND*%
X97250000Y-106680000D03*
%TD*%
D28*
%TO.P,C3,1*%
%TO.N,Net-(C3-Pad1)*%
X99060000Y-81280000D03*
%TO.P,C3,2*%
%TO.N,GND*%
X96560000Y-81280000D03*
%TD*%
D16*
%TO.P,RN1,1,common*%
%TO.N,VCC*%
X123210000Y-58420000D03*
D17*
%TO.P,RN1,2,R1*%
%TO.N,/~{BE}*%
X120670000Y-58420000D03*
%TO.P,RN1,3,R2*%
%TO.N,/CPU_RDY*%
X118130000Y-58420000D03*
%TO.P,RN1,4,R3*%
%TO.N,/~{IRQ}*%
X115590000Y-58420000D03*
%TO.P,RN1,5,R4*%
%TO.N,/~{NMI}*%
X113050000Y-58420000D03*
%TD*%
D12*
%TO.P,R3,1*%
%TO.N,Net-(J3-Pad4)*%
X77470000Y-130810000D03*
D13*
%TO.P,R3,2*%
%TO.N,Net-(C25-Pad2)*%
X82550000Y-130810000D03*
%TD*%
D20*
%TO.P,U13,1,C1+*%
%TO.N,Net-(C20-Pad1)*%
X85075000Y-110505000D03*
D21*
%TO.P,U13,2,VS+*%
%TO.N,Net-(C25-Pad2)*%
X85075000Y-113045000D03*
%TO.P,U13,3,C1-*%
%TO.N,Net-(C20-Pad2)*%
X85075000Y-115585000D03*
%TO.P,U13,4,C2+*%
%TO.N,Net-(C21-Pad1)*%
X85075000Y-118125000D03*
%TO.P,U13,5,C2-*%
%TO.N,Net-(C21-Pad2)*%
X85075000Y-120665000D03*
%TO.P,U13,6,VS-*%
%TO.N,Net-(C23-Pad2)*%
X85075000Y-123205000D03*
%TO.P,U13,7,T2OUT*%
%TO.N,Net-(J3-Pad3)*%
X85075000Y-125745000D03*
%TO.P,U13,8,R2IN*%
%TO.N,Net-(J3-Pad2)*%
X85075000Y-128285000D03*
%TO.P,U13,9,R2OUT*%
%TO.N,Net-(U11-Pad11)*%
X92695000Y-128285000D03*
%TO.P,U13,10,T2IN*%
%TO.N,Net-(U11-Pad13)*%
X92695000Y-125745000D03*
%TO.P,U13,11,T1IN*%
%TO.N,Net-(U11-Pad36)*%
X92695000Y-123205000D03*
%TO.P,U13,12,R1OUT*%
%TO.N,Net-(U11-Pad40)*%
X92695000Y-120665000D03*
%TO.P,U13,13,R1IN*%
%TO.N,Net-(J3-Pad8)*%
X92695000Y-118125000D03*
%TO.P,U13,14,T1OUT*%
%TO.N,Net-(J3-Pad7)*%
X92695000Y-115585000D03*
%TO.P,U13,15,GND*%
%TO.N,GND*%
X92695000Y-113045000D03*
%TO.P,U13,16,VCC*%
%TO.N,VCC*%
X92695000Y-110505000D03*
%TD*%
D31*
%TO.P,SERIAL,0*%
%TO.N,N/C*%
X71194000Y-131540300D03*
X71194000Y-106540300D03*
D16*
%TO.P,SERIAL,1,1*%
%TO.N,unconnected-(J3-Pad1)*%
X71494000Y-113500300D03*
D28*
%TO.P,SERIAL,2,2*%
%TO.N,Net-(J3-Pad2)*%
X71494000Y-116270300D03*
%TO.P,SERIAL,3,3*%
%TO.N,Net-(J3-Pad3)*%
X71494000Y-119040300D03*
%TO.P,SERIAL,4,4*%
%TO.N,Net-(J3-Pad4)*%
X71494000Y-121810300D03*
%TO.P,SERIAL,5,5*%
%TO.N,GND*%
X71494000Y-124580300D03*
%TO.P,SERIAL,6,6*%
%TO.N,unconnected-(J3-Pad6)*%
X68654000Y-114885300D03*
%TO.P,SERIAL,7,7*%
%TO.N,Net-(J3-Pad7)*%
X68654000Y-117655300D03*
%TO.P,SERIAL,8,8*%
%TO.N,Net-(J3-Pad8)*%
X68654000Y-120425300D03*
%TO.P,SERIAL,9,9*%
%TO.N,unconnected-(J3-Pad9)*%
X68654000Y-123195300D03*
%TD*%
D14*
%TO.P,C23,1*%
%TO.N,GND*%
X80010000Y-124460000D03*
D15*
%TO.P,C23,2*%
%TO.N,Net-(C23-Pad2)*%
X80010000Y-126460000D03*
%TD*%
D18*
%TO.P,U1,1,VSS*%
%TO.N,GND*%
X124460000Y-67310000D03*
D19*
%TO.P,U1,2,~{VP}*%
%TO.N,unconnected-(U1-Pad2)*%
X121920000Y-64770000D03*
%TO.P,U1,3,RDY*%
%TO.N,/CPU_RDY*%
X121920000Y-67310000D03*
%TO.P,U1,4,\u03D51*%
%TO.N,unconnected-(U1-Pad4)*%
X119380000Y-64770000D03*
%TO.P,U1,5,~{IRQ}*%
%TO.N,/~{IRQ}*%
X119380000Y-67310000D03*
%TO.P,U1,6,~{ML}*%
%TO.N,unconnected-(U1-Pad6)*%
X116840000Y-64770000D03*
%TO.P,U1,7,~{NMI}*%
%TO.N,/~{NMI}*%
X114300000Y-67310000D03*
%TO.P,U1,8,SYNC*%
%TO.N,unconnected-(U1-Pad8)*%
X116840000Y-67310000D03*
%TO.P,U1,9,VDD*%
%TO.N,VCC*%
X114300000Y-69850000D03*
%TO.P,U1,10,A0*%
%TO.N,/CPU_A0*%
X116840000Y-69850000D03*
%TO.P,U1,11,A1*%
%TO.N,/CPU_A1*%
X114300000Y-72390000D03*
%TO.P,U1,12,nc*%
%TO.N,unconnected-(U1-Pad12)*%
X116840000Y-72390000D03*
%TO.P,U1,13,A2*%
%TO.N,/CPU_A2*%
X114300000Y-74930000D03*
%TO.P,U1,14,A3*%
%TO.N,/CPU_A3*%
X116840000Y-74930000D03*
%TO.P,U1,15,A4*%
%TO.N,/CPU_A4*%
X114300000Y-77470000D03*
%TO.P,U1,16,A5*%
%TO.N,/CPU_A5*%
X116840000Y-77470000D03*
%TO.P,U1,17,A6*%
%TO.N,/CPU_A6*%
X114300000Y-80010000D03*
%TO.P,U1,18,A7*%
%TO.N,/CPU_A7*%
X116840000Y-82550000D03*
%TO.P,U1,19,A8*%
%TO.N,/CPU_A8*%
X116840000Y-80010000D03*
%TO.P,U1,20,A9*%
%TO.N,/CPU_A9*%
X119380000Y-82550000D03*
%TO.P,U1,21,A10*%
%TO.N,/CPU_A10*%
X119380000Y-80010000D03*
%TO.P,U1,22,A11*%
%TO.N,/CPU_A11*%
X121920000Y-82550000D03*
%TO.P,U1,23,VSS*%
%TO.N,GND*%
X121920000Y-80010000D03*
%TO.P,U1,24,VSS*%
X124460000Y-82550000D03*
%TO.P,U1,25,A12*%
%TO.N,/CPU_A12*%
X124460000Y-80010000D03*
%TO.P,U1,26,A13*%
%TO.N,/CPU_A13*%
X127000000Y-82550000D03*
%TO.P,U1,27,A14*%
%TO.N,/CPU_A14*%
X127000000Y-80010000D03*
%TO.P,U1,28,A15*%
%TO.N,/CPU_A15*%
X129540000Y-82550000D03*
%TO.P,U1,29,D7*%
%TO.N,/D7*%
X132080000Y-80010000D03*
%TO.P,U1,30,D6*%
%TO.N,/D6*%
X129540000Y-80010000D03*
%TO.P,U1,31,D5*%
%TO.N,/D5*%
X132080000Y-77470000D03*
%TO.P,U1,32,D4*%
%TO.N,/D4*%
X129540000Y-77470000D03*
%TO.P,U1,33,D3*%
%TO.N,/D3*%
X132080000Y-74930000D03*
%TO.P,U1,34,D2*%
%TO.N,/D2*%
X129540000Y-74930000D03*
%TO.P,U1,35,D1*%
%TO.N,/D1*%
X132080000Y-72390000D03*
%TO.P,U1,36,D0*%
%TO.N,/D0*%
X129540000Y-72390000D03*
%TO.P,U1,37,VDD*%
%TO.N,VCC*%
X132080000Y-69850000D03*
%TO.P,U1,38,R/~{W}*%
%TO.N,/CPU_R~{W}*%
X129540000Y-69850000D03*
%TO.P,U1,39,nc*%
%TO.N,unconnected-(U1-Pad39)*%
X132080000Y-67310000D03*
%TO.P,U1,40,BE*%
%TO.N,/~{BE}*%
X129540000Y-64770000D03*
%TO.P,U1,41,\u03D50*%
%TO.N,/PHI2*%
X129540000Y-67310000D03*
%TO.P,U1,42,~{SO}*%
%TO.N,unconnected-(U1-Pad42)*%
X127000000Y-64770000D03*
%TO.P,U1,43,\u03D52O*%
%TO.N,unconnected-(U1-Pad43)*%
X127000000Y-67310000D03*
%TO.P,U1,44,~{RES}*%
%TO.N,/~{RESET}*%
X124460000Y-64770000D03*
%TD*%
D12*
%TO.P,R1,1*%
%TO.N,VCC*%
X110490000Y-93980000D03*
D13*
%TO.P,R1,2*%
%TO.N,Net-(R1-Pad2)*%
X105410000Y-93980000D03*
%TD*%
D32*
%TO.P,C16,1*%
%TO.N,VCC*%
X83820000Y-91267700D03*
D22*
%TO.P,C16,2*%
%TO.N,GND*%
X83820000Y-86267700D03*
%TD*%
D33*
%TO.P,C1,1*%
%TO.N,VCC*%
X179070000Y-117182500D03*
%TO.P,C1,2*%
%TO.N,GND*%
X179070000Y-120307500D03*
%TD*%
%TO.P,C14,1*%
%TO.N,VCC*%
X172085000Y-106387500D03*
%TO.P,C14,2*%
%TO.N,GND*%
X172085000Y-109512500D03*
%TD*%
D34*
%TO.P,C13,1*%
%TO.N,VCC*%
X169495000Y-106680000D03*
%TO.P,C13,2*%
%TO.N,GND*%
X166370000Y-106680000D03*
%TD*%
D35*
%TO.P,C7,1*%
%TO.N,VCC*%
X153085000Y-127000000D03*
%TO.P,C7,2*%
%TO.N,GND*%
X156210000Y-127000000D03*
%TD*%
D36*
%TO.P,C6,1*%
%TO.N,VCC*%
X100330000Y-116497500D03*
%TO.P,C6,2*%
%TO.N,GND*%
X100330000Y-113372500D03*
%TD*%
D33*
%TO.P,C11,1*%
%TO.N,VCC*%
X143510000Y-117182500D03*
%TO.P,C11,2*%
%TO.N,GND*%
X143510000Y-120307500D03*
%TD*%
%TO.P,C9,1*%
%TO.N,VCC*%
X111760000Y-69557500D03*
%TO.P,C9,2*%
%TO.N,GND*%
X111760000Y-72682500D03*
%TD*%
D37*
%TO.N,GND*%
X111760000Y-74295000D03*
X179070000Y-121920000D03*
X172720000Y-51435000D03*
X158115000Y-127000000D03*
X205105000Y-120015000D03*
X166370000Y-109220000D03*
X191135000Y-59055000D03*
X143510000Y-121920000D03*
X203885800Y-90830400D03*
X100330000Y-111760000D03*
X170180000Y-109855000D03*
%TO.N,/~{RESET}*%
X116427000Y-59793100D03*
%TO.N,/CPU_RDY*%
X146082500Y-96768800D03*
X139953400Y-96613900D03*
%TO.N,/CPU_A0*%
X116980200Y-103806200D03*
%TO.N,/CPU_A1*%
X125596000Y-85293600D03*
X179387100Y-88784000D03*
%TO.N,/CPU_A2*%
X180630000Y-87585800D03*
%TO.N,/CPU_A3*%
X181660300Y-86684900D03*
X165561300Y-69850000D03*
%TO.N,/CPU_A4*%
X144722700Y-133745000D03*
X150139700Y-63200800D03*
%TO.N,/CPU_A5*%
X118261800Y-68200000D03*
%TO.N,/CPU_A8*%
X145358100Y-63942900D03*
X145253400Y-76374800D03*
%TO.N,/CPU_A9*%
X165548300Y-60889600D03*
X140795600Y-125973600D03*
%TO.N,/CPU_A10*%
X154800500Y-90114600D03*
X133822500Y-95854800D03*
X159010600Y-77569400D03*
X122077000Y-84109300D03*
X166463700Y-113403700D03*
%TO.N,/CPU_A11*%
X134782700Y-110490000D03*
X191022300Y-98522300D03*
X182568400Y-88413500D03*
%TO.N,/CPU_A12*%
X133632100Y-91118100D03*
X149221500Y-75517200D03*
%TO.N,/CPU_A13*%
X164857700Y-73037700D03*
%TO.N,/CPU_A14*%
X136089200Y-78898800D03*
%TO.N,/CPU_A15*%
X136936100Y-84440600D03*
X151024700Y-99982400D03*
%TO.N,/D7*%
X122035200Y-98700300D03*
X140461700Y-97983800D03*
X168988600Y-99219600D03*
%TO.N,/D6*%
X177328700Y-79857500D03*
X138192800Y-93453500D03*
%TO.N,/D5*%
X121100000Y-103036600D03*
X141316000Y-103036600D03*
%TO.N,/D4*%
X115740100Y-103766400D03*
X177208400Y-85075000D03*
%TO.N,/D3*%
X140395400Y-75409900D03*
X111582600Y-112686500D03*
X152103100Y-93107300D03*
X141754500Y-105258300D03*
%TO.N,/D2*%
X137588200Y-94520700D03*
X140418800Y-120325600D03*
%TO.N,/D1*%
X148280000Y-72670200D03*
X165641600Y-115393900D03*
%TO.N,/D0*%
X142435700Y-61024200D03*
X137910300Y-61024200D03*
X149348500Y-61470000D03*
%TO.N,/CPU_R~{W}*%
X136111700Y-71120000D03*
X151311800Y-93933100D03*
%TO.N,/~{CS_RAM}*%
X141428600Y-92091900D03*
%TO.N,/~{CS_ROM}*%
X143045900Y-93745100D03*
X163575900Y-83333800D03*
%TO.N,/EXT_A18*%
X168087200Y-119927300D03*
%TO.N,/EXT_A17*%
X181993900Y-108948400D03*
X164152400Y-100109500D03*
%TO.N,/EXT_A16*%
X147310600Y-79341600D03*
X136106600Y-92392700D03*
%TO.N,/EXT_A15*%
X162900700Y-88102300D03*
X145188500Y-97491900D03*
%TO.N,/~{OE}*%
X158942100Y-117983100D03*
X183811500Y-87320900D03*
%TD*%
D38*
%TO.N,GND*%
X172084500Y-109512000D02*
X172085000Y-109512500D01*
X172084500Y-109512000D02*
X170522000Y-109512000D01*
X172085000Y-109512000D02*
X172084500Y-109512000D01*
X100330000Y-113372000D02*
X100330000Y-113372500D01*
X166370000Y-106680000D02*
X166370000Y-109220000D01*
X179070000Y-120308000D02*
X179070000Y-120307500D01*
X100330000Y-113372000D02*
X100330000Y-111760000D01*
X170522000Y-109512000D02*
X170180000Y-109855000D01*
X143510000Y-120308000D02*
X143510000Y-120307500D01*
X143510000Y-120308000D02*
X143510000Y-121920000D01*
X179070000Y-120308000D02*
X179070000Y-121920000D01*
X111760000Y-72682500D02*
X111760000Y-74295000D01*
X156210000Y-127000000D02*
X158115000Y-127000000D01*
%TO.N,VCC*%
X176530000Y-116840000D02*
X178728000Y-116840000D01*
X114008000Y-69557500D02*
X114300000Y-69850000D01*
X173990000Y-106680000D02*
X172378000Y-106680000D01*
X172378000Y-106680000D02*
X172231500Y-106534000D01*
X169495000Y-106095000D02*
X171450000Y-104140000D01*
X100330500Y-116498000D02*
X100330000Y-116497500D01*
X172231500Y-106534000D02*
X172085000Y-106387500D01*
X143510500Y-117182000D02*
X143510000Y-117182500D01*
X100330000Y-116498000D02*
X100330500Y-116498000D01*
X178728000Y-116840000D02*
X179070000Y-117182000D01*
X111760000Y-69557500D02*
X114008000Y-69557500D01*
X153670000Y-127585000D02*
X153085000Y-127000000D01*
X169495000Y-106680000D02*
X169495000Y-106095000D01*
X179070000Y-117182000D02*
X179070000Y-117182500D01*
X102528000Y-116498000D02*
X102870000Y-116840000D01*
X172231500Y-106534000D02*
X172085000Y-106388000D01*
X143510500Y-117182000D02*
X145708000Y-117182000D01*
X100330500Y-116498000D02*
X102528000Y-116498000D01*
X153670000Y-129540000D02*
X153670000Y-127585000D01*
X143510000Y-117182000D02*
X143510500Y-117182000D01*
X145708000Y-117182000D02*
X146050000Y-116840000D01*
D39*
%TO.N,/~{RESET}*%
X94355400Y-97705900D02*
X103142800Y-97705900D01*
X198582100Y-78740000D02*
X190067200Y-87254900D01*
X209954800Y-68580000D02*
X206206500Y-68580000D01*
X216342900Y-66636300D02*
X211898500Y-66636300D01*
X105410000Y-96520000D02*
X104328700Y-96520000D01*
X94355400Y-92784100D02*
X93006300Y-91435000D01*
X119400000Y-59710000D02*
X124460000Y-64770000D01*
X211898500Y-66636300D02*
X209954800Y-68580000D01*
X116860000Y-58015000D02*
X117655700Y-57219300D01*
X117655700Y-57219300D02*
X118606200Y-57219300D01*
X93006300Y-99055000D02*
X94355400Y-97705900D01*
X217805000Y-65405000D02*
X216573700Y-65405000D01*
X94355400Y-97705900D02*
X94355400Y-92784100D01*
X119400000Y-58013100D02*
X119400000Y-59710000D01*
X216573700Y-66405500D02*
X216342900Y-66636300D01*
X118606200Y-57219300D02*
X119400000Y-58013100D01*
X190067200Y-87254900D02*
X190067200Y-90602800D01*
X205428600Y-73503500D02*
X200192100Y-78740000D01*
X205428600Y-69357900D02*
X205428600Y-73503500D01*
X91425000Y-91435000D02*
X93006300Y-91435000D01*
X116427000Y-59793100D02*
X116860000Y-59360100D01*
X91425000Y-99055000D02*
X93006300Y-99055000D01*
X190067200Y-90602800D02*
X176530000Y-104140000D01*
X206206500Y-68580000D02*
X205428600Y-69357900D01*
X200192100Y-78740000D02*
X198582100Y-78740000D01*
X103142800Y-97705900D02*
X104328700Y-96520000D01*
X216573700Y-65405000D02*
X216573700Y-66405500D01*
X116860000Y-59360100D02*
X116860000Y-58015000D01*
%TO.N,/~{NMI}*%
X115596600Y-56687600D02*
X114231300Y-58052900D01*
X113288400Y-58420000D02*
X113288400Y-66298400D01*
X215265000Y-67945000D02*
X216496300Y-67945000D01*
X216496300Y-68406700D02*
X217304600Y-69215000D01*
X217304600Y-69215000D02*
X218283800Y-69215000D01*
X136931400Y-56687600D02*
X115596600Y-56687600D01*
X142093800Y-61850000D02*
X136931400Y-56687600D01*
X218283800Y-69215000D02*
X219054900Y-68443900D01*
X216496300Y-67945000D02*
X216496300Y-68406700D01*
X151103800Y-48297700D02*
X143261600Y-56139900D01*
X219054900Y-64906600D02*
X202446000Y-48297700D01*
X113050000Y-58420000D02*
X113288400Y-58420000D01*
X113288400Y-66298400D02*
X114300000Y-67310000D01*
X219054900Y-68443900D02*
X219054900Y-64906600D01*
X143261600Y-61395600D02*
X142807200Y-61850000D01*
X143261600Y-56139900D02*
X143261600Y-61395600D01*
X114231300Y-58052900D02*
X114231300Y-58420000D01*
X142807200Y-61850000D02*
X142093800Y-61850000D01*
X113288400Y-58420000D02*
X114231300Y-58420000D01*
X202446000Y-48297700D02*
X151103800Y-48297700D01*
%TO.N,/RESET_TRIG*%
X91450000Y-72400000D02*
X91450000Y-71218700D01*
X91450000Y-71218700D02*
X92262100Y-71218700D01*
X87630000Y-72390000D02*
X86548700Y-72390000D01*
X92262100Y-71218700D02*
X93980000Y-69500800D01*
X93980000Y-69500800D02*
X93980000Y-66040000D01*
X76388700Y-62230000D02*
X86548700Y-72390000D01*
X71120000Y-62230000D02*
X76388700Y-62230000D01*
%TO.N,/~{IRQ}*%
X118110000Y-62643800D02*
X118110000Y-66040000D01*
X118110000Y-66040000D02*
X119380000Y-67310000D01*
X115590000Y-58420000D02*
X115590000Y-59601300D01*
X115590000Y-59601300D02*
X115590000Y-60123800D01*
X115590000Y-60123800D02*
X118110000Y-62643800D01*
%TO.N,/CPU_RDY*%
X121920000Y-67310000D02*
X128270000Y-73660000D01*
X138560600Y-92653300D02*
X139783100Y-93875800D01*
X121920000Y-67310000D02*
X120650000Y-66040000D01*
X138560600Y-91645000D02*
X138560600Y-92653300D01*
X129883600Y-73660000D02*
X130632600Y-74409000D01*
X130632600Y-80800000D02*
X132632200Y-82799600D01*
X120650000Y-66040000D02*
X120650000Y-62121300D01*
X144940200Y-105570200D02*
X144940200Y-102073500D01*
X120650000Y-62121300D02*
X118130000Y-59601300D01*
X132632200Y-82799600D02*
X132632200Y-85716600D01*
X146050000Y-106680000D02*
X144940200Y-105570200D01*
X139783100Y-96443600D02*
X139953400Y-96613900D01*
X146082500Y-100931200D02*
X146082500Y-96768800D01*
X128270000Y-73660000D02*
X129883600Y-73660000D01*
X132632200Y-85716600D02*
X138560600Y-91645000D01*
X118130000Y-58420000D02*
X118130000Y-59601300D01*
X130632600Y-74409000D02*
X130632600Y-80800000D01*
X139783100Y-93875800D02*
X139783100Y-96443600D01*
X144940200Y-102073500D02*
X146082500Y-100931200D01*
%TO.N,/~{CS_OPL}*%
X215265000Y-90805000D02*
X214033700Y-90805000D01*
X180151500Y-108185400D02*
X180151500Y-109729400D01*
X180151500Y-109729400D02*
X176746300Y-113134600D01*
X193086900Y-95250000D02*
X180151500Y-108185400D01*
X159842600Y-129378600D02*
X159842600Y-130004900D01*
X209588700Y-95250000D02*
X193086900Y-95250000D01*
X175082600Y-114133900D02*
X175082600Y-114821000D01*
X152400000Y-130810000D02*
X151130000Y-132080000D01*
X214033700Y-90805000D02*
X209588700Y-95250000D01*
X176746300Y-113134600D02*
X176081900Y-113134600D01*
X174333600Y-115570000D02*
X173651200Y-115570000D01*
X159037500Y-130810000D02*
X152400000Y-130810000D01*
X159842600Y-130004900D02*
X159037500Y-130810000D01*
X175082600Y-114821000D02*
X174333600Y-115570000D01*
X176081900Y-113134600D02*
X175082600Y-114133900D01*
X173651200Y-115570000D02*
X159842600Y-129378600D01*
%TO.N,/~{CS_VIA}*%
X173706900Y-118110000D02*
X162560000Y-129256900D01*
X217805000Y-90805000D02*
X216573700Y-90805000D01*
X209016200Y-97834100D02*
X193663300Y-97834100D01*
X176664000Y-115747400D02*
X176009100Y-115747400D01*
X214814000Y-92036300D02*
X209016200Y-97834100D01*
X162560000Y-129256900D02*
X162560000Y-130810000D01*
X174333600Y-118110000D02*
X173706900Y-118110000D01*
X193663300Y-97834100D02*
X183374800Y-108122600D01*
X181168100Y-108606400D02*
X181168100Y-111243300D01*
X175082600Y-117361000D02*
X174333600Y-118110000D01*
X181168100Y-111243300D02*
X176664000Y-115747400D01*
X181651900Y-108122600D02*
X181168100Y-108606400D01*
X175082600Y-116673900D02*
X175082600Y-117361000D01*
X183374800Y-108122600D02*
X181651900Y-108122600D01*
X176009100Y-115747400D02*
X175082600Y-116673900D01*
X215804200Y-92036300D02*
X214814000Y-92036300D01*
X216573700Y-91266800D02*
X215804200Y-92036300D01*
X162560000Y-130810000D02*
X161290000Y-132080000D01*
X216573700Y-90805000D02*
X216573700Y-91266800D01*
%TO.N,/Connector/D6*%
X207010000Y-69850000D02*
X208591300Y-69850000D01*
X211766300Y-73025000D02*
X208591300Y-69850000D01*
X215265000Y-73025000D02*
X211766300Y-73025000D01*
%TO.N,/Connector/R~{W}*%
X215726800Y-84416300D02*
X216496300Y-85185800D01*
X216496300Y-85185800D02*
X216496300Y-86234000D01*
X209155900Y-100159700D02*
X209155900Y-107074100D01*
X218369300Y-86995000D02*
X219080100Y-87705800D01*
X215265000Y-84416300D02*
X215726800Y-84416300D01*
X215265000Y-83185000D02*
X215265000Y-84416300D01*
X218302700Y-94615000D02*
X214700600Y-94615000D01*
X209155900Y-107074100D02*
X207010000Y-109220000D01*
X216496300Y-86234000D02*
X217257300Y-86995000D01*
X219080100Y-93837600D02*
X218302700Y-94615000D01*
X214700600Y-94615000D02*
X209155900Y-100159700D01*
X217257300Y-86995000D02*
X218369300Y-86995000D01*
X219080100Y-87705800D02*
X219080100Y-93837600D01*
%TO.N,/Connector/~{OE}*%
X206206300Y-110490000D02*
X205428700Y-111267600D01*
X207010000Y-114300000D02*
X205428700Y-114300000D01*
X212439200Y-106045000D02*
X207994200Y-110490000D01*
X207994200Y-110490000D02*
X206206300Y-110490000D01*
X215265000Y-106045000D02*
X212439200Y-106045000D01*
X205428700Y-111267600D02*
X205428700Y-114300000D01*
%TO.N,/Connector/~{WE}*%
X215804200Y-107276300D02*
X213969200Y-107276300D01*
X216573700Y-106506800D02*
X215804200Y-107276300D01*
X209485500Y-111760000D02*
X207010000Y-111760000D01*
X217805000Y-106045000D02*
X216573700Y-106045000D01*
X216573700Y-106045000D02*
X216573700Y-106506800D01*
X213969200Y-107276300D02*
X209485500Y-111760000D01*
%TO.N,Net-(C3-Pad1)*%
X99070000Y-77480000D02*
X99070000Y-78661300D01*
X99060000Y-78671300D02*
X99070000Y-78661300D01*
X99060000Y-81280000D02*
X99060000Y-78671300D01*
%TO.N,Net-(C4-Pad1)*%
X100271300Y-66962600D02*
X100271300Y-70384500D01*
X99060000Y-64770000D02*
X99060000Y-65751300D01*
X99070000Y-72400000D02*
X99070000Y-74940000D01*
X99437100Y-71218700D02*
X99070000Y-71218700D01*
X99060000Y-65751300D02*
X100271300Y-66962600D01*
X100271300Y-70384500D02*
X99437100Y-71218700D01*
X99070000Y-72400000D02*
X99070000Y-71218700D01*
%TO.N,Net-(C20-Pad2)*%
X81835000Y-115585000D02*
X85075000Y-115585000D01*
X80010000Y-113760000D02*
X81835000Y-115585000D01*
%TO.N,Net-(C25-Pad2)*%
X86656300Y-128792800D02*
X86656300Y-113045000D01*
X84639100Y-130810000D02*
X86656300Y-128792800D01*
X85075000Y-113045000D02*
X83493700Y-113045000D01*
X80010000Y-109561300D02*
X83493700Y-113045000D01*
X82550000Y-130810000D02*
X84639100Y-130810000D01*
X85075000Y-113045000D02*
X86656300Y-113045000D01*
X80010000Y-107410000D02*
X80010000Y-109561300D01*
%TO.N,Net-(J3-Pad2)*%
X83493700Y-126203000D02*
X83493700Y-128285000D01*
X71494000Y-116270300D02*
X73561000Y-116270300D01*
X85075000Y-128285000D02*
X83493700Y-128285000D01*
X73561000Y-116270300D02*
X83493700Y-126203000D01*
%TO.N,Net-(J3-Pad4)*%
X71494000Y-121810300D02*
X77470000Y-127786300D01*
X77470000Y-127786300D02*
X77470000Y-130810000D01*
%TO.N,/TDO*%
X175260000Y-125730000D02*
X173990000Y-124460000D01*
X180840400Y-125730000D02*
X175260000Y-125730000D01*
X196888700Y-142240000D02*
X196888700Y-141778300D01*
X198120000Y-142240000D02*
X196888700Y-142240000D01*
X196888700Y-141778300D02*
X180840400Y-125730000D01*
%TO.N,/~{BE}*%
X129540000Y-64770000D02*
X127462000Y-62692000D01*
X125311200Y-62692000D02*
X121851300Y-59232100D01*
X127462000Y-62692000D02*
X125311200Y-62692000D01*
X121851300Y-59232100D02*
X121851300Y-58420000D01*
X120670000Y-58420000D02*
X121851300Y-58420000D01*
%TO.N,/CPU_A0*%
X110464000Y-71980500D02*
X110464000Y-90101100D01*
X172715000Y-77455000D02*
X171133700Y-77455000D01*
X111682300Y-98508300D02*
X116980200Y-103806200D01*
X171133700Y-78626900D02*
X171133700Y-77455000D01*
X115570000Y-105216400D02*
X116980200Y-103806200D01*
X111324500Y-71120000D02*
X110464000Y-71980500D01*
X111682300Y-91319400D02*
X111682300Y-98508300D01*
X166370000Y-101600000D02*
X165556100Y-100786100D01*
X168480600Y-81280000D02*
X171133700Y-78626900D01*
X110464000Y-90101100D02*
X111682300Y-91319400D01*
X165556100Y-100786100D02*
X165556100Y-82330700D01*
X116840000Y-69850000D02*
X115570000Y-71120000D01*
X166606800Y-81280000D02*
X168480600Y-81280000D01*
X115570000Y-71120000D02*
X111324500Y-71120000D01*
X165556100Y-82330700D02*
X166606800Y-81280000D01*
X115570000Y-109220000D02*
X115570000Y-105216400D01*
%TO.N,/CPU_A1*%
X117806000Y-102745400D02*
X112190700Y-97130100D01*
X114261100Y-73345900D02*
X114300000Y-73307000D01*
X112190700Y-97130100D02*
X112190700Y-75416300D01*
X119482600Y-78564400D02*
X120472600Y-79554400D01*
X115747400Y-77990900D02*
X116320900Y-78564400D01*
X112190700Y-75416300D02*
X114261100Y-73345900D01*
X114261100Y-73345900D02*
X115747400Y-74832200D01*
X123320200Y-82354300D02*
X123320200Y-83017800D01*
X123320200Y-83017800D02*
X125596000Y-85293600D01*
X122068500Y-81102600D02*
X123320200Y-82354300D01*
X174296300Y-74915000D02*
X178746700Y-79365400D01*
X120472600Y-80130900D02*
X121444300Y-81102600D01*
X172715000Y-74915000D02*
X174296300Y-74915000D01*
X116320900Y-78564400D02*
X119482600Y-78564400D01*
X117806000Y-104172900D02*
X117806000Y-102745400D01*
X115747400Y-74832200D02*
X115747400Y-77990900D01*
X117017400Y-104961500D02*
X117806000Y-104172900D01*
X118110000Y-111760000D02*
X117017400Y-110667400D01*
X121444300Y-81102600D02*
X122068500Y-81102600D01*
X178746700Y-79365400D02*
X178746700Y-88143600D01*
X117017400Y-110667400D02*
X117017400Y-104961500D01*
X120472600Y-79554400D02*
X120472600Y-80130900D01*
X178746700Y-88143600D02*
X179387100Y-88784000D01*
X114300000Y-73307000D02*
X114300000Y-72390000D01*
%TO.N,/CPU_A2*%
X118338900Y-108991100D02*
X118338900Y-95725100D01*
X172715000Y-72375000D02*
X174296300Y-72375000D01*
X112699000Y-90085200D02*
X112699000Y-76531000D01*
X174296300Y-72375000D02*
X180630000Y-78708700D01*
X118110000Y-109220000D02*
X118338900Y-108991100D01*
X112699000Y-76531000D02*
X114300000Y-74930000D01*
X180630000Y-78708700D02*
X180630000Y-87585800D01*
X118338900Y-95725100D02*
X112699000Y-90085200D01*
%TO.N,/CPU_A3*%
X172415400Y-69835000D02*
X171133700Y-69835000D01*
X172415400Y-69835000D02*
X172475400Y-69835000D01*
X172715000Y-69835000D02*
X172415400Y-69835000D01*
X181660300Y-79019900D02*
X181660300Y-86684900D01*
X171133700Y-69835000D02*
X169937300Y-71031400D01*
X169937300Y-71031400D02*
X166742700Y-71031400D01*
X172475400Y-69835000D02*
X181660300Y-79019900D01*
X166742700Y-71031400D02*
X165561300Y-69850000D01*
%TO.N,/CPU_A4*%
X122861000Y-98358300D02*
X113207400Y-88704700D01*
X152420000Y-67310000D02*
X150838700Y-67310000D01*
X122861000Y-111883300D02*
X122861000Y-98358300D01*
X150139700Y-66611000D02*
X150139700Y-63200800D01*
X144722700Y-133745000D02*
X122861000Y-111883300D01*
X150838700Y-67310000D02*
X150139700Y-66611000D01*
X113207400Y-78562600D02*
X114300000Y-77470000D01*
X113207400Y-88704700D02*
X113207400Y-78562600D01*
%TO.N,/CPU_A5*%
X154001300Y-64770000D02*
X161225100Y-71993800D01*
X175405800Y-108095800D02*
X176530000Y-109220000D01*
X116840000Y-77470000D02*
X118261800Y-76048200D01*
X161225100Y-89074500D02*
X162382700Y-90232100D01*
X163497800Y-105352800D02*
X167076900Y-105352800D01*
X118261800Y-76048200D02*
X118261800Y-68200000D01*
X167437300Y-106589200D02*
X168943900Y-108095800D01*
X162382700Y-90232100D02*
X162382700Y-104237700D01*
X162382700Y-104237700D02*
X163497800Y-105352800D01*
X152420000Y-64770000D02*
X154001300Y-64770000D01*
X167076900Y-105352800D02*
X167437300Y-105713200D01*
X161225100Y-71993800D02*
X161225100Y-89074500D01*
X168943900Y-108095800D02*
X175405800Y-108095800D01*
X167437300Y-105713200D02*
X167437300Y-106589200D01*
%TO.N,/CPU_A6*%
X173990000Y-132080000D02*
X170739500Y-135330500D01*
X139489000Y-123813200D02*
X134274400Y-118598600D01*
X123369300Y-98147800D02*
X114300000Y-89078500D01*
X148114000Y-135330500D02*
X139489000Y-126705500D01*
X170739500Y-135330500D02*
X148114000Y-135330500D01*
X123369300Y-104250500D02*
X123369300Y-98147800D01*
X114300000Y-89078500D02*
X114300000Y-80010000D01*
X134274400Y-118598600D02*
X134274400Y-115155600D01*
X139489000Y-126705500D02*
X139489000Y-123813200D01*
X134274400Y-115155600D02*
X123369300Y-104250500D01*
%TO.N,/CPU_A7*%
X161858200Y-88269900D02*
X161858200Y-67546900D01*
X163246000Y-89657700D02*
X161858200Y-88269900D01*
X163830000Y-101600000D02*
X163246000Y-101016000D01*
X152420000Y-59690000D02*
X154001300Y-59690000D01*
X163246000Y-101016000D02*
X163246000Y-89657700D01*
X161858200Y-67546900D02*
X154001300Y-59690000D01*
%TO.N,/CPU_A8*%
X152222600Y-94155700D02*
X152929900Y-93448400D01*
X145253400Y-76374800D02*
X145253400Y-64047600D01*
X148590000Y-109220000D02*
X152222600Y-105587400D01*
X187955000Y-62215000D02*
X186373700Y-62215000D01*
X169241300Y-62230000D02*
X170445000Y-61026300D01*
X185185000Y-61026300D02*
X186373700Y-62215000D01*
X170445000Y-61026300D02*
X185185000Y-61026300D01*
X145253400Y-64047600D02*
X145358100Y-63942900D01*
X145253400Y-84370800D02*
X145253400Y-76374800D01*
X152929900Y-93448400D02*
X152929900Y-92047300D01*
X167660000Y-62230000D02*
X169241300Y-62230000D01*
X152222600Y-105587400D02*
X152222600Y-94155700D01*
X152929900Y-92047300D02*
X145253400Y-84370800D01*
%TO.N,/CPU_A9*%
X123877600Y-101271100D02*
X123877600Y-97937300D01*
X135100000Y-112493500D02*
X123877600Y-101271100D01*
X165548300Y-64239600D02*
X165548300Y-60889600D01*
X187955000Y-64755000D02*
X186373700Y-64755000D01*
X170515900Y-63495400D02*
X169241300Y-64770000D01*
X167660000Y-64770000D02*
X169241300Y-64770000D01*
X186373700Y-64755000D02*
X185114100Y-63495400D01*
X119380000Y-93439700D02*
X119380000Y-82550000D01*
X135100000Y-118647300D02*
X135100000Y-112493500D01*
X123877600Y-97937300D02*
X119380000Y-93439700D01*
X185114100Y-63495400D02*
X170515900Y-63495400D01*
X140795600Y-125973600D02*
X140795600Y-124342900D01*
X167660000Y-64770000D02*
X166078700Y-64770000D01*
X166078700Y-64770000D02*
X165548300Y-64239600D01*
X140795600Y-124342900D02*
X135100000Y-118647300D01*
%TO.N,/CPU_A10*%
X157613200Y-78966800D02*
X159010600Y-77569400D01*
X157613200Y-90114600D02*
X154800500Y-90114600D01*
X166463700Y-113403700D02*
X157613200Y-104553200D01*
X122077000Y-84109300D02*
X133822500Y-95854800D01*
X157613200Y-90114600D02*
X157613200Y-78966800D01*
X157613200Y-104553200D02*
X157613200Y-90114600D01*
%TO.N,/CPU_A11*%
X187955000Y-67295000D02*
X186373700Y-67295000D01*
X180659800Y-108395900D02*
X180659800Y-110170200D01*
X121251200Y-94592100D02*
X134782700Y-108123600D01*
X182568400Y-68565000D02*
X170496300Y-68565000D01*
X186373700Y-67295000D02*
X185103700Y-68565000D01*
X134782700Y-108123600D02*
X134782700Y-110490000D01*
X191022300Y-98522300D02*
X190533400Y-98522300D01*
X167660000Y-67310000D02*
X169241300Y-67310000D01*
X180659800Y-110170200D02*
X176530000Y-114300000D01*
X185103700Y-68565000D02*
X182568400Y-68565000D01*
X170496300Y-68565000D02*
X169241300Y-67310000D01*
X190533400Y-98522300D02*
X180659800Y-108395900D01*
X121920000Y-82550000D02*
X121251200Y-83218800D01*
X182568400Y-68565000D02*
X182568400Y-88413500D01*
X121251200Y-83218800D02*
X121251200Y-94592100D01*
%TO.N,/CPU_A12*%
X170180000Y-132364900D02*
X167739800Y-134805100D01*
X175082600Y-128447400D02*
X173469100Y-128447400D01*
X170929100Y-130987400D02*
X170180000Y-131736500D01*
X150838700Y-57150000D02*
X148509500Y-59479200D01*
X176530000Y-127000000D02*
X175082600Y-128447400D01*
X170180000Y-131736500D02*
X170180000Y-132364900D01*
X148309400Y-134805100D02*
X141621400Y-128117100D01*
X148509500Y-59479200D02*
X148509500Y-69969600D01*
X135655400Y-93141400D02*
X133632100Y-91118100D01*
X125854800Y-83340800D02*
X125854800Y-81404800D01*
X141621400Y-123789300D02*
X135655400Y-117823300D01*
X125854800Y-81404800D02*
X124460000Y-80010000D01*
X172542600Y-129373900D02*
X172542600Y-130061000D01*
X135655400Y-117823300D02*
X135655400Y-93141400D01*
X141621400Y-128117100D02*
X141621400Y-123789300D01*
X149221500Y-70681600D02*
X149221500Y-75517200D01*
X171616200Y-130987400D02*
X170929100Y-130987400D01*
X133632100Y-91118100D02*
X125854800Y-83340800D01*
X173469100Y-128447400D02*
X172542600Y-129373900D01*
X172542600Y-130061000D02*
X171616200Y-130987400D01*
X167739800Y-134805100D02*
X148309400Y-134805100D01*
X152420000Y-57150000D02*
X150838700Y-57150000D01*
X148509500Y-69969600D02*
X149221500Y-70681600D01*
%TO.N,/CPU_A13*%
X165509500Y-59690000D02*
X164716500Y-60483000D01*
X163830000Y-104140000D02*
X164996800Y-102973200D01*
X164996800Y-73176800D02*
X164857700Y-73037700D01*
X167660000Y-59690000D02*
X166078700Y-59690000D01*
X164716500Y-60483000D02*
X164716500Y-72896500D01*
X164716500Y-72896500D02*
X164857700Y-73037700D01*
X164996800Y-102973200D02*
X164996800Y-73176800D01*
X166078700Y-59690000D02*
X165509500Y-59690000D01*
%TO.N,/CPU_A14*%
X149736700Y-102993300D02*
X149736700Y-98462500D01*
X149736700Y-98462500D02*
X136089200Y-84815000D01*
X148590000Y-104140000D02*
X149736700Y-102993300D01*
X136089200Y-84815000D02*
X136089200Y-78898800D01*
%TO.N,/CPU_A15*%
X151024700Y-98529200D02*
X136936100Y-84440600D01*
X151024700Y-99982400D02*
X151024700Y-98529200D01*
%TO.N,/D7*%
X109220000Y-125730000D02*
X107950000Y-127000000D01*
X133140600Y-85506200D02*
X139068900Y-91434500D01*
X185288500Y-87011800D02*
X185288500Y-78540200D01*
X122035200Y-98700300D02*
X122035200Y-111975200D01*
X168988600Y-101521400D02*
X168988600Y-99219600D01*
X183061000Y-89239300D02*
X185288500Y-87011800D01*
X169241300Y-76298100D02*
X171839400Y-73700000D01*
X171839400Y-73700000D02*
X173810500Y-73700000D01*
X168988600Y-99219600D02*
X170154700Y-99219600D01*
X197808700Y-64770000D02*
X197808700Y-67601300D01*
X173810500Y-73700000D02*
X179530600Y-79420100D01*
X119202600Y-114133900D02*
X119202600Y-114821000D01*
X139068900Y-91434500D02*
X139068900Y-92442800D01*
X180572800Y-88801500D02*
X181010600Y-89239300D01*
X187955000Y-77455000D02*
X186373700Y-77455000D01*
X167660000Y-77470000D02*
X169241300Y-77470000D01*
X140291400Y-93665300D02*
X140291400Y-95208400D01*
X199390000Y-64770000D02*
X197808700Y-64770000D01*
X179530600Y-87759300D02*
X180572800Y-88801500D01*
X139068900Y-92442800D02*
X140291400Y-93665300D01*
X122035200Y-111975200D02*
X120803000Y-113207400D01*
X181010600Y-89239300D02*
X183061000Y-89239300D01*
X120129100Y-113207400D02*
X119202600Y-114133900D01*
X168910000Y-101600000D02*
X168988600Y-101521400D01*
X140779300Y-95696300D02*
X140779300Y-97666200D01*
X120803000Y-113207400D02*
X120129100Y-113207400D01*
X185288500Y-78540200D02*
X186373700Y-77455000D01*
X170154700Y-99219600D02*
X180572800Y-88801500D01*
X109220000Y-124172900D02*
X109220000Y-125730000D01*
X140291400Y-95208400D02*
X140779300Y-95696300D01*
X197808700Y-67601300D02*
X187955000Y-77455000D01*
X140779300Y-97666200D02*
X140461700Y-97983800D01*
X169241300Y-77470000D02*
X169241300Y-76298100D01*
X118453600Y-115570000D02*
X117822900Y-115570000D01*
X117822900Y-115570000D02*
X109220000Y-124172900D01*
X179530600Y-79420100D02*
X179530600Y-87759300D01*
X133140600Y-81070600D02*
X133140600Y-85506200D01*
X119202600Y-114821000D02*
X118453600Y-115570000D01*
X132080000Y-80010000D02*
X133140600Y-81070600D01*
%TO.N,/D6*%
X138414000Y-97103800D02*
X140341300Y-99031100D01*
X144957400Y-119787300D02*
X144957400Y-119852200D01*
X138052300Y-91855500D02*
X132123900Y-85927100D01*
X129540100Y-80426400D02*
X129540100Y-80010000D01*
X140341300Y-116050500D02*
X143035800Y-118745000D01*
X132123900Y-85927100D02*
X132123900Y-83010200D01*
X129540100Y-80010000D02*
X129540000Y-80010000D01*
X144957400Y-119852200D02*
X145655900Y-120550700D01*
X138192800Y-93453500D02*
X138414000Y-93674700D01*
X189536300Y-77163700D02*
X199390000Y-67310000D01*
X148988300Y-120550700D02*
X149683100Y-119855900D01*
X132123900Y-83010200D02*
X129540100Y-80426400D01*
X145655900Y-120550700D02*
X148988300Y-120550700D01*
X143035800Y-118745000D02*
X143915100Y-118745000D01*
X149683100Y-119855900D02*
X149683100Y-117933100D01*
X173744800Y-76273600D02*
X177328700Y-79857500D01*
X149683100Y-117933100D02*
X148590000Y-116840000D01*
X167660000Y-80010000D02*
X171396400Y-76273600D01*
X187955000Y-79995000D02*
X189536300Y-79995000D01*
X138192800Y-93453500D02*
X138052300Y-93313000D01*
X171396400Y-76273600D02*
X173744800Y-76273600D01*
X189536300Y-79995000D02*
X189536300Y-77163700D01*
X143915100Y-118745000D02*
X144957400Y-119787300D01*
X140341300Y-99031100D02*
X140341300Y-116050500D01*
X138414000Y-93674700D02*
X138414000Y-97103800D01*
X138052300Y-93313000D02*
X138052300Y-91855500D01*
%TO.N,/D5*%
X166370000Y-104140000D02*
X167462600Y-103047400D01*
X187955000Y-82535000D02*
X189536300Y-82535000D01*
X106680000Y-124174700D02*
X117824700Y-113030000D01*
X105410000Y-127000000D02*
X106680000Y-125730000D01*
X167462600Y-95590500D02*
X166078700Y-94206600D01*
X118453600Y-113030000D02*
X119202600Y-112281000D01*
X167462600Y-103047400D02*
X167462600Y-95590500D01*
X117824700Y-113030000D02*
X118453600Y-113030000D01*
X140799700Y-94997900D02*
X141316000Y-95514200D01*
X191209400Y-76449300D02*
X197808700Y-69850000D01*
X166078700Y-94206600D02*
X166078700Y-82550000D01*
X141316000Y-95514200D02*
X141316000Y-103036600D01*
X119202600Y-104934000D02*
X121100000Y-103036600D01*
X167660000Y-82550000D02*
X166078700Y-82550000D01*
X199390000Y-69850000D02*
X197808700Y-69850000D01*
X139577200Y-92232300D02*
X140799700Y-93454800D01*
X191209400Y-80861900D02*
X191209400Y-76449300D01*
X119202600Y-112281000D02*
X119202600Y-104934000D01*
X134056600Y-85549200D02*
X139577200Y-91069800D01*
X189536300Y-82535000D02*
X191209400Y-80861900D01*
X139577200Y-91069800D02*
X139577200Y-92232300D01*
X140799700Y-93454800D02*
X140799700Y-94997900D01*
X134056600Y-79446600D02*
X134056600Y-85549200D01*
X106680000Y-125730000D02*
X106680000Y-124174700D01*
X132080000Y-77470000D02*
X134056600Y-79446600D01*
%TO.N,/D4*%
X175174500Y-106923200D02*
X175174500Y-106306300D01*
X104140000Y-123190000D02*
X105695400Y-123190000D01*
X192225500Y-82385800D02*
X189536300Y-85075000D01*
X114300000Y-114585400D02*
X114300000Y-105206500D01*
X105695400Y-123190000D02*
X114300000Y-114585400D01*
X169241300Y-85090000D02*
X170417900Y-86266600D01*
X176982400Y-108127400D02*
X176378700Y-108127400D01*
X114300000Y-105206500D02*
X115740100Y-103766400D01*
X197808700Y-72390000D02*
X192225500Y-77973200D01*
X199390000Y-72390000D02*
X197808700Y-72390000D01*
X176530000Y-111760000D02*
X177631100Y-110658900D01*
X192225500Y-77973200D02*
X192225500Y-82385800D01*
X172897200Y-100132800D02*
X186373700Y-86656300D01*
X173706500Y-105410000D02*
X172897200Y-104600700D01*
X175174500Y-106306300D02*
X174278200Y-105410000D01*
X176378700Y-108127400D02*
X175174500Y-106923200D01*
X187955000Y-85075000D02*
X186373700Y-85075000D01*
X177631100Y-108776100D02*
X176982400Y-108127400D01*
X176016800Y-86266600D02*
X177208400Y-85075000D01*
X167660000Y-85090000D02*
X169241300Y-85090000D01*
X177631100Y-110658900D02*
X177631100Y-108776100D01*
X172897200Y-104600700D02*
X172897200Y-100132800D01*
X170417900Y-86266600D02*
X176016800Y-86266600D01*
X186373700Y-86656300D02*
X186373700Y-85075000D01*
X102870000Y-124460000D02*
X104140000Y-123190000D01*
X187955000Y-85075000D02*
X189536300Y-85075000D01*
X174278200Y-105410000D02*
X173706500Y-105410000D01*
%TO.N,/D3*%
X141575100Y-94831800D02*
X142175400Y-95432100D01*
X134564900Y-84774100D02*
X140085500Y-90294700D01*
X140395400Y-81399600D02*
X152103100Y-93107300D01*
X140395400Y-75409900D02*
X140395400Y-81399600D01*
X187955000Y-87615000D02*
X189536300Y-87615000D01*
X199390000Y-74930000D02*
X197808700Y-74930000D01*
X140085500Y-91916700D02*
X141575100Y-93406300D01*
X187955000Y-87615000D02*
X186373700Y-87615000D01*
X134564900Y-77414900D02*
X134564900Y-84774100D01*
X141575100Y-93406300D02*
X141575100Y-94831800D01*
X132080000Y-74930000D02*
X134564900Y-77414900D01*
X175408200Y-98580500D02*
X186373700Y-87615000D01*
X189536300Y-87615000D02*
X189536300Y-86033700D01*
X189536300Y-86033700D02*
X197808700Y-77761300D01*
X111582600Y-115747400D02*
X111582600Y-112686500D01*
X105410000Y-121920000D02*
X111582600Y-115747400D01*
X142175400Y-95432100D02*
X142175400Y-104837400D01*
X140085500Y-90294700D02*
X140085500Y-91916700D01*
X142175400Y-104837400D02*
X141754500Y-105258300D01*
X176530000Y-106680000D02*
X175408200Y-105558200D01*
X197808700Y-77761300D02*
X197808700Y-74930000D01*
X175408200Y-105558200D02*
X175408200Y-98580500D01*
%TO.N,/D2*%
X162560000Y-132405500D02*
X161240600Y-133724900D01*
X163830000Y-130535000D02*
X162560000Y-131805000D01*
X142638000Y-127690500D02*
X142638000Y-122544800D01*
X163830000Y-129540000D02*
X163830000Y-130535000D01*
X140418800Y-120325600D02*
X139809500Y-119716300D01*
X142638000Y-122544800D02*
X140418800Y-120325600D01*
X161240600Y-133724900D02*
X148672400Y-133724900D01*
X128437500Y-83545600D02*
X128437500Y-76032500D01*
X162560000Y-131805000D02*
X162560000Y-132405500D01*
X139809500Y-99979800D02*
X137588200Y-97758500D01*
X148672400Y-133724900D02*
X142638000Y-127690500D01*
X137588200Y-94520700D02*
X137001000Y-93933500D01*
X137001000Y-92109100D02*
X128437500Y-83545600D01*
X128437500Y-76032500D02*
X129540000Y-74930000D01*
X137001000Y-93933500D02*
X137001000Y-92109100D01*
X137588200Y-97758500D02*
X137588200Y-94520700D01*
X139809500Y-119716300D02*
X139809500Y-99979800D01*
%TO.N,/D1*%
X150838700Y-78307500D02*
X148280000Y-75748800D01*
X158628300Y-76737800D02*
X154001300Y-81364800D01*
X161290000Y-105495000D02*
X167330000Y-111535000D01*
X167330000Y-111535000D02*
X167330000Y-113705500D01*
X152420000Y-82550000D02*
X154001300Y-82550000D01*
X161290000Y-104140000D02*
X161290000Y-105495000D01*
X161290000Y-104140000D02*
X160197400Y-103047400D01*
X167330000Y-113705500D02*
X165641600Y-115393900D01*
X154001300Y-81364800D02*
X154001300Y-82550000D01*
X159346900Y-76737800D02*
X158628300Y-76737800D01*
X152420000Y-82550000D02*
X150838700Y-82550000D01*
X148280000Y-75748800D02*
X148280000Y-72670200D01*
X160197400Y-77588300D02*
X159346900Y-76737800D01*
X150838700Y-82550000D02*
X150838700Y-78307500D01*
X160197400Y-103047400D02*
X160197400Y-77588300D01*
%TO.N,/D0*%
X159446500Y-76118600D02*
X156311400Y-76118600D01*
X90964400Y-73670000D02*
X91859100Y-73670000D01*
X152420000Y-80010000D02*
X154001300Y-80010000D01*
X101192200Y-119380000D02*
X98264600Y-116452400D01*
X160716700Y-77388800D02*
X159446500Y-76118600D01*
X161290000Y-101600000D02*
X161290000Y-100507500D01*
X98264600Y-116452400D02*
X98264600Y-113263700D01*
X132717100Y-66217400D02*
X137910300Y-61024200D01*
X137586500Y-56175000D02*
X142435700Y-61024200D01*
X151578600Y-71120000D02*
X149313800Y-68855200D01*
X154001300Y-80010000D02*
X154001300Y-78428700D01*
X129019100Y-66217400D02*
X132717100Y-66217400D01*
X160716700Y-99934200D02*
X160716700Y-77388800D01*
X156311400Y-74163200D02*
X153268200Y-71120000D01*
X89294600Y-75339800D02*
X90964400Y-73670000D01*
X154001300Y-78428700D02*
X156311400Y-76118600D01*
X102870000Y-119380000D02*
X101192200Y-119380000D01*
X98078600Y-67450500D02*
X98078600Y-63983500D01*
X153268200Y-71120000D02*
X151578600Y-71120000D01*
X161290000Y-100507500D02*
X160716700Y-99934200D01*
X128440000Y-66796500D02*
X129019100Y-66217400D01*
X91859100Y-73670000D02*
X98078600Y-67450500D01*
X98078600Y-63983500D02*
X105887100Y-56175000D01*
X149313800Y-61504700D02*
X149348500Y-61470000D01*
X89294600Y-104293700D02*
X89294600Y-75339800D01*
X128440000Y-71290000D02*
X128440000Y-66796500D01*
X156311400Y-76118600D02*
X156311400Y-74163200D01*
X129540000Y-72390000D02*
X128440000Y-71290000D01*
X98264600Y-113263700D02*
X89294600Y-104293700D01*
X149313800Y-68855200D02*
X149313800Y-61504700D01*
X105887100Y-56175000D02*
X137586500Y-56175000D01*
%TO.N,/CPU_R~{W}*%
X136111700Y-71120000D02*
X138836300Y-73844600D01*
X138836300Y-73844600D02*
X138836300Y-81457600D01*
X138836300Y-81457600D02*
X151311800Y-93933100D01*
%TO.N,/PHI2*%
X129540000Y-67310000D02*
X130175000Y-67310000D01*
X130175000Y-67310000D02*
X131445000Y-68580000D01*
X147498000Y-96972200D02*
X147498000Y-110668000D01*
X131445000Y-68580000D02*
X132715000Y-68580000D01*
X135255000Y-84728900D02*
X147498000Y-96972200D01*
X135255000Y-71120000D02*
X135255000Y-84728900D01*
X132715000Y-68580000D02*
X135255000Y-71120000D01*
X147498000Y-110668000D02*
X148590000Y-111760000D01*
%TO.N,/~{CS_RAM}*%
X147142600Y-117932600D02*
X148590000Y-119380000D01*
X146393600Y-115570000D02*
X147142600Y-116319000D01*
X142812500Y-112617400D02*
X145765100Y-115570000D01*
X142083400Y-92746700D02*
X142083400Y-94621200D01*
X141428600Y-92091900D02*
X142083400Y-92746700D01*
X142812500Y-95350300D02*
X142812500Y-112617400D01*
X142083400Y-94621200D02*
X142812500Y-95350300D01*
X145765100Y-115570000D02*
X146393600Y-115570000D01*
X147142600Y-116319000D02*
X147142600Y-117932600D01*
%TO.N,/~{CS_ROM}*%
X150207200Y-116901600D02*
X148698200Y-115392600D01*
X148590000Y-127000000D02*
X147497400Y-125907400D01*
X188818600Y-58405000D02*
X186970800Y-58405000D01*
X143923400Y-111188200D02*
X143923400Y-94622600D01*
X147142600Y-113779000D02*
X146393600Y-113030000D01*
X147497400Y-125907400D02*
X147497400Y-123939100D01*
X148698200Y-115392600D02*
X148069100Y-115392600D01*
X187955000Y-74915000D02*
X189536300Y-74915000D01*
X189536300Y-59122700D02*
X188818600Y-58405000D01*
X186970800Y-58405000D02*
X181956000Y-53390200D01*
X143923400Y-94622600D02*
X143045900Y-93745100D01*
X148886100Y-123190000D02*
X150207200Y-121868900D01*
X146393600Y-113030000D02*
X145765200Y-113030000D01*
X163523500Y-83281400D02*
X163575900Y-83333800D01*
X150207200Y-121868900D02*
X150207200Y-116901600D01*
X147497400Y-123939100D02*
X148246500Y-123190000D01*
X147142600Y-114466100D02*
X147142600Y-113779000D01*
X189536300Y-74915000D02*
X189536300Y-59122700D01*
X148069100Y-115392600D02*
X147142600Y-114466100D01*
X166573700Y-53390200D02*
X163523500Y-56440400D01*
X163523500Y-56440400D02*
X163523500Y-83281400D01*
X148246500Y-123190000D02*
X148886100Y-123190000D01*
X145765200Y-113030000D02*
X143923400Y-111188200D01*
X181956000Y-53390200D02*
X166573700Y-53390200D01*
%TO.N,/EXT_A18*%
X150838700Y-49530000D02*
X146437400Y-53931300D01*
X155117400Y-93515800D02*
X155117400Y-106957500D01*
X146437400Y-53931300D02*
X146437400Y-84835800D01*
X155117400Y-106957500D02*
X168087200Y-119927300D01*
X146437400Y-84835800D02*
X155117400Y-93515800D01*
X152420000Y-49530000D02*
X150838700Y-49530000D01*
%TO.N,/EXT_A17*%
X167660000Y-54610000D02*
X166078700Y-54610000D01*
X164031800Y-56656900D02*
X166078700Y-54610000D01*
X178636700Y-118745000D02*
X179494600Y-118745000D01*
X177622600Y-119759100D02*
X178636700Y-118745000D01*
X164031800Y-82621800D02*
X164031800Y-56656900D01*
X171450000Y-129540000D02*
X171450000Y-125405300D01*
X176806100Y-123190000D02*
X177622600Y-122373500D01*
X164152400Y-100109500D02*
X164401700Y-99860200D01*
X181993900Y-116245700D02*
X181993900Y-108948400D01*
X179494600Y-118745000D02*
X181993900Y-116245700D01*
X164401700Y-82991700D02*
X164031800Y-82621800D01*
X164401700Y-99860200D02*
X164401700Y-82991700D01*
X177622600Y-122373500D02*
X177622600Y-119759100D01*
X173665300Y-123190000D02*
X176806100Y-123190000D01*
X171450000Y-125405300D02*
X173665300Y-123190000D01*
%TO.N,/EXT_A16*%
X148520000Y-134296700D02*
X142129700Y-127906400D01*
X136163700Y-117612900D02*
X136163700Y-92449800D01*
X142129700Y-123578900D02*
X136163700Y-117612900D01*
X164153300Y-134296700D02*
X148520000Y-134296700D01*
X142129700Y-127906400D02*
X142129700Y-123578900D01*
X146945900Y-55962800D02*
X146945900Y-78976900D01*
X146945900Y-78976900D02*
X147310600Y-79341600D01*
X152420000Y-52070000D02*
X150838700Y-52070000D01*
X150838700Y-52070000D02*
X146945900Y-55962800D01*
X136163700Y-92449800D02*
X136106600Y-92392700D01*
X166370000Y-132080000D02*
X164153300Y-134296700D01*
%TO.N,/EXT_A15*%
X166078700Y-52070000D02*
X162750000Y-55398700D01*
X146050000Y-111760000D02*
X144431800Y-110141800D01*
X162750000Y-55398700D02*
X162750000Y-87951600D01*
X144431800Y-110141800D02*
X144431800Y-98248600D01*
X144431800Y-98248600D02*
X145188500Y-97491900D01*
X167660000Y-52070000D02*
X166078700Y-52070000D01*
X162750000Y-87951600D02*
X162900700Y-88102300D01*
%TO.N,/EXT_A14*%
X148834400Y-77740900D02*
X147454200Y-76360700D01*
X156210000Y-93889300D02*
X148834400Y-86513700D01*
X147454200Y-57994500D02*
X150838700Y-54610000D01*
X156210000Y-101600000D02*
X156210000Y-93889300D01*
X152420000Y-54610000D02*
X150838700Y-54610000D01*
X147454200Y-76360700D02*
X147454200Y-57994500D01*
X148834400Y-86513700D02*
X148834400Y-77740900D01*
%TO.N,Net-(U11-Pad33)*%
X96816300Y-90165000D02*
X99940800Y-90165000D01*
X91425000Y-86355000D02*
X93006300Y-86355000D01*
X93006300Y-86355000D02*
X96816300Y-90165000D01*
X105704100Y-95250000D02*
X113030000Y-102575900D01*
X99940800Y-90165000D02*
X105025800Y-95250000D01*
X113030000Y-102575900D02*
X113030000Y-109220000D01*
X105025800Y-95250000D02*
X105704100Y-95250000D01*
%TO.N,Net-(U11-Pad11)*%
X110490000Y-127000000D02*
X109205000Y-128285000D01*
X109205000Y-128285000D02*
X92695000Y-128285000D01*
%TO.N,Net-(U11-Pad18)*%
X120650000Y-124460000D02*
X130175000Y-124460000D01*
%TO.N,Net-(U5-Pad5)*%
X91450000Y-74940000D02*
X91450000Y-76121300D01*
X89843700Y-96515000D02*
X89843700Y-77360500D01*
X91425000Y-96515000D02*
X89843700Y-96515000D01*
X89843700Y-77360500D02*
X91082900Y-76121300D01*
X91082900Y-76121300D02*
X91450000Y-76121300D01*
%TO.N,/~{OE}*%
X186373700Y-69835000D02*
X183811500Y-72397200D01*
X183811500Y-72397200D02*
X183811500Y-87320900D01*
X187955000Y-69835000D02*
X186373700Y-69835000D01*
X150033700Y-126891500D02*
X158942100Y-117983100D01*
X153670000Y-132080000D02*
X152533500Y-133216500D01*
X150711400Y-133216500D02*
X150033700Y-132538800D01*
X150033700Y-132538800D02*
X150033700Y-126891500D01*
X152533500Y-133216500D02*
X150711400Y-133216500D01*
%TD*%
M02*
