%TF.FileFunction,Soldermask,Bot*%
%FSLAX46Y46*%
G04 Gerber Fmt 4.6, Leading zero omitted, Abs format (unit mm)*
G04 Created by KiCad (PCBNEW (2015-03-04 BZR 5473)-product) date Donnerstag, 14. April 2016 'u11' 20:11:53*
%MOMM*%
G01*
G04 APERTURE LIST*
%ADD10C,0.100000*%
%ADD11C,1.397000*%
%ADD12R,1.727200X1.727200*%
%ADD13O,1.727200X1.727200*%
%ADD14C,1.501140*%
%ADD15R,1.727200X2.032000*%
%ADD16O,1.727200X2.032000*%
%ADD17R,2.032000X1.727200*%
%ADD18O,2.032000X1.727200*%
%ADD19C,1.676400*%
%ADD20O,1.600000X2.300000*%
%ADD21R,1.200000X1.200000*%
%ADD22C,1.200000*%
%ADD23C,2.000000*%
%ADD24R,2.499360X2.499360*%
%ADD25C,2.499360*%
%ADD26O,2.300000X1.600000*%
%ADD27C,1.524000*%
%ADD28C,2.700020*%
%ADD29R,3.500120X3.500120*%
%ADD30R,2.032000X2.032000*%
%ADD31O,2.032000X2.032000*%
%ADD32R,1.300000X1.300000*%
%ADD33C,1.300000*%
G04 APERTURE END LIST*
D10*
D11*
X91440000Y-115570000D03*
X99060000Y-115570000D03*
D12*
X215265000Y-65405000D03*
D13*
X217805000Y-65405000D03*
X215265000Y-67945000D03*
X217805000Y-67945000D03*
X215265000Y-70485000D03*
X217805000Y-70485000D03*
X215265000Y-73025000D03*
X217805000Y-73025000D03*
X215265000Y-75565000D03*
X217805000Y-75565000D03*
X215265000Y-78105000D03*
X217805000Y-78105000D03*
X215265000Y-80645000D03*
X217805000Y-80645000D03*
X215265000Y-83185000D03*
X217805000Y-83185000D03*
X215265000Y-85725000D03*
X217805000Y-85725000D03*
X215265000Y-88265000D03*
X217805000Y-88265000D03*
X215265000Y-90805000D03*
X217805000Y-90805000D03*
X215265000Y-93345000D03*
X217805000Y-93345000D03*
X215265000Y-95885000D03*
X217805000Y-95885000D03*
X215265000Y-98425000D03*
X217805000Y-98425000D03*
X215265000Y-100965000D03*
X217805000Y-100965000D03*
X215265000Y-103505000D03*
X217805000Y-103505000D03*
X215265000Y-106045000D03*
X217805000Y-106045000D03*
X215265000Y-108585000D03*
X217805000Y-108585000D03*
X215265000Y-111125000D03*
X217805000Y-111125000D03*
X215265000Y-113665000D03*
X217805000Y-113665000D03*
X215265000Y-116205000D03*
X217805000Y-116205000D03*
X215265000Y-118745000D03*
X217805000Y-118745000D03*
X215265000Y-121285000D03*
X217805000Y-121285000D03*
X215265000Y-123825000D03*
X217805000Y-123825000D03*
X215265000Y-126365000D03*
X217805000Y-126365000D03*
D11*
X172720000Y-83058000D03*
X175260000Y-83058000D03*
D14*
X108712000Y-75438000D03*
X106172000Y-75438000D03*
D11*
X200660000Y-100330000D03*
X198120000Y-100330000D03*
X157480000Y-100330000D03*
X154940000Y-100330000D03*
X116459000Y-83820000D03*
X116459000Y-86360000D03*
X90170000Y-83820000D03*
X90170000Y-86360000D03*
X161925000Y-53340000D03*
X161925000Y-50800000D03*
X131826000Y-109347000D03*
X134366000Y-109347000D03*
X180340000Y-100330000D03*
X177800000Y-100330000D03*
X118618000Y-109347000D03*
X116078000Y-109347000D03*
D12*
X171450000Y-67310000D03*
D13*
X171450000Y-64770000D03*
X173990000Y-67310000D03*
X173990000Y-64770000D03*
X176530000Y-67310000D03*
X176530000Y-64770000D03*
X179070000Y-67310000D03*
X179070000Y-64770000D03*
D15*
X162560000Y-71120000D03*
D16*
X160020000Y-71120000D03*
X157480000Y-71120000D03*
D12*
X154940000Y-60960000D03*
D13*
X154940000Y-63500000D03*
X152400000Y-60960000D03*
X152400000Y-63500000D03*
D11*
X170180000Y-97790000D03*
X162560000Y-97790000D03*
X170180000Y-95250000D03*
X162560000Y-95250000D03*
X154940000Y-69850000D03*
X147320000Y-69850000D03*
X147320000Y-67310000D03*
X154940000Y-67310000D03*
X92710000Y-71628000D03*
X92710000Y-79248000D03*
X116332000Y-59690000D03*
X116332000Y-62230000D03*
D17*
X102870000Y-115570000D03*
D18*
X102870000Y-118110000D03*
X102870000Y-120650000D03*
X102870000Y-123190000D03*
X102870000Y-125730000D03*
X102870000Y-128270000D03*
X102870000Y-130810000D03*
X102870000Y-133350000D03*
D11*
X106172000Y-79248000D03*
X108712000Y-79248000D03*
X106172000Y-71628000D03*
X108712000Y-71628000D03*
X90170000Y-71628000D03*
X90170000Y-79248000D03*
D19*
X157480000Y-140970000D03*
X160020000Y-140970000D03*
X203200000Y-140970000D03*
X205740000Y-140970000D03*
X180340000Y-140970000D03*
X182880000Y-140970000D03*
D11*
X152400000Y-140970000D03*
X144780000Y-140970000D03*
X198120000Y-140970000D03*
X190500000Y-140970000D03*
X175260000Y-140970000D03*
X167640000Y-140970000D03*
D19*
X67310000Y-96520000D03*
X67310000Y-99060000D03*
X67310000Y-101600000D03*
X67310000Y-104140000D03*
X67310000Y-106680000D03*
X67310000Y-109220000D03*
X67310000Y-111760000D03*
X67310000Y-114300000D03*
X67310000Y-116840000D03*
X67310000Y-119380000D03*
X67310000Y-121920000D03*
X67310000Y-124460000D03*
X67310000Y-127000000D03*
X67310000Y-129540000D03*
X67310000Y-132080000D03*
X67310000Y-134620000D03*
D11*
X91440000Y-118110000D03*
X99060000Y-118110000D03*
X91440000Y-120650000D03*
X99060000Y-120650000D03*
X91440000Y-123190000D03*
X99060000Y-123190000D03*
X91440000Y-125730000D03*
X99060000Y-125730000D03*
X91440000Y-128270000D03*
X99060000Y-128270000D03*
X91440000Y-130810000D03*
X99060000Y-130810000D03*
X91440000Y-133350000D03*
X99060000Y-133350000D03*
D20*
X120904000Y-79248000D03*
X123444000Y-79248000D03*
X125984000Y-79248000D03*
X128524000Y-79248000D03*
X131064000Y-79248000D03*
X133604000Y-79248000D03*
X136144000Y-79248000D03*
X138684000Y-79248000D03*
X141224000Y-79248000D03*
X143764000Y-79248000D03*
X143764000Y-71628000D03*
X141224000Y-71628000D03*
X138684000Y-71628000D03*
X136144000Y-71628000D03*
X133604000Y-71628000D03*
X131064000Y-71628000D03*
X128524000Y-71628000D03*
X125984000Y-71628000D03*
X123444000Y-71628000D03*
X120904000Y-71628000D03*
X120904000Y-67056000D03*
X123444000Y-67056000D03*
X125984000Y-67056000D03*
X128524000Y-67056000D03*
X131064000Y-67056000D03*
X133604000Y-67056000D03*
X136144000Y-67056000D03*
X138684000Y-67056000D03*
X138684000Y-59436000D03*
X136144000Y-59436000D03*
X133604000Y-59436000D03*
X131064000Y-59436000D03*
X128524000Y-59436000D03*
X125984000Y-59436000D03*
X123444000Y-59436000D03*
X120904000Y-59436000D03*
D21*
X116332000Y-71628000D03*
D22*
X116332000Y-74128000D03*
D23*
X72390000Y-86360000D03*
X72390000Y-91360000D03*
X67390000Y-91360000D03*
X67390000Y-86360000D03*
D20*
X154940000Y-91440000D03*
X157480000Y-91440000D03*
X160020000Y-91440000D03*
X162560000Y-91440000D03*
X165100000Y-91440000D03*
X167640000Y-91440000D03*
X170180000Y-91440000D03*
X172720000Y-91440000D03*
X175260000Y-91440000D03*
X177800000Y-91440000D03*
X180340000Y-91440000D03*
X182880000Y-91440000D03*
X185420000Y-91440000D03*
X187960000Y-91440000D03*
X190500000Y-91440000D03*
X193040000Y-91440000D03*
X195580000Y-91440000D03*
X198120000Y-91440000D03*
X200660000Y-91440000D03*
X203200000Y-91440000D03*
X203200000Y-76200000D03*
X200660000Y-76200000D03*
X198120000Y-76200000D03*
X195580000Y-76200000D03*
X193040000Y-76200000D03*
X190500000Y-76200000D03*
X187960000Y-76200000D03*
X185420000Y-76200000D03*
X182880000Y-76200000D03*
X180340000Y-76200000D03*
X177800000Y-76200000D03*
X175260000Y-76200000D03*
X172720000Y-76200000D03*
X170180000Y-76200000D03*
X167640000Y-76200000D03*
X165100000Y-76200000D03*
X162560000Y-76200000D03*
X160020000Y-76200000D03*
X157480000Y-76200000D03*
X154940000Y-76200000D03*
X120904000Y-91440000D03*
X123444000Y-91440000D03*
X125984000Y-91440000D03*
X128524000Y-91440000D03*
X131064000Y-91440000D03*
X133604000Y-91440000D03*
X136144000Y-91440000D03*
X138684000Y-91440000D03*
X141224000Y-91440000D03*
X143764000Y-91440000D03*
X146304000Y-91440000D03*
X148844000Y-91440000D03*
X148844000Y-83820000D03*
X146304000Y-83820000D03*
X143764000Y-83820000D03*
X141224000Y-83820000D03*
X138684000Y-83820000D03*
X136144000Y-83820000D03*
X133604000Y-83820000D03*
X131064000Y-83820000D03*
X128524000Y-83820000D03*
X125984000Y-83820000D03*
X123444000Y-83820000D03*
X120904000Y-83820000D03*
D24*
X187960000Y-62230000D03*
D25*
X203200000Y-62230000D03*
X203200000Y-54610000D03*
X187960000Y-54610000D03*
D20*
X166370000Y-60960000D03*
X168910000Y-60960000D03*
X171450000Y-60960000D03*
X173990000Y-60960000D03*
X176530000Y-60960000D03*
X179070000Y-60960000D03*
X181610000Y-60960000D03*
X181610000Y-53340000D03*
X179070000Y-53340000D03*
X176530000Y-53340000D03*
X173990000Y-53340000D03*
X171450000Y-53340000D03*
X168910000Y-53340000D03*
X166370000Y-53340000D03*
X95250000Y-79248000D03*
X97790000Y-79248000D03*
X100330000Y-79248000D03*
X102870000Y-79248000D03*
X102870000Y-71628000D03*
X100330000Y-71628000D03*
X97790000Y-71628000D03*
X95250000Y-71628000D03*
X95250000Y-91440000D03*
X97790000Y-91440000D03*
X100330000Y-91440000D03*
X102870000Y-91440000D03*
X105410000Y-91440000D03*
X107950000Y-91440000D03*
X110490000Y-91440000D03*
X110490000Y-83820000D03*
X107950000Y-83820000D03*
X105410000Y-83820000D03*
X102870000Y-83820000D03*
X100330000Y-83820000D03*
X97790000Y-83820000D03*
X95250000Y-83820000D03*
D26*
X110998000Y-113919000D03*
X110998000Y-116459000D03*
X110998000Y-118999000D03*
X110998000Y-121539000D03*
X110998000Y-124079000D03*
X110998000Y-126619000D03*
X110998000Y-129159000D03*
X110998000Y-131699000D03*
X110998000Y-134239000D03*
X110998000Y-136779000D03*
X118618000Y-136779000D03*
X118618000Y-134239000D03*
X118618000Y-131699000D03*
X118618000Y-129159000D03*
X118618000Y-126619000D03*
X118618000Y-124079000D03*
X118618000Y-121539000D03*
X118618000Y-118999000D03*
X118618000Y-116459000D03*
X118618000Y-113919000D03*
X124333000Y-113919000D03*
X124333000Y-116459000D03*
X124333000Y-118999000D03*
X124333000Y-121539000D03*
X124333000Y-124079000D03*
X124333000Y-126619000D03*
X124333000Y-129159000D03*
X124333000Y-131699000D03*
X124333000Y-134239000D03*
X124333000Y-136779000D03*
X131953000Y-136779000D03*
X131953000Y-134239000D03*
X131953000Y-131699000D03*
X131953000Y-129159000D03*
X131953000Y-126619000D03*
X131953000Y-124079000D03*
X131953000Y-121539000D03*
X131953000Y-118999000D03*
X131953000Y-116459000D03*
X131953000Y-113919000D03*
X142240000Y-104140000D03*
X142240000Y-106680000D03*
X142240000Y-109220000D03*
X142240000Y-111760000D03*
X142240000Y-114300000D03*
X142240000Y-116840000D03*
X142240000Y-119380000D03*
X142240000Y-121920000D03*
X142240000Y-124460000D03*
X142240000Y-127000000D03*
X142240000Y-129540000D03*
X142240000Y-132080000D03*
X142240000Y-134620000D03*
X142240000Y-137160000D03*
X157480000Y-137160000D03*
X157480000Y-134620000D03*
X157480000Y-132080000D03*
X157480000Y-129540000D03*
X157480000Y-127000000D03*
X157480000Y-124460000D03*
X157480000Y-121920000D03*
X157480000Y-119380000D03*
X157480000Y-116840000D03*
X157480000Y-114300000D03*
X157480000Y-111760000D03*
X157480000Y-109220000D03*
X157480000Y-106680000D03*
X157480000Y-104140000D03*
X165100000Y-104140000D03*
X165100000Y-106680000D03*
X165100000Y-109220000D03*
X165100000Y-111760000D03*
X165100000Y-114300000D03*
X165100000Y-116840000D03*
X165100000Y-119380000D03*
X165100000Y-121920000D03*
X165100000Y-124460000D03*
X165100000Y-127000000D03*
X165100000Y-129540000D03*
X165100000Y-132080000D03*
X165100000Y-134620000D03*
X165100000Y-137160000D03*
X180340000Y-137160000D03*
X180340000Y-134620000D03*
X180340000Y-132080000D03*
X180340000Y-129540000D03*
X180340000Y-127000000D03*
X180340000Y-124460000D03*
X180340000Y-121920000D03*
X180340000Y-119380000D03*
X180340000Y-116840000D03*
X180340000Y-114300000D03*
X180340000Y-111760000D03*
X180340000Y-109220000D03*
X180340000Y-106680000D03*
X180340000Y-104140000D03*
X187960000Y-104140000D03*
X187960000Y-106680000D03*
X187960000Y-109220000D03*
X187960000Y-111760000D03*
X187960000Y-114300000D03*
X187960000Y-116840000D03*
X187960000Y-119380000D03*
X187960000Y-121920000D03*
X187960000Y-124460000D03*
X187960000Y-127000000D03*
X187960000Y-129540000D03*
X187960000Y-132080000D03*
X187960000Y-134620000D03*
X187960000Y-137160000D03*
X203200000Y-137160000D03*
X203200000Y-134620000D03*
X203200000Y-132080000D03*
X203200000Y-129540000D03*
X203200000Y-127000000D03*
X203200000Y-124460000D03*
X203200000Y-121920000D03*
X203200000Y-119380000D03*
X203200000Y-116840000D03*
X203200000Y-114300000D03*
X203200000Y-111760000D03*
X203200000Y-109220000D03*
X203200000Y-106680000D03*
X203200000Y-104140000D03*
D27*
X77470000Y-62230000D03*
X77470000Y-64770000D03*
X75471020Y-64770000D03*
X75471020Y-62230000D03*
D28*
X72771000Y-57500520D03*
X72771000Y-69499480D03*
D29*
X76050140Y-76200000D03*
X70050660Y-76200000D03*
X73050400Y-80899000D03*
D30*
X81280000Y-72390000D03*
D31*
X78740000Y-72390000D03*
D30*
X81280000Y-54610000D03*
D31*
X81280000Y-52070000D03*
D32*
X76200000Y-52070000D03*
D33*
X76200000Y-54570000D03*
M02*
