%TF.GenerationSoftware,KiCad,Pcbnew,6.0.5-a6ca702e91~116~ubuntu20.04.1*%
%TF.CreationDate,2022-05-16T22:00:56+02:00*%
%TF.ProjectId,cpu_mem_cpld,6370755f-6d65-46d5-9f63-706c642e6b69,rev?*%
%TF.SameCoordinates,Original*%
%TF.FileFunction,Legend,Bot*%
%TF.FilePolarity,Positive*%
%FSLAX46Y46*%
G04 Gerber Fmt 4.6, Leading zero omitted, Abs format (unit mm)*
G04 Created by KiCad (PCBNEW 6.0.5-a6ca702e91~116~ubuntu20.04.1) date 2022-05-16 22:00:56*
%MOMM*%
%LPD*%
G01*
G04 APERTURE LIST*
%ADD10C,0.150000*%
%ADD11C,0.120000*%
G04 APERTURE END LIST*
D10*
%TO.C,C1*%
X181332142Y-118578333D02*
X181379761Y-118530714D01*
X181427380Y-118387857D01*
X181427380Y-118292619D01*
X181379761Y-118149761D01*
X181284523Y-118054523D01*
X181189285Y-118006904D01*
X180998809Y-117959285D01*
X180855952Y-117959285D01*
X180665476Y-118006904D01*
X180570238Y-118054523D01*
X180475000Y-118149761D01*
X180427380Y-118292619D01*
X180427380Y-118387857D01*
X180475000Y-118530714D01*
X180522619Y-118578333D01*
X181427380Y-119530714D02*
X181427380Y-118959285D01*
X181427380Y-119245000D02*
X180427380Y-119245000D01*
X180570238Y-119149761D01*
X180665476Y-119054523D01*
X180713095Y-118959285D01*
%TO.C,C14*%
X172442142Y-111752142D02*
X172489761Y-111704523D01*
X172537380Y-111561666D01*
X172537380Y-111466428D01*
X172489761Y-111323571D01*
X172394523Y-111228333D01*
X172299285Y-111180714D01*
X172108809Y-111133095D01*
X171965952Y-111133095D01*
X171775476Y-111180714D01*
X171680238Y-111228333D01*
X171585000Y-111323571D01*
X171537380Y-111466428D01*
X171537380Y-111561666D01*
X171585000Y-111704523D01*
X171632619Y-111752142D01*
X172537380Y-112704523D02*
X172537380Y-112133095D01*
X172537380Y-112418809D02*
X171537380Y-112418809D01*
X171680238Y-112323571D01*
X171775476Y-112228333D01*
X171823095Y-112133095D01*
X171870714Y-113561666D02*
X172537380Y-113561666D01*
X171489761Y-113323571D02*
X172204047Y-113085476D01*
X172204047Y-113704523D01*
%TO.C,C13*%
X168575357Y-108942142D02*
X168622976Y-108989761D01*
X168765833Y-109037380D01*
X168861071Y-109037380D01*
X169003928Y-108989761D01*
X169099166Y-108894523D01*
X169146785Y-108799285D01*
X169194404Y-108608809D01*
X169194404Y-108465952D01*
X169146785Y-108275476D01*
X169099166Y-108180238D01*
X169003928Y-108085000D01*
X168861071Y-108037380D01*
X168765833Y-108037380D01*
X168622976Y-108085000D01*
X168575357Y-108132619D01*
X167622976Y-109037380D02*
X168194404Y-109037380D01*
X167908690Y-109037380D02*
X167908690Y-108037380D01*
X168003928Y-108180238D01*
X168099166Y-108275476D01*
X168194404Y-108323095D01*
X167289642Y-108037380D02*
X166670595Y-108037380D01*
X167003928Y-108418333D01*
X166861071Y-108418333D01*
X166765833Y-108465952D01*
X166718214Y-108513571D01*
X166670595Y-108608809D01*
X166670595Y-108846904D01*
X166718214Y-108942142D01*
X166765833Y-108989761D01*
X166861071Y-109037380D01*
X167146785Y-109037380D01*
X167242023Y-108989761D01*
X167289642Y-108942142D01*
%TO.C,C7*%
X154814166Y-125452142D02*
X154861785Y-125499761D01*
X155004642Y-125547380D01*
X155099880Y-125547380D01*
X155242738Y-125499761D01*
X155337976Y-125404523D01*
X155385595Y-125309285D01*
X155433214Y-125118809D01*
X155433214Y-124975952D01*
X155385595Y-124785476D01*
X155337976Y-124690238D01*
X155242738Y-124595000D01*
X155099880Y-124547380D01*
X155004642Y-124547380D01*
X154861785Y-124595000D01*
X154814166Y-124642619D01*
X154480833Y-124547380D02*
X153814166Y-124547380D01*
X154242738Y-125547380D01*
%TO.C,C6*%
X98782142Y-114768333D02*
X98829761Y-114720714D01*
X98877380Y-114577857D01*
X98877380Y-114482619D01*
X98829761Y-114339761D01*
X98734523Y-114244523D01*
X98639285Y-114196904D01*
X98448809Y-114149285D01*
X98305952Y-114149285D01*
X98115476Y-114196904D01*
X98020238Y-114244523D01*
X97925000Y-114339761D01*
X97877380Y-114482619D01*
X97877380Y-114577857D01*
X97925000Y-114720714D01*
X97972619Y-114768333D01*
X97877380Y-115625476D02*
X97877380Y-115435000D01*
X97925000Y-115339761D01*
X97972619Y-115292142D01*
X98115476Y-115196904D01*
X98305952Y-115149285D01*
X98686904Y-115149285D01*
X98782142Y-115196904D01*
X98829761Y-115244523D01*
X98877380Y-115339761D01*
X98877380Y-115530238D01*
X98829761Y-115625476D01*
X98782142Y-115673095D01*
X98686904Y-115720714D01*
X98448809Y-115720714D01*
X98353571Y-115673095D01*
X98305952Y-115625476D01*
X98258333Y-115530238D01*
X98258333Y-115339761D01*
X98305952Y-115244523D01*
X98353571Y-115196904D01*
X98448809Y-115149285D01*
%TO.C,C11*%
X142017142Y-118102142D02*
X142064761Y-118054523D01*
X142112380Y-117911666D01*
X142112380Y-117816428D01*
X142064761Y-117673571D01*
X141969523Y-117578333D01*
X141874285Y-117530714D01*
X141683809Y-117483095D01*
X141540952Y-117483095D01*
X141350476Y-117530714D01*
X141255238Y-117578333D01*
X141160000Y-117673571D01*
X141112380Y-117816428D01*
X141112380Y-117911666D01*
X141160000Y-118054523D01*
X141207619Y-118102142D01*
X142112380Y-119054523D02*
X142112380Y-118483095D01*
X142112380Y-118768809D02*
X141112380Y-118768809D01*
X141255238Y-118673571D01*
X141350476Y-118578333D01*
X141398095Y-118483095D01*
X142112380Y-120006904D02*
X142112380Y-119435476D01*
X142112380Y-119721190D02*
X141112380Y-119721190D01*
X141255238Y-119625952D01*
X141350476Y-119530714D01*
X141398095Y-119435476D01*
%TO.C,C9*%
X110008942Y-70953333D02*
X110056561Y-70905714D01*
X110104180Y-70762857D01*
X110104180Y-70667619D01*
X110056561Y-70524761D01*
X109961323Y-70429523D01*
X109866085Y-70381904D01*
X109675609Y-70334285D01*
X109532752Y-70334285D01*
X109342276Y-70381904D01*
X109247038Y-70429523D01*
X109151800Y-70524761D01*
X109104180Y-70667619D01*
X109104180Y-70762857D01*
X109151800Y-70905714D01*
X109199419Y-70953333D01*
X110104180Y-71429523D02*
X110104180Y-71620000D01*
X110056561Y-71715238D01*
X110008942Y-71762857D01*
X109866085Y-71858095D01*
X109675609Y-71905714D01*
X109294657Y-71905714D01*
X109199419Y-71858095D01*
X109151800Y-71810476D01*
X109104180Y-71715238D01*
X109104180Y-71524761D01*
X109151800Y-71429523D01*
X109199419Y-71381904D01*
X109294657Y-71334285D01*
X109532752Y-71334285D01*
X109627990Y-71381904D01*
X109675609Y-71429523D01*
X109723228Y-71524761D01*
X109723228Y-71715238D01*
X109675609Y-71810476D01*
X109627990Y-71858095D01*
X109532752Y-71905714D01*
D11*
%TO.C,C1*%
X179980000Y-118033748D02*
X179980000Y-119456252D01*
X178160000Y-118033748D02*
X178160000Y-119456252D01*
%TO.C,C14*%
X172995000Y-107238748D02*
X172995000Y-108661252D01*
X171175000Y-107238748D02*
X171175000Y-108661252D01*
%TO.C,C13*%
X168643752Y-105770000D02*
X167221248Y-105770000D01*
X168643752Y-107590000D02*
X167221248Y-107590000D01*
%TO.C,C7*%
X153936248Y-126090000D02*
X155358752Y-126090000D01*
X153936248Y-127910000D02*
X155358752Y-127910000D01*
%TO.C,C6*%
X101240000Y-115646252D02*
X101240000Y-114223748D01*
X99420000Y-115646252D02*
X99420000Y-114223748D01*
%TO.C,C11*%
X144420000Y-118033748D02*
X144420000Y-119456252D01*
X142600000Y-118033748D02*
X142600000Y-119456252D01*
%TO.C,C9*%
X110850000Y-70408748D02*
X110850000Y-71831252D01*
X112670000Y-70408748D02*
X112670000Y-71831252D01*
%TD*%
M02*
