M48
; DRILL file {KiCad 6.0.5-a6ca702e91~116~ubuntu20.04.1} date Mon 16 May 2022 10:01:08 PM CEST
; FORMAT={-:-/ absolute / inch / decimal}
; #@! TF.CreationDate,2022-05-16T22:01:08+02:00
; #@! TF.GenerationSoftware,Kicad,Pcbnew,6.0.5-a6ca702e91~116~ubuntu20.04.1
; #@! TF.FileFunction,Plated,1,4,PTH
FMAT,2
INCH
; #@! TA.AperFunction,Plated,PTH,ComponentDrill
T1C0.0236
; #@! TA.AperFunction,Plated,PTH,ViaDrill
T2C0.0250
; #@! TA.AperFunction,Plated,PTH,ComponentDrill
T3C0.0276
; #@! TA.AperFunction,Plated,PTH,ComponentDrill
T4C0.0315
; #@! TA.AperFunction,Plated,PTH,ComponentDrill
T5C0.0374
; #@! TA.AperFunction,Plated,PTH,ComponentDrill
T6C0.0394
; #@! TA.AperFunction,Plated,PTH,ComponentDrill
T7C0.0433
; #@! TA.AperFunction,Plated,PTH,ComponentDrill
T8C0.0906
; #@! TA.AperFunction,Plated,PTH,ComponentDrill
T9C0.1181
; #@! TA.AperFunction,Plated,PTH,ComponentDrill
T10C0.1260
%
G90
G05
T1
X3.15Y-4.15
X3.15Y-4.2287
X3.15Y-4.4
X3.15Y-4.4787
X3.15Y-4.65
X3.15Y-4.7287
X3.15Y-4.9
X3.15Y-4.9787
X3.75Y-4.2
X3.8213Y-2.55
X3.8287Y-4.2
X3.9Y-2.55
T2
X3.95Y-4.4
X4.393Y-4.4365
X4.4Y-2.925
X4.5567Y-4.0853
X4.5837Y-2.3541
X4.6055Y-4.0869
X4.656Y-2.685
X4.7677Y-4.0566
X4.8045Y-3.8858
X4.8062Y-3.3114
X4.9447Y-3.358
X5.2611Y-3.5873
X5.2686Y-3.7738
X5.3064Y-4.35
X5.3578Y-3.1063
X5.3585Y-3.6375
X5.3587Y-2.8
X5.3912Y-3.3244
X5.4169Y-3.7213
X5.4295Y-2.4025
X5.4407Y-3.6793
X5.51Y-3.8037
X5.5274Y-2.9689
X5.5283Y-4.7372
X5.53Y-3.8576
X5.5431Y-4.9596
X5.5636Y-4.0566
X5.5681Y-3.6257
X5.5809Y-4.144
X5.6077Y-2.4025
X5.6317Y-3.6908
X5.65Y-4.8
X5.6977Y-5.2656
X5.7161Y-3.8383
X5.7186Y-3.0069
X5.7228Y-2.5174
X5.7513Y-3.8098
X5.7996Y-3.1237
X5.8378Y-2.861
X5.8749Y-2.9731
X5.8799Y-2.4201
X5.911Y-2.4882
X5.9459Y-3.9363
X5.9572Y-3.6982
X5.9883Y-3.6656
X6.0945Y-3.5478
X6.225Y-5.0
X6.2576Y-4.645
X6.2603Y-3.0539
X6.4134Y-3.4686
X6.44Y-3.2809
X6.4627Y-3.9413
X6.4905Y-2.8755
X6.5176Y-2.3972
X6.5182Y-2.75
X6.5213Y-4.5431
X6.55Y-4.3
X6.5537Y-4.4647
X6.6176Y-4.7215
X6.6531Y-3.9063
X6.7Y-4.325
X6.8Y-2.025
X6.9767Y-3.3494
X6.9814Y-3.144
X7.05Y-4.8
X7.0625Y-3.4954
X7.1114Y-3.4483
X7.152Y-3.4128
X7.1651Y-4.2893
X7.1877Y-3.4808
X7.2367Y-3.4378
X7.5206Y-3.8788
X7.525Y-2.325
X8.027Y-3.576
X8.075Y-4.725
T3
X3.05Y-5.15
X3.25Y-5.15
X3.45Y-2.85
X3.45Y-3.05
X4.0Y-2.75
X4.0Y-2.95
X4.15Y-3.7
X4.15Y-3.8
X4.35Y-3.7
X4.35Y-3.8
T4
X3.3494Y-4.3506
X3.3494Y-4.4506
X3.3494Y-4.5506
X3.3494Y-4.6506
X3.3494Y-4.7506
X3.3494Y-4.8506
X3.3494Y-4.9506
X3.3494Y-5.0506
X3.5994Y-3.3998
X3.5994Y-3.4998
X3.5994Y-3.5998
X3.5994Y-3.6998
X3.5994Y-3.7998
X3.5994Y-3.8998
X3.5994Y-3.9998
X3.6004Y-2.7504
X3.6004Y-2.8504
X3.6004Y-2.9504
X3.6004Y-3.0504
X3.6016Y-2.6
X3.6494Y-4.3506
X3.6494Y-4.4506
X3.6494Y-4.5506
X3.6494Y-4.6506
X3.6494Y-4.7506
X3.6494Y-4.8506
X3.6494Y-4.9506
X3.6494Y-5.0506
X3.7Y-2.6
X3.8016Y-3.2
X3.8994Y-3.3998
X3.8994Y-3.4998
X3.8994Y-3.5998
X3.8994Y-3.6998
X3.8994Y-3.7998
X3.8994Y-3.8998
X3.8994Y-3.9998
X3.9Y-3.2
X3.9004Y-2.7504
X3.9004Y-2.8504
X3.9004Y-2.9504
X3.9004Y-3.0504
X4.05Y-4.4
X4.05Y-4.5
X4.05Y-4.6
X4.05Y-4.7
X4.05Y-4.8
X4.05Y-4.9
X4.15Y-4.3
X4.15Y-4.4
X4.15Y-4.5
X4.15Y-4.6
X4.15Y-4.7
X4.15Y-4.8
X4.15Y-4.9
X4.15Y-5.0
X4.25Y-4.3
X4.25Y-4.4
X4.25Y-4.9
X4.25Y-5.0
X4.35Y-4.3
X4.35Y-4.4
X4.35Y-4.9
X4.35Y-5.0
X4.45Y-4.3
X4.45Y-4.4
X4.45Y-4.9
X4.45Y-5.0
X4.4508Y-2.3
X4.5Y-2.65
X4.5Y-2.75
X4.5Y-2.85
X4.5Y-2.95
X4.5Y-3.05
X4.5Y-3.15
X4.55Y-4.3
X4.55Y-4.4
X4.55Y-4.9
X4.55Y-5.0
X4.5508Y-2.3
X4.6Y-2.55
X4.6Y-2.65
X4.6Y-2.75
X4.6Y-2.85
X4.6Y-2.95
X4.6Y-3.05
X4.6Y-3.15
X4.6Y-3.25
X4.65Y-4.3
X4.65Y-4.4
X4.65Y-4.5
X4.65Y-4.6
X4.65Y-4.7
X4.65Y-4.8
X4.65Y-4.9
X4.65Y-5.0
X4.6508Y-2.3
X4.7Y-2.55
X4.7Y-2.65
X4.7Y-3.15
X4.7Y-3.25
X4.75Y-4.4
X4.75Y-4.5
X4.75Y-4.6
X4.75Y-4.7
X4.75Y-4.8
X4.75Y-4.9
X4.7508Y-2.3
X4.8Y-2.55
X4.8Y-2.65
X4.8Y-3.15
X4.8Y-3.25
X4.8508Y-2.3
X4.9Y-2.55
X4.9Y-2.65
X4.9Y-3.15
X4.9Y-3.25
X5.0Y-2.55
X5.0Y-2.65
X5.0Y-3.15
X5.0Y-3.25
X5.1Y-2.55
X5.1Y-2.65
X5.1Y-2.75
X5.1Y-2.85
X5.1Y-2.95
X5.1Y-3.05
X5.1Y-3.15
X5.1Y-3.25
X5.2Y-2.65
X5.2Y-2.75
X5.2Y-2.85
X5.2Y-2.95
X5.2Y-3.05
X5.2Y-3.15
X5.75Y-4.1
X5.75Y-4.2
X5.75Y-4.3
X5.75Y-4.4
X5.75Y-4.5
X5.75Y-4.6
X5.75Y-4.7
X5.75Y-4.8
X5.75Y-4.9
X5.75Y-5.0
X5.75Y-5.1
X5.85Y-4.0
X5.85Y-4.1
X5.85Y-4.2
X5.85Y-4.3
X5.85Y-4.4
X5.85Y-4.5
X5.85Y-4.6
X5.85Y-4.7
X5.85Y-4.8
X5.85Y-4.9
X5.85Y-5.0
X5.85Y-5.1
X5.85Y-5.2
X5.95Y-4.0
X5.95Y-4.1
X5.95Y-5.1
X5.95Y-5.2
X6.0008Y-1.95
X6.0008Y-2.05
X6.0008Y-2.15
X6.0008Y-2.25
X6.0008Y-2.35
X6.0008Y-2.45
X6.0008Y-2.55
X6.0008Y-2.65
X6.0008Y-2.75
X6.0008Y-2.85
X6.0008Y-2.95
X6.0008Y-3.05
X6.0008Y-3.15
X6.0008Y-3.25
X6.0008Y-3.35
X6.0008Y-3.45
X6.05Y-4.0
X6.05Y-4.1
X6.05Y-5.1
X6.05Y-5.2
X6.15Y-4.0
X6.15Y-4.1
X6.15Y-5.1
X6.15Y-5.2
X6.25Y-4.0
X6.25Y-4.1
X6.25Y-5.1
X6.25Y-5.2
X6.35Y-4.0
X6.35Y-4.1
X6.35Y-5.1
X6.35Y-5.2
X6.45Y-4.0
X6.45Y-4.1
X6.45Y-5.1
X6.45Y-5.2
X6.55Y-4.0
X6.55Y-4.1
X6.55Y-5.1
X6.55Y-5.2
X6.6008Y-1.95
X6.6008Y-2.05
X6.6008Y-2.15
X6.6008Y-2.25
X6.6008Y-2.35
X6.6008Y-2.45
X6.6008Y-2.55
X6.6008Y-2.65
X6.6008Y-2.75
X6.6008Y-2.85
X6.6008Y-2.95
X6.6008Y-3.05
X6.6008Y-3.15
X6.6008Y-3.25
X6.6008Y-3.35
X6.6008Y-3.45
X6.65Y-4.0
X6.65Y-4.1
X6.65Y-5.1
X6.65Y-5.2
X6.75Y-4.0
X6.75Y-4.1
X6.75Y-5.1
X6.75Y-5.2
X6.7998Y-2.1494
X6.7998Y-2.2494
X6.7998Y-2.3494
X6.7998Y-2.4494
X6.7998Y-2.5494
X6.7998Y-2.6494
X6.7998Y-2.7494
X6.7998Y-2.8494
X6.7998Y-2.9494
X6.7998Y-3.0494
X6.7998Y-3.1494
X6.7998Y-3.2494
X6.7998Y-3.3494
X6.7998Y-3.4494
X6.85Y-4.0
X6.85Y-4.1
X6.85Y-4.2
X6.85Y-4.3
X6.85Y-4.4
X6.85Y-4.5
X6.85Y-4.6
X6.85Y-4.7
X6.85Y-4.8
X6.85Y-4.9
X6.85Y-5.0
X6.85Y-5.1
X6.85Y-5.2
X6.95Y-4.1
X6.95Y-4.2
X6.95Y-4.3
X6.95Y-4.4
X6.95Y-4.5
X6.95Y-4.6
X6.95Y-4.7
X6.95Y-4.8
X6.95Y-4.9
X6.95Y-5.0
X6.95Y-5.1
X7.3998Y-2.1494
X7.3998Y-2.2494
X7.3998Y-2.3494
X7.3998Y-2.4494
X7.3998Y-2.5494
X7.3998Y-2.6494
X7.3998Y-2.7494
X7.3998Y-2.8494
X7.3998Y-2.9494
X7.3998Y-3.0494
X7.3998Y-3.1494
X7.3998Y-3.2494
X7.3998Y-3.3494
X7.3998Y-3.4494
X7.85Y-2.55
X7.85Y-2.65
X7.85Y-2.75
X7.85Y-2.85
X7.85Y-2.95
X7.85Y-3.05
X7.85Y-3.15
X7.85Y-3.25
X7.85Y-3.35
X7.85Y-3.45
X7.85Y-3.7
X7.85Y-3.8
X7.85Y-3.9
X7.85Y-4.0
X7.85Y-4.1
X7.85Y-4.2
X7.85Y-4.3
X7.85Y-4.4
X7.85Y-4.5
X7.85Y-4.6
X8.15Y-2.55
X8.15Y-2.65
X8.15Y-2.75
X8.15Y-2.85
X8.15Y-2.95
X8.15Y-3.05
X8.15Y-3.15
X8.15Y-3.25
X8.15Y-3.35
X8.15Y-3.45
X8.15Y-3.7
X8.15Y-3.8
X8.15Y-3.9
X8.15Y-4.0
X8.15Y-4.1
X8.15Y-4.2
X8.15Y-4.3
X8.15Y-4.4
X8.15Y-4.5
X8.15Y-4.6
T5
X2.95Y-3.0122
X2.95Y-3.1106
X2.95Y-3.1894
X2.95Y-3.2878
T6
X2.7029Y-4.523
X2.7029Y-4.6321
X2.7029Y-4.7412
X2.7029Y-4.8502
X2.8147Y-4.4685
X2.8147Y-4.5776
X2.8147Y-4.6866
X2.8147Y-4.7957
X2.8147Y-4.9047
X3.3Y-3.3964
X3.3Y-3.5932
X5.125Y-3.975
X5.125Y-4.575
X5.125Y-4.9
X5.125Y-5.5
X5.425Y-3.975
X5.425Y-4.575
X5.425Y-4.9
X5.425Y-5.5
X7.5Y-5.6
X7.6Y-5.6
X7.7Y-5.6
X7.8Y-5.6
X7.9Y-5.6
X8.0Y-5.6
X8.475Y-2.575
X8.475Y-2.675
X8.475Y-2.775
X8.475Y-2.875
X8.475Y-2.975
X8.475Y-3.075
X8.475Y-3.175
X8.475Y-3.275
X8.475Y-3.375
X8.475Y-3.475
X8.475Y-3.575
X8.475Y-3.675
X8.475Y-3.775
X8.475Y-3.875
X8.475Y-3.975
X8.475Y-4.075
X8.475Y-4.175
X8.475Y-4.275
X8.475Y-4.375
X8.475Y-4.475
X8.475Y-4.575
X8.475Y-4.675
X8.475Y-4.775
X8.475Y-4.875
X8.475Y-4.975
X8.575Y-2.575
X8.575Y-2.675
X8.575Y-2.775
X8.575Y-2.875
X8.575Y-2.975
X8.575Y-3.075
X8.575Y-3.175
X8.575Y-3.275
X8.575Y-3.375
X8.575Y-3.475
X8.575Y-3.575
X8.575Y-3.675
X8.575Y-3.775
X8.575Y-3.875
X8.575Y-3.975
X8.575Y-4.075
X8.575Y-4.175
X8.575Y-4.275
X8.575Y-4.375
X8.575Y-4.475
X8.575Y-4.575
X8.575Y-4.675
X8.575Y-4.775
X8.575Y-4.875
X8.575Y-4.975
T7
X2.6031Y-2.45
X2.6031Y-2.6469
X2.8Y-2.45
X2.8Y-2.6469
T8
X2.8433Y-2.8913
X2.8433Y-3.4087
T9
X2.7Y-2.08
X2.7Y-5.47
X8.49Y-2.07
X8.49Y-5.47
T10
X2.8029Y-4.1945
X2.8029Y-5.1788
T6
G00X2.75Y-3.6729
M15
G01X2.75Y-3.7517
M16
G05
G00X2.8287Y-3.8973
M15
G01X2.9075Y-3.8973
M16
G05
G00X2.9862Y-3.6729
M15
G01X2.9862Y-3.7517
M16
G05
T0
M30
