%TF.GenerationSoftware,KiCad,Pcbnew,6.0.5-a6ca702e91~116~ubuntu20.04.1*%
%TF.CreationDate,2022-05-22T19:55:41+02:00*%
%TF.ProjectId,cpu_mem_cpld,6370755f-6d65-46d5-9f63-706c642e6b69,rev?*%
%TF.SameCoordinates,Original*%
%TF.FileFunction,Legend,Top*%
%TF.FilePolarity,Positive*%
%FSLAX46Y46*%
G04 Gerber Fmt 4.6, Leading zero omitted, Abs format (unit mm)*
G04 Created by KiCad (PCBNEW 6.0.5-a6ca702e91~116~ubuntu20.04.1) date 2022-05-22 19:55:41*
%MOMM*%
%LPD*%
G01*
G04 APERTURE LIST*
%ADD10C,0.300000*%
%ADD11C,0.150000*%
%ADD12C,0.200000*%
%ADD13C,0.120000*%
G04 APERTURE END LIST*
D10*
X157928571Y-140632142D02*
X157928571Y-139775000D01*
X159428571Y-140203571D02*
X157928571Y-140203571D01*
X159428571Y-139275000D02*
X157928571Y-139275000D01*
X157928571Y-138917857D01*
X158000000Y-138703571D01*
X158142857Y-138560714D01*
X158285714Y-138489285D01*
X158571428Y-138417857D01*
X158785714Y-138417857D01*
X159071428Y-138489285D01*
X159214285Y-138560714D01*
X159357142Y-138703571D01*
X159428571Y-138917857D01*
X159428571Y-139275000D01*
X157928571Y-137489285D02*
X157928571Y-137203571D01*
X158000000Y-137060714D01*
X158142857Y-136917857D01*
X158428571Y-136846428D01*
X158928571Y-136846428D01*
X159214285Y-136917857D01*
X159357142Y-137060714D01*
X159428571Y-137203571D01*
X159428571Y-137489285D01*
X159357142Y-137632142D01*
X159214285Y-137775000D01*
X158928571Y-137846428D01*
X158428571Y-137846428D01*
X158142857Y-137775000D01*
X158000000Y-137632142D01*
X157928571Y-137489285D01*
D11*
X73947976Y-49254761D02*
X74090833Y-49302380D01*
X74328928Y-49302380D01*
X74424166Y-49254761D01*
X74471785Y-49207142D01*
X74519404Y-49111904D01*
X74519404Y-49016666D01*
X74471785Y-48921428D01*
X74424166Y-48873809D01*
X74328928Y-48826190D01*
X74138452Y-48778571D01*
X74043214Y-48730952D01*
X73995595Y-48683333D01*
X73947976Y-48588095D01*
X73947976Y-48492857D01*
X73995595Y-48397619D01*
X74043214Y-48350000D01*
X74138452Y-48302380D01*
X74376547Y-48302380D01*
X74519404Y-48350000D01*
X74805119Y-48635714D02*
X75186071Y-48635714D01*
X74947976Y-48302380D02*
X74947976Y-49159523D01*
X74995595Y-49254761D01*
X75090833Y-49302380D01*
X75186071Y-49302380D01*
X75900357Y-49254761D02*
X75805119Y-49302380D01*
X75614642Y-49302380D01*
X75519404Y-49254761D01*
X75471785Y-49159523D01*
X75471785Y-48778571D01*
X75519404Y-48683333D01*
X75614642Y-48635714D01*
X75805119Y-48635714D01*
X75900357Y-48683333D01*
X75947976Y-48778571D01*
X75947976Y-48873809D01*
X75471785Y-48969047D01*
X76805119Y-49254761D02*
X76709880Y-49302380D01*
X76519404Y-49302380D01*
X76424166Y-49254761D01*
X76376547Y-49207142D01*
X76328928Y-49111904D01*
X76328928Y-48826190D01*
X76376547Y-48730952D01*
X76424166Y-48683333D01*
X76519404Y-48635714D01*
X76709880Y-48635714D01*
X76805119Y-48683333D01*
X77233690Y-49302380D02*
X77233690Y-48302380D01*
X77328928Y-48921428D02*
X77614642Y-49302380D01*
X77614642Y-48635714D02*
X77233690Y-49016666D01*
X77995595Y-49254761D02*
X78090833Y-49302380D01*
X78281309Y-49302380D01*
X78376547Y-49254761D01*
X78424166Y-49159523D01*
X78424166Y-49111904D01*
X78376547Y-49016666D01*
X78281309Y-48969047D01*
X78138452Y-48969047D01*
X78043214Y-48921428D01*
X77995595Y-48826190D01*
X77995595Y-48778571D01*
X78043214Y-48683333D01*
X78138452Y-48635714D01*
X78281309Y-48635714D01*
X78376547Y-48683333D01*
X79281309Y-49254761D02*
X79186071Y-49302380D01*
X78995595Y-49302380D01*
X78900357Y-49254761D01*
X78852738Y-49207142D01*
X78805119Y-49111904D01*
X78805119Y-48826190D01*
X78852738Y-48730952D01*
X78900357Y-48683333D01*
X78995595Y-48635714D01*
X79186071Y-48635714D01*
X79281309Y-48683333D01*
X79709880Y-49302380D02*
X79709880Y-48302380D01*
X80138452Y-49302380D02*
X80138452Y-48778571D01*
X80090833Y-48683333D01*
X79995595Y-48635714D01*
X79852738Y-48635714D01*
X79757500Y-48683333D01*
X79709880Y-48730952D01*
X80519404Y-48635714D02*
X80709880Y-49302380D01*
X80900357Y-48826190D01*
X81090833Y-49302380D01*
X81281309Y-48635714D01*
X82043214Y-49254761D02*
X81947976Y-49302380D01*
X81757500Y-49302380D01*
X81662261Y-49254761D01*
X81614642Y-49159523D01*
X81614642Y-48778571D01*
X81662261Y-48683333D01*
X81757500Y-48635714D01*
X81947976Y-48635714D01*
X82043214Y-48683333D01*
X82090833Y-48778571D01*
X82090833Y-48873809D01*
X81614642Y-48969047D01*
X82519404Y-49302380D02*
X82519404Y-48635714D01*
X82519404Y-48302380D02*
X82471785Y-48350000D01*
X82519404Y-48397619D01*
X82567023Y-48350000D01*
X82519404Y-48302380D01*
X82519404Y-48397619D01*
X82995595Y-48635714D02*
X82995595Y-49302380D01*
X82995595Y-48730952D02*
X83043214Y-48683333D01*
X83138452Y-48635714D01*
X83281309Y-48635714D01*
X83376547Y-48683333D01*
X83424166Y-48778571D01*
X83424166Y-49302380D01*
X74471785Y-49912380D02*
X73995595Y-49912380D01*
X73947976Y-50388571D01*
X73995595Y-50340952D01*
X74090833Y-50293333D01*
X74328928Y-50293333D01*
X74424166Y-50340952D01*
X74471785Y-50388571D01*
X74519404Y-50483809D01*
X74519404Y-50721904D01*
X74471785Y-50817142D01*
X74424166Y-50864761D01*
X74328928Y-50912380D01*
X74090833Y-50912380D01*
X73995595Y-50864761D01*
X73947976Y-50817142D01*
X75471785Y-50912380D02*
X74900357Y-50912380D01*
X75186071Y-50912380D02*
X75186071Y-49912380D01*
X75090833Y-50055238D01*
X74995595Y-50150476D01*
X74900357Y-50198095D01*
X75852738Y-50007619D02*
X75900357Y-49960000D01*
X75995595Y-49912380D01*
X76233690Y-49912380D01*
X76328928Y-49960000D01*
X76376547Y-50007619D01*
X76424166Y-50102857D01*
X76424166Y-50198095D01*
X76376547Y-50340952D01*
X75805119Y-50912380D01*
X76424166Y-50912380D01*
X76852738Y-50912380D02*
X76852738Y-49912380D01*
X76947976Y-50531428D02*
X77233690Y-50912380D01*
X77233690Y-50245714D02*
X76852738Y-50626666D01*
X78995595Y-50817142D02*
X78947976Y-50864761D01*
X78805119Y-50912380D01*
X78709880Y-50912380D01*
X78567023Y-50864761D01*
X78471785Y-50769523D01*
X78424166Y-50674285D01*
X78376547Y-50483809D01*
X78376547Y-50340952D01*
X78424166Y-50150476D01*
X78471785Y-50055238D01*
X78567023Y-49960000D01*
X78709880Y-49912380D01*
X78805119Y-49912380D01*
X78947976Y-49960000D01*
X78995595Y-50007619D01*
X79424166Y-50912380D02*
X79424166Y-49912380D01*
X79805119Y-49912380D01*
X79900357Y-49960000D01*
X79947976Y-50007619D01*
X79995595Y-50102857D01*
X79995595Y-50245714D01*
X79947976Y-50340952D01*
X79900357Y-50388571D01*
X79805119Y-50436190D01*
X79424166Y-50436190D01*
X80424166Y-49912380D02*
X80424166Y-50721904D01*
X80471785Y-50817142D01*
X80519404Y-50864761D01*
X80614642Y-50912380D01*
X80805119Y-50912380D01*
X80900357Y-50864761D01*
X80947976Y-50817142D01*
X80995595Y-50721904D01*
X80995595Y-49912380D01*
X82186071Y-49864761D02*
X81328928Y-51150476D01*
X82519404Y-50912380D02*
X82519404Y-49912380D01*
X82852738Y-50626666D01*
X83186071Y-49912380D01*
X83186071Y-50912380D01*
X83662261Y-50388571D02*
X83995595Y-50388571D01*
X84138452Y-50912380D02*
X83662261Y-50912380D01*
X83662261Y-49912380D01*
X84138452Y-49912380D01*
X84567023Y-50912380D02*
X84567023Y-49912380D01*
X84900357Y-50626666D01*
X85233690Y-49912380D01*
X85233690Y-50912380D01*
X86424166Y-49864761D02*
X85567023Y-51150476D01*
X86757500Y-49912380D02*
X86757500Y-50721904D01*
X86805119Y-50817142D01*
X86852738Y-50864761D01*
X86947976Y-50912380D01*
X87138452Y-50912380D01*
X87233690Y-50864761D01*
X87281309Y-50817142D01*
X87328928Y-50721904D01*
X87328928Y-49912380D01*
X87757500Y-50626666D02*
X88233690Y-50626666D01*
X87662261Y-50912380D02*
X87995595Y-49912380D01*
X88328928Y-50912380D01*
X89233690Y-50912380D02*
X88900357Y-50436190D01*
X88662261Y-50912380D02*
X88662261Y-49912380D01*
X89043214Y-49912380D01*
X89138452Y-49960000D01*
X89186071Y-50007619D01*
X89233690Y-50102857D01*
X89233690Y-50245714D01*
X89186071Y-50340952D01*
X89138452Y-50388571D01*
X89043214Y-50436190D01*
X88662261Y-50436190D01*
X89519404Y-49912380D02*
X90090833Y-49912380D01*
X89805119Y-50912380D02*
X89805119Y-49912380D01*
X91519404Y-50388571D02*
X91662261Y-50436190D01*
X91709880Y-50483809D01*
X91757500Y-50579047D01*
X91757500Y-50721904D01*
X91709880Y-50817142D01*
X91662261Y-50864761D01*
X91567023Y-50912380D01*
X91186071Y-50912380D01*
X91186071Y-49912380D01*
X91519404Y-49912380D01*
X91614642Y-49960000D01*
X91662261Y-50007619D01*
X91709880Y-50102857D01*
X91709880Y-50198095D01*
X91662261Y-50293333D01*
X91614642Y-50340952D01*
X91519404Y-50388571D01*
X91186071Y-50388571D01*
X92328928Y-50912380D02*
X92233690Y-50864761D01*
X92186071Y-50817142D01*
X92138452Y-50721904D01*
X92138452Y-50436190D01*
X92186071Y-50340952D01*
X92233690Y-50293333D01*
X92328928Y-50245714D01*
X92471785Y-50245714D01*
X92567023Y-50293333D01*
X92614642Y-50340952D01*
X92662261Y-50436190D01*
X92662261Y-50721904D01*
X92614642Y-50817142D01*
X92567023Y-50864761D01*
X92471785Y-50912380D01*
X92328928Y-50912380D01*
X93519404Y-50912380D02*
X93519404Y-50388571D01*
X93471785Y-50293333D01*
X93376547Y-50245714D01*
X93186071Y-50245714D01*
X93090833Y-50293333D01*
X93519404Y-50864761D02*
X93424166Y-50912380D01*
X93186071Y-50912380D01*
X93090833Y-50864761D01*
X93043214Y-50769523D01*
X93043214Y-50674285D01*
X93090833Y-50579047D01*
X93186071Y-50531428D01*
X93424166Y-50531428D01*
X93519404Y-50483809D01*
X93995595Y-50912380D02*
X93995595Y-50245714D01*
X93995595Y-50436190D02*
X94043214Y-50340952D01*
X94090833Y-50293333D01*
X94186071Y-50245714D01*
X94281309Y-50245714D01*
X95043214Y-50912380D02*
X95043214Y-49912380D01*
X95043214Y-50864761D02*
X94947976Y-50912380D01*
X94757500Y-50912380D01*
X94662261Y-50864761D01*
X94614642Y-50817142D01*
X94567023Y-50721904D01*
X94567023Y-50436190D01*
X94614642Y-50340952D01*
X94662261Y-50293333D01*
X94757500Y-50245714D01*
X94947976Y-50245714D01*
X95043214Y-50293333D01*
X74567023Y-52522380D02*
X74233690Y-52046190D01*
X73995595Y-52522380D02*
X73995595Y-51522380D01*
X74376547Y-51522380D01*
X74471785Y-51570000D01*
X74519404Y-51617619D01*
X74567023Y-51712857D01*
X74567023Y-51855714D01*
X74519404Y-51950952D01*
X74471785Y-51998571D01*
X74376547Y-52046190D01*
X73995595Y-52046190D01*
X75376547Y-52474761D02*
X75281309Y-52522380D01*
X75090833Y-52522380D01*
X74995595Y-52474761D01*
X74947976Y-52379523D01*
X74947976Y-51998571D01*
X74995595Y-51903333D01*
X75090833Y-51855714D01*
X75281309Y-51855714D01*
X75376547Y-51903333D01*
X75424166Y-51998571D01*
X75424166Y-52093809D01*
X74947976Y-52189047D01*
X75757500Y-51855714D02*
X75995595Y-52522380D01*
X76233690Y-51855714D01*
X76614642Y-52522380D02*
X76614642Y-51855714D01*
X76614642Y-51522380D02*
X76567023Y-51570000D01*
X76614642Y-51617619D01*
X76662261Y-51570000D01*
X76614642Y-51522380D01*
X76614642Y-51617619D01*
X77043214Y-52474761D02*
X77138452Y-52522380D01*
X77328928Y-52522380D01*
X77424166Y-52474761D01*
X77471785Y-52379523D01*
X77471785Y-52331904D01*
X77424166Y-52236666D01*
X77328928Y-52189047D01*
X77186071Y-52189047D01*
X77090833Y-52141428D01*
X77043214Y-52046190D01*
X77043214Y-51998571D01*
X77090833Y-51903333D01*
X77186071Y-51855714D01*
X77328928Y-51855714D01*
X77424166Y-51903333D01*
X77900357Y-52522380D02*
X77900357Y-51855714D01*
X77900357Y-51522380D02*
X77852738Y-51570000D01*
X77900357Y-51617619D01*
X77947976Y-51570000D01*
X77900357Y-51522380D01*
X77900357Y-51617619D01*
X78519404Y-52522380D02*
X78424166Y-52474761D01*
X78376547Y-52427142D01*
X78328928Y-52331904D01*
X78328928Y-52046190D01*
X78376547Y-51950952D01*
X78424166Y-51903333D01*
X78519404Y-51855714D01*
X78662261Y-51855714D01*
X78757500Y-51903333D01*
X78805119Y-51950952D01*
X78852738Y-52046190D01*
X78852738Y-52331904D01*
X78805119Y-52427142D01*
X78757500Y-52474761D01*
X78662261Y-52522380D01*
X78519404Y-52522380D01*
X79281309Y-51855714D02*
X79281309Y-52522380D01*
X79281309Y-51950952D02*
X79328928Y-51903333D01*
X79424166Y-51855714D01*
X79567023Y-51855714D01*
X79662261Y-51903333D01*
X79709880Y-51998571D01*
X79709880Y-52522380D01*
X81471785Y-52522380D02*
X80900357Y-52522380D01*
X81186071Y-52522380D02*
X81186071Y-51522380D01*
X81090833Y-51665238D01*
X80995595Y-51760476D01*
X80900357Y-51808095D01*
X81900357Y-52427142D02*
X81947976Y-52474761D01*
X81900357Y-52522380D01*
X81852738Y-52474761D01*
X81900357Y-52427142D01*
X81900357Y-52522380D01*
X82567023Y-51522380D02*
X82662261Y-51522380D01*
X82757500Y-51570000D01*
X82805119Y-51617619D01*
X82852738Y-51712857D01*
X82900357Y-51903333D01*
X82900357Y-52141428D01*
X82852738Y-52331904D01*
X82805119Y-52427142D01*
X82757500Y-52474761D01*
X82662261Y-52522380D01*
X82567023Y-52522380D01*
X82471785Y-52474761D01*
X82424166Y-52427142D01*
X82376547Y-52331904D01*
X82328928Y-52141428D01*
X82328928Y-51903333D01*
X82376547Y-51712857D01*
X82424166Y-51617619D01*
X82471785Y-51570000D01*
X82567023Y-51522380D01*
X74281309Y-54513333D02*
X74233690Y-54465714D01*
X74138452Y-54322857D01*
X74090833Y-54227619D01*
X74043214Y-54084761D01*
X73995595Y-53846666D01*
X73995595Y-53656190D01*
X74043214Y-53418095D01*
X74090833Y-53275238D01*
X74138452Y-53180000D01*
X74233690Y-53037142D01*
X74281309Y-52989523D01*
X75233690Y-54037142D02*
X75186071Y-54084761D01*
X75043214Y-54132380D01*
X74947976Y-54132380D01*
X74805119Y-54084761D01*
X74709880Y-53989523D01*
X74662261Y-53894285D01*
X74614642Y-53703809D01*
X74614642Y-53560952D01*
X74662261Y-53370476D01*
X74709880Y-53275238D01*
X74805119Y-53180000D01*
X74947976Y-53132380D01*
X75043214Y-53132380D01*
X75186071Y-53180000D01*
X75233690Y-53227619D01*
X75567023Y-54513333D02*
X75614642Y-54465714D01*
X75709880Y-54322857D01*
X75757500Y-54227619D01*
X75805119Y-54084761D01*
X75852738Y-53846666D01*
X75852738Y-53656190D01*
X75805119Y-53418095D01*
X75757500Y-53275238D01*
X75709880Y-53180000D01*
X75614642Y-53037142D01*
X75567023Y-52989523D01*
X77043214Y-53227619D02*
X77090833Y-53180000D01*
X77186071Y-53132380D01*
X77424166Y-53132380D01*
X77519404Y-53180000D01*
X77567023Y-53227619D01*
X77614642Y-53322857D01*
X77614642Y-53418095D01*
X77567023Y-53560952D01*
X76995595Y-54132380D01*
X77614642Y-54132380D01*
X78233690Y-53132380D02*
X78328928Y-53132380D01*
X78424166Y-53180000D01*
X78471785Y-53227619D01*
X78519404Y-53322857D01*
X78567023Y-53513333D01*
X78567023Y-53751428D01*
X78519404Y-53941904D01*
X78471785Y-54037142D01*
X78424166Y-54084761D01*
X78328928Y-54132380D01*
X78233690Y-54132380D01*
X78138452Y-54084761D01*
X78090833Y-54037142D01*
X78043214Y-53941904D01*
X77995595Y-53751428D01*
X77995595Y-53513333D01*
X78043214Y-53322857D01*
X78090833Y-53227619D01*
X78138452Y-53180000D01*
X78233690Y-53132380D01*
X78947976Y-53227619D02*
X78995595Y-53180000D01*
X79090833Y-53132380D01*
X79328928Y-53132380D01*
X79424166Y-53180000D01*
X79471785Y-53227619D01*
X79519404Y-53322857D01*
X79519404Y-53418095D01*
X79471785Y-53560952D01*
X78900357Y-54132380D01*
X79519404Y-54132380D01*
X79900357Y-53227619D02*
X79947976Y-53180000D01*
X80043214Y-53132380D01*
X80281309Y-53132380D01*
X80376547Y-53180000D01*
X80424166Y-53227619D01*
X80471785Y-53322857D01*
X80471785Y-53418095D01*
X80424166Y-53560952D01*
X79852738Y-54132380D01*
X80471785Y-54132380D01*
X81567023Y-53132380D02*
X81805119Y-54132380D01*
X81995595Y-53418095D01*
X82186071Y-54132380D01*
X82424166Y-53132380D01*
X82947976Y-54132380D02*
X82852738Y-54084761D01*
X82805119Y-54037142D01*
X82757500Y-53941904D01*
X82757500Y-53656190D01*
X82805119Y-53560952D01*
X82852738Y-53513333D01*
X82947976Y-53465714D01*
X83090833Y-53465714D01*
X83186071Y-53513333D01*
X83233690Y-53560952D01*
X83281309Y-53656190D01*
X83281309Y-53941904D01*
X83233690Y-54037142D01*
X83186071Y-54084761D01*
X83090833Y-54132380D01*
X82947976Y-54132380D01*
X83709880Y-54132380D02*
X83709880Y-53465714D01*
X83709880Y-53132380D02*
X83662261Y-53180000D01*
X83709880Y-53227619D01*
X83757500Y-53180000D01*
X83709880Y-53132380D01*
X83709880Y-53227619D01*
X84186071Y-53465714D02*
X84186071Y-54132380D01*
X84186071Y-53560952D02*
X84233690Y-53513333D01*
X84328928Y-53465714D01*
X84471785Y-53465714D01*
X84567023Y-53513333D01*
X84614642Y-53608571D01*
X84614642Y-54132380D01*
X85090833Y-54132380D02*
X85090833Y-53132380D01*
X85186071Y-53751428D02*
X85471785Y-54132380D01*
X85471785Y-53465714D02*
X85090833Y-53846666D01*
X86281309Y-54084761D02*
X86186071Y-54132380D01*
X85995595Y-54132380D01*
X85900357Y-54084761D01*
X85852738Y-53989523D01*
X85852738Y-53608571D01*
X85900357Y-53513333D01*
X85995595Y-53465714D01*
X86186071Y-53465714D01*
X86281309Y-53513333D01*
X86328928Y-53608571D01*
X86328928Y-53703809D01*
X85852738Y-53799047D01*
X88233690Y-53084761D02*
X87376547Y-54370476D01*
X89805119Y-54132380D02*
X89328928Y-54132380D01*
X89328928Y-53132380D01*
X90567023Y-54132380D02*
X90567023Y-53608571D01*
X90519404Y-53513333D01*
X90424166Y-53465714D01*
X90233690Y-53465714D01*
X90138452Y-53513333D01*
X90567023Y-54084761D02*
X90471785Y-54132380D01*
X90233690Y-54132380D01*
X90138452Y-54084761D01*
X90090833Y-53989523D01*
X90090833Y-53894285D01*
X90138452Y-53799047D01*
X90233690Y-53751428D01*
X90471785Y-53751428D01*
X90567023Y-53703809D01*
X91471785Y-53465714D02*
X91471785Y-54132380D01*
X91043214Y-53465714D02*
X91043214Y-53989523D01*
X91090833Y-54084761D01*
X91186071Y-54132380D01*
X91328928Y-54132380D01*
X91424166Y-54084761D01*
X91471785Y-54037142D01*
X91947976Y-54132380D02*
X91947976Y-53132380D01*
X92043214Y-53751428D02*
X92328928Y-54132380D01*
X92328928Y-53465714D02*
X91947976Y-53846666D01*
X93138452Y-54084761D02*
X93043214Y-54132380D01*
X92852738Y-54132380D01*
X92757500Y-54084761D01*
X92709880Y-53989523D01*
X92709880Y-53608571D01*
X92757500Y-53513333D01*
X92852738Y-53465714D01*
X93043214Y-53465714D01*
X93138452Y-53513333D01*
X93186071Y-53608571D01*
X93186071Y-53703809D01*
X92709880Y-53799047D01*
X73900357Y-55075714D02*
X74090833Y-55742380D01*
X74281309Y-55266190D01*
X74471785Y-55742380D01*
X74662261Y-55075714D01*
X74947976Y-55075714D02*
X75138452Y-55742380D01*
X75328928Y-55266190D01*
X75519404Y-55742380D01*
X75709880Y-55075714D01*
X75995595Y-55075714D02*
X76186071Y-55742380D01*
X76376547Y-55266190D01*
X76567023Y-55742380D01*
X76757500Y-55075714D01*
X77138452Y-55647142D02*
X77186071Y-55694761D01*
X77138452Y-55742380D01*
X77090833Y-55694761D01*
X77138452Y-55647142D01*
X77138452Y-55742380D01*
X77567023Y-55694761D02*
X77662261Y-55742380D01*
X77852738Y-55742380D01*
X77947976Y-55694761D01*
X77995595Y-55599523D01*
X77995595Y-55551904D01*
X77947976Y-55456666D01*
X77852738Y-55409047D01*
X77709880Y-55409047D01*
X77614642Y-55361428D01*
X77567023Y-55266190D01*
X77567023Y-55218571D01*
X77614642Y-55123333D01*
X77709880Y-55075714D01*
X77852738Y-55075714D01*
X77947976Y-55123333D01*
X78281309Y-55075714D02*
X78662261Y-55075714D01*
X78424166Y-54742380D02*
X78424166Y-55599523D01*
X78471785Y-55694761D01*
X78567023Y-55742380D01*
X78662261Y-55742380D01*
X79376547Y-55694761D02*
X79281309Y-55742380D01*
X79090833Y-55742380D01*
X78995595Y-55694761D01*
X78947976Y-55599523D01*
X78947976Y-55218571D01*
X78995595Y-55123333D01*
X79090833Y-55075714D01*
X79281309Y-55075714D01*
X79376547Y-55123333D01*
X79424166Y-55218571D01*
X79424166Y-55313809D01*
X78947976Y-55409047D01*
X80281309Y-55694761D02*
X80186071Y-55742380D01*
X79995595Y-55742380D01*
X79900357Y-55694761D01*
X79852738Y-55647142D01*
X79805119Y-55551904D01*
X79805119Y-55266190D01*
X79852738Y-55170952D01*
X79900357Y-55123333D01*
X79995595Y-55075714D01*
X80186071Y-55075714D01*
X80281309Y-55123333D01*
X80709880Y-55742380D02*
X80709880Y-54742380D01*
X80805119Y-55361428D02*
X81090833Y-55742380D01*
X81090833Y-55075714D02*
X80709880Y-55456666D01*
X81471785Y-55694761D02*
X81567023Y-55742380D01*
X81757500Y-55742380D01*
X81852738Y-55694761D01*
X81900357Y-55599523D01*
X81900357Y-55551904D01*
X81852738Y-55456666D01*
X81757500Y-55409047D01*
X81614642Y-55409047D01*
X81519404Y-55361428D01*
X81471785Y-55266190D01*
X81471785Y-55218571D01*
X81519404Y-55123333D01*
X81614642Y-55075714D01*
X81757500Y-55075714D01*
X81852738Y-55123333D01*
X82757500Y-55694761D02*
X82662261Y-55742380D01*
X82471785Y-55742380D01*
X82376547Y-55694761D01*
X82328928Y-55647142D01*
X82281309Y-55551904D01*
X82281309Y-55266190D01*
X82328928Y-55170952D01*
X82376547Y-55123333D01*
X82471785Y-55075714D01*
X82662261Y-55075714D01*
X82757500Y-55123333D01*
X83186071Y-55742380D02*
X83186071Y-54742380D01*
X83614642Y-55742380D02*
X83614642Y-55218571D01*
X83567023Y-55123333D01*
X83471785Y-55075714D01*
X83328928Y-55075714D01*
X83233690Y-55123333D01*
X83186071Y-55170952D01*
X83995595Y-55075714D02*
X84186071Y-55742380D01*
X84376547Y-55266190D01*
X84567023Y-55742380D01*
X84757500Y-55075714D01*
X85519404Y-55694761D02*
X85424166Y-55742380D01*
X85233690Y-55742380D01*
X85138452Y-55694761D01*
X85090833Y-55599523D01*
X85090833Y-55218571D01*
X85138452Y-55123333D01*
X85233690Y-55075714D01*
X85424166Y-55075714D01*
X85519404Y-55123333D01*
X85567023Y-55218571D01*
X85567023Y-55313809D01*
X85090833Y-55409047D01*
X85995595Y-55742380D02*
X85995595Y-55075714D01*
X85995595Y-54742380D02*
X85947976Y-54790000D01*
X85995595Y-54837619D01*
X86043214Y-54790000D01*
X85995595Y-54742380D01*
X85995595Y-54837619D01*
X86471785Y-55075714D02*
X86471785Y-55742380D01*
X86471785Y-55170952D02*
X86519404Y-55123333D01*
X86614642Y-55075714D01*
X86757500Y-55075714D01*
X86852738Y-55123333D01*
X86900357Y-55218571D01*
X86900357Y-55742380D01*
X87376547Y-55647142D02*
X87424166Y-55694761D01*
X87376547Y-55742380D01*
X87328928Y-55694761D01*
X87376547Y-55647142D01*
X87376547Y-55742380D01*
X88281309Y-55742380D02*
X88281309Y-54742380D01*
X88281309Y-55694761D02*
X88186071Y-55742380D01*
X87995595Y-55742380D01*
X87900357Y-55694761D01*
X87852738Y-55647142D01*
X87805119Y-55551904D01*
X87805119Y-55266190D01*
X87852738Y-55170952D01*
X87900357Y-55123333D01*
X87995595Y-55075714D01*
X88186071Y-55075714D01*
X88281309Y-55123333D01*
X89138452Y-55694761D02*
X89043214Y-55742380D01*
X88852738Y-55742380D01*
X88757500Y-55694761D01*
X88709880Y-55599523D01*
X88709880Y-55218571D01*
X88757500Y-55123333D01*
X88852738Y-55075714D01*
X89043214Y-55075714D01*
X89138452Y-55123333D01*
X89186071Y-55218571D01*
X89186071Y-55313809D01*
X88709880Y-55409047D01*
D10*
X163008571Y-140632142D02*
X163008571Y-139775000D01*
X164508571Y-140203571D02*
X163008571Y-140203571D01*
X164508571Y-139275000D02*
X163008571Y-139275000D01*
X164080000Y-138775000D01*
X163008571Y-138275000D01*
X164508571Y-138275000D01*
X164437142Y-137632142D02*
X164508571Y-137417857D01*
X164508571Y-137060714D01*
X164437142Y-136917857D01*
X164365714Y-136846428D01*
X164222857Y-136775000D01*
X164080000Y-136775000D01*
X163937142Y-136846428D01*
X163865714Y-136917857D01*
X163794285Y-137060714D01*
X163722857Y-137346428D01*
X163651428Y-137489285D01*
X163580000Y-137560714D01*
X163437142Y-137632142D01*
X163294285Y-137632142D01*
X163151428Y-137560714D01*
X163080000Y-137489285D01*
X163008571Y-137346428D01*
X163008571Y-136989285D01*
X163080000Y-136775000D01*
D12*
X168017142Y-55288571D02*
X168017142Y-54288571D01*
X168017142Y-54574285D02*
X168088571Y-54431428D01*
X168160000Y-54360000D01*
X168302857Y-54288571D01*
X168445714Y-54288571D01*
X168802857Y-54288571D02*
X169088571Y-55288571D01*
X169374285Y-54574285D01*
X169660000Y-55288571D01*
X169945714Y-54288571D01*
X180824285Y-55288571D02*
X180824285Y-54288571D01*
X180824285Y-54574285D02*
X180895714Y-54431428D01*
X180967142Y-54360000D01*
X181110000Y-54288571D01*
X181252857Y-54288571D01*
X181967142Y-55288571D02*
X181824285Y-55217142D01*
X181752857Y-55145714D01*
X181681428Y-55002857D01*
X181681428Y-54574285D01*
X181752857Y-54431428D01*
X181824285Y-54360000D01*
X181967142Y-54288571D01*
X182181428Y-54288571D01*
X182324285Y-54360000D01*
X182395714Y-54431428D01*
X182467142Y-54574285D01*
X182467142Y-55002857D01*
X182395714Y-55145714D01*
X182324285Y-55217142D01*
X182181428Y-55288571D01*
X181967142Y-55288571D01*
D10*
X150308571Y-140632142D02*
X151808571Y-140132142D01*
X150308571Y-139632142D01*
X151665714Y-138275000D02*
X151737142Y-138346428D01*
X151808571Y-138560714D01*
X151808571Y-138703571D01*
X151737142Y-138917857D01*
X151594285Y-139060714D01*
X151451428Y-139132142D01*
X151165714Y-139203571D01*
X150951428Y-139203571D01*
X150665714Y-139132142D01*
X150522857Y-139060714D01*
X150380000Y-138917857D01*
X150308571Y-138703571D01*
X150308571Y-138560714D01*
X150380000Y-138346428D01*
X150451428Y-138275000D01*
X151665714Y-136775000D02*
X151737142Y-136846428D01*
X151808571Y-137060714D01*
X151808571Y-137203571D01*
X151737142Y-137417857D01*
X151594285Y-137560714D01*
X151451428Y-137632142D01*
X151165714Y-137703571D01*
X150951428Y-137703571D01*
X150665714Y-137632142D01*
X150522857Y-137560714D01*
X150380000Y-137417857D01*
X150308571Y-137203571D01*
X150308571Y-137060714D01*
X150380000Y-136846428D01*
X150451428Y-136775000D01*
X152920000Y-139632142D02*
X152848571Y-139775000D01*
X152848571Y-139989285D01*
X152920000Y-140203571D01*
X153062857Y-140346428D01*
X153205714Y-140417857D01*
X153491428Y-140489285D01*
X153705714Y-140489285D01*
X153991428Y-140417857D01*
X154134285Y-140346428D01*
X154277142Y-140203571D01*
X154348571Y-139989285D01*
X154348571Y-139846428D01*
X154277142Y-139632142D01*
X154205714Y-139560714D01*
X153705714Y-139560714D01*
X153705714Y-139846428D01*
X154348571Y-138917857D02*
X152848571Y-138917857D01*
X154348571Y-138060714D01*
X152848571Y-138060714D01*
X154348571Y-137346428D02*
X152848571Y-137346428D01*
X152848571Y-136989285D01*
X152920000Y-136775000D01*
X153062857Y-136632142D01*
X153205714Y-136560714D01*
X153491428Y-136489285D01*
X153705714Y-136489285D01*
X153991428Y-136560714D01*
X154134285Y-136632142D01*
X154277142Y-136775000D01*
X154348571Y-136989285D01*
X154348571Y-137346428D01*
X155388571Y-140632142D02*
X155388571Y-139775000D01*
X156888571Y-140203571D02*
X155388571Y-140203571D01*
X156745714Y-138417857D02*
X156817142Y-138489285D01*
X156888571Y-138703571D01*
X156888571Y-138846428D01*
X156817142Y-139060714D01*
X156674285Y-139203571D01*
X156531428Y-139275000D01*
X156245714Y-139346428D01*
X156031428Y-139346428D01*
X155745714Y-139275000D01*
X155602857Y-139203571D01*
X155460000Y-139060714D01*
X155388571Y-138846428D01*
X155388571Y-138703571D01*
X155460000Y-138489285D01*
X155531428Y-138417857D01*
X156888571Y-137775000D02*
X155388571Y-137775000D01*
X156888571Y-136917857D02*
X156031428Y-137560714D01*
X155388571Y-136917857D02*
X156245714Y-137775000D01*
X160531071Y-140632142D02*
X160531071Y-139775000D01*
X162031071Y-140203571D02*
X160531071Y-140203571D01*
X162031071Y-139275000D02*
X160531071Y-139275000D01*
X160531071Y-138917857D01*
X160602500Y-138703571D01*
X160745357Y-138560714D01*
X160888214Y-138489285D01*
X161173928Y-138417857D01*
X161388214Y-138417857D01*
X161673928Y-138489285D01*
X161816785Y-138560714D01*
X161959642Y-138703571D01*
X162031071Y-138917857D01*
X162031071Y-139275000D01*
X162031071Y-137775000D02*
X160531071Y-137775000D01*
D11*
%TO.C,P5*%
X220181904Y-63587380D02*
X220181904Y-62587380D01*
X220562857Y-62587380D01*
X220658095Y-62635000D01*
X220705714Y-62682619D01*
X220753333Y-62777857D01*
X220753333Y-62920714D01*
X220705714Y-63015952D01*
X220658095Y-63063571D01*
X220562857Y-63111190D01*
X220181904Y-63111190D01*
X221658095Y-62587380D02*
X221181904Y-62587380D01*
X221134285Y-63063571D01*
X221181904Y-63015952D01*
X221277142Y-62968333D01*
X221515238Y-62968333D01*
X221610476Y-63015952D01*
X221658095Y-63063571D01*
X221705714Y-63158809D01*
X221705714Y-63396904D01*
X221658095Y-63492142D01*
X221610476Y-63539761D01*
X221515238Y-63587380D01*
X221277142Y-63587380D01*
X221181904Y-63539761D01*
X221134285Y-63492142D01*
%TO.C,C10*%
X162917142Y-53982857D02*
X162964761Y-54030476D01*
X163012380Y-54173333D01*
X163012380Y-54268571D01*
X162964761Y-54411428D01*
X162869523Y-54506666D01*
X162774285Y-54554285D01*
X162583809Y-54601904D01*
X162440952Y-54601904D01*
X162250476Y-54554285D01*
X162155238Y-54506666D01*
X162060000Y-54411428D01*
X162012380Y-54268571D01*
X162012380Y-54173333D01*
X162060000Y-54030476D01*
X162107619Y-53982857D01*
X163012380Y-53030476D02*
X163012380Y-53601904D01*
X163012380Y-53316190D02*
X162012380Y-53316190D01*
X162155238Y-53411428D01*
X162250476Y-53506666D01*
X162298095Y-53601904D01*
X162012380Y-52411428D02*
X162012380Y-52316190D01*
X162060000Y-52220952D01*
X162107619Y-52173333D01*
X162202857Y-52125714D01*
X162393333Y-52078095D01*
X162631428Y-52078095D01*
X162821904Y-52125714D01*
X162917142Y-52173333D01*
X162964761Y-52220952D01*
X163012380Y-52316190D01*
X163012380Y-52411428D01*
X162964761Y-52506666D01*
X162917142Y-52554285D01*
X162821904Y-52601904D01*
X162631428Y-52649523D01*
X162393333Y-52649523D01*
X162202857Y-52601904D01*
X162107619Y-52554285D01*
X162060000Y-52506666D01*
X162012380Y-52411428D01*
%TO.C,R2*%
X112863333Y-96972380D02*
X112530000Y-96496190D01*
X112291904Y-96972380D02*
X112291904Y-95972380D01*
X112672857Y-95972380D01*
X112768095Y-96020000D01*
X112815714Y-96067619D01*
X112863333Y-96162857D01*
X112863333Y-96305714D01*
X112815714Y-96400952D01*
X112768095Y-96448571D01*
X112672857Y-96496190D01*
X112291904Y-96496190D01*
X113244285Y-96067619D02*
X113291904Y-96020000D01*
X113387142Y-95972380D01*
X113625238Y-95972380D01*
X113720476Y-96020000D01*
X113768095Y-96067619D01*
X113815714Y-96162857D01*
X113815714Y-96258095D01*
X113768095Y-96400952D01*
X113196666Y-96972380D01*
X113815714Y-96972380D01*
%TO.C,R5*%
X86162380Y-75096666D02*
X85686190Y-75430000D01*
X86162380Y-75668095D02*
X85162380Y-75668095D01*
X85162380Y-75287142D01*
X85210000Y-75191904D01*
X85257619Y-75144285D01*
X85352857Y-75096666D01*
X85495714Y-75096666D01*
X85590952Y-75144285D01*
X85638571Y-75191904D01*
X85686190Y-75287142D01*
X85686190Y-75668095D01*
X85162380Y-74191904D02*
X85162380Y-74668095D01*
X85638571Y-74715714D01*
X85590952Y-74668095D01*
X85543333Y-74572857D01*
X85543333Y-74334761D01*
X85590952Y-74239523D01*
X85638571Y-74191904D01*
X85733809Y-74144285D01*
X85971904Y-74144285D01*
X86067142Y-74191904D01*
X86114761Y-74239523D01*
X86162380Y-74334761D01*
X86162380Y-74572857D01*
X86114761Y-74668095D01*
X86067142Y-74715714D01*
%TO.C,C25*%
X77192142Y-107052857D02*
X77239761Y-107100476D01*
X77287380Y-107243333D01*
X77287380Y-107338571D01*
X77239761Y-107481428D01*
X77144523Y-107576666D01*
X77049285Y-107624285D01*
X76858809Y-107671904D01*
X76715952Y-107671904D01*
X76525476Y-107624285D01*
X76430238Y-107576666D01*
X76335000Y-107481428D01*
X76287380Y-107338571D01*
X76287380Y-107243333D01*
X76335000Y-107100476D01*
X76382619Y-107052857D01*
X76382619Y-106671904D02*
X76335000Y-106624285D01*
X76287380Y-106529047D01*
X76287380Y-106290952D01*
X76335000Y-106195714D01*
X76382619Y-106148095D01*
X76477857Y-106100476D01*
X76573095Y-106100476D01*
X76715952Y-106148095D01*
X77287380Y-106719523D01*
X77287380Y-106100476D01*
X76287380Y-105195714D02*
X76287380Y-105671904D01*
X76763571Y-105719523D01*
X76715952Y-105671904D01*
X76668333Y-105576666D01*
X76668333Y-105338571D01*
X76715952Y-105243333D01*
X76763571Y-105195714D01*
X76858809Y-105148095D01*
X77096904Y-105148095D01*
X77192142Y-105195714D01*
X77239761Y-105243333D01*
X77287380Y-105338571D01*
X77287380Y-105576666D01*
X77239761Y-105671904D01*
X77192142Y-105719523D01*
%TO.C,JP1*%
X174426666Y-51522380D02*
X174426666Y-52236666D01*
X174379047Y-52379523D01*
X174283809Y-52474761D01*
X174140952Y-52522380D01*
X174045714Y-52522380D01*
X174902857Y-52522380D02*
X174902857Y-51522380D01*
X175283809Y-51522380D01*
X175379047Y-51570000D01*
X175426666Y-51617619D01*
X175474285Y-51712857D01*
X175474285Y-51855714D01*
X175426666Y-51950952D01*
X175379047Y-51998571D01*
X175283809Y-52046190D01*
X174902857Y-52046190D01*
X176426666Y-52522380D02*
X175855238Y-52522380D01*
X176140952Y-52522380D02*
X176140952Y-51522380D01*
X176045714Y-51665238D01*
X175950476Y-51760476D01*
X175855238Y-51808095D01*
%TO.C,U6*%
X90678095Y-79462380D02*
X90678095Y-80271904D01*
X90725714Y-80367142D01*
X90773333Y-80414761D01*
X90868571Y-80462380D01*
X91059047Y-80462380D01*
X91154285Y-80414761D01*
X91201904Y-80367142D01*
X91249523Y-80271904D01*
X91249523Y-79462380D01*
X92154285Y-79462380D02*
X91963809Y-79462380D01*
X91868571Y-79510000D01*
X91820952Y-79557619D01*
X91725714Y-79700476D01*
X91678095Y-79890952D01*
X91678095Y-80271904D01*
X91725714Y-80367142D01*
X91773333Y-80414761D01*
X91868571Y-80462380D01*
X92059047Y-80462380D01*
X92154285Y-80414761D01*
X92201904Y-80367142D01*
X92249523Y-80271904D01*
X92249523Y-80033809D01*
X92201904Y-79938571D01*
X92154285Y-79890952D01*
X92059047Y-79843333D01*
X91868571Y-79843333D01*
X91773333Y-79890952D01*
X91725714Y-79938571D01*
X91678095Y-80033809D01*
X95712380Y-75874285D02*
X95712380Y-76350476D01*
X94712380Y-76350476D01*
X95712380Y-75540952D02*
X94712380Y-75540952D01*
X95426666Y-75207619D01*
X94712380Y-74874285D01*
X95712380Y-74874285D01*
X94712380Y-73921904D02*
X94712380Y-74398095D01*
X95188571Y-74445714D01*
X95140952Y-74398095D01*
X95093333Y-74302857D01*
X95093333Y-74064761D01*
X95140952Y-73969523D01*
X95188571Y-73921904D01*
X95283809Y-73874285D01*
X95521904Y-73874285D01*
X95617142Y-73921904D01*
X95664761Y-73969523D01*
X95712380Y-74064761D01*
X95712380Y-74302857D01*
X95664761Y-74398095D01*
X95617142Y-74445714D01*
X94712380Y-72969523D02*
X94712380Y-73445714D01*
X95188571Y-73493333D01*
X95140952Y-73445714D01*
X95093333Y-73350476D01*
X95093333Y-73112380D01*
X95140952Y-73017142D01*
X95188571Y-72969523D01*
X95283809Y-72921904D01*
X95521904Y-72921904D01*
X95617142Y-72969523D01*
X95664761Y-73017142D01*
X95712380Y-73112380D01*
X95712380Y-73350476D01*
X95664761Y-73445714D01*
X95617142Y-73493333D01*
X94712380Y-72017142D02*
X94712380Y-72493333D01*
X95188571Y-72540952D01*
X95140952Y-72493333D01*
X95093333Y-72398095D01*
X95093333Y-72160000D01*
X95140952Y-72064761D01*
X95188571Y-72017142D01*
X95283809Y-71969523D01*
X95521904Y-71969523D01*
X95617142Y-72017142D01*
X95664761Y-72064761D01*
X95712380Y-72160000D01*
X95712380Y-72398095D01*
X95664761Y-72493333D01*
X95617142Y-72540952D01*
X95712380Y-71540952D02*
X94712380Y-71540952D01*
X95712380Y-70969523D01*
X94712380Y-70969523D01*
%TO.C,U11*%
X98512380Y-120618095D02*
X99321904Y-120618095D01*
X99417142Y-120570476D01*
X99464761Y-120522857D01*
X99512380Y-120427619D01*
X99512380Y-120237142D01*
X99464761Y-120141904D01*
X99417142Y-120094285D01*
X99321904Y-120046666D01*
X98512380Y-120046666D01*
X99512380Y-119046666D02*
X99512380Y-119618095D01*
X99512380Y-119332380D02*
X98512380Y-119332380D01*
X98655238Y-119427619D01*
X98750476Y-119522857D01*
X98798095Y-119618095D01*
X99512380Y-118094285D02*
X99512380Y-118665714D01*
X99512380Y-118380000D02*
X98512380Y-118380000D01*
X98655238Y-118475238D01*
X98750476Y-118570476D01*
X98798095Y-118665714D01*
X124962380Y-119729047D02*
X124962380Y-120300476D01*
X124962380Y-120014761D02*
X123962380Y-120014761D01*
X124105238Y-120110000D01*
X124200476Y-120205238D01*
X124248095Y-120300476D01*
X123962380Y-118871904D02*
X123962380Y-119062380D01*
X124010000Y-119157619D01*
X124057619Y-119205238D01*
X124200476Y-119300476D01*
X124390952Y-119348095D01*
X124771904Y-119348095D01*
X124867142Y-119300476D01*
X124914761Y-119252857D01*
X124962380Y-119157619D01*
X124962380Y-118967142D01*
X124914761Y-118871904D01*
X124867142Y-118824285D01*
X124771904Y-118776666D01*
X124533809Y-118776666D01*
X124438571Y-118824285D01*
X124390952Y-118871904D01*
X124343333Y-118967142D01*
X124343333Y-119157619D01*
X124390952Y-119252857D01*
X124438571Y-119300476D01*
X124533809Y-119348095D01*
X123962380Y-117871904D02*
X123962380Y-118348095D01*
X124438571Y-118395714D01*
X124390952Y-118348095D01*
X124343333Y-118252857D01*
X124343333Y-118014761D01*
X124390952Y-117919523D01*
X124438571Y-117871904D01*
X124533809Y-117824285D01*
X124771904Y-117824285D01*
X124867142Y-117871904D01*
X124914761Y-117919523D01*
X124962380Y-118014761D01*
X124962380Y-118252857D01*
X124914761Y-118348095D01*
X124867142Y-118395714D01*
X123962380Y-116919523D02*
X123962380Y-117395714D01*
X124438571Y-117443333D01*
X124390952Y-117395714D01*
X124343333Y-117300476D01*
X124343333Y-117062380D01*
X124390952Y-116967142D01*
X124438571Y-116919523D01*
X124533809Y-116871904D01*
X124771904Y-116871904D01*
X124867142Y-116919523D01*
X124914761Y-116967142D01*
X124962380Y-117062380D01*
X124962380Y-117300476D01*
X124914761Y-117395714D01*
X124867142Y-117443333D01*
X123962380Y-116252857D02*
X123962380Y-116157619D01*
X124010000Y-116062380D01*
X124057619Y-116014761D01*
X124152857Y-115967142D01*
X124343333Y-115919523D01*
X124581428Y-115919523D01*
X124771904Y-115967142D01*
X124867142Y-116014761D01*
X124914761Y-116062380D01*
X124962380Y-116157619D01*
X124962380Y-116252857D01*
X124914761Y-116348095D01*
X124867142Y-116395714D01*
X124771904Y-116443333D01*
X124581428Y-116490952D01*
X124343333Y-116490952D01*
X124152857Y-116443333D01*
X124057619Y-116395714D01*
X124010000Y-116348095D01*
X123962380Y-116252857D01*
%TO.C,JTAG1*%
X166991309Y-142962380D02*
X166991309Y-143676666D01*
X166943690Y-143819523D01*
X166848452Y-143914761D01*
X166705595Y-143962380D01*
X166610357Y-143962380D01*
X167324642Y-142962380D02*
X167896071Y-142962380D01*
X167610357Y-143962380D02*
X167610357Y-142962380D01*
X168181785Y-143676666D02*
X168657976Y-143676666D01*
X168086547Y-143962380D02*
X168419880Y-142962380D01*
X168753214Y-143962380D01*
X169610357Y-143010000D02*
X169515119Y-142962380D01*
X169372261Y-142962380D01*
X169229404Y-143010000D01*
X169134166Y-143105238D01*
X169086547Y-143200476D01*
X169038928Y-143390952D01*
X169038928Y-143533809D01*
X169086547Y-143724285D01*
X169134166Y-143819523D01*
X169229404Y-143914761D01*
X169372261Y-143962380D01*
X169467500Y-143962380D01*
X169610357Y-143914761D01*
X169657976Y-143867142D01*
X169657976Y-143533809D01*
X169467500Y-143533809D01*
X170610357Y-143962380D02*
X170038928Y-143962380D01*
X170324642Y-143962380D02*
X170324642Y-142962380D01*
X170229404Y-143105238D01*
X170134166Y-143200476D01*
X170038928Y-143248095D01*
%TO.C,C4*%
X101433333Y-65127142D02*
X101385714Y-65174761D01*
X101242857Y-65222380D01*
X101147619Y-65222380D01*
X101004761Y-65174761D01*
X100909523Y-65079523D01*
X100861904Y-64984285D01*
X100814285Y-64793809D01*
X100814285Y-64650952D01*
X100861904Y-64460476D01*
X100909523Y-64365238D01*
X101004761Y-64270000D01*
X101147619Y-64222380D01*
X101242857Y-64222380D01*
X101385714Y-64270000D01*
X101433333Y-64317619D01*
X102290476Y-64555714D02*
X102290476Y-65222380D01*
X102052380Y-64174761D02*
X101814285Y-64889047D01*
X102433333Y-64889047D01*
%TO.C,U10*%
X201961904Y-61682380D02*
X201961904Y-62491904D01*
X202009523Y-62587142D01*
X202057142Y-62634761D01*
X202152380Y-62682380D01*
X202342857Y-62682380D01*
X202438095Y-62634761D01*
X202485714Y-62587142D01*
X202533333Y-62491904D01*
X202533333Y-61682380D01*
X203533333Y-62682380D02*
X202961904Y-62682380D01*
X203247619Y-62682380D02*
X203247619Y-61682380D01*
X203152380Y-61825238D01*
X203057142Y-61920476D01*
X202961904Y-61968095D01*
X204152380Y-61682380D02*
X204247619Y-61682380D01*
X204342857Y-61730000D01*
X204390476Y-61777619D01*
X204438095Y-61872857D01*
X204485714Y-62063333D01*
X204485714Y-62301428D01*
X204438095Y-62491904D01*
X204390476Y-62587142D01*
X204342857Y-62634761D01*
X204247619Y-62682380D01*
X204152380Y-62682380D01*
X204057142Y-62634761D01*
X204009523Y-62587142D01*
X203961904Y-62491904D01*
X203914285Y-62301428D01*
X203914285Y-62063333D01*
X203961904Y-61872857D01*
X204009523Y-61777619D01*
X204057142Y-61730000D01*
X204152380Y-61682380D01*
X202652380Y-79842857D02*
X202652380Y-79176190D01*
X203652380Y-79604761D01*
X202985714Y-78366666D02*
X203652380Y-78366666D01*
X202604761Y-78604761D02*
X203319047Y-78842857D01*
X203319047Y-78223809D01*
X203652380Y-77842857D02*
X202652380Y-77842857D01*
X203128571Y-77842857D02*
X203128571Y-77271428D01*
X203652380Y-77271428D02*
X202652380Y-77271428D01*
X203557142Y-76223809D02*
X203604761Y-76271428D01*
X203652380Y-76414285D01*
X203652380Y-76509523D01*
X203604761Y-76652380D01*
X203509523Y-76747619D01*
X203414285Y-76795238D01*
X203223809Y-76842857D01*
X203080952Y-76842857D01*
X202890476Y-76795238D01*
X202795238Y-76747619D01*
X202700000Y-76652380D01*
X202652380Y-76509523D01*
X202652380Y-76414285D01*
X202700000Y-76271428D01*
X202747619Y-76223809D01*
X202652380Y-75938095D02*
X202652380Y-75366666D01*
X203652380Y-75652380D02*
X202652380Y-75652380D01*
X202747619Y-75080952D02*
X202700000Y-75033333D01*
X202652380Y-74938095D01*
X202652380Y-74700000D01*
X202700000Y-74604761D01*
X202747619Y-74557142D01*
X202842857Y-74509523D01*
X202938095Y-74509523D01*
X203080952Y-74557142D01*
X203652380Y-75128571D01*
X203652380Y-74509523D01*
X202985714Y-73652380D02*
X203652380Y-73652380D01*
X202604761Y-73890476D02*
X203319047Y-74128571D01*
X203319047Y-73509523D01*
X202652380Y-72652380D02*
X202652380Y-73128571D01*
X203128571Y-73176190D01*
X203080952Y-73128571D01*
X203033333Y-73033333D01*
X203033333Y-72795238D01*
X203080952Y-72700000D01*
X203128571Y-72652380D01*
X203223809Y-72604761D01*
X203461904Y-72604761D01*
X203557142Y-72652380D01*
X203604761Y-72700000D01*
X203652380Y-72795238D01*
X203652380Y-73033333D01*
X203604761Y-73128571D01*
X203557142Y-73176190D01*
%TO.C,SW1*%
X64706666Y-57554761D02*
X64849523Y-57602380D01*
X65087619Y-57602380D01*
X65182857Y-57554761D01*
X65230476Y-57507142D01*
X65278095Y-57411904D01*
X65278095Y-57316666D01*
X65230476Y-57221428D01*
X65182857Y-57173809D01*
X65087619Y-57126190D01*
X64897142Y-57078571D01*
X64801904Y-57030952D01*
X64754285Y-56983333D01*
X64706666Y-56888095D01*
X64706666Y-56792857D01*
X64754285Y-56697619D01*
X64801904Y-56650000D01*
X64897142Y-56602380D01*
X65135238Y-56602380D01*
X65278095Y-56650000D01*
X65611428Y-56602380D02*
X65849523Y-57602380D01*
X66040000Y-56888095D01*
X66230476Y-57602380D01*
X66468571Y-56602380D01*
X67373333Y-57602380D02*
X66801904Y-57602380D01*
X67087619Y-57602380D02*
X67087619Y-56602380D01*
X66992380Y-56745238D01*
X66897142Y-56840476D01*
X66801904Y-56888095D01*
%TO.C,X2*%
X107140476Y-130432380D02*
X107807142Y-131432380D01*
X107807142Y-130432380D02*
X107140476Y-131432380D01*
X108140476Y-130527619D02*
X108188095Y-130480000D01*
X108283333Y-130432380D01*
X108521428Y-130432380D01*
X108616666Y-130480000D01*
X108664285Y-130527619D01*
X108711904Y-130622857D01*
X108711904Y-130718095D01*
X108664285Y-130860952D01*
X108092857Y-131432380D01*
X108711904Y-131432380D01*
%TO.C,C5*%
X196467833Y-91212942D02*
X196420214Y-91260561D01*
X196277357Y-91308180D01*
X196182119Y-91308180D01*
X196039261Y-91260561D01*
X195944023Y-91165323D01*
X195896404Y-91070085D01*
X195848785Y-90879609D01*
X195848785Y-90736752D01*
X195896404Y-90546276D01*
X195944023Y-90451038D01*
X196039261Y-90355800D01*
X196182119Y-90308180D01*
X196277357Y-90308180D01*
X196420214Y-90355800D01*
X196467833Y-90403419D01*
X197372595Y-90308180D02*
X196896404Y-90308180D01*
X196848785Y-90784371D01*
X196896404Y-90736752D01*
X196991642Y-90689133D01*
X197229738Y-90689133D01*
X197324976Y-90736752D01*
X197372595Y-90784371D01*
X197420214Y-90879609D01*
X197420214Y-91117704D01*
X197372595Y-91212942D01*
X197324976Y-91260561D01*
X197229738Y-91308180D01*
X196991642Y-91308180D01*
X196896404Y-91260561D01*
X196848785Y-91212942D01*
%TO.C,U9*%
X204343095Y-97242380D02*
X204343095Y-98051904D01*
X204390714Y-98147142D01*
X204438333Y-98194761D01*
X204533571Y-98242380D01*
X204724047Y-98242380D01*
X204819285Y-98194761D01*
X204866904Y-98147142D01*
X204914523Y-98051904D01*
X204914523Y-97242380D01*
X205438333Y-98242380D02*
X205628809Y-98242380D01*
X205724047Y-98194761D01*
X205771666Y-98147142D01*
X205866904Y-98004285D01*
X205914523Y-97813809D01*
X205914523Y-97432857D01*
X205866904Y-97337619D01*
X205819285Y-97290000D01*
X205724047Y-97242380D01*
X205533571Y-97242380D01*
X205438333Y-97290000D01*
X205390714Y-97337619D01*
X205343095Y-97432857D01*
X205343095Y-97670952D01*
X205390714Y-97766190D01*
X205438333Y-97813809D01*
X205533571Y-97861428D01*
X205724047Y-97861428D01*
X205819285Y-97813809D01*
X205866904Y-97766190D01*
X205914523Y-97670952D01*
X202652380Y-115402857D02*
X202652380Y-114736190D01*
X203652380Y-115164761D01*
X202985714Y-113926666D02*
X203652380Y-113926666D01*
X202604761Y-114164761D02*
X203319047Y-114402857D01*
X203319047Y-113783809D01*
X203652380Y-113402857D02*
X202652380Y-113402857D01*
X203128571Y-113402857D02*
X203128571Y-112831428D01*
X203652380Y-112831428D02*
X202652380Y-112831428D01*
X203557142Y-111783809D02*
X203604761Y-111831428D01*
X203652380Y-111974285D01*
X203652380Y-112069523D01*
X203604761Y-112212380D01*
X203509523Y-112307619D01*
X203414285Y-112355238D01*
X203223809Y-112402857D01*
X203080952Y-112402857D01*
X202890476Y-112355238D01*
X202795238Y-112307619D01*
X202700000Y-112212380D01*
X202652380Y-112069523D01*
X202652380Y-111974285D01*
X202700000Y-111831428D01*
X202747619Y-111783809D01*
X202652380Y-111498095D02*
X202652380Y-110926666D01*
X203652380Y-111212380D02*
X202652380Y-111212380D01*
X202747619Y-110640952D02*
X202700000Y-110593333D01*
X202652380Y-110498095D01*
X202652380Y-110260000D01*
X202700000Y-110164761D01*
X202747619Y-110117142D01*
X202842857Y-110069523D01*
X202938095Y-110069523D01*
X203080952Y-110117142D01*
X203652380Y-110688571D01*
X203652380Y-110069523D01*
X202985714Y-109212380D02*
X203652380Y-109212380D01*
X202604761Y-109450476D02*
X203319047Y-109688571D01*
X203319047Y-109069523D01*
X202652380Y-108212380D02*
X202652380Y-108688571D01*
X203128571Y-108736190D01*
X203080952Y-108688571D01*
X203033333Y-108593333D01*
X203033333Y-108355238D01*
X203080952Y-108260000D01*
X203128571Y-108212380D01*
X203223809Y-108164761D01*
X203461904Y-108164761D01*
X203557142Y-108212380D01*
X203604761Y-108260000D01*
X203652380Y-108355238D01*
X203652380Y-108593333D01*
X203604761Y-108688571D01*
X203557142Y-108736190D01*
%TO.C,CON1*%
X63555714Y-100399642D02*
X63508095Y-100447261D01*
X63365238Y-100494880D01*
X63270000Y-100494880D01*
X63127142Y-100447261D01*
X63031904Y-100352023D01*
X62984285Y-100256785D01*
X62936666Y-100066309D01*
X62936666Y-99923452D01*
X62984285Y-99732976D01*
X63031904Y-99637738D01*
X63127142Y-99542500D01*
X63270000Y-99494880D01*
X63365238Y-99494880D01*
X63508095Y-99542500D01*
X63555714Y-99590119D01*
X64174761Y-99494880D02*
X64365238Y-99494880D01*
X64460476Y-99542500D01*
X64555714Y-99637738D01*
X64603333Y-99828214D01*
X64603333Y-100161547D01*
X64555714Y-100352023D01*
X64460476Y-100447261D01*
X64365238Y-100494880D01*
X64174761Y-100494880D01*
X64079523Y-100447261D01*
X63984285Y-100352023D01*
X63936666Y-100161547D01*
X63936666Y-99828214D01*
X63984285Y-99637738D01*
X64079523Y-99542500D01*
X64174761Y-99494880D01*
X65031904Y-100494880D02*
X65031904Y-99494880D01*
X65603333Y-100494880D01*
X65603333Y-99494880D01*
X66603333Y-100494880D02*
X66031904Y-100494880D01*
X66317619Y-100494880D02*
X66317619Y-99494880D01*
X66222380Y-99637738D01*
X66127142Y-99732976D01*
X66031904Y-99780595D01*
%TO.C,U2*%
X160528095Y-97282380D02*
X160528095Y-98091904D01*
X160575714Y-98187142D01*
X160623333Y-98234761D01*
X160718571Y-98282380D01*
X160909047Y-98282380D01*
X161004285Y-98234761D01*
X161051904Y-98187142D01*
X161099523Y-98091904D01*
X161099523Y-97282380D01*
X161528095Y-97377619D02*
X161575714Y-97330000D01*
X161670952Y-97282380D01*
X161909047Y-97282380D01*
X162004285Y-97330000D01*
X162051904Y-97377619D01*
X162099523Y-97472857D01*
X162099523Y-97568095D01*
X162051904Y-97710952D01*
X161480476Y-98282380D01*
X162099523Y-98282380D01*
X159551904Y-136207142D02*
X159504285Y-136254761D01*
X159361428Y-136302380D01*
X159266190Y-136302380D01*
X159123333Y-136254761D01*
X159028095Y-136159523D01*
X158980476Y-136064285D01*
X158932857Y-135873809D01*
X158932857Y-135730952D01*
X158980476Y-135540476D01*
X159028095Y-135445238D01*
X159123333Y-135350000D01*
X159266190Y-135302380D01*
X159361428Y-135302380D01*
X159504285Y-135350000D01*
X159551904Y-135397619D01*
X159980476Y-136302380D02*
X159980476Y-135302380D01*
X159980476Y-135778571D02*
X160551904Y-135778571D01*
X160551904Y-136302380D02*
X160551904Y-135302380D01*
X161028095Y-135302380D02*
X161028095Y-136111904D01*
X161075714Y-136207142D01*
X161123333Y-136254761D01*
X161218571Y-136302380D01*
X161409047Y-136302380D01*
X161504285Y-136254761D01*
X161551904Y-136207142D01*
X161599523Y-136111904D01*
X161599523Y-135302380D01*
X162647142Y-136207142D02*
X162599523Y-136254761D01*
X162456666Y-136302380D01*
X162361428Y-136302380D01*
X162218571Y-136254761D01*
X162123333Y-136159523D01*
X162075714Y-136064285D01*
X162028095Y-135873809D01*
X162028095Y-135730952D01*
X162075714Y-135540476D01*
X162123333Y-135445238D01*
X162218571Y-135350000D01*
X162361428Y-135302380D01*
X162456666Y-135302380D01*
X162599523Y-135350000D01*
X162647142Y-135397619D01*
X163075714Y-136302380D02*
X163075714Y-135302380D01*
X163647142Y-136302380D02*
X163218571Y-135730952D01*
X163647142Y-135302380D02*
X163075714Y-135873809D01*
%TO.C,X1*%
X130000476Y-130432380D02*
X130667142Y-131432380D01*
X130667142Y-130432380D02*
X130000476Y-131432380D01*
X131571904Y-131432380D02*
X131000476Y-131432380D01*
X131286190Y-131432380D02*
X131286190Y-130432380D01*
X131190952Y-130575238D01*
X131095714Y-130670476D01*
X131000476Y-130718095D01*
%TO.C,C15*%
X183182142Y-60040357D02*
X183229761Y-60087976D01*
X183277380Y-60230833D01*
X183277380Y-60326071D01*
X183229761Y-60468928D01*
X183134523Y-60564166D01*
X183039285Y-60611785D01*
X182848809Y-60659404D01*
X182705952Y-60659404D01*
X182515476Y-60611785D01*
X182420238Y-60564166D01*
X182325000Y-60468928D01*
X182277380Y-60326071D01*
X182277380Y-60230833D01*
X182325000Y-60087976D01*
X182372619Y-60040357D01*
X183277380Y-59087976D02*
X183277380Y-59659404D01*
X183277380Y-59373690D02*
X182277380Y-59373690D01*
X182420238Y-59468928D01*
X182515476Y-59564166D01*
X182563095Y-59659404D01*
X182277380Y-58183214D02*
X182277380Y-58659404D01*
X182753571Y-58707023D01*
X182705952Y-58659404D01*
X182658333Y-58564166D01*
X182658333Y-58326071D01*
X182705952Y-58230833D01*
X182753571Y-58183214D01*
X182848809Y-58135595D01*
X183086904Y-58135595D01*
X183182142Y-58183214D01*
X183229761Y-58230833D01*
X183277380Y-58326071D01*
X183277380Y-58564166D01*
X183229761Y-58659404D01*
X183182142Y-58707023D01*
%TO.C,C2*%
X92563333Y-64492142D02*
X92515714Y-64539761D01*
X92372857Y-64587380D01*
X92277619Y-64587380D01*
X92134761Y-64539761D01*
X92039523Y-64444523D01*
X91991904Y-64349285D01*
X91944285Y-64158809D01*
X91944285Y-64015952D01*
X91991904Y-63825476D01*
X92039523Y-63730238D01*
X92134761Y-63635000D01*
X92277619Y-63587380D01*
X92372857Y-63587380D01*
X92515714Y-63635000D01*
X92563333Y-63682619D01*
X92944285Y-63682619D02*
X92991904Y-63635000D01*
X93087142Y-63587380D01*
X93325238Y-63587380D01*
X93420476Y-63635000D01*
X93468095Y-63682619D01*
X93515714Y-63777857D01*
X93515714Y-63873095D01*
X93468095Y-64015952D01*
X92896666Y-64587380D01*
X93515714Y-64587380D01*
%TO.C,C12*%
X104442142Y-88272857D02*
X104489761Y-88320476D01*
X104537380Y-88463333D01*
X104537380Y-88558571D01*
X104489761Y-88701428D01*
X104394523Y-88796666D01*
X104299285Y-88844285D01*
X104108809Y-88891904D01*
X103965952Y-88891904D01*
X103775476Y-88844285D01*
X103680238Y-88796666D01*
X103585000Y-88701428D01*
X103537380Y-88558571D01*
X103537380Y-88463333D01*
X103585000Y-88320476D01*
X103632619Y-88272857D01*
X104537380Y-87320476D02*
X104537380Y-87891904D01*
X104537380Y-87606190D02*
X103537380Y-87606190D01*
X103680238Y-87701428D01*
X103775476Y-87796666D01*
X103823095Y-87891904D01*
X103632619Y-86939523D02*
X103585000Y-86891904D01*
X103537380Y-86796666D01*
X103537380Y-86558571D01*
X103585000Y-86463333D01*
X103632619Y-86415714D01*
X103727857Y-86368095D01*
X103823095Y-86368095D01*
X103965952Y-86415714D01*
X104537380Y-86987142D01*
X104537380Y-86368095D01*
%TO.C,U3*%
X168148095Y-55527380D02*
X168148095Y-56336904D01*
X168195714Y-56432142D01*
X168243333Y-56479761D01*
X168338571Y-56527380D01*
X168529047Y-56527380D01*
X168624285Y-56479761D01*
X168671904Y-56432142D01*
X168719523Y-56336904D01*
X168719523Y-55527380D01*
X169100476Y-55527380D02*
X169719523Y-55527380D01*
X169386190Y-55908333D01*
X169529047Y-55908333D01*
X169624285Y-55955952D01*
X169671904Y-56003571D01*
X169719523Y-56098809D01*
X169719523Y-56336904D01*
X169671904Y-56432142D01*
X169624285Y-56479761D01*
X169529047Y-56527380D01*
X169243333Y-56527380D01*
X169148095Y-56479761D01*
X169100476Y-56432142D01*
X167484523Y-93302619D02*
X167532142Y-93255000D01*
X167627380Y-93207380D01*
X167865476Y-93207380D01*
X167960714Y-93255000D01*
X168008333Y-93302619D01*
X168055952Y-93397857D01*
X168055952Y-93493095D01*
X168008333Y-93635952D01*
X167436904Y-94207380D01*
X168055952Y-94207380D01*
X168627380Y-93635952D02*
X168532142Y-93588333D01*
X168484523Y-93540714D01*
X168436904Y-93445476D01*
X168436904Y-93397857D01*
X168484523Y-93302619D01*
X168532142Y-93255000D01*
X168627380Y-93207380D01*
X168817857Y-93207380D01*
X168913095Y-93255000D01*
X168960714Y-93302619D01*
X169008333Y-93397857D01*
X169008333Y-93445476D01*
X168960714Y-93540714D01*
X168913095Y-93588333D01*
X168817857Y-93635952D01*
X168627380Y-93635952D01*
X168532142Y-93683571D01*
X168484523Y-93731190D01*
X168436904Y-93826428D01*
X168436904Y-94016904D01*
X168484523Y-94112142D01*
X168532142Y-94159761D01*
X168627380Y-94207380D01*
X168817857Y-94207380D01*
X168913095Y-94159761D01*
X168960714Y-94112142D01*
X169008333Y-94016904D01*
X169008333Y-93826428D01*
X168960714Y-93731190D01*
X168913095Y-93683571D01*
X168817857Y-93635952D01*
X170008333Y-94112142D02*
X169960714Y-94159761D01*
X169817857Y-94207380D01*
X169722619Y-94207380D01*
X169579761Y-94159761D01*
X169484523Y-94064523D01*
X169436904Y-93969285D01*
X169389285Y-93778809D01*
X169389285Y-93635952D01*
X169436904Y-93445476D01*
X169484523Y-93350238D01*
X169579761Y-93255000D01*
X169722619Y-93207380D01*
X169817857Y-93207380D01*
X169960714Y-93255000D01*
X170008333Y-93302619D01*
X170389285Y-93302619D02*
X170436904Y-93255000D01*
X170532142Y-93207380D01*
X170770238Y-93207380D01*
X170865476Y-93255000D01*
X170913095Y-93302619D01*
X170960714Y-93397857D01*
X170960714Y-93493095D01*
X170913095Y-93635952D01*
X170341666Y-94207380D01*
X170960714Y-94207380D01*
X171865476Y-93207380D02*
X171389285Y-93207380D01*
X171341666Y-93683571D01*
X171389285Y-93635952D01*
X171484523Y-93588333D01*
X171722619Y-93588333D01*
X171817857Y-93635952D01*
X171865476Y-93683571D01*
X171913095Y-93778809D01*
X171913095Y-94016904D01*
X171865476Y-94112142D01*
X171817857Y-94159761D01*
X171722619Y-94207380D01*
X171484523Y-94207380D01*
X171389285Y-94159761D01*
X171341666Y-94112142D01*
X172770238Y-93207380D02*
X172579761Y-93207380D01*
X172484523Y-93255000D01*
X172436904Y-93302619D01*
X172341666Y-93445476D01*
X172294047Y-93635952D01*
X172294047Y-94016904D01*
X172341666Y-94112142D01*
X172389285Y-94159761D01*
X172484523Y-94207380D01*
X172675000Y-94207380D01*
X172770238Y-94159761D01*
X172817857Y-94112142D01*
X172865476Y-94016904D01*
X172865476Y-93778809D01*
X172817857Y-93683571D01*
X172770238Y-93635952D01*
X172675000Y-93588333D01*
X172484523Y-93588333D01*
X172389285Y-93635952D01*
X172341666Y-93683571D01*
X172294047Y-93778809D01*
%TO.C,U4*%
X149118095Y-50462380D02*
X149118095Y-51271904D01*
X149165714Y-51367142D01*
X149213333Y-51414761D01*
X149308571Y-51462380D01*
X149499047Y-51462380D01*
X149594285Y-51414761D01*
X149641904Y-51367142D01*
X149689523Y-51271904D01*
X149689523Y-50462380D01*
X150594285Y-50795714D02*
X150594285Y-51462380D01*
X150356190Y-50414761D02*
X150118095Y-51129047D01*
X150737142Y-51129047D01*
X146284761Y-93936666D02*
X146760952Y-93936666D01*
X146189523Y-94222380D02*
X146522857Y-93222380D01*
X146856190Y-94222380D01*
X147141904Y-94174761D02*
X147284761Y-94222380D01*
X147522857Y-94222380D01*
X147618095Y-94174761D01*
X147665714Y-94127142D01*
X147713333Y-94031904D01*
X147713333Y-93936666D01*
X147665714Y-93841428D01*
X147618095Y-93793809D01*
X147522857Y-93746190D01*
X147332380Y-93698571D01*
X147237142Y-93650952D01*
X147189523Y-93603333D01*
X147141904Y-93508095D01*
X147141904Y-93412857D01*
X147189523Y-93317619D01*
X147237142Y-93270000D01*
X147332380Y-93222380D01*
X147570476Y-93222380D01*
X147713333Y-93270000D01*
X148570476Y-93222380D02*
X148380000Y-93222380D01*
X148284761Y-93270000D01*
X148237142Y-93317619D01*
X148141904Y-93460476D01*
X148094285Y-93650952D01*
X148094285Y-94031904D01*
X148141904Y-94127142D01*
X148189523Y-94174761D01*
X148284761Y-94222380D01*
X148475238Y-94222380D01*
X148570476Y-94174761D01*
X148618095Y-94127142D01*
X148665714Y-94031904D01*
X148665714Y-93793809D01*
X148618095Y-93698571D01*
X148570476Y-93650952D01*
X148475238Y-93603333D01*
X148284761Y-93603333D01*
X148189523Y-93650952D01*
X148141904Y-93698571D01*
X148094285Y-93793809D01*
X149665714Y-94127142D02*
X149618095Y-94174761D01*
X149475238Y-94222380D01*
X149380000Y-94222380D01*
X149237142Y-94174761D01*
X149141904Y-94079523D01*
X149094285Y-93984285D01*
X149046666Y-93793809D01*
X149046666Y-93650952D01*
X149094285Y-93460476D01*
X149141904Y-93365238D01*
X149237142Y-93270000D01*
X149380000Y-93222380D01*
X149475238Y-93222380D01*
X149618095Y-93270000D01*
X149665714Y-93317619D01*
X150522857Y-93555714D02*
X150522857Y-94222380D01*
X150284761Y-93174761D02*
X150046666Y-93889047D01*
X150665714Y-93889047D01*
X151237142Y-93222380D02*
X151332380Y-93222380D01*
X151427619Y-93270000D01*
X151475238Y-93317619D01*
X151522857Y-93412857D01*
X151570476Y-93603333D01*
X151570476Y-93841428D01*
X151522857Y-94031904D01*
X151475238Y-94127142D01*
X151427619Y-94174761D01*
X151332380Y-94222380D01*
X151237142Y-94222380D01*
X151141904Y-94174761D01*
X151094285Y-94127142D01*
X151046666Y-94031904D01*
X150999047Y-93841428D01*
X150999047Y-93603333D01*
X151046666Y-93412857D01*
X151094285Y-93317619D01*
X151141904Y-93270000D01*
X151237142Y-93222380D01*
X152189523Y-93222380D02*
X152284761Y-93222380D01*
X152380000Y-93270000D01*
X152427619Y-93317619D01*
X152475238Y-93412857D01*
X152522857Y-93603333D01*
X152522857Y-93841428D01*
X152475238Y-94031904D01*
X152427619Y-94127142D01*
X152380000Y-94174761D01*
X152284761Y-94222380D01*
X152189523Y-94222380D01*
X152094285Y-94174761D01*
X152046666Y-94127142D01*
X151999047Y-94031904D01*
X151951428Y-93841428D01*
X151951428Y-93603333D01*
X151999047Y-93412857D01*
X152046666Y-93317619D01*
X152094285Y-93270000D01*
X152189523Y-93222380D01*
X153094285Y-93650952D02*
X152999047Y-93603333D01*
X152951428Y-93555714D01*
X152903809Y-93460476D01*
X152903809Y-93412857D01*
X152951428Y-93317619D01*
X152999047Y-93270000D01*
X153094285Y-93222380D01*
X153284761Y-93222380D01*
X153380000Y-93270000D01*
X153427619Y-93317619D01*
X153475238Y-93412857D01*
X153475238Y-93460476D01*
X153427619Y-93555714D01*
X153380000Y-93603333D01*
X153284761Y-93650952D01*
X153094285Y-93650952D01*
X152999047Y-93698571D01*
X152951428Y-93746190D01*
X152903809Y-93841428D01*
X152903809Y-94031904D01*
X152951428Y-94127142D01*
X152999047Y-94174761D01*
X153094285Y-94222380D01*
X153284761Y-94222380D01*
X153380000Y-94174761D01*
X153427619Y-94127142D01*
X153475238Y-94031904D01*
X153475238Y-93841428D01*
X153427619Y-93746190D01*
X153380000Y-93698571D01*
X153284761Y-93650952D01*
%TO.C,C18*%
X213617142Y-134125157D02*
X213664761Y-134172776D01*
X213712380Y-134315633D01*
X213712380Y-134410871D01*
X213664761Y-134553728D01*
X213569523Y-134648966D01*
X213474285Y-134696585D01*
X213283809Y-134744204D01*
X213140952Y-134744204D01*
X212950476Y-134696585D01*
X212855238Y-134648966D01*
X212760000Y-134553728D01*
X212712380Y-134410871D01*
X212712380Y-134315633D01*
X212760000Y-134172776D01*
X212807619Y-134125157D01*
X213712380Y-133172776D02*
X213712380Y-133744204D01*
X213712380Y-133458490D02*
X212712380Y-133458490D01*
X212855238Y-133553728D01*
X212950476Y-133648966D01*
X212998095Y-133744204D01*
X213140952Y-132601347D02*
X213093333Y-132696585D01*
X213045714Y-132744204D01*
X212950476Y-132791823D01*
X212902857Y-132791823D01*
X212807619Y-132744204D01*
X212760000Y-132696585D01*
X212712380Y-132601347D01*
X212712380Y-132410871D01*
X212760000Y-132315633D01*
X212807619Y-132268014D01*
X212902857Y-132220395D01*
X212950476Y-132220395D01*
X213045714Y-132268014D01*
X213093333Y-132315633D01*
X213140952Y-132410871D01*
X213140952Y-132601347D01*
X213188571Y-132696585D01*
X213236190Y-132744204D01*
X213331428Y-132791823D01*
X213521904Y-132791823D01*
X213617142Y-132744204D01*
X213664761Y-132696585D01*
X213712380Y-132601347D01*
X213712380Y-132410871D01*
X213664761Y-132315633D01*
X213617142Y-132268014D01*
X213521904Y-132220395D01*
X213331428Y-132220395D01*
X213236190Y-132268014D01*
X213188571Y-132315633D01*
X213140952Y-132410871D01*
%TO.C,R6*%
X103957380Y-72556666D02*
X103481190Y-72890000D01*
X103957380Y-73128095D02*
X102957380Y-73128095D01*
X102957380Y-72747142D01*
X103005000Y-72651904D01*
X103052619Y-72604285D01*
X103147857Y-72556666D01*
X103290714Y-72556666D01*
X103385952Y-72604285D01*
X103433571Y-72651904D01*
X103481190Y-72747142D01*
X103481190Y-73128095D01*
X102957380Y-71699523D02*
X102957380Y-71890000D01*
X103005000Y-71985238D01*
X103052619Y-72032857D01*
X103195476Y-72128095D01*
X103385952Y-72175714D01*
X103766904Y-72175714D01*
X103862142Y-72128095D01*
X103909761Y-72080476D01*
X103957380Y-71985238D01*
X103957380Y-71794761D01*
X103909761Y-71699523D01*
X103862142Y-71651904D01*
X103766904Y-71604285D01*
X103528809Y-71604285D01*
X103433571Y-71651904D01*
X103385952Y-71699523D01*
X103338333Y-71794761D01*
X103338333Y-71985238D01*
X103385952Y-72080476D01*
X103433571Y-72128095D01*
X103528809Y-72175714D01*
%TO.C,C21*%
X77192142Y-119752857D02*
X77239761Y-119800476D01*
X77287380Y-119943333D01*
X77287380Y-120038571D01*
X77239761Y-120181428D01*
X77144523Y-120276666D01*
X77049285Y-120324285D01*
X76858809Y-120371904D01*
X76715952Y-120371904D01*
X76525476Y-120324285D01*
X76430238Y-120276666D01*
X76335000Y-120181428D01*
X76287380Y-120038571D01*
X76287380Y-119943333D01*
X76335000Y-119800476D01*
X76382619Y-119752857D01*
X76382619Y-119371904D02*
X76335000Y-119324285D01*
X76287380Y-119229047D01*
X76287380Y-118990952D01*
X76335000Y-118895714D01*
X76382619Y-118848095D01*
X76477857Y-118800476D01*
X76573095Y-118800476D01*
X76715952Y-118848095D01*
X77287380Y-119419523D01*
X77287380Y-118800476D01*
X77287380Y-117848095D02*
X77287380Y-118419523D01*
X77287380Y-118133809D02*
X76287380Y-118133809D01*
X76430238Y-118229047D01*
X76525476Y-118324285D01*
X76573095Y-118419523D01*
%TO.C,U5*%
X90678095Y-103592380D02*
X90678095Y-104401904D01*
X90725714Y-104497142D01*
X90773333Y-104544761D01*
X90868571Y-104592380D01*
X91059047Y-104592380D01*
X91154285Y-104544761D01*
X91201904Y-104497142D01*
X91249523Y-104401904D01*
X91249523Y-103592380D01*
X92201904Y-103592380D02*
X91725714Y-103592380D01*
X91678095Y-104068571D01*
X91725714Y-104020952D01*
X91820952Y-103973333D01*
X92059047Y-103973333D01*
X92154285Y-104020952D01*
X92201904Y-104068571D01*
X92249523Y-104163809D01*
X92249523Y-104401904D01*
X92201904Y-104497142D01*
X92154285Y-104544761D01*
X92059047Y-104592380D01*
X91820952Y-104592380D01*
X91725714Y-104544761D01*
X91678095Y-104497142D01*
X94702380Y-96622857D02*
X94702380Y-95956190D01*
X95702380Y-96384761D01*
X95035714Y-95146666D02*
X95702380Y-95146666D01*
X94654761Y-95384761D02*
X95369047Y-95622857D01*
X95369047Y-95003809D01*
X95702380Y-94146666D02*
X95702380Y-94622857D01*
X94702380Y-94622857D01*
X95654761Y-93860952D02*
X95702380Y-93718095D01*
X95702380Y-93480000D01*
X95654761Y-93384761D01*
X95607142Y-93337142D01*
X95511904Y-93289523D01*
X95416666Y-93289523D01*
X95321428Y-93337142D01*
X95273809Y-93384761D01*
X95226190Y-93480000D01*
X95178571Y-93670476D01*
X95130952Y-93765714D01*
X95083333Y-93813333D01*
X94988095Y-93860952D01*
X94892857Y-93860952D01*
X94797619Y-93813333D01*
X94750000Y-93765714D01*
X94702380Y-93670476D01*
X94702380Y-93432380D01*
X94750000Y-93289523D01*
X94702380Y-92670476D02*
X94702380Y-92575238D01*
X94750000Y-92480000D01*
X94797619Y-92432380D01*
X94892857Y-92384761D01*
X95083333Y-92337142D01*
X95321428Y-92337142D01*
X95511904Y-92384761D01*
X95607142Y-92432380D01*
X95654761Y-92480000D01*
X95702380Y-92575238D01*
X95702380Y-92670476D01*
X95654761Y-92765714D01*
X95607142Y-92813333D01*
X95511904Y-92860952D01*
X95321428Y-92908571D01*
X95083333Y-92908571D01*
X94892857Y-92860952D01*
X94797619Y-92813333D01*
X94750000Y-92765714D01*
X94702380Y-92670476D01*
X94702380Y-91480000D02*
X94702380Y-91670476D01*
X94750000Y-91765714D01*
X94797619Y-91813333D01*
X94940476Y-91908571D01*
X95130952Y-91956190D01*
X95511904Y-91956190D01*
X95607142Y-91908571D01*
X95654761Y-91860952D01*
X95702380Y-91765714D01*
X95702380Y-91575238D01*
X95654761Y-91480000D01*
X95607142Y-91432380D01*
X95511904Y-91384761D01*
X95273809Y-91384761D01*
X95178571Y-91432380D01*
X95130952Y-91480000D01*
X95083333Y-91575238D01*
X95083333Y-91765714D01*
X95130952Y-91860952D01*
X95178571Y-91908571D01*
X95273809Y-91956190D01*
%TO.C,J1*%
X77572380Y-80343333D02*
X78286666Y-80343333D01*
X78429523Y-80390952D01*
X78524761Y-80486190D01*
X78572380Y-80629047D01*
X78572380Y-80724285D01*
X78572380Y-79343333D02*
X78572380Y-79914761D01*
X78572380Y-79629047D02*
X77572380Y-79629047D01*
X77715238Y-79724285D01*
X77810476Y-79819523D01*
X77858095Y-79914761D01*
%TO.C,C20*%
X77192142Y-113402857D02*
X77239761Y-113450476D01*
X77287380Y-113593333D01*
X77287380Y-113688571D01*
X77239761Y-113831428D01*
X77144523Y-113926666D01*
X77049285Y-113974285D01*
X76858809Y-114021904D01*
X76715952Y-114021904D01*
X76525476Y-113974285D01*
X76430238Y-113926666D01*
X76335000Y-113831428D01*
X76287380Y-113688571D01*
X76287380Y-113593333D01*
X76335000Y-113450476D01*
X76382619Y-113402857D01*
X76382619Y-113021904D02*
X76335000Y-112974285D01*
X76287380Y-112879047D01*
X76287380Y-112640952D01*
X76335000Y-112545714D01*
X76382619Y-112498095D01*
X76477857Y-112450476D01*
X76573095Y-112450476D01*
X76715952Y-112498095D01*
X77287380Y-113069523D01*
X77287380Y-112450476D01*
X76287380Y-111831428D02*
X76287380Y-111736190D01*
X76335000Y-111640952D01*
X76382619Y-111593333D01*
X76477857Y-111545714D01*
X76668333Y-111498095D01*
X76906428Y-111498095D01*
X77096904Y-111545714D01*
X77192142Y-111593333D01*
X77239761Y-111640952D01*
X77287380Y-111736190D01*
X77287380Y-111831428D01*
X77239761Y-111926666D01*
X77192142Y-111974285D01*
X77096904Y-112021904D01*
X76906428Y-112069523D01*
X76668333Y-112069523D01*
X76477857Y-112021904D01*
X76382619Y-111974285D01*
X76335000Y-111926666D01*
X76287380Y-111831428D01*
%TO.C,C8*%
X196683333Y-126722142D02*
X196635714Y-126769761D01*
X196492857Y-126817380D01*
X196397619Y-126817380D01*
X196254761Y-126769761D01*
X196159523Y-126674523D01*
X196111904Y-126579285D01*
X196064285Y-126388809D01*
X196064285Y-126245952D01*
X196111904Y-126055476D01*
X196159523Y-125960238D01*
X196254761Y-125865000D01*
X196397619Y-125817380D01*
X196492857Y-125817380D01*
X196635714Y-125865000D01*
X196683333Y-125912619D01*
X197254761Y-126245952D02*
X197159523Y-126198333D01*
X197111904Y-126150714D01*
X197064285Y-126055476D01*
X197064285Y-126007857D01*
X197111904Y-125912619D01*
X197159523Y-125865000D01*
X197254761Y-125817380D01*
X197445238Y-125817380D01*
X197540476Y-125865000D01*
X197588095Y-125912619D01*
X197635714Y-126007857D01*
X197635714Y-126055476D01*
X197588095Y-126150714D01*
X197540476Y-126198333D01*
X197445238Y-126245952D01*
X197254761Y-126245952D01*
X197159523Y-126293571D01*
X197111904Y-126341190D01*
X197064285Y-126436428D01*
X197064285Y-126626904D01*
X197111904Y-126722142D01*
X197159523Y-126769761D01*
X197254761Y-126817380D01*
X197445238Y-126817380D01*
X197540476Y-126769761D01*
X197588095Y-126722142D01*
X197635714Y-126626904D01*
X197635714Y-126436428D01*
X197588095Y-126341190D01*
X197540476Y-126293571D01*
X197445238Y-126245952D01*
%TO.C,C17*%
X91432142Y-107037142D02*
X91384523Y-107084761D01*
X91241666Y-107132380D01*
X91146428Y-107132380D01*
X91003571Y-107084761D01*
X90908333Y-106989523D01*
X90860714Y-106894285D01*
X90813095Y-106703809D01*
X90813095Y-106560952D01*
X90860714Y-106370476D01*
X90908333Y-106275238D01*
X91003571Y-106180000D01*
X91146428Y-106132380D01*
X91241666Y-106132380D01*
X91384523Y-106180000D01*
X91432142Y-106227619D01*
X92384523Y-107132380D02*
X91813095Y-107132380D01*
X92098809Y-107132380D02*
X92098809Y-106132380D01*
X92003571Y-106275238D01*
X91908333Y-106370476D01*
X91813095Y-106418095D01*
X92717857Y-106132380D02*
X93384523Y-106132380D01*
X92955952Y-107132380D01*
%TO.C,C3*%
X97643333Y-83887142D02*
X97595714Y-83934761D01*
X97452857Y-83982380D01*
X97357619Y-83982380D01*
X97214761Y-83934761D01*
X97119523Y-83839523D01*
X97071904Y-83744285D01*
X97024285Y-83553809D01*
X97024285Y-83410952D01*
X97071904Y-83220476D01*
X97119523Y-83125238D01*
X97214761Y-83030000D01*
X97357619Y-82982380D01*
X97452857Y-82982380D01*
X97595714Y-83030000D01*
X97643333Y-83077619D01*
X97976666Y-82982380D02*
X98595714Y-82982380D01*
X98262380Y-83363333D01*
X98405238Y-83363333D01*
X98500476Y-83410952D01*
X98548095Y-83458571D01*
X98595714Y-83553809D01*
X98595714Y-83791904D01*
X98548095Y-83887142D01*
X98500476Y-83934761D01*
X98405238Y-83982380D01*
X98119523Y-83982380D01*
X98024285Y-83934761D01*
X97976666Y-83887142D01*
%TO.C,RN1*%
X112339523Y-56332380D02*
X112006190Y-55856190D01*
X111768095Y-56332380D02*
X111768095Y-55332380D01*
X112149047Y-55332380D01*
X112244285Y-55380000D01*
X112291904Y-55427619D01*
X112339523Y-55522857D01*
X112339523Y-55665714D01*
X112291904Y-55760952D01*
X112244285Y-55808571D01*
X112149047Y-55856190D01*
X111768095Y-55856190D01*
X112768095Y-56332380D02*
X112768095Y-55332380D01*
X113339523Y-56332380D01*
X113339523Y-55332380D01*
X114339523Y-56332380D02*
X113768095Y-56332380D01*
X114053809Y-56332380D02*
X114053809Y-55332380D01*
X113958571Y-55475238D01*
X113863333Y-55570476D01*
X113768095Y-55618095D01*
%TO.C,R3*%
X79843333Y-129342380D02*
X79510000Y-128866190D01*
X79271904Y-129342380D02*
X79271904Y-128342380D01*
X79652857Y-128342380D01*
X79748095Y-128390000D01*
X79795714Y-128437619D01*
X79843333Y-128532857D01*
X79843333Y-128675714D01*
X79795714Y-128770952D01*
X79748095Y-128818571D01*
X79652857Y-128866190D01*
X79271904Y-128866190D01*
X80176666Y-128342380D02*
X80795714Y-128342380D01*
X80462380Y-128723333D01*
X80605238Y-128723333D01*
X80700476Y-128770952D01*
X80748095Y-128818571D01*
X80795714Y-128913809D01*
X80795714Y-129151904D01*
X80748095Y-129247142D01*
X80700476Y-129294761D01*
X80605238Y-129342380D01*
X80319523Y-129342380D01*
X80224285Y-129294761D01*
X80176666Y-129247142D01*
%TO.C,U13*%
X84486904Y-130262380D02*
X84486904Y-131071904D01*
X84534523Y-131167142D01*
X84582142Y-131214761D01*
X84677380Y-131262380D01*
X84867857Y-131262380D01*
X84963095Y-131214761D01*
X85010714Y-131167142D01*
X85058333Y-131071904D01*
X85058333Y-130262380D01*
X86058333Y-131262380D02*
X85486904Y-131262380D01*
X85772619Y-131262380D02*
X85772619Y-130262380D01*
X85677380Y-130405238D01*
X85582142Y-130500476D01*
X85486904Y-130548095D01*
X86391666Y-130262380D02*
X87010714Y-130262380D01*
X86677380Y-130643333D01*
X86820238Y-130643333D01*
X86915476Y-130690952D01*
X86963095Y-130738571D01*
X87010714Y-130833809D01*
X87010714Y-131071904D01*
X86963095Y-131167142D01*
X86915476Y-131214761D01*
X86820238Y-131262380D01*
X86534523Y-131262380D01*
X86439285Y-131214761D01*
X86391666Y-131167142D01*
X89337380Y-122046666D02*
X88337380Y-122046666D01*
X89051666Y-121713333D01*
X88337380Y-121380000D01*
X89337380Y-121380000D01*
X89051666Y-120951428D02*
X89051666Y-120475238D01*
X89337380Y-121046666D02*
X88337380Y-120713333D01*
X89337380Y-120380000D01*
X88337380Y-120141904D02*
X89337380Y-119475238D01*
X88337380Y-119475238D02*
X89337380Y-120141904D01*
X88432619Y-119141904D02*
X88385000Y-119094285D01*
X88337380Y-118999047D01*
X88337380Y-118760952D01*
X88385000Y-118665714D01*
X88432619Y-118618095D01*
X88527857Y-118570476D01*
X88623095Y-118570476D01*
X88765952Y-118618095D01*
X89337380Y-119189523D01*
X89337380Y-118570476D01*
X88337380Y-118237142D02*
X88337380Y-117618095D01*
X88718333Y-117951428D01*
X88718333Y-117808571D01*
X88765952Y-117713333D01*
X88813571Y-117665714D01*
X88908809Y-117618095D01*
X89146904Y-117618095D01*
X89242142Y-117665714D01*
X89289761Y-117713333D01*
X89337380Y-117808571D01*
X89337380Y-118094285D01*
X89289761Y-118189523D01*
X89242142Y-118237142D01*
X88432619Y-117237142D02*
X88385000Y-117189523D01*
X88337380Y-117094285D01*
X88337380Y-116856190D01*
X88385000Y-116760952D01*
X88432619Y-116713333D01*
X88527857Y-116665714D01*
X88623095Y-116665714D01*
X88765952Y-116713333D01*
X89337380Y-117284761D01*
X89337380Y-116665714D01*
%TO.C,J3*%
X73326666Y-135342380D02*
X73326666Y-136056666D01*
X73279047Y-136199523D01*
X73183809Y-136294761D01*
X73040952Y-136342380D01*
X72945714Y-136342380D01*
X73707619Y-135342380D02*
X74326666Y-135342380D01*
X73993333Y-135723333D01*
X74136190Y-135723333D01*
X74231428Y-135770952D01*
X74279047Y-135818571D01*
X74326666Y-135913809D01*
X74326666Y-136151904D01*
X74279047Y-136247142D01*
X74231428Y-136294761D01*
X74136190Y-136342380D01*
X73850476Y-136342380D01*
X73755238Y-136294761D01*
X73707619Y-136247142D01*
%TO.C,C23*%
X77192142Y-126102857D02*
X77239761Y-126150476D01*
X77287380Y-126293333D01*
X77287380Y-126388571D01*
X77239761Y-126531428D01*
X77144523Y-126626666D01*
X77049285Y-126674285D01*
X76858809Y-126721904D01*
X76715952Y-126721904D01*
X76525476Y-126674285D01*
X76430238Y-126626666D01*
X76335000Y-126531428D01*
X76287380Y-126388571D01*
X76287380Y-126293333D01*
X76335000Y-126150476D01*
X76382619Y-126102857D01*
X76382619Y-125721904D02*
X76335000Y-125674285D01*
X76287380Y-125579047D01*
X76287380Y-125340952D01*
X76335000Y-125245714D01*
X76382619Y-125198095D01*
X76477857Y-125150476D01*
X76573095Y-125150476D01*
X76715952Y-125198095D01*
X77287380Y-125769523D01*
X77287380Y-125150476D01*
X76287380Y-124817142D02*
X76287380Y-124198095D01*
X76668333Y-124531428D01*
X76668333Y-124388571D01*
X76715952Y-124293333D01*
X76763571Y-124245714D01*
X76858809Y-124198095D01*
X77096904Y-124198095D01*
X77192142Y-124245714D01*
X77239761Y-124293333D01*
X77287380Y-124388571D01*
X77287380Y-124674285D01*
X77239761Y-124769523D01*
X77192142Y-124817142D01*
%TO.C,U1*%
X122428095Y-60362380D02*
X122428095Y-61171904D01*
X122475714Y-61267142D01*
X122523333Y-61314761D01*
X122618571Y-61362380D01*
X122809047Y-61362380D01*
X122904285Y-61314761D01*
X122951904Y-61267142D01*
X122999523Y-61171904D01*
X122999523Y-60362380D01*
X123999523Y-61362380D02*
X123428095Y-61362380D01*
X123713809Y-61362380D02*
X123713809Y-60362380D01*
X123618571Y-60505238D01*
X123523333Y-60600476D01*
X123428095Y-60648095D01*
X120356666Y-85862380D02*
X120594761Y-86862380D01*
X120785238Y-86148095D01*
X120975714Y-86862380D01*
X121213809Y-85862380D01*
X122023333Y-85862380D02*
X121832857Y-85862380D01*
X121737619Y-85910000D01*
X121690000Y-85957619D01*
X121594761Y-86100476D01*
X121547142Y-86290952D01*
X121547142Y-86671904D01*
X121594761Y-86767142D01*
X121642380Y-86814761D01*
X121737619Y-86862380D01*
X121928095Y-86862380D01*
X122023333Y-86814761D01*
X122070952Y-86767142D01*
X122118571Y-86671904D01*
X122118571Y-86433809D01*
X122070952Y-86338571D01*
X122023333Y-86290952D01*
X121928095Y-86243333D01*
X121737619Y-86243333D01*
X121642380Y-86290952D01*
X121594761Y-86338571D01*
X121547142Y-86433809D01*
X123023333Y-85862380D02*
X122547142Y-85862380D01*
X122499523Y-86338571D01*
X122547142Y-86290952D01*
X122642380Y-86243333D01*
X122880476Y-86243333D01*
X122975714Y-86290952D01*
X123023333Y-86338571D01*
X123070952Y-86433809D01*
X123070952Y-86671904D01*
X123023333Y-86767142D01*
X122975714Y-86814761D01*
X122880476Y-86862380D01*
X122642380Y-86862380D01*
X122547142Y-86814761D01*
X122499523Y-86767142D01*
X124070952Y-86767142D02*
X124023333Y-86814761D01*
X123880476Y-86862380D01*
X123785238Y-86862380D01*
X123642380Y-86814761D01*
X123547142Y-86719523D01*
X123499523Y-86624285D01*
X123451904Y-86433809D01*
X123451904Y-86290952D01*
X123499523Y-86100476D01*
X123547142Y-86005238D01*
X123642380Y-85910000D01*
X123785238Y-85862380D01*
X123880476Y-85862380D01*
X124023333Y-85910000D01*
X124070952Y-85957619D01*
X124690000Y-85862380D02*
X124785238Y-85862380D01*
X124880476Y-85910000D01*
X124928095Y-85957619D01*
X124975714Y-86052857D01*
X125023333Y-86243333D01*
X125023333Y-86481428D01*
X124975714Y-86671904D01*
X124928095Y-86767142D01*
X124880476Y-86814761D01*
X124785238Y-86862380D01*
X124690000Y-86862380D01*
X124594761Y-86814761D01*
X124547142Y-86767142D01*
X124499523Y-86671904D01*
X124451904Y-86481428D01*
X124451904Y-86243333D01*
X124499523Y-86052857D01*
X124547142Y-85957619D01*
X124594761Y-85910000D01*
X124690000Y-85862380D01*
X125404285Y-85957619D02*
X125451904Y-85910000D01*
X125547142Y-85862380D01*
X125785238Y-85862380D01*
X125880476Y-85910000D01*
X125928095Y-85957619D01*
X125975714Y-86052857D01*
X125975714Y-86148095D01*
X125928095Y-86290952D01*
X125356666Y-86862380D01*
X125975714Y-86862380D01*
%TO.C,R1*%
X112863333Y-94432380D02*
X112530000Y-93956190D01*
X112291904Y-94432380D02*
X112291904Y-93432380D01*
X112672857Y-93432380D01*
X112768095Y-93480000D01*
X112815714Y-93527619D01*
X112863333Y-93622857D01*
X112863333Y-93765714D01*
X112815714Y-93860952D01*
X112768095Y-93908571D01*
X112672857Y-93956190D01*
X112291904Y-93956190D01*
X113815714Y-94432380D02*
X113244285Y-94432380D01*
X113530000Y-94432380D02*
X113530000Y-93432380D01*
X113434761Y-93575238D01*
X113339523Y-93670476D01*
X113244285Y-93718095D01*
%TO.C,C16*%
X83177142Y-95607142D02*
X83129523Y-95654761D01*
X82986666Y-95702380D01*
X82891428Y-95702380D01*
X82748571Y-95654761D01*
X82653333Y-95559523D01*
X82605714Y-95464285D01*
X82558095Y-95273809D01*
X82558095Y-95130952D01*
X82605714Y-94940476D01*
X82653333Y-94845238D01*
X82748571Y-94750000D01*
X82891428Y-94702380D01*
X82986666Y-94702380D01*
X83129523Y-94750000D01*
X83177142Y-94797619D01*
X84129523Y-95702380D02*
X83558095Y-95702380D01*
X83843809Y-95702380D02*
X83843809Y-94702380D01*
X83748571Y-94845238D01*
X83653333Y-94940476D01*
X83558095Y-94988095D01*
X84986666Y-94702380D02*
X84796190Y-94702380D01*
X84700952Y-94750000D01*
X84653333Y-94797619D01*
X84558095Y-94940476D01*
X84510476Y-95130952D01*
X84510476Y-95511904D01*
X84558095Y-95607142D01*
X84605714Y-95654761D01*
X84700952Y-95702380D01*
X84891428Y-95702380D01*
X84986666Y-95654761D01*
X85034285Y-95607142D01*
X85081904Y-95511904D01*
X85081904Y-95273809D01*
X85034285Y-95178571D01*
X84986666Y-95130952D01*
X84891428Y-95083333D01*
X84700952Y-95083333D01*
X84605714Y-95130952D01*
X84558095Y-95178571D01*
X84510476Y-95273809D01*
D13*
%TO.C,P5*%
X216307929Y-86105000D02*
X216762071Y-86105000D01*
X218847929Y-73405000D02*
X219245000Y-73405000D01*
X227905000Y-98805000D02*
X221905000Y-98805000D01*
X218847929Y-81025000D02*
X219245000Y-81025000D01*
X227905000Y-108965000D02*
X221905000Y-108965000D01*
X219245000Y-104775000D02*
X221905000Y-104775000D01*
X221905000Y-65445000D02*
X227905000Y-65445000D01*
X219245000Y-74295000D02*
X221905000Y-74295000D01*
X221905000Y-118365000D02*
X227905000Y-118365000D01*
X227905000Y-110745000D02*
X227905000Y-111505000D01*
X219245000Y-94615000D02*
X221905000Y-94615000D01*
X218847929Y-87885000D02*
X219245000Y-87885000D01*
X216307929Y-100585000D02*
X216762071Y-100585000D01*
X221905000Y-108205000D02*
X227905000Y-108205000D01*
X221905000Y-125985000D02*
X227905000Y-125985000D01*
X216307929Y-120905000D02*
X216762071Y-120905000D01*
X219245000Y-97155000D02*
X221905000Y-97155000D01*
X221905000Y-105665000D02*
X227905000Y-105665000D01*
X227905000Y-78485000D02*
X221905000Y-78485000D01*
X218847929Y-65025000D02*
X219245000Y-65025000D01*
X221905000Y-113285000D02*
X227905000Y-113285000D01*
X216307929Y-92965000D02*
X216762071Y-92965000D01*
X216307929Y-119125000D02*
X216762071Y-119125000D01*
X216307929Y-73405000D02*
X216762071Y-73405000D01*
X218847929Y-68325000D02*
X219245000Y-68325000D01*
X218847929Y-103125000D02*
X219245000Y-103125000D01*
X218847929Y-124205000D02*
X219245000Y-124205000D01*
X218847929Y-98045000D02*
X219245000Y-98045000D01*
X218847929Y-70865000D02*
X219245000Y-70865000D01*
X221905000Y-65565000D02*
X227905000Y-65565000D01*
X227905000Y-101345000D02*
X221905000Y-101345000D01*
X227905000Y-100585000D02*
X227905000Y-101345000D01*
X219245000Y-102235000D02*
X221905000Y-102235000D01*
X227905000Y-108205000D02*
X227905000Y-108965000D01*
X216307929Y-123445000D02*
X216762071Y-123445000D01*
X227905000Y-88645000D02*
X221905000Y-88645000D01*
X216307929Y-116585000D02*
X216762071Y-116585000D01*
X216307929Y-72645000D02*
X216762071Y-72645000D01*
X227905000Y-73405000D02*
X221905000Y-73405000D01*
X221905000Y-65025000D02*
X227905000Y-65025000D01*
X216307929Y-101345000D02*
X216762071Y-101345000D01*
X219245000Y-89535000D02*
X221905000Y-89535000D01*
X221905000Y-75185000D02*
X227905000Y-75185000D01*
X216375000Y-65785000D02*
X216762071Y-65785000D01*
X219245000Y-127695000D02*
X221905000Y-127695000D01*
X218847929Y-101345000D02*
X219245000Y-101345000D01*
X218847929Y-88645000D02*
X219245000Y-88645000D01*
X216307929Y-68325000D02*
X216762071Y-68325000D01*
X216307929Y-103885000D02*
X216762071Y-103885000D01*
X219245000Y-99695000D02*
X221905000Y-99695000D01*
X221905000Y-115825000D02*
X227905000Y-115825000D01*
X221905000Y-103125000D02*
X227905000Y-103125000D01*
X216307929Y-98805000D02*
X216762071Y-98805000D01*
X227905000Y-126745000D02*
X221905000Y-126745000D01*
X218847929Y-92965000D02*
X219245000Y-92965000D01*
X216307929Y-96265000D02*
X216762071Y-96265000D01*
X221905000Y-65205000D02*
X227905000Y-65205000D01*
X218847929Y-90425000D02*
X219245000Y-90425000D01*
X218847929Y-108965000D02*
X219245000Y-108965000D01*
X219245000Y-92075000D02*
X221905000Y-92075000D01*
X227905000Y-120905000D02*
X227905000Y-121665000D01*
X221905000Y-95505000D02*
X227905000Y-95505000D01*
X227905000Y-65025000D02*
X227905000Y-65785000D01*
X216307929Y-110745000D02*
X216762071Y-110745000D01*
X218847929Y-123445000D02*
X219245000Y-123445000D01*
X218847929Y-113285000D02*
X219245000Y-113285000D01*
X227905000Y-93725000D02*
X221905000Y-93725000D01*
X227905000Y-85345000D02*
X227905000Y-86105000D01*
X227905000Y-83565000D02*
X221905000Y-83565000D01*
X216307929Y-124205000D02*
X216762071Y-124205000D01*
X221905000Y-82805000D02*
X227905000Y-82805000D01*
X227905000Y-87885000D02*
X227905000Y-88645000D01*
X218847929Y-91185000D02*
X219245000Y-91185000D01*
X216307929Y-82805000D02*
X216762071Y-82805000D01*
X221905000Y-67565000D02*
X227905000Y-67565000D01*
X216307929Y-98045000D02*
X216762071Y-98045000D01*
X218847929Y-75185000D02*
X219245000Y-75185000D01*
X221905000Y-90425000D02*
X227905000Y-90425000D01*
X227905000Y-96265000D02*
X221905000Y-96265000D01*
X219245000Y-125095000D02*
X221905000Y-125095000D01*
X227905000Y-103125000D02*
X227905000Y-103885000D01*
X218847929Y-115825000D02*
X219245000Y-115825000D01*
X218847929Y-72645000D02*
X219245000Y-72645000D01*
X227905000Y-81025000D02*
X221905000Y-81025000D01*
X221905000Y-110745000D02*
X227905000Y-110745000D01*
X218847929Y-65785000D02*
X219245000Y-65785000D01*
X218847929Y-119125000D02*
X219245000Y-119125000D01*
X216307929Y-114045000D02*
X216762071Y-114045000D01*
X216307929Y-70865000D02*
X216762071Y-70865000D01*
X218847929Y-95505000D02*
X219245000Y-95505000D01*
X216307929Y-70105000D02*
X216762071Y-70105000D01*
X219245000Y-81915000D02*
X221905000Y-81915000D01*
X219245000Y-120015000D02*
X221905000Y-120015000D01*
X218847929Y-106425000D02*
X219245000Y-106425000D01*
X218847929Y-85345000D02*
X219245000Y-85345000D01*
X216307929Y-118365000D02*
X216762071Y-118365000D01*
X216307929Y-125985000D02*
X216762071Y-125985000D01*
X219245000Y-122555000D02*
X221905000Y-122555000D01*
X216307929Y-126745000D02*
X216762071Y-126745000D01*
X221905000Y-65325000D02*
X227905000Y-65325000D01*
X216307929Y-88645000D02*
X216762071Y-88645000D01*
X216307929Y-78485000D02*
X216762071Y-78485000D01*
X218847929Y-105665000D02*
X219245000Y-105665000D01*
X221905000Y-120905000D02*
X227905000Y-120905000D01*
X218847929Y-103885000D02*
X219245000Y-103885000D01*
X219245000Y-69215000D02*
X221905000Y-69215000D01*
X216307929Y-113285000D02*
X216762071Y-113285000D01*
X227905000Y-77725000D02*
X227905000Y-78485000D01*
X227905000Y-121665000D02*
X221905000Y-121665000D01*
X218847929Y-108205000D02*
X219245000Y-108205000D01*
X227905000Y-75945000D02*
X221905000Y-75945000D01*
X227905000Y-95505000D02*
X227905000Y-96265000D01*
X221905000Y-80265000D02*
X227905000Y-80265000D01*
X218847929Y-77725000D02*
X219245000Y-77725000D01*
X216307929Y-91185000D02*
X216762071Y-91185000D01*
X221905000Y-123445000D02*
X227905000Y-123445000D01*
X218847929Y-75945000D02*
X219245000Y-75945000D01*
X227905000Y-123445000D02*
X227905000Y-124205000D01*
X216307929Y-111505000D02*
X216762071Y-111505000D01*
X216307929Y-108965000D02*
X216762071Y-108965000D01*
X227905000Y-90425000D02*
X227905000Y-91185000D01*
X218847929Y-67565000D02*
X219245000Y-67565000D01*
X218847929Y-82805000D02*
X219245000Y-82805000D01*
X216307929Y-83565000D02*
X216762071Y-83565000D01*
X218847929Y-83565000D02*
X219245000Y-83565000D01*
X221905000Y-77725000D02*
X227905000Y-77725000D01*
X221905000Y-65085000D02*
X227905000Y-65085000D01*
X218847929Y-114045000D02*
X219245000Y-114045000D01*
X216307929Y-115825000D02*
X216762071Y-115825000D01*
X219245000Y-79375000D02*
X221905000Y-79375000D01*
X227905000Y-82805000D02*
X227905000Y-83565000D01*
X218847929Y-96265000D02*
X219245000Y-96265000D01*
X216307929Y-108205000D02*
X216762071Y-108205000D01*
X227905000Y-70865000D02*
X221905000Y-70865000D01*
X227905000Y-124205000D02*
X221905000Y-124205000D01*
X227905000Y-80265000D02*
X227905000Y-81025000D01*
X227905000Y-68325000D02*
X221905000Y-68325000D01*
X221905000Y-98045000D02*
X227905000Y-98045000D01*
X218847929Y-126745000D02*
X219245000Y-126745000D01*
X227905000Y-111505000D02*
X221905000Y-111505000D01*
X227905000Y-115825000D02*
X227905000Y-116585000D01*
X216307929Y-85345000D02*
X216762071Y-85345000D01*
X218847929Y-110745000D02*
X219245000Y-110745000D01*
X216307929Y-75185000D02*
X216762071Y-75185000D01*
X216307929Y-106425000D02*
X216762071Y-106425000D01*
X218847929Y-121665000D02*
X219245000Y-121665000D01*
X216375000Y-65025000D02*
X216762071Y-65025000D01*
X227905000Y-105665000D02*
X227905000Y-106425000D01*
X221905000Y-64075000D02*
X219245000Y-64075000D01*
X227905000Y-67565000D02*
X227905000Y-68325000D01*
X216307929Y-95505000D02*
X216762071Y-95505000D01*
X216307929Y-75945000D02*
X216762071Y-75945000D01*
X227905000Y-103885000D02*
X221905000Y-103885000D01*
X216307929Y-105665000D02*
X216762071Y-105665000D01*
X219245000Y-109855000D02*
X221905000Y-109855000D01*
X218847929Y-116585000D02*
X219245000Y-116585000D01*
X216307929Y-90425000D02*
X216762071Y-90425000D01*
X216307929Y-103125000D02*
X216762071Y-103125000D01*
X218847929Y-86105000D02*
X219245000Y-86105000D01*
X218847929Y-125985000D02*
X219245000Y-125985000D01*
X227905000Y-118365000D02*
X227905000Y-119125000D01*
X227905000Y-114045000D02*
X221905000Y-114045000D01*
X219245000Y-66675000D02*
X221905000Y-66675000D01*
X227905000Y-92965000D02*
X227905000Y-93725000D01*
X227905000Y-113285000D02*
X227905000Y-114045000D01*
X221905000Y-127695000D02*
X221905000Y-64075000D01*
X219245000Y-76835000D02*
X221905000Y-76835000D01*
X218847929Y-120905000D02*
X219245000Y-120905000D01*
X216307929Y-87885000D02*
X216762071Y-87885000D01*
X227905000Y-125985000D02*
X227905000Y-126745000D01*
X218847929Y-118365000D02*
X219245000Y-118365000D01*
X221905000Y-85345000D02*
X227905000Y-85345000D01*
X216307929Y-77725000D02*
X216762071Y-77725000D01*
X218847929Y-78485000D02*
X219245000Y-78485000D01*
X219245000Y-112395000D02*
X221905000Y-112395000D01*
X218847929Y-111505000D02*
X219245000Y-111505000D01*
X219245000Y-64075000D02*
X219245000Y-127695000D01*
X221905000Y-65685000D02*
X227905000Y-65685000D01*
X219245000Y-71755000D02*
X221905000Y-71755000D01*
X219245000Y-86995000D02*
X221905000Y-86995000D01*
X216307929Y-67565000D02*
X216762071Y-67565000D01*
X218847929Y-98805000D02*
X219245000Y-98805000D01*
X213995000Y-65405000D02*
X213995000Y-64135000D01*
X221905000Y-87885000D02*
X227905000Y-87885000D01*
X221905000Y-92965000D02*
X227905000Y-92965000D01*
X218847929Y-70105000D02*
X219245000Y-70105000D01*
X227905000Y-116585000D02*
X221905000Y-116585000D01*
X227905000Y-106425000D02*
X221905000Y-106425000D01*
X221905000Y-70105000D02*
X227905000Y-70105000D01*
X227905000Y-75185000D02*
X227905000Y-75945000D01*
X216307929Y-81025000D02*
X216762071Y-81025000D01*
X227905000Y-86105000D02*
X221905000Y-86105000D01*
X213995000Y-64135000D02*
X215265000Y-64135000D01*
X219245000Y-117475000D02*
X221905000Y-117475000D01*
X227905000Y-65785000D02*
X221905000Y-65785000D01*
X219245000Y-84455000D02*
X221905000Y-84455000D01*
X216307929Y-93725000D02*
X216762071Y-93725000D01*
X221905000Y-100585000D02*
X227905000Y-100585000D01*
X227905000Y-72645000D02*
X227905000Y-73405000D01*
X216307929Y-121665000D02*
X216762071Y-121665000D01*
X227905000Y-98045000D02*
X227905000Y-98805000D01*
X219245000Y-107315000D02*
X221905000Y-107315000D01*
X218847929Y-80265000D02*
X219245000Y-80265000D01*
X227905000Y-70105000D02*
X227905000Y-70865000D01*
X218847929Y-100585000D02*
X219245000Y-100585000D01*
X216307929Y-80265000D02*
X216762071Y-80265000D01*
X227905000Y-91185000D02*
X221905000Y-91185000D01*
X218847929Y-93725000D02*
X219245000Y-93725000D01*
X219245000Y-114935000D02*
X221905000Y-114935000D01*
X221905000Y-72645000D02*
X227905000Y-72645000D01*
X227905000Y-119125000D02*
X221905000Y-119125000D01*
%TO.C,C10*%
X159745000Y-53263748D02*
X159745000Y-54686252D01*
X161565000Y-53263748D02*
X161565000Y-54686252D01*
%TO.C,R2*%
X109870000Y-95600000D02*
X106030000Y-95600000D01*
X109870000Y-97440000D02*
X106030000Y-97440000D01*
%TO.C,R5*%
X88550000Y-76850000D02*
X88550000Y-73010000D01*
X86710000Y-76850000D02*
X86710000Y-73010000D01*
%TO.C,C25*%
X79170000Y-107451000D02*
X78202000Y-107451000D01*
X81964000Y-107131000D02*
X80850000Y-107131000D01*
X79170000Y-107691000D02*
X78360000Y-107691000D01*
X79170000Y-106690000D02*
X77948000Y-106690000D01*
X79170000Y-108091000D02*
X78756000Y-108091000D01*
X80547000Y-108451000D02*
X79473000Y-108451000D01*
X81361000Y-108011000D02*
X80850000Y-108011000D01*
X79170000Y-108131000D02*
X78810000Y-108131000D01*
X79170000Y-107371000D02*
X78159000Y-107371000D01*
X79170000Y-107090000D02*
X78042000Y-107090000D01*
X81210000Y-108131000D02*
X80850000Y-108131000D01*
X79170000Y-107010000D02*
X78016000Y-107010000D01*
X81023000Y-108251000D02*
X78997000Y-108251000D01*
X79170000Y-107611000D02*
X78302000Y-107611000D01*
X79170000Y-107131000D02*
X78056000Y-107131000D01*
X79170000Y-107291000D02*
X78121000Y-107291000D01*
X79170000Y-108171000D02*
X78868000Y-108171000D01*
X81152000Y-108171000D02*
X80850000Y-108171000D01*
X79170000Y-108051000D02*
X78706000Y-108051000D01*
X79170000Y-107771000D02*
X78423000Y-107771000D01*
X79170000Y-106970000D02*
X78005000Y-106970000D01*
X80950000Y-108291000D02*
X79070000Y-108291000D01*
X82052000Y-106810000D02*
X80850000Y-106810000D01*
X82087000Y-106530000D02*
X77933000Y-106530000D01*
X80380000Y-108491000D02*
X79640000Y-108491000D01*
X82060000Y-106770000D02*
X80850000Y-106770000D01*
X81934000Y-107211000D02*
X80850000Y-107211000D01*
X79170000Y-107171000D02*
X78070000Y-107171000D01*
X79170000Y-107571000D02*
X78275000Y-107571000D01*
X81880000Y-107331000D02*
X80850000Y-107331000D01*
X82015000Y-106970000D02*
X80850000Y-106970000D01*
X79170000Y-108211000D02*
X78930000Y-108211000D01*
X80869000Y-108331000D02*
X79151000Y-108331000D01*
X81795000Y-107491000D02*
X80850000Y-107491000D01*
X79170000Y-107731000D02*
X78391000Y-107731000D01*
X79170000Y-107050000D02*
X78028000Y-107050000D01*
X82044000Y-106850000D02*
X80850000Y-106850000D01*
X81861000Y-107371000D02*
X80850000Y-107371000D01*
X81818000Y-107451000D02*
X80850000Y-107451000D01*
X81488000Y-107891000D02*
X80850000Y-107891000D01*
X79170000Y-107491000D02*
X78225000Y-107491000D01*
X79170000Y-106650000D02*
X77943000Y-106650000D01*
X81597000Y-107771000D02*
X80850000Y-107771000D01*
X79170000Y-106770000D02*
X77960000Y-106770000D01*
X81770000Y-107531000D02*
X80850000Y-107531000D01*
X81314000Y-108051000D02*
X80850000Y-108051000D01*
X79170000Y-106850000D02*
X77976000Y-106850000D01*
X81690000Y-107651000D02*
X80850000Y-107651000D01*
X81840000Y-107411000D02*
X80850000Y-107411000D01*
X81718000Y-107611000D02*
X80850000Y-107611000D01*
X81899000Y-107291000D02*
X80850000Y-107291000D01*
X79170000Y-107411000D02*
X78180000Y-107411000D01*
X81090000Y-108211000D02*
X80850000Y-108211000D01*
X82090000Y-106450000D02*
X77930000Y-106450000D01*
X81264000Y-108091000D02*
X80850000Y-108091000D01*
X82090000Y-106410000D02*
X77930000Y-106410000D01*
X81406000Y-107971000D02*
X80850000Y-107971000D01*
X81405000Y-104340199D02*
X81005000Y-104340199D01*
X81992000Y-107050000D02*
X80850000Y-107050000D01*
X79170000Y-107971000D02*
X78614000Y-107971000D01*
X79170000Y-108011000D02*
X78659000Y-108011000D01*
X82084000Y-106570000D02*
X77936000Y-106570000D01*
X81205000Y-104140199D02*
X81205000Y-104540199D01*
X81526000Y-107851000D02*
X80850000Y-107851000D01*
X79170000Y-106810000D02*
X77968000Y-106810000D01*
X79170000Y-107331000D02*
X78140000Y-107331000D01*
X79170000Y-107251000D02*
X78103000Y-107251000D01*
X82081000Y-106610000D02*
X80850000Y-106610000D01*
X80674000Y-108411000D02*
X79346000Y-108411000D01*
X79170000Y-107891000D02*
X78532000Y-107891000D01*
X82066000Y-106730000D02*
X80850000Y-106730000D01*
X79170000Y-107651000D02*
X78330000Y-107651000D01*
X82077000Y-106650000D02*
X80850000Y-106650000D01*
X82004000Y-107010000D02*
X80850000Y-107010000D01*
X81745000Y-107571000D02*
X80850000Y-107571000D01*
X82035000Y-106890000D02*
X80850000Y-106890000D01*
X79170000Y-107851000D02*
X78494000Y-107851000D01*
X79170000Y-106930000D02*
X77994000Y-106930000D01*
X81660000Y-107691000D02*
X80850000Y-107691000D01*
X79170000Y-106730000D02*
X77954000Y-106730000D01*
X79170000Y-106610000D02*
X77939000Y-106610000D01*
X80778000Y-108371000D02*
X79242000Y-108371000D01*
X82089000Y-106490000D02*
X77931000Y-106490000D01*
X81978000Y-107090000D02*
X80850000Y-107090000D01*
X81448000Y-107931000D02*
X80850000Y-107931000D01*
X79170000Y-107531000D02*
X78250000Y-107531000D01*
X79170000Y-107211000D02*
X78086000Y-107211000D01*
X81629000Y-107731000D02*
X80850000Y-107731000D01*
X81917000Y-107251000D02*
X80850000Y-107251000D01*
X82026000Y-106930000D02*
X80850000Y-106930000D01*
X79170000Y-107811000D02*
X78458000Y-107811000D01*
X82072000Y-106690000D02*
X80850000Y-106690000D01*
X81562000Y-107811000D02*
X80850000Y-107811000D01*
X81950000Y-107171000D02*
X80850000Y-107171000D01*
X79170000Y-107931000D02*
X78572000Y-107931000D01*
X79170000Y-106890000D02*
X77985000Y-106890000D01*
X82130000Y-106410000D02*
G75*
G03*
X82130000Y-106410000I-2120000J0D01*
G01*
%TO.C,G\u002A\u002A\u002A*%
G36*
X96479787Y-56554847D02*
G01*
X95924116Y-56554847D01*
X95924116Y-55999177D01*
X96479787Y-55999177D01*
X96479787Y-56554847D01*
G37*
G36*
X109815884Y-52665152D02*
G01*
X109260213Y-52665152D01*
X109260213Y-52109482D01*
X109815884Y-52109482D01*
X109815884Y-52665152D01*
G37*
G36*
X101480823Y-53220823D02*
G01*
X100925152Y-53220823D01*
X100925152Y-52665152D01*
X101480823Y-52665152D01*
X101480823Y-53220823D01*
G37*
G36*
X101480823Y-54887835D02*
G01*
X100369482Y-54887835D01*
X100369482Y-54332165D01*
X101480823Y-54332165D01*
X101480823Y-54887835D01*
G37*
G36*
X105370518Y-51553811D02*
G01*
X104814847Y-51553811D01*
X104814847Y-50998140D01*
X105370518Y-50998140D01*
X105370518Y-51553811D01*
G37*
G36*
X109260213Y-53220823D02*
G01*
X108704542Y-53220823D01*
X108704542Y-52665152D01*
X109260213Y-52665152D01*
X109260213Y-53220823D01*
G37*
G36*
X100369482Y-54332165D02*
G01*
X99813811Y-54332165D01*
X99813811Y-54887835D01*
X99258140Y-54887835D01*
X99258140Y-54332165D01*
X99813811Y-54332165D01*
X99813811Y-53776494D01*
X99258140Y-53776494D01*
X99258140Y-54332165D01*
X98702470Y-54332165D01*
X98702470Y-53776494D01*
X99258140Y-53776494D01*
X99258140Y-53220823D01*
X99813811Y-53220823D01*
X99813811Y-52665152D01*
X100369482Y-52665152D01*
X100369482Y-54332165D01*
G37*
G36*
X108704542Y-50442470D02*
G01*
X107037530Y-50442470D01*
X107037530Y-48775458D01*
X108704542Y-48775458D01*
X108704542Y-50442470D01*
G37*
G36*
X102036494Y-51553811D02*
G01*
X101480823Y-51553811D01*
X101480823Y-50998140D01*
X102036494Y-50998140D01*
X102036494Y-51553811D01*
G37*
G36*
X100925152Y-51553811D02*
G01*
X100369482Y-51553811D01*
X100369482Y-50998140D01*
X100925152Y-50998140D01*
X100925152Y-51553811D01*
G37*
G36*
X99813811Y-57666189D02*
G01*
X99813811Y-61555884D01*
X95924116Y-61555884D01*
X95924116Y-61000213D01*
X96479787Y-61000213D01*
X99258140Y-61000213D01*
X99258140Y-58221859D01*
X96479787Y-58221859D01*
X96479787Y-61000213D01*
X95924116Y-61000213D01*
X95924116Y-57666189D01*
X99813811Y-57666189D01*
G37*
G36*
X98146799Y-52665152D02*
G01*
X95924116Y-52665152D01*
X95924116Y-52109482D01*
X98146799Y-52109482D01*
X98146799Y-52665152D01*
G37*
G36*
X109260213Y-55999177D02*
G01*
X109815884Y-55999177D01*
X109815884Y-59888872D01*
X109260213Y-59888872D01*
X109260213Y-60444542D01*
X108704542Y-60444542D01*
X108704542Y-61000213D01*
X109815884Y-61000213D01*
X109815884Y-61555884D01*
X106481859Y-61555884D01*
X106481859Y-61000213D01*
X107037530Y-61000213D01*
X107593201Y-61000213D01*
X108148872Y-61000213D01*
X108148872Y-60444542D01*
X107593201Y-60444542D01*
X107593201Y-61000213D01*
X107037530Y-61000213D01*
X107037530Y-60444542D01*
X105926189Y-60444542D01*
X105926189Y-59888872D01*
X107593201Y-59888872D01*
X108148872Y-59888872D01*
X108148872Y-59333201D01*
X109260213Y-59333201D01*
X109260213Y-58777530D01*
X108704542Y-58777530D01*
X108704542Y-58221859D01*
X107593201Y-58221859D01*
X107593201Y-59888872D01*
X105926189Y-59888872D01*
X105370518Y-59888872D01*
X105370518Y-59333201D01*
X104814847Y-59333201D01*
X104814847Y-61000213D01*
X104259177Y-61000213D01*
X104259177Y-59333201D01*
X104814847Y-59333201D01*
X104814847Y-58777530D01*
X105370518Y-58777530D01*
X107037530Y-58777530D01*
X107037530Y-57666189D01*
X107593201Y-57666189D01*
X109260213Y-57666189D01*
X109260213Y-57110518D01*
X107593201Y-57110518D01*
X107593201Y-57666189D01*
X107037530Y-57666189D01*
X107037530Y-57110518D01*
X105370518Y-57110518D01*
X105370518Y-58777530D01*
X104814847Y-58777530D01*
X104259177Y-58777530D01*
X104259177Y-59333201D01*
X103703506Y-59333201D01*
X103703506Y-61555884D01*
X101480823Y-61555884D01*
X101480823Y-61000213D01*
X100925152Y-61000213D01*
X100925152Y-61555884D01*
X100369482Y-61555884D01*
X100369482Y-60444542D01*
X101480823Y-60444542D01*
X102036494Y-60444542D01*
X102036494Y-59888872D01*
X101480823Y-59888872D01*
X101480823Y-60444542D01*
X100369482Y-60444542D01*
X100369482Y-59888872D01*
X100925152Y-59888872D01*
X101480823Y-59888872D01*
X101480823Y-59333201D01*
X102592165Y-59333201D01*
X102592165Y-60444542D01*
X103147835Y-60444542D01*
X103147835Y-59333201D01*
X103703506Y-59333201D01*
X103703506Y-58777530D01*
X104259177Y-58777530D01*
X104259177Y-58221859D01*
X104814847Y-58221859D01*
X104814847Y-56554847D01*
X103703506Y-56554847D01*
X103703506Y-55999177D01*
X104259177Y-55999177D01*
X105370518Y-55999177D01*
X105370518Y-55443506D01*
X104259177Y-55443506D01*
X104259177Y-55999177D01*
X103703506Y-55999177D01*
X102592165Y-55999177D01*
X102592165Y-55443506D01*
X103703506Y-55443506D01*
X103703506Y-54887835D01*
X104814847Y-54887835D01*
X105926189Y-54887835D01*
X105926189Y-54332165D01*
X104814847Y-54332165D01*
X104814847Y-54887835D01*
X103703506Y-54887835D01*
X102592165Y-54887835D01*
X102592165Y-55443506D01*
X101480823Y-55443506D01*
X101480823Y-55999177D01*
X102036494Y-55999177D01*
X102036494Y-56554847D01*
X102592165Y-56554847D01*
X102592165Y-57110518D01*
X103147835Y-57110518D01*
X103147835Y-58777530D01*
X101480823Y-58777530D01*
X101480823Y-59333201D01*
X100925152Y-59333201D01*
X100925152Y-59888872D01*
X100369482Y-59888872D01*
X100369482Y-59333201D01*
X100925152Y-59333201D01*
X100925152Y-58777530D01*
X101480823Y-58777530D01*
X101480823Y-58221859D01*
X102036494Y-58221859D01*
X102592165Y-58221859D01*
X102592165Y-57666189D01*
X102036494Y-57666189D01*
X102036494Y-58221859D01*
X101480823Y-58221859D01*
X101480823Y-57666189D01*
X102036494Y-57666189D01*
X102036494Y-57110518D01*
X101480823Y-57110518D01*
X101480823Y-57666189D01*
X100369482Y-57666189D01*
X100369482Y-57110518D01*
X100925152Y-57110518D01*
X100925152Y-56554847D01*
X99813811Y-56554847D01*
X99813811Y-57110518D01*
X98702470Y-57110518D01*
X98702470Y-56554847D01*
X99813811Y-56554847D01*
X99813811Y-55999177D01*
X98702470Y-55999177D01*
X98702470Y-56554847D01*
X98146799Y-56554847D01*
X98146799Y-57110518D01*
X97035458Y-57110518D01*
X97035458Y-55999177D01*
X97591128Y-55999177D01*
X97591128Y-55443506D01*
X97035458Y-55443506D01*
X97035458Y-55999177D01*
X96479787Y-55999177D01*
X96479787Y-55443506D01*
X97035458Y-55443506D01*
X97035458Y-54887835D01*
X98702470Y-54887835D01*
X98702470Y-55443506D01*
X98146799Y-55443506D01*
X98146799Y-55999177D01*
X98702470Y-55999177D01*
X98702470Y-55443506D01*
X99813811Y-55443506D01*
X99813811Y-55999177D01*
X100369482Y-55999177D01*
X100369482Y-55443506D01*
X101480823Y-55443506D01*
X101480823Y-54887835D01*
X102036494Y-54887835D01*
X102036494Y-53776494D01*
X103147835Y-53776494D01*
X103703506Y-53776494D01*
X104814847Y-53776494D01*
X104814847Y-52665152D01*
X104259177Y-52665152D01*
X104259177Y-53220823D01*
X103703506Y-53220823D01*
X103703506Y-53776494D01*
X103147835Y-53776494D01*
X103147835Y-53220823D01*
X103703506Y-53220823D01*
X103703506Y-50998140D01*
X104259177Y-50998140D01*
X104259177Y-51553811D01*
X104814847Y-51553811D01*
X104814847Y-52109482D01*
X105926189Y-52109482D01*
X105926189Y-53220823D01*
X105370518Y-53220823D01*
X105370518Y-53776494D01*
X106481859Y-53776494D01*
X106481859Y-54332165D01*
X107593201Y-54332165D01*
X107593201Y-53776494D01*
X108704542Y-53776494D01*
X108704542Y-54332165D01*
X109815884Y-54332165D01*
X109815884Y-55443506D01*
X109260213Y-55443506D01*
X109260213Y-55999177D01*
X108148872Y-55999177D01*
X108148872Y-56554847D01*
X107593201Y-56554847D01*
X107593201Y-55999177D01*
X108148872Y-55999177D01*
X108148872Y-55443506D01*
X109260213Y-55443506D01*
X109260213Y-54887835D01*
X108148872Y-54887835D01*
X108148872Y-54332165D01*
X107593201Y-54332165D01*
X107593201Y-55999177D01*
X107037530Y-55999177D01*
X107037530Y-56554847D01*
X106481859Y-56554847D01*
X106481859Y-55999177D01*
X107037530Y-55999177D01*
X107037530Y-55443506D01*
X106481859Y-55443506D01*
X106481859Y-55999177D01*
X105370518Y-55999177D01*
X105370518Y-56554847D01*
X109260213Y-56554847D01*
X109260213Y-55999177D01*
G37*
G36*
X99813811Y-52665152D02*
G01*
X99258140Y-52665152D01*
X99258140Y-52109482D01*
X99813811Y-52109482D01*
X99813811Y-52665152D01*
G37*
G36*
X107037530Y-53776494D02*
G01*
X106481859Y-53776494D01*
X106481859Y-52665152D01*
X107037530Y-52665152D01*
X107037530Y-53776494D01*
G37*
G36*
X100925152Y-52665152D02*
G01*
X100369482Y-52665152D01*
X100369482Y-52109482D01*
X100925152Y-52109482D01*
X100925152Y-52665152D01*
G37*
G36*
X98702470Y-53776494D02*
G01*
X98146799Y-53776494D01*
X98146799Y-53220823D01*
X98702470Y-53220823D01*
X98702470Y-53776494D01*
G37*
G36*
X101480823Y-52109482D02*
G01*
X100925152Y-52109482D01*
X100925152Y-51553811D01*
X101480823Y-51553811D01*
X101480823Y-52109482D01*
G37*
G36*
X103703506Y-57110518D02*
G01*
X103147835Y-57110518D01*
X103147835Y-56554847D01*
X103703506Y-56554847D01*
X103703506Y-57110518D01*
G37*
G36*
X98702470Y-50442470D02*
G01*
X97035458Y-50442470D01*
X97035458Y-48775458D01*
X98702470Y-48775458D01*
X98702470Y-50442470D01*
G37*
G36*
X101480823Y-48219787D02*
G01*
X100369482Y-48219787D01*
X100369482Y-47664116D01*
X101480823Y-47664116D01*
X101480823Y-48219787D01*
G37*
G36*
X99813811Y-47664116D02*
G01*
X99813811Y-51553811D01*
X95924116Y-51553811D01*
X95924116Y-50998140D01*
X96479787Y-50998140D01*
X99258140Y-50998140D01*
X99258140Y-48219787D01*
X96479787Y-48219787D01*
X96479787Y-50998140D01*
X95924116Y-50998140D01*
X95924116Y-47664116D01*
X99813811Y-47664116D01*
G37*
G36*
X109815884Y-47664116D02*
G01*
X109815884Y-51553811D01*
X105926189Y-51553811D01*
X105926189Y-50998140D01*
X106481859Y-50998140D01*
X109260213Y-50998140D01*
X109260213Y-48219787D01*
X106481859Y-48219787D01*
X106481859Y-50998140D01*
X105926189Y-50998140D01*
X105926189Y-47664116D01*
X109815884Y-47664116D01*
G37*
G36*
X98702470Y-60444542D02*
G01*
X97035458Y-60444542D01*
X97035458Y-58777530D01*
X98702470Y-58777530D01*
X98702470Y-60444542D01*
G37*
G36*
X108704542Y-52665152D02*
G01*
X107037530Y-52665152D01*
X107037530Y-52109482D01*
X108704542Y-52109482D01*
X108704542Y-52665152D01*
G37*
G36*
X105926189Y-61555884D02*
G01*
X105370518Y-61555884D01*
X105370518Y-61000213D01*
X105926189Y-61000213D01*
X105926189Y-61555884D01*
G37*
G36*
X97035458Y-53776494D02*
G01*
X97591128Y-53776494D01*
X97591128Y-54332165D01*
X96479787Y-54332165D01*
X96479787Y-54887835D01*
X95924116Y-54887835D01*
X95924116Y-53220823D01*
X97035458Y-53220823D01*
X97035458Y-53776494D01*
G37*
G36*
X106481859Y-58221859D02*
G01*
X105926189Y-58221859D01*
X105926189Y-57666189D01*
X106481859Y-57666189D01*
X106481859Y-58221859D01*
G37*
G36*
X102592165Y-52109482D02*
G01*
X102036494Y-52109482D01*
X102036494Y-51553811D01*
X102592165Y-51553811D01*
X102592165Y-52109482D01*
G37*
G36*
X105370518Y-50442470D02*
G01*
X103703506Y-50442470D01*
X103703506Y-50998140D01*
X103147835Y-50998140D01*
X103147835Y-51553811D01*
X102592165Y-51553811D01*
X102592165Y-50442470D01*
X103147835Y-50442470D01*
X103147835Y-49331128D01*
X102592165Y-49331128D01*
X102592165Y-50442470D01*
X101480823Y-50442470D01*
X101480823Y-50998140D01*
X100925152Y-50998140D01*
X100925152Y-50442470D01*
X100369482Y-50442470D01*
X100369482Y-48775458D01*
X100925152Y-48775458D01*
X100925152Y-49331128D01*
X101480823Y-49331128D01*
X101480823Y-49886799D01*
X102036494Y-49886799D01*
X102036494Y-48775458D01*
X103147835Y-48775458D01*
X103147835Y-48219787D01*
X104259177Y-48219787D01*
X104259177Y-48775458D01*
X104814847Y-48775458D01*
X104814847Y-47664116D01*
X105370518Y-47664116D01*
X105370518Y-50442470D01*
G37*
%TO.C,JP1*%
X173990000Y-53280000D02*
X179130000Y-53280000D01*
X173990000Y-55940000D02*
X179130000Y-55940000D01*
X179130000Y-55940000D02*
X179130000Y-53280000D01*
X171390000Y-55940000D02*
X171390000Y-54610000D01*
X173990000Y-55940000D02*
X173990000Y-53280000D01*
X172720000Y-55940000D02*
X171390000Y-55940000D01*
%TO.C,U6*%
X92610000Y-78810000D02*
X97910000Y-78810000D01*
X97910000Y-68530000D02*
X96260000Y-68530000D01*
X94260000Y-68530000D02*
X92610000Y-68530000D01*
X92610000Y-68530000D02*
X92610000Y-78810000D01*
X97910000Y-78810000D02*
X97910000Y-68530000D01*
X94260000Y-68530000D02*
G75*
G03*
X96260000Y-68530000I1000000J0D01*
G01*
%TO.C,U11*%
X99910000Y-106260000D02*
X99910000Y-117110000D01*
X99910000Y-128960000D02*
X100910000Y-129960000D01*
X123610000Y-106260000D02*
X99910000Y-106260000D01*
X100910000Y-129960000D02*
X123610000Y-129960000D01*
X123610000Y-129960000D02*
X123610000Y-106260000D01*
X99910000Y-119110000D02*
X99910000Y-128960000D01*
%TO.C,JTAG1*%
X162560000Y-144840000D02*
X149800000Y-144840000D01*
X165160000Y-142180000D02*
X165160000Y-143510000D01*
X162560000Y-142180000D02*
X149800000Y-142180000D01*
X163830000Y-142180000D02*
X165160000Y-142180000D01*
X162560000Y-142180000D02*
X162560000Y-144840000D01*
X149800000Y-142180000D02*
X149800000Y-144840000D01*
%TO.C,C4*%
X96699000Y-66357000D02*
X96699000Y-65610000D01*
X97980000Y-66849000D02*
X97980000Y-62691000D01*
X96459000Y-63930000D02*
X96459000Y-63419000D01*
X97019000Y-66578000D02*
X97019000Y-65610000D01*
X97019000Y-63930000D02*
X97019000Y-62962000D01*
X97339000Y-63930000D02*
X97339000Y-62816000D01*
X96459000Y-66121000D02*
X96459000Y-65610000D01*
X98060000Y-66850000D02*
X98060000Y-62690000D01*
X96259000Y-63930000D02*
X96259000Y-63690000D01*
X96619000Y-63930000D02*
X96619000Y-63254000D01*
X97179000Y-66659000D02*
X97179000Y-65610000D01*
X96499000Y-66166000D02*
X96499000Y-65610000D01*
X97219000Y-63930000D02*
X97219000Y-62863000D01*
X96499000Y-63930000D02*
X96499000Y-63374000D01*
X97299000Y-63930000D02*
X97299000Y-62830000D01*
X96619000Y-66286000D02*
X96619000Y-65610000D01*
X96179000Y-65710000D02*
X96179000Y-63830000D01*
X100329801Y-65965000D02*
X99929801Y-65965000D01*
X96059000Y-65434000D02*
X96059000Y-64106000D01*
X96019000Y-65307000D02*
X96019000Y-64233000D01*
X100129801Y-66165000D02*
X100129801Y-65765000D01*
X97820000Y-66837000D02*
X97820000Y-65610000D01*
X97139000Y-66640000D02*
X97139000Y-65610000D01*
X96779000Y-66420000D02*
X96779000Y-65610000D01*
X98020000Y-66850000D02*
X98020000Y-62690000D01*
X97059000Y-63930000D02*
X97059000Y-62940000D01*
X97940000Y-66847000D02*
X97940000Y-62693000D01*
X97460000Y-66764000D02*
X97460000Y-65610000D01*
X96739000Y-63930000D02*
X96739000Y-63151000D01*
X97420000Y-66752000D02*
X97420000Y-65610000D01*
X96299000Y-63930000D02*
X96299000Y-63628000D01*
X96699000Y-63930000D02*
X96699000Y-63183000D01*
X97219000Y-66677000D02*
X97219000Y-65610000D01*
X96659000Y-66322000D02*
X96659000Y-65610000D01*
X97700000Y-63930000D02*
X97700000Y-62720000D01*
X97059000Y-66600000D02*
X97059000Y-65610000D01*
X96939000Y-63930000D02*
X96939000Y-63010000D01*
X97420000Y-63930000D02*
X97420000Y-62788000D01*
X96139000Y-65629000D02*
X96139000Y-63911000D01*
X97099000Y-63930000D02*
X97099000Y-62919000D01*
X97740000Y-63930000D02*
X97740000Y-62714000D01*
X97580000Y-66795000D02*
X97580000Y-65610000D01*
X97620000Y-63930000D02*
X97620000Y-62736000D01*
X96899000Y-66505000D02*
X96899000Y-65610000D01*
X96979000Y-66555000D02*
X96979000Y-65610000D01*
X97860000Y-63930000D02*
X97860000Y-62699000D01*
X97820000Y-63930000D02*
X97820000Y-62703000D01*
X96539000Y-66208000D02*
X96539000Y-65610000D01*
X97580000Y-63930000D02*
X97580000Y-62745000D01*
X97700000Y-66820000D02*
X97700000Y-65610000D01*
X97540000Y-66786000D02*
X97540000Y-65610000D01*
X97139000Y-63930000D02*
X97139000Y-62900000D01*
X96339000Y-65970000D02*
X96339000Y-65610000D01*
X96579000Y-63930000D02*
X96579000Y-63292000D01*
X96939000Y-66530000D02*
X96939000Y-65610000D01*
X97620000Y-66804000D02*
X97620000Y-65610000D01*
X97500000Y-63930000D02*
X97500000Y-62765000D01*
X96299000Y-65912000D02*
X96299000Y-65610000D01*
X96659000Y-63930000D02*
X96659000Y-63218000D01*
X96339000Y-63930000D02*
X96339000Y-63570000D01*
X97380000Y-66738000D02*
X97380000Y-65610000D01*
X96859000Y-63930000D02*
X96859000Y-63062000D01*
X97500000Y-66775000D02*
X97500000Y-65610000D01*
X97740000Y-66826000D02*
X97740000Y-65610000D01*
X97099000Y-66621000D02*
X97099000Y-65610000D01*
X96099000Y-65538000D02*
X96099000Y-64002000D01*
X96379000Y-63930000D02*
X96379000Y-63516000D01*
X96819000Y-63930000D02*
X96819000Y-63090000D01*
X96539000Y-63930000D02*
X96539000Y-63332000D01*
X96739000Y-66389000D02*
X96739000Y-65610000D01*
X95979000Y-65140000D02*
X95979000Y-64400000D01*
X97460000Y-63930000D02*
X97460000Y-62776000D01*
X97380000Y-63930000D02*
X97380000Y-62802000D01*
X97259000Y-66694000D02*
X97259000Y-65610000D01*
X96819000Y-66450000D02*
X96819000Y-65610000D01*
X96979000Y-63930000D02*
X96979000Y-62985000D01*
X97660000Y-63930000D02*
X97660000Y-62728000D01*
X96899000Y-63930000D02*
X96899000Y-63035000D01*
X97780000Y-66832000D02*
X97780000Y-65610000D01*
X96419000Y-66074000D02*
X96419000Y-65610000D01*
X96259000Y-65850000D02*
X96259000Y-65610000D01*
X96419000Y-63930000D02*
X96419000Y-63466000D01*
X97259000Y-63930000D02*
X97259000Y-62846000D01*
X97860000Y-66841000D02*
X97860000Y-65610000D01*
X97780000Y-63930000D02*
X97780000Y-62708000D01*
X96779000Y-63930000D02*
X96779000Y-63120000D01*
X96379000Y-66024000D02*
X96379000Y-65610000D01*
X96219000Y-65783000D02*
X96219000Y-63757000D01*
X97179000Y-63930000D02*
X97179000Y-62881000D01*
X97339000Y-66724000D02*
X97339000Y-65610000D01*
X96579000Y-66248000D02*
X96579000Y-65610000D01*
X97299000Y-66710000D02*
X97299000Y-65610000D01*
X97660000Y-66812000D02*
X97660000Y-65610000D01*
X97900000Y-66844000D02*
X97900000Y-62696000D01*
X97540000Y-63930000D02*
X97540000Y-62754000D01*
X96859000Y-66478000D02*
X96859000Y-65610000D01*
X100180000Y-64770000D02*
G75*
G03*
X100180000Y-64770000I-2120000J0D01*
G01*
%TO.C,U10*%
X200950000Y-88960000D02*
X202200000Y-88960000D01*
X204200000Y-88960000D02*
X205450000Y-88960000D01*
X205450000Y-63440000D02*
X200950000Y-63440000D01*
X205450000Y-88960000D02*
X205450000Y-63440000D01*
X200950000Y-63440000D02*
X200950000Y-88960000D01*
X204200000Y-88960000D02*
G75*
G03*
X202200000Y-88960000I-1000000J0D01*
G01*
D11*
%TO.C,SW1*%
X62980000Y-67120000D02*
X62980000Y-62340000D01*
X62982905Y-67126843D02*
G75*
G03*
X62980000Y-62340000I5637095J2396843D01*
G01*
D13*
%TO.C,X2*%
X117650000Y-131980000D02*
X98250000Y-131980000D01*
X97500000Y-132730000D02*
X97500000Y-144880000D01*
X118400000Y-144130000D02*
X118400000Y-132730000D01*
X97500000Y-144880000D02*
X117650000Y-144880000D01*
X118400000Y-132730000D02*
G75*
G03*
X117650000Y-131980000I-750000J0D01*
G01*
X98250000Y-131980000D02*
G75*
G03*
X97500000Y-132730000I0J-750000D01*
G01*
X117650000Y-144880000D02*
G75*
G03*
X118400000Y-144130000I0J750000D01*
G01*
%TO.C,C5*%
X199733248Y-91765800D02*
X201155752Y-91765800D01*
X199733248Y-89945800D02*
X201155752Y-89945800D01*
%TO.C,U9*%
X205450000Y-99000000D02*
X200950000Y-99000000D01*
X200950000Y-124520000D02*
X202200000Y-124520000D01*
X200950000Y-99000000D02*
X200950000Y-124520000D01*
X204200000Y-124520000D02*
X205450000Y-124520000D01*
X205450000Y-124520000D02*
X205450000Y-99000000D01*
X204200000Y-124520000D02*
G75*
G03*
X202200000Y-124520000I-1000000J0D01*
G01*
%TO.C,CON1*%
X62050000Y-89692500D02*
X76750000Y-89692500D01*
X75900000Y-89492500D02*
X76950000Y-89492500D01*
X76950000Y-90542500D02*
X76950000Y-89492500D01*
X76750000Y-96192500D02*
X76750000Y-98892500D01*
X70850000Y-98892500D02*
X62050000Y-98892500D01*
X62050000Y-98892500D02*
X62050000Y-89692500D01*
X76750000Y-89692500D02*
X76750000Y-92292500D01*
X76750000Y-98892500D02*
X74850000Y-98892500D01*
%TO.C,U2*%
X179415000Y-134950000D02*
X179415000Y-98730000D01*
X143165000Y-99730000D02*
X143165000Y-134950000D01*
X160290000Y-98730000D02*
X144165000Y-98730000D01*
X144165000Y-98730000D02*
X143165000Y-99730000D01*
X179415000Y-98730000D02*
X162290000Y-98730000D01*
X143165000Y-134950000D02*
X179415000Y-134950000D01*
%TO.C,X1*%
X120360000Y-132730000D02*
X120360000Y-144880000D01*
X140510000Y-131980000D02*
X121110000Y-131980000D01*
X120360000Y-144880000D02*
X140510000Y-144880000D01*
X141260000Y-144130000D02*
X141260000Y-132730000D01*
X140510000Y-144880000D02*
G75*
G03*
X141260000Y-144130000I0J750000D01*
G01*
X121110000Y-131980000D02*
G75*
G03*
X120360000Y-132730000I0J-750000D01*
G01*
X141260000Y-132730000D02*
G75*
G03*
X140510000Y-131980000I-750000J0D01*
G01*
%TO.C,C15*%
X180065000Y-58686248D02*
X180065000Y-60108752D01*
X181885000Y-58686248D02*
X181885000Y-60108752D01*
%TO.C,C2*%
X91110000Y-67160000D02*
X91110000Y-67095000D01*
X94350000Y-67160000D02*
X94350000Y-67095000D01*
X94350000Y-64920000D02*
X91110000Y-64920000D01*
X91110000Y-64985000D02*
X91110000Y-64920000D01*
X94350000Y-67160000D02*
X91110000Y-67160000D01*
X94350000Y-64985000D02*
X94350000Y-64920000D01*
%TO.C,C12*%
X103145000Y-86918748D02*
X103145000Y-88341252D01*
X101325000Y-86918748D02*
X101325000Y-88341252D01*
%TO.C,U3*%
X169175000Y-57075000D02*
X164115000Y-57075000D01*
X164115000Y-92755000D02*
X176235000Y-92755000D01*
X161115000Y-57015000D02*
X161115000Y-92815000D01*
X164115000Y-57075000D02*
X164115000Y-92755000D01*
X179235000Y-57015000D02*
X161115000Y-57015000D01*
X176235000Y-92755000D02*
X176235000Y-57075000D01*
X161115000Y-92815000D02*
X179235000Y-92815000D01*
X179235000Y-92815000D02*
X179235000Y-57015000D01*
X176235000Y-57075000D02*
X171175000Y-57075000D01*
X169175000Y-57075000D02*
G75*
G03*
X171175000Y-57075000I1000000J0D01*
G01*
%TO.C,U4*%
X143820000Y-92770000D02*
X155940000Y-92770000D01*
X143820000Y-52010000D02*
X143820000Y-92770000D01*
X155940000Y-92770000D02*
X155940000Y-52010000D01*
X148880000Y-52010000D02*
X143820000Y-52010000D01*
X155940000Y-52010000D02*
X150880000Y-52010000D01*
X148880000Y-52010000D02*
G75*
G03*
X150880000Y-52010000I1000000J0D01*
G01*
%TO.C,C18*%
X205769000Y-135843300D02*
X202506000Y-135843300D01*
X205769000Y-135603300D02*
X202389000Y-135603300D01*
X205769000Y-135523300D02*
X202353000Y-135523300D01*
X209299000Y-138043300D02*
X204721000Y-138043300D01*
X212040000Y-134203300D02*
X201980000Y-134203300D01*
X208856000Y-138243300D02*
X205164000Y-138243300D01*
X212055000Y-134082300D02*
X201965000Y-134082300D01*
X210650000Y-137043300D02*
X208251000Y-137043300D01*
X210264000Y-137403300D02*
X203756000Y-137403300D01*
X211405000Y-136043300D02*
X208251000Y-136043300D01*
X210530000Y-137163300D02*
X208251000Y-137163300D01*
X212045000Y-134162300D02*
X201975000Y-134162300D01*
X205769000Y-136603300D02*
X202990000Y-136603300D01*
X205769000Y-136643300D02*
X203021000Y-136643300D01*
X205769000Y-136723300D02*
X203085000Y-136723300D01*
X209219000Y-138083300D02*
X204801000Y-138083300D01*
X205769000Y-135643300D02*
X202407000Y-135643300D01*
X205769000Y-135723300D02*
X202446000Y-135723300D01*
X212087000Y-133682300D02*
X201933000Y-133682300D01*
X205769000Y-136843300D02*
X203186000Y-136843300D01*
X211472000Y-135923300D02*
X208251000Y-135923300D01*
X211514000Y-135843300D02*
X208251000Y-135843300D01*
X205769000Y-135243300D02*
X202242000Y-135243300D01*
X209719000Y-137803300D02*
X204301000Y-137803300D01*
X205769000Y-136163300D02*
X202687000Y-136163300D01*
X211748000Y-135323300D02*
X208251000Y-135323300D01*
X209955000Y-137643300D02*
X204065000Y-137643300D01*
X208072000Y-138483300D02*
X205948000Y-138483300D01*
X211381000Y-136083300D02*
X208251000Y-136083300D01*
X210446000Y-137243300D02*
X203574000Y-137243300D01*
X205769000Y-135043300D02*
X202173000Y-135043300D01*
X211872000Y-134963300D02*
X208251000Y-134963300D01*
X209885000Y-128002654D02*
X209885000Y-129002654D01*
X211574000Y-135723300D02*
X208251000Y-135723300D01*
X209780000Y-137763300D02*
X204240000Y-137763300D01*
X205769000Y-136883300D02*
X203221000Y-136883300D01*
X211594000Y-135683300D02*
X208251000Y-135683300D01*
X209375000Y-138003300D02*
X204645000Y-138003300D01*
X205769000Y-137043300D02*
X203370000Y-137043300D01*
X211928000Y-134763300D02*
X208251000Y-134763300D01*
X205769000Y-137123300D02*
X203449000Y-137123300D01*
X210834000Y-136843300D02*
X208251000Y-136843300D01*
X212028000Y-134283300D02*
X201992000Y-134283300D01*
X205769000Y-136323300D02*
X202789000Y-136323300D01*
X210799000Y-136883300D02*
X208251000Y-136883300D01*
X205769000Y-136963300D02*
X203294000Y-136963300D01*
X205769000Y-137163300D02*
X203490000Y-137163300D01*
X208640000Y-138323300D02*
X205380000Y-138323300D01*
X210902000Y-136763300D02*
X208251000Y-136763300D01*
X205769000Y-135923300D02*
X202548000Y-135923300D01*
X205769000Y-135283300D02*
X202256000Y-135283300D01*
X210689000Y-137003300D02*
X208251000Y-137003300D01*
X205769000Y-136003300D02*
X202593000Y-136003300D01*
X205769000Y-136443300D02*
X202872000Y-136443300D01*
X205769000Y-136083300D02*
X202639000Y-136083300D01*
X205769000Y-135323300D02*
X202272000Y-135323300D01*
X211535000Y-135803300D02*
X208251000Y-135803300D01*
X211717000Y-135403300D02*
X208251000Y-135403300D01*
X211793000Y-135203300D02*
X208251000Y-135203300D01*
X212083000Y-133762300D02*
X201937000Y-133762300D01*
X205769000Y-135683300D02*
X202426000Y-135683300D01*
X210385000Y-128502654D02*
X209385000Y-128502654D01*
X212050000Y-134122300D02*
X201970000Y-134122300D01*
X211667000Y-135523300D02*
X208251000Y-135523300D01*
X205769000Y-135883300D02*
X202527000Y-135883300D01*
X210064000Y-137563300D02*
X203956000Y-137563300D01*
X211733000Y-135363300D02*
X208251000Y-135363300D01*
X212080000Y-133802300D02*
X201940000Y-133802300D01*
X211148000Y-136443300D02*
X208251000Y-136443300D01*
X207872000Y-138523300D02*
X206148000Y-138523300D01*
X211778000Y-135243300D02*
X208251000Y-135243300D01*
X212090000Y-133482300D02*
X201930000Y-133482300D01*
X212021000Y-134323300D02*
X201999000Y-134323300D01*
X209449000Y-137963300D02*
X204571000Y-137963300D01*
X205769000Y-135963300D02*
X202570000Y-135963300D01*
X205769000Y-136563300D02*
X202960000Y-136563300D01*
X205769000Y-135443300D02*
X202320000Y-135443300D01*
X205769000Y-136923300D02*
X203257000Y-136923300D01*
X212075000Y-133882300D02*
X201945000Y-133882300D01*
X205769000Y-134963300D02*
X202148000Y-134963300D01*
X205769000Y-136403300D02*
X202844000Y-136403300D01*
X211700000Y-135443300D02*
X208251000Y-135443300D01*
X205769000Y-136283300D02*
X202763000Y-136283300D01*
X205769000Y-136803300D02*
X203152000Y-136803300D01*
X211030000Y-136603300D02*
X208251000Y-136603300D01*
X209899000Y-137683300D02*
X204121000Y-137683300D01*
X205769000Y-135123300D02*
X202199000Y-135123300D01*
X211847000Y-135043300D02*
X208251000Y-135043300D01*
X210488000Y-137203300D02*
X208251000Y-137203300D01*
X210311000Y-137363300D02*
X203709000Y-137363300D01*
X205769000Y-135163300D02*
X202213000Y-135163300D01*
X210166000Y-137483300D02*
X203854000Y-137483300D01*
X205769000Y-135483300D02*
X202336000Y-135483300D01*
X208240000Y-138443300D02*
X205780000Y-138443300D01*
X211684000Y-135483300D02*
X208251000Y-135483300D01*
X211860000Y-135003300D02*
X208251000Y-135003300D01*
X211948000Y-134683300D02*
X202072000Y-134683300D01*
X209047000Y-138163300D02*
X204973000Y-138163300D01*
X211427000Y-136003300D02*
X208251000Y-136003300D01*
X210571000Y-137123300D02*
X208251000Y-137123300D01*
X211631000Y-135603300D02*
X208251000Y-135603300D01*
X211938000Y-134723300D02*
X202082000Y-134723300D01*
X211176000Y-136403300D02*
X208251000Y-136403300D01*
X211834000Y-135083300D02*
X208251000Y-135083300D01*
X205769000Y-135083300D02*
X202186000Y-135083300D01*
X211120000Y-136483300D02*
X208251000Y-136483300D01*
X205769000Y-137203300D02*
X203532000Y-137203300D01*
X212014000Y-134363300D02*
X202006000Y-134363300D01*
X205769000Y-135363300D02*
X202287000Y-135363300D01*
X211613000Y-135643300D02*
X208251000Y-135643300D01*
X205769000Y-136243300D02*
X202737000Y-136243300D01*
X205769000Y-135203300D02*
X202227000Y-135203300D01*
X212034000Y-134243300D02*
X201986000Y-134243300D01*
X211957000Y-134643300D02*
X202063000Y-134643300D01*
X211807000Y-135163300D02*
X208251000Y-135163300D01*
X212090000Y-133522300D02*
X201930000Y-133522300D01*
X205769000Y-134803300D02*
X202103000Y-134803300D01*
X205769000Y-136523300D02*
X202930000Y-136523300D01*
X211992000Y-134483300D02*
X202028000Y-134483300D01*
X208954000Y-138203300D02*
X205066000Y-138203300D01*
X211308000Y-136203300D02*
X208251000Y-136203300D01*
X205769000Y-134763300D02*
X202092000Y-134763300D01*
X210726000Y-136963300D02*
X208251000Y-136963300D01*
X205769000Y-135563300D02*
X202371000Y-135563300D01*
X211764000Y-135283300D02*
X208251000Y-135283300D01*
X205769000Y-136483300D02*
X202900000Y-136483300D01*
X205769000Y-134883300D02*
X202125000Y-134883300D01*
X208520000Y-138363300D02*
X205500000Y-138363300D01*
X205769000Y-136683300D02*
X203053000Y-136683300D01*
X211357000Y-136123300D02*
X208251000Y-136123300D01*
X205769000Y-135763300D02*
X202465000Y-135763300D01*
X211257000Y-136283300D02*
X208251000Y-136283300D01*
X212068000Y-133962300D02*
X201952000Y-133962300D01*
X208388000Y-138403300D02*
X205632000Y-138403300D01*
X209135000Y-138123300D02*
X204885000Y-138123300D01*
X205769000Y-136763300D02*
X203118000Y-136763300D01*
X211975000Y-134563300D02*
X202045000Y-134563300D01*
X211333000Y-136163300D02*
X208251000Y-136163300D01*
X211907000Y-134843300D02*
X208251000Y-134843300D01*
X211090000Y-136523300D02*
X208251000Y-136523300D01*
X210216000Y-137443300D02*
X203804000Y-137443300D01*
X211555000Y-135763300D02*
X208251000Y-135763300D01*
X210611000Y-137083300D02*
X208251000Y-137083300D01*
X210868000Y-136803300D02*
X208251000Y-136803300D01*
X205769000Y-134843300D02*
X202113000Y-134843300D01*
X212007000Y-134403300D02*
X202013000Y-134403300D01*
X205769000Y-137003300D02*
X203331000Y-137003300D01*
X209589000Y-137883300D02*
X204431000Y-137883300D01*
X209840000Y-137723300D02*
X204180000Y-137723300D01*
X210357000Y-137323300D02*
X203663000Y-137323300D01*
X211917000Y-134803300D02*
X208251000Y-134803300D01*
X211493000Y-135883300D02*
X208251000Y-135883300D01*
X212000000Y-134443300D02*
X202020000Y-134443300D01*
X210935000Y-136723300D02*
X208251000Y-136723300D01*
X205769000Y-136043300D02*
X202615000Y-136043300D01*
X209520000Y-137923300D02*
X204500000Y-137923300D01*
X211821000Y-135123300D02*
X208251000Y-135123300D01*
X208752000Y-138283300D02*
X205268000Y-138283300D01*
X212088000Y-133642300D02*
X201932000Y-133642300D01*
X212064000Y-134002300D02*
X201956000Y-134002300D01*
X212078000Y-133842300D02*
X201942000Y-133842300D01*
X212072000Y-133922300D02*
X201948000Y-133922300D01*
X205769000Y-136203300D02*
X202712000Y-136203300D01*
X211649000Y-135563300D02*
X208251000Y-135563300D01*
X205769000Y-135403300D02*
X202303000Y-135403300D01*
X205769000Y-137083300D02*
X203409000Y-137083300D01*
X212090000Y-133562300D02*
X201930000Y-133562300D01*
X211231000Y-136323300D02*
X208251000Y-136323300D01*
X211966000Y-134603300D02*
X202054000Y-134603300D01*
X211450000Y-135963300D02*
X208251000Y-135963300D01*
X207609000Y-138563300D02*
X206411000Y-138563300D01*
X205769000Y-134923300D02*
X202136000Y-134923300D01*
X211984000Y-134523300D02*
X202036000Y-134523300D01*
X211283000Y-136243300D02*
X208251000Y-136243300D01*
X212089000Y-133602300D02*
X201931000Y-133602300D01*
X205769000Y-135003300D02*
X202160000Y-135003300D01*
X212085000Y-133722300D02*
X201935000Y-133722300D01*
X211895000Y-134883300D02*
X208251000Y-134883300D01*
X205769000Y-135803300D02*
X202485000Y-135803300D01*
X205769000Y-136123300D02*
X202663000Y-136123300D01*
X210967000Y-136683300D02*
X208251000Y-136683300D01*
X212060000Y-134042300D02*
X201960000Y-134042300D01*
X210010000Y-137603300D02*
X204010000Y-137603300D01*
X211884000Y-134923300D02*
X208251000Y-134923300D01*
X209655000Y-137843300D02*
X204365000Y-137843300D01*
X205769000Y-136363300D02*
X202816000Y-136363300D01*
X211060000Y-136563300D02*
X208251000Y-136563300D01*
X210999000Y-136643300D02*
X208251000Y-136643300D01*
X211204000Y-136363300D02*
X208251000Y-136363300D01*
X210763000Y-136923300D02*
X208251000Y-136923300D01*
X210116000Y-137523300D02*
X203904000Y-137523300D01*
X210402000Y-137283300D02*
X203618000Y-137283300D01*
X212130000Y-133482300D02*
G75*
G03*
X212130000Y-133482300I-5120000J0D01*
G01*
%TO.C,R6*%
X100680000Y-74310000D02*
X100680000Y-70470000D01*
X102520000Y-74310000D02*
X102520000Y-70470000D01*
%TO.C,C21*%
X79170000Y-120911000D02*
X78930000Y-120911000D01*
X82090000Y-119110000D02*
X77930000Y-119110000D01*
X81562000Y-120511000D02*
X80850000Y-120511000D01*
X81597000Y-120471000D02*
X80850000Y-120471000D01*
X79170000Y-120831000D02*
X78810000Y-120831000D01*
X79170000Y-120551000D02*
X78494000Y-120551000D01*
X82087000Y-119230000D02*
X77933000Y-119230000D01*
X79170000Y-120631000D02*
X78572000Y-120631000D01*
X80674000Y-121111000D02*
X79346000Y-121111000D01*
X79170000Y-120351000D02*
X78330000Y-120351000D01*
X79170000Y-120751000D02*
X78706000Y-120751000D01*
X79170000Y-120391000D02*
X78360000Y-120391000D01*
X81795000Y-120191000D02*
X80850000Y-120191000D01*
X81205000Y-116840199D02*
X81205000Y-117240199D01*
X79170000Y-119550000D02*
X77976000Y-119550000D01*
X81917000Y-119951000D02*
X80850000Y-119951000D01*
X81314000Y-120751000D02*
X80850000Y-120751000D01*
X81950000Y-119871000D02*
X80850000Y-119871000D01*
X79170000Y-120271000D02*
X78275000Y-120271000D01*
X81840000Y-120111000D02*
X80850000Y-120111000D01*
X79170000Y-120151000D02*
X78202000Y-120151000D01*
X81361000Y-120711000D02*
X80850000Y-120711000D01*
X82052000Y-119510000D02*
X80850000Y-119510000D01*
X79170000Y-119390000D02*
X77948000Y-119390000D01*
X79170000Y-119310000D02*
X77939000Y-119310000D01*
X79170000Y-120031000D02*
X78140000Y-120031000D01*
X79170000Y-119590000D02*
X77985000Y-119590000D01*
X79170000Y-120791000D02*
X78756000Y-120791000D01*
X80380000Y-121191000D02*
X79640000Y-121191000D01*
X79170000Y-119951000D02*
X78103000Y-119951000D01*
X81660000Y-120391000D02*
X80850000Y-120391000D01*
X81448000Y-120631000D02*
X80850000Y-120631000D01*
X79170000Y-119470000D02*
X77960000Y-119470000D01*
X79170000Y-119430000D02*
X77954000Y-119430000D01*
X82081000Y-119310000D02*
X80850000Y-119310000D01*
X79170000Y-120471000D02*
X78423000Y-120471000D01*
X81964000Y-119831000D02*
X80850000Y-119831000D01*
X81690000Y-120351000D02*
X80850000Y-120351000D01*
X81992000Y-119750000D02*
X80850000Y-119750000D01*
X81978000Y-119790000D02*
X80850000Y-119790000D01*
X79170000Y-119670000D02*
X78005000Y-119670000D01*
X80950000Y-120991000D02*
X79070000Y-120991000D01*
X79170000Y-120111000D02*
X78180000Y-120111000D01*
X82072000Y-119390000D02*
X80850000Y-119390000D01*
X82077000Y-119350000D02*
X80850000Y-119350000D01*
X81818000Y-120151000D02*
X80850000Y-120151000D01*
X81488000Y-120591000D02*
X80850000Y-120591000D01*
X81210000Y-120831000D02*
X80850000Y-120831000D01*
X82015000Y-119670000D02*
X80850000Y-119670000D01*
X81405000Y-117040199D02*
X81005000Y-117040199D01*
X79170000Y-120591000D02*
X78532000Y-120591000D01*
X80547000Y-121151000D02*
X79473000Y-121151000D01*
X81745000Y-120271000D02*
X80850000Y-120271000D01*
X81526000Y-120551000D02*
X80850000Y-120551000D01*
X79170000Y-120671000D02*
X78614000Y-120671000D01*
X82084000Y-119270000D02*
X77936000Y-119270000D01*
X79170000Y-119630000D02*
X77994000Y-119630000D01*
X81899000Y-119991000D02*
X80850000Y-119991000D01*
X79170000Y-120231000D02*
X78250000Y-120231000D01*
X82004000Y-119710000D02*
X80850000Y-119710000D01*
X81152000Y-120871000D02*
X80850000Y-120871000D01*
X79170000Y-120871000D02*
X78868000Y-120871000D01*
X81718000Y-120311000D02*
X80850000Y-120311000D01*
X81934000Y-119911000D02*
X80850000Y-119911000D01*
X79170000Y-119911000D02*
X78086000Y-119911000D01*
X82044000Y-119550000D02*
X80850000Y-119550000D01*
X81880000Y-120031000D02*
X80850000Y-120031000D01*
X79170000Y-119350000D02*
X77943000Y-119350000D01*
X80778000Y-121071000D02*
X79242000Y-121071000D01*
X82066000Y-119430000D02*
X80850000Y-119430000D01*
X79170000Y-120311000D02*
X78302000Y-120311000D01*
X82090000Y-119150000D02*
X77930000Y-119150000D01*
X81406000Y-120671000D02*
X80850000Y-120671000D01*
X81264000Y-120791000D02*
X80850000Y-120791000D01*
X79170000Y-119510000D02*
X77968000Y-119510000D01*
X82060000Y-119470000D02*
X80850000Y-119470000D01*
X82089000Y-119190000D02*
X77931000Y-119190000D01*
X82035000Y-119590000D02*
X80850000Y-119590000D01*
X79170000Y-120711000D02*
X78659000Y-120711000D01*
X81090000Y-120911000D02*
X80850000Y-120911000D01*
X79170000Y-119831000D02*
X78056000Y-119831000D01*
X81861000Y-120071000D02*
X80850000Y-120071000D01*
X79170000Y-120431000D02*
X78391000Y-120431000D01*
X79170000Y-119710000D02*
X78016000Y-119710000D01*
X81629000Y-120431000D02*
X80850000Y-120431000D01*
X79170000Y-119871000D02*
X78070000Y-119871000D01*
X80869000Y-121031000D02*
X79151000Y-121031000D01*
X79170000Y-119991000D02*
X78121000Y-119991000D01*
X81770000Y-120231000D02*
X80850000Y-120231000D01*
X79170000Y-120511000D02*
X78458000Y-120511000D01*
X79170000Y-120191000D02*
X78225000Y-120191000D01*
X82026000Y-119630000D02*
X80850000Y-119630000D01*
X81023000Y-120951000D02*
X78997000Y-120951000D01*
X79170000Y-119790000D02*
X78042000Y-119790000D01*
X79170000Y-119750000D02*
X78028000Y-119750000D01*
X79170000Y-120071000D02*
X78159000Y-120071000D01*
X82130000Y-119110000D02*
G75*
G03*
X82130000Y-119110000I-2120000J0D01*
G01*
%TO.C,U5*%
X97485000Y-102925000D02*
X97485000Y-85025000D01*
X94235000Y-85025000D02*
X92985000Y-85025000D01*
X92985000Y-102925000D02*
X97485000Y-102925000D01*
X92985000Y-85025000D02*
X92985000Y-102925000D01*
X97485000Y-85025000D02*
X96235000Y-85025000D01*
X94235000Y-85025000D02*
G75*
G03*
X96235000Y-85025000I1000000J0D01*
G01*
%TO.C,J1*%
X77310000Y-73350000D02*
X73980000Y-73350000D01*
X62350000Y-73350000D02*
X62350000Y-72700000D01*
X77310000Y-86670000D02*
X73980000Y-86670000D01*
X62350000Y-73350000D02*
X70460000Y-73350000D01*
X62350000Y-87320000D02*
X62350000Y-86670000D01*
X77530000Y-75610000D02*
X77530000Y-77410000D01*
X61830000Y-87320000D02*
X62350000Y-87320000D01*
X77310000Y-73350000D02*
X77310000Y-86670000D01*
X70460000Y-86670000D02*
X62350000Y-86670000D01*
X62350000Y-72700000D02*
X61830000Y-72700000D01*
X61830000Y-72700000D02*
X61830000Y-87320000D01*
%TO.C,C20*%
X80674000Y-114761000D02*
X79346000Y-114761000D01*
X79170000Y-113761000D02*
X78180000Y-113761000D01*
X81405000Y-110690199D02*
X81005000Y-110690199D01*
X81899000Y-113641000D02*
X80850000Y-113641000D01*
X82035000Y-113240000D02*
X80850000Y-113240000D01*
X79170000Y-113481000D02*
X78056000Y-113481000D01*
X81597000Y-114121000D02*
X80850000Y-114121000D01*
X81264000Y-114441000D02*
X80850000Y-114441000D01*
X79170000Y-113320000D02*
X78005000Y-113320000D01*
X81718000Y-113961000D02*
X80850000Y-113961000D01*
X80778000Y-114721000D02*
X79242000Y-114721000D01*
X82015000Y-113320000D02*
X80850000Y-113320000D01*
X80380000Y-114841000D02*
X79640000Y-114841000D01*
X79170000Y-114401000D02*
X78706000Y-114401000D01*
X81629000Y-114081000D02*
X80850000Y-114081000D01*
X79170000Y-113160000D02*
X77968000Y-113160000D01*
X79170000Y-113921000D02*
X78275000Y-113921000D01*
X81562000Y-114161000D02*
X80850000Y-114161000D01*
X79170000Y-113040000D02*
X77948000Y-113040000D01*
X81978000Y-113440000D02*
X80850000Y-113440000D01*
X82087000Y-112880000D02*
X77933000Y-112880000D01*
X82089000Y-112840000D02*
X77931000Y-112840000D01*
X80547000Y-114801000D02*
X79473000Y-114801000D01*
X79170000Y-114161000D02*
X78458000Y-114161000D01*
X79170000Y-114001000D02*
X78330000Y-114001000D01*
X79170000Y-113280000D02*
X77994000Y-113280000D01*
X81840000Y-113761000D02*
X80850000Y-113761000D01*
X82084000Y-112920000D02*
X77936000Y-112920000D01*
X81090000Y-114561000D02*
X80850000Y-114561000D01*
X79170000Y-113561000D02*
X78086000Y-113561000D01*
X81660000Y-114041000D02*
X80850000Y-114041000D01*
X82066000Y-113080000D02*
X80850000Y-113080000D01*
X79170000Y-114121000D02*
X78423000Y-114121000D01*
X82090000Y-112800000D02*
X77930000Y-112800000D01*
X81152000Y-114521000D02*
X80850000Y-114521000D01*
X79170000Y-113841000D02*
X78225000Y-113841000D01*
X81210000Y-114481000D02*
X80850000Y-114481000D01*
X79170000Y-113240000D02*
X77985000Y-113240000D01*
X79170000Y-113080000D02*
X77954000Y-113080000D01*
X79170000Y-114081000D02*
X78391000Y-114081000D01*
X81818000Y-113801000D02*
X80850000Y-113801000D01*
X79170000Y-113601000D02*
X78103000Y-113601000D01*
X81023000Y-114601000D02*
X78997000Y-114601000D01*
X82044000Y-113200000D02*
X80850000Y-113200000D01*
X81992000Y-113400000D02*
X80850000Y-113400000D01*
X79170000Y-113881000D02*
X78250000Y-113881000D01*
X82081000Y-112960000D02*
X80850000Y-112960000D01*
X81314000Y-114401000D02*
X80850000Y-114401000D01*
X79170000Y-113200000D02*
X77976000Y-113200000D01*
X79170000Y-113360000D02*
X78016000Y-113360000D01*
X79170000Y-114361000D02*
X78659000Y-114361000D01*
X82004000Y-113360000D02*
X80850000Y-113360000D01*
X79170000Y-114561000D02*
X78930000Y-114561000D01*
X81880000Y-113681000D02*
X80850000Y-113681000D01*
X79170000Y-114521000D02*
X78868000Y-114521000D01*
X81205000Y-110490199D02*
X81205000Y-110890199D01*
X79170000Y-113521000D02*
X78070000Y-113521000D01*
X82060000Y-113120000D02*
X80850000Y-113120000D01*
X81690000Y-114001000D02*
X80850000Y-114001000D01*
X79170000Y-113681000D02*
X78140000Y-113681000D01*
X79170000Y-113801000D02*
X78202000Y-113801000D01*
X81964000Y-113481000D02*
X80850000Y-113481000D01*
X79170000Y-113120000D02*
X77960000Y-113120000D01*
X79170000Y-113721000D02*
X78159000Y-113721000D01*
X80869000Y-114681000D02*
X79151000Y-114681000D01*
X81361000Y-114361000D02*
X80850000Y-114361000D01*
X79170000Y-113000000D02*
X77943000Y-113000000D01*
X81770000Y-113881000D02*
X80850000Y-113881000D01*
X79170000Y-113961000D02*
X78302000Y-113961000D01*
X81795000Y-113841000D02*
X80850000Y-113841000D01*
X79170000Y-112960000D02*
X77939000Y-112960000D01*
X82052000Y-113160000D02*
X80850000Y-113160000D01*
X81448000Y-114281000D02*
X80850000Y-114281000D01*
X81934000Y-113561000D02*
X80850000Y-113561000D01*
X79170000Y-114041000D02*
X78360000Y-114041000D01*
X81861000Y-113721000D02*
X80850000Y-113721000D01*
X82077000Y-113000000D02*
X80850000Y-113000000D01*
X80950000Y-114641000D02*
X79070000Y-114641000D01*
X81745000Y-113921000D02*
X80850000Y-113921000D01*
X79170000Y-114441000D02*
X78756000Y-114441000D01*
X79170000Y-114281000D02*
X78572000Y-114281000D01*
X82026000Y-113280000D02*
X80850000Y-113280000D01*
X81406000Y-114321000D02*
X80850000Y-114321000D01*
X79170000Y-114201000D02*
X78494000Y-114201000D01*
X79170000Y-113440000D02*
X78042000Y-113440000D01*
X81526000Y-114201000D02*
X80850000Y-114201000D01*
X81950000Y-113521000D02*
X80850000Y-113521000D01*
X81488000Y-114241000D02*
X80850000Y-114241000D01*
X79170000Y-113641000D02*
X78121000Y-113641000D01*
X79170000Y-113400000D02*
X78028000Y-113400000D01*
X82072000Y-113040000D02*
X80850000Y-113040000D01*
X81917000Y-113601000D02*
X80850000Y-113601000D01*
X79170000Y-114241000D02*
X78532000Y-114241000D01*
X79170000Y-114321000D02*
X78614000Y-114321000D01*
X79170000Y-114481000D02*
X78810000Y-114481000D01*
X82090000Y-112760000D02*
X77930000Y-112760000D01*
X82130000Y-112760000D02*
G75*
G03*
X82130000Y-112760000I-2120000J0D01*
G01*
%TO.C,C8*%
X199948748Y-127275000D02*
X201371252Y-127275000D01*
X199948748Y-125455000D02*
X201371252Y-125455000D01*
%TO.C,C17*%
X97371000Y-107520000D02*
X97371000Y-108440000D01*
X96690000Y-104646000D02*
X96690000Y-105840000D01*
X97171000Y-107520000D02*
X97171000Y-108550000D01*
X98131000Y-105740000D02*
X98131000Y-107620000D01*
X97331000Y-104895000D02*
X97331000Y-105840000D01*
X96730000Y-107520000D02*
X96730000Y-108705000D01*
X96730000Y-104655000D02*
X96730000Y-105840000D01*
X97091000Y-104773000D02*
X97091000Y-105840000D01*
X97971000Y-105480000D02*
X97971000Y-105840000D01*
X97891000Y-107520000D02*
X97891000Y-107984000D01*
X94180199Y-105285000D02*
X94180199Y-105685000D01*
X97531000Y-105030000D02*
X97531000Y-105840000D01*
X96330000Y-104601000D02*
X96330000Y-108759000D01*
X97771000Y-107520000D02*
X97771000Y-108118000D01*
X96530000Y-104618000D02*
X96530000Y-105840000D01*
X96490000Y-104613000D02*
X96490000Y-105840000D01*
X97651000Y-107520000D02*
X97651000Y-108232000D01*
X97891000Y-105376000D02*
X97891000Y-105840000D01*
X98091000Y-105667000D02*
X98091000Y-107693000D01*
X96610000Y-104630000D02*
X96610000Y-105840000D01*
X97691000Y-107520000D02*
X97691000Y-108196000D01*
X98211000Y-105912000D02*
X98211000Y-107448000D01*
X97691000Y-105164000D02*
X97691000Y-105840000D01*
X97011000Y-104740000D02*
X97011000Y-105840000D01*
X96410000Y-104606000D02*
X96410000Y-108754000D01*
X97731000Y-105202000D02*
X97731000Y-105840000D01*
X97971000Y-107520000D02*
X97971000Y-107880000D01*
X97491000Y-105000000D02*
X97491000Y-105840000D01*
X97651000Y-105128000D02*
X97651000Y-105840000D01*
X97051000Y-107520000D02*
X97051000Y-108604000D01*
X97811000Y-107520000D02*
X97811000Y-108076000D01*
X97371000Y-104920000D02*
X97371000Y-105840000D01*
X98011000Y-105538000D02*
X98011000Y-105840000D01*
X96770000Y-104664000D02*
X96770000Y-105840000D01*
X97131000Y-107520000D02*
X97131000Y-108569000D01*
X97491000Y-107520000D02*
X97491000Y-108360000D01*
X98291000Y-106143000D02*
X98291000Y-107217000D01*
X97931000Y-105426000D02*
X97931000Y-105840000D01*
X97611000Y-107520000D02*
X97611000Y-108267000D01*
X97051000Y-104756000D02*
X97051000Y-105840000D01*
X96490000Y-107520000D02*
X96490000Y-108747000D01*
X97731000Y-107520000D02*
X97731000Y-108158000D01*
X96530000Y-107520000D02*
X96530000Y-108742000D01*
X96450000Y-107520000D02*
X96450000Y-108751000D01*
X97011000Y-107520000D02*
X97011000Y-108620000D01*
X96610000Y-107520000D02*
X96610000Y-108730000D01*
X97571000Y-105061000D02*
X97571000Y-105840000D01*
X96810000Y-104675000D02*
X96810000Y-105840000D01*
X96690000Y-107520000D02*
X96690000Y-108714000D01*
X96770000Y-107520000D02*
X96770000Y-108696000D01*
X96250000Y-104600000D02*
X96250000Y-108760000D01*
X97451000Y-104972000D02*
X97451000Y-105840000D01*
X96570000Y-107520000D02*
X96570000Y-108736000D01*
X97851000Y-105329000D02*
X97851000Y-105840000D01*
X97251000Y-104850000D02*
X97251000Y-105840000D01*
X97531000Y-107520000D02*
X97531000Y-108330000D01*
X97411000Y-107520000D02*
X97411000Y-108415000D01*
X97291000Y-104872000D02*
X97291000Y-105840000D01*
X97291000Y-107520000D02*
X97291000Y-108488000D01*
X98171000Y-105821000D02*
X98171000Y-107539000D01*
X97091000Y-107520000D02*
X97091000Y-108587000D01*
X96290000Y-104600000D02*
X96290000Y-108760000D01*
X98331000Y-106310000D02*
X98331000Y-107050000D01*
X97331000Y-107520000D02*
X97331000Y-108465000D01*
X97571000Y-107520000D02*
X97571000Y-108299000D01*
X97171000Y-104810000D02*
X97171000Y-105840000D01*
X96810000Y-107520000D02*
X96810000Y-108685000D01*
X97411000Y-104945000D02*
X97411000Y-105840000D01*
X96450000Y-104609000D02*
X96450000Y-105840000D01*
X96850000Y-104686000D02*
X96850000Y-105840000D01*
X97211000Y-107520000D02*
X97211000Y-108531000D01*
X96971000Y-104726000D02*
X96971000Y-105840000D01*
X97611000Y-105093000D02*
X97611000Y-105840000D01*
X97931000Y-107520000D02*
X97931000Y-107934000D01*
X96650000Y-104638000D02*
X96650000Y-105840000D01*
X96890000Y-104698000D02*
X96890000Y-105840000D01*
X97211000Y-104829000D02*
X97211000Y-105840000D01*
X97811000Y-105284000D02*
X97811000Y-105840000D01*
X98051000Y-107520000D02*
X98051000Y-107760000D01*
X97851000Y-107520000D02*
X97851000Y-108031000D01*
X98051000Y-105600000D02*
X98051000Y-105840000D01*
X96650000Y-107520000D02*
X96650000Y-108722000D01*
X96570000Y-104624000D02*
X96570000Y-105840000D01*
X96930000Y-104712000D02*
X96930000Y-105840000D01*
X96850000Y-107520000D02*
X96850000Y-108674000D01*
X97771000Y-105242000D02*
X97771000Y-105840000D01*
X97251000Y-107520000D02*
X97251000Y-108510000D01*
X96971000Y-107520000D02*
X96971000Y-108634000D01*
X98011000Y-107520000D02*
X98011000Y-107822000D01*
X98251000Y-106016000D02*
X98251000Y-107344000D01*
X96370000Y-104603000D02*
X96370000Y-108757000D01*
X97131000Y-104791000D02*
X97131000Y-105840000D01*
X93980199Y-105485000D02*
X94380199Y-105485000D01*
X96890000Y-107520000D02*
X96890000Y-108662000D01*
X97451000Y-107520000D02*
X97451000Y-108388000D01*
X96930000Y-107520000D02*
X96930000Y-108648000D01*
X98370000Y-106680000D02*
G75*
G03*
X98370000Y-106680000I-2120000J0D01*
G01*
%TO.C,C3*%
X99430000Y-82400000D02*
X96190000Y-82400000D01*
X96190000Y-82400000D02*
X96190000Y-82335000D01*
X99430000Y-80225000D02*
X99430000Y-80160000D01*
X96190000Y-80225000D02*
X96190000Y-80160000D01*
X99430000Y-80160000D02*
X96190000Y-80160000D01*
X99430000Y-82400000D02*
X99430000Y-82335000D01*
%TO.C,RN1*%
X124650000Y-59820000D02*
X124650000Y-57020000D01*
X111610000Y-59820000D02*
X124650000Y-59820000D01*
X111610000Y-57020000D02*
X111610000Y-59820000D01*
X121940000Y-59820000D02*
X121940000Y-57020000D01*
X124650000Y-57020000D02*
X111610000Y-57020000D01*
%TO.C,R3*%
X78090000Y-131730000D02*
X81930000Y-131730000D01*
X78090000Y-129890000D02*
X81930000Y-129890000D01*
%TO.C,U13*%
X86635000Y-109175000D02*
X86635000Y-129615000D01*
X91135000Y-109175000D02*
X89885000Y-109175000D01*
X86635000Y-129615000D02*
X91135000Y-129615000D01*
X91135000Y-129615000D02*
X91135000Y-109175000D01*
X87885000Y-109175000D02*
X86635000Y-109175000D01*
X87885000Y-109175000D02*
G75*
G03*
X89885000Y-109175000I1000000J0D01*
G01*
%TO.C,J3*%
X75148338Y-113250300D02*
X75148338Y-113750300D01*
X74254000Y-103555300D02*
X74254000Y-134525300D01*
X75148338Y-113750300D02*
X74715325Y-113500300D01*
X74254000Y-134525300D02*
X63774000Y-134525300D01*
X63774000Y-103555300D02*
X74254000Y-103555300D01*
X74715325Y-113500300D02*
X75148338Y-113250300D01*
%TO.C,C23*%
X79170000Y-126261000D02*
X78086000Y-126261000D01*
X79170000Y-126741000D02*
X78360000Y-126741000D01*
X81405000Y-123390199D02*
X81005000Y-123390199D01*
X79170000Y-127221000D02*
X78868000Y-127221000D01*
X81745000Y-126621000D02*
X80850000Y-126621000D01*
X81361000Y-127061000D02*
X80850000Y-127061000D01*
X79170000Y-125980000D02*
X77994000Y-125980000D01*
X82081000Y-125660000D02*
X80850000Y-125660000D01*
X81861000Y-126421000D02*
X80850000Y-126421000D01*
X82077000Y-125700000D02*
X80850000Y-125700000D01*
X81934000Y-126261000D02*
X80850000Y-126261000D01*
X81448000Y-126981000D02*
X80850000Y-126981000D01*
X80950000Y-127341000D02*
X79070000Y-127341000D01*
X81205000Y-123190199D02*
X81205000Y-123590199D01*
X79170000Y-126821000D02*
X78423000Y-126821000D01*
X81023000Y-127301000D02*
X78997000Y-127301000D01*
X81770000Y-126581000D02*
X80850000Y-126581000D01*
X79170000Y-126341000D02*
X78121000Y-126341000D01*
X82044000Y-125900000D02*
X80850000Y-125900000D01*
X81840000Y-126461000D02*
X80850000Y-126461000D01*
X79170000Y-126661000D02*
X78302000Y-126661000D01*
X79170000Y-126901000D02*
X78494000Y-126901000D01*
X81818000Y-126501000D02*
X80850000Y-126501000D01*
X81795000Y-126541000D02*
X80850000Y-126541000D01*
X81629000Y-126781000D02*
X80850000Y-126781000D01*
X79170000Y-126861000D02*
X78458000Y-126861000D01*
X80869000Y-127381000D02*
X79151000Y-127381000D01*
X79170000Y-125780000D02*
X77954000Y-125780000D01*
X81718000Y-126661000D02*
X80850000Y-126661000D01*
X79170000Y-126381000D02*
X78140000Y-126381000D01*
X80674000Y-127461000D02*
X79346000Y-127461000D01*
X79170000Y-126621000D02*
X78275000Y-126621000D01*
X82004000Y-126060000D02*
X80850000Y-126060000D01*
X79170000Y-126140000D02*
X78042000Y-126140000D01*
X79170000Y-126060000D02*
X78016000Y-126060000D01*
X81488000Y-126941000D02*
X80850000Y-126941000D01*
X80380000Y-127541000D02*
X79640000Y-127541000D01*
X82090000Y-125460000D02*
X77930000Y-125460000D01*
X79170000Y-126181000D02*
X78056000Y-126181000D01*
X79170000Y-125660000D02*
X77939000Y-125660000D01*
X82035000Y-125940000D02*
X80850000Y-125940000D01*
X79170000Y-126301000D02*
X78103000Y-126301000D01*
X81526000Y-126901000D02*
X80850000Y-126901000D01*
X82090000Y-125500000D02*
X77930000Y-125500000D01*
X82015000Y-126020000D02*
X80850000Y-126020000D01*
X82066000Y-125780000D02*
X80850000Y-125780000D01*
X79170000Y-126541000D02*
X78225000Y-126541000D01*
X79170000Y-125740000D02*
X77948000Y-125740000D01*
X79170000Y-126221000D02*
X78070000Y-126221000D01*
X79170000Y-127181000D02*
X78810000Y-127181000D01*
X79170000Y-126100000D02*
X78028000Y-126100000D01*
X81090000Y-127261000D02*
X80850000Y-127261000D01*
X81964000Y-126181000D02*
X80850000Y-126181000D01*
X81597000Y-126821000D02*
X80850000Y-126821000D01*
X79170000Y-125860000D02*
X77968000Y-125860000D01*
X82052000Y-125860000D02*
X80850000Y-125860000D01*
X81950000Y-126221000D02*
X80850000Y-126221000D01*
X82026000Y-125980000D02*
X80850000Y-125980000D01*
X82072000Y-125740000D02*
X80850000Y-125740000D01*
X79170000Y-127141000D02*
X78756000Y-127141000D01*
X79170000Y-125700000D02*
X77943000Y-125700000D01*
X82060000Y-125820000D02*
X80850000Y-125820000D01*
X81917000Y-126301000D02*
X80850000Y-126301000D01*
X79170000Y-126461000D02*
X78180000Y-126461000D01*
X81264000Y-127141000D02*
X80850000Y-127141000D01*
X79170000Y-125820000D02*
X77960000Y-125820000D01*
X81880000Y-126381000D02*
X80850000Y-126381000D01*
X81899000Y-126341000D02*
X80850000Y-126341000D01*
X79170000Y-126421000D02*
X78159000Y-126421000D01*
X79170000Y-126981000D02*
X78572000Y-126981000D01*
X82089000Y-125540000D02*
X77931000Y-125540000D01*
X79170000Y-126501000D02*
X78202000Y-126501000D01*
X81406000Y-127021000D02*
X80850000Y-127021000D01*
X79170000Y-127021000D02*
X78614000Y-127021000D01*
X81562000Y-126861000D02*
X80850000Y-126861000D01*
X79170000Y-127101000D02*
X78706000Y-127101000D01*
X79170000Y-126781000D02*
X78391000Y-126781000D01*
X79170000Y-126020000D02*
X78005000Y-126020000D01*
X81978000Y-126140000D02*
X80850000Y-126140000D01*
X79170000Y-126701000D02*
X78330000Y-126701000D01*
X79170000Y-127061000D02*
X78659000Y-127061000D01*
X81992000Y-126100000D02*
X80850000Y-126100000D01*
X79170000Y-126581000D02*
X78250000Y-126581000D01*
X81152000Y-127221000D02*
X80850000Y-127221000D01*
X79170000Y-127261000D02*
X78930000Y-127261000D01*
X79170000Y-126941000D02*
X78532000Y-126941000D01*
X82084000Y-125620000D02*
X77936000Y-125620000D01*
X81314000Y-127101000D02*
X80850000Y-127101000D01*
X80547000Y-127501000D02*
X79473000Y-127501000D01*
X82087000Y-125580000D02*
X77933000Y-125580000D01*
X81690000Y-126701000D02*
X80850000Y-126701000D01*
X79170000Y-125940000D02*
X77985000Y-125940000D01*
X81210000Y-127181000D02*
X80850000Y-127181000D01*
X81660000Y-126741000D02*
X80850000Y-126741000D01*
X80778000Y-127421000D02*
X79242000Y-127421000D01*
X79170000Y-125900000D02*
X77976000Y-125900000D01*
X82130000Y-125460000D02*
G75*
G03*
X82130000Y-125460000I-2120000J0D01*
G01*
%TO.C,U1*%
X112340000Y-61810000D02*
X111340000Y-62810000D01*
X135040000Y-85510000D02*
X135040000Y-61810000D01*
X111340000Y-62810000D02*
X111340000Y-85510000D01*
X111340000Y-85510000D02*
X135040000Y-85510000D01*
X135040000Y-61810000D02*
X124190000Y-61810000D01*
X122190000Y-61810000D02*
X112340000Y-61810000D01*
%TO.C,R1*%
X109870000Y-93060000D02*
X106030000Y-93060000D01*
X109870000Y-94900000D02*
X106030000Y-94900000D01*
%TO.C,C16*%
X80445000Y-93747346D02*
X81445000Y-93747346D01*
X80931000Y-84566700D02*
X86709000Y-84566700D01*
X85061000Y-87046700D02*
X88603000Y-87046700D01*
X80566000Y-84846700D02*
X87074000Y-84846700D01*
X78745000Y-88527700D02*
X88895000Y-88527700D01*
X78913000Y-87446700D02*
X82579000Y-87446700D01*
X79449000Y-86166700D02*
X82579000Y-86166700D01*
X81611000Y-84166700D02*
X86029000Y-84166700D01*
X81974000Y-84006700D02*
X85666000Y-84006700D01*
X81050000Y-84486700D02*
X86590000Y-84486700D01*
X78802000Y-87966700D02*
X88838000Y-87966700D01*
X80614000Y-84806700D02*
X87026000Y-84806700D01*
X79009000Y-87126700D02*
X82579000Y-87126700D01*
X85061000Y-85286700D02*
X87536000Y-85286700D01*
X85061000Y-87486700D02*
X88738000Y-87486700D01*
X79800000Y-85646700D02*
X82579000Y-85646700D01*
X81531000Y-84206700D02*
X86109000Y-84206700D01*
X85061000Y-86566700D02*
X88404000Y-86566700D01*
X85061000Y-85886700D02*
X88014000Y-85886700D01*
X79337000Y-86366700D02*
X82579000Y-86366700D01*
X79236000Y-86566700D02*
X82579000Y-86566700D01*
X85061000Y-86606700D02*
X88423000Y-86606700D01*
X80875000Y-84606700D02*
X86765000Y-84606700D01*
X79358000Y-86326700D02*
X82579000Y-86326700D01*
X78785000Y-88087700D02*
X88855000Y-88087700D01*
X78742000Y-88607700D02*
X88898000Y-88607700D01*
X85061000Y-85446700D02*
X87678000Y-85446700D01*
X78758000Y-88327700D02*
X88882000Y-88327700D01*
X78892000Y-87526700D02*
X88748000Y-87526700D01*
X79130000Y-86806700D02*
X82579000Y-86806700D01*
X78923000Y-87406700D02*
X82579000Y-87406700D01*
X81310000Y-84326700D02*
X86330000Y-84326700D01*
X85061000Y-87166700D02*
X88644000Y-87166700D01*
X80714000Y-84726700D02*
X86926000Y-84726700D01*
X78946000Y-87326700D02*
X82579000Y-87326700D01*
X81783000Y-84086700D02*
X85857000Y-84086700D01*
X80031000Y-85366700D02*
X82579000Y-85366700D01*
X85061000Y-86926700D02*
X88558000Y-86926700D01*
X85061000Y-86086700D02*
X88143000Y-86086700D01*
X81111000Y-84446700D02*
X86529000Y-84446700D01*
X85061000Y-85166700D02*
X87421000Y-85166700D01*
X78741000Y-88647700D02*
X88899000Y-88647700D01*
X85061000Y-86686700D02*
X88459000Y-86686700D01*
X79146000Y-86766700D02*
X82579000Y-86766700D01*
X79770000Y-85686700D02*
X82579000Y-85686700D01*
X78823000Y-87846700D02*
X88817000Y-87846700D01*
X85061000Y-85526700D02*
X87745000Y-85526700D01*
X85061000Y-85686700D02*
X87870000Y-85686700D01*
X80473000Y-84926700D02*
X87167000Y-84926700D01*
X85061000Y-86406700D02*
X88324000Y-86406700D01*
X85061000Y-87206700D02*
X88657000Y-87206700D01*
X85061000Y-85806700D02*
X87958000Y-85806700D01*
X80219000Y-85166700D02*
X82579000Y-85166700D01*
X85061000Y-85046700D02*
X87298000Y-85046700D01*
X85061000Y-87446700D02*
X88727000Y-87446700D01*
X80945000Y-94247346D02*
X80945000Y-93247346D01*
X79547000Y-86006700D02*
X82579000Y-86006700D01*
X82590000Y-83806700D02*
X85050000Y-83806700D01*
X78740000Y-88727700D02*
X88900000Y-88727700D01*
X80342000Y-85046700D02*
X82579000Y-85046700D01*
X78846000Y-87726700D02*
X88794000Y-87726700D01*
X85061000Y-87086700D02*
X88617000Y-87086700D01*
X85061000Y-85846700D02*
X87986000Y-85846700D01*
X78855000Y-87686700D02*
X88785000Y-87686700D01*
X81241000Y-84366700D02*
X86399000Y-84366700D01*
X85061000Y-85766700D02*
X87930000Y-85766700D01*
X78752000Y-88407700D02*
X88888000Y-88407700D01*
X78796000Y-88006700D02*
X88844000Y-88006700D01*
X79473000Y-86126700D02*
X82579000Y-86126700D01*
X85061000Y-86286700D02*
X88260000Y-86286700D01*
X79316000Y-86406700D02*
X82579000Y-86406700D01*
X79181000Y-86686700D02*
X82579000Y-86686700D01*
X79626000Y-85886700D02*
X82579000Y-85886700D01*
X85061000Y-87006700D02*
X88588000Y-87006700D01*
X78743000Y-88567700D02*
X88897000Y-88567700D01*
X79654000Y-85846700D02*
X82579000Y-85846700D01*
X79037000Y-87046700D02*
X82579000Y-87046700D01*
X81695000Y-84126700D02*
X85945000Y-84126700D01*
X85061000Y-86646700D02*
X88441000Y-86646700D01*
X85061000Y-86006700D02*
X88093000Y-86006700D01*
X85061000Y-87126700D02*
X88631000Y-87126700D01*
X80259000Y-85126700D02*
X82579000Y-85126700D01*
X85061000Y-85326700D02*
X87573000Y-85326700D01*
X79425000Y-86206700D02*
X82579000Y-86206700D01*
X78747000Y-88487700D02*
X88893000Y-88487700D01*
X78780000Y-88127700D02*
X88860000Y-88127700D01*
X85061000Y-87286700D02*
X88682000Y-87286700D01*
X78740000Y-88687700D02*
X88900000Y-88687700D01*
X80180000Y-85206700D02*
X82579000Y-85206700D01*
X85061000Y-86766700D02*
X88494000Y-86766700D01*
X79403000Y-86246700D02*
X82579000Y-86246700D01*
X78809000Y-87926700D02*
X88831000Y-87926700D01*
X79256000Y-86526700D02*
X82579000Y-86526700D01*
X82078000Y-83966700D02*
X85562000Y-83966700D01*
X85061000Y-85246700D02*
X87499000Y-85246700D01*
X79682000Y-85806700D02*
X82579000Y-85806700D01*
X79497000Y-86086700D02*
X82579000Y-86086700D01*
X85061000Y-85486700D02*
X87712000Y-85486700D01*
X79996000Y-85406700D02*
X82579000Y-85406700D01*
X83221000Y-83686700D02*
X84419000Y-83686700D01*
X78838000Y-87766700D02*
X88802000Y-87766700D01*
X85061000Y-85086700D02*
X87340000Y-85086700D01*
X85061000Y-86846700D02*
X88527000Y-86846700D01*
X80766000Y-84686700D02*
X86874000Y-84686700D01*
X81381000Y-84286700D02*
X86259000Y-84286700D01*
X78740000Y-88767700D02*
X88900000Y-88767700D01*
X78766000Y-88247700D02*
X88874000Y-88247700D01*
X79097000Y-86886700D02*
X82579000Y-86886700D01*
X85061000Y-85206700D02*
X87460000Y-85206700D01*
X85061000Y-86886700D02*
X88543000Y-86886700D01*
X79023000Y-87086700D02*
X82579000Y-87086700D01*
X79066000Y-86966700D02*
X82579000Y-86966700D01*
X85061000Y-87366700D02*
X88705000Y-87366700D01*
X85061000Y-85606700D02*
X87809000Y-85606700D01*
X85061000Y-86726700D02*
X88477000Y-86726700D01*
X85061000Y-86366700D02*
X88303000Y-86366700D01*
X80384000Y-85006700D02*
X87256000Y-85006700D01*
X80067000Y-85326700D02*
X82579000Y-85326700D01*
X85061000Y-86446700D02*
X88345000Y-86446700D01*
X78750000Y-88447700D02*
X88890000Y-88447700D01*
X85061000Y-85406700D02*
X87644000Y-85406700D01*
X85061000Y-87246700D02*
X88670000Y-87246700D01*
X79740000Y-85726700D02*
X82579000Y-85726700D01*
X78958000Y-87286700D02*
X82579000Y-87286700D01*
X78983000Y-87206700D02*
X82579000Y-87206700D01*
X78755000Y-88367700D02*
X88885000Y-88367700D01*
X79599000Y-85926700D02*
X82579000Y-85926700D01*
X80820000Y-84646700D02*
X86820000Y-84646700D01*
X85061000Y-85926700D02*
X88041000Y-85926700D01*
X78770000Y-88207700D02*
X88870000Y-88207700D01*
X80664000Y-84766700D02*
X86976000Y-84766700D01*
X79199000Y-86646700D02*
X82579000Y-86646700D01*
X85061000Y-86046700D02*
X88118000Y-86046700D01*
X85061000Y-86126700D02*
X88167000Y-86126700D01*
X85061000Y-85646700D02*
X87840000Y-85646700D01*
X80990000Y-84526700D02*
X86650000Y-84526700D01*
X79295000Y-86446700D02*
X82579000Y-86446700D01*
X82442000Y-83846700D02*
X85198000Y-83846700D01*
X85061000Y-85366700D02*
X87609000Y-85366700D01*
X78935000Y-87366700D02*
X82579000Y-87366700D01*
X79113000Y-86846700D02*
X82579000Y-86846700D01*
X80300000Y-85086700D02*
X82579000Y-85086700D01*
X79082000Y-86926700D02*
X82579000Y-86926700D01*
X78902000Y-87486700D02*
X82579000Y-87486700D01*
X78882000Y-87566700D02*
X88758000Y-87566700D01*
X80104000Y-85286700D02*
X82579000Y-85286700D01*
X85061000Y-86206700D02*
X88215000Y-86206700D01*
X82758000Y-83766700D02*
X84882000Y-83766700D01*
X80141000Y-85246700D02*
X82579000Y-85246700D01*
X79275000Y-86486700D02*
X82579000Y-86486700D01*
X85061000Y-86486700D02*
X88365000Y-86486700D01*
X85061000Y-87406700D02*
X88717000Y-87406700D01*
X85061000Y-85126700D02*
X87381000Y-85126700D01*
X85061000Y-85566700D02*
X87777000Y-85566700D01*
X82958000Y-83726700D02*
X84682000Y-83726700D01*
X85061000Y-86526700D02*
X88384000Y-86526700D01*
X79522000Y-86046700D02*
X82579000Y-86046700D01*
X79052000Y-87006700D02*
X82579000Y-87006700D01*
X80428000Y-84966700D02*
X87212000Y-84966700D01*
X79217000Y-86606700D02*
X82579000Y-86606700D01*
X82190000Y-83926700D02*
X85450000Y-83926700D01*
X79928000Y-85486700D02*
X82579000Y-85486700D01*
X85061000Y-85726700D02*
X87900000Y-85726700D01*
X81455000Y-84246700D02*
X86185000Y-84246700D01*
X81175000Y-84406700D02*
X86465000Y-84406700D01*
X85061000Y-86966700D02*
X88574000Y-86966700D01*
X85061000Y-86246700D02*
X88237000Y-86246700D01*
X80519000Y-84886700D02*
X87121000Y-84886700D01*
X85061000Y-86326700D02*
X88282000Y-86326700D01*
X85061000Y-85966700D02*
X88067000Y-85966700D01*
X78816000Y-87886700D02*
X88824000Y-87886700D01*
X78970000Y-87246700D02*
X82579000Y-87246700D01*
X79573000Y-85966700D02*
X82579000Y-85966700D01*
X78762000Y-88287700D02*
X88878000Y-88287700D01*
X79163000Y-86726700D02*
X82579000Y-86726700D01*
X85061000Y-86806700D02*
X88510000Y-86806700D01*
X85061000Y-87326700D02*
X88694000Y-87326700D01*
X78864000Y-87646700D02*
X88776000Y-87646700D01*
X78996000Y-87166700D02*
X82579000Y-87166700D01*
X78775000Y-88167700D02*
X88865000Y-88167700D01*
X79831000Y-85606700D02*
X82579000Y-85606700D01*
X78830000Y-87806700D02*
X88810000Y-87806700D01*
X79863000Y-85566700D02*
X82579000Y-85566700D01*
X79710000Y-85766700D02*
X82579000Y-85766700D01*
X85061000Y-86166700D02*
X88191000Y-86166700D01*
X79895000Y-85526700D02*
X82579000Y-85526700D01*
X78873000Y-87606700D02*
X88767000Y-87606700D01*
X78790000Y-88046700D02*
X88850000Y-88046700D01*
X79380000Y-86286700D02*
X82579000Y-86286700D01*
X82310000Y-83886700D02*
X85330000Y-83886700D01*
X79962000Y-85446700D02*
X82579000Y-85446700D01*
X81876000Y-84046700D02*
X85764000Y-84046700D01*
X88940000Y-88767700D02*
G75*
G03*
X88940000Y-88767700I-5120000J0D01*
G01*
%TD*%
M02*
