M48
; DRILL file {KiCad 6.0.5-a6ca702e91~116~ubuntu20.04.1} date Sun 22 May 2022 07:56:09 PM CEST
; FORMAT={-:-/ absolute / inch / decimal}
; #@! TF.CreationDate,2022-05-22T19:56:09+02:00
; #@! TF.GenerationSoftware,Kicad,Pcbnew,6.0.5-a6ca702e91~116~ubuntu20.04.1
; #@! TF.FileFunction,Plated,1,4,PTH
FMAT,2
INCH
; #@! TA.AperFunction,Plated,PTH,ComponentDrill
T1C0.0236
; #@! TA.AperFunction,Plated,PTH,ViaDrill
T2C0.0250
; #@! TA.AperFunction,Plated,PTH,ComponentDrill
T3C0.0276
; #@! TA.AperFunction,Plated,PTH,ComponentDrill
T4C0.0315
; #@! TA.AperFunction,Plated,PTH,ComponentDrill
T5C0.0374
; #@! TA.AperFunction,Plated,PTH,ComponentDrill
T6C0.0394
; #@! TA.AperFunction,Plated,PTH,ComponentDrill
T7C0.0433
; #@! TA.AperFunction,Plated,PTH,ComponentDrill
T8C0.0906
; #@! TA.AperFunction,Plated,PTH,ComponentDrill
T9C0.1181
; #@! TA.AperFunction,Plated,PTH,ComponentDrill
T10C0.1260
%
G90
G05
T1
X3.15Y-4.15
X3.15Y-4.2287
X3.15Y-4.4
X3.15Y-4.4787
X3.15Y-4.65
X3.15Y-4.7287
X3.15Y-4.9
X3.15Y-4.9787
X3.75Y-4.2
X3.8213Y-2.55
X3.8287Y-4.2
X3.9Y-2.55
T2
X4.3637Y-3.1496
X4.4Y-2.91
X4.4Y-4.134
X4.4521Y-3.2702
X4.5109Y-4.2252
X4.5472Y-3.3635
X4.757Y-2.7627
X4.8373Y-3.4581
X4.885Y-5.065
X4.9193Y-4.7841
X5.05Y-2.685
X5.1517Y-3.5899
X5.2166Y-3.3499
X5.258Y-4.1225
X5.2592Y-3.8421
X5.2593Y-2.895
X5.3162Y-4.1385
X5.3207Y-3.3748
X5.3289Y-3.9677
X5.3647Y-3.7429
X5.3979Y-4.008
X5.4333Y-4.0786
X5.4472Y-4.1608
X5.4525Y-3.9424
X5.4582Y-2.8543
X5.4597Y-4.1158
X5.4688Y-3.0255
X5.4815Y-3.2081
X5.4899Y-2.9707
X5.5098Y-3.136
X5.5326Y-3.66
X5.5567Y-3.9279
X5.6159Y-3.8338
X5.65Y-2.85
X5.6511Y-4.0519
X5.6545Y-4.146
X5.9463Y-3.6653
X5.9494Y-3.7103
X6.0465Y-3.5339
X6.0608Y-3.9028
X6.104Y-3.532
X6.139Y-4.85
X6.2037Y-3.74
X6.205Y-4.305
X6.215Y-3.865
X6.31Y-3.04
X6.3338Y-3.6832
X6.4Y-2.185
X6.4028Y-4.9902
X6.485Y-4.2
X6.5774Y-3.9197
X6.65Y-3.317
X6.775Y-4.375
X6.855Y-3.92
X6.91Y-3.405
X6.9387Y-5.2279
X7.125Y-2.47
X7.19Y-4.115
X7.225Y-4.59
X7.23Y-4.285
X7.34Y-3.32
X7.425Y-3.215
X7.4481Y-5.1551
X7.49Y-3.285
X7.5135Y-3.2079
X7.535Y-3.11
X7.5492Y-4.3886
X7.6556Y-3.3461
X7.7325Y-3.4466
X7.9223Y-5.1954
X7.9673Y-4.5026
X8.001Y-3.7575
X8.0051Y-2.0355
X8.0232Y-4.35
X8.0415Y-1.9795
X8.37Y-4.325
X8.3787Y-3.6778
X8.3805Y-3.5527
T3
X3.05Y-5.15
X3.25Y-5.15
X3.45Y-2.85
X3.45Y-3.05
X4.0Y-2.75
X4.0Y-2.95
X4.15Y-3.7
X4.15Y-3.8
X4.35Y-3.7
X4.35Y-3.8
T4
X3.3494Y-4.3506
X3.3494Y-4.4506
X3.3494Y-4.5506
X3.3494Y-4.6506
X3.3494Y-4.7506
X3.3494Y-4.8506
X3.3494Y-4.9506
X3.3494Y-5.0506
X3.5994Y-3.3998
X3.5994Y-3.4998
X3.5994Y-3.5998
X3.5994Y-3.6998
X3.5994Y-3.7998
X3.5994Y-3.8998
X3.5994Y-3.9998
X3.6004Y-2.7504
X3.6004Y-2.8504
X3.6004Y-2.9504
X3.6004Y-3.0504
X3.6016Y-2.6
X3.6494Y-4.3506
X3.6494Y-4.4506
X3.6494Y-4.5506
X3.6494Y-4.6506
X3.6494Y-4.7506
X3.6494Y-4.8506
X3.6494Y-4.9506
X3.6494Y-5.0506
X3.7Y-2.6
X3.8016Y-3.2
X3.8994Y-3.3998
X3.8994Y-3.4998
X3.8994Y-3.5998
X3.8994Y-3.6998
X3.8994Y-3.7998
X3.8994Y-3.8998
X3.8994Y-3.9998
X3.9Y-3.2
X3.9004Y-2.7504
X3.9004Y-2.8504
X3.9004Y-2.9504
X3.9004Y-3.0504
X4.05Y-4.4
X4.05Y-4.5
X4.05Y-4.6
X4.05Y-4.7
X4.05Y-4.8
X4.05Y-4.9
X4.15Y-4.3
X4.15Y-4.4
X4.15Y-4.5
X4.15Y-4.6
X4.15Y-4.7
X4.15Y-4.8
X4.15Y-4.9
X4.15Y-5.0
X4.25Y-4.3
X4.25Y-4.4
X4.25Y-4.9
X4.25Y-5.0
X4.35Y-4.3
X4.35Y-4.4
X4.35Y-4.9
X4.35Y-5.0
X4.45Y-4.3
X4.45Y-4.4
X4.45Y-4.9
X4.45Y-5.0
X4.4508Y-2.3
X4.5Y-2.65
X4.5Y-2.75
X4.5Y-2.85
X4.5Y-2.95
X4.5Y-3.05
X4.5Y-3.15
X4.55Y-4.3
X4.55Y-4.4
X4.55Y-4.9
X4.55Y-5.0
X4.5508Y-2.3
X4.6Y-2.55
X4.6Y-2.65
X4.6Y-2.75
X4.6Y-2.85
X4.6Y-2.95
X4.6Y-3.05
X4.6Y-3.15
X4.6Y-3.25
X4.65Y-4.3
X4.65Y-4.4
X4.65Y-4.5
X4.65Y-4.6
X4.65Y-4.7
X4.65Y-4.8
X4.65Y-4.9
X4.65Y-5.0
X4.6508Y-2.3
X4.7Y-2.55
X4.7Y-2.65
X4.7Y-3.15
X4.7Y-3.25
X4.75Y-4.4
X4.75Y-4.5
X4.75Y-4.6
X4.75Y-4.7
X4.75Y-4.8
X4.75Y-4.9
X4.7508Y-2.3
X4.8Y-2.55
X4.8Y-2.65
X4.8Y-3.15
X4.8Y-3.25
X4.8508Y-2.3
X4.9Y-2.55
X4.9Y-2.65
X4.9Y-3.15
X4.9Y-3.25
X5.0Y-2.55
X5.0Y-2.65
X5.0Y-3.15
X5.0Y-3.25
X5.1Y-2.55
X5.1Y-2.65
X5.1Y-2.75
X5.1Y-2.85
X5.1Y-2.95
X5.1Y-3.05
X5.1Y-3.15
X5.1Y-3.25
X5.2Y-2.65
X5.2Y-2.75
X5.2Y-2.85
X5.2Y-2.95
X5.2Y-3.05
X5.2Y-3.15
X5.6008Y-2.1
X5.6008Y-2.2
X5.6008Y-2.3
X5.6008Y-2.4
X5.6008Y-2.5
X5.6008Y-2.6
X5.6008Y-2.7
X5.6008Y-2.8
X5.6008Y-2.9
X5.6008Y-3.0
X5.6008Y-3.1
X5.6008Y-3.2
X5.6008Y-3.3
X5.6008Y-3.4
X5.6008Y-3.5
X5.6008Y-3.6
X5.75Y-4.1
X5.75Y-4.2
X5.75Y-4.3
X5.75Y-4.4
X5.75Y-4.5
X5.75Y-4.6
X5.75Y-4.7
X5.75Y-4.8
X5.75Y-4.9
X5.75Y-5.0
X5.75Y-5.1
X5.85Y-4.0
X5.85Y-4.1
X5.85Y-4.2
X5.85Y-4.3
X5.85Y-4.4
X5.85Y-4.5
X5.85Y-4.6
X5.85Y-4.7
X5.85Y-4.8
X5.85Y-4.9
X5.85Y-5.0
X5.85Y-5.1
X5.85Y-5.2
X5.95Y-4.0
X5.95Y-4.1
X5.95Y-5.1
X5.95Y-5.2
X6.05Y-4.0
X6.05Y-4.1
X6.05Y-5.1
X6.05Y-5.2
X6.15Y-4.0
X6.15Y-4.1
X6.15Y-5.1
X6.15Y-5.2
X6.2008Y-2.1
X6.2008Y-2.2
X6.2008Y-2.3
X6.2008Y-2.4
X6.2008Y-2.5
X6.2008Y-2.6
X6.2008Y-2.7
X6.2008Y-2.8
X6.2008Y-2.9
X6.2008Y-3.0
X6.2008Y-3.1
X6.2008Y-3.2
X6.2008Y-3.3
X6.2008Y-3.4
X6.2008Y-3.5
X6.2008Y-3.6
X6.25Y-4.0
X6.25Y-4.1
X6.25Y-5.1
X6.25Y-5.2
X6.35Y-4.0
X6.35Y-4.1
X6.35Y-5.1
X6.35Y-5.2
X6.3998Y-2.2994
X6.3998Y-2.3994
X6.3998Y-2.4994
X6.3998Y-2.5994
X6.3998Y-2.6994
X6.3998Y-2.7994
X6.3998Y-2.8994
X6.3998Y-2.9994
X6.3998Y-3.0994
X6.3998Y-3.1994
X6.3998Y-3.2994
X6.3998Y-3.3994
X6.3998Y-3.4994
X6.3998Y-3.5994
X6.45Y-4.0
X6.45Y-4.1
X6.45Y-5.1
X6.45Y-5.2
X6.55Y-4.0
X6.55Y-4.1
X6.55Y-5.1
X6.55Y-5.2
X6.65Y-4.0
X6.65Y-4.1
X6.65Y-5.1
X6.65Y-5.2
X6.75Y-4.0
X6.75Y-4.1
X6.75Y-5.1
X6.75Y-5.2
X6.85Y-4.0
X6.85Y-4.1
X6.85Y-4.2
X6.85Y-4.3
X6.85Y-4.4
X6.85Y-4.5
X6.85Y-4.6
X6.85Y-4.7
X6.85Y-4.8
X6.85Y-4.9
X6.85Y-5.0
X6.85Y-5.1
X6.85Y-5.2
X6.95Y-4.1
X6.95Y-4.2
X6.95Y-4.3
X6.95Y-4.4
X6.95Y-4.5
X6.95Y-4.6
X6.95Y-4.7
X6.95Y-4.8
X6.95Y-4.9
X6.95Y-5.0
X6.95Y-5.1
X6.9998Y-2.2994
X6.9998Y-2.3994
X6.9998Y-2.4994
X6.9998Y-2.5994
X6.9998Y-2.6994
X6.9998Y-2.7994
X6.9998Y-2.8994
X6.9998Y-2.9994
X6.9998Y-3.0994
X6.9998Y-3.1994
X6.9998Y-3.2994
X6.9998Y-3.3994
X6.9998Y-3.4994
X6.9998Y-3.5994
X7.85Y-2.55
X7.85Y-2.65
X7.85Y-2.75
X7.85Y-2.85
X7.85Y-2.95
X7.85Y-3.05
X7.85Y-3.15
X7.85Y-3.25
X7.85Y-3.35
X7.85Y-3.45
X7.85Y-3.95
X7.85Y-4.05
X7.85Y-4.15
X7.85Y-4.25
X7.85Y-4.35
X7.85Y-4.45
X7.85Y-4.55
X7.85Y-4.65
X7.85Y-4.75
X7.85Y-4.85
X8.15Y-2.55
X8.15Y-2.65
X8.15Y-2.75
X8.15Y-2.85
X8.15Y-2.95
X8.15Y-3.05
X8.15Y-3.15
X8.15Y-3.25
X8.15Y-3.35
X8.15Y-3.45
X8.15Y-3.95
X8.15Y-4.05
X8.15Y-4.15
X8.15Y-4.25
X8.15Y-4.35
X8.15Y-4.45
X8.15Y-4.55
X8.15Y-4.65
X8.15Y-4.75
X8.15Y-4.85
T5
X2.95Y-3.0122
X2.95Y-3.1106
X2.95Y-3.1894
X2.95Y-3.2878
T6
X2.7029Y-4.523
X2.7029Y-4.6321
X2.7029Y-4.7412
X2.7029Y-4.8502
X2.8147Y-4.4685
X2.8147Y-4.5776
X2.8147Y-4.6866
X2.8147Y-4.7957
X2.8147Y-4.9047
X3.3Y-3.3964
X3.3Y-3.5932
X3.95Y-5.3
X3.95Y-5.6
X4.55Y-5.3
X4.55Y-5.6
X4.85Y-5.3
X4.85Y-5.6
X5.45Y-5.3
X5.45Y-5.6
X5.95Y-5.65
X6.05Y-5.65
X6.15Y-5.65
X6.25Y-5.65
X6.35Y-5.65
X6.45Y-5.65
X6.8Y-2.15
X6.9Y-2.15
X7.0Y-2.15
X8.15Y-5.1568
X8.15Y-5.3536
X8.475Y-2.575
X8.475Y-2.675
X8.475Y-2.775
X8.475Y-2.875
X8.475Y-2.975
X8.475Y-3.075
X8.475Y-3.175
X8.475Y-3.275
X8.475Y-3.375
X8.475Y-3.475
X8.475Y-3.575
X8.475Y-3.675
X8.475Y-3.775
X8.475Y-3.875
X8.475Y-3.975
X8.475Y-4.075
X8.475Y-4.175
X8.475Y-4.275
X8.475Y-4.375
X8.475Y-4.475
X8.475Y-4.575
X8.475Y-4.675
X8.475Y-4.775
X8.475Y-4.875
X8.475Y-4.975
X8.575Y-2.575
X8.575Y-2.675
X8.575Y-2.775
X8.575Y-2.875
X8.575Y-2.975
X8.575Y-3.075
X8.575Y-3.175
X8.575Y-3.275
X8.575Y-3.375
X8.575Y-3.475
X8.575Y-3.575
X8.575Y-3.675
X8.575Y-3.775
X8.575Y-3.875
X8.575Y-3.975
X8.575Y-4.075
X8.575Y-4.175
X8.575Y-4.275
X8.575Y-4.375
X8.575Y-4.475
X8.575Y-4.575
X8.575Y-4.675
X8.575Y-4.775
X8.575Y-4.875
X8.575Y-4.975
T7
X2.6031Y-2.45
X2.6031Y-2.6469
X2.8Y-2.45
X2.8Y-2.6469
T8
X2.8433Y-2.8913
X2.8433Y-3.4087
T9
X2.7Y-2.08
X2.7Y-5.47
X8.49Y-2.07
X8.49Y-5.47
T10
X2.8029Y-4.1945
X2.8029Y-5.1788
T6
G00X2.75Y-3.6729
M15
G01X2.75Y-3.7517
M16
G05
G00X2.8287Y-3.8973
M15
G01X2.9075Y-3.8973
M16
G05
G00X2.9862Y-3.6729
M15
G01X2.9862Y-3.7517
M16
G05
T0
M30
