%TF.GenerationSoftware,KiCad,Pcbnew,8.0.0-8.0.0-1~ubuntu22.04.1*%
%TF.CreationDate,2024-03-03T19:53:44+01:00*%
%TF.ProjectId,spi65,73706936-352e-46b6-9963-61645f706362,rev?*%
%TF.SameCoordinates,Original*%
%TF.FileFunction,Copper,L1,Top*%
%TF.FilePolarity,Positive*%
%FSLAX46Y46*%
G04 Gerber Fmt 4.6, Leading zero omitted, Abs format (unit mm)*
G04 Created by KiCad (PCBNEW 8.0.0-8.0.0-1~ubuntu22.04.1) date 2024-03-03 19:53:44*
%MOMM*%
%LPD*%
G01*
G04 APERTURE LIST*
G04 Aperture macros list*
%AMRoundRect*
0 Rectangle with rounded corners*
0 $1 Rounding radius*
0 $2 $3 $4 $5 $6 $7 $8 $9 X,Y pos of 4 corners*
0 Add a 4 corners polygon primitive as box body*
4,1,4,$2,$3,$4,$5,$6,$7,$8,$9,$2,$3,0*
0 Add four circle primitives for the rounded corners*
1,1,$1+$1,$2,$3*
1,1,$1+$1,$4,$5*
1,1,$1+$1,$6,$7*
1,1,$1+$1,$8,$9*
0 Add four rect primitives between the rounded corners*
20,1,$1+$1,$2,$3,$4,$5,0*
20,1,$1+$1,$4,$5,$6,$7,0*
20,1,$1+$1,$6,$7,$8,$9,0*
20,1,$1+$1,$8,$9,$2,$3,0*%
G04 Aperture macros list end*
%TA.AperFunction,SMDPad,CuDef*%
%ADD10RoundRect,0.250000X-0.650000X0.412500X-0.650000X-0.412500X0.650000X-0.412500X0.650000X0.412500X0*%
%TD*%
%TA.AperFunction,ComponentPad*%
%ADD11R,1.700000X1.700000*%
%TD*%
%TA.AperFunction,ComponentPad*%
%ADD12O,1.700000X1.700000*%
%TD*%
%TA.AperFunction,SMDPad,CuDef*%
%ADD13RoundRect,0.250000X-0.412500X-0.650000X0.412500X-0.650000X0.412500X0.650000X-0.412500X0.650000X0*%
%TD*%
%TA.AperFunction,ComponentPad*%
%ADD14R,1.600000X2.400000*%
%TD*%
%TA.AperFunction,ComponentPad*%
%ADD15O,1.600000X2.400000*%
%TD*%
%TA.AperFunction,SMDPad,CuDef*%
%ADD16RoundRect,0.250000X0.412500X0.650000X-0.412500X0.650000X-0.412500X-0.650000X0.412500X-0.650000X0*%
%TD*%
%TA.AperFunction,SMDPad,CuDef*%
%ADD17R,1.925000X0.700000*%
%TD*%
%TA.AperFunction,SMDPad,CuDef*%
%ADD18R,0.700000X1.925000*%
%TD*%
%TA.AperFunction,SMDPad,CuDef*%
%ADD19RoundRect,0.250000X0.650000X-0.412500X0.650000X0.412500X-0.650000X0.412500X-0.650000X-0.412500X0*%
%TD*%
%TA.AperFunction,ViaPad*%
%ADD20C,0.700000*%
%TD*%
%TA.AperFunction,ViaPad*%
%ADD21C,0.600000*%
%TD*%
%TA.AperFunction,Conductor*%
%ADD22C,0.500000*%
%TD*%
%TA.AperFunction,Conductor*%
%ADD23C,0.200000*%
%TD*%
G04 APERTURE END LIST*
D10*
%TO.P,C4,1*%
%TO.N,VCC*%
X112903000Y-93091000D03*
%TO.P,C4,2*%
%TO.N,GND*%
X112903000Y-96216000D03*
%TD*%
D11*
%TO.P,J3,1,Pin_1*%
%TO.N,VCC*%
X104140000Y-59690000D03*
D12*
%TO.P,J3,2,Pin_2*%
%TO.N,GND*%
X104140000Y-62230000D03*
%TO.P,J3,3,Pin_3*%
%TO.N,/TCK*%
X104140000Y-64770000D03*
%TO.P,J3,4,Pin_4*%
%TO.N,/TDO*%
X104140000Y-67310000D03*
%TO.P,J3,5,Pin_5*%
%TO.N,/TDI*%
X104140000Y-69850000D03*
%TO.P,J3,6,Pin_6*%
%TO.N,/TMS*%
X104140000Y-72390000D03*
%TD*%
D11*
%TO.P,J2,1,Pin_1*%
%TO.N,/EXTCLK*%
X123952000Y-106680000D03*
D12*
%TO.P,J2,2,Pin_2*%
%TO.N,Net-(J2-Pin_2)*%
X123952000Y-104140000D03*
%TO.P,J2,3,Pin_3*%
%TO.N,/EXTCLK*%
X126492000Y-106680000D03*
%TO.P,J2,4,Pin_4*%
%TO.N,Net-(J2-Pin_4)*%
X126492000Y-104140000D03*
%TO.P,J2,5,Pin_5*%
%TO.N,/EXTCLK*%
X129032000Y-106680000D03*
%TO.P,J2,6,Pin_6*%
%TO.N,Net-(J2-Pin_6)*%
X129032000Y-104140000D03*
%TO.P,J2,7,Pin_7*%
%TO.N,/EXTCLK*%
X131572000Y-106680000D03*
%TO.P,J2,8,Pin_8*%
%TO.N,Net-(J2-Pin_8)*%
X131572000Y-104140000D03*
%TD*%
D11*
%TO.P,J1,1,Pin_1*%
%TO.N,/CS*%
X127867000Y-88306500D03*
D12*
%TO.P,J1,2,Pin_2*%
%TO.N,/SCK*%
X125327000Y-88306500D03*
%TO.P,J1,3,Pin_3*%
%TO.N,/MOSI*%
X122787000Y-88306500D03*
%TO.P,J1,4,Pin_4*%
%TO.N,/MISO*%
X120247000Y-88306500D03*
%TO.P,J1,5,Pin_5*%
%TO.N,VCC*%
X117707000Y-88306500D03*
%TO.P,J1,6,Pin_6*%
%TO.N,GND*%
X115167000Y-88306500D03*
%TD*%
D13*
%TO.P,C2,1*%
%TO.N,VCC*%
X122174000Y-62357000D03*
%TO.P,C2,2*%
%TO.N,GND*%
X125299000Y-62357000D03*
%TD*%
D14*
%TO.P,U2,1,CP*%
%TO.N,/BUF_PHI2*%
X116459000Y-100711000D03*
D15*
%TO.P,U2,2,MR*%
%TO.N,GND*%
X118999000Y-100711000D03*
%TO.P,U2,3,Q0*%
%TO.N,Net-(J2-Pin_2)*%
X121539000Y-100711000D03*
%TO.P,U2,4,Q1*%
%TO.N,Net-(J2-Pin_4)*%
X124079000Y-100711000D03*
%TO.P,U2,5,Q2*%
%TO.N,Net-(J2-Pin_6)*%
X126619000Y-100711000D03*
%TO.P,U2,6,Q3*%
%TO.N,Net-(J2-Pin_8)*%
X129159000Y-100711000D03*
%TO.P,U2,7,GND*%
%TO.N,GND*%
X131699000Y-100711000D03*
%TO.P,U2,8*%
%TO.N,N/C*%
X131699000Y-93091000D03*
%TO.P,U2,9*%
X129159000Y-93091000D03*
%TO.P,U2,10*%
X126619000Y-93091000D03*
%TO.P,U2,11*%
X124079000Y-93091000D03*
%TO.P,U2,12*%
X121539000Y-93091000D03*
%TO.P,U2,13*%
X118999000Y-93091000D03*
%TO.P,U2,14,VCC*%
%TO.N,VCC*%
X116459000Y-93091000D03*
%TD*%
D11*
%TO.P,SLOT1,1,Pin_1*%
%TO.N,/BUF_D0*%
X104140000Y-78740000D03*
D12*
%TO.P,SLOT1,2,Pin_2*%
%TO.N,/BUF_A0*%
X106680000Y-78740000D03*
%TO.P,SLOT1,3,Pin_3*%
%TO.N,/BUF_D1*%
X104140000Y-81280000D03*
%TO.P,SLOT1,4,Pin_4*%
%TO.N,/BUF_A1*%
X106680000Y-81280000D03*
%TO.P,SLOT1,5,Pin_5*%
%TO.N,/BUF_D2*%
X104140000Y-83820000D03*
%TO.P,SLOT1,6,Pin_6*%
%TO.N,/BUF_A2*%
X106680000Y-83820000D03*
%TO.P,SLOT1,7,Pin_7*%
%TO.N,/BUF_D3*%
X104140000Y-86360000D03*
%TO.P,SLOT1,8,Pin_8*%
%TO.N,/BUF_A3*%
X106680000Y-86360000D03*
%TO.P,SLOT1,9,Pin_9*%
%TO.N,/BUF_D4*%
X104140000Y-88900000D03*
%TO.P,SLOT1,10,Pin_10*%
%TO.N,/BUF_R~{W}*%
X106680000Y-88900000D03*
%TO.P,SLOT1,11,Pin_11*%
%TO.N,/BUF_D5*%
X104140000Y-91440000D03*
%TO.P,SLOT1,12,Pin_12*%
%TO.N,/~{BUF_WE}*%
X106680000Y-91440000D03*
%TO.P,SLOT1,13,Pin_13*%
%TO.N,/BUF_D6*%
X104140000Y-93980000D03*
%TO.P,SLOT1,14,Pin_14*%
%TO.N,/~{BUF_OE}*%
X106680000Y-93980000D03*
%TO.P,SLOT1,15,Pin_15*%
%TO.N,/BUF_D7*%
X104140000Y-96520000D03*
%TO.P,SLOT1,16,Pin_16*%
%TO.N,/~{CS_SLOT0}*%
X106680000Y-96520000D03*
%TO.P,SLOT1,17,Pin_17*%
%TO.N,/~{IRQ}*%
X104140000Y-99060000D03*
%TO.P,SLOT1,18,Pin_18*%
%TO.N,/~{NMI}*%
X106680000Y-99060000D03*
%TO.P,SLOT1,19,Pin_19*%
%TO.N,/CPU_RDY*%
X104140000Y-101600000D03*
%TO.P,SLOT1,20,Pin_20*%
%TO.N,/BUF_PHI2*%
X106680000Y-101600000D03*
%TO.P,SLOT1,21,Pin_21*%
%TO.N,/~{RESET}*%
X104140000Y-104140000D03*
%TO.P,SLOT1,22,Pin_22*%
%TO.N,/RESET_TRIG*%
X106680000Y-104140000D03*
%TO.P,SLOT1,23,Pin_23*%
%TO.N,VCC*%
X104140000Y-106680000D03*
%TO.P,SLOT1,24,Pin_24*%
%TO.N,GND*%
X106680000Y-106680000D03*
%TD*%
D16*
%TO.P,C3,1*%
%TO.N,VCC*%
X114338500Y-62268500D03*
%TO.P,C3,2*%
%TO.N,GND*%
X111213500Y-62268500D03*
%TD*%
D17*
%TO.P,U1,1,INT3*%
%TO.N,unconnected-(U1-M1-Pad1)*%
X112787499Y-73902500D03*
%TO.P,U1,2,D0*%
%TO.N,/BUF_D0*%
X112787499Y-75172501D03*
%TO.P,U1,3,D1*%
%TO.N,/BUF_D1*%
X112787499Y-76442500D03*
%TO.P,U1,4,D2*%
%TO.N,/BUF_D2*%
X112787499Y-77712500D03*
%TO.P,U1,5,PHI2*%
%TO.N,/BUF_PHI2*%
X112787498Y-78982500D03*
%TO.P,U1,6,EXTCLK*%
%TO.N,/EXTCLK*%
X112787499Y-80252500D03*
D18*
%TO.P,U1,7,R~{W}*%
%TO.N,/BUF_R~{W}*%
X114299999Y-81765000D03*
%TO.P,U1,8,D3*%
%TO.N,/BUF_D3*%
X115569999Y-81765001D03*
%TO.P,U1,9,D4*%
%TO.N,/BUF_D4*%
X116839999Y-81765000D03*
%TO.P,U1,10,GND*%
%TO.N,GND*%
X118109999Y-81765000D03*
%TO.P,U1,11,D5*%
%TO.N,/BUF_D5*%
X119379998Y-81765000D03*
%TO.P,U1,12,D6*%
%TO.N,/BUF_D6*%
X120649999Y-81765000D03*
%TO.P,U1,13,D7*%
%TO.N,/BUF_D7*%
X121920000Y-81765000D03*
%TO.P,U1,14,~{IRQ}*%
%TO.N,/~{IRQ}*%
X123189999Y-81765000D03*
%TO.P,U1,15,TDI*%
%TO.N,/TDI*%
X124459999Y-81765000D03*
%TO.P,U1,16,TMS*%
%TO.N,/TMS*%
X125729999Y-81765001D03*
%TO.P,U1,17,TCK*%
%TO.N,/TCK*%
X126999999Y-81765000D03*
D17*
%TO.P,U1,18,~{CS2}*%
%TO.N,/~{CS_SLOT0}*%
X128512499Y-80252500D03*
%TO.P,U1,19,~{RES}*%
%TO.N,/~{RESET}*%
X128512500Y-78982500D03*
%TO.P,U1,20,CS1*%
%TO.N,VCC*%
X128512499Y-77712500D03*
%TO.P,U1,21,VCC*%
X128512499Y-76442500D03*
%TO.P,U1,22,A0*%
%TO.N,/BUF_A0*%
X128512499Y-75172501D03*
%TO.P,U1,23,GND*%
%TO.N,GND*%
X128512499Y-73902500D03*
%TO.P,U1,24,A1*%
%TO.N,/BUF_A1*%
X128512499Y-72632499D03*
%TO.P,U1,25,~{SEL3}*%
%TO.N,unconnected-(U1-M17-Pad25)*%
X128512499Y-71362500D03*
%TO.P,U1,26,~{SEL2}*%
%TO.N,unconnected-(U1-M16-Pad26)*%
X128512499Y-70092500D03*
%TO.P,U1,27,~{SEL1}*%
%TO.N,unconnected-(U1-M15-Pad27)*%
X128512500Y-68822500D03*
%TO.P,U1,28,~{SEL0}*%
%TO.N,/CS*%
X128512499Y-67552500D03*
D18*
%TO.P,U1,29,n/c*%
%TO.N,unconnected-(U1-M13-Pad29)*%
X126999999Y-66040000D03*
%TO.P,U1,30,TDO*%
%TO.N,/TDO*%
X125729999Y-66039999D03*
%TO.P,U1,31,GND*%
%TO.N,GND*%
X124459999Y-66040000D03*
%TO.P,U1,32,VCCIO*%
%TO.N,VCC*%
X123189999Y-66040000D03*
%TO.P,U1,33,n/c*%
%TO.N,unconnected-(U1-M12-Pad33)*%
X121920000Y-66040000D03*
%TO.P,U1,34,SCLK*%
%TO.N,/SCK*%
X120649999Y-66040000D03*
%TO.P,U1,35,MOSI*%
%TO.N,/MOSI*%
X119379998Y-66040000D03*
%TO.P,U1,36,n/c*%
%TO.N,unconnected-(U1-M9-Pad36)*%
X118109999Y-66040000D03*
%TO.P,U1,37,MISO3*%
%TO.N,unconnected-(U1-M8-Pad37)*%
X116839999Y-66040000D03*
%TO.P,U1,38,MISO2*%
%TO.N,unconnected-(U1-M7-Pad38)*%
X115569999Y-66039999D03*
%TO.P,U1,39,INT2*%
%TO.N,unconnected-(U1-I{slash}O{slash}GSR-Pad39)*%
X114299999Y-66040000D03*
D17*
%TO.P,U1,40,INT1*%
%TO.N,unconnected-(U1-I{slash}O{slash}GTS2-Pad40)*%
X112787499Y-67552500D03*
%TO.P,U1,41,VCC*%
%TO.N,VCC*%
X112787498Y-68822500D03*
%TO.P,U1,42,INT0*%
%TO.N,unconnected-(U1-I{slash}O{slash}GTS1-Pad42)*%
X112787499Y-70092500D03*
%TO.P,U1,43,MISO1*%
%TO.N,unconnected-(U1-M4-Pad43)*%
X112787499Y-71362500D03*
%TO.P,U1,44,MISO0*%
%TO.N,/MISO*%
X112787499Y-72632499D03*
%TD*%
D19*
%TO.P,C1,1*%
%TO.N,VCC*%
X131191000Y-77000500D03*
%TO.P,C1,2*%
%TO.N,GND*%
X131191000Y-73875500D03*
%TD*%
D20*
%TO.N,GND*%
X126238000Y-73914000D03*
X114681000Y-95770000D03*
X124460000Y-68072000D03*
D21*
%TO.N,/MISO*%
X120904492Y-80137000D03*
%TO.N,/MOSI*%
X119380000Y-68834000D03*
%TO.N,/SCK*%
X120650000Y-68834000D03*
%TO.N,/EXTCLK*%
X108966000Y-107569000D03*
%TO.N,/~{CS_SLOT0}*%
X128524000Y-81661000D03*
%TO.N,/BUF_A1*%
X122203541Y-76229541D03*
%TO.N,/BUF_R~{W}*%
X114299998Y-80263999D03*
%TO.N,/BUF_D6*%
X120650000Y-84201000D03*
%TO.N,/BUF_D3*%
X115570000Y-78994000D03*
%TO.N,/~{RESET}*%
X130302000Y-78994000D03*
%TO.N,/BUF_D4*%
X116840000Y-79741000D03*
%TO.N,/BUF_D7*%
X121920000Y-84328000D03*
%TO.N,/~{IRQ}*%
X119319343Y-77638520D03*
%TO.N,/BUF_A0*%
X123063000Y-75423000D03*
%TO.N,/BUF_D5*%
X119379998Y-83439000D03*
%TO.N,/TDI*%
X115462538Y-71100462D03*
%TO.N,/TMS*%
X119253000Y-72390000D03*
%TO.N,/TCK*%
X126999999Y-80137000D03*
%TO.N,/TDO*%
X125730000Y-64389000D03*
%TD*%
D22*
%TO.N,VCC*%
X123189999Y-64389000D02*
X123189999Y-66040000D01*
X114338500Y-64350500D02*
X114300000Y-64389000D01*
X128500999Y-77724000D02*
X127127000Y-77724000D01*
X112737498Y-68872500D02*
X112787498Y-68822500D01*
X109997000Y-107740082D02*
X109318082Y-108419000D01*
X128512499Y-77712500D02*
X128500999Y-77724000D01*
X123189999Y-73025001D02*
X121285000Y-74930000D01*
X130644500Y-76454000D02*
X131191000Y-77000500D01*
X104140000Y-59690000D02*
X121539000Y-59690000D01*
X128512499Y-76442500D02*
X128523999Y-76454000D01*
X123189999Y-63372999D02*
X123189999Y-64389000D01*
X111125000Y-66802499D02*
X113538499Y-64389000D01*
X116459000Y-93091000D02*
X116459000Y-89554500D01*
X127127000Y-77724000D02*
X127127000Y-76708000D01*
X105879000Y-108419000D02*
X104140000Y-106680000D01*
X122174000Y-60325000D02*
X122174000Y-62357000D01*
X113827202Y-93091000D02*
X109997000Y-96921202D01*
X109997000Y-96921202D02*
X109997000Y-107740082D01*
X116459000Y-89554500D02*
X117707000Y-88306500D01*
X123189999Y-66040000D02*
X123189999Y-73025001D01*
X128523999Y-76454000D02*
X130644500Y-76454000D01*
X122114918Y-77343000D02*
X122948406Y-77343000D01*
X112903000Y-93091000D02*
X116459000Y-93091000D01*
X109318082Y-108419000D02*
X105879000Y-108419000D01*
X122948406Y-77343000D02*
X123836500Y-76454906D01*
X111125000Y-68872500D02*
X112737498Y-68872500D01*
X128512499Y-76442500D02*
X123836500Y-76442500D01*
X114300000Y-64389000D02*
X123189999Y-64389000D01*
X116459000Y-93091000D02*
X113827202Y-93091000D01*
X127127000Y-76708000D02*
X127392500Y-76442500D01*
X113538499Y-64389000D02*
X114300000Y-64389000D01*
X111125000Y-68872500D02*
X111125000Y-66802499D01*
X121285000Y-74930000D02*
X121285000Y-76513082D01*
X127392500Y-76442500D02*
X128512499Y-76442500D01*
X121285000Y-76513082D02*
X122114918Y-77343000D01*
X122174000Y-62357000D02*
X123189999Y-63372999D01*
X121539000Y-59690000D02*
X122174000Y-60325000D01*
X114338500Y-62268500D02*
X114338500Y-64350500D01*
%TO.N,GND*%
X110274500Y-62268500D02*
X111213500Y-62268500D01*
X103124000Y-58166000D02*
X122809000Y-58166000D01*
X104140000Y-62230000D02*
X110236000Y-62230000D01*
X102740000Y-60830000D02*
X102740000Y-58550000D01*
X120749000Y-98961000D02*
X129949000Y-98961000D01*
X125299000Y-62357000D02*
X124459999Y-63196001D01*
X110236000Y-62230000D02*
X110274500Y-62268500D01*
X124459999Y-63196001D02*
X124459999Y-66040000D01*
X129949000Y-98961000D02*
X131699000Y-100711000D01*
X118110000Y-85363500D02*
X118109999Y-81765000D01*
X124460000Y-68072000D02*
X124459999Y-66040000D01*
X128512499Y-73902500D02*
X126249500Y-73902500D01*
X131164000Y-73902500D02*
X131191000Y-73875500D01*
X128512499Y-73902500D02*
X131164000Y-73902500D01*
X126249500Y-73902500D02*
X126238000Y-73914000D01*
X118999000Y-97409000D02*
X117806000Y-96216000D01*
X117806000Y-96216000D02*
X115127000Y-96216000D01*
X125299000Y-60656000D02*
X125299000Y-62357000D01*
X112903000Y-96216000D02*
X114235000Y-96216000D01*
X122809000Y-58166000D02*
X125299000Y-60656000D01*
X114235000Y-96216000D02*
X114681000Y-95770000D01*
X115127000Y-96216000D02*
X114681000Y-95770000D01*
X102740000Y-58550000D02*
X103124000Y-58166000D01*
X104140000Y-62230000D02*
X102740000Y-60830000D01*
X118999000Y-100711000D02*
X120749000Y-98961000D01*
X118999000Y-100711000D02*
X118999000Y-97409000D01*
X115167000Y-88306500D02*
X118110000Y-85363500D01*
D23*
%TO.N,/CS*%
X129124999Y-67552500D02*
X132491000Y-70918501D01*
X128512499Y-67552500D02*
X129124999Y-67552500D01*
X132491000Y-70918501D02*
X132491000Y-83682500D01*
X132491000Y-83682500D02*
X127867000Y-88306500D01*
%TO.N,/MISO*%
X120904492Y-80136992D02*
X120904492Y-80137000D01*
X112787499Y-72632499D02*
X113399999Y-72632499D01*
X113399999Y-72632499D02*
X120904492Y-80136992D01*
%TO.N,/MOSI*%
X119379998Y-68833998D02*
X119379998Y-66040000D01*
X119380000Y-68834000D02*
X119379998Y-68833998D01*
%TO.N,/SCK*%
X120649999Y-66040000D02*
X120650000Y-68834000D01*
%TO.N,Net-(J2-Pin_6)*%
X126619000Y-101727000D02*
X129032000Y-104140000D01*
X126619000Y-100711000D02*
X126619000Y-101727000D01*
%TO.N,/EXTCLK*%
X112787499Y-80252500D02*
X112787499Y-88970811D01*
X112983000Y-89166312D02*
X112983000Y-90284688D01*
X108585000Y-107188000D02*
X108966000Y-107569000D01*
X129032000Y-106680000D02*
X126492000Y-106680000D01*
X112787499Y-88970811D02*
X112983000Y-89166312D01*
X112983000Y-90284688D02*
X108585000Y-94682688D01*
X126492000Y-106680000D02*
X123952000Y-106680000D01*
X108585000Y-94682688D02*
X108585000Y-107188000D01*
X131572000Y-106680000D02*
X129032000Y-106680000D01*
%TO.N,Net-(J2-Pin_4)*%
X124079000Y-101727000D02*
X126492000Y-104140000D01*
X124079000Y-100711000D02*
X124079000Y-101727000D01*
%TO.N,Net-(J2-Pin_8)*%
X129159000Y-100711000D02*
X129159000Y-101727000D01*
X129159000Y-101727000D02*
X131572000Y-104140000D01*
%TO.N,Net-(J2-Pin_2)*%
X121539000Y-101727000D02*
X123952000Y-104140000D01*
X121539000Y-100711000D02*
X121539000Y-101727000D01*
%TO.N,/~{CS_SLOT0}*%
X128524000Y-80264001D02*
X128512499Y-80252500D01*
X128524000Y-81661000D02*
X128524000Y-80264001D01*
%TO.N,/BUF_D0*%
X104140000Y-78740000D02*
X107707499Y-75172501D01*
X107707499Y-75172501D02*
X112787499Y-75172501D01*
%TO.N,/BUF_A1*%
X128512499Y-72632499D02*
X124934262Y-72632499D01*
X124934262Y-72632499D02*
X122203541Y-75363220D01*
X122203541Y-75363220D02*
X122203541Y-76229541D01*
%TO.N,/BUF_R~{W}*%
X114299999Y-81765000D02*
X114299998Y-80263999D01*
%TO.N,/BUF_D2*%
X104140000Y-83820000D02*
X105410000Y-82550000D01*
X111873846Y-77712500D02*
X112787499Y-77712500D01*
X107036346Y-82550000D02*
X111873846Y-77712500D01*
X105410000Y-82550000D02*
X107036346Y-82550000D01*
%TO.N,/BUF_D6*%
X120649999Y-81765000D02*
X120650000Y-84201000D01*
%TO.N,/BUF_D3*%
X115569999Y-81765001D02*
X115570000Y-78994000D01*
%TO.N,/~{RESET}*%
X128524000Y-78994000D02*
X128512500Y-78982500D01*
X130302000Y-78994000D02*
X128524000Y-78994000D01*
%TO.N,/BUF_D4*%
X116839999Y-81765000D02*
X116840000Y-79741000D01*
%TO.N,/BUF_PHI2*%
X107950000Y-83207498D02*
X107950000Y-100330000D01*
X112787498Y-78982500D02*
X112174998Y-78982500D01*
X107950000Y-100330000D02*
X106680000Y-101600000D01*
X112174998Y-78982500D02*
X107950000Y-83207498D01*
%TO.N,/BUF_D7*%
X121920000Y-84328000D02*
X121920000Y-81765000D01*
%TO.N,/~{IRQ}*%
X122270393Y-79120000D02*
X120800823Y-79120000D01*
X120800823Y-79120000D02*
X119319343Y-77638520D01*
X123189999Y-80039606D02*
X122270393Y-79120000D01*
X123189999Y-81765000D02*
X123189999Y-80039606D01*
%TO.N,/BUF_A0*%
X128512499Y-75172501D02*
X123313499Y-75172501D01*
X123313499Y-75172501D02*
X123063000Y-75423000D01*
%TO.N,/BUF_D1*%
X105410000Y-80010000D02*
X104140000Y-81280000D01*
X107188000Y-80010000D02*
X105410000Y-80010000D01*
X112787499Y-76442500D02*
X110755500Y-76442500D01*
X110755500Y-76442500D02*
X107188000Y-80010000D01*
%TO.N,/BUF_D5*%
X119379998Y-81765000D02*
X119379998Y-83439000D01*
%TO.N,/TDI*%
X121189655Y-78620000D02*
X115462538Y-72892883D01*
X115462538Y-72892883D02*
X115462538Y-71100462D01*
X123070000Y-78620000D02*
X121189655Y-78620000D01*
X124459999Y-81765000D02*
X124459999Y-80009999D01*
X124459999Y-80009999D02*
X123070000Y-78620000D01*
%TO.N,/TMS*%
X123840000Y-78120000D02*
X121396761Y-78120000D01*
X125729999Y-81765001D02*
X125729999Y-80009999D01*
X121396761Y-78120000D02*
X119253000Y-75976239D01*
X119253000Y-75976239D02*
X119253000Y-72390000D01*
X125729999Y-80009999D02*
X123840000Y-78120000D01*
%TO.N,/TCK*%
X126999999Y-81765000D02*
X126999999Y-80137000D01*
%TO.N,/TDO*%
X125729999Y-66039999D02*
X125730000Y-64389000D01*
%TD*%
%TA.AperFunction,Conductor*%
%TO.N,VCC*%
G36*
X122513809Y-58936185D02*
G01*
X122534451Y-58952819D01*
X124478943Y-60897311D01*
X124512428Y-60958634D01*
X124507444Y-61028326D01*
X124465572Y-61084259D01*
X124456361Y-61090529D01*
X124417846Y-61114285D01*
X124293789Y-61238342D01*
X124201687Y-61387663D01*
X124201685Y-61387668D01*
X124188777Y-61426623D01*
X124146501Y-61554203D01*
X124146501Y-61554204D01*
X124146500Y-61554204D01*
X124136000Y-61656983D01*
X124136000Y-62407269D01*
X124116315Y-62474308D01*
X124099681Y-62494950D01*
X123877051Y-62717579D01*
X123877048Y-62717582D01*
X123827811Y-62791272D01*
X123794920Y-62840497D01*
X123794913Y-62840509D01*
X123738341Y-62977087D01*
X123738339Y-62977093D01*
X123709499Y-63122080D01*
X123709499Y-64453500D01*
X123689814Y-64520539D01*
X123637010Y-64566294D01*
X123585499Y-64577500D01*
X123439999Y-64577500D01*
X123439999Y-67502500D01*
X123585499Y-67502500D01*
X123652538Y-67522185D01*
X123698293Y-67574989D01*
X123709499Y-67626500D01*
X123709499Y-67637679D01*
X123692888Y-67699677D01*
X123678749Y-67724167D01*
X123623504Y-67894192D01*
X123623503Y-67894194D01*
X123604815Y-68072000D01*
X123623503Y-68249805D01*
X123623504Y-68249807D01*
X123678747Y-68419829D01*
X123678750Y-68419835D01*
X123768141Y-68574665D01*
X123772945Y-68580000D01*
X123887764Y-68707521D01*
X123887767Y-68707523D01*
X123887770Y-68707526D01*
X124032407Y-68812612D01*
X124195733Y-68885329D01*
X124370609Y-68922500D01*
X124370610Y-68922500D01*
X124549389Y-68922500D01*
X124549391Y-68922500D01*
X124724267Y-68885329D01*
X124887593Y-68812612D01*
X125032230Y-68707526D01*
X125055597Y-68681575D01*
X125070651Y-68664855D01*
X125151859Y-68574665D01*
X125241250Y-68419835D01*
X125296497Y-68249803D01*
X125315185Y-68072000D01*
X125296497Y-67894197D01*
X125257333Y-67773663D01*
X125241252Y-67724170D01*
X125241251Y-67724168D01*
X125241250Y-67724165D01*
X125227110Y-67699675D01*
X125210499Y-67637677D01*
X125210499Y-67626998D01*
X125230184Y-67559959D01*
X125282988Y-67514204D01*
X125334494Y-67502998D01*
X126127871Y-67502998D01*
X126187482Y-67496590D01*
X126321665Y-67446542D01*
X126391354Y-67441559D01*
X126408329Y-67446543D01*
X126472318Y-67470409D01*
X126542516Y-67496591D01*
X126602126Y-67503000D01*
X126925499Y-67502999D01*
X126992538Y-67522683D01*
X127038293Y-67575487D01*
X127049499Y-67626999D01*
X127049499Y-67950369D01*
X127049500Y-67950376D01*
X127055907Y-68009983D01*
X127105955Y-68144168D01*
X127110939Y-68213860D01*
X127105955Y-68230833D01*
X127055909Y-68365014D01*
X127055908Y-68365016D01*
X127049501Y-68424616D01*
X127049500Y-68424635D01*
X127049500Y-69220370D01*
X127049501Y-69220376D01*
X127055909Y-69279984D01*
X127105955Y-69414167D01*
X127110939Y-69483858D01*
X127105955Y-69500832D01*
X127055907Y-69635017D01*
X127049500Y-69694616D01*
X127049500Y-69694623D01*
X127049499Y-69694635D01*
X127049499Y-70490370D01*
X127049500Y-70490376D01*
X127055908Y-70549984D01*
X127105954Y-70684168D01*
X127110938Y-70753860D01*
X127105954Y-70770832D01*
X127055908Y-70905014D01*
X127055907Y-70905016D01*
X127049500Y-70964616D01*
X127049500Y-70964623D01*
X127049499Y-70964635D01*
X127049499Y-71760370D01*
X127049500Y-71760376D01*
X127055908Y-71819984D01*
X127072573Y-71864667D01*
X127077557Y-71934359D01*
X127044071Y-71995681D01*
X126982748Y-72029166D01*
X126956391Y-72031999D01*
X125020932Y-72031999D01*
X125020916Y-72031998D01*
X125013320Y-72031998D01*
X124855205Y-72031998D01*
X124778841Y-72052460D01*
X124702476Y-72072922D01*
X124702471Y-72072925D01*
X124565552Y-72151974D01*
X124565544Y-72151980D01*
X121723022Y-74994502D01*
X121723018Y-74994507D01*
X121677426Y-75073477D01*
X121677426Y-75073478D01*
X121643964Y-75131434D01*
X121643964Y-75131435D01*
X121603040Y-75284163D01*
X121603040Y-75284165D01*
X121603040Y-75452266D01*
X121603041Y-75452279D01*
X121603041Y-75647128D01*
X121583356Y-75714167D01*
X121575991Y-75724437D01*
X121573727Y-75727275D01*
X121477752Y-75880017D01*
X121418172Y-76050286D01*
X121418171Y-76050291D01*
X121397976Y-76229537D01*
X121397976Y-76229544D01*
X121418171Y-76408790D01*
X121418172Y-76408795D01*
X121477752Y-76579064D01*
X121549029Y-76692500D01*
X121573725Y-76731803D01*
X121701279Y-76859357D01*
X121854019Y-76955330D01*
X122024286Y-77014909D01*
X122024291Y-77014910D01*
X122203537Y-77035106D01*
X122203541Y-77035106D01*
X122203545Y-77035106D01*
X122382790Y-77014910D01*
X122382793Y-77014909D01*
X122382796Y-77014909D01*
X122553063Y-76955330D01*
X122705803Y-76859357D01*
X122833357Y-76731803D01*
X122858053Y-76692500D01*
X127049999Y-76692500D01*
X127049999Y-76840344D01*
X127056400Y-76899872D01*
X127056402Y-76899879D01*
X127106488Y-77034167D01*
X127111472Y-77103859D01*
X127106488Y-77120833D01*
X127056402Y-77255120D01*
X127056400Y-77255127D01*
X127049999Y-77314655D01*
X127049999Y-77462500D01*
X128262499Y-77462500D01*
X128262499Y-76692500D01*
X127049999Y-76692500D01*
X122858053Y-76692500D01*
X122929330Y-76579063D01*
X122988909Y-76408796D01*
X122997453Y-76332968D01*
X123024519Y-76268554D01*
X123082114Y-76228999D01*
X123106789Y-76223631D01*
X123138212Y-76220090D01*
X123242249Y-76208369D01*
X123242252Y-76208368D01*
X123242255Y-76208368D01*
X123412522Y-76148789D01*
X123565262Y-76052816D01*
X123692816Y-75925262D01*
X123752027Y-75831027D01*
X123804361Y-75784738D01*
X123857020Y-75773001D01*
X126956924Y-75773001D01*
X127023963Y-75792686D01*
X127069718Y-75845490D01*
X127079662Y-75914648D01*
X127073106Y-75940333D01*
X127056402Y-75985117D01*
X127056400Y-75985127D01*
X127049999Y-76044655D01*
X127049999Y-76192500D01*
X128638499Y-76192500D01*
X128705538Y-76212185D01*
X128751293Y-76264989D01*
X128762499Y-76316500D01*
X128762499Y-77838500D01*
X128742814Y-77905539D01*
X128690010Y-77951294D01*
X128638499Y-77962500D01*
X127049999Y-77962500D01*
X127049999Y-78110344D01*
X127056400Y-78169872D01*
X127056402Y-78169879D01*
X127106222Y-78303453D01*
X127111206Y-78373144D01*
X127106222Y-78390119D01*
X127055908Y-78525017D01*
X127049501Y-78584616D01*
X127049501Y-78584623D01*
X127049500Y-78584635D01*
X127049500Y-79215044D01*
X127029815Y-79282083D01*
X126977011Y-79327838D01*
X126939383Y-79338264D01*
X126820749Y-79351630D01*
X126820744Y-79351631D01*
X126650475Y-79411211D01*
X126497738Y-79507183D01*
X126374759Y-79630162D01*
X126313436Y-79663646D01*
X126243744Y-79658662D01*
X126199398Y-79630162D01*
X126098715Y-79529479D01*
X126098714Y-79529478D01*
X126094384Y-79525148D01*
X126094373Y-79525138D01*
X124327590Y-77758355D01*
X124327588Y-77758352D01*
X124208717Y-77639481D01*
X124208716Y-77639480D01*
X124121904Y-77589360D01*
X124121904Y-77589359D01*
X124121900Y-77589358D01*
X124071785Y-77560423D01*
X123919057Y-77519499D01*
X123760943Y-77519499D01*
X123753347Y-77519499D01*
X123753331Y-77519500D01*
X121696858Y-77519500D01*
X121629819Y-77499815D01*
X121609177Y-77483181D01*
X119889819Y-75763823D01*
X119856334Y-75702500D01*
X119853500Y-75676142D01*
X119853500Y-72972412D01*
X119873185Y-72905373D01*
X119880555Y-72895097D01*
X119882810Y-72892267D01*
X119882816Y-72892262D01*
X119978789Y-72739522D01*
X120038368Y-72569255D01*
X120058565Y-72390000D01*
X120041058Y-72234622D01*
X120038369Y-72210750D01*
X120038368Y-72210745D01*
X120025866Y-72175016D01*
X119978789Y-72040478D01*
X119973461Y-72031999D01*
X119882815Y-71887737D01*
X119755262Y-71760184D01*
X119602523Y-71664211D01*
X119432254Y-71604631D01*
X119432249Y-71604630D01*
X119253004Y-71584435D01*
X119252996Y-71584435D01*
X119073750Y-71604630D01*
X119073745Y-71604631D01*
X118903476Y-71664211D01*
X118750737Y-71760184D01*
X118623184Y-71887737D01*
X118527211Y-72040476D01*
X118467631Y-72210745D01*
X118467630Y-72210750D01*
X118447435Y-72389996D01*
X118447435Y-72390003D01*
X118467630Y-72569249D01*
X118467631Y-72569254D01*
X118527211Y-72739523D01*
X118623185Y-72892263D01*
X118625445Y-72895097D01*
X118626334Y-72897275D01*
X118626889Y-72898158D01*
X118626734Y-72898255D01*
X118651855Y-72959783D01*
X118652500Y-72972412D01*
X118652500Y-74934247D01*
X118632815Y-75001286D01*
X118580011Y-75047041D01*
X118510853Y-75056985D01*
X118447297Y-75027960D01*
X118440819Y-75021928D01*
X116099357Y-72680466D01*
X116065872Y-72619143D01*
X116063038Y-72592785D01*
X116063038Y-71682874D01*
X116082723Y-71615835D01*
X116090093Y-71605559D01*
X116092348Y-71602729D01*
X116092354Y-71602724D01*
X116188327Y-71449984D01*
X116247906Y-71279717D01*
X116254457Y-71221575D01*
X116268103Y-71100465D01*
X116268103Y-71100458D01*
X116247907Y-70921212D01*
X116247906Y-70921207D01*
X116242241Y-70905017D01*
X116188327Y-70750940D01*
X116169766Y-70721401D01*
X116092353Y-70598199D01*
X115964800Y-70470646D01*
X115812061Y-70374673D01*
X115641792Y-70315093D01*
X115641787Y-70315092D01*
X115462542Y-70294897D01*
X115462534Y-70294897D01*
X115283288Y-70315092D01*
X115283283Y-70315093D01*
X115113014Y-70374673D01*
X114960275Y-70470646D01*
X114832722Y-70598199D01*
X114736749Y-70750938D01*
X114677169Y-70921207D01*
X114677168Y-70921212D01*
X114656973Y-71100458D01*
X114656973Y-71100465D01*
X114677168Y-71279711D01*
X114677169Y-71279716D01*
X114736749Y-71449985D01*
X114832723Y-71602725D01*
X114834983Y-71605559D01*
X114835872Y-71607737D01*
X114836427Y-71608620D01*
X114836272Y-71608717D01*
X114861393Y-71670245D01*
X114862038Y-71682874D01*
X114862038Y-72806213D01*
X114862037Y-72806231D01*
X114862037Y-72945939D01*
X114842352Y-73012978D01*
X114789548Y-73058733D01*
X114720390Y-73068677D01*
X114656834Y-73039652D01*
X114650356Y-73033620D01*
X114286817Y-72670081D01*
X114253332Y-72608758D01*
X114250498Y-72582400D01*
X114250498Y-72234628D01*
X114250497Y-72234622D01*
X114250496Y-72234615D01*
X114244090Y-72175016D01*
X114236472Y-72154592D01*
X114215623Y-72098692D01*
X114194041Y-72040830D01*
X114189058Y-71971140D01*
X114194035Y-71954186D01*
X114244090Y-71819983D01*
X114250499Y-71760373D01*
X114250498Y-70964628D01*
X114244090Y-70905017D01*
X114194041Y-70770830D01*
X114189058Y-70701142D01*
X114194038Y-70684178D01*
X114244090Y-70549983D01*
X114250499Y-70490373D01*
X114250498Y-69694628D01*
X114244090Y-69635017D01*
X114238253Y-69619368D01*
X114193775Y-69500115D01*
X114188791Y-69430423D01*
X114193776Y-69413448D01*
X114243593Y-69279883D01*
X114243596Y-69279872D01*
X114249997Y-69220344D01*
X114249998Y-69220327D01*
X114249998Y-69072500D01*
X111324998Y-69072500D01*
X111324998Y-69220344D01*
X111331399Y-69279872D01*
X111331401Y-69279879D01*
X111381221Y-69413453D01*
X111386205Y-69483144D01*
X111381221Y-69500119D01*
X111330907Y-69635017D01*
X111324500Y-69694616D01*
X111324500Y-69694623D01*
X111324499Y-69694635D01*
X111324499Y-70490370D01*
X111324500Y-70490376D01*
X111330908Y-70549984D01*
X111380954Y-70684168D01*
X111385938Y-70753860D01*
X111380954Y-70770832D01*
X111330908Y-70905014D01*
X111330907Y-70905016D01*
X111324500Y-70964616D01*
X111324500Y-70964623D01*
X111324499Y-70964635D01*
X111324499Y-71760370D01*
X111324500Y-71760376D01*
X111330908Y-71819984D01*
X111380954Y-71954167D01*
X111385938Y-72023858D01*
X111380954Y-72040831D01*
X111330908Y-72175013D01*
X111330907Y-72175015D01*
X111324500Y-72234615D01*
X111324500Y-72234622D01*
X111324499Y-72234634D01*
X111324499Y-73030369D01*
X111324500Y-73030375D01*
X111330907Y-73089982D01*
X111380955Y-73224166D01*
X111385939Y-73293858D01*
X111380955Y-73310832D01*
X111330907Y-73445017D01*
X111324500Y-73504616D01*
X111324499Y-73504635D01*
X111324499Y-74300370D01*
X111324500Y-74300376D01*
X111330907Y-74359983D01*
X111347574Y-74404668D01*
X111352558Y-74474360D01*
X111319073Y-74535683D01*
X111257749Y-74569167D01*
X111231392Y-74572001D01*
X107628438Y-74572001D01*
X107597953Y-74580169D01*
X107597954Y-74580170D01*
X107475713Y-74612924D01*
X107475708Y-74612927D01*
X107338789Y-74691976D01*
X107338781Y-74691982D01*
X107226977Y-74803787D01*
X104677582Y-77353181D01*
X104616259Y-77386666D01*
X104589901Y-77389500D01*
X103242129Y-77389500D01*
X103242123Y-77389501D01*
X103182516Y-77395908D01*
X103047671Y-77446202D01*
X103047664Y-77446206D01*
X102932455Y-77532452D01*
X102932452Y-77532455D01*
X102846206Y-77647664D01*
X102846202Y-77647671D01*
X102795908Y-77782517D01*
X102789501Y-77842116D01*
X102789500Y-77842135D01*
X102789500Y-79637870D01*
X102789501Y-79637876D01*
X102795908Y-79697483D01*
X102846202Y-79832328D01*
X102846206Y-79832335D01*
X102932452Y-79947544D01*
X102932455Y-79947547D01*
X103047664Y-80033793D01*
X103047671Y-80033797D01*
X103179081Y-80082810D01*
X103235015Y-80124681D01*
X103259432Y-80190145D01*
X103244580Y-80258418D01*
X103223430Y-80286673D01*
X103101503Y-80408600D01*
X102965965Y-80602169D01*
X102965964Y-80602171D01*
X102866098Y-80816335D01*
X102866094Y-80816344D01*
X102804938Y-81044586D01*
X102804936Y-81044596D01*
X102784341Y-81279999D01*
X102784341Y-81280000D01*
X102804936Y-81515403D01*
X102804938Y-81515413D01*
X102866094Y-81743655D01*
X102866096Y-81743659D01*
X102866097Y-81743663D01*
X102911139Y-81840255D01*
X102965965Y-81957830D01*
X102965967Y-81957834D01*
X103101501Y-82151395D01*
X103101506Y-82151402D01*
X103268597Y-82318493D01*
X103268603Y-82318498D01*
X103454158Y-82448425D01*
X103497783Y-82503002D01*
X103504977Y-82572500D01*
X103473454Y-82634855D01*
X103454158Y-82651575D01*
X103268597Y-82781505D01*
X103101505Y-82948597D01*
X102965965Y-83142169D01*
X102965964Y-83142171D01*
X102866098Y-83356335D01*
X102866094Y-83356344D01*
X102804938Y-83584586D01*
X102804936Y-83584596D01*
X102784341Y-83819999D01*
X102784341Y-83820000D01*
X102804936Y-84055403D01*
X102804938Y-84055413D01*
X102866094Y-84283655D01*
X102866096Y-84283659D01*
X102866097Y-84283663D01*
X102911139Y-84380255D01*
X102965965Y-84497830D01*
X102965967Y-84497834D01*
X102990441Y-84532786D01*
X103101501Y-84691396D01*
X103101506Y-84691402D01*
X103268597Y-84858493D01*
X103268603Y-84858498D01*
X103454158Y-84988425D01*
X103497783Y-85043002D01*
X103504977Y-85112500D01*
X103473454Y-85174855D01*
X103454158Y-85191575D01*
X103268597Y-85321505D01*
X103101505Y-85488597D01*
X102965965Y-85682169D01*
X102965964Y-85682171D01*
X102866098Y-85896335D01*
X102866094Y-85896344D01*
X102804938Y-86124586D01*
X102804936Y-86124596D01*
X102784341Y-86359999D01*
X102784341Y-86360000D01*
X102804936Y-86595403D01*
X102804938Y-86595413D01*
X102866094Y-86823655D01*
X102866096Y-86823659D01*
X102866097Y-86823663D01*
X102960703Y-87026546D01*
X102965965Y-87037830D01*
X102965967Y-87037834D01*
X103032533Y-87132899D01*
X103101501Y-87231396D01*
X103101506Y-87231402D01*
X103268597Y-87398493D01*
X103268603Y-87398498D01*
X103454158Y-87528425D01*
X103497783Y-87583002D01*
X103504977Y-87652500D01*
X103473454Y-87714855D01*
X103454158Y-87731575D01*
X103268597Y-87861505D01*
X103101505Y-88028597D01*
X102965965Y-88222169D01*
X102965964Y-88222171D01*
X102866098Y-88436335D01*
X102866094Y-88436344D01*
X102804938Y-88664586D01*
X102804936Y-88664596D01*
X102784341Y-88899999D01*
X102784341Y-88900000D01*
X102804936Y-89135403D01*
X102804938Y-89135413D01*
X102866094Y-89363655D01*
X102866096Y-89363659D01*
X102866097Y-89363663D01*
X102946004Y-89535023D01*
X102965965Y-89577830D01*
X102965967Y-89577834D01*
X103074281Y-89732521D01*
X103101501Y-89771396D01*
X103101506Y-89771402D01*
X103268597Y-89938493D01*
X103268603Y-89938498D01*
X103454158Y-90068425D01*
X103497783Y-90123002D01*
X103504977Y-90192500D01*
X103473454Y-90254855D01*
X103454158Y-90271575D01*
X103268597Y-90401505D01*
X103101505Y-90568597D01*
X102965965Y-90762169D01*
X102965964Y-90762171D01*
X102866098Y-90976335D01*
X102866094Y-90976344D01*
X102804938Y-91204586D01*
X102804936Y-91204596D01*
X102784341Y-91439999D01*
X102784341Y-91440000D01*
X102804936Y-91675403D01*
X102804938Y-91675413D01*
X102866094Y-91903655D01*
X102866096Y-91903659D01*
X102866097Y-91903663D01*
X102915520Y-92009650D01*
X102965965Y-92117830D01*
X102965967Y-92117834D01*
X103017746Y-92191781D01*
X103101501Y-92311396D01*
X103101506Y-92311402D01*
X103268597Y-92478493D01*
X103268603Y-92478498D01*
X103454158Y-92608425D01*
X103497783Y-92663002D01*
X103504977Y-92732500D01*
X103473454Y-92794855D01*
X103454158Y-92811575D01*
X103268597Y-92941505D01*
X103101505Y-93108597D01*
X102965965Y-93302169D01*
X102965964Y-93302171D01*
X102866098Y-93516335D01*
X102866094Y-93516344D01*
X102804938Y-93744586D01*
X102804936Y-93744596D01*
X102784341Y-93979999D01*
X102784341Y-93980000D01*
X102804936Y-94215403D01*
X102804938Y-94215413D01*
X102866094Y-94443655D01*
X102866096Y-94443659D01*
X102866097Y-94443663D01*
X102884427Y-94482971D01*
X102965965Y-94657830D01*
X102965967Y-94657834D01*
X103037139Y-94759477D01*
X103101501Y-94851396D01*
X103101506Y-94851402D01*
X103268597Y-95018493D01*
X103268603Y-95018498D01*
X103454158Y-95148425D01*
X103497783Y-95203002D01*
X103504977Y-95272500D01*
X103473454Y-95334855D01*
X103454158Y-95351575D01*
X103268597Y-95481505D01*
X103101505Y-95648597D01*
X102965965Y-95842169D01*
X102965964Y-95842171D01*
X102866098Y-96056335D01*
X102866094Y-96056344D01*
X102804938Y-96284586D01*
X102804936Y-96284596D01*
X102784341Y-96519999D01*
X102784341Y-96520000D01*
X102804936Y-96755403D01*
X102804938Y-96755413D01*
X102866094Y-96983655D01*
X102866096Y-96983660D01*
X102965965Y-97197830D01*
X102965967Y-97197834D01*
X102982337Y-97221212D01*
X103101501Y-97391396D01*
X103101506Y-97391402D01*
X103268597Y-97558493D01*
X103268603Y-97558498D01*
X103454158Y-97688425D01*
X103497783Y-97743002D01*
X103504977Y-97812500D01*
X103473454Y-97874855D01*
X103454158Y-97891575D01*
X103268597Y-98021505D01*
X103101505Y-98188597D01*
X102965965Y-98382169D01*
X102965964Y-98382171D01*
X102866098Y-98596335D01*
X102866094Y-98596344D01*
X102804938Y-98824586D01*
X102804936Y-98824596D01*
X102784341Y-99059999D01*
X102784341Y-99060000D01*
X102804936Y-99295403D01*
X102804938Y-99295413D01*
X102866094Y-99523655D01*
X102866096Y-99523659D01*
X102866097Y-99523663D01*
X102946004Y-99695023D01*
X102965965Y-99737830D01*
X102965967Y-99737834D01*
X103017746Y-99811781D01*
X103101501Y-99931396D01*
X103101506Y-99931402D01*
X103268597Y-100098493D01*
X103268603Y-100098498D01*
X103454158Y-100228425D01*
X103497783Y-100283002D01*
X103504977Y-100352500D01*
X103473454Y-100414855D01*
X103454158Y-100431575D01*
X103268597Y-100561505D01*
X103101505Y-100728597D01*
X102965965Y-100922169D01*
X102965964Y-100922171D01*
X102866098Y-101136335D01*
X102866094Y-101136344D01*
X102804938Y-101364586D01*
X102804936Y-101364596D01*
X102784341Y-101599999D01*
X102784341Y-101600000D01*
X102804936Y-101835403D01*
X102804938Y-101835413D01*
X102866094Y-102063655D01*
X102866096Y-102063659D01*
X102866097Y-102063663D01*
X102884427Y-102102971D01*
X102965965Y-102277830D01*
X102965967Y-102277834D01*
X103047564Y-102394365D01*
X103101501Y-102471396D01*
X103101506Y-102471402D01*
X103268597Y-102638493D01*
X103268603Y-102638498D01*
X103454158Y-102768425D01*
X103497783Y-102823002D01*
X103504977Y-102892500D01*
X103473454Y-102954855D01*
X103454158Y-102971575D01*
X103268597Y-103101505D01*
X103101505Y-103268597D01*
X102965965Y-103462169D01*
X102965964Y-103462171D01*
X102866098Y-103676335D01*
X102866094Y-103676344D01*
X102804938Y-103904586D01*
X102804936Y-103904596D01*
X102784341Y-104139999D01*
X102784341Y-104140000D01*
X102804936Y-104375403D01*
X102804938Y-104375413D01*
X102866094Y-104603655D01*
X102866096Y-104603659D01*
X102866097Y-104603663D01*
X102870000Y-104612032D01*
X102965965Y-104817830D01*
X102965967Y-104817834D01*
X103025491Y-104902842D01*
X103101501Y-105011396D01*
X103101506Y-105011402D01*
X103268597Y-105178493D01*
X103268603Y-105178498D01*
X103341946Y-105229853D01*
X103435439Y-105295318D01*
X103454594Y-105308730D01*
X103498219Y-105363307D01*
X103505413Y-105432805D01*
X103473890Y-105495160D01*
X103454595Y-105511880D01*
X103268922Y-105641890D01*
X103268920Y-105641891D01*
X103101891Y-105808920D01*
X103101886Y-105808926D01*
X102966400Y-106002420D01*
X102966399Y-106002422D01*
X102866570Y-106216507D01*
X102866567Y-106216513D01*
X102809364Y-106429999D01*
X102809364Y-106430000D01*
X103706988Y-106430000D01*
X103674075Y-106487007D01*
X103640000Y-106614174D01*
X103640000Y-106745826D01*
X103674075Y-106872993D01*
X103706988Y-106930000D01*
X102809364Y-106930000D01*
X102866567Y-107143486D01*
X102866570Y-107143492D01*
X102966399Y-107357578D01*
X103101894Y-107551082D01*
X103268917Y-107718105D01*
X103462421Y-107853600D01*
X103676507Y-107953429D01*
X103676516Y-107953433D01*
X103890000Y-108010634D01*
X103890000Y-107113012D01*
X103947007Y-107145925D01*
X104074174Y-107180000D01*
X104205826Y-107180000D01*
X104332993Y-107145925D01*
X104390000Y-107113012D01*
X104390000Y-108010633D01*
X104603483Y-107953433D01*
X104603492Y-107953429D01*
X104817578Y-107853600D01*
X105011082Y-107718105D01*
X105178105Y-107551082D01*
X105308119Y-107365405D01*
X105362696Y-107321781D01*
X105432195Y-107314588D01*
X105494549Y-107346110D01*
X105511269Y-107365405D01*
X105641505Y-107551401D01*
X105808599Y-107718495D01*
X105905384Y-107786265D01*
X106002165Y-107854032D01*
X106002167Y-107854033D01*
X106002170Y-107854035D01*
X106216337Y-107953903D01*
X106444592Y-108015063D01*
X106621034Y-108030500D01*
X106679999Y-108035659D01*
X106680000Y-108035659D01*
X106680001Y-108035659D01*
X106738966Y-108030500D01*
X106915408Y-108015063D01*
X107143663Y-107953903D01*
X107357830Y-107854035D01*
X107551401Y-107718495D01*
X107718495Y-107551401D01*
X107816724Y-107411114D01*
X107871300Y-107367491D01*
X107940798Y-107360297D01*
X108003153Y-107391820D01*
X108025684Y-107420237D01*
X108046988Y-107457135D01*
X108046989Y-107457139D01*
X108104475Y-107556709D01*
X108104481Y-107556717D01*
X108135298Y-107587534D01*
X108168783Y-107648857D01*
X108170837Y-107661331D01*
X108180630Y-107748249D01*
X108240210Y-107918521D01*
X108313813Y-108035659D01*
X108336184Y-108071262D01*
X108463738Y-108198816D01*
X108616478Y-108294789D01*
X108756995Y-108343958D01*
X108813771Y-108384680D01*
X108839518Y-108449633D01*
X108826062Y-108518194D01*
X108777675Y-108568597D01*
X108716040Y-108585000D01*
X102359000Y-108585000D01*
X102291961Y-108565315D01*
X102246206Y-108512511D01*
X102235000Y-108461000D01*
X102235000Y-61685730D01*
X102254685Y-61618691D01*
X102307489Y-61572936D01*
X102376647Y-61562992D01*
X102440203Y-61592017D01*
X102446681Y-61598049D01*
X102767130Y-61918498D01*
X102800615Y-61979821D01*
X102802977Y-62016986D01*
X102784341Y-62229997D01*
X102784341Y-62230000D01*
X102804936Y-62465403D01*
X102804938Y-62465413D01*
X102866094Y-62693655D01*
X102866096Y-62693659D01*
X102866097Y-62693663D01*
X102911613Y-62791272D01*
X102965965Y-62907830D01*
X102965967Y-62907834D01*
X103101501Y-63101395D01*
X103101506Y-63101402D01*
X103268597Y-63268493D01*
X103268603Y-63268498D01*
X103454158Y-63398425D01*
X103497783Y-63453002D01*
X103504977Y-63522500D01*
X103473454Y-63584855D01*
X103454158Y-63601575D01*
X103268597Y-63731505D01*
X103101505Y-63898597D01*
X102965965Y-64092169D01*
X102965964Y-64092171D01*
X102866098Y-64306335D01*
X102866094Y-64306344D01*
X102804938Y-64534586D01*
X102804936Y-64534596D01*
X102784341Y-64769999D01*
X102784341Y-64770000D01*
X102804936Y-65005403D01*
X102804938Y-65005413D01*
X102866094Y-65233655D01*
X102866096Y-65233659D01*
X102866097Y-65233663D01*
X102965965Y-65447830D01*
X102965967Y-65447834D01*
X103101501Y-65641395D01*
X103101506Y-65641402D01*
X103268597Y-65808493D01*
X103268603Y-65808498D01*
X103454158Y-65938425D01*
X103497783Y-65993002D01*
X103504977Y-66062500D01*
X103473454Y-66124855D01*
X103454158Y-66141575D01*
X103268597Y-66271505D01*
X103101505Y-66438597D01*
X102965965Y-66632169D01*
X102965964Y-66632171D01*
X102930414Y-66708409D01*
X102866742Y-66844955D01*
X102866098Y-66846335D01*
X102866094Y-66846344D01*
X102804938Y-67074586D01*
X102804936Y-67074596D01*
X102784341Y-67309999D01*
X102784341Y-67310000D01*
X102804936Y-67545403D01*
X102804938Y-67545413D01*
X102866094Y-67773655D01*
X102866096Y-67773659D01*
X102866097Y-67773663D01*
X102948500Y-67950376D01*
X102965965Y-67987830D01*
X102965967Y-67987834D01*
X103074281Y-68142521D01*
X103087819Y-68161856D01*
X103101501Y-68181395D01*
X103101506Y-68181402D01*
X103268597Y-68348493D01*
X103268603Y-68348498D01*
X103454158Y-68478425D01*
X103497783Y-68533002D01*
X103504977Y-68602500D01*
X103473454Y-68664855D01*
X103454158Y-68681575D01*
X103268597Y-68811505D01*
X103101505Y-68978597D01*
X102965965Y-69172169D01*
X102965964Y-69172171D01*
X102866098Y-69386335D01*
X102866094Y-69386344D01*
X102804938Y-69614586D01*
X102804936Y-69614596D01*
X102784341Y-69849999D01*
X102784341Y-69850000D01*
X102804936Y-70085403D01*
X102804938Y-70085413D01*
X102866094Y-70313655D01*
X102866096Y-70313659D01*
X102866097Y-70313663D01*
X102948500Y-70490376D01*
X102965965Y-70527830D01*
X102965967Y-70527834D01*
X103074281Y-70682521D01*
X103087319Y-70701142D01*
X103101501Y-70721395D01*
X103101506Y-70721402D01*
X103268597Y-70888493D01*
X103268603Y-70888498D01*
X103454158Y-71018425D01*
X103497783Y-71073002D01*
X103504977Y-71142500D01*
X103473454Y-71204855D01*
X103454158Y-71221575D01*
X103268597Y-71351505D01*
X103101505Y-71518597D01*
X102965965Y-71712169D01*
X102965964Y-71712171D01*
X102866098Y-71926335D01*
X102866094Y-71926344D01*
X102804938Y-72154586D01*
X102804936Y-72154596D01*
X102784341Y-72389999D01*
X102784341Y-72390000D01*
X102804936Y-72625403D01*
X102804938Y-72625413D01*
X102866094Y-72853655D01*
X102866096Y-72853659D01*
X102866097Y-72853663D01*
X102909126Y-72945939D01*
X102965965Y-73067830D01*
X102965967Y-73067834D01*
X103005763Y-73124668D01*
X103101505Y-73261401D01*
X103268599Y-73428495D01*
X103292195Y-73445017D01*
X103462165Y-73564032D01*
X103462167Y-73564033D01*
X103462170Y-73564035D01*
X103676337Y-73663903D01*
X103904592Y-73725063D01*
X104092918Y-73741539D01*
X104139999Y-73745659D01*
X104140000Y-73745659D01*
X104140001Y-73745659D01*
X104179234Y-73742226D01*
X104375408Y-73725063D01*
X104603663Y-73663903D01*
X104817830Y-73564035D01*
X105011401Y-73428495D01*
X105178495Y-73261401D01*
X105314035Y-73067830D01*
X105413903Y-72853663D01*
X105475063Y-72625408D01*
X105495659Y-72390000D01*
X105475063Y-72154592D01*
X105421359Y-71954164D01*
X105413905Y-71926344D01*
X105413904Y-71926343D01*
X105413903Y-71926337D01*
X105314035Y-71712171D01*
X105293522Y-71682874D01*
X105178494Y-71518597D01*
X105011402Y-71351506D01*
X105011396Y-71351501D01*
X104825842Y-71221575D01*
X104782217Y-71166998D01*
X104775023Y-71097500D01*
X104806546Y-71035145D01*
X104825842Y-71018425D01*
X104964683Y-70921207D01*
X105011401Y-70888495D01*
X105178495Y-70721401D01*
X105314035Y-70527830D01*
X105413903Y-70313663D01*
X105475063Y-70085408D01*
X105495659Y-69850000D01*
X105475063Y-69614592D01*
X105414954Y-69390258D01*
X105413905Y-69386344D01*
X105413904Y-69386343D01*
X105413903Y-69386337D01*
X105314035Y-69172171D01*
X105202762Y-69013255D01*
X105178494Y-68978597D01*
X105011402Y-68811506D01*
X105011396Y-68811501D01*
X104825842Y-68681575D01*
X104782217Y-68626998D01*
X104775023Y-68557500D01*
X104806546Y-68495145D01*
X104825842Y-68478425D01*
X104909517Y-68419835D01*
X105011401Y-68348495D01*
X105178495Y-68181401D01*
X105314035Y-67987830D01*
X105331503Y-67950370D01*
X111324499Y-67950370D01*
X111324500Y-67950376D01*
X111330907Y-68009983D01*
X111381221Y-68144880D01*
X111386205Y-68214572D01*
X111381221Y-68231546D01*
X111331401Y-68365120D01*
X111331399Y-68365127D01*
X111324998Y-68424655D01*
X111324998Y-68572500D01*
X114249998Y-68572500D01*
X114249998Y-68424672D01*
X114249997Y-68424655D01*
X114243596Y-68365127D01*
X114243594Y-68365120D01*
X114193775Y-68231547D01*
X114188791Y-68161856D01*
X114193775Y-68144880D01*
X114193791Y-68144835D01*
X114193795Y-68144831D01*
X114244090Y-68009983D01*
X114250499Y-67950373D01*
X114250498Y-67626998D01*
X114270182Y-67559960D01*
X114322986Y-67514205D01*
X114374498Y-67502999D01*
X114697870Y-67502999D01*
X114697871Y-67502999D01*
X114757482Y-67496591D01*
X114891668Y-67446542D01*
X114961357Y-67441559D01*
X114978332Y-67446543D01*
X115112516Y-67496590D01*
X115112515Y-67496590D01*
X115119443Y-67497334D01*
X115172126Y-67502999D01*
X115967871Y-67502998D01*
X116027482Y-67496590D01*
X116161665Y-67446542D01*
X116231354Y-67441559D01*
X116248329Y-67446543D01*
X116382516Y-67496591D01*
X116382515Y-67496591D01*
X116389443Y-67497335D01*
X116442126Y-67503000D01*
X117237871Y-67502999D01*
X117297482Y-67496591D01*
X117431668Y-67446542D01*
X117501357Y-67441559D01*
X117518320Y-67446539D01*
X117652516Y-67496591D01*
X117712126Y-67503000D01*
X118507871Y-67502999D01*
X118567482Y-67496591D01*
X118612166Y-67479924D01*
X118681856Y-67474941D01*
X118743179Y-67508425D01*
X118776664Y-67569748D01*
X118779498Y-67596107D01*
X118779498Y-68251590D01*
X118759813Y-68318629D01*
X118752446Y-68328902D01*
X118750183Y-68331738D01*
X118654211Y-68484476D01*
X118594631Y-68654745D01*
X118594630Y-68654750D01*
X118574435Y-68833996D01*
X118574435Y-68834003D01*
X118594630Y-69013249D01*
X118594631Y-69013254D01*
X118654211Y-69183523D01*
X118714822Y-69279984D01*
X118750184Y-69336262D01*
X118877738Y-69463816D01*
X118936649Y-69500832D01*
X119012344Y-69548395D01*
X119030478Y-69559789D01*
X119187079Y-69614586D01*
X119200745Y-69619368D01*
X119200750Y-69619369D01*
X119379996Y-69639565D01*
X119380000Y-69639565D01*
X119380004Y-69639565D01*
X119559249Y-69619369D01*
X119559252Y-69619368D01*
X119559255Y-69619368D01*
X119729522Y-69559789D01*
X119882262Y-69463816D01*
X119927319Y-69418759D01*
X119988642Y-69385274D01*
X120058334Y-69390258D01*
X120102681Y-69418759D01*
X120147738Y-69463816D01*
X120206649Y-69500832D01*
X120282344Y-69548395D01*
X120300478Y-69559789D01*
X120457079Y-69614586D01*
X120470745Y-69619368D01*
X120470750Y-69619369D01*
X120649996Y-69639565D01*
X120650000Y-69639565D01*
X120650004Y-69639565D01*
X120829249Y-69619369D01*
X120829252Y-69619368D01*
X120829255Y-69619368D01*
X120999522Y-69559789D01*
X121152262Y-69463816D01*
X121279816Y-69336262D01*
X121375789Y-69183522D01*
X121435368Y-69013255D01*
X121455565Y-68834000D01*
X121453155Y-68812612D01*
X121435369Y-68654750D01*
X121435368Y-68654745D01*
X121417087Y-68602500D01*
X121375789Y-68484478D01*
X121279816Y-68331738D01*
X121279812Y-68331734D01*
X121277550Y-68328897D01*
X121276658Y-68326713D01*
X121276111Y-68325842D01*
X121276263Y-68325746D01*
X121251143Y-68264210D01*
X121250499Y-68251586D01*
X121250499Y-67596106D01*
X121270184Y-67529067D01*
X121322988Y-67483312D01*
X121392146Y-67473368D01*
X121417831Y-67479924D01*
X121439003Y-67487821D01*
X121462516Y-67496591D01*
X121469444Y-67497335D01*
X121522127Y-67503000D01*
X122317872Y-67502999D01*
X122377483Y-67496591D01*
X122512331Y-67446296D01*
X122512331Y-67446295D01*
X122512381Y-67446277D01*
X122582072Y-67441293D01*
X122599047Y-67446277D01*
X122732619Y-67496096D01*
X122732626Y-67496098D01*
X122792154Y-67502499D01*
X122792171Y-67502500D01*
X122939999Y-67502500D01*
X122939999Y-64577500D01*
X122792154Y-64577500D01*
X122732626Y-64583901D01*
X122732618Y-64583903D01*
X122599047Y-64633722D01*
X122529355Y-64638706D01*
X122512381Y-64633722D01*
X122377482Y-64583408D01*
X122377483Y-64583408D01*
X122317883Y-64577001D01*
X122317881Y-64577000D01*
X122317873Y-64577000D01*
X122317864Y-64577000D01*
X121522129Y-64577000D01*
X121522123Y-64577001D01*
X121462516Y-64583408D01*
X121328332Y-64633456D01*
X121258640Y-64638440D01*
X121241666Y-64633456D01*
X121107481Y-64583408D01*
X121107482Y-64583408D01*
X121047882Y-64577001D01*
X121047880Y-64577000D01*
X121047872Y-64577000D01*
X121047863Y-64577000D01*
X120252128Y-64577000D01*
X120252122Y-64577001D01*
X120192515Y-64583408D01*
X120058331Y-64633456D01*
X119988639Y-64638440D01*
X119971665Y-64633456D01*
X119837480Y-64583408D01*
X119837481Y-64583408D01*
X119777881Y-64577001D01*
X119777879Y-64577000D01*
X119777871Y-64577000D01*
X119777862Y-64577000D01*
X118982127Y-64577000D01*
X118982121Y-64577001D01*
X118922513Y-64583409D01*
X118788330Y-64633455D01*
X118718638Y-64638439D01*
X118701666Y-64633455D01*
X118567484Y-64583409D01*
X118567482Y-64583408D01*
X118507882Y-64577001D01*
X118507880Y-64577000D01*
X118507872Y-64577000D01*
X118507863Y-64577000D01*
X117712128Y-64577000D01*
X117712122Y-64577001D01*
X117652514Y-64583409D01*
X117518331Y-64633455D01*
X117448639Y-64638439D01*
X117431667Y-64633455D01*
X117297484Y-64583409D01*
X117297482Y-64583408D01*
X117237882Y-64577001D01*
X117237880Y-64577000D01*
X117237872Y-64577000D01*
X117237863Y-64577000D01*
X116442128Y-64577000D01*
X116442122Y-64577001D01*
X116382514Y-64583409D01*
X116248332Y-64633455D01*
X116178641Y-64638439D01*
X116161667Y-64633455D01*
X116027481Y-64583407D01*
X116027482Y-64583407D01*
X115967882Y-64577000D01*
X115967880Y-64576999D01*
X115967872Y-64576999D01*
X115967863Y-64576999D01*
X115172128Y-64576999D01*
X115172122Y-64577000D01*
X115112515Y-64583407D01*
X114978331Y-64633455D01*
X114908639Y-64638439D01*
X114891666Y-64633455D01*
X114757484Y-64583409D01*
X114757482Y-64583408D01*
X114697882Y-64577001D01*
X114697880Y-64577000D01*
X114697872Y-64577000D01*
X114697863Y-64577000D01*
X113902128Y-64577000D01*
X113902122Y-64577001D01*
X113842515Y-64583408D01*
X113707670Y-64633702D01*
X113707663Y-64633706D01*
X113592454Y-64719952D01*
X113592451Y-64719955D01*
X113506205Y-64835164D01*
X113506201Y-64835171D01*
X113455907Y-64970017D01*
X113452102Y-65005413D01*
X113449500Y-65029623D01*
X113449499Y-65029635D01*
X113449499Y-66578000D01*
X113429814Y-66645039D01*
X113377010Y-66690794D01*
X113325499Y-66702000D01*
X111777128Y-66702000D01*
X111777122Y-66702001D01*
X111717515Y-66708408D01*
X111582670Y-66758702D01*
X111582663Y-66758706D01*
X111467454Y-66844952D01*
X111467451Y-66844955D01*
X111381205Y-66960164D01*
X111381201Y-66960171D01*
X111330907Y-67095017D01*
X111324500Y-67154616D01*
X111324500Y-67154623D01*
X111324499Y-67154635D01*
X111324499Y-67950370D01*
X105331503Y-67950370D01*
X105413903Y-67773663D01*
X105475063Y-67545408D01*
X105495659Y-67310000D01*
X105495017Y-67302667D01*
X105475063Y-67074596D01*
X105475063Y-67074592D01*
X105413903Y-66846337D01*
X105314035Y-66632171D01*
X105312173Y-66629511D01*
X105178494Y-66438597D01*
X105011402Y-66271506D01*
X105011396Y-66271501D01*
X104825842Y-66141575D01*
X104782217Y-66086998D01*
X104775023Y-66017500D01*
X104806546Y-65955145D01*
X104825842Y-65938425D01*
X104848026Y-65922891D01*
X105011401Y-65808495D01*
X105178495Y-65641401D01*
X105314035Y-65447830D01*
X105413903Y-65233663D01*
X105475063Y-65005408D01*
X105495659Y-64770000D01*
X105475063Y-64534592D01*
X105413903Y-64306337D01*
X105314035Y-64092171D01*
X105277140Y-64039478D01*
X105178494Y-63898597D01*
X105011402Y-63731506D01*
X105011396Y-63731501D01*
X104825842Y-63601575D01*
X104782217Y-63546998D01*
X104775023Y-63477500D01*
X104806546Y-63415145D01*
X104825842Y-63398425D01*
X104848026Y-63382891D01*
X105011401Y-63268495D01*
X105178495Y-63101401D01*
X105226127Y-63033376D01*
X105280704Y-62989751D01*
X105327701Y-62980500D01*
X109941372Y-62980500D01*
X110008411Y-63000185D01*
X110054166Y-63052989D01*
X110059078Y-63065495D01*
X110070976Y-63101401D01*
X110116116Y-63237624D01*
X110116186Y-63237833D01*
X110116187Y-63237836D01*
X110151069Y-63294388D01*
X110208288Y-63387156D01*
X110332344Y-63511212D01*
X110481666Y-63603314D01*
X110648203Y-63658499D01*
X110750991Y-63669000D01*
X111676008Y-63668999D01*
X111676016Y-63668998D01*
X111676019Y-63668998D01*
X111737730Y-63662694D01*
X111778797Y-63658499D01*
X111945334Y-63603314D01*
X112094656Y-63511212D01*
X112218712Y-63387156D01*
X112310814Y-63237834D01*
X112365999Y-63071297D01*
X112376500Y-62968509D01*
X112376500Y-62518500D01*
X113176001Y-62518500D01*
X113176001Y-62968486D01*
X113186494Y-63071197D01*
X113241641Y-63237619D01*
X113241643Y-63237624D01*
X113333684Y-63386845D01*
X113457654Y-63510815D01*
X113606875Y-63602856D01*
X113606880Y-63602858D01*
X113773302Y-63658005D01*
X113773309Y-63658006D01*
X113876019Y-63668499D01*
X114088499Y-63668499D01*
X114088500Y-63668498D01*
X114088500Y-62518500D01*
X114588500Y-62518500D01*
X114588500Y-63668499D01*
X114800972Y-63668499D01*
X114800986Y-63668498D01*
X114903697Y-63658005D01*
X115070119Y-63602858D01*
X115070124Y-63602856D01*
X115219345Y-63510815D01*
X115343315Y-63386845D01*
X115435356Y-63237624D01*
X115435358Y-63237619D01*
X115490505Y-63071197D01*
X115490506Y-63071190D01*
X115500999Y-62968486D01*
X115501000Y-62968473D01*
X115501000Y-62607000D01*
X121011501Y-62607000D01*
X121011501Y-63056986D01*
X121021994Y-63159697D01*
X121077141Y-63326119D01*
X121077143Y-63326124D01*
X121169184Y-63475345D01*
X121293154Y-63599315D01*
X121442375Y-63691356D01*
X121442380Y-63691358D01*
X121608802Y-63746505D01*
X121608809Y-63746506D01*
X121711519Y-63756999D01*
X121923999Y-63756999D01*
X121924000Y-63756998D01*
X121924000Y-62607000D01*
X122424000Y-62607000D01*
X122424000Y-63756999D01*
X122636472Y-63756999D01*
X122636486Y-63756998D01*
X122739197Y-63746505D01*
X122905619Y-63691358D01*
X122905624Y-63691356D01*
X123054845Y-63599315D01*
X123178815Y-63475345D01*
X123270856Y-63326124D01*
X123270858Y-63326119D01*
X123326005Y-63159697D01*
X123326006Y-63159690D01*
X123336499Y-63056986D01*
X123336500Y-63056973D01*
X123336500Y-62607000D01*
X122424000Y-62607000D01*
X121924000Y-62607000D01*
X121011501Y-62607000D01*
X115501000Y-62607000D01*
X115501000Y-62518500D01*
X114588500Y-62518500D01*
X114088500Y-62518500D01*
X113176001Y-62518500D01*
X112376500Y-62518500D01*
X112376499Y-62107000D01*
X121011500Y-62107000D01*
X121924000Y-62107000D01*
X121924000Y-60957000D01*
X122424000Y-60957000D01*
X122424000Y-62107000D01*
X123336499Y-62107000D01*
X123336499Y-61657028D01*
X123336498Y-61657013D01*
X123326005Y-61554302D01*
X123270858Y-61387880D01*
X123270856Y-61387875D01*
X123178815Y-61238654D01*
X123054845Y-61114684D01*
X122905624Y-61022643D01*
X122905619Y-61022641D01*
X122739197Y-60967494D01*
X122739190Y-60967493D01*
X122636486Y-60957000D01*
X122424000Y-60957000D01*
X121924000Y-60957000D01*
X121711529Y-60957000D01*
X121711512Y-60957001D01*
X121608802Y-60967494D01*
X121442380Y-61022641D01*
X121442375Y-61022643D01*
X121293154Y-61114684D01*
X121169184Y-61238654D01*
X121077143Y-61387875D01*
X121077141Y-61387880D01*
X121021994Y-61554302D01*
X121021993Y-61554309D01*
X121011500Y-61657013D01*
X121011500Y-62107000D01*
X112376499Y-62107000D01*
X112376499Y-62018500D01*
X113176000Y-62018500D01*
X114088500Y-62018500D01*
X114088500Y-60868500D01*
X114588500Y-60868500D01*
X114588500Y-62018500D01*
X115500999Y-62018500D01*
X115500999Y-61568528D01*
X115500998Y-61568513D01*
X115490505Y-61465802D01*
X115435358Y-61299380D01*
X115435356Y-61299375D01*
X115343315Y-61150154D01*
X115219345Y-61026184D01*
X115070124Y-60934143D01*
X115070119Y-60934141D01*
X114903697Y-60878994D01*
X114903690Y-60878993D01*
X114800986Y-60868500D01*
X114588500Y-60868500D01*
X114088500Y-60868500D01*
X113876029Y-60868500D01*
X113876012Y-60868501D01*
X113773302Y-60878994D01*
X113606880Y-60934141D01*
X113606875Y-60934143D01*
X113457654Y-61026184D01*
X113333684Y-61150154D01*
X113241643Y-61299375D01*
X113241641Y-61299380D01*
X113186494Y-61465802D01*
X113186493Y-61465809D01*
X113176000Y-61568513D01*
X113176000Y-62018500D01*
X112376499Y-62018500D01*
X112376499Y-61568492D01*
X112375049Y-61554302D01*
X112365999Y-61465703D01*
X112365998Y-61465700D01*
X112340209Y-61387875D01*
X112310814Y-61299166D01*
X112218712Y-61149844D01*
X112094656Y-61025788D01*
X111945334Y-60933686D01*
X111778797Y-60878501D01*
X111778795Y-60878500D01*
X111676010Y-60868000D01*
X110750998Y-60868000D01*
X110750980Y-60868001D01*
X110648203Y-60878500D01*
X110648200Y-60878501D01*
X110481668Y-60933685D01*
X110481663Y-60933687D01*
X110332342Y-61025789D01*
X110208289Y-61149842D01*
X110116187Y-61299163D01*
X110116186Y-61299166D01*
X110086860Y-61387668D01*
X110084594Y-61394505D01*
X110044821Y-61451949D01*
X109980305Y-61478772D01*
X109966888Y-61479500D01*
X105327701Y-61479500D01*
X105260662Y-61459815D01*
X105226126Y-61426623D01*
X105178496Y-61358600D01*
X105119059Y-61299163D01*
X105056179Y-61236283D01*
X105022696Y-61174963D01*
X105027680Y-61105271D01*
X105069551Y-61049337D01*
X105100529Y-61032422D01*
X105232086Y-60983354D01*
X105232093Y-60983350D01*
X105347187Y-60897190D01*
X105347190Y-60897187D01*
X105433350Y-60782093D01*
X105433354Y-60782086D01*
X105483596Y-60647379D01*
X105483598Y-60647372D01*
X105489999Y-60587844D01*
X105490000Y-60587827D01*
X105490000Y-59940000D01*
X104573012Y-59940000D01*
X104605925Y-59882993D01*
X104640000Y-59755826D01*
X104640000Y-59624174D01*
X104605925Y-59497007D01*
X104573012Y-59440000D01*
X105490000Y-59440000D01*
X105490000Y-59040500D01*
X105509685Y-58973461D01*
X105562489Y-58927706D01*
X105614000Y-58916500D01*
X122446770Y-58916500D01*
X122513809Y-58936185D01*
G37*
%TD.AperFunction*%
%TA.AperFunction,Conductor*%
G36*
X113586311Y-83080447D02*
G01*
X113592451Y-83085043D01*
X113592453Y-83085046D01*
X113701342Y-83166560D01*
X113707667Y-83171295D01*
X113707670Y-83171297D01*
X113842516Y-83221591D01*
X113842515Y-83221591D01*
X113849443Y-83222335D01*
X113902126Y-83228000D01*
X114697871Y-83227999D01*
X114757482Y-83221591D01*
X114891665Y-83171543D01*
X114961354Y-83166560D01*
X114978329Y-83171544D01*
X115112516Y-83221592D01*
X115112515Y-83221592D01*
X115119443Y-83222336D01*
X115172126Y-83228001D01*
X115967871Y-83228000D01*
X116027482Y-83221592D01*
X116161668Y-83171543D01*
X116231357Y-83166560D01*
X116248332Y-83171544D01*
X116382516Y-83221591D01*
X116382515Y-83221591D01*
X116389443Y-83222335D01*
X116442126Y-83228000D01*
X117235499Y-83227999D01*
X117302538Y-83247683D01*
X117348293Y-83300487D01*
X117359499Y-83351999D01*
X117359499Y-85001270D01*
X117339814Y-85068309D01*
X117323180Y-85088951D01*
X115478500Y-86933630D01*
X115417177Y-86967115D01*
X115380012Y-86969477D01*
X115167002Y-86950841D01*
X115166999Y-86950841D01*
X114931596Y-86971436D01*
X114931586Y-86971438D01*
X114703344Y-87032594D01*
X114703335Y-87032598D01*
X114489171Y-87132464D01*
X114489169Y-87132465D01*
X114295597Y-87268005D01*
X114128505Y-87435097D01*
X113992965Y-87628669D01*
X113992964Y-87628671D01*
X113893098Y-87842835D01*
X113893094Y-87842844D01*
X113831938Y-88071086D01*
X113831936Y-88071096D01*
X113811341Y-88306499D01*
X113811341Y-88306500D01*
X113831936Y-88541903D01*
X113831938Y-88541913D01*
X113893094Y-88770155D01*
X113893096Y-88770159D01*
X113893097Y-88770163D01*
X113972801Y-88941088D01*
X113992965Y-88984330D01*
X113992967Y-88984334D01*
X114053018Y-89070095D01*
X114128505Y-89177901D01*
X114295599Y-89344995D01*
X114392384Y-89412765D01*
X114489165Y-89480532D01*
X114489167Y-89480533D01*
X114489170Y-89480535D01*
X114703337Y-89580403D01*
X114931592Y-89641563D01*
X115108034Y-89657000D01*
X115166999Y-89662159D01*
X115167000Y-89662159D01*
X115167001Y-89662159D01*
X115225966Y-89657000D01*
X115402408Y-89641563D01*
X115630663Y-89580403D01*
X115844830Y-89480535D01*
X116038401Y-89344995D01*
X116205495Y-89177901D01*
X116335730Y-88991905D01*
X116390307Y-88948281D01*
X116459805Y-88941087D01*
X116522160Y-88972610D01*
X116538879Y-88991905D01*
X116668890Y-89177578D01*
X116835917Y-89344605D01*
X117029421Y-89480100D01*
X117243507Y-89579929D01*
X117243516Y-89579933D01*
X117457000Y-89637134D01*
X117457000Y-88739512D01*
X117514007Y-88772425D01*
X117641174Y-88806500D01*
X117772826Y-88806500D01*
X117899993Y-88772425D01*
X117957000Y-88739512D01*
X117957000Y-89637133D01*
X118170483Y-89579933D01*
X118170492Y-89579929D01*
X118384578Y-89480100D01*
X118578082Y-89344605D01*
X118745105Y-89177582D01*
X118875119Y-88991905D01*
X118929696Y-88948281D01*
X118999195Y-88941088D01*
X119061549Y-88972610D01*
X119078269Y-88991905D01*
X119208505Y-89177901D01*
X119375599Y-89344995D01*
X119472384Y-89412765D01*
X119569165Y-89480532D01*
X119569167Y-89480533D01*
X119569170Y-89480535D01*
X119783337Y-89580403D01*
X120011592Y-89641563D01*
X120188034Y-89657000D01*
X120246999Y-89662159D01*
X120247000Y-89662159D01*
X120247001Y-89662159D01*
X120305966Y-89657000D01*
X120482408Y-89641563D01*
X120710663Y-89580403D01*
X120924830Y-89480535D01*
X121118401Y-89344995D01*
X121285495Y-89177901D01*
X121415425Y-88992342D01*
X121470002Y-88948717D01*
X121539500Y-88941523D01*
X121601855Y-88973046D01*
X121618575Y-88992342D01*
X121748500Y-89177895D01*
X121748505Y-89177901D01*
X121915599Y-89344995D01*
X122012384Y-89412765D01*
X122109165Y-89480532D01*
X122109167Y-89480533D01*
X122109170Y-89480535D01*
X122323337Y-89580403D01*
X122551592Y-89641563D01*
X122728034Y-89657000D01*
X122786999Y-89662159D01*
X122787000Y-89662159D01*
X122787001Y-89662159D01*
X122845966Y-89657000D01*
X123022408Y-89641563D01*
X123250663Y-89580403D01*
X123464830Y-89480535D01*
X123658401Y-89344995D01*
X123825495Y-89177901D01*
X123955425Y-88992342D01*
X124010002Y-88948717D01*
X124079500Y-88941523D01*
X124141855Y-88973046D01*
X124158575Y-88992342D01*
X124288500Y-89177895D01*
X124288505Y-89177901D01*
X124455599Y-89344995D01*
X124552384Y-89412765D01*
X124649165Y-89480532D01*
X124649167Y-89480533D01*
X124649170Y-89480535D01*
X124863337Y-89580403D01*
X125091592Y-89641563D01*
X125268034Y-89657000D01*
X125326999Y-89662159D01*
X125327000Y-89662159D01*
X125327001Y-89662159D01*
X125385966Y-89657000D01*
X125562408Y-89641563D01*
X125790663Y-89580403D01*
X126004830Y-89480535D01*
X126198401Y-89344995D01*
X126320329Y-89223066D01*
X126381648Y-89189584D01*
X126451340Y-89194568D01*
X126507274Y-89236439D01*
X126524189Y-89267417D01*
X126573202Y-89398828D01*
X126573206Y-89398835D01*
X126659452Y-89514044D01*
X126659455Y-89514047D01*
X126774664Y-89600293D01*
X126774671Y-89600297D01*
X126909517Y-89650591D01*
X126909516Y-89650591D01*
X126916444Y-89651335D01*
X126969127Y-89657000D01*
X128764872Y-89656999D01*
X128824483Y-89650591D01*
X128959331Y-89600296D01*
X129074546Y-89514046D01*
X129160796Y-89398831D01*
X129211091Y-89263983D01*
X129217500Y-89204373D01*
X129217499Y-87856595D01*
X129237184Y-87789557D01*
X129253813Y-87768920D01*
X132503322Y-84519412D01*
X132564642Y-84485930D01*
X132634334Y-84490914D01*
X132690267Y-84532786D01*
X132714684Y-84598250D01*
X132715000Y-84607096D01*
X132715000Y-88674668D01*
X132695315Y-88741707D01*
X132642511Y-88787462D01*
X132573353Y-88797406D01*
X132518874Y-88772764D01*
X132517587Y-88774536D01*
X132513648Y-88771674D01*
X132513646Y-88771672D01*
X132354405Y-88655976D01*
X132179029Y-88566617D01*
X131991826Y-88505790D01*
X131797422Y-88475000D01*
X131797417Y-88475000D01*
X131600583Y-88475000D01*
X131600578Y-88475000D01*
X131406173Y-88505790D01*
X131218970Y-88566617D01*
X131043594Y-88655976D01*
X130987033Y-88697071D01*
X130884354Y-88771672D01*
X130884352Y-88771674D01*
X130884351Y-88771674D01*
X130745174Y-88910851D01*
X130745174Y-88910852D01*
X130745172Y-88910854D01*
X130723206Y-88941088D01*
X130629476Y-89070094D01*
X130540117Y-89245470D01*
X130479290Y-89432673D01*
X130448500Y-89627077D01*
X130448500Y-89823922D01*
X130479290Y-90018326D01*
X130540117Y-90205529D01*
X130620733Y-90363746D01*
X130629476Y-90380905D01*
X130745172Y-90540146D01*
X130884354Y-90679328D01*
X131043595Y-90795024D01*
X131126455Y-90837243D01*
X131218970Y-90884382D01*
X131218972Y-90884382D01*
X131218975Y-90884384D01*
X131314164Y-90915313D01*
X131406173Y-90945209D01*
X131600578Y-90976000D01*
X131600583Y-90976000D01*
X131797422Y-90976000D01*
X131991826Y-90945209D01*
X132179025Y-90884384D01*
X132354405Y-90795024D01*
X132513646Y-90679328D01*
X132513648Y-90679325D01*
X132517587Y-90676464D01*
X132518910Y-90678285D01*
X132574109Y-90653487D01*
X132643205Y-90663856D01*
X132695726Y-90709935D01*
X132715000Y-90776331D01*
X132715000Y-91578296D01*
X132695315Y-91645335D01*
X132642511Y-91691090D01*
X132573353Y-91701034D01*
X132518115Y-91678615D01*
X132380609Y-91578712D01*
X132198223Y-91485781D01*
X132003534Y-91422522D01*
X131828995Y-91394878D01*
X131801352Y-91390500D01*
X131596648Y-91390500D01*
X131572329Y-91394351D01*
X131394465Y-91422522D01*
X131199776Y-91485781D01*
X131017386Y-91578715D01*
X130851786Y-91699028D01*
X130707028Y-91843786D01*
X130586715Y-92009386D01*
X130539485Y-92102080D01*
X130491510Y-92152876D01*
X130423689Y-92169671D01*
X130357554Y-92147134D01*
X130318515Y-92102080D01*
X130317883Y-92100840D01*
X130271287Y-92009390D01*
X130263556Y-91998749D01*
X130150971Y-91843786D01*
X130006213Y-91699028D01*
X129840613Y-91578715D01*
X129840612Y-91578714D01*
X129840610Y-91578713D01*
X129783653Y-91549691D01*
X129658223Y-91485781D01*
X129463534Y-91422522D01*
X129288995Y-91394878D01*
X129261352Y-91390500D01*
X129056648Y-91390500D01*
X129032329Y-91394351D01*
X128854465Y-91422522D01*
X128659776Y-91485781D01*
X128477386Y-91578715D01*
X128311786Y-91699028D01*
X128167028Y-91843786D01*
X128046715Y-92009386D01*
X127999485Y-92102080D01*
X127951510Y-92152876D01*
X127883689Y-92169671D01*
X127817554Y-92147134D01*
X127778515Y-92102080D01*
X127777883Y-92100840D01*
X127731287Y-92009390D01*
X127723556Y-91998749D01*
X127610971Y-91843786D01*
X127466213Y-91699028D01*
X127300613Y-91578715D01*
X127300612Y-91578714D01*
X127300610Y-91578713D01*
X127243653Y-91549691D01*
X127118223Y-91485781D01*
X126923534Y-91422522D01*
X126748995Y-91394878D01*
X126721352Y-91390500D01*
X126516648Y-91390500D01*
X126492329Y-91394351D01*
X126314465Y-91422522D01*
X126119776Y-91485781D01*
X125937386Y-91578715D01*
X125771786Y-91699028D01*
X125627028Y-91843786D01*
X125506715Y-92009386D01*
X125459485Y-92102080D01*
X125411510Y-92152876D01*
X125343689Y-92169671D01*
X125277554Y-92147134D01*
X125238515Y-92102080D01*
X125237883Y-92100840D01*
X125191287Y-92009390D01*
X125183556Y-91998749D01*
X125070971Y-91843786D01*
X124926213Y-91699028D01*
X124760613Y-91578715D01*
X124760612Y-91578714D01*
X124760610Y-91578713D01*
X124703653Y-91549691D01*
X124578223Y-91485781D01*
X124383534Y-91422522D01*
X124208995Y-91394878D01*
X124181352Y-91390500D01*
X123976648Y-91390500D01*
X123952329Y-91394351D01*
X123774465Y-91422522D01*
X123579776Y-91485781D01*
X123397386Y-91578715D01*
X123231786Y-91699028D01*
X123087028Y-91843786D01*
X122966715Y-92009386D01*
X122919485Y-92102080D01*
X122871510Y-92152876D01*
X122803689Y-92169671D01*
X122737554Y-92147134D01*
X122698515Y-92102080D01*
X122697883Y-92100840D01*
X122651287Y-92009390D01*
X122643556Y-91998749D01*
X122530971Y-91843786D01*
X122386213Y-91699028D01*
X122220613Y-91578715D01*
X122220612Y-91578714D01*
X122220610Y-91578713D01*
X122163653Y-91549691D01*
X122038223Y-91485781D01*
X121843534Y-91422522D01*
X121668995Y-91394878D01*
X121641352Y-91390500D01*
X121436648Y-91390500D01*
X121412329Y-91394351D01*
X121234465Y-91422522D01*
X121039776Y-91485781D01*
X120857386Y-91578715D01*
X120691786Y-91699028D01*
X120547028Y-91843786D01*
X120426715Y-92009386D01*
X120379485Y-92102080D01*
X120331510Y-92152876D01*
X120263689Y-92169671D01*
X120197554Y-92147134D01*
X120158515Y-92102080D01*
X120157883Y-92100840D01*
X120111287Y-92009390D01*
X120103556Y-91998749D01*
X119990971Y-91843786D01*
X119846213Y-91699028D01*
X119680613Y-91578715D01*
X119680612Y-91578714D01*
X119680610Y-91578713D01*
X119623653Y-91549691D01*
X119498223Y-91485781D01*
X119303534Y-91422522D01*
X119128995Y-91394878D01*
X119101352Y-91390500D01*
X118896648Y-91390500D01*
X118872329Y-91394351D01*
X118694465Y-91422522D01*
X118499776Y-91485781D01*
X118317386Y-91578715D01*
X118151786Y-91699028D01*
X118007028Y-91843786D01*
X117886713Y-92009388D01*
X117839203Y-92102630D01*
X117791228Y-92153426D01*
X117723407Y-92170220D01*
X117657272Y-92147682D01*
X117618234Y-92102628D01*
X117570861Y-92009652D01*
X117450582Y-91844105D01*
X117450582Y-91844104D01*
X117305895Y-91699417D01*
X117140349Y-91579140D01*
X116958029Y-91486244D01*
X116763413Y-91423009D01*
X116709000Y-91414390D01*
X116709000Y-92775314D01*
X116704606Y-92770920D01*
X116613394Y-92718259D01*
X116511661Y-92691000D01*
X116406339Y-92691000D01*
X116304606Y-92718259D01*
X116213394Y-92770920D01*
X116209000Y-92775314D01*
X116209000Y-91414390D01*
X116154586Y-91423009D01*
X115959970Y-91486244D01*
X115777650Y-91579140D01*
X115612105Y-91699417D01*
X115612104Y-91699417D01*
X115467417Y-91844104D01*
X115467417Y-91844105D01*
X115347140Y-92009650D01*
X115254244Y-92191968D01*
X115191009Y-92386582D01*
X115159000Y-92588682D01*
X115159000Y-92841000D01*
X116143314Y-92841000D01*
X116138920Y-92845394D01*
X116086259Y-92936606D01*
X116059000Y-93038339D01*
X116059000Y-93143661D01*
X116086259Y-93245394D01*
X116138920Y-93336606D01*
X116143314Y-93341000D01*
X115159000Y-93341000D01*
X115159000Y-93593317D01*
X115191009Y-93795417D01*
X115254244Y-93990031D01*
X115347140Y-94172349D01*
X115467417Y-94337894D01*
X115467417Y-94337895D01*
X115612104Y-94482582D01*
X115777650Y-94602859D01*
X115959968Y-94695754D01*
X116154578Y-94758988D01*
X116209000Y-94767607D01*
X116209000Y-93406686D01*
X116213394Y-93411080D01*
X116304606Y-93463741D01*
X116406339Y-93491000D01*
X116511661Y-93491000D01*
X116613394Y-93463741D01*
X116704606Y-93411080D01*
X116709000Y-93406686D01*
X116709000Y-94767606D01*
X116763421Y-94758988D01*
X116958031Y-94695754D01*
X117140349Y-94602859D01*
X117305894Y-94482582D01*
X117305895Y-94482582D01*
X117450582Y-94337895D01*
X117450582Y-94337894D01*
X117570861Y-94172347D01*
X117618234Y-94079371D01*
X117666208Y-94028575D01*
X117734028Y-94011779D01*
X117800164Y-94034316D01*
X117839203Y-94079369D01*
X117886713Y-94172611D01*
X118007028Y-94338213D01*
X118151786Y-94482971D01*
X118306749Y-94595556D01*
X118317390Y-94603287D01*
X118424444Y-94657834D01*
X118499776Y-94696218D01*
X118499778Y-94696218D01*
X118499781Y-94696220D01*
X118604137Y-94730127D01*
X118694465Y-94759477D01*
X118795557Y-94775488D01*
X118896648Y-94791500D01*
X118896649Y-94791500D01*
X119101351Y-94791500D01*
X119101352Y-94791500D01*
X119303534Y-94759477D01*
X119498219Y-94696220D01*
X119680610Y-94603287D01*
X119773590Y-94535732D01*
X119846213Y-94482971D01*
X119846215Y-94482968D01*
X119846219Y-94482966D01*
X119990966Y-94338219D01*
X119990968Y-94338215D01*
X119990971Y-94338213D01*
X120111284Y-94172614D01*
X120111286Y-94172611D01*
X120111287Y-94172610D01*
X120158516Y-94079917D01*
X120206489Y-94029123D01*
X120274310Y-94012328D01*
X120340445Y-94034865D01*
X120379485Y-94079919D01*
X120426715Y-94172614D01*
X120547028Y-94338213D01*
X120691786Y-94482971D01*
X120846749Y-94595556D01*
X120857390Y-94603287D01*
X120964444Y-94657834D01*
X121039776Y-94696218D01*
X121039778Y-94696218D01*
X121039781Y-94696220D01*
X121144137Y-94730127D01*
X121234465Y-94759477D01*
X121335557Y-94775488D01*
X121436648Y-94791500D01*
X121436649Y-94791500D01*
X121641351Y-94791500D01*
X121641352Y-94791500D01*
X121843534Y-94759477D01*
X122038219Y-94696220D01*
X122220610Y-94603287D01*
X122313590Y-94535732D01*
X122386213Y-94482971D01*
X122386215Y-94482968D01*
X122386219Y-94482966D01*
X122530966Y-94338219D01*
X122530968Y-94338215D01*
X122530971Y-94338213D01*
X122651284Y-94172614D01*
X122651286Y-94172611D01*
X122651287Y-94172610D01*
X122698516Y-94079917D01*
X122746489Y-94029123D01*
X122814310Y-94012328D01*
X122880445Y-94034865D01*
X122919485Y-94079919D01*
X122966715Y-94172614D01*
X123087028Y-94338213D01*
X123231786Y-94482971D01*
X123386749Y-94595556D01*
X123397390Y-94603287D01*
X123504444Y-94657834D01*
X123579776Y-94696218D01*
X123579778Y-94696218D01*
X123579781Y-94696220D01*
X123684137Y-94730127D01*
X123774465Y-94759477D01*
X123875557Y-94775488D01*
X123976648Y-94791500D01*
X123976649Y-94791500D01*
X124181351Y-94791500D01*
X124181352Y-94791500D01*
X124383534Y-94759477D01*
X124578219Y-94696220D01*
X124760610Y-94603287D01*
X124853590Y-94535732D01*
X124926213Y-94482971D01*
X124926215Y-94482968D01*
X124926219Y-94482966D01*
X125070966Y-94338219D01*
X125070968Y-94338215D01*
X125070971Y-94338213D01*
X125191284Y-94172614D01*
X125191286Y-94172611D01*
X125191287Y-94172610D01*
X125238516Y-94079917D01*
X125286489Y-94029123D01*
X125354310Y-94012328D01*
X125420445Y-94034865D01*
X125459485Y-94079919D01*
X125506715Y-94172614D01*
X125627028Y-94338213D01*
X125771786Y-94482971D01*
X125926749Y-94595556D01*
X125937390Y-94603287D01*
X126044444Y-94657834D01*
X126119776Y-94696218D01*
X126119778Y-94696218D01*
X126119781Y-94696220D01*
X126224137Y-94730127D01*
X126314465Y-94759477D01*
X126415557Y-94775488D01*
X126516648Y-94791500D01*
X126516649Y-94791500D01*
X126721351Y-94791500D01*
X126721352Y-94791500D01*
X126923534Y-94759477D01*
X127118219Y-94696220D01*
X127300610Y-94603287D01*
X127393590Y-94535732D01*
X127466213Y-94482971D01*
X127466215Y-94482968D01*
X127466219Y-94482966D01*
X127610966Y-94338219D01*
X127610968Y-94338215D01*
X127610971Y-94338213D01*
X127731284Y-94172614D01*
X127731286Y-94172611D01*
X127731287Y-94172610D01*
X127778516Y-94079917D01*
X127826489Y-94029123D01*
X127894310Y-94012328D01*
X127960445Y-94034865D01*
X127999485Y-94079919D01*
X128046715Y-94172614D01*
X128167028Y-94338213D01*
X128311786Y-94482971D01*
X128466749Y-94595556D01*
X128477390Y-94603287D01*
X128584444Y-94657834D01*
X128659776Y-94696218D01*
X128659778Y-94696218D01*
X128659781Y-94696220D01*
X128764137Y-94730127D01*
X128854465Y-94759477D01*
X128955557Y-94775488D01*
X129056648Y-94791500D01*
X129056649Y-94791500D01*
X129261351Y-94791500D01*
X129261352Y-94791500D01*
X129463534Y-94759477D01*
X129658219Y-94696220D01*
X129840610Y-94603287D01*
X129933590Y-94535732D01*
X130006213Y-94482971D01*
X130006215Y-94482968D01*
X130006219Y-94482966D01*
X130150966Y-94338219D01*
X130150968Y-94338215D01*
X130150971Y-94338213D01*
X130271284Y-94172614D01*
X130271286Y-94172611D01*
X130271287Y-94172610D01*
X130318516Y-94079917D01*
X130366489Y-94029123D01*
X130434310Y-94012328D01*
X130500445Y-94034865D01*
X130539485Y-94079919D01*
X130586715Y-94172614D01*
X130707028Y-94338213D01*
X130851786Y-94482971D01*
X131006749Y-94595556D01*
X131017390Y-94603287D01*
X131124444Y-94657834D01*
X131199776Y-94696218D01*
X131199778Y-94696218D01*
X131199781Y-94696220D01*
X131304137Y-94730127D01*
X131394465Y-94759477D01*
X131495557Y-94775488D01*
X131596648Y-94791500D01*
X131596649Y-94791500D01*
X131801351Y-94791500D01*
X131801352Y-94791500D01*
X132003534Y-94759477D01*
X132198219Y-94696220D01*
X132380610Y-94603287D01*
X132471898Y-94536962D01*
X132518115Y-94503385D01*
X132583921Y-94479905D01*
X132651975Y-94495731D01*
X132700670Y-94545837D01*
X132715000Y-94603703D01*
X132715000Y-99198296D01*
X132695315Y-99265335D01*
X132642511Y-99311090D01*
X132573353Y-99321034D01*
X132518115Y-99298615D01*
X132380609Y-99198712D01*
X132198223Y-99105781D01*
X132003534Y-99042522D01*
X131828995Y-99014878D01*
X131801352Y-99010500D01*
X131596648Y-99010500D01*
X131556184Y-99016909D01*
X131394464Y-99042523D01*
X131394461Y-99042523D01*
X131238361Y-99093244D01*
X131168520Y-99095239D01*
X131112362Y-99062994D01*
X130427421Y-98378052D01*
X130427414Y-98378046D01*
X130353729Y-98328812D01*
X130353729Y-98328813D01*
X130304491Y-98295913D01*
X130167917Y-98239343D01*
X130167907Y-98239340D01*
X130022920Y-98210500D01*
X130022918Y-98210500D01*
X120675082Y-98210500D01*
X120675076Y-98210500D01*
X120646242Y-98216234D01*
X120646243Y-98216235D01*
X120530093Y-98239339D01*
X120530083Y-98239342D01*
X120450081Y-98272479D01*
X120450082Y-98272480D01*
X120393502Y-98295917D01*
X120344269Y-98328813D01*
X120270588Y-98378044D01*
X120270580Y-98378050D01*
X119961181Y-98687450D01*
X119899858Y-98720935D01*
X119830166Y-98715951D01*
X119774233Y-98674079D01*
X119749816Y-98608615D01*
X119749500Y-98599769D01*
X119749500Y-97335079D01*
X119720659Y-97190092D01*
X119720658Y-97190091D01*
X119720658Y-97190087D01*
X119706134Y-97155023D01*
X119664087Y-97053511D01*
X119664085Y-97053507D01*
X119664084Y-97053505D01*
X119617417Y-96983663D01*
X119614087Y-96978679D01*
X119581954Y-96930586D01*
X119581952Y-96930584D01*
X118284421Y-95633052D01*
X118284414Y-95633046D01*
X118210729Y-95583812D01*
X118210729Y-95583813D01*
X118161491Y-95550913D01*
X118024917Y-95494343D01*
X118024907Y-95494340D01*
X117879920Y-95465500D01*
X117879918Y-95465500D01*
X115558861Y-95465500D01*
X115491822Y-95445815D01*
X115451474Y-95403500D01*
X115416013Y-95342080D01*
X115372859Y-95267335D01*
X115314933Y-95203002D01*
X115253235Y-95134478D01*
X115253232Y-95134476D01*
X115253231Y-95134475D01*
X115253230Y-95134474D01*
X115108593Y-95029388D01*
X114945267Y-94956671D01*
X114945265Y-94956670D01*
X114817594Y-94929533D01*
X114770391Y-94919500D01*
X114591609Y-94919500D01*
X114560954Y-94926015D01*
X114416733Y-94956670D01*
X114416728Y-94956672D01*
X114253408Y-95029387D01*
X114108767Y-95134476D01*
X114102691Y-95141224D01*
X114043201Y-95177868D01*
X113973344Y-95176533D01*
X113945451Y-95163784D01*
X113872340Y-95118689D01*
X113872335Y-95118687D01*
X113872334Y-95118686D01*
X113705797Y-95063501D01*
X113705795Y-95063500D01*
X113603010Y-95053000D01*
X112202998Y-95053000D01*
X112202981Y-95053001D01*
X112100203Y-95063500D01*
X112100200Y-95063501D01*
X111933668Y-95118685D01*
X111933663Y-95118687D01*
X111784342Y-95210789D01*
X111660289Y-95334842D01*
X111568187Y-95484163D01*
X111568185Y-95484168D01*
X111546068Y-95550913D01*
X111513001Y-95650703D01*
X111513001Y-95650704D01*
X111513000Y-95650704D01*
X111502500Y-95753483D01*
X111502500Y-96678501D01*
X111502501Y-96678519D01*
X111513000Y-96781296D01*
X111513001Y-96781299D01*
X111568185Y-96947831D01*
X111568187Y-96947836D01*
X111590285Y-96983663D01*
X111660288Y-97097156D01*
X111784344Y-97221212D01*
X111933666Y-97313314D01*
X112100203Y-97368499D01*
X112202991Y-97379000D01*
X113603008Y-97378999D01*
X113705797Y-97368499D01*
X113872334Y-97313314D01*
X114021656Y-97221212D01*
X114145712Y-97097156D01*
X114189970Y-97025402D01*
X114241917Y-96978679D01*
X114295508Y-96966500D01*
X114308920Y-96966500D01*
X114406462Y-96947096D01*
X114453913Y-96937658D01*
X114590495Y-96881084D01*
X114612107Y-96866642D01*
X114678779Y-96845763D01*
X114746160Y-96864244D01*
X114749882Y-96866635D01*
X114771505Y-96881084D01*
X114771506Y-96881084D01*
X114771507Y-96881085D01*
X114771509Y-96881086D01*
X114908082Y-96937656D01*
X114908087Y-96937658D01*
X114908091Y-96937658D01*
X114908092Y-96937659D01*
X115053079Y-96966500D01*
X115053082Y-96966500D01*
X115200917Y-96966500D01*
X117443770Y-96966500D01*
X117510809Y-96986185D01*
X117531451Y-97002819D01*
X118212181Y-97683549D01*
X118245666Y-97744872D01*
X118248500Y-97771230D01*
X118248500Y-99185582D01*
X118228815Y-99252621D01*
X118197385Y-99285900D01*
X118151787Y-99319028D01*
X118151782Y-99319032D01*
X118007032Y-99463782D01*
X117980668Y-99500070D01*
X117925338Y-99542735D01*
X117855724Y-99548714D01*
X117793929Y-99516108D01*
X117759572Y-99455269D01*
X117757060Y-99440438D01*
X117756640Y-99436533D01*
X117753091Y-99403517D01*
X117702796Y-99268669D01*
X117702795Y-99268668D01*
X117702793Y-99268664D01*
X117616547Y-99153455D01*
X117616544Y-99153452D01*
X117501335Y-99067206D01*
X117501328Y-99067202D01*
X117366482Y-99016908D01*
X117366483Y-99016908D01*
X117306883Y-99010501D01*
X117306881Y-99010500D01*
X117306873Y-99010500D01*
X117306864Y-99010500D01*
X115611129Y-99010500D01*
X115611123Y-99010501D01*
X115551516Y-99016908D01*
X115416671Y-99067202D01*
X115416664Y-99067206D01*
X115301455Y-99153452D01*
X115301452Y-99153455D01*
X115215206Y-99268664D01*
X115215202Y-99268671D01*
X115164908Y-99403517D01*
X115158501Y-99463116D01*
X115158500Y-99463135D01*
X115158500Y-101958870D01*
X115158501Y-101958876D01*
X115164908Y-102018483D01*
X115215202Y-102153328D01*
X115215206Y-102153335D01*
X115301452Y-102268544D01*
X115301455Y-102268547D01*
X115416664Y-102354793D01*
X115416671Y-102354797D01*
X115551517Y-102405091D01*
X115551516Y-102405091D01*
X115558444Y-102405835D01*
X115611127Y-102411500D01*
X117306872Y-102411499D01*
X117366483Y-102405091D01*
X117501331Y-102354796D01*
X117616546Y-102268546D01*
X117702796Y-102153331D01*
X117753091Y-102018483D01*
X117757061Y-101981556D01*
X117783796Y-101917011D01*
X117841188Y-101877161D01*
X117911013Y-101874666D01*
X117971102Y-101910317D01*
X117980667Y-101921929D01*
X118007032Y-101958217D01*
X118151786Y-102102971D01*
X118306749Y-102215556D01*
X118317390Y-102223287D01*
X118424444Y-102277834D01*
X118499776Y-102316218D01*
X118499778Y-102316218D01*
X118499781Y-102316220D01*
X118604137Y-102350127D01*
X118694465Y-102379477D01*
X118782718Y-102393455D01*
X118896648Y-102411500D01*
X118896649Y-102411500D01*
X119101351Y-102411500D01*
X119101352Y-102411500D01*
X119303534Y-102379477D01*
X119498219Y-102316220D01*
X119680610Y-102223287D01*
X119776901Y-102153328D01*
X119846213Y-102102971D01*
X119846215Y-102102968D01*
X119846219Y-102102966D01*
X119990966Y-101958219D01*
X119990968Y-101958215D01*
X119990971Y-101958213D01*
X120111284Y-101792614D01*
X120111283Y-101792614D01*
X120111287Y-101792610D01*
X120158516Y-101699917D01*
X120206489Y-101649123D01*
X120274310Y-101632328D01*
X120340445Y-101654865D01*
X120379485Y-101699919D01*
X120426715Y-101792614D01*
X120547028Y-101958213D01*
X120691786Y-102102971D01*
X120846749Y-102215556D01*
X120857390Y-102223287D01*
X120964444Y-102277834D01*
X121039776Y-102316218D01*
X121039778Y-102316218D01*
X121039781Y-102316220D01*
X121152241Y-102352760D01*
X121234459Y-102379475D01*
X121234460Y-102379475D01*
X121234466Y-102379477D01*
X121322732Y-102393456D01*
X121385864Y-102423384D01*
X121391013Y-102428248D01*
X122619233Y-103656468D01*
X122652718Y-103717791D01*
X122651327Y-103776241D01*
X122616939Y-103904583D01*
X122616936Y-103904596D01*
X122596341Y-104139999D01*
X122596341Y-104140000D01*
X122616936Y-104375403D01*
X122616938Y-104375413D01*
X122678094Y-104603655D01*
X122678096Y-104603659D01*
X122678097Y-104603663D01*
X122682000Y-104612032D01*
X122777965Y-104817830D01*
X122777967Y-104817834D01*
X122837491Y-104902842D01*
X122913501Y-105011396D01*
X122913506Y-105011402D01*
X123035430Y-105133326D01*
X123068915Y-105194649D01*
X123063931Y-105264341D01*
X123022059Y-105320274D01*
X122991083Y-105337189D01*
X122859669Y-105386203D01*
X122859664Y-105386206D01*
X122744455Y-105472452D01*
X122744452Y-105472455D01*
X122658206Y-105587664D01*
X122658202Y-105587671D01*
X122607908Y-105722517D01*
X122601501Y-105782116D01*
X122601500Y-105782135D01*
X122601500Y-107577870D01*
X122601501Y-107577876D01*
X122607908Y-107637483D01*
X122658202Y-107772328D01*
X122658206Y-107772335D01*
X122744452Y-107887544D01*
X122744455Y-107887547D01*
X122859664Y-107973793D01*
X122859671Y-107973797D01*
X122994517Y-108024091D01*
X122994516Y-108024091D01*
X123001444Y-108024835D01*
X123054127Y-108030500D01*
X124849872Y-108030499D01*
X124909483Y-108024091D01*
X125044331Y-107973796D01*
X125159546Y-107887546D01*
X125245796Y-107772331D01*
X125294810Y-107640916D01*
X125336681Y-107584984D01*
X125402145Y-107560566D01*
X125470418Y-107575417D01*
X125498673Y-107596569D01*
X125620599Y-107718495D01*
X125717384Y-107786265D01*
X125814165Y-107854032D01*
X125814167Y-107854033D01*
X125814170Y-107854035D01*
X126028337Y-107953903D01*
X126256592Y-108015063D01*
X126433034Y-108030500D01*
X126491999Y-108035659D01*
X126492000Y-108035659D01*
X126492001Y-108035659D01*
X126550966Y-108030500D01*
X126727408Y-108015063D01*
X126955663Y-107953903D01*
X127169830Y-107854035D01*
X127363401Y-107718495D01*
X127530495Y-107551401D01*
X127660425Y-107365842D01*
X127715002Y-107322217D01*
X127784500Y-107315023D01*
X127846855Y-107346546D01*
X127863575Y-107365842D01*
X127993281Y-107551082D01*
X127993505Y-107551401D01*
X128160599Y-107718495D01*
X128257384Y-107786265D01*
X128354165Y-107854032D01*
X128354167Y-107854033D01*
X128354170Y-107854035D01*
X128568337Y-107953903D01*
X128796592Y-108015063D01*
X128973034Y-108030500D01*
X129031999Y-108035659D01*
X129032000Y-108035659D01*
X129032001Y-108035659D01*
X129090966Y-108030500D01*
X129267408Y-108015063D01*
X129495663Y-107953903D01*
X129709830Y-107854035D01*
X129903401Y-107718495D01*
X130070495Y-107551401D01*
X130200425Y-107365842D01*
X130255002Y-107322217D01*
X130324500Y-107315023D01*
X130386855Y-107346546D01*
X130403575Y-107365842D01*
X130533281Y-107551082D01*
X130533505Y-107551401D01*
X130700599Y-107718495D01*
X130797384Y-107786265D01*
X130894165Y-107854032D01*
X130894167Y-107854033D01*
X130894170Y-107854035D01*
X131108337Y-107953903D01*
X131336592Y-108015063D01*
X131513034Y-108030500D01*
X131571999Y-108035659D01*
X131572000Y-108035659D01*
X131572001Y-108035659D01*
X131630966Y-108030500D01*
X131807408Y-108015063D01*
X132035663Y-107953903D01*
X132249830Y-107854035D01*
X132443401Y-107718495D01*
X132503319Y-107658577D01*
X132564642Y-107625092D01*
X132634334Y-107630076D01*
X132690267Y-107671948D01*
X132714684Y-107737412D01*
X132715000Y-107746258D01*
X132715000Y-108461000D01*
X132695315Y-108528039D01*
X132642511Y-108573794D01*
X132591000Y-108585000D01*
X109215960Y-108585000D01*
X109148921Y-108565315D01*
X109103166Y-108512511D01*
X109093222Y-108443353D01*
X109122247Y-108379797D01*
X109175005Y-108343958D01*
X109315522Y-108294789D01*
X109468262Y-108198816D01*
X109595816Y-108071262D01*
X109691789Y-107918522D01*
X109751368Y-107748255D01*
X109754721Y-107718495D01*
X109771565Y-107569003D01*
X109771565Y-107568996D01*
X109751369Y-107389750D01*
X109751368Y-107389745D01*
X109725069Y-107314588D01*
X109691789Y-107219478D01*
X109595816Y-107066738D01*
X109468262Y-106939184D01*
X109315524Y-106843212D01*
X109315525Y-106843212D01*
X109268543Y-106826772D01*
X109211768Y-106786049D01*
X109186022Y-106721096D01*
X109185500Y-106709731D01*
X109185500Y-94982784D01*
X109205185Y-94915745D01*
X109221814Y-94895108D01*
X110775922Y-93341000D01*
X111503001Y-93341000D01*
X111503001Y-93553486D01*
X111513494Y-93656197D01*
X111568641Y-93822619D01*
X111568643Y-93822624D01*
X111660684Y-93971845D01*
X111784654Y-94095815D01*
X111933875Y-94187856D01*
X111933880Y-94187858D01*
X112100302Y-94243005D01*
X112100309Y-94243006D01*
X112203019Y-94253499D01*
X112652999Y-94253499D01*
X112653000Y-94253498D01*
X112653000Y-93341000D01*
X113153000Y-93341000D01*
X113153000Y-94253499D01*
X113602972Y-94253499D01*
X113602986Y-94253498D01*
X113705697Y-94243005D01*
X113872119Y-94187858D01*
X113872124Y-94187856D01*
X114021345Y-94095815D01*
X114145315Y-93971845D01*
X114237356Y-93822624D01*
X114237358Y-93822619D01*
X114292505Y-93656197D01*
X114292506Y-93656190D01*
X114302999Y-93553486D01*
X114303000Y-93553473D01*
X114303000Y-93341000D01*
X113153000Y-93341000D01*
X112653000Y-93341000D01*
X111503001Y-93341000D01*
X110775922Y-93341000D01*
X111301781Y-92815141D01*
X111363103Y-92781657D01*
X111432795Y-92786641D01*
X111477142Y-92815142D01*
X111503000Y-92841000D01*
X112653000Y-92841000D01*
X112653000Y-91928500D01*
X113153000Y-91928500D01*
X113153000Y-92841000D01*
X114302999Y-92841000D01*
X114302999Y-92628528D01*
X114302998Y-92628513D01*
X114292505Y-92525802D01*
X114237358Y-92359380D01*
X114237356Y-92359375D01*
X114145315Y-92210154D01*
X114021345Y-92086184D01*
X113872124Y-91994143D01*
X113872119Y-91994141D01*
X113705697Y-91938994D01*
X113705690Y-91938993D01*
X113602986Y-91928500D01*
X113153000Y-91928500D01*
X112653000Y-91928500D01*
X112487783Y-91928500D01*
X112420744Y-91908815D01*
X112374989Y-91856011D01*
X112365045Y-91786853D01*
X112394070Y-91723297D01*
X112400085Y-91716836D01*
X113341506Y-90775415D01*
X113341511Y-90775412D01*
X113351714Y-90765208D01*
X113351716Y-90765208D01*
X113463520Y-90653404D01*
X113528909Y-90540146D01*
X113542577Y-90516473D01*
X113583500Y-90363746D01*
X113583500Y-90205631D01*
X113583500Y-89087255D01*
X113559729Y-88998541D01*
X113542577Y-88934527D01*
X113503057Y-88866077D01*
X113463520Y-88797596D01*
X113424318Y-88758394D01*
X113390833Y-88697071D01*
X113387999Y-88670713D01*
X113387999Y-83179713D01*
X113407684Y-83112674D01*
X113460488Y-83066919D01*
X113529646Y-83056975D01*
X113586311Y-83080447D01*
G37*
%TD.AperFunction*%
%TA.AperFunction,Conductor*%
G36*
X130164592Y-74937611D02*
G01*
X130221666Y-74972814D01*
X130388203Y-75027999D01*
X130490991Y-75038500D01*
X131766500Y-75038499D01*
X131833539Y-75058184D01*
X131879294Y-75110987D01*
X131890500Y-75162499D01*
X131890500Y-75714000D01*
X131870815Y-75781039D01*
X131818011Y-75826794D01*
X131766500Y-75838000D01*
X131441000Y-75838000D01*
X131441000Y-78162999D01*
X131766500Y-78162999D01*
X131833539Y-78182684D01*
X131879294Y-78235488D01*
X131890500Y-78286999D01*
X131890500Y-83382402D01*
X131870815Y-83449441D01*
X131854181Y-83470083D01*
X128404582Y-86919681D01*
X128343259Y-86953166D01*
X128316901Y-86956000D01*
X126969129Y-86956000D01*
X126969123Y-86956001D01*
X126909516Y-86962408D01*
X126774671Y-87012702D01*
X126774664Y-87012706D01*
X126659455Y-87098952D01*
X126659452Y-87098955D01*
X126573206Y-87214164D01*
X126573203Y-87214169D01*
X126524189Y-87345583D01*
X126482317Y-87401516D01*
X126416853Y-87425933D01*
X126348580Y-87411081D01*
X126320326Y-87389930D01*
X126198402Y-87268006D01*
X126198395Y-87268001D01*
X126004834Y-87132467D01*
X126004830Y-87132465D01*
X126004828Y-87132464D01*
X125790663Y-87032597D01*
X125790659Y-87032596D01*
X125790655Y-87032594D01*
X125562413Y-86971438D01*
X125562403Y-86971436D01*
X125327001Y-86950841D01*
X125326999Y-86950841D01*
X125091596Y-86971436D01*
X125091586Y-86971438D01*
X124863344Y-87032594D01*
X124863335Y-87032598D01*
X124649171Y-87132464D01*
X124649169Y-87132465D01*
X124455597Y-87268005D01*
X124288505Y-87435097D01*
X124158575Y-87620658D01*
X124103998Y-87664283D01*
X124034500Y-87671477D01*
X123972145Y-87639954D01*
X123955425Y-87620658D01*
X123825494Y-87435097D01*
X123658402Y-87268006D01*
X123658395Y-87268001D01*
X123464834Y-87132467D01*
X123464830Y-87132465D01*
X123464828Y-87132464D01*
X123250663Y-87032597D01*
X123250659Y-87032596D01*
X123250655Y-87032594D01*
X123022413Y-86971438D01*
X123022403Y-86971436D01*
X122787001Y-86950841D01*
X122786999Y-86950841D01*
X122551596Y-86971436D01*
X122551586Y-86971438D01*
X122323344Y-87032594D01*
X122323335Y-87032598D01*
X122109171Y-87132464D01*
X122109169Y-87132465D01*
X121915597Y-87268005D01*
X121748505Y-87435097D01*
X121618575Y-87620658D01*
X121563998Y-87664283D01*
X121494500Y-87671477D01*
X121432145Y-87639954D01*
X121415425Y-87620658D01*
X121285494Y-87435097D01*
X121118402Y-87268006D01*
X121118395Y-87268001D01*
X120924834Y-87132467D01*
X120924830Y-87132465D01*
X120924828Y-87132464D01*
X120710663Y-87032597D01*
X120710659Y-87032596D01*
X120710655Y-87032594D01*
X120482413Y-86971438D01*
X120482403Y-86971436D01*
X120247001Y-86950841D01*
X120246999Y-86950841D01*
X120011596Y-86971436D01*
X120011586Y-86971438D01*
X119783344Y-87032594D01*
X119783335Y-87032598D01*
X119569171Y-87132464D01*
X119569169Y-87132465D01*
X119375597Y-87268005D01*
X119208508Y-87435094D01*
X119078269Y-87621095D01*
X119023692Y-87664719D01*
X118954193Y-87671912D01*
X118891839Y-87640390D01*
X118875119Y-87621094D01*
X118745113Y-87435426D01*
X118745108Y-87435420D01*
X118578082Y-87268394D01*
X118384578Y-87132899D01*
X118170492Y-87033070D01*
X118170483Y-87033066D01*
X117942326Y-86971932D01*
X117942316Y-86971930D01*
X117858362Y-86964585D01*
X117793293Y-86939132D01*
X117752315Y-86882541D01*
X117748437Y-86812779D01*
X117781486Y-86753380D01*
X118692952Y-85841915D01*
X118772930Y-85722218D01*
X118772931Y-85722217D01*
X118772932Y-85722218D01*
X118772940Y-85722202D01*
X118775084Y-85718995D01*
X118798518Y-85662420D01*
X118831659Y-85582412D01*
X118860500Y-85437417D01*
X118860500Y-85289582D01*
X118860500Y-85264920D01*
X118860499Y-85264914D01*
X118860499Y-84280073D01*
X118880184Y-84213034D01*
X118932988Y-84167279D01*
X119002146Y-84157335D01*
X119025454Y-84163032D01*
X119200735Y-84224366D01*
X119200741Y-84224367D01*
X119200743Y-84224368D01*
X119200744Y-84224368D01*
X119200748Y-84224369D01*
X119379994Y-84244565D01*
X119379998Y-84244565D01*
X119380002Y-84244565D01*
X119559247Y-84224369D01*
X119559250Y-84224368D01*
X119559253Y-84224368D01*
X119559254Y-84224367D01*
X119559257Y-84224367D01*
X119626035Y-84201000D01*
X119689384Y-84178832D01*
X119759162Y-84175270D01*
X119819790Y-84209999D01*
X119852017Y-84271992D01*
X119853559Y-84281990D01*
X119864630Y-84380250D01*
X119864631Y-84380254D01*
X119924211Y-84550523D01*
X120004010Y-84677522D01*
X120020184Y-84703262D01*
X120147738Y-84830816D01*
X120300478Y-84926789D01*
X120389148Y-84957816D01*
X120470745Y-84986368D01*
X120470750Y-84986369D01*
X120649996Y-85006565D01*
X120650000Y-85006565D01*
X120650004Y-85006565D01*
X120829249Y-84986369D01*
X120829252Y-84986368D01*
X120829255Y-84986368D01*
X120999522Y-84926789D01*
X121152262Y-84830816D01*
X121152264Y-84830813D01*
X121153572Y-84829992D01*
X121220809Y-84810991D01*
X121287644Y-84831358D01*
X121307226Y-84847304D01*
X121417738Y-84957816D01*
X121486895Y-85001270D01*
X121553310Y-85043002D01*
X121570478Y-85053789D01*
X121673963Y-85090000D01*
X121740745Y-85113368D01*
X121740750Y-85113369D01*
X121919996Y-85133565D01*
X121920000Y-85133565D01*
X121920004Y-85133565D01*
X122099249Y-85113369D01*
X122099252Y-85113368D01*
X122099255Y-85113368D01*
X122269522Y-85053789D01*
X122422262Y-84957816D01*
X122549816Y-84830262D01*
X122645789Y-84677522D01*
X122705368Y-84507255D01*
X122705369Y-84507249D01*
X122725565Y-84328003D01*
X122725565Y-84327996D01*
X122705369Y-84148750D01*
X122705368Y-84148745D01*
X122682825Y-84084322D01*
X122645789Y-83978478D01*
X122549816Y-83825738D01*
X122549814Y-83825736D01*
X122549813Y-83825734D01*
X122547550Y-83822896D01*
X122546659Y-83820715D01*
X122546111Y-83819842D01*
X122546264Y-83819745D01*
X122521144Y-83758209D01*
X122520500Y-83745587D01*
X122520500Y-83321107D01*
X122540185Y-83254068D01*
X122592989Y-83208313D01*
X122662147Y-83198369D01*
X122687827Y-83204923D01*
X122732516Y-83221591D01*
X122792126Y-83228000D01*
X123587871Y-83227999D01*
X123647482Y-83221591D01*
X123781668Y-83171542D01*
X123851357Y-83166559D01*
X123868320Y-83171539D01*
X124002516Y-83221591D01*
X124062126Y-83228000D01*
X124857871Y-83227999D01*
X124917482Y-83221591D01*
X125051665Y-83171543D01*
X125121354Y-83166560D01*
X125138329Y-83171544D01*
X125272516Y-83221592D01*
X125272515Y-83221592D01*
X125279443Y-83222336D01*
X125332126Y-83228001D01*
X126127871Y-83228000D01*
X126187482Y-83221592D01*
X126321668Y-83171543D01*
X126391357Y-83166560D01*
X126408332Y-83171544D01*
X126542516Y-83221591D01*
X126542515Y-83221591D01*
X126549443Y-83222335D01*
X126602126Y-83228000D01*
X127397871Y-83227999D01*
X127457482Y-83221591D01*
X127592330Y-83171296D01*
X127707545Y-83085046D01*
X127793795Y-82969831D01*
X127844090Y-82834983D01*
X127850499Y-82775373D01*
X127850498Y-82407578D01*
X127870182Y-82340541D01*
X127922986Y-82294786D01*
X127992145Y-82284842D01*
X128040469Y-82302585D01*
X128174478Y-82386789D01*
X128344745Y-82446368D01*
X128344750Y-82446369D01*
X128523996Y-82466565D01*
X128524000Y-82466565D01*
X128524004Y-82466565D01*
X128703249Y-82446369D01*
X128703252Y-82446368D01*
X128703255Y-82446368D01*
X128873522Y-82386789D01*
X129026262Y-82290816D01*
X129153816Y-82163262D01*
X129249789Y-82010522D01*
X129309368Y-81840255D01*
X129309369Y-81840249D01*
X129329565Y-81661003D01*
X129329565Y-81660996D01*
X129309369Y-81481750D01*
X129309368Y-81481745D01*
X129249789Y-81311478D01*
X129238160Y-81292971D01*
X129219160Y-81225736D01*
X129239527Y-81158901D01*
X129292794Y-81113686D01*
X129343154Y-81102999D01*
X129522870Y-81102999D01*
X129522871Y-81102999D01*
X129582482Y-81096591D01*
X129717330Y-81046296D01*
X129832545Y-80960046D01*
X129918795Y-80844831D01*
X129969090Y-80709983D01*
X129975499Y-80650373D01*
X129975498Y-79901250D01*
X129995182Y-79834212D01*
X130047986Y-79788457D01*
X130115811Y-79778704D01*
X130115825Y-79778589D01*
X130116268Y-79778638D01*
X130117145Y-79778513D01*
X130120219Y-79779084D01*
X130301996Y-79799565D01*
X130302000Y-79799565D01*
X130302004Y-79799565D01*
X130481249Y-79779369D01*
X130481252Y-79779368D01*
X130481255Y-79779368D01*
X130651522Y-79719789D01*
X130804262Y-79623816D01*
X130931816Y-79496262D01*
X131027789Y-79343522D01*
X131087368Y-79173255D01*
X131105175Y-79015211D01*
X131107565Y-78994003D01*
X131107565Y-78993996D01*
X131087369Y-78814750D01*
X131087368Y-78814745D01*
X131027788Y-78644476D01*
X130988582Y-78582080D01*
X130931816Y-78491738D01*
X130814758Y-78374680D01*
X130781273Y-78313357D01*
X130786257Y-78243665D01*
X130828129Y-78187732D01*
X130893593Y-78163315D01*
X130902439Y-78162999D01*
X130940999Y-78162999D01*
X130941000Y-78162998D01*
X130941000Y-75838000D01*
X130491028Y-75838000D01*
X130491012Y-75838001D01*
X130388302Y-75848494D01*
X130221880Y-75903641D01*
X130221875Y-75903643D01*
X130119773Y-75966621D01*
X130052380Y-75985061D01*
X129985717Y-75964138D01*
X129940947Y-75910496D01*
X129938494Y-75904415D01*
X129918776Y-75851548D01*
X129913792Y-75781856D01*
X129918776Y-75764882D01*
X129918795Y-75764832D01*
X129969090Y-75629984D01*
X129975499Y-75570374D01*
X129975498Y-75043149D01*
X129995182Y-74976112D01*
X130047986Y-74930357D01*
X130117145Y-74920413D01*
X130164592Y-74937611D01*
G37*
%TD.AperFunction*%
%TD*%
M02*
