%TF.GenerationSoftware,KiCad,Pcbnew,8.0.0-8.0.0-1~ubuntu22.04.1*%
%TF.CreationDate,2024-03-03T19:53:44+01:00*%
%TF.ProjectId,spi65,73706936-352e-46b6-9963-61645f706362,rev?*%
%TF.SameCoordinates,Original*%
%TF.FileFunction,Soldermask,Bot*%
%TF.FilePolarity,Negative*%
%FSLAX46Y46*%
G04 Gerber Fmt 4.6, Leading zero omitted, Abs format (unit mm)*
G04 Created by KiCad (PCBNEW 8.0.0-8.0.0-1~ubuntu22.04.1) date 2024-03-03 19:53:44*
%MOMM*%
%LPD*%
G01*
G04 APERTURE LIST*
%ADD10R,1.700000X1.700000*%
%ADD11O,1.700000X1.700000*%
%ADD12C,2.000000*%
%ADD13R,1.600000X2.400000*%
%ADD14O,1.600000X2.400000*%
G04 APERTURE END LIST*
D10*
%TO.C,J3*%
X104140000Y-59690000D03*
D11*
X104140000Y-62230000D03*
X104140000Y-64770000D03*
X104140000Y-67310000D03*
X104140000Y-69850000D03*
X104140000Y-72390000D03*
%TD*%
D10*
%TO.C,J2*%
X123952000Y-106680000D03*
D11*
X123952000Y-104140000D03*
X126492000Y-106680000D03*
X126492000Y-104140000D03*
X129032000Y-106680000D03*
X129032000Y-104140000D03*
X131572000Y-106680000D03*
X131572000Y-104140000D03*
%TD*%
D12*
%TO.C,J1*%
X111633000Y-52133500D03*
X111633000Y-89725500D03*
X131699000Y-52133500D03*
X131699000Y-89725500D03*
D10*
X127867000Y-88306500D03*
D11*
X125327000Y-88306500D03*
X122787000Y-88306500D03*
X120247000Y-88306500D03*
X117707000Y-88306500D03*
X115167000Y-88306500D03*
%TD*%
D13*
%TO.C,U2*%
X116459000Y-100711000D03*
D14*
X118999000Y-100711000D03*
X121539000Y-100711000D03*
X124079000Y-100711000D03*
X126619000Y-100711000D03*
X129159000Y-100711000D03*
X131699000Y-100711000D03*
X131699000Y-93091000D03*
X129159000Y-93091000D03*
X126619000Y-93091000D03*
X124079000Y-93091000D03*
X121539000Y-93091000D03*
X118999000Y-93091000D03*
X116459000Y-93091000D03*
%TD*%
D10*
%TO.C,SLOT1*%
X104140000Y-78740000D03*
D11*
X106680000Y-78740000D03*
X104140000Y-81280000D03*
X106680000Y-81280000D03*
X104140000Y-83820000D03*
X106680000Y-83820000D03*
X104140000Y-86360000D03*
X106680000Y-86360000D03*
X104140000Y-88900000D03*
X106680000Y-88900000D03*
X104140000Y-91440000D03*
X106680000Y-91440000D03*
X104140000Y-93980000D03*
X106680000Y-93980000D03*
X104140000Y-96520000D03*
X106680000Y-96520000D03*
X104140000Y-99060000D03*
X106680000Y-99060000D03*
X104140000Y-101600000D03*
X106680000Y-101600000D03*
X104140000Y-104140000D03*
X106680000Y-104140000D03*
X104140000Y-106680000D03*
X106680000Y-106680000D03*
%TD*%
M02*
