%TF.GenerationSoftware,KiCad,Pcbnew,8.0.0-8.0.0-1~ubuntu22.04.1*%
%TF.CreationDate,2024-03-03T19:53:44+01:00*%
%TF.ProjectId,spi65,73706936-352e-46b6-9963-61645f706362,rev?*%
%TF.SameCoordinates,Original*%
%TF.FileFunction,Legend,Top*%
%TF.FilePolarity,Positive*%
%FSLAX46Y46*%
G04 Gerber Fmt 4.6, Leading zero omitted, Abs format (unit mm)*
G04 Created by KiCad (PCBNEW 8.0.0-8.0.0-1~ubuntu22.04.1) date 2024-03-03 19:53:44*
%MOMM*%
%LPD*%
G01*
G04 APERTURE LIST*
%ADD10C,0.100000*%
%ADD11C,0.150000*%
%ADD12C,0.120000*%
G04 APERTURE END LIST*
D10*
X105825027Y-69484419D02*
X106396455Y-69484419D01*
X106110741Y-70484419D02*
X106110741Y-69484419D01*
X106729789Y-70484419D02*
X106729789Y-69484419D01*
X106729789Y-69484419D02*
X106967884Y-69484419D01*
X106967884Y-69484419D02*
X107110741Y-69532038D01*
X107110741Y-69532038D02*
X107205979Y-69627276D01*
X107205979Y-69627276D02*
X107253598Y-69722514D01*
X107253598Y-69722514D02*
X107301217Y-69912990D01*
X107301217Y-69912990D02*
X107301217Y-70055847D01*
X107301217Y-70055847D02*
X107253598Y-70246323D01*
X107253598Y-70246323D02*
X107205979Y-70341561D01*
X107205979Y-70341561D02*
X107110741Y-70436800D01*
X107110741Y-70436800D02*
X106967884Y-70484419D01*
X106967884Y-70484419D02*
X106729789Y-70484419D01*
X107729789Y-70484419D02*
X107729789Y-69484419D01*
X105825027Y-64531419D02*
X106396455Y-64531419D01*
X106110741Y-65531419D02*
X106110741Y-64531419D01*
X107301217Y-65436180D02*
X107253598Y-65483800D01*
X107253598Y-65483800D02*
X107110741Y-65531419D01*
X107110741Y-65531419D02*
X107015503Y-65531419D01*
X107015503Y-65531419D02*
X106872646Y-65483800D01*
X106872646Y-65483800D02*
X106777408Y-65388561D01*
X106777408Y-65388561D02*
X106729789Y-65293323D01*
X106729789Y-65293323D02*
X106682170Y-65102847D01*
X106682170Y-65102847D02*
X106682170Y-64959990D01*
X106682170Y-64959990D02*
X106729789Y-64769514D01*
X106729789Y-64769514D02*
X106777408Y-64674276D01*
X106777408Y-64674276D02*
X106872646Y-64579038D01*
X106872646Y-64579038D02*
X107015503Y-64531419D01*
X107015503Y-64531419D02*
X107110741Y-64531419D01*
X107110741Y-64531419D02*
X107253598Y-64579038D01*
X107253598Y-64579038D02*
X107301217Y-64626657D01*
X107729789Y-65531419D02*
X107729789Y-64531419D01*
X108301217Y-65531419D02*
X107872646Y-64959990D01*
X108301217Y-64531419D02*
X107729789Y-65102847D01*
X105825027Y-67071419D02*
X106396455Y-67071419D01*
X106110741Y-68071419D02*
X106110741Y-67071419D01*
X106729789Y-68071419D02*
X106729789Y-67071419D01*
X106729789Y-67071419D02*
X106967884Y-67071419D01*
X106967884Y-67071419D02*
X107110741Y-67119038D01*
X107110741Y-67119038D02*
X107205979Y-67214276D01*
X107205979Y-67214276D02*
X107253598Y-67309514D01*
X107253598Y-67309514D02*
X107301217Y-67499990D01*
X107301217Y-67499990D02*
X107301217Y-67642847D01*
X107301217Y-67642847D02*
X107253598Y-67833323D01*
X107253598Y-67833323D02*
X107205979Y-67928561D01*
X107205979Y-67928561D02*
X107110741Y-68023800D01*
X107110741Y-68023800D02*
X106967884Y-68071419D01*
X106967884Y-68071419D02*
X106729789Y-68071419D01*
X107920265Y-67071419D02*
X108110741Y-67071419D01*
X108110741Y-67071419D02*
X108205979Y-67119038D01*
X108205979Y-67119038D02*
X108301217Y-67214276D01*
X108301217Y-67214276D02*
X108348836Y-67404752D01*
X108348836Y-67404752D02*
X108348836Y-67738085D01*
X108348836Y-67738085D02*
X108301217Y-67928561D01*
X108301217Y-67928561D02*
X108205979Y-68023800D01*
X108205979Y-68023800D02*
X108110741Y-68071419D01*
X108110741Y-68071419D02*
X107920265Y-68071419D01*
X107920265Y-68071419D02*
X107825027Y-68023800D01*
X107825027Y-68023800D02*
X107729789Y-67928561D01*
X107729789Y-67928561D02*
X107682170Y-67738085D01*
X107682170Y-67738085D02*
X107682170Y-67404752D01*
X107682170Y-67404752D02*
X107729789Y-67214276D01*
X107729789Y-67214276D02*
X107825027Y-67119038D01*
X107825027Y-67119038D02*
X107920265Y-67071419D01*
X105825027Y-72024419D02*
X106396455Y-72024419D01*
X106110741Y-73024419D02*
X106110741Y-72024419D01*
X106729789Y-73024419D02*
X106729789Y-72024419D01*
X106729789Y-72024419D02*
X107063122Y-72738704D01*
X107063122Y-72738704D02*
X107396455Y-72024419D01*
X107396455Y-72024419D02*
X107396455Y-73024419D01*
X107825027Y-72976800D02*
X107967884Y-73024419D01*
X107967884Y-73024419D02*
X108205979Y-73024419D01*
X108205979Y-73024419D02*
X108301217Y-72976800D01*
X108301217Y-72976800D02*
X108348836Y-72929180D01*
X108348836Y-72929180D02*
X108396455Y-72833942D01*
X108396455Y-72833942D02*
X108396455Y-72738704D01*
X108396455Y-72738704D02*
X108348836Y-72643466D01*
X108348836Y-72643466D02*
X108301217Y-72595847D01*
X108301217Y-72595847D02*
X108205979Y-72548228D01*
X108205979Y-72548228D02*
X108015503Y-72500609D01*
X108015503Y-72500609D02*
X107920265Y-72452990D01*
X107920265Y-72452990D02*
X107872646Y-72405371D01*
X107872646Y-72405371D02*
X107825027Y-72310133D01*
X107825027Y-72310133D02*
X107825027Y-72214895D01*
X107825027Y-72214895D02*
X107872646Y-72119657D01*
X107872646Y-72119657D02*
X107920265Y-72072038D01*
X107920265Y-72072038D02*
X108015503Y-72024419D01*
X108015503Y-72024419D02*
X108253598Y-72024419D01*
X108253598Y-72024419D02*
X108396455Y-72072038D01*
X105698027Y-59476819D02*
X106031360Y-60476819D01*
X106031360Y-60476819D02*
X106364693Y-59476819D01*
X107269455Y-60381580D02*
X107221836Y-60429200D01*
X107221836Y-60429200D02*
X107078979Y-60476819D01*
X107078979Y-60476819D02*
X106983741Y-60476819D01*
X106983741Y-60476819D02*
X106840884Y-60429200D01*
X106840884Y-60429200D02*
X106745646Y-60333961D01*
X106745646Y-60333961D02*
X106698027Y-60238723D01*
X106698027Y-60238723D02*
X106650408Y-60048247D01*
X106650408Y-60048247D02*
X106650408Y-59905390D01*
X106650408Y-59905390D02*
X106698027Y-59714914D01*
X106698027Y-59714914D02*
X106745646Y-59619676D01*
X106745646Y-59619676D02*
X106840884Y-59524438D01*
X106840884Y-59524438D02*
X106983741Y-59476819D01*
X106983741Y-59476819D02*
X107078979Y-59476819D01*
X107078979Y-59476819D02*
X107221836Y-59524438D01*
X107221836Y-59524438D02*
X107269455Y-59572057D01*
X108269455Y-60381580D02*
X108221836Y-60429200D01*
X108221836Y-60429200D02*
X108078979Y-60476819D01*
X108078979Y-60476819D02*
X107983741Y-60476819D01*
X107983741Y-60476819D02*
X107840884Y-60429200D01*
X107840884Y-60429200D02*
X107745646Y-60333961D01*
X107745646Y-60333961D02*
X107698027Y-60238723D01*
X107698027Y-60238723D02*
X107650408Y-60048247D01*
X107650408Y-60048247D02*
X107650408Y-59905390D01*
X107650408Y-59905390D02*
X107698027Y-59714914D01*
X107698027Y-59714914D02*
X107745646Y-59619676D01*
X107745646Y-59619676D02*
X107840884Y-59524438D01*
X107840884Y-59524438D02*
X107983741Y-59476819D01*
X107983741Y-59476819D02*
X108078979Y-59476819D01*
X108078979Y-59476819D02*
X108221836Y-59524438D01*
X108221836Y-59524438D02*
X108269455Y-59572057D01*
X106313893Y-62064438D02*
X106218655Y-62016819D01*
X106218655Y-62016819D02*
X106075798Y-62016819D01*
X106075798Y-62016819D02*
X105932941Y-62064438D01*
X105932941Y-62064438D02*
X105837703Y-62159676D01*
X105837703Y-62159676D02*
X105790084Y-62254914D01*
X105790084Y-62254914D02*
X105742465Y-62445390D01*
X105742465Y-62445390D02*
X105742465Y-62588247D01*
X105742465Y-62588247D02*
X105790084Y-62778723D01*
X105790084Y-62778723D02*
X105837703Y-62873961D01*
X105837703Y-62873961D02*
X105932941Y-62969200D01*
X105932941Y-62969200D02*
X106075798Y-63016819D01*
X106075798Y-63016819D02*
X106171036Y-63016819D01*
X106171036Y-63016819D02*
X106313893Y-62969200D01*
X106313893Y-62969200D02*
X106361512Y-62921580D01*
X106361512Y-62921580D02*
X106361512Y-62588247D01*
X106361512Y-62588247D02*
X106171036Y-62588247D01*
X106790084Y-63016819D02*
X106790084Y-62016819D01*
X106790084Y-62016819D02*
X107361512Y-63016819D01*
X107361512Y-63016819D02*
X107361512Y-62016819D01*
X107837703Y-63016819D02*
X107837703Y-62016819D01*
X107837703Y-62016819D02*
X108075798Y-62016819D01*
X108075798Y-62016819D02*
X108218655Y-62064438D01*
X108218655Y-62064438D02*
X108313893Y-62159676D01*
X108313893Y-62159676D02*
X108361512Y-62254914D01*
X108361512Y-62254914D02*
X108409131Y-62445390D01*
X108409131Y-62445390D02*
X108409131Y-62588247D01*
X108409131Y-62588247D02*
X108361512Y-62778723D01*
X108361512Y-62778723D02*
X108313893Y-62873961D01*
X108313893Y-62873961D02*
X108218655Y-62969200D01*
X108218655Y-62969200D02*
X108075798Y-63016819D01*
X108075798Y-63016819D02*
X107837703Y-63016819D01*
D11*
X111484580Y-93892666D02*
X111532200Y-93940285D01*
X111532200Y-93940285D02*
X111579819Y-94083142D01*
X111579819Y-94083142D02*
X111579819Y-94178380D01*
X111579819Y-94178380D02*
X111532200Y-94321237D01*
X111532200Y-94321237D02*
X111436961Y-94416475D01*
X111436961Y-94416475D02*
X111341723Y-94464094D01*
X111341723Y-94464094D02*
X111151247Y-94511713D01*
X111151247Y-94511713D02*
X111008390Y-94511713D01*
X111008390Y-94511713D02*
X110817914Y-94464094D01*
X110817914Y-94464094D02*
X110722676Y-94416475D01*
X110722676Y-94416475D02*
X110627438Y-94321237D01*
X110627438Y-94321237D02*
X110579819Y-94178380D01*
X110579819Y-94178380D02*
X110579819Y-94083142D01*
X110579819Y-94083142D02*
X110627438Y-93940285D01*
X110627438Y-93940285D02*
X110675057Y-93892666D01*
X110913152Y-93035523D02*
X111579819Y-93035523D01*
X110532200Y-93273618D02*
X111246485Y-93511713D01*
X111246485Y-93511713D02*
X111246485Y-92892666D01*
X103806666Y-56814819D02*
X103806666Y-57529104D01*
X103806666Y-57529104D02*
X103759047Y-57671961D01*
X103759047Y-57671961D02*
X103663809Y-57767200D01*
X103663809Y-57767200D02*
X103520952Y-57814819D01*
X103520952Y-57814819D02*
X103425714Y-57814819D01*
X104187619Y-56814819D02*
X104806666Y-56814819D01*
X104806666Y-56814819D02*
X104473333Y-57195771D01*
X104473333Y-57195771D02*
X104616190Y-57195771D01*
X104616190Y-57195771D02*
X104711428Y-57243390D01*
X104711428Y-57243390D02*
X104759047Y-57291009D01*
X104759047Y-57291009D02*
X104806666Y-57386247D01*
X104806666Y-57386247D02*
X104806666Y-57624342D01*
X104806666Y-57624342D02*
X104759047Y-57719580D01*
X104759047Y-57719580D02*
X104711428Y-57767200D01*
X104711428Y-57767200D02*
X104616190Y-57814819D01*
X104616190Y-57814819D02*
X104330476Y-57814819D01*
X104330476Y-57814819D02*
X104235238Y-57767200D01*
X104235238Y-57767200D02*
X104187619Y-57719580D01*
X102973333Y-74174819D02*
X102973333Y-74889104D01*
X102973333Y-74889104D02*
X102925714Y-75031961D01*
X102925714Y-75031961D02*
X102830476Y-75127200D01*
X102830476Y-75127200D02*
X102687619Y-75174819D01*
X102687619Y-75174819D02*
X102592381Y-75174819D01*
X103306667Y-74174819D02*
X103878095Y-74174819D01*
X103592381Y-75174819D02*
X103592381Y-74174819D01*
X104163810Y-74889104D02*
X104640000Y-74889104D01*
X104068572Y-75174819D02*
X104401905Y-74174819D01*
X104401905Y-74174819D02*
X104735238Y-75174819D01*
X105592381Y-74222438D02*
X105497143Y-74174819D01*
X105497143Y-74174819D02*
X105354286Y-74174819D01*
X105354286Y-74174819D02*
X105211429Y-74222438D01*
X105211429Y-74222438D02*
X105116191Y-74317676D01*
X105116191Y-74317676D02*
X105068572Y-74412914D01*
X105068572Y-74412914D02*
X105020953Y-74603390D01*
X105020953Y-74603390D02*
X105020953Y-74746247D01*
X105020953Y-74746247D02*
X105068572Y-74936723D01*
X105068572Y-74936723D02*
X105116191Y-75031961D01*
X105116191Y-75031961D02*
X105211429Y-75127200D01*
X105211429Y-75127200D02*
X105354286Y-75174819D01*
X105354286Y-75174819D02*
X105449524Y-75174819D01*
X105449524Y-75174819D02*
X105592381Y-75127200D01*
X105592381Y-75127200D02*
X105640000Y-75079580D01*
X105640000Y-75079580D02*
X105640000Y-74746247D01*
X105640000Y-74746247D02*
X105449524Y-74746247D01*
X121076819Y-105743333D02*
X121791104Y-105743333D01*
X121791104Y-105743333D02*
X121933961Y-105790952D01*
X121933961Y-105790952D02*
X122029200Y-105886190D01*
X122029200Y-105886190D02*
X122076819Y-106029047D01*
X122076819Y-106029047D02*
X122076819Y-106124285D01*
X121172057Y-105314761D02*
X121124438Y-105267142D01*
X121124438Y-105267142D02*
X121076819Y-105171904D01*
X121076819Y-105171904D02*
X121076819Y-104933809D01*
X121076819Y-104933809D02*
X121124438Y-104838571D01*
X121124438Y-104838571D02*
X121172057Y-104790952D01*
X121172057Y-104790952D02*
X121267295Y-104743333D01*
X121267295Y-104743333D02*
X121362533Y-104743333D01*
X121362533Y-104743333D02*
X121505390Y-104790952D01*
X121505390Y-104790952D02*
X122076819Y-105362380D01*
X122076819Y-105362380D02*
X122076819Y-104743333D01*
X121586666Y-68804819D02*
X121586666Y-69519104D01*
X121586666Y-69519104D02*
X121539047Y-69661961D01*
X121539047Y-69661961D02*
X121443809Y-69757200D01*
X121443809Y-69757200D02*
X121300952Y-69804819D01*
X121300952Y-69804819D02*
X121205714Y-69804819D01*
X122586666Y-69804819D02*
X122015238Y-69804819D01*
X122300952Y-69804819D02*
X122300952Y-68804819D01*
X122300952Y-68804819D02*
X122205714Y-68947676D01*
X122205714Y-68947676D02*
X122110476Y-69042914D01*
X122110476Y-69042914D02*
X122015238Y-69090533D01*
X119848333Y-62716580D02*
X119800714Y-62764200D01*
X119800714Y-62764200D02*
X119657857Y-62811819D01*
X119657857Y-62811819D02*
X119562619Y-62811819D01*
X119562619Y-62811819D02*
X119419762Y-62764200D01*
X119419762Y-62764200D02*
X119324524Y-62668961D01*
X119324524Y-62668961D02*
X119276905Y-62573723D01*
X119276905Y-62573723D02*
X119229286Y-62383247D01*
X119229286Y-62383247D02*
X119229286Y-62240390D01*
X119229286Y-62240390D02*
X119276905Y-62049914D01*
X119276905Y-62049914D02*
X119324524Y-61954676D01*
X119324524Y-61954676D02*
X119419762Y-61859438D01*
X119419762Y-61859438D02*
X119562619Y-61811819D01*
X119562619Y-61811819D02*
X119657857Y-61811819D01*
X119657857Y-61811819D02*
X119800714Y-61859438D01*
X119800714Y-61859438D02*
X119848333Y-61907057D01*
X120229286Y-61907057D02*
X120276905Y-61859438D01*
X120276905Y-61859438D02*
X120372143Y-61811819D01*
X120372143Y-61811819D02*
X120610238Y-61811819D01*
X120610238Y-61811819D02*
X120705476Y-61859438D01*
X120705476Y-61859438D02*
X120753095Y-61907057D01*
X120753095Y-61907057D02*
X120800714Y-62002295D01*
X120800714Y-62002295D02*
X120800714Y-62097533D01*
X120800714Y-62097533D02*
X120753095Y-62240390D01*
X120753095Y-62240390D02*
X120181667Y-62811819D01*
X120181667Y-62811819D02*
X120800714Y-62811819D01*
X113583819Y-101076904D02*
X114393342Y-101076904D01*
X114393342Y-101076904D02*
X114488580Y-101029285D01*
X114488580Y-101029285D02*
X114536200Y-100981666D01*
X114536200Y-100981666D02*
X114583819Y-100886428D01*
X114583819Y-100886428D02*
X114583819Y-100695952D01*
X114583819Y-100695952D02*
X114536200Y-100600714D01*
X114536200Y-100600714D02*
X114488580Y-100553095D01*
X114488580Y-100553095D02*
X114393342Y-100505476D01*
X114393342Y-100505476D02*
X113583819Y-100505476D01*
X113679057Y-100076904D02*
X113631438Y-100029285D01*
X113631438Y-100029285D02*
X113583819Y-99934047D01*
X113583819Y-99934047D02*
X113583819Y-99695952D01*
X113583819Y-99695952D02*
X113631438Y-99600714D01*
X113631438Y-99600714D02*
X113679057Y-99553095D01*
X113679057Y-99553095D02*
X113774295Y-99505476D01*
X113774295Y-99505476D02*
X113869533Y-99505476D01*
X113869533Y-99505476D02*
X114012390Y-99553095D01*
X114012390Y-99553095D02*
X114583819Y-100124523D01*
X114583819Y-100124523D02*
X114583819Y-99505476D01*
X125013143Y-96355819D02*
X125679809Y-96355819D01*
X125679809Y-96355819D02*
X125251238Y-97355819D01*
X126489333Y-96689152D02*
X126489333Y-97355819D01*
X126251238Y-96308200D02*
X126013143Y-97022485D01*
X126013143Y-97022485D02*
X126632190Y-97022485D01*
X127013143Y-97355819D02*
X127013143Y-96355819D01*
X127013143Y-96832009D02*
X127584571Y-96832009D01*
X127584571Y-97355819D02*
X127584571Y-96355819D01*
X128632190Y-97260580D02*
X128584571Y-97308200D01*
X128584571Y-97308200D02*
X128441714Y-97355819D01*
X128441714Y-97355819D02*
X128346476Y-97355819D01*
X128346476Y-97355819D02*
X128203619Y-97308200D01*
X128203619Y-97308200D02*
X128108381Y-97212961D01*
X128108381Y-97212961D02*
X128060762Y-97117723D01*
X128060762Y-97117723D02*
X128013143Y-96927247D01*
X128013143Y-96927247D02*
X128013143Y-96784390D01*
X128013143Y-96784390D02*
X128060762Y-96593914D01*
X128060762Y-96593914D02*
X128108381Y-96498676D01*
X128108381Y-96498676D02*
X128203619Y-96403438D01*
X128203619Y-96403438D02*
X128346476Y-96355819D01*
X128346476Y-96355819D02*
X128441714Y-96355819D01*
X128441714Y-96355819D02*
X128584571Y-96403438D01*
X128584571Y-96403438D02*
X128632190Y-96451057D01*
X128917905Y-96355819D02*
X129489333Y-96355819D01*
X129203619Y-97355819D02*
X129203619Y-96355819D01*
X129727429Y-96355819D02*
X130346476Y-96355819D01*
X130346476Y-96355819D02*
X130013143Y-96736771D01*
X130013143Y-96736771D02*
X130156000Y-96736771D01*
X130156000Y-96736771D02*
X130251238Y-96784390D01*
X130251238Y-96784390D02*
X130298857Y-96832009D01*
X130298857Y-96832009D02*
X130346476Y-96927247D01*
X130346476Y-96927247D02*
X130346476Y-97165342D01*
X130346476Y-97165342D02*
X130298857Y-97260580D01*
X130298857Y-97260580D02*
X130251238Y-97308200D01*
X130251238Y-97308200D02*
X130156000Y-97355819D01*
X130156000Y-97355819D02*
X129870286Y-97355819D01*
X129870286Y-97355819D02*
X129775048Y-97308200D01*
X129775048Y-97308200D02*
X129727429Y-97260580D01*
X130822667Y-97355819D02*
X131013143Y-97355819D01*
X131013143Y-97355819D02*
X131108381Y-97308200D01*
X131108381Y-97308200D02*
X131156000Y-97260580D01*
X131156000Y-97260580D02*
X131251238Y-97117723D01*
X131251238Y-97117723D02*
X131298857Y-96927247D01*
X131298857Y-96927247D02*
X131298857Y-96546295D01*
X131298857Y-96546295D02*
X131251238Y-96451057D01*
X131251238Y-96451057D02*
X131203619Y-96403438D01*
X131203619Y-96403438D02*
X131108381Y-96355819D01*
X131108381Y-96355819D02*
X130917905Y-96355819D01*
X130917905Y-96355819D02*
X130822667Y-96403438D01*
X130822667Y-96403438D02*
X130775048Y-96451057D01*
X130775048Y-96451057D02*
X130727429Y-96546295D01*
X130727429Y-96546295D02*
X130727429Y-96784390D01*
X130727429Y-96784390D02*
X130775048Y-96879628D01*
X130775048Y-96879628D02*
X130822667Y-96927247D01*
X130822667Y-96927247D02*
X130917905Y-96974866D01*
X130917905Y-96974866D02*
X131108381Y-96974866D01*
X131108381Y-96974866D02*
X131203619Y-96927247D01*
X131203619Y-96927247D02*
X131251238Y-96879628D01*
X131251238Y-96879628D02*
X131298857Y-96784390D01*
X131632191Y-96355819D02*
X132251238Y-96355819D01*
X132251238Y-96355819D02*
X131917905Y-96736771D01*
X131917905Y-96736771D02*
X132060762Y-96736771D01*
X132060762Y-96736771D02*
X132156000Y-96784390D01*
X132156000Y-96784390D02*
X132203619Y-96832009D01*
X132203619Y-96832009D02*
X132251238Y-96927247D01*
X132251238Y-96927247D02*
X132251238Y-97165342D01*
X132251238Y-97165342D02*
X132203619Y-97260580D01*
X132203619Y-97260580D02*
X132156000Y-97308200D01*
X132156000Y-97308200D02*
X132060762Y-97355819D01*
X132060762Y-97355819D02*
X131775048Y-97355819D01*
X131775048Y-97355819D02*
X131679810Y-97308200D01*
X131679810Y-97308200D02*
X131632191Y-97260580D01*
X103338571Y-76817200D02*
X103481428Y-76864819D01*
X103481428Y-76864819D02*
X103719523Y-76864819D01*
X103719523Y-76864819D02*
X103814761Y-76817200D01*
X103814761Y-76817200D02*
X103862380Y-76769580D01*
X103862380Y-76769580D02*
X103909999Y-76674342D01*
X103909999Y-76674342D02*
X103909999Y-76579104D01*
X103909999Y-76579104D02*
X103862380Y-76483866D01*
X103862380Y-76483866D02*
X103814761Y-76436247D01*
X103814761Y-76436247D02*
X103719523Y-76388628D01*
X103719523Y-76388628D02*
X103529047Y-76341009D01*
X103529047Y-76341009D02*
X103433809Y-76293390D01*
X103433809Y-76293390D02*
X103386190Y-76245771D01*
X103386190Y-76245771D02*
X103338571Y-76150533D01*
X103338571Y-76150533D02*
X103338571Y-76055295D01*
X103338571Y-76055295D02*
X103386190Y-75960057D01*
X103386190Y-75960057D02*
X103433809Y-75912438D01*
X103433809Y-75912438D02*
X103529047Y-75864819D01*
X103529047Y-75864819D02*
X103767142Y-75864819D01*
X103767142Y-75864819D02*
X103909999Y-75912438D01*
X104814761Y-76864819D02*
X104338571Y-76864819D01*
X104338571Y-76864819D02*
X104338571Y-75864819D01*
X105338571Y-75864819D02*
X105529047Y-75864819D01*
X105529047Y-75864819D02*
X105624285Y-75912438D01*
X105624285Y-75912438D02*
X105719523Y-76007676D01*
X105719523Y-76007676D02*
X105767142Y-76198152D01*
X105767142Y-76198152D02*
X105767142Y-76531485D01*
X105767142Y-76531485D02*
X105719523Y-76721961D01*
X105719523Y-76721961D02*
X105624285Y-76817200D01*
X105624285Y-76817200D02*
X105529047Y-76864819D01*
X105529047Y-76864819D02*
X105338571Y-76864819D01*
X105338571Y-76864819D02*
X105243333Y-76817200D01*
X105243333Y-76817200D02*
X105148095Y-76721961D01*
X105148095Y-76721961D02*
X105100476Y-76531485D01*
X105100476Y-76531485D02*
X105100476Y-76198152D01*
X105100476Y-76198152D02*
X105148095Y-76007676D01*
X105148095Y-76007676D02*
X105243333Y-75912438D01*
X105243333Y-75912438D02*
X105338571Y-75864819D01*
X106052857Y-75864819D02*
X106624285Y-75864819D01*
X106338571Y-76864819D02*
X106338571Y-75864819D01*
X107481428Y-76864819D02*
X106910000Y-76864819D01*
X107195714Y-76864819D02*
X107195714Y-75864819D01*
X107195714Y-75864819D02*
X107100476Y-76007676D01*
X107100476Y-76007676D02*
X107005238Y-76102914D01*
X107005238Y-76102914D02*
X106910000Y-76150533D01*
X116165333Y-62920580D02*
X116117714Y-62968200D01*
X116117714Y-62968200D02*
X115974857Y-63015819D01*
X115974857Y-63015819D02*
X115879619Y-63015819D01*
X115879619Y-63015819D02*
X115736762Y-62968200D01*
X115736762Y-62968200D02*
X115641524Y-62872961D01*
X115641524Y-62872961D02*
X115593905Y-62777723D01*
X115593905Y-62777723D02*
X115546286Y-62587247D01*
X115546286Y-62587247D02*
X115546286Y-62444390D01*
X115546286Y-62444390D02*
X115593905Y-62253914D01*
X115593905Y-62253914D02*
X115641524Y-62158676D01*
X115641524Y-62158676D02*
X115736762Y-62063438D01*
X115736762Y-62063438D02*
X115879619Y-62015819D01*
X115879619Y-62015819D02*
X115974857Y-62015819D01*
X115974857Y-62015819D02*
X116117714Y-62063438D01*
X116117714Y-62063438D02*
X116165333Y-62111057D01*
X116498667Y-62015819D02*
X117117714Y-62015819D01*
X117117714Y-62015819D02*
X116784381Y-62396771D01*
X116784381Y-62396771D02*
X116927238Y-62396771D01*
X116927238Y-62396771D02*
X117022476Y-62444390D01*
X117022476Y-62444390D02*
X117070095Y-62492009D01*
X117070095Y-62492009D02*
X117117714Y-62587247D01*
X117117714Y-62587247D02*
X117117714Y-62825342D01*
X117117714Y-62825342D02*
X117070095Y-62920580D01*
X117070095Y-62920580D02*
X117022476Y-62968200D01*
X117022476Y-62968200D02*
X116927238Y-63015819D01*
X116927238Y-63015819D02*
X116641524Y-63015819D01*
X116641524Y-63015819D02*
X116546286Y-62968200D01*
X116546286Y-62968200D02*
X116498667Y-62920580D01*
X118834818Y-74664404D02*
X119644341Y-74664404D01*
X119644341Y-74664404D02*
X119739579Y-74616785D01*
X119739579Y-74616785D02*
X119787199Y-74569166D01*
X119787199Y-74569166D02*
X119834818Y-74473928D01*
X119834818Y-74473928D02*
X119834818Y-74283452D01*
X119834818Y-74283452D02*
X119787199Y-74188214D01*
X119787199Y-74188214D02*
X119739579Y-74140595D01*
X119739579Y-74140595D02*
X119644341Y-74092976D01*
X119644341Y-74092976D02*
X118834818Y-74092976D01*
X119834818Y-73092976D02*
X119834818Y-73664404D01*
X119834818Y-73378690D02*
X118834818Y-73378690D01*
X118834818Y-73378690D02*
X118977675Y-73473928D01*
X118977675Y-73473928D02*
X119072913Y-73569166D01*
X119072913Y-73569166D02*
X119120532Y-73664404D01*
X122719699Y-76902499D02*
X122767318Y-76759642D01*
X122767318Y-76759642D02*
X122767318Y-76521547D01*
X122767318Y-76521547D02*
X122719699Y-76426309D01*
X122719699Y-76426309D02*
X122672079Y-76378690D01*
X122672079Y-76378690D02*
X122576841Y-76331071D01*
X122576841Y-76331071D02*
X122481603Y-76331071D01*
X122481603Y-76331071D02*
X122386365Y-76378690D01*
X122386365Y-76378690D02*
X122338746Y-76426309D01*
X122338746Y-76426309D02*
X122291127Y-76521547D01*
X122291127Y-76521547D02*
X122243508Y-76712023D01*
X122243508Y-76712023D02*
X122195889Y-76807261D01*
X122195889Y-76807261D02*
X122148270Y-76854880D01*
X122148270Y-76854880D02*
X122053032Y-76902499D01*
X122053032Y-76902499D02*
X121957794Y-76902499D01*
X121957794Y-76902499D02*
X121862556Y-76854880D01*
X121862556Y-76854880D02*
X121814937Y-76807261D01*
X121814937Y-76807261D02*
X121767318Y-76712023D01*
X121767318Y-76712023D02*
X121767318Y-76473928D01*
X121767318Y-76473928D02*
X121814937Y-76331071D01*
X122767318Y-75902499D02*
X121767318Y-75902499D01*
X121767318Y-75902499D02*
X121767318Y-75521547D01*
X121767318Y-75521547D02*
X121814937Y-75426309D01*
X121814937Y-75426309D02*
X121862556Y-75378690D01*
X121862556Y-75378690D02*
X121957794Y-75331071D01*
X121957794Y-75331071D02*
X122100651Y-75331071D01*
X122100651Y-75331071D02*
X122195889Y-75378690D01*
X122195889Y-75378690D02*
X122243508Y-75426309D01*
X122243508Y-75426309D02*
X122291127Y-75521547D01*
X122291127Y-75521547D02*
X122291127Y-75902499D01*
X122767318Y-74902499D02*
X121767318Y-74902499D01*
X121767318Y-73997738D02*
X121767318Y-74188214D01*
X121767318Y-74188214D02*
X121814937Y-74283452D01*
X121814937Y-74283452D02*
X121862556Y-74331071D01*
X121862556Y-74331071D02*
X122005413Y-74426309D01*
X122005413Y-74426309D02*
X122195889Y-74473928D01*
X122195889Y-74473928D02*
X122576841Y-74473928D01*
X122576841Y-74473928D02*
X122672079Y-74426309D01*
X122672079Y-74426309D02*
X122719699Y-74378690D01*
X122719699Y-74378690D02*
X122767318Y-74283452D01*
X122767318Y-74283452D02*
X122767318Y-74092976D01*
X122767318Y-74092976D02*
X122719699Y-73997738D01*
X122719699Y-73997738D02*
X122672079Y-73950119D01*
X122672079Y-73950119D02*
X122576841Y-73902500D01*
X122576841Y-73902500D02*
X122338746Y-73902500D01*
X122338746Y-73902500D02*
X122243508Y-73950119D01*
X122243508Y-73950119D02*
X122195889Y-73997738D01*
X122195889Y-73997738D02*
X122148270Y-74092976D01*
X122148270Y-74092976D02*
X122148270Y-74283452D01*
X122148270Y-74283452D02*
X122195889Y-74378690D01*
X122195889Y-74378690D02*
X122243508Y-74426309D01*
X122243508Y-74426309D02*
X122338746Y-74473928D01*
X121767318Y-72997738D02*
X121767318Y-73473928D01*
X121767318Y-73473928D02*
X122243508Y-73521547D01*
X122243508Y-73521547D02*
X122195889Y-73473928D01*
X122195889Y-73473928D02*
X122148270Y-73378690D01*
X122148270Y-73378690D02*
X122148270Y-73140595D01*
X122148270Y-73140595D02*
X122195889Y-73045357D01*
X122195889Y-73045357D02*
X122243508Y-72997738D01*
X122243508Y-72997738D02*
X122338746Y-72950119D01*
X122338746Y-72950119D02*
X122576841Y-72950119D01*
X122576841Y-72950119D02*
X122672079Y-72997738D01*
X122672079Y-72997738D02*
X122719699Y-73045357D01*
X122719699Y-73045357D02*
X122767318Y-73140595D01*
X122767318Y-73140595D02*
X122767318Y-73378690D01*
X122767318Y-73378690D02*
X122719699Y-73473928D01*
X122719699Y-73473928D02*
X122672079Y-73521547D01*
X121719699Y-71807262D02*
X123005413Y-72664404D01*
X122243508Y-71140595D02*
X122291127Y-70997738D01*
X122291127Y-70997738D02*
X122338746Y-70950119D01*
X122338746Y-70950119D02*
X122433984Y-70902500D01*
X122433984Y-70902500D02*
X122576841Y-70902500D01*
X122576841Y-70902500D02*
X122672079Y-70950119D01*
X122672079Y-70950119D02*
X122719699Y-70997738D01*
X122719699Y-70997738D02*
X122767318Y-71092976D01*
X122767318Y-71092976D02*
X122767318Y-71473928D01*
X122767318Y-71473928D02*
X121767318Y-71473928D01*
X121767318Y-71473928D02*
X121767318Y-71140595D01*
X121767318Y-71140595D02*
X121814937Y-71045357D01*
X121814937Y-71045357D02*
X121862556Y-70997738D01*
X121862556Y-70997738D02*
X121957794Y-70950119D01*
X121957794Y-70950119D02*
X122053032Y-70950119D01*
X122053032Y-70950119D02*
X122148270Y-70997738D01*
X122148270Y-70997738D02*
X122195889Y-71045357D01*
X122195889Y-71045357D02*
X122243508Y-71140595D01*
X122243508Y-71140595D02*
X122243508Y-71473928D01*
X131550580Y-79376166D02*
X131598200Y-79423785D01*
X131598200Y-79423785D02*
X131645819Y-79566642D01*
X131645819Y-79566642D02*
X131645819Y-79661880D01*
X131645819Y-79661880D02*
X131598200Y-79804737D01*
X131598200Y-79804737D02*
X131502961Y-79899975D01*
X131502961Y-79899975D02*
X131407723Y-79947594D01*
X131407723Y-79947594D02*
X131217247Y-79995213D01*
X131217247Y-79995213D02*
X131074390Y-79995213D01*
X131074390Y-79995213D02*
X130883914Y-79947594D01*
X130883914Y-79947594D02*
X130788676Y-79899975D01*
X130788676Y-79899975D02*
X130693438Y-79804737D01*
X130693438Y-79804737D02*
X130645819Y-79661880D01*
X130645819Y-79661880D02*
X130645819Y-79566642D01*
X130645819Y-79566642D02*
X130693438Y-79423785D01*
X130693438Y-79423785D02*
X130741057Y-79376166D01*
X131645819Y-78423785D02*
X131645819Y-78995213D01*
X131645819Y-78709499D02*
X130645819Y-78709499D01*
X130645819Y-78709499D02*
X130788676Y-78804737D01*
X130788676Y-78804737D02*
X130883914Y-78899975D01*
X130883914Y-78899975D02*
X130931533Y-78995213D01*
D12*
%TO.C,C4*%
X111993000Y-93942248D02*
X111993000Y-95364752D01*
X113813000Y-93942248D02*
X113813000Y-95364752D01*
%TO.C,J3*%
X102810000Y-58360000D02*
X104140000Y-58360000D01*
X102810000Y-59690000D02*
X102810000Y-58360000D01*
X102810000Y-60960000D02*
X102810000Y-73720000D01*
X102810000Y-60960000D02*
X105470000Y-60960000D01*
X102810000Y-73720000D02*
X105470000Y-73720000D01*
X105470000Y-60960000D02*
X105470000Y-73720000D01*
%TO.C,J2*%
X122622000Y-102810000D02*
X132902000Y-102810000D01*
X122622000Y-105410000D02*
X122622000Y-102810000D01*
X122622000Y-108010000D02*
X122622000Y-106680000D01*
X123952000Y-108010000D02*
X122622000Y-108010000D01*
X125222000Y-105410000D02*
X122622000Y-105410000D01*
X125222000Y-108010000D02*
X125222000Y-105410000D01*
X125222000Y-108010000D02*
X132902000Y-108010000D01*
X132902000Y-108010000D02*
X132902000Y-102810000D01*
%TO.C,J1*%
X109855000Y-50355500D02*
X133350000Y-50355500D01*
X109855000Y-50419000D02*
X109855000Y-91440000D01*
X109855000Y-91440000D02*
X133350000Y-91440000D01*
X113837000Y-86976500D02*
X113837000Y-89636500D01*
X126597000Y-86976500D02*
X113837000Y-86976500D01*
X126597000Y-86976500D02*
X126597000Y-89636500D01*
X126597000Y-89636500D02*
X113837000Y-89636500D01*
X127867000Y-86976500D02*
X129197000Y-86976500D01*
X129197000Y-86976500D02*
X129197000Y-88306500D01*
X133350000Y-50419000D02*
X133350000Y-91440000D01*
%TO.C,C2*%
X123025248Y-61447000D02*
X124447752Y-61447000D01*
X123025248Y-63267000D02*
X124447752Y-63267000D01*
%TO.C,U2*%
X115129000Y-94651000D02*
X115129000Y-95901000D01*
X115129000Y-97901000D02*
X115129000Y-99151000D01*
X115129000Y-99151000D02*
X133029000Y-99151000D01*
X133029000Y-94651000D02*
X115129000Y-94651000D01*
X133029000Y-99151000D02*
X133029000Y-94651000D01*
X115129000Y-95901000D02*
G75*
G02*
X115129000Y-97901000I0J-1000000D01*
G01*
%TO.C,SLOT1*%
X102810000Y-77410000D02*
X104140000Y-77410000D01*
X102810000Y-78740000D02*
X102810000Y-77410000D01*
X102810000Y-80010000D02*
X102810000Y-108010000D01*
X102810000Y-80010000D02*
X105410000Y-80010000D01*
X102810000Y-108010000D02*
X108010000Y-108010000D01*
X105410000Y-77410000D02*
X108010000Y-77410000D01*
X105410000Y-80010000D02*
X105410000Y-77410000D01*
X108010000Y-77410000D02*
X108010000Y-108010000D01*
%TO.C,C3*%
X113487252Y-61358500D02*
X112064748Y-61358500D01*
X113487252Y-63178500D02*
X112064748Y-63178500D01*
D10*
%TO.C,U1*%
X111674999Y-64927500D02*
X113324999Y-64927500D01*
X111674999Y-66577500D02*
X111674999Y-64927500D01*
X111674999Y-81227500D02*
X111674999Y-81727500D01*
X111674999Y-81727500D02*
X112824999Y-82877500D01*
X112824999Y-82877500D02*
X113324999Y-82877500D01*
X129624999Y-64927500D02*
X127974999Y-64927500D01*
X129624999Y-66577500D02*
X129624999Y-64927500D01*
X129624999Y-81227500D02*
X129624999Y-82877500D01*
X129624999Y-82877500D02*
X127974999Y-82877500D01*
D12*
%TO.C,C1*%
X130281000Y-76149252D02*
X130281000Y-74726748D01*
X132101000Y-76149252D02*
X132101000Y-74726748D01*
%TD*%
M02*
