M48
; DRILL file {KiCad 8.0.0-8.0.0-1~ubuntu22.04.1} date 2024-03-03T19:55:47+0100
; FORMAT={-:-/ absolute / metric / decimal}
; #@! TF.CreationDate,2024-03-03T19:55:47+01:00
; #@! TF.GenerationSoftware,Kicad,Pcbnew,8.0.0-8.0.0-1~ubuntu22.04.1
; #@! TF.FileFunction,Plated,1,2,PTH
FMAT,2
METRIC
; #@! TA.AperFunction,Plated,PTH,ViaDrill
T1C0.300
; #@! TA.AperFunction,Plated,PTH,ComponentDrill
T2C0.800
; #@! TA.AperFunction,Plated,PTH,ComponentDrill
T3C1.000
%
G90
G05
T1
X108.966Y-107.569
X114.3Y-80.264
X114.681Y-95.77
X115.463Y-71.1
X115.57Y-78.994
X116.84Y-79.741
X119.253Y-72.39
X119.319Y-77.639
X119.38Y-83.439
X119.38Y-68.834
X120.65Y-68.834
X120.65Y-84.201
X120.904Y-80.137
X121.92Y-84.328
X122.204Y-76.23
X123.063Y-75.423
X124.46Y-68.072
X125.73Y-64.389
X126.238Y-73.914
X127.0Y-80.137
X128.524Y-81.661
X130.302Y-78.994
T2
X116.459Y-93.091
X116.459Y-100.711
X118.999Y-93.091
X118.999Y-100.711
X121.539Y-93.091
X121.539Y-100.711
X124.079Y-93.091
X124.079Y-100.711
X126.619Y-93.091
X126.619Y-100.711
X129.159Y-93.091
X129.159Y-100.711
X131.699Y-93.091
X131.699Y-100.711
T3
X104.14Y-59.69
X104.14Y-62.23
X104.14Y-64.77
X104.14Y-67.31
X104.14Y-69.85
X104.14Y-72.39
X104.14Y-78.74
X104.14Y-81.28
X104.14Y-83.82
X104.14Y-86.36
X104.14Y-88.9
X104.14Y-91.44
X104.14Y-93.98
X104.14Y-96.52
X104.14Y-99.06
X104.14Y-101.6
X104.14Y-104.14
X104.14Y-106.68
X106.68Y-78.74
X106.68Y-81.28
X106.68Y-83.82
X106.68Y-86.36
X106.68Y-88.9
X106.68Y-91.44
X106.68Y-93.98
X106.68Y-96.52
X106.68Y-99.06
X106.68Y-101.6
X106.68Y-104.14
X106.68Y-106.68
X115.167Y-88.306
X117.707Y-88.306
X120.247Y-88.306
X122.787Y-88.306
X123.952Y-104.14
X123.952Y-106.68
X125.327Y-88.306
X126.492Y-104.14
X126.492Y-106.68
X127.867Y-88.306
X129.032Y-104.14
X129.032Y-106.68
X131.572Y-104.14
X131.572Y-106.68
M30
