%TF.GenerationSoftware,KiCad,Pcbnew,8.0.0-8.0.0-1~ubuntu22.04.1*%
%TF.CreationDate,2024-03-03T19:53:44+01:00*%
%TF.ProjectId,spi65,73706936-352e-46b6-9963-61645f706362,rev?*%
%TF.SameCoordinates,Original*%
%TF.FileFunction,Copper,L2,Bot*%
%TF.FilePolarity,Positive*%
%FSLAX46Y46*%
G04 Gerber Fmt 4.6, Leading zero omitted, Abs format (unit mm)*
G04 Created by KiCad (PCBNEW 8.0.0-8.0.0-1~ubuntu22.04.1) date 2024-03-03 19:53:44*
%MOMM*%
%LPD*%
G01*
G04 APERTURE LIST*
%TA.AperFunction,ComponentPad*%
%ADD10R,1.700000X1.700000*%
%TD*%
%TA.AperFunction,ComponentPad*%
%ADD11O,1.700000X1.700000*%
%TD*%
%TA.AperFunction,ComponentPad*%
%ADD12R,1.600000X2.400000*%
%TD*%
%TA.AperFunction,ComponentPad*%
%ADD13O,1.600000X2.400000*%
%TD*%
%TA.AperFunction,ViaPad*%
%ADD14C,0.700000*%
%TD*%
%TA.AperFunction,ViaPad*%
%ADD15C,0.600000*%
%TD*%
%TA.AperFunction,Conductor*%
%ADD16C,0.500000*%
%TD*%
%TA.AperFunction,Conductor*%
%ADD17C,0.200000*%
%TD*%
G04 APERTURE END LIST*
D10*
%TO.P,J3,1,Pin_1*%
%TO.N,VCC*%
X104140000Y-59690000D03*
D11*
%TO.P,J3,2,Pin_2*%
%TO.N,GND*%
X104140000Y-62230000D03*
%TO.P,J3,3,Pin_3*%
%TO.N,/TCK*%
X104140000Y-64770000D03*
%TO.P,J3,4,Pin_4*%
%TO.N,/TDO*%
X104140000Y-67310000D03*
%TO.P,J3,5,Pin_5*%
%TO.N,/TDI*%
X104140000Y-69850000D03*
%TO.P,J3,6,Pin_6*%
%TO.N,/TMS*%
X104140000Y-72390000D03*
%TD*%
D10*
%TO.P,J2,1,Pin_1*%
%TO.N,/EXTCLK*%
X123952000Y-106680000D03*
D11*
%TO.P,J2,2,Pin_2*%
%TO.N,Net-(J2-Pin_2)*%
X123952000Y-104140000D03*
%TO.P,J2,3,Pin_3*%
%TO.N,/EXTCLK*%
X126492000Y-106680000D03*
%TO.P,J2,4,Pin_4*%
%TO.N,Net-(J2-Pin_4)*%
X126492000Y-104140000D03*
%TO.P,J2,5,Pin_5*%
%TO.N,/EXTCLK*%
X129032000Y-106680000D03*
%TO.P,J2,6,Pin_6*%
%TO.N,Net-(J2-Pin_6)*%
X129032000Y-104140000D03*
%TO.P,J2,7,Pin_7*%
%TO.N,/EXTCLK*%
X131572000Y-106680000D03*
%TO.P,J2,8,Pin_8*%
%TO.N,Net-(J2-Pin_8)*%
X131572000Y-104140000D03*
%TD*%
D10*
%TO.P,J1,1,Pin_1*%
%TO.N,/CS*%
X127867000Y-88306500D03*
D11*
%TO.P,J1,2,Pin_2*%
%TO.N,/SCK*%
X125327000Y-88306500D03*
%TO.P,J1,3,Pin_3*%
%TO.N,/MOSI*%
X122787000Y-88306500D03*
%TO.P,J1,4,Pin_4*%
%TO.N,/MISO*%
X120247000Y-88306500D03*
%TO.P,J1,5,Pin_5*%
%TO.N,VCC*%
X117707000Y-88306500D03*
%TO.P,J1,6,Pin_6*%
%TO.N,GND*%
X115167000Y-88306500D03*
%TD*%
D12*
%TO.P,U2,1,CP*%
%TO.N,/BUF_PHI2*%
X116459000Y-100711000D03*
D13*
%TO.P,U2,2,MR*%
%TO.N,GND*%
X118999000Y-100711000D03*
%TO.P,U2,3,Q0*%
%TO.N,Net-(J2-Pin_2)*%
X121539000Y-100711000D03*
%TO.P,U2,4,Q1*%
%TO.N,Net-(J2-Pin_4)*%
X124079000Y-100711000D03*
%TO.P,U2,5,Q2*%
%TO.N,Net-(J2-Pin_6)*%
X126619000Y-100711000D03*
%TO.P,U2,6,Q3*%
%TO.N,Net-(J2-Pin_8)*%
X129159000Y-100711000D03*
%TO.P,U2,7,GND*%
%TO.N,GND*%
X131699000Y-100711000D03*
%TO.P,U2,8*%
%TO.N,N/C*%
X131699000Y-93091000D03*
%TO.P,U2,9*%
X129159000Y-93091000D03*
%TO.P,U2,10*%
X126619000Y-93091000D03*
%TO.P,U2,11*%
X124079000Y-93091000D03*
%TO.P,U2,12*%
X121539000Y-93091000D03*
%TO.P,U2,13*%
X118999000Y-93091000D03*
%TO.P,U2,14,VCC*%
%TO.N,VCC*%
X116459000Y-93091000D03*
%TD*%
D10*
%TO.P,SLOT1,1,Pin_1*%
%TO.N,/BUF_D0*%
X104140000Y-78740000D03*
D11*
%TO.P,SLOT1,2,Pin_2*%
%TO.N,/BUF_A0*%
X106680000Y-78740000D03*
%TO.P,SLOT1,3,Pin_3*%
%TO.N,/BUF_D1*%
X104140000Y-81280000D03*
%TO.P,SLOT1,4,Pin_4*%
%TO.N,/BUF_A1*%
X106680000Y-81280000D03*
%TO.P,SLOT1,5,Pin_5*%
%TO.N,/BUF_D2*%
X104140000Y-83820000D03*
%TO.P,SLOT1,6,Pin_6*%
%TO.N,/BUF_A2*%
X106680000Y-83820000D03*
%TO.P,SLOT1,7,Pin_7*%
%TO.N,/BUF_D3*%
X104140000Y-86360000D03*
%TO.P,SLOT1,8,Pin_8*%
%TO.N,/BUF_A3*%
X106680000Y-86360000D03*
%TO.P,SLOT1,9,Pin_9*%
%TO.N,/BUF_D4*%
X104140000Y-88900000D03*
%TO.P,SLOT1,10,Pin_10*%
%TO.N,/BUF_R~{W}*%
X106680000Y-88900000D03*
%TO.P,SLOT1,11,Pin_11*%
%TO.N,/BUF_D5*%
X104140000Y-91440000D03*
%TO.P,SLOT1,12,Pin_12*%
%TO.N,/~{BUF_WE}*%
X106680000Y-91440000D03*
%TO.P,SLOT1,13,Pin_13*%
%TO.N,/BUF_D6*%
X104140000Y-93980000D03*
%TO.P,SLOT1,14,Pin_14*%
%TO.N,/~{BUF_OE}*%
X106680000Y-93980000D03*
%TO.P,SLOT1,15,Pin_15*%
%TO.N,/BUF_D7*%
X104140000Y-96520000D03*
%TO.P,SLOT1,16,Pin_16*%
%TO.N,/~{CS_SLOT0}*%
X106680000Y-96520000D03*
%TO.P,SLOT1,17,Pin_17*%
%TO.N,/~{IRQ}*%
X104140000Y-99060000D03*
%TO.P,SLOT1,18,Pin_18*%
%TO.N,/~{NMI}*%
X106680000Y-99060000D03*
%TO.P,SLOT1,19,Pin_19*%
%TO.N,/CPU_RDY*%
X104140000Y-101600000D03*
%TO.P,SLOT1,20,Pin_20*%
%TO.N,/BUF_PHI2*%
X106680000Y-101600000D03*
%TO.P,SLOT1,21,Pin_21*%
%TO.N,/~{RESET}*%
X104140000Y-104140000D03*
%TO.P,SLOT1,22,Pin_22*%
%TO.N,/RESET_TRIG*%
X106680000Y-104140000D03*
%TO.P,SLOT1,23,Pin_23*%
%TO.N,VCC*%
X104140000Y-106680000D03*
%TO.P,SLOT1,24,Pin_24*%
%TO.N,GND*%
X106680000Y-106680000D03*
%TD*%
D14*
%TO.N,GND*%
X126238000Y-73914000D03*
X114681000Y-95770000D03*
X124460000Y-68072000D03*
D15*
%TO.N,/MISO*%
X120904492Y-80137000D03*
%TO.N,/MOSI*%
X119380000Y-68834000D03*
%TO.N,/SCK*%
X120650000Y-68834000D03*
%TO.N,/EXTCLK*%
X108966000Y-107569000D03*
%TO.N,/~{CS_SLOT0}*%
X128524000Y-81661000D03*
%TO.N,/BUF_A1*%
X122203541Y-76229541D03*
%TO.N,/BUF_R~{W}*%
X114299998Y-80263999D03*
%TO.N,/BUF_D6*%
X120650000Y-84201000D03*
%TO.N,/BUF_D3*%
X115570000Y-78994000D03*
%TO.N,/~{RESET}*%
X130302000Y-78994000D03*
%TO.N,/BUF_D4*%
X116840000Y-79741000D03*
%TO.N,/BUF_D7*%
X121920000Y-84328000D03*
%TO.N,/~{IRQ}*%
X119319343Y-77638520D03*
%TO.N,/BUF_A0*%
X123063000Y-75423000D03*
%TO.N,/BUF_D5*%
X119379998Y-83439000D03*
%TO.N,/TDI*%
X115462538Y-71100462D03*
%TO.N,/TMS*%
X119253000Y-72390000D03*
%TO.N,/TCK*%
X126999999Y-80137000D03*
%TO.N,/TDO*%
X125730000Y-64389000D03*
%TD*%
D16*
%TO.N,GND*%
X106680000Y-106680000D02*
X107530000Y-105830000D01*
X126238000Y-73914000D02*
X124460000Y-72136000D01*
X115167000Y-88306500D02*
X114681000Y-88792500D01*
X125984000Y-74168000D02*
X126238000Y-73914000D01*
X107530000Y-105830000D02*
X114780000Y-105830000D01*
X117284500Y-90424000D02*
X128524000Y-90424000D01*
X115167000Y-88306500D02*
X117284500Y-90424000D01*
X118999000Y-101611000D02*
X118999000Y-100711000D01*
X114681000Y-88792500D02*
X114681000Y-95770000D01*
X129267000Y-89681000D02*
X129267000Y-85579000D01*
X129267000Y-85579000D02*
X125984000Y-82296000D01*
X124460000Y-72136000D02*
X124460000Y-68072000D01*
X128524000Y-90424000D02*
X129267000Y-89681000D01*
X125984000Y-82296000D02*
X125984000Y-74168000D01*
X114780000Y-105830000D02*
X118999000Y-101611000D01*
D17*
%TO.N,/MISO*%
X122554998Y-81787506D02*
X120904492Y-80137000D01*
X120247000Y-88306500D02*
X122554998Y-85998502D01*
X122554998Y-85998502D02*
X122554998Y-81787506D01*
%TO.N,/MOSI*%
X122787000Y-88306500D02*
X124834000Y-86259500D01*
X124834000Y-76033089D02*
X119380000Y-70579089D01*
X124834000Y-86259500D02*
X124834000Y-76033089D01*
X119380000Y-70579089D02*
X119380000Y-68834000D01*
%TO.N,/SCK*%
X120650000Y-71141982D02*
X125327000Y-75818982D01*
X120650000Y-68834000D02*
X120650000Y-71141982D01*
X125327000Y-75818982D02*
X125327000Y-88306500D01*
%TO.N,/EXTCLK*%
X108966000Y-107569000D02*
X109855000Y-106680000D01*
X109855000Y-106680000D02*
X123952000Y-106680000D01*
%TO.N,/~{CS_SLOT0}*%
X129921000Y-90373365D02*
X129921000Y-83058000D01*
X126492000Y-96520000D02*
X127889000Y-95123000D01*
X127889000Y-92405365D02*
X129921000Y-90373365D01*
X129921000Y-83058000D02*
X128524000Y-81661000D01*
X127889000Y-95123000D02*
X127889000Y-92405365D01*
X106680000Y-96520000D02*
X126492000Y-96520000D01*
%TO.N,/BUF_A1*%
X106680000Y-81280000D02*
X109708353Y-78251647D01*
X120181435Y-78251647D02*
X122203541Y-76229541D01*
X109708353Y-78251647D02*
X120181435Y-78251647D01*
%TO.N,/BUF_R~{W}*%
X114173001Y-80263999D02*
X114299998Y-80263999D01*
X106680000Y-88900000D02*
X107061000Y-88900000D01*
X108230000Y-86207000D02*
X114173001Y-80263999D01*
X107061000Y-88900000D02*
X107569000Y-88392000D01*
X107569000Y-88392000D02*
X107569000Y-88011000D01*
X108230000Y-87350000D02*
X108230000Y-86207000D01*
X107569000Y-88011000D02*
X108230000Y-87350000D01*
%TO.N,/BUF_D6*%
X107036346Y-92710000D02*
X108312000Y-91434346D01*
X108312000Y-90571626D02*
X114682626Y-84201000D01*
X114682626Y-84201000D02*
X120650000Y-84201000D01*
X105410000Y-92710000D02*
X107036346Y-92710000D01*
X108312000Y-91434346D02*
X108312000Y-90571626D01*
X104140000Y-93980000D02*
X105410000Y-92710000D01*
%TO.N,/BUF_D3*%
X114085074Y-78994000D02*
X115570000Y-78994000D01*
X105410000Y-85090000D02*
X107989074Y-85090000D01*
X104140000Y-86360000D02*
X105410000Y-85090000D01*
X107989074Y-85090000D02*
X114085074Y-78994000D01*
%TO.N,/~{RESET}*%
X130429000Y-97155000D02*
X130429000Y-90364688D01*
X106323654Y-97790000D02*
X129794000Y-97790000D01*
X130349000Y-90284688D02*
X130349000Y-79041000D01*
X105530000Y-98583654D02*
X106323654Y-97790000D01*
X104140000Y-104140000D02*
X105530000Y-102750000D01*
X130429000Y-90364688D02*
X130349000Y-90284688D01*
X105530000Y-102750000D02*
X105530000Y-98583654D01*
X130349000Y-79041000D02*
X130302000Y-78994000D01*
X129794000Y-97790000D02*
X130429000Y-97155000D01*
%TO.N,/BUF_D4*%
X107830000Y-85814758D02*
X114030759Y-79613999D01*
X116713000Y-79614000D02*
X116840000Y-79741000D01*
X104140000Y-88900000D02*
X105530000Y-87510000D01*
X105530000Y-87510000D02*
X107156346Y-87510000D01*
X107830000Y-86836346D02*
X107830000Y-85814758D01*
X107156346Y-87510000D02*
X107830000Y-86836346D01*
X114030759Y-79613999D02*
X116713000Y-79614000D01*
%TO.N,/BUF_PHI2*%
X115570000Y-101600000D02*
X116459000Y-100711000D01*
X106680000Y-101600000D02*
X115570000Y-101600000D01*
%TO.N,/BUF_D7*%
X107156346Y-95130000D02*
X108712000Y-93574346D01*
X108712000Y-90737312D02*
X114613312Y-84836000D01*
X105530000Y-95130000D02*
X107156346Y-95130000D01*
X114613312Y-84836000D02*
X121412000Y-84836000D01*
X121412000Y-84836000D02*
X121920000Y-84328000D01*
X104140000Y-96520000D02*
X105530000Y-95130000D01*
X108712000Y-93574346D02*
X108712000Y-90737312D01*
%TO.N,/~{IRQ}*%
X104140000Y-99060000D02*
X102990000Y-97910000D01*
X103903654Y-79890000D02*
X107504314Y-79890000D01*
X102990000Y-80803654D02*
X103903654Y-79890000D01*
X109755794Y-77638520D02*
X119319343Y-77638520D01*
X107504314Y-79890000D02*
X109755794Y-77638520D01*
X102990000Y-97910000D02*
X102990000Y-80803654D01*
%TO.N,/BUF_A0*%
X109997000Y-75423000D02*
X123063000Y-75423000D01*
X106680000Y-78740000D02*
X109997000Y-75423000D01*
%TO.N,/BUF_D5*%
X105410000Y-90170000D02*
X107569000Y-90170000D01*
X108585000Y-89154000D02*
X108585000Y-87630000D01*
X108585000Y-87630000D02*
X112776000Y-83439000D01*
X112776000Y-83439000D02*
X119379998Y-83439000D01*
X107569000Y-90170000D02*
X108585000Y-89154000D01*
X104140000Y-91440000D02*
X105410000Y-90170000D01*
%TO.N,/TDI*%
X104140000Y-69850000D02*
X114212076Y-69850000D01*
X114212076Y-69850000D02*
X115462538Y-71100462D01*
%TO.N,/TMS*%
X104140000Y-72390000D02*
X119253000Y-72390000D01*
%TO.N,/TCK*%
X126999999Y-64485760D02*
X126999999Y-80137000D01*
X126122239Y-63608000D02*
X126999999Y-64485760D01*
X105302000Y-63608000D02*
X126122239Y-63608000D01*
X104140000Y-64770000D02*
X105302000Y-63608000D01*
%TO.N,/TDO*%
X125349000Y-64008000D02*
X125730000Y-64389000D01*
X107442000Y-64008000D02*
X125349000Y-64008000D01*
X104140000Y-67310000D02*
X107442000Y-64008000D01*
%TD*%
%TA.AperFunction,Conductor*%
%TO.N,GND*%
G36*
X102440203Y-98172362D02*
G01*
X102466384Y-98204072D01*
X102496023Y-98255407D01*
X102509479Y-98278715D01*
X102628349Y-98397585D01*
X102628355Y-98397590D01*
X102807233Y-98576468D01*
X102840718Y-98637791D01*
X102839327Y-98696241D01*
X102804939Y-98824583D01*
X102804936Y-98824596D01*
X102784341Y-99059999D01*
X102784341Y-99060000D01*
X102804936Y-99295403D01*
X102804938Y-99295413D01*
X102866094Y-99523655D01*
X102866096Y-99523659D01*
X102866097Y-99523663D01*
X102915520Y-99629650D01*
X102965965Y-99737830D01*
X102965967Y-99737834D01*
X103101501Y-99931395D01*
X103101506Y-99931402D01*
X103268597Y-100098493D01*
X103268603Y-100098498D01*
X103454158Y-100228425D01*
X103497783Y-100283002D01*
X103504977Y-100352500D01*
X103473454Y-100414855D01*
X103454158Y-100431575D01*
X103268597Y-100561505D01*
X103101505Y-100728597D01*
X102965965Y-100922169D01*
X102965964Y-100922171D01*
X102866098Y-101136335D01*
X102866094Y-101136344D01*
X102804938Y-101364586D01*
X102804936Y-101364596D01*
X102784341Y-101599999D01*
X102784341Y-101600000D01*
X102804936Y-101835403D01*
X102804938Y-101835413D01*
X102866094Y-102063655D01*
X102866096Y-102063659D01*
X102866097Y-102063663D01*
X102938839Y-102219658D01*
X102965965Y-102277830D01*
X102965967Y-102277834D01*
X103101501Y-102471395D01*
X103101506Y-102471402D01*
X103268597Y-102638493D01*
X103268603Y-102638498D01*
X103454158Y-102768425D01*
X103497783Y-102823002D01*
X103504977Y-102892500D01*
X103473454Y-102954855D01*
X103454158Y-102971575D01*
X103268597Y-103101505D01*
X103101505Y-103268597D01*
X102965965Y-103462169D01*
X102965964Y-103462171D01*
X102866098Y-103676335D01*
X102866094Y-103676344D01*
X102804938Y-103904586D01*
X102804936Y-103904596D01*
X102784341Y-104139999D01*
X102784341Y-104140000D01*
X102804936Y-104375403D01*
X102804938Y-104375413D01*
X102866094Y-104603655D01*
X102866096Y-104603659D01*
X102866097Y-104603663D01*
X102870000Y-104612032D01*
X102965965Y-104817830D01*
X102965967Y-104817834D01*
X103074281Y-104972521D01*
X103101501Y-105011396D01*
X103101506Y-105011402D01*
X103268597Y-105178493D01*
X103268603Y-105178498D01*
X103454158Y-105308425D01*
X103497783Y-105363002D01*
X103504977Y-105432500D01*
X103473454Y-105494855D01*
X103454158Y-105511575D01*
X103268597Y-105641505D01*
X103101505Y-105808597D01*
X102965965Y-106002169D01*
X102965964Y-106002171D01*
X102866098Y-106216335D01*
X102866094Y-106216344D01*
X102804938Y-106444586D01*
X102804936Y-106444596D01*
X102784341Y-106679999D01*
X102784341Y-106680000D01*
X102804936Y-106915403D01*
X102804938Y-106915413D01*
X102866094Y-107143655D01*
X102866096Y-107143659D01*
X102866097Y-107143663D01*
X102946004Y-107315023D01*
X102965965Y-107357830D01*
X102965967Y-107357834D01*
X103074281Y-107512521D01*
X103101505Y-107551401D01*
X103268599Y-107718495D01*
X103365384Y-107786265D01*
X103462165Y-107854032D01*
X103462167Y-107854033D01*
X103462170Y-107854035D01*
X103676337Y-107953903D01*
X103904592Y-108015063D01*
X104081034Y-108030500D01*
X104139999Y-108035659D01*
X104140000Y-108035659D01*
X104140001Y-108035659D01*
X104198966Y-108030500D01*
X104375408Y-108015063D01*
X104603663Y-107953903D01*
X104817830Y-107854035D01*
X105011401Y-107718495D01*
X105178495Y-107551401D01*
X105308730Y-107365405D01*
X105363307Y-107321781D01*
X105432805Y-107314587D01*
X105495160Y-107346110D01*
X105511879Y-107365405D01*
X105641890Y-107551078D01*
X105808917Y-107718105D01*
X106002421Y-107853600D01*
X106216507Y-107953429D01*
X106216516Y-107953433D01*
X106430000Y-108010634D01*
X106430000Y-107113012D01*
X106487007Y-107145925D01*
X106614174Y-107180000D01*
X106745826Y-107180000D01*
X106872993Y-107145925D01*
X106930000Y-107113012D01*
X106930000Y-108010633D01*
X107143483Y-107953433D01*
X107143492Y-107953429D01*
X107357578Y-107853600D01*
X107551082Y-107718105D01*
X107718105Y-107551082D01*
X107853600Y-107357578D01*
X107953429Y-107143492D01*
X107953432Y-107143486D01*
X108010636Y-106930000D01*
X107113012Y-106930000D01*
X107145925Y-106872993D01*
X107180000Y-106745826D01*
X107180000Y-106614174D01*
X107145925Y-106487007D01*
X107113012Y-106430000D01*
X108010636Y-106430000D01*
X108010635Y-106429999D01*
X107953432Y-106216513D01*
X107953429Y-106216507D01*
X107853600Y-106002422D01*
X107853599Y-106002420D01*
X107718113Y-105808926D01*
X107718108Y-105808920D01*
X107551078Y-105641890D01*
X107365405Y-105511879D01*
X107321780Y-105457302D01*
X107314588Y-105387804D01*
X107346110Y-105325449D01*
X107365406Y-105308730D01*
X107365842Y-105308425D01*
X107551401Y-105178495D01*
X107718495Y-105011401D01*
X107854035Y-104817830D01*
X107953903Y-104603663D01*
X108015063Y-104375408D01*
X108035659Y-104140000D01*
X108015063Y-103904592D01*
X107953903Y-103676337D01*
X107854035Y-103462171D01*
X107848425Y-103454158D01*
X107718494Y-103268597D01*
X107551402Y-103101506D01*
X107551396Y-103101501D01*
X107365842Y-102971575D01*
X107322217Y-102916998D01*
X107315023Y-102847500D01*
X107346546Y-102785145D01*
X107365842Y-102768425D01*
X107388026Y-102752891D01*
X107551401Y-102638495D01*
X107718495Y-102471401D01*
X107854035Y-102277830D01*
X107856707Y-102272097D01*
X107902878Y-102219658D01*
X107969091Y-102200500D01*
X115188445Y-102200500D01*
X115255484Y-102220185D01*
X115287710Y-102250187D01*
X115301454Y-102268546D01*
X115301455Y-102268547D01*
X115416664Y-102354793D01*
X115416671Y-102354797D01*
X115551517Y-102405091D01*
X115551516Y-102405091D01*
X115558444Y-102405835D01*
X115611127Y-102411500D01*
X117306872Y-102411499D01*
X117366483Y-102405091D01*
X117501331Y-102354796D01*
X117616546Y-102268546D01*
X117702796Y-102153331D01*
X117753091Y-102018483D01*
X117757140Y-101980815D01*
X117783876Y-101916268D01*
X117841268Y-101876419D01*
X117911093Y-101873924D01*
X117971183Y-101909576D01*
X117980747Y-101921187D01*
X118007417Y-101957894D01*
X118007417Y-101957895D01*
X118152104Y-102102582D01*
X118317650Y-102222859D01*
X118499968Y-102315754D01*
X118694578Y-102378988D01*
X118749000Y-102387607D01*
X118749000Y-101026686D01*
X118753394Y-101031080D01*
X118844606Y-101083741D01*
X118946339Y-101111000D01*
X119051661Y-101111000D01*
X119153394Y-101083741D01*
X119244606Y-101031080D01*
X119249000Y-101026686D01*
X119249000Y-102387606D01*
X119303421Y-102378988D01*
X119498031Y-102315754D01*
X119680349Y-102222859D01*
X119845894Y-102102582D01*
X119845895Y-102102582D01*
X119990582Y-101957895D01*
X119990582Y-101957894D01*
X120110861Y-101792347D01*
X120158234Y-101699371D01*
X120206208Y-101648575D01*
X120274028Y-101631779D01*
X120340164Y-101654316D01*
X120379203Y-101699369D01*
X120426713Y-101792611D01*
X120547028Y-101958213D01*
X120691786Y-102102971D01*
X120826026Y-102200500D01*
X120857390Y-102223287D01*
X120964444Y-102277834D01*
X121039776Y-102316218D01*
X121039778Y-102316218D01*
X121039781Y-102316220D01*
X121144137Y-102350127D01*
X121234465Y-102379477D01*
X121335557Y-102395488D01*
X121436648Y-102411500D01*
X121436649Y-102411500D01*
X121641351Y-102411500D01*
X121641352Y-102411500D01*
X121843534Y-102379477D01*
X122038219Y-102316220D01*
X122220610Y-102223287D01*
X122316901Y-102153328D01*
X122386213Y-102102971D01*
X122386215Y-102102968D01*
X122386219Y-102102966D01*
X122530966Y-101958219D01*
X122530968Y-101958215D01*
X122530971Y-101958213D01*
X122651284Y-101792614D01*
X122651286Y-101792611D01*
X122651287Y-101792610D01*
X122698516Y-101699917D01*
X122746489Y-101649123D01*
X122814310Y-101632328D01*
X122880445Y-101654865D01*
X122919485Y-101699919D01*
X122966715Y-101792614D01*
X123087028Y-101958213D01*
X123231786Y-102102971D01*
X123366026Y-102200500D01*
X123397390Y-102223287D01*
X123504444Y-102277834D01*
X123579776Y-102316218D01*
X123579778Y-102316218D01*
X123579781Y-102316220D01*
X123684137Y-102350127D01*
X123774465Y-102379477D01*
X123875557Y-102395488D01*
X123976648Y-102411500D01*
X123976649Y-102411500D01*
X124181351Y-102411500D01*
X124181352Y-102411500D01*
X124383534Y-102379477D01*
X124578219Y-102316220D01*
X124760610Y-102223287D01*
X124856901Y-102153328D01*
X124926213Y-102102971D01*
X124926215Y-102102968D01*
X124926219Y-102102966D01*
X125070966Y-101958219D01*
X125070968Y-101958215D01*
X125070971Y-101958213D01*
X125191284Y-101792614D01*
X125191286Y-101792611D01*
X125191287Y-101792610D01*
X125238516Y-101699917D01*
X125286489Y-101649123D01*
X125354310Y-101632328D01*
X125420445Y-101654865D01*
X125459485Y-101699919D01*
X125506715Y-101792614D01*
X125627028Y-101958213D01*
X125771786Y-102102971D01*
X125906026Y-102200500D01*
X125937390Y-102223287D01*
X126044444Y-102277834D01*
X126119776Y-102316218D01*
X126119778Y-102316218D01*
X126119781Y-102316220D01*
X126224137Y-102350127D01*
X126314465Y-102379477D01*
X126415557Y-102395488D01*
X126516648Y-102411500D01*
X126516649Y-102411500D01*
X126721351Y-102411500D01*
X126721352Y-102411500D01*
X126923534Y-102379477D01*
X127118219Y-102316220D01*
X127300610Y-102223287D01*
X127396901Y-102153328D01*
X127466213Y-102102971D01*
X127466215Y-102102968D01*
X127466219Y-102102966D01*
X127610966Y-101958219D01*
X127610968Y-101958215D01*
X127610971Y-101958213D01*
X127731284Y-101792614D01*
X127731286Y-101792611D01*
X127731287Y-101792610D01*
X127778516Y-101699917D01*
X127826489Y-101649123D01*
X127894310Y-101632328D01*
X127960445Y-101654865D01*
X127999485Y-101699919D01*
X128046715Y-101792614D01*
X128167028Y-101958213D01*
X128311786Y-102102971D01*
X128446026Y-102200500D01*
X128477390Y-102223287D01*
X128584444Y-102277834D01*
X128659776Y-102316218D01*
X128659778Y-102316218D01*
X128659781Y-102316220D01*
X128764137Y-102350127D01*
X128854465Y-102379477D01*
X128955557Y-102395488D01*
X129056648Y-102411500D01*
X129056649Y-102411500D01*
X129261351Y-102411500D01*
X129261352Y-102411500D01*
X129463534Y-102379477D01*
X129658219Y-102316220D01*
X129840610Y-102223287D01*
X129936901Y-102153328D01*
X130006213Y-102102971D01*
X130006215Y-102102968D01*
X130006219Y-102102966D01*
X130150966Y-101958219D01*
X130150968Y-101958215D01*
X130150971Y-101958213D01*
X130271284Y-101792614D01*
X130271286Y-101792611D01*
X130271287Y-101792610D01*
X130318795Y-101699369D01*
X130366770Y-101648574D01*
X130434591Y-101631779D01*
X130500725Y-101654316D01*
X130539765Y-101699370D01*
X130587140Y-101792349D01*
X130707417Y-101957894D01*
X130707417Y-101957895D01*
X130852104Y-102102582D01*
X131017650Y-102222859D01*
X131199968Y-102315754D01*
X131394578Y-102378988D01*
X131449000Y-102387607D01*
X131449000Y-101026686D01*
X131453394Y-101031080D01*
X131544606Y-101083741D01*
X131646339Y-101111000D01*
X131751661Y-101111000D01*
X131853394Y-101083741D01*
X131944606Y-101031080D01*
X131949000Y-101026686D01*
X131949000Y-102387606D01*
X132003421Y-102378988D01*
X132198031Y-102315754D01*
X132380349Y-102222859D01*
X132518114Y-102122767D01*
X132583921Y-102099287D01*
X132651974Y-102115112D01*
X132700669Y-102165218D01*
X132715000Y-102223085D01*
X132715000Y-103073741D01*
X132695315Y-103140780D01*
X132642511Y-103186535D01*
X132573353Y-103196479D01*
X132509797Y-103167454D01*
X132503319Y-103161423D01*
X132482676Y-103140780D01*
X132443401Y-103101505D01*
X132443397Y-103101502D01*
X132443396Y-103101501D01*
X132249834Y-102965967D01*
X132249830Y-102965965D01*
X132249828Y-102965964D01*
X132035663Y-102866097D01*
X132035659Y-102866096D01*
X132035655Y-102866094D01*
X131807413Y-102804938D01*
X131807403Y-102804936D01*
X131572001Y-102784341D01*
X131571999Y-102784341D01*
X131336596Y-102804936D01*
X131336586Y-102804938D01*
X131108344Y-102866094D01*
X131108335Y-102866098D01*
X130894171Y-102965964D01*
X130894169Y-102965965D01*
X130700597Y-103101505D01*
X130533505Y-103268597D01*
X130403575Y-103454158D01*
X130348998Y-103497783D01*
X130279500Y-103504977D01*
X130217145Y-103473454D01*
X130200425Y-103454158D01*
X130070494Y-103268597D01*
X129903402Y-103101506D01*
X129903395Y-103101501D01*
X129709834Y-102965967D01*
X129709830Y-102965965D01*
X129709828Y-102965964D01*
X129495663Y-102866097D01*
X129495659Y-102866096D01*
X129495655Y-102866094D01*
X129267413Y-102804938D01*
X129267403Y-102804936D01*
X129032001Y-102784341D01*
X129031999Y-102784341D01*
X128796596Y-102804936D01*
X128796586Y-102804938D01*
X128568344Y-102866094D01*
X128568335Y-102866098D01*
X128354171Y-102965964D01*
X128354169Y-102965965D01*
X128160597Y-103101505D01*
X127993505Y-103268597D01*
X127863575Y-103454158D01*
X127808998Y-103497783D01*
X127739500Y-103504977D01*
X127677145Y-103473454D01*
X127660425Y-103454158D01*
X127530494Y-103268597D01*
X127363402Y-103101506D01*
X127363395Y-103101501D01*
X127169834Y-102965967D01*
X127169830Y-102965965D01*
X127169828Y-102965964D01*
X126955663Y-102866097D01*
X126955659Y-102866096D01*
X126955655Y-102866094D01*
X126727413Y-102804938D01*
X126727403Y-102804936D01*
X126492001Y-102784341D01*
X126491999Y-102784341D01*
X126256596Y-102804936D01*
X126256586Y-102804938D01*
X126028344Y-102866094D01*
X126028335Y-102866098D01*
X125814171Y-102965964D01*
X125814169Y-102965965D01*
X125620597Y-103101505D01*
X125453505Y-103268597D01*
X125323575Y-103454158D01*
X125268998Y-103497783D01*
X125199500Y-103504977D01*
X125137145Y-103473454D01*
X125120425Y-103454158D01*
X124990494Y-103268597D01*
X124823402Y-103101506D01*
X124823395Y-103101501D01*
X124629834Y-102965967D01*
X124629830Y-102965965D01*
X124629828Y-102965964D01*
X124415663Y-102866097D01*
X124415659Y-102866096D01*
X124415655Y-102866094D01*
X124187413Y-102804938D01*
X124187403Y-102804936D01*
X123952001Y-102784341D01*
X123951999Y-102784341D01*
X123716596Y-102804936D01*
X123716586Y-102804938D01*
X123488344Y-102866094D01*
X123488335Y-102866098D01*
X123274171Y-102965964D01*
X123274169Y-102965965D01*
X123080597Y-103101505D01*
X122913505Y-103268597D01*
X122777965Y-103462169D01*
X122777964Y-103462171D01*
X122678098Y-103676335D01*
X122678094Y-103676344D01*
X122616938Y-103904586D01*
X122616936Y-103904596D01*
X122596341Y-104139999D01*
X122596341Y-104140000D01*
X122616936Y-104375403D01*
X122616938Y-104375413D01*
X122678094Y-104603655D01*
X122678096Y-104603659D01*
X122678097Y-104603663D01*
X122682000Y-104612032D01*
X122777965Y-104817830D01*
X122777967Y-104817834D01*
X122886281Y-104972521D01*
X122913501Y-105011396D01*
X122913506Y-105011402D01*
X123035430Y-105133326D01*
X123068915Y-105194649D01*
X123063931Y-105264341D01*
X123022059Y-105320274D01*
X122991083Y-105337189D01*
X122859669Y-105386203D01*
X122859664Y-105386206D01*
X122744455Y-105472452D01*
X122744452Y-105472455D01*
X122658206Y-105587664D01*
X122658202Y-105587671D01*
X122607908Y-105722517D01*
X122601501Y-105782116D01*
X122601500Y-105782135D01*
X122601500Y-105955500D01*
X122581815Y-106022539D01*
X122529011Y-106068294D01*
X122477500Y-106079500D01*
X109941669Y-106079500D01*
X109941653Y-106079499D01*
X109934057Y-106079499D01*
X109775943Y-106079499D01*
X109668587Y-106108265D01*
X109623210Y-106120424D01*
X109623209Y-106120425D01*
X109573096Y-106149359D01*
X109573095Y-106149360D01*
X109529689Y-106174420D01*
X109486285Y-106199479D01*
X109486282Y-106199481D01*
X109374478Y-106311286D01*
X108947465Y-106738298D01*
X108886142Y-106771783D01*
X108873668Y-106773837D01*
X108786750Y-106783630D01*
X108616478Y-106843210D01*
X108463737Y-106939184D01*
X108336184Y-107066737D01*
X108240211Y-107219476D01*
X108180631Y-107389745D01*
X108180630Y-107389750D01*
X108160435Y-107568996D01*
X108160435Y-107569003D01*
X108180630Y-107748249D01*
X108180631Y-107748254D01*
X108240211Y-107918523D01*
X108313813Y-108035659D01*
X108336184Y-108071262D01*
X108463738Y-108198816D01*
X108616478Y-108294789D01*
X108756995Y-108343958D01*
X108813771Y-108384680D01*
X108839518Y-108449633D01*
X108826062Y-108518194D01*
X108777675Y-108568597D01*
X108716040Y-108585000D01*
X102359000Y-108585000D01*
X102291961Y-108565315D01*
X102246206Y-108512511D01*
X102235000Y-108461000D01*
X102235000Y-98266075D01*
X102254685Y-98199036D01*
X102307489Y-98153281D01*
X102376647Y-98143337D01*
X102440203Y-98172362D01*
G37*
%TD.AperFunction*%
%TA.AperFunction,Conductor*%
G36*
X132651975Y-94495731D02*
G01*
X132700670Y-94545837D01*
X132715000Y-94603703D01*
X132715000Y-99198914D01*
X132695315Y-99265953D01*
X132642511Y-99311708D01*
X132573353Y-99321652D01*
X132518115Y-99299232D01*
X132380352Y-99199142D01*
X132198029Y-99106244D01*
X132003413Y-99043009D01*
X131949000Y-99034390D01*
X131949000Y-100395314D01*
X131944606Y-100390920D01*
X131853394Y-100338259D01*
X131751661Y-100311000D01*
X131646339Y-100311000D01*
X131544606Y-100338259D01*
X131453394Y-100390920D01*
X131449000Y-100395314D01*
X131449000Y-99034390D01*
X131394586Y-99043009D01*
X131199970Y-99106244D01*
X131017650Y-99199140D01*
X130852105Y-99319417D01*
X130852104Y-99319417D01*
X130707417Y-99464104D01*
X130707417Y-99464105D01*
X130587140Y-99629650D01*
X130539765Y-99722629D01*
X130491790Y-99773425D01*
X130423969Y-99790220D01*
X130357834Y-99767682D01*
X130318795Y-99722629D01*
X130271419Y-99629650D01*
X130271287Y-99629390D01*
X130263556Y-99618749D01*
X130150971Y-99463786D01*
X130006213Y-99319028D01*
X129840613Y-99198715D01*
X129840612Y-99198714D01*
X129840610Y-99198713D01*
X129783653Y-99169691D01*
X129658223Y-99105781D01*
X129463534Y-99042522D01*
X129288995Y-99014878D01*
X129261352Y-99010500D01*
X129056648Y-99010500D01*
X129032329Y-99014351D01*
X128854465Y-99042522D01*
X128659776Y-99105781D01*
X128477386Y-99198715D01*
X128311786Y-99319028D01*
X128167028Y-99463786D01*
X128046715Y-99629386D01*
X127999485Y-99722080D01*
X127951510Y-99772876D01*
X127883689Y-99789671D01*
X127817554Y-99767134D01*
X127778515Y-99722080D01*
X127731419Y-99629650D01*
X127731287Y-99629390D01*
X127723556Y-99618749D01*
X127610971Y-99463786D01*
X127466213Y-99319028D01*
X127300613Y-99198715D01*
X127300612Y-99198714D01*
X127300610Y-99198713D01*
X127243653Y-99169691D01*
X127118223Y-99105781D01*
X126923534Y-99042522D01*
X126748995Y-99014878D01*
X126721352Y-99010500D01*
X126516648Y-99010500D01*
X126492329Y-99014351D01*
X126314465Y-99042522D01*
X126119776Y-99105781D01*
X125937386Y-99198715D01*
X125771786Y-99319028D01*
X125627028Y-99463786D01*
X125506715Y-99629386D01*
X125459485Y-99722080D01*
X125411510Y-99772876D01*
X125343689Y-99789671D01*
X125277554Y-99767134D01*
X125238515Y-99722080D01*
X125191419Y-99629650D01*
X125191287Y-99629390D01*
X125183556Y-99618749D01*
X125070971Y-99463786D01*
X124926213Y-99319028D01*
X124760613Y-99198715D01*
X124760612Y-99198714D01*
X124760610Y-99198713D01*
X124703653Y-99169691D01*
X124578223Y-99105781D01*
X124383534Y-99042522D01*
X124208995Y-99014878D01*
X124181352Y-99010500D01*
X123976648Y-99010500D01*
X123952329Y-99014351D01*
X123774465Y-99042522D01*
X123579776Y-99105781D01*
X123397386Y-99198715D01*
X123231786Y-99319028D01*
X123087028Y-99463786D01*
X122966715Y-99629386D01*
X122919485Y-99722080D01*
X122871510Y-99772876D01*
X122803689Y-99789671D01*
X122737554Y-99767134D01*
X122698515Y-99722080D01*
X122651419Y-99629650D01*
X122651287Y-99629390D01*
X122643556Y-99618749D01*
X122530971Y-99463786D01*
X122386213Y-99319028D01*
X122220613Y-99198715D01*
X122220612Y-99198714D01*
X122220610Y-99198713D01*
X122163653Y-99169691D01*
X122038223Y-99105781D01*
X121843534Y-99042522D01*
X121668995Y-99014878D01*
X121641352Y-99010500D01*
X121436648Y-99010500D01*
X121412329Y-99014351D01*
X121234465Y-99042522D01*
X121039776Y-99105781D01*
X120857386Y-99198715D01*
X120691786Y-99319028D01*
X120547028Y-99463786D01*
X120426713Y-99629388D01*
X120379203Y-99722630D01*
X120331228Y-99773426D01*
X120263407Y-99790220D01*
X120197272Y-99767682D01*
X120158234Y-99722628D01*
X120110861Y-99629652D01*
X119990582Y-99464105D01*
X119990582Y-99464104D01*
X119845895Y-99319417D01*
X119680349Y-99199140D01*
X119498029Y-99106244D01*
X119303413Y-99043009D01*
X119249000Y-99034390D01*
X119249000Y-100395314D01*
X119244606Y-100390920D01*
X119153394Y-100338259D01*
X119051661Y-100311000D01*
X118946339Y-100311000D01*
X118844606Y-100338259D01*
X118753394Y-100390920D01*
X118749000Y-100395314D01*
X118749000Y-99034390D01*
X118694586Y-99043009D01*
X118499970Y-99106244D01*
X118317650Y-99199140D01*
X118152105Y-99319417D01*
X118152104Y-99319417D01*
X118007414Y-99464107D01*
X117980746Y-99500813D01*
X117925415Y-99543478D01*
X117855802Y-99549456D01*
X117794007Y-99516849D01*
X117759651Y-99456010D01*
X117757139Y-99441177D01*
X117753091Y-99403517D01*
X117702797Y-99268671D01*
X117702793Y-99268664D01*
X117616547Y-99153455D01*
X117616544Y-99153452D01*
X117501335Y-99067206D01*
X117501328Y-99067202D01*
X117366482Y-99016908D01*
X117366483Y-99016908D01*
X117306883Y-99010501D01*
X117306881Y-99010500D01*
X117306873Y-99010500D01*
X117306864Y-99010500D01*
X115611129Y-99010500D01*
X115611123Y-99010501D01*
X115551516Y-99016908D01*
X115416671Y-99067202D01*
X115416664Y-99067206D01*
X115301455Y-99153452D01*
X115301452Y-99153455D01*
X115215206Y-99268664D01*
X115215202Y-99268671D01*
X115164908Y-99403517D01*
X115159265Y-99456010D01*
X115158500Y-99463127D01*
X115158500Y-100228425D01*
X115158501Y-100875500D01*
X115138816Y-100942539D01*
X115086013Y-100988294D01*
X115034501Y-100999500D01*
X107969091Y-100999500D01*
X107902052Y-100979815D01*
X107856711Y-100927909D01*
X107854037Y-100922175D01*
X107854034Y-100922170D01*
X107854033Y-100922169D01*
X107718495Y-100728599D01*
X107718494Y-100728597D01*
X107551402Y-100561506D01*
X107551396Y-100561501D01*
X107365842Y-100431575D01*
X107322217Y-100376998D01*
X107315023Y-100307500D01*
X107346546Y-100245145D01*
X107365842Y-100228425D01*
X107469501Y-100155842D01*
X107551401Y-100098495D01*
X107718495Y-99931401D01*
X107854035Y-99737830D01*
X107953903Y-99523663D01*
X108015063Y-99295408D01*
X108035659Y-99060000D01*
X108034172Y-99043009D01*
X108015063Y-98824596D01*
X108015063Y-98824592D01*
X107953903Y-98596337D01*
X107940177Y-98566902D01*
X107929686Y-98497829D01*
X107958205Y-98434044D01*
X108016681Y-98395804D01*
X108052560Y-98390500D01*
X129707331Y-98390500D01*
X129707347Y-98390501D01*
X129714943Y-98390501D01*
X129873054Y-98390501D01*
X129873057Y-98390501D01*
X130025785Y-98349577D01*
X130075904Y-98320639D01*
X130162716Y-98270520D01*
X130274520Y-98158716D01*
X130274520Y-98158714D01*
X130284728Y-98148507D01*
X130284729Y-98148504D01*
X130909520Y-97523716D01*
X130988577Y-97386784D01*
X131029501Y-97234057D01*
X131029501Y-97075942D01*
X131029501Y-97068347D01*
X131029500Y-97068329D01*
X131029500Y-94811266D01*
X131049185Y-94744227D01*
X131101989Y-94698472D01*
X131171147Y-94688528D01*
X131195029Y-94695080D01*
X131195148Y-94694714D01*
X131199777Y-94696218D01*
X131199781Y-94696220D01*
X131327820Y-94737822D01*
X131394465Y-94759477D01*
X131495557Y-94775488D01*
X131596648Y-94791500D01*
X131596649Y-94791500D01*
X131801351Y-94791500D01*
X131801352Y-94791500D01*
X132003534Y-94759477D01*
X132198219Y-94696220D01*
X132380610Y-94603287D01*
X132480591Y-94530647D01*
X132518115Y-94503385D01*
X132583921Y-94479905D01*
X132651975Y-94495731D01*
G37*
%TD.AperFunction*%
%TA.AperFunction,Conductor*%
G36*
X121902425Y-85329954D02*
G01*
X121945616Y-85384875D01*
X121954498Y-85430961D01*
X121954498Y-85698404D01*
X121934813Y-85765443D01*
X121918179Y-85786085D01*
X120730530Y-86973733D01*
X120669207Y-87007218D01*
X120610756Y-87005827D01*
X120482413Y-86971438D01*
X120482403Y-86971436D01*
X120247001Y-86950841D01*
X120246999Y-86950841D01*
X120011596Y-86971436D01*
X120011586Y-86971438D01*
X119783344Y-87032594D01*
X119783335Y-87032598D01*
X119569171Y-87132464D01*
X119569169Y-87132465D01*
X119375597Y-87268005D01*
X119208505Y-87435097D01*
X119078575Y-87620658D01*
X119023998Y-87664283D01*
X118954500Y-87671477D01*
X118892145Y-87639954D01*
X118875425Y-87620658D01*
X118745494Y-87435097D01*
X118578402Y-87268006D01*
X118578395Y-87268001D01*
X118384834Y-87132467D01*
X118384830Y-87132465D01*
X118362362Y-87121988D01*
X118170663Y-87032597D01*
X118170659Y-87032596D01*
X118170655Y-87032594D01*
X117942413Y-86971438D01*
X117942403Y-86971436D01*
X117707001Y-86950841D01*
X117706999Y-86950841D01*
X117471596Y-86971436D01*
X117471586Y-86971438D01*
X117243344Y-87032594D01*
X117243335Y-87032598D01*
X117029171Y-87132464D01*
X117029169Y-87132465D01*
X116835597Y-87268005D01*
X116668508Y-87435094D01*
X116538269Y-87621095D01*
X116483692Y-87664719D01*
X116414193Y-87671912D01*
X116351839Y-87640390D01*
X116335119Y-87621094D01*
X116205113Y-87435426D01*
X116205108Y-87435420D01*
X116038082Y-87268394D01*
X115844578Y-87132899D01*
X115630492Y-87033070D01*
X115630486Y-87033067D01*
X115417000Y-86975864D01*
X115417000Y-87873488D01*
X115359993Y-87840575D01*
X115232826Y-87806500D01*
X115101174Y-87806500D01*
X114974007Y-87840575D01*
X114917000Y-87873488D01*
X114917000Y-86975864D01*
X114916999Y-86975864D01*
X114703513Y-87033067D01*
X114703507Y-87033070D01*
X114489422Y-87132899D01*
X114489420Y-87132900D01*
X114295926Y-87268386D01*
X114295920Y-87268391D01*
X114128891Y-87435420D01*
X114128886Y-87435426D01*
X113993400Y-87628920D01*
X113993399Y-87628922D01*
X113893570Y-87843007D01*
X113893567Y-87843013D01*
X113836364Y-88056499D01*
X113836364Y-88056500D01*
X114733988Y-88056500D01*
X114701075Y-88113507D01*
X114667000Y-88240674D01*
X114667000Y-88372326D01*
X114701075Y-88499493D01*
X114733988Y-88556500D01*
X113836364Y-88556500D01*
X113893567Y-88769986D01*
X113893570Y-88769992D01*
X113993399Y-88984078D01*
X114128894Y-89177582D01*
X114295917Y-89344605D01*
X114489421Y-89480100D01*
X114703507Y-89579929D01*
X114703516Y-89579933D01*
X114917000Y-89637134D01*
X114917000Y-88739512D01*
X114974007Y-88772425D01*
X115101174Y-88806500D01*
X115232826Y-88806500D01*
X115359993Y-88772425D01*
X115417000Y-88739512D01*
X115417000Y-89637133D01*
X115630483Y-89579933D01*
X115630492Y-89579929D01*
X115844578Y-89480100D01*
X116038082Y-89344605D01*
X116205105Y-89177582D01*
X116335119Y-88991905D01*
X116389696Y-88948281D01*
X116459195Y-88941088D01*
X116521549Y-88972610D01*
X116538269Y-88991905D01*
X116668505Y-89177901D01*
X116835599Y-89344995D01*
X116932384Y-89412765D01*
X117029165Y-89480532D01*
X117029167Y-89480533D01*
X117029170Y-89480535D01*
X117243337Y-89580403D01*
X117471592Y-89641563D01*
X117648034Y-89657000D01*
X117706999Y-89662159D01*
X117707000Y-89662159D01*
X117707001Y-89662159D01*
X117765966Y-89657000D01*
X117942408Y-89641563D01*
X118170663Y-89580403D01*
X118384830Y-89480535D01*
X118578401Y-89344995D01*
X118745495Y-89177901D01*
X118875425Y-88992342D01*
X118930002Y-88948717D01*
X118999500Y-88941523D01*
X119061855Y-88973046D01*
X119078575Y-88992342D01*
X119208281Y-89177582D01*
X119208505Y-89177901D01*
X119375599Y-89344995D01*
X119472384Y-89412765D01*
X119569165Y-89480532D01*
X119569167Y-89480533D01*
X119569170Y-89480535D01*
X119783337Y-89580403D01*
X120011592Y-89641563D01*
X120188034Y-89657000D01*
X120246999Y-89662159D01*
X120247000Y-89662159D01*
X120247001Y-89662159D01*
X120305966Y-89657000D01*
X120482408Y-89641563D01*
X120710663Y-89580403D01*
X120924830Y-89480535D01*
X121118401Y-89344995D01*
X121285495Y-89177901D01*
X121415425Y-88992342D01*
X121470002Y-88948717D01*
X121539500Y-88941523D01*
X121601855Y-88973046D01*
X121618575Y-88992342D01*
X121748281Y-89177582D01*
X121748505Y-89177901D01*
X121915599Y-89344995D01*
X122012384Y-89412765D01*
X122109165Y-89480532D01*
X122109167Y-89480533D01*
X122109170Y-89480535D01*
X122323337Y-89580403D01*
X122551592Y-89641563D01*
X122728034Y-89657000D01*
X122786999Y-89662159D01*
X122787000Y-89662159D01*
X122787001Y-89662159D01*
X122845966Y-89657000D01*
X123022408Y-89641563D01*
X123250663Y-89580403D01*
X123464830Y-89480535D01*
X123658401Y-89344995D01*
X123825495Y-89177901D01*
X123955425Y-88992342D01*
X124010002Y-88948717D01*
X124079500Y-88941523D01*
X124141855Y-88973046D01*
X124158575Y-88992342D01*
X124288281Y-89177582D01*
X124288505Y-89177901D01*
X124455599Y-89344995D01*
X124552384Y-89412765D01*
X124649165Y-89480532D01*
X124649167Y-89480533D01*
X124649170Y-89480535D01*
X124863337Y-89580403D01*
X125091592Y-89641563D01*
X125268034Y-89657000D01*
X125326999Y-89662159D01*
X125327000Y-89662159D01*
X125327001Y-89662159D01*
X125385966Y-89657000D01*
X125562408Y-89641563D01*
X125790663Y-89580403D01*
X126004830Y-89480535D01*
X126198401Y-89344995D01*
X126320329Y-89223066D01*
X126381648Y-89189584D01*
X126451340Y-89194568D01*
X126507274Y-89236439D01*
X126524189Y-89267417D01*
X126573202Y-89398828D01*
X126573206Y-89398835D01*
X126659452Y-89514044D01*
X126659455Y-89514047D01*
X126774664Y-89600293D01*
X126774671Y-89600297D01*
X126909517Y-89650591D01*
X126909516Y-89650591D01*
X126916444Y-89651335D01*
X126969127Y-89657000D01*
X128764872Y-89656999D01*
X128824483Y-89650591D01*
X128959331Y-89600296D01*
X129074546Y-89514046D01*
X129097234Y-89483737D01*
X129153167Y-89441868D01*
X129222859Y-89436884D01*
X129284182Y-89470369D01*
X129317666Y-89531692D01*
X129320500Y-89558050D01*
X129320500Y-90073267D01*
X129300815Y-90140306D01*
X129284181Y-90160948D01*
X127693838Y-91751291D01*
X127632515Y-91784776D01*
X127562823Y-91779792D01*
X127518476Y-91751291D01*
X127466213Y-91699028D01*
X127300613Y-91578715D01*
X127300612Y-91578714D01*
X127300610Y-91578713D01*
X127243653Y-91549691D01*
X127118223Y-91485781D01*
X126923534Y-91422522D01*
X126748995Y-91394878D01*
X126721352Y-91390500D01*
X126516648Y-91390500D01*
X126492329Y-91394351D01*
X126314465Y-91422522D01*
X126119776Y-91485781D01*
X125937386Y-91578715D01*
X125771786Y-91699028D01*
X125627028Y-91843786D01*
X125506715Y-92009386D01*
X125459485Y-92102080D01*
X125411510Y-92152876D01*
X125343689Y-92169671D01*
X125277554Y-92147134D01*
X125238515Y-92102080D01*
X125237883Y-92100840D01*
X125191287Y-92009390D01*
X125183556Y-91998749D01*
X125070971Y-91843786D01*
X124926213Y-91699028D01*
X124760613Y-91578715D01*
X124760612Y-91578714D01*
X124760610Y-91578713D01*
X124703653Y-91549691D01*
X124578223Y-91485781D01*
X124383534Y-91422522D01*
X124208995Y-91394878D01*
X124181352Y-91390500D01*
X123976648Y-91390500D01*
X123952329Y-91394351D01*
X123774465Y-91422522D01*
X123579776Y-91485781D01*
X123397386Y-91578715D01*
X123231786Y-91699028D01*
X123087028Y-91843786D01*
X122966715Y-92009386D01*
X122919485Y-92102080D01*
X122871510Y-92152876D01*
X122803689Y-92169671D01*
X122737554Y-92147134D01*
X122698515Y-92102080D01*
X122697883Y-92100840D01*
X122651287Y-92009390D01*
X122643556Y-91998749D01*
X122530971Y-91843786D01*
X122386213Y-91699028D01*
X122220613Y-91578715D01*
X122220612Y-91578714D01*
X122220610Y-91578713D01*
X122163653Y-91549691D01*
X122038223Y-91485781D01*
X121843534Y-91422522D01*
X121668995Y-91394878D01*
X121641352Y-91390500D01*
X121436648Y-91390500D01*
X121412329Y-91394351D01*
X121234465Y-91422522D01*
X121039776Y-91485781D01*
X120857386Y-91578715D01*
X120691786Y-91699028D01*
X120547028Y-91843786D01*
X120426715Y-92009386D01*
X120379485Y-92102080D01*
X120331510Y-92152876D01*
X120263689Y-92169671D01*
X120197554Y-92147134D01*
X120158515Y-92102080D01*
X120157883Y-92100840D01*
X120111287Y-92009390D01*
X120103556Y-91998749D01*
X119990971Y-91843786D01*
X119846213Y-91699028D01*
X119680613Y-91578715D01*
X119680612Y-91578714D01*
X119680610Y-91578713D01*
X119623653Y-91549691D01*
X119498223Y-91485781D01*
X119303534Y-91422522D01*
X119128995Y-91394878D01*
X119101352Y-91390500D01*
X118896648Y-91390500D01*
X118872329Y-91394351D01*
X118694465Y-91422522D01*
X118499776Y-91485781D01*
X118317386Y-91578715D01*
X118151786Y-91699028D01*
X118007028Y-91843786D01*
X117886715Y-92009386D01*
X117839485Y-92102080D01*
X117791510Y-92152876D01*
X117723689Y-92169671D01*
X117657554Y-92147134D01*
X117618515Y-92102080D01*
X117617883Y-92100840D01*
X117571287Y-92009390D01*
X117563556Y-91998749D01*
X117450971Y-91843786D01*
X117306213Y-91699028D01*
X117140613Y-91578715D01*
X117140612Y-91578714D01*
X117140610Y-91578713D01*
X117083653Y-91549691D01*
X116958223Y-91485781D01*
X116763534Y-91422522D01*
X116588995Y-91394878D01*
X116561352Y-91390500D01*
X116356648Y-91390500D01*
X116332329Y-91394351D01*
X116154465Y-91422522D01*
X115959776Y-91485781D01*
X115777386Y-91578715D01*
X115611786Y-91699028D01*
X115467028Y-91843786D01*
X115346715Y-92009386D01*
X115253781Y-92191776D01*
X115190522Y-92386465D01*
X115158500Y-92588648D01*
X115158500Y-93593351D01*
X115190522Y-93795534D01*
X115253781Y-93990223D01*
X115346715Y-94172613D01*
X115467028Y-94338213D01*
X115611786Y-94482971D01*
X115766749Y-94595556D01*
X115777390Y-94603287D01*
X115893607Y-94662503D01*
X115959776Y-94696218D01*
X115959778Y-94696218D01*
X115959781Y-94696220D01*
X116034535Y-94720509D01*
X116154465Y-94759477D01*
X116255557Y-94775488D01*
X116356648Y-94791500D01*
X116356649Y-94791500D01*
X116561351Y-94791500D01*
X116561352Y-94791500D01*
X116763534Y-94759477D01*
X116958219Y-94696220D01*
X117140610Y-94603287D01*
X117240591Y-94530647D01*
X117306213Y-94482971D01*
X117306215Y-94482968D01*
X117306219Y-94482966D01*
X117450966Y-94338219D01*
X117450968Y-94338215D01*
X117450971Y-94338213D01*
X117571284Y-94172614D01*
X117571285Y-94172613D01*
X117571287Y-94172610D01*
X117618516Y-94079917D01*
X117666489Y-94029123D01*
X117734310Y-94012328D01*
X117800445Y-94034865D01*
X117839485Y-94079919D01*
X117886715Y-94172614D01*
X118007028Y-94338213D01*
X118151786Y-94482971D01*
X118306749Y-94595556D01*
X118317390Y-94603287D01*
X118433607Y-94662503D01*
X118499776Y-94696218D01*
X118499778Y-94696218D01*
X118499781Y-94696220D01*
X118574535Y-94720509D01*
X118694465Y-94759477D01*
X118795557Y-94775488D01*
X118896648Y-94791500D01*
X118896649Y-94791500D01*
X119101351Y-94791500D01*
X119101352Y-94791500D01*
X119303534Y-94759477D01*
X119498219Y-94696220D01*
X119680610Y-94603287D01*
X119780591Y-94530647D01*
X119846213Y-94482971D01*
X119846215Y-94482968D01*
X119846219Y-94482966D01*
X119990966Y-94338219D01*
X119990968Y-94338215D01*
X119990971Y-94338213D01*
X120111284Y-94172614D01*
X120111285Y-94172613D01*
X120111287Y-94172610D01*
X120158516Y-94079917D01*
X120206489Y-94029123D01*
X120274310Y-94012328D01*
X120340445Y-94034865D01*
X120379485Y-94079919D01*
X120426715Y-94172614D01*
X120547028Y-94338213D01*
X120691786Y-94482971D01*
X120846749Y-94595556D01*
X120857390Y-94603287D01*
X120973607Y-94662503D01*
X121039776Y-94696218D01*
X121039778Y-94696218D01*
X121039781Y-94696220D01*
X121114535Y-94720509D01*
X121234465Y-94759477D01*
X121335557Y-94775488D01*
X121436648Y-94791500D01*
X121436649Y-94791500D01*
X121641351Y-94791500D01*
X121641352Y-94791500D01*
X121843534Y-94759477D01*
X122038219Y-94696220D01*
X122220610Y-94603287D01*
X122320591Y-94530647D01*
X122386213Y-94482971D01*
X122386215Y-94482968D01*
X122386219Y-94482966D01*
X122530966Y-94338219D01*
X122530968Y-94338215D01*
X122530971Y-94338213D01*
X122651284Y-94172614D01*
X122651285Y-94172613D01*
X122651287Y-94172610D01*
X122698516Y-94079917D01*
X122746489Y-94029123D01*
X122814310Y-94012328D01*
X122880445Y-94034865D01*
X122919485Y-94079919D01*
X122966715Y-94172614D01*
X123087028Y-94338213D01*
X123231786Y-94482971D01*
X123386749Y-94595556D01*
X123397390Y-94603287D01*
X123513607Y-94662503D01*
X123579776Y-94696218D01*
X123579778Y-94696218D01*
X123579781Y-94696220D01*
X123654535Y-94720509D01*
X123774465Y-94759477D01*
X123875557Y-94775488D01*
X123976648Y-94791500D01*
X123976649Y-94791500D01*
X124181351Y-94791500D01*
X124181352Y-94791500D01*
X124383534Y-94759477D01*
X124578219Y-94696220D01*
X124760610Y-94603287D01*
X124860591Y-94530647D01*
X124926213Y-94482971D01*
X124926215Y-94482968D01*
X124926219Y-94482966D01*
X125070966Y-94338219D01*
X125070968Y-94338215D01*
X125070971Y-94338213D01*
X125191284Y-94172614D01*
X125191285Y-94172613D01*
X125191287Y-94172610D01*
X125238516Y-94079917D01*
X125286489Y-94029123D01*
X125354310Y-94012328D01*
X125420445Y-94034865D01*
X125459485Y-94079919D01*
X125506715Y-94172614D01*
X125627028Y-94338213D01*
X125771786Y-94482971D01*
X125926749Y-94595556D01*
X125937390Y-94603287D01*
X126053607Y-94662503D01*
X126119776Y-94696218D01*
X126119778Y-94696218D01*
X126119781Y-94696220D01*
X126194535Y-94720509D01*
X126314465Y-94759477D01*
X126415557Y-94775488D01*
X126516648Y-94791500D01*
X126516649Y-94791500D01*
X126721351Y-94791500D01*
X126721352Y-94791500D01*
X126923534Y-94759477D01*
X127118219Y-94696220D01*
X127118222Y-94696218D01*
X127122852Y-94694714D01*
X127123281Y-94696035D01*
X127186514Y-94689236D01*
X127248994Y-94720509D01*
X127284648Y-94780597D01*
X127288500Y-94811266D01*
X127288500Y-94822903D01*
X127268815Y-94889942D01*
X127252181Y-94910584D01*
X126279584Y-95883181D01*
X126218261Y-95916666D01*
X126191903Y-95919500D01*
X107969091Y-95919500D01*
X107902052Y-95899815D01*
X107856711Y-95847909D01*
X107854037Y-95842175D01*
X107854034Y-95842170D01*
X107718493Y-95648596D01*
X107690419Y-95620522D01*
X107656934Y-95559199D01*
X107661918Y-95489507D01*
X107690417Y-95445162D01*
X109080713Y-94054867D01*
X109080716Y-94054866D01*
X109192520Y-93943062D01*
X109242639Y-93856250D01*
X109271577Y-93806131D01*
X109312501Y-93653403D01*
X109312501Y-93495289D01*
X109312501Y-93487694D01*
X109312500Y-93487676D01*
X109312500Y-91037408D01*
X109332185Y-90970369D01*
X109348814Y-90949731D01*
X110237576Y-90060969D01*
X110298897Y-90027486D01*
X110368588Y-90032470D01*
X110424522Y-90074342D01*
X110443186Y-90110333D01*
X110474117Y-90205529D01*
X110563476Y-90380905D01*
X110679172Y-90540146D01*
X110818354Y-90679328D01*
X110977595Y-90795024D01*
X111060455Y-90837243D01*
X111152970Y-90884382D01*
X111152972Y-90884382D01*
X111152975Y-90884384D01*
X111253317Y-90916987D01*
X111340173Y-90945209D01*
X111534578Y-90976000D01*
X111534583Y-90976000D01*
X111731422Y-90976000D01*
X111925826Y-90945209D01*
X112113025Y-90884384D01*
X112288405Y-90795024D01*
X112447646Y-90679328D01*
X112586828Y-90540146D01*
X112702524Y-90380905D01*
X112791884Y-90205525D01*
X112852709Y-90018326D01*
X112883500Y-89823922D01*
X112883500Y-89627077D01*
X112852709Y-89432673D01*
X112799013Y-89267417D01*
X112791884Y-89245475D01*
X112791882Y-89245472D01*
X112791882Y-89245470D01*
X112702523Y-89070094D01*
X112586828Y-88910854D01*
X112447646Y-88771672D01*
X112288405Y-88655976D01*
X112113029Y-88566617D01*
X112017833Y-88535686D01*
X111960158Y-88496248D01*
X111932960Y-88431889D01*
X111944875Y-88363043D01*
X111968468Y-88330077D01*
X114825728Y-85472819D01*
X114887051Y-85439334D01*
X114913409Y-85436500D01*
X121325331Y-85436500D01*
X121325347Y-85436501D01*
X121332943Y-85436501D01*
X121491054Y-85436501D01*
X121491057Y-85436501D01*
X121643785Y-85395577D01*
X121706272Y-85359500D01*
X121768498Y-85323573D01*
X121836398Y-85307101D01*
X121902425Y-85329954D01*
G37*
%TD.AperFunction*%
%TA.AperFunction,Conductor*%
G36*
X110450123Y-51454685D02*
G01*
X110495878Y-51507489D01*
X110505822Y-51576647D01*
X110493569Y-51615294D01*
X110474118Y-51653467D01*
X110413290Y-51840673D01*
X110382500Y-52035077D01*
X110382500Y-52231922D01*
X110413290Y-52426326D01*
X110474117Y-52613529D01*
X110563476Y-52788905D01*
X110679172Y-52948146D01*
X110818354Y-53087328D01*
X110977595Y-53203024D01*
X111060455Y-53245243D01*
X111152970Y-53292382D01*
X111152972Y-53292382D01*
X111152975Y-53292384D01*
X111253317Y-53324987D01*
X111340173Y-53353209D01*
X111534578Y-53384000D01*
X111534583Y-53384000D01*
X111731422Y-53384000D01*
X111925826Y-53353209D01*
X112113025Y-53292384D01*
X112288405Y-53203024D01*
X112447646Y-53087328D01*
X112586828Y-52948146D01*
X112702524Y-52788905D01*
X112791884Y-52613525D01*
X112852709Y-52426326D01*
X112883500Y-52231922D01*
X112883500Y-52035077D01*
X112852709Y-51840673D01*
X112791881Y-51653467D01*
X112772431Y-51615294D01*
X112759535Y-51546624D01*
X112785812Y-51481884D01*
X112842919Y-51441628D01*
X112882916Y-51435000D01*
X130449084Y-51435000D01*
X130516123Y-51454685D01*
X130561878Y-51507489D01*
X130571822Y-51576647D01*
X130559569Y-51615294D01*
X130540118Y-51653467D01*
X130479290Y-51840673D01*
X130448500Y-52035077D01*
X130448500Y-52231922D01*
X130479290Y-52426326D01*
X130540117Y-52613529D01*
X130629476Y-52788905D01*
X130745172Y-52948146D01*
X130884354Y-53087328D01*
X131043595Y-53203024D01*
X131126455Y-53245243D01*
X131218970Y-53292382D01*
X131218972Y-53292382D01*
X131218975Y-53292384D01*
X131319317Y-53324987D01*
X131406173Y-53353209D01*
X131600578Y-53384000D01*
X131600583Y-53384000D01*
X131797422Y-53384000D01*
X131991826Y-53353209D01*
X132179025Y-53292384D01*
X132354405Y-53203024D01*
X132513646Y-53087328D01*
X132513648Y-53087325D01*
X132517587Y-53084464D01*
X132518910Y-53086285D01*
X132574109Y-53061487D01*
X132643205Y-53071856D01*
X132695726Y-53117935D01*
X132715000Y-53184331D01*
X132715000Y-88674668D01*
X132695315Y-88741707D01*
X132642511Y-88787462D01*
X132573353Y-88797406D01*
X132518874Y-88772764D01*
X132517587Y-88774536D01*
X132513648Y-88771674D01*
X132513646Y-88771672D01*
X132354405Y-88655976D01*
X132179029Y-88566617D01*
X131991826Y-88505790D01*
X131797422Y-88475000D01*
X131797417Y-88475000D01*
X131600583Y-88475000D01*
X131600578Y-88475000D01*
X131406173Y-88505790D01*
X131218970Y-88566617D01*
X131129795Y-88612055D01*
X131061125Y-88624951D01*
X130996385Y-88598674D01*
X130956128Y-88541568D01*
X130949500Y-88501570D01*
X130949500Y-79503842D01*
X130968506Y-79437870D01*
X130997657Y-79391476D01*
X131027789Y-79343522D01*
X131087368Y-79173255D01*
X131097747Y-79081140D01*
X131107565Y-78994003D01*
X131107565Y-78993996D01*
X131087369Y-78814750D01*
X131087368Y-78814745D01*
X131027788Y-78644476D01*
X130954582Y-78527970D01*
X130931816Y-78491738D01*
X130804262Y-78364184D01*
X130651523Y-78268211D01*
X130481254Y-78208631D01*
X130481249Y-78208630D01*
X130302004Y-78188435D01*
X130301996Y-78188435D01*
X130122750Y-78208630D01*
X130122745Y-78208631D01*
X129952476Y-78268211D01*
X129799737Y-78364184D01*
X129672184Y-78491737D01*
X129576211Y-78644476D01*
X129516631Y-78814745D01*
X129516630Y-78814750D01*
X129496435Y-78993996D01*
X129496435Y-78994003D01*
X129516630Y-79173249D01*
X129516631Y-79173254D01*
X129576211Y-79343523D01*
X129672184Y-79496262D01*
X129712181Y-79536259D01*
X129745666Y-79597582D01*
X129748500Y-79623940D01*
X129748500Y-81736903D01*
X129728815Y-81803942D01*
X129676011Y-81849697D01*
X129606853Y-81859641D01*
X129543297Y-81830616D01*
X129536819Y-81824584D01*
X129354700Y-81642465D01*
X129321215Y-81581142D01*
X129319163Y-81568686D01*
X129309368Y-81481745D01*
X129249789Y-81311478D01*
X129153816Y-81158738D01*
X129026262Y-81031184D01*
X128960381Y-80989788D01*
X128873523Y-80935211D01*
X128703254Y-80875631D01*
X128703249Y-80875630D01*
X128524004Y-80855435D01*
X128523996Y-80855435D01*
X128344750Y-80875630D01*
X128344745Y-80875631D01*
X128174476Y-80935211D01*
X128021737Y-81031184D01*
X127894184Y-81158737D01*
X127798211Y-81311476D01*
X127738631Y-81481745D01*
X127738630Y-81481750D01*
X127718435Y-81660996D01*
X127718435Y-81661003D01*
X127738630Y-81840249D01*
X127738631Y-81840254D01*
X127798211Y-82010523D01*
X127814371Y-82036241D01*
X127894184Y-82163262D01*
X128021738Y-82290816D01*
X128174478Y-82386789D01*
X128344745Y-82446368D01*
X128431669Y-82456161D01*
X128496080Y-82483226D01*
X128505465Y-82491700D01*
X129284181Y-83270416D01*
X129317666Y-83331739D01*
X129320500Y-83358097D01*
X129320500Y-87054949D01*
X129300815Y-87121988D01*
X129248011Y-87167743D01*
X129178853Y-87177687D01*
X129115297Y-87148662D01*
X129097234Y-87129261D01*
X129091592Y-87121725D01*
X129074546Y-87098954D01*
X129074544Y-87098953D01*
X129074544Y-87098952D01*
X128959335Y-87012706D01*
X128959328Y-87012702D01*
X128824482Y-86962408D01*
X128824483Y-86962408D01*
X128764883Y-86956001D01*
X128764881Y-86956000D01*
X128764873Y-86956000D01*
X128764864Y-86956000D01*
X126969129Y-86956000D01*
X126969123Y-86956001D01*
X126909516Y-86962408D01*
X126774671Y-87012702D01*
X126774664Y-87012706D01*
X126659455Y-87098952D01*
X126659452Y-87098955D01*
X126573206Y-87214164D01*
X126573203Y-87214169D01*
X126524189Y-87345583D01*
X126482317Y-87401516D01*
X126416853Y-87425933D01*
X126348580Y-87411081D01*
X126320326Y-87389930D01*
X126198402Y-87268006D01*
X126198395Y-87268001D01*
X126004831Y-87132465D01*
X126004826Y-87132462D01*
X125999091Y-87129788D01*
X125946653Y-87083613D01*
X125927500Y-87017408D01*
X125927500Y-75908041D01*
X125927501Y-75908028D01*
X125927501Y-75739927D01*
X125927501Y-75739925D01*
X125886577Y-75587197D01*
X125857639Y-75537077D01*
X125807520Y-75450266D01*
X125695716Y-75338462D01*
X125695715Y-75338461D01*
X125691385Y-75334131D01*
X125691374Y-75334121D01*
X121286819Y-70929566D01*
X121253334Y-70868243D01*
X121250500Y-70841885D01*
X121250500Y-69416412D01*
X121270185Y-69349373D01*
X121277555Y-69339097D01*
X121279810Y-69336267D01*
X121279816Y-69336262D01*
X121375789Y-69183522D01*
X121435368Y-69013255D01*
X121455565Y-68834000D01*
X121453030Y-68811505D01*
X121435369Y-68654750D01*
X121435368Y-68654745D01*
X121417087Y-68602500D01*
X121375789Y-68484478D01*
X121279816Y-68331738D01*
X121152262Y-68204184D01*
X121115994Y-68181395D01*
X120999523Y-68108211D01*
X120829254Y-68048631D01*
X120829249Y-68048630D01*
X120650004Y-68028435D01*
X120649996Y-68028435D01*
X120470750Y-68048630D01*
X120470745Y-68048631D01*
X120300476Y-68108211D01*
X120147737Y-68204184D01*
X120102680Y-68249241D01*
X120041357Y-68282725D01*
X119971665Y-68277740D01*
X119927320Y-68249241D01*
X119882263Y-68204185D01*
X119882262Y-68204184D01*
X119729523Y-68108211D01*
X119559254Y-68048631D01*
X119559249Y-68048630D01*
X119380004Y-68028435D01*
X119379996Y-68028435D01*
X119200750Y-68048630D01*
X119200745Y-68048631D01*
X119030476Y-68108211D01*
X118877737Y-68204184D01*
X118750184Y-68331737D01*
X118654211Y-68484476D01*
X118594631Y-68654745D01*
X118594630Y-68654750D01*
X118574435Y-68833996D01*
X118574435Y-68834003D01*
X118594630Y-69013249D01*
X118594631Y-69013254D01*
X118654211Y-69183523D01*
X118750185Y-69336263D01*
X118752445Y-69339097D01*
X118753334Y-69341275D01*
X118753889Y-69342158D01*
X118753734Y-69342255D01*
X118778855Y-69403783D01*
X118779500Y-69416412D01*
X118779500Y-70492419D01*
X118779499Y-70492437D01*
X118779499Y-70658143D01*
X118779498Y-70658143D01*
X118820422Y-70810872D01*
X118820424Y-70810875D01*
X118821083Y-70812016D01*
X118821094Y-70812057D01*
X118821103Y-70812052D01*
X118899475Y-70947798D01*
X118899481Y-70947806D01*
X119018349Y-71066674D01*
X119018355Y-71066679D01*
X119325370Y-71373694D01*
X119358855Y-71435017D01*
X119353871Y-71504709D01*
X119311999Y-71560642D01*
X119251573Y-71584595D01*
X119073749Y-71604630D01*
X119073745Y-71604631D01*
X118903476Y-71664211D01*
X118750736Y-71760185D01*
X118747903Y-71762445D01*
X118745724Y-71763334D01*
X118744842Y-71763889D01*
X118744744Y-71763734D01*
X118683217Y-71788855D01*
X118670588Y-71789500D01*
X116199356Y-71789500D01*
X116132317Y-71769815D01*
X116086562Y-71717011D01*
X116076618Y-71647853D01*
X116094362Y-71599528D01*
X116145213Y-71518599D01*
X116188327Y-71449984D01*
X116247906Y-71279717D01*
X116257700Y-71192792D01*
X116268103Y-71100465D01*
X116268103Y-71100458D01*
X116247907Y-70921212D01*
X116247906Y-70921207D01*
X116209711Y-70812052D01*
X116188327Y-70750940D01*
X116169766Y-70721401D01*
X116149120Y-70688542D01*
X116092354Y-70598200D01*
X115964800Y-70470646D01*
X115851338Y-70399353D01*
X115812059Y-70374672D01*
X115641787Y-70315092D01*
X115554868Y-70305299D01*
X115490454Y-70278232D01*
X115481071Y-70269760D01*
X114699666Y-69488355D01*
X114699664Y-69488352D01*
X114580793Y-69369481D01*
X114580792Y-69369480D01*
X114493980Y-69319360D01*
X114493980Y-69319359D01*
X114493976Y-69319358D01*
X114443861Y-69290423D01*
X114291133Y-69249499D01*
X114133019Y-69249499D01*
X114125423Y-69249499D01*
X114125407Y-69249500D01*
X105429091Y-69249500D01*
X105362052Y-69229815D01*
X105316711Y-69177909D01*
X105314037Y-69172175D01*
X105314034Y-69172170D01*
X105314033Y-69172169D01*
X105256002Y-69089290D01*
X105178494Y-68978597D01*
X105011402Y-68811506D01*
X105011396Y-68811501D01*
X104825842Y-68681575D01*
X104782217Y-68626998D01*
X104775023Y-68557500D01*
X104806546Y-68495145D01*
X104825842Y-68478425D01*
X104848026Y-68462891D01*
X105011401Y-68348495D01*
X105178495Y-68181401D01*
X105314035Y-67987830D01*
X105413903Y-67773663D01*
X105475063Y-67545408D01*
X105495659Y-67310000D01*
X105475063Y-67074592D01*
X105440671Y-66946239D01*
X105442334Y-66876393D01*
X105472763Y-66826470D01*
X107654416Y-64644819D01*
X107715739Y-64611334D01*
X107742097Y-64608500D01*
X124870732Y-64608500D01*
X124937771Y-64628185D01*
X124983526Y-64680989D01*
X124987765Y-64691524D01*
X125004211Y-64738522D01*
X125004212Y-64738524D01*
X125004213Y-64738526D01*
X125023989Y-64769999D01*
X125100184Y-64891262D01*
X125227738Y-65018816D01*
X125380478Y-65114789D01*
X125447083Y-65138095D01*
X125550745Y-65174368D01*
X125550750Y-65174369D01*
X125729996Y-65194565D01*
X125730000Y-65194565D01*
X125730004Y-65194565D01*
X125909249Y-65174369D01*
X125909252Y-65174368D01*
X125909255Y-65174368D01*
X126079522Y-65114789D01*
X126209528Y-65033100D01*
X126276763Y-65014101D01*
X126343599Y-65034469D01*
X126388813Y-65087736D01*
X126399499Y-65138095D01*
X126399499Y-79554587D01*
X126379814Y-79621626D01*
X126372449Y-79631896D01*
X126370185Y-79634734D01*
X126274210Y-79787476D01*
X126214630Y-79957745D01*
X126214629Y-79957750D01*
X126194434Y-80136996D01*
X126194434Y-80137003D01*
X126214629Y-80316249D01*
X126214630Y-80316254D01*
X126274210Y-80486523D01*
X126327837Y-80571869D01*
X126370183Y-80639262D01*
X126497737Y-80766816D01*
X126650477Y-80862789D01*
X126803240Y-80916243D01*
X126820744Y-80922368D01*
X126820749Y-80922369D01*
X126999995Y-80942565D01*
X126999999Y-80942565D01*
X127000003Y-80942565D01*
X127179248Y-80922369D01*
X127179251Y-80922368D01*
X127179254Y-80922368D01*
X127349521Y-80862789D01*
X127502261Y-80766816D01*
X127629815Y-80639262D01*
X127725788Y-80486522D01*
X127785367Y-80316255D01*
X127792740Y-80250818D01*
X127805564Y-80137003D01*
X127805564Y-80136996D01*
X127785368Y-79957750D01*
X127785367Y-79957745D01*
X127741482Y-79832330D01*
X127725788Y-79787478D01*
X127629815Y-79634738D01*
X127629813Y-79634736D01*
X127629812Y-79634734D01*
X127627549Y-79631896D01*
X127626658Y-79629715D01*
X127626110Y-79628842D01*
X127626263Y-79628745D01*
X127601143Y-79567209D01*
X127600499Y-79554587D01*
X127600499Y-64406705D01*
X127600499Y-64406703D01*
X127573606Y-64306337D01*
X127559576Y-64253975D01*
X127509694Y-64167577D01*
X127480519Y-64117044D01*
X127368715Y-64005240D01*
X127364384Y-64000909D01*
X127364373Y-64000899D01*
X126609829Y-63246355D01*
X126609827Y-63246352D01*
X126490956Y-63127481D01*
X126490955Y-63127480D01*
X126404143Y-63077360D01*
X126404143Y-63077359D01*
X126404139Y-63077358D01*
X126354024Y-63048423D01*
X126201296Y-63007499D01*
X126043182Y-63007499D01*
X126035586Y-63007499D01*
X126035570Y-63007500D01*
X105461647Y-63007500D01*
X105394608Y-62987815D01*
X105348853Y-62935011D01*
X105338909Y-62865853D01*
X105349265Y-62831095D01*
X105413429Y-62693492D01*
X105413432Y-62693486D01*
X105470636Y-62480000D01*
X104573012Y-62480000D01*
X104605925Y-62422993D01*
X104640000Y-62295826D01*
X104640000Y-62164174D01*
X104605925Y-62037007D01*
X104573012Y-61980000D01*
X105470636Y-61980000D01*
X105470635Y-61979999D01*
X105413432Y-61766513D01*
X105413429Y-61766507D01*
X105313600Y-61552422D01*
X105313599Y-61552420D01*
X105178113Y-61358926D01*
X105178108Y-61358920D01*
X105056053Y-61236865D01*
X105022568Y-61175542D01*
X105027552Y-61105850D01*
X105069424Y-61049917D01*
X105100400Y-61033002D01*
X105232331Y-60983796D01*
X105347546Y-60897546D01*
X105433796Y-60782331D01*
X105484091Y-60647483D01*
X105490500Y-60587873D01*
X105490499Y-58792128D01*
X105484091Y-58732517D01*
X105433796Y-58597669D01*
X105433795Y-58597668D01*
X105433793Y-58597664D01*
X105347547Y-58482455D01*
X105347544Y-58482452D01*
X105232335Y-58396206D01*
X105232328Y-58396202D01*
X105097482Y-58345908D01*
X105097483Y-58345908D01*
X105037883Y-58339501D01*
X105037881Y-58339500D01*
X105037873Y-58339500D01*
X105037864Y-58339500D01*
X103242129Y-58339500D01*
X103242123Y-58339501D01*
X103182516Y-58345908D01*
X103047671Y-58396202D01*
X103047664Y-58396206D01*
X102932455Y-58482452D01*
X102932452Y-58482455D01*
X102846206Y-58597664D01*
X102846202Y-58597671D01*
X102795908Y-58732517D01*
X102789501Y-58792116D01*
X102789501Y-58792123D01*
X102789500Y-58792135D01*
X102789500Y-60587870D01*
X102789501Y-60587876D01*
X102795908Y-60647483D01*
X102846202Y-60782328D01*
X102846206Y-60782335D01*
X102932452Y-60897544D01*
X102932455Y-60897547D01*
X103047664Y-60983793D01*
X103047671Y-60983797D01*
X103047674Y-60983798D01*
X103179598Y-61033002D01*
X103235531Y-61074873D01*
X103259949Y-61140337D01*
X103245098Y-61208610D01*
X103223947Y-61236865D01*
X103101886Y-61358926D01*
X102966400Y-61552420D01*
X102966399Y-61552422D01*
X102866570Y-61766507D01*
X102866567Y-61766513D01*
X102809364Y-61979999D01*
X102809364Y-61980000D01*
X103706988Y-61980000D01*
X103674075Y-62037007D01*
X103640000Y-62164174D01*
X103640000Y-62295826D01*
X103674075Y-62422993D01*
X103706988Y-62480000D01*
X102809364Y-62480000D01*
X102866567Y-62693486D01*
X102866570Y-62693492D01*
X102966399Y-62907578D01*
X103101894Y-63101082D01*
X103268917Y-63268105D01*
X103454595Y-63398119D01*
X103498219Y-63452696D01*
X103505412Y-63522195D01*
X103473890Y-63584549D01*
X103454595Y-63601269D01*
X103268594Y-63731508D01*
X103101505Y-63898597D01*
X102965965Y-64092169D01*
X102965964Y-64092171D01*
X102866098Y-64306335D01*
X102866094Y-64306344D01*
X102804938Y-64534586D01*
X102804936Y-64534596D01*
X102784341Y-64769999D01*
X102784341Y-64770000D01*
X102804936Y-65005403D01*
X102804938Y-65005413D01*
X102866094Y-65233655D01*
X102866096Y-65233659D01*
X102866097Y-65233663D01*
X102965965Y-65447830D01*
X102965967Y-65447834D01*
X103101501Y-65641395D01*
X103101506Y-65641402D01*
X103268597Y-65808493D01*
X103268603Y-65808498D01*
X103454158Y-65938425D01*
X103497783Y-65993002D01*
X103504977Y-66062500D01*
X103473454Y-66124855D01*
X103454158Y-66141575D01*
X103268597Y-66271505D01*
X103101505Y-66438597D01*
X102965965Y-66632169D01*
X102965964Y-66632171D01*
X102866098Y-66846335D01*
X102866094Y-66846344D01*
X102804938Y-67074586D01*
X102804936Y-67074596D01*
X102784341Y-67309999D01*
X102784341Y-67310000D01*
X102804936Y-67545403D01*
X102804938Y-67545413D01*
X102866094Y-67773655D01*
X102866096Y-67773659D01*
X102866097Y-67773663D01*
X102965965Y-67987830D01*
X102965967Y-67987834D01*
X103101501Y-68181395D01*
X103101506Y-68181402D01*
X103268597Y-68348493D01*
X103268603Y-68348498D01*
X103454158Y-68478425D01*
X103497783Y-68533002D01*
X103504977Y-68602500D01*
X103473454Y-68664855D01*
X103454158Y-68681575D01*
X103268597Y-68811505D01*
X103101505Y-68978597D01*
X102965965Y-69172169D01*
X102965964Y-69172171D01*
X102866098Y-69386335D01*
X102866094Y-69386344D01*
X102804938Y-69614586D01*
X102804936Y-69614596D01*
X102784341Y-69849999D01*
X102784341Y-69850000D01*
X102804936Y-70085403D01*
X102804938Y-70085413D01*
X102866094Y-70313655D01*
X102866096Y-70313659D01*
X102866097Y-70313663D01*
X102938839Y-70469658D01*
X102965965Y-70527830D01*
X102965967Y-70527834D01*
X103101501Y-70721395D01*
X103101506Y-70721402D01*
X103268597Y-70888493D01*
X103268603Y-70888498D01*
X103454158Y-71018425D01*
X103497783Y-71073002D01*
X103504977Y-71142500D01*
X103473454Y-71204855D01*
X103454158Y-71221575D01*
X103268597Y-71351505D01*
X103101505Y-71518597D01*
X102965965Y-71712169D01*
X102965964Y-71712171D01*
X102866098Y-71926335D01*
X102866094Y-71926344D01*
X102804938Y-72154586D01*
X102804936Y-72154596D01*
X102784341Y-72389999D01*
X102784341Y-72390000D01*
X102804936Y-72625403D01*
X102804938Y-72625413D01*
X102866094Y-72853655D01*
X102866096Y-72853659D01*
X102866097Y-72853663D01*
X102938839Y-73009658D01*
X102965965Y-73067830D01*
X102965967Y-73067834D01*
X103055406Y-73195565D01*
X103101505Y-73261401D01*
X103268599Y-73428495D01*
X103365384Y-73496265D01*
X103462165Y-73564032D01*
X103462167Y-73564033D01*
X103462170Y-73564035D01*
X103676337Y-73663903D01*
X103904592Y-73725063D01*
X104092918Y-73741539D01*
X104139999Y-73745659D01*
X104140000Y-73745659D01*
X104140001Y-73745659D01*
X104179234Y-73742226D01*
X104375408Y-73725063D01*
X104603663Y-73663903D01*
X104817830Y-73564035D01*
X105011401Y-73428495D01*
X105178495Y-73261401D01*
X105314035Y-73067830D01*
X105316707Y-73062097D01*
X105362878Y-73009658D01*
X105429091Y-72990500D01*
X118670588Y-72990500D01*
X118737627Y-73010185D01*
X118747903Y-73017555D01*
X118750736Y-73019814D01*
X118750738Y-73019816D01*
X118903478Y-73115789D01*
X119073745Y-73175368D01*
X119073750Y-73175369D01*
X119252996Y-73195565D01*
X119253000Y-73195565D01*
X119253004Y-73195565D01*
X119432249Y-73175369D01*
X119432252Y-73175368D01*
X119432255Y-73175368D01*
X119602522Y-73115789D01*
X119755262Y-73019816D01*
X119882816Y-72892262D01*
X119978789Y-72739522D01*
X120038368Y-72569255D01*
X120058404Y-72391427D01*
X120085470Y-72327014D01*
X120143065Y-72287459D01*
X120212902Y-72285321D01*
X120269305Y-72317630D01*
X122562494Y-74610819D01*
X122595979Y-74672142D01*
X122590995Y-74741834D01*
X122549123Y-74797767D01*
X122483659Y-74822184D01*
X122474813Y-74822500D01*
X109917940Y-74822500D01*
X109877019Y-74833464D01*
X109877019Y-74833465D01*
X109839751Y-74843451D01*
X109765214Y-74863423D01*
X109765209Y-74863426D01*
X109628290Y-74942475D01*
X109628282Y-74942481D01*
X109516478Y-75054286D01*
X107163530Y-77407233D01*
X107102207Y-77440718D01*
X107043756Y-77439327D01*
X106915413Y-77404938D01*
X106915403Y-77404936D01*
X106680001Y-77384341D01*
X106679999Y-77384341D01*
X106444596Y-77404936D01*
X106444586Y-77404938D01*
X106216344Y-77466094D01*
X106216335Y-77466098D01*
X106002171Y-77565964D01*
X106002169Y-77565965D01*
X105808600Y-77701503D01*
X105686673Y-77823430D01*
X105625350Y-77856914D01*
X105555658Y-77851930D01*
X105499725Y-77810058D01*
X105482810Y-77779081D01*
X105433797Y-77647671D01*
X105433793Y-77647664D01*
X105347547Y-77532455D01*
X105347544Y-77532452D01*
X105232335Y-77446206D01*
X105232328Y-77446202D01*
X105097482Y-77395908D01*
X105097483Y-77395908D01*
X105037883Y-77389501D01*
X105037881Y-77389500D01*
X105037873Y-77389500D01*
X105037864Y-77389500D01*
X103242129Y-77389500D01*
X103242123Y-77389501D01*
X103182516Y-77395908D01*
X103047671Y-77446202D01*
X103047664Y-77446206D01*
X102932455Y-77532452D01*
X102932452Y-77532455D01*
X102846206Y-77647664D01*
X102846202Y-77647671D01*
X102795908Y-77782517D01*
X102789501Y-77842116D01*
X102789500Y-77842135D01*
X102789500Y-79637870D01*
X102789501Y-79637876D01*
X102795908Y-79697483D01*
X102846202Y-79832328D01*
X102846203Y-79832330D01*
X102895641Y-79898370D01*
X102920058Y-79963834D01*
X102905207Y-80032107D01*
X102884055Y-80060362D01*
X102621286Y-80323132D01*
X102509481Y-80434936D01*
X102509479Y-80434939D01*
X102470266Y-80502860D01*
X102470262Y-80502867D01*
X102466384Y-80509583D01*
X102415814Y-80557796D01*
X102347206Y-80571015D01*
X102282343Y-80545043D01*
X102241818Y-80488127D01*
X102235000Y-80447577D01*
X102235000Y-51559000D01*
X102254685Y-51491961D01*
X102307489Y-51446206D01*
X102359000Y-51435000D01*
X110383084Y-51435000D01*
X110450123Y-51454685D01*
G37*
%TD.AperFunction*%
%TD*%
M02*
