%TF.GenerationSoftware,KiCad,Pcbnew,8.0.0-8.0.0-1~ubuntu22.04.1*%
%TF.CreationDate,2024-03-03T19:53:44+01:00*%
%TF.ProjectId,spi65,73706936-352e-46b6-9963-61645f706362,rev?*%
%TF.SameCoordinates,Original*%
%TF.FileFunction,Paste,Top*%
%TF.FilePolarity,Positive*%
%FSLAX46Y46*%
G04 Gerber Fmt 4.6, Leading zero omitted, Abs format (unit mm)*
G04 Created by KiCad (PCBNEW 8.0.0-8.0.0-1~ubuntu22.04.1) date 2024-03-03 19:53:44*
%MOMM*%
%LPD*%
G01*
G04 APERTURE LIST*
G04 Aperture macros list*
%AMRoundRect*
0 Rectangle with rounded corners*
0 $1 Rounding radius*
0 $2 $3 $4 $5 $6 $7 $8 $9 X,Y pos of 4 corners*
0 Add a 4 corners polygon primitive as box body*
4,1,4,$2,$3,$4,$5,$6,$7,$8,$9,$2,$3,0*
0 Add four circle primitives for the rounded corners*
1,1,$1+$1,$2,$3*
1,1,$1+$1,$4,$5*
1,1,$1+$1,$6,$7*
1,1,$1+$1,$8,$9*
0 Add four rect primitives between the rounded corners*
20,1,$1+$1,$2,$3,$4,$5,0*
20,1,$1+$1,$4,$5,$6,$7,0*
20,1,$1+$1,$6,$7,$8,$9,0*
20,1,$1+$1,$8,$9,$2,$3,0*%
G04 Aperture macros list end*
%ADD10RoundRect,0.250000X-0.650000X0.412500X-0.650000X-0.412500X0.650000X-0.412500X0.650000X0.412500X0*%
%ADD11RoundRect,0.250000X-0.412500X-0.650000X0.412500X-0.650000X0.412500X0.650000X-0.412500X0.650000X0*%
%ADD12RoundRect,0.250000X0.412500X0.650000X-0.412500X0.650000X-0.412500X-0.650000X0.412500X-0.650000X0*%
%ADD13R,1.925000X0.700000*%
%ADD14R,0.700000X1.925000*%
%ADD15RoundRect,0.250000X0.650000X-0.412500X0.650000X0.412500X-0.650000X0.412500X-0.650000X-0.412500X0*%
G04 APERTURE END LIST*
D10*
%TO.C,C4*%
X112903000Y-93091000D03*
X112903000Y-96216000D03*
%TD*%
D11*
%TO.C,C2*%
X122174000Y-62357000D03*
X125299000Y-62357000D03*
%TD*%
D12*
%TO.C,C3*%
X114338500Y-62268500D03*
X111213500Y-62268500D03*
%TD*%
D13*
%TO.C,U1*%
X112787499Y-73902500D03*
X112787499Y-75172501D03*
X112787499Y-76442500D03*
X112787499Y-77712500D03*
X112787498Y-78982500D03*
X112787499Y-80252500D03*
D14*
X114299999Y-81765000D03*
X115569999Y-81765001D03*
X116839999Y-81765000D03*
X118109999Y-81765000D03*
X119379998Y-81765000D03*
X120649999Y-81765000D03*
X121920000Y-81765000D03*
X123189999Y-81765000D03*
X124459999Y-81765000D03*
X125729999Y-81765001D03*
X126999999Y-81765000D03*
D13*
X128512499Y-80252500D03*
X128512500Y-78982500D03*
X128512499Y-77712500D03*
X128512499Y-76442500D03*
X128512499Y-75172501D03*
X128512499Y-73902500D03*
X128512499Y-72632499D03*
X128512499Y-71362500D03*
X128512499Y-70092500D03*
X128512500Y-68822500D03*
X128512499Y-67552500D03*
D14*
X126999999Y-66040000D03*
X125729999Y-66039999D03*
X124459999Y-66040000D03*
X123189999Y-66040000D03*
X121920000Y-66040000D03*
X120649999Y-66040000D03*
X119379998Y-66040000D03*
X118109999Y-66040000D03*
X116839999Y-66040000D03*
X115569999Y-66039999D03*
X114299999Y-66040000D03*
D13*
X112787499Y-67552500D03*
X112787498Y-68822500D03*
X112787499Y-70092500D03*
X112787499Y-71362500D03*
X112787499Y-72632499D03*
%TD*%
D15*
%TO.C,C1*%
X131191000Y-77000500D03*
X131191000Y-73875500D03*
%TD*%
M02*
