%TF.FileFunction,Copper,L2,Bot,Signal*%
%FSLAX46Y46*%
G04 Gerber Fmt 4.6, Leading zero omitted, Abs format (unit mm)*
G04 Created by KiCad (PCBNEW (2014-12-04 BZR 5312)-product) date Wed 04 Feb 2015 12:38:23 PM CET*
%MOMM*%
G01*
G04 APERTURE LIST*
%ADD10C,0.100000*%
%ADD11C,0.300000*%
%ADD12R,1.727200X1.727200*%
%ADD13O,1.727200X1.727200*%
%ADD14C,2.286000*%
%ADD15C,1.397000*%
%ADD16C,1.501140*%
%ADD17O,2.286000X1.574800*%
%ADD18R,2.286000X1.574800*%
%ADD19C,1.422400*%
%ADD20C,3.497580*%
%ADD21R,1.574800X2.286000*%
%ADD22O,1.574800X2.286000*%
%ADD23C,1.524000*%
%ADD24O,1.000760X1.501140*%
%ADD25C,5.001260*%
%ADD26O,1.501140X1.998980*%
%ADD27C,1.300480*%
%ADD28C,1.800860*%
%ADD29C,0.889000*%
%ADD30C,0.635000*%
%ADD31C,0.254000*%
G04 APERTURE END LIST*
D10*
D11*
X87287857Y-139973857D02*
X87073571Y-140045286D01*
X87002143Y-140116714D01*
X86930714Y-140259571D01*
X86930714Y-140473857D01*
X87002143Y-140616714D01*
X87073571Y-140688143D01*
X87216429Y-140759571D01*
X87787857Y-140759571D01*
X87787857Y-139259571D01*
X87287857Y-139259571D01*
X87145000Y-139331000D01*
X87073571Y-139402429D01*
X87002143Y-139545286D01*
X87002143Y-139688143D01*
X87073571Y-139831000D01*
X87145000Y-139902429D01*
X87287857Y-139973857D01*
X87787857Y-139973857D01*
X86073571Y-140759571D02*
X86216429Y-140688143D01*
X86287857Y-140616714D01*
X86359286Y-140473857D01*
X86359286Y-140045286D01*
X86287857Y-139902429D01*
X86216429Y-139831000D01*
X86073571Y-139759571D01*
X85859286Y-139759571D01*
X85716429Y-139831000D01*
X85645000Y-139902429D01*
X85573571Y-140045286D01*
X85573571Y-140473857D01*
X85645000Y-140616714D01*
X85716429Y-140688143D01*
X85859286Y-140759571D01*
X86073571Y-140759571D01*
X85145000Y-139759571D02*
X84573571Y-139759571D01*
X84930714Y-139259571D02*
X84930714Y-140545286D01*
X84859286Y-140688143D01*
X84716428Y-140759571D01*
X84573571Y-140759571D01*
X84287857Y-139759571D02*
X83716428Y-139759571D01*
X84073571Y-139259571D02*
X84073571Y-140545286D01*
X84002143Y-140688143D01*
X83859285Y-140759571D01*
X83716428Y-140759571D01*
X83002142Y-140759571D02*
X83145000Y-140688143D01*
X83216428Y-140616714D01*
X83287857Y-140473857D01*
X83287857Y-140045286D01*
X83216428Y-139902429D01*
X83145000Y-139831000D01*
X83002142Y-139759571D01*
X82787857Y-139759571D01*
X82645000Y-139831000D01*
X82573571Y-139902429D01*
X82502142Y-140045286D01*
X82502142Y-140473857D01*
X82573571Y-140616714D01*
X82645000Y-140688143D01*
X82787857Y-140759571D01*
X83002142Y-140759571D01*
X81859285Y-140759571D02*
X81859285Y-139759571D01*
X81859285Y-139902429D02*
X81787857Y-139831000D01*
X81644999Y-139759571D01*
X81430714Y-139759571D01*
X81287857Y-139831000D01*
X81216428Y-139973857D01*
X81216428Y-140759571D01*
X81216428Y-139973857D02*
X81144999Y-139831000D01*
X81002142Y-139759571D01*
X80787857Y-139759571D01*
X80644999Y-139831000D01*
X80573571Y-139973857D01*
X80573571Y-140759571D01*
X78002142Y-140759571D02*
X78716428Y-140759571D01*
X78716428Y-139259571D01*
X76859285Y-140759571D02*
X76859285Y-139973857D01*
X76930714Y-139831000D01*
X77073571Y-139759571D01*
X77359285Y-139759571D01*
X77502142Y-139831000D01*
X76859285Y-140688143D02*
X77002142Y-140759571D01*
X77359285Y-140759571D01*
X77502142Y-140688143D01*
X77573571Y-140545286D01*
X77573571Y-140402429D01*
X77502142Y-140259571D01*
X77359285Y-140188143D01*
X77002142Y-140188143D01*
X76859285Y-140116714D01*
X76287856Y-139759571D02*
X75930713Y-140759571D01*
X75573571Y-139759571D02*
X75930713Y-140759571D01*
X76073571Y-141116714D01*
X76144999Y-141188143D01*
X76287856Y-141259571D01*
X74430714Y-140688143D02*
X74573571Y-140759571D01*
X74859285Y-140759571D01*
X75002142Y-140688143D01*
X75073571Y-140545286D01*
X75073571Y-139973857D01*
X75002142Y-139831000D01*
X74859285Y-139759571D01*
X74573571Y-139759571D01*
X74430714Y-139831000D01*
X74359285Y-139973857D01*
X74359285Y-140116714D01*
X75073571Y-140259571D01*
X73716428Y-140759571D02*
X73716428Y-139759571D01*
X73716428Y-140045286D02*
X73645000Y-139902429D01*
X73573571Y-139831000D01*
X73430714Y-139759571D01*
X73287857Y-139759571D01*
D12*
X215265000Y-65405000D03*
D13*
X217805000Y-65405000D03*
X215265000Y-67945000D03*
X217805000Y-67945000D03*
X215265000Y-70485000D03*
X217805000Y-70485000D03*
X215265000Y-73025000D03*
X217805000Y-73025000D03*
X215265000Y-75565000D03*
X217805000Y-75565000D03*
X215265000Y-78105000D03*
X217805000Y-78105000D03*
X215265000Y-80645000D03*
X217805000Y-80645000D03*
X215265000Y-83185000D03*
X217805000Y-83185000D03*
X215265000Y-85725000D03*
X217805000Y-85725000D03*
X215265000Y-88265000D03*
X217805000Y-88265000D03*
X215265000Y-90805000D03*
X217805000Y-90805000D03*
X215265000Y-93345000D03*
X217805000Y-93345000D03*
X215265000Y-95885000D03*
X217805000Y-95885000D03*
X215265000Y-98425000D03*
X217805000Y-98425000D03*
X215265000Y-100965000D03*
X217805000Y-100965000D03*
X215265000Y-103505000D03*
X217805000Y-103505000D03*
X215265000Y-106045000D03*
X217805000Y-106045000D03*
X215265000Y-108585000D03*
X217805000Y-108585000D03*
X215265000Y-111125000D03*
X217805000Y-111125000D03*
X215265000Y-113665000D03*
X217805000Y-113665000D03*
X215265000Y-116205000D03*
X217805000Y-116205000D03*
X215265000Y-118745000D03*
X217805000Y-118745000D03*
X215265000Y-121285000D03*
X217805000Y-121285000D03*
X215265000Y-123825000D03*
X217805000Y-123825000D03*
X215265000Y-126365000D03*
X217805000Y-126365000D03*
D14*
X191770000Y-139700000D03*
X191770000Y-116840000D03*
D15*
X187960000Y-64770000D03*
X185420000Y-64770000D03*
D16*
X67945000Y-96901000D03*
X67945000Y-99441000D03*
D15*
X78105000Y-94361000D03*
X78105000Y-96901000D03*
X173990000Y-87630000D03*
X171450000Y-87630000D03*
X96520000Y-132080000D03*
X96520000Y-134620000D03*
X173990000Y-113030000D03*
X171450000Y-113030000D03*
X121920000Y-118110000D03*
X121920000Y-120650000D03*
D16*
X208280000Y-125730000D03*
X208280000Y-121920000D03*
D15*
X146050000Y-72390000D03*
X143510000Y-72390000D03*
X94615000Y-119126000D03*
X94615000Y-121666000D03*
D17*
X124460000Y-105410000D03*
X124460000Y-107950000D03*
X124460000Y-110490000D03*
X124460000Y-113030000D03*
X124460000Y-115570000D03*
X124460000Y-118110000D03*
X124460000Y-120650000D03*
X124460000Y-123190000D03*
X124460000Y-125730000D03*
X124460000Y-128270000D03*
X124460000Y-130810000D03*
X124460000Y-133350000D03*
X124460000Y-135890000D03*
D18*
X124460000Y-102870000D03*
D17*
X132080000Y-135890000D03*
X132080000Y-133350000D03*
X132080000Y-130810000D03*
X132080000Y-128270000D03*
X132080000Y-125730000D03*
X132080000Y-123190000D03*
X132080000Y-120650000D03*
X132080000Y-118110000D03*
X132080000Y-115570000D03*
X132080000Y-113030000D03*
X132080000Y-110490000D03*
X132080000Y-107950000D03*
X132080000Y-105410000D03*
X132080000Y-102870000D03*
D19*
X74869040Y-82577940D03*
X74869040Y-79982060D03*
X74869040Y-84678520D03*
X74869040Y-77881480D03*
X77317600Y-84678520D03*
X77368400Y-77881480D03*
D20*
X71869300Y-74480420D03*
X71071740Y-81280000D03*
X71869300Y-88028780D03*
D12*
X148590000Y-102870000D03*
D13*
X148590000Y-105410000D03*
X146050000Y-102870000D03*
X146050000Y-105410000D03*
X143510000Y-102870000D03*
X143510000Y-105410000D03*
D12*
X187960000Y-104140000D03*
D13*
X187960000Y-106680000D03*
X185420000Y-104140000D03*
X185420000Y-106680000D03*
X182880000Y-104140000D03*
X182880000Y-106680000D03*
D12*
X187960000Y-92710000D03*
D13*
X187960000Y-95250000D03*
X185420000Y-92710000D03*
X185420000Y-95250000D03*
X182880000Y-92710000D03*
X182880000Y-95250000D03*
D12*
X187960000Y-81280000D03*
D13*
X187960000Y-83820000D03*
X185420000Y-81280000D03*
X185420000Y-83820000D03*
X182880000Y-81280000D03*
X182880000Y-83820000D03*
D15*
X88265000Y-94361000D03*
X88265000Y-101981000D03*
X85725000Y-94361000D03*
X85725000Y-101981000D03*
X83185000Y-94361000D03*
X83185000Y-101981000D03*
X80645000Y-94361000D03*
X80645000Y-101981000D03*
X90805000Y-94361000D03*
X90805000Y-101981000D03*
X162560000Y-88900000D03*
X162560000Y-81280000D03*
X160020000Y-88900000D03*
X160020000Y-81280000D03*
X152400000Y-88900000D03*
X152400000Y-81280000D03*
X149860000Y-88900000D03*
X149860000Y-81280000D03*
X157480000Y-88900000D03*
X157480000Y-81280000D03*
X154940000Y-88900000D03*
X154940000Y-81280000D03*
X119380000Y-80010000D03*
X111760000Y-80010000D03*
X119380000Y-82550000D03*
X111760000Y-82550000D03*
X119380000Y-74930000D03*
X111760000Y-74930000D03*
X119380000Y-77470000D03*
X111760000Y-77470000D03*
D21*
X144780000Y-68580000D03*
D22*
X147320000Y-68580000D03*
X149860000Y-68580000D03*
X152400000Y-68580000D03*
X154940000Y-68580000D03*
X157480000Y-68580000D03*
X160020000Y-68580000D03*
X162560000Y-68580000D03*
X165100000Y-68580000D03*
X167640000Y-68580000D03*
X170180000Y-68580000D03*
X172720000Y-68580000D03*
X175260000Y-68580000D03*
X177800000Y-68580000D03*
X180340000Y-68580000D03*
X182880000Y-68580000D03*
X185420000Y-68580000D03*
X187960000Y-68580000D03*
X190500000Y-68580000D03*
X193040000Y-68580000D03*
X193040000Y-53340000D03*
X190500000Y-53340000D03*
X187960000Y-53340000D03*
X185420000Y-53340000D03*
X182880000Y-53340000D03*
X180340000Y-53340000D03*
X177800000Y-53340000D03*
X175260000Y-53340000D03*
X172720000Y-53340000D03*
X170180000Y-53340000D03*
X167640000Y-53340000D03*
X165100000Y-53340000D03*
X162560000Y-53340000D03*
X160020000Y-53340000D03*
X157480000Y-53340000D03*
X154940000Y-53340000D03*
X152400000Y-53340000D03*
X149860000Y-53340000D03*
X147320000Y-53340000D03*
X144780000Y-53340000D03*
D21*
X101600000Y-139700000D03*
D22*
X104140000Y-139700000D03*
X106680000Y-139700000D03*
X109220000Y-139700000D03*
X111760000Y-139700000D03*
X114300000Y-139700000D03*
X116840000Y-139700000D03*
X116840000Y-132080000D03*
X114300000Y-132080000D03*
X111760000Y-132080000D03*
X109220000Y-132080000D03*
X106680000Y-132080000D03*
X104140000Y-132080000D03*
X101600000Y-132080000D03*
D18*
X138430000Y-77470000D03*
D17*
X138430000Y-80010000D03*
X138430000Y-82550000D03*
X138430000Y-85090000D03*
X138430000Y-87630000D03*
X138430000Y-90170000D03*
X138430000Y-92710000D03*
X146050000Y-92710000D03*
X146050000Y-90170000D03*
X146050000Y-87630000D03*
X146050000Y-85090000D03*
X146050000Y-82550000D03*
X146050000Y-80010000D03*
X146050000Y-77470000D03*
D18*
X166370000Y-92710000D03*
D17*
X166370000Y-95250000D03*
X166370000Y-97790000D03*
X166370000Y-100330000D03*
X166370000Y-102870000D03*
X166370000Y-105410000D03*
X166370000Y-107950000D03*
X173990000Y-107950000D03*
X173990000Y-105410000D03*
X173990000Y-102870000D03*
X173990000Y-100330000D03*
X173990000Y-97790000D03*
X173990000Y-95250000D03*
X173990000Y-92710000D03*
D23*
X73025000Y-96901000D03*
X73025000Y-99441000D03*
X73025000Y-94361000D03*
D18*
X99060000Y-74930000D03*
D17*
X99060000Y-77470000D03*
X99060000Y-80010000D03*
X99060000Y-82550000D03*
X99060000Y-85090000D03*
X99060000Y-87630000D03*
X99060000Y-90170000D03*
X99060000Y-92710000D03*
X106680000Y-92710000D03*
X106680000Y-90170000D03*
X106680000Y-87630000D03*
X106680000Y-85090000D03*
X106680000Y-82550000D03*
X106680000Y-80010000D03*
X106680000Y-77470000D03*
X106680000Y-74930000D03*
D18*
X166370000Y-118110000D03*
D17*
X166370000Y-120650000D03*
X166370000Y-123190000D03*
X166370000Y-125730000D03*
X166370000Y-128270000D03*
X166370000Y-130810000D03*
X166370000Y-133350000D03*
X166370000Y-135890000D03*
X173990000Y-135890000D03*
X173990000Y-133350000D03*
X173990000Y-130810000D03*
X173990000Y-128270000D03*
X173990000Y-125730000D03*
X173990000Y-123190000D03*
X173990000Y-120650000D03*
X173990000Y-118110000D03*
D18*
X124460000Y-74930000D03*
D17*
X124460000Y-77470000D03*
X124460000Y-80010000D03*
X124460000Y-82550000D03*
X124460000Y-85090000D03*
X124460000Y-87630000D03*
X124460000Y-90170000D03*
X124460000Y-92710000D03*
X132080000Y-92710000D03*
X132080000Y-90170000D03*
X132080000Y-87630000D03*
X132080000Y-85090000D03*
X132080000Y-82550000D03*
X132080000Y-80010000D03*
X132080000Y-77470000D03*
X132080000Y-74930000D03*
D24*
X162560000Y-125509020D03*
X162560000Y-123410980D03*
D12*
X149860000Y-77470000D03*
D13*
X149860000Y-74930000D03*
X152400000Y-77470000D03*
X152400000Y-74930000D03*
X154940000Y-77470000D03*
X154940000Y-74930000D03*
X157480000Y-77470000D03*
X157480000Y-74930000D03*
X160020000Y-77470000D03*
X160020000Y-74930000D03*
X162560000Y-77470000D03*
X162560000Y-74930000D03*
D25*
X77040740Y-63373000D03*
D26*
X89535000Y-64891920D03*
X86763860Y-64891920D03*
X83995260Y-64891920D03*
X92306140Y-64891920D03*
X95074740Y-64891920D03*
X93690440Y-61854080D03*
X90919300Y-61854080D03*
X88150700Y-61854080D03*
X85379560Y-61854080D03*
D25*
X102029260Y-63373000D03*
X110060740Y-63373000D03*
D26*
X122555000Y-64891920D03*
X119783860Y-64891920D03*
X117015260Y-64891920D03*
X125326140Y-64891920D03*
X128094740Y-64891920D03*
X126710440Y-61854080D03*
X123939300Y-61854080D03*
X121170700Y-61854080D03*
X118399560Y-61854080D03*
D25*
X135049260Y-63373000D03*
D27*
X68280280Y-131861560D03*
D28*
X68280280Y-107660440D03*
D29*
X94615000Y-114046000D03*
X134239000Y-91186000D03*
X213874341Y-69091170D03*
X212725000Y-68770520D03*
X164465000Y-89281000D03*
X208280000Y-78232000D03*
X152019000Y-105156000D03*
X151130000Y-101981000D03*
X149479000Y-133350000D03*
X134429530Y-122545531D03*
X128143000Y-67310000D03*
X95123000Y-67246480D03*
X125349000Y-68072000D03*
X92329000Y-68071960D03*
X89535000Y-68897480D03*
X122555000Y-68961000D03*
X86741000Y-69723000D03*
X119761000Y-69913510D03*
X116967000Y-70612000D03*
X83947000Y-70612000D03*
X90932000Y-59372480D03*
X93726000Y-58483480D03*
X135382000Y-82169000D03*
X142113000Y-78740000D03*
X150876000Y-133477000D03*
X149987000Y-111252000D03*
X172720000Y-111125000D03*
X171195990Y-133350000D03*
X102108000Y-86487000D03*
X146304000Y-136906000D03*
X146304000Y-115570000D03*
X195707000Y-53911520D03*
X148590000Y-141224000D03*
X127889000Y-141097000D03*
X80264000Y-77978000D03*
X80264000Y-86487000D03*
D30*
X132080000Y-77470000D02*
X132080000Y-77207388D01*
X143510000Y-72390000D02*
X143510000Y-70862746D01*
X143510000Y-70862746D02*
X143510000Y-69850000D01*
X149860000Y-74930000D02*
X149860000Y-73708686D01*
X147014060Y-70862746D02*
X143510000Y-70862746D01*
X149860000Y-73708686D02*
X147014060Y-70862746D01*
X143510000Y-73377828D02*
X143510000Y-72390000D01*
X143510000Y-87985600D02*
X143510000Y-73377828D01*
X138430000Y-92710000D02*
X138785600Y-92710000D01*
X138785600Y-92710000D02*
X143510000Y-87985600D01*
X116840000Y-139700000D02*
X116840000Y-139344400D01*
X116840000Y-139344400D02*
X112115600Y-134620000D01*
X112115600Y-134620000D02*
X97507828Y-134620000D01*
X97507828Y-134620000D02*
X96520000Y-134620000D01*
X116840000Y-139700000D02*
X116840000Y-143002000D01*
X191770000Y-139700000D02*
X191770000Y-143510000D01*
X144780000Y-68580000D02*
X144780000Y-68224400D01*
X144780000Y-68224400D02*
X148234400Y-64770000D01*
X148234400Y-64770000D02*
X185420000Y-64770000D01*
X106680000Y-87630000D02*
X114300000Y-87630000D01*
X114300000Y-87630000D02*
X119380000Y-82550000D01*
X130302000Y-91287600D02*
X130302000Y-87560490D01*
X130302000Y-87560490D02*
X130302000Y-82530407D01*
X132080000Y-87630000D02*
X130371510Y-87630000D01*
X130371510Y-87630000D02*
X130302000Y-87560490D01*
X130302000Y-82530407D02*
X130302000Y-78892400D01*
X132080000Y-82550000D02*
X130321593Y-82550000D01*
X130321593Y-82550000D02*
X130302000Y-82530407D01*
X132080000Y-92710000D02*
X131724400Y-92710000D01*
X131724400Y-92710000D02*
X130302000Y-91287600D01*
X130302000Y-78892400D02*
X131724400Y-77470000D01*
X131724400Y-77470000D02*
X132080000Y-77470000D01*
X215265000Y-103505000D02*
X217805000Y-103505000D01*
X217805000Y-103505000D02*
X217932000Y-103632000D01*
X217932000Y-103632000D02*
X219202000Y-103632000D01*
X119380000Y-80010000D02*
X119380000Y-82550000D01*
X106324400Y-87630000D02*
X106680000Y-87630000D01*
X104902000Y-89052400D02*
X106324400Y-87630000D01*
X104902000Y-91287600D02*
X104902000Y-89052400D01*
X106324400Y-92710000D02*
X104902000Y-91287600D01*
X106680000Y-92710000D02*
X106324400Y-92710000D01*
X71071740Y-81280000D02*
X64516000Y-81280000D01*
X71869300Y-82077560D02*
X71071740Y-81280000D01*
X71869300Y-80482440D02*
X71071740Y-81280000D01*
X71869300Y-74480420D02*
X71869300Y-80482440D01*
X72854809Y-84681174D02*
X71869300Y-84681174D01*
X72857463Y-84678520D02*
X72854809Y-84681174D01*
X71869300Y-84681174D02*
X71869300Y-82077560D01*
X74869040Y-84678520D02*
X72857463Y-84678520D01*
X71869300Y-88028780D02*
X71869300Y-84681174D01*
X133858000Y-92710000D02*
X138430000Y-92710000D01*
X132080000Y-92710000D02*
X133858000Y-92710000D01*
X132435600Y-92710000D02*
X132080000Y-92710000D01*
X171323000Y-103352600D02*
X166725600Y-107950000D01*
X171450000Y-87630000D02*
X171323000Y-87757000D01*
X171323000Y-87757000D02*
X171323000Y-103352600D01*
X166370000Y-135890000D02*
X166725600Y-135890000D01*
X166725600Y-135890000D02*
X170751501Y-131864099D01*
X170751501Y-131864099D02*
X170751501Y-113728499D01*
X170751501Y-113728499D02*
X171450000Y-113030000D01*
X214630000Y-125730000D02*
X215265000Y-126365000D01*
X208280000Y-125730000D02*
X214630000Y-125730000D01*
X143510000Y-69850000D02*
X144780000Y-68580000D01*
X166370000Y-118110000D02*
X166370000Y-109372400D01*
X166370000Y-109372400D02*
X166370000Y-107950000D01*
X121920000Y-120650000D02*
X121920000Y-143256000D01*
X131724400Y-118110000D02*
X130175000Y-119659400D01*
X132080000Y-118110000D02*
X131724400Y-118110000D01*
X130175000Y-119659400D02*
X130175000Y-143129000D01*
X143510000Y-106631314D02*
X143510000Y-105410000D01*
X143510000Y-107035600D02*
X143510000Y-106631314D01*
X132435600Y-118110000D02*
X143510000Y-107035600D01*
X132080000Y-118110000D02*
X132435600Y-118110000D01*
X78105000Y-96901000D02*
X73025000Y-96901000D01*
X73025000Y-96901000D02*
X67945000Y-96901000D01*
X67945000Y-96901000D02*
X64135000Y-96901000D01*
X106680000Y-94132400D02*
X106680000Y-92710000D01*
X103911400Y-96901000D02*
X106680000Y-94132400D01*
X78105000Y-96901000D02*
X103911400Y-96901000D01*
X103886000Y-96926400D02*
X103911400Y-96901000D01*
X103886000Y-112395000D02*
X103886000Y-96926400D01*
X101967242Y-114046000D02*
X102101121Y-114179879D01*
X94615000Y-114046000D02*
X101967242Y-114046000D01*
X102101121Y-114179879D02*
X103886000Y-112395000D01*
X94615000Y-121666000D02*
X102101121Y-114179879D01*
D31*
X217805000Y-108585000D02*
X216560399Y-107340399D01*
X216560399Y-107340399D02*
X213893399Y-107340399D01*
X213893399Y-107340399D02*
X191770000Y-85217000D01*
X191770000Y-85217000D02*
X191770000Y-55880000D01*
X184531000Y-54991000D02*
X182880000Y-53340000D01*
X191770000Y-55880000D02*
X190881000Y-54991000D01*
X190881000Y-54991000D02*
X184531000Y-54991000D01*
X134239000Y-76036230D02*
X134239000Y-90557383D01*
X134239000Y-90557383D02*
X134239000Y-91186000D01*
X154522230Y-55753000D02*
X134239000Y-76036230D01*
X160020000Y-53695600D02*
X157962600Y-55753000D01*
X160020000Y-53340000D02*
X160020000Y-53695600D01*
X157962600Y-55753000D02*
X154522230Y-55753000D01*
X143510000Y-102870000D02*
X142341590Y-104038410D01*
X142341590Y-104038410D02*
X127025410Y-104038410D01*
X127025410Y-104038410D02*
X125857000Y-102870000D01*
X125857000Y-102870000D02*
X124460000Y-102870000D01*
X217805000Y-65405000D02*
X204216000Y-51816000D01*
X188443981Y-51816000D02*
X188443971Y-51815990D01*
X204216000Y-51816000D02*
X193523981Y-51816000D01*
X165583971Y-51815990D02*
X164616029Y-51815990D01*
X177316029Y-51815990D02*
X177316019Y-51816000D01*
X179856019Y-51816000D02*
X178283981Y-51816000D01*
X187476029Y-51815990D02*
X187476019Y-51816000D01*
X193523981Y-51816000D02*
X193523971Y-51815990D01*
X193523971Y-51815990D02*
X192556029Y-51815990D01*
X174776019Y-51816000D02*
X173203981Y-51816000D01*
X179856029Y-51815990D02*
X179856019Y-51816000D01*
X175743971Y-51815990D02*
X174776029Y-51815990D01*
X192556029Y-51815990D02*
X192556019Y-51816000D01*
X162076019Y-51816000D02*
X161188400Y-51816000D01*
X192556019Y-51816000D02*
X190983981Y-51816000D01*
X190983981Y-51816000D02*
X190983971Y-51815990D01*
X180823981Y-51816000D02*
X180823971Y-51815990D01*
X190983971Y-51815990D02*
X190016029Y-51815990D01*
X173203981Y-51816000D02*
X173203971Y-51815990D01*
X178283971Y-51815990D02*
X177316029Y-51815990D01*
X183363981Y-51816000D02*
X183363971Y-51815990D01*
X190016029Y-51815990D02*
X190016019Y-51816000D01*
X188443971Y-51815990D02*
X187476029Y-51815990D01*
X177316019Y-51816000D02*
X175743981Y-51816000D01*
X163043971Y-51815990D02*
X162076029Y-51815990D01*
X161188400Y-51816000D02*
X160020000Y-52984400D01*
X190016019Y-51816000D02*
X188443981Y-51816000D01*
X187476019Y-51816000D02*
X185903981Y-51816000D01*
X178283981Y-51816000D02*
X178283971Y-51815990D01*
X185903981Y-51816000D02*
X185903971Y-51815990D01*
X185903971Y-51815990D02*
X184936029Y-51815990D01*
X184936029Y-51815990D02*
X184936019Y-51816000D01*
X164616029Y-51815990D02*
X164616019Y-51816000D01*
X184936019Y-51816000D02*
X183363981Y-51816000D01*
X182396019Y-51816000D02*
X180823981Y-51816000D01*
X182396029Y-51815990D02*
X182396019Y-51816000D01*
X183363971Y-51815990D02*
X182396029Y-51815990D01*
X180823971Y-51815990D02*
X179856029Y-51815990D01*
X175743981Y-51816000D02*
X175743971Y-51815990D01*
X163043981Y-51816000D02*
X163043971Y-51815990D01*
X174776029Y-51815990D02*
X174776019Y-51816000D01*
X170663981Y-51816000D02*
X170663971Y-51815990D01*
X173203971Y-51815990D02*
X172236029Y-51815990D01*
X168123971Y-51815990D02*
X167156029Y-51815990D01*
X172236029Y-51815990D02*
X172236019Y-51816000D01*
X172236019Y-51816000D02*
X170663981Y-51816000D01*
X170663971Y-51815990D02*
X169696029Y-51815990D01*
X169696029Y-51815990D02*
X169696019Y-51816000D01*
X169696019Y-51816000D02*
X168123981Y-51816000D01*
X168123981Y-51816000D02*
X168123971Y-51815990D01*
X167156029Y-51815990D02*
X167156019Y-51816000D01*
X167156019Y-51816000D02*
X165583981Y-51816000D01*
X165583981Y-51816000D02*
X165583971Y-51815990D01*
X164616019Y-51816000D02*
X163043981Y-51816000D01*
X162076029Y-51815990D02*
X162076019Y-51816000D01*
X124460000Y-102870000D02*
X124815600Y-102870000D01*
X160020000Y-52984400D02*
X160020000Y-53340000D01*
X213874341Y-81794341D02*
X213874341Y-69719787D01*
X215265000Y-83185000D02*
X213874341Y-81794341D01*
X213874341Y-69719787D02*
X213874341Y-69091170D01*
X217805000Y-90805000D02*
X216560399Y-89560399D01*
X216560399Y-89560399D02*
X213639399Y-89560399D01*
X212725000Y-88646000D02*
X212725000Y-69399137D01*
X212725000Y-69399137D02*
X212725000Y-68770520D01*
X213639399Y-89560399D02*
X212725000Y-88646000D01*
X164465000Y-89909617D02*
X164465000Y-89281000D01*
X164465000Y-92710000D02*
X164465000Y-89909617D01*
X152019000Y-105156000D02*
X164465000Y-92710000D01*
X208280000Y-77603383D02*
X208280000Y-78232000D01*
X208280000Y-71888383D02*
X208280000Y-77603383D01*
X212223383Y-67945000D02*
X208280000Y-71888383D01*
X215265000Y-67945000D02*
X212223383Y-67945000D01*
X217805000Y-67945000D02*
X216509601Y-66649601D01*
X216509601Y-66649601D02*
X212572601Y-66649601D01*
X212572601Y-66649601D02*
X199009000Y-53086000D01*
X199009000Y-53086000D02*
X193294000Y-53086000D01*
X193294000Y-53086000D02*
X193040000Y-53340000D01*
X166370000Y-100330000D02*
X166725600Y-100330000D01*
X170278666Y-87185510D02*
X172720000Y-84744176D01*
X172720000Y-69977000D02*
X172720000Y-68580000D01*
X166725600Y-100330000D02*
X170278666Y-96776934D01*
X170278666Y-96776934D02*
X170278666Y-87185510D01*
X172720000Y-84744176D02*
X172720000Y-69977000D01*
X151130000Y-101981000D02*
X151130000Y-131699000D01*
X149923499Y-132905501D02*
X149479000Y-133350000D01*
X151130000Y-131699000D02*
X149923499Y-132905501D01*
X146050000Y-105410000D02*
X146050000Y-110744000D01*
X146050000Y-110744000D02*
X134874029Y-121919971D01*
X134874029Y-121919971D02*
X134874029Y-122101032D01*
X134874029Y-122101032D02*
X134429530Y-122545531D01*
X185420000Y-68580000D02*
X185420000Y-76962000D01*
X185420000Y-76962000D02*
X184175399Y-78206601D01*
X184175399Y-78206601D02*
X184175399Y-82575399D01*
X184175399Y-82575399D02*
X184556401Y-82956401D01*
X184556401Y-82956401D02*
X185420000Y-83820000D01*
X184556401Y-96113599D02*
X185420000Y-95250000D01*
X184175399Y-96494601D02*
X184556401Y-96113599D01*
X184175399Y-104737409D02*
X184175399Y-96494601D01*
X185420000Y-105982010D02*
X184175399Y-104737409D01*
X185420000Y-106680000D02*
X185420000Y-105982010D01*
X184556401Y-84683599D02*
X185420000Y-83820000D01*
X184175399Y-85064601D02*
X184556401Y-84683599D01*
X184175399Y-93307409D02*
X184175399Y-85064601D01*
X185420000Y-94552010D02*
X184175399Y-93307409D01*
X185420000Y-95250000D02*
X185420000Y-94552010D01*
X185420000Y-107901314D02*
X185420000Y-106680000D01*
X185420000Y-117195600D02*
X185420000Y-107901314D01*
X174345600Y-128270000D02*
X185420000Y-117195600D01*
X173990000Y-128270000D02*
X174345600Y-128270000D01*
X147345399Y-106169678D02*
X147345399Y-102997001D01*
X146811969Y-106703108D02*
X147345399Y-106169678D01*
X147345399Y-102997001D02*
X147472400Y-102870000D01*
X146811969Y-113893631D02*
X146811969Y-106703108D01*
X132080000Y-128270000D02*
X132435600Y-128270000D01*
X147472400Y-102870000D02*
X148590000Y-102870000D01*
X132435600Y-128270000D02*
X146811969Y-113893631D01*
X187960000Y-68580000D02*
X187960000Y-68224400D01*
X187960000Y-68224400D02*
X186791590Y-67055990D01*
X186791590Y-67055990D02*
X168808410Y-67055990D01*
X168808410Y-67055990D02*
X167640000Y-68224400D01*
X167640000Y-68224400D02*
X167640000Y-68580000D01*
X145186401Y-103733599D02*
X146050000Y-102870000D01*
X132080000Y-125730000D02*
X132435600Y-125730000D01*
X132435600Y-125730000D02*
X133604010Y-124561590D01*
X133604010Y-124561590D02*
X133604010Y-122095248D01*
X133604010Y-122095248D02*
X144805399Y-110893859D01*
X144805399Y-110893859D02*
X144805399Y-104114601D01*
X144805399Y-104114601D02*
X145186401Y-103733599D01*
X187960000Y-68580000D02*
X187960000Y-77089000D01*
X187960000Y-77089000D02*
X185420000Y-79629000D01*
X185420000Y-79629000D02*
X185420000Y-81280000D01*
X167640000Y-68935600D02*
X167640000Y-68580000D01*
X186283599Y-82143599D02*
X185420000Y-81280000D01*
X186664601Y-82524601D02*
X186283599Y-82143599D01*
X186664601Y-91465399D02*
X186664601Y-82524601D01*
X185420000Y-92710000D02*
X186664601Y-91465399D01*
X186283599Y-103276401D02*
X185420000Y-104140000D01*
X186664601Y-93954601D02*
X186664601Y-102895399D01*
X186664601Y-102895399D02*
X186283599Y-103276401D01*
X185420000Y-92710000D02*
X186664601Y-93954601D01*
X186283599Y-105003599D02*
X185420000Y-104140000D01*
X186664601Y-105384601D02*
X186283599Y-105003599D01*
X186664601Y-118490999D02*
X186664601Y-105384601D01*
X174345600Y-130810000D02*
X186664601Y-118490999D01*
X173990000Y-130810000D02*
X174345600Y-130810000D01*
X166014400Y-97790000D02*
X166370000Y-97790000D01*
X164845990Y-102386029D02*
X164846018Y-102386001D01*
X164845990Y-104241590D02*
X164845990Y-102386029D01*
X164846019Y-100814000D02*
X164845990Y-100813971D01*
X164846018Y-102386001D02*
X164846019Y-100814000D01*
X166370000Y-105410000D02*
X166014400Y-105410000D01*
X166014400Y-105410000D02*
X164845990Y-104241590D01*
X164845990Y-100813971D02*
X164845990Y-98958410D01*
X164845990Y-98958410D02*
X166014400Y-97790000D01*
X187960000Y-81280000D02*
X187960000Y-79756000D01*
X190500000Y-77216000D02*
X190500000Y-69977000D01*
X187960000Y-79756000D02*
X190500000Y-77216000D01*
X190500000Y-69977000D02*
X190500000Y-68580000D01*
X166725600Y-97790000D02*
X166370000Y-97790000D01*
X189204601Y-92837001D02*
X189077600Y-92710000D01*
X189077600Y-92710000D02*
X187960000Y-92710000D01*
X189204601Y-104012999D02*
X189204601Y-92837001D01*
X189077600Y-104140000D02*
X189204601Y-104012999D01*
X187960000Y-104140000D02*
X189077600Y-104140000D01*
X187960000Y-86233000D02*
X187960000Y-92710000D01*
X189204601Y-84988399D02*
X187960000Y-86233000D01*
X189204601Y-82524601D02*
X189204601Y-84988399D01*
X187960000Y-81280000D02*
X189204601Y-82524601D01*
X177800000Y-99060000D02*
X177800000Y-68580000D01*
X182880000Y-104140000D02*
X177800000Y-99060000D01*
X180340000Y-90170000D02*
X180340000Y-68580000D01*
X182880000Y-92710000D02*
X180340000Y-90170000D01*
X182880000Y-81280000D02*
X182880000Y-68580000D01*
X94488000Y-64695286D02*
X94545514Y-64637772D01*
X128094740Y-67261740D02*
X128143000Y-67310000D01*
X128094740Y-64643000D02*
X128094740Y-67261740D01*
X128143000Y-67818000D02*
X128143000Y-67310000D01*
X126365000Y-69596000D02*
X128143000Y-67818000D01*
X125857000Y-69596000D02*
X126365000Y-69596000D01*
X122935999Y-72517001D02*
X125857000Y-69596000D01*
X122935999Y-76301599D02*
X122935999Y-72517001D01*
X124104400Y-77470000D02*
X122935999Y-76301599D01*
X124460000Y-77470000D02*
X124104400Y-77470000D01*
X95074740Y-64643000D02*
X95074740Y-67198220D01*
X95074740Y-67198220D02*
X95123000Y-67246480D01*
X125349000Y-68700617D02*
X125349000Y-68072000D01*
X125326140Y-64643000D02*
X125326140Y-68049140D01*
X125349000Y-64665860D02*
X125349000Y-67443383D01*
X122427990Y-80873590D02*
X122427990Y-72306576D01*
X125349000Y-67443383D02*
X125349000Y-68072000D01*
X124460000Y-82550000D02*
X124104400Y-82550000D01*
X124104400Y-82550000D02*
X122427990Y-80873590D01*
X122427990Y-72306576D02*
X125349000Y-69385566D01*
X125349000Y-69385566D02*
X125349000Y-68700617D01*
X125326140Y-68049140D02*
X125349000Y-68072000D01*
X92306140Y-64643000D02*
X92306140Y-68049100D01*
X92306140Y-68049100D02*
X92329000Y-68071960D01*
X89535000Y-64643000D02*
X89535000Y-68897480D01*
X89535000Y-69526097D02*
X89535000Y-68897480D01*
X99060000Y-87630000D02*
X98704400Y-87630000D01*
X98704400Y-87630000D02*
X89535000Y-78460600D01*
X89535000Y-78460600D02*
X89535000Y-69526097D01*
X122555000Y-64643000D02*
X122555000Y-68961000D01*
X86763860Y-69700140D02*
X86741000Y-69723000D01*
X86763860Y-64643000D02*
X86763860Y-69700140D01*
X119761000Y-64665860D02*
X119783860Y-64643000D01*
X119761000Y-69913510D02*
X119761000Y-64665860D01*
X86741000Y-70351617D02*
X86741000Y-69723000D01*
X86741000Y-80746600D02*
X86741000Y-70351617D01*
X98704400Y-92710000D02*
X86741000Y-80746600D01*
X99060000Y-92710000D02*
X98704400Y-92710000D01*
X116967000Y-64691260D02*
X117015260Y-64643000D01*
X117015260Y-70563740D02*
X116967000Y-70612000D01*
X117015260Y-64643000D02*
X117015260Y-70563740D01*
X83995260Y-64643000D02*
X83995260Y-70563740D01*
X83995260Y-70563740D02*
X83947000Y-70612000D01*
X118364000Y-62138560D02*
X118399560Y-62103000D01*
X118364000Y-62067440D02*
X118399560Y-62103000D01*
X106680000Y-74930000D02*
X106324400Y-74930000D01*
X105283000Y-74930000D02*
X106680000Y-74930000D01*
X99568000Y-69215000D02*
X105283000Y-74930000D01*
X91996258Y-69215000D02*
X99568000Y-69215000D01*
X90932000Y-64008000D02*
X90932000Y-68150742D01*
X89027000Y-62103000D02*
X90932000Y-64008000D01*
X90932000Y-68150742D02*
X91996258Y-69215000D01*
X88150700Y-62103000D02*
X89027000Y-62103000D01*
X123939300Y-62103000D02*
X123939300Y-61854080D01*
X90919300Y-61854080D02*
X90919300Y-62103000D01*
X90919300Y-59385180D02*
X90932000Y-59372480D01*
X90919300Y-62103000D02*
X90919300Y-59385180D01*
X123952000Y-70064132D02*
X123952000Y-64167925D01*
X123952000Y-64167925D02*
X126016925Y-62103000D01*
X121919981Y-85445581D02*
X121919981Y-72096151D01*
X124460000Y-87630000D02*
X124104400Y-87630000D01*
X121919981Y-72096151D02*
X123952000Y-70064132D01*
X124104400Y-87630000D02*
X121919981Y-85445581D01*
X126016925Y-62103000D02*
X126710440Y-62103000D01*
X93690440Y-62103000D02*
X93690440Y-58519040D01*
X93690440Y-58519040D02*
X93726000Y-58483480D01*
X121170700Y-69725552D02*
X121170700Y-63356490D01*
X108496099Y-78549501D02*
X112346751Y-78549501D01*
X112346751Y-78549501D02*
X121170700Y-69725552D01*
X107035600Y-80010000D02*
X108496099Y-78549501D01*
X121170700Y-63356490D02*
X121170700Y-62103000D01*
X106680000Y-80010000D02*
X107035600Y-80010000D01*
X160020000Y-68580000D02*
X160020000Y-70104000D01*
X160020000Y-70104000D02*
X157480000Y-72644000D01*
X157480000Y-72644000D02*
X157480000Y-74930000D01*
X157480000Y-74930000D02*
X157480000Y-75648434D01*
X157480000Y-75648434D02*
X158724601Y-76893035D01*
X158724601Y-76893035D02*
X158724601Y-78016611D01*
X158724601Y-78016611D02*
X161289491Y-80581501D01*
X161289491Y-80581501D02*
X161861501Y-80581501D01*
X161861501Y-80581501D02*
X162560000Y-81280000D01*
X132080000Y-85090000D02*
X132435600Y-85090000D01*
X157480000Y-68580000D02*
X157480000Y-71247000D01*
X156616401Y-76606401D02*
X157480000Y-77470000D01*
X157480000Y-71247000D02*
X156184601Y-72542399D01*
X156184601Y-72542399D02*
X156184601Y-76174601D01*
X156184601Y-76174601D02*
X156616401Y-76606401D01*
X157480000Y-77470000D02*
X157480000Y-78740000D01*
X157480000Y-78740000D02*
X160020000Y-81280000D01*
X141668501Y-79184499D02*
X142113000Y-78740000D01*
X135382000Y-82169000D02*
X136169410Y-81381590D01*
X136169410Y-81381590D02*
X139471410Y-81381590D01*
X139471410Y-81381590D02*
X141668501Y-79184499D01*
X149860000Y-68580000D02*
X149860000Y-70104000D01*
X149860000Y-70104000D02*
X152400000Y-72644000D01*
X152400000Y-72644000D02*
X152400000Y-73708686D01*
X152400000Y-73708686D02*
X152400000Y-74930000D01*
X152400000Y-74930000D02*
X152400000Y-75648434D01*
X152400000Y-75648434D02*
X153644601Y-76893035D01*
X153644601Y-76893035D02*
X153644601Y-80035399D01*
X153644601Y-80035399D02*
X153098499Y-80581501D01*
X153098499Y-80581501D02*
X152400000Y-81280000D01*
X154940000Y-74930000D02*
X154940000Y-75692000D01*
X154940000Y-75692000D02*
X156184601Y-76936601D01*
X156184601Y-76936601D02*
X156184601Y-79984601D01*
X156184601Y-79984601D02*
X156781501Y-80581501D01*
X156781501Y-80581501D02*
X157480000Y-81280000D01*
X154940000Y-68580000D02*
X154940000Y-74930000D01*
X152400000Y-68580000D02*
X152400000Y-71247000D01*
X152400000Y-71247000D02*
X153695399Y-72542399D01*
X153695399Y-72542399D02*
X153695399Y-76225399D01*
X153695399Y-76225399D02*
X154076401Y-76606401D01*
X154076401Y-76606401D02*
X154940000Y-77470000D01*
X154940000Y-77470000D02*
X154940000Y-78691314D01*
X154940000Y-78691314D02*
X154940000Y-81280000D01*
X162560000Y-68580000D02*
X162560000Y-70568434D01*
X162560000Y-70568434D02*
X158724601Y-74403833D01*
X158724601Y-74403833D02*
X158724601Y-76174601D01*
X158724601Y-76174601D02*
X159156401Y-76606401D01*
X159156401Y-76606401D02*
X160020000Y-77470000D01*
X160020000Y-74930000D02*
X165100000Y-69850000D01*
X165100000Y-69850000D02*
X165100000Y-68580000D01*
X146050000Y-81508600D02*
X146050000Y-80010000D01*
X146050000Y-82550000D02*
X146050000Y-81508600D01*
X166370000Y-92710000D02*
X166370000Y-73533000D01*
X166370000Y-73533000D02*
X170180000Y-69723000D01*
X170180000Y-69723000D02*
X170180000Y-68935600D01*
X170180000Y-68935600D02*
X170180000Y-68580000D01*
X151765000Y-106959400D02*
X151765000Y-132588000D01*
X166014400Y-92710000D02*
X151765000Y-106959400D01*
X166370000Y-92710000D02*
X166014400Y-92710000D01*
X151765000Y-132588000D02*
X151320499Y-133032501D01*
X151320499Y-133032501D02*
X150876000Y-133477000D01*
X175260000Y-68580000D02*
X175260000Y-68935600D01*
X175260000Y-68935600D02*
X175514010Y-69189610D01*
X174345600Y-102870000D02*
X173990000Y-102870000D01*
X175514010Y-101701590D02*
X174345600Y-102870000D01*
X175514010Y-70231010D02*
X175514010Y-101701590D01*
X175260000Y-69977000D02*
X175514010Y-70231010D01*
X175260000Y-68580000D02*
X175260000Y-69977000D01*
X149987000Y-97688400D02*
X149987000Y-110623383D01*
X146050000Y-93751400D02*
X149987000Y-97688400D01*
X146050000Y-92710000D02*
X146050000Y-93751400D01*
X149987000Y-110623383D02*
X149987000Y-111252000D01*
X171195990Y-133350000D02*
X171195990Y-132721383D01*
X171195990Y-132721383D02*
X171450011Y-132467362D01*
X171450011Y-132467362D02*
X171450011Y-114627651D01*
X171450011Y-114627651D02*
X172720000Y-113357662D01*
X172720000Y-113357662D02*
X172720000Y-111125000D01*
X99415600Y-82550000D02*
X102108000Y-85242400D01*
X102108000Y-85242400D02*
X102108000Y-85858383D01*
X102108000Y-85858383D02*
X102108000Y-86487000D01*
X99060000Y-82550000D02*
X99415600Y-82550000D01*
X175514010Y-106578410D02*
X174345600Y-105410000D01*
X175514010Y-124561590D02*
X175514010Y-106578410D01*
X174345600Y-125730000D02*
X175514010Y-124561590D01*
X174345600Y-105410000D02*
X173990000Y-105410000D01*
X173990000Y-125730000D02*
X174345600Y-125730000D01*
X146304000Y-115570000D02*
X146304000Y-136906000D01*
X152400000Y-77470000D02*
X149860000Y-80010000D01*
X149860000Y-80010000D02*
X149860000Y-81280000D01*
X147320000Y-68935600D02*
X151155399Y-72770999D01*
X151155399Y-72770999D02*
X151155399Y-76225399D01*
X151155399Y-76225399D02*
X151536401Y-76606401D01*
X151536401Y-76606401D02*
X152400000Y-77470000D01*
D30*
X149860000Y-88900000D02*
X152400000Y-88900000D01*
X152400000Y-88900000D02*
X154940000Y-88900000D01*
X154940000Y-88900000D02*
X157480000Y-88900000D01*
X157480000Y-88900000D02*
X160020000Y-88900000D01*
X160020000Y-88900000D02*
X162560000Y-88900000D01*
X146050000Y-77470000D02*
X148336000Y-77470000D01*
X149860000Y-88900000D02*
X148209000Y-87249000D01*
X148209000Y-87249000D02*
X148209000Y-77597000D01*
X148209000Y-77597000D02*
X148336000Y-77470000D01*
X148336000Y-77470000D02*
X149860000Y-77470000D01*
X146050000Y-72390000D02*
X146050000Y-76073002D01*
X146050000Y-76073002D02*
X146050000Y-77470000D01*
X152019009Y-89011200D02*
X152152607Y-89144798D01*
X152152607Y-89167711D02*
X152420318Y-88900000D01*
X152019009Y-88722645D02*
X152019009Y-89011200D01*
X152152607Y-89144798D02*
X152152607Y-89167711D01*
X99060000Y-90170000D02*
X99187000Y-90170000D01*
X99187000Y-90170000D02*
X100838000Y-88519000D01*
X99415600Y-85090000D02*
X99060000Y-85090000D01*
X100838000Y-88519000D02*
X100838000Y-86512400D01*
X100838000Y-86512400D02*
X99415600Y-85090000D01*
X193040000Y-56578520D02*
X195262501Y-54356019D01*
X193040000Y-68580000D02*
X193040000Y-56578520D01*
X195262501Y-54356019D02*
X195707000Y-53911520D01*
X208280000Y-121920000D02*
X214630000Y-121920000D01*
X214630000Y-121920000D02*
X215265000Y-121285000D01*
X173990000Y-113030000D02*
X173990000Y-110490000D01*
X172212010Y-108712010D02*
X172212010Y-94487990D01*
X173990000Y-110490000D02*
X172212010Y-108712010D01*
X172212010Y-94487990D02*
X173990000Y-92710000D01*
D31*
X174345600Y-92710000D02*
X173990000Y-92710000D01*
D30*
X146050000Y-77470000D02*
X146405600Y-77470000D01*
X126238000Y-88747600D02*
X126238000Y-85065189D01*
X126238000Y-85065189D02*
X126238000Y-80066229D01*
X126213189Y-85090000D02*
X126238000Y-85065189D01*
X124460000Y-85090000D02*
X126213189Y-85090000D01*
X124460000Y-80010000D02*
X126181771Y-80010000D01*
X126238000Y-80066229D02*
X126238000Y-76352400D01*
X126181771Y-80010000D02*
X126238000Y-80066229D01*
X124460000Y-90170000D02*
X124815600Y-90170000D01*
X124815600Y-90170000D02*
X126238000Y-88747600D01*
X126238000Y-76352400D02*
X124815600Y-74930000D01*
X124815600Y-74930000D02*
X124460000Y-74930000D01*
D31*
X174345600Y-87630000D02*
X173990000Y-87630000D01*
D30*
X173990000Y-118110000D02*
X173990000Y-113030000D01*
X173990000Y-92710000D02*
X173990000Y-87630000D01*
X172212000Y-134467600D02*
X172212000Y-124612400D01*
X173634400Y-135890000D02*
X172212000Y-134467600D01*
X172212000Y-124612400D02*
X173634400Y-123190000D01*
X172212000Y-121767600D02*
X173634400Y-123190000D01*
X172212000Y-119532400D02*
X172212000Y-121767600D01*
X173634400Y-118110000D02*
X172212000Y-119532400D01*
X173634400Y-123190000D02*
X173990000Y-123190000D01*
X173990000Y-118110000D02*
X173634400Y-118110000D01*
X127889000Y-121183400D02*
X127889000Y-141097000D01*
X124815600Y-118110000D02*
X127889000Y-121183400D01*
X124460000Y-118110000D02*
X124815600Y-118110000D01*
X173990000Y-135890000D02*
X173634400Y-135890000D01*
X148590000Y-105410000D02*
X148590000Y-106631314D01*
X148145501Y-140779501D02*
X148590000Y-141224000D01*
X148590000Y-106631314D02*
X148145501Y-107075813D01*
X148145501Y-107075813D02*
X148145501Y-140779501D01*
X119380000Y-77470000D02*
X119380000Y-74930000D01*
D31*
X80264000Y-86487000D02*
X80264000Y-77978000D01*
G36*
X183966755Y-84195613D02*
X183636584Y-84525786D01*
X183471403Y-84772996D01*
X183413399Y-85064601D01*
X183413399Y-91311659D01*
X182909359Y-91211400D01*
X182850641Y-91211400D01*
X182524002Y-91276372D01*
X181102000Y-89854369D01*
X181102000Y-70139116D01*
X181345789Y-69976222D01*
X181610000Y-69580801D01*
X181874211Y-69976222D01*
X182118000Y-70139116D01*
X182118000Y-80001816D01*
X181790971Y-80220330D01*
X181466115Y-80706511D01*
X181352041Y-81280000D01*
X181466115Y-81853489D01*
X181790971Y-82339670D01*
X182277152Y-82664526D01*
X182850641Y-82778600D01*
X182909359Y-82778600D01*
X183433096Y-82674422D01*
X183471403Y-82867004D01*
X183636584Y-83114214D01*
X183966755Y-83444386D01*
X183892041Y-83820000D01*
X183966755Y-84195613D01*
X183966755Y-84195613D01*
G37*
X183966755Y-84195613D02*
X183636584Y-84525786D01*
X183471403Y-84772996D01*
X183413399Y-85064601D01*
X183413399Y-91311659D01*
X182909359Y-91211400D01*
X182850641Y-91211400D01*
X182524002Y-91276372D01*
X181102000Y-89854369D01*
X181102000Y-70139116D01*
X181345789Y-69976222D01*
X181610000Y-69580801D01*
X181874211Y-69976222D01*
X182118000Y-70139116D01*
X182118000Y-80001816D01*
X181790971Y-80220330D01*
X181466115Y-80706511D01*
X181352041Y-81280000D01*
X181466115Y-81853489D01*
X181790971Y-82339670D01*
X182277152Y-82664526D01*
X182850641Y-82778600D01*
X182909359Y-82778600D01*
X183433096Y-82674422D01*
X183471403Y-82867004D01*
X183636584Y-83114214D01*
X183966755Y-83444386D01*
X183892041Y-83820000D01*
X183966755Y-84195613D01*
G36*
X184190667Y-94400308D02*
X184006115Y-94676511D01*
X183892041Y-95250000D01*
X183966755Y-95625613D01*
X183636584Y-95955786D01*
X183471403Y-96202996D01*
X183413399Y-96494601D01*
X183413399Y-102741659D01*
X182909359Y-102641400D01*
X182850641Y-102641400D01*
X182524002Y-102706372D01*
X178562000Y-98744370D01*
X178562000Y-70139116D01*
X178805789Y-69976222D01*
X179070000Y-69580801D01*
X179334211Y-69976222D01*
X179578000Y-70139116D01*
X179578000Y-90170000D01*
X179636004Y-90461605D01*
X179801185Y-90708815D01*
X181426755Y-92334385D01*
X181352041Y-92710000D01*
X181466115Y-93283489D01*
X181790971Y-93769670D01*
X182277152Y-94094526D01*
X182850641Y-94208600D01*
X182909359Y-94208600D01*
X183482848Y-94094526D01*
X183723852Y-93933492D01*
X184190667Y-94400308D01*
X184190667Y-94400308D01*
G37*
X184190667Y-94400308D02*
X184006115Y-94676511D01*
X183892041Y-95250000D01*
X183966755Y-95625613D01*
X183636584Y-95955786D01*
X183471403Y-96202996D01*
X183413399Y-96494601D01*
X183413399Y-102741659D01*
X182909359Y-102641400D01*
X182850641Y-102641400D01*
X182524002Y-102706372D01*
X178562000Y-98744370D01*
X178562000Y-70139116D01*
X178805789Y-69976222D01*
X179070000Y-69580801D01*
X179334211Y-69976222D01*
X179578000Y-70139116D01*
X179578000Y-90170000D01*
X179636004Y-90461605D01*
X179801185Y-90708815D01*
X181426755Y-92334385D01*
X181352041Y-92710000D01*
X181466115Y-93283489D01*
X181790971Y-93769670D01*
X182277152Y-94094526D01*
X182850641Y-94208600D01*
X182909359Y-94208600D01*
X183482848Y-94094526D01*
X183723852Y-93933492D01*
X184190667Y-94400308D01*
G36*
X184658000Y-116879969D02*
X175801557Y-125736412D01*
X175802833Y-125730000D01*
X175739852Y-125413377D01*
X176052825Y-125100406D01*
X176052825Y-125100405D01*
X176218006Y-124853195D01*
X176276009Y-124561590D01*
X176276010Y-124561590D01*
X176276010Y-106578410D01*
X176218006Y-106286805D01*
X176052825Y-106039595D01*
X176052825Y-106039594D01*
X175739852Y-105726622D01*
X175802833Y-105410000D01*
X175694559Y-104865671D01*
X175386222Y-104404211D01*
X174990801Y-104139999D01*
X175386222Y-103875789D01*
X175694559Y-103414329D01*
X175802833Y-102870000D01*
X175739852Y-102553377D01*
X176052825Y-102240406D01*
X176052825Y-102240405D01*
X176218006Y-101993195D01*
X176276009Y-101701590D01*
X176276010Y-101701590D01*
X176276010Y-70231010D01*
X176230075Y-70000084D01*
X176265789Y-69976222D01*
X176530000Y-69580801D01*
X176794211Y-69976222D01*
X177038000Y-70139116D01*
X177038000Y-99060000D01*
X177096004Y-99351605D01*
X177261185Y-99598815D01*
X181426755Y-103764385D01*
X181352041Y-104140000D01*
X181466115Y-104713489D01*
X181790971Y-105199670D01*
X182277152Y-105524526D01*
X182850641Y-105638600D01*
X182909359Y-105638600D01*
X183482848Y-105524526D01*
X183723852Y-105363492D01*
X184190667Y-105830308D01*
X184006115Y-106106511D01*
X183892041Y-106680000D01*
X184006115Y-107253489D01*
X184330971Y-107739670D01*
X184658000Y-107958183D01*
X184658000Y-116879969D01*
X184658000Y-116879969D01*
G37*
X184658000Y-116879969D02*
X175801557Y-125736412D01*
X175802833Y-125730000D01*
X175739852Y-125413377D01*
X176052825Y-125100406D01*
X176052825Y-125100405D01*
X176218006Y-124853195D01*
X176276009Y-124561590D01*
X176276010Y-124561590D01*
X176276010Y-106578410D01*
X176218006Y-106286805D01*
X176052825Y-106039595D01*
X176052825Y-106039594D01*
X175739852Y-105726622D01*
X175802833Y-105410000D01*
X175694559Y-104865671D01*
X175386222Y-104404211D01*
X174990801Y-104139999D01*
X175386222Y-103875789D01*
X175694559Y-103414329D01*
X175802833Y-102870000D01*
X175739852Y-102553377D01*
X176052825Y-102240406D01*
X176052825Y-102240405D01*
X176218006Y-101993195D01*
X176276009Y-101701590D01*
X176276010Y-101701590D01*
X176276010Y-70231010D01*
X176230075Y-70000084D01*
X176265789Y-69976222D01*
X176530000Y-69580801D01*
X176794211Y-69976222D01*
X177038000Y-70139116D01*
X177038000Y-99060000D01*
X177096004Y-99351605D01*
X177261185Y-99598815D01*
X181426755Y-103764385D01*
X181352041Y-104140000D01*
X181466115Y-104713489D01*
X181790971Y-105199670D01*
X182277152Y-105524526D01*
X182850641Y-105638600D01*
X182909359Y-105638600D01*
X183482848Y-105524526D01*
X183723852Y-105363492D01*
X184190667Y-105830308D01*
X184006115Y-106106511D01*
X183892041Y-106680000D01*
X184006115Y-107253489D01*
X184330971Y-107739670D01*
X184658000Y-107958183D01*
X184658000Y-116879969D01*
G36*
X218821000Y-104926791D02*
X218378489Y-104631115D01*
X217805000Y-104517041D01*
X217231511Y-104631115D01*
X216745330Y-104955971D01*
X216535000Y-105270751D01*
X216324670Y-104955971D01*
X215838489Y-104631115D01*
X215265000Y-104517041D01*
X214691511Y-104631115D01*
X214205330Y-104955971D01*
X213880474Y-105442152D01*
X213766400Y-106015641D01*
X213766400Y-106074359D01*
X213781648Y-106151018D01*
X192532000Y-84901370D01*
X192532000Y-70291785D01*
X193040000Y-70392833D01*
X193584329Y-70284559D01*
X194045789Y-69976222D01*
X194354126Y-69514762D01*
X194462400Y-68970433D01*
X194462400Y-68189567D01*
X194354126Y-67645238D01*
X194045789Y-67183778D01*
X193992500Y-67148171D01*
X193992500Y-56973058D01*
X195936020Y-55029538D01*
X196012069Y-54953488D01*
X196317689Y-54827209D01*
X196621622Y-54523806D01*
X196786313Y-54127188D01*
X196786556Y-53848000D01*
X198693369Y-53848000D01*
X212033785Y-67188416D01*
X212033786Y-67188416D01*
X212071033Y-67213304D01*
X211931778Y-67241004D01*
X211832759Y-67307165D01*
X211684568Y-67406184D01*
X207741185Y-71349568D01*
X207576004Y-71596778D01*
X207518000Y-71888383D01*
X207518000Y-77467358D01*
X207365378Y-77619714D01*
X207200687Y-78016332D01*
X207200313Y-78445784D01*
X207364311Y-78842689D01*
X207667714Y-79146622D01*
X208064332Y-79311313D01*
X208493784Y-79311687D01*
X208890689Y-79147689D01*
X209194622Y-78844286D01*
X209359313Y-78447668D01*
X209359687Y-78018216D01*
X209195689Y-77621311D01*
X209042000Y-77467353D01*
X209042000Y-72204013D01*
X211837033Y-69408980D01*
X211963000Y-69535166D01*
X211963000Y-88646000D01*
X212021004Y-88937605D01*
X212186185Y-89184815D01*
X213100583Y-90099214D01*
X213100584Y-90099214D01*
X213347794Y-90264395D01*
X213639399Y-90322399D01*
X213856555Y-90322399D01*
X213766400Y-90775641D01*
X213766400Y-90834359D01*
X213880474Y-91407848D01*
X214205330Y-91894029D01*
X214476172Y-92075000D01*
X214205330Y-92255971D01*
X213880474Y-92742152D01*
X213766400Y-93315641D01*
X213766400Y-93374359D01*
X213880474Y-93947848D01*
X214205330Y-94434029D01*
X214476172Y-94615000D01*
X214205330Y-94795971D01*
X213880474Y-95282152D01*
X213766400Y-95855641D01*
X213766400Y-95914359D01*
X213880474Y-96487848D01*
X214205330Y-96974029D01*
X214476172Y-97155000D01*
X214205330Y-97335971D01*
X213880474Y-97822152D01*
X213766400Y-98395641D01*
X213766400Y-98454359D01*
X213880474Y-99027848D01*
X214205330Y-99514029D01*
X214476172Y-99695000D01*
X214205330Y-99875971D01*
X213880474Y-100362152D01*
X213766400Y-100935641D01*
X213766400Y-100994359D01*
X213880474Y-101567848D01*
X214205330Y-102054029D01*
X214691511Y-102378885D01*
X215265000Y-102492959D01*
X215838489Y-102378885D01*
X216324670Y-102054029D01*
X216535000Y-101739248D01*
X216745330Y-102054029D01*
X217231511Y-102378885D01*
X217805000Y-102492959D01*
X218378489Y-102378885D01*
X218821000Y-102083208D01*
X218821000Y-104926791D01*
X218821000Y-104926791D01*
G37*
X218821000Y-104926791D02*
X218378489Y-104631115D01*
X217805000Y-104517041D01*
X217231511Y-104631115D01*
X216745330Y-104955971D01*
X216535000Y-105270751D01*
X216324670Y-104955971D01*
X215838489Y-104631115D01*
X215265000Y-104517041D01*
X214691511Y-104631115D01*
X214205330Y-104955971D01*
X213880474Y-105442152D01*
X213766400Y-106015641D01*
X213766400Y-106074359D01*
X213781648Y-106151018D01*
X192532000Y-84901370D01*
X192532000Y-70291785D01*
X193040000Y-70392833D01*
X193584329Y-70284559D01*
X194045789Y-69976222D01*
X194354126Y-69514762D01*
X194462400Y-68970433D01*
X194462400Y-68189567D01*
X194354126Y-67645238D01*
X194045789Y-67183778D01*
X193992500Y-67148171D01*
X193992500Y-56973058D01*
X195936020Y-55029538D01*
X196012069Y-54953488D01*
X196317689Y-54827209D01*
X196621622Y-54523806D01*
X196786313Y-54127188D01*
X196786556Y-53848000D01*
X198693369Y-53848000D01*
X212033785Y-67188416D01*
X212033786Y-67188416D01*
X212071033Y-67213304D01*
X211931778Y-67241004D01*
X211832759Y-67307165D01*
X211684568Y-67406184D01*
X207741185Y-71349568D01*
X207576004Y-71596778D01*
X207518000Y-71888383D01*
X207518000Y-77467358D01*
X207365378Y-77619714D01*
X207200687Y-78016332D01*
X207200313Y-78445784D01*
X207364311Y-78842689D01*
X207667714Y-79146622D01*
X208064332Y-79311313D01*
X208493784Y-79311687D01*
X208890689Y-79147689D01*
X209194622Y-78844286D01*
X209359313Y-78447668D01*
X209359687Y-78018216D01*
X209195689Y-77621311D01*
X209042000Y-77467353D01*
X209042000Y-72204013D01*
X211837033Y-69408980D01*
X211963000Y-69535166D01*
X211963000Y-88646000D01*
X212021004Y-88937605D01*
X212186185Y-89184815D01*
X213100583Y-90099214D01*
X213100584Y-90099214D01*
X213347794Y-90264395D01*
X213639399Y-90322399D01*
X213856555Y-90322399D01*
X213766400Y-90775641D01*
X213766400Y-90834359D01*
X213880474Y-91407848D01*
X214205330Y-91894029D01*
X214476172Y-92075000D01*
X214205330Y-92255971D01*
X213880474Y-92742152D01*
X213766400Y-93315641D01*
X213766400Y-93374359D01*
X213880474Y-93947848D01*
X214205330Y-94434029D01*
X214476172Y-94615000D01*
X214205330Y-94795971D01*
X213880474Y-95282152D01*
X213766400Y-95855641D01*
X213766400Y-95914359D01*
X213880474Y-96487848D01*
X214205330Y-96974029D01*
X214476172Y-97155000D01*
X214205330Y-97335971D01*
X213880474Y-97822152D01*
X213766400Y-98395641D01*
X213766400Y-98454359D01*
X213880474Y-99027848D01*
X214205330Y-99514029D01*
X214476172Y-99695000D01*
X214205330Y-99875971D01*
X213880474Y-100362152D01*
X213766400Y-100935641D01*
X213766400Y-100994359D01*
X213880474Y-101567848D01*
X214205330Y-102054029D01*
X214691511Y-102378885D01*
X215265000Y-102492959D01*
X215838489Y-102378885D01*
X216324670Y-102054029D01*
X216535000Y-101739248D01*
X216745330Y-102054029D01*
X217231511Y-102378885D01*
X217805000Y-102492959D01*
X218378489Y-102378885D01*
X218821000Y-102083208D01*
X218821000Y-104926791D01*
G36*
X221565000Y-145365000D02*
X219303600Y-145365000D01*
X219303600Y-121314359D01*
X219303600Y-121255641D01*
X219202000Y-120744863D01*
X219202000Y-119285136D01*
X219303600Y-118774359D01*
X219303600Y-118715641D01*
X219202000Y-118204863D01*
X219202000Y-116745136D01*
X219303600Y-116234359D01*
X219303600Y-116175641D01*
X219202000Y-115664863D01*
X219202000Y-114205136D01*
X219303600Y-113694359D01*
X219303600Y-113635641D01*
X219202000Y-113124863D01*
X219202000Y-111665136D01*
X219303600Y-111154359D01*
X219303600Y-111095641D01*
X219202000Y-110584863D01*
X219202000Y-109125136D01*
X219303600Y-108614359D01*
X219303600Y-108555641D01*
X219202000Y-108044863D01*
X219202000Y-106585136D01*
X219303600Y-106074359D01*
X219303600Y-106015641D01*
X219202000Y-105504863D01*
X219202000Y-101505136D01*
X219303600Y-100994359D01*
X219303600Y-100935641D01*
X219202000Y-100424863D01*
X219202000Y-98965136D01*
X219303600Y-98454359D01*
X219303600Y-98395641D01*
X219202000Y-97884863D01*
X219202000Y-96425136D01*
X219303600Y-95914359D01*
X219303600Y-95855641D01*
X219202000Y-95344863D01*
X219202000Y-93885136D01*
X219303600Y-93374359D01*
X219303600Y-93315641D01*
X219202000Y-92804863D01*
X219202000Y-91345136D01*
X219303600Y-90834359D01*
X219303600Y-90775641D01*
X219202000Y-90264863D01*
X219202000Y-88805136D01*
X219303600Y-88294359D01*
X219303600Y-88235641D01*
X219202000Y-87724863D01*
X219202000Y-86265136D01*
X219303600Y-85754359D01*
X219303600Y-85695641D01*
X219202000Y-85184863D01*
X219202000Y-83725136D01*
X219303600Y-83214359D01*
X219303600Y-83155641D01*
X219202000Y-82644863D01*
X219202000Y-81185136D01*
X219303600Y-80674359D01*
X219303600Y-80615641D01*
X219202000Y-80104863D01*
X219202000Y-78645136D01*
X219303600Y-78134359D01*
X219303600Y-78075641D01*
X219202000Y-77564863D01*
X219202000Y-76105136D01*
X219303600Y-75594359D01*
X219303600Y-75535641D01*
X219202000Y-75024863D01*
X219202000Y-73565136D01*
X219303600Y-73054359D01*
X219303600Y-72995641D01*
X219202000Y-72484863D01*
X219202000Y-71025136D01*
X219303600Y-70514359D01*
X219303600Y-70455641D01*
X219202000Y-69944863D01*
X219202000Y-68485136D01*
X219303600Y-67974359D01*
X219303600Y-67915641D01*
X219202000Y-67404863D01*
X219202000Y-65945136D01*
X219303600Y-65434359D01*
X219303600Y-65375641D01*
X219202000Y-64864863D01*
X219202000Y-49403000D01*
X218821000Y-49403000D01*
X218821000Y-64286791D01*
X218378489Y-63991115D01*
X217805000Y-63877041D01*
X217781240Y-63881767D01*
X217781240Y-52155211D01*
X217456910Y-51370273D01*
X216856886Y-50769200D01*
X216072515Y-50443501D01*
X215223211Y-50442760D01*
X214438273Y-50767090D01*
X213837200Y-51367114D01*
X213511501Y-52151485D01*
X213510760Y-53000789D01*
X213835090Y-53785727D01*
X214435114Y-54386800D01*
X215219485Y-54712499D01*
X216068789Y-54713240D01*
X216853727Y-54388910D01*
X217454800Y-53788886D01*
X217780499Y-53004515D01*
X217781240Y-52155211D01*
X217781240Y-63881767D01*
X217429385Y-63951755D01*
X204754815Y-51277185D01*
X204507605Y-51112004D01*
X204216000Y-51054000D01*
X193524021Y-51054000D01*
X193523971Y-51053990D01*
X192556029Y-51053990D01*
X192555978Y-51054000D01*
X190984021Y-51054000D01*
X190983971Y-51053990D01*
X190016029Y-51053990D01*
X190015978Y-51054000D01*
X188444021Y-51054000D01*
X188443971Y-51053990D01*
X187476029Y-51053990D01*
X187475978Y-51054000D01*
X185904021Y-51054000D01*
X185903971Y-51053990D01*
X184936029Y-51053990D01*
X184935978Y-51054000D01*
X183364021Y-51054000D01*
X183363971Y-51053990D01*
X182396029Y-51053990D01*
X182395978Y-51054000D01*
X180824021Y-51054000D01*
X180823971Y-51053990D01*
X179856029Y-51053990D01*
X179855978Y-51054000D01*
X178284021Y-51054000D01*
X178283971Y-51053990D01*
X177316029Y-51053990D01*
X177315978Y-51054000D01*
X175744021Y-51054000D01*
X175743971Y-51053990D01*
X174776029Y-51053990D01*
X174775978Y-51054000D01*
X173204021Y-51054000D01*
X173203971Y-51053990D01*
X172236029Y-51053990D01*
X172235978Y-51054000D01*
X170664021Y-51054000D01*
X170663971Y-51053990D01*
X169696029Y-51053990D01*
X169695978Y-51054000D01*
X168124021Y-51054000D01*
X168123971Y-51053990D01*
X167156029Y-51053990D01*
X167155978Y-51054000D01*
X165584021Y-51054000D01*
X165583971Y-51053990D01*
X164616029Y-51053990D01*
X164615978Y-51054000D01*
X163044021Y-51054000D01*
X163043971Y-51053990D01*
X162076029Y-51053990D01*
X162075978Y-51054000D01*
X161188400Y-51054000D01*
X160896795Y-51112004D01*
X160649585Y-51277185D01*
X160336622Y-51590147D01*
X160020000Y-51527167D01*
X159475671Y-51635441D01*
X159014211Y-51943778D01*
X158750000Y-52339198D01*
X158485789Y-51943778D01*
X158024329Y-51635441D01*
X157480000Y-51527167D01*
X156935671Y-51635441D01*
X156474211Y-51943778D01*
X156210000Y-52339198D01*
X155945789Y-51943778D01*
X155484329Y-51635441D01*
X154940000Y-51527167D01*
X154395671Y-51635441D01*
X153934211Y-51943778D01*
X153670000Y-52339198D01*
X153405789Y-51943778D01*
X152944329Y-51635441D01*
X152400000Y-51527167D01*
X151855671Y-51635441D01*
X151394211Y-51943778D01*
X151130000Y-52339198D01*
X150865789Y-51943778D01*
X150404329Y-51635441D01*
X149860000Y-51527167D01*
X149315671Y-51635441D01*
X148854211Y-51943778D01*
X148590000Y-52339198D01*
X148325789Y-51943778D01*
X147864329Y-51635441D01*
X147320000Y-51527167D01*
X146775671Y-51635441D01*
X146314211Y-51943778D01*
X146050000Y-52339198D01*
X145785789Y-51943778D01*
X145324329Y-51635441D01*
X144780000Y-51527167D01*
X144235671Y-51635441D01*
X143774211Y-51943778D01*
X143465874Y-52405238D01*
X143357600Y-52949567D01*
X143357600Y-53730433D01*
X143465874Y-54274762D01*
X143774211Y-54736222D01*
X144235671Y-55044559D01*
X144780000Y-55152833D01*
X145324329Y-55044559D01*
X145785789Y-54736222D01*
X146050000Y-54340801D01*
X146314211Y-54736222D01*
X146775671Y-55044559D01*
X147320000Y-55152833D01*
X147864329Y-55044559D01*
X148325789Y-54736222D01*
X148590000Y-54340801D01*
X148854211Y-54736222D01*
X149315671Y-55044559D01*
X149860000Y-55152833D01*
X150404329Y-55044559D01*
X150865789Y-54736222D01*
X151130000Y-54340801D01*
X151394211Y-54736222D01*
X151855671Y-55044559D01*
X152400000Y-55152833D01*
X152944329Y-55044559D01*
X153405789Y-54736222D01*
X153670000Y-54340801D01*
X153934211Y-54736222D01*
X154362935Y-55022685D01*
X154230625Y-55049004D01*
X153983415Y-55214185D01*
X138185433Y-71012166D01*
X138185433Y-62752021D01*
X137709068Y-61599129D01*
X136827771Y-60716292D01*
X135675712Y-60237915D01*
X134428281Y-60236827D01*
X133275389Y-60713192D01*
X132392552Y-61594489D01*
X131914175Y-62746548D01*
X131913087Y-63993979D01*
X132389452Y-65146871D01*
X133270749Y-66029708D01*
X134422808Y-66508085D01*
X135670239Y-66509173D01*
X136823131Y-66032808D01*
X137705968Y-65151511D01*
X138184345Y-63999452D01*
X138185433Y-62752021D01*
X138185433Y-71012166D01*
X133799777Y-75397822D01*
X133892833Y-74930000D01*
X133784559Y-74385671D01*
X133476222Y-73924211D01*
X133014762Y-73615874D01*
X132470433Y-73507600D01*
X131689567Y-73507600D01*
X131145238Y-73615874D01*
X130683778Y-73924211D01*
X130375441Y-74385671D01*
X130267167Y-74930000D01*
X130375441Y-75474329D01*
X130683778Y-75935789D01*
X131145238Y-76244126D01*
X131689567Y-76352400D01*
X132470433Y-76352400D01*
X133014762Y-76244126D01*
X133476222Y-75935789D01*
X133505777Y-75891555D01*
X133477000Y-76036230D01*
X133477000Y-79005375D01*
X133476222Y-79004211D01*
X133014762Y-78695874D01*
X132470433Y-78587600D01*
X131689567Y-78587600D01*
X131145238Y-78695874D01*
X130683778Y-79004211D01*
X130375441Y-79465671D01*
X130267167Y-80010000D01*
X130375441Y-80554329D01*
X130683778Y-81015789D01*
X131145238Y-81324126D01*
X131689567Y-81432400D01*
X132470433Y-81432400D01*
X133014762Y-81324126D01*
X133476222Y-81015789D01*
X133477000Y-81014624D01*
X133477000Y-84085375D01*
X133476222Y-84084211D01*
X133014762Y-83775874D01*
X132470433Y-83667600D01*
X131689567Y-83667600D01*
X131145238Y-83775874D01*
X130683778Y-84084211D01*
X130375441Y-84545671D01*
X130267167Y-85090000D01*
X130375441Y-85634329D01*
X130683778Y-86095789D01*
X131145238Y-86404126D01*
X131689567Y-86512400D01*
X132470433Y-86512400D01*
X133014762Y-86404126D01*
X133476222Y-86095789D01*
X133477000Y-86094624D01*
X133477000Y-89165375D01*
X133476222Y-89164211D01*
X133014762Y-88855874D01*
X132470433Y-88747600D01*
X131689567Y-88747600D01*
X131145238Y-88855874D01*
X130683778Y-89164211D01*
X130375441Y-89625671D01*
X130267167Y-90170000D01*
X130375441Y-90714329D01*
X130683778Y-91175789D01*
X131145238Y-91484126D01*
X131689567Y-91592400D01*
X132470433Y-91592400D01*
X133014762Y-91484126D01*
X133159323Y-91387533D01*
X133159313Y-91399784D01*
X133323311Y-91796689D01*
X133626714Y-92100622D01*
X134023332Y-92265313D01*
X134452784Y-92265687D01*
X134849689Y-92101689D01*
X135153622Y-91798286D01*
X135318313Y-91401668D01*
X135318687Y-90972216D01*
X135154689Y-90575311D01*
X135001000Y-90421353D01*
X135001000Y-83179660D01*
X135166332Y-83248313D01*
X135595784Y-83248687D01*
X135992689Y-83084689D01*
X136296622Y-82781286D01*
X136461313Y-82384668D01*
X136461502Y-82167127D01*
X136485040Y-82143590D01*
X136698007Y-82143590D01*
X136617167Y-82550000D01*
X136725441Y-83094329D01*
X137033778Y-83555789D01*
X137429198Y-83820000D01*
X137033778Y-84084211D01*
X136725441Y-84545671D01*
X136617167Y-85090000D01*
X136725441Y-85634329D01*
X137033778Y-86095789D01*
X137429198Y-86359999D01*
X137033778Y-86624211D01*
X136725441Y-87085671D01*
X136617167Y-87630000D01*
X136725441Y-88174329D01*
X137033778Y-88635789D01*
X137429198Y-88899999D01*
X137033778Y-89164211D01*
X136725441Y-89625671D01*
X136617167Y-90170000D01*
X136725441Y-90714329D01*
X137033778Y-91175789D01*
X137495238Y-91484126D01*
X138039567Y-91592400D01*
X138820433Y-91592400D01*
X139364762Y-91484126D01*
X139826222Y-91175789D01*
X140134559Y-90714329D01*
X140242833Y-90170000D01*
X140134559Y-89625671D01*
X139826222Y-89164211D01*
X139430801Y-88899999D01*
X139826222Y-88635789D01*
X140134559Y-88174329D01*
X140242833Y-87630000D01*
X140134559Y-87085671D01*
X139826222Y-86624211D01*
X139430801Y-86359999D01*
X139826222Y-86095789D01*
X140134559Y-85634329D01*
X140242833Y-85090000D01*
X140134559Y-84545671D01*
X139826222Y-84084211D01*
X139430801Y-83819999D01*
X139826222Y-83555789D01*
X140134559Y-83094329D01*
X140242833Y-82550000D01*
X140134559Y-82005671D01*
X140050605Y-81880024D01*
X142111130Y-79819499D01*
X142326784Y-79819687D01*
X142723689Y-79655689D01*
X143027622Y-79352286D01*
X143192313Y-78955668D01*
X143192687Y-78526216D01*
X143028689Y-78129311D01*
X142725286Y-77825378D01*
X142328668Y-77660687D01*
X141899216Y-77660313D01*
X141502311Y-77824311D01*
X141198378Y-78127714D01*
X141033687Y-78524332D01*
X141033497Y-78741872D01*
X140163616Y-79611753D01*
X140134559Y-79465671D01*
X139826222Y-79004211D01*
X139653986Y-78889126D01*
X139815123Y-78857863D01*
X140027927Y-78718073D01*
X140170377Y-78507040D01*
X140220440Y-78257400D01*
X140220440Y-76682600D01*
X140173463Y-76440477D01*
X140033673Y-76227673D01*
X139822640Y-76085223D01*
X139573000Y-76035160D01*
X137287000Y-76035160D01*
X137044877Y-76082137D01*
X136832073Y-76221927D01*
X136689623Y-76432960D01*
X136639560Y-76682600D01*
X136639560Y-78257400D01*
X136686537Y-78499523D01*
X136826327Y-78712327D01*
X137037360Y-78854777D01*
X137206621Y-78888720D01*
X137033778Y-79004211D01*
X136725441Y-79465671D01*
X136617167Y-80010000D01*
X136725441Y-80554329D01*
X136769046Y-80619590D01*
X136169410Y-80619590D01*
X135877805Y-80677594D01*
X135630595Y-80842775D01*
X135383869Y-81089500D01*
X135168216Y-81089313D01*
X135001000Y-81158405D01*
X135001000Y-76351860D01*
X154837860Y-56515000D01*
X157962600Y-56515000D01*
X157962600Y-56514999D01*
X158254204Y-56456996D01*
X158254205Y-56456996D01*
X158501415Y-56291815D01*
X159703377Y-55089852D01*
X160020000Y-55152833D01*
X160564329Y-55044559D01*
X161025789Y-54736222D01*
X161290000Y-54340801D01*
X161554211Y-54736222D01*
X162015671Y-55044559D01*
X162560000Y-55152833D01*
X163104329Y-55044559D01*
X163565789Y-54736222D01*
X163830000Y-54340801D01*
X164094211Y-54736222D01*
X164555671Y-55044559D01*
X165100000Y-55152833D01*
X165644329Y-55044559D01*
X166105789Y-54736222D01*
X166370000Y-54340801D01*
X166634211Y-54736222D01*
X167095671Y-55044559D01*
X167640000Y-55152833D01*
X168184329Y-55044559D01*
X168645789Y-54736222D01*
X168910000Y-54340801D01*
X169174211Y-54736222D01*
X169635671Y-55044559D01*
X170180000Y-55152833D01*
X170724329Y-55044559D01*
X171185789Y-54736222D01*
X171450000Y-54340801D01*
X171714211Y-54736222D01*
X172175671Y-55044559D01*
X172720000Y-55152833D01*
X173264329Y-55044559D01*
X173725789Y-54736222D01*
X173990000Y-54340801D01*
X174254211Y-54736222D01*
X174715671Y-55044559D01*
X175260000Y-55152833D01*
X175804329Y-55044559D01*
X176265789Y-54736222D01*
X176530000Y-54340801D01*
X176794211Y-54736222D01*
X177255671Y-55044559D01*
X177800000Y-55152833D01*
X178344329Y-55044559D01*
X178805789Y-54736222D01*
X179070000Y-54340801D01*
X179334211Y-54736222D01*
X179795671Y-55044559D01*
X180340000Y-55152833D01*
X180884329Y-55044559D01*
X181345789Y-54736222D01*
X181610000Y-54340801D01*
X181874211Y-54736222D01*
X182335671Y-55044559D01*
X182880000Y-55152833D01*
X183424329Y-55044559D01*
X183473843Y-55011474D01*
X183992185Y-55529816D01*
X184239395Y-55694996D01*
X184239396Y-55694997D01*
X184531000Y-55753000D01*
X190565370Y-55753000D01*
X191008000Y-56195630D01*
X191008000Y-66868214D01*
X190500000Y-66767167D01*
X189955671Y-66875441D01*
X189494211Y-67183778D01*
X189293731Y-67483817D01*
X189293731Y-64505914D01*
X189091146Y-64015620D01*
X188716353Y-63640173D01*
X188226413Y-63436732D01*
X187695914Y-63436269D01*
X187205620Y-63638854D01*
X186830173Y-64013647D01*
X186626732Y-64503587D01*
X186626269Y-65034086D01*
X186828854Y-65524380D01*
X187203647Y-65899827D01*
X187693587Y-66103268D01*
X188224086Y-66103731D01*
X188714380Y-65901146D01*
X189089827Y-65526353D01*
X189293268Y-65036413D01*
X189293731Y-64505914D01*
X189293731Y-67483817D01*
X189230000Y-67579198D01*
X188965789Y-67183778D01*
X188504329Y-66875441D01*
X187960000Y-66767167D01*
X187643377Y-66830147D01*
X187330405Y-66517175D01*
X187083195Y-66351994D01*
X186791590Y-66293990D01*
X168808410Y-66293990D01*
X168516805Y-66351994D01*
X168269594Y-66517175D01*
X167956622Y-66830147D01*
X167640000Y-66767167D01*
X167095671Y-66875441D01*
X166634211Y-67183778D01*
X166370000Y-67579198D01*
X166105789Y-67183778D01*
X165644329Y-66875441D01*
X165100000Y-66767167D01*
X164555671Y-66875441D01*
X164094211Y-67183778D01*
X163830000Y-67579198D01*
X163565789Y-67183778D01*
X163104329Y-66875441D01*
X162560000Y-66767167D01*
X162015671Y-66875441D01*
X161554211Y-67183778D01*
X161290000Y-67579198D01*
X161025789Y-67183778D01*
X160564329Y-66875441D01*
X160020000Y-66767167D01*
X159475671Y-66875441D01*
X159014211Y-67183778D01*
X158750000Y-67579198D01*
X158485789Y-67183778D01*
X158024329Y-66875441D01*
X157480000Y-66767167D01*
X156935671Y-66875441D01*
X156474211Y-67183778D01*
X156210000Y-67579198D01*
X155945789Y-67183778D01*
X155484329Y-66875441D01*
X154940000Y-66767167D01*
X154395671Y-66875441D01*
X153934211Y-67183778D01*
X153670000Y-67579198D01*
X153405789Y-67183778D01*
X152944329Y-66875441D01*
X152400000Y-66767167D01*
X151855671Y-66875441D01*
X151394211Y-67183778D01*
X151130000Y-67579198D01*
X150865789Y-67183778D01*
X150404329Y-66875441D01*
X149860000Y-66767167D01*
X149315671Y-66875441D01*
X148854211Y-67183778D01*
X148590000Y-67579198D01*
X148325789Y-67183778D01*
X147864329Y-66875441D01*
X147320000Y-66767167D01*
X146775671Y-66875441D01*
X146314211Y-67183778D01*
X146005874Y-67645238D01*
X145897600Y-68189567D01*
X145897600Y-68970433D01*
X146005874Y-69514762D01*
X146314211Y-69976222D01*
X146775671Y-70284559D01*
X147320000Y-70392833D01*
X147636622Y-70329852D01*
X150393399Y-73086629D01*
X150393399Y-75958960D01*
X148996400Y-75958960D01*
X148754277Y-76005937D01*
X148541473Y-76145727D01*
X148399023Y-76356760D01*
X148366788Y-76517500D01*
X148336000Y-76517500D01*
X147481828Y-76517500D01*
X147446222Y-76464211D01*
X147002500Y-76167726D01*
X147002500Y-76073002D01*
X147002500Y-73323371D01*
X147179827Y-73146353D01*
X147383268Y-72656413D01*
X147383731Y-72125914D01*
X147181146Y-71635620D01*
X146806353Y-71260173D01*
X146316413Y-71056732D01*
X145785914Y-71056269D01*
X145295620Y-71258854D01*
X144920173Y-71633647D01*
X144716732Y-72123587D01*
X144716269Y-72654086D01*
X144918854Y-73144380D01*
X145097500Y-73323337D01*
X145097500Y-76073002D01*
X145097500Y-76167726D01*
X144653778Y-76464211D01*
X144345441Y-76925671D01*
X144237167Y-77470000D01*
X144345441Y-78014329D01*
X144653778Y-78475789D01*
X145049198Y-78740000D01*
X144653778Y-79004211D01*
X144345441Y-79465671D01*
X144237167Y-80010000D01*
X144345441Y-80554329D01*
X144653778Y-81015789D01*
X145049198Y-81280000D01*
X144653778Y-81544211D01*
X144345441Y-82005671D01*
X144237167Y-82550000D01*
X144345441Y-83094329D01*
X144653778Y-83555789D01*
X145049198Y-83819999D01*
X144653778Y-84084211D01*
X144345441Y-84545671D01*
X144237167Y-85090000D01*
X144345441Y-85634329D01*
X144653778Y-86095789D01*
X145049198Y-86359999D01*
X144653778Y-86624211D01*
X144345441Y-87085671D01*
X144237167Y-87630000D01*
X144345441Y-88174329D01*
X144653778Y-88635789D01*
X145049198Y-88899999D01*
X144653778Y-89164211D01*
X144345441Y-89625671D01*
X144237167Y-90170000D01*
X144345441Y-90714329D01*
X144653778Y-91175789D01*
X145049198Y-91439999D01*
X144653778Y-91704211D01*
X144345441Y-92165671D01*
X144237167Y-92710000D01*
X144345441Y-93254329D01*
X144653778Y-93715789D01*
X145115238Y-94024126D01*
X145366828Y-94074170D01*
X145511185Y-94290215D01*
X149225000Y-98004030D01*
X149225000Y-101358960D01*
X147726400Y-101358960D01*
X147484277Y-101405937D01*
X147271473Y-101545727D01*
X147129023Y-101756760D01*
X147120731Y-101798104D01*
X146652848Y-101485474D01*
X146079359Y-101371400D01*
X146020641Y-101371400D01*
X145447152Y-101485474D01*
X144960971Y-101810330D01*
X144780000Y-102081172D01*
X144599029Y-101810330D01*
X144112848Y-101485474D01*
X143539359Y-101371400D01*
X143480641Y-101371400D01*
X142907152Y-101485474D01*
X142420971Y-101810330D01*
X142096115Y-102296511D01*
X141982041Y-102870000D01*
X142056755Y-103245614D01*
X142025959Y-103276410D01*
X133811992Y-103276410D01*
X133892833Y-102870000D01*
X133784559Y-102325671D01*
X133476222Y-101864211D01*
X133014762Y-101555874D01*
X132470433Y-101447600D01*
X131689567Y-101447600D01*
X131145238Y-101555874D01*
X130683778Y-101864211D01*
X130375441Y-102325671D01*
X130267167Y-102870000D01*
X130348007Y-103276410D01*
X129480310Y-103276410D01*
X129480310Y-65172862D01*
X129480310Y-64610978D01*
X129374840Y-64080743D01*
X129074486Y-63631232D01*
X128624975Y-63330878D01*
X128094740Y-63225408D01*
X127564505Y-63330878D01*
X127114994Y-63631232D01*
X126814640Y-64080743D01*
X126710440Y-64604593D01*
X126606240Y-64080743D01*
X126305886Y-63631232D01*
X125862550Y-63335004D01*
X125941758Y-63255796D01*
X126180205Y-63415122D01*
X126710440Y-63520592D01*
X127240675Y-63415122D01*
X127690186Y-63114768D01*
X127990540Y-62665257D01*
X128096010Y-62135022D01*
X128096010Y-61573138D01*
X127990540Y-61042903D01*
X127690186Y-60593392D01*
X127240675Y-60293038D01*
X126710440Y-60187568D01*
X126180205Y-60293038D01*
X125730694Y-60593392D01*
X125430340Y-61042903D01*
X125324870Y-61573138D01*
X125219400Y-61042903D01*
X124919046Y-60593392D01*
X124469535Y-60293038D01*
X123939300Y-60187568D01*
X123409065Y-60293038D01*
X122959554Y-60593392D01*
X122659200Y-61042903D01*
X122555000Y-61566753D01*
X122450800Y-61042903D01*
X122150446Y-60593392D01*
X121700935Y-60293038D01*
X121170700Y-60187568D01*
X120640465Y-60293038D01*
X120190954Y-60593392D01*
X119890600Y-61042903D01*
X119785130Y-61573138D01*
X119679660Y-61042903D01*
X119379306Y-60593392D01*
X118929795Y-60293038D01*
X118399560Y-60187568D01*
X117869325Y-60293038D01*
X117419814Y-60593392D01*
X117119460Y-61042903D01*
X117013990Y-61573138D01*
X117013990Y-62135022D01*
X117119460Y-62665257D01*
X117419814Y-63114768D01*
X117869325Y-63415122D01*
X118399560Y-63520592D01*
X118929795Y-63415122D01*
X119379306Y-63114768D01*
X119679660Y-62665257D01*
X119785130Y-62135022D01*
X119890600Y-62665257D01*
X120190954Y-63114768D01*
X120408700Y-63260261D01*
X120408700Y-63356490D01*
X120408700Y-63394091D01*
X120314095Y-63330878D01*
X119783860Y-63225408D01*
X119253625Y-63330878D01*
X118804114Y-63631232D01*
X118503760Y-64080743D01*
X118399560Y-64604593D01*
X118295360Y-64080743D01*
X117995006Y-63631232D01*
X117545495Y-63330878D01*
X117015260Y-63225408D01*
X116485025Y-63330878D01*
X116035514Y-63631232D01*
X115735160Y-64080743D01*
X115629690Y-64610978D01*
X115629690Y-65172862D01*
X115735160Y-65703097D01*
X116035514Y-66152608D01*
X116253260Y-66298101D01*
X116253260Y-69799182D01*
X116052378Y-69999714D01*
X115887687Y-70396332D01*
X115887313Y-70825784D01*
X116051311Y-71222689D01*
X116354714Y-71526622D01*
X116751332Y-71691313D01*
X117180784Y-71691687D01*
X117577689Y-71527689D01*
X117881622Y-71224286D01*
X118046313Y-70827668D01*
X118046687Y-70398216D01*
X117882689Y-70001311D01*
X117777260Y-69895697D01*
X117777260Y-66298101D01*
X117995006Y-66152608D01*
X118295360Y-65703097D01*
X118399560Y-65179246D01*
X118503760Y-65703097D01*
X118804114Y-66152608D01*
X118999000Y-66282826D01*
X118999000Y-69148868D01*
X118846378Y-69301224D01*
X118681687Y-69697842D01*
X118681313Y-70127294D01*
X118845311Y-70524199D01*
X119069670Y-70748950D01*
X113196913Y-76621707D01*
X113196913Y-62752021D01*
X112720548Y-61599129D01*
X111839251Y-60716292D01*
X110687192Y-60237915D01*
X109439761Y-60236827D01*
X108286869Y-60713192D01*
X107404032Y-61594489D01*
X106925655Y-62746548D01*
X106924567Y-63993979D01*
X107400932Y-65146871D01*
X108282229Y-66029708D01*
X109434288Y-66508085D01*
X110681719Y-66509173D01*
X111834611Y-66032808D01*
X112717448Y-65151511D01*
X113195825Y-63999452D01*
X113196913Y-62752021D01*
X113196913Y-76621707D01*
X112953088Y-76865533D01*
X112891146Y-76715620D01*
X112516353Y-76340173D01*
X112178553Y-76199906D01*
X112514380Y-76061146D01*
X112889827Y-75686353D01*
X113093268Y-75196413D01*
X113093731Y-74665914D01*
X112891146Y-74175620D01*
X112516353Y-73800173D01*
X112026413Y-73596732D01*
X111495914Y-73596269D01*
X111005620Y-73798854D01*
X110630173Y-74173647D01*
X110426732Y-74663587D01*
X110426269Y-75194086D01*
X110628854Y-75684380D01*
X111003647Y-76059827D01*
X111341446Y-76200093D01*
X111005620Y-76338854D01*
X110630173Y-76713647D01*
X110426732Y-77203587D01*
X110426269Y-77734086D01*
X110448339Y-77787501D01*
X108496099Y-77787501D01*
X108426941Y-77801257D01*
X108492833Y-77470000D01*
X108384559Y-76925671D01*
X108076222Y-76464211D01*
X107680801Y-76200000D01*
X108076222Y-75935789D01*
X108384559Y-75474329D01*
X108492833Y-74930000D01*
X108384559Y-74385671D01*
X108076222Y-73924211D01*
X107614762Y-73615874D01*
X107070433Y-73507600D01*
X106289567Y-73507600D01*
X105745238Y-73615874D01*
X105326377Y-73895746D01*
X105165433Y-73734802D01*
X105165433Y-62752021D01*
X104689068Y-61599129D01*
X103807771Y-60716292D01*
X102655712Y-60237915D01*
X101408281Y-60236827D01*
X100255389Y-60713192D01*
X99372552Y-61594489D01*
X98894175Y-62746548D01*
X98893087Y-63993979D01*
X99369452Y-65146871D01*
X100250749Y-66029708D01*
X101402808Y-66508085D01*
X102650239Y-66509173D01*
X103803131Y-66032808D01*
X104685968Y-65151511D01*
X105164345Y-63999452D01*
X105165433Y-62752021D01*
X105165433Y-73734802D01*
X100106815Y-68676185D01*
X99859605Y-68511004D01*
X99568000Y-68453000D01*
X93339644Y-68453000D01*
X93408313Y-68287628D01*
X93408687Y-67858176D01*
X93244689Y-67461271D01*
X93068140Y-67284413D01*
X93068140Y-66298101D01*
X93285886Y-66152608D01*
X93586240Y-65703097D01*
X93690440Y-65179246D01*
X93794640Y-65703097D01*
X94094994Y-66152608D01*
X94312740Y-66298101D01*
X94312740Y-66530013D01*
X94208378Y-66634194D01*
X94043687Y-67030812D01*
X94043313Y-67460264D01*
X94207311Y-67857169D01*
X94510714Y-68161102D01*
X94907332Y-68325793D01*
X95336784Y-68326167D01*
X95733689Y-68162169D01*
X96037622Y-67858766D01*
X96202313Y-67462148D01*
X96202687Y-67032696D01*
X96038689Y-66635791D01*
X95836740Y-66433489D01*
X95836740Y-66298101D01*
X96054486Y-66152608D01*
X96354840Y-65703097D01*
X96460310Y-65172862D01*
X96460310Y-64610978D01*
X96354840Y-64080743D01*
X96054486Y-63631232D01*
X95604975Y-63330878D01*
X95074740Y-63225408D01*
X94544505Y-63330878D01*
X94094994Y-63631232D01*
X93794640Y-64080743D01*
X93690440Y-64604593D01*
X93586240Y-64080743D01*
X93285886Y-63631232D01*
X92836375Y-63330878D01*
X92306140Y-63225408D01*
X91775905Y-63330878D01*
X91501094Y-63514500D01*
X91470815Y-63469185D01*
X91422191Y-63420561D01*
X91449535Y-63415122D01*
X91899046Y-63114768D01*
X92199400Y-62665257D01*
X92304870Y-62135022D01*
X92410340Y-62665257D01*
X92710694Y-63114768D01*
X93160205Y-63415122D01*
X93690440Y-63520592D01*
X94220675Y-63415122D01*
X94670186Y-63114768D01*
X94970540Y-62665257D01*
X95076010Y-62135022D01*
X95076010Y-61573138D01*
X94970540Y-61042903D01*
X94670186Y-60593392D01*
X94452440Y-60447898D01*
X94452440Y-59283619D01*
X94640622Y-59095766D01*
X94805313Y-58699148D01*
X94805687Y-58269696D01*
X94641689Y-57872791D01*
X94338286Y-57568858D01*
X93941668Y-57404167D01*
X93512216Y-57403793D01*
X93115311Y-57567791D01*
X92811378Y-57871194D01*
X92646687Y-58267812D01*
X92646313Y-58697264D01*
X92810311Y-59094169D01*
X92928440Y-59212504D01*
X92928440Y-60447898D01*
X92710694Y-60593392D01*
X92410340Y-61042903D01*
X92304870Y-61573138D01*
X92199400Y-61042903D01*
X91899046Y-60593392D01*
X91681300Y-60447898D01*
X91681300Y-60149799D01*
X91846622Y-59984766D01*
X92011313Y-59588148D01*
X92011687Y-59158696D01*
X91847689Y-58761791D01*
X91544286Y-58457858D01*
X91147668Y-58293167D01*
X90718216Y-58292793D01*
X90321311Y-58456791D01*
X90017378Y-58760194D01*
X89852687Y-59156812D01*
X89852313Y-59586264D01*
X90016311Y-59983169D01*
X90157300Y-60124404D01*
X90157300Y-60447898D01*
X89939554Y-60593392D01*
X89639200Y-61042903D01*
X89539066Y-61546311D01*
X89529687Y-61540045D01*
X89430800Y-61042903D01*
X89130446Y-60593392D01*
X88680935Y-60293038D01*
X88150700Y-60187568D01*
X87620465Y-60293038D01*
X87170954Y-60593392D01*
X86870600Y-61042903D01*
X86765130Y-61573138D01*
X86659660Y-61042903D01*
X86359306Y-60593392D01*
X85909795Y-60293038D01*
X85379560Y-60187568D01*
X84849325Y-60293038D01*
X84399814Y-60593392D01*
X84099460Y-61042903D01*
X83993990Y-61573138D01*
X83993990Y-62135022D01*
X84099460Y-62665257D01*
X84399814Y-63114768D01*
X84849325Y-63415122D01*
X85379560Y-63520592D01*
X85909795Y-63415122D01*
X86359306Y-63114768D01*
X86659660Y-62665257D01*
X86765130Y-62135022D01*
X86870600Y-62665257D01*
X87170954Y-63114768D01*
X87620465Y-63415122D01*
X88150700Y-63520592D01*
X88680935Y-63415122D01*
X89028953Y-63182583D01*
X89148631Y-63302261D01*
X89004765Y-63330878D01*
X88555254Y-63631232D01*
X88254900Y-64080743D01*
X88149430Y-64610978D01*
X88043960Y-64080743D01*
X87743606Y-63631232D01*
X87294095Y-63330878D01*
X86763860Y-63225408D01*
X86233625Y-63330878D01*
X85784114Y-63631232D01*
X85483760Y-64080743D01*
X85379560Y-64604593D01*
X85275360Y-64080743D01*
X84975006Y-63631232D01*
X84525495Y-63330878D01*
X83995260Y-63225408D01*
X83465025Y-63330878D01*
X83015514Y-63631232D01*
X82715160Y-64080743D01*
X82609690Y-64610978D01*
X82609690Y-65172862D01*
X82715160Y-65703097D01*
X83015514Y-66152608D01*
X83233260Y-66298101D01*
X83233260Y-69799182D01*
X83032378Y-69999714D01*
X82867687Y-70396332D01*
X82867313Y-70825784D01*
X83031311Y-71222689D01*
X83334714Y-71526622D01*
X83731332Y-71691313D01*
X84160784Y-71691687D01*
X84557689Y-71527689D01*
X84861622Y-71224286D01*
X85026313Y-70827668D01*
X85026687Y-70398216D01*
X84862689Y-70001311D01*
X84757260Y-69895697D01*
X84757260Y-66298101D01*
X84975006Y-66152608D01*
X85275360Y-65703097D01*
X85379560Y-65179246D01*
X85483760Y-65703097D01*
X85784114Y-66152608D01*
X86001860Y-66298101D01*
X86001860Y-68935538D01*
X85826378Y-69110714D01*
X85661687Y-69507332D01*
X85661313Y-69936784D01*
X85825311Y-70333689D01*
X85979000Y-70487646D01*
X85979000Y-80746600D01*
X86037004Y-81038205D01*
X86202185Y-81285415D01*
X97310147Y-92393378D01*
X97247167Y-92710000D01*
X97355441Y-93254329D01*
X97663778Y-93715789D01*
X98125238Y-94024126D01*
X98669567Y-94132400D01*
X99450433Y-94132400D01*
X99994762Y-94024126D01*
X100456222Y-93715789D01*
X100764559Y-93254329D01*
X100872833Y-92710000D01*
X100764559Y-92165671D01*
X100456222Y-91704211D01*
X100060801Y-91440000D01*
X100456222Y-91175789D01*
X100764559Y-90714329D01*
X100872833Y-90170000D01*
X100816623Y-89887414D01*
X101511519Y-89192519D01*
X101717995Y-88883506D01*
X101717995Y-88883505D01*
X101790500Y-88519000D01*
X101790500Y-87524028D01*
X101892332Y-87566313D01*
X102321784Y-87566687D01*
X102718689Y-87402689D01*
X103022622Y-87099286D01*
X103187313Y-86702668D01*
X103187687Y-86273216D01*
X103023689Y-85876311D01*
X102870000Y-85722353D01*
X102870000Y-85242400D01*
X102811997Y-84950796D01*
X102811996Y-84950795D01*
X102646816Y-84703585D01*
X100809852Y-82866622D01*
X100872833Y-82550000D01*
X100764559Y-82005671D01*
X100456222Y-81544211D01*
X100060801Y-81280000D01*
X100456222Y-81015789D01*
X100764559Y-80554329D01*
X100872833Y-80010000D01*
X100764559Y-79465671D01*
X100456222Y-79004211D01*
X100060801Y-78740000D01*
X100456222Y-78475789D01*
X100764559Y-78014329D01*
X100872833Y-77470000D01*
X100764559Y-76925671D01*
X100456222Y-76464211D01*
X100283986Y-76349126D01*
X100445123Y-76317863D01*
X100657927Y-76178073D01*
X100800377Y-75967040D01*
X100850440Y-75717400D01*
X100850440Y-74142600D01*
X100803463Y-73900477D01*
X100663673Y-73687673D01*
X100452640Y-73545223D01*
X100203000Y-73495160D01*
X97917000Y-73495160D01*
X97674877Y-73542137D01*
X97462073Y-73681927D01*
X97319623Y-73892960D01*
X97269560Y-74142600D01*
X97269560Y-75717400D01*
X97316537Y-75959523D01*
X97456327Y-76172327D01*
X97667360Y-76314777D01*
X97836621Y-76348720D01*
X97663778Y-76464211D01*
X97355441Y-76925671D01*
X97247167Y-77470000D01*
X97355441Y-78014329D01*
X97663778Y-78475789D01*
X98059198Y-78740000D01*
X97663778Y-79004211D01*
X97355441Y-79465671D01*
X97247167Y-80010000D01*
X97355441Y-80554329D01*
X97663778Y-81015789D01*
X98059198Y-81280000D01*
X97663778Y-81544211D01*
X97355441Y-82005671D01*
X97247167Y-82550000D01*
X97355441Y-83094329D01*
X97663778Y-83555789D01*
X98059198Y-83820000D01*
X97663778Y-84084211D01*
X97355441Y-84545671D01*
X97247167Y-85090000D01*
X97248442Y-85096412D01*
X90297000Y-78144970D01*
X90297000Y-69662121D01*
X90449622Y-69509766D01*
X90614313Y-69113148D01*
X90614489Y-68910861D01*
X91457443Y-69753815D01*
X91704653Y-69918996D01*
X91996258Y-69977000D01*
X99252369Y-69977000D01*
X104744185Y-75468816D01*
X104991395Y-75633996D01*
X104991396Y-75633997D01*
X105096034Y-75654810D01*
X105283778Y-75935789D01*
X105679198Y-76200000D01*
X105283778Y-76464211D01*
X104975441Y-76925671D01*
X104867167Y-77470000D01*
X104975441Y-78014329D01*
X105283778Y-78475789D01*
X105679198Y-78740000D01*
X105283778Y-79004211D01*
X104975441Y-79465671D01*
X104867167Y-80010000D01*
X104975441Y-80554329D01*
X105283778Y-81015789D01*
X105679198Y-81280000D01*
X105283778Y-81544211D01*
X104975441Y-82005671D01*
X104867167Y-82550000D01*
X104975441Y-83094329D01*
X105283778Y-83555789D01*
X105679198Y-83820000D01*
X105283778Y-84084211D01*
X104975441Y-84545671D01*
X104867167Y-85090000D01*
X104975441Y-85634329D01*
X105283778Y-86095789D01*
X105745238Y-86404126D01*
X106289567Y-86512400D01*
X107070433Y-86512400D01*
X107614762Y-86404126D01*
X108076222Y-86095789D01*
X108384559Y-85634329D01*
X108492833Y-85090000D01*
X108384559Y-84545671D01*
X108076222Y-84084211D01*
X107680801Y-83820000D01*
X108076222Y-83555789D01*
X108384559Y-83094329D01*
X108492833Y-82550000D01*
X108384559Y-82005671D01*
X108076222Y-81544211D01*
X107680801Y-81280000D01*
X108076222Y-81015789D01*
X108384559Y-80554329D01*
X108492833Y-80010000D01*
X108429852Y-79693377D01*
X108811729Y-79311501D01*
X110606149Y-79311501D01*
X110426732Y-79743587D01*
X110426269Y-80274086D01*
X110628854Y-80764380D01*
X111003647Y-81139827D01*
X111341446Y-81280093D01*
X111005620Y-81418854D01*
X110630173Y-81793647D01*
X110426732Y-82283587D01*
X110426269Y-82814086D01*
X110628854Y-83304380D01*
X111003647Y-83679827D01*
X111493587Y-83883268D01*
X112024086Y-83883731D01*
X112514380Y-83681146D01*
X112889827Y-83306353D01*
X113093268Y-82816413D01*
X113093731Y-82285914D01*
X112891146Y-81795620D01*
X112516353Y-81420173D01*
X112178553Y-81279906D01*
X112514380Y-81141146D01*
X112889827Y-80766353D01*
X113093268Y-80276413D01*
X113093731Y-79745914D01*
X112891146Y-79255620D01*
X112788726Y-79153022D01*
X112788726Y-79153021D01*
X112885566Y-79088316D01*
X121709515Y-70264368D01*
X121709515Y-70264367D01*
X121874696Y-70017157D01*
X121909472Y-69842322D01*
X121942714Y-69875622D01*
X122339332Y-70040313D01*
X122768784Y-70040687D01*
X122988670Y-69949831D01*
X121381166Y-71557336D01*
X121215985Y-71804546D01*
X121157981Y-72096151D01*
X121157981Y-85445581D01*
X121215985Y-85737186D01*
X121381166Y-85984396D01*
X122710147Y-87313377D01*
X122647167Y-87630000D01*
X122755441Y-88174329D01*
X123063778Y-88635789D01*
X123459198Y-88899999D01*
X123063778Y-89164211D01*
X122755441Y-89625671D01*
X122647167Y-90170000D01*
X122755441Y-90714329D01*
X123063778Y-91175789D01*
X123459198Y-91439999D01*
X123063778Y-91704211D01*
X122755441Y-92165671D01*
X122647167Y-92710000D01*
X122755441Y-93254329D01*
X123063778Y-93715789D01*
X123525238Y-94024126D01*
X124069567Y-94132400D01*
X124850433Y-94132400D01*
X125394762Y-94024126D01*
X125856222Y-93715789D01*
X126164559Y-93254329D01*
X126272833Y-92710000D01*
X126164559Y-92165671D01*
X125856222Y-91704211D01*
X125460801Y-91439999D01*
X125856222Y-91175789D01*
X126164559Y-90714329D01*
X126272833Y-90170000D01*
X126254550Y-90078087D01*
X126911519Y-89421119D01*
X127117995Y-89112106D01*
X127190499Y-88747600D01*
X127190500Y-88747600D01*
X127190500Y-85065189D01*
X127190500Y-80066229D01*
X127190500Y-76352400D01*
X127117995Y-75987894D01*
X126911519Y-75678881D01*
X126250440Y-75017802D01*
X126250440Y-74142600D01*
X126203463Y-73900477D01*
X126063673Y-73687673D01*
X125852640Y-73545223D01*
X125603000Y-73495160D01*
X123697999Y-73495160D01*
X123697999Y-72832631D01*
X126172630Y-70358000D01*
X126365000Y-70358000D01*
X126365000Y-70357999D01*
X126656604Y-70299996D01*
X126656605Y-70299996D01*
X126903815Y-70134815D01*
X128681815Y-68356815D01*
X128681816Y-68356815D01*
X128780834Y-68208623D01*
X128800963Y-68178496D01*
X128800964Y-68178496D01*
X129057622Y-67922286D01*
X129222313Y-67525668D01*
X129222687Y-67096216D01*
X129058689Y-66699311D01*
X128856740Y-66497009D01*
X128856740Y-66298101D01*
X129074486Y-66152608D01*
X129374840Y-65703097D01*
X129480310Y-65172862D01*
X129480310Y-103276410D01*
X127341040Y-103276410D01*
X126395815Y-102331185D01*
X126250440Y-102234048D01*
X126250440Y-102082600D01*
X126203463Y-101840477D01*
X126063673Y-101627673D01*
X125852640Y-101485223D01*
X125603000Y-101435160D01*
X123317000Y-101435160D01*
X123074877Y-101482137D01*
X122862073Y-101621927D01*
X122719623Y-101832960D01*
X122669560Y-102082600D01*
X122669560Y-103657400D01*
X122716537Y-103899523D01*
X122856327Y-104112327D01*
X123067360Y-104254777D01*
X123236621Y-104288720D01*
X123063778Y-104404211D01*
X122755441Y-104865671D01*
X122647167Y-105410000D01*
X122755441Y-105954329D01*
X123063778Y-106415789D01*
X123459198Y-106679999D01*
X123063778Y-106944211D01*
X122755441Y-107405671D01*
X122647167Y-107950000D01*
X122755441Y-108494329D01*
X123063778Y-108955789D01*
X123459198Y-109219999D01*
X123063778Y-109484211D01*
X122755441Y-109945671D01*
X122647167Y-110490000D01*
X122755441Y-111034329D01*
X123063778Y-111495789D01*
X123459198Y-111759999D01*
X123063778Y-112024211D01*
X122755441Y-112485671D01*
X122647167Y-113030000D01*
X122755441Y-113574329D01*
X123063778Y-114035789D01*
X123459198Y-114299999D01*
X123063778Y-114564211D01*
X122755441Y-115025671D01*
X122647167Y-115570000D01*
X122755441Y-116114329D01*
X123063778Y-116575789D01*
X123459198Y-116839999D01*
X123063778Y-117104211D01*
X122958083Y-117262394D01*
X122676353Y-116980173D01*
X122186413Y-116776732D01*
X121655914Y-116776269D01*
X121165620Y-116978854D01*
X120790173Y-117353647D01*
X120713731Y-117537739D01*
X120713731Y-77205914D01*
X120511146Y-76715620D01*
X120332500Y-76536662D01*
X120332500Y-75863371D01*
X120509827Y-75686353D01*
X120713268Y-75196413D01*
X120713731Y-74665914D01*
X120511146Y-74175620D01*
X120136353Y-73800173D01*
X119646413Y-73596732D01*
X119115914Y-73596269D01*
X118625620Y-73798854D01*
X118250173Y-74173647D01*
X118046732Y-74663587D01*
X118046269Y-75194086D01*
X118248854Y-75684380D01*
X118427500Y-75863337D01*
X118427500Y-76536628D01*
X118250173Y-76713647D01*
X118046732Y-77203587D01*
X118046269Y-77734086D01*
X118248854Y-78224380D01*
X118623647Y-78599827D01*
X119113587Y-78803268D01*
X119644086Y-78803731D01*
X120134380Y-78601146D01*
X120509827Y-78226353D01*
X120713268Y-77736413D01*
X120713731Y-77205914D01*
X120713731Y-117537739D01*
X120586732Y-117843587D01*
X120586269Y-118374086D01*
X120788854Y-118864380D01*
X121163647Y-119239827D01*
X121653587Y-119443268D01*
X122184086Y-119443731D01*
X122674380Y-119241146D01*
X122958216Y-118957804D01*
X123063778Y-119115789D01*
X123525238Y-119424126D01*
X124069567Y-119532400D01*
X124850433Y-119532400D01*
X124884237Y-119525675D01*
X126936500Y-121577938D01*
X126936500Y-140575933D01*
X126809687Y-140881332D01*
X126809313Y-141310784D01*
X126973311Y-141707689D01*
X127276714Y-142011622D01*
X127673332Y-142176313D01*
X128102784Y-142176687D01*
X128499689Y-142012689D01*
X128803622Y-141709286D01*
X128968313Y-141312668D01*
X128968687Y-140883216D01*
X128841500Y-140575400D01*
X128841500Y-121183400D01*
X128768995Y-120818894D01*
X128562519Y-120509881D01*
X126254550Y-118201912D01*
X126272833Y-118110000D01*
X126164559Y-117565671D01*
X125856222Y-117104211D01*
X125460801Y-116839999D01*
X125856222Y-116575789D01*
X126164559Y-116114329D01*
X126272833Y-115570000D01*
X126164559Y-115025671D01*
X125856222Y-114564211D01*
X125460801Y-114299999D01*
X125856222Y-114035789D01*
X126164559Y-113574329D01*
X126272833Y-113030000D01*
X126164559Y-112485671D01*
X125856222Y-112024211D01*
X125460801Y-111759999D01*
X125856222Y-111495789D01*
X126164559Y-111034329D01*
X126272833Y-110490000D01*
X126164559Y-109945671D01*
X125856222Y-109484211D01*
X125460801Y-109219999D01*
X125856222Y-108955789D01*
X126164559Y-108494329D01*
X126272833Y-107950000D01*
X126164559Y-107405671D01*
X125856222Y-106944211D01*
X125460801Y-106679999D01*
X125856222Y-106415789D01*
X126164559Y-105954329D01*
X126272833Y-105410000D01*
X126164559Y-104865671D01*
X125856222Y-104404211D01*
X125683986Y-104289126D01*
X125845123Y-104257863D01*
X126039528Y-104130158D01*
X126486594Y-104577225D01*
X126486595Y-104577225D01*
X126733805Y-104742406D01*
X127025410Y-104800410D01*
X130419046Y-104800410D01*
X130375441Y-104865671D01*
X130267167Y-105410000D01*
X130375441Y-105954329D01*
X130683778Y-106415789D01*
X131079198Y-106679999D01*
X130683778Y-106944211D01*
X130375441Y-107405671D01*
X130267167Y-107950000D01*
X130375441Y-108494329D01*
X130683778Y-108955789D01*
X131079198Y-109219999D01*
X130683778Y-109484211D01*
X130375441Y-109945671D01*
X130267167Y-110490000D01*
X130375441Y-111034329D01*
X130683778Y-111495789D01*
X131079198Y-111759999D01*
X130683778Y-112024211D01*
X130375441Y-112485671D01*
X130267167Y-113030000D01*
X130375441Y-113574329D01*
X130683778Y-114035789D01*
X131079198Y-114299999D01*
X130683778Y-114564211D01*
X130375441Y-115025671D01*
X130267167Y-115570000D01*
X130375441Y-116114329D01*
X130683778Y-116575789D01*
X131145238Y-116884126D01*
X131689567Y-116992400D01*
X132470433Y-116992400D01*
X133014762Y-116884126D01*
X133476222Y-116575789D01*
X133784559Y-116114329D01*
X133892833Y-115570000D01*
X133784559Y-115025671D01*
X133476222Y-114564211D01*
X133080801Y-114299999D01*
X133476222Y-114035789D01*
X133784559Y-113574329D01*
X133892833Y-113030000D01*
X133784559Y-112485671D01*
X133476222Y-112024211D01*
X133080801Y-111759999D01*
X133476222Y-111495789D01*
X133784559Y-111034329D01*
X133892833Y-110490000D01*
X133784559Y-109945671D01*
X133476222Y-109484211D01*
X133080801Y-109219999D01*
X133476222Y-108955789D01*
X133784559Y-108494329D01*
X133892833Y-107950000D01*
X133784559Y-107405671D01*
X133476222Y-106944211D01*
X133080801Y-106679999D01*
X133476222Y-106415789D01*
X133784559Y-105954329D01*
X133892833Y-105410000D01*
X133784559Y-104865671D01*
X133740953Y-104800410D01*
X142341590Y-104800410D01*
X142341590Y-104800409D01*
X142633194Y-104742406D01*
X142633195Y-104742406D01*
X142880405Y-104577225D01*
X143154002Y-104303627D01*
X143480641Y-104368600D01*
X143539359Y-104368600D01*
X144043399Y-104268340D01*
X144043399Y-110578228D01*
X133873267Y-120748359D01*
X133892833Y-120650000D01*
X133784559Y-120105671D01*
X133476222Y-119644211D01*
X133014762Y-119335874D01*
X132470433Y-119227600D01*
X131689567Y-119227600D01*
X131145238Y-119335874D01*
X130683778Y-119644211D01*
X130375441Y-120105671D01*
X130267167Y-120650000D01*
X130375441Y-121194329D01*
X130683778Y-121655789D01*
X131079198Y-121919999D01*
X130683778Y-122184211D01*
X130375441Y-122645671D01*
X130267167Y-123190000D01*
X130375441Y-123734329D01*
X130683778Y-124195789D01*
X131079198Y-124459999D01*
X130683778Y-124724211D01*
X130375441Y-125185671D01*
X130267167Y-125730000D01*
X130375441Y-126274329D01*
X130683778Y-126735789D01*
X131079198Y-126999999D01*
X130683778Y-127264211D01*
X130375441Y-127725671D01*
X130267167Y-128270000D01*
X130375441Y-128814329D01*
X130683778Y-129275789D01*
X131079198Y-129539999D01*
X130683778Y-129804211D01*
X130375441Y-130265671D01*
X130267167Y-130810000D01*
X130375441Y-131354329D01*
X130683778Y-131815789D01*
X131079198Y-132080000D01*
X130683778Y-132344211D01*
X130375441Y-132805671D01*
X130267167Y-133350000D01*
X130375441Y-133894329D01*
X130683778Y-134355789D01*
X131079198Y-134620000D01*
X130683778Y-134884211D01*
X130375441Y-135345671D01*
X130267167Y-135890000D01*
X130375441Y-136434329D01*
X130683778Y-136895789D01*
X131145238Y-137204126D01*
X131689567Y-137312400D01*
X132470433Y-137312400D01*
X133014762Y-137204126D01*
X133476222Y-136895789D01*
X133784559Y-136434329D01*
X133892833Y-135890000D01*
X133784559Y-135345671D01*
X133476222Y-134884211D01*
X133080801Y-134620000D01*
X133476222Y-134355789D01*
X133784559Y-133894329D01*
X133892833Y-133350000D01*
X133784559Y-132805671D01*
X133476222Y-132344211D01*
X133080801Y-132080000D01*
X133476222Y-131815789D01*
X133784559Y-131354329D01*
X133892833Y-130810000D01*
X133784559Y-130265671D01*
X133476222Y-129804211D01*
X133080801Y-129539999D01*
X133476222Y-129275789D01*
X133784559Y-128814329D01*
X133892833Y-128270000D01*
X133829852Y-127953377D01*
X145495332Y-116287897D01*
X145542000Y-116334646D01*
X145542000Y-136141358D01*
X145389378Y-136293714D01*
X145224687Y-136690332D01*
X145224313Y-137119784D01*
X145388311Y-137516689D01*
X145691714Y-137820622D01*
X146088332Y-137985313D01*
X146517784Y-137985687D01*
X146914689Y-137821689D01*
X147193001Y-137543862D01*
X147193001Y-140779501D01*
X147265506Y-141144007D01*
X147471982Y-141453020D01*
X147548031Y-141529069D01*
X147674311Y-141834689D01*
X147977714Y-142138622D01*
X148374332Y-142303313D01*
X148803784Y-142303687D01*
X149200689Y-142139689D01*
X149504622Y-141836286D01*
X149669313Y-141439668D01*
X149669687Y-141010216D01*
X149505689Y-140613311D01*
X149202286Y-140309378D01*
X149098001Y-140266074D01*
X149098001Y-134360661D01*
X149263332Y-134429313D01*
X149692784Y-134429687D01*
X150089689Y-134265689D01*
X150113886Y-134241533D01*
X150263714Y-134391622D01*
X150660332Y-134556313D01*
X151089784Y-134556687D01*
X151486689Y-134392689D01*
X151790622Y-134089286D01*
X151955313Y-133692668D01*
X151955502Y-133475127D01*
X152303815Y-133126816D01*
X152303815Y-133126815D01*
X152468996Y-132879605D01*
X152526999Y-132588000D01*
X152527000Y-132588000D01*
X152527000Y-107275030D01*
X164558442Y-95243588D01*
X164557167Y-95250000D01*
X164665441Y-95794329D01*
X164973778Y-96255789D01*
X165369198Y-96519999D01*
X164973778Y-96784211D01*
X164665441Y-97245671D01*
X164557167Y-97790000D01*
X164620147Y-98106622D01*
X164307175Y-98419595D01*
X164141994Y-98666805D01*
X164083990Y-98958410D01*
X164083990Y-100813971D01*
X164084018Y-100814111D01*
X164084018Y-100814116D01*
X164084018Y-102385888D01*
X164083990Y-102386029D01*
X164083990Y-104241590D01*
X164141994Y-104533195D01*
X164307175Y-104780405D01*
X164620147Y-105093377D01*
X164557167Y-105410000D01*
X164665441Y-105954329D01*
X164973778Y-106415789D01*
X165435238Y-106724126D01*
X165979567Y-106832400D01*
X166760433Y-106832400D01*
X167304762Y-106724126D01*
X167766222Y-106415789D01*
X168074559Y-105954329D01*
X168182833Y-105410000D01*
X168074559Y-104865671D01*
X167766222Y-104404211D01*
X167370801Y-104139999D01*
X167766222Y-103875789D01*
X168074559Y-103414329D01*
X168182833Y-102870000D01*
X168074559Y-102325671D01*
X167766222Y-101864211D01*
X167370801Y-101599999D01*
X167766222Y-101335789D01*
X168074559Y-100874329D01*
X168182833Y-100330000D01*
X168119852Y-100013377D01*
X170817481Y-97315749D01*
X170982662Y-97068539D01*
X171040665Y-96776934D01*
X171040666Y-96776934D01*
X171040666Y-87501140D01*
X173258815Y-85282991D01*
X173258816Y-85282991D01*
X173357834Y-85134799D01*
X173423996Y-85035781D01*
X173423996Y-85035780D01*
X173482000Y-84744176D01*
X173482000Y-70139116D01*
X173725789Y-69976222D01*
X173990000Y-69580801D01*
X174254211Y-69976222D01*
X174535189Y-70163965D01*
X174535190Y-70163966D01*
X174556004Y-70268605D01*
X174721185Y-70515815D01*
X174752010Y-70546640D01*
X174752010Y-86505839D01*
X174746353Y-86500173D01*
X174256413Y-86296732D01*
X173725914Y-86296269D01*
X173235620Y-86498854D01*
X172860173Y-86873647D01*
X172656732Y-87363587D01*
X172656269Y-87894086D01*
X172858854Y-88384380D01*
X173037500Y-88563337D01*
X173037500Y-91407726D01*
X172593778Y-91704211D01*
X172285441Y-92165671D01*
X172177167Y-92710000D01*
X172254447Y-93098514D01*
X171538491Y-93814471D01*
X171332015Y-94123484D01*
X171259510Y-94487990D01*
X171259510Y-108712010D01*
X171332015Y-109076516D01*
X171538491Y-109385529D01*
X172288311Y-110135349D01*
X172109311Y-110209311D01*
X171805378Y-110512714D01*
X171640687Y-110909332D01*
X171640313Y-111338784D01*
X171804311Y-111735689D01*
X171958000Y-111889646D01*
X171958000Y-113042031D01*
X170911196Y-114088836D01*
X170746015Y-114336046D01*
X170688011Y-114627651D01*
X170688011Y-132151732D01*
X170657175Y-132182568D01*
X170491994Y-132429778D01*
X170467751Y-132551655D01*
X170467750Y-132551656D01*
X170281368Y-132737714D01*
X170116677Y-133134332D01*
X170116303Y-133563784D01*
X170280301Y-133960689D01*
X170583704Y-134264622D01*
X170980322Y-134429313D01*
X171259500Y-134429556D01*
X171259500Y-134467600D01*
X171332005Y-134832106D01*
X171538481Y-135141119D01*
X172195449Y-135798087D01*
X172177167Y-135890000D01*
X172285441Y-136434329D01*
X172593778Y-136895789D01*
X173055238Y-137204126D01*
X173599567Y-137312400D01*
X174380433Y-137312400D01*
X174924762Y-137204126D01*
X175386222Y-136895789D01*
X175694559Y-136434329D01*
X175802833Y-135890000D01*
X175694559Y-135345671D01*
X175386222Y-134884211D01*
X174990801Y-134620000D01*
X175386222Y-134355789D01*
X175694559Y-133894329D01*
X175802833Y-133350000D01*
X175694559Y-132805671D01*
X175386222Y-132344211D01*
X174990801Y-132080000D01*
X175386222Y-131815789D01*
X175694559Y-131354329D01*
X175802833Y-130810000D01*
X175739852Y-130493377D01*
X187203416Y-119029815D01*
X187203416Y-119029814D01*
X187368597Y-118782604D01*
X187426600Y-118490999D01*
X187426601Y-118490999D01*
X187426601Y-108078340D01*
X187930641Y-108178600D01*
X187989359Y-108178600D01*
X188562848Y-108064526D01*
X189049029Y-107739670D01*
X189373885Y-107253489D01*
X189487959Y-106680000D01*
X189373885Y-106106511D01*
X189049029Y-105620330D01*
X189033918Y-105610233D01*
X189065723Y-105604063D01*
X189278527Y-105464273D01*
X189420977Y-105253240D01*
X189471040Y-105003600D01*
X189471040Y-104775951D01*
X189616415Y-104678815D01*
X189743416Y-104551814D01*
X189743417Y-104551814D01*
X189908597Y-104304604D01*
X189908598Y-104304603D01*
X189966601Y-104012999D01*
X189966601Y-92837001D01*
X189908598Y-92545397D01*
X189908597Y-92545396D01*
X189743417Y-92298186D01*
X189616415Y-92171185D01*
X189471040Y-92074048D01*
X189471040Y-91846400D01*
X189424063Y-91604277D01*
X189284273Y-91391473D01*
X189073240Y-91249023D01*
X188823600Y-91198960D01*
X188722000Y-91198960D01*
X188722000Y-86548630D01*
X189743416Y-85527214D01*
X189743417Y-85527214D01*
X189842435Y-85379022D01*
X189908597Y-85280004D01*
X189908597Y-85280003D01*
X189966601Y-84988399D01*
X189966601Y-82524601D01*
X189908597Y-82232997D01*
X189908597Y-82232996D01*
X189842435Y-82133977D01*
X189743417Y-81985786D01*
X189471040Y-81713409D01*
X189471040Y-80416400D01*
X189424063Y-80174277D01*
X189284273Y-79961473D01*
X189073240Y-79819023D01*
X188991083Y-79802547D01*
X191008000Y-77785630D01*
X191008000Y-85217000D01*
X191066004Y-85508605D01*
X191231185Y-85755815D01*
X213354584Y-107879214D01*
X213601794Y-108044395D01*
X213601795Y-108044395D01*
X213893399Y-108102399D01*
X216244768Y-108102399D01*
X216371372Y-108229002D01*
X216306400Y-108555641D01*
X216306400Y-108614359D01*
X216420474Y-109187848D01*
X216745330Y-109674029D01*
X217016172Y-109855000D01*
X216745330Y-110035971D01*
X216420474Y-110522152D01*
X216306400Y-111095641D01*
X216306400Y-111154359D01*
X216420474Y-111727848D01*
X216745330Y-112214029D01*
X217016172Y-112395000D01*
X216745330Y-112575971D01*
X216535000Y-112890751D01*
X216324670Y-112575971D01*
X215838489Y-112251115D01*
X215265000Y-112137041D01*
X214691511Y-112251115D01*
X214205330Y-112575971D01*
X213880474Y-113062152D01*
X213766400Y-113635641D01*
X213766400Y-113694359D01*
X213880474Y-114267848D01*
X214205330Y-114754029D01*
X214476172Y-114935000D01*
X214205330Y-115115971D01*
X213880474Y-115602152D01*
X213766400Y-116175641D01*
X213766400Y-116234359D01*
X213880474Y-116807848D01*
X214205330Y-117294029D01*
X214476172Y-117475000D01*
X214205330Y-117655971D01*
X213880474Y-118142152D01*
X213766400Y-118715641D01*
X213766400Y-118774359D01*
X213880474Y-119347848D01*
X214205330Y-119834029D01*
X214476172Y-120015000D01*
X214205330Y-120195971D01*
X213880474Y-120682152D01*
X213823714Y-120967500D01*
X209286944Y-120967500D01*
X209065887Y-120746056D01*
X208556816Y-120534671D01*
X208005602Y-120534190D01*
X207496163Y-120744686D01*
X207106056Y-121134113D01*
X206894671Y-121643184D01*
X206894190Y-122194398D01*
X207104686Y-122703837D01*
X207494113Y-123093944D01*
X208003184Y-123305329D01*
X208554398Y-123305810D01*
X209063837Y-123095314D01*
X209287040Y-122872500D01*
X214630000Y-122872500D01*
X214994506Y-122799995D01*
X215041606Y-122768523D01*
X215265000Y-122812959D01*
X215838489Y-122698885D01*
X216324670Y-122374029D01*
X216535000Y-122059248D01*
X216745330Y-122374029D01*
X217231511Y-122698885D01*
X217805000Y-122812959D01*
X218378489Y-122698885D01*
X218821000Y-122403208D01*
X218821000Y-122809000D01*
X219202000Y-122809000D01*
X219202000Y-121825136D01*
X219303600Y-121314359D01*
X219303600Y-145365000D01*
X219202000Y-145365000D01*
X219202000Y-142367000D01*
X219202000Y-127381000D01*
X218821000Y-127381000D01*
X218821000Y-142367000D01*
X219202000Y-142367000D01*
X219202000Y-145365000D01*
X217781240Y-145365000D01*
X217781240Y-138515211D01*
X217456910Y-137730273D01*
X216856886Y-137129200D01*
X216072515Y-136803501D01*
X215223211Y-136802760D01*
X214438273Y-137127090D01*
X213837200Y-137727114D01*
X213511501Y-138511485D01*
X213510760Y-139360789D01*
X213835090Y-140145727D01*
X214435114Y-140746800D01*
X215219485Y-141072499D01*
X216068789Y-141073240D01*
X216853727Y-140748910D01*
X217454800Y-140148886D01*
X217780499Y-139364515D01*
X217781240Y-138515211D01*
X217781240Y-145365000D01*
X193548308Y-145365000D01*
X193548308Y-116487886D01*
X193278194Y-115834160D01*
X192778471Y-115333564D01*
X192125218Y-115062309D01*
X191417886Y-115061692D01*
X190764160Y-115331806D01*
X190263564Y-115831529D01*
X189992309Y-116484782D01*
X189991692Y-117192114D01*
X190261806Y-117845840D01*
X190761529Y-118346436D01*
X191414782Y-118617691D01*
X192122114Y-118618308D01*
X192775840Y-118348194D01*
X193276436Y-117848471D01*
X193547691Y-117195218D01*
X193548308Y-116487886D01*
X193548308Y-145365000D01*
X168182833Y-145365000D01*
X168182833Y-133350000D01*
X168074559Y-132805671D01*
X167766222Y-132344211D01*
X167370801Y-132080000D01*
X167766222Y-131815789D01*
X168074559Y-131354329D01*
X168182833Y-130810000D01*
X168074559Y-130265671D01*
X167766222Y-129804211D01*
X167370801Y-129539999D01*
X167766222Y-129275789D01*
X168074559Y-128814329D01*
X168182833Y-128270000D01*
X168074559Y-127725671D01*
X167766222Y-127264211D01*
X167370801Y-126999999D01*
X167766222Y-126735789D01*
X168074559Y-126274329D01*
X168182833Y-125730000D01*
X168074559Y-125185671D01*
X167766222Y-124724211D01*
X167370801Y-124459999D01*
X167766222Y-124195789D01*
X168074559Y-123734329D01*
X168182833Y-123190000D01*
X168074559Y-122645671D01*
X167766222Y-122184211D01*
X167370801Y-121919999D01*
X167766222Y-121655789D01*
X168074559Y-121194329D01*
X168182833Y-120650000D01*
X168074559Y-120105671D01*
X167766222Y-119644211D01*
X167304762Y-119335874D01*
X166760433Y-119227600D01*
X165979567Y-119227600D01*
X165435238Y-119335874D01*
X164973778Y-119644211D01*
X164665441Y-120105671D01*
X164557167Y-120650000D01*
X164665441Y-121194329D01*
X164973778Y-121655789D01*
X165369198Y-121919999D01*
X164973778Y-122184211D01*
X164665441Y-122645671D01*
X164557167Y-123190000D01*
X164665441Y-123734329D01*
X164973778Y-124195789D01*
X165369198Y-124459999D01*
X164973778Y-124724211D01*
X164665441Y-125185671D01*
X164557167Y-125730000D01*
X164665441Y-126274329D01*
X164973778Y-126735789D01*
X165369198Y-126999999D01*
X164973778Y-127264211D01*
X164665441Y-127725671D01*
X164557167Y-128270000D01*
X164665441Y-128814329D01*
X164973778Y-129275789D01*
X165369198Y-129539999D01*
X164973778Y-129804211D01*
X164665441Y-130265671D01*
X164557167Y-130810000D01*
X164665441Y-131354329D01*
X164973778Y-131815789D01*
X165369198Y-132080000D01*
X164973778Y-132344211D01*
X164665441Y-132805671D01*
X164557167Y-133350000D01*
X164665441Y-133894329D01*
X164973778Y-134355789D01*
X165435238Y-134664126D01*
X165979567Y-134772400D01*
X166760433Y-134772400D01*
X167304762Y-134664126D01*
X167766222Y-134355789D01*
X168074559Y-133894329D01*
X168182833Y-133350000D01*
X168182833Y-145365000D01*
X163695380Y-145365000D01*
X163695380Y-125786355D01*
X163695380Y-125231685D01*
X163608954Y-124797194D01*
X163383648Y-124460000D01*
X163608954Y-124122806D01*
X163695380Y-123688315D01*
X163695380Y-123133645D01*
X163608954Y-122699154D01*
X163362835Y-122330810D01*
X162994491Y-122084691D01*
X162560000Y-121998265D01*
X162125509Y-122084691D01*
X161757165Y-122330810D01*
X161511046Y-122699154D01*
X161424620Y-123133645D01*
X161424620Y-123688315D01*
X161511046Y-124122806D01*
X161736351Y-124460000D01*
X161511046Y-124797194D01*
X161424620Y-125231685D01*
X161424620Y-125786355D01*
X161511046Y-126220846D01*
X161757165Y-126589190D01*
X162125509Y-126835309D01*
X162560000Y-126921735D01*
X162994491Y-126835309D01*
X163362835Y-126589190D01*
X163608954Y-126220846D01*
X163695380Y-125786355D01*
X163695380Y-145365000D01*
X126272833Y-145365000D01*
X126272833Y-135890000D01*
X126164559Y-135345671D01*
X125856222Y-134884211D01*
X125460801Y-134620000D01*
X125856222Y-134355789D01*
X126164559Y-133894329D01*
X126272833Y-133350000D01*
X126164559Y-132805671D01*
X125856222Y-132344211D01*
X125460801Y-132080000D01*
X125856222Y-131815789D01*
X126164559Y-131354329D01*
X126272833Y-130810000D01*
X126164559Y-130265671D01*
X125856222Y-129804211D01*
X125460801Y-129539999D01*
X125856222Y-129275789D01*
X126164559Y-128814329D01*
X126272833Y-128270000D01*
X126164559Y-127725671D01*
X125856222Y-127264211D01*
X125460801Y-126999999D01*
X125856222Y-126735789D01*
X126164559Y-126274329D01*
X126272833Y-125730000D01*
X126164559Y-125185671D01*
X125856222Y-124724211D01*
X125460801Y-124459999D01*
X125856222Y-124195789D01*
X126164559Y-123734329D01*
X126272833Y-123190000D01*
X126164559Y-122645671D01*
X125856222Y-122184211D01*
X125394762Y-121875874D01*
X124850433Y-121767600D01*
X124069567Y-121767600D01*
X123525238Y-121875874D01*
X123063778Y-122184211D01*
X122755441Y-122645671D01*
X122647167Y-123190000D01*
X122755441Y-123734329D01*
X123063778Y-124195789D01*
X123459198Y-124459999D01*
X123063778Y-124724211D01*
X122755441Y-125185671D01*
X122647167Y-125730000D01*
X122755441Y-126274329D01*
X123063778Y-126735789D01*
X123459198Y-126999999D01*
X123063778Y-127264211D01*
X122755441Y-127725671D01*
X122647167Y-128270000D01*
X122755441Y-128814329D01*
X123063778Y-129275789D01*
X123459198Y-129539999D01*
X123063778Y-129804211D01*
X122755441Y-130265671D01*
X122647167Y-130810000D01*
X122755441Y-131354329D01*
X123063778Y-131815789D01*
X123459198Y-132080000D01*
X123063778Y-132344211D01*
X122755441Y-132805671D01*
X122647167Y-133350000D01*
X122755441Y-133894329D01*
X123063778Y-134355789D01*
X123459198Y-134620000D01*
X123063778Y-134884211D01*
X122755441Y-135345671D01*
X122647167Y-135890000D01*
X122755441Y-136434329D01*
X123063778Y-136895789D01*
X123525238Y-137204126D01*
X124069567Y-137312400D01*
X124850433Y-137312400D01*
X125394762Y-137204126D01*
X125856222Y-136895789D01*
X126164559Y-136434329D01*
X126272833Y-135890000D01*
X126272833Y-145365000D01*
X118262400Y-145365000D01*
X118262400Y-132470433D01*
X118262400Y-131689567D01*
X118154126Y-131145238D01*
X117845789Y-130683778D01*
X117384329Y-130375441D01*
X116840000Y-130267167D01*
X116295671Y-130375441D01*
X115834211Y-130683778D01*
X115569999Y-131079198D01*
X115305789Y-130683778D01*
X114844329Y-130375441D01*
X114300000Y-130267167D01*
X113755671Y-130375441D01*
X113294211Y-130683778D01*
X113029999Y-131079198D01*
X112765789Y-130683778D01*
X112304329Y-130375441D01*
X111760000Y-130267167D01*
X111215671Y-130375441D01*
X110754211Y-130683778D01*
X110489999Y-131079198D01*
X110225789Y-130683778D01*
X109764329Y-130375441D01*
X109220000Y-130267167D01*
X108675671Y-130375441D01*
X108492833Y-130497609D01*
X108492833Y-90170000D01*
X108384559Y-89625671D01*
X108076222Y-89164211D01*
X107614762Y-88855874D01*
X107070433Y-88747600D01*
X106289567Y-88747600D01*
X105745238Y-88855874D01*
X105283778Y-89164211D01*
X104975441Y-89625671D01*
X104867167Y-90170000D01*
X104975441Y-90714329D01*
X105283778Y-91175789D01*
X105745238Y-91484126D01*
X106289567Y-91592400D01*
X107070433Y-91592400D01*
X107614762Y-91484126D01*
X108076222Y-91175789D01*
X108384559Y-90714329D01*
X108492833Y-90170000D01*
X108492833Y-130497609D01*
X108214211Y-130683778D01*
X107949999Y-131079198D01*
X107685789Y-130683778D01*
X107224329Y-130375441D01*
X106680000Y-130267167D01*
X106135671Y-130375441D01*
X105674211Y-130683778D01*
X105409999Y-131079198D01*
X105145789Y-130683778D01*
X104684329Y-130375441D01*
X104140000Y-130267167D01*
X103595671Y-130375441D01*
X103134211Y-130683778D01*
X102869999Y-131079198D01*
X102605789Y-130683778D01*
X102144329Y-130375441D01*
X101600000Y-130267167D01*
X101055671Y-130375441D01*
X100594211Y-130683778D01*
X100285874Y-131145238D01*
X100177600Y-131689567D01*
X100177600Y-132470433D01*
X100285874Y-133014762D01*
X100594211Y-133476222D01*
X101055671Y-133784559D01*
X101600000Y-133892833D01*
X102144329Y-133784559D01*
X102605789Y-133476222D01*
X102870000Y-133080801D01*
X103134211Y-133476222D01*
X103595671Y-133784559D01*
X104140000Y-133892833D01*
X104684329Y-133784559D01*
X105145789Y-133476222D01*
X105410000Y-133080801D01*
X105674211Y-133476222D01*
X106135671Y-133784559D01*
X106680000Y-133892833D01*
X107224329Y-133784559D01*
X107685789Y-133476222D01*
X107950000Y-133080801D01*
X108214211Y-133476222D01*
X108675671Y-133784559D01*
X109220000Y-133892833D01*
X109764329Y-133784559D01*
X110225789Y-133476222D01*
X110490000Y-133080801D01*
X110754211Y-133476222D01*
X111215671Y-133784559D01*
X111760000Y-133892833D01*
X112304329Y-133784559D01*
X112765789Y-133476222D01*
X113030000Y-133080801D01*
X113294211Y-133476222D01*
X113755671Y-133784559D01*
X114300000Y-133892833D01*
X114844329Y-133784559D01*
X115305789Y-133476222D01*
X115570000Y-133080801D01*
X115834211Y-133476222D01*
X116295671Y-133784559D01*
X116840000Y-133892833D01*
X117384329Y-133784559D01*
X117845789Y-133476222D01*
X118154126Y-133014762D01*
X118262400Y-132470433D01*
X118262400Y-145365000D01*
X115722400Y-145365000D01*
X115722400Y-140090433D01*
X115722400Y-139309567D01*
X115614126Y-138765238D01*
X115305789Y-138303778D01*
X114844329Y-137995441D01*
X114300000Y-137887167D01*
X113755671Y-137995441D01*
X113294211Y-138303778D01*
X113029999Y-138699198D01*
X112765789Y-138303778D01*
X112304329Y-137995441D01*
X111760000Y-137887167D01*
X111215671Y-137995441D01*
X110754211Y-138303778D01*
X110489999Y-138699198D01*
X110225789Y-138303778D01*
X109764329Y-137995441D01*
X109220000Y-137887167D01*
X108675671Y-137995441D01*
X108214211Y-138303778D01*
X107949999Y-138699198D01*
X107685789Y-138303778D01*
X107224329Y-137995441D01*
X106680000Y-137887167D01*
X106135671Y-137995441D01*
X105674211Y-138303778D01*
X105409999Y-138699198D01*
X105145789Y-138303778D01*
X104684329Y-137995441D01*
X104140000Y-137887167D01*
X103595671Y-137995441D01*
X103134211Y-138303778D01*
X103019126Y-138476013D01*
X102987863Y-138314877D01*
X102848073Y-138102073D01*
X102637040Y-137959623D01*
X102387400Y-137909560D01*
X100812600Y-137909560D01*
X100570477Y-137956537D01*
X100357673Y-138096327D01*
X100215223Y-138307360D01*
X100165160Y-138557000D01*
X100165160Y-140843000D01*
X100212137Y-141085123D01*
X100351927Y-141297927D01*
X100562960Y-141440377D01*
X100812600Y-141490440D01*
X102387400Y-141490440D01*
X102629523Y-141443463D01*
X102842327Y-141303673D01*
X102984777Y-141092640D01*
X103018720Y-140923378D01*
X103134211Y-141096222D01*
X103595671Y-141404559D01*
X104140000Y-141512833D01*
X104684329Y-141404559D01*
X105145789Y-141096222D01*
X105410000Y-140700801D01*
X105674211Y-141096222D01*
X106135671Y-141404559D01*
X106680000Y-141512833D01*
X107224329Y-141404559D01*
X107685789Y-141096222D01*
X107950000Y-140700801D01*
X108214211Y-141096222D01*
X108675671Y-141404559D01*
X109220000Y-141512833D01*
X109764329Y-141404559D01*
X110225789Y-141096222D01*
X110490000Y-140700801D01*
X110754211Y-141096222D01*
X111215671Y-141404559D01*
X111760000Y-141512833D01*
X112304329Y-141404559D01*
X112765789Y-141096222D01*
X113030000Y-140700801D01*
X113294211Y-141096222D01*
X113755671Y-141404559D01*
X114300000Y-141512833D01*
X114844329Y-141404559D01*
X115305789Y-141096222D01*
X115614126Y-140634762D01*
X115722400Y-140090433D01*
X115722400Y-145365000D01*
X97853731Y-145365000D01*
X97853731Y-131815914D01*
X97651146Y-131325620D01*
X97276353Y-130950173D01*
X96786413Y-130746732D01*
X96255914Y-130746269D01*
X95948731Y-130873194D01*
X95948731Y-118861914D01*
X95746146Y-118371620D01*
X95371353Y-117996173D01*
X94881413Y-117792732D01*
X94350914Y-117792269D01*
X93860620Y-117994854D01*
X93485173Y-118369647D01*
X93281732Y-118859587D01*
X93281269Y-119390086D01*
X93483854Y-119880380D01*
X93858647Y-120255827D01*
X94348587Y-120459268D01*
X94879086Y-120459731D01*
X95369380Y-120257146D01*
X95744827Y-119882353D01*
X95948268Y-119392413D01*
X95948731Y-118861914D01*
X95948731Y-130873194D01*
X95765620Y-130948854D01*
X95390173Y-131323647D01*
X95186732Y-131813587D01*
X95186269Y-132344086D01*
X95388854Y-132834380D01*
X95763647Y-133209827D01*
X96253587Y-133413268D01*
X96784086Y-133413731D01*
X97274380Y-133211146D01*
X97649827Y-132836353D01*
X97853268Y-132346413D01*
X97853731Y-131815914D01*
X97853731Y-145365000D01*
X92138731Y-145365000D01*
X92138731Y-101716914D01*
X92138731Y-94096914D01*
X91936146Y-93606620D01*
X91561353Y-93231173D01*
X91071413Y-93027732D01*
X90540914Y-93027269D01*
X90050620Y-93229854D01*
X89675173Y-93604647D01*
X89534906Y-93942446D01*
X89396146Y-93606620D01*
X89021353Y-93231173D01*
X88531413Y-93027732D01*
X88000914Y-93027269D01*
X87510620Y-93229854D01*
X87135173Y-93604647D01*
X86994906Y-93942446D01*
X86856146Y-93606620D01*
X86481353Y-93231173D01*
X85991413Y-93027732D01*
X85460914Y-93027269D01*
X84970620Y-93229854D01*
X84595173Y-93604647D01*
X84454906Y-93942446D01*
X84316146Y-93606620D01*
X83941353Y-93231173D01*
X83451413Y-93027732D01*
X82920914Y-93027269D01*
X82430620Y-93229854D01*
X82055173Y-93604647D01*
X81914906Y-93942446D01*
X81776146Y-93606620D01*
X81401353Y-93231173D01*
X81343687Y-93207227D01*
X81343687Y-86273216D01*
X81179689Y-85876311D01*
X81026000Y-85722353D01*
X81026000Y-78742641D01*
X81178622Y-78590286D01*
X81343313Y-78193668D01*
X81343687Y-77764216D01*
X81179689Y-77367311D01*
X80876286Y-77063378D01*
X80479668Y-76898687D01*
X80176913Y-76898423D01*
X80176913Y-62752021D01*
X79700548Y-61599129D01*
X78819251Y-60716292D01*
X77667192Y-60237915D01*
X76419761Y-60236827D01*
X75266869Y-60713192D01*
X74384032Y-61594489D01*
X73905655Y-62746548D01*
X73904567Y-63993979D01*
X74380932Y-65146871D01*
X75262229Y-66029708D01*
X76414288Y-66508085D01*
X77661719Y-66509173D01*
X78814611Y-66032808D01*
X79697448Y-65151511D01*
X80175825Y-63999452D01*
X80176913Y-62752021D01*
X80176913Y-76898423D01*
X80050216Y-76898313D01*
X79653311Y-77062311D01*
X79349378Y-77365714D01*
X79184687Y-77762332D01*
X79184313Y-78191784D01*
X79348311Y-78588689D01*
X79502000Y-78742646D01*
X79502000Y-85722358D01*
X79349378Y-85874714D01*
X79184687Y-86271332D01*
X79184313Y-86700784D01*
X79348311Y-87097689D01*
X79651714Y-87401622D01*
X80048332Y-87566313D01*
X80477784Y-87566687D01*
X80874689Y-87402689D01*
X81178622Y-87099286D01*
X81343313Y-86702668D01*
X81343687Y-86273216D01*
X81343687Y-93207227D01*
X80911413Y-93027732D01*
X80380914Y-93027269D01*
X79890620Y-93229854D01*
X79515173Y-93604647D01*
X79374906Y-93942446D01*
X79236146Y-93606620D01*
X78861353Y-93231173D01*
X78714834Y-93170332D01*
X78714834Y-77614879D01*
X78510319Y-77119915D01*
X78131957Y-76740892D01*
X77637351Y-76535514D01*
X77101799Y-76535046D01*
X76606835Y-76739561D01*
X76227812Y-77117923D01*
X76118705Y-77380681D01*
X76010959Y-77119915D01*
X75632597Y-76740892D01*
X75137991Y-76535514D01*
X74602439Y-76535046D01*
X74107475Y-76739561D01*
X73728452Y-77117923D01*
X73523074Y-77612529D01*
X73522606Y-78148081D01*
X73727121Y-78643045D01*
X74015513Y-78931941D01*
X73728452Y-79218503D01*
X73523074Y-79713109D01*
X73522606Y-80248661D01*
X73727121Y-80743625D01*
X74105483Y-81122648D01*
X74484751Y-81280133D01*
X74107475Y-81436021D01*
X73728452Y-81814383D01*
X73523074Y-82308989D01*
X73522606Y-82844541D01*
X73727121Y-83339505D01*
X74105483Y-83718528D01*
X74600089Y-83923906D01*
X75135641Y-83924374D01*
X75630605Y-83719859D01*
X76009628Y-83341497D01*
X76215006Y-82846891D01*
X76215474Y-82311339D01*
X76010959Y-81816375D01*
X75632597Y-81437352D01*
X75253328Y-81279866D01*
X75630605Y-81123979D01*
X76009628Y-80745617D01*
X76215006Y-80251011D01*
X76215474Y-79715459D01*
X76010959Y-79220495D01*
X75722566Y-78931598D01*
X76009628Y-78645037D01*
X76118734Y-78382278D01*
X76226481Y-78643045D01*
X76604843Y-79022068D01*
X77099449Y-79227446D01*
X77635001Y-79227914D01*
X78129965Y-79023399D01*
X78508988Y-78645037D01*
X78714366Y-78150431D01*
X78714834Y-77614879D01*
X78714834Y-93170332D01*
X78664034Y-93149238D01*
X78664034Y-84411919D01*
X78459519Y-83916955D01*
X78081157Y-83537932D01*
X77586551Y-83332554D01*
X77050999Y-83332086D01*
X76556035Y-83536601D01*
X76177012Y-83914963D01*
X75971634Y-84409569D01*
X75971166Y-84945121D01*
X76175681Y-85440085D01*
X76554043Y-85819108D01*
X77048649Y-86024486D01*
X77584201Y-86024954D01*
X78079165Y-85820439D01*
X78458188Y-85442077D01*
X78663566Y-84947471D01*
X78664034Y-84411919D01*
X78664034Y-93149238D01*
X78371413Y-93027732D01*
X77840914Y-93027269D01*
X77350620Y-93229854D01*
X76975173Y-93604647D01*
X76771732Y-94094587D01*
X76771269Y-94625086D01*
X76973854Y-95115380D01*
X77348647Y-95490827D01*
X77838587Y-95694268D01*
X78369086Y-95694731D01*
X78859380Y-95492146D01*
X79234827Y-95117353D01*
X79375093Y-94779553D01*
X79513854Y-95115380D01*
X79888647Y-95490827D01*
X80378587Y-95694268D01*
X80909086Y-95694731D01*
X81399380Y-95492146D01*
X81774827Y-95117353D01*
X81915093Y-94779553D01*
X82053854Y-95115380D01*
X82428647Y-95490827D01*
X82918587Y-95694268D01*
X83449086Y-95694731D01*
X83939380Y-95492146D01*
X84314827Y-95117353D01*
X84455093Y-94779553D01*
X84593854Y-95115380D01*
X84968647Y-95490827D01*
X85458587Y-95694268D01*
X85989086Y-95694731D01*
X86479380Y-95492146D01*
X86854827Y-95117353D01*
X86995093Y-94779553D01*
X87133854Y-95115380D01*
X87508647Y-95490827D01*
X87998587Y-95694268D01*
X88529086Y-95694731D01*
X89019380Y-95492146D01*
X89394827Y-95117353D01*
X89535093Y-94779553D01*
X89673854Y-95115380D01*
X90048647Y-95490827D01*
X90538587Y-95694268D01*
X91069086Y-95694731D01*
X91559380Y-95492146D01*
X91934827Y-95117353D01*
X92138268Y-94627413D01*
X92138731Y-94096914D01*
X92138731Y-101716914D01*
X91936146Y-101226620D01*
X91561353Y-100851173D01*
X91071413Y-100647732D01*
X90540914Y-100647269D01*
X90050620Y-100849854D01*
X89675173Y-101224647D01*
X89534906Y-101562446D01*
X89396146Y-101226620D01*
X89021353Y-100851173D01*
X88531413Y-100647732D01*
X88000914Y-100647269D01*
X87510620Y-100849854D01*
X87135173Y-101224647D01*
X86994906Y-101562446D01*
X86856146Y-101226620D01*
X86481353Y-100851173D01*
X85991413Y-100647732D01*
X85460914Y-100647269D01*
X84970620Y-100849854D01*
X84595173Y-101224647D01*
X84454906Y-101562446D01*
X84316146Y-101226620D01*
X83941353Y-100851173D01*
X83451413Y-100647732D01*
X82920914Y-100647269D01*
X82430620Y-100849854D01*
X82055173Y-101224647D01*
X81914906Y-101562446D01*
X81776146Y-101226620D01*
X81401353Y-100851173D01*
X80911413Y-100647732D01*
X80380914Y-100647269D01*
X79890620Y-100849854D01*
X79515173Y-101224647D01*
X79311732Y-101714587D01*
X79311269Y-102245086D01*
X79513854Y-102735380D01*
X79888647Y-103110827D01*
X80378587Y-103314268D01*
X80909086Y-103314731D01*
X81399380Y-103112146D01*
X81774827Y-102737353D01*
X81915093Y-102399553D01*
X82053854Y-102735380D01*
X82428647Y-103110827D01*
X82918587Y-103314268D01*
X83449086Y-103314731D01*
X83939380Y-103112146D01*
X84314827Y-102737353D01*
X84455093Y-102399553D01*
X84593854Y-102735380D01*
X84968647Y-103110827D01*
X85458587Y-103314268D01*
X85989086Y-103314731D01*
X86479380Y-103112146D01*
X86854827Y-102737353D01*
X86995093Y-102399553D01*
X87133854Y-102735380D01*
X87508647Y-103110827D01*
X87998587Y-103314268D01*
X88529086Y-103314731D01*
X89019380Y-103112146D01*
X89394827Y-102737353D01*
X89535093Y-102399553D01*
X89673854Y-102735380D01*
X90048647Y-103110827D01*
X90538587Y-103314268D01*
X91069086Y-103314731D01*
X91559380Y-103112146D01*
X91934827Y-102737353D01*
X92138268Y-102247413D01*
X92138731Y-101716914D01*
X92138731Y-145365000D01*
X88930000Y-145365000D01*
X88930000Y-141916000D01*
X88930000Y-137946000D01*
X74422242Y-137946000D01*
X74422242Y-99164339D01*
X74422242Y-94084339D01*
X74210010Y-93570697D01*
X73817370Y-93177371D01*
X73304100Y-92964243D01*
X72748339Y-92963758D01*
X72234697Y-93175990D01*
X71841371Y-93568630D01*
X71628243Y-94081900D01*
X71627758Y-94637661D01*
X71839990Y-95151303D01*
X72232630Y-95544629D01*
X72745900Y-95757757D01*
X73301661Y-95758242D01*
X73815303Y-95546010D01*
X74208629Y-95153370D01*
X74421757Y-94640100D01*
X74422242Y-94084339D01*
X74422242Y-99164339D01*
X74210010Y-98650697D01*
X73817370Y-98257371D01*
X73304100Y-98044243D01*
X72748339Y-98043758D01*
X72234697Y-98255990D01*
X71841371Y-98648630D01*
X71628243Y-99161900D01*
X71627758Y-99717661D01*
X71839990Y-100231303D01*
X72232630Y-100624629D01*
X72745900Y-100837757D01*
X73301661Y-100838242D01*
X73815303Y-100626010D01*
X74208629Y-100233370D01*
X74421757Y-99720100D01*
X74422242Y-99164339D01*
X74422242Y-137946000D01*
X72360000Y-137946000D01*
X72360000Y-141916000D01*
X88930000Y-141916000D01*
X88930000Y-145365000D01*
X70715240Y-145365000D01*
X70715240Y-138515211D01*
X70715240Y-52409211D01*
X70390910Y-51624273D01*
X69790886Y-51023200D01*
X69006515Y-50697501D01*
X68157211Y-50696760D01*
X67372273Y-51021090D01*
X66771200Y-51621114D01*
X66445501Y-52405485D01*
X66444760Y-53254789D01*
X66769090Y-54039727D01*
X67369114Y-54640800D01*
X68153485Y-54966499D01*
X69002789Y-54967240D01*
X69787727Y-54642910D01*
X70388800Y-54042886D01*
X70714499Y-53258515D01*
X70715240Y-52409211D01*
X70715240Y-138515211D01*
X70390910Y-137730273D01*
X69815976Y-137154333D01*
X69815976Y-107356364D01*
X69582713Y-106791825D01*
X69330810Y-106539481D01*
X69330810Y-99166602D01*
X69120314Y-98657163D01*
X68730887Y-98267056D01*
X68221816Y-98055671D01*
X67670602Y-98055190D01*
X67161163Y-98265686D01*
X66771056Y-98655113D01*
X66559671Y-99164184D01*
X66559190Y-99715398D01*
X66769686Y-100224837D01*
X67159113Y-100614944D01*
X67668184Y-100826329D01*
X68219398Y-100826810D01*
X68728837Y-100616314D01*
X69118944Y-100226887D01*
X69330329Y-99717816D01*
X69330810Y-99166602D01*
X69330810Y-106539481D01*
X69151167Y-106359525D01*
X68587036Y-106125277D01*
X67976204Y-106124744D01*
X67411665Y-106358007D01*
X66979365Y-106789553D01*
X66745117Y-107353684D01*
X66744584Y-107964516D01*
X66977847Y-108529055D01*
X67409393Y-108961355D01*
X67973524Y-109195603D01*
X68584356Y-109196136D01*
X69148895Y-108962873D01*
X69581195Y-108531327D01*
X69815443Y-107967196D01*
X69815976Y-107356364D01*
X69815976Y-137154333D01*
X69790886Y-137129200D01*
X69565742Y-137035712D01*
X69565742Y-131607032D01*
X69370488Y-131134481D01*
X69009260Y-130772622D01*
X68537052Y-130576544D01*
X68025752Y-130576098D01*
X67553201Y-130771352D01*
X67191342Y-131132580D01*
X66995264Y-131604788D01*
X66994818Y-132116088D01*
X67190072Y-132588639D01*
X67551300Y-132950498D01*
X68023508Y-133146576D01*
X68534808Y-133147022D01*
X69007359Y-132951768D01*
X69369218Y-132590540D01*
X69565296Y-132118332D01*
X69565742Y-131607032D01*
X69565742Y-137035712D01*
X69006515Y-136803501D01*
X68157211Y-136802760D01*
X67372273Y-137127090D01*
X66771200Y-137727114D01*
X66445501Y-138511485D01*
X66444760Y-139360789D01*
X66769090Y-140145727D01*
X67369114Y-140746800D01*
X68153485Y-141072499D01*
X69002789Y-141073240D01*
X69787727Y-140748910D01*
X70388800Y-140148886D01*
X70714499Y-139364515D01*
X70715240Y-138515211D01*
X70715240Y-145365000D01*
X62915000Y-145365000D01*
X62915000Y-46405000D01*
X221565000Y-46405000D01*
X221565000Y-145365000D01*
X221565000Y-145365000D01*
G37*
X221565000Y-145365000D02*
X219303600Y-145365000D01*
X219303600Y-121314359D01*
X219303600Y-121255641D01*
X219202000Y-120744863D01*
X219202000Y-119285136D01*
X219303600Y-118774359D01*
X219303600Y-118715641D01*
X219202000Y-118204863D01*
X219202000Y-116745136D01*
X219303600Y-116234359D01*
X219303600Y-116175641D01*
X219202000Y-115664863D01*
X219202000Y-114205136D01*
X219303600Y-113694359D01*
X219303600Y-113635641D01*
X219202000Y-113124863D01*
X219202000Y-111665136D01*
X219303600Y-111154359D01*
X219303600Y-111095641D01*
X219202000Y-110584863D01*
X219202000Y-109125136D01*
X219303600Y-108614359D01*
X219303600Y-108555641D01*
X219202000Y-108044863D01*
X219202000Y-106585136D01*
X219303600Y-106074359D01*
X219303600Y-106015641D01*
X219202000Y-105504863D01*
X219202000Y-101505136D01*
X219303600Y-100994359D01*
X219303600Y-100935641D01*
X219202000Y-100424863D01*
X219202000Y-98965136D01*
X219303600Y-98454359D01*
X219303600Y-98395641D01*
X219202000Y-97884863D01*
X219202000Y-96425136D01*
X219303600Y-95914359D01*
X219303600Y-95855641D01*
X219202000Y-95344863D01*
X219202000Y-93885136D01*
X219303600Y-93374359D01*
X219303600Y-93315641D01*
X219202000Y-92804863D01*
X219202000Y-91345136D01*
X219303600Y-90834359D01*
X219303600Y-90775641D01*
X219202000Y-90264863D01*
X219202000Y-88805136D01*
X219303600Y-88294359D01*
X219303600Y-88235641D01*
X219202000Y-87724863D01*
X219202000Y-86265136D01*
X219303600Y-85754359D01*
X219303600Y-85695641D01*
X219202000Y-85184863D01*
X219202000Y-83725136D01*
X219303600Y-83214359D01*
X219303600Y-83155641D01*
X219202000Y-82644863D01*
X219202000Y-81185136D01*
X219303600Y-80674359D01*
X219303600Y-80615641D01*
X219202000Y-80104863D01*
X219202000Y-78645136D01*
X219303600Y-78134359D01*
X219303600Y-78075641D01*
X219202000Y-77564863D01*
X219202000Y-76105136D01*
X219303600Y-75594359D01*
X219303600Y-75535641D01*
X219202000Y-75024863D01*
X219202000Y-73565136D01*
X219303600Y-73054359D01*
X219303600Y-72995641D01*
X219202000Y-72484863D01*
X219202000Y-71025136D01*
X219303600Y-70514359D01*
X219303600Y-70455641D01*
X219202000Y-69944863D01*
X219202000Y-68485136D01*
X219303600Y-67974359D01*
X219303600Y-67915641D01*
X219202000Y-67404863D01*
X219202000Y-65945136D01*
X219303600Y-65434359D01*
X219303600Y-65375641D01*
X219202000Y-64864863D01*
X219202000Y-49403000D01*
X218821000Y-49403000D01*
X218821000Y-64286791D01*
X218378489Y-63991115D01*
X217805000Y-63877041D01*
X217781240Y-63881767D01*
X217781240Y-52155211D01*
X217456910Y-51370273D01*
X216856886Y-50769200D01*
X216072515Y-50443501D01*
X215223211Y-50442760D01*
X214438273Y-50767090D01*
X213837200Y-51367114D01*
X213511501Y-52151485D01*
X213510760Y-53000789D01*
X213835090Y-53785727D01*
X214435114Y-54386800D01*
X215219485Y-54712499D01*
X216068789Y-54713240D01*
X216853727Y-54388910D01*
X217454800Y-53788886D01*
X217780499Y-53004515D01*
X217781240Y-52155211D01*
X217781240Y-63881767D01*
X217429385Y-63951755D01*
X204754815Y-51277185D01*
X204507605Y-51112004D01*
X204216000Y-51054000D01*
X193524021Y-51054000D01*
X193523971Y-51053990D01*
X192556029Y-51053990D01*
X192555978Y-51054000D01*
X190984021Y-51054000D01*
X190983971Y-51053990D01*
X190016029Y-51053990D01*
X190015978Y-51054000D01*
X188444021Y-51054000D01*
X188443971Y-51053990D01*
X187476029Y-51053990D01*
X187475978Y-51054000D01*
X185904021Y-51054000D01*
X185903971Y-51053990D01*
X184936029Y-51053990D01*
X184935978Y-51054000D01*
X183364021Y-51054000D01*
X183363971Y-51053990D01*
X182396029Y-51053990D01*
X182395978Y-51054000D01*
X180824021Y-51054000D01*
X180823971Y-51053990D01*
X179856029Y-51053990D01*
X179855978Y-51054000D01*
X178284021Y-51054000D01*
X178283971Y-51053990D01*
X177316029Y-51053990D01*
X177315978Y-51054000D01*
X175744021Y-51054000D01*
X175743971Y-51053990D01*
X174776029Y-51053990D01*
X174775978Y-51054000D01*
X173204021Y-51054000D01*
X173203971Y-51053990D01*
X172236029Y-51053990D01*
X172235978Y-51054000D01*
X170664021Y-51054000D01*
X170663971Y-51053990D01*
X169696029Y-51053990D01*
X169695978Y-51054000D01*
X168124021Y-51054000D01*
X168123971Y-51053990D01*
X167156029Y-51053990D01*
X167155978Y-51054000D01*
X165584021Y-51054000D01*
X165583971Y-51053990D01*
X164616029Y-51053990D01*
X164615978Y-51054000D01*
X163044021Y-51054000D01*
X163043971Y-51053990D01*
X162076029Y-51053990D01*
X162075978Y-51054000D01*
X161188400Y-51054000D01*
X160896795Y-51112004D01*
X160649585Y-51277185D01*
X160336622Y-51590147D01*
X160020000Y-51527167D01*
X159475671Y-51635441D01*
X159014211Y-51943778D01*
X158750000Y-52339198D01*
X158485789Y-51943778D01*
X158024329Y-51635441D01*
X157480000Y-51527167D01*
X156935671Y-51635441D01*
X156474211Y-51943778D01*
X156210000Y-52339198D01*
X155945789Y-51943778D01*
X155484329Y-51635441D01*
X154940000Y-51527167D01*
X154395671Y-51635441D01*
X153934211Y-51943778D01*
X153670000Y-52339198D01*
X153405789Y-51943778D01*
X152944329Y-51635441D01*
X152400000Y-51527167D01*
X151855671Y-51635441D01*
X151394211Y-51943778D01*
X151130000Y-52339198D01*
X150865789Y-51943778D01*
X150404329Y-51635441D01*
X149860000Y-51527167D01*
X149315671Y-51635441D01*
X148854211Y-51943778D01*
X148590000Y-52339198D01*
X148325789Y-51943778D01*
X147864329Y-51635441D01*
X147320000Y-51527167D01*
X146775671Y-51635441D01*
X146314211Y-51943778D01*
X146050000Y-52339198D01*
X145785789Y-51943778D01*
X145324329Y-51635441D01*
X144780000Y-51527167D01*
X144235671Y-51635441D01*
X143774211Y-51943778D01*
X143465874Y-52405238D01*
X143357600Y-52949567D01*
X143357600Y-53730433D01*
X143465874Y-54274762D01*
X143774211Y-54736222D01*
X144235671Y-55044559D01*
X144780000Y-55152833D01*
X145324329Y-55044559D01*
X145785789Y-54736222D01*
X146050000Y-54340801D01*
X146314211Y-54736222D01*
X146775671Y-55044559D01*
X147320000Y-55152833D01*
X147864329Y-55044559D01*
X148325789Y-54736222D01*
X148590000Y-54340801D01*
X148854211Y-54736222D01*
X149315671Y-55044559D01*
X149860000Y-55152833D01*
X150404329Y-55044559D01*
X150865789Y-54736222D01*
X151130000Y-54340801D01*
X151394211Y-54736222D01*
X151855671Y-55044559D01*
X152400000Y-55152833D01*
X152944329Y-55044559D01*
X153405789Y-54736222D01*
X153670000Y-54340801D01*
X153934211Y-54736222D01*
X154362935Y-55022685D01*
X154230625Y-55049004D01*
X153983415Y-55214185D01*
X138185433Y-71012166D01*
X138185433Y-62752021D01*
X137709068Y-61599129D01*
X136827771Y-60716292D01*
X135675712Y-60237915D01*
X134428281Y-60236827D01*
X133275389Y-60713192D01*
X132392552Y-61594489D01*
X131914175Y-62746548D01*
X131913087Y-63993979D01*
X132389452Y-65146871D01*
X133270749Y-66029708D01*
X134422808Y-66508085D01*
X135670239Y-66509173D01*
X136823131Y-66032808D01*
X137705968Y-65151511D01*
X138184345Y-63999452D01*
X138185433Y-62752021D01*
X138185433Y-71012166D01*
X133799777Y-75397822D01*
X133892833Y-74930000D01*
X133784559Y-74385671D01*
X133476222Y-73924211D01*
X133014762Y-73615874D01*
X132470433Y-73507600D01*
X131689567Y-73507600D01*
X131145238Y-73615874D01*
X130683778Y-73924211D01*
X130375441Y-74385671D01*
X130267167Y-74930000D01*
X130375441Y-75474329D01*
X130683778Y-75935789D01*
X131145238Y-76244126D01*
X131689567Y-76352400D01*
X132470433Y-76352400D01*
X133014762Y-76244126D01*
X133476222Y-75935789D01*
X133505777Y-75891555D01*
X133477000Y-76036230D01*
X133477000Y-79005375D01*
X133476222Y-79004211D01*
X133014762Y-78695874D01*
X132470433Y-78587600D01*
X131689567Y-78587600D01*
X131145238Y-78695874D01*
X130683778Y-79004211D01*
X130375441Y-79465671D01*
X130267167Y-80010000D01*
X130375441Y-80554329D01*
X130683778Y-81015789D01*
X131145238Y-81324126D01*
X131689567Y-81432400D01*
X132470433Y-81432400D01*
X133014762Y-81324126D01*
X133476222Y-81015789D01*
X133477000Y-81014624D01*
X133477000Y-84085375D01*
X133476222Y-84084211D01*
X133014762Y-83775874D01*
X132470433Y-83667600D01*
X131689567Y-83667600D01*
X131145238Y-83775874D01*
X130683778Y-84084211D01*
X130375441Y-84545671D01*
X130267167Y-85090000D01*
X130375441Y-85634329D01*
X130683778Y-86095789D01*
X131145238Y-86404126D01*
X131689567Y-86512400D01*
X132470433Y-86512400D01*
X133014762Y-86404126D01*
X133476222Y-86095789D01*
X133477000Y-86094624D01*
X133477000Y-89165375D01*
X133476222Y-89164211D01*
X133014762Y-88855874D01*
X132470433Y-88747600D01*
X131689567Y-88747600D01*
X131145238Y-88855874D01*
X130683778Y-89164211D01*
X130375441Y-89625671D01*
X130267167Y-90170000D01*
X130375441Y-90714329D01*
X130683778Y-91175789D01*
X131145238Y-91484126D01*
X131689567Y-91592400D01*
X132470433Y-91592400D01*
X133014762Y-91484126D01*
X133159323Y-91387533D01*
X133159313Y-91399784D01*
X133323311Y-91796689D01*
X133626714Y-92100622D01*
X134023332Y-92265313D01*
X134452784Y-92265687D01*
X134849689Y-92101689D01*
X135153622Y-91798286D01*
X135318313Y-91401668D01*
X135318687Y-90972216D01*
X135154689Y-90575311D01*
X135001000Y-90421353D01*
X135001000Y-83179660D01*
X135166332Y-83248313D01*
X135595784Y-83248687D01*
X135992689Y-83084689D01*
X136296622Y-82781286D01*
X136461313Y-82384668D01*
X136461502Y-82167127D01*
X136485040Y-82143590D01*
X136698007Y-82143590D01*
X136617167Y-82550000D01*
X136725441Y-83094329D01*
X137033778Y-83555789D01*
X137429198Y-83820000D01*
X137033778Y-84084211D01*
X136725441Y-84545671D01*
X136617167Y-85090000D01*
X136725441Y-85634329D01*
X137033778Y-86095789D01*
X137429198Y-86359999D01*
X137033778Y-86624211D01*
X136725441Y-87085671D01*
X136617167Y-87630000D01*
X136725441Y-88174329D01*
X137033778Y-88635789D01*
X137429198Y-88899999D01*
X137033778Y-89164211D01*
X136725441Y-89625671D01*
X136617167Y-90170000D01*
X136725441Y-90714329D01*
X137033778Y-91175789D01*
X137495238Y-91484126D01*
X138039567Y-91592400D01*
X138820433Y-91592400D01*
X139364762Y-91484126D01*
X139826222Y-91175789D01*
X140134559Y-90714329D01*
X140242833Y-90170000D01*
X140134559Y-89625671D01*
X139826222Y-89164211D01*
X139430801Y-88899999D01*
X139826222Y-88635789D01*
X140134559Y-88174329D01*
X140242833Y-87630000D01*
X140134559Y-87085671D01*
X139826222Y-86624211D01*
X139430801Y-86359999D01*
X139826222Y-86095789D01*
X140134559Y-85634329D01*
X140242833Y-85090000D01*
X140134559Y-84545671D01*
X139826222Y-84084211D01*
X139430801Y-83819999D01*
X139826222Y-83555789D01*
X140134559Y-83094329D01*
X140242833Y-82550000D01*
X140134559Y-82005671D01*
X140050605Y-81880024D01*
X142111130Y-79819499D01*
X142326784Y-79819687D01*
X142723689Y-79655689D01*
X143027622Y-79352286D01*
X143192313Y-78955668D01*
X143192687Y-78526216D01*
X143028689Y-78129311D01*
X142725286Y-77825378D01*
X142328668Y-77660687D01*
X141899216Y-77660313D01*
X141502311Y-77824311D01*
X141198378Y-78127714D01*
X141033687Y-78524332D01*
X141033497Y-78741872D01*
X140163616Y-79611753D01*
X140134559Y-79465671D01*
X139826222Y-79004211D01*
X139653986Y-78889126D01*
X139815123Y-78857863D01*
X140027927Y-78718073D01*
X140170377Y-78507040D01*
X140220440Y-78257400D01*
X140220440Y-76682600D01*
X140173463Y-76440477D01*
X140033673Y-76227673D01*
X139822640Y-76085223D01*
X139573000Y-76035160D01*
X137287000Y-76035160D01*
X137044877Y-76082137D01*
X136832073Y-76221927D01*
X136689623Y-76432960D01*
X136639560Y-76682600D01*
X136639560Y-78257400D01*
X136686537Y-78499523D01*
X136826327Y-78712327D01*
X137037360Y-78854777D01*
X137206621Y-78888720D01*
X137033778Y-79004211D01*
X136725441Y-79465671D01*
X136617167Y-80010000D01*
X136725441Y-80554329D01*
X136769046Y-80619590D01*
X136169410Y-80619590D01*
X135877805Y-80677594D01*
X135630595Y-80842775D01*
X135383869Y-81089500D01*
X135168216Y-81089313D01*
X135001000Y-81158405D01*
X135001000Y-76351860D01*
X154837860Y-56515000D01*
X157962600Y-56515000D01*
X157962600Y-56514999D01*
X158254204Y-56456996D01*
X158254205Y-56456996D01*
X158501415Y-56291815D01*
X159703377Y-55089852D01*
X160020000Y-55152833D01*
X160564329Y-55044559D01*
X161025789Y-54736222D01*
X161290000Y-54340801D01*
X161554211Y-54736222D01*
X162015671Y-55044559D01*
X162560000Y-55152833D01*
X163104329Y-55044559D01*
X163565789Y-54736222D01*
X163830000Y-54340801D01*
X164094211Y-54736222D01*
X164555671Y-55044559D01*
X165100000Y-55152833D01*
X165644329Y-55044559D01*
X166105789Y-54736222D01*
X166370000Y-54340801D01*
X166634211Y-54736222D01*
X167095671Y-55044559D01*
X167640000Y-55152833D01*
X168184329Y-55044559D01*
X168645789Y-54736222D01*
X168910000Y-54340801D01*
X169174211Y-54736222D01*
X169635671Y-55044559D01*
X170180000Y-55152833D01*
X170724329Y-55044559D01*
X171185789Y-54736222D01*
X171450000Y-54340801D01*
X171714211Y-54736222D01*
X172175671Y-55044559D01*
X172720000Y-55152833D01*
X173264329Y-55044559D01*
X173725789Y-54736222D01*
X173990000Y-54340801D01*
X174254211Y-54736222D01*
X174715671Y-55044559D01*
X175260000Y-55152833D01*
X175804329Y-55044559D01*
X176265789Y-54736222D01*
X176530000Y-54340801D01*
X176794211Y-54736222D01*
X177255671Y-55044559D01*
X177800000Y-55152833D01*
X178344329Y-55044559D01*
X178805789Y-54736222D01*
X179070000Y-54340801D01*
X179334211Y-54736222D01*
X179795671Y-55044559D01*
X180340000Y-55152833D01*
X180884329Y-55044559D01*
X181345789Y-54736222D01*
X181610000Y-54340801D01*
X181874211Y-54736222D01*
X182335671Y-55044559D01*
X182880000Y-55152833D01*
X183424329Y-55044559D01*
X183473843Y-55011474D01*
X183992185Y-55529816D01*
X184239395Y-55694996D01*
X184239396Y-55694997D01*
X184531000Y-55753000D01*
X190565370Y-55753000D01*
X191008000Y-56195630D01*
X191008000Y-66868214D01*
X190500000Y-66767167D01*
X189955671Y-66875441D01*
X189494211Y-67183778D01*
X189293731Y-67483817D01*
X189293731Y-64505914D01*
X189091146Y-64015620D01*
X188716353Y-63640173D01*
X188226413Y-63436732D01*
X187695914Y-63436269D01*
X187205620Y-63638854D01*
X186830173Y-64013647D01*
X186626732Y-64503587D01*
X186626269Y-65034086D01*
X186828854Y-65524380D01*
X187203647Y-65899827D01*
X187693587Y-66103268D01*
X188224086Y-66103731D01*
X188714380Y-65901146D01*
X189089827Y-65526353D01*
X189293268Y-65036413D01*
X189293731Y-64505914D01*
X189293731Y-67483817D01*
X189230000Y-67579198D01*
X188965789Y-67183778D01*
X188504329Y-66875441D01*
X187960000Y-66767167D01*
X187643377Y-66830147D01*
X187330405Y-66517175D01*
X187083195Y-66351994D01*
X186791590Y-66293990D01*
X168808410Y-66293990D01*
X168516805Y-66351994D01*
X168269594Y-66517175D01*
X167956622Y-66830147D01*
X167640000Y-66767167D01*
X167095671Y-66875441D01*
X166634211Y-67183778D01*
X166370000Y-67579198D01*
X166105789Y-67183778D01*
X165644329Y-66875441D01*
X165100000Y-66767167D01*
X164555671Y-66875441D01*
X164094211Y-67183778D01*
X163830000Y-67579198D01*
X163565789Y-67183778D01*
X163104329Y-66875441D01*
X162560000Y-66767167D01*
X162015671Y-66875441D01*
X161554211Y-67183778D01*
X161290000Y-67579198D01*
X161025789Y-67183778D01*
X160564329Y-66875441D01*
X160020000Y-66767167D01*
X159475671Y-66875441D01*
X159014211Y-67183778D01*
X158750000Y-67579198D01*
X158485789Y-67183778D01*
X158024329Y-66875441D01*
X157480000Y-66767167D01*
X156935671Y-66875441D01*
X156474211Y-67183778D01*
X156210000Y-67579198D01*
X155945789Y-67183778D01*
X155484329Y-66875441D01*
X154940000Y-66767167D01*
X154395671Y-66875441D01*
X153934211Y-67183778D01*
X153670000Y-67579198D01*
X153405789Y-67183778D01*
X152944329Y-66875441D01*
X152400000Y-66767167D01*
X151855671Y-66875441D01*
X151394211Y-67183778D01*
X151130000Y-67579198D01*
X150865789Y-67183778D01*
X150404329Y-66875441D01*
X149860000Y-66767167D01*
X149315671Y-66875441D01*
X148854211Y-67183778D01*
X148590000Y-67579198D01*
X148325789Y-67183778D01*
X147864329Y-66875441D01*
X147320000Y-66767167D01*
X146775671Y-66875441D01*
X146314211Y-67183778D01*
X146005874Y-67645238D01*
X145897600Y-68189567D01*
X145897600Y-68970433D01*
X146005874Y-69514762D01*
X146314211Y-69976222D01*
X146775671Y-70284559D01*
X147320000Y-70392833D01*
X147636622Y-70329852D01*
X150393399Y-73086629D01*
X150393399Y-75958960D01*
X148996400Y-75958960D01*
X148754277Y-76005937D01*
X148541473Y-76145727D01*
X148399023Y-76356760D01*
X148366788Y-76517500D01*
X148336000Y-76517500D01*
X147481828Y-76517500D01*
X147446222Y-76464211D01*
X147002500Y-76167726D01*
X147002500Y-76073002D01*
X147002500Y-73323371D01*
X147179827Y-73146353D01*
X147383268Y-72656413D01*
X147383731Y-72125914D01*
X147181146Y-71635620D01*
X146806353Y-71260173D01*
X146316413Y-71056732D01*
X145785914Y-71056269D01*
X145295620Y-71258854D01*
X144920173Y-71633647D01*
X144716732Y-72123587D01*
X144716269Y-72654086D01*
X144918854Y-73144380D01*
X145097500Y-73323337D01*
X145097500Y-76073002D01*
X145097500Y-76167726D01*
X144653778Y-76464211D01*
X144345441Y-76925671D01*
X144237167Y-77470000D01*
X144345441Y-78014329D01*
X144653778Y-78475789D01*
X145049198Y-78740000D01*
X144653778Y-79004211D01*
X144345441Y-79465671D01*
X144237167Y-80010000D01*
X144345441Y-80554329D01*
X144653778Y-81015789D01*
X145049198Y-81280000D01*
X144653778Y-81544211D01*
X144345441Y-82005671D01*
X144237167Y-82550000D01*
X144345441Y-83094329D01*
X144653778Y-83555789D01*
X145049198Y-83819999D01*
X144653778Y-84084211D01*
X144345441Y-84545671D01*
X144237167Y-85090000D01*
X144345441Y-85634329D01*
X144653778Y-86095789D01*
X145049198Y-86359999D01*
X144653778Y-86624211D01*
X144345441Y-87085671D01*
X144237167Y-87630000D01*
X144345441Y-88174329D01*
X144653778Y-88635789D01*
X145049198Y-88899999D01*
X144653778Y-89164211D01*
X144345441Y-89625671D01*
X144237167Y-90170000D01*
X144345441Y-90714329D01*
X144653778Y-91175789D01*
X145049198Y-91439999D01*
X144653778Y-91704211D01*
X144345441Y-92165671D01*
X144237167Y-92710000D01*
X144345441Y-93254329D01*
X144653778Y-93715789D01*
X145115238Y-94024126D01*
X145366828Y-94074170D01*
X145511185Y-94290215D01*
X149225000Y-98004030D01*
X149225000Y-101358960D01*
X147726400Y-101358960D01*
X147484277Y-101405937D01*
X147271473Y-101545727D01*
X147129023Y-101756760D01*
X147120731Y-101798104D01*
X146652848Y-101485474D01*
X146079359Y-101371400D01*
X146020641Y-101371400D01*
X145447152Y-101485474D01*
X144960971Y-101810330D01*
X144780000Y-102081172D01*
X144599029Y-101810330D01*
X144112848Y-101485474D01*
X143539359Y-101371400D01*
X143480641Y-101371400D01*
X142907152Y-101485474D01*
X142420971Y-101810330D01*
X142096115Y-102296511D01*
X141982041Y-102870000D01*
X142056755Y-103245614D01*
X142025959Y-103276410D01*
X133811992Y-103276410D01*
X133892833Y-102870000D01*
X133784559Y-102325671D01*
X133476222Y-101864211D01*
X133014762Y-101555874D01*
X132470433Y-101447600D01*
X131689567Y-101447600D01*
X131145238Y-101555874D01*
X130683778Y-101864211D01*
X130375441Y-102325671D01*
X130267167Y-102870000D01*
X130348007Y-103276410D01*
X129480310Y-103276410D01*
X129480310Y-65172862D01*
X129480310Y-64610978D01*
X129374840Y-64080743D01*
X129074486Y-63631232D01*
X128624975Y-63330878D01*
X128094740Y-63225408D01*
X127564505Y-63330878D01*
X127114994Y-63631232D01*
X126814640Y-64080743D01*
X126710440Y-64604593D01*
X126606240Y-64080743D01*
X126305886Y-63631232D01*
X125862550Y-63335004D01*
X125941758Y-63255796D01*
X126180205Y-63415122D01*
X126710440Y-63520592D01*
X127240675Y-63415122D01*
X127690186Y-63114768D01*
X127990540Y-62665257D01*
X128096010Y-62135022D01*
X128096010Y-61573138D01*
X127990540Y-61042903D01*
X127690186Y-60593392D01*
X127240675Y-60293038D01*
X126710440Y-60187568D01*
X126180205Y-60293038D01*
X125730694Y-60593392D01*
X125430340Y-61042903D01*
X125324870Y-61573138D01*
X125219400Y-61042903D01*
X124919046Y-60593392D01*
X124469535Y-60293038D01*
X123939300Y-60187568D01*
X123409065Y-60293038D01*
X122959554Y-60593392D01*
X122659200Y-61042903D01*
X122555000Y-61566753D01*
X122450800Y-61042903D01*
X122150446Y-60593392D01*
X121700935Y-60293038D01*
X121170700Y-60187568D01*
X120640465Y-60293038D01*
X120190954Y-60593392D01*
X119890600Y-61042903D01*
X119785130Y-61573138D01*
X119679660Y-61042903D01*
X119379306Y-60593392D01*
X118929795Y-60293038D01*
X118399560Y-60187568D01*
X117869325Y-60293038D01*
X117419814Y-60593392D01*
X117119460Y-61042903D01*
X117013990Y-61573138D01*
X117013990Y-62135022D01*
X117119460Y-62665257D01*
X117419814Y-63114768D01*
X117869325Y-63415122D01*
X118399560Y-63520592D01*
X118929795Y-63415122D01*
X119379306Y-63114768D01*
X119679660Y-62665257D01*
X119785130Y-62135022D01*
X119890600Y-62665257D01*
X120190954Y-63114768D01*
X120408700Y-63260261D01*
X120408700Y-63356490D01*
X120408700Y-63394091D01*
X120314095Y-63330878D01*
X119783860Y-63225408D01*
X119253625Y-63330878D01*
X118804114Y-63631232D01*
X118503760Y-64080743D01*
X118399560Y-64604593D01*
X118295360Y-64080743D01*
X117995006Y-63631232D01*
X117545495Y-63330878D01*
X117015260Y-63225408D01*
X116485025Y-63330878D01*
X116035514Y-63631232D01*
X115735160Y-64080743D01*
X115629690Y-64610978D01*
X115629690Y-65172862D01*
X115735160Y-65703097D01*
X116035514Y-66152608D01*
X116253260Y-66298101D01*
X116253260Y-69799182D01*
X116052378Y-69999714D01*
X115887687Y-70396332D01*
X115887313Y-70825784D01*
X116051311Y-71222689D01*
X116354714Y-71526622D01*
X116751332Y-71691313D01*
X117180784Y-71691687D01*
X117577689Y-71527689D01*
X117881622Y-71224286D01*
X118046313Y-70827668D01*
X118046687Y-70398216D01*
X117882689Y-70001311D01*
X117777260Y-69895697D01*
X117777260Y-66298101D01*
X117995006Y-66152608D01*
X118295360Y-65703097D01*
X118399560Y-65179246D01*
X118503760Y-65703097D01*
X118804114Y-66152608D01*
X118999000Y-66282826D01*
X118999000Y-69148868D01*
X118846378Y-69301224D01*
X118681687Y-69697842D01*
X118681313Y-70127294D01*
X118845311Y-70524199D01*
X119069670Y-70748950D01*
X113196913Y-76621707D01*
X113196913Y-62752021D01*
X112720548Y-61599129D01*
X111839251Y-60716292D01*
X110687192Y-60237915D01*
X109439761Y-60236827D01*
X108286869Y-60713192D01*
X107404032Y-61594489D01*
X106925655Y-62746548D01*
X106924567Y-63993979D01*
X107400932Y-65146871D01*
X108282229Y-66029708D01*
X109434288Y-66508085D01*
X110681719Y-66509173D01*
X111834611Y-66032808D01*
X112717448Y-65151511D01*
X113195825Y-63999452D01*
X113196913Y-62752021D01*
X113196913Y-76621707D01*
X112953088Y-76865533D01*
X112891146Y-76715620D01*
X112516353Y-76340173D01*
X112178553Y-76199906D01*
X112514380Y-76061146D01*
X112889827Y-75686353D01*
X113093268Y-75196413D01*
X113093731Y-74665914D01*
X112891146Y-74175620D01*
X112516353Y-73800173D01*
X112026413Y-73596732D01*
X111495914Y-73596269D01*
X111005620Y-73798854D01*
X110630173Y-74173647D01*
X110426732Y-74663587D01*
X110426269Y-75194086D01*
X110628854Y-75684380D01*
X111003647Y-76059827D01*
X111341446Y-76200093D01*
X111005620Y-76338854D01*
X110630173Y-76713647D01*
X110426732Y-77203587D01*
X110426269Y-77734086D01*
X110448339Y-77787501D01*
X108496099Y-77787501D01*
X108426941Y-77801257D01*
X108492833Y-77470000D01*
X108384559Y-76925671D01*
X108076222Y-76464211D01*
X107680801Y-76200000D01*
X108076222Y-75935789D01*
X108384559Y-75474329D01*
X108492833Y-74930000D01*
X108384559Y-74385671D01*
X108076222Y-73924211D01*
X107614762Y-73615874D01*
X107070433Y-73507600D01*
X106289567Y-73507600D01*
X105745238Y-73615874D01*
X105326377Y-73895746D01*
X105165433Y-73734802D01*
X105165433Y-62752021D01*
X104689068Y-61599129D01*
X103807771Y-60716292D01*
X102655712Y-60237915D01*
X101408281Y-60236827D01*
X100255389Y-60713192D01*
X99372552Y-61594489D01*
X98894175Y-62746548D01*
X98893087Y-63993979D01*
X99369452Y-65146871D01*
X100250749Y-66029708D01*
X101402808Y-66508085D01*
X102650239Y-66509173D01*
X103803131Y-66032808D01*
X104685968Y-65151511D01*
X105164345Y-63999452D01*
X105165433Y-62752021D01*
X105165433Y-73734802D01*
X100106815Y-68676185D01*
X99859605Y-68511004D01*
X99568000Y-68453000D01*
X93339644Y-68453000D01*
X93408313Y-68287628D01*
X93408687Y-67858176D01*
X93244689Y-67461271D01*
X93068140Y-67284413D01*
X93068140Y-66298101D01*
X93285886Y-66152608D01*
X93586240Y-65703097D01*
X93690440Y-65179246D01*
X93794640Y-65703097D01*
X94094994Y-66152608D01*
X94312740Y-66298101D01*
X94312740Y-66530013D01*
X94208378Y-66634194D01*
X94043687Y-67030812D01*
X94043313Y-67460264D01*
X94207311Y-67857169D01*
X94510714Y-68161102D01*
X94907332Y-68325793D01*
X95336784Y-68326167D01*
X95733689Y-68162169D01*
X96037622Y-67858766D01*
X96202313Y-67462148D01*
X96202687Y-67032696D01*
X96038689Y-66635791D01*
X95836740Y-66433489D01*
X95836740Y-66298101D01*
X96054486Y-66152608D01*
X96354840Y-65703097D01*
X96460310Y-65172862D01*
X96460310Y-64610978D01*
X96354840Y-64080743D01*
X96054486Y-63631232D01*
X95604975Y-63330878D01*
X95074740Y-63225408D01*
X94544505Y-63330878D01*
X94094994Y-63631232D01*
X93794640Y-64080743D01*
X93690440Y-64604593D01*
X93586240Y-64080743D01*
X93285886Y-63631232D01*
X92836375Y-63330878D01*
X92306140Y-63225408D01*
X91775905Y-63330878D01*
X91501094Y-63514500D01*
X91470815Y-63469185D01*
X91422191Y-63420561D01*
X91449535Y-63415122D01*
X91899046Y-63114768D01*
X92199400Y-62665257D01*
X92304870Y-62135022D01*
X92410340Y-62665257D01*
X92710694Y-63114768D01*
X93160205Y-63415122D01*
X93690440Y-63520592D01*
X94220675Y-63415122D01*
X94670186Y-63114768D01*
X94970540Y-62665257D01*
X95076010Y-62135022D01*
X95076010Y-61573138D01*
X94970540Y-61042903D01*
X94670186Y-60593392D01*
X94452440Y-60447898D01*
X94452440Y-59283619D01*
X94640622Y-59095766D01*
X94805313Y-58699148D01*
X94805687Y-58269696D01*
X94641689Y-57872791D01*
X94338286Y-57568858D01*
X93941668Y-57404167D01*
X93512216Y-57403793D01*
X93115311Y-57567791D01*
X92811378Y-57871194D01*
X92646687Y-58267812D01*
X92646313Y-58697264D01*
X92810311Y-59094169D01*
X92928440Y-59212504D01*
X92928440Y-60447898D01*
X92710694Y-60593392D01*
X92410340Y-61042903D01*
X92304870Y-61573138D01*
X92199400Y-61042903D01*
X91899046Y-60593392D01*
X91681300Y-60447898D01*
X91681300Y-60149799D01*
X91846622Y-59984766D01*
X92011313Y-59588148D01*
X92011687Y-59158696D01*
X91847689Y-58761791D01*
X91544286Y-58457858D01*
X91147668Y-58293167D01*
X90718216Y-58292793D01*
X90321311Y-58456791D01*
X90017378Y-58760194D01*
X89852687Y-59156812D01*
X89852313Y-59586264D01*
X90016311Y-59983169D01*
X90157300Y-60124404D01*
X90157300Y-60447898D01*
X89939554Y-60593392D01*
X89639200Y-61042903D01*
X89539066Y-61546311D01*
X89529687Y-61540045D01*
X89430800Y-61042903D01*
X89130446Y-60593392D01*
X88680935Y-60293038D01*
X88150700Y-60187568D01*
X87620465Y-60293038D01*
X87170954Y-60593392D01*
X86870600Y-61042903D01*
X86765130Y-61573138D01*
X86659660Y-61042903D01*
X86359306Y-60593392D01*
X85909795Y-60293038D01*
X85379560Y-60187568D01*
X84849325Y-60293038D01*
X84399814Y-60593392D01*
X84099460Y-61042903D01*
X83993990Y-61573138D01*
X83993990Y-62135022D01*
X84099460Y-62665257D01*
X84399814Y-63114768D01*
X84849325Y-63415122D01*
X85379560Y-63520592D01*
X85909795Y-63415122D01*
X86359306Y-63114768D01*
X86659660Y-62665257D01*
X86765130Y-62135022D01*
X86870600Y-62665257D01*
X87170954Y-63114768D01*
X87620465Y-63415122D01*
X88150700Y-63520592D01*
X88680935Y-63415122D01*
X89028953Y-63182583D01*
X89148631Y-63302261D01*
X89004765Y-63330878D01*
X88555254Y-63631232D01*
X88254900Y-64080743D01*
X88149430Y-64610978D01*
X88043960Y-64080743D01*
X87743606Y-63631232D01*
X87294095Y-63330878D01*
X86763860Y-63225408D01*
X86233625Y-63330878D01*
X85784114Y-63631232D01*
X85483760Y-64080743D01*
X85379560Y-64604593D01*
X85275360Y-64080743D01*
X84975006Y-63631232D01*
X84525495Y-63330878D01*
X83995260Y-63225408D01*
X83465025Y-63330878D01*
X83015514Y-63631232D01*
X82715160Y-64080743D01*
X82609690Y-64610978D01*
X82609690Y-65172862D01*
X82715160Y-65703097D01*
X83015514Y-66152608D01*
X83233260Y-66298101D01*
X83233260Y-69799182D01*
X83032378Y-69999714D01*
X82867687Y-70396332D01*
X82867313Y-70825784D01*
X83031311Y-71222689D01*
X83334714Y-71526622D01*
X83731332Y-71691313D01*
X84160784Y-71691687D01*
X84557689Y-71527689D01*
X84861622Y-71224286D01*
X85026313Y-70827668D01*
X85026687Y-70398216D01*
X84862689Y-70001311D01*
X84757260Y-69895697D01*
X84757260Y-66298101D01*
X84975006Y-66152608D01*
X85275360Y-65703097D01*
X85379560Y-65179246D01*
X85483760Y-65703097D01*
X85784114Y-66152608D01*
X86001860Y-66298101D01*
X86001860Y-68935538D01*
X85826378Y-69110714D01*
X85661687Y-69507332D01*
X85661313Y-69936784D01*
X85825311Y-70333689D01*
X85979000Y-70487646D01*
X85979000Y-80746600D01*
X86037004Y-81038205D01*
X86202185Y-81285415D01*
X97310147Y-92393378D01*
X97247167Y-92710000D01*
X97355441Y-93254329D01*
X97663778Y-93715789D01*
X98125238Y-94024126D01*
X98669567Y-94132400D01*
X99450433Y-94132400D01*
X99994762Y-94024126D01*
X100456222Y-93715789D01*
X100764559Y-93254329D01*
X100872833Y-92710000D01*
X100764559Y-92165671D01*
X100456222Y-91704211D01*
X100060801Y-91440000D01*
X100456222Y-91175789D01*
X100764559Y-90714329D01*
X100872833Y-90170000D01*
X100816623Y-89887414D01*
X101511519Y-89192519D01*
X101717995Y-88883506D01*
X101717995Y-88883505D01*
X101790500Y-88519000D01*
X101790500Y-87524028D01*
X101892332Y-87566313D01*
X102321784Y-87566687D01*
X102718689Y-87402689D01*
X103022622Y-87099286D01*
X103187313Y-86702668D01*
X103187687Y-86273216D01*
X103023689Y-85876311D01*
X102870000Y-85722353D01*
X102870000Y-85242400D01*
X102811997Y-84950796D01*
X102811996Y-84950795D01*
X102646816Y-84703585D01*
X100809852Y-82866622D01*
X100872833Y-82550000D01*
X100764559Y-82005671D01*
X100456222Y-81544211D01*
X100060801Y-81280000D01*
X100456222Y-81015789D01*
X100764559Y-80554329D01*
X100872833Y-80010000D01*
X100764559Y-79465671D01*
X100456222Y-79004211D01*
X100060801Y-78740000D01*
X100456222Y-78475789D01*
X100764559Y-78014329D01*
X100872833Y-77470000D01*
X100764559Y-76925671D01*
X100456222Y-76464211D01*
X100283986Y-76349126D01*
X100445123Y-76317863D01*
X100657927Y-76178073D01*
X100800377Y-75967040D01*
X100850440Y-75717400D01*
X100850440Y-74142600D01*
X100803463Y-73900477D01*
X100663673Y-73687673D01*
X100452640Y-73545223D01*
X100203000Y-73495160D01*
X97917000Y-73495160D01*
X97674877Y-73542137D01*
X97462073Y-73681927D01*
X97319623Y-73892960D01*
X97269560Y-74142600D01*
X97269560Y-75717400D01*
X97316537Y-75959523D01*
X97456327Y-76172327D01*
X97667360Y-76314777D01*
X97836621Y-76348720D01*
X97663778Y-76464211D01*
X97355441Y-76925671D01*
X97247167Y-77470000D01*
X97355441Y-78014329D01*
X97663778Y-78475789D01*
X98059198Y-78740000D01*
X97663778Y-79004211D01*
X97355441Y-79465671D01*
X97247167Y-80010000D01*
X97355441Y-80554329D01*
X97663778Y-81015789D01*
X98059198Y-81280000D01*
X97663778Y-81544211D01*
X97355441Y-82005671D01*
X97247167Y-82550000D01*
X97355441Y-83094329D01*
X97663778Y-83555789D01*
X98059198Y-83820000D01*
X97663778Y-84084211D01*
X97355441Y-84545671D01*
X97247167Y-85090000D01*
X97248442Y-85096412D01*
X90297000Y-78144970D01*
X90297000Y-69662121D01*
X90449622Y-69509766D01*
X90614313Y-69113148D01*
X90614489Y-68910861D01*
X91457443Y-69753815D01*
X91704653Y-69918996D01*
X91996258Y-69977000D01*
X99252369Y-69977000D01*
X104744185Y-75468816D01*
X104991395Y-75633996D01*
X104991396Y-75633997D01*
X105096034Y-75654810D01*
X105283778Y-75935789D01*
X105679198Y-76200000D01*
X105283778Y-76464211D01*
X104975441Y-76925671D01*
X104867167Y-77470000D01*
X104975441Y-78014329D01*
X105283778Y-78475789D01*
X105679198Y-78740000D01*
X105283778Y-79004211D01*
X104975441Y-79465671D01*
X104867167Y-80010000D01*
X104975441Y-80554329D01*
X105283778Y-81015789D01*
X105679198Y-81280000D01*
X105283778Y-81544211D01*
X104975441Y-82005671D01*
X104867167Y-82550000D01*
X104975441Y-83094329D01*
X105283778Y-83555789D01*
X105679198Y-83820000D01*
X105283778Y-84084211D01*
X104975441Y-84545671D01*
X104867167Y-85090000D01*
X104975441Y-85634329D01*
X105283778Y-86095789D01*
X105745238Y-86404126D01*
X106289567Y-86512400D01*
X107070433Y-86512400D01*
X107614762Y-86404126D01*
X108076222Y-86095789D01*
X108384559Y-85634329D01*
X108492833Y-85090000D01*
X108384559Y-84545671D01*
X108076222Y-84084211D01*
X107680801Y-83820000D01*
X108076222Y-83555789D01*
X108384559Y-83094329D01*
X108492833Y-82550000D01*
X108384559Y-82005671D01*
X108076222Y-81544211D01*
X107680801Y-81280000D01*
X108076222Y-81015789D01*
X108384559Y-80554329D01*
X108492833Y-80010000D01*
X108429852Y-79693377D01*
X108811729Y-79311501D01*
X110606149Y-79311501D01*
X110426732Y-79743587D01*
X110426269Y-80274086D01*
X110628854Y-80764380D01*
X111003647Y-81139827D01*
X111341446Y-81280093D01*
X111005620Y-81418854D01*
X110630173Y-81793647D01*
X110426732Y-82283587D01*
X110426269Y-82814086D01*
X110628854Y-83304380D01*
X111003647Y-83679827D01*
X111493587Y-83883268D01*
X112024086Y-83883731D01*
X112514380Y-83681146D01*
X112889827Y-83306353D01*
X113093268Y-82816413D01*
X113093731Y-82285914D01*
X112891146Y-81795620D01*
X112516353Y-81420173D01*
X112178553Y-81279906D01*
X112514380Y-81141146D01*
X112889827Y-80766353D01*
X113093268Y-80276413D01*
X113093731Y-79745914D01*
X112891146Y-79255620D01*
X112788726Y-79153022D01*
X112788726Y-79153021D01*
X112885566Y-79088316D01*
X121709515Y-70264368D01*
X121709515Y-70264367D01*
X121874696Y-70017157D01*
X121909472Y-69842322D01*
X121942714Y-69875622D01*
X122339332Y-70040313D01*
X122768784Y-70040687D01*
X122988670Y-69949831D01*
X121381166Y-71557336D01*
X121215985Y-71804546D01*
X121157981Y-72096151D01*
X121157981Y-85445581D01*
X121215985Y-85737186D01*
X121381166Y-85984396D01*
X122710147Y-87313377D01*
X122647167Y-87630000D01*
X122755441Y-88174329D01*
X123063778Y-88635789D01*
X123459198Y-88899999D01*
X123063778Y-89164211D01*
X122755441Y-89625671D01*
X122647167Y-90170000D01*
X122755441Y-90714329D01*
X123063778Y-91175789D01*
X123459198Y-91439999D01*
X123063778Y-91704211D01*
X122755441Y-92165671D01*
X122647167Y-92710000D01*
X122755441Y-93254329D01*
X123063778Y-93715789D01*
X123525238Y-94024126D01*
X124069567Y-94132400D01*
X124850433Y-94132400D01*
X125394762Y-94024126D01*
X125856222Y-93715789D01*
X126164559Y-93254329D01*
X126272833Y-92710000D01*
X126164559Y-92165671D01*
X125856222Y-91704211D01*
X125460801Y-91439999D01*
X125856222Y-91175789D01*
X126164559Y-90714329D01*
X126272833Y-90170000D01*
X126254550Y-90078087D01*
X126911519Y-89421119D01*
X127117995Y-89112106D01*
X127190499Y-88747600D01*
X127190500Y-88747600D01*
X127190500Y-85065189D01*
X127190500Y-80066229D01*
X127190500Y-76352400D01*
X127117995Y-75987894D01*
X126911519Y-75678881D01*
X126250440Y-75017802D01*
X126250440Y-74142600D01*
X126203463Y-73900477D01*
X126063673Y-73687673D01*
X125852640Y-73545223D01*
X125603000Y-73495160D01*
X123697999Y-73495160D01*
X123697999Y-72832631D01*
X126172630Y-70358000D01*
X126365000Y-70358000D01*
X126365000Y-70357999D01*
X126656604Y-70299996D01*
X126656605Y-70299996D01*
X126903815Y-70134815D01*
X128681815Y-68356815D01*
X128681816Y-68356815D01*
X128780834Y-68208623D01*
X128800963Y-68178496D01*
X128800964Y-68178496D01*
X129057622Y-67922286D01*
X129222313Y-67525668D01*
X129222687Y-67096216D01*
X129058689Y-66699311D01*
X128856740Y-66497009D01*
X128856740Y-66298101D01*
X129074486Y-66152608D01*
X129374840Y-65703097D01*
X129480310Y-65172862D01*
X129480310Y-103276410D01*
X127341040Y-103276410D01*
X126395815Y-102331185D01*
X126250440Y-102234048D01*
X126250440Y-102082600D01*
X126203463Y-101840477D01*
X126063673Y-101627673D01*
X125852640Y-101485223D01*
X125603000Y-101435160D01*
X123317000Y-101435160D01*
X123074877Y-101482137D01*
X122862073Y-101621927D01*
X122719623Y-101832960D01*
X122669560Y-102082600D01*
X122669560Y-103657400D01*
X122716537Y-103899523D01*
X122856327Y-104112327D01*
X123067360Y-104254777D01*
X123236621Y-104288720D01*
X123063778Y-104404211D01*
X122755441Y-104865671D01*
X122647167Y-105410000D01*
X122755441Y-105954329D01*
X123063778Y-106415789D01*
X123459198Y-106679999D01*
X123063778Y-106944211D01*
X122755441Y-107405671D01*
X122647167Y-107950000D01*
X122755441Y-108494329D01*
X123063778Y-108955789D01*
X123459198Y-109219999D01*
X123063778Y-109484211D01*
X122755441Y-109945671D01*
X122647167Y-110490000D01*
X122755441Y-111034329D01*
X123063778Y-111495789D01*
X123459198Y-111759999D01*
X123063778Y-112024211D01*
X122755441Y-112485671D01*
X122647167Y-113030000D01*
X122755441Y-113574329D01*
X123063778Y-114035789D01*
X123459198Y-114299999D01*
X123063778Y-114564211D01*
X122755441Y-115025671D01*
X122647167Y-115570000D01*
X122755441Y-116114329D01*
X123063778Y-116575789D01*
X123459198Y-116839999D01*
X123063778Y-117104211D01*
X122958083Y-117262394D01*
X122676353Y-116980173D01*
X122186413Y-116776732D01*
X121655914Y-116776269D01*
X121165620Y-116978854D01*
X120790173Y-117353647D01*
X120713731Y-117537739D01*
X120713731Y-77205914D01*
X120511146Y-76715620D01*
X120332500Y-76536662D01*
X120332500Y-75863371D01*
X120509827Y-75686353D01*
X120713268Y-75196413D01*
X120713731Y-74665914D01*
X120511146Y-74175620D01*
X120136353Y-73800173D01*
X119646413Y-73596732D01*
X119115914Y-73596269D01*
X118625620Y-73798854D01*
X118250173Y-74173647D01*
X118046732Y-74663587D01*
X118046269Y-75194086D01*
X118248854Y-75684380D01*
X118427500Y-75863337D01*
X118427500Y-76536628D01*
X118250173Y-76713647D01*
X118046732Y-77203587D01*
X118046269Y-77734086D01*
X118248854Y-78224380D01*
X118623647Y-78599827D01*
X119113587Y-78803268D01*
X119644086Y-78803731D01*
X120134380Y-78601146D01*
X120509827Y-78226353D01*
X120713268Y-77736413D01*
X120713731Y-77205914D01*
X120713731Y-117537739D01*
X120586732Y-117843587D01*
X120586269Y-118374086D01*
X120788854Y-118864380D01*
X121163647Y-119239827D01*
X121653587Y-119443268D01*
X122184086Y-119443731D01*
X122674380Y-119241146D01*
X122958216Y-118957804D01*
X123063778Y-119115789D01*
X123525238Y-119424126D01*
X124069567Y-119532400D01*
X124850433Y-119532400D01*
X124884237Y-119525675D01*
X126936500Y-121577938D01*
X126936500Y-140575933D01*
X126809687Y-140881332D01*
X126809313Y-141310784D01*
X126973311Y-141707689D01*
X127276714Y-142011622D01*
X127673332Y-142176313D01*
X128102784Y-142176687D01*
X128499689Y-142012689D01*
X128803622Y-141709286D01*
X128968313Y-141312668D01*
X128968687Y-140883216D01*
X128841500Y-140575400D01*
X128841500Y-121183400D01*
X128768995Y-120818894D01*
X128562519Y-120509881D01*
X126254550Y-118201912D01*
X126272833Y-118110000D01*
X126164559Y-117565671D01*
X125856222Y-117104211D01*
X125460801Y-116839999D01*
X125856222Y-116575789D01*
X126164559Y-116114329D01*
X126272833Y-115570000D01*
X126164559Y-115025671D01*
X125856222Y-114564211D01*
X125460801Y-114299999D01*
X125856222Y-114035789D01*
X126164559Y-113574329D01*
X126272833Y-113030000D01*
X126164559Y-112485671D01*
X125856222Y-112024211D01*
X125460801Y-111759999D01*
X125856222Y-111495789D01*
X126164559Y-111034329D01*
X126272833Y-110490000D01*
X126164559Y-109945671D01*
X125856222Y-109484211D01*
X125460801Y-109219999D01*
X125856222Y-108955789D01*
X126164559Y-108494329D01*
X126272833Y-107950000D01*
X126164559Y-107405671D01*
X125856222Y-106944211D01*
X125460801Y-106679999D01*
X125856222Y-106415789D01*
X126164559Y-105954329D01*
X126272833Y-105410000D01*
X126164559Y-104865671D01*
X125856222Y-104404211D01*
X125683986Y-104289126D01*
X125845123Y-104257863D01*
X126039528Y-104130158D01*
X126486594Y-104577225D01*
X126486595Y-104577225D01*
X126733805Y-104742406D01*
X127025410Y-104800410D01*
X130419046Y-104800410D01*
X130375441Y-104865671D01*
X130267167Y-105410000D01*
X130375441Y-105954329D01*
X130683778Y-106415789D01*
X131079198Y-106679999D01*
X130683778Y-106944211D01*
X130375441Y-107405671D01*
X130267167Y-107950000D01*
X130375441Y-108494329D01*
X130683778Y-108955789D01*
X131079198Y-109219999D01*
X130683778Y-109484211D01*
X130375441Y-109945671D01*
X130267167Y-110490000D01*
X130375441Y-111034329D01*
X130683778Y-111495789D01*
X131079198Y-111759999D01*
X130683778Y-112024211D01*
X130375441Y-112485671D01*
X130267167Y-113030000D01*
X130375441Y-113574329D01*
X130683778Y-114035789D01*
X131079198Y-114299999D01*
X130683778Y-114564211D01*
X130375441Y-115025671D01*
X130267167Y-115570000D01*
X130375441Y-116114329D01*
X130683778Y-116575789D01*
X131145238Y-116884126D01*
X131689567Y-116992400D01*
X132470433Y-116992400D01*
X133014762Y-116884126D01*
X133476222Y-116575789D01*
X133784559Y-116114329D01*
X133892833Y-115570000D01*
X133784559Y-115025671D01*
X133476222Y-114564211D01*
X133080801Y-114299999D01*
X133476222Y-114035789D01*
X133784559Y-113574329D01*
X133892833Y-113030000D01*
X133784559Y-112485671D01*
X133476222Y-112024211D01*
X133080801Y-111759999D01*
X133476222Y-111495789D01*
X133784559Y-111034329D01*
X133892833Y-110490000D01*
X133784559Y-109945671D01*
X133476222Y-109484211D01*
X133080801Y-109219999D01*
X133476222Y-108955789D01*
X133784559Y-108494329D01*
X133892833Y-107950000D01*
X133784559Y-107405671D01*
X133476222Y-106944211D01*
X133080801Y-106679999D01*
X133476222Y-106415789D01*
X133784559Y-105954329D01*
X133892833Y-105410000D01*
X133784559Y-104865671D01*
X133740953Y-104800410D01*
X142341590Y-104800410D01*
X142341590Y-104800409D01*
X142633194Y-104742406D01*
X142633195Y-104742406D01*
X142880405Y-104577225D01*
X143154002Y-104303627D01*
X143480641Y-104368600D01*
X143539359Y-104368600D01*
X144043399Y-104268340D01*
X144043399Y-110578228D01*
X133873267Y-120748359D01*
X133892833Y-120650000D01*
X133784559Y-120105671D01*
X133476222Y-119644211D01*
X133014762Y-119335874D01*
X132470433Y-119227600D01*
X131689567Y-119227600D01*
X131145238Y-119335874D01*
X130683778Y-119644211D01*
X130375441Y-120105671D01*
X130267167Y-120650000D01*
X130375441Y-121194329D01*
X130683778Y-121655789D01*
X131079198Y-121919999D01*
X130683778Y-122184211D01*
X130375441Y-122645671D01*
X130267167Y-123190000D01*
X130375441Y-123734329D01*
X130683778Y-124195789D01*
X131079198Y-124459999D01*
X130683778Y-124724211D01*
X130375441Y-125185671D01*
X130267167Y-125730000D01*
X130375441Y-126274329D01*
X130683778Y-126735789D01*
X131079198Y-126999999D01*
X130683778Y-127264211D01*
X130375441Y-127725671D01*
X130267167Y-128270000D01*
X130375441Y-128814329D01*
X130683778Y-129275789D01*
X131079198Y-129539999D01*
X130683778Y-129804211D01*
X130375441Y-130265671D01*
X130267167Y-130810000D01*
X130375441Y-131354329D01*
X130683778Y-131815789D01*
X131079198Y-132080000D01*
X130683778Y-132344211D01*
X130375441Y-132805671D01*
X130267167Y-133350000D01*
X130375441Y-133894329D01*
X130683778Y-134355789D01*
X131079198Y-134620000D01*
X130683778Y-134884211D01*
X130375441Y-135345671D01*
X130267167Y-135890000D01*
X130375441Y-136434329D01*
X130683778Y-136895789D01*
X131145238Y-137204126D01*
X131689567Y-137312400D01*
X132470433Y-137312400D01*
X133014762Y-137204126D01*
X133476222Y-136895789D01*
X133784559Y-136434329D01*
X133892833Y-135890000D01*
X133784559Y-135345671D01*
X133476222Y-134884211D01*
X133080801Y-134620000D01*
X133476222Y-134355789D01*
X133784559Y-133894329D01*
X133892833Y-133350000D01*
X133784559Y-132805671D01*
X133476222Y-132344211D01*
X133080801Y-132080000D01*
X133476222Y-131815789D01*
X133784559Y-131354329D01*
X133892833Y-130810000D01*
X133784559Y-130265671D01*
X133476222Y-129804211D01*
X133080801Y-129539999D01*
X133476222Y-129275789D01*
X133784559Y-128814329D01*
X133892833Y-128270000D01*
X133829852Y-127953377D01*
X145495332Y-116287897D01*
X145542000Y-116334646D01*
X145542000Y-136141358D01*
X145389378Y-136293714D01*
X145224687Y-136690332D01*
X145224313Y-137119784D01*
X145388311Y-137516689D01*
X145691714Y-137820622D01*
X146088332Y-137985313D01*
X146517784Y-137985687D01*
X146914689Y-137821689D01*
X147193001Y-137543862D01*
X147193001Y-140779501D01*
X147265506Y-141144007D01*
X147471982Y-141453020D01*
X147548031Y-141529069D01*
X147674311Y-141834689D01*
X147977714Y-142138622D01*
X148374332Y-142303313D01*
X148803784Y-142303687D01*
X149200689Y-142139689D01*
X149504622Y-141836286D01*
X149669313Y-141439668D01*
X149669687Y-141010216D01*
X149505689Y-140613311D01*
X149202286Y-140309378D01*
X149098001Y-140266074D01*
X149098001Y-134360661D01*
X149263332Y-134429313D01*
X149692784Y-134429687D01*
X150089689Y-134265689D01*
X150113886Y-134241533D01*
X150263714Y-134391622D01*
X150660332Y-134556313D01*
X151089784Y-134556687D01*
X151486689Y-134392689D01*
X151790622Y-134089286D01*
X151955313Y-133692668D01*
X151955502Y-133475127D01*
X152303815Y-133126816D01*
X152303815Y-133126815D01*
X152468996Y-132879605D01*
X152526999Y-132588000D01*
X152527000Y-132588000D01*
X152527000Y-107275030D01*
X164558442Y-95243588D01*
X164557167Y-95250000D01*
X164665441Y-95794329D01*
X164973778Y-96255789D01*
X165369198Y-96519999D01*
X164973778Y-96784211D01*
X164665441Y-97245671D01*
X164557167Y-97790000D01*
X164620147Y-98106622D01*
X164307175Y-98419595D01*
X164141994Y-98666805D01*
X164083990Y-98958410D01*
X164083990Y-100813971D01*
X164084018Y-100814111D01*
X164084018Y-100814116D01*
X164084018Y-102385888D01*
X164083990Y-102386029D01*
X164083990Y-104241590D01*
X164141994Y-104533195D01*
X164307175Y-104780405D01*
X164620147Y-105093377D01*
X164557167Y-105410000D01*
X164665441Y-105954329D01*
X164973778Y-106415789D01*
X165435238Y-106724126D01*
X165979567Y-106832400D01*
X166760433Y-106832400D01*
X167304762Y-106724126D01*
X167766222Y-106415789D01*
X168074559Y-105954329D01*
X168182833Y-105410000D01*
X168074559Y-104865671D01*
X167766222Y-104404211D01*
X167370801Y-104139999D01*
X167766222Y-103875789D01*
X168074559Y-103414329D01*
X168182833Y-102870000D01*
X168074559Y-102325671D01*
X167766222Y-101864211D01*
X167370801Y-101599999D01*
X167766222Y-101335789D01*
X168074559Y-100874329D01*
X168182833Y-100330000D01*
X168119852Y-100013377D01*
X170817481Y-97315749D01*
X170982662Y-97068539D01*
X171040665Y-96776934D01*
X171040666Y-96776934D01*
X171040666Y-87501140D01*
X173258815Y-85282991D01*
X173258816Y-85282991D01*
X173357834Y-85134799D01*
X173423996Y-85035781D01*
X173423996Y-85035780D01*
X173482000Y-84744176D01*
X173482000Y-70139116D01*
X173725789Y-69976222D01*
X173990000Y-69580801D01*
X174254211Y-69976222D01*
X174535189Y-70163965D01*
X174535190Y-70163966D01*
X174556004Y-70268605D01*
X174721185Y-70515815D01*
X174752010Y-70546640D01*
X174752010Y-86505839D01*
X174746353Y-86500173D01*
X174256413Y-86296732D01*
X173725914Y-86296269D01*
X173235620Y-86498854D01*
X172860173Y-86873647D01*
X172656732Y-87363587D01*
X172656269Y-87894086D01*
X172858854Y-88384380D01*
X173037500Y-88563337D01*
X173037500Y-91407726D01*
X172593778Y-91704211D01*
X172285441Y-92165671D01*
X172177167Y-92710000D01*
X172254447Y-93098514D01*
X171538491Y-93814471D01*
X171332015Y-94123484D01*
X171259510Y-94487990D01*
X171259510Y-108712010D01*
X171332015Y-109076516D01*
X171538491Y-109385529D01*
X172288311Y-110135349D01*
X172109311Y-110209311D01*
X171805378Y-110512714D01*
X171640687Y-110909332D01*
X171640313Y-111338784D01*
X171804311Y-111735689D01*
X171958000Y-111889646D01*
X171958000Y-113042031D01*
X170911196Y-114088836D01*
X170746015Y-114336046D01*
X170688011Y-114627651D01*
X170688011Y-132151732D01*
X170657175Y-132182568D01*
X170491994Y-132429778D01*
X170467751Y-132551655D01*
X170467750Y-132551656D01*
X170281368Y-132737714D01*
X170116677Y-133134332D01*
X170116303Y-133563784D01*
X170280301Y-133960689D01*
X170583704Y-134264622D01*
X170980322Y-134429313D01*
X171259500Y-134429556D01*
X171259500Y-134467600D01*
X171332005Y-134832106D01*
X171538481Y-135141119D01*
X172195449Y-135798087D01*
X172177167Y-135890000D01*
X172285441Y-136434329D01*
X172593778Y-136895789D01*
X173055238Y-137204126D01*
X173599567Y-137312400D01*
X174380433Y-137312400D01*
X174924762Y-137204126D01*
X175386222Y-136895789D01*
X175694559Y-136434329D01*
X175802833Y-135890000D01*
X175694559Y-135345671D01*
X175386222Y-134884211D01*
X174990801Y-134620000D01*
X175386222Y-134355789D01*
X175694559Y-133894329D01*
X175802833Y-133350000D01*
X175694559Y-132805671D01*
X175386222Y-132344211D01*
X174990801Y-132080000D01*
X175386222Y-131815789D01*
X175694559Y-131354329D01*
X175802833Y-130810000D01*
X175739852Y-130493377D01*
X187203416Y-119029815D01*
X187203416Y-119029814D01*
X187368597Y-118782604D01*
X187426600Y-118490999D01*
X187426601Y-118490999D01*
X187426601Y-108078340D01*
X187930641Y-108178600D01*
X187989359Y-108178600D01*
X188562848Y-108064526D01*
X189049029Y-107739670D01*
X189373885Y-107253489D01*
X189487959Y-106680000D01*
X189373885Y-106106511D01*
X189049029Y-105620330D01*
X189033918Y-105610233D01*
X189065723Y-105604063D01*
X189278527Y-105464273D01*
X189420977Y-105253240D01*
X189471040Y-105003600D01*
X189471040Y-104775951D01*
X189616415Y-104678815D01*
X189743416Y-104551814D01*
X189743417Y-104551814D01*
X189908597Y-104304604D01*
X189908598Y-104304603D01*
X189966601Y-104012999D01*
X189966601Y-92837001D01*
X189908598Y-92545397D01*
X189908597Y-92545396D01*
X189743417Y-92298186D01*
X189616415Y-92171185D01*
X189471040Y-92074048D01*
X189471040Y-91846400D01*
X189424063Y-91604277D01*
X189284273Y-91391473D01*
X189073240Y-91249023D01*
X188823600Y-91198960D01*
X188722000Y-91198960D01*
X188722000Y-86548630D01*
X189743416Y-85527214D01*
X189743417Y-85527214D01*
X189842435Y-85379022D01*
X189908597Y-85280004D01*
X189908597Y-85280003D01*
X189966601Y-84988399D01*
X189966601Y-82524601D01*
X189908597Y-82232997D01*
X189908597Y-82232996D01*
X189842435Y-82133977D01*
X189743417Y-81985786D01*
X189471040Y-81713409D01*
X189471040Y-80416400D01*
X189424063Y-80174277D01*
X189284273Y-79961473D01*
X189073240Y-79819023D01*
X188991083Y-79802547D01*
X191008000Y-77785630D01*
X191008000Y-85217000D01*
X191066004Y-85508605D01*
X191231185Y-85755815D01*
X213354584Y-107879214D01*
X213601794Y-108044395D01*
X213601795Y-108044395D01*
X213893399Y-108102399D01*
X216244768Y-108102399D01*
X216371372Y-108229002D01*
X216306400Y-108555641D01*
X216306400Y-108614359D01*
X216420474Y-109187848D01*
X216745330Y-109674029D01*
X217016172Y-109855000D01*
X216745330Y-110035971D01*
X216420474Y-110522152D01*
X216306400Y-111095641D01*
X216306400Y-111154359D01*
X216420474Y-111727848D01*
X216745330Y-112214029D01*
X217016172Y-112395000D01*
X216745330Y-112575971D01*
X216535000Y-112890751D01*
X216324670Y-112575971D01*
X215838489Y-112251115D01*
X215265000Y-112137041D01*
X214691511Y-112251115D01*
X214205330Y-112575971D01*
X213880474Y-113062152D01*
X213766400Y-113635641D01*
X213766400Y-113694359D01*
X213880474Y-114267848D01*
X214205330Y-114754029D01*
X214476172Y-114935000D01*
X214205330Y-115115971D01*
X213880474Y-115602152D01*
X213766400Y-116175641D01*
X213766400Y-116234359D01*
X213880474Y-116807848D01*
X214205330Y-117294029D01*
X214476172Y-117475000D01*
X214205330Y-117655971D01*
X213880474Y-118142152D01*
X213766400Y-118715641D01*
X213766400Y-118774359D01*
X213880474Y-119347848D01*
X214205330Y-119834029D01*
X214476172Y-120015000D01*
X214205330Y-120195971D01*
X213880474Y-120682152D01*
X213823714Y-120967500D01*
X209286944Y-120967500D01*
X209065887Y-120746056D01*
X208556816Y-120534671D01*
X208005602Y-120534190D01*
X207496163Y-120744686D01*
X207106056Y-121134113D01*
X206894671Y-121643184D01*
X206894190Y-122194398D01*
X207104686Y-122703837D01*
X207494113Y-123093944D01*
X208003184Y-123305329D01*
X208554398Y-123305810D01*
X209063837Y-123095314D01*
X209287040Y-122872500D01*
X214630000Y-122872500D01*
X214994506Y-122799995D01*
X215041606Y-122768523D01*
X215265000Y-122812959D01*
X215838489Y-122698885D01*
X216324670Y-122374029D01*
X216535000Y-122059248D01*
X216745330Y-122374029D01*
X217231511Y-122698885D01*
X217805000Y-122812959D01*
X218378489Y-122698885D01*
X218821000Y-122403208D01*
X218821000Y-122809000D01*
X219202000Y-122809000D01*
X219202000Y-121825136D01*
X219303600Y-121314359D01*
X219303600Y-145365000D01*
X219202000Y-145365000D01*
X219202000Y-142367000D01*
X219202000Y-127381000D01*
X218821000Y-127381000D01*
X218821000Y-142367000D01*
X219202000Y-142367000D01*
X219202000Y-145365000D01*
X217781240Y-145365000D01*
X217781240Y-138515211D01*
X217456910Y-137730273D01*
X216856886Y-137129200D01*
X216072515Y-136803501D01*
X215223211Y-136802760D01*
X214438273Y-137127090D01*
X213837200Y-137727114D01*
X213511501Y-138511485D01*
X213510760Y-139360789D01*
X213835090Y-140145727D01*
X214435114Y-140746800D01*
X215219485Y-141072499D01*
X216068789Y-141073240D01*
X216853727Y-140748910D01*
X217454800Y-140148886D01*
X217780499Y-139364515D01*
X217781240Y-138515211D01*
X217781240Y-145365000D01*
X193548308Y-145365000D01*
X193548308Y-116487886D01*
X193278194Y-115834160D01*
X192778471Y-115333564D01*
X192125218Y-115062309D01*
X191417886Y-115061692D01*
X190764160Y-115331806D01*
X190263564Y-115831529D01*
X189992309Y-116484782D01*
X189991692Y-117192114D01*
X190261806Y-117845840D01*
X190761529Y-118346436D01*
X191414782Y-118617691D01*
X192122114Y-118618308D01*
X192775840Y-118348194D01*
X193276436Y-117848471D01*
X193547691Y-117195218D01*
X193548308Y-116487886D01*
X193548308Y-145365000D01*
X168182833Y-145365000D01*
X168182833Y-133350000D01*
X168074559Y-132805671D01*
X167766222Y-132344211D01*
X167370801Y-132080000D01*
X167766222Y-131815789D01*
X168074559Y-131354329D01*
X168182833Y-130810000D01*
X168074559Y-130265671D01*
X167766222Y-129804211D01*
X167370801Y-129539999D01*
X167766222Y-129275789D01*
X168074559Y-128814329D01*
X168182833Y-128270000D01*
X168074559Y-127725671D01*
X167766222Y-127264211D01*
X167370801Y-126999999D01*
X167766222Y-126735789D01*
X168074559Y-126274329D01*
X168182833Y-125730000D01*
X168074559Y-125185671D01*
X167766222Y-124724211D01*
X167370801Y-124459999D01*
X167766222Y-124195789D01*
X168074559Y-123734329D01*
X168182833Y-123190000D01*
X168074559Y-122645671D01*
X167766222Y-122184211D01*
X167370801Y-121919999D01*
X167766222Y-121655789D01*
X168074559Y-121194329D01*
X168182833Y-120650000D01*
X168074559Y-120105671D01*
X167766222Y-119644211D01*
X167304762Y-119335874D01*
X166760433Y-119227600D01*
X165979567Y-119227600D01*
X165435238Y-119335874D01*
X164973778Y-119644211D01*
X164665441Y-120105671D01*
X164557167Y-120650000D01*
X164665441Y-121194329D01*
X164973778Y-121655789D01*
X165369198Y-121919999D01*
X164973778Y-122184211D01*
X164665441Y-122645671D01*
X164557167Y-123190000D01*
X164665441Y-123734329D01*
X164973778Y-124195789D01*
X165369198Y-124459999D01*
X164973778Y-124724211D01*
X164665441Y-125185671D01*
X164557167Y-125730000D01*
X164665441Y-126274329D01*
X164973778Y-126735789D01*
X165369198Y-126999999D01*
X164973778Y-127264211D01*
X164665441Y-127725671D01*
X164557167Y-128270000D01*
X164665441Y-128814329D01*
X164973778Y-129275789D01*
X165369198Y-129539999D01*
X164973778Y-129804211D01*
X164665441Y-130265671D01*
X164557167Y-130810000D01*
X164665441Y-131354329D01*
X164973778Y-131815789D01*
X165369198Y-132080000D01*
X164973778Y-132344211D01*
X164665441Y-132805671D01*
X164557167Y-133350000D01*
X164665441Y-133894329D01*
X164973778Y-134355789D01*
X165435238Y-134664126D01*
X165979567Y-134772400D01*
X166760433Y-134772400D01*
X167304762Y-134664126D01*
X167766222Y-134355789D01*
X168074559Y-133894329D01*
X168182833Y-133350000D01*
X168182833Y-145365000D01*
X163695380Y-145365000D01*
X163695380Y-125786355D01*
X163695380Y-125231685D01*
X163608954Y-124797194D01*
X163383648Y-124460000D01*
X163608954Y-124122806D01*
X163695380Y-123688315D01*
X163695380Y-123133645D01*
X163608954Y-122699154D01*
X163362835Y-122330810D01*
X162994491Y-122084691D01*
X162560000Y-121998265D01*
X162125509Y-122084691D01*
X161757165Y-122330810D01*
X161511046Y-122699154D01*
X161424620Y-123133645D01*
X161424620Y-123688315D01*
X161511046Y-124122806D01*
X161736351Y-124460000D01*
X161511046Y-124797194D01*
X161424620Y-125231685D01*
X161424620Y-125786355D01*
X161511046Y-126220846D01*
X161757165Y-126589190D01*
X162125509Y-126835309D01*
X162560000Y-126921735D01*
X162994491Y-126835309D01*
X163362835Y-126589190D01*
X163608954Y-126220846D01*
X163695380Y-125786355D01*
X163695380Y-145365000D01*
X126272833Y-145365000D01*
X126272833Y-135890000D01*
X126164559Y-135345671D01*
X125856222Y-134884211D01*
X125460801Y-134620000D01*
X125856222Y-134355789D01*
X126164559Y-133894329D01*
X126272833Y-133350000D01*
X126164559Y-132805671D01*
X125856222Y-132344211D01*
X125460801Y-132080000D01*
X125856222Y-131815789D01*
X126164559Y-131354329D01*
X126272833Y-130810000D01*
X126164559Y-130265671D01*
X125856222Y-129804211D01*
X125460801Y-129539999D01*
X125856222Y-129275789D01*
X126164559Y-128814329D01*
X126272833Y-128270000D01*
X126164559Y-127725671D01*
X125856222Y-127264211D01*
X125460801Y-126999999D01*
X125856222Y-126735789D01*
X126164559Y-126274329D01*
X126272833Y-125730000D01*
X126164559Y-125185671D01*
X125856222Y-124724211D01*
X125460801Y-124459999D01*
X125856222Y-124195789D01*
X126164559Y-123734329D01*
X126272833Y-123190000D01*
X126164559Y-122645671D01*
X125856222Y-122184211D01*
X125394762Y-121875874D01*
X124850433Y-121767600D01*
X124069567Y-121767600D01*
X123525238Y-121875874D01*
X123063778Y-122184211D01*
X122755441Y-122645671D01*
X122647167Y-123190000D01*
X122755441Y-123734329D01*
X123063778Y-124195789D01*
X123459198Y-124459999D01*
X123063778Y-124724211D01*
X122755441Y-125185671D01*
X122647167Y-125730000D01*
X122755441Y-126274329D01*
X123063778Y-126735789D01*
X123459198Y-126999999D01*
X123063778Y-127264211D01*
X122755441Y-127725671D01*
X122647167Y-128270000D01*
X122755441Y-128814329D01*
X123063778Y-129275789D01*
X123459198Y-129539999D01*
X123063778Y-129804211D01*
X122755441Y-130265671D01*
X122647167Y-130810000D01*
X122755441Y-131354329D01*
X123063778Y-131815789D01*
X123459198Y-132080000D01*
X123063778Y-132344211D01*
X122755441Y-132805671D01*
X122647167Y-133350000D01*
X122755441Y-133894329D01*
X123063778Y-134355789D01*
X123459198Y-134620000D01*
X123063778Y-134884211D01*
X122755441Y-135345671D01*
X122647167Y-135890000D01*
X122755441Y-136434329D01*
X123063778Y-136895789D01*
X123525238Y-137204126D01*
X124069567Y-137312400D01*
X124850433Y-137312400D01*
X125394762Y-137204126D01*
X125856222Y-136895789D01*
X126164559Y-136434329D01*
X126272833Y-135890000D01*
X126272833Y-145365000D01*
X118262400Y-145365000D01*
X118262400Y-132470433D01*
X118262400Y-131689567D01*
X118154126Y-131145238D01*
X117845789Y-130683778D01*
X117384329Y-130375441D01*
X116840000Y-130267167D01*
X116295671Y-130375441D01*
X115834211Y-130683778D01*
X115569999Y-131079198D01*
X115305789Y-130683778D01*
X114844329Y-130375441D01*
X114300000Y-130267167D01*
X113755671Y-130375441D01*
X113294211Y-130683778D01*
X113029999Y-131079198D01*
X112765789Y-130683778D01*
X112304329Y-130375441D01*
X111760000Y-130267167D01*
X111215671Y-130375441D01*
X110754211Y-130683778D01*
X110489999Y-131079198D01*
X110225789Y-130683778D01*
X109764329Y-130375441D01*
X109220000Y-130267167D01*
X108675671Y-130375441D01*
X108492833Y-130497609D01*
X108492833Y-90170000D01*
X108384559Y-89625671D01*
X108076222Y-89164211D01*
X107614762Y-88855874D01*
X107070433Y-88747600D01*
X106289567Y-88747600D01*
X105745238Y-88855874D01*
X105283778Y-89164211D01*
X104975441Y-89625671D01*
X104867167Y-90170000D01*
X104975441Y-90714329D01*
X105283778Y-91175789D01*
X105745238Y-91484126D01*
X106289567Y-91592400D01*
X107070433Y-91592400D01*
X107614762Y-91484126D01*
X108076222Y-91175789D01*
X108384559Y-90714329D01*
X108492833Y-90170000D01*
X108492833Y-130497609D01*
X108214211Y-130683778D01*
X107949999Y-131079198D01*
X107685789Y-130683778D01*
X107224329Y-130375441D01*
X106680000Y-130267167D01*
X106135671Y-130375441D01*
X105674211Y-130683778D01*
X105409999Y-131079198D01*
X105145789Y-130683778D01*
X104684329Y-130375441D01*
X104140000Y-130267167D01*
X103595671Y-130375441D01*
X103134211Y-130683778D01*
X102869999Y-131079198D01*
X102605789Y-130683778D01*
X102144329Y-130375441D01*
X101600000Y-130267167D01*
X101055671Y-130375441D01*
X100594211Y-130683778D01*
X100285874Y-131145238D01*
X100177600Y-131689567D01*
X100177600Y-132470433D01*
X100285874Y-133014762D01*
X100594211Y-133476222D01*
X101055671Y-133784559D01*
X101600000Y-133892833D01*
X102144329Y-133784559D01*
X102605789Y-133476222D01*
X102870000Y-133080801D01*
X103134211Y-133476222D01*
X103595671Y-133784559D01*
X104140000Y-133892833D01*
X104684329Y-133784559D01*
X105145789Y-133476222D01*
X105410000Y-133080801D01*
X105674211Y-133476222D01*
X106135671Y-133784559D01*
X106680000Y-133892833D01*
X107224329Y-133784559D01*
X107685789Y-133476222D01*
X107950000Y-133080801D01*
X108214211Y-133476222D01*
X108675671Y-133784559D01*
X109220000Y-133892833D01*
X109764329Y-133784559D01*
X110225789Y-133476222D01*
X110490000Y-133080801D01*
X110754211Y-133476222D01*
X111215671Y-133784559D01*
X111760000Y-133892833D01*
X112304329Y-133784559D01*
X112765789Y-133476222D01*
X113030000Y-133080801D01*
X113294211Y-133476222D01*
X113755671Y-133784559D01*
X114300000Y-133892833D01*
X114844329Y-133784559D01*
X115305789Y-133476222D01*
X115570000Y-133080801D01*
X115834211Y-133476222D01*
X116295671Y-133784559D01*
X116840000Y-133892833D01*
X117384329Y-133784559D01*
X117845789Y-133476222D01*
X118154126Y-133014762D01*
X118262400Y-132470433D01*
X118262400Y-145365000D01*
X115722400Y-145365000D01*
X115722400Y-140090433D01*
X115722400Y-139309567D01*
X115614126Y-138765238D01*
X115305789Y-138303778D01*
X114844329Y-137995441D01*
X114300000Y-137887167D01*
X113755671Y-137995441D01*
X113294211Y-138303778D01*
X113029999Y-138699198D01*
X112765789Y-138303778D01*
X112304329Y-137995441D01*
X111760000Y-137887167D01*
X111215671Y-137995441D01*
X110754211Y-138303778D01*
X110489999Y-138699198D01*
X110225789Y-138303778D01*
X109764329Y-137995441D01*
X109220000Y-137887167D01*
X108675671Y-137995441D01*
X108214211Y-138303778D01*
X107949999Y-138699198D01*
X107685789Y-138303778D01*
X107224329Y-137995441D01*
X106680000Y-137887167D01*
X106135671Y-137995441D01*
X105674211Y-138303778D01*
X105409999Y-138699198D01*
X105145789Y-138303778D01*
X104684329Y-137995441D01*
X104140000Y-137887167D01*
X103595671Y-137995441D01*
X103134211Y-138303778D01*
X103019126Y-138476013D01*
X102987863Y-138314877D01*
X102848073Y-138102073D01*
X102637040Y-137959623D01*
X102387400Y-137909560D01*
X100812600Y-137909560D01*
X100570477Y-137956537D01*
X100357673Y-138096327D01*
X100215223Y-138307360D01*
X100165160Y-138557000D01*
X100165160Y-140843000D01*
X100212137Y-141085123D01*
X100351927Y-141297927D01*
X100562960Y-141440377D01*
X100812600Y-141490440D01*
X102387400Y-141490440D01*
X102629523Y-141443463D01*
X102842327Y-141303673D01*
X102984777Y-141092640D01*
X103018720Y-140923378D01*
X103134211Y-141096222D01*
X103595671Y-141404559D01*
X104140000Y-141512833D01*
X104684329Y-141404559D01*
X105145789Y-141096222D01*
X105410000Y-140700801D01*
X105674211Y-141096222D01*
X106135671Y-141404559D01*
X106680000Y-141512833D01*
X107224329Y-141404559D01*
X107685789Y-141096222D01*
X107950000Y-140700801D01*
X108214211Y-141096222D01*
X108675671Y-141404559D01*
X109220000Y-141512833D01*
X109764329Y-141404559D01*
X110225789Y-141096222D01*
X110490000Y-140700801D01*
X110754211Y-141096222D01*
X111215671Y-141404559D01*
X111760000Y-141512833D01*
X112304329Y-141404559D01*
X112765789Y-141096222D01*
X113030000Y-140700801D01*
X113294211Y-141096222D01*
X113755671Y-141404559D01*
X114300000Y-141512833D01*
X114844329Y-141404559D01*
X115305789Y-141096222D01*
X115614126Y-140634762D01*
X115722400Y-140090433D01*
X115722400Y-145365000D01*
X97853731Y-145365000D01*
X97853731Y-131815914D01*
X97651146Y-131325620D01*
X97276353Y-130950173D01*
X96786413Y-130746732D01*
X96255914Y-130746269D01*
X95948731Y-130873194D01*
X95948731Y-118861914D01*
X95746146Y-118371620D01*
X95371353Y-117996173D01*
X94881413Y-117792732D01*
X94350914Y-117792269D01*
X93860620Y-117994854D01*
X93485173Y-118369647D01*
X93281732Y-118859587D01*
X93281269Y-119390086D01*
X93483854Y-119880380D01*
X93858647Y-120255827D01*
X94348587Y-120459268D01*
X94879086Y-120459731D01*
X95369380Y-120257146D01*
X95744827Y-119882353D01*
X95948268Y-119392413D01*
X95948731Y-118861914D01*
X95948731Y-130873194D01*
X95765620Y-130948854D01*
X95390173Y-131323647D01*
X95186732Y-131813587D01*
X95186269Y-132344086D01*
X95388854Y-132834380D01*
X95763647Y-133209827D01*
X96253587Y-133413268D01*
X96784086Y-133413731D01*
X97274380Y-133211146D01*
X97649827Y-132836353D01*
X97853268Y-132346413D01*
X97853731Y-131815914D01*
X97853731Y-145365000D01*
X92138731Y-145365000D01*
X92138731Y-101716914D01*
X92138731Y-94096914D01*
X91936146Y-93606620D01*
X91561353Y-93231173D01*
X91071413Y-93027732D01*
X90540914Y-93027269D01*
X90050620Y-93229854D01*
X89675173Y-93604647D01*
X89534906Y-93942446D01*
X89396146Y-93606620D01*
X89021353Y-93231173D01*
X88531413Y-93027732D01*
X88000914Y-93027269D01*
X87510620Y-93229854D01*
X87135173Y-93604647D01*
X86994906Y-93942446D01*
X86856146Y-93606620D01*
X86481353Y-93231173D01*
X85991413Y-93027732D01*
X85460914Y-93027269D01*
X84970620Y-93229854D01*
X84595173Y-93604647D01*
X84454906Y-93942446D01*
X84316146Y-93606620D01*
X83941353Y-93231173D01*
X83451413Y-93027732D01*
X82920914Y-93027269D01*
X82430620Y-93229854D01*
X82055173Y-93604647D01*
X81914906Y-93942446D01*
X81776146Y-93606620D01*
X81401353Y-93231173D01*
X81343687Y-93207227D01*
X81343687Y-86273216D01*
X81179689Y-85876311D01*
X81026000Y-85722353D01*
X81026000Y-78742641D01*
X81178622Y-78590286D01*
X81343313Y-78193668D01*
X81343687Y-77764216D01*
X81179689Y-77367311D01*
X80876286Y-77063378D01*
X80479668Y-76898687D01*
X80176913Y-76898423D01*
X80176913Y-62752021D01*
X79700548Y-61599129D01*
X78819251Y-60716292D01*
X77667192Y-60237915D01*
X76419761Y-60236827D01*
X75266869Y-60713192D01*
X74384032Y-61594489D01*
X73905655Y-62746548D01*
X73904567Y-63993979D01*
X74380932Y-65146871D01*
X75262229Y-66029708D01*
X76414288Y-66508085D01*
X77661719Y-66509173D01*
X78814611Y-66032808D01*
X79697448Y-65151511D01*
X80175825Y-63999452D01*
X80176913Y-62752021D01*
X80176913Y-76898423D01*
X80050216Y-76898313D01*
X79653311Y-77062311D01*
X79349378Y-77365714D01*
X79184687Y-77762332D01*
X79184313Y-78191784D01*
X79348311Y-78588689D01*
X79502000Y-78742646D01*
X79502000Y-85722358D01*
X79349378Y-85874714D01*
X79184687Y-86271332D01*
X79184313Y-86700784D01*
X79348311Y-87097689D01*
X79651714Y-87401622D01*
X80048332Y-87566313D01*
X80477784Y-87566687D01*
X80874689Y-87402689D01*
X81178622Y-87099286D01*
X81343313Y-86702668D01*
X81343687Y-86273216D01*
X81343687Y-93207227D01*
X80911413Y-93027732D01*
X80380914Y-93027269D01*
X79890620Y-93229854D01*
X79515173Y-93604647D01*
X79374906Y-93942446D01*
X79236146Y-93606620D01*
X78861353Y-93231173D01*
X78714834Y-93170332D01*
X78714834Y-77614879D01*
X78510319Y-77119915D01*
X78131957Y-76740892D01*
X77637351Y-76535514D01*
X77101799Y-76535046D01*
X76606835Y-76739561D01*
X76227812Y-77117923D01*
X76118705Y-77380681D01*
X76010959Y-77119915D01*
X75632597Y-76740892D01*
X75137991Y-76535514D01*
X74602439Y-76535046D01*
X74107475Y-76739561D01*
X73728452Y-77117923D01*
X73523074Y-77612529D01*
X73522606Y-78148081D01*
X73727121Y-78643045D01*
X74015513Y-78931941D01*
X73728452Y-79218503D01*
X73523074Y-79713109D01*
X73522606Y-80248661D01*
X73727121Y-80743625D01*
X74105483Y-81122648D01*
X74484751Y-81280133D01*
X74107475Y-81436021D01*
X73728452Y-81814383D01*
X73523074Y-82308989D01*
X73522606Y-82844541D01*
X73727121Y-83339505D01*
X74105483Y-83718528D01*
X74600089Y-83923906D01*
X75135641Y-83924374D01*
X75630605Y-83719859D01*
X76009628Y-83341497D01*
X76215006Y-82846891D01*
X76215474Y-82311339D01*
X76010959Y-81816375D01*
X75632597Y-81437352D01*
X75253328Y-81279866D01*
X75630605Y-81123979D01*
X76009628Y-80745617D01*
X76215006Y-80251011D01*
X76215474Y-79715459D01*
X76010959Y-79220495D01*
X75722566Y-78931598D01*
X76009628Y-78645037D01*
X76118734Y-78382278D01*
X76226481Y-78643045D01*
X76604843Y-79022068D01*
X77099449Y-79227446D01*
X77635001Y-79227914D01*
X78129965Y-79023399D01*
X78508988Y-78645037D01*
X78714366Y-78150431D01*
X78714834Y-77614879D01*
X78714834Y-93170332D01*
X78664034Y-93149238D01*
X78664034Y-84411919D01*
X78459519Y-83916955D01*
X78081157Y-83537932D01*
X77586551Y-83332554D01*
X77050999Y-83332086D01*
X76556035Y-83536601D01*
X76177012Y-83914963D01*
X75971634Y-84409569D01*
X75971166Y-84945121D01*
X76175681Y-85440085D01*
X76554043Y-85819108D01*
X77048649Y-86024486D01*
X77584201Y-86024954D01*
X78079165Y-85820439D01*
X78458188Y-85442077D01*
X78663566Y-84947471D01*
X78664034Y-84411919D01*
X78664034Y-93149238D01*
X78371413Y-93027732D01*
X77840914Y-93027269D01*
X77350620Y-93229854D01*
X76975173Y-93604647D01*
X76771732Y-94094587D01*
X76771269Y-94625086D01*
X76973854Y-95115380D01*
X77348647Y-95490827D01*
X77838587Y-95694268D01*
X78369086Y-95694731D01*
X78859380Y-95492146D01*
X79234827Y-95117353D01*
X79375093Y-94779553D01*
X79513854Y-95115380D01*
X79888647Y-95490827D01*
X80378587Y-95694268D01*
X80909086Y-95694731D01*
X81399380Y-95492146D01*
X81774827Y-95117353D01*
X81915093Y-94779553D01*
X82053854Y-95115380D01*
X82428647Y-95490827D01*
X82918587Y-95694268D01*
X83449086Y-95694731D01*
X83939380Y-95492146D01*
X84314827Y-95117353D01*
X84455093Y-94779553D01*
X84593854Y-95115380D01*
X84968647Y-95490827D01*
X85458587Y-95694268D01*
X85989086Y-95694731D01*
X86479380Y-95492146D01*
X86854827Y-95117353D01*
X86995093Y-94779553D01*
X87133854Y-95115380D01*
X87508647Y-95490827D01*
X87998587Y-95694268D01*
X88529086Y-95694731D01*
X89019380Y-95492146D01*
X89394827Y-95117353D01*
X89535093Y-94779553D01*
X89673854Y-95115380D01*
X90048647Y-95490827D01*
X90538587Y-95694268D01*
X91069086Y-95694731D01*
X91559380Y-95492146D01*
X91934827Y-95117353D01*
X92138268Y-94627413D01*
X92138731Y-94096914D01*
X92138731Y-101716914D01*
X91936146Y-101226620D01*
X91561353Y-100851173D01*
X91071413Y-100647732D01*
X90540914Y-100647269D01*
X90050620Y-100849854D01*
X89675173Y-101224647D01*
X89534906Y-101562446D01*
X89396146Y-101226620D01*
X89021353Y-100851173D01*
X88531413Y-100647732D01*
X88000914Y-100647269D01*
X87510620Y-100849854D01*
X87135173Y-101224647D01*
X86994906Y-101562446D01*
X86856146Y-101226620D01*
X86481353Y-100851173D01*
X85991413Y-100647732D01*
X85460914Y-100647269D01*
X84970620Y-100849854D01*
X84595173Y-101224647D01*
X84454906Y-101562446D01*
X84316146Y-101226620D01*
X83941353Y-100851173D01*
X83451413Y-100647732D01*
X82920914Y-100647269D01*
X82430620Y-100849854D01*
X82055173Y-101224647D01*
X81914906Y-101562446D01*
X81776146Y-101226620D01*
X81401353Y-100851173D01*
X80911413Y-100647732D01*
X80380914Y-100647269D01*
X79890620Y-100849854D01*
X79515173Y-101224647D01*
X79311732Y-101714587D01*
X79311269Y-102245086D01*
X79513854Y-102735380D01*
X79888647Y-103110827D01*
X80378587Y-103314268D01*
X80909086Y-103314731D01*
X81399380Y-103112146D01*
X81774827Y-102737353D01*
X81915093Y-102399553D01*
X82053854Y-102735380D01*
X82428647Y-103110827D01*
X82918587Y-103314268D01*
X83449086Y-103314731D01*
X83939380Y-103112146D01*
X84314827Y-102737353D01*
X84455093Y-102399553D01*
X84593854Y-102735380D01*
X84968647Y-103110827D01*
X85458587Y-103314268D01*
X85989086Y-103314731D01*
X86479380Y-103112146D01*
X86854827Y-102737353D01*
X86995093Y-102399553D01*
X87133854Y-102735380D01*
X87508647Y-103110827D01*
X87998587Y-103314268D01*
X88529086Y-103314731D01*
X89019380Y-103112146D01*
X89394827Y-102737353D01*
X89535093Y-102399553D01*
X89673854Y-102735380D01*
X90048647Y-103110827D01*
X90538587Y-103314268D01*
X91069086Y-103314731D01*
X91559380Y-103112146D01*
X91934827Y-102737353D01*
X92138268Y-102247413D01*
X92138731Y-101716914D01*
X92138731Y-145365000D01*
X88930000Y-145365000D01*
X88930000Y-141916000D01*
X88930000Y-137946000D01*
X74422242Y-137946000D01*
X74422242Y-99164339D01*
X74422242Y-94084339D01*
X74210010Y-93570697D01*
X73817370Y-93177371D01*
X73304100Y-92964243D01*
X72748339Y-92963758D01*
X72234697Y-93175990D01*
X71841371Y-93568630D01*
X71628243Y-94081900D01*
X71627758Y-94637661D01*
X71839990Y-95151303D01*
X72232630Y-95544629D01*
X72745900Y-95757757D01*
X73301661Y-95758242D01*
X73815303Y-95546010D01*
X74208629Y-95153370D01*
X74421757Y-94640100D01*
X74422242Y-94084339D01*
X74422242Y-99164339D01*
X74210010Y-98650697D01*
X73817370Y-98257371D01*
X73304100Y-98044243D01*
X72748339Y-98043758D01*
X72234697Y-98255990D01*
X71841371Y-98648630D01*
X71628243Y-99161900D01*
X71627758Y-99717661D01*
X71839990Y-100231303D01*
X72232630Y-100624629D01*
X72745900Y-100837757D01*
X73301661Y-100838242D01*
X73815303Y-100626010D01*
X74208629Y-100233370D01*
X74421757Y-99720100D01*
X74422242Y-99164339D01*
X74422242Y-137946000D01*
X72360000Y-137946000D01*
X72360000Y-141916000D01*
X88930000Y-141916000D01*
X88930000Y-145365000D01*
X70715240Y-145365000D01*
X70715240Y-138515211D01*
X70715240Y-52409211D01*
X70390910Y-51624273D01*
X69790886Y-51023200D01*
X69006515Y-50697501D01*
X68157211Y-50696760D01*
X67372273Y-51021090D01*
X66771200Y-51621114D01*
X66445501Y-52405485D01*
X66444760Y-53254789D01*
X66769090Y-54039727D01*
X67369114Y-54640800D01*
X68153485Y-54966499D01*
X69002789Y-54967240D01*
X69787727Y-54642910D01*
X70388800Y-54042886D01*
X70714499Y-53258515D01*
X70715240Y-52409211D01*
X70715240Y-138515211D01*
X70390910Y-137730273D01*
X69815976Y-137154333D01*
X69815976Y-107356364D01*
X69582713Y-106791825D01*
X69330810Y-106539481D01*
X69330810Y-99166602D01*
X69120314Y-98657163D01*
X68730887Y-98267056D01*
X68221816Y-98055671D01*
X67670602Y-98055190D01*
X67161163Y-98265686D01*
X66771056Y-98655113D01*
X66559671Y-99164184D01*
X66559190Y-99715398D01*
X66769686Y-100224837D01*
X67159113Y-100614944D01*
X67668184Y-100826329D01*
X68219398Y-100826810D01*
X68728837Y-100616314D01*
X69118944Y-100226887D01*
X69330329Y-99717816D01*
X69330810Y-99166602D01*
X69330810Y-106539481D01*
X69151167Y-106359525D01*
X68587036Y-106125277D01*
X67976204Y-106124744D01*
X67411665Y-106358007D01*
X66979365Y-106789553D01*
X66745117Y-107353684D01*
X66744584Y-107964516D01*
X66977847Y-108529055D01*
X67409393Y-108961355D01*
X67973524Y-109195603D01*
X68584356Y-109196136D01*
X69148895Y-108962873D01*
X69581195Y-108531327D01*
X69815443Y-107967196D01*
X69815976Y-107356364D01*
X69815976Y-137154333D01*
X69790886Y-137129200D01*
X69565742Y-137035712D01*
X69565742Y-131607032D01*
X69370488Y-131134481D01*
X69009260Y-130772622D01*
X68537052Y-130576544D01*
X68025752Y-130576098D01*
X67553201Y-130771352D01*
X67191342Y-131132580D01*
X66995264Y-131604788D01*
X66994818Y-132116088D01*
X67190072Y-132588639D01*
X67551300Y-132950498D01*
X68023508Y-133146576D01*
X68534808Y-133147022D01*
X69007359Y-132951768D01*
X69369218Y-132590540D01*
X69565296Y-132118332D01*
X69565742Y-131607032D01*
X69565742Y-137035712D01*
X69006515Y-136803501D01*
X68157211Y-136802760D01*
X67372273Y-137127090D01*
X66771200Y-137727114D01*
X66445501Y-138511485D01*
X66444760Y-139360789D01*
X66769090Y-140145727D01*
X67369114Y-140746800D01*
X68153485Y-141072499D01*
X69002789Y-141073240D01*
X69787727Y-140748910D01*
X70388800Y-140148886D01*
X70714499Y-139364515D01*
X70715240Y-138515211D01*
X70715240Y-145365000D01*
X62915000Y-145365000D01*
X62915000Y-46405000D01*
X221565000Y-46405000D01*
X221565000Y-145365000D01*
M02*
