%FSLAX45Y45*%
G04 Gerber Fmt 4.5, Leading zero omitted, Abs format (unit mm)*
G04 Created by KiCad (PCBNEW (2014-09-16 BZR 5139)-product) date 09/04/2015 16:12:04*
%MOMM*%
G01*
G04 APERTURE LIST*
%ADD10C,0.127000*%
%ADD11C,0.100000*%
%ADD12C,0.200000*%
%ADD13C,0.300000*%
G04 APERTURE END LIST*
D10*
D11*
X6223000Y-14605000D02*
X6223000Y-4572000D01*
X22225000Y-14605000D02*
X6223000Y-14605000D01*
X22225000Y-4572000D02*
X22225000Y-14605000D01*
X6223000Y-4572000D02*
X22225000Y-4572000D01*
D12*
X14843757Y-13176250D02*
X14907257Y-13239750D01*
X14907257Y-13176250D02*
X14843757Y-13239750D01*
X20288250Y-13925550D02*
X20351750Y-13989050D01*
X20351750Y-13925550D02*
X20288250Y-13989050D01*
X9946000Y-8191500D02*
G75*
G03X9946000Y-8191500I-40000J0D01*
G74*
G01*
X9946000Y-10985500D02*
G75*
G03X9946000Y-10985500I-40000J0D01*
G74*
G01*
X9946000Y-13779500D02*
G75*
G03X9946000Y-13779500I-40000J0D01*
G74*
G01*
X10073000Y-8064500D02*
G75*
G03X10073000Y-8064500I-40000J0D01*
G74*
G01*
X10073000Y-10858500D02*
G75*
G03X10073000Y-10858500I-40000J0D01*
G74*
G01*
X10073000Y-13652500D02*
G75*
G03X10073000Y-13652500I-40000J0D01*
G74*
G01*
X10200000Y-8191500D02*
G75*
G03X10200000Y-8191500I-40000J0D01*
G74*
G01*
X10200000Y-10985500D02*
G75*
G03X10200000Y-10985500I-40000J0D01*
G74*
G01*
X10200000Y-13779500D02*
G75*
G03X10200000Y-13779500I-40000J0D01*
G74*
G01*
X10708000Y-8191500D02*
G75*
G03X10708000Y-8191500I-40000J0D01*
G74*
G01*
X10708000Y-10985500D02*
G75*
G03X10708000Y-10985500I-40000J0D01*
G74*
G01*
X10708000Y-13779500D02*
G75*
G03X10708000Y-13779500I-40000J0D01*
G74*
G01*
X10835000Y-8064500D02*
G75*
G03X10835000Y-8064500I-40000J0D01*
G74*
G01*
X10835000Y-10858500D02*
G75*
G03X10835000Y-10858500I-40000J0D01*
G74*
G01*
X10835000Y-13652500D02*
G75*
G03X10835000Y-13652500I-40000J0D01*
G74*
G01*
X10962000Y-8191500D02*
G75*
G03X10962000Y-8191500I-40000J0D01*
G74*
G01*
X10962000Y-10985500D02*
G75*
G03X10962000Y-10985500I-40000J0D01*
G74*
G01*
X10962000Y-13779500D02*
G75*
G03X10962000Y-13779500I-40000J0D01*
G74*
G01*
X11978000Y-7937500D02*
G75*
G03X11978000Y-7937500I-40000J0D01*
G74*
G01*
X11978000Y-10604500D02*
G75*
G03X11978000Y-10604500I-40000J0D01*
G74*
G01*
X11978000Y-12890500D02*
G75*
G03X11978000Y-12890500I-40000J0D01*
G74*
G01*
X11978000Y-13779500D02*
G75*
G03X11978000Y-13779500I-40000J0D01*
G74*
G01*
X12105000Y-7810500D02*
G75*
G03X12105000Y-7810500I-40000J0D01*
G74*
G01*
X12105000Y-10477500D02*
G75*
G03X12105000Y-10477500I-40000J0D01*
G74*
G01*
X12105000Y-12763500D02*
G75*
G03X12105000Y-12763500I-40000J0D01*
G74*
G01*
X12105000Y-13652500D02*
G75*
G03X12105000Y-13652500I-40000J0D01*
G74*
G01*
X12232000Y-7937500D02*
G75*
G03X12232000Y-7937500I-40000J0D01*
G74*
G01*
X12232000Y-10604500D02*
G75*
G03X12232000Y-10604500I-40000J0D01*
G74*
G01*
X12232000Y-12890500D02*
G75*
G03X12232000Y-12890500I-40000J0D01*
G74*
G01*
X12232000Y-13779500D02*
G75*
G03X12232000Y-13779500I-40000J0D01*
G74*
G01*
X17947000Y-9144000D02*
G75*
G03X17947000Y-9144000I-40000J0D01*
G74*
G01*
X17947000Y-11049000D02*
G75*
G03X17947000Y-11049000I-40000J0D01*
G74*
G01*
X17947000Y-12954000D02*
G75*
G03X17947000Y-12954000I-40000J0D01*
G74*
G01*
X8890000Y-6055995D02*
X8890000Y-6136005D01*
X8849995Y-6096000D02*
X8930005Y-6096000D01*
X8890000Y-6309995D02*
X8890000Y-6390005D01*
X8849995Y-6350000D02*
X8930005Y-6350000D01*
X10909300Y-10323195D02*
X10909300Y-10403205D01*
X10869295Y-10363200D02*
X10949305Y-10363200D01*
X10922000Y-7452995D02*
X10922000Y-7533005D01*
X10881995Y-7493000D02*
X10962005Y-7493000D01*
X10922000Y-13040995D02*
X10922000Y-13121005D01*
X10881995Y-13081000D02*
X10962005Y-13081000D01*
X11163300Y-10323195D02*
X11163300Y-10403205D01*
X11123295Y-10363200D02*
X11203305Y-10363200D01*
X11176000Y-7452995D02*
X11176000Y-7533005D01*
X11135995Y-7493000D02*
X11216005Y-7493000D01*
X11176000Y-13040995D02*
X11176000Y-13121005D01*
X11135995Y-13081000D02*
X11216005Y-13081000D01*
X13843000Y-7198995D02*
X13843000Y-7279005D01*
X13802995Y-7239000D02*
X13883005Y-7239000D01*
X14097000Y-5293995D02*
X14097000Y-5374005D01*
X14056995Y-5334000D02*
X14137005Y-5334000D01*
X14097000Y-5547995D02*
X14097000Y-5628005D01*
X14056995Y-5588000D02*
X14137005Y-5588000D01*
X14097000Y-7198995D02*
X14097000Y-7279005D01*
X14056995Y-7239000D02*
X14137005Y-7239000D01*
X14614906Y-5547995D02*
X14614906Y-5628005D01*
X14574901Y-5588000D02*
X14654911Y-5588000D01*
X15103094Y-5547995D02*
X15103094Y-5628005D01*
X15063089Y-5588000D02*
X15143099Y-5588000D01*
X15621000Y-5293995D02*
X15621000Y-5374005D01*
X15580995Y-5334000D02*
X15661005Y-5334000D01*
X15621000Y-5547995D02*
X15621000Y-5628005D01*
X15580995Y-5588000D02*
X15661005Y-5588000D01*
X17145000Y-6817995D02*
X17145000Y-6898005D01*
X17104995Y-6858000D02*
X17185005Y-6858000D01*
X17145000Y-7071995D02*
X17145000Y-7152005D01*
X17104995Y-7112000D02*
X17185005Y-7112000D01*
X17907000Y-8853995D02*
X17907000Y-8934005D01*
X17866995Y-8894000D02*
X17947005Y-8894000D01*
X17907000Y-10758995D02*
X17907000Y-10839005D01*
X17866995Y-10799000D02*
X17947005Y-10799000D01*
X17907000Y-12663995D02*
X17907000Y-12744005D01*
X17866995Y-12704000D02*
X17947005Y-12704000D01*
X19431000Y-12278995D02*
X19431000Y-12359005D01*
X19390995Y-12319000D02*
X19471005Y-12319000D01*
X19685000Y-12278995D02*
X19685000Y-12359005D01*
X19644995Y-12319000D02*
X19725005Y-12319000D01*
X20828000Y-8849995D02*
X20828000Y-8930005D01*
X20787995Y-8890000D02*
X20868005Y-8890000D01*
X20828000Y-9103995D02*
X20828000Y-9184005D01*
X20787995Y-9144000D02*
X20868005Y-9144000D01*
X7315200Y-6045200D02*
X7416800Y-6146800D01*
X7416800Y-6045200D02*
X7315200Y-6146800D01*
X7416800Y-6096000D02*
G75*
G03X7416800Y-6096000I-50800J0D01*
G74*
G01*
X7315200Y-6299200D02*
X7416800Y-6400800D01*
X7416800Y-6299200D02*
X7315200Y-6400800D01*
X7416800Y-6350000D02*
G75*
G03X7416800Y-6350000I-50800J0D01*
G74*
G01*
X7315200Y-6553200D02*
X7416800Y-6654800D01*
X7416800Y-6553200D02*
X7315200Y-6654800D01*
X7416800Y-6604000D02*
G75*
G03X7416800Y-6604000I-50800J0D01*
G74*
G01*
X7315200Y-6807200D02*
X7416800Y-6908800D01*
X7416800Y-6807200D02*
X7315200Y-6908800D01*
X7416800Y-6858000D02*
G75*
G03X7416800Y-6858000I-50800J0D01*
G74*
G01*
X13284200Y-6337300D02*
X13385800Y-6438900D01*
X13385800Y-6337300D02*
X13284200Y-6438900D01*
X13385800Y-6388100D02*
G75*
G03X13385800Y-6388100I-50800J0D01*
G74*
G01*
X13284200Y-6591300D02*
X13385800Y-6692900D01*
X13385800Y-6591300D02*
X13284200Y-6692900D01*
X13385800Y-6642100D02*
G75*
G03X13385800Y-6642100I-50800J0D01*
G74*
G01*
X13284200Y-6845300D02*
X13385800Y-6946900D01*
X13385800Y-6845300D02*
X13284200Y-6946900D01*
X13385800Y-6896100D02*
G75*
G03X13385800Y-6896100I-50800J0D01*
G74*
G01*
X21475700Y-6489700D02*
X21577300Y-6591300D01*
X21577300Y-6489700D02*
X21475700Y-6591300D01*
X21577300Y-6540500D02*
G75*
G03X21577300Y-6540500I-50800J0D01*
G74*
G01*
X21475700Y-6743700D02*
X21577300Y-6845300D01*
X21577300Y-6743700D02*
X21475700Y-6845300D01*
X21577300Y-6794500D02*
G75*
G03X21577300Y-6794500I-50800J0D01*
G74*
G01*
X21475700Y-6997700D02*
X21577300Y-7099300D01*
X21577300Y-6997700D02*
X21475700Y-7099300D01*
X21577300Y-7048500D02*
G75*
G03X21577300Y-7048500I-50800J0D01*
G74*
G01*
X21475700Y-7251700D02*
X21577300Y-7353300D01*
X21577300Y-7251700D02*
X21475700Y-7353300D01*
X21577300Y-7302500D02*
G75*
G03X21577300Y-7302500I-50800J0D01*
G74*
G01*
X21475700Y-7505700D02*
X21577300Y-7607300D01*
X21577300Y-7505700D02*
X21475700Y-7607300D01*
X21577300Y-7556500D02*
G75*
G03X21577300Y-7556500I-50800J0D01*
G74*
G01*
X21475700Y-7759700D02*
X21577300Y-7861300D01*
X21577300Y-7759700D02*
X21475700Y-7861300D01*
X21577300Y-7810500D02*
G75*
G03X21577300Y-7810500I-50800J0D01*
G74*
G01*
X21475700Y-8013700D02*
X21577300Y-8115300D01*
X21577300Y-8013700D02*
X21475700Y-8115300D01*
X21577300Y-8064500D02*
G75*
G03X21577300Y-8064500I-50800J0D01*
G74*
G01*
X21475700Y-8267700D02*
X21577300Y-8369300D01*
X21577300Y-8267700D02*
X21475700Y-8369300D01*
X21577300Y-8318500D02*
G75*
G03X21577300Y-8318500I-50800J0D01*
G74*
G01*
X21475700Y-8521700D02*
X21577300Y-8623300D01*
X21577300Y-8521700D02*
X21475700Y-8623300D01*
X21577300Y-8572500D02*
G75*
G03X21577300Y-8572500I-50800J0D01*
G74*
G01*
X21475700Y-8775700D02*
X21577300Y-8877300D01*
X21577300Y-8775700D02*
X21475700Y-8877300D01*
X21577300Y-8826500D02*
G75*
G03X21577300Y-8826500I-50800J0D01*
G74*
G01*
X21475700Y-9029700D02*
X21577300Y-9131300D01*
X21577300Y-9029700D02*
X21475700Y-9131300D01*
X21577300Y-9080500D02*
G75*
G03X21577300Y-9080500I-50800J0D01*
G74*
G01*
X21475700Y-9283700D02*
X21577300Y-9385300D01*
X21577300Y-9283700D02*
X21475700Y-9385300D01*
X21577300Y-9334500D02*
G75*
G03X21577300Y-9334500I-50800J0D01*
G74*
G01*
X21475700Y-9537700D02*
X21577300Y-9639300D01*
X21577300Y-9537700D02*
X21475700Y-9639300D01*
X21577300Y-9588500D02*
G75*
G03X21577300Y-9588500I-50800J0D01*
G74*
G01*
X21475700Y-9791700D02*
X21577300Y-9893300D01*
X21577300Y-9791700D02*
X21475700Y-9893300D01*
X21577300Y-9842500D02*
G75*
G03X21577300Y-9842500I-50800J0D01*
G74*
G01*
X21475700Y-10045700D02*
X21577300Y-10147300D01*
X21577300Y-10045700D02*
X21475700Y-10147300D01*
X21577300Y-10096500D02*
G75*
G03X21577300Y-10096500I-50800J0D01*
G74*
G01*
X21475700Y-10299700D02*
X21577300Y-10401300D01*
X21577300Y-10299700D02*
X21475700Y-10401300D01*
X21577300Y-10350500D02*
G75*
G03X21577300Y-10350500I-50800J0D01*
G74*
G01*
X21475700Y-10553700D02*
X21577300Y-10655300D01*
X21577300Y-10553700D02*
X21475700Y-10655300D01*
X21577300Y-10604500D02*
G75*
G03X21577300Y-10604500I-50800J0D01*
G74*
G01*
X21475700Y-10807700D02*
X21577300Y-10909300D01*
X21577300Y-10807700D02*
X21475700Y-10909300D01*
X21577300Y-10858500D02*
G75*
G03X21577300Y-10858500I-50800J0D01*
G74*
G01*
X21475700Y-11061700D02*
X21577300Y-11163300D01*
X21577300Y-11061700D02*
X21475700Y-11163300D01*
X21577300Y-11112500D02*
G75*
G03X21577300Y-11112500I-50800J0D01*
G74*
G01*
X21475700Y-11315700D02*
X21577300Y-11417300D01*
X21577300Y-11315700D02*
X21475700Y-11417300D01*
X21577300Y-11366500D02*
G75*
G03X21577300Y-11366500I-50800J0D01*
G74*
G01*
X21475700Y-11569700D02*
X21577300Y-11671300D01*
X21577300Y-11569700D02*
X21475700Y-11671300D01*
X21577300Y-11620500D02*
G75*
G03X21577300Y-11620500I-50800J0D01*
G74*
G01*
X21475700Y-11823700D02*
X21577300Y-11925300D01*
X21577300Y-11823700D02*
X21475700Y-11925300D01*
X21577300Y-11874500D02*
G75*
G03X21577300Y-11874500I-50800J0D01*
G74*
G01*
X21475700Y-12077700D02*
X21577300Y-12179300D01*
X21577300Y-12077700D02*
X21475700Y-12179300D01*
X21577300Y-12128500D02*
G75*
G03X21577300Y-12128500I-50800J0D01*
G74*
G01*
X21475700Y-12331700D02*
X21577300Y-12433300D01*
X21577300Y-12331700D02*
X21475700Y-12433300D01*
X21577300Y-12382500D02*
G75*
G03X21577300Y-12382500I-50800J0D01*
G74*
G01*
X21475700Y-12585700D02*
X21577300Y-12687300D01*
X21577300Y-12585700D02*
X21475700Y-12687300D01*
X21577300Y-12636500D02*
G75*
G03X21577300Y-12636500I-50800J0D01*
G74*
G01*
X21729700Y-6489700D02*
X21831300Y-6591300D01*
X21831300Y-6489700D02*
X21729700Y-6591300D01*
X21831300Y-6540500D02*
G75*
G03X21831300Y-6540500I-50800J0D01*
G74*
G01*
X21729700Y-6743700D02*
X21831300Y-6845300D01*
X21831300Y-6743700D02*
X21729700Y-6845300D01*
X21831300Y-6794500D02*
G75*
G03X21831300Y-6794500I-50800J0D01*
G74*
G01*
X21729700Y-6997700D02*
X21831300Y-7099300D01*
X21831300Y-6997700D02*
X21729700Y-7099300D01*
X21831300Y-7048500D02*
G75*
G03X21831300Y-7048500I-50800J0D01*
G74*
G01*
X21729700Y-7251700D02*
X21831300Y-7353300D01*
X21831300Y-7251700D02*
X21729700Y-7353300D01*
X21831300Y-7302500D02*
G75*
G03X21831300Y-7302500I-50800J0D01*
G74*
G01*
X21729700Y-7505700D02*
X21831300Y-7607300D01*
X21831300Y-7505700D02*
X21729700Y-7607300D01*
X21831300Y-7556500D02*
G75*
G03X21831300Y-7556500I-50800J0D01*
G74*
G01*
X21729700Y-7759700D02*
X21831300Y-7861300D01*
X21831300Y-7759700D02*
X21729700Y-7861300D01*
X21831300Y-7810500D02*
G75*
G03X21831300Y-7810500I-50800J0D01*
G74*
G01*
X21729700Y-8013700D02*
X21831300Y-8115300D01*
X21831300Y-8013700D02*
X21729700Y-8115300D01*
X21831300Y-8064500D02*
G75*
G03X21831300Y-8064500I-50800J0D01*
G74*
G01*
X21729700Y-8267700D02*
X21831300Y-8369300D01*
X21831300Y-8267700D02*
X21729700Y-8369300D01*
X21831300Y-8318500D02*
G75*
G03X21831300Y-8318500I-50800J0D01*
G74*
G01*
X21729700Y-8521700D02*
X21831300Y-8623300D01*
X21831300Y-8521700D02*
X21729700Y-8623300D01*
X21831300Y-8572500D02*
G75*
G03X21831300Y-8572500I-50800J0D01*
G74*
G01*
X21729700Y-8775700D02*
X21831300Y-8877300D01*
X21831300Y-8775700D02*
X21729700Y-8877300D01*
X21831300Y-8826500D02*
G75*
G03X21831300Y-8826500I-50800J0D01*
G74*
G01*
X21729700Y-9029700D02*
X21831300Y-9131300D01*
X21831300Y-9029700D02*
X21729700Y-9131300D01*
X21831300Y-9080500D02*
G75*
G03X21831300Y-9080500I-50800J0D01*
G74*
G01*
X21729700Y-9283700D02*
X21831300Y-9385300D01*
X21831300Y-9283700D02*
X21729700Y-9385300D01*
X21831300Y-9334500D02*
G75*
G03X21831300Y-9334500I-50800J0D01*
G74*
G01*
X21729700Y-9537700D02*
X21831300Y-9639300D01*
X21831300Y-9537700D02*
X21729700Y-9639300D01*
X21831300Y-9588500D02*
G75*
G03X21831300Y-9588500I-50800J0D01*
G74*
G01*
X21729700Y-9791700D02*
X21831300Y-9893300D01*
X21831300Y-9791700D02*
X21729700Y-9893300D01*
X21831300Y-9842500D02*
G75*
G03X21831300Y-9842500I-50800J0D01*
G74*
G01*
X21729700Y-10045700D02*
X21831300Y-10147300D01*
X21831300Y-10045700D02*
X21729700Y-10147300D01*
X21831300Y-10096500D02*
G75*
G03X21831300Y-10096500I-50800J0D01*
G74*
G01*
X21729700Y-10299700D02*
X21831300Y-10401300D01*
X21831300Y-10299700D02*
X21729700Y-10401300D01*
X21831300Y-10350500D02*
G75*
G03X21831300Y-10350500I-50800J0D01*
G74*
G01*
X21729700Y-10553700D02*
X21831300Y-10655300D01*
X21831300Y-10553700D02*
X21729700Y-10655300D01*
X21831300Y-10604500D02*
G75*
G03X21831300Y-10604500I-50800J0D01*
G74*
G01*
X21729700Y-10807700D02*
X21831300Y-10909300D01*
X21831300Y-10807700D02*
X21729700Y-10909300D01*
X21831300Y-10858500D02*
G75*
G03X21831300Y-10858500I-50800J0D01*
G74*
G01*
X21729700Y-11061700D02*
X21831300Y-11163300D01*
X21831300Y-11061700D02*
X21729700Y-11163300D01*
X21831300Y-11112500D02*
G75*
G03X21831300Y-11112500I-50800J0D01*
G74*
G01*
X21729700Y-11315700D02*
X21831300Y-11417300D01*
X21831300Y-11315700D02*
X21729700Y-11417300D01*
X21831300Y-11366500D02*
G75*
G03X21831300Y-11366500I-50800J0D01*
G74*
G01*
X21729700Y-11569700D02*
X21831300Y-11671300D01*
X21831300Y-11569700D02*
X21729700Y-11671300D01*
X21831300Y-11620500D02*
G75*
G03X21831300Y-11620500I-50800J0D01*
G74*
G01*
X21729700Y-11823700D02*
X21831300Y-11925300D01*
X21831300Y-11823700D02*
X21729700Y-11925300D01*
X21831300Y-11874500D02*
G75*
G03X21831300Y-11874500I-50800J0D01*
G74*
G01*
X21729700Y-12077700D02*
X21831300Y-12179300D01*
X21831300Y-12077700D02*
X21729700Y-12179300D01*
X21831300Y-12128500D02*
G75*
G03X21831300Y-12128500I-50800J0D01*
G74*
G01*
X21729700Y-12331700D02*
X21831300Y-12433300D01*
X21831300Y-12331700D02*
X21729700Y-12433300D01*
X21831300Y-12382500D02*
G75*
G03X21831300Y-12382500I-50800J0D01*
G74*
G01*
X21729700Y-12585700D02*
X21831300Y-12687300D01*
X21831300Y-12585700D02*
X21729700Y-12687300D01*
X21831300Y-12636500D02*
G75*
G03X21831300Y-12636500I-50800J0D01*
G74*
G01*
X9459976Y-5776976D02*
X9590024Y-5907024D01*
X9590024Y-5776976D02*
X9459976Y-5907024D01*
X9525000Y-5776976D02*
X9525000Y-5907024D01*
X9459976Y-5842000D02*
X9590024Y-5842000D01*
X9459976Y-6777228D02*
X9590024Y-6907276D01*
X9590024Y-6777228D02*
X9459976Y-6907276D01*
X9525000Y-6777228D02*
X9525000Y-6907276D01*
X9459976Y-6842252D02*
X9590024Y-6842252D01*
X9459976Y-8570976D02*
X9590024Y-8701024D01*
X9590024Y-8570976D02*
X9459976Y-8701024D01*
X9525000Y-8570976D02*
X9525000Y-8701024D01*
X9459976Y-8636000D02*
X9590024Y-8636000D01*
X9459976Y-9571228D02*
X9590024Y-9701276D01*
X9590024Y-9571228D02*
X9459976Y-9701276D01*
X9525000Y-9571228D02*
X9525000Y-9701276D01*
X9459976Y-9636252D02*
X9590024Y-9636252D01*
X9459976Y-11364976D02*
X9590024Y-11495024D01*
X9590024Y-11364976D02*
X9459976Y-11495024D01*
X9525000Y-11364976D02*
X9525000Y-11495024D01*
X9459976Y-11430000D02*
X9590024Y-11430000D01*
X9459976Y-12365228D02*
X9590024Y-12495276D01*
X9590024Y-12365228D02*
X9459976Y-12495276D01*
X9525000Y-12365228D02*
X9525000Y-12495276D01*
X9459976Y-12430252D02*
X9590024Y-12430252D01*
X10960100Y-6277102D02*
X11090148Y-6407150D01*
X11090148Y-6277102D02*
X10960100Y-6407150D01*
X11025124Y-6277102D02*
X11025124Y-6407150D01*
X10960100Y-6342126D02*
X11090148Y-6342126D01*
X10960100Y-9071102D02*
X11090148Y-9201150D01*
X11090148Y-9071102D02*
X10960100Y-9201150D01*
X11025124Y-9071102D02*
X11025124Y-9201150D01*
X10960100Y-9136126D02*
X11090148Y-9136126D01*
X10960100Y-11865102D02*
X11090148Y-11995150D01*
X11090148Y-11865102D02*
X10960100Y-11995150D01*
X11025124Y-11865102D02*
X11025124Y-11995150D01*
X10960100Y-11930126D02*
X11090148Y-11930126D01*
X6793400Y-7784000D02*
X6973400Y-7964000D01*
X6973400Y-7784000D02*
X6793400Y-7964000D01*
X6793400Y-9181000D02*
X6973400Y-9361000D01*
X6973400Y-9181000D02*
X6793400Y-9361000D01*
X6793400Y-10578000D02*
X6973400Y-10758000D01*
X6973400Y-10578000D02*
X6793400Y-10758000D01*
X6793400Y-11975000D02*
X6973400Y-12155000D01*
X6973400Y-11975000D02*
X6793400Y-12155000D01*
X7682400Y-7276000D02*
X7862400Y-7456000D01*
X7862400Y-7276000D02*
X7682400Y-7456000D01*
X7682400Y-8292000D02*
X7862400Y-8472000D01*
X7862400Y-8292000D02*
X7682400Y-8472000D01*
X7682400Y-8673000D02*
X7862400Y-8853000D01*
X7862400Y-8673000D02*
X7682400Y-8853000D01*
X7682400Y-9689000D02*
X7862400Y-9869000D01*
X7862400Y-9689000D02*
X7682400Y-9869000D01*
X7682400Y-10070000D02*
X7862400Y-10250000D01*
X7862400Y-10070000D02*
X7682400Y-10250000D01*
X7682400Y-11086000D02*
X7862400Y-11266000D01*
X7862400Y-11086000D02*
X7682400Y-11266000D01*
X7682400Y-11467000D02*
X7862400Y-11647000D01*
X7862400Y-11467000D02*
X7682400Y-11647000D01*
X7682400Y-12483000D02*
X7862400Y-12663000D01*
X7862400Y-12483000D02*
X7682400Y-12663000D01*
X7677400Y-7779000D02*
X7867400Y-7969000D01*
X7867400Y-7779000D02*
X7677400Y-7969000D01*
X7677400Y-9176000D02*
X7867400Y-9366000D01*
X7867400Y-9176000D02*
X7677400Y-9366000D01*
X7677400Y-10573000D02*
X7867400Y-10763000D01*
X7867400Y-10573000D02*
X7677400Y-10763000D01*
X7677400Y-11970000D02*
X7867400Y-12160000D01*
X7867400Y-11970000D02*
X7677400Y-12160000D01*
X6858000Y-5133213D02*
X6858000Y-5433187D01*
X6708013Y-5283200D02*
X7007987Y-5283200D01*
X7007987Y-5283200D02*
G75*
G03X7007987Y-5283200I-149987J0D01*
G74*
G01*
X6858000Y-13743813D02*
X6858000Y-14043787D01*
X6708013Y-13893800D02*
X7007987Y-13893800D01*
X7007987Y-13893800D02*
G75*
G03X7007987Y-13893800I-149987J0D01*
G74*
G01*
X21564600Y-5107813D02*
X21564600Y-5407787D01*
X21414613Y-5257800D02*
X21714587Y-5257800D01*
X21714587Y-5257800D02*
G75*
G03X21714587Y-5257800I-149987J0D01*
G74*
G01*
X21564600Y-13743813D02*
X21564600Y-14043787D01*
X21414613Y-13893800D02*
X21714587Y-13893800D01*
X21714587Y-13893800D02*
G75*
G03X21714587Y-13893800I-149987J0D01*
G74*
G01*
D13*
X6489428Y-15075714D02*
X6489428Y-14775714D01*
X6560857Y-14775714D01*
X6603714Y-14790000D01*
X6632286Y-14818571D01*
X6646571Y-14847143D01*
X6660857Y-14904286D01*
X6660857Y-14947143D01*
X6646571Y-15004286D01*
X6632286Y-15032857D01*
X6603714Y-15061429D01*
X6560857Y-15075714D01*
X6489428Y-15075714D01*
X6789428Y-15075714D02*
X6789428Y-14875714D01*
X6789428Y-14932857D02*
X6803714Y-14904286D01*
X6818000Y-14890000D01*
X6846571Y-14875714D01*
X6875143Y-14875714D01*
X6975143Y-15075714D02*
X6975143Y-14875714D01*
X6975143Y-14775714D02*
X6960857Y-14790000D01*
X6975143Y-14804286D01*
X6989428Y-14790000D01*
X6975143Y-14775714D01*
X6975143Y-14804286D01*
X7160857Y-15075714D02*
X7132286Y-15061429D01*
X7118000Y-15032857D01*
X7118000Y-14775714D01*
X7318000Y-15075714D02*
X7289428Y-15061429D01*
X7275143Y-15032857D01*
X7275143Y-14775714D01*
X7660857Y-15075714D02*
X7660857Y-14775714D01*
X7760857Y-14990000D01*
X7860857Y-14775714D01*
X7860857Y-15075714D01*
X8132286Y-15075714D02*
X8132286Y-14918571D01*
X8118000Y-14890000D01*
X8089428Y-14875714D01*
X8032286Y-14875714D01*
X8003714Y-14890000D01*
X8132286Y-15061429D02*
X8103714Y-15075714D01*
X8032286Y-15075714D01*
X8003714Y-15061429D01*
X7989428Y-15032857D01*
X7989428Y-15004286D01*
X8003714Y-14975714D01*
X8032286Y-14961429D01*
X8103714Y-14961429D01*
X8132286Y-14947143D01*
X8275143Y-14875714D02*
X8275143Y-15175714D01*
X8275143Y-14890000D02*
X8303714Y-14875714D01*
X8360857Y-14875714D01*
X8389429Y-14890000D01*
X8403714Y-14904286D01*
X8418000Y-14932857D01*
X8418000Y-15018571D01*
X8403714Y-15047143D01*
X8389429Y-15061429D01*
X8360857Y-15075714D01*
X8303714Y-15075714D01*
X8275143Y-15061429D01*
X8546571Y-15047143D02*
X8560857Y-15061429D01*
X8546571Y-15075714D01*
X8532286Y-15061429D01*
X8546571Y-15047143D01*
X8546571Y-15075714D01*
X8546571Y-14890000D02*
X8560857Y-14904286D01*
X8546571Y-14918571D01*
X8532286Y-14904286D01*
X8546571Y-14890000D01*
X8546571Y-14918571D01*
X6154500Y-15538250D02*
X6218000Y-15601750D01*
X6218000Y-15538250D02*
X6154500Y-15601750D01*
X6546571Y-15405714D02*
X6575143Y-15405714D01*
X6603714Y-15420000D01*
X6618000Y-15434286D01*
X6632286Y-15462857D01*
X6646571Y-15520000D01*
X6646571Y-15591429D01*
X6632286Y-15648571D01*
X6618000Y-15677143D01*
X6603714Y-15691429D01*
X6575143Y-15705714D01*
X6546571Y-15705714D01*
X6518000Y-15691429D01*
X6503714Y-15677143D01*
X6489428Y-15648571D01*
X6475143Y-15591429D01*
X6475143Y-15520000D01*
X6489428Y-15462857D01*
X6503714Y-15434286D01*
X6518000Y-15420000D01*
X6546571Y-15405714D01*
X6775143Y-15677143D02*
X6789428Y-15691429D01*
X6775143Y-15705714D01*
X6760857Y-15691429D01*
X6775143Y-15677143D01*
X6775143Y-15705714D01*
X7046571Y-15405714D02*
X6989428Y-15405714D01*
X6960857Y-15420000D01*
X6946571Y-15434286D01*
X6918000Y-15477143D01*
X6903714Y-15534286D01*
X6903714Y-15648571D01*
X6918000Y-15677143D01*
X6932286Y-15691429D01*
X6960857Y-15705714D01*
X7018000Y-15705714D01*
X7046571Y-15691429D01*
X7060857Y-15677143D01*
X7075143Y-15648571D01*
X7075143Y-15577143D01*
X7060857Y-15548571D01*
X7046571Y-15534286D01*
X7018000Y-15520000D01*
X6960857Y-15520000D01*
X6932286Y-15534286D01*
X6918000Y-15548571D01*
X6903714Y-15577143D01*
X7332286Y-15505714D02*
X7332286Y-15705714D01*
X7260857Y-15391429D02*
X7189428Y-15605714D01*
X7375143Y-15605714D01*
X7489428Y-15705714D02*
X7489428Y-15505714D01*
X7489428Y-15534286D02*
X7503714Y-15520000D01*
X7532286Y-15505714D01*
X7575143Y-15505714D01*
X7603714Y-15520000D01*
X7618000Y-15548571D01*
X7618000Y-15705714D01*
X7618000Y-15548571D02*
X7632286Y-15520000D01*
X7660857Y-15505714D01*
X7703714Y-15505714D01*
X7732286Y-15520000D01*
X7746571Y-15548571D01*
X7746571Y-15705714D01*
X7889428Y-15705714D02*
X7889428Y-15505714D01*
X7889428Y-15534286D02*
X7903714Y-15520000D01*
X7932286Y-15505714D01*
X7975143Y-15505714D01*
X8003714Y-15520000D01*
X8018000Y-15548571D01*
X8018000Y-15705714D01*
X8018000Y-15548571D02*
X8032286Y-15520000D01*
X8060857Y-15505714D01*
X8103714Y-15505714D01*
X8132286Y-15520000D01*
X8146571Y-15548571D01*
X8146571Y-15705714D01*
X8732286Y-15391429D02*
X8475143Y-15777143D01*
X9118000Y-15405714D02*
X9146571Y-15405714D01*
X9175143Y-15420000D01*
X9189428Y-15434286D01*
X9203714Y-15462857D01*
X9218000Y-15520000D01*
X9218000Y-15591429D01*
X9203714Y-15648571D01*
X9189428Y-15677143D01*
X9175143Y-15691429D01*
X9146571Y-15705714D01*
X9118000Y-15705714D01*
X9089428Y-15691429D01*
X9075143Y-15677143D01*
X9060857Y-15648571D01*
X9046571Y-15591429D01*
X9046571Y-15520000D01*
X9060857Y-15462857D01*
X9075143Y-15434286D01*
X9089428Y-15420000D01*
X9118000Y-15405714D01*
X9346571Y-15677143D02*
X9360857Y-15691429D01*
X9346571Y-15705714D01*
X9332286Y-15691429D01*
X9346571Y-15677143D01*
X9346571Y-15705714D01*
X9546571Y-15405714D02*
X9575143Y-15405714D01*
X9603714Y-15420000D01*
X9618000Y-15434286D01*
X9632286Y-15462857D01*
X9646571Y-15520000D01*
X9646571Y-15591429D01*
X9632286Y-15648571D01*
X9618000Y-15677143D01*
X9603714Y-15691429D01*
X9575143Y-15705714D01*
X9546571Y-15705714D01*
X9518000Y-15691429D01*
X9503714Y-15677143D01*
X9489428Y-15648571D01*
X9475143Y-15591429D01*
X9475143Y-15520000D01*
X9489428Y-15462857D01*
X9503714Y-15434286D01*
X9518000Y-15420000D01*
X9546571Y-15405714D01*
X9760857Y-15434286D02*
X9775143Y-15420000D01*
X9803714Y-15405714D01*
X9875143Y-15405714D01*
X9903714Y-15420000D01*
X9918000Y-15434286D01*
X9932286Y-15462857D01*
X9932286Y-15491429D01*
X9918000Y-15534286D01*
X9746571Y-15705714D01*
X9932286Y-15705714D01*
X10203714Y-15405714D02*
X10060857Y-15405714D01*
X10046571Y-15548571D01*
X10060857Y-15534286D01*
X10089428Y-15520000D01*
X10160857Y-15520000D01*
X10189428Y-15534286D01*
X10203714Y-15548571D01*
X10218000Y-15577143D01*
X10218000Y-15648571D01*
X10203714Y-15677143D01*
X10189428Y-15691429D01*
X10160857Y-15705714D01*
X10089428Y-15705714D01*
X10060857Y-15691429D01*
X10046571Y-15677143D01*
X10332286Y-15405714D02*
X10332286Y-15462857D01*
X10446571Y-15405714D02*
X10446571Y-15462857D01*
X10889428Y-15820000D02*
X10875143Y-15805714D01*
X10846571Y-15762857D01*
X10832286Y-15734286D01*
X10818000Y-15691429D01*
X10803714Y-15620000D01*
X10803714Y-15562857D01*
X10818000Y-15491429D01*
X10832286Y-15448571D01*
X10846571Y-15420000D01*
X10875143Y-15377143D01*
X10889428Y-15362857D01*
X10989428Y-15434286D02*
X11003714Y-15420000D01*
X11032286Y-15405714D01*
X11103714Y-15405714D01*
X11132286Y-15420000D01*
X11146571Y-15434286D01*
X11160857Y-15462857D01*
X11160857Y-15491429D01*
X11146571Y-15534286D01*
X10975143Y-15705714D01*
X11160857Y-15705714D01*
X11518000Y-15705714D02*
X11518000Y-15405714D01*
X11646571Y-15705714D02*
X11646571Y-15548571D01*
X11632285Y-15520000D01*
X11603714Y-15505714D01*
X11560857Y-15505714D01*
X11532285Y-15520000D01*
X11518000Y-15534286D01*
X11832285Y-15705714D02*
X11803714Y-15691429D01*
X11789428Y-15677143D01*
X11775143Y-15648571D01*
X11775143Y-15562857D01*
X11789428Y-15534286D01*
X11803714Y-15520000D01*
X11832285Y-15505714D01*
X11875143Y-15505714D01*
X11903714Y-15520000D01*
X11918000Y-15534286D01*
X11932285Y-15562857D01*
X11932285Y-15648571D01*
X11918000Y-15677143D01*
X11903714Y-15691429D01*
X11875143Y-15705714D01*
X11832285Y-15705714D01*
X12103714Y-15705714D02*
X12075143Y-15691429D01*
X12060857Y-15662857D01*
X12060857Y-15405714D01*
X12332286Y-15691429D02*
X12303714Y-15705714D01*
X12246571Y-15705714D01*
X12218000Y-15691429D01*
X12203714Y-15662857D01*
X12203714Y-15548571D01*
X12218000Y-15520000D01*
X12246571Y-15505714D01*
X12303714Y-15505714D01*
X12332286Y-15520000D01*
X12346571Y-15548571D01*
X12346571Y-15577143D01*
X12203714Y-15605714D01*
X12460857Y-15691429D02*
X12489428Y-15705714D01*
X12546571Y-15705714D01*
X12575143Y-15691429D01*
X12589428Y-15662857D01*
X12589428Y-15648571D01*
X12575143Y-15620000D01*
X12546571Y-15605714D01*
X12503714Y-15605714D01*
X12475143Y-15591429D01*
X12460857Y-15562857D01*
X12460857Y-15548571D01*
X12475143Y-15520000D01*
X12503714Y-15505714D01*
X12546571Y-15505714D01*
X12575143Y-15520000D01*
X12689428Y-15820000D02*
X12703714Y-15805714D01*
X12732286Y-15762857D01*
X12746571Y-15734286D01*
X12760857Y-15691429D01*
X12775143Y-15620000D01*
X12775143Y-15562857D01*
X12760857Y-15491429D01*
X12746571Y-15448571D01*
X12732286Y-15420000D01*
X12703714Y-15377143D01*
X12689428Y-15362857D01*
D12*
X6218000Y-15966000D02*
G75*
G03X6218000Y-15966000I-40000J0D01*
G74*
G01*
D13*
X6546571Y-15801714D02*
X6575143Y-15801714D01*
X6603714Y-15816000D01*
X6618000Y-15830286D01*
X6632286Y-15858857D01*
X6646571Y-15916000D01*
X6646571Y-15987429D01*
X6632286Y-16044571D01*
X6618000Y-16073143D01*
X6603714Y-16087429D01*
X6575143Y-16101714D01*
X6546571Y-16101714D01*
X6518000Y-16087429D01*
X6503714Y-16073143D01*
X6489428Y-16044571D01*
X6475143Y-15987429D01*
X6475143Y-15916000D01*
X6489428Y-15858857D01*
X6503714Y-15830286D01*
X6518000Y-15816000D01*
X6546571Y-15801714D01*
X6775143Y-16073143D02*
X6789428Y-16087429D01*
X6775143Y-16101714D01*
X6760857Y-16087429D01*
X6775143Y-16073143D01*
X6775143Y-16101714D01*
X6960857Y-15930286D02*
X6932286Y-15916000D01*
X6918000Y-15901714D01*
X6903714Y-15873143D01*
X6903714Y-15858857D01*
X6918000Y-15830286D01*
X6932286Y-15816000D01*
X6960857Y-15801714D01*
X7018000Y-15801714D01*
X7046571Y-15816000D01*
X7060857Y-15830286D01*
X7075143Y-15858857D01*
X7075143Y-15873143D01*
X7060857Y-15901714D01*
X7046571Y-15916000D01*
X7018000Y-15930286D01*
X6960857Y-15930286D01*
X6932286Y-15944571D01*
X6918000Y-15958857D01*
X6903714Y-15987429D01*
X6903714Y-16044571D01*
X6918000Y-16073143D01*
X6932286Y-16087429D01*
X6960857Y-16101714D01*
X7018000Y-16101714D01*
X7046571Y-16087429D01*
X7060857Y-16073143D01*
X7075143Y-16044571D01*
X7075143Y-15987429D01*
X7060857Y-15958857D01*
X7046571Y-15944571D01*
X7018000Y-15930286D01*
X7260857Y-15801714D02*
X7289428Y-15801714D01*
X7318000Y-15816000D01*
X7332286Y-15830286D01*
X7346571Y-15858857D01*
X7360857Y-15916000D01*
X7360857Y-15987429D01*
X7346571Y-16044571D01*
X7332286Y-16073143D01*
X7318000Y-16087429D01*
X7289428Y-16101714D01*
X7260857Y-16101714D01*
X7232286Y-16087429D01*
X7218000Y-16073143D01*
X7203714Y-16044571D01*
X7189428Y-15987429D01*
X7189428Y-15916000D01*
X7203714Y-15858857D01*
X7218000Y-15830286D01*
X7232286Y-15816000D01*
X7260857Y-15801714D01*
X7489428Y-16101714D02*
X7489428Y-15901714D01*
X7489428Y-15930286D02*
X7503714Y-15916000D01*
X7532286Y-15901714D01*
X7575143Y-15901714D01*
X7603714Y-15916000D01*
X7618000Y-15944571D01*
X7618000Y-16101714D01*
X7618000Y-15944571D02*
X7632286Y-15916000D01*
X7660857Y-15901714D01*
X7703714Y-15901714D01*
X7732286Y-15916000D01*
X7746571Y-15944571D01*
X7746571Y-16101714D01*
X7889428Y-16101714D02*
X7889428Y-15901714D01*
X7889428Y-15930286D02*
X7903714Y-15916000D01*
X7932286Y-15901714D01*
X7975143Y-15901714D01*
X8003714Y-15916000D01*
X8018000Y-15944571D01*
X8018000Y-16101714D01*
X8018000Y-15944571D02*
X8032286Y-15916000D01*
X8060857Y-15901714D01*
X8103714Y-15901714D01*
X8132286Y-15916000D01*
X8146571Y-15944571D01*
X8146571Y-16101714D01*
X8732286Y-15787429D02*
X8475143Y-16173143D01*
X9118000Y-15801714D02*
X9146571Y-15801714D01*
X9175143Y-15816000D01*
X9189428Y-15830286D01*
X9203714Y-15858857D01*
X9218000Y-15916000D01*
X9218000Y-15987429D01*
X9203714Y-16044571D01*
X9189428Y-16073143D01*
X9175143Y-16087429D01*
X9146571Y-16101714D01*
X9118000Y-16101714D01*
X9089428Y-16087429D01*
X9075143Y-16073143D01*
X9060857Y-16044571D01*
X9046571Y-15987429D01*
X9046571Y-15916000D01*
X9060857Y-15858857D01*
X9075143Y-15830286D01*
X9089428Y-15816000D01*
X9118000Y-15801714D01*
X9346571Y-16073143D02*
X9360857Y-16087429D01*
X9346571Y-16101714D01*
X9332286Y-16087429D01*
X9346571Y-16073143D01*
X9346571Y-16101714D01*
X9546571Y-15801714D02*
X9575143Y-15801714D01*
X9603714Y-15816000D01*
X9618000Y-15830286D01*
X9632286Y-15858857D01*
X9646571Y-15916000D01*
X9646571Y-15987429D01*
X9632286Y-16044571D01*
X9618000Y-16073143D01*
X9603714Y-16087429D01*
X9575143Y-16101714D01*
X9546571Y-16101714D01*
X9518000Y-16087429D01*
X9503714Y-16073143D01*
X9489428Y-16044571D01*
X9475143Y-15987429D01*
X9475143Y-15916000D01*
X9489428Y-15858857D01*
X9503714Y-15830286D01*
X9518000Y-15816000D01*
X9546571Y-15801714D01*
X9746571Y-15801714D02*
X9932286Y-15801714D01*
X9832286Y-15916000D01*
X9875143Y-15916000D01*
X9903714Y-15930286D01*
X9918000Y-15944571D01*
X9932286Y-15973143D01*
X9932286Y-16044571D01*
X9918000Y-16073143D01*
X9903714Y-16087429D01*
X9875143Y-16101714D01*
X9789428Y-16101714D01*
X9760857Y-16087429D01*
X9746571Y-16073143D01*
X10218000Y-16101714D02*
X10046571Y-16101714D01*
X10132286Y-16101714D02*
X10132286Y-15801714D01*
X10103714Y-15844571D01*
X10075143Y-15873143D01*
X10046571Y-15887429D01*
X10332286Y-15801714D02*
X10332286Y-15858857D01*
X10446571Y-15801714D02*
X10446571Y-15858857D01*
X10889428Y-16216000D02*
X10875143Y-16201714D01*
X10846571Y-16158857D01*
X10832286Y-16130286D01*
X10818000Y-16087429D01*
X10803714Y-16016000D01*
X10803714Y-15958857D01*
X10818000Y-15887429D01*
X10832286Y-15844571D01*
X10846571Y-15816000D01*
X10875143Y-15773143D01*
X10889428Y-15758857D01*
X10975143Y-15801714D02*
X11160857Y-15801714D01*
X11060857Y-15916000D01*
X11103714Y-15916000D01*
X11132286Y-15930286D01*
X11146571Y-15944571D01*
X11160857Y-15973143D01*
X11160857Y-16044571D01*
X11146571Y-16073143D01*
X11132286Y-16087429D01*
X11103714Y-16101714D01*
X11018000Y-16101714D01*
X10989428Y-16087429D01*
X10975143Y-16073143D01*
X11260857Y-15801714D02*
X11446571Y-15801714D01*
X11346571Y-15916000D01*
X11389428Y-15916000D01*
X11418000Y-15930286D01*
X11432285Y-15944571D01*
X11446571Y-15973143D01*
X11446571Y-16044571D01*
X11432285Y-16073143D01*
X11418000Y-16087429D01*
X11389428Y-16101714D01*
X11303714Y-16101714D01*
X11275143Y-16087429D01*
X11260857Y-16073143D01*
X11803714Y-16101714D02*
X11803714Y-15801714D01*
X11932285Y-16101714D02*
X11932285Y-15944571D01*
X11918000Y-15916000D01*
X11889428Y-15901714D01*
X11846571Y-15901714D01*
X11818000Y-15916000D01*
X11803714Y-15930286D01*
X12118000Y-16101714D02*
X12089428Y-16087429D01*
X12075143Y-16073143D01*
X12060857Y-16044571D01*
X12060857Y-15958857D01*
X12075143Y-15930286D01*
X12089428Y-15916000D01*
X12118000Y-15901714D01*
X12160857Y-15901714D01*
X12189428Y-15916000D01*
X12203714Y-15930286D01*
X12218000Y-15958857D01*
X12218000Y-16044571D01*
X12203714Y-16073143D01*
X12189428Y-16087429D01*
X12160857Y-16101714D01*
X12118000Y-16101714D01*
X12389428Y-16101714D02*
X12360857Y-16087429D01*
X12346571Y-16058857D01*
X12346571Y-15801714D01*
X12618000Y-16087429D02*
X12589428Y-16101714D01*
X12532286Y-16101714D01*
X12503714Y-16087429D01*
X12489428Y-16058857D01*
X12489428Y-15944571D01*
X12503714Y-15916000D01*
X12532286Y-15901714D01*
X12589428Y-15901714D01*
X12618000Y-15916000D01*
X12632286Y-15944571D01*
X12632286Y-15973143D01*
X12489428Y-16001714D01*
X12746571Y-16087429D02*
X12775143Y-16101714D01*
X12832286Y-16101714D01*
X12860857Y-16087429D01*
X12875143Y-16058857D01*
X12875143Y-16044571D01*
X12860857Y-16016000D01*
X12832286Y-16001714D01*
X12789428Y-16001714D01*
X12760857Y-15987429D01*
X12746571Y-15958857D01*
X12746571Y-15944571D01*
X12760857Y-15916000D01*
X12789428Y-15901714D01*
X12832286Y-15901714D01*
X12860857Y-15916000D01*
X12975143Y-16216000D02*
X12989428Y-16201714D01*
X13018000Y-16158857D01*
X13032286Y-16130286D01*
X13046571Y-16087429D01*
X13060857Y-16016000D01*
X13060857Y-15958857D01*
X13046571Y-15887429D01*
X13032286Y-15844571D01*
X13018000Y-15816000D01*
X12989428Y-15773143D01*
X12975143Y-15758857D01*
X6177995Y-16321995D02*
X6177995Y-16402005D01*
X6137990Y-16362000D02*
X6218000Y-16362000D01*
X6546571Y-16197714D02*
X6575143Y-16197714D01*
X6603714Y-16212000D01*
X6618000Y-16226286D01*
X6632286Y-16254857D01*
X6646571Y-16312000D01*
X6646571Y-16383429D01*
X6632286Y-16440571D01*
X6618000Y-16469143D01*
X6603714Y-16483429D01*
X6575143Y-16497714D01*
X6546571Y-16497714D01*
X6518000Y-16483429D01*
X6503714Y-16469143D01*
X6489428Y-16440571D01*
X6475143Y-16383429D01*
X6475143Y-16312000D01*
X6489428Y-16254857D01*
X6503714Y-16226286D01*
X6518000Y-16212000D01*
X6546571Y-16197714D01*
X6775143Y-16469143D02*
X6789428Y-16483429D01*
X6775143Y-16497714D01*
X6760857Y-16483429D01*
X6775143Y-16469143D01*
X6775143Y-16497714D01*
X6960857Y-16326286D02*
X6932286Y-16312000D01*
X6918000Y-16297714D01*
X6903714Y-16269143D01*
X6903714Y-16254857D01*
X6918000Y-16226286D01*
X6932286Y-16212000D01*
X6960857Y-16197714D01*
X7018000Y-16197714D01*
X7046571Y-16212000D01*
X7060857Y-16226286D01*
X7075143Y-16254857D01*
X7075143Y-16269143D01*
X7060857Y-16297714D01*
X7046571Y-16312000D01*
X7018000Y-16326286D01*
X6960857Y-16326286D01*
X6932286Y-16340571D01*
X6918000Y-16354857D01*
X6903714Y-16383429D01*
X6903714Y-16440571D01*
X6918000Y-16469143D01*
X6932286Y-16483429D01*
X6960857Y-16497714D01*
X7018000Y-16497714D01*
X7046571Y-16483429D01*
X7060857Y-16469143D01*
X7075143Y-16440571D01*
X7075143Y-16383429D01*
X7060857Y-16354857D01*
X7046571Y-16340571D01*
X7018000Y-16326286D01*
X7260857Y-16197714D02*
X7289428Y-16197714D01*
X7318000Y-16212000D01*
X7332286Y-16226286D01*
X7346571Y-16254857D01*
X7360857Y-16312000D01*
X7360857Y-16383429D01*
X7346571Y-16440571D01*
X7332286Y-16469143D01*
X7318000Y-16483429D01*
X7289428Y-16497714D01*
X7260857Y-16497714D01*
X7232286Y-16483429D01*
X7218000Y-16469143D01*
X7203714Y-16440571D01*
X7189428Y-16383429D01*
X7189428Y-16312000D01*
X7203714Y-16254857D01*
X7218000Y-16226286D01*
X7232286Y-16212000D01*
X7260857Y-16197714D01*
X7489428Y-16497714D02*
X7489428Y-16297714D01*
X7489428Y-16326286D02*
X7503714Y-16312000D01*
X7532286Y-16297714D01*
X7575143Y-16297714D01*
X7603714Y-16312000D01*
X7618000Y-16340571D01*
X7618000Y-16497714D01*
X7618000Y-16340571D02*
X7632286Y-16312000D01*
X7660857Y-16297714D01*
X7703714Y-16297714D01*
X7732286Y-16312000D01*
X7746571Y-16340571D01*
X7746571Y-16497714D01*
X7889428Y-16497714D02*
X7889428Y-16297714D01*
X7889428Y-16326286D02*
X7903714Y-16312000D01*
X7932286Y-16297714D01*
X7975143Y-16297714D01*
X8003714Y-16312000D01*
X8018000Y-16340571D01*
X8018000Y-16497714D01*
X8018000Y-16340571D02*
X8032286Y-16312000D01*
X8060857Y-16297714D01*
X8103714Y-16297714D01*
X8132286Y-16312000D01*
X8146571Y-16340571D01*
X8146571Y-16497714D01*
X8732286Y-16183429D02*
X8475143Y-16569143D01*
X9118000Y-16197714D02*
X9146571Y-16197714D01*
X9175143Y-16212000D01*
X9189428Y-16226286D01*
X9203714Y-16254857D01*
X9218000Y-16312000D01*
X9218000Y-16383429D01*
X9203714Y-16440571D01*
X9189428Y-16469143D01*
X9175143Y-16483429D01*
X9146571Y-16497714D01*
X9118000Y-16497714D01*
X9089428Y-16483429D01*
X9075143Y-16469143D01*
X9060857Y-16440571D01*
X9046571Y-16383429D01*
X9046571Y-16312000D01*
X9060857Y-16254857D01*
X9075143Y-16226286D01*
X9089428Y-16212000D01*
X9118000Y-16197714D01*
X9346571Y-16469143D02*
X9360857Y-16483429D01*
X9346571Y-16497714D01*
X9332286Y-16483429D01*
X9346571Y-16469143D01*
X9346571Y-16497714D01*
X9546571Y-16197714D02*
X9575143Y-16197714D01*
X9603714Y-16212000D01*
X9618000Y-16226286D01*
X9632286Y-16254857D01*
X9646571Y-16312000D01*
X9646571Y-16383429D01*
X9632286Y-16440571D01*
X9618000Y-16469143D01*
X9603714Y-16483429D01*
X9575143Y-16497714D01*
X9546571Y-16497714D01*
X9518000Y-16483429D01*
X9503714Y-16469143D01*
X9489428Y-16440571D01*
X9475143Y-16383429D01*
X9475143Y-16312000D01*
X9489428Y-16254857D01*
X9503714Y-16226286D01*
X9518000Y-16212000D01*
X9546571Y-16197714D01*
X9746571Y-16197714D02*
X9932286Y-16197714D01*
X9832286Y-16312000D01*
X9875143Y-16312000D01*
X9903714Y-16326286D01*
X9918000Y-16340571D01*
X9932286Y-16369143D01*
X9932286Y-16440571D01*
X9918000Y-16469143D01*
X9903714Y-16483429D01*
X9875143Y-16497714D01*
X9789428Y-16497714D01*
X9760857Y-16483429D01*
X9746571Y-16469143D01*
X10046571Y-16226286D02*
X10060857Y-16212000D01*
X10089428Y-16197714D01*
X10160857Y-16197714D01*
X10189428Y-16212000D01*
X10203714Y-16226286D01*
X10218000Y-16254857D01*
X10218000Y-16283429D01*
X10203714Y-16326286D01*
X10032286Y-16497714D01*
X10218000Y-16497714D01*
X10332286Y-16197714D02*
X10332286Y-16254857D01*
X10446571Y-16197714D02*
X10446571Y-16254857D01*
X10889428Y-16612000D02*
X10875143Y-16597714D01*
X10846571Y-16554857D01*
X10832286Y-16526286D01*
X10818000Y-16483429D01*
X10803714Y-16412000D01*
X10803714Y-16354857D01*
X10818000Y-16283429D01*
X10832286Y-16240571D01*
X10846571Y-16212000D01*
X10875143Y-16169143D01*
X10889428Y-16154857D01*
X10989428Y-16226286D02*
X11003714Y-16212000D01*
X11032286Y-16197714D01*
X11103714Y-16197714D01*
X11132286Y-16212000D01*
X11146571Y-16226286D01*
X11160857Y-16254857D01*
X11160857Y-16283429D01*
X11146571Y-16326286D01*
X10975143Y-16497714D01*
X11160857Y-16497714D01*
X11432285Y-16197714D02*
X11289428Y-16197714D01*
X11275143Y-16340571D01*
X11289428Y-16326286D01*
X11318000Y-16312000D01*
X11389428Y-16312000D01*
X11418000Y-16326286D01*
X11432285Y-16340571D01*
X11446571Y-16369143D01*
X11446571Y-16440571D01*
X11432285Y-16469143D01*
X11418000Y-16483429D01*
X11389428Y-16497714D01*
X11318000Y-16497714D01*
X11289428Y-16483429D01*
X11275143Y-16469143D01*
X11803714Y-16497714D02*
X11803714Y-16197714D01*
X11932285Y-16497714D02*
X11932285Y-16340571D01*
X11918000Y-16312000D01*
X11889428Y-16297714D01*
X11846571Y-16297714D01*
X11818000Y-16312000D01*
X11803714Y-16326286D01*
X12118000Y-16497714D02*
X12089428Y-16483429D01*
X12075143Y-16469143D01*
X12060857Y-16440571D01*
X12060857Y-16354857D01*
X12075143Y-16326286D01*
X12089428Y-16312000D01*
X12118000Y-16297714D01*
X12160857Y-16297714D01*
X12189428Y-16312000D01*
X12203714Y-16326286D01*
X12218000Y-16354857D01*
X12218000Y-16440571D01*
X12203714Y-16469143D01*
X12189428Y-16483429D01*
X12160857Y-16497714D01*
X12118000Y-16497714D01*
X12389428Y-16497714D02*
X12360857Y-16483429D01*
X12346571Y-16454857D01*
X12346571Y-16197714D01*
X12618000Y-16483429D02*
X12589428Y-16497714D01*
X12532286Y-16497714D01*
X12503714Y-16483429D01*
X12489428Y-16454857D01*
X12489428Y-16340571D01*
X12503714Y-16312000D01*
X12532286Y-16297714D01*
X12589428Y-16297714D01*
X12618000Y-16312000D01*
X12632286Y-16340571D01*
X12632286Y-16369143D01*
X12489428Y-16397714D01*
X12746571Y-16483429D02*
X12775143Y-16497714D01*
X12832286Y-16497714D01*
X12860857Y-16483429D01*
X12875143Y-16454857D01*
X12875143Y-16440571D01*
X12860857Y-16412000D01*
X12832286Y-16397714D01*
X12789428Y-16397714D01*
X12760857Y-16383429D01*
X12746571Y-16354857D01*
X12746571Y-16340571D01*
X12760857Y-16312000D01*
X12789428Y-16297714D01*
X12832286Y-16297714D01*
X12860857Y-16312000D01*
X12975143Y-16612000D02*
X12989428Y-16597714D01*
X13018000Y-16554857D01*
X13032286Y-16526286D01*
X13046571Y-16483429D01*
X13060857Y-16412000D01*
X13060857Y-16354857D01*
X13046571Y-16283429D01*
X13032286Y-16240571D01*
X13018000Y-16212000D01*
X12989428Y-16169143D01*
X12975143Y-16154857D01*
D12*
D13*
X6546571Y-16593714D02*
X6575143Y-16593714D01*
X6603714Y-16608000D01*
X6618000Y-16622286D01*
X6632286Y-16650857D01*
X6646571Y-16708000D01*
X6646571Y-16779429D01*
X6632286Y-16836572D01*
X6618000Y-16865143D01*
X6603714Y-16879429D01*
X6575143Y-16893714D01*
X6546571Y-16893714D01*
X6518000Y-16879429D01*
X6503714Y-16865143D01*
X6489428Y-16836572D01*
X6475143Y-16779429D01*
X6475143Y-16708000D01*
X6489428Y-16650857D01*
X6503714Y-16622286D01*
X6518000Y-16608000D01*
X6546571Y-16593714D01*
X6775143Y-16865143D02*
X6789428Y-16879429D01*
X6775143Y-16893714D01*
X6760857Y-16879429D01*
X6775143Y-16865143D01*
X6775143Y-16893714D01*
X6960857Y-16722286D02*
X6932286Y-16708000D01*
X6918000Y-16693714D01*
X6903714Y-16665143D01*
X6903714Y-16650857D01*
X6918000Y-16622286D01*
X6932286Y-16608000D01*
X6960857Y-16593714D01*
X7018000Y-16593714D01*
X7046571Y-16608000D01*
X7060857Y-16622286D01*
X7075143Y-16650857D01*
X7075143Y-16665143D01*
X7060857Y-16693714D01*
X7046571Y-16708000D01*
X7018000Y-16722286D01*
X6960857Y-16722286D01*
X6932286Y-16736571D01*
X6918000Y-16750857D01*
X6903714Y-16779429D01*
X6903714Y-16836572D01*
X6918000Y-16865143D01*
X6932286Y-16879429D01*
X6960857Y-16893714D01*
X7018000Y-16893714D01*
X7046571Y-16879429D01*
X7060857Y-16865143D01*
X7075143Y-16836572D01*
X7075143Y-16779429D01*
X7060857Y-16750857D01*
X7046571Y-16736571D01*
X7018000Y-16722286D01*
X7360857Y-16893714D02*
X7189428Y-16893714D01*
X7275143Y-16893714D02*
X7275143Y-16593714D01*
X7246571Y-16636571D01*
X7218000Y-16665143D01*
X7189428Y-16679429D01*
X7489428Y-16893714D02*
X7489428Y-16693714D01*
X7489428Y-16722286D02*
X7503714Y-16708000D01*
X7532286Y-16693714D01*
X7575143Y-16693714D01*
X7603714Y-16708000D01*
X7618000Y-16736571D01*
X7618000Y-16893714D01*
X7618000Y-16736571D02*
X7632286Y-16708000D01*
X7660857Y-16693714D01*
X7703714Y-16693714D01*
X7732286Y-16708000D01*
X7746571Y-16736571D01*
X7746571Y-16893714D01*
X7889428Y-16893714D02*
X7889428Y-16693714D01*
X7889428Y-16722286D02*
X7903714Y-16708000D01*
X7932286Y-16693714D01*
X7975143Y-16693714D01*
X8003714Y-16708000D01*
X8018000Y-16736571D01*
X8018000Y-16893714D01*
X8018000Y-16736571D02*
X8032286Y-16708000D01*
X8060857Y-16693714D01*
X8103714Y-16693714D01*
X8132286Y-16708000D01*
X8146571Y-16736571D01*
X8146571Y-16893714D01*
X8732286Y-16579429D02*
X8475143Y-16965143D01*
X9118000Y-16593714D02*
X9146571Y-16593714D01*
X9175143Y-16608000D01*
X9189428Y-16622286D01*
X9203714Y-16650857D01*
X9218000Y-16708000D01*
X9218000Y-16779429D01*
X9203714Y-16836572D01*
X9189428Y-16865143D01*
X9175143Y-16879429D01*
X9146571Y-16893714D01*
X9118000Y-16893714D01*
X9089428Y-16879429D01*
X9075143Y-16865143D01*
X9060857Y-16836572D01*
X9046571Y-16779429D01*
X9046571Y-16708000D01*
X9060857Y-16650857D01*
X9075143Y-16622286D01*
X9089428Y-16608000D01*
X9118000Y-16593714D01*
X9346571Y-16865143D02*
X9360857Y-16879429D01*
X9346571Y-16893714D01*
X9332286Y-16879429D01*
X9346571Y-16865143D01*
X9346571Y-16893714D01*
X9546571Y-16593714D02*
X9575143Y-16593714D01*
X9603714Y-16608000D01*
X9618000Y-16622286D01*
X9632286Y-16650857D01*
X9646571Y-16708000D01*
X9646571Y-16779429D01*
X9632286Y-16836572D01*
X9618000Y-16865143D01*
X9603714Y-16879429D01*
X9575143Y-16893714D01*
X9546571Y-16893714D01*
X9518000Y-16879429D01*
X9503714Y-16865143D01*
X9489428Y-16836572D01*
X9475143Y-16779429D01*
X9475143Y-16708000D01*
X9489428Y-16650857D01*
X9503714Y-16622286D01*
X9518000Y-16608000D01*
X9546571Y-16593714D01*
X9746571Y-16593714D02*
X9932286Y-16593714D01*
X9832286Y-16708000D01*
X9875143Y-16708000D01*
X9903714Y-16722286D01*
X9918000Y-16736571D01*
X9932286Y-16765143D01*
X9932286Y-16836572D01*
X9918000Y-16865143D01*
X9903714Y-16879429D01*
X9875143Y-16893714D01*
X9789428Y-16893714D01*
X9760857Y-16879429D01*
X9746571Y-16865143D01*
X10046571Y-16622286D02*
X10060857Y-16608000D01*
X10089428Y-16593714D01*
X10160857Y-16593714D01*
X10189428Y-16608000D01*
X10203714Y-16622286D01*
X10218000Y-16650857D01*
X10218000Y-16679429D01*
X10203714Y-16722286D01*
X10032286Y-16893714D01*
X10218000Y-16893714D01*
X10332286Y-16593714D02*
X10332286Y-16650857D01*
X10446571Y-16593714D02*
X10446571Y-16650857D01*
X10889428Y-17008000D02*
X10875143Y-16993714D01*
X10846571Y-16950857D01*
X10832286Y-16922286D01*
X10818000Y-16879429D01*
X10803714Y-16808000D01*
X10803714Y-16750857D01*
X10818000Y-16679429D01*
X10832286Y-16636571D01*
X10846571Y-16608000D01*
X10875143Y-16565143D01*
X10889428Y-16550857D01*
X11160857Y-16893714D02*
X10989428Y-16893714D01*
X11075143Y-16893714D02*
X11075143Y-16593714D01*
X11046571Y-16636571D01*
X11018000Y-16665143D01*
X10989428Y-16679429D01*
X11432285Y-16593714D02*
X11289428Y-16593714D01*
X11275143Y-16736571D01*
X11289428Y-16722286D01*
X11318000Y-16708000D01*
X11389428Y-16708000D01*
X11418000Y-16722286D01*
X11432285Y-16736571D01*
X11446571Y-16765143D01*
X11446571Y-16836572D01*
X11432285Y-16865143D01*
X11418000Y-16879429D01*
X11389428Y-16893714D01*
X11318000Y-16893714D01*
X11289428Y-16879429D01*
X11275143Y-16865143D01*
X11618000Y-16722286D02*
X11589428Y-16708000D01*
X11575143Y-16693714D01*
X11560857Y-16665143D01*
X11560857Y-16650857D01*
X11575143Y-16622286D01*
X11589428Y-16608000D01*
X11618000Y-16593714D01*
X11675143Y-16593714D01*
X11703714Y-16608000D01*
X11718000Y-16622286D01*
X11732285Y-16650857D01*
X11732285Y-16665143D01*
X11718000Y-16693714D01*
X11703714Y-16708000D01*
X11675143Y-16722286D01*
X11618000Y-16722286D01*
X11589428Y-16736571D01*
X11575143Y-16750857D01*
X11560857Y-16779429D01*
X11560857Y-16836572D01*
X11575143Y-16865143D01*
X11589428Y-16879429D01*
X11618000Y-16893714D01*
X11675143Y-16893714D01*
X11703714Y-16879429D01*
X11718000Y-16865143D01*
X11732285Y-16836572D01*
X11732285Y-16779429D01*
X11718000Y-16750857D01*
X11703714Y-16736571D01*
X11675143Y-16722286D01*
X12089428Y-16893714D02*
X12089428Y-16593714D01*
X12218000Y-16893714D02*
X12218000Y-16736571D01*
X12203714Y-16708000D01*
X12175143Y-16693714D01*
X12132285Y-16693714D01*
X12103714Y-16708000D01*
X12089428Y-16722286D01*
X12403714Y-16893714D02*
X12375143Y-16879429D01*
X12360857Y-16865143D01*
X12346571Y-16836572D01*
X12346571Y-16750857D01*
X12360857Y-16722286D01*
X12375143Y-16708000D01*
X12403714Y-16693714D01*
X12446571Y-16693714D01*
X12475143Y-16708000D01*
X12489428Y-16722286D01*
X12503714Y-16750857D01*
X12503714Y-16836572D01*
X12489428Y-16865143D01*
X12475143Y-16879429D01*
X12446571Y-16893714D01*
X12403714Y-16893714D01*
X12675143Y-16893714D02*
X12646571Y-16879429D01*
X12632286Y-16850857D01*
X12632286Y-16593714D01*
X12903714Y-16879429D02*
X12875143Y-16893714D01*
X12818000Y-16893714D01*
X12789428Y-16879429D01*
X12775143Y-16850857D01*
X12775143Y-16736571D01*
X12789428Y-16708000D01*
X12818000Y-16693714D01*
X12875143Y-16693714D01*
X12903714Y-16708000D01*
X12918000Y-16736571D01*
X12918000Y-16765143D01*
X12775143Y-16793714D01*
X13032286Y-16879429D02*
X13060857Y-16893714D01*
X13118000Y-16893714D01*
X13146571Y-16879429D01*
X13160857Y-16850857D01*
X13160857Y-16836572D01*
X13146571Y-16808000D01*
X13118000Y-16793714D01*
X13075143Y-16793714D01*
X13046571Y-16779429D01*
X13032286Y-16750857D01*
X13032286Y-16736571D01*
X13046571Y-16708000D01*
X13075143Y-16693714D01*
X13118000Y-16693714D01*
X13146571Y-16708000D01*
X13260857Y-17008000D02*
X13275143Y-16993714D01*
X13303714Y-16950857D01*
X13318000Y-16922286D01*
X13332286Y-16879429D01*
X13346571Y-16808000D01*
X13346571Y-16750857D01*
X13332286Y-16679429D01*
X13318000Y-16636571D01*
X13303714Y-16608000D01*
X13275143Y-16565143D01*
X13260857Y-16550857D01*
D12*
D13*
X6646571Y-17289714D02*
X6475143Y-17289714D01*
X6560857Y-17289714D02*
X6560857Y-16989714D01*
X6532286Y-17032572D01*
X6503714Y-17061143D01*
X6475143Y-17075429D01*
X6775143Y-17261143D02*
X6789428Y-17275429D01*
X6775143Y-17289714D01*
X6760857Y-17275429D01*
X6775143Y-17261143D01*
X6775143Y-17289714D01*
X6975143Y-16989714D02*
X7003714Y-16989714D01*
X7032286Y-17004000D01*
X7046571Y-17018286D01*
X7060857Y-17046857D01*
X7075143Y-17104000D01*
X7075143Y-17175429D01*
X7060857Y-17232572D01*
X7046571Y-17261143D01*
X7032286Y-17275429D01*
X7003714Y-17289714D01*
X6975143Y-17289714D01*
X6946571Y-17275429D01*
X6932286Y-17261143D01*
X6918000Y-17232572D01*
X6903714Y-17175429D01*
X6903714Y-17104000D01*
X6918000Y-17046857D01*
X6932286Y-17018286D01*
X6946571Y-17004000D01*
X6975143Y-16989714D01*
X7260857Y-16989714D02*
X7289428Y-16989714D01*
X7318000Y-17004000D01*
X7332286Y-17018286D01*
X7346571Y-17046857D01*
X7360857Y-17104000D01*
X7360857Y-17175429D01*
X7346571Y-17232572D01*
X7332286Y-17261143D01*
X7318000Y-17275429D01*
X7289428Y-17289714D01*
X7260857Y-17289714D01*
X7232286Y-17275429D01*
X7218000Y-17261143D01*
X7203714Y-17232572D01*
X7189428Y-17175429D01*
X7189428Y-17104000D01*
X7203714Y-17046857D01*
X7218000Y-17018286D01*
X7232286Y-17004000D01*
X7260857Y-16989714D01*
X7489428Y-17289714D02*
X7489428Y-17089714D01*
X7489428Y-17118286D02*
X7503714Y-17104000D01*
X7532286Y-17089714D01*
X7575143Y-17089714D01*
X7603714Y-17104000D01*
X7618000Y-17132572D01*
X7618000Y-17289714D01*
X7618000Y-17132572D02*
X7632286Y-17104000D01*
X7660857Y-17089714D01*
X7703714Y-17089714D01*
X7732286Y-17104000D01*
X7746571Y-17132572D01*
X7746571Y-17289714D01*
X7889428Y-17289714D02*
X7889428Y-17089714D01*
X7889428Y-17118286D02*
X7903714Y-17104000D01*
X7932286Y-17089714D01*
X7975143Y-17089714D01*
X8003714Y-17104000D01*
X8018000Y-17132572D01*
X8018000Y-17289714D01*
X8018000Y-17132572D02*
X8032286Y-17104000D01*
X8060857Y-17089714D01*
X8103714Y-17089714D01*
X8132286Y-17104000D01*
X8146571Y-17132572D01*
X8146571Y-17289714D01*
X8732286Y-16975429D02*
X8475143Y-17361143D01*
X9118000Y-16989714D02*
X9146571Y-16989714D01*
X9175143Y-17004000D01*
X9189428Y-17018286D01*
X9203714Y-17046857D01*
X9218000Y-17104000D01*
X9218000Y-17175429D01*
X9203714Y-17232572D01*
X9189428Y-17261143D01*
X9175143Y-17275429D01*
X9146571Y-17289714D01*
X9118000Y-17289714D01*
X9089428Y-17275429D01*
X9075143Y-17261143D01*
X9060857Y-17232572D01*
X9046571Y-17175429D01*
X9046571Y-17104000D01*
X9060857Y-17046857D01*
X9075143Y-17018286D01*
X9089428Y-17004000D01*
X9118000Y-16989714D01*
X9346571Y-17261143D02*
X9360857Y-17275429D01*
X9346571Y-17289714D01*
X9332286Y-17275429D01*
X9346571Y-17261143D01*
X9346571Y-17289714D01*
X9546571Y-16989714D02*
X9575143Y-16989714D01*
X9603714Y-17004000D01*
X9618000Y-17018286D01*
X9632286Y-17046857D01*
X9646571Y-17104000D01*
X9646571Y-17175429D01*
X9632286Y-17232572D01*
X9618000Y-17261143D01*
X9603714Y-17275429D01*
X9575143Y-17289714D01*
X9546571Y-17289714D01*
X9518000Y-17275429D01*
X9503714Y-17261143D01*
X9489428Y-17232572D01*
X9475143Y-17175429D01*
X9475143Y-17104000D01*
X9489428Y-17046857D01*
X9503714Y-17018286D01*
X9518000Y-17004000D01*
X9546571Y-16989714D01*
X9746571Y-16989714D02*
X9932286Y-16989714D01*
X9832286Y-17104000D01*
X9875143Y-17104000D01*
X9903714Y-17118286D01*
X9918000Y-17132572D01*
X9932286Y-17161143D01*
X9932286Y-17232572D01*
X9918000Y-17261143D01*
X9903714Y-17275429D01*
X9875143Y-17289714D01*
X9789428Y-17289714D01*
X9760857Y-17275429D01*
X9746571Y-17261143D01*
X10075143Y-17289714D02*
X10132286Y-17289714D01*
X10160857Y-17275429D01*
X10175143Y-17261143D01*
X10203714Y-17218286D01*
X10218000Y-17161143D01*
X10218000Y-17046857D01*
X10203714Y-17018286D01*
X10189428Y-17004000D01*
X10160857Y-16989714D01*
X10103714Y-16989714D01*
X10075143Y-17004000D01*
X10060857Y-17018286D01*
X10046571Y-17046857D01*
X10046571Y-17118286D01*
X10060857Y-17146857D01*
X10075143Y-17161143D01*
X10103714Y-17175429D01*
X10160857Y-17175429D01*
X10189428Y-17161143D01*
X10203714Y-17146857D01*
X10218000Y-17118286D01*
X10332286Y-16989714D02*
X10332286Y-17046857D01*
X10446571Y-16989714D02*
X10446571Y-17046857D01*
X10889428Y-17404000D02*
X10875143Y-17389714D01*
X10846571Y-17346857D01*
X10832286Y-17318286D01*
X10818000Y-17275429D01*
X10803714Y-17204000D01*
X10803714Y-17146857D01*
X10818000Y-17075429D01*
X10832286Y-17032572D01*
X10846571Y-17004000D01*
X10875143Y-16961143D01*
X10889428Y-16946857D01*
X11132286Y-17089714D02*
X11132286Y-17289714D01*
X11060857Y-16975429D02*
X10989428Y-17189714D01*
X11175143Y-17189714D01*
X11418000Y-16989714D02*
X11360857Y-16989714D01*
X11332285Y-17004000D01*
X11318000Y-17018286D01*
X11289428Y-17061143D01*
X11275143Y-17118286D01*
X11275143Y-17232572D01*
X11289428Y-17261143D01*
X11303714Y-17275429D01*
X11332285Y-17289714D01*
X11389428Y-17289714D01*
X11418000Y-17275429D01*
X11432285Y-17261143D01*
X11446571Y-17232572D01*
X11446571Y-17161143D01*
X11432285Y-17132572D01*
X11418000Y-17118286D01*
X11389428Y-17104000D01*
X11332285Y-17104000D01*
X11303714Y-17118286D01*
X11289428Y-17132572D01*
X11275143Y-17161143D01*
X11803714Y-17289714D02*
X11803714Y-16989714D01*
X11932285Y-17289714D02*
X11932285Y-17132572D01*
X11918000Y-17104000D01*
X11889428Y-17089714D01*
X11846571Y-17089714D01*
X11818000Y-17104000D01*
X11803714Y-17118286D01*
X12118000Y-17289714D02*
X12089428Y-17275429D01*
X12075143Y-17261143D01*
X12060857Y-17232572D01*
X12060857Y-17146857D01*
X12075143Y-17118286D01*
X12089428Y-17104000D01*
X12118000Y-17089714D01*
X12160857Y-17089714D01*
X12189428Y-17104000D01*
X12203714Y-17118286D01*
X12218000Y-17146857D01*
X12218000Y-17232572D01*
X12203714Y-17261143D01*
X12189428Y-17275429D01*
X12160857Y-17289714D01*
X12118000Y-17289714D01*
X12389428Y-17289714D02*
X12360857Y-17275429D01*
X12346571Y-17246857D01*
X12346571Y-16989714D01*
X12618000Y-17275429D02*
X12589428Y-17289714D01*
X12532286Y-17289714D01*
X12503714Y-17275429D01*
X12489428Y-17246857D01*
X12489428Y-17132572D01*
X12503714Y-17104000D01*
X12532286Y-17089714D01*
X12589428Y-17089714D01*
X12618000Y-17104000D01*
X12632286Y-17132572D01*
X12632286Y-17161143D01*
X12489428Y-17189714D01*
X12746571Y-17275429D02*
X12775143Y-17289714D01*
X12832286Y-17289714D01*
X12860857Y-17275429D01*
X12875143Y-17246857D01*
X12875143Y-17232572D01*
X12860857Y-17204000D01*
X12832286Y-17189714D01*
X12789428Y-17189714D01*
X12760857Y-17175429D01*
X12746571Y-17146857D01*
X12746571Y-17132572D01*
X12760857Y-17104000D01*
X12789428Y-17089714D01*
X12832286Y-17089714D01*
X12860857Y-17104000D01*
X12975143Y-17404000D02*
X12989428Y-17389714D01*
X13018000Y-17346857D01*
X13032286Y-17318286D01*
X13046571Y-17275429D01*
X13060857Y-17204000D01*
X13060857Y-17146857D01*
X13046571Y-17075429D01*
X13032286Y-17032572D01*
X13018000Y-17004000D01*
X12989428Y-16961143D01*
X12975143Y-16946857D01*
X6116400Y-17499200D02*
X6218000Y-17600800D01*
X6218000Y-17499200D02*
X6116400Y-17600800D01*
D12*
X6218000Y-17550000D02*
G75*
G03X6218000Y-17550000I-50800J0D01*
G74*
G01*
D13*
X6646571Y-17685714D02*
X6475143Y-17685714D01*
X6560857Y-17685714D02*
X6560857Y-17385714D01*
X6532286Y-17428572D01*
X6503714Y-17457143D01*
X6475143Y-17471429D01*
X6775143Y-17657143D02*
X6789428Y-17671429D01*
X6775143Y-17685714D01*
X6760857Y-17671429D01*
X6775143Y-17657143D01*
X6775143Y-17685714D01*
X6975143Y-17385714D02*
X7003714Y-17385714D01*
X7032286Y-17400000D01*
X7046571Y-17414286D01*
X7060857Y-17442857D01*
X7075143Y-17500000D01*
X7075143Y-17571429D01*
X7060857Y-17628572D01*
X7046571Y-17657143D01*
X7032286Y-17671429D01*
X7003714Y-17685714D01*
X6975143Y-17685714D01*
X6946571Y-17671429D01*
X6932286Y-17657143D01*
X6918000Y-17628572D01*
X6903714Y-17571429D01*
X6903714Y-17500000D01*
X6918000Y-17442857D01*
X6932286Y-17414286D01*
X6946571Y-17400000D01*
X6975143Y-17385714D01*
X7189428Y-17414286D02*
X7203714Y-17400000D01*
X7232286Y-17385714D01*
X7303714Y-17385714D01*
X7332286Y-17400000D01*
X7346571Y-17414286D01*
X7360857Y-17442857D01*
X7360857Y-17471429D01*
X7346571Y-17514286D01*
X7175143Y-17685714D01*
X7360857Y-17685714D01*
X7489428Y-17685714D02*
X7489428Y-17485714D01*
X7489428Y-17514286D02*
X7503714Y-17500000D01*
X7532286Y-17485714D01*
X7575143Y-17485714D01*
X7603714Y-17500000D01*
X7618000Y-17528572D01*
X7618000Y-17685714D01*
X7618000Y-17528572D02*
X7632286Y-17500000D01*
X7660857Y-17485714D01*
X7703714Y-17485714D01*
X7732286Y-17500000D01*
X7746571Y-17528572D01*
X7746571Y-17685714D01*
X7889428Y-17685714D02*
X7889428Y-17485714D01*
X7889428Y-17514286D02*
X7903714Y-17500000D01*
X7932286Y-17485714D01*
X7975143Y-17485714D01*
X8003714Y-17500000D01*
X8018000Y-17528572D01*
X8018000Y-17685714D01*
X8018000Y-17528572D02*
X8032286Y-17500000D01*
X8060857Y-17485714D01*
X8103714Y-17485714D01*
X8132286Y-17500000D01*
X8146571Y-17528572D01*
X8146571Y-17685714D01*
X8732286Y-17371429D02*
X8475143Y-17757143D01*
X9118000Y-17385714D02*
X9146571Y-17385714D01*
X9175143Y-17400000D01*
X9189428Y-17414286D01*
X9203714Y-17442857D01*
X9218000Y-17500000D01*
X9218000Y-17571429D01*
X9203714Y-17628572D01*
X9189428Y-17657143D01*
X9175143Y-17671429D01*
X9146571Y-17685714D01*
X9118000Y-17685714D01*
X9089428Y-17671429D01*
X9075143Y-17657143D01*
X9060857Y-17628572D01*
X9046571Y-17571429D01*
X9046571Y-17500000D01*
X9060857Y-17442857D01*
X9075143Y-17414286D01*
X9089428Y-17400000D01*
X9118000Y-17385714D01*
X9346571Y-17657143D02*
X9360857Y-17671429D01*
X9346571Y-17685714D01*
X9332286Y-17671429D01*
X9346571Y-17657143D01*
X9346571Y-17685714D01*
X9546571Y-17385714D02*
X9575143Y-17385714D01*
X9603714Y-17400000D01*
X9618000Y-17414286D01*
X9632286Y-17442857D01*
X9646571Y-17500000D01*
X9646571Y-17571429D01*
X9632286Y-17628572D01*
X9618000Y-17657143D01*
X9603714Y-17671429D01*
X9575143Y-17685714D01*
X9546571Y-17685714D01*
X9518000Y-17671429D01*
X9503714Y-17657143D01*
X9489428Y-17628572D01*
X9475143Y-17571429D01*
X9475143Y-17500000D01*
X9489428Y-17442857D01*
X9503714Y-17414286D01*
X9518000Y-17400000D01*
X9546571Y-17385714D01*
X9903714Y-17485714D02*
X9903714Y-17685714D01*
X9832286Y-17371429D02*
X9760857Y-17585714D01*
X9946571Y-17585714D01*
X10118000Y-17385714D02*
X10146571Y-17385714D01*
X10175143Y-17400000D01*
X10189428Y-17414286D01*
X10203714Y-17442857D01*
X10218000Y-17500000D01*
X10218000Y-17571429D01*
X10203714Y-17628572D01*
X10189428Y-17657143D01*
X10175143Y-17671429D01*
X10146571Y-17685714D01*
X10118000Y-17685714D01*
X10089428Y-17671429D01*
X10075143Y-17657143D01*
X10060857Y-17628572D01*
X10046571Y-17571429D01*
X10046571Y-17500000D01*
X10060857Y-17442857D01*
X10075143Y-17414286D01*
X10089428Y-17400000D01*
X10118000Y-17385714D01*
X10332286Y-17385714D02*
X10332286Y-17442857D01*
X10446571Y-17385714D02*
X10446571Y-17442857D01*
X10889428Y-17800000D02*
X10875143Y-17785714D01*
X10846571Y-17742857D01*
X10832286Y-17714286D01*
X10818000Y-17671429D01*
X10803714Y-17600000D01*
X10803714Y-17542857D01*
X10818000Y-17471429D01*
X10832286Y-17428572D01*
X10846571Y-17400000D01*
X10875143Y-17357143D01*
X10889428Y-17342857D01*
X11146571Y-17385714D02*
X11003714Y-17385714D01*
X10989428Y-17528572D01*
X11003714Y-17514286D01*
X11032286Y-17500000D01*
X11103714Y-17500000D01*
X11132286Y-17514286D01*
X11146571Y-17528572D01*
X11160857Y-17557143D01*
X11160857Y-17628572D01*
X11146571Y-17657143D01*
X11132286Y-17671429D01*
X11103714Y-17685714D01*
X11032286Y-17685714D01*
X11003714Y-17671429D01*
X10989428Y-17657143D01*
X11260857Y-17385714D02*
X11460857Y-17385714D01*
X11332285Y-17685714D01*
X11803714Y-17685714D02*
X11803714Y-17385714D01*
X11932285Y-17685714D02*
X11932285Y-17528572D01*
X11918000Y-17500000D01*
X11889428Y-17485714D01*
X11846571Y-17485714D01*
X11818000Y-17500000D01*
X11803714Y-17514286D01*
X12118000Y-17685714D02*
X12089428Y-17671429D01*
X12075143Y-17657143D01*
X12060857Y-17628572D01*
X12060857Y-17542857D01*
X12075143Y-17514286D01*
X12089428Y-17500000D01*
X12118000Y-17485714D01*
X12160857Y-17485714D01*
X12189428Y-17500000D01*
X12203714Y-17514286D01*
X12218000Y-17542857D01*
X12218000Y-17628572D01*
X12203714Y-17657143D01*
X12189428Y-17671429D01*
X12160857Y-17685714D01*
X12118000Y-17685714D01*
X12389428Y-17685714D02*
X12360857Y-17671429D01*
X12346571Y-17642857D01*
X12346571Y-17385714D01*
X12618000Y-17671429D02*
X12589428Y-17685714D01*
X12532286Y-17685714D01*
X12503714Y-17671429D01*
X12489428Y-17642857D01*
X12489428Y-17528572D01*
X12503714Y-17500000D01*
X12532286Y-17485714D01*
X12589428Y-17485714D01*
X12618000Y-17500000D01*
X12632286Y-17528572D01*
X12632286Y-17557143D01*
X12489428Y-17585714D01*
X12746571Y-17671429D02*
X12775143Y-17685714D01*
X12832286Y-17685714D01*
X12860857Y-17671429D01*
X12875143Y-17642857D01*
X12875143Y-17628572D01*
X12860857Y-17600000D01*
X12832286Y-17585714D01*
X12789428Y-17585714D01*
X12760857Y-17571429D01*
X12746571Y-17542857D01*
X12746571Y-17528572D01*
X12760857Y-17500000D01*
X12789428Y-17485714D01*
X12832286Y-17485714D01*
X12860857Y-17500000D01*
X12975143Y-17800000D02*
X12989428Y-17785714D01*
X13018000Y-17742857D01*
X13032286Y-17714286D01*
X13046571Y-17671429D01*
X13060857Y-17600000D01*
X13060857Y-17542857D01*
X13046571Y-17471429D01*
X13032286Y-17428572D01*
X13018000Y-17400000D01*
X12989428Y-17357143D01*
X12975143Y-17342857D01*
X6087952Y-17880976D02*
X6218000Y-18011024D01*
X6218000Y-17880976D02*
X6087952Y-18011024D01*
X6152976Y-17880976D02*
X6152976Y-18011024D01*
X6087952Y-17946000D02*
X6218000Y-17946000D01*
X6646571Y-18081714D02*
X6475143Y-18081714D01*
X6560857Y-18081714D02*
X6560857Y-17781714D01*
X6532286Y-17824572D01*
X6503714Y-17853143D01*
X6475143Y-17867429D01*
X6775143Y-18053143D02*
X6789428Y-18067429D01*
X6775143Y-18081714D01*
X6760857Y-18067429D01*
X6775143Y-18053143D01*
X6775143Y-18081714D01*
X6889428Y-17781714D02*
X7075143Y-17781714D01*
X6975143Y-17896000D01*
X7018000Y-17896000D01*
X7046571Y-17910286D01*
X7060857Y-17924572D01*
X7075143Y-17953143D01*
X7075143Y-18024572D01*
X7060857Y-18053143D01*
X7046571Y-18067429D01*
X7018000Y-18081714D01*
X6932286Y-18081714D01*
X6903714Y-18067429D01*
X6889428Y-18053143D01*
X7260857Y-17781714D02*
X7289428Y-17781714D01*
X7318000Y-17796000D01*
X7332286Y-17810286D01*
X7346571Y-17838857D01*
X7360857Y-17896000D01*
X7360857Y-17967429D01*
X7346571Y-18024572D01*
X7332286Y-18053143D01*
X7318000Y-18067429D01*
X7289428Y-18081714D01*
X7260857Y-18081714D01*
X7232286Y-18067429D01*
X7218000Y-18053143D01*
X7203714Y-18024572D01*
X7189428Y-17967429D01*
X7189428Y-17896000D01*
X7203714Y-17838857D01*
X7218000Y-17810286D01*
X7232286Y-17796000D01*
X7260857Y-17781714D01*
X7489428Y-18081714D02*
X7489428Y-17881714D01*
X7489428Y-17910286D02*
X7503714Y-17896000D01*
X7532286Y-17881714D01*
X7575143Y-17881714D01*
X7603714Y-17896000D01*
X7618000Y-17924572D01*
X7618000Y-18081714D01*
X7618000Y-17924572D02*
X7632286Y-17896000D01*
X7660857Y-17881714D01*
X7703714Y-17881714D01*
X7732286Y-17896000D01*
X7746571Y-17924572D01*
X7746571Y-18081714D01*
X7889428Y-18081714D02*
X7889428Y-17881714D01*
X7889428Y-17910286D02*
X7903714Y-17896000D01*
X7932286Y-17881714D01*
X7975143Y-17881714D01*
X8003714Y-17896000D01*
X8018000Y-17924572D01*
X8018000Y-18081714D01*
X8018000Y-17924572D02*
X8032286Y-17896000D01*
X8060857Y-17881714D01*
X8103714Y-17881714D01*
X8132286Y-17896000D01*
X8146571Y-17924572D01*
X8146571Y-18081714D01*
X8732286Y-17767429D02*
X8475143Y-18153143D01*
X9118000Y-17781714D02*
X9146571Y-17781714D01*
X9175143Y-17796000D01*
X9189428Y-17810286D01*
X9203714Y-17838857D01*
X9218000Y-17896000D01*
X9218000Y-17967429D01*
X9203714Y-18024572D01*
X9189428Y-18053143D01*
X9175143Y-18067429D01*
X9146571Y-18081714D01*
X9118000Y-18081714D01*
X9089428Y-18067429D01*
X9075143Y-18053143D01*
X9060857Y-18024572D01*
X9046571Y-17967429D01*
X9046571Y-17896000D01*
X9060857Y-17838857D01*
X9075143Y-17810286D01*
X9089428Y-17796000D01*
X9118000Y-17781714D01*
X9346571Y-18053143D02*
X9360857Y-18067429D01*
X9346571Y-18081714D01*
X9332286Y-18067429D01*
X9346571Y-18053143D01*
X9346571Y-18081714D01*
X9546571Y-17781714D02*
X9575143Y-17781714D01*
X9603714Y-17796000D01*
X9618000Y-17810286D01*
X9632286Y-17838857D01*
X9646571Y-17896000D01*
X9646571Y-17967429D01*
X9632286Y-18024572D01*
X9618000Y-18053143D01*
X9603714Y-18067429D01*
X9575143Y-18081714D01*
X9546571Y-18081714D01*
X9518000Y-18067429D01*
X9503714Y-18053143D01*
X9489428Y-18024572D01*
X9475143Y-17967429D01*
X9475143Y-17896000D01*
X9489428Y-17838857D01*
X9503714Y-17810286D01*
X9518000Y-17796000D01*
X9546571Y-17781714D01*
X9918000Y-17781714D02*
X9775143Y-17781714D01*
X9760857Y-17924572D01*
X9775143Y-17910286D01*
X9803714Y-17896000D01*
X9875143Y-17896000D01*
X9903714Y-17910286D01*
X9918000Y-17924572D01*
X9932286Y-17953143D01*
X9932286Y-18024572D01*
X9918000Y-18053143D01*
X9903714Y-18067429D01*
X9875143Y-18081714D01*
X9803714Y-18081714D01*
X9775143Y-18067429D01*
X9760857Y-18053143D01*
X10218000Y-18081714D02*
X10046571Y-18081714D01*
X10132286Y-18081714D02*
X10132286Y-17781714D01*
X10103714Y-17824572D01*
X10075143Y-17853143D01*
X10046571Y-17867429D01*
X10332286Y-17781714D02*
X10332286Y-17838857D01*
X10446571Y-17781714D02*
X10446571Y-17838857D01*
X10889428Y-18196000D02*
X10875143Y-18181714D01*
X10846571Y-18138857D01*
X10832286Y-18110286D01*
X10818000Y-18067429D01*
X10803714Y-17996000D01*
X10803714Y-17938857D01*
X10818000Y-17867429D01*
X10832286Y-17824572D01*
X10846571Y-17796000D01*
X10875143Y-17753143D01*
X10889428Y-17738857D01*
X11018000Y-18081714D02*
X11075143Y-18081714D01*
X11103714Y-18067429D01*
X11118000Y-18053143D01*
X11146571Y-18010286D01*
X11160857Y-17953143D01*
X11160857Y-17838857D01*
X11146571Y-17810286D01*
X11132286Y-17796000D01*
X11103714Y-17781714D01*
X11046571Y-17781714D01*
X11018000Y-17796000D01*
X11003714Y-17810286D01*
X10989428Y-17838857D01*
X10989428Y-17910286D01*
X11003714Y-17938857D01*
X11018000Y-17953143D01*
X11046571Y-17967429D01*
X11103714Y-17967429D01*
X11132286Y-17953143D01*
X11146571Y-17938857D01*
X11160857Y-17910286D01*
X11518000Y-18081714D02*
X11518000Y-17781714D01*
X11646571Y-18081714D02*
X11646571Y-17924572D01*
X11632285Y-17896000D01*
X11603714Y-17881714D01*
X11560857Y-17881714D01*
X11532285Y-17896000D01*
X11518000Y-17910286D01*
X11832285Y-18081714D02*
X11803714Y-18067429D01*
X11789428Y-18053143D01*
X11775143Y-18024572D01*
X11775143Y-17938857D01*
X11789428Y-17910286D01*
X11803714Y-17896000D01*
X11832285Y-17881714D01*
X11875143Y-17881714D01*
X11903714Y-17896000D01*
X11918000Y-17910286D01*
X11932285Y-17938857D01*
X11932285Y-18024572D01*
X11918000Y-18053143D01*
X11903714Y-18067429D01*
X11875143Y-18081714D01*
X11832285Y-18081714D01*
X12103714Y-18081714D02*
X12075143Y-18067429D01*
X12060857Y-18038857D01*
X12060857Y-17781714D01*
X12332286Y-18067429D02*
X12303714Y-18081714D01*
X12246571Y-18081714D01*
X12218000Y-18067429D01*
X12203714Y-18038857D01*
X12203714Y-17924572D01*
X12218000Y-17896000D01*
X12246571Y-17881714D01*
X12303714Y-17881714D01*
X12332286Y-17896000D01*
X12346571Y-17924572D01*
X12346571Y-17953143D01*
X12203714Y-17981714D01*
X12460857Y-18067429D02*
X12489428Y-18081714D01*
X12546571Y-18081714D01*
X12575143Y-18067429D01*
X12589428Y-18038857D01*
X12589428Y-18024572D01*
X12575143Y-17996000D01*
X12546571Y-17981714D01*
X12503714Y-17981714D01*
X12475143Y-17967429D01*
X12460857Y-17938857D01*
X12460857Y-17924572D01*
X12475143Y-17896000D01*
X12503714Y-17881714D01*
X12546571Y-17881714D01*
X12575143Y-17896000D01*
X12689428Y-18196000D02*
X12703714Y-18181714D01*
X12732286Y-18138857D01*
X12746571Y-18110286D01*
X12760857Y-18067429D01*
X12775143Y-17996000D01*
X12775143Y-17938857D01*
X12760857Y-17867429D01*
X12746571Y-17824572D01*
X12732286Y-17796000D01*
X12703714Y-17753143D01*
X12689428Y-17738857D01*
X6038000Y-18252000D02*
X6218000Y-18432000D01*
X6218000Y-18252000D02*
X6038000Y-18432000D01*
D12*
D13*
X6646571Y-18477714D02*
X6475143Y-18477714D01*
X6560857Y-18477714D02*
X6560857Y-18177714D01*
X6532286Y-18220572D01*
X6503714Y-18249143D01*
X6475143Y-18263429D01*
X6775143Y-18449143D02*
X6789428Y-18463429D01*
X6775143Y-18477714D01*
X6760857Y-18463429D01*
X6775143Y-18449143D01*
X6775143Y-18477714D01*
X6960857Y-18306286D02*
X6932286Y-18292000D01*
X6918000Y-18277714D01*
X6903714Y-18249143D01*
X6903714Y-18234857D01*
X6918000Y-18206286D01*
X6932286Y-18192000D01*
X6960857Y-18177714D01*
X7018000Y-18177714D01*
X7046571Y-18192000D01*
X7060857Y-18206286D01*
X7075143Y-18234857D01*
X7075143Y-18249143D01*
X7060857Y-18277714D01*
X7046571Y-18292000D01*
X7018000Y-18306286D01*
X6960857Y-18306286D01*
X6932286Y-18320572D01*
X6918000Y-18334857D01*
X6903714Y-18363429D01*
X6903714Y-18420572D01*
X6918000Y-18449143D01*
X6932286Y-18463429D01*
X6960857Y-18477714D01*
X7018000Y-18477714D01*
X7046571Y-18463429D01*
X7060857Y-18449143D01*
X7075143Y-18420572D01*
X7075143Y-18363429D01*
X7060857Y-18334857D01*
X7046571Y-18320572D01*
X7018000Y-18306286D01*
X7260857Y-18177714D02*
X7289428Y-18177714D01*
X7318000Y-18192000D01*
X7332286Y-18206286D01*
X7346571Y-18234857D01*
X7360857Y-18292000D01*
X7360857Y-18363429D01*
X7346571Y-18420572D01*
X7332286Y-18449143D01*
X7318000Y-18463429D01*
X7289428Y-18477714D01*
X7260857Y-18477714D01*
X7232286Y-18463429D01*
X7218000Y-18449143D01*
X7203714Y-18420572D01*
X7189428Y-18363429D01*
X7189428Y-18292000D01*
X7203714Y-18234857D01*
X7218000Y-18206286D01*
X7232286Y-18192000D01*
X7260857Y-18177714D01*
X7489428Y-18477714D02*
X7489428Y-18277714D01*
X7489428Y-18306286D02*
X7503714Y-18292000D01*
X7532286Y-18277714D01*
X7575143Y-18277714D01*
X7603714Y-18292000D01*
X7618000Y-18320572D01*
X7618000Y-18477714D01*
X7618000Y-18320572D02*
X7632286Y-18292000D01*
X7660857Y-18277714D01*
X7703714Y-18277714D01*
X7732286Y-18292000D01*
X7746571Y-18320572D01*
X7746571Y-18477714D01*
X7889428Y-18477714D02*
X7889428Y-18277714D01*
X7889428Y-18306286D02*
X7903714Y-18292000D01*
X7932286Y-18277714D01*
X7975143Y-18277714D01*
X8003714Y-18292000D01*
X8018000Y-18320572D01*
X8018000Y-18477714D01*
X8018000Y-18320572D02*
X8032286Y-18292000D01*
X8060857Y-18277714D01*
X8103714Y-18277714D01*
X8132286Y-18292000D01*
X8146571Y-18320572D01*
X8146571Y-18477714D01*
X8732286Y-18163429D02*
X8475143Y-18549143D01*
X9118000Y-18177714D02*
X9146571Y-18177714D01*
X9175143Y-18192000D01*
X9189428Y-18206286D01*
X9203714Y-18234857D01*
X9218000Y-18292000D01*
X9218000Y-18363429D01*
X9203714Y-18420572D01*
X9189428Y-18449143D01*
X9175143Y-18463429D01*
X9146571Y-18477714D01*
X9118000Y-18477714D01*
X9089428Y-18463429D01*
X9075143Y-18449143D01*
X9060857Y-18420572D01*
X9046571Y-18363429D01*
X9046571Y-18292000D01*
X9060857Y-18234857D01*
X9075143Y-18206286D01*
X9089428Y-18192000D01*
X9118000Y-18177714D01*
X9346571Y-18449143D02*
X9360857Y-18463429D01*
X9346571Y-18477714D01*
X9332286Y-18463429D01*
X9346571Y-18449143D01*
X9346571Y-18477714D01*
X9546571Y-18177714D02*
X9575143Y-18177714D01*
X9603714Y-18192000D01*
X9618000Y-18206286D01*
X9632286Y-18234857D01*
X9646571Y-18292000D01*
X9646571Y-18363429D01*
X9632286Y-18420572D01*
X9618000Y-18449143D01*
X9603714Y-18463429D01*
X9575143Y-18477714D01*
X9546571Y-18477714D01*
X9518000Y-18463429D01*
X9503714Y-18449143D01*
X9489428Y-18420572D01*
X9475143Y-18363429D01*
X9475143Y-18292000D01*
X9489428Y-18234857D01*
X9503714Y-18206286D01*
X9518000Y-18192000D01*
X9546571Y-18177714D01*
X9746571Y-18177714D02*
X9946571Y-18177714D01*
X9818000Y-18477714D01*
X10218000Y-18477714D02*
X10046571Y-18477714D01*
X10132286Y-18477714D02*
X10132286Y-18177714D01*
X10103714Y-18220572D01*
X10075143Y-18249143D01*
X10046571Y-18263429D01*
X10332286Y-18177714D02*
X10332286Y-18234857D01*
X10446571Y-18177714D02*
X10446571Y-18234857D01*
X10889428Y-18592000D02*
X10875143Y-18577714D01*
X10846571Y-18534857D01*
X10832286Y-18506286D01*
X10818000Y-18463429D01*
X10803714Y-18392000D01*
X10803714Y-18334857D01*
X10818000Y-18263429D01*
X10832286Y-18220572D01*
X10846571Y-18192000D01*
X10875143Y-18149143D01*
X10889428Y-18134857D01*
X11160857Y-18477714D02*
X10989428Y-18477714D01*
X11075143Y-18477714D02*
X11075143Y-18177714D01*
X11046571Y-18220572D01*
X11018000Y-18249143D01*
X10989428Y-18263429D01*
X11275143Y-18206286D02*
X11289428Y-18192000D01*
X11318000Y-18177714D01*
X11389428Y-18177714D01*
X11418000Y-18192000D01*
X11432285Y-18206286D01*
X11446571Y-18234857D01*
X11446571Y-18263429D01*
X11432285Y-18306286D01*
X11260857Y-18477714D01*
X11446571Y-18477714D01*
X11803714Y-18477714D02*
X11803714Y-18177714D01*
X11932285Y-18477714D02*
X11932285Y-18320572D01*
X11918000Y-18292000D01*
X11889428Y-18277714D01*
X11846571Y-18277714D01*
X11818000Y-18292000D01*
X11803714Y-18306286D01*
X12118000Y-18477714D02*
X12089428Y-18463429D01*
X12075143Y-18449143D01*
X12060857Y-18420572D01*
X12060857Y-18334857D01*
X12075143Y-18306286D01*
X12089428Y-18292000D01*
X12118000Y-18277714D01*
X12160857Y-18277714D01*
X12189428Y-18292000D01*
X12203714Y-18306286D01*
X12218000Y-18334857D01*
X12218000Y-18420572D01*
X12203714Y-18449143D01*
X12189428Y-18463429D01*
X12160857Y-18477714D01*
X12118000Y-18477714D01*
X12389428Y-18477714D02*
X12360857Y-18463429D01*
X12346571Y-18434857D01*
X12346571Y-18177714D01*
X12618000Y-18463429D02*
X12589428Y-18477714D01*
X12532286Y-18477714D01*
X12503714Y-18463429D01*
X12489428Y-18434857D01*
X12489428Y-18320572D01*
X12503714Y-18292000D01*
X12532286Y-18277714D01*
X12589428Y-18277714D01*
X12618000Y-18292000D01*
X12632286Y-18320572D01*
X12632286Y-18349143D01*
X12489428Y-18377714D01*
X12746571Y-18463429D02*
X12775143Y-18477714D01*
X12832286Y-18477714D01*
X12860857Y-18463429D01*
X12875143Y-18434857D01*
X12875143Y-18420572D01*
X12860857Y-18392000D01*
X12832286Y-18377714D01*
X12789428Y-18377714D01*
X12760857Y-18363429D01*
X12746571Y-18334857D01*
X12746571Y-18320572D01*
X12760857Y-18292000D01*
X12789428Y-18277714D01*
X12832286Y-18277714D01*
X12860857Y-18292000D01*
X12975143Y-18592000D02*
X12989428Y-18577714D01*
X13018000Y-18534857D01*
X13032286Y-18506286D01*
X13046571Y-18463429D01*
X13060857Y-18392000D01*
X13060857Y-18334857D01*
X13046571Y-18263429D01*
X13032286Y-18220572D01*
X13018000Y-18192000D01*
X12989428Y-18149143D01*
X12975143Y-18134857D01*
X6028000Y-18643000D02*
X6218000Y-18833000D01*
X6218000Y-18643000D02*
X6028000Y-18833000D01*
D12*
D13*
X6646571Y-18873714D02*
X6475143Y-18873714D01*
X6560857Y-18873714D02*
X6560857Y-18573714D01*
X6532286Y-18616572D01*
X6503714Y-18645143D01*
X6475143Y-18659429D01*
X6775143Y-18845143D02*
X6789428Y-18859429D01*
X6775143Y-18873714D01*
X6760857Y-18859429D01*
X6775143Y-18845143D01*
X6775143Y-18873714D01*
X6932286Y-18873714D02*
X6989428Y-18873714D01*
X7018000Y-18859429D01*
X7032286Y-18845143D01*
X7060857Y-18802286D01*
X7075143Y-18745143D01*
X7075143Y-18630857D01*
X7060857Y-18602286D01*
X7046571Y-18588000D01*
X7018000Y-18573714D01*
X6960857Y-18573714D01*
X6932286Y-18588000D01*
X6918000Y-18602286D01*
X6903714Y-18630857D01*
X6903714Y-18702286D01*
X6918000Y-18730857D01*
X6932286Y-18745143D01*
X6960857Y-18759429D01*
X7018000Y-18759429D01*
X7046571Y-18745143D01*
X7060857Y-18730857D01*
X7075143Y-18702286D01*
X7260857Y-18573714D02*
X7289428Y-18573714D01*
X7318000Y-18588000D01*
X7332286Y-18602286D01*
X7346571Y-18630857D01*
X7360857Y-18688000D01*
X7360857Y-18759429D01*
X7346571Y-18816572D01*
X7332286Y-18845143D01*
X7318000Y-18859429D01*
X7289428Y-18873714D01*
X7260857Y-18873714D01*
X7232286Y-18859429D01*
X7218000Y-18845143D01*
X7203714Y-18816572D01*
X7189428Y-18759429D01*
X7189428Y-18688000D01*
X7203714Y-18630857D01*
X7218000Y-18602286D01*
X7232286Y-18588000D01*
X7260857Y-18573714D01*
X7489428Y-18873714D02*
X7489428Y-18673714D01*
X7489428Y-18702286D02*
X7503714Y-18688000D01*
X7532286Y-18673714D01*
X7575143Y-18673714D01*
X7603714Y-18688000D01*
X7618000Y-18716572D01*
X7618000Y-18873714D01*
X7618000Y-18716572D02*
X7632286Y-18688000D01*
X7660857Y-18673714D01*
X7703714Y-18673714D01*
X7732286Y-18688000D01*
X7746571Y-18716572D01*
X7746571Y-18873714D01*
X7889428Y-18873714D02*
X7889428Y-18673714D01*
X7889428Y-18702286D02*
X7903714Y-18688000D01*
X7932286Y-18673714D01*
X7975143Y-18673714D01*
X8003714Y-18688000D01*
X8018000Y-18716572D01*
X8018000Y-18873714D01*
X8018000Y-18716572D02*
X8032286Y-18688000D01*
X8060857Y-18673714D01*
X8103714Y-18673714D01*
X8132286Y-18688000D01*
X8146571Y-18716572D01*
X8146571Y-18873714D01*
X8732286Y-18559429D02*
X8475143Y-18945143D01*
X9118000Y-18573714D02*
X9146571Y-18573714D01*
X9175143Y-18588000D01*
X9189428Y-18602286D01*
X9203714Y-18630857D01*
X9218000Y-18688000D01*
X9218000Y-18759429D01*
X9203714Y-18816572D01*
X9189428Y-18845143D01*
X9175143Y-18859429D01*
X9146571Y-18873714D01*
X9118000Y-18873714D01*
X9089428Y-18859429D01*
X9075143Y-18845143D01*
X9060857Y-18816572D01*
X9046571Y-18759429D01*
X9046571Y-18688000D01*
X9060857Y-18630857D01*
X9075143Y-18602286D01*
X9089428Y-18588000D01*
X9118000Y-18573714D01*
X9346571Y-18845143D02*
X9360857Y-18859429D01*
X9346571Y-18873714D01*
X9332286Y-18859429D01*
X9346571Y-18845143D01*
X9346571Y-18873714D01*
X9546571Y-18573714D02*
X9575143Y-18573714D01*
X9603714Y-18588000D01*
X9618000Y-18602286D01*
X9632286Y-18630857D01*
X9646571Y-18688000D01*
X9646571Y-18759429D01*
X9632286Y-18816572D01*
X9618000Y-18845143D01*
X9603714Y-18859429D01*
X9575143Y-18873714D01*
X9546571Y-18873714D01*
X9518000Y-18859429D01*
X9503714Y-18845143D01*
X9489428Y-18816572D01*
X9475143Y-18759429D01*
X9475143Y-18688000D01*
X9489428Y-18630857D01*
X9503714Y-18602286D01*
X9518000Y-18588000D01*
X9546571Y-18573714D01*
X9746571Y-18573714D02*
X9946571Y-18573714D01*
X9818000Y-18873714D01*
X10203714Y-18573714D02*
X10060857Y-18573714D01*
X10046571Y-18716572D01*
X10060857Y-18702286D01*
X10089428Y-18688000D01*
X10160857Y-18688000D01*
X10189428Y-18702286D01*
X10203714Y-18716572D01*
X10218000Y-18745143D01*
X10218000Y-18816572D01*
X10203714Y-18845143D01*
X10189428Y-18859429D01*
X10160857Y-18873714D01*
X10089428Y-18873714D01*
X10060857Y-18859429D01*
X10046571Y-18845143D01*
X10332286Y-18573714D02*
X10332286Y-18630857D01*
X10446571Y-18573714D02*
X10446571Y-18630857D01*
X10889428Y-18988000D02*
X10875143Y-18973714D01*
X10846571Y-18930857D01*
X10832286Y-18902286D01*
X10818000Y-18859429D01*
X10803714Y-18788000D01*
X10803714Y-18730857D01*
X10818000Y-18659429D01*
X10832286Y-18616572D01*
X10846571Y-18588000D01*
X10875143Y-18545143D01*
X10889428Y-18530857D01*
X11132286Y-18673714D02*
X11132286Y-18873714D01*
X11060857Y-18559429D02*
X10989428Y-18773714D01*
X11175143Y-18773714D01*
X11518000Y-18873714D02*
X11518000Y-18573714D01*
X11646571Y-18873714D02*
X11646571Y-18716572D01*
X11632285Y-18688000D01*
X11603714Y-18673714D01*
X11560857Y-18673714D01*
X11532285Y-18688000D01*
X11518000Y-18702286D01*
X11832285Y-18873714D02*
X11803714Y-18859429D01*
X11789428Y-18845143D01*
X11775143Y-18816572D01*
X11775143Y-18730857D01*
X11789428Y-18702286D01*
X11803714Y-18688000D01*
X11832285Y-18673714D01*
X11875143Y-18673714D01*
X11903714Y-18688000D01*
X11918000Y-18702286D01*
X11932285Y-18730857D01*
X11932285Y-18816572D01*
X11918000Y-18845143D01*
X11903714Y-18859429D01*
X11875143Y-18873714D01*
X11832285Y-18873714D01*
X12103714Y-18873714D02*
X12075143Y-18859429D01*
X12060857Y-18830857D01*
X12060857Y-18573714D01*
X12332286Y-18859429D02*
X12303714Y-18873714D01*
X12246571Y-18873714D01*
X12218000Y-18859429D01*
X12203714Y-18830857D01*
X12203714Y-18716572D01*
X12218000Y-18688000D01*
X12246571Y-18673714D01*
X12303714Y-18673714D01*
X12332286Y-18688000D01*
X12346571Y-18716572D01*
X12346571Y-18745143D01*
X12203714Y-18773714D01*
X12460857Y-18859429D02*
X12489428Y-18873714D01*
X12546571Y-18873714D01*
X12575143Y-18859429D01*
X12589428Y-18830857D01*
X12589428Y-18816572D01*
X12575143Y-18788000D01*
X12546571Y-18773714D01*
X12503714Y-18773714D01*
X12475143Y-18759429D01*
X12460857Y-18730857D01*
X12460857Y-18716572D01*
X12475143Y-18688000D01*
X12503714Y-18673714D01*
X12546571Y-18673714D01*
X12575143Y-18688000D01*
X12689428Y-18988000D02*
X12703714Y-18973714D01*
X12732286Y-18930857D01*
X12746571Y-18902286D01*
X12760857Y-18859429D01*
X12775143Y-18788000D01*
X12775143Y-18730857D01*
X12760857Y-18659429D01*
X12746571Y-18616572D01*
X12732286Y-18588000D01*
X12703714Y-18545143D01*
X12689428Y-18530857D01*
X6068013Y-18984013D02*
X6068013Y-19283987D01*
X5918026Y-19134000D02*
X6218000Y-19134000D01*
D12*
X6218000Y-19134000D02*
G75*
G03X6218000Y-19134000I-149987J0D01*
G74*
G01*
D13*
X6460857Y-18969714D02*
X6646571Y-18969714D01*
X6546571Y-19084000D01*
X6589428Y-19084000D01*
X6618000Y-19098286D01*
X6632286Y-19112572D01*
X6646571Y-19141143D01*
X6646571Y-19212572D01*
X6632286Y-19241143D01*
X6618000Y-19255429D01*
X6589428Y-19269714D01*
X6503714Y-19269714D01*
X6475143Y-19255429D01*
X6460857Y-19241143D01*
X6775143Y-19241143D02*
X6789428Y-19255429D01*
X6775143Y-19269714D01*
X6760857Y-19255429D01*
X6775143Y-19241143D01*
X6775143Y-19269714D01*
X6975143Y-18969714D02*
X7003714Y-18969714D01*
X7032286Y-18984000D01*
X7046571Y-18998286D01*
X7060857Y-19026857D01*
X7075143Y-19084000D01*
X7075143Y-19155429D01*
X7060857Y-19212572D01*
X7046571Y-19241143D01*
X7032286Y-19255429D01*
X7003714Y-19269714D01*
X6975143Y-19269714D01*
X6946571Y-19255429D01*
X6932286Y-19241143D01*
X6918000Y-19212572D01*
X6903714Y-19155429D01*
X6903714Y-19084000D01*
X6918000Y-19026857D01*
X6932286Y-18998286D01*
X6946571Y-18984000D01*
X6975143Y-18969714D01*
X7260857Y-18969714D02*
X7289428Y-18969714D01*
X7318000Y-18984000D01*
X7332286Y-18998286D01*
X7346571Y-19026857D01*
X7360857Y-19084000D01*
X7360857Y-19155429D01*
X7346571Y-19212572D01*
X7332286Y-19241143D01*
X7318000Y-19255429D01*
X7289428Y-19269714D01*
X7260857Y-19269714D01*
X7232286Y-19255429D01*
X7218000Y-19241143D01*
X7203714Y-19212572D01*
X7189428Y-19155429D01*
X7189428Y-19084000D01*
X7203714Y-19026857D01*
X7218000Y-18998286D01*
X7232286Y-18984000D01*
X7260857Y-18969714D01*
X7489428Y-19269714D02*
X7489428Y-19069714D01*
X7489428Y-19098286D02*
X7503714Y-19084000D01*
X7532286Y-19069714D01*
X7575143Y-19069714D01*
X7603714Y-19084000D01*
X7618000Y-19112572D01*
X7618000Y-19269714D01*
X7618000Y-19112572D02*
X7632286Y-19084000D01*
X7660857Y-19069714D01*
X7703714Y-19069714D01*
X7732286Y-19084000D01*
X7746571Y-19112572D01*
X7746571Y-19269714D01*
X7889428Y-19269714D02*
X7889428Y-19069714D01*
X7889428Y-19098286D02*
X7903714Y-19084000D01*
X7932286Y-19069714D01*
X7975143Y-19069714D01*
X8003714Y-19084000D01*
X8018000Y-19112572D01*
X8018000Y-19269714D01*
X8018000Y-19112572D02*
X8032286Y-19084000D01*
X8060857Y-19069714D01*
X8103714Y-19069714D01*
X8132286Y-19084000D01*
X8146571Y-19112572D01*
X8146571Y-19269714D01*
X8732286Y-18955429D02*
X8475143Y-19341143D01*
X9118000Y-18969714D02*
X9146571Y-18969714D01*
X9175143Y-18984000D01*
X9189428Y-18998286D01*
X9203714Y-19026857D01*
X9218000Y-19084000D01*
X9218000Y-19155429D01*
X9203714Y-19212572D01*
X9189428Y-19241143D01*
X9175143Y-19255429D01*
X9146571Y-19269714D01*
X9118000Y-19269714D01*
X9089428Y-19255429D01*
X9075143Y-19241143D01*
X9060857Y-19212572D01*
X9046571Y-19155429D01*
X9046571Y-19084000D01*
X9060857Y-19026857D01*
X9075143Y-18998286D01*
X9089428Y-18984000D01*
X9118000Y-18969714D01*
X9346571Y-19241143D02*
X9360857Y-19255429D01*
X9346571Y-19269714D01*
X9332286Y-19255429D01*
X9346571Y-19241143D01*
X9346571Y-19269714D01*
X9646571Y-19269714D02*
X9475143Y-19269714D01*
X9560857Y-19269714D02*
X9560857Y-18969714D01*
X9532286Y-19012572D01*
X9503714Y-19041143D01*
X9475143Y-19055429D01*
X9932286Y-19269714D02*
X9760857Y-19269714D01*
X9846571Y-19269714D02*
X9846571Y-18969714D01*
X9818000Y-19012572D01*
X9789428Y-19041143D01*
X9760857Y-19055429D01*
X10103714Y-19098286D02*
X10075143Y-19084000D01*
X10060857Y-19069714D01*
X10046571Y-19041143D01*
X10046571Y-19026857D01*
X10060857Y-18998286D01*
X10075143Y-18984000D01*
X10103714Y-18969714D01*
X10160857Y-18969714D01*
X10189428Y-18984000D01*
X10203714Y-18998286D01*
X10218000Y-19026857D01*
X10218000Y-19041143D01*
X10203714Y-19069714D01*
X10189428Y-19084000D01*
X10160857Y-19098286D01*
X10103714Y-19098286D01*
X10075143Y-19112572D01*
X10060857Y-19126857D01*
X10046571Y-19155429D01*
X10046571Y-19212572D01*
X10060857Y-19241143D01*
X10075143Y-19255429D01*
X10103714Y-19269714D01*
X10160857Y-19269714D01*
X10189428Y-19255429D01*
X10203714Y-19241143D01*
X10218000Y-19212572D01*
X10218000Y-19155429D01*
X10203714Y-19126857D01*
X10189428Y-19112572D01*
X10160857Y-19098286D01*
X10332286Y-18969714D02*
X10332286Y-19026857D01*
X10446571Y-18969714D02*
X10446571Y-19026857D01*
X10889428Y-19384000D02*
X10875143Y-19369714D01*
X10846571Y-19326857D01*
X10832286Y-19298286D01*
X10818000Y-19255429D01*
X10803714Y-19184000D01*
X10803714Y-19126857D01*
X10818000Y-19055429D01*
X10832286Y-19012572D01*
X10846571Y-18984000D01*
X10875143Y-18941143D01*
X10889428Y-18926857D01*
X11132286Y-19069714D02*
X11132286Y-19269714D01*
X11060857Y-18955429D02*
X10989428Y-19169714D01*
X11175143Y-19169714D01*
X11518000Y-19269714D02*
X11518000Y-18969714D01*
X11646571Y-19269714D02*
X11646571Y-19112572D01*
X11632285Y-19084000D01*
X11603714Y-19069714D01*
X11560857Y-19069714D01*
X11532285Y-19084000D01*
X11518000Y-19098286D01*
X11832285Y-19269714D02*
X11803714Y-19255429D01*
X11789428Y-19241143D01*
X11775143Y-19212572D01*
X11775143Y-19126857D01*
X11789428Y-19098286D01*
X11803714Y-19084000D01*
X11832285Y-19069714D01*
X11875143Y-19069714D01*
X11903714Y-19084000D01*
X11918000Y-19098286D01*
X11932285Y-19126857D01*
X11932285Y-19212572D01*
X11918000Y-19241143D01*
X11903714Y-19255429D01*
X11875143Y-19269714D01*
X11832285Y-19269714D01*
X12103714Y-19269714D02*
X12075143Y-19255429D01*
X12060857Y-19226857D01*
X12060857Y-18969714D01*
X12332286Y-19255429D02*
X12303714Y-19269714D01*
X12246571Y-19269714D01*
X12218000Y-19255429D01*
X12203714Y-19226857D01*
X12203714Y-19112572D01*
X12218000Y-19084000D01*
X12246571Y-19069714D01*
X12303714Y-19069714D01*
X12332286Y-19084000D01*
X12346571Y-19112572D01*
X12346571Y-19141143D01*
X12203714Y-19169714D01*
X12460857Y-19255429D02*
X12489428Y-19269714D01*
X12546571Y-19269714D01*
X12575143Y-19255429D01*
X12589428Y-19226857D01*
X12589428Y-19212572D01*
X12575143Y-19184000D01*
X12546571Y-19169714D01*
X12503714Y-19169714D01*
X12475143Y-19155429D01*
X12460857Y-19126857D01*
X12460857Y-19112572D01*
X12475143Y-19084000D01*
X12503714Y-19069714D01*
X12546571Y-19069714D01*
X12575143Y-19084000D01*
X12689428Y-19384000D02*
X12703714Y-19369714D01*
X12732286Y-19326857D01*
X12746571Y-19298286D01*
X12760857Y-19255429D01*
X12775143Y-19184000D01*
X12775143Y-19126857D01*
X12760857Y-19055429D01*
X12746571Y-19012572D01*
X12732286Y-18984000D01*
X12703714Y-18941143D01*
X12689428Y-18926857D01*
M02*
