M48
;DRILL file {pcbnew (2014-09-16 BZR 5139)-product} date 09/04/2015 15:48:25
;FORMAT={-:-/ absolute / metric / decimal}
FMAT,2
METRIC,TZ
T1C0.635
T2C0.800
T3C0.800
T4C0.813
T5C1.001
T6C1.016
T7C1.300
T8C1.800
T9C1.900
T10C3.000
%
G90
G05
M71
T1
X148.755Y-132.08
X203.2Y-139.573
T2
X99.06Y-81.915
X99.06Y-109.855
X99.06Y-137.795
X100.33Y-80.645
X100.33Y-108.585
X100.33Y-136.525
X101.6Y-81.915
X101.6Y-109.855
X101.6Y-137.795
X106.68Y-81.915
X106.68Y-109.855
X106.68Y-137.795
X107.95Y-80.645
X107.95Y-108.585
X107.95Y-136.525
X109.22Y-81.915
X109.22Y-109.855
X109.22Y-137.795
X119.38Y-79.375
X119.38Y-106.045
X119.38Y-128.905
X119.38Y-137.795
X120.65Y-78.105
X120.65Y-104.775
X120.65Y-127.635
X120.65Y-136.525
X121.92Y-79.375
X121.92Y-106.045
X121.92Y-128.905
X121.92Y-137.795
X179.07Y-91.44
X179.07Y-110.49
X179.07Y-129.54
T3
X88.9Y-60.96
X88.9Y-63.5
X109.093Y-103.632
X109.22Y-74.93
X109.22Y-130.81
X111.633Y-103.632
X111.76Y-74.93
X111.76Y-130.81
X138.43Y-72.39
X140.97Y-53.34
X140.97Y-55.88
X140.97Y-72.39
X146.149Y-55.88
X151.031Y-55.88
X156.21Y-53.34
X156.21Y-55.88
X171.45Y-68.58
X171.45Y-71.12
X179.07Y-88.94
X179.07Y-107.99
X179.07Y-127.04
X194.31Y-123.19
X196.85Y-123.19
X208.28Y-88.9
X208.28Y-91.44
T4
X77.47Y-60.96
X82.55Y-60.96
X135.89Y-77.47
X135.89Y-80.01
X135.89Y-82.55
X135.89Y-85.09
X135.89Y-87.63
X135.89Y-90.17
X135.89Y-92.71
X143.51Y-77.47
X143.51Y-80.01
X143.51Y-82.55
X143.51Y-85.09
X143.51Y-87.63
X143.51Y-90.17
X143.51Y-92.71
X148.59Y-62.23
X148.59Y-77.47
X151.13Y-62.23
X151.13Y-77.47
X151.13Y-86.36
X151.13Y-93.98
X151.13Y-105.41
X151.13Y-113.03
X151.13Y-124.46
X151.13Y-132.08
X153.67Y-62.23
X153.67Y-77.47
X153.67Y-86.36
X153.67Y-93.98
X153.67Y-105.41
X153.67Y-113.03
X153.67Y-124.46
X153.67Y-132.08
X156.21Y-62.23
X156.21Y-77.47
X156.21Y-86.36
X156.21Y-93.98
X156.21Y-105.41
X156.21Y-113.03
X156.21Y-124.46
X156.21Y-132.08
X158.75Y-62.23
X158.75Y-77.47
X158.75Y-86.36
X158.75Y-93.98
X158.75Y-105.41
X158.75Y-113.03
X158.75Y-124.46
X158.75Y-132.08
X161.29Y-62.23
X161.29Y-77.47
X161.29Y-86.36
X161.29Y-93.98
X161.29Y-105.41
X161.29Y-113.03
X161.29Y-124.46
X161.29Y-132.08
X163.83Y-62.23
X163.83Y-77.47
X163.83Y-86.36
X163.83Y-93.98
X163.83Y-105.41
X163.83Y-113.03
X163.83Y-124.46
X163.83Y-132.08
X166.37Y-62.23
X166.37Y-77.47
X166.37Y-86.36
X166.37Y-93.98
X166.37Y-105.41
X166.37Y-113.03
X166.37Y-124.46
X166.37Y-132.08
X168.91Y-62.23
X168.91Y-77.47
X168.91Y-86.36
X168.91Y-93.98
X168.91Y-105.41
X168.91Y-113.03
X168.91Y-124.46
X168.91Y-132.08
X171.45Y-62.23
X171.45Y-77.47
X171.45Y-86.36
X171.45Y-93.98
X171.45Y-105.41
X171.45Y-113.03
X171.45Y-124.46
X171.45Y-132.08
X173.99Y-62.23
X173.99Y-77.47
X173.99Y-86.36
X173.99Y-93.98
X173.99Y-105.41
X173.99Y-113.03
X173.99Y-124.46
X173.99Y-132.08
X176.53Y-62.23
X176.53Y-77.47
X179.07Y-62.23
X179.07Y-77.47
X181.61Y-62.23
X181.61Y-77.47
X184.15Y-62.23
X184.15Y-77.47
X186.69Y-62.23
X186.69Y-77.47
X187.96Y-86.36
X187.96Y-93.98
X187.96Y-100.33
X187.96Y-102.87
X187.96Y-105.41
X187.96Y-107.95
X187.96Y-110.49
X187.96Y-113.03
X187.96Y-115.57
X187.96Y-118.11
X187.96Y-120.65
X187.96Y-123.19
X187.96Y-125.73
X187.96Y-128.27
X187.96Y-130.81
X187.96Y-133.35
X189.23Y-62.23
X189.23Y-77.47
X190.5Y-86.36
X190.5Y-93.98
X191.77Y-62.23
X191.77Y-77.47
X193.04Y-86.36
X193.04Y-93.98
X194.31Y-62.23
X194.31Y-77.47
X195.58Y-86.36
X195.58Y-93.98
X196.85Y-62.23
X196.85Y-77.47
X198.12Y-86.36
X198.12Y-93.98
X200.66Y-86.36
X200.66Y-93.98
X203.2Y-86.36
X203.2Y-93.98
X203.2Y-100.33
X203.2Y-102.87
X203.2Y-105.41
X203.2Y-107.95
X203.2Y-110.49
X203.2Y-113.03
X203.2Y-115.57
X203.2Y-118.11
X203.2Y-120.65
X203.2Y-123.19
X203.2Y-125.73
X203.2Y-128.27
X203.2Y-130.81
X203.2Y-133.35
T5
X95.123Y-104.902
X95.25Y-73.66
X95.25Y-77.47
X95.25Y-101.6
X95.25Y-129.54
X95.25Y-133.35
X105.283Y-104.902
X105.41Y-73.66
X105.41Y-77.47
X105.41Y-101.6
X105.41Y-129.54
X105.41Y-133.35
X115.57Y-58.42
X115.57Y-62.23
X115.57Y-66.04
X115.57Y-69.85
X115.57Y-73.66
X115.57Y-86.36
X115.57Y-90.17
X115.57Y-93.98
X115.57Y-97.79
X115.57Y-101.6
X115.57Y-113.03
X115.57Y-116.84
X115.57Y-120.65
X115.57Y-124.46
X120.65Y-82.55
X120.65Y-109.22
X120.65Y-132.08
X125.73Y-58.42
X125.73Y-62.23
X125.73Y-66.04
X125.73Y-69.85
X125.73Y-73.66
X125.73Y-86.36
X125.73Y-90.17
X125.73Y-93.98
X125.73Y-97.79
X125.73Y-101.6
X125.73Y-113.03
X125.73Y-116.84
X125.73Y-120.65
X125.73Y-124.46
X130.81Y-82.55
X130.81Y-109.22
X130.81Y-132.08
T6
X73.66Y-60.96
X73.66Y-63.5
X73.66Y-66.04
X73.66Y-68.58
X133.35Y-63.881
X133.35Y-66.421
X133.35Y-68.961
X215.265Y-65.405
X215.265Y-67.945
X215.265Y-70.485
X215.265Y-73.025
X215.265Y-75.565
X215.265Y-78.105
X215.265Y-80.645
X215.265Y-83.185
X215.265Y-85.725
X215.265Y-88.265
X215.265Y-90.805
X215.265Y-93.345
X215.265Y-95.885
X215.265Y-98.425
X215.265Y-100.965
X215.265Y-103.505
X215.265Y-106.045
X215.265Y-108.585
X215.265Y-111.125
X215.265Y-113.665
X215.265Y-116.205
X215.265Y-118.745
X215.265Y-121.285
X215.265Y-123.825
X215.265Y-126.365
X217.805Y-65.405
X217.805Y-67.945
X217.805Y-70.485
X217.805Y-73.025
X217.805Y-75.565
X217.805Y-78.105
X217.805Y-80.645
X217.805Y-83.185
X217.805Y-85.725
X217.805Y-88.265
X217.805Y-90.805
X217.805Y-93.345
X217.805Y-95.885
X217.805Y-98.425
X217.805Y-100.965
X217.805Y-103.505
X217.805Y-106.045
X217.805Y-108.585
X217.805Y-111.125
X217.805Y-113.665
X217.805Y-116.205
X217.805Y-118.745
X217.805Y-121.285
X217.805Y-123.825
X217.805Y-126.365
T7
X95.25Y-58.42
X95.25Y-68.423
X95.25Y-86.36
X95.25Y-96.363
X95.25Y-114.3
X95.25Y-124.303
X110.251Y-63.421
X110.251Y-91.361
X110.251Y-119.301
T8
X68.834Y-78.74
X68.834Y-92.71
X68.834Y-106.68
X68.834Y-120.65
X77.724Y-73.66
X77.724Y-83.82
X77.724Y-87.63
X77.724Y-97.79
X77.724Y-101.6
X77.724Y-111.76
X77.724Y-115.57
X77.724Y-125.73
T9
X77.724Y-78.74
X77.724Y-92.71
X77.724Y-106.68
X77.724Y-120.65
T10
X68.58Y-52.832
X68.58Y-138.938
X215.646Y-52.578
X215.646Y-138.938
T0
M30
