%TF.FileFunction,Copper,L1,Top,Signal*%
%FSLAX46Y46*%
G04 Gerber Fmt 4.6, Leading zero omitted, Abs format (unit mm)*
G04 Created by KiCad (PCBNEW (2014-09-16 BZR 5139)-product) date 09/04/2015 16:11:59*
%MOMM*%
G01*
G04 APERTURE LIST*
%ADD10C,0.100000*%
%ADD11C,0.300000*%
%ADD12C,0.150000*%
%ADD13O,3.197860X2.100000*%
%ADD14O,2.100000X3.197860*%
%ADD15O,3.197860X2.200000*%
%ADD16R,1.574800X2.286000*%
%ADD17O,1.574800X2.286000*%
%ADD18C,1.998980*%
%ADD19R,2.286000X1.574800*%
%ADD20O,2.286000X1.574800*%
%ADD21R,1.727200X1.727200*%
%ADD22O,1.727200X1.727200*%
%ADD23C,1.501140*%
%ADD24R,2.032000X1.727200*%
%ADD25O,2.032000X1.727200*%
%ADD26C,1.400000*%
%ADD27R,1.905000X1.905000*%
%ADD28C,1.905000*%
%ADD29C,2.499360*%
%ADD30R,1.300000X1.300000*%
%ADD31C,1.300000*%
%ADD32O,3.197860X1.998980*%
%ADD33O,1.998980X3.197860*%
%ADD34C,0.889000*%
%ADD35C,0.635000*%
%ADD36C,0.254000*%
%ADD37C,1.000000*%
G04 APERTURE END LIST*
D10*
D11*
X79025714Y-51547143D02*
X79240000Y-51618571D01*
X79597143Y-51618571D01*
X79740000Y-51547143D01*
X79811429Y-51475714D01*
X79882857Y-51332857D01*
X79882857Y-51190000D01*
X79811429Y-51047143D01*
X79740000Y-50975714D01*
X79597143Y-50904286D01*
X79311429Y-50832857D01*
X79168571Y-50761429D01*
X79097143Y-50690000D01*
X79025714Y-50547143D01*
X79025714Y-50404286D01*
X79097143Y-50261429D01*
X79168571Y-50190000D01*
X79311429Y-50118571D01*
X79668571Y-50118571D01*
X79882857Y-50190000D01*
X80311428Y-50618571D02*
X80882857Y-50618571D01*
X80525714Y-50118571D02*
X80525714Y-51404286D01*
X80597142Y-51547143D01*
X80740000Y-51618571D01*
X80882857Y-51618571D01*
X81954285Y-51547143D02*
X81811428Y-51618571D01*
X81525714Y-51618571D01*
X81382857Y-51547143D01*
X81311428Y-51404286D01*
X81311428Y-50832857D01*
X81382857Y-50690000D01*
X81525714Y-50618571D01*
X81811428Y-50618571D01*
X81954285Y-50690000D01*
X82025714Y-50832857D01*
X82025714Y-50975714D01*
X81311428Y-51118571D01*
X83311428Y-51547143D02*
X83168571Y-51618571D01*
X82882857Y-51618571D01*
X82739999Y-51547143D01*
X82668571Y-51475714D01*
X82597142Y-51332857D01*
X82597142Y-50904286D01*
X82668571Y-50761429D01*
X82739999Y-50690000D01*
X82882857Y-50618571D01*
X83168571Y-50618571D01*
X83311428Y-50690000D01*
X83954285Y-51618571D02*
X83954285Y-50118571D01*
X84097142Y-51047143D02*
X84525713Y-51618571D01*
X84525713Y-50618571D02*
X83954285Y-51190000D01*
X85097142Y-51547143D02*
X85239999Y-51618571D01*
X85525714Y-51618571D01*
X85668571Y-51547143D01*
X85739999Y-51404286D01*
X85739999Y-51332857D01*
X85668571Y-51190000D01*
X85525714Y-51118571D01*
X85311428Y-51118571D01*
X85168571Y-51047143D01*
X85097142Y-50904286D01*
X85097142Y-50832857D01*
X85168571Y-50690000D01*
X85311428Y-50618571D01*
X85525714Y-50618571D01*
X85668571Y-50690000D01*
X87025714Y-51547143D02*
X86882857Y-51618571D01*
X86597143Y-51618571D01*
X86454285Y-51547143D01*
X86382857Y-51475714D01*
X86311428Y-51332857D01*
X86311428Y-50904286D01*
X86382857Y-50761429D01*
X86454285Y-50690000D01*
X86597143Y-50618571D01*
X86882857Y-50618571D01*
X87025714Y-50690000D01*
X87668571Y-51618571D02*
X87668571Y-50118571D01*
X88311428Y-51618571D02*
X88311428Y-50832857D01*
X88239999Y-50690000D01*
X88097142Y-50618571D01*
X87882857Y-50618571D01*
X87739999Y-50690000D01*
X87668571Y-50761429D01*
X88882857Y-50618571D02*
X89168571Y-51618571D01*
X89454285Y-50904286D01*
X89740000Y-51618571D01*
X90025714Y-50618571D01*
X91168571Y-51547143D02*
X91025714Y-51618571D01*
X90740000Y-51618571D01*
X90597143Y-51547143D01*
X90525714Y-51404286D01*
X90525714Y-50832857D01*
X90597143Y-50690000D01*
X90740000Y-50618571D01*
X91025714Y-50618571D01*
X91168571Y-50690000D01*
X91240000Y-50832857D01*
X91240000Y-50975714D01*
X90525714Y-51118571D01*
X91882857Y-51618571D02*
X91882857Y-50618571D01*
X91882857Y-50118571D02*
X91811428Y-50190000D01*
X91882857Y-50261429D01*
X91954285Y-50190000D01*
X91882857Y-50118571D01*
X91882857Y-50261429D01*
X92597143Y-50618571D02*
X92597143Y-51618571D01*
X92597143Y-50761429D02*
X92668571Y-50690000D01*
X92811429Y-50618571D01*
X93025714Y-50618571D01*
X93168571Y-50690000D01*
X93240000Y-50832857D01*
X93240000Y-51618571D01*
X94882857Y-50118571D02*
X95740000Y-50118571D01*
X95311429Y-51618571D02*
X95311429Y-50118571D01*
X96240000Y-51618571D02*
X96240000Y-50118571D01*
X96740000Y-51190000D01*
X97240000Y-50118571D01*
X97240000Y-51618571D01*
X97882857Y-51547143D02*
X98097143Y-51618571D01*
X98454286Y-51618571D01*
X98597143Y-51547143D01*
X98668572Y-51475714D01*
X98740000Y-51332857D01*
X98740000Y-51190000D01*
X98668572Y-51047143D01*
X98597143Y-50975714D01*
X98454286Y-50904286D01*
X98168572Y-50832857D01*
X98025714Y-50761429D01*
X97954286Y-50690000D01*
X97882857Y-50547143D01*
X97882857Y-50404286D01*
X97954286Y-50261429D01*
X98025714Y-50190000D01*
X98168572Y-50118571D01*
X98525714Y-50118571D01*
X98740000Y-50190000D01*
X99382857Y-51047143D02*
X100525714Y-51047143D01*
X101311428Y-51618571D02*
X101597143Y-51618571D01*
X101740000Y-51547143D01*
X101811428Y-51475714D01*
X101954286Y-51261429D01*
X102025714Y-50975714D01*
X102025714Y-50404286D01*
X101954286Y-50261429D01*
X101882857Y-50190000D01*
X101740000Y-50118571D01*
X101454286Y-50118571D01*
X101311428Y-50190000D01*
X101240000Y-50261429D01*
X101168571Y-50404286D01*
X101168571Y-50761429D01*
X101240000Y-50904286D01*
X101311428Y-50975714D01*
X101454286Y-51047143D01*
X101740000Y-51047143D01*
X101882857Y-50975714D01*
X101954286Y-50904286D01*
X102025714Y-50761429D01*
X102739999Y-51618571D02*
X103025714Y-51618571D01*
X103168571Y-51547143D01*
X103239999Y-51475714D01*
X103382857Y-51261429D01*
X103454285Y-50975714D01*
X103454285Y-50404286D01*
X103382857Y-50261429D01*
X103311428Y-50190000D01*
X103168571Y-50118571D01*
X102882857Y-50118571D01*
X102739999Y-50190000D01*
X102668571Y-50261429D01*
X102597142Y-50404286D01*
X102597142Y-50761429D01*
X102668571Y-50904286D01*
X102739999Y-50975714D01*
X102882857Y-51047143D01*
X103168571Y-51047143D01*
X103311428Y-50975714D01*
X103382857Y-50904286D01*
X103454285Y-50761429D01*
X104025713Y-50261429D02*
X104097142Y-50190000D01*
X104239999Y-50118571D01*
X104597142Y-50118571D01*
X104739999Y-50190000D01*
X104811428Y-50261429D01*
X104882856Y-50404286D01*
X104882856Y-50547143D01*
X104811428Y-50761429D01*
X103954285Y-51618571D01*
X104882856Y-51618571D01*
X105597141Y-51618571D02*
X105882856Y-51618571D01*
X106025713Y-51547143D01*
X106097141Y-51475714D01*
X106239999Y-51261429D01*
X106311427Y-50975714D01*
X106311427Y-50404286D01*
X106239999Y-50261429D01*
X106168570Y-50190000D01*
X106025713Y-50118571D01*
X105739999Y-50118571D01*
X105597141Y-50190000D01*
X105525713Y-50261429D01*
X105454284Y-50404286D01*
X105454284Y-50761429D01*
X105525713Y-50904286D01*
X105597141Y-50975714D01*
X105739999Y-51047143D01*
X106025713Y-51047143D01*
X106168570Y-50975714D01*
X106239999Y-50904286D01*
X106311427Y-50761429D01*
X108025712Y-50047143D02*
X106739998Y-51975714D01*
X108311427Y-50118571D02*
X108811427Y-51618571D01*
X109311427Y-50118571D01*
X109811427Y-51618571D02*
X109811427Y-50618571D01*
X109811427Y-50118571D02*
X109739998Y-50190000D01*
X109811427Y-50261429D01*
X109882855Y-50190000D01*
X109811427Y-50118571D01*
X109811427Y-50261429D01*
X111168570Y-51618571D02*
X111168570Y-50118571D01*
X111168570Y-51547143D02*
X111025713Y-51618571D01*
X110739999Y-51618571D01*
X110597141Y-51547143D01*
X110525713Y-51475714D01*
X110454284Y-51332857D01*
X110454284Y-50904286D01*
X110525713Y-50761429D01*
X110597141Y-50690000D01*
X110739999Y-50618571D01*
X111025713Y-50618571D01*
X111168570Y-50690000D01*
X112454284Y-51547143D02*
X112311427Y-51618571D01*
X112025713Y-51618571D01*
X111882856Y-51547143D01*
X111811427Y-51404286D01*
X111811427Y-50832857D01*
X111882856Y-50690000D01*
X112025713Y-50618571D01*
X112311427Y-50618571D01*
X112454284Y-50690000D01*
X112525713Y-50832857D01*
X112525713Y-50975714D01*
X111811427Y-51118571D01*
X113382856Y-51618571D02*
X113239998Y-51547143D01*
X113168570Y-51475714D01*
X113097141Y-51332857D01*
X113097141Y-50904286D01*
X113168570Y-50761429D01*
X113239998Y-50690000D01*
X113382856Y-50618571D01*
X113597141Y-50618571D01*
X113739998Y-50690000D01*
X113811427Y-50761429D01*
X113882856Y-50904286D01*
X113882856Y-51332857D01*
X113811427Y-51475714D01*
X113739998Y-51547143D01*
X113597141Y-51618571D01*
X113382856Y-51618571D01*
X116168570Y-50832857D02*
X116382856Y-50904286D01*
X116454284Y-50975714D01*
X116525713Y-51118571D01*
X116525713Y-51332857D01*
X116454284Y-51475714D01*
X116382856Y-51547143D01*
X116239998Y-51618571D01*
X115668570Y-51618571D01*
X115668570Y-50118571D01*
X116168570Y-50118571D01*
X116311427Y-50190000D01*
X116382856Y-50261429D01*
X116454284Y-50404286D01*
X116454284Y-50547143D01*
X116382856Y-50690000D01*
X116311427Y-50761429D01*
X116168570Y-50832857D01*
X115668570Y-50832857D01*
X117382856Y-51618571D02*
X117239998Y-51547143D01*
X117168570Y-51475714D01*
X117097141Y-51332857D01*
X117097141Y-50904286D01*
X117168570Y-50761429D01*
X117239998Y-50690000D01*
X117382856Y-50618571D01*
X117597141Y-50618571D01*
X117739998Y-50690000D01*
X117811427Y-50761429D01*
X117882856Y-50904286D01*
X117882856Y-51332857D01*
X117811427Y-51475714D01*
X117739998Y-51547143D01*
X117597141Y-51618571D01*
X117382856Y-51618571D01*
X119168570Y-51618571D02*
X119168570Y-50832857D01*
X119097141Y-50690000D01*
X118954284Y-50618571D01*
X118668570Y-50618571D01*
X118525713Y-50690000D01*
X119168570Y-51547143D02*
X119025713Y-51618571D01*
X118668570Y-51618571D01*
X118525713Y-51547143D01*
X118454284Y-51404286D01*
X118454284Y-51261429D01*
X118525713Y-51118571D01*
X118668570Y-51047143D01*
X119025713Y-51047143D01*
X119168570Y-50975714D01*
X119882856Y-51618571D02*
X119882856Y-50618571D01*
X119882856Y-50904286D02*
X119954284Y-50761429D01*
X120025713Y-50690000D01*
X120168570Y-50618571D01*
X120311427Y-50618571D01*
X121454284Y-51618571D02*
X121454284Y-50118571D01*
X121454284Y-51547143D02*
X121311427Y-51618571D01*
X121025713Y-51618571D01*
X120882855Y-51547143D01*
X120811427Y-51475714D01*
X120739998Y-51332857D01*
X120739998Y-50904286D01*
X120811427Y-50761429D01*
X120882855Y-50690000D01*
X121025713Y-50618571D01*
X121311427Y-50618571D01*
X121454284Y-50690000D01*
X123311427Y-51047143D02*
X124454284Y-51047143D01*
X126311427Y-51618571D02*
X126311427Y-50618571D01*
X126311427Y-50904286D02*
X126382855Y-50761429D01*
X126454284Y-50690000D01*
X126597141Y-50618571D01*
X126739998Y-50618571D01*
X127811426Y-51547143D02*
X127668569Y-51618571D01*
X127382855Y-51618571D01*
X127239998Y-51547143D01*
X127168569Y-51404286D01*
X127168569Y-50832857D01*
X127239998Y-50690000D01*
X127382855Y-50618571D01*
X127668569Y-50618571D01*
X127811426Y-50690000D01*
X127882855Y-50832857D01*
X127882855Y-50975714D01*
X127168569Y-51118571D01*
X128382855Y-50618571D02*
X128739998Y-51618571D01*
X129097140Y-50618571D01*
X130454283Y-51618571D02*
X129597140Y-51618571D01*
X130025712Y-51618571D02*
X130025712Y-50118571D01*
X129882855Y-50332857D01*
X129739997Y-50475714D01*
X129597140Y-50547143D01*
X131097140Y-51475714D02*
X131168568Y-51547143D01*
X131097140Y-51618571D01*
X131025711Y-51547143D01*
X131097140Y-51475714D01*
X131097140Y-51618571D01*
X132097140Y-50118571D02*
X132239997Y-50118571D01*
X132382854Y-50190000D01*
X132454283Y-50261429D01*
X132525712Y-50404286D01*
X132597140Y-50690000D01*
X132597140Y-51047143D01*
X132525712Y-51332857D01*
X132454283Y-51475714D01*
X132382854Y-51547143D01*
X132239997Y-51618571D01*
X132097140Y-51618571D01*
X131954283Y-51547143D01*
X131882854Y-51475714D01*
X131811426Y-51332857D01*
X131739997Y-51047143D01*
X131739997Y-50690000D01*
X131811426Y-50404286D01*
X131882854Y-50261429D01*
X131954283Y-50190000D01*
X132097140Y-50118571D01*
X79025714Y-52661429D02*
X79097143Y-52590000D01*
X79240000Y-52518571D01*
X79597143Y-52518571D01*
X79740000Y-52590000D01*
X79811429Y-52661429D01*
X79882857Y-52804286D01*
X79882857Y-52947143D01*
X79811429Y-53161429D01*
X78954286Y-54018571D01*
X79882857Y-54018571D01*
X80811428Y-52518571D02*
X80954285Y-52518571D01*
X81097142Y-52590000D01*
X81168571Y-52661429D01*
X81240000Y-52804286D01*
X81311428Y-53090000D01*
X81311428Y-53447143D01*
X81240000Y-53732857D01*
X81168571Y-53875714D01*
X81097142Y-53947143D01*
X80954285Y-54018571D01*
X80811428Y-54018571D01*
X80668571Y-53947143D01*
X80597142Y-53875714D01*
X80525714Y-53732857D01*
X80454285Y-53447143D01*
X80454285Y-53090000D01*
X80525714Y-52804286D01*
X80597142Y-52661429D01*
X80668571Y-52590000D01*
X80811428Y-52518571D01*
X82739999Y-54018571D02*
X81882856Y-54018571D01*
X82311428Y-54018571D02*
X82311428Y-52518571D01*
X82168571Y-52732857D01*
X82025713Y-52875714D01*
X81882856Y-52947143D01*
X84097142Y-52518571D02*
X83382856Y-52518571D01*
X83311427Y-53232857D01*
X83382856Y-53161429D01*
X83525713Y-53090000D01*
X83882856Y-53090000D01*
X84025713Y-53161429D01*
X84097142Y-53232857D01*
X84168570Y-53375714D01*
X84168570Y-53732857D01*
X84097142Y-53875714D01*
X84025713Y-53947143D01*
X83882856Y-54018571D01*
X83525713Y-54018571D01*
X83382856Y-53947143D01*
X83311427Y-53875714D01*
X85739998Y-52518571D02*
X86597141Y-52518571D01*
X86168570Y-54018571D02*
X86168570Y-52518571D01*
X87097141Y-54018571D02*
X87097141Y-52518571D01*
X87739998Y-54018571D02*
X87739998Y-53232857D01*
X87668569Y-53090000D01*
X87525712Y-53018571D01*
X87311427Y-53018571D01*
X87168569Y-53090000D01*
X87097141Y-53161429D01*
X88668570Y-54018571D02*
X88525712Y-53947143D01*
X88454284Y-53875714D01*
X88382855Y-53732857D01*
X88382855Y-53304286D01*
X88454284Y-53161429D01*
X88525712Y-53090000D01*
X88668570Y-53018571D01*
X88882855Y-53018571D01*
X89025712Y-53090000D01*
X89097141Y-53161429D01*
X89168570Y-53304286D01*
X89168570Y-53732857D01*
X89097141Y-53875714D01*
X89025712Y-53947143D01*
X88882855Y-54018571D01*
X88668570Y-54018571D01*
X89811427Y-54018571D02*
X89811427Y-53018571D01*
X89811427Y-53161429D02*
X89882855Y-53090000D01*
X90025713Y-53018571D01*
X90239998Y-53018571D01*
X90382855Y-53090000D01*
X90454284Y-53232857D01*
X90454284Y-54018571D01*
X90454284Y-53232857D02*
X90525713Y-53090000D01*
X90668570Y-53018571D01*
X90882855Y-53018571D01*
X91025713Y-53090000D01*
X91097141Y-53232857D01*
X91097141Y-54018571D01*
X92454284Y-54018571D02*
X92454284Y-53232857D01*
X92382855Y-53090000D01*
X92239998Y-53018571D01*
X91954284Y-53018571D01*
X91811427Y-53090000D01*
X92454284Y-53947143D02*
X92311427Y-54018571D01*
X91954284Y-54018571D01*
X91811427Y-53947143D01*
X91739998Y-53804286D01*
X91739998Y-53661429D01*
X91811427Y-53518571D01*
X91954284Y-53447143D01*
X92311427Y-53447143D01*
X92454284Y-53375714D01*
X93097141Y-53947143D02*
X93239998Y-54018571D01*
X93525713Y-54018571D01*
X93668570Y-53947143D01*
X93739998Y-53804286D01*
X93739998Y-53732857D01*
X93668570Y-53590000D01*
X93525713Y-53518571D01*
X93311427Y-53518571D01*
X93168570Y-53447143D01*
X93097141Y-53304286D01*
X93097141Y-53232857D01*
X93168570Y-53090000D01*
X93311427Y-53018571D01*
X93525713Y-53018571D01*
X93668570Y-53090000D01*
X95382856Y-52518571D02*
X95739999Y-54018571D01*
X96025713Y-52947143D01*
X96311427Y-54018571D01*
X96668570Y-52518571D01*
X97454285Y-54018571D02*
X97311427Y-53947143D01*
X97239999Y-53875714D01*
X97168570Y-53732857D01*
X97168570Y-53304286D01*
X97239999Y-53161429D01*
X97311427Y-53090000D01*
X97454285Y-53018571D01*
X97668570Y-53018571D01*
X97811427Y-53090000D01*
X97882856Y-53161429D01*
X97954285Y-53304286D01*
X97954285Y-53732857D01*
X97882856Y-53875714D01*
X97811427Y-53947143D01*
X97668570Y-54018571D01*
X97454285Y-54018571D01*
X98597142Y-54018571D02*
X98597142Y-53018571D01*
X98597142Y-52518571D02*
X98525713Y-52590000D01*
X98597142Y-52661429D01*
X98668570Y-52590000D01*
X98597142Y-52518571D01*
X98597142Y-52661429D01*
X99311428Y-53018571D02*
X99311428Y-54018571D01*
X99311428Y-53161429D02*
X99382856Y-53090000D01*
X99525714Y-53018571D01*
X99739999Y-53018571D01*
X99882856Y-53090000D01*
X99954285Y-53232857D01*
X99954285Y-54018571D01*
X100668571Y-54018571D02*
X100668571Y-52518571D01*
X100811428Y-53447143D02*
X101239999Y-54018571D01*
X101239999Y-53018571D02*
X100668571Y-53590000D01*
X102454285Y-53947143D02*
X102311428Y-54018571D01*
X102025714Y-54018571D01*
X101882857Y-53947143D01*
X101811428Y-53804286D01*
X101811428Y-53232857D01*
X101882857Y-53090000D01*
X102025714Y-53018571D01*
X102311428Y-53018571D01*
X102454285Y-53090000D01*
X102525714Y-53232857D01*
X102525714Y-53375714D01*
X101811428Y-53518571D01*
X105382856Y-52447143D02*
X104097142Y-54375714D01*
X107025714Y-54018571D02*
X107025714Y-52518571D01*
X107525714Y-53590000D01*
X108025714Y-52518571D01*
X108025714Y-54018571D01*
X109382857Y-54018571D02*
X109382857Y-53232857D01*
X109311428Y-53090000D01*
X109168571Y-53018571D01*
X108882857Y-53018571D01*
X108740000Y-53090000D01*
X109382857Y-53947143D02*
X109240000Y-54018571D01*
X108882857Y-54018571D01*
X108740000Y-53947143D01*
X108668571Y-53804286D01*
X108668571Y-53661429D01*
X108740000Y-53518571D01*
X108882857Y-53447143D01*
X109240000Y-53447143D01*
X109382857Y-53375714D01*
X110097143Y-54018571D02*
X110097143Y-53018571D01*
X110097143Y-53304286D02*
X110168571Y-53161429D01*
X110240000Y-53090000D01*
X110382857Y-53018571D01*
X110525714Y-53018571D01*
X111025714Y-54018571D02*
X111025714Y-52518571D01*
X111168571Y-53447143D02*
X111597142Y-54018571D01*
X111597142Y-53018571D02*
X111025714Y-53590000D01*
X112454286Y-54018571D02*
X112311428Y-53947143D01*
X112240000Y-53875714D01*
X112168571Y-53732857D01*
X112168571Y-53304286D01*
X112240000Y-53161429D01*
X112311428Y-53090000D01*
X112454286Y-53018571D01*
X112668571Y-53018571D01*
X112811428Y-53090000D01*
X112882857Y-53161429D01*
X112954286Y-53304286D01*
X112954286Y-53732857D01*
X112882857Y-53875714D01*
X112811428Y-53947143D01*
X112668571Y-54018571D01*
X112454286Y-54018571D01*
X115454286Y-54018571D02*
X114740000Y-54018571D01*
X114740000Y-52518571D01*
X116597143Y-54018571D02*
X116597143Y-53232857D01*
X116525714Y-53090000D01*
X116382857Y-53018571D01*
X116097143Y-53018571D01*
X115954286Y-53090000D01*
X116597143Y-53947143D02*
X116454286Y-54018571D01*
X116097143Y-54018571D01*
X115954286Y-53947143D01*
X115882857Y-53804286D01*
X115882857Y-53661429D01*
X115954286Y-53518571D01*
X116097143Y-53447143D01*
X116454286Y-53447143D01*
X116597143Y-53375714D01*
X117954286Y-53018571D02*
X117954286Y-54018571D01*
X117311429Y-53018571D02*
X117311429Y-53804286D01*
X117382857Y-53947143D01*
X117525715Y-54018571D01*
X117740000Y-54018571D01*
X117882857Y-53947143D01*
X117954286Y-53875714D01*
X118668572Y-54018571D02*
X118668572Y-52518571D01*
X118811429Y-53447143D02*
X119240000Y-54018571D01*
X119240000Y-53018571D02*
X118668572Y-53590000D01*
X120454286Y-53947143D02*
X120311429Y-54018571D01*
X120025715Y-54018571D01*
X119882858Y-53947143D01*
X119811429Y-53804286D01*
X119811429Y-53232857D01*
X119882858Y-53090000D01*
X120025715Y-53018571D01*
X120311429Y-53018571D01*
X120454286Y-53090000D01*
X120525715Y-53232857D01*
X120525715Y-53375714D01*
X119811429Y-53518571D01*
X79097143Y-56418571D02*
X79097143Y-54918571D01*
X79740000Y-56418571D02*
X79740000Y-55632857D01*
X79668571Y-55490000D01*
X79525714Y-55418571D01*
X79311429Y-55418571D01*
X79168571Y-55490000D01*
X79097143Y-55561429D01*
X80240000Y-55418571D02*
X80811429Y-55418571D01*
X80454286Y-54918571D02*
X80454286Y-56204286D01*
X80525714Y-56347143D01*
X80668572Y-56418571D01*
X80811429Y-56418571D01*
X81097143Y-55418571D02*
X81668572Y-55418571D01*
X81311429Y-54918571D02*
X81311429Y-56204286D01*
X81382857Y-56347143D01*
X81525715Y-56418571D01*
X81668572Y-56418571D01*
X82168572Y-55418571D02*
X82168572Y-56918571D01*
X82168572Y-55490000D02*
X82311429Y-55418571D01*
X82597143Y-55418571D01*
X82740000Y-55490000D01*
X82811429Y-55561429D01*
X82882858Y-55704286D01*
X82882858Y-56132857D01*
X82811429Y-56275714D01*
X82740000Y-56347143D01*
X82597143Y-56418571D01*
X82311429Y-56418571D01*
X82168572Y-56347143D01*
X83525715Y-56275714D02*
X83597143Y-56347143D01*
X83525715Y-56418571D01*
X83454286Y-56347143D01*
X83525715Y-56275714D01*
X83525715Y-56418571D01*
X83525715Y-55490000D02*
X83597143Y-55561429D01*
X83525715Y-55632857D01*
X83454286Y-55561429D01*
X83525715Y-55490000D01*
X83525715Y-55632857D01*
X85311429Y-54847143D02*
X84025715Y-56775714D01*
X86882858Y-54847143D02*
X85597144Y-56775714D01*
X87240002Y-55418571D02*
X87525716Y-56418571D01*
X87811430Y-55704286D01*
X88097145Y-56418571D01*
X88382859Y-55418571D01*
X88811431Y-55418571D02*
X89097145Y-56418571D01*
X89382859Y-55704286D01*
X89668574Y-56418571D01*
X89954288Y-55418571D01*
X90382860Y-55418571D02*
X90668574Y-56418571D01*
X90954288Y-55704286D01*
X91240003Y-56418571D01*
X91525717Y-55418571D01*
X92097146Y-56275714D02*
X92168574Y-56347143D01*
X92097146Y-56418571D01*
X92025717Y-56347143D01*
X92097146Y-56275714D01*
X92097146Y-56418571D01*
X92740003Y-56347143D02*
X92882860Y-56418571D01*
X93168575Y-56418571D01*
X93311432Y-56347143D01*
X93382860Y-56204286D01*
X93382860Y-56132857D01*
X93311432Y-55990000D01*
X93168575Y-55918571D01*
X92954289Y-55918571D01*
X92811432Y-55847143D01*
X92740003Y-55704286D01*
X92740003Y-55632857D01*
X92811432Y-55490000D01*
X92954289Y-55418571D01*
X93168575Y-55418571D01*
X93311432Y-55490000D01*
X93811432Y-55418571D02*
X94382861Y-55418571D01*
X94025718Y-54918571D02*
X94025718Y-56204286D01*
X94097146Y-56347143D01*
X94240004Y-56418571D01*
X94382861Y-56418571D01*
X95454289Y-56347143D02*
X95311432Y-56418571D01*
X95025718Y-56418571D01*
X94882861Y-56347143D01*
X94811432Y-56204286D01*
X94811432Y-55632857D01*
X94882861Y-55490000D01*
X95025718Y-55418571D01*
X95311432Y-55418571D01*
X95454289Y-55490000D01*
X95525718Y-55632857D01*
X95525718Y-55775714D01*
X94811432Y-55918571D01*
X96811432Y-56347143D02*
X96668575Y-56418571D01*
X96382861Y-56418571D01*
X96240003Y-56347143D01*
X96168575Y-56275714D01*
X96097146Y-56132857D01*
X96097146Y-55704286D01*
X96168575Y-55561429D01*
X96240003Y-55490000D01*
X96382861Y-55418571D01*
X96668575Y-55418571D01*
X96811432Y-55490000D01*
X97454289Y-56418571D02*
X97454289Y-54918571D01*
X97597146Y-55847143D02*
X98025717Y-56418571D01*
X98025717Y-55418571D02*
X97454289Y-55990000D01*
X98597146Y-56347143D02*
X98740003Y-56418571D01*
X99025718Y-56418571D01*
X99168575Y-56347143D01*
X99240003Y-56204286D01*
X99240003Y-56132857D01*
X99168575Y-55990000D01*
X99025718Y-55918571D01*
X98811432Y-55918571D01*
X98668575Y-55847143D01*
X98597146Y-55704286D01*
X98597146Y-55632857D01*
X98668575Y-55490000D01*
X98811432Y-55418571D01*
X99025718Y-55418571D01*
X99168575Y-55490000D01*
X100525718Y-56347143D02*
X100382861Y-56418571D01*
X100097147Y-56418571D01*
X99954289Y-56347143D01*
X99882861Y-56275714D01*
X99811432Y-56132857D01*
X99811432Y-55704286D01*
X99882861Y-55561429D01*
X99954289Y-55490000D01*
X100097147Y-55418571D01*
X100382861Y-55418571D01*
X100525718Y-55490000D01*
X101168575Y-56418571D02*
X101168575Y-54918571D01*
X101811432Y-56418571D02*
X101811432Y-55632857D01*
X101740003Y-55490000D01*
X101597146Y-55418571D01*
X101382861Y-55418571D01*
X101240003Y-55490000D01*
X101168575Y-55561429D01*
X102382861Y-55418571D02*
X102668575Y-56418571D01*
X102954289Y-55704286D01*
X103240004Y-56418571D01*
X103525718Y-55418571D01*
X104668575Y-56347143D02*
X104525718Y-56418571D01*
X104240004Y-56418571D01*
X104097147Y-56347143D01*
X104025718Y-56204286D01*
X104025718Y-55632857D01*
X104097147Y-55490000D01*
X104240004Y-55418571D01*
X104525718Y-55418571D01*
X104668575Y-55490000D01*
X104740004Y-55632857D01*
X104740004Y-55775714D01*
X104025718Y-55918571D01*
X105382861Y-56418571D02*
X105382861Y-55418571D01*
X105382861Y-54918571D02*
X105311432Y-54990000D01*
X105382861Y-55061429D01*
X105454289Y-54990000D01*
X105382861Y-54918571D01*
X105382861Y-55061429D01*
X106097147Y-55418571D02*
X106097147Y-56418571D01*
X106097147Y-55561429D02*
X106168575Y-55490000D01*
X106311433Y-55418571D01*
X106525718Y-55418571D01*
X106668575Y-55490000D01*
X106740004Y-55632857D01*
X106740004Y-56418571D01*
X107454290Y-56275714D02*
X107525718Y-56347143D01*
X107454290Y-56418571D01*
X107382861Y-56347143D01*
X107454290Y-56275714D01*
X107454290Y-56418571D01*
X108811433Y-56418571D02*
X108811433Y-54918571D01*
X108811433Y-56347143D02*
X108668576Y-56418571D01*
X108382862Y-56418571D01*
X108240004Y-56347143D01*
X108168576Y-56275714D01*
X108097147Y-56132857D01*
X108097147Y-55704286D01*
X108168576Y-55561429D01*
X108240004Y-55490000D01*
X108382862Y-55418571D01*
X108668576Y-55418571D01*
X108811433Y-55490000D01*
X110097147Y-56347143D02*
X109954290Y-56418571D01*
X109668576Y-56418571D01*
X109525719Y-56347143D01*
X109454290Y-56204286D01*
X109454290Y-55632857D01*
X109525719Y-55490000D01*
X109668576Y-55418571D01*
X109954290Y-55418571D01*
X110097147Y-55490000D01*
X110168576Y-55632857D01*
X110168576Y-55775714D01*
X109454290Y-55918571D01*
X111882861Y-54847143D02*
X110597147Y-56775714D01*
X184821429Y-51248571D02*
X185678572Y-51248571D01*
X185250001Y-52748571D02*
X185250001Y-51248571D01*
X186392858Y-52748571D02*
X186250000Y-52677143D01*
X186178572Y-52605714D01*
X186107143Y-52462857D01*
X186107143Y-52034286D01*
X186178572Y-51891429D01*
X186250000Y-51820000D01*
X186392858Y-51748571D01*
X186607143Y-51748571D01*
X186750000Y-51820000D01*
X186821429Y-51891429D01*
X186892858Y-52034286D01*
X186892858Y-52462857D01*
X186821429Y-52605714D01*
X186750000Y-52677143D01*
X186607143Y-52748571D01*
X186392858Y-52748571D01*
X187535715Y-51748571D02*
X187535715Y-53248571D01*
X187535715Y-51820000D02*
X187678572Y-51748571D01*
X187964286Y-51748571D01*
X188107143Y-51820000D01*
X188178572Y-51891429D01*
X188250001Y-52034286D01*
X188250001Y-52462857D01*
X188178572Y-52605714D01*
X188107143Y-52677143D01*
X187964286Y-52748571D01*
X187678572Y-52748571D01*
X187535715Y-52677143D01*
X188892858Y-52177143D02*
X190035715Y-52177143D01*
X191464287Y-52748571D02*
X190750001Y-52748571D01*
X190750001Y-51248571D01*
X192607144Y-52748571D02*
X192607144Y-51962857D01*
X192535715Y-51820000D01*
X192392858Y-51748571D01*
X192107144Y-51748571D01*
X191964287Y-51820000D01*
X192607144Y-52677143D02*
X192464287Y-52748571D01*
X192107144Y-52748571D01*
X191964287Y-52677143D01*
X191892858Y-52534286D01*
X191892858Y-52391429D01*
X191964287Y-52248571D01*
X192107144Y-52177143D01*
X192464287Y-52177143D01*
X192607144Y-52105714D01*
X193178573Y-51748571D02*
X193535716Y-52748571D01*
X193892858Y-51748571D02*
X193535716Y-52748571D01*
X193392858Y-53105714D01*
X193321430Y-53177143D01*
X193178573Y-53248571D01*
X195035715Y-52677143D02*
X194892858Y-52748571D01*
X194607144Y-52748571D01*
X194464287Y-52677143D01*
X194392858Y-52534286D01*
X194392858Y-51962857D01*
X194464287Y-51820000D01*
X194607144Y-51748571D01*
X194892858Y-51748571D01*
X195035715Y-51820000D01*
X195107144Y-51962857D01*
X195107144Y-52105714D01*
X194392858Y-52248571D01*
X195750001Y-52748571D02*
X195750001Y-51748571D01*
X195750001Y-52034286D02*
X195821429Y-51891429D01*
X195892858Y-51820000D01*
X196035715Y-51748571D01*
X196178572Y-51748571D01*
X155611429Y-138878571D02*
X156468572Y-138878571D01*
X156040001Y-140378571D02*
X156040001Y-138878571D01*
X157182858Y-140378571D02*
X157040000Y-140307143D01*
X156968572Y-140235714D01*
X156897143Y-140092857D01*
X156897143Y-139664286D01*
X156968572Y-139521429D01*
X157040000Y-139450000D01*
X157182858Y-139378571D01*
X157397143Y-139378571D01*
X157540000Y-139450000D01*
X157611429Y-139521429D01*
X157682858Y-139664286D01*
X157682858Y-140092857D01*
X157611429Y-140235714D01*
X157540000Y-140307143D01*
X157397143Y-140378571D01*
X157182858Y-140378571D01*
X158325715Y-139378571D02*
X158325715Y-140878571D01*
X158325715Y-139450000D02*
X158468572Y-139378571D01*
X158754286Y-139378571D01*
X158897143Y-139450000D01*
X158968572Y-139521429D01*
X159040001Y-139664286D01*
X159040001Y-140092857D01*
X158968572Y-140235714D01*
X158897143Y-140307143D01*
X158754286Y-140378571D01*
X158468572Y-140378571D01*
X158325715Y-140307143D01*
X159682858Y-139807143D02*
X160825715Y-139807143D01*
X162254287Y-140378571D02*
X161540001Y-140378571D01*
X161540001Y-138878571D01*
X163397144Y-140378571D02*
X163397144Y-139592857D01*
X163325715Y-139450000D01*
X163182858Y-139378571D01*
X162897144Y-139378571D01*
X162754287Y-139450000D01*
X163397144Y-140307143D02*
X163254287Y-140378571D01*
X162897144Y-140378571D01*
X162754287Y-140307143D01*
X162682858Y-140164286D01*
X162682858Y-140021429D01*
X162754287Y-139878571D01*
X162897144Y-139807143D01*
X163254287Y-139807143D01*
X163397144Y-139735714D01*
X163968573Y-139378571D02*
X164325716Y-140378571D01*
X164682858Y-139378571D02*
X164325716Y-140378571D01*
X164182858Y-140735714D01*
X164111430Y-140807143D01*
X163968573Y-140878571D01*
X165825715Y-140307143D02*
X165682858Y-140378571D01*
X165397144Y-140378571D01*
X165254287Y-140307143D01*
X165182858Y-140164286D01*
X165182858Y-139592857D01*
X165254287Y-139450000D01*
X165397144Y-139378571D01*
X165682858Y-139378571D01*
X165825715Y-139450000D01*
X165897144Y-139592857D01*
X165897144Y-139735714D01*
X165182858Y-139878571D01*
X166540001Y-140378571D02*
X166540001Y-139378571D01*
X166540001Y-139664286D02*
X166611429Y-139521429D01*
X166682858Y-139450000D01*
X166825715Y-139378571D01*
X166968572Y-139378571D01*
D12*
X90599260Y-61229240D02*
X90599260Y-61729620D01*
X90599260Y-61229240D02*
X91099640Y-61229240D01*
X90599260Y-60728860D02*
X90599260Y-61229240D01*
X90599260Y-61229240D02*
X90200480Y-61229240D01*
X90200480Y-61229240D02*
X90098880Y-61229240D01*
X109489240Y-129110740D02*
X109989620Y-129110740D01*
X109489240Y-129110740D02*
X109489240Y-128610360D01*
X108988860Y-129110740D02*
X109489240Y-129110740D01*
X109489240Y-129110740D02*
X109489240Y-129509520D01*
X109489240Y-129509520D02*
X109489240Y-129611120D01*
X109362240Y-101932740D02*
X109862620Y-101932740D01*
X109362240Y-101932740D02*
X109362240Y-101432360D01*
X108861860Y-101932740D02*
X109362240Y-101932740D01*
X109362240Y-101932740D02*
X109362240Y-102331520D01*
X109362240Y-102331520D02*
X109362240Y-102433120D01*
X109489240Y-73230740D02*
X109989620Y-73230740D01*
X109489240Y-73230740D02*
X109489240Y-72730360D01*
X108988860Y-73230740D02*
X109489240Y-73230740D01*
X109489240Y-73230740D02*
X109489240Y-73629520D01*
X109489240Y-73629520D02*
X109489240Y-73731120D01*
D13*
X77724000Y-83820000D03*
D14*
X68834000Y-78740000D03*
D13*
X77724000Y-73660000D03*
D15*
X77724000Y-78740000D03*
D16*
X173990000Y-124460000D03*
D17*
X171450000Y-124460000D03*
X168910000Y-124460000D03*
X166370000Y-124460000D03*
X163830000Y-124460000D03*
X161290000Y-124460000D03*
X158750000Y-124460000D03*
X156210000Y-124460000D03*
X153670000Y-124460000D03*
X151130000Y-124460000D03*
X151130000Y-132080000D03*
X153670000Y-132080000D03*
X156210000Y-132080000D03*
X158750000Y-132080000D03*
X161290000Y-132080000D03*
X163830000Y-132080000D03*
X166370000Y-132080000D03*
X168910000Y-132080000D03*
X171450000Y-132080000D03*
X173990000Y-132080000D03*
D18*
X115570000Y-69850000D03*
X125730000Y-69850000D03*
D16*
X148590000Y-77470000D03*
D17*
X151130000Y-77470000D03*
X153670000Y-77470000D03*
X156210000Y-77470000D03*
X158750000Y-77470000D03*
X161290000Y-77470000D03*
X163830000Y-77470000D03*
X166370000Y-77470000D03*
X168910000Y-77470000D03*
X171450000Y-77470000D03*
X173990000Y-77470000D03*
X176530000Y-77470000D03*
X179070000Y-77470000D03*
X181610000Y-77470000D03*
X184150000Y-77470000D03*
X186690000Y-77470000D03*
X189230000Y-77470000D03*
X191770000Y-77470000D03*
X194310000Y-77470000D03*
X196850000Y-77470000D03*
X196850000Y-62230000D03*
X194310000Y-62230000D03*
X191770000Y-62230000D03*
X189230000Y-62230000D03*
X186690000Y-62230000D03*
X184150000Y-62230000D03*
X181610000Y-62230000D03*
X179070000Y-62230000D03*
X176530000Y-62230000D03*
X173990000Y-62230000D03*
X171450000Y-62230000D03*
X168910000Y-62230000D03*
X166370000Y-62230000D03*
X163830000Y-62230000D03*
X161290000Y-62230000D03*
X158750000Y-62230000D03*
X156210000Y-62230000D03*
X153670000Y-62230000D03*
X151130000Y-62230000D03*
X148590000Y-62230000D03*
D19*
X203200000Y-133350000D03*
D20*
X203200000Y-130810000D03*
X203200000Y-128270000D03*
X203200000Y-125730000D03*
X203200000Y-123190000D03*
X203200000Y-120650000D03*
X203200000Y-118110000D03*
X203200000Y-115570000D03*
X203200000Y-113030000D03*
X203200000Y-110490000D03*
X203200000Y-107950000D03*
X203200000Y-105410000D03*
X203200000Y-102870000D03*
X203200000Y-100330000D03*
X187960000Y-100330000D03*
X187960000Y-102870000D03*
X187960000Y-105410000D03*
X187960000Y-107950000D03*
X187960000Y-110490000D03*
X187960000Y-113030000D03*
X187960000Y-115570000D03*
X187960000Y-118110000D03*
X187960000Y-120650000D03*
X187960000Y-123190000D03*
X187960000Y-125730000D03*
X187960000Y-128270000D03*
X187960000Y-130810000D03*
X187960000Y-133350000D03*
D19*
X135890000Y-77470000D03*
D20*
X135890000Y-80010000D03*
X135890000Y-82550000D03*
X135890000Y-85090000D03*
X135890000Y-87630000D03*
X135890000Y-90170000D03*
X135890000Y-92710000D03*
X143510000Y-92710000D03*
X143510000Y-90170000D03*
X143510000Y-87630000D03*
X143510000Y-85090000D03*
X143510000Y-82550000D03*
X143510000Y-80010000D03*
X143510000Y-77470000D03*
D21*
X215265000Y-65405000D03*
D22*
X217805000Y-65405000D03*
X215265000Y-67945000D03*
X217805000Y-67945000D03*
X215265000Y-70485000D03*
X217805000Y-70485000D03*
X215265000Y-73025000D03*
X217805000Y-73025000D03*
X215265000Y-75565000D03*
X217805000Y-75565000D03*
X215265000Y-78105000D03*
X217805000Y-78105000D03*
X215265000Y-80645000D03*
X217805000Y-80645000D03*
X215265000Y-83185000D03*
X217805000Y-83185000D03*
X215265000Y-85725000D03*
X217805000Y-85725000D03*
X215265000Y-88265000D03*
X217805000Y-88265000D03*
X215265000Y-90805000D03*
X217805000Y-90805000D03*
X215265000Y-93345000D03*
X217805000Y-93345000D03*
X215265000Y-95885000D03*
X217805000Y-95885000D03*
X215265000Y-98425000D03*
X217805000Y-98425000D03*
X215265000Y-100965000D03*
X217805000Y-100965000D03*
X215265000Y-103505000D03*
X217805000Y-103505000D03*
X215265000Y-106045000D03*
X217805000Y-106045000D03*
X215265000Y-108585000D03*
X217805000Y-108585000D03*
X215265000Y-111125000D03*
X217805000Y-111125000D03*
X215265000Y-113665000D03*
X217805000Y-113665000D03*
X215265000Y-116205000D03*
X217805000Y-116205000D03*
X215265000Y-118745000D03*
X217805000Y-118745000D03*
X215265000Y-121285000D03*
X217805000Y-121285000D03*
X215265000Y-123825000D03*
X217805000Y-123825000D03*
X215265000Y-126365000D03*
X217805000Y-126365000D03*
D23*
X156210000Y-53340000D03*
X156210000Y-55880000D03*
X140970000Y-53340000D03*
X140970000Y-55880000D03*
X171450000Y-68580000D03*
X171450000Y-71120000D03*
X194310000Y-123190000D03*
X196850000Y-123190000D03*
X140970000Y-72390000D03*
X138430000Y-72390000D03*
X208280000Y-91440000D03*
X208280000Y-88900000D03*
X88900000Y-63500000D03*
X88900000Y-60960000D03*
X111760000Y-130810000D03*
X109220000Y-130810000D03*
X111633000Y-103632000D03*
X109093000Y-103632000D03*
X111760000Y-74930000D03*
X109220000Y-74930000D03*
D18*
X120650000Y-132080000D03*
X130810000Y-132080000D03*
X120650000Y-109220000D03*
X130810000Y-109220000D03*
X120650000Y-82550000D03*
X130810000Y-82550000D03*
X115570000Y-124460000D03*
X125730000Y-124460000D03*
X115570000Y-101600000D03*
X125730000Y-101600000D03*
X115570000Y-73660000D03*
X125730000Y-73660000D03*
X115570000Y-97790000D03*
X125730000Y-97790000D03*
X115570000Y-120650000D03*
X125730000Y-120650000D03*
X125730000Y-113030000D03*
X115570000Y-113030000D03*
X115570000Y-90170000D03*
X125730000Y-90170000D03*
X115570000Y-93980000D03*
X125730000Y-93980000D03*
X115570000Y-62230000D03*
X125730000Y-62230000D03*
X115570000Y-66040000D03*
X125730000Y-66040000D03*
X125730000Y-86360000D03*
X115570000Y-86360000D03*
X125730000Y-58420000D03*
X115570000Y-58420000D03*
X95250000Y-133350000D03*
X105410000Y-133350000D03*
X105283000Y-104902000D03*
X95123000Y-104902000D03*
X105410000Y-77470000D03*
X95250000Y-77470000D03*
X125730000Y-116840000D03*
X115570000Y-116840000D03*
D16*
X173990000Y-86360000D03*
D17*
X171450000Y-86360000D03*
X168910000Y-86360000D03*
X166370000Y-86360000D03*
X163830000Y-86360000D03*
X161290000Y-86360000D03*
X158750000Y-86360000D03*
X156210000Y-86360000D03*
X153670000Y-86360000D03*
X151130000Y-86360000D03*
X151130000Y-93980000D03*
X153670000Y-93980000D03*
X156210000Y-93980000D03*
X158750000Y-93980000D03*
X161290000Y-93980000D03*
X163830000Y-93980000D03*
X166370000Y-93980000D03*
X168910000Y-93980000D03*
X171450000Y-93980000D03*
X173990000Y-93980000D03*
D16*
X173990000Y-105410000D03*
D17*
X171450000Y-105410000D03*
X168910000Y-105410000D03*
X166370000Y-105410000D03*
X163830000Y-105410000D03*
X161290000Y-105410000D03*
X158750000Y-105410000D03*
X156210000Y-105410000D03*
X153670000Y-105410000D03*
X151130000Y-105410000D03*
X151130000Y-113030000D03*
X153670000Y-113030000D03*
X156210000Y-113030000D03*
X158750000Y-113030000D03*
X161290000Y-113030000D03*
X163830000Y-113030000D03*
X166370000Y-113030000D03*
X168910000Y-113030000D03*
X171450000Y-113030000D03*
X173990000Y-113030000D03*
D16*
X203200000Y-86360000D03*
D17*
X200660000Y-86360000D03*
X198120000Y-86360000D03*
X195580000Y-86360000D03*
X193040000Y-86360000D03*
X190500000Y-86360000D03*
X187960000Y-86360000D03*
X187960000Y-93980000D03*
X190500000Y-93980000D03*
X193040000Y-93980000D03*
X195580000Y-93980000D03*
X198120000Y-93980000D03*
X200660000Y-93980000D03*
X203200000Y-93980000D03*
D18*
X95250000Y-129540000D03*
X105410000Y-129540000D03*
X95250000Y-101600000D03*
X105410000Y-101600000D03*
X95250000Y-73660000D03*
X105410000Y-73660000D03*
D24*
X73660000Y-68580000D03*
D25*
X73660000Y-66040000D03*
X73660000Y-63500000D03*
X73660000Y-60960000D03*
D26*
X106680000Y-137795000D03*
X107950000Y-136525000D03*
X109220000Y-137795000D03*
D27*
X77470000Y-60960000D03*
D28*
X82550000Y-60960000D03*
D24*
X133350000Y-68961000D03*
D25*
X133350000Y-66421000D03*
X133350000Y-63881000D03*
D26*
X119380000Y-128905000D03*
X120650000Y-127635000D03*
X121920000Y-128905000D03*
X119380000Y-106045000D03*
X120650000Y-104775000D03*
X121920000Y-106045000D03*
X119380000Y-79375000D03*
X120650000Y-78105000D03*
X121920000Y-79375000D03*
X106680000Y-109855000D03*
X107950000Y-108585000D03*
X109220000Y-109855000D03*
X106680000Y-81915000D03*
X107950000Y-80645000D03*
X109220000Y-81915000D03*
X99060000Y-137795000D03*
X100330000Y-136525000D03*
X101600000Y-137795000D03*
X99060000Y-109855000D03*
X100330000Y-108585000D03*
X101600000Y-109855000D03*
X99060000Y-81915000D03*
X100330000Y-80645000D03*
X101600000Y-81915000D03*
X119380000Y-137795000D03*
X120650000Y-136525000D03*
X121920000Y-137795000D03*
D29*
X110251240Y-91361260D03*
X95250000Y-96362520D03*
X95250000Y-86360000D03*
X110251240Y-63421260D03*
X95250000Y-68422520D03*
X95250000Y-58420000D03*
X110251240Y-119301260D03*
X95250000Y-124302520D03*
X95250000Y-114300000D03*
D30*
X179070000Y-110490000D03*
D31*
X179070000Y-107990000D03*
D30*
X179070000Y-129540000D03*
D31*
X179070000Y-127040000D03*
D30*
X179070000Y-91440000D03*
D31*
X179070000Y-88940000D03*
D23*
X151030940Y-55880000D03*
X146149060Y-55880000D03*
D32*
X77724000Y-97790000D03*
D33*
X68834000Y-92710000D03*
D32*
X77724000Y-87630000D03*
X77724000Y-92710000D03*
D13*
X77724000Y-111760000D03*
D14*
X68834000Y-106680000D03*
D13*
X77724000Y-101600000D03*
D15*
X77724000Y-106680000D03*
D13*
X77724000Y-125730000D03*
D14*
X68834000Y-120650000D03*
D13*
X77724000Y-115570000D03*
D15*
X77724000Y-120650000D03*
D34*
X203200000Y-139573000D03*
X148755070Y-132080000D03*
D35*
X203200000Y-133350000D02*
X203200000Y-139573000D01*
X136017000Y-92710000D02*
X135890000Y-92710000D01*
X151130000Y-124815600D02*
X151130000Y-124460000D01*
X187960000Y-86715600D02*
X187960000Y-86360000D01*
X202844400Y-100330000D02*
X203200000Y-100330000D01*
X196850000Y-106324400D02*
X202844400Y-100330000D01*
X196850000Y-123190000D02*
X196850000Y-106324400D01*
X151130000Y-105765600D02*
X151130000Y-105410000D01*
X152679400Y-107696000D02*
X151130000Y-105765600D01*
X172440600Y-107696000D02*
X152679400Y-107696000D01*
X173990000Y-105765600D02*
X172440600Y-107696000D01*
X173990000Y-105410000D02*
X173990000Y-105765600D01*
X217805000Y-118745000D02*
X220345000Y-118745000D01*
X209550000Y-102108000D02*
X209550000Y-143510000D01*
X194310000Y-123190000D02*
X194310000Y-127000000D01*
X194310000Y-127000000D02*
X187960000Y-133350000D01*
X187960000Y-133350000D02*
X187960000Y-142875000D01*
X166370000Y-62230000D02*
X166370000Y-49149000D01*
X215265000Y-65405000D02*
X215265000Y-64897000D01*
X215265000Y-64897000D02*
X216408000Y-63754000D01*
X216408000Y-63754000D02*
X219329000Y-63754000D01*
X141732000Y-78892400D02*
X141732000Y-143129000D01*
X143154400Y-77470000D02*
X141732000Y-78892400D01*
X173990000Y-132080000D02*
X175387000Y-133477000D01*
X175387000Y-133477000D02*
X175387000Y-143002000D01*
X203200000Y-93980000D02*
X203200000Y-95758000D01*
X203200000Y-95758000D02*
X209550000Y-102108000D01*
X173990000Y-132080000D02*
X175348901Y-130721099D01*
X175348901Y-130721099D02*
X175348901Y-116166901D01*
X175348901Y-116166901D02*
X173990000Y-114808000D01*
X173990000Y-114808000D02*
X173990000Y-113030000D01*
X179070000Y-129540000D02*
X176530000Y-129540000D01*
X176530000Y-129540000D02*
X173990000Y-132080000D01*
X173990000Y-93980000D02*
X173990000Y-95758000D01*
X173990000Y-95758000D02*
X175348901Y-97116901D01*
X175348901Y-97116901D02*
X175348901Y-111671099D01*
X175348901Y-111671099D02*
X173990000Y-113030000D01*
X179070000Y-110490000D02*
X176530000Y-110490000D01*
X176530000Y-110490000D02*
X173990000Y-113030000D01*
X179070000Y-91440000D02*
X176530000Y-91440000D01*
X176530000Y-91440000D02*
X173990000Y-93980000D01*
X203200000Y-93980000D02*
X203200000Y-94335600D01*
X143510000Y-77470000D02*
X143154400Y-77470000D01*
X208280000Y-91440000D02*
X205740000Y-91440000D01*
X205740000Y-91440000D02*
X203200000Y-93980000D01*
X73660000Y-68580000D02*
X64643000Y-68580000D01*
X140970000Y-72390000D02*
X140970000Y-74930000D01*
X140970000Y-74930000D02*
X143510000Y-77470000D01*
X173990000Y-93980000D02*
X173990000Y-94335600D01*
X173990000Y-93980000D02*
X173990000Y-93624400D01*
D36*
X193040000Y-94335600D02*
X193040000Y-93980000D01*
X194208410Y-95504010D02*
X193040000Y-94335600D01*
X196063971Y-95504010D02*
X194208410Y-95504010D01*
X196748410Y-94819571D02*
X196063971Y-95504010D01*
X196748410Y-90627190D02*
X196748410Y-94819571D01*
X200660000Y-86715600D02*
X196748410Y-90627190D01*
X200660000Y-86360000D02*
X200660000Y-86715600D01*
D37*
X73660000Y-60960000D02*
X77470000Y-60960000D01*
D36*
X179070000Y-77470000D02*
X179070000Y-77825600D01*
X179070000Y-77825600D02*
X185953400Y-84709000D01*
X185953400Y-84709000D02*
X205763726Y-84709000D01*
X205763726Y-84709000D02*
X214020399Y-92965673D01*
X214020399Y-92965673D02*
X214020399Y-99022409D01*
X214020399Y-99022409D02*
X214718389Y-99720399D01*
X214718389Y-99720399D02*
X216560399Y-99720399D01*
X216560399Y-99720399D02*
X217805000Y-100965000D01*
X120650000Y-127635000D02*
X124598128Y-127635000D01*
X124598128Y-127635000D02*
X128524000Y-123709128D01*
X128524000Y-123709128D02*
X128524000Y-73279000D01*
X128524000Y-73279000D02*
X132842000Y-68961000D01*
X132842000Y-68961000D02*
X133350000Y-68961000D01*
X158750000Y-62230000D02*
X158750000Y-62585600D01*
X120650000Y-104775000D02*
X124598128Y-104775000D01*
X124598128Y-104775000D02*
X127762000Y-101611128D01*
X127762000Y-101611128D02*
X127762000Y-71501000D01*
X127762000Y-71501000D02*
X132842000Y-66421000D01*
X153670000Y-62611000D02*
X153670000Y-62230000D01*
X133350000Y-63881000D02*
X132842000Y-63881000D01*
X132842000Y-63881000D02*
X127110491Y-69612509D01*
X127110491Y-69612509D02*
X127110491Y-74322637D01*
X127110491Y-74322637D02*
X123328128Y-78105000D01*
X123328128Y-78105000D02*
X120650000Y-78105000D01*
X159639000Y-63881000D02*
X133350000Y-63881000D01*
X159639000Y-63881000D02*
X161290000Y-62230000D01*
X161290000Y-62484000D02*
X161290000Y-62230000D01*
X121920000Y-137795000D02*
X119584990Y-140130010D01*
X119584990Y-140130010D02*
X99795128Y-140130010D01*
X99795128Y-140130010D02*
X80315118Y-120650000D01*
X80315118Y-120650000D02*
X77724000Y-120650000D01*
X90170000Y-78740000D02*
X95250000Y-73660000D01*
X77724000Y-78740000D02*
X90170000Y-78740000D01*
X151130000Y-77470000D02*
X151130000Y-77114400D01*
X153670000Y-93980000D02*
X153670000Y-94335600D01*
X153670000Y-92583000D02*
X153670000Y-93980000D01*
X152501590Y-91414590D02*
X153670000Y-92583000D01*
X152501590Y-76225410D02*
X152501590Y-91414590D01*
X164846000Y-63881000D02*
X152501590Y-76225410D01*
X166751000Y-63881000D02*
X164846000Y-63881000D01*
X166853971Y-63778029D02*
X166751000Y-63881000D01*
X166853971Y-63754010D02*
X166853971Y-63778029D01*
X167538410Y-63069571D02*
X166853971Y-63754010D01*
X167538410Y-61569590D02*
X167538410Y-63069571D01*
X168402000Y-60706000D02*
X167538410Y-61569590D01*
X168426019Y-60706000D02*
X168402000Y-60706000D01*
X168426029Y-60705990D02*
X168426019Y-60706000D01*
X169393971Y-60705990D02*
X168426029Y-60705990D01*
X169393981Y-60706000D02*
X169393971Y-60705990D01*
X170966019Y-60706000D02*
X169393981Y-60706000D01*
X170966029Y-60705990D02*
X170966019Y-60706000D01*
X171933971Y-60705990D02*
X170966029Y-60705990D01*
X171933981Y-60706000D02*
X171933971Y-60705990D01*
X173506019Y-60706000D02*
X171933981Y-60706000D01*
X173506029Y-60705990D02*
X173506019Y-60706000D01*
X174473971Y-60705990D02*
X173506029Y-60705990D01*
X174473981Y-60706000D02*
X174473971Y-60705990D01*
X176046019Y-60706000D02*
X174473981Y-60706000D01*
X176046029Y-60705990D02*
X176046019Y-60706000D01*
X177013981Y-60706000D02*
X177013971Y-60705990D01*
X178586019Y-60706000D02*
X177013981Y-60706000D01*
X178586029Y-60705990D02*
X178586019Y-60706000D01*
X179553971Y-60705990D02*
X178586029Y-60705990D01*
X179553981Y-60706000D02*
X179553971Y-60705990D01*
X181126019Y-60706000D02*
X179553981Y-60706000D01*
X181126029Y-60705990D02*
X181126019Y-60706000D01*
X182093971Y-60705990D02*
X181126029Y-60705990D01*
X182093981Y-60706000D02*
X182093971Y-60705990D01*
X183666019Y-60706000D02*
X182093981Y-60706000D01*
X183666029Y-60705990D02*
X183666019Y-60706000D01*
X184633971Y-60705990D02*
X183666029Y-60705990D01*
X184633981Y-60706000D02*
X184633971Y-60705990D01*
X185521600Y-60706000D02*
X184633981Y-60706000D01*
X186690000Y-61874400D02*
X185521600Y-60706000D01*
X177013971Y-60705990D02*
X176046029Y-60705990D01*
X186690000Y-62230000D02*
X186690000Y-61874400D01*
X156210000Y-93980000D02*
X156210000Y-94335600D01*
X156210000Y-94335600D02*
X160045400Y-98171000D01*
X160045400Y-98171000D02*
X169291000Y-98171000D01*
X169291000Y-98171000D02*
X172618410Y-94843590D01*
X172618410Y-94843590D02*
X172618410Y-92735410D01*
X172618410Y-92735410D02*
X170180000Y-90297000D01*
X170180000Y-90297000D02*
X170180000Y-76200000D01*
X170180000Y-76200000D02*
X184150000Y-62230000D01*
X170078410Y-94908888D02*
X170078410Y-92735410D01*
X158750000Y-93980000D02*
X158750000Y-94335600D01*
X158750000Y-94335600D02*
X161569380Y-97154980D01*
X161569380Y-97154980D02*
X167832318Y-97154980D01*
X167832318Y-97154980D02*
X170078410Y-94908888D01*
X170078410Y-92735410D02*
X167741590Y-90398590D01*
X167741590Y-90398590D02*
X167741590Y-76630429D01*
X167741590Y-76630429D02*
X168680019Y-75692000D01*
X168680019Y-75692000D02*
X169545000Y-75692000D01*
X169545000Y-75692000D02*
X181610000Y-63627000D01*
X181610000Y-63627000D02*
X181610000Y-62230000D01*
X179070000Y-65151000D02*
X179070000Y-62230000D01*
X169037010Y-75183990D02*
X179070000Y-65151000D01*
X165201590Y-76630429D02*
X166648029Y-75183990D01*
X165201590Y-90398590D02*
X165201590Y-76630429D01*
X167538410Y-92735410D02*
X165201590Y-90398590D01*
X166413546Y-96012020D02*
X167538410Y-94887156D01*
X167538410Y-94887156D02*
X167538410Y-92735410D01*
X166648029Y-75183990D02*
X169037010Y-75183990D01*
X162966420Y-96012020D02*
X166413546Y-96012020D01*
X161290000Y-94335600D02*
X162966420Y-96012020D01*
X161290000Y-93980000D02*
X161290000Y-94335600D01*
X176125274Y-62230000D02*
X176530000Y-62230000D01*
X162560000Y-75795274D02*
X176125274Y-62230000D01*
X162560000Y-91440000D02*
X162560000Y-75795274D01*
X163830000Y-92710000D02*
X162560000Y-91440000D01*
X163830000Y-93980000D02*
X163830000Y-92710000D01*
X166370000Y-93980000D02*
X166370000Y-93472000D01*
X164845990Y-95504010D02*
X166370000Y-93980000D01*
X163346029Y-95504010D02*
X164845990Y-95504010D01*
X162458410Y-94616391D02*
X163346029Y-95504010D01*
X162458410Y-92735410D02*
X162458410Y-94616391D01*
X160121590Y-90398590D02*
X162458410Y-92735410D01*
X160121590Y-76098410D02*
X160121590Y-90398590D01*
X173990000Y-62230000D02*
X160121590Y-76098410D01*
X171450000Y-62230000D02*
X171450000Y-61874400D01*
X157581590Y-76098410D02*
X171450000Y-62230000D01*
X157581590Y-90398590D02*
X157581590Y-76098410D01*
X159918410Y-92735410D02*
X157581590Y-90398590D01*
X159918410Y-94616391D02*
X159918410Y-92735410D01*
X161948989Y-96646970D02*
X159918410Y-94616391D01*
X166598630Y-96646970D02*
X161948989Y-96646970D01*
X168910000Y-94335600D02*
X166598630Y-96646970D01*
X168910000Y-93980000D02*
X168910000Y-94335600D01*
X154940000Y-76555600D02*
X168910000Y-62585600D01*
X171450000Y-93980000D02*
X171450000Y-94335600D01*
X171450000Y-94335600D02*
X168122610Y-97662990D01*
X168122610Y-97662990D02*
X160425009Y-97662990D01*
X160425009Y-97662990D02*
X157378410Y-94616391D01*
X168910000Y-62585600D02*
X168910000Y-62230000D01*
X154940000Y-90170000D02*
X154940000Y-76555600D01*
X157378410Y-92608410D02*
X154940000Y-90170000D01*
X157378410Y-94616391D02*
X157378410Y-92608410D01*
X151130000Y-132080000D02*
X148755070Y-132080000D01*
X136245600Y-85090000D02*
X135890000Y-85090000D01*
X143865600Y-87630000D02*
X143510000Y-87630000D01*
X145034010Y-88798410D02*
X143865600Y-87630000D01*
X145034010Y-106934010D02*
X145034010Y-88798410D01*
X151130000Y-113030000D02*
X145034010Y-106934010D01*
X195580000Y-86360000D02*
X195580000Y-93980000D01*
X187960000Y-93624400D02*
X187960000Y-93980000D01*
X187960000Y-92710000D02*
X187960000Y-93624400D01*
X193040000Y-87630000D02*
X187960000Y-92710000D01*
X193040000Y-86360000D02*
X193040000Y-87630000D01*
X90170000Y-106680000D02*
X95250000Y-101600000D01*
X77724000Y-106680000D02*
X90170000Y-106680000D01*
X173990000Y-77825600D02*
X173990000Y-77470000D01*
D37*
X95250000Y-58420000D02*
X112974832Y-58420000D01*
X112974832Y-58420000D02*
X114728323Y-56666509D01*
X114728323Y-56666509D02*
X116411677Y-56666509D01*
X116411677Y-56666509D02*
X118745000Y-58999832D01*
X118745000Y-58999832D02*
X118745000Y-78740000D01*
X118745000Y-78740000D02*
X119380000Y-79375000D01*
X119380000Y-79375000D02*
X118745000Y-80010000D01*
X118745000Y-80010000D02*
X118745000Y-105021922D01*
X118745000Y-105021922D02*
X119380000Y-105656922D01*
X119380000Y-105656922D02*
X119380000Y-106045000D01*
X82550000Y-60960000D02*
X88900000Y-60960000D01*
X92710000Y-60960000D02*
X95250000Y-58420000D01*
X88900000Y-60960000D02*
X92710000Y-60960000D01*
X99060000Y-82550000D02*
X95250000Y-86360000D01*
X99060000Y-81915000D02*
X99060000Y-82550000D01*
X98806000Y-109601000D02*
X99060000Y-109855000D01*
X98806000Y-89916000D02*
X98806000Y-109601000D01*
X95250000Y-86360000D02*
X98806000Y-89916000D01*
X99060000Y-110490000D02*
X95250000Y-114300000D01*
X99060000Y-109855000D02*
X99060000Y-110490000D01*
X98360001Y-137095001D02*
X99060000Y-137795000D01*
X98360001Y-117410001D02*
X98360001Y-137095001D01*
X95250000Y-114300000D02*
X98360001Y-117410001D01*
X98298000Y-81153000D02*
X99060000Y-81915000D01*
X98298000Y-61468000D02*
X98298000Y-81153000D01*
X95250000Y-58420000D02*
X98298000Y-61468000D01*
X117925999Y-139249001D02*
X119380000Y-137795000D01*
X100514001Y-139249001D02*
X117925999Y-139249001D01*
X99060000Y-137795000D02*
X100514001Y-139249001D01*
X118745000Y-106680000D02*
X119380000Y-106045000D01*
X118745000Y-128143000D02*
X118745000Y-106680000D01*
X119507000Y-128905000D02*
X118745000Y-128143000D01*
X118745000Y-129667000D02*
X119507000Y-128905000D01*
X118745000Y-137160000D02*
X118745000Y-129667000D01*
X119380000Y-137795000D02*
X118745000Y-137160000D01*
D36*
G36*
X221565000Y-145365000D02*
X219329000Y-145365000D01*
X219329000Y-142367000D01*
X219329000Y-49403000D01*
X65151000Y-49403000D01*
X65151000Y-142367000D01*
X219329000Y-142367000D01*
X219329000Y-145365000D01*
X62915000Y-145365000D01*
X62915000Y-46405000D01*
X221565000Y-46405000D01*
X221565000Y-145365000D01*
X221565000Y-145365000D01*
G37*
X221565000Y-145365000D02*
X219329000Y-145365000D01*
X219329000Y-142367000D01*
X219329000Y-49403000D01*
X65151000Y-49403000D01*
X65151000Y-142367000D01*
X219329000Y-142367000D01*
X219329000Y-145365000D01*
X62915000Y-145365000D01*
X62915000Y-46405000D01*
X221565000Y-46405000D01*
X221565000Y-145365000D01*
G36*
X159893000Y-59563000D02*
X157607767Y-59563000D01*
X157607767Y-53544966D01*
X157579805Y-52994462D01*
X157422931Y-52615735D01*
X157181930Y-52547675D01*
X157002325Y-52727280D01*
X157002325Y-52368070D01*
X156934265Y-52127069D01*
X156414966Y-51942233D01*
X155864462Y-51970195D01*
X155485735Y-52127069D01*
X155417675Y-52368070D01*
X156210000Y-53160395D01*
X157002325Y-52368070D01*
X157002325Y-52727280D01*
X156389605Y-53340000D01*
X157181930Y-54132325D01*
X157422931Y-54064265D01*
X157607767Y-53544966D01*
X157607767Y-59563000D01*
X157595810Y-59563000D01*
X157595810Y-55605602D01*
X157385314Y-55096163D01*
X156995887Y-54706056D01*
X156780503Y-54616621D01*
X156934265Y-54552931D01*
X157002325Y-54311930D01*
X156210000Y-53519605D01*
X156030395Y-53699210D01*
X156030395Y-53340000D01*
X155238070Y-52547675D01*
X154997069Y-52615735D01*
X154812233Y-53135034D01*
X154840195Y-53685538D01*
X154997069Y-54064265D01*
X155238070Y-54132325D01*
X156030395Y-53340000D01*
X156030395Y-53699210D01*
X155417675Y-54311930D01*
X155485735Y-54552931D01*
X155651040Y-54611768D01*
X155426163Y-54704686D01*
X155036056Y-55094113D01*
X154824671Y-55603184D01*
X154824190Y-56154398D01*
X155034686Y-56663837D01*
X155424113Y-57053944D01*
X155933184Y-57265329D01*
X156484398Y-57265810D01*
X156993837Y-57055314D01*
X157383944Y-56665887D01*
X157595329Y-56156816D01*
X157595810Y-55605602D01*
X157595810Y-59563000D01*
X152416750Y-59563000D01*
X152416750Y-55605602D01*
X152206254Y-55096163D01*
X151816827Y-54706056D01*
X151307756Y-54494671D01*
X150756542Y-54494190D01*
X150247103Y-54704686D01*
X149856996Y-55094113D01*
X149645611Y-55603184D01*
X149645130Y-56154398D01*
X149855626Y-56663837D01*
X150245053Y-57053944D01*
X150754124Y-57265329D01*
X151305338Y-57265810D01*
X151814777Y-57055314D01*
X152204884Y-56665887D01*
X152416269Y-56156816D01*
X152416750Y-55605602D01*
X152416750Y-59563000D01*
X147534870Y-59563000D01*
X147534870Y-55605602D01*
X147324374Y-55096163D01*
X146934947Y-54706056D01*
X146425876Y-54494671D01*
X145874662Y-54494190D01*
X145365223Y-54704686D01*
X144975116Y-55094113D01*
X144763731Y-55603184D01*
X144763250Y-56154398D01*
X144973746Y-56663837D01*
X145363173Y-57053944D01*
X145872244Y-57265329D01*
X146423458Y-57265810D01*
X146932897Y-57055314D01*
X147323004Y-56665887D01*
X147534389Y-56156816D01*
X147534870Y-55605602D01*
X147534870Y-59563000D01*
X142367767Y-59563000D01*
X142367767Y-53544966D01*
X142339805Y-52994462D01*
X142182931Y-52615735D01*
X141941930Y-52547675D01*
X141762325Y-52727280D01*
X141762325Y-52368070D01*
X141694265Y-52127069D01*
X141174966Y-51942233D01*
X140624462Y-51970195D01*
X140245735Y-52127069D01*
X140177675Y-52368070D01*
X140970000Y-53160395D01*
X141762325Y-52368070D01*
X141762325Y-52727280D01*
X141149605Y-53340000D01*
X141941930Y-54132325D01*
X142182931Y-54064265D01*
X142367767Y-53544966D01*
X142367767Y-59563000D01*
X142355810Y-59563000D01*
X142355810Y-55605602D01*
X142145314Y-55096163D01*
X141755887Y-54706056D01*
X141540503Y-54616621D01*
X141694265Y-54552931D01*
X141762325Y-54311930D01*
X140970000Y-53519605D01*
X140790395Y-53699210D01*
X140790395Y-53340000D01*
X139998070Y-52547675D01*
X139757069Y-52615735D01*
X139572233Y-53135034D01*
X139600195Y-53685538D01*
X139757069Y-54064265D01*
X139998070Y-54132325D01*
X140790395Y-53340000D01*
X140790395Y-53699210D01*
X140177675Y-54311930D01*
X140245735Y-54552931D01*
X140411040Y-54611768D01*
X140186163Y-54704686D01*
X139796056Y-55094113D01*
X139584671Y-55603184D01*
X139584190Y-56154398D01*
X139794686Y-56663837D01*
X140184113Y-57053944D01*
X140693184Y-57265329D01*
X141244398Y-57265810D01*
X141753837Y-57055314D01*
X142143944Y-56665887D01*
X142355329Y-56156816D01*
X142355810Y-55605602D01*
X142355810Y-59563000D01*
X138557000Y-59563000D01*
X138557000Y-50927000D01*
X139700000Y-50927000D01*
X159893000Y-50927000D01*
X159893000Y-59563000D01*
X159893000Y-59563000D01*
G37*
X159893000Y-59563000D02*
X157607767Y-59563000D01*
X157607767Y-53544966D01*
X157579805Y-52994462D01*
X157422931Y-52615735D01*
X157181930Y-52547675D01*
X157002325Y-52727280D01*
X157002325Y-52368070D01*
X156934265Y-52127069D01*
X156414966Y-51942233D01*
X155864462Y-51970195D01*
X155485735Y-52127069D01*
X155417675Y-52368070D01*
X156210000Y-53160395D01*
X157002325Y-52368070D01*
X157002325Y-52727280D01*
X156389605Y-53340000D01*
X157181930Y-54132325D01*
X157422931Y-54064265D01*
X157607767Y-53544966D01*
X157607767Y-59563000D01*
X157595810Y-59563000D01*
X157595810Y-55605602D01*
X157385314Y-55096163D01*
X156995887Y-54706056D01*
X156780503Y-54616621D01*
X156934265Y-54552931D01*
X157002325Y-54311930D01*
X156210000Y-53519605D01*
X156030395Y-53699210D01*
X156030395Y-53340000D01*
X155238070Y-52547675D01*
X154997069Y-52615735D01*
X154812233Y-53135034D01*
X154840195Y-53685538D01*
X154997069Y-54064265D01*
X155238070Y-54132325D01*
X156030395Y-53340000D01*
X156030395Y-53699210D01*
X155417675Y-54311930D01*
X155485735Y-54552931D01*
X155651040Y-54611768D01*
X155426163Y-54704686D01*
X155036056Y-55094113D01*
X154824671Y-55603184D01*
X154824190Y-56154398D01*
X155034686Y-56663837D01*
X155424113Y-57053944D01*
X155933184Y-57265329D01*
X156484398Y-57265810D01*
X156993837Y-57055314D01*
X157383944Y-56665887D01*
X157595329Y-56156816D01*
X157595810Y-55605602D01*
X157595810Y-59563000D01*
X152416750Y-59563000D01*
X152416750Y-55605602D01*
X152206254Y-55096163D01*
X151816827Y-54706056D01*
X151307756Y-54494671D01*
X150756542Y-54494190D01*
X150247103Y-54704686D01*
X149856996Y-55094113D01*
X149645611Y-55603184D01*
X149645130Y-56154398D01*
X149855626Y-56663837D01*
X150245053Y-57053944D01*
X150754124Y-57265329D01*
X151305338Y-57265810D01*
X151814777Y-57055314D01*
X152204884Y-56665887D01*
X152416269Y-56156816D01*
X152416750Y-55605602D01*
X152416750Y-59563000D01*
X147534870Y-59563000D01*
X147534870Y-55605602D01*
X147324374Y-55096163D01*
X146934947Y-54706056D01*
X146425876Y-54494671D01*
X145874662Y-54494190D01*
X145365223Y-54704686D01*
X144975116Y-55094113D01*
X144763731Y-55603184D01*
X144763250Y-56154398D01*
X144973746Y-56663837D01*
X145363173Y-57053944D01*
X145872244Y-57265329D01*
X146423458Y-57265810D01*
X146932897Y-57055314D01*
X147323004Y-56665887D01*
X147534389Y-56156816D01*
X147534870Y-55605602D01*
X147534870Y-59563000D01*
X142367767Y-59563000D01*
X142367767Y-53544966D01*
X142339805Y-52994462D01*
X142182931Y-52615735D01*
X141941930Y-52547675D01*
X141762325Y-52727280D01*
X141762325Y-52368070D01*
X141694265Y-52127069D01*
X141174966Y-51942233D01*
X140624462Y-51970195D01*
X140245735Y-52127069D01*
X140177675Y-52368070D01*
X140970000Y-53160395D01*
X141762325Y-52368070D01*
X141762325Y-52727280D01*
X141149605Y-53340000D01*
X141941930Y-54132325D01*
X142182931Y-54064265D01*
X142367767Y-53544966D01*
X142367767Y-59563000D01*
X142355810Y-59563000D01*
X142355810Y-55605602D01*
X142145314Y-55096163D01*
X141755887Y-54706056D01*
X141540503Y-54616621D01*
X141694265Y-54552931D01*
X141762325Y-54311930D01*
X140970000Y-53519605D01*
X140790395Y-53699210D01*
X140790395Y-53340000D01*
X139998070Y-52547675D01*
X139757069Y-52615735D01*
X139572233Y-53135034D01*
X139600195Y-53685538D01*
X139757069Y-54064265D01*
X139998070Y-54132325D01*
X140790395Y-53340000D01*
X140790395Y-53699210D01*
X140177675Y-54311930D01*
X140245735Y-54552931D01*
X140411040Y-54611768D01*
X140186163Y-54704686D01*
X139796056Y-55094113D01*
X139584671Y-55603184D01*
X139584190Y-56154398D01*
X139794686Y-56663837D01*
X140184113Y-57053944D01*
X140693184Y-57265329D01*
X141244398Y-57265810D01*
X141753837Y-57055314D01*
X142143944Y-56665887D01*
X142355329Y-56156816D01*
X142355810Y-55605602D01*
X142355810Y-59563000D01*
X138557000Y-59563000D01*
X138557000Y-50927000D01*
X139700000Y-50927000D01*
X159893000Y-50927000D01*
X159893000Y-59563000D01*
G36*
X219583000Y-121793000D02*
X219190147Y-121793000D01*
X219259968Y-121644027D01*
X219259968Y-120925973D01*
X219011821Y-120396510D01*
X218593847Y-120015000D01*
X219011821Y-119633490D01*
X219259968Y-119104027D01*
X219139469Y-118872000D01*
X217932000Y-118872000D01*
X217932000Y-119951183D01*
X217932000Y-120078817D01*
X217932000Y-121158000D01*
X219139469Y-121158000D01*
X219259968Y-120925973D01*
X219259968Y-121644027D01*
X219139469Y-121412000D01*
X217932000Y-121412000D01*
X217932000Y-121432000D01*
X217678000Y-121432000D01*
X217678000Y-121412000D01*
X217678000Y-121158000D01*
X217678000Y-120078817D01*
X217678000Y-119951183D01*
X217678000Y-118872000D01*
X216599469Y-118872000D01*
X216470531Y-118872000D01*
X215392000Y-118872000D01*
X215392000Y-119951183D01*
X215392000Y-120078817D01*
X215392000Y-121158000D01*
X216470531Y-121158000D01*
X216599469Y-121158000D01*
X217678000Y-121158000D01*
X217678000Y-121412000D01*
X216599469Y-121412000D01*
X216470531Y-121412000D01*
X215392000Y-121412000D01*
X215392000Y-121432000D01*
X215138000Y-121432000D01*
X215138000Y-121412000D01*
X215118000Y-121412000D01*
X215118000Y-121158000D01*
X215138000Y-121158000D01*
X215138000Y-120078817D01*
X215138000Y-119951183D01*
X215138000Y-118872000D01*
X215118000Y-118872000D01*
X215118000Y-118618000D01*
X215138000Y-118618000D01*
X215138000Y-118598000D01*
X215392000Y-118598000D01*
X215392000Y-118618000D01*
X216470531Y-118618000D01*
X216599469Y-118618000D01*
X217678000Y-118618000D01*
X217678000Y-118598000D01*
X217932000Y-118598000D01*
X217932000Y-118618000D01*
X219139469Y-118618000D01*
X219259968Y-118385973D01*
X219190147Y-118237000D01*
X219583000Y-118237000D01*
X219583000Y-121793000D01*
X219583000Y-121793000D01*
G37*
X219583000Y-121793000D02*
X219190147Y-121793000D01*
X219259968Y-121644027D01*
X219259968Y-120925973D01*
X219011821Y-120396510D01*
X218593847Y-120015000D01*
X219011821Y-119633490D01*
X219259968Y-119104027D01*
X219139469Y-118872000D01*
X217932000Y-118872000D01*
X217932000Y-119951183D01*
X217932000Y-120078817D01*
X217932000Y-121158000D01*
X219139469Y-121158000D01*
X219259968Y-120925973D01*
X219259968Y-121644027D01*
X219139469Y-121412000D01*
X217932000Y-121412000D01*
X217932000Y-121432000D01*
X217678000Y-121432000D01*
X217678000Y-121412000D01*
X217678000Y-121158000D01*
X217678000Y-120078817D01*
X217678000Y-119951183D01*
X217678000Y-118872000D01*
X216599469Y-118872000D01*
X216470531Y-118872000D01*
X215392000Y-118872000D01*
X215392000Y-119951183D01*
X215392000Y-120078817D01*
X215392000Y-121158000D01*
X216470531Y-121158000D01*
X216599469Y-121158000D01*
X217678000Y-121158000D01*
X217678000Y-121412000D01*
X216599469Y-121412000D01*
X216470531Y-121412000D01*
X215392000Y-121412000D01*
X215392000Y-121432000D01*
X215138000Y-121432000D01*
X215138000Y-121412000D01*
X215118000Y-121412000D01*
X215118000Y-121158000D01*
X215138000Y-121158000D01*
X215138000Y-120078817D01*
X215138000Y-119951183D01*
X215138000Y-118872000D01*
X215118000Y-118872000D01*
X215118000Y-118618000D01*
X215138000Y-118618000D01*
X215138000Y-118598000D01*
X215392000Y-118598000D01*
X215392000Y-118618000D01*
X216470531Y-118618000D01*
X216599469Y-118618000D01*
X217678000Y-118618000D01*
X217678000Y-118598000D01*
X217932000Y-118598000D01*
X217932000Y-118618000D01*
X219139469Y-118618000D01*
X219259968Y-118385973D01*
X219190147Y-118237000D01*
X219583000Y-118237000D01*
X219583000Y-121793000D01*
M02*
