%TF.FileFunction,Copper,L1,Top,Signal*%
%FSLAX46Y46*%
G04 Gerber Fmt 4.6, Leading zero omitted, Abs format (unit mm)*
G04 Created by KiCad (PCBNEW (2014-09-16 BZR 5139)-product) date 07/04/2015 09:58:02*
%MOMM*%
G01*
G04 APERTURE LIST*
%ADD10C,0.100000*%
%ADD11C,0.300000*%
%ADD12C,0.150000*%
%ADD13R,1.574800X2.286000*%
%ADD14O,1.574800X2.286000*%
%ADD15C,1.998980*%
%ADD16R,2.286000X1.574800*%
%ADD17O,2.286000X1.574800*%
%ADD18R,1.727200X1.727200*%
%ADD19O,1.727200X1.727200*%
%ADD20C,1.501140*%
%ADD21R,2.032000X1.727200*%
%ADD22O,2.032000X1.727200*%
%ADD23C,1.400000*%
%ADD24R,1.905000X1.905000*%
%ADD25C,1.905000*%
%ADD26C,2.499360*%
%ADD27R,1.300000X1.300000*%
%ADD28C,1.300000*%
%ADD29O,3.197860X1.998980*%
%ADD30O,1.998980X3.197860*%
%ADD31C,0.889000*%
%ADD32C,0.635000*%
%ADD33C,0.254000*%
%ADD34C,1.000000*%
G04 APERTURE END LIST*
D10*
D11*
X184821429Y-51248571D02*
X185678572Y-51248571D01*
X185250001Y-52748571D02*
X185250001Y-51248571D01*
X186392858Y-52748571D02*
X186250000Y-52677143D01*
X186178572Y-52605714D01*
X186107143Y-52462857D01*
X186107143Y-52034286D01*
X186178572Y-51891429D01*
X186250000Y-51820000D01*
X186392858Y-51748571D01*
X186607143Y-51748571D01*
X186750000Y-51820000D01*
X186821429Y-51891429D01*
X186892858Y-52034286D01*
X186892858Y-52462857D01*
X186821429Y-52605714D01*
X186750000Y-52677143D01*
X186607143Y-52748571D01*
X186392858Y-52748571D01*
X187535715Y-51748571D02*
X187535715Y-53248571D01*
X187535715Y-51820000D02*
X187678572Y-51748571D01*
X187964286Y-51748571D01*
X188107143Y-51820000D01*
X188178572Y-51891429D01*
X188250001Y-52034286D01*
X188250001Y-52462857D01*
X188178572Y-52605714D01*
X188107143Y-52677143D01*
X187964286Y-52748571D01*
X187678572Y-52748571D01*
X187535715Y-52677143D01*
X188892858Y-52177143D02*
X190035715Y-52177143D01*
X191464287Y-52748571D02*
X190750001Y-52748571D01*
X190750001Y-51248571D01*
X192607144Y-52748571D02*
X192607144Y-51962857D01*
X192535715Y-51820000D01*
X192392858Y-51748571D01*
X192107144Y-51748571D01*
X191964287Y-51820000D01*
X192607144Y-52677143D02*
X192464287Y-52748571D01*
X192107144Y-52748571D01*
X191964287Y-52677143D01*
X191892858Y-52534286D01*
X191892858Y-52391429D01*
X191964287Y-52248571D01*
X192107144Y-52177143D01*
X192464287Y-52177143D01*
X192607144Y-52105714D01*
X193178573Y-51748571D02*
X193535716Y-52748571D01*
X193892858Y-51748571D02*
X193535716Y-52748571D01*
X193392858Y-53105714D01*
X193321430Y-53177143D01*
X193178573Y-53248571D01*
X195035715Y-52677143D02*
X194892858Y-52748571D01*
X194607144Y-52748571D01*
X194464287Y-52677143D01*
X194392858Y-52534286D01*
X194392858Y-51962857D01*
X194464287Y-51820000D01*
X194607144Y-51748571D01*
X194892858Y-51748571D01*
X195035715Y-51820000D01*
X195107144Y-51962857D01*
X195107144Y-52105714D01*
X194392858Y-52248571D01*
X195750001Y-52748571D02*
X195750001Y-51748571D01*
X195750001Y-52034286D02*
X195821429Y-51891429D01*
X195892858Y-51820000D01*
X196035715Y-51748571D01*
X196178572Y-51748571D01*
X155611429Y-138878571D02*
X156468572Y-138878571D01*
X156040001Y-140378571D02*
X156040001Y-138878571D01*
X157182858Y-140378571D02*
X157040000Y-140307143D01*
X156968572Y-140235714D01*
X156897143Y-140092857D01*
X156897143Y-139664286D01*
X156968572Y-139521429D01*
X157040000Y-139450000D01*
X157182858Y-139378571D01*
X157397143Y-139378571D01*
X157540000Y-139450000D01*
X157611429Y-139521429D01*
X157682858Y-139664286D01*
X157682858Y-140092857D01*
X157611429Y-140235714D01*
X157540000Y-140307143D01*
X157397143Y-140378571D01*
X157182858Y-140378571D01*
X158325715Y-139378571D02*
X158325715Y-140878571D01*
X158325715Y-139450000D02*
X158468572Y-139378571D01*
X158754286Y-139378571D01*
X158897143Y-139450000D01*
X158968572Y-139521429D01*
X159040001Y-139664286D01*
X159040001Y-140092857D01*
X158968572Y-140235714D01*
X158897143Y-140307143D01*
X158754286Y-140378571D01*
X158468572Y-140378571D01*
X158325715Y-140307143D01*
X159682858Y-139807143D02*
X160825715Y-139807143D01*
X162254287Y-140378571D02*
X161540001Y-140378571D01*
X161540001Y-138878571D01*
X163397144Y-140378571D02*
X163397144Y-139592857D01*
X163325715Y-139450000D01*
X163182858Y-139378571D01*
X162897144Y-139378571D01*
X162754287Y-139450000D01*
X163397144Y-140307143D02*
X163254287Y-140378571D01*
X162897144Y-140378571D01*
X162754287Y-140307143D01*
X162682858Y-140164286D01*
X162682858Y-140021429D01*
X162754287Y-139878571D01*
X162897144Y-139807143D01*
X163254287Y-139807143D01*
X163397144Y-139735714D01*
X163968573Y-139378571D02*
X164325716Y-140378571D01*
X164682858Y-139378571D02*
X164325716Y-140378571D01*
X164182858Y-140735714D01*
X164111430Y-140807143D01*
X163968573Y-140878571D01*
X165825715Y-140307143D02*
X165682858Y-140378571D01*
X165397144Y-140378571D01*
X165254287Y-140307143D01*
X165182858Y-140164286D01*
X165182858Y-139592857D01*
X165254287Y-139450000D01*
X165397144Y-139378571D01*
X165682858Y-139378571D01*
X165825715Y-139450000D01*
X165897144Y-139592857D01*
X165897144Y-139735714D01*
X165182858Y-139878571D01*
X166540001Y-140378571D02*
X166540001Y-139378571D01*
X166540001Y-139664286D02*
X166611429Y-139521429D01*
X166682858Y-139450000D01*
X166825715Y-139378571D01*
X166968572Y-139378571D01*
X73945714Y-51547143D02*
X74160000Y-51618571D01*
X74517143Y-51618571D01*
X74660000Y-51547143D01*
X74731429Y-51475714D01*
X74802857Y-51332857D01*
X74802857Y-51190000D01*
X74731429Y-51047143D01*
X74660000Y-50975714D01*
X74517143Y-50904286D01*
X74231429Y-50832857D01*
X74088571Y-50761429D01*
X74017143Y-50690000D01*
X73945714Y-50547143D01*
X73945714Y-50404286D01*
X74017143Y-50261429D01*
X74088571Y-50190000D01*
X74231429Y-50118571D01*
X74588571Y-50118571D01*
X74802857Y-50190000D01*
X75231428Y-50618571D02*
X75802857Y-50618571D01*
X75445714Y-50118571D02*
X75445714Y-51404286D01*
X75517142Y-51547143D01*
X75660000Y-51618571D01*
X75802857Y-51618571D01*
X76874285Y-51547143D02*
X76731428Y-51618571D01*
X76445714Y-51618571D01*
X76302857Y-51547143D01*
X76231428Y-51404286D01*
X76231428Y-50832857D01*
X76302857Y-50690000D01*
X76445714Y-50618571D01*
X76731428Y-50618571D01*
X76874285Y-50690000D01*
X76945714Y-50832857D01*
X76945714Y-50975714D01*
X76231428Y-51118571D01*
X78231428Y-51547143D02*
X78088571Y-51618571D01*
X77802857Y-51618571D01*
X77659999Y-51547143D01*
X77588571Y-51475714D01*
X77517142Y-51332857D01*
X77517142Y-50904286D01*
X77588571Y-50761429D01*
X77659999Y-50690000D01*
X77802857Y-50618571D01*
X78088571Y-50618571D01*
X78231428Y-50690000D01*
X78874285Y-51618571D02*
X78874285Y-50118571D01*
X79017142Y-51047143D02*
X79445713Y-51618571D01*
X79445713Y-50618571D02*
X78874285Y-51190000D01*
X80017142Y-51547143D02*
X80159999Y-51618571D01*
X80445714Y-51618571D01*
X80588571Y-51547143D01*
X80659999Y-51404286D01*
X80659999Y-51332857D01*
X80588571Y-51190000D01*
X80445714Y-51118571D01*
X80231428Y-51118571D01*
X80088571Y-51047143D01*
X80017142Y-50904286D01*
X80017142Y-50832857D01*
X80088571Y-50690000D01*
X80231428Y-50618571D01*
X80445714Y-50618571D01*
X80588571Y-50690000D01*
X81945714Y-51547143D02*
X81802857Y-51618571D01*
X81517143Y-51618571D01*
X81374285Y-51547143D01*
X81302857Y-51475714D01*
X81231428Y-51332857D01*
X81231428Y-50904286D01*
X81302857Y-50761429D01*
X81374285Y-50690000D01*
X81517143Y-50618571D01*
X81802857Y-50618571D01*
X81945714Y-50690000D01*
X82588571Y-51618571D02*
X82588571Y-50118571D01*
X83231428Y-51618571D02*
X83231428Y-50832857D01*
X83159999Y-50690000D01*
X83017142Y-50618571D01*
X82802857Y-50618571D01*
X82659999Y-50690000D01*
X82588571Y-50761429D01*
X83802857Y-50618571D02*
X84088571Y-51618571D01*
X84374285Y-50904286D01*
X84660000Y-51618571D01*
X84945714Y-50618571D01*
X86088571Y-51547143D02*
X85945714Y-51618571D01*
X85660000Y-51618571D01*
X85517143Y-51547143D01*
X85445714Y-51404286D01*
X85445714Y-50832857D01*
X85517143Y-50690000D01*
X85660000Y-50618571D01*
X85945714Y-50618571D01*
X86088571Y-50690000D01*
X86160000Y-50832857D01*
X86160000Y-50975714D01*
X85445714Y-51118571D01*
X86802857Y-51618571D02*
X86802857Y-50618571D01*
X86802857Y-50118571D02*
X86731428Y-50190000D01*
X86802857Y-50261429D01*
X86874285Y-50190000D01*
X86802857Y-50118571D01*
X86802857Y-50261429D01*
X87517143Y-50618571D02*
X87517143Y-51618571D01*
X87517143Y-50761429D02*
X87588571Y-50690000D01*
X87731429Y-50618571D01*
X87945714Y-50618571D01*
X88088571Y-50690000D01*
X88160000Y-50832857D01*
X88160000Y-51618571D01*
X89802857Y-50118571D02*
X90660000Y-50118571D01*
X90231429Y-51618571D02*
X90231429Y-50118571D01*
X91160000Y-51618571D02*
X91160000Y-50118571D01*
X91660000Y-51190000D01*
X92160000Y-50118571D01*
X92160000Y-51618571D01*
X92802857Y-51547143D02*
X93017143Y-51618571D01*
X93374286Y-51618571D01*
X93517143Y-51547143D01*
X93588572Y-51475714D01*
X93660000Y-51332857D01*
X93660000Y-51190000D01*
X93588572Y-51047143D01*
X93517143Y-50975714D01*
X93374286Y-50904286D01*
X93088572Y-50832857D01*
X92945714Y-50761429D01*
X92874286Y-50690000D01*
X92802857Y-50547143D01*
X92802857Y-50404286D01*
X92874286Y-50261429D01*
X92945714Y-50190000D01*
X93088572Y-50118571D01*
X93445714Y-50118571D01*
X93660000Y-50190000D01*
X94302857Y-51047143D02*
X95445714Y-51047143D01*
X96231428Y-51618571D02*
X96517143Y-51618571D01*
X96660000Y-51547143D01*
X96731428Y-51475714D01*
X96874286Y-51261429D01*
X96945714Y-50975714D01*
X96945714Y-50404286D01*
X96874286Y-50261429D01*
X96802857Y-50190000D01*
X96660000Y-50118571D01*
X96374286Y-50118571D01*
X96231428Y-50190000D01*
X96160000Y-50261429D01*
X96088571Y-50404286D01*
X96088571Y-50761429D01*
X96160000Y-50904286D01*
X96231428Y-50975714D01*
X96374286Y-51047143D01*
X96660000Y-51047143D01*
X96802857Y-50975714D01*
X96874286Y-50904286D01*
X96945714Y-50761429D01*
X97659999Y-51618571D02*
X97945714Y-51618571D01*
X98088571Y-51547143D01*
X98159999Y-51475714D01*
X98302857Y-51261429D01*
X98374285Y-50975714D01*
X98374285Y-50404286D01*
X98302857Y-50261429D01*
X98231428Y-50190000D01*
X98088571Y-50118571D01*
X97802857Y-50118571D01*
X97659999Y-50190000D01*
X97588571Y-50261429D01*
X97517142Y-50404286D01*
X97517142Y-50761429D01*
X97588571Y-50904286D01*
X97659999Y-50975714D01*
X97802857Y-51047143D01*
X98088571Y-51047143D01*
X98231428Y-50975714D01*
X98302857Y-50904286D01*
X98374285Y-50761429D01*
X98945713Y-50261429D02*
X99017142Y-50190000D01*
X99159999Y-50118571D01*
X99517142Y-50118571D01*
X99659999Y-50190000D01*
X99731428Y-50261429D01*
X99802856Y-50404286D01*
X99802856Y-50547143D01*
X99731428Y-50761429D01*
X98874285Y-51618571D01*
X99802856Y-51618571D01*
X100517141Y-51618571D02*
X100802856Y-51618571D01*
X100945713Y-51547143D01*
X101017141Y-51475714D01*
X101159999Y-51261429D01*
X101231427Y-50975714D01*
X101231427Y-50404286D01*
X101159999Y-50261429D01*
X101088570Y-50190000D01*
X100945713Y-50118571D01*
X100659999Y-50118571D01*
X100517141Y-50190000D01*
X100445713Y-50261429D01*
X100374284Y-50404286D01*
X100374284Y-50761429D01*
X100445713Y-50904286D01*
X100517141Y-50975714D01*
X100659999Y-51047143D01*
X100945713Y-51047143D01*
X101088570Y-50975714D01*
X101159999Y-50904286D01*
X101231427Y-50761429D01*
X102945712Y-50047143D02*
X101659998Y-51975714D01*
X103231427Y-50118571D02*
X103731427Y-51618571D01*
X104231427Y-50118571D01*
X104731427Y-51618571D02*
X104731427Y-50618571D01*
X104731427Y-50118571D02*
X104659998Y-50190000D01*
X104731427Y-50261429D01*
X104802855Y-50190000D01*
X104731427Y-50118571D01*
X104731427Y-50261429D01*
X106088570Y-51618571D02*
X106088570Y-50118571D01*
X106088570Y-51547143D02*
X105945713Y-51618571D01*
X105659999Y-51618571D01*
X105517141Y-51547143D01*
X105445713Y-51475714D01*
X105374284Y-51332857D01*
X105374284Y-50904286D01*
X105445713Y-50761429D01*
X105517141Y-50690000D01*
X105659999Y-50618571D01*
X105945713Y-50618571D01*
X106088570Y-50690000D01*
X107374284Y-51547143D02*
X107231427Y-51618571D01*
X106945713Y-51618571D01*
X106802856Y-51547143D01*
X106731427Y-51404286D01*
X106731427Y-50832857D01*
X106802856Y-50690000D01*
X106945713Y-50618571D01*
X107231427Y-50618571D01*
X107374284Y-50690000D01*
X107445713Y-50832857D01*
X107445713Y-50975714D01*
X106731427Y-51118571D01*
X108302856Y-51618571D02*
X108159998Y-51547143D01*
X108088570Y-51475714D01*
X108017141Y-51332857D01*
X108017141Y-50904286D01*
X108088570Y-50761429D01*
X108159998Y-50690000D01*
X108302856Y-50618571D01*
X108517141Y-50618571D01*
X108659998Y-50690000D01*
X108731427Y-50761429D01*
X108802856Y-50904286D01*
X108802856Y-51332857D01*
X108731427Y-51475714D01*
X108659998Y-51547143D01*
X108517141Y-51618571D01*
X108302856Y-51618571D01*
X111088570Y-50832857D02*
X111302856Y-50904286D01*
X111374284Y-50975714D01*
X111445713Y-51118571D01*
X111445713Y-51332857D01*
X111374284Y-51475714D01*
X111302856Y-51547143D01*
X111159998Y-51618571D01*
X110588570Y-51618571D01*
X110588570Y-50118571D01*
X111088570Y-50118571D01*
X111231427Y-50190000D01*
X111302856Y-50261429D01*
X111374284Y-50404286D01*
X111374284Y-50547143D01*
X111302856Y-50690000D01*
X111231427Y-50761429D01*
X111088570Y-50832857D01*
X110588570Y-50832857D01*
X112302856Y-51618571D02*
X112159998Y-51547143D01*
X112088570Y-51475714D01*
X112017141Y-51332857D01*
X112017141Y-50904286D01*
X112088570Y-50761429D01*
X112159998Y-50690000D01*
X112302856Y-50618571D01*
X112517141Y-50618571D01*
X112659998Y-50690000D01*
X112731427Y-50761429D01*
X112802856Y-50904286D01*
X112802856Y-51332857D01*
X112731427Y-51475714D01*
X112659998Y-51547143D01*
X112517141Y-51618571D01*
X112302856Y-51618571D01*
X114088570Y-51618571D02*
X114088570Y-50832857D01*
X114017141Y-50690000D01*
X113874284Y-50618571D01*
X113588570Y-50618571D01*
X113445713Y-50690000D01*
X114088570Y-51547143D02*
X113945713Y-51618571D01*
X113588570Y-51618571D01*
X113445713Y-51547143D01*
X113374284Y-51404286D01*
X113374284Y-51261429D01*
X113445713Y-51118571D01*
X113588570Y-51047143D01*
X113945713Y-51047143D01*
X114088570Y-50975714D01*
X114802856Y-51618571D02*
X114802856Y-50618571D01*
X114802856Y-50904286D02*
X114874284Y-50761429D01*
X114945713Y-50690000D01*
X115088570Y-50618571D01*
X115231427Y-50618571D01*
X116374284Y-51618571D02*
X116374284Y-50118571D01*
X116374284Y-51547143D02*
X116231427Y-51618571D01*
X115945713Y-51618571D01*
X115802855Y-51547143D01*
X115731427Y-51475714D01*
X115659998Y-51332857D01*
X115659998Y-50904286D01*
X115731427Y-50761429D01*
X115802855Y-50690000D01*
X115945713Y-50618571D01*
X116231427Y-50618571D01*
X116374284Y-50690000D01*
X73945714Y-52661429D02*
X74017143Y-52590000D01*
X74160000Y-52518571D01*
X74517143Y-52518571D01*
X74660000Y-52590000D01*
X74731429Y-52661429D01*
X74802857Y-52804286D01*
X74802857Y-52947143D01*
X74731429Y-53161429D01*
X73874286Y-54018571D01*
X74802857Y-54018571D01*
X75731428Y-52518571D02*
X75874285Y-52518571D01*
X76017142Y-52590000D01*
X76088571Y-52661429D01*
X76160000Y-52804286D01*
X76231428Y-53090000D01*
X76231428Y-53447143D01*
X76160000Y-53732857D01*
X76088571Y-53875714D01*
X76017142Y-53947143D01*
X75874285Y-54018571D01*
X75731428Y-54018571D01*
X75588571Y-53947143D01*
X75517142Y-53875714D01*
X75445714Y-53732857D01*
X75374285Y-53447143D01*
X75374285Y-53090000D01*
X75445714Y-52804286D01*
X75517142Y-52661429D01*
X75588571Y-52590000D01*
X75731428Y-52518571D01*
X77659999Y-54018571D02*
X76802856Y-54018571D01*
X77231428Y-54018571D02*
X77231428Y-52518571D01*
X77088571Y-52732857D01*
X76945713Y-52875714D01*
X76802856Y-52947143D01*
X79017142Y-52518571D02*
X78302856Y-52518571D01*
X78231427Y-53232857D01*
X78302856Y-53161429D01*
X78445713Y-53090000D01*
X78802856Y-53090000D01*
X78945713Y-53161429D01*
X79017142Y-53232857D01*
X79088570Y-53375714D01*
X79088570Y-53732857D01*
X79017142Y-53875714D01*
X78945713Y-53947143D01*
X78802856Y-54018571D01*
X78445713Y-54018571D01*
X78302856Y-53947143D01*
X78231427Y-53875714D01*
X80659998Y-52518571D02*
X81517141Y-52518571D01*
X81088570Y-54018571D02*
X81088570Y-52518571D01*
X82017141Y-54018571D02*
X82017141Y-52518571D01*
X82659998Y-54018571D02*
X82659998Y-53232857D01*
X82588569Y-53090000D01*
X82445712Y-53018571D01*
X82231427Y-53018571D01*
X82088569Y-53090000D01*
X82017141Y-53161429D01*
X83588570Y-54018571D02*
X83445712Y-53947143D01*
X83374284Y-53875714D01*
X83302855Y-53732857D01*
X83302855Y-53304286D01*
X83374284Y-53161429D01*
X83445712Y-53090000D01*
X83588570Y-53018571D01*
X83802855Y-53018571D01*
X83945712Y-53090000D01*
X84017141Y-53161429D01*
X84088570Y-53304286D01*
X84088570Y-53732857D01*
X84017141Y-53875714D01*
X83945712Y-53947143D01*
X83802855Y-54018571D01*
X83588570Y-54018571D01*
X84731427Y-54018571D02*
X84731427Y-53018571D01*
X84731427Y-53161429D02*
X84802855Y-53090000D01*
X84945713Y-53018571D01*
X85159998Y-53018571D01*
X85302855Y-53090000D01*
X85374284Y-53232857D01*
X85374284Y-54018571D01*
X85374284Y-53232857D02*
X85445713Y-53090000D01*
X85588570Y-53018571D01*
X85802855Y-53018571D01*
X85945713Y-53090000D01*
X86017141Y-53232857D01*
X86017141Y-54018571D01*
X87374284Y-54018571D02*
X87374284Y-53232857D01*
X87302855Y-53090000D01*
X87159998Y-53018571D01*
X86874284Y-53018571D01*
X86731427Y-53090000D01*
X87374284Y-53947143D02*
X87231427Y-54018571D01*
X86874284Y-54018571D01*
X86731427Y-53947143D01*
X86659998Y-53804286D01*
X86659998Y-53661429D01*
X86731427Y-53518571D01*
X86874284Y-53447143D01*
X87231427Y-53447143D01*
X87374284Y-53375714D01*
X88017141Y-53947143D02*
X88159998Y-54018571D01*
X88445713Y-54018571D01*
X88588570Y-53947143D01*
X88659998Y-53804286D01*
X88659998Y-53732857D01*
X88588570Y-53590000D01*
X88445713Y-53518571D01*
X88231427Y-53518571D01*
X88088570Y-53447143D01*
X88017141Y-53304286D01*
X88017141Y-53232857D01*
X88088570Y-53090000D01*
X88231427Y-53018571D01*
X88445713Y-53018571D01*
X88588570Y-53090000D01*
X90302856Y-52518571D02*
X90659999Y-54018571D01*
X90945713Y-52947143D01*
X91231427Y-54018571D01*
X91588570Y-52518571D01*
X92374285Y-54018571D02*
X92231427Y-53947143D01*
X92159999Y-53875714D01*
X92088570Y-53732857D01*
X92088570Y-53304286D01*
X92159999Y-53161429D01*
X92231427Y-53090000D01*
X92374285Y-53018571D01*
X92588570Y-53018571D01*
X92731427Y-53090000D01*
X92802856Y-53161429D01*
X92874285Y-53304286D01*
X92874285Y-53732857D01*
X92802856Y-53875714D01*
X92731427Y-53947143D01*
X92588570Y-54018571D01*
X92374285Y-54018571D01*
X93517142Y-54018571D02*
X93517142Y-53018571D01*
X93517142Y-52518571D02*
X93445713Y-52590000D01*
X93517142Y-52661429D01*
X93588570Y-52590000D01*
X93517142Y-52518571D01*
X93517142Y-52661429D01*
X94231428Y-53018571D02*
X94231428Y-54018571D01*
X94231428Y-53161429D02*
X94302856Y-53090000D01*
X94445714Y-53018571D01*
X94659999Y-53018571D01*
X94802856Y-53090000D01*
X94874285Y-53232857D01*
X94874285Y-54018571D01*
X95588571Y-54018571D02*
X95588571Y-52518571D01*
X95731428Y-53447143D02*
X96159999Y-54018571D01*
X96159999Y-53018571D02*
X95588571Y-53590000D01*
X97374285Y-53947143D02*
X97231428Y-54018571D01*
X96945714Y-54018571D01*
X96802857Y-53947143D01*
X96731428Y-53804286D01*
X96731428Y-53232857D01*
X96802857Y-53090000D01*
X96945714Y-53018571D01*
X97231428Y-53018571D01*
X97374285Y-53090000D01*
X97445714Y-53232857D01*
X97445714Y-53375714D01*
X96731428Y-53518571D01*
X100302856Y-52447143D02*
X99017142Y-54375714D01*
X101945714Y-54018571D02*
X101945714Y-52518571D01*
X102445714Y-53590000D01*
X102945714Y-52518571D01*
X102945714Y-54018571D01*
X104302857Y-54018571D02*
X104302857Y-53232857D01*
X104231428Y-53090000D01*
X104088571Y-53018571D01*
X103802857Y-53018571D01*
X103660000Y-53090000D01*
X104302857Y-53947143D02*
X104160000Y-54018571D01*
X103802857Y-54018571D01*
X103660000Y-53947143D01*
X103588571Y-53804286D01*
X103588571Y-53661429D01*
X103660000Y-53518571D01*
X103802857Y-53447143D01*
X104160000Y-53447143D01*
X104302857Y-53375714D01*
X105017143Y-54018571D02*
X105017143Y-53018571D01*
X105017143Y-53304286D02*
X105088571Y-53161429D01*
X105160000Y-53090000D01*
X105302857Y-53018571D01*
X105445714Y-53018571D01*
X105945714Y-54018571D02*
X105945714Y-52518571D01*
X106088571Y-53447143D02*
X106517142Y-54018571D01*
X106517142Y-53018571D02*
X105945714Y-53590000D01*
X107374286Y-54018571D02*
X107231428Y-53947143D01*
X107160000Y-53875714D01*
X107088571Y-53732857D01*
X107088571Y-53304286D01*
X107160000Y-53161429D01*
X107231428Y-53090000D01*
X107374286Y-53018571D01*
X107588571Y-53018571D01*
X107731428Y-53090000D01*
X107802857Y-53161429D01*
X107874286Y-53304286D01*
X107874286Y-53732857D01*
X107802857Y-53875714D01*
X107731428Y-53947143D01*
X107588571Y-54018571D01*
X107374286Y-54018571D01*
X110374286Y-54018571D02*
X109660000Y-54018571D01*
X109660000Y-52518571D01*
X111517143Y-54018571D02*
X111517143Y-53232857D01*
X111445714Y-53090000D01*
X111302857Y-53018571D01*
X111017143Y-53018571D01*
X110874286Y-53090000D01*
X111517143Y-53947143D02*
X111374286Y-54018571D01*
X111017143Y-54018571D01*
X110874286Y-53947143D01*
X110802857Y-53804286D01*
X110802857Y-53661429D01*
X110874286Y-53518571D01*
X111017143Y-53447143D01*
X111374286Y-53447143D01*
X111517143Y-53375714D01*
X112874286Y-53018571D02*
X112874286Y-54018571D01*
X112231429Y-53018571D02*
X112231429Y-53804286D01*
X112302857Y-53947143D01*
X112445715Y-54018571D01*
X112660000Y-54018571D01*
X112802857Y-53947143D01*
X112874286Y-53875714D01*
X113588572Y-54018571D02*
X113588572Y-52518571D01*
X113731429Y-53447143D02*
X114160000Y-54018571D01*
X114160000Y-53018571D02*
X113588572Y-53590000D01*
X115374286Y-53947143D02*
X115231429Y-54018571D01*
X114945715Y-54018571D01*
X114802858Y-53947143D01*
X114731429Y-53804286D01*
X114731429Y-53232857D01*
X114802858Y-53090000D01*
X114945715Y-53018571D01*
X115231429Y-53018571D01*
X115374286Y-53090000D01*
X115445715Y-53232857D01*
X115445715Y-53375714D01*
X114731429Y-53518571D01*
X74017143Y-56418571D02*
X74017143Y-54918571D01*
X74660000Y-56418571D02*
X74660000Y-55632857D01*
X74588571Y-55490000D01*
X74445714Y-55418571D01*
X74231429Y-55418571D01*
X74088571Y-55490000D01*
X74017143Y-55561429D01*
X75160000Y-55418571D02*
X75731429Y-55418571D01*
X75374286Y-54918571D02*
X75374286Y-56204286D01*
X75445714Y-56347143D01*
X75588572Y-56418571D01*
X75731429Y-56418571D01*
X76017143Y-55418571D02*
X76588572Y-55418571D01*
X76231429Y-54918571D02*
X76231429Y-56204286D01*
X76302857Y-56347143D01*
X76445715Y-56418571D01*
X76588572Y-56418571D01*
X77088572Y-55418571D02*
X77088572Y-56918571D01*
X77088572Y-55490000D02*
X77231429Y-55418571D01*
X77517143Y-55418571D01*
X77660000Y-55490000D01*
X77731429Y-55561429D01*
X77802858Y-55704286D01*
X77802858Y-56132857D01*
X77731429Y-56275714D01*
X77660000Y-56347143D01*
X77517143Y-56418571D01*
X77231429Y-56418571D01*
X77088572Y-56347143D01*
X78445715Y-56275714D02*
X78517143Y-56347143D01*
X78445715Y-56418571D01*
X78374286Y-56347143D01*
X78445715Y-56275714D01*
X78445715Y-56418571D01*
X78445715Y-55490000D02*
X78517143Y-55561429D01*
X78445715Y-55632857D01*
X78374286Y-55561429D01*
X78445715Y-55490000D01*
X78445715Y-55632857D01*
X80231429Y-54847143D02*
X78945715Y-56775714D01*
X81802858Y-54847143D02*
X80517144Y-56775714D01*
X82160002Y-55418571D02*
X82445716Y-56418571D01*
X82731430Y-55704286D01*
X83017145Y-56418571D01*
X83302859Y-55418571D01*
X83731431Y-55418571D02*
X84017145Y-56418571D01*
X84302859Y-55704286D01*
X84588574Y-56418571D01*
X84874288Y-55418571D01*
X85302860Y-55418571D02*
X85588574Y-56418571D01*
X85874288Y-55704286D01*
X86160003Y-56418571D01*
X86445717Y-55418571D01*
X87017146Y-56275714D02*
X87088574Y-56347143D01*
X87017146Y-56418571D01*
X86945717Y-56347143D01*
X87017146Y-56275714D01*
X87017146Y-56418571D01*
X87660003Y-56347143D02*
X87802860Y-56418571D01*
X88088575Y-56418571D01*
X88231432Y-56347143D01*
X88302860Y-56204286D01*
X88302860Y-56132857D01*
X88231432Y-55990000D01*
X88088575Y-55918571D01*
X87874289Y-55918571D01*
X87731432Y-55847143D01*
X87660003Y-55704286D01*
X87660003Y-55632857D01*
X87731432Y-55490000D01*
X87874289Y-55418571D01*
X88088575Y-55418571D01*
X88231432Y-55490000D01*
X88731432Y-55418571D02*
X89302861Y-55418571D01*
X88945718Y-54918571D02*
X88945718Y-56204286D01*
X89017146Y-56347143D01*
X89160004Y-56418571D01*
X89302861Y-56418571D01*
X90374289Y-56347143D02*
X90231432Y-56418571D01*
X89945718Y-56418571D01*
X89802861Y-56347143D01*
X89731432Y-56204286D01*
X89731432Y-55632857D01*
X89802861Y-55490000D01*
X89945718Y-55418571D01*
X90231432Y-55418571D01*
X90374289Y-55490000D01*
X90445718Y-55632857D01*
X90445718Y-55775714D01*
X89731432Y-55918571D01*
X91731432Y-56347143D02*
X91588575Y-56418571D01*
X91302861Y-56418571D01*
X91160003Y-56347143D01*
X91088575Y-56275714D01*
X91017146Y-56132857D01*
X91017146Y-55704286D01*
X91088575Y-55561429D01*
X91160003Y-55490000D01*
X91302861Y-55418571D01*
X91588575Y-55418571D01*
X91731432Y-55490000D01*
X92374289Y-56418571D02*
X92374289Y-54918571D01*
X92517146Y-55847143D02*
X92945717Y-56418571D01*
X92945717Y-55418571D02*
X92374289Y-55990000D01*
X93517146Y-56347143D02*
X93660003Y-56418571D01*
X93945718Y-56418571D01*
X94088575Y-56347143D01*
X94160003Y-56204286D01*
X94160003Y-56132857D01*
X94088575Y-55990000D01*
X93945718Y-55918571D01*
X93731432Y-55918571D01*
X93588575Y-55847143D01*
X93517146Y-55704286D01*
X93517146Y-55632857D01*
X93588575Y-55490000D01*
X93731432Y-55418571D01*
X93945718Y-55418571D01*
X94088575Y-55490000D01*
X95445718Y-56347143D02*
X95302861Y-56418571D01*
X95017147Y-56418571D01*
X94874289Y-56347143D01*
X94802861Y-56275714D01*
X94731432Y-56132857D01*
X94731432Y-55704286D01*
X94802861Y-55561429D01*
X94874289Y-55490000D01*
X95017147Y-55418571D01*
X95302861Y-55418571D01*
X95445718Y-55490000D01*
X96088575Y-56418571D02*
X96088575Y-54918571D01*
X96731432Y-56418571D02*
X96731432Y-55632857D01*
X96660003Y-55490000D01*
X96517146Y-55418571D01*
X96302861Y-55418571D01*
X96160003Y-55490000D01*
X96088575Y-55561429D01*
X97302861Y-55418571D02*
X97588575Y-56418571D01*
X97874289Y-55704286D01*
X98160004Y-56418571D01*
X98445718Y-55418571D01*
X99588575Y-56347143D02*
X99445718Y-56418571D01*
X99160004Y-56418571D01*
X99017147Y-56347143D01*
X98945718Y-56204286D01*
X98945718Y-55632857D01*
X99017147Y-55490000D01*
X99160004Y-55418571D01*
X99445718Y-55418571D01*
X99588575Y-55490000D01*
X99660004Y-55632857D01*
X99660004Y-55775714D01*
X98945718Y-55918571D01*
X100302861Y-56418571D02*
X100302861Y-55418571D01*
X100302861Y-54918571D02*
X100231432Y-54990000D01*
X100302861Y-55061429D01*
X100374289Y-54990000D01*
X100302861Y-54918571D01*
X100302861Y-55061429D01*
X101017147Y-55418571D02*
X101017147Y-56418571D01*
X101017147Y-55561429D02*
X101088575Y-55490000D01*
X101231433Y-55418571D01*
X101445718Y-55418571D01*
X101588575Y-55490000D01*
X101660004Y-55632857D01*
X101660004Y-56418571D01*
X102374290Y-56275714D02*
X102445718Y-56347143D01*
X102374290Y-56418571D01*
X102302861Y-56347143D01*
X102374290Y-56275714D01*
X102374290Y-56418571D01*
X103731433Y-56418571D02*
X103731433Y-54918571D01*
X103731433Y-56347143D02*
X103588576Y-56418571D01*
X103302862Y-56418571D01*
X103160004Y-56347143D01*
X103088576Y-56275714D01*
X103017147Y-56132857D01*
X103017147Y-55704286D01*
X103088576Y-55561429D01*
X103160004Y-55490000D01*
X103302862Y-55418571D01*
X103588576Y-55418571D01*
X103731433Y-55490000D01*
X105017147Y-56347143D02*
X104874290Y-56418571D01*
X104588576Y-56418571D01*
X104445719Y-56347143D01*
X104374290Y-56204286D01*
X104374290Y-55632857D01*
X104445719Y-55490000D01*
X104588576Y-55418571D01*
X104874290Y-55418571D01*
X105017147Y-55490000D01*
X105088576Y-55632857D01*
X105088576Y-55775714D01*
X104374290Y-55918571D01*
X106802861Y-54847143D02*
X105517147Y-56775714D01*
D12*
X90599260Y-61229240D02*
X90599260Y-61729620D01*
X90599260Y-61229240D02*
X91099640Y-61229240D01*
X90599260Y-60728860D02*
X90599260Y-61229240D01*
X90599260Y-61229240D02*
X90200480Y-61229240D01*
X90200480Y-61229240D02*
X90098880Y-61229240D01*
X109489240Y-129110740D02*
X109989620Y-129110740D01*
X109489240Y-129110740D02*
X109489240Y-128610360D01*
X108988860Y-129110740D02*
X109489240Y-129110740D01*
X109489240Y-129110740D02*
X109489240Y-129509520D01*
X109489240Y-129509520D02*
X109489240Y-129611120D01*
X109362240Y-101932740D02*
X109862620Y-101932740D01*
X109362240Y-101932740D02*
X109362240Y-101432360D01*
X108861860Y-101932740D02*
X109362240Y-101932740D01*
X109362240Y-101932740D02*
X109362240Y-102331520D01*
X109362240Y-102331520D02*
X109362240Y-102433120D01*
X109489240Y-73230740D02*
X109989620Y-73230740D01*
X109489240Y-73230740D02*
X109489240Y-72730360D01*
X108988860Y-73230740D02*
X109489240Y-73230740D01*
X109489240Y-73230740D02*
X109489240Y-73629520D01*
X109489240Y-73629520D02*
X109489240Y-73731120D01*
D13*
X173990000Y-124460000D03*
D14*
X171450000Y-124460000D03*
X168910000Y-124460000D03*
X166370000Y-124460000D03*
X163830000Y-124460000D03*
X161290000Y-124460000D03*
X158750000Y-124460000D03*
X156210000Y-124460000D03*
X153670000Y-124460000D03*
X151130000Y-124460000D03*
X151130000Y-132080000D03*
X153670000Y-132080000D03*
X156210000Y-132080000D03*
X158750000Y-132080000D03*
X161290000Y-132080000D03*
X163830000Y-132080000D03*
X166370000Y-132080000D03*
X168910000Y-132080000D03*
X171450000Y-132080000D03*
X173990000Y-132080000D03*
D15*
X115570000Y-69850000D03*
X125730000Y-69850000D03*
D13*
X148590000Y-77470000D03*
D14*
X151130000Y-77470000D03*
X153670000Y-77470000D03*
X156210000Y-77470000D03*
X158750000Y-77470000D03*
X161290000Y-77470000D03*
X163830000Y-77470000D03*
X166370000Y-77470000D03*
X168910000Y-77470000D03*
X171450000Y-77470000D03*
X173990000Y-77470000D03*
X176530000Y-77470000D03*
X179070000Y-77470000D03*
X181610000Y-77470000D03*
X184150000Y-77470000D03*
X186690000Y-77470000D03*
X189230000Y-77470000D03*
X191770000Y-77470000D03*
X194310000Y-77470000D03*
X196850000Y-77470000D03*
X196850000Y-62230000D03*
X194310000Y-62230000D03*
X191770000Y-62230000D03*
X189230000Y-62230000D03*
X186690000Y-62230000D03*
X184150000Y-62230000D03*
X181610000Y-62230000D03*
X179070000Y-62230000D03*
X176530000Y-62230000D03*
X173990000Y-62230000D03*
X171450000Y-62230000D03*
X168910000Y-62230000D03*
X166370000Y-62230000D03*
X163830000Y-62230000D03*
X161290000Y-62230000D03*
X158750000Y-62230000D03*
X156210000Y-62230000D03*
X153670000Y-62230000D03*
X151130000Y-62230000D03*
X148590000Y-62230000D03*
D16*
X203200000Y-133350000D03*
D17*
X203200000Y-130810000D03*
X203200000Y-128270000D03*
X203200000Y-125730000D03*
X203200000Y-123190000D03*
X203200000Y-120650000D03*
X203200000Y-118110000D03*
X203200000Y-115570000D03*
X203200000Y-113030000D03*
X203200000Y-110490000D03*
X203200000Y-107950000D03*
X203200000Y-105410000D03*
X203200000Y-102870000D03*
X203200000Y-100330000D03*
X187960000Y-100330000D03*
X187960000Y-102870000D03*
X187960000Y-105410000D03*
X187960000Y-107950000D03*
X187960000Y-110490000D03*
X187960000Y-113030000D03*
X187960000Y-115570000D03*
X187960000Y-118110000D03*
X187960000Y-120650000D03*
X187960000Y-123190000D03*
X187960000Y-125730000D03*
X187960000Y-128270000D03*
X187960000Y-130810000D03*
X187960000Y-133350000D03*
D16*
X135890000Y-77470000D03*
D17*
X135890000Y-80010000D03*
X135890000Y-82550000D03*
X135890000Y-85090000D03*
X135890000Y-87630000D03*
X135890000Y-90170000D03*
X135890000Y-92710000D03*
X143510000Y-92710000D03*
X143510000Y-90170000D03*
X143510000Y-87630000D03*
X143510000Y-85090000D03*
X143510000Y-82550000D03*
X143510000Y-80010000D03*
X143510000Y-77470000D03*
D18*
X215265000Y-65405000D03*
D19*
X217805000Y-65405000D03*
X215265000Y-67945000D03*
X217805000Y-67945000D03*
X215265000Y-70485000D03*
X217805000Y-70485000D03*
X215265000Y-73025000D03*
X217805000Y-73025000D03*
X215265000Y-75565000D03*
X217805000Y-75565000D03*
X215265000Y-78105000D03*
X217805000Y-78105000D03*
X215265000Y-80645000D03*
X217805000Y-80645000D03*
X215265000Y-83185000D03*
X217805000Y-83185000D03*
X215265000Y-85725000D03*
X217805000Y-85725000D03*
X215265000Y-88265000D03*
X217805000Y-88265000D03*
X215265000Y-90805000D03*
X217805000Y-90805000D03*
X215265000Y-93345000D03*
X217805000Y-93345000D03*
X215265000Y-95885000D03*
X217805000Y-95885000D03*
X215265000Y-98425000D03*
X217805000Y-98425000D03*
X215265000Y-100965000D03*
X217805000Y-100965000D03*
X215265000Y-103505000D03*
X217805000Y-103505000D03*
X215265000Y-106045000D03*
X217805000Y-106045000D03*
X215265000Y-108585000D03*
X217805000Y-108585000D03*
X215265000Y-111125000D03*
X217805000Y-111125000D03*
X215265000Y-113665000D03*
X217805000Y-113665000D03*
X215265000Y-116205000D03*
X217805000Y-116205000D03*
X215265000Y-118745000D03*
X217805000Y-118745000D03*
X215265000Y-121285000D03*
X217805000Y-121285000D03*
X215265000Y-123825000D03*
X217805000Y-123825000D03*
X215265000Y-126365000D03*
X217805000Y-126365000D03*
D20*
X156210000Y-53340000D03*
X156210000Y-55880000D03*
X140970000Y-53340000D03*
X140970000Y-55880000D03*
X171450000Y-68580000D03*
X171450000Y-71120000D03*
X194310000Y-123190000D03*
X196850000Y-123190000D03*
X140970000Y-72390000D03*
X138430000Y-72390000D03*
X208280000Y-91440000D03*
X208280000Y-88900000D03*
X88900000Y-63500000D03*
X88900000Y-60960000D03*
X111760000Y-130810000D03*
X109220000Y-130810000D03*
X111633000Y-103632000D03*
X109093000Y-103632000D03*
X111760000Y-74930000D03*
X109220000Y-74930000D03*
D15*
X120650000Y-132080000D03*
X130810000Y-132080000D03*
X120650000Y-109220000D03*
X130810000Y-109220000D03*
X120650000Y-82550000D03*
X130810000Y-82550000D03*
X115570000Y-124460000D03*
X125730000Y-124460000D03*
X115570000Y-101600000D03*
X125730000Y-101600000D03*
X115570000Y-73660000D03*
X125730000Y-73660000D03*
X115570000Y-97790000D03*
X125730000Y-97790000D03*
X115570000Y-120650000D03*
X125730000Y-120650000D03*
X125730000Y-113030000D03*
X115570000Y-113030000D03*
X115570000Y-90170000D03*
X125730000Y-90170000D03*
X115570000Y-93980000D03*
X125730000Y-93980000D03*
X115570000Y-62230000D03*
X125730000Y-62230000D03*
X115570000Y-66040000D03*
X125730000Y-66040000D03*
X125730000Y-86360000D03*
X115570000Y-86360000D03*
X125730000Y-58420000D03*
X115570000Y-58420000D03*
X95250000Y-133350000D03*
X105410000Y-133350000D03*
X105283000Y-104902000D03*
X95123000Y-104902000D03*
X105410000Y-77470000D03*
X95250000Y-77470000D03*
X125730000Y-116840000D03*
X115570000Y-116840000D03*
D13*
X173990000Y-86360000D03*
D14*
X171450000Y-86360000D03*
X168910000Y-86360000D03*
X166370000Y-86360000D03*
X163830000Y-86360000D03*
X161290000Y-86360000D03*
X158750000Y-86360000D03*
X156210000Y-86360000D03*
X153670000Y-86360000D03*
X151130000Y-86360000D03*
X151130000Y-93980000D03*
X153670000Y-93980000D03*
X156210000Y-93980000D03*
X158750000Y-93980000D03*
X161290000Y-93980000D03*
X163830000Y-93980000D03*
X166370000Y-93980000D03*
X168910000Y-93980000D03*
X171450000Y-93980000D03*
X173990000Y-93980000D03*
D13*
X173990000Y-105410000D03*
D14*
X171450000Y-105410000D03*
X168910000Y-105410000D03*
X166370000Y-105410000D03*
X163830000Y-105410000D03*
X161290000Y-105410000D03*
X158750000Y-105410000D03*
X156210000Y-105410000D03*
X153670000Y-105410000D03*
X151130000Y-105410000D03*
X151130000Y-113030000D03*
X153670000Y-113030000D03*
X156210000Y-113030000D03*
X158750000Y-113030000D03*
X161290000Y-113030000D03*
X163830000Y-113030000D03*
X166370000Y-113030000D03*
X168910000Y-113030000D03*
X171450000Y-113030000D03*
X173990000Y-113030000D03*
D13*
X203200000Y-86360000D03*
D14*
X200660000Y-86360000D03*
X198120000Y-86360000D03*
X195580000Y-86360000D03*
X193040000Y-86360000D03*
X190500000Y-86360000D03*
X187960000Y-86360000D03*
X187960000Y-93980000D03*
X190500000Y-93980000D03*
X193040000Y-93980000D03*
X195580000Y-93980000D03*
X198120000Y-93980000D03*
X200660000Y-93980000D03*
X203200000Y-93980000D03*
D15*
X95250000Y-129540000D03*
X105410000Y-129540000D03*
X95250000Y-101600000D03*
X105410000Y-101600000D03*
X95250000Y-73660000D03*
X105410000Y-73660000D03*
D21*
X73660000Y-68580000D03*
D22*
X73660000Y-66040000D03*
X73660000Y-63500000D03*
X73660000Y-60960000D03*
D23*
X106680000Y-137795000D03*
X107950000Y-136525000D03*
X109220000Y-137795000D03*
D24*
X77470000Y-60960000D03*
D25*
X82550000Y-60960000D03*
D21*
X133350000Y-68961000D03*
D22*
X133350000Y-66421000D03*
X133350000Y-63881000D03*
D23*
X119380000Y-128905000D03*
X120650000Y-127635000D03*
X121920000Y-128905000D03*
X119380000Y-106045000D03*
X120650000Y-104775000D03*
X121920000Y-106045000D03*
X119380000Y-79375000D03*
X120650000Y-78105000D03*
X121920000Y-79375000D03*
X106680000Y-109855000D03*
X107950000Y-108585000D03*
X109220000Y-109855000D03*
X106680000Y-81915000D03*
X107950000Y-80645000D03*
X109220000Y-81915000D03*
X99060000Y-137795000D03*
X100330000Y-136525000D03*
X101600000Y-137795000D03*
X99060000Y-109855000D03*
X100330000Y-108585000D03*
X101600000Y-109855000D03*
X99060000Y-81915000D03*
X100330000Y-80645000D03*
X101600000Y-81915000D03*
X119380000Y-137795000D03*
X120650000Y-136525000D03*
X121920000Y-137795000D03*
D26*
X110251240Y-91361260D03*
X95250000Y-96362520D03*
X95250000Y-86360000D03*
X110251240Y-63421260D03*
X95250000Y-68422520D03*
X95250000Y-58420000D03*
X110251240Y-119301260D03*
X95250000Y-124302520D03*
X95250000Y-114300000D03*
D27*
X179070000Y-110490000D03*
D28*
X179070000Y-107990000D03*
D27*
X179070000Y-129540000D03*
D28*
X179070000Y-127040000D03*
D27*
X179070000Y-91440000D03*
D28*
X179070000Y-88940000D03*
D20*
X151030940Y-55880000D03*
X146149060Y-55880000D03*
D29*
X77724000Y-111760000D03*
D30*
X68834000Y-106680000D03*
D29*
X77724000Y-101600000D03*
X77724000Y-106680000D03*
X77724000Y-125730000D03*
D30*
X68834000Y-120650000D03*
D29*
X77724000Y-115570000D03*
X77724000Y-120650000D03*
X77724000Y-97790000D03*
D30*
X68834000Y-92710000D03*
D29*
X77724000Y-87630000D03*
X77724000Y-92710000D03*
X77724000Y-83820000D03*
D30*
X68834000Y-78740000D03*
D29*
X77724000Y-73660000D03*
X77724000Y-78740000D03*
D31*
X203200000Y-139573000D03*
X148755070Y-132080000D03*
D32*
X203200000Y-133350000D02*
X203200000Y-139573000D01*
X136017000Y-92710000D02*
X135890000Y-92710000D01*
X151130000Y-124815600D02*
X151130000Y-124460000D01*
X187960000Y-86715600D02*
X187960000Y-86360000D01*
X202844400Y-100330000D02*
X203200000Y-100330000D01*
X196850000Y-106324400D02*
X202844400Y-100330000D01*
X196850000Y-123190000D02*
X196850000Y-106324400D01*
X151130000Y-105765600D02*
X151130000Y-105410000D01*
X152679400Y-107696000D02*
X151130000Y-105765600D01*
X172440600Y-107696000D02*
X152679400Y-107696000D01*
X173990000Y-105765600D02*
X172440600Y-107696000D01*
X173990000Y-105410000D02*
X173990000Y-105765600D01*
X217805000Y-118745000D02*
X220345000Y-118745000D01*
X209550000Y-102108000D02*
X209550000Y-143510000D01*
X194310000Y-123190000D02*
X194310000Y-127000000D01*
X194310000Y-127000000D02*
X187960000Y-133350000D01*
X187960000Y-133350000D02*
X187960000Y-142875000D01*
X166370000Y-62230000D02*
X166370000Y-49149000D01*
X215265000Y-65405000D02*
X215265000Y-64897000D01*
X215265000Y-64897000D02*
X216408000Y-63754000D01*
X216408000Y-63754000D02*
X219329000Y-63754000D01*
X141732000Y-78892400D02*
X141732000Y-143129000D01*
X143154400Y-77470000D02*
X141732000Y-78892400D01*
X173990000Y-132080000D02*
X175387000Y-133477000D01*
X175387000Y-133477000D02*
X175387000Y-143002000D01*
X203200000Y-93980000D02*
X203200000Y-95758000D01*
X203200000Y-95758000D02*
X209550000Y-102108000D01*
X173990000Y-132080000D02*
X175348901Y-130721099D01*
X175348901Y-130721099D02*
X175348901Y-116166901D01*
X175348901Y-116166901D02*
X173990000Y-114808000D01*
X173990000Y-114808000D02*
X173990000Y-113030000D01*
X179070000Y-129540000D02*
X176530000Y-129540000D01*
X176530000Y-129540000D02*
X173990000Y-132080000D01*
X173990000Y-93980000D02*
X173990000Y-95758000D01*
X173990000Y-95758000D02*
X175348901Y-97116901D01*
X175348901Y-97116901D02*
X175348901Y-111671099D01*
X175348901Y-111671099D02*
X173990000Y-113030000D01*
X179070000Y-110490000D02*
X176530000Y-110490000D01*
X176530000Y-110490000D02*
X173990000Y-113030000D01*
X179070000Y-91440000D02*
X176530000Y-91440000D01*
X176530000Y-91440000D02*
X173990000Y-93980000D01*
X203200000Y-93980000D02*
X203200000Y-94335600D01*
X143510000Y-77470000D02*
X143154400Y-77470000D01*
X208280000Y-91440000D02*
X205740000Y-91440000D01*
X205740000Y-91440000D02*
X203200000Y-93980000D01*
X73660000Y-68580000D02*
X64643000Y-68580000D01*
X140970000Y-72390000D02*
X140970000Y-74930000D01*
X140970000Y-74930000D02*
X143510000Y-77470000D01*
X173990000Y-93980000D02*
X173990000Y-94335600D01*
X173990000Y-93980000D02*
X173990000Y-93624400D01*
D33*
X193040000Y-94335600D02*
X193040000Y-93980000D01*
X194208410Y-95504010D02*
X193040000Y-94335600D01*
X196063971Y-95504010D02*
X194208410Y-95504010D01*
X196748410Y-94819571D02*
X196063971Y-95504010D01*
X196748410Y-90627190D02*
X196748410Y-94819571D01*
X200660000Y-86715600D02*
X196748410Y-90627190D01*
X200660000Y-86360000D02*
X200660000Y-86715600D01*
D34*
X73660000Y-60960000D02*
X77470000Y-60960000D01*
D33*
X179070000Y-77470000D02*
X179070000Y-77825600D01*
X179070000Y-77825600D02*
X185953400Y-84709000D01*
X185953400Y-84709000D02*
X205763726Y-84709000D01*
X205763726Y-84709000D02*
X214020399Y-92965673D01*
X214020399Y-92965673D02*
X214020399Y-99022409D01*
X214020399Y-99022409D02*
X214718389Y-99720399D01*
X214718389Y-99720399D02*
X216560399Y-99720399D01*
X216560399Y-99720399D02*
X217805000Y-100965000D01*
X120650000Y-127635000D02*
X124598128Y-127635000D01*
X124598128Y-127635000D02*
X128524000Y-123709128D01*
X128524000Y-123709128D02*
X128524000Y-73279000D01*
X128524000Y-73279000D02*
X132842000Y-68961000D01*
X132842000Y-68961000D02*
X133350000Y-68961000D01*
X158750000Y-62230000D02*
X158750000Y-62585600D01*
X120650000Y-104775000D02*
X124598128Y-104775000D01*
X124598128Y-104775000D02*
X127762000Y-101611128D01*
X127762000Y-101611128D02*
X127762000Y-71501000D01*
X127762000Y-71501000D02*
X132842000Y-66421000D01*
X132842000Y-66421000D02*
X133350000Y-66421000D01*
X133350000Y-66040000D02*
X132715000Y-66040000D01*
X153670000Y-62611000D02*
X153670000Y-62230000D01*
X133350000Y-63881000D02*
X132842000Y-63881000D01*
X132842000Y-63881000D02*
X127110491Y-69612509D01*
X127110491Y-69612509D02*
X127110491Y-74322637D01*
X127110491Y-74322637D02*
X123328128Y-78105000D01*
X123328128Y-78105000D02*
X120650000Y-78105000D01*
X159639000Y-63881000D02*
X133350000Y-63881000D01*
X159639000Y-63881000D02*
X161290000Y-62230000D01*
X161290000Y-62484000D02*
X161290000Y-62230000D01*
X121920000Y-137795000D02*
X119584990Y-140130010D01*
X119584990Y-140130010D02*
X99795128Y-140130010D01*
X99795128Y-140130010D02*
X80315118Y-120650000D01*
X80315118Y-120650000D02*
X77724000Y-120650000D01*
X90170000Y-78740000D02*
X95250000Y-73660000D01*
X77724000Y-78740000D02*
X90170000Y-78740000D01*
X151130000Y-77470000D02*
X151130000Y-77114400D01*
X153670000Y-93980000D02*
X153670000Y-94335600D01*
X153670000Y-92583000D02*
X153670000Y-93980000D01*
X152501590Y-91414590D02*
X153670000Y-92583000D01*
X152501590Y-76225410D02*
X152501590Y-91414590D01*
X164846000Y-63881000D02*
X152501590Y-76225410D01*
X166751000Y-63881000D02*
X164846000Y-63881000D01*
X166853971Y-63778029D02*
X166751000Y-63881000D01*
X166853971Y-63754010D02*
X166853971Y-63778029D01*
X167538410Y-63069571D02*
X166853971Y-63754010D01*
X167538410Y-61569590D02*
X167538410Y-63069571D01*
X168402000Y-60706000D02*
X167538410Y-61569590D01*
X168426019Y-60706000D02*
X168402000Y-60706000D01*
X168426029Y-60705990D02*
X168426019Y-60706000D01*
X169393971Y-60705990D02*
X168426029Y-60705990D01*
X169393981Y-60706000D02*
X169393971Y-60705990D01*
X170966019Y-60706000D02*
X169393981Y-60706000D01*
X170966029Y-60705990D02*
X170966019Y-60706000D01*
X171933971Y-60705990D02*
X170966029Y-60705990D01*
X171933981Y-60706000D02*
X171933971Y-60705990D01*
X173506019Y-60706000D02*
X171933981Y-60706000D01*
X173506029Y-60705990D02*
X173506019Y-60706000D01*
X174473971Y-60705990D02*
X173506029Y-60705990D01*
X174473981Y-60706000D02*
X174473971Y-60705990D01*
X176046019Y-60706000D02*
X174473981Y-60706000D01*
X176046029Y-60705990D02*
X176046019Y-60706000D01*
X177013981Y-60706000D02*
X177013971Y-60705990D01*
X178586019Y-60706000D02*
X177013981Y-60706000D01*
X178586029Y-60705990D02*
X178586019Y-60706000D01*
X179553971Y-60705990D02*
X178586029Y-60705990D01*
X179553981Y-60706000D02*
X179553971Y-60705990D01*
X181126019Y-60706000D02*
X179553981Y-60706000D01*
X181126029Y-60705990D02*
X181126019Y-60706000D01*
X182093971Y-60705990D02*
X181126029Y-60705990D01*
X182093981Y-60706000D02*
X182093971Y-60705990D01*
X183666019Y-60706000D02*
X182093981Y-60706000D01*
X183666029Y-60705990D02*
X183666019Y-60706000D01*
X184633971Y-60705990D02*
X183666029Y-60705990D01*
X184633981Y-60706000D02*
X184633971Y-60705990D01*
X185521600Y-60706000D02*
X184633981Y-60706000D01*
X186690000Y-61874400D02*
X185521600Y-60706000D01*
X177013971Y-60705990D02*
X176046029Y-60705990D01*
X186690000Y-62230000D02*
X186690000Y-61874400D01*
X156210000Y-93980000D02*
X156210000Y-94335600D01*
X156210000Y-94335600D02*
X160045400Y-98171000D01*
X160045400Y-98171000D02*
X169291000Y-98171000D01*
X169291000Y-98171000D02*
X172618410Y-94843590D01*
X172618410Y-94843590D02*
X172618410Y-92735410D01*
X172618410Y-92735410D02*
X170180000Y-90297000D01*
X170180000Y-90297000D02*
X170180000Y-76200000D01*
X170180000Y-76200000D02*
X184150000Y-62230000D01*
X170078410Y-94908888D02*
X170078410Y-92735410D01*
X158750000Y-93980000D02*
X158750000Y-94335600D01*
X158750000Y-94335600D02*
X161569380Y-97154980D01*
X161569380Y-97154980D02*
X167832318Y-97154980D01*
X167832318Y-97154980D02*
X170078410Y-94908888D01*
X170078410Y-92735410D02*
X167741590Y-90398590D01*
X167741590Y-90398590D02*
X167741590Y-76630429D01*
X167741590Y-76630429D02*
X168680019Y-75692000D01*
X168680019Y-75692000D02*
X169545000Y-75692000D01*
X169545000Y-75692000D02*
X181610000Y-63627000D01*
X181610000Y-63627000D02*
X181610000Y-62230000D01*
X179070000Y-65151000D02*
X179070000Y-62230000D01*
X169037010Y-75183990D02*
X179070000Y-65151000D01*
X165201590Y-76630429D02*
X166648029Y-75183990D01*
X165201590Y-90398590D02*
X165201590Y-76630429D01*
X167538410Y-92735410D02*
X165201590Y-90398590D01*
X166413546Y-96012020D02*
X167538410Y-94887156D01*
X167538410Y-94887156D02*
X167538410Y-92735410D01*
X166648029Y-75183990D02*
X169037010Y-75183990D01*
X162966420Y-96012020D02*
X166413546Y-96012020D01*
X161290000Y-94335600D02*
X162966420Y-96012020D01*
X161290000Y-93980000D02*
X161290000Y-94335600D01*
X176125274Y-62230000D02*
X176530000Y-62230000D01*
X162560000Y-75795274D02*
X176125274Y-62230000D01*
X162560000Y-91440000D02*
X162560000Y-75795274D01*
X163830000Y-92710000D02*
X162560000Y-91440000D01*
X163830000Y-93980000D02*
X163830000Y-92710000D01*
X166370000Y-93980000D02*
X166370000Y-93472000D01*
X164845990Y-95504010D02*
X166370000Y-93980000D01*
X163346029Y-95504010D02*
X164845990Y-95504010D01*
X162458410Y-94616391D02*
X163346029Y-95504010D01*
X162458410Y-92735410D02*
X162458410Y-94616391D01*
X160121590Y-90398590D02*
X162458410Y-92735410D01*
X160121590Y-76098410D02*
X160121590Y-90398590D01*
X173990000Y-62230000D02*
X160121590Y-76098410D01*
X171450000Y-62230000D02*
X171450000Y-61874400D01*
X157581590Y-76098410D02*
X171450000Y-62230000D01*
X157581590Y-90398590D02*
X157581590Y-76098410D01*
X159918410Y-92735410D02*
X157581590Y-90398590D01*
X159918410Y-94616391D02*
X159918410Y-92735410D01*
X161948989Y-96646970D02*
X159918410Y-94616391D01*
X166598630Y-96646970D02*
X161948989Y-96646970D01*
X168910000Y-94335600D02*
X166598630Y-96646970D01*
X168910000Y-93980000D02*
X168910000Y-94335600D01*
X154940000Y-76555600D02*
X168910000Y-62585600D01*
X171450000Y-93980000D02*
X171450000Y-94335600D01*
X171450000Y-94335600D02*
X168122610Y-97662990D01*
X168122610Y-97662990D02*
X160425009Y-97662990D01*
X160425009Y-97662990D02*
X157378410Y-94616391D01*
X168910000Y-62585600D02*
X168910000Y-62230000D01*
X154940000Y-90170000D02*
X154940000Y-76555600D01*
X157378410Y-92608410D02*
X154940000Y-90170000D01*
X157378410Y-94616391D02*
X157378410Y-92608410D01*
X151130000Y-132080000D02*
X148755070Y-132080000D01*
X136245600Y-85090000D02*
X135890000Y-85090000D01*
X143865600Y-87630000D02*
X143510000Y-87630000D01*
X145034010Y-88798410D02*
X143865600Y-87630000D01*
X145034010Y-106934010D02*
X145034010Y-88798410D01*
X151130000Y-113030000D02*
X145034010Y-106934010D01*
X195580000Y-86360000D02*
X195580000Y-93980000D01*
X187960000Y-93624400D02*
X187960000Y-93980000D01*
X187960000Y-92710000D02*
X187960000Y-93624400D01*
X193040000Y-87630000D02*
X187960000Y-92710000D01*
X193040000Y-86360000D02*
X193040000Y-87630000D01*
X90170000Y-106680000D02*
X95250000Y-101600000D01*
X77724000Y-106680000D02*
X90170000Y-106680000D01*
X173990000Y-77825600D02*
X173990000Y-77470000D01*
D34*
X95250000Y-58420000D02*
X112974832Y-58420000D01*
X112974832Y-58420000D02*
X114728323Y-56666509D01*
X114728323Y-56666509D02*
X116411677Y-56666509D01*
X116411677Y-56666509D02*
X118745000Y-58999832D01*
X118745000Y-58999832D02*
X118745000Y-78740000D01*
X118745000Y-78740000D02*
X119380000Y-79375000D01*
X119380000Y-79375000D02*
X118745000Y-80010000D01*
X118745000Y-80010000D02*
X118745000Y-105021922D01*
X118745000Y-105021922D02*
X119380000Y-105656922D01*
X119380000Y-105656922D02*
X119380000Y-106045000D01*
X82550000Y-60960000D02*
X88900000Y-60960000D01*
X92710000Y-60960000D02*
X95250000Y-58420000D01*
X88900000Y-60960000D02*
X92710000Y-60960000D01*
X99060000Y-82550000D02*
X95250000Y-86360000D01*
X99060000Y-81915000D02*
X99060000Y-82550000D01*
X98806000Y-109601000D02*
X99060000Y-109855000D01*
X98806000Y-89916000D02*
X98806000Y-109601000D01*
X95250000Y-86360000D02*
X98806000Y-89916000D01*
X99060000Y-110490000D02*
X95250000Y-114300000D01*
X99060000Y-109855000D02*
X99060000Y-110490000D01*
X98360001Y-137095001D02*
X99060000Y-137795000D01*
X98360001Y-117410001D02*
X98360001Y-137095001D01*
X95250000Y-114300000D02*
X98360001Y-117410001D01*
X98298000Y-81153000D02*
X99060000Y-81915000D01*
X98298000Y-61468000D02*
X98298000Y-81153000D01*
X95250000Y-58420000D02*
X98298000Y-61468000D01*
X117925999Y-139249001D02*
X119380000Y-137795000D01*
X100514001Y-139249001D02*
X117925999Y-139249001D01*
X99060000Y-137795000D02*
X100514001Y-139249001D01*
X118745000Y-106680000D02*
X119380000Y-106045000D01*
X118745000Y-128143000D02*
X118745000Y-106680000D01*
X119507000Y-128905000D02*
X118745000Y-128143000D01*
X118745000Y-129667000D02*
X119507000Y-128905000D01*
X118745000Y-137160000D02*
X118745000Y-129667000D01*
X119380000Y-137795000D02*
X118745000Y-137160000D01*
D33*
G36*
X221565000Y-145365000D02*
X219329000Y-145365000D01*
X219329000Y-142367000D01*
X219329000Y-49403000D01*
X117516427Y-49403000D01*
X117516427Y-48805000D01*
X72875000Y-48805000D01*
X72875000Y-49403000D01*
X65151000Y-49403000D01*
X65151000Y-142367000D01*
X219329000Y-142367000D01*
X219329000Y-145365000D01*
X62915000Y-145365000D01*
X62915000Y-46405000D01*
X221565000Y-46405000D01*
X221565000Y-145365000D01*
X221565000Y-145365000D01*
G37*
X221565000Y-145365000D02*
X219329000Y-145365000D01*
X219329000Y-142367000D01*
X219329000Y-49403000D01*
X117516427Y-49403000D01*
X117516427Y-48805000D01*
X72875000Y-48805000D01*
X72875000Y-49403000D01*
X65151000Y-49403000D01*
X65151000Y-142367000D01*
X219329000Y-142367000D01*
X219329000Y-145365000D01*
X62915000Y-145365000D01*
X62915000Y-46405000D01*
X221565000Y-46405000D01*
X221565000Y-145365000D01*
G36*
X159893000Y-59563000D02*
X157607767Y-59563000D01*
X157607767Y-53544966D01*
X157579805Y-52994462D01*
X157422931Y-52615735D01*
X157181930Y-52547675D01*
X157002325Y-52727280D01*
X157002325Y-52368070D01*
X156934265Y-52127069D01*
X156414966Y-51942233D01*
X155864462Y-51970195D01*
X155485735Y-52127069D01*
X155417675Y-52368070D01*
X156210000Y-53160395D01*
X157002325Y-52368070D01*
X157002325Y-52727280D01*
X156389605Y-53340000D01*
X157181930Y-54132325D01*
X157422931Y-54064265D01*
X157607767Y-53544966D01*
X157607767Y-59563000D01*
X157595810Y-59563000D01*
X157595810Y-55605602D01*
X157385314Y-55096163D01*
X156995887Y-54706056D01*
X156780503Y-54616621D01*
X156934265Y-54552931D01*
X157002325Y-54311930D01*
X156210000Y-53519605D01*
X156030395Y-53699210D01*
X156030395Y-53340000D01*
X155238070Y-52547675D01*
X154997069Y-52615735D01*
X154812233Y-53135034D01*
X154840195Y-53685538D01*
X154997069Y-54064265D01*
X155238070Y-54132325D01*
X156030395Y-53340000D01*
X156030395Y-53699210D01*
X155417675Y-54311930D01*
X155485735Y-54552931D01*
X155651040Y-54611768D01*
X155426163Y-54704686D01*
X155036056Y-55094113D01*
X154824671Y-55603184D01*
X154824190Y-56154398D01*
X155034686Y-56663837D01*
X155424113Y-57053944D01*
X155933184Y-57265329D01*
X156484398Y-57265810D01*
X156993837Y-57055314D01*
X157383944Y-56665887D01*
X157595329Y-56156816D01*
X157595810Y-55605602D01*
X157595810Y-59563000D01*
X152416750Y-59563000D01*
X152416750Y-55605602D01*
X152206254Y-55096163D01*
X151816827Y-54706056D01*
X151307756Y-54494671D01*
X150756542Y-54494190D01*
X150247103Y-54704686D01*
X149856996Y-55094113D01*
X149645611Y-55603184D01*
X149645130Y-56154398D01*
X149855626Y-56663837D01*
X150245053Y-57053944D01*
X150754124Y-57265329D01*
X151305338Y-57265810D01*
X151814777Y-57055314D01*
X152204884Y-56665887D01*
X152416269Y-56156816D01*
X152416750Y-55605602D01*
X152416750Y-59563000D01*
X147534870Y-59563000D01*
X147534870Y-55605602D01*
X147324374Y-55096163D01*
X146934947Y-54706056D01*
X146425876Y-54494671D01*
X145874662Y-54494190D01*
X145365223Y-54704686D01*
X144975116Y-55094113D01*
X144763731Y-55603184D01*
X144763250Y-56154398D01*
X144973746Y-56663837D01*
X145363173Y-57053944D01*
X145872244Y-57265329D01*
X146423458Y-57265810D01*
X146932897Y-57055314D01*
X147323004Y-56665887D01*
X147534389Y-56156816D01*
X147534870Y-55605602D01*
X147534870Y-59563000D01*
X142367767Y-59563000D01*
X142367767Y-53544966D01*
X142339805Y-52994462D01*
X142182931Y-52615735D01*
X141941930Y-52547675D01*
X141762325Y-52727280D01*
X141762325Y-52368070D01*
X141694265Y-52127069D01*
X141174966Y-51942233D01*
X140624462Y-51970195D01*
X140245735Y-52127069D01*
X140177675Y-52368070D01*
X140970000Y-53160395D01*
X141762325Y-52368070D01*
X141762325Y-52727280D01*
X141149605Y-53340000D01*
X141941930Y-54132325D01*
X142182931Y-54064265D01*
X142367767Y-53544966D01*
X142367767Y-59563000D01*
X142355810Y-59563000D01*
X142355810Y-55605602D01*
X142145314Y-55096163D01*
X141755887Y-54706056D01*
X141540503Y-54616621D01*
X141694265Y-54552931D01*
X141762325Y-54311930D01*
X140970000Y-53519605D01*
X140790395Y-53699210D01*
X140790395Y-53340000D01*
X139998070Y-52547675D01*
X139757069Y-52615735D01*
X139572233Y-53135034D01*
X139600195Y-53685538D01*
X139757069Y-54064265D01*
X139998070Y-54132325D01*
X140790395Y-53340000D01*
X140790395Y-53699210D01*
X140177675Y-54311930D01*
X140245735Y-54552931D01*
X140411040Y-54611768D01*
X140186163Y-54704686D01*
X139796056Y-55094113D01*
X139584671Y-55603184D01*
X139584190Y-56154398D01*
X139794686Y-56663837D01*
X140184113Y-57053944D01*
X140693184Y-57265329D01*
X141244398Y-57265810D01*
X141753837Y-57055314D01*
X142143944Y-56665887D01*
X142355329Y-56156816D01*
X142355810Y-55605602D01*
X142355810Y-59563000D01*
X138557000Y-59563000D01*
X138557000Y-50927000D01*
X139700000Y-50927000D01*
X159893000Y-50927000D01*
X159893000Y-59563000D01*
X159893000Y-59563000D01*
G37*
X159893000Y-59563000D02*
X157607767Y-59563000D01*
X157607767Y-53544966D01*
X157579805Y-52994462D01*
X157422931Y-52615735D01*
X157181930Y-52547675D01*
X157002325Y-52727280D01*
X157002325Y-52368070D01*
X156934265Y-52127069D01*
X156414966Y-51942233D01*
X155864462Y-51970195D01*
X155485735Y-52127069D01*
X155417675Y-52368070D01*
X156210000Y-53160395D01*
X157002325Y-52368070D01*
X157002325Y-52727280D01*
X156389605Y-53340000D01*
X157181930Y-54132325D01*
X157422931Y-54064265D01*
X157607767Y-53544966D01*
X157607767Y-59563000D01*
X157595810Y-59563000D01*
X157595810Y-55605602D01*
X157385314Y-55096163D01*
X156995887Y-54706056D01*
X156780503Y-54616621D01*
X156934265Y-54552931D01*
X157002325Y-54311930D01*
X156210000Y-53519605D01*
X156030395Y-53699210D01*
X156030395Y-53340000D01*
X155238070Y-52547675D01*
X154997069Y-52615735D01*
X154812233Y-53135034D01*
X154840195Y-53685538D01*
X154997069Y-54064265D01*
X155238070Y-54132325D01*
X156030395Y-53340000D01*
X156030395Y-53699210D01*
X155417675Y-54311930D01*
X155485735Y-54552931D01*
X155651040Y-54611768D01*
X155426163Y-54704686D01*
X155036056Y-55094113D01*
X154824671Y-55603184D01*
X154824190Y-56154398D01*
X155034686Y-56663837D01*
X155424113Y-57053944D01*
X155933184Y-57265329D01*
X156484398Y-57265810D01*
X156993837Y-57055314D01*
X157383944Y-56665887D01*
X157595329Y-56156816D01*
X157595810Y-55605602D01*
X157595810Y-59563000D01*
X152416750Y-59563000D01*
X152416750Y-55605602D01*
X152206254Y-55096163D01*
X151816827Y-54706056D01*
X151307756Y-54494671D01*
X150756542Y-54494190D01*
X150247103Y-54704686D01*
X149856996Y-55094113D01*
X149645611Y-55603184D01*
X149645130Y-56154398D01*
X149855626Y-56663837D01*
X150245053Y-57053944D01*
X150754124Y-57265329D01*
X151305338Y-57265810D01*
X151814777Y-57055314D01*
X152204884Y-56665887D01*
X152416269Y-56156816D01*
X152416750Y-55605602D01*
X152416750Y-59563000D01*
X147534870Y-59563000D01*
X147534870Y-55605602D01*
X147324374Y-55096163D01*
X146934947Y-54706056D01*
X146425876Y-54494671D01*
X145874662Y-54494190D01*
X145365223Y-54704686D01*
X144975116Y-55094113D01*
X144763731Y-55603184D01*
X144763250Y-56154398D01*
X144973746Y-56663837D01*
X145363173Y-57053944D01*
X145872244Y-57265329D01*
X146423458Y-57265810D01*
X146932897Y-57055314D01*
X147323004Y-56665887D01*
X147534389Y-56156816D01*
X147534870Y-55605602D01*
X147534870Y-59563000D01*
X142367767Y-59563000D01*
X142367767Y-53544966D01*
X142339805Y-52994462D01*
X142182931Y-52615735D01*
X141941930Y-52547675D01*
X141762325Y-52727280D01*
X141762325Y-52368070D01*
X141694265Y-52127069D01*
X141174966Y-51942233D01*
X140624462Y-51970195D01*
X140245735Y-52127069D01*
X140177675Y-52368070D01*
X140970000Y-53160395D01*
X141762325Y-52368070D01*
X141762325Y-52727280D01*
X141149605Y-53340000D01*
X141941930Y-54132325D01*
X142182931Y-54064265D01*
X142367767Y-53544966D01*
X142367767Y-59563000D01*
X142355810Y-59563000D01*
X142355810Y-55605602D01*
X142145314Y-55096163D01*
X141755887Y-54706056D01*
X141540503Y-54616621D01*
X141694265Y-54552931D01*
X141762325Y-54311930D01*
X140970000Y-53519605D01*
X140790395Y-53699210D01*
X140790395Y-53340000D01*
X139998070Y-52547675D01*
X139757069Y-52615735D01*
X139572233Y-53135034D01*
X139600195Y-53685538D01*
X139757069Y-54064265D01*
X139998070Y-54132325D01*
X140790395Y-53340000D01*
X140790395Y-53699210D01*
X140177675Y-54311930D01*
X140245735Y-54552931D01*
X140411040Y-54611768D01*
X140186163Y-54704686D01*
X139796056Y-55094113D01*
X139584671Y-55603184D01*
X139584190Y-56154398D01*
X139794686Y-56663837D01*
X140184113Y-57053944D01*
X140693184Y-57265329D01*
X141244398Y-57265810D01*
X141753837Y-57055314D01*
X142143944Y-56665887D01*
X142355329Y-56156816D01*
X142355810Y-55605602D01*
X142355810Y-59563000D01*
X138557000Y-59563000D01*
X138557000Y-50927000D01*
X139700000Y-50927000D01*
X159893000Y-50927000D01*
X159893000Y-59563000D01*
G36*
X219583000Y-121793000D02*
X219190147Y-121793000D01*
X219259968Y-121644027D01*
X219259968Y-120925973D01*
X219011821Y-120396510D01*
X218593847Y-120015000D01*
X219011821Y-119633490D01*
X219259968Y-119104027D01*
X219139469Y-118872000D01*
X217932000Y-118872000D01*
X217932000Y-119951183D01*
X217932000Y-120078817D01*
X217932000Y-121158000D01*
X219139469Y-121158000D01*
X219259968Y-120925973D01*
X219259968Y-121644027D01*
X219139469Y-121412000D01*
X217932000Y-121412000D01*
X217932000Y-121432000D01*
X217678000Y-121432000D01*
X217678000Y-121412000D01*
X217678000Y-121158000D01*
X217678000Y-120078817D01*
X217678000Y-119951183D01*
X217678000Y-118872000D01*
X216599469Y-118872000D01*
X216470531Y-118872000D01*
X215392000Y-118872000D01*
X215392000Y-119951183D01*
X215392000Y-120078817D01*
X215392000Y-121158000D01*
X216470531Y-121158000D01*
X216599469Y-121158000D01*
X217678000Y-121158000D01*
X217678000Y-121412000D01*
X216599469Y-121412000D01*
X216470531Y-121412000D01*
X215392000Y-121412000D01*
X215392000Y-121432000D01*
X215138000Y-121432000D01*
X215138000Y-121412000D01*
X215118000Y-121412000D01*
X215118000Y-121158000D01*
X215138000Y-121158000D01*
X215138000Y-120078817D01*
X215138000Y-119951183D01*
X215138000Y-118872000D01*
X215118000Y-118872000D01*
X215118000Y-118618000D01*
X215138000Y-118618000D01*
X215138000Y-118598000D01*
X215392000Y-118598000D01*
X215392000Y-118618000D01*
X216470531Y-118618000D01*
X216599469Y-118618000D01*
X217678000Y-118618000D01*
X217678000Y-118598000D01*
X217932000Y-118598000D01*
X217932000Y-118618000D01*
X219139469Y-118618000D01*
X219259968Y-118385973D01*
X219190147Y-118237000D01*
X219583000Y-118237000D01*
X219583000Y-121793000D01*
X219583000Y-121793000D01*
G37*
X219583000Y-121793000D02*
X219190147Y-121793000D01*
X219259968Y-121644027D01*
X219259968Y-120925973D01*
X219011821Y-120396510D01*
X218593847Y-120015000D01*
X219011821Y-119633490D01*
X219259968Y-119104027D01*
X219139469Y-118872000D01*
X217932000Y-118872000D01*
X217932000Y-119951183D01*
X217932000Y-120078817D01*
X217932000Y-121158000D01*
X219139469Y-121158000D01*
X219259968Y-120925973D01*
X219259968Y-121644027D01*
X219139469Y-121412000D01*
X217932000Y-121412000D01*
X217932000Y-121432000D01*
X217678000Y-121432000D01*
X217678000Y-121412000D01*
X217678000Y-121158000D01*
X217678000Y-120078817D01*
X217678000Y-119951183D01*
X217678000Y-118872000D01*
X216599469Y-118872000D01*
X216470531Y-118872000D01*
X215392000Y-118872000D01*
X215392000Y-119951183D01*
X215392000Y-120078817D01*
X215392000Y-121158000D01*
X216470531Y-121158000D01*
X216599469Y-121158000D01*
X217678000Y-121158000D01*
X217678000Y-121412000D01*
X216599469Y-121412000D01*
X216470531Y-121412000D01*
X215392000Y-121412000D01*
X215392000Y-121432000D01*
X215138000Y-121432000D01*
X215138000Y-121412000D01*
X215118000Y-121412000D01*
X215118000Y-121158000D01*
X215138000Y-121158000D01*
X215138000Y-120078817D01*
X215138000Y-119951183D01*
X215138000Y-118872000D01*
X215118000Y-118872000D01*
X215118000Y-118618000D01*
X215138000Y-118618000D01*
X215138000Y-118598000D01*
X215392000Y-118598000D01*
X215392000Y-118618000D01*
X216470531Y-118618000D01*
X216599469Y-118618000D01*
X217678000Y-118618000D01*
X217678000Y-118598000D01*
X217932000Y-118598000D01*
X217932000Y-118618000D01*
X219139469Y-118618000D01*
X219259968Y-118385973D01*
X219190147Y-118237000D01*
X219583000Y-118237000D01*
X219583000Y-121793000D01*
M02*
