M48
;DRILL file {kicad (2015-03-04 BZR 5473)-product} date Donnerstag, 14. April 2016 'u12' 20:12:03
;FORMAT={-:-/ absolute / metric / decimal}
FMAT,2
METRIC,TZ
T1C0.635
T2C0.700
T3C0.800
T4C0.800
T5C0.813
T6C1.001
T7C1.016
T8C1.100
T9C2.301
T10C3.000
%
G90
G05
M71
T1
X111.633Y-87.884
X114.046Y-79.756
X124.714Y-73.723
X127.254Y-62.611
X127.254Y-82.675
X127.889Y-107.95
X129.777Y-81.867
X129.794Y-75.438
X130.619Y-106.68
X131.762Y-106.68
X133.617Y-75.438
X136.144Y-75.374
X136.723Y-123.456
X137.414Y-80.772
X137.414Y-125.349
X137.561Y-87.249
X138.303Y-114.173
X139.954Y-84.965
X140.081Y-119.38
X140.208Y-127.
X140.843Y-110.49
X140.843Y-113.03
X142.494Y-85.09
X145.415Y-69.902
X145.483Y-108.394
X146.05Y-88.9
X146.177Y-68.961
X152.4Y-89.789
X154.94Y-140.97
X163.322Y-123.19
X166.37Y-74.93
X168.91Y-74.168
X169.99Y-85.534
X177.8Y-140.97
X188.329Y-88.404
X191.77Y-92.71
X199.898Y-141.224
X201.677Y-82.857
X203.054Y-86.404
X203.708Y-82.931
X204.47Y-71.247
X205.866Y-136.008
X206.756Y-133.35
X209.55Y-130.81
X209.677Y-83.033
X210.558Y-88.455
X210.909Y-84.988
X211.638Y-87.146
X211.671Y-113.171
X212.289Y-86.207
X213.305Y-87.472
T2
X116.332Y-71.628
X116.332Y-74.128
T3
X76.2Y-52.07
X76.2Y-54.57
X95.25Y-71.628
X95.25Y-79.248
X95.25Y-83.82
X95.25Y-91.44
X97.79Y-71.628
X97.79Y-79.248
X97.79Y-83.82
X97.79Y-91.44
X100.33Y-71.628
X100.33Y-79.248
X100.33Y-83.82
X100.33Y-91.44
X102.87Y-71.628
X102.87Y-79.248
X102.87Y-83.82
X102.87Y-91.44
X105.41Y-83.82
X105.41Y-91.44
X107.95Y-83.82
X107.95Y-91.44
X110.49Y-83.82
X110.49Y-91.44
X110.998Y-113.919
X110.998Y-116.459
X110.998Y-118.999
X110.998Y-121.539
X110.998Y-124.079
X110.998Y-126.619
X110.998Y-129.159
X110.998Y-131.699
X110.998Y-134.239
X110.998Y-136.779
X118.618Y-113.919
X118.618Y-116.459
X118.618Y-118.999
X118.618Y-121.539
X118.618Y-124.079
X118.618Y-126.619
X118.618Y-129.159
X118.618Y-131.699
X118.618Y-134.239
X118.618Y-136.779
X120.904Y-59.436
X120.904Y-67.056
X120.904Y-71.628
X120.904Y-79.248
X120.904Y-83.82
X120.904Y-91.44
X123.444Y-59.436
X123.444Y-67.056
X123.444Y-71.628
X123.444Y-79.248
X123.444Y-83.82
X123.444Y-91.44
X124.333Y-113.919
X124.333Y-116.459
X124.333Y-118.999
X124.333Y-121.539
X124.333Y-124.079
X124.333Y-126.619
X124.333Y-129.159
X124.333Y-131.699
X124.333Y-134.239
X124.333Y-136.779
X125.984Y-59.436
X125.984Y-67.056
X125.984Y-71.628
X125.984Y-79.248
X125.984Y-83.82
X125.984Y-91.44
X128.524Y-59.436
X128.524Y-67.056
X128.524Y-71.628
X128.524Y-79.248
X128.524Y-83.82
X128.524Y-91.44
X131.064Y-59.436
X131.064Y-67.056
X131.064Y-71.628
X131.064Y-79.248
X131.064Y-83.82
X131.064Y-91.44
X131.953Y-113.919
X131.953Y-116.459
X131.953Y-118.999
X131.953Y-121.539
X131.953Y-124.079
X131.953Y-126.619
X131.953Y-129.159
X131.953Y-131.699
X131.953Y-134.239
X131.953Y-136.779
X133.604Y-59.436
X133.604Y-67.056
X133.604Y-71.628
X133.604Y-79.248
X133.604Y-83.82
X133.604Y-91.44
X136.144Y-59.436
X136.144Y-67.056
X136.144Y-71.628
X136.144Y-79.248
X136.144Y-83.82
X136.144Y-91.44
X138.684Y-59.436
X138.684Y-67.056
X138.684Y-71.628
X138.684Y-79.248
X138.684Y-83.82
X138.684Y-91.44
X141.224Y-71.628
X141.224Y-79.248
X141.224Y-83.82
X141.224Y-91.44
X142.24Y-104.14
X142.24Y-106.68
X142.24Y-109.22
X142.24Y-111.76
X142.24Y-114.3
X142.24Y-116.84
X142.24Y-119.38
X142.24Y-121.92
X142.24Y-124.46
X142.24Y-127.
X142.24Y-129.54
X142.24Y-132.08
X142.24Y-134.62
X142.24Y-137.16
X143.764Y-71.628
X143.764Y-79.248
X143.764Y-83.82
X143.764Y-91.44
X146.304Y-83.82
X146.304Y-91.44
X148.844Y-83.82
X148.844Y-91.44
X154.94Y-76.2
X154.94Y-91.44
X157.48Y-76.2
X157.48Y-91.44
X157.48Y-104.14
X157.48Y-106.68
X157.48Y-109.22
X157.48Y-111.76
X157.48Y-114.3
X157.48Y-116.84
X157.48Y-119.38
X157.48Y-121.92
X157.48Y-124.46
X157.48Y-127.
X157.48Y-129.54
X157.48Y-132.08
X157.48Y-134.62
X157.48Y-137.16
X160.02Y-76.2
X160.02Y-91.44
X162.56Y-76.2
X162.56Y-91.44
X165.1Y-76.2
X165.1Y-91.44
X165.1Y-104.14
X165.1Y-106.68
X165.1Y-109.22
X165.1Y-111.76
X165.1Y-114.3
X165.1Y-116.84
X165.1Y-119.38
X165.1Y-121.92
X165.1Y-124.46
X165.1Y-127.
X165.1Y-129.54
X165.1Y-132.08
X165.1Y-134.62
X165.1Y-137.16
X166.37Y-53.34
X166.37Y-60.96
X167.64Y-76.2
X167.64Y-91.44
X168.91Y-53.34
X168.91Y-60.96
X170.18Y-76.2
X170.18Y-91.44
X171.45Y-53.34
X171.45Y-60.96
X172.72Y-76.2
X172.72Y-91.44
X173.99Y-53.34
X173.99Y-60.96
X175.26Y-76.2
X175.26Y-91.44
X176.53Y-53.34
X176.53Y-60.96
X177.8Y-76.2
X177.8Y-91.44
X179.07Y-53.34
X179.07Y-60.96
X180.34Y-76.2
X180.34Y-91.44
X180.34Y-104.14
X180.34Y-106.68
X180.34Y-109.22
X180.34Y-111.76
X180.34Y-114.3
X180.34Y-116.84
X180.34Y-119.38
X180.34Y-121.92
X180.34Y-124.46
X180.34Y-127.
X180.34Y-129.54
X180.34Y-132.08
X180.34Y-134.62
X180.34Y-137.16
X181.61Y-53.34
X181.61Y-60.96
X182.88Y-76.2
X182.88Y-91.44
X185.42Y-76.2
X185.42Y-91.44
X187.96Y-76.2
X187.96Y-91.44
X187.96Y-104.14
X187.96Y-106.68
X187.96Y-109.22
X187.96Y-111.76
X187.96Y-114.3
X187.96Y-116.84
X187.96Y-119.38
X187.96Y-121.92
X187.96Y-124.46
X187.96Y-127.
X187.96Y-129.54
X187.96Y-132.08
X187.96Y-134.62
X187.96Y-137.16
X190.5Y-76.2
X190.5Y-91.44
X193.04Y-76.2
X193.04Y-91.44
X195.58Y-76.2
X195.58Y-91.44
X198.12Y-76.2
X198.12Y-91.44
X200.66Y-76.2
X200.66Y-91.44
X203.2Y-76.2
X203.2Y-91.44
X203.2Y-104.14
X203.2Y-106.68
X203.2Y-109.22
X203.2Y-111.76
X203.2Y-114.3
X203.2Y-116.84
X203.2Y-119.38
X203.2Y-121.92
X203.2Y-124.46
X203.2Y-127.
X203.2Y-129.54
X203.2Y-132.08
X203.2Y-134.62
X203.2Y-137.16
T4
X106.172Y-75.438
X108.712Y-75.438
T5
X67.31Y-96.52
X67.31Y-99.06
X67.31Y-101.6
X67.31Y-104.14
X67.31Y-106.68
X67.31Y-109.22
X67.31Y-111.76
X67.31Y-114.3
X67.31Y-116.84
X67.31Y-119.38
X67.31Y-121.92
X67.31Y-124.46
X67.31Y-127.
X67.31Y-129.54
X67.31Y-132.08
X67.31Y-134.62
X75.471Y-62.23
X75.471Y-64.77
X77.47Y-62.23
X77.47Y-64.77
X90.17Y-71.628
X90.17Y-79.248
X90.17Y-83.82
X90.17Y-86.36
X91.44Y-115.57
X91.44Y-118.11
X91.44Y-120.65
X91.44Y-123.19
X91.44Y-125.73
X91.44Y-128.27
X91.44Y-130.81
X91.44Y-133.35
X92.71Y-71.628
X92.71Y-79.248
X99.06Y-115.57
X99.06Y-118.11
X99.06Y-120.65
X99.06Y-123.19
X99.06Y-125.73
X99.06Y-128.27
X99.06Y-130.81
X99.06Y-133.35
X106.172Y-71.628
X106.172Y-79.248
X108.712Y-71.628
X108.712Y-79.248
X116.078Y-109.347
X116.332Y-59.69
X116.332Y-62.23
X116.459Y-83.82
X116.459Y-86.36
X118.618Y-109.347
X131.826Y-109.347
X134.366Y-109.347
X144.78Y-140.97
X147.32Y-67.31
X147.32Y-69.85
X152.4Y-140.97
X154.94Y-67.31
X154.94Y-69.85
X154.94Y-100.33
X157.48Y-100.33
X157.48Y-140.97
X160.02Y-140.97
X161.925Y-50.8
X161.925Y-53.34
X162.56Y-95.25
X162.56Y-97.79
X167.64Y-140.97
X170.18Y-95.25
X170.18Y-97.79
X172.72Y-83.058
X175.26Y-83.058
X175.26Y-140.97
X177.8Y-100.33
X180.34Y-100.33
X180.34Y-140.97
X182.88Y-140.97
X190.5Y-140.97
X198.12Y-100.33
X198.12Y-140.97
X200.66Y-100.33
X203.2Y-140.97
X205.74Y-140.97
T6
X187.96Y-54.61
X187.96Y-62.23
X203.2Y-54.61
X203.2Y-62.23
T7
X78.74Y-72.39
X81.28Y-52.07
X81.28Y-54.61
X81.28Y-72.39
X102.87Y-115.57
X102.87Y-118.11
X102.87Y-120.65
X102.87Y-123.19
X102.87Y-125.73
X102.87Y-128.27
X102.87Y-130.81
X102.87Y-133.35
X152.4Y-60.96
X152.4Y-63.5
X154.94Y-60.96
X154.94Y-63.5
X157.48Y-71.12
X160.02Y-71.12
X162.56Y-71.12
X171.45Y-64.77
X171.45Y-67.31
X173.99Y-64.77
X173.99Y-67.31
X176.53Y-64.77
X176.53Y-67.31
X179.07Y-64.77
X179.07Y-67.31
X215.265Y-65.405
X215.265Y-67.945
X215.265Y-70.485
X215.265Y-73.025
X215.265Y-75.565
X215.265Y-78.105
X215.265Y-80.645
X215.265Y-83.185
X215.265Y-85.725
X215.265Y-88.265
X215.265Y-90.805
X215.265Y-93.345
X215.265Y-95.885
X215.265Y-98.425
X215.265Y-100.965
X215.265Y-103.505
X215.265Y-106.045
X215.265Y-108.585
X215.265Y-111.125
X215.265Y-113.665
X215.265Y-116.205
X215.265Y-118.745
X215.265Y-121.285
X215.265Y-123.825
X215.265Y-126.365
X217.805Y-65.405
X217.805Y-67.945
X217.805Y-70.485
X217.805Y-73.025
X217.805Y-75.565
X217.805Y-78.105
X217.805Y-80.645
X217.805Y-83.185
X217.805Y-85.725
X217.805Y-88.265
X217.805Y-90.805
X217.805Y-93.345
X217.805Y-95.885
X217.805Y-98.425
X217.805Y-100.965
X217.805Y-103.505
X217.805Y-106.045
X217.805Y-108.585
X217.805Y-111.125
X217.805Y-113.665
X217.805Y-116.205
X217.805Y-118.745
X217.805Y-121.285
X217.805Y-123.825
X217.805Y-126.365
T8
X67.39Y-86.36
X67.39Y-91.36
X72.39Y-86.36
X72.39Y-91.36
T9
X72.771Y-57.501
X72.771Y-69.499
T10
X68.58Y-52.832
X68.58Y-138.938
X215.646Y-52.578
X215.646Y-138.938
T6
X70.051Y-75.201G85X70.051Y-77.199
G05
X72.051Y-80.899G85X74.05Y-80.899
G05
X76.05Y-75.201G85X76.05Y-77.199
G05
T0
M30
