G04 #@! TF.FileFunction,Copper,L1,Top,Signal*
%FSLAX46Y46*%
G04 Gerber Fmt 4.6, Leading zero omitted, Abs format (unit mm)*
G04 Created by KiCad (PCBNEW 4.0.2+dfsg1-stable) date Tue 27 Feb 2018 09:46:13 PM CET*
%MOMM*%
G01*
G04 APERTURE LIST*
%ADD10C,0.100000*%
%ADD11R,1.300000X1.300000*%
%ADD12C,1.300000*%
%ADD13R,1.727200X1.727200*%
%ADD14O,1.727200X1.727200*%
%ADD15R,2.032000X2.032000*%
%ADD16O,2.032000X2.032000*%
%ADD17O,3.197860X1.998980*%
%ADD18O,1.998980X3.197860*%
%ADD19R,1.200000X1.700000*%
%ADD20O,1.200000X1.700000*%
%ADD21O,2.300000X1.600000*%
%ADD22R,0.600000X2.000000*%
%ADD23R,2.499360X2.499360*%
%ADD24C,2.499360*%
%ADD25C,1.422400*%
%ADD26C,3.497580*%
%ADD27C,1.501140*%
%ADD28C,1.397000*%
%ADD29C,0.889000*%
%ADD30C,0.635000*%
%ADD31C,0.254000*%
G04 APERTURE END LIST*
D10*
D11*
X127000000Y-96520000D03*
D12*
X127000000Y-94020000D03*
D13*
X215265000Y-65405000D03*
D14*
X217805000Y-65405000D03*
X215265000Y-67945000D03*
X217805000Y-67945000D03*
X215265000Y-70485000D03*
X217805000Y-70485000D03*
X215265000Y-73025000D03*
X217805000Y-73025000D03*
X215265000Y-75565000D03*
X217805000Y-75565000D03*
X215265000Y-78105000D03*
X217805000Y-78105000D03*
X215265000Y-80645000D03*
X217805000Y-80645000D03*
X215265000Y-83185000D03*
X217805000Y-83185000D03*
X215265000Y-85725000D03*
X217805000Y-85725000D03*
X215265000Y-88265000D03*
X217805000Y-88265000D03*
X215265000Y-90805000D03*
X217805000Y-90805000D03*
X215265000Y-93345000D03*
X217805000Y-93345000D03*
X215265000Y-95885000D03*
X217805000Y-95885000D03*
X215265000Y-98425000D03*
X217805000Y-98425000D03*
X215265000Y-100965000D03*
X217805000Y-100965000D03*
X215265000Y-103505000D03*
X217805000Y-103505000D03*
X215265000Y-106045000D03*
X217805000Y-106045000D03*
X215265000Y-108585000D03*
X217805000Y-108585000D03*
X215265000Y-111125000D03*
X217805000Y-111125000D03*
X215265000Y-113665000D03*
X217805000Y-113665000D03*
X215265000Y-116205000D03*
X217805000Y-116205000D03*
X215265000Y-118745000D03*
X217805000Y-118745000D03*
X215265000Y-121285000D03*
X217805000Y-121285000D03*
X215265000Y-123825000D03*
X217805000Y-123825000D03*
X215265000Y-126365000D03*
X217805000Y-126365000D03*
D11*
X127000000Y-101600000D03*
D12*
X127000000Y-99100000D03*
D11*
X183769000Y-60325000D03*
D12*
X181269000Y-60325000D03*
D11*
X158369000Y-60325000D03*
D12*
X155869000Y-60325000D03*
D11*
X171029000Y-60325000D03*
D12*
X168529000Y-60325000D03*
D11*
X145669000Y-60325000D03*
D12*
X143169000Y-60325000D03*
D11*
X208280000Y-90170000D03*
D12*
X205780000Y-90170000D03*
D11*
X148590000Y-96520000D03*
D12*
X146090000Y-96520000D03*
D11*
X171450000Y-116840000D03*
D12*
X168950000Y-116840000D03*
D11*
X171450000Y-114300000D03*
D12*
X168950000Y-114300000D03*
D11*
X120650000Y-101600000D03*
D12*
X123150000Y-101600000D03*
D11*
X171450000Y-119380000D03*
D12*
X168950000Y-119380000D03*
D11*
X120650000Y-97790000D03*
D12*
X123150000Y-97790000D03*
X81320000Y-120650000D03*
D11*
X83820000Y-120650000D03*
D12*
X81320000Y-63500000D03*
D11*
X83820000Y-63500000D03*
D12*
X81320000Y-128270000D03*
D11*
X83820000Y-128270000D03*
X104140000Y-82550000D03*
D12*
X101640000Y-82550000D03*
X81320000Y-76200000D03*
D11*
X83820000Y-76200000D03*
X109220000Y-82550000D03*
D12*
X106720000Y-82550000D03*
X81320000Y-88900000D03*
D11*
X83820000Y-88900000D03*
D12*
X81320000Y-101600000D03*
D11*
X83820000Y-101600000D03*
D15*
X212090000Y-85725000D03*
D16*
X209550000Y-85725000D03*
D17*
X75117960Y-68554600D03*
D18*
X71120000Y-63500000D03*
D17*
X75117960Y-58445400D03*
X75117960Y-81254600D03*
D18*
X71120000Y-76200000D03*
D17*
X75117960Y-71145400D03*
X75117960Y-93954600D03*
D18*
X71120000Y-88900000D03*
D17*
X75117960Y-83845400D03*
X75117960Y-106654600D03*
D18*
X71120000Y-101600000D03*
D17*
X75117960Y-96545400D03*
D19*
X137510000Y-111150400D03*
D20*
X139290000Y-111150400D03*
X141070000Y-111150400D03*
X142850000Y-111150400D03*
X144630000Y-111150400D03*
X146410000Y-111150400D03*
X148190000Y-111150400D03*
X149970000Y-111150400D03*
X151750000Y-111150400D03*
X153530000Y-111150400D03*
X155310000Y-111150400D03*
X157090000Y-111150400D03*
X158870000Y-111150400D03*
X160650000Y-111150400D03*
X162430000Y-111150400D03*
X164210000Y-111150400D03*
X165990000Y-111150400D03*
X167770000Y-111150400D03*
X169550000Y-111150400D03*
X171330000Y-111150400D03*
X173110000Y-111150400D03*
X174890000Y-111150400D03*
X176670000Y-111150400D03*
X178450000Y-111150400D03*
X180230000Y-111150400D03*
X182010000Y-111150400D03*
X183790000Y-111150400D03*
X185570000Y-111150400D03*
X187350000Y-111150400D03*
X189130000Y-111150400D03*
X190910000Y-111150400D03*
X192690000Y-111150400D03*
X192690000Y-92049600D03*
X190910000Y-92049600D03*
X189130000Y-92049600D03*
X187350000Y-92049600D03*
X185570000Y-92049600D03*
X183790000Y-92049600D03*
X182010000Y-92049600D03*
X180230000Y-92049600D03*
X178450000Y-92049600D03*
X176670000Y-92049600D03*
X174890000Y-92049600D03*
X173110000Y-92049600D03*
X171330000Y-92049600D03*
X169550000Y-92049600D03*
X167770000Y-92049600D03*
X165990000Y-92049600D03*
X164210000Y-92049600D03*
X162430000Y-92049600D03*
X160650000Y-92049600D03*
X158870000Y-92049600D03*
X157090000Y-92049600D03*
X155310000Y-92049600D03*
X153530000Y-92049600D03*
X151750000Y-92049600D03*
X149970000Y-92049600D03*
X148190000Y-92049600D03*
X146410000Y-92049600D03*
X144630000Y-92049600D03*
X142850000Y-92049600D03*
X141070000Y-92049600D03*
X139290000Y-92049600D03*
X137510000Y-92049600D03*
D21*
X183769000Y-84455000D03*
X183769000Y-81915000D03*
X183769000Y-79375000D03*
X183769000Y-76835000D03*
X183769000Y-74295000D03*
X183769000Y-71755000D03*
X183769000Y-69215000D03*
X183769000Y-66675000D03*
X183769000Y-64135000D03*
X176149000Y-64135000D03*
X176149000Y-66675000D03*
X176149000Y-69215000D03*
X176149000Y-71755000D03*
X176149000Y-74295000D03*
X176149000Y-76835000D03*
X176149000Y-79375000D03*
X176149000Y-81915000D03*
X176149000Y-84455000D03*
X158369000Y-84455000D03*
X158369000Y-81915000D03*
X158369000Y-79375000D03*
X158369000Y-76835000D03*
X158369000Y-74295000D03*
X158369000Y-71755000D03*
X158369000Y-69215000D03*
X158369000Y-66675000D03*
X158369000Y-64135000D03*
X150749000Y-64135000D03*
X150749000Y-66675000D03*
X150749000Y-69215000D03*
X150749000Y-71755000D03*
X150749000Y-74295000D03*
X150749000Y-76835000D03*
X150749000Y-79375000D03*
X150749000Y-81915000D03*
X150749000Y-84455000D03*
X171069000Y-84455000D03*
X171069000Y-81915000D03*
X171069000Y-79375000D03*
X171069000Y-76835000D03*
X171069000Y-74295000D03*
X171069000Y-71755000D03*
X171069000Y-69215000D03*
X171069000Y-66675000D03*
X171069000Y-64135000D03*
X163449000Y-64135000D03*
X163449000Y-66675000D03*
X163449000Y-69215000D03*
X163449000Y-71755000D03*
X163449000Y-74295000D03*
X163449000Y-76835000D03*
X163449000Y-79375000D03*
X163449000Y-81915000D03*
X163449000Y-84455000D03*
X145669000Y-84455000D03*
X145669000Y-81915000D03*
X145669000Y-79375000D03*
X145669000Y-76835000D03*
X145669000Y-74295000D03*
X145669000Y-71755000D03*
X145669000Y-69215000D03*
X145669000Y-66675000D03*
X145669000Y-64135000D03*
X138049000Y-64135000D03*
X138049000Y-66675000D03*
X138049000Y-69215000D03*
X138049000Y-71755000D03*
X138049000Y-74295000D03*
X138049000Y-76835000D03*
X138049000Y-79375000D03*
X138049000Y-81915000D03*
X138049000Y-84455000D03*
D22*
X104775000Y-96140000D03*
X106045000Y-96140000D03*
X107315000Y-96140000D03*
X108585000Y-96140000D03*
X109855000Y-96140000D03*
X111125000Y-96140000D03*
X112395000Y-96140000D03*
X113665000Y-96140000D03*
X114935000Y-96140000D03*
X116205000Y-96140000D03*
X117475000Y-96140000D03*
X118745000Y-96140000D03*
X118745000Y-86740000D03*
X117475000Y-86740000D03*
X116205000Y-86740000D03*
X114935000Y-86740000D03*
X113665000Y-86740000D03*
X112395000Y-86740000D03*
X111125000Y-86740000D03*
X109855000Y-86740000D03*
X108585000Y-86740000D03*
X107315000Y-86740000D03*
X106045000Y-86740000D03*
X104775000Y-86740000D03*
D23*
X104140000Y-120650000D03*
D24*
X119380000Y-120650000D03*
X119380000Y-113030000D03*
X104140000Y-113030000D03*
D25*
X69789040Y-127858520D03*
X69789040Y-121061480D03*
X72237600Y-127858520D03*
X72288400Y-121061480D03*
D26*
X66789300Y-117660420D03*
X65991740Y-124460000D03*
X66789300Y-131208780D03*
D27*
X132080000Y-101500940D03*
X132080000Y-96619060D03*
D28*
X173990000Y-121920000D03*
X173990000Y-114300000D03*
X176530000Y-121920000D03*
X176530000Y-114300000D03*
X179070000Y-121920000D03*
X179070000Y-114300000D03*
X111125000Y-106934000D03*
X111125000Y-99314000D03*
X144780000Y-114300000D03*
X137160000Y-114300000D03*
X95250000Y-83820000D03*
X87630000Y-83820000D03*
X95250000Y-86360000D03*
X87630000Y-86360000D03*
X95250000Y-88900000D03*
X87630000Y-88900000D03*
X95250000Y-91440000D03*
X87630000Y-91440000D03*
X121920000Y-87630000D03*
X121920000Y-95250000D03*
X95250000Y-96520000D03*
X87630000Y-96520000D03*
X95250000Y-99060000D03*
X87630000Y-99060000D03*
X95250000Y-93980000D03*
X87630000Y-93980000D03*
D21*
X200660000Y-93980000D03*
X200660000Y-96520000D03*
X200660000Y-99060000D03*
X200660000Y-101600000D03*
X200660000Y-104140000D03*
X200660000Y-106680000D03*
X200660000Y-109220000D03*
X200660000Y-111760000D03*
X208280000Y-111760000D03*
X208280000Y-109220000D03*
X208280000Y-106680000D03*
X208280000Y-104140000D03*
X208280000Y-101600000D03*
X208280000Y-99060000D03*
X208280000Y-96520000D03*
X208280000Y-93980000D03*
D29*
X102870000Y-86868000D03*
X202174761Y-80316959D03*
X201231480Y-80962480D03*
X200223218Y-81696014D03*
X199302759Y-82613480D03*
X198415107Y-83502480D03*
X197485000Y-84327978D03*
X185547000Y-102870000D03*
X187452000Y-105410000D03*
X167767000Y-83566000D03*
X166370000Y-78740000D03*
X147955000Y-87122000D03*
X150495000Y-89217480D03*
X139699992Y-87630000D03*
X163703000Y-90043000D03*
X189230000Y-101600000D03*
X191008000Y-104140000D03*
D30*
X104775000Y-96140000D02*
X104775000Y-94505000D01*
X104775000Y-94505000D02*
X105909999Y-93370001D01*
X105909999Y-93370001D02*
X113529999Y-93370001D01*
X102870000Y-86868000D02*
X104647000Y-86868000D01*
X104647000Y-86868000D02*
X104775000Y-86740000D01*
X112395000Y-96140000D02*
X112395000Y-94505000D01*
X112395000Y-94505000D02*
X113529999Y-93370001D01*
X113529999Y-93370001D02*
X126350001Y-93370001D01*
X126350001Y-93370001D02*
X127000000Y-94020000D01*
X167279319Y-84836001D02*
X168254681Y-84836001D01*
X181984000Y-84455000D02*
X183769000Y-84455000D01*
X168254681Y-84836001D02*
X168635682Y-84455000D01*
X168635682Y-84455000D02*
X181984000Y-84455000D01*
X138049000Y-84455000D02*
X166898318Y-84455000D01*
X166898318Y-84455000D02*
X167279319Y-84836001D01*
X215265000Y-118745000D02*
X191134600Y-118745000D01*
X191134600Y-118745000D02*
X183790000Y-111400400D01*
X183790000Y-111400400D02*
X183790000Y-111150400D01*
X183790000Y-111150400D02*
X183790000Y-111612000D01*
X183790000Y-111612000D02*
X182745600Y-112656400D01*
X173101000Y-111159400D02*
X173110000Y-111150400D01*
X182745600Y-112656400D02*
X174251400Y-112656400D01*
X174251400Y-112656400D02*
X173101000Y-111506000D01*
X173101000Y-111506000D02*
X173101000Y-111159400D01*
X142240000Y-105410000D02*
X142240000Y-102870000D01*
X142240000Y-102870000D02*
X148590000Y-96520000D01*
X148590000Y-96520000D02*
X148590000Y-95250000D01*
X148590000Y-95250000D02*
X148190000Y-94850000D01*
X148190000Y-94850000D02*
X148190000Y-92049600D01*
X120650000Y-101600000D02*
X126238000Y-107188000D01*
X126238000Y-107188000D02*
X141747000Y-107188000D01*
X141747000Y-107188000D02*
X142240000Y-106695000D01*
X142240000Y-106695000D02*
X142240000Y-105410000D01*
X109220000Y-81265000D02*
X109220000Y-48260000D01*
X109220000Y-82550000D02*
X109220000Y-81265000D01*
X183769000Y-60325000D02*
X183769000Y-48260000D01*
X215265000Y-65405000D02*
X185039000Y-65405000D01*
X185039000Y-65405000D02*
X183769000Y-64135000D01*
X109220000Y-82550000D02*
X111125000Y-84455000D01*
X111125000Y-84455000D02*
X111125000Y-86740000D01*
X104140000Y-82550000D02*
X105361501Y-81328499D01*
X105361501Y-81328499D02*
X107998499Y-81328499D01*
X107998499Y-81328499D02*
X109220000Y-82550000D01*
X100330000Y-116840000D02*
X100330000Y-143510000D01*
X104140000Y-113030000D02*
X100330000Y-116840000D01*
X121920000Y-95250000D02*
X120932172Y-95250000D01*
X120932172Y-95250000D02*
X120042172Y-96140000D01*
X120042172Y-96140000D02*
X119000000Y-96140000D01*
X120650000Y-97790000D02*
X120650000Y-101600000D01*
X118745000Y-96140000D02*
X119000000Y-96140000D01*
X119000000Y-96140000D02*
X120650000Y-97790000D01*
X142850000Y-111150400D02*
X142850000Y-110900400D01*
X142850000Y-110900400D02*
X144085000Y-109665400D01*
X144085000Y-109665400D02*
X171875000Y-109665400D01*
X171875000Y-109665400D02*
X173110000Y-110900400D01*
X173110000Y-110900400D02*
X173110000Y-111150400D01*
X142240000Y-105410000D02*
X142240000Y-110540400D01*
X142240000Y-110540400D02*
X142850000Y-111150400D01*
X217805000Y-121285000D02*
X215265000Y-121285000D01*
X220980000Y-121285000D02*
X217805000Y-121285000D01*
X220980000Y-118745000D02*
X220980000Y-121285000D01*
X215265000Y-118745000D02*
X220980000Y-118745000D01*
X208280000Y-93980000D02*
X208280000Y-90170000D01*
X171029000Y-60325000D02*
X171069000Y-60325000D01*
X171069000Y-60325000D02*
X172339000Y-61595000D01*
X172339000Y-61595000D02*
X182499000Y-61595000D01*
X182499000Y-61595000D02*
X183769000Y-60325000D01*
X145669000Y-60325000D02*
X146050000Y-60325000D01*
X146050000Y-60325000D02*
X147320000Y-61595000D01*
X147320000Y-61595000D02*
X157099000Y-61595000D01*
X157099000Y-61595000D02*
X158369000Y-60325000D01*
X158369000Y-60325000D02*
X159639000Y-61595000D01*
X159639000Y-61595000D02*
X169759000Y-61595000D01*
X169759000Y-61595000D02*
X171029000Y-60325000D01*
X183769000Y-60325000D02*
X183769000Y-64135000D01*
X171029000Y-60325000D02*
X171029000Y-64095000D01*
X171029000Y-64095000D02*
X171069000Y-64135000D01*
X158369000Y-60325000D02*
X158369000Y-64135000D01*
X145669000Y-60325000D02*
X145669000Y-64135000D01*
X158369000Y-64135000D02*
X158019000Y-64135000D01*
X171069000Y-64135000D02*
X170719000Y-64135000D01*
X158719000Y-64135000D02*
X158369000Y-64135000D01*
X183769000Y-64135000D02*
X183419000Y-64135000D01*
X171419000Y-64135000D02*
X171069000Y-64135000D01*
D31*
X215265000Y-83185000D02*
X210022438Y-83185000D01*
X210022438Y-83185000D02*
X200408448Y-92798990D01*
X200408448Y-92798990D02*
X199820810Y-92798990D01*
X199820810Y-92798990D02*
X199128990Y-93490810D01*
X199128990Y-93490810D02*
X199128990Y-94469190D01*
X199128990Y-94469190D02*
X199136000Y-94476200D01*
X199136000Y-94476200D02*
X199136000Y-94646000D01*
X199136000Y-94646000D02*
X201010000Y-96520000D01*
X201010000Y-96520000D02*
X200660000Y-96520000D01*
X170053000Y-115737000D02*
X169599999Y-116190001D01*
X169205882Y-113030000D02*
X170053000Y-113877118D01*
X162750499Y-115379501D02*
X165100000Y-113030000D01*
X169599999Y-116190001D02*
X168950000Y-116840000D01*
X130913373Y-115379501D02*
X162750499Y-115379501D01*
X110606839Y-100393501D02*
X115927373Y-100393501D01*
X115927373Y-100393501D02*
X130913373Y-115379501D01*
X108585000Y-96140000D02*
X108585000Y-98371662D01*
X170053000Y-113877118D02*
X170053000Y-115737000D01*
X108585000Y-98371662D02*
X110606839Y-100393501D01*
X165100000Y-113030000D02*
X169205882Y-113030000D01*
X107315000Y-97394000D02*
X107315000Y-96140000D01*
X107315000Y-97820098D02*
X107315000Y-97394000D01*
X115716948Y-100901512D02*
X110396414Y-100901512D01*
X130702948Y-115887512D02*
X115716948Y-100901512D01*
X110396414Y-100901512D02*
X107315000Y-97820098D01*
X167362488Y-115887512D02*
X130702948Y-115887512D01*
X168950000Y-114300000D02*
X167362488Y-115887512D01*
X110185989Y-101409523D02*
X115506523Y-101409523D01*
X168030762Y-119380000D02*
X168950000Y-119380000D01*
X106045000Y-96140000D02*
X106045000Y-97268534D01*
X130556000Y-116459000D02*
X165109762Y-116459000D01*
X165109762Y-116459000D02*
X168030762Y-119380000D01*
X106045000Y-97268534D02*
X110185989Y-101409523D01*
X115506523Y-101409523D02*
X130556000Y-116459000D01*
X72288400Y-121061480D02*
X80908520Y-121061480D01*
X80908520Y-121061480D02*
X81320000Y-120650000D01*
X83820000Y-120650000D02*
X86995000Y-120650000D01*
X86995000Y-120650000D02*
X88900000Y-118745000D01*
X88900000Y-118745000D02*
X88900000Y-100330000D01*
X88900000Y-100330000D02*
X87630000Y-99060000D01*
X81320000Y-63500000D02*
X80400762Y-63500000D01*
X80400762Y-63500000D02*
X71120000Y-63500000D01*
X87630000Y-83820000D02*
X87630000Y-65151000D01*
X87630000Y-65151000D02*
X85979000Y-63500000D01*
X85979000Y-63500000D02*
X83820000Y-63500000D01*
X81320000Y-128270000D02*
X72649080Y-128270000D01*
X72649080Y-128270000D02*
X72237600Y-127858520D01*
X87630000Y-96520000D02*
X90932000Y-99822000D01*
X90932000Y-99822000D02*
X90932000Y-126238000D01*
X90932000Y-126238000D02*
X88900000Y-128270000D01*
X88900000Y-128270000D02*
X83820000Y-128270000D01*
X71120000Y-76200000D02*
X81320000Y-76200000D01*
X83820000Y-76200000D02*
X83947000Y-76200000D01*
X83947000Y-76200000D02*
X85344000Y-77597000D01*
X85344000Y-77597000D02*
X85344000Y-84074000D01*
X85344000Y-84074000D02*
X87630000Y-86360000D01*
X71120000Y-88900000D02*
X72373490Y-88900000D01*
X72373490Y-88900000D02*
X81320000Y-88900000D01*
X83820000Y-88900000D02*
X87630000Y-88900000D01*
X71120000Y-101600000D02*
X72373490Y-101600000D01*
X72373490Y-101600000D02*
X81320000Y-101600000D01*
X83820000Y-101600000D02*
X83820000Y-95250000D01*
X83820000Y-95250000D02*
X87630000Y-91440000D01*
X95250000Y-93980000D02*
X90170000Y-93980000D01*
X90170000Y-93980000D02*
X87630000Y-91440000D01*
X202619260Y-79872460D02*
X202174761Y-80316959D01*
X215265000Y-73025000D02*
X209466720Y-73025000D01*
X209466720Y-73025000D02*
X202619260Y-79872460D01*
X217805000Y-73025000D02*
X216535000Y-74295000D01*
X216535000Y-74295000D02*
X209501750Y-74295000D01*
X209501750Y-74295000D02*
X202643750Y-81153000D01*
X202643750Y-81153000D02*
X201422000Y-81153000D01*
X201422000Y-81153000D02*
X201231480Y-80962480D01*
X200667717Y-82140513D02*
X200223218Y-81696014D01*
X202386743Y-82140513D02*
X200667717Y-82140513D01*
X208962256Y-75565000D02*
X202386743Y-82140513D01*
X215265000Y-75565000D02*
X208962256Y-75565000D01*
X199994896Y-82677000D02*
X199931376Y-82613480D01*
X202568692Y-82677000D02*
X199994896Y-82677000D01*
X199931376Y-82613480D02*
X199302759Y-82613480D01*
X208410692Y-76835000D02*
X202568692Y-82677000D01*
X217805000Y-75565000D02*
X216535000Y-76835000D01*
X216535000Y-76835000D02*
X208410692Y-76835000D01*
X199043724Y-83502480D02*
X198415107Y-83502480D01*
X202461648Y-83502480D02*
X199043724Y-83502480D01*
X215265000Y-78105000D02*
X207859128Y-78105000D01*
X207859128Y-78105000D02*
X202461648Y-83502480D01*
X217805000Y-78105000D02*
X216560399Y-79349601D01*
X216560399Y-79349601D02*
X207332963Y-79349601D01*
X207332963Y-79349601D02*
X202354564Y-84328000D01*
X202354564Y-84328000D02*
X197485022Y-84328000D01*
X197485022Y-84328000D02*
X197485000Y-84327978D01*
X180230000Y-91799600D02*
X180230000Y-92049600D01*
X197231000Y-90170000D02*
X181859600Y-90170000D01*
X181859600Y-90170000D02*
X180230000Y-91799600D01*
X215265000Y-80645000D02*
X206756000Y-80645000D01*
X206756000Y-80645000D02*
X197231000Y-90170000D01*
X200660000Y-93980000D02*
X202064000Y-93980000D01*
X202064000Y-93980000D02*
X203245010Y-95161010D01*
X203245010Y-95161010D02*
X214146980Y-95161010D01*
X214146980Y-95161010D02*
X214667591Y-94640399D01*
X214667591Y-94640399D02*
X216509601Y-94640399D01*
X216509601Y-94640399D02*
X216941401Y-94208599D01*
X216941401Y-94208599D02*
X217805000Y-93345000D01*
X185547000Y-102870000D02*
X212138686Y-102870000D01*
X212138686Y-102870000D02*
X214043686Y-100965000D01*
X214043686Y-100965000D02*
X215265000Y-100965000D01*
X187452000Y-105410000D02*
X211517990Y-105410000D01*
X211517990Y-105410000D02*
X214692990Y-102235000D01*
X214692990Y-102235000D02*
X216535000Y-102235000D01*
X216535000Y-102235000D02*
X217805000Y-100965000D01*
X144780000Y-114300000D02*
X146410000Y-112670000D01*
X146410000Y-112670000D02*
X146410000Y-111150400D01*
X172473000Y-81915000D02*
X171069000Y-81915000D01*
X172923436Y-81915000D02*
X172473000Y-81915000D01*
X174193436Y-80645000D02*
X172923436Y-81915000D01*
X181095000Y-80645000D02*
X174193436Y-80645000D01*
X182365000Y-81915000D02*
X181095000Y-80645000D01*
X183769000Y-81915000D02*
X182365000Y-81915000D01*
X183769000Y-79375000D02*
X182365000Y-79375000D01*
X172473000Y-79375000D02*
X171069000Y-79375000D01*
X182365000Y-79375000D02*
X181095000Y-78105000D01*
X181095000Y-78105000D02*
X173743000Y-78105000D01*
X173743000Y-78105000D02*
X172473000Y-79375000D01*
X168529000Y-76835000D02*
X163449000Y-76835000D01*
X169799000Y-78105000D02*
X168529000Y-76835000D01*
X172339000Y-78105000D02*
X169799000Y-78105000D01*
X173609000Y-76835000D02*
X172339000Y-78105000D01*
X176149000Y-76835000D02*
X173609000Y-76835000D01*
X164853000Y-81915000D02*
X163449000Y-81915000D01*
X174529000Y-83185000D02*
X168592501Y-83185000D01*
X176149000Y-81915000D02*
X175799000Y-81915000D01*
X167322501Y-81915000D02*
X164853000Y-81915000D01*
X168592501Y-83185000D02*
X167322501Y-81915000D01*
X175799000Y-81915000D02*
X174529000Y-83185000D01*
X167767000Y-83566000D02*
X167138383Y-83566000D01*
X160954010Y-83096010D02*
X159773000Y-81915000D01*
X167138383Y-83566000D02*
X166668393Y-83096010D01*
X166668393Y-83096010D02*
X160954010Y-83096010D01*
X159773000Y-81915000D02*
X158369000Y-81915000D01*
X158369000Y-81915000D02*
X157099000Y-81915000D01*
X157099000Y-81915000D02*
X155829000Y-80645000D01*
X148209000Y-80645000D02*
X146939000Y-81915000D01*
X155829000Y-80645000D02*
X148209000Y-80645000D01*
X146939000Y-81915000D02*
X145669000Y-81915000D01*
X158369000Y-79375000D02*
X159773000Y-79375000D01*
X159773000Y-79375000D02*
X161131990Y-78016010D01*
X161131990Y-78016010D02*
X165646010Y-78016010D01*
X165646010Y-78016010D02*
X166370000Y-78740000D01*
X157099000Y-79375000D02*
X155829000Y-78105000D01*
X155829000Y-78105000D02*
X148209000Y-78105000D01*
X158369000Y-79375000D02*
X157099000Y-79375000D01*
X146939000Y-79375000D02*
X145669000Y-79375000D01*
X148209000Y-78105000D02*
X146939000Y-79375000D01*
X167770000Y-92049600D02*
X167770000Y-91799600D01*
X167770000Y-91799600D02*
X163092400Y-87122000D01*
X163092400Y-87122000D02*
X147955000Y-87122000D01*
X150749000Y-76835000D02*
X148209000Y-76835000D01*
X143129000Y-76835000D02*
X139453000Y-76835000D01*
X148209000Y-76835000D02*
X146939000Y-78105000D01*
X146939000Y-78105000D02*
X144399000Y-78105000D01*
X139453000Y-76835000D02*
X138049000Y-76835000D01*
X144399000Y-78105000D02*
X143129000Y-76835000D01*
X151123617Y-89217480D02*
X150495000Y-89217480D01*
X165990000Y-90945600D02*
X164261880Y-89217480D01*
X165990000Y-92049600D02*
X165990000Y-90945600D01*
X164261880Y-89217480D02*
X151123617Y-89217480D01*
X150749000Y-81915000D02*
X148209000Y-81915000D01*
X148209000Y-81915000D02*
X146939000Y-83185000D01*
X146939000Y-83185000D02*
X144399000Y-83185000D01*
X144399000Y-83185000D02*
X143129000Y-81915000D01*
X143129000Y-81915000D02*
X138049000Y-81915000D01*
X158369000Y-76835000D02*
X156965000Y-76835000D01*
X156965000Y-76835000D02*
X155695000Y-75565000D01*
X155695000Y-75565000D02*
X148209000Y-75565000D01*
X148209000Y-75565000D02*
X146939000Y-76835000D01*
X146939000Y-76835000D02*
X145669000Y-76835000D01*
X171069000Y-76835000D02*
X169665000Y-76835000D01*
X169665000Y-76835000D02*
X168483990Y-75653990D01*
X160954010Y-75653990D02*
X159773000Y-76835000D01*
X168483990Y-75653990D02*
X160954010Y-75653990D01*
X159773000Y-76835000D02*
X158369000Y-76835000D01*
X183769000Y-76835000D02*
X182365000Y-76835000D01*
X172473000Y-76835000D02*
X171069000Y-76835000D01*
X173654010Y-75653990D02*
X172473000Y-76835000D01*
X182365000Y-76835000D02*
X181183990Y-75653990D01*
X181183990Y-75653990D02*
X173654010Y-75653990D01*
X144630000Y-92049600D02*
X144630000Y-91799600D01*
X144630000Y-91799600D02*
X143002000Y-90171600D01*
X143002000Y-90170000D02*
X140462000Y-87630000D01*
X143002000Y-90171600D02*
X143002000Y-90170000D01*
X140462000Y-87630000D02*
X139699992Y-87630000D01*
X144772643Y-92049600D02*
X146779243Y-90043000D01*
X144630000Y-92049600D02*
X144772643Y-92049600D01*
X163074383Y-90043000D02*
X163703000Y-90043000D01*
X146779243Y-90043000D02*
X163074383Y-90043000D01*
X155829000Y-79375000D02*
X150749000Y-79375000D01*
X157010010Y-80556010D02*
X155829000Y-79375000D01*
X176149000Y-79375000D02*
X174745000Y-79375000D01*
X174745000Y-79375000D02*
X173563990Y-80556010D01*
X173563990Y-80556010D02*
X157010010Y-80556010D01*
X182365000Y-74295000D02*
X181183990Y-73113990D01*
X181183990Y-73113990D02*
X173654010Y-73113990D01*
X173654010Y-73113990D02*
X172473000Y-74295000D01*
X158369000Y-74295000D02*
X156965000Y-74295000D01*
X156965000Y-74295000D02*
X155783990Y-73113990D01*
X155783990Y-73113990D02*
X148120010Y-73113990D01*
X146939000Y-74295000D02*
X145669000Y-74295000D01*
X148120010Y-73113990D02*
X146939000Y-74295000D01*
X171069000Y-74295000D02*
X169665000Y-74295000D01*
X169665000Y-74295000D02*
X168483990Y-73113990D01*
X168483990Y-73113990D02*
X160954010Y-73113990D01*
X160954010Y-73113990D02*
X159773000Y-74295000D01*
X159773000Y-74295000D02*
X158369000Y-74295000D01*
X183769000Y-74295000D02*
X182365000Y-74295000D01*
X172473000Y-74295000D02*
X171069000Y-74295000D01*
X111125000Y-99314000D02*
X111125000Y-98326172D01*
X111125000Y-98326172D02*
X111125000Y-96140000D01*
X137160000Y-114300000D02*
X130556000Y-114300000D01*
X130556000Y-114300000D02*
X116205000Y-99949000D01*
X116205000Y-99949000D02*
X116205000Y-97394000D01*
X116205000Y-97394000D02*
X116205000Y-96140000D01*
X116205000Y-86740000D02*
X116205000Y-87440000D01*
X116205000Y-87440000D02*
X114364000Y-89281000D01*
X114364000Y-89281000D02*
X111252000Y-89281000D01*
X111252000Y-89281000D02*
X108077000Y-92456000D01*
X108077000Y-92456000D02*
X101346000Y-92456000D01*
X101346000Y-92456000D02*
X95250000Y-98552000D01*
X95250000Y-98552000D02*
X95250000Y-99060000D01*
X95250000Y-96520000D02*
X100203000Y-91567000D01*
X100203000Y-91567000D02*
X107823000Y-91567000D01*
X107823000Y-91567000D02*
X110744000Y-88646000D01*
X110744000Y-88646000D02*
X113729000Y-88646000D01*
X113729000Y-88646000D02*
X114935000Y-87440000D01*
X114935000Y-87440000D02*
X114935000Y-86740000D01*
X121920000Y-87630000D02*
X121920000Y-86730800D01*
X121920000Y-86730800D02*
X120025200Y-84836000D01*
X120025200Y-84836000D02*
X114681000Y-84836000D01*
X114681000Y-84836000D02*
X113665000Y-85852000D01*
X113665000Y-85852000D02*
X113665000Y-86740000D01*
X95250000Y-91440000D02*
X96012000Y-90678000D01*
X96012000Y-90678000D02*
X107315000Y-90678000D01*
X107315000Y-90678000D02*
X109855000Y-88138000D01*
X109855000Y-88138000D02*
X109855000Y-86740000D01*
X95250000Y-88900000D02*
X96139000Y-89789000D01*
X108585000Y-88265000D02*
X108585000Y-86740000D01*
X96139000Y-89789000D02*
X107061000Y-89789000D01*
X107061000Y-89789000D02*
X108585000Y-88265000D01*
X95250000Y-86360000D02*
X97917000Y-89027000D01*
X97917000Y-89027000D02*
X106636436Y-89027000D01*
X106636436Y-89027000D02*
X107315000Y-88348436D01*
X107315000Y-88348436D02*
X107315000Y-87994000D01*
X107315000Y-87994000D02*
X107315000Y-86740000D01*
X107315000Y-86106000D02*
X107315000Y-86740000D01*
X95250000Y-83820000D02*
X99695000Y-88265000D01*
X99695000Y-88265000D02*
X105791000Y-88265000D01*
X105791000Y-88265000D02*
X106045000Y-88011000D01*
X106045000Y-88011000D02*
X106045000Y-86740000D01*
X150749000Y-74295000D02*
X148209000Y-74295000D01*
X148209000Y-74295000D02*
X146939000Y-75565000D01*
X146939000Y-75565000D02*
X144399000Y-75565000D01*
X144399000Y-75565000D02*
X143129000Y-74295000D01*
X143129000Y-74295000D02*
X138049000Y-74295000D01*
X163449000Y-74295000D02*
X160909000Y-74295000D01*
X160909000Y-74295000D02*
X159639000Y-75565000D01*
X159639000Y-75565000D02*
X157099000Y-75565000D01*
X157099000Y-75565000D02*
X155829000Y-74295000D01*
X155829000Y-74295000D02*
X150749000Y-74295000D01*
X176149000Y-74295000D02*
X173609000Y-74295000D01*
X173609000Y-74295000D02*
X172427990Y-75476010D01*
X172427990Y-75476010D02*
X169837010Y-75476010D01*
X169837010Y-75476010D02*
X168656000Y-74295000D01*
X168656000Y-74295000D02*
X163449000Y-74295000D01*
X150749000Y-71755000D02*
X148209000Y-71755000D01*
X148209000Y-71755000D02*
X146939000Y-73025000D01*
X146939000Y-73025000D02*
X144399000Y-73025000D01*
X144399000Y-73025000D02*
X143129000Y-71755000D01*
X143129000Y-71755000D02*
X138049000Y-71755000D01*
X163449000Y-71755000D02*
X160909000Y-71755000D01*
X160909000Y-71755000D02*
X159639000Y-73025000D01*
X159639000Y-73025000D02*
X157099000Y-73025000D01*
X157099000Y-73025000D02*
X155829000Y-71755000D01*
X155829000Y-71755000D02*
X150749000Y-71755000D01*
X176149000Y-71755000D02*
X173609000Y-71755000D01*
X173609000Y-71755000D02*
X172339000Y-73025000D01*
X172339000Y-73025000D02*
X169799000Y-73025000D01*
X169799000Y-73025000D02*
X168529000Y-71755000D01*
X168529000Y-71755000D02*
X163449000Y-71755000D01*
X168529000Y-69215000D02*
X163449000Y-69215000D01*
X169799000Y-70485000D02*
X168529000Y-69215000D01*
X172339000Y-70485000D02*
X169799000Y-70485000D01*
X173609000Y-69215000D02*
X172339000Y-70485000D01*
X176149000Y-69215000D02*
X173609000Y-69215000D01*
X150749000Y-69215000D02*
X148209000Y-69215000D01*
X148209000Y-69215000D02*
X146939000Y-70485000D01*
X146939000Y-70485000D02*
X144399000Y-70485000D01*
X144399000Y-70485000D02*
X143129000Y-69215000D01*
X143129000Y-69215000D02*
X138049000Y-69215000D01*
X163449000Y-69215000D02*
X160909000Y-69215000D01*
X155829000Y-69215000D02*
X150749000Y-69215000D01*
X160909000Y-69215000D02*
X159550010Y-70573990D01*
X159550010Y-70573990D02*
X157187990Y-70573990D01*
X157187990Y-70573990D02*
X155829000Y-69215000D01*
X150749000Y-66675000D02*
X148209000Y-66675000D01*
X148209000Y-66675000D02*
X146939000Y-67945000D01*
X146939000Y-67945000D02*
X144399000Y-67945000D01*
X144399000Y-67945000D02*
X143129000Y-66675000D01*
X143129000Y-66675000D02*
X138049000Y-66675000D01*
X163449000Y-66675000D02*
X160909000Y-66675000D01*
X160909000Y-66675000D02*
X159639000Y-67945000D01*
X159639000Y-67945000D02*
X157099000Y-67945000D01*
X157099000Y-67945000D02*
X155829000Y-66675000D01*
X155829000Y-66675000D02*
X150749000Y-66675000D01*
X176149000Y-66675000D02*
X173609000Y-66675000D01*
X173609000Y-66675000D02*
X172339000Y-67945000D01*
X169799000Y-67945000D02*
X168529000Y-66675000D01*
X172339000Y-67945000D02*
X169799000Y-67945000D01*
X168529000Y-66675000D02*
X163449000Y-66675000D01*
X173743000Y-65405000D02*
X172473000Y-66675000D01*
X182149000Y-65405000D02*
X173743000Y-65405000D01*
X158369000Y-66675000D02*
X157099000Y-66675000D01*
X157099000Y-66675000D02*
X155829000Y-65405000D01*
X148209000Y-65405000D02*
X146939000Y-66675000D01*
X155829000Y-65405000D02*
X148209000Y-65405000D01*
X146939000Y-66675000D02*
X145669000Y-66675000D01*
X171069000Y-66675000D02*
X169799000Y-66675000D01*
X168529000Y-65405000D02*
X160909000Y-65405000D01*
X169799000Y-66675000D02*
X168529000Y-65405000D01*
X160909000Y-65405000D02*
X159639000Y-66675000D01*
X159639000Y-66675000D02*
X158369000Y-66675000D01*
X183419000Y-66675000D02*
X182149000Y-65405000D01*
X183769000Y-66675000D02*
X183419000Y-66675000D01*
X172473000Y-66675000D02*
X171069000Y-66675000D01*
X182499000Y-69215000D02*
X181317990Y-68033990D01*
X181317990Y-68033990D02*
X173697990Y-68033990D01*
X173697990Y-68033990D02*
X172516980Y-69215000D01*
X171069000Y-69215000D02*
X169665000Y-69215000D01*
X169665000Y-69215000D02*
X168395000Y-67945000D01*
X168395000Y-67945000D02*
X161043000Y-67945000D01*
X161043000Y-67945000D02*
X159773000Y-69215000D01*
X159773000Y-69215000D02*
X158369000Y-69215000D01*
X158369000Y-69215000D02*
X157099000Y-69215000D01*
X157099000Y-69215000D02*
X155829000Y-67945000D01*
X155829000Y-67945000D02*
X148209000Y-67945000D01*
X148209000Y-67945000D02*
X146939000Y-69215000D01*
X146939000Y-69215000D02*
X145669000Y-69215000D01*
X183769000Y-69215000D02*
X182499000Y-69215000D01*
X172516980Y-69215000D02*
X171069000Y-69215000D01*
X158369000Y-71755000D02*
X156965000Y-71755000D01*
X156965000Y-71755000D02*
X155783990Y-70573990D01*
X155783990Y-70573990D02*
X148120010Y-70573990D01*
X148120010Y-70573990D02*
X146939000Y-71755000D01*
X146939000Y-71755000D02*
X145669000Y-71755000D01*
X183769000Y-71755000D02*
X182365000Y-71755000D01*
X172473000Y-71755000D02*
X171069000Y-71755000D01*
X182365000Y-71755000D02*
X181183990Y-70573990D01*
X181183990Y-70573990D02*
X173654010Y-70573990D01*
X173654010Y-70573990D02*
X172473000Y-71755000D01*
X171069000Y-71755000D02*
X169665000Y-71755000D01*
X169665000Y-71755000D02*
X168483990Y-70573990D01*
X160954010Y-70573990D02*
X159773000Y-71755000D01*
X168483990Y-70573990D02*
X160954010Y-70573990D01*
X159773000Y-71755000D02*
X158369000Y-71755000D01*
X150749000Y-64135000D02*
X148209000Y-64135000D01*
X148209000Y-64135000D02*
X146939000Y-65405000D01*
X146939000Y-65405000D02*
X144399000Y-65405000D01*
X144399000Y-65405000D02*
X143129000Y-64135000D01*
X143129000Y-64135000D02*
X139453000Y-64135000D01*
X139453000Y-64135000D02*
X138049000Y-64135000D01*
X163449000Y-64135000D02*
X160909000Y-64135000D01*
X160909000Y-64135000D02*
X159639000Y-65405000D01*
X159639000Y-65405000D02*
X157099000Y-65405000D01*
X157099000Y-65405000D02*
X155829000Y-64135000D01*
X155829000Y-64135000D02*
X152153000Y-64135000D01*
X152153000Y-64135000D02*
X150749000Y-64135000D01*
X176149000Y-64135000D02*
X173482000Y-64135000D01*
X173482000Y-64135000D02*
X172212000Y-65405000D01*
X172212000Y-65405000D02*
X169799000Y-65405000D01*
X169799000Y-65405000D02*
X168529000Y-64135000D01*
X168529000Y-64135000D02*
X165608000Y-64135000D01*
X165608000Y-64135000D02*
X163449000Y-64135000D01*
X200660000Y-101600000D02*
X189230000Y-101600000D01*
X191008000Y-104140000D02*
X191636617Y-104140000D01*
X191636617Y-104140000D02*
X200660000Y-104140000D01*
G36*
X221565000Y-145365000D02*
X62915000Y-145365000D01*
X62915000Y-124932085D01*
X63607537Y-124932085D01*
X63969683Y-125808544D01*
X64639669Y-126479700D01*
X65151000Y-126692023D01*
X65151000Y-129475974D01*
X64769600Y-129856709D01*
X64405925Y-130732535D01*
X64405097Y-131680865D01*
X64767243Y-132557324D01*
X65151000Y-132941751D01*
X65151000Y-142240000D01*
X65161006Y-142289410D01*
X65189447Y-142331035D01*
X65231841Y-142358315D01*
X65278000Y-142367000D01*
X219202000Y-142367000D01*
X219251410Y-142356994D01*
X219293035Y-142328553D01*
X219320315Y-142286159D01*
X219329000Y-142240000D01*
X219329000Y-49530000D01*
X219318994Y-49480590D01*
X219290553Y-49438965D01*
X219248159Y-49411685D01*
X219202000Y-49403000D01*
X65278000Y-49403000D01*
X65228590Y-49413006D01*
X65186965Y-49441447D01*
X65159685Y-49483841D01*
X65151000Y-49530000D01*
X65151000Y-115927614D01*
X64769600Y-116308349D01*
X64405925Y-117184175D01*
X64405097Y-118132505D01*
X64767243Y-119008964D01*
X65151000Y-119393391D01*
X65151000Y-122228122D01*
X64643196Y-122437943D01*
X63972040Y-123107929D01*
X63608365Y-123983755D01*
X63607537Y-124932085D01*
X62915000Y-124932085D01*
X62915000Y-46405000D01*
X221565000Y-46405000D01*
X221565000Y-145365000D01*
X221565000Y-145365000D01*
G37*
X221565000Y-145365000D02*
X62915000Y-145365000D01*
X62915000Y-124932085D01*
X63607537Y-124932085D01*
X63969683Y-125808544D01*
X64639669Y-126479700D01*
X65151000Y-126692023D01*
X65151000Y-129475974D01*
X64769600Y-129856709D01*
X64405925Y-130732535D01*
X64405097Y-131680865D01*
X64767243Y-132557324D01*
X65151000Y-132941751D01*
X65151000Y-142240000D01*
X65161006Y-142289410D01*
X65189447Y-142331035D01*
X65231841Y-142358315D01*
X65278000Y-142367000D01*
X219202000Y-142367000D01*
X219251410Y-142356994D01*
X219293035Y-142328553D01*
X219320315Y-142286159D01*
X219329000Y-142240000D01*
X219329000Y-49530000D01*
X219318994Y-49480590D01*
X219290553Y-49438965D01*
X219248159Y-49411685D01*
X219202000Y-49403000D01*
X65278000Y-49403000D01*
X65228590Y-49413006D01*
X65186965Y-49441447D01*
X65159685Y-49483841D01*
X65151000Y-49530000D01*
X65151000Y-115927614D01*
X64769600Y-116308349D01*
X64405925Y-117184175D01*
X64405097Y-118132505D01*
X64767243Y-119008964D01*
X65151000Y-119393391D01*
X65151000Y-122228122D01*
X64643196Y-122437943D01*
X63972040Y-123107929D01*
X63608365Y-123983755D01*
X63607537Y-124932085D01*
X62915000Y-124932085D01*
X62915000Y-46405000D01*
X221565000Y-46405000D01*
X221565000Y-145365000D01*
G36*
X123063000Y-110043631D02*
X123063000Y-124333000D01*
X101282500Y-124333000D01*
X101282500Y-119400320D01*
X102242880Y-119400320D01*
X102242880Y-121899680D01*
X102287158Y-122134997D01*
X102426230Y-122351121D01*
X102638430Y-122496111D01*
X102890320Y-122547120D01*
X105389680Y-122547120D01*
X105624997Y-122502842D01*
X105841121Y-122363770D01*
X105986111Y-122151570D01*
X106020229Y-121983089D01*
X118226517Y-121983089D01*
X118355725Y-122275859D01*
X119055883Y-122544071D01*
X119805384Y-122523928D01*
X120404275Y-122275859D01*
X120533483Y-121983089D01*
X119380000Y-120829605D01*
X118226517Y-121983089D01*
X106020229Y-121983089D01*
X106037120Y-121899680D01*
X106037120Y-120325883D01*
X117485929Y-120325883D01*
X117506072Y-121075384D01*
X117754141Y-121674275D01*
X118046911Y-121803483D01*
X119200395Y-120650000D01*
X119559605Y-120650000D01*
X120713089Y-121803483D01*
X121005859Y-121674275D01*
X121274071Y-120974117D01*
X121253928Y-120224616D01*
X121005859Y-119625725D01*
X120713089Y-119496517D01*
X119559605Y-120650000D01*
X119200395Y-120650000D01*
X118046911Y-119496517D01*
X117754141Y-119625725D01*
X117485929Y-120325883D01*
X106037120Y-120325883D01*
X106037120Y-119400320D01*
X106021426Y-119316911D01*
X118226517Y-119316911D01*
X119380000Y-120470395D01*
X120533483Y-119316911D01*
X120404275Y-119024141D01*
X119704117Y-118755929D01*
X118954616Y-118776072D01*
X118355725Y-119024141D01*
X118226517Y-119316911D01*
X106021426Y-119316911D01*
X105992842Y-119165003D01*
X105853770Y-118948879D01*
X105641570Y-118803889D01*
X105389680Y-118752880D01*
X102890320Y-118752880D01*
X102655003Y-118797158D01*
X102438879Y-118936230D01*
X102293889Y-119148430D01*
X102242880Y-119400320D01*
X101282500Y-119400320D01*
X101282500Y-117234538D01*
X103649860Y-114867178D01*
X103763469Y-114914352D01*
X104513241Y-114915006D01*
X105206191Y-114628686D01*
X105736822Y-114098979D01*
X106024352Y-113406531D01*
X106024354Y-113403241D01*
X117494994Y-113403241D01*
X117781314Y-114096191D01*
X118311021Y-114626822D01*
X119003469Y-114914352D01*
X119753241Y-114915006D01*
X120446191Y-114628686D01*
X120976822Y-114098979D01*
X121264352Y-113406531D01*
X121265006Y-112656759D01*
X120978686Y-111963809D01*
X120448979Y-111433178D01*
X119756531Y-111145648D01*
X119006759Y-111144994D01*
X118313809Y-111431314D01*
X117783178Y-111961021D01*
X117495648Y-112653469D01*
X117494994Y-113403241D01*
X106024354Y-113403241D01*
X106025006Y-112656759D01*
X105738686Y-111963809D01*
X105208979Y-111433178D01*
X104516531Y-111145648D01*
X103766759Y-111144994D01*
X103073809Y-111431314D01*
X102543178Y-111961021D01*
X102255648Y-112653469D01*
X102254994Y-113403241D01*
X102303157Y-113519805D01*
X99656481Y-116166481D01*
X99450005Y-116475494D01*
X99377500Y-116840000D01*
X99377500Y-124333000D01*
X99187000Y-124333000D01*
X99187000Y-109347000D01*
X122366370Y-109347000D01*
X123063000Y-110043631D01*
X123063000Y-110043631D01*
G37*
X123063000Y-110043631D02*
X123063000Y-124333000D01*
X101282500Y-124333000D01*
X101282500Y-119400320D01*
X102242880Y-119400320D01*
X102242880Y-121899680D01*
X102287158Y-122134997D01*
X102426230Y-122351121D01*
X102638430Y-122496111D01*
X102890320Y-122547120D01*
X105389680Y-122547120D01*
X105624997Y-122502842D01*
X105841121Y-122363770D01*
X105986111Y-122151570D01*
X106020229Y-121983089D01*
X118226517Y-121983089D01*
X118355725Y-122275859D01*
X119055883Y-122544071D01*
X119805384Y-122523928D01*
X120404275Y-122275859D01*
X120533483Y-121983089D01*
X119380000Y-120829605D01*
X118226517Y-121983089D01*
X106020229Y-121983089D01*
X106037120Y-121899680D01*
X106037120Y-120325883D01*
X117485929Y-120325883D01*
X117506072Y-121075384D01*
X117754141Y-121674275D01*
X118046911Y-121803483D01*
X119200395Y-120650000D01*
X119559605Y-120650000D01*
X120713089Y-121803483D01*
X121005859Y-121674275D01*
X121274071Y-120974117D01*
X121253928Y-120224616D01*
X121005859Y-119625725D01*
X120713089Y-119496517D01*
X119559605Y-120650000D01*
X119200395Y-120650000D01*
X118046911Y-119496517D01*
X117754141Y-119625725D01*
X117485929Y-120325883D01*
X106037120Y-120325883D01*
X106037120Y-119400320D01*
X106021426Y-119316911D01*
X118226517Y-119316911D01*
X119380000Y-120470395D01*
X120533483Y-119316911D01*
X120404275Y-119024141D01*
X119704117Y-118755929D01*
X118954616Y-118776072D01*
X118355725Y-119024141D01*
X118226517Y-119316911D01*
X106021426Y-119316911D01*
X105992842Y-119165003D01*
X105853770Y-118948879D01*
X105641570Y-118803889D01*
X105389680Y-118752880D01*
X102890320Y-118752880D01*
X102655003Y-118797158D01*
X102438879Y-118936230D01*
X102293889Y-119148430D01*
X102242880Y-119400320D01*
X101282500Y-119400320D01*
X101282500Y-117234538D01*
X103649860Y-114867178D01*
X103763469Y-114914352D01*
X104513241Y-114915006D01*
X105206191Y-114628686D01*
X105736822Y-114098979D01*
X106024352Y-113406531D01*
X106024354Y-113403241D01*
X117494994Y-113403241D01*
X117781314Y-114096191D01*
X118311021Y-114626822D01*
X119003469Y-114914352D01*
X119753241Y-114915006D01*
X120446191Y-114628686D01*
X120976822Y-114098979D01*
X121264352Y-113406531D01*
X121265006Y-112656759D01*
X120978686Y-111963809D01*
X120448979Y-111433178D01*
X119756531Y-111145648D01*
X119006759Y-111144994D01*
X118313809Y-111431314D01*
X117783178Y-111961021D01*
X117495648Y-112653469D01*
X117494994Y-113403241D01*
X106024354Y-113403241D01*
X106025006Y-112656759D01*
X105738686Y-111963809D01*
X105208979Y-111433178D01*
X104516531Y-111145648D01*
X103766759Y-111144994D01*
X103073809Y-111431314D01*
X102543178Y-111961021D01*
X102255648Y-112653469D01*
X102254994Y-113403241D01*
X102303157Y-113519805D01*
X99656481Y-116166481D01*
X99450005Y-116475494D01*
X99377500Y-116840000D01*
X99377500Y-124333000D01*
X99187000Y-124333000D01*
X99187000Y-109347000D01*
X122366370Y-109347000D01*
X123063000Y-110043631D01*
M02*
