G04 #@! TF.FileFunction,Legend,Top*
%FSLAX46Y46*%
G04 Gerber Fmt 4.6, Leading zero omitted, Abs format (unit mm)*
G04 Created by KiCad (PCBNEW 4.0.2+dfsg1-stable) date Sat 18 Nov 2017 01:56:56 PM CET*
%MOMM*%
G01*
G04 APERTURE LIST*
%ADD10C,0.100000*%
%ADD11C,0.300000*%
%ADD12C,0.150000*%
%ADD13C,0.127000*%
%ADD14C,0.203200*%
G04 APERTURE END LIST*
D10*
D11*
X170465714Y-136637143D02*
X170680000Y-136708571D01*
X171037143Y-136708571D01*
X171180000Y-136637143D01*
X171251429Y-136565714D01*
X171322857Y-136422857D01*
X171322857Y-136280000D01*
X171251429Y-136137143D01*
X171180000Y-136065714D01*
X171037143Y-135994286D01*
X170751429Y-135922857D01*
X170608571Y-135851429D01*
X170537143Y-135780000D01*
X170465714Y-135637143D01*
X170465714Y-135494286D01*
X170537143Y-135351429D01*
X170608571Y-135280000D01*
X170751429Y-135208571D01*
X171108571Y-135208571D01*
X171322857Y-135280000D01*
X171751428Y-135708571D02*
X172322857Y-135708571D01*
X171965714Y-135208571D02*
X171965714Y-136494286D01*
X172037142Y-136637143D01*
X172180000Y-136708571D01*
X172322857Y-136708571D01*
X173394285Y-136637143D02*
X173251428Y-136708571D01*
X172965714Y-136708571D01*
X172822857Y-136637143D01*
X172751428Y-136494286D01*
X172751428Y-135922857D01*
X172822857Y-135780000D01*
X172965714Y-135708571D01*
X173251428Y-135708571D01*
X173394285Y-135780000D01*
X173465714Y-135922857D01*
X173465714Y-136065714D01*
X172751428Y-136208571D01*
X174751428Y-136637143D02*
X174608571Y-136708571D01*
X174322857Y-136708571D01*
X174179999Y-136637143D01*
X174108571Y-136565714D01*
X174037142Y-136422857D01*
X174037142Y-135994286D01*
X174108571Y-135851429D01*
X174179999Y-135780000D01*
X174322857Y-135708571D01*
X174608571Y-135708571D01*
X174751428Y-135780000D01*
X175394285Y-136708571D02*
X175394285Y-135208571D01*
X175537142Y-136137143D02*
X175965713Y-136708571D01*
X175965713Y-135708571D02*
X175394285Y-136280000D01*
X176537142Y-136637143D02*
X176679999Y-136708571D01*
X176965714Y-136708571D01*
X177108571Y-136637143D01*
X177179999Y-136494286D01*
X177179999Y-136422857D01*
X177108571Y-136280000D01*
X176965714Y-136208571D01*
X176751428Y-136208571D01*
X176608571Y-136137143D01*
X176537142Y-135994286D01*
X176537142Y-135922857D01*
X176608571Y-135780000D01*
X176751428Y-135708571D01*
X176965714Y-135708571D01*
X177108571Y-135780000D01*
X178465714Y-136637143D02*
X178322857Y-136708571D01*
X178037143Y-136708571D01*
X177894285Y-136637143D01*
X177822857Y-136565714D01*
X177751428Y-136422857D01*
X177751428Y-135994286D01*
X177822857Y-135851429D01*
X177894285Y-135780000D01*
X178037143Y-135708571D01*
X178322857Y-135708571D01*
X178465714Y-135780000D01*
X179108571Y-136708571D02*
X179108571Y-135208571D01*
X179751428Y-136708571D02*
X179751428Y-135922857D01*
X179679999Y-135780000D01*
X179537142Y-135708571D01*
X179322857Y-135708571D01*
X179179999Y-135780000D01*
X179108571Y-135851429D01*
X180322857Y-135708571D02*
X180608571Y-136708571D01*
X180894285Y-135994286D01*
X181180000Y-136708571D01*
X181465714Y-135708571D01*
X182608571Y-136637143D02*
X182465714Y-136708571D01*
X182180000Y-136708571D01*
X182037143Y-136637143D01*
X181965714Y-136494286D01*
X181965714Y-135922857D01*
X182037143Y-135780000D01*
X182180000Y-135708571D01*
X182465714Y-135708571D01*
X182608571Y-135780000D01*
X182680000Y-135922857D01*
X182680000Y-136065714D01*
X181965714Y-136208571D01*
X183322857Y-136708571D02*
X183322857Y-135708571D01*
X183322857Y-135208571D02*
X183251428Y-135280000D01*
X183322857Y-135351429D01*
X183394285Y-135280000D01*
X183322857Y-135208571D01*
X183322857Y-135351429D01*
X184037143Y-135708571D02*
X184037143Y-136708571D01*
X184037143Y-135851429D02*
X184108571Y-135780000D01*
X184251429Y-135708571D01*
X184465714Y-135708571D01*
X184608571Y-135780000D01*
X184680000Y-135922857D01*
X184680000Y-136708571D01*
X186537143Y-136708571D02*
X186537143Y-135208571D01*
X187537143Y-135208571D02*
X187822857Y-135208571D01*
X187965715Y-135280000D01*
X188108572Y-135422857D01*
X188180000Y-135708571D01*
X188180000Y-136208571D01*
X188108572Y-136494286D01*
X187965715Y-136637143D01*
X187822857Y-136708571D01*
X187537143Y-136708571D01*
X187394286Y-136637143D01*
X187251429Y-136494286D01*
X187180000Y-136208571D01*
X187180000Y-135708571D01*
X187251429Y-135422857D01*
X187394286Y-135280000D01*
X187537143Y-135208571D01*
X189894286Y-135137143D02*
X188608572Y-137065714D01*
X190322858Y-136637143D02*
X190537144Y-136708571D01*
X190894287Y-136708571D01*
X191037144Y-136637143D01*
X191108573Y-136565714D01*
X191180001Y-136422857D01*
X191180001Y-136280000D01*
X191108573Y-136137143D01*
X191037144Y-136065714D01*
X190894287Y-135994286D01*
X190608573Y-135922857D01*
X190465715Y-135851429D01*
X190394287Y-135780000D01*
X190322858Y-135637143D01*
X190322858Y-135494286D01*
X190394287Y-135351429D01*
X190465715Y-135280000D01*
X190608573Y-135208571D01*
X190965715Y-135208571D01*
X191180001Y-135280000D01*
X191822858Y-136708571D02*
X191822858Y-135208571D01*
X192394286Y-135208571D01*
X192537144Y-135280000D01*
X192608572Y-135351429D01*
X192680001Y-135494286D01*
X192680001Y-135708571D01*
X192608572Y-135851429D01*
X192537144Y-135922857D01*
X192394286Y-135994286D01*
X191822858Y-135994286D01*
X193322858Y-136708571D02*
X193322858Y-135208571D01*
X195680001Y-135922857D02*
X195894287Y-135994286D01*
X195965715Y-136065714D01*
X196037144Y-136208571D01*
X196037144Y-136422857D01*
X195965715Y-136565714D01*
X195894287Y-136637143D01*
X195751429Y-136708571D01*
X195180001Y-136708571D01*
X195180001Y-135208571D01*
X195680001Y-135208571D01*
X195822858Y-135280000D01*
X195894287Y-135351429D01*
X195965715Y-135494286D01*
X195965715Y-135637143D01*
X195894287Y-135780000D01*
X195822858Y-135851429D01*
X195680001Y-135922857D01*
X195180001Y-135922857D01*
X196894287Y-136708571D02*
X196751429Y-136637143D01*
X196680001Y-136565714D01*
X196608572Y-136422857D01*
X196608572Y-135994286D01*
X196680001Y-135851429D01*
X196751429Y-135780000D01*
X196894287Y-135708571D01*
X197108572Y-135708571D01*
X197251429Y-135780000D01*
X197322858Y-135851429D01*
X197394287Y-135994286D01*
X197394287Y-136422857D01*
X197322858Y-136565714D01*
X197251429Y-136637143D01*
X197108572Y-136708571D01*
X196894287Y-136708571D01*
X198680001Y-136708571D02*
X198680001Y-135922857D01*
X198608572Y-135780000D01*
X198465715Y-135708571D01*
X198180001Y-135708571D01*
X198037144Y-135780000D01*
X198680001Y-136637143D02*
X198537144Y-136708571D01*
X198180001Y-136708571D01*
X198037144Y-136637143D01*
X197965715Y-136494286D01*
X197965715Y-136351429D01*
X198037144Y-136208571D01*
X198180001Y-136137143D01*
X198537144Y-136137143D01*
X198680001Y-136065714D01*
X199394287Y-136708571D02*
X199394287Y-135708571D01*
X199394287Y-135994286D02*
X199465715Y-135851429D01*
X199537144Y-135780000D01*
X199680001Y-135708571D01*
X199822858Y-135708571D01*
X200965715Y-136708571D02*
X200965715Y-135208571D01*
X200965715Y-136637143D02*
X200822858Y-136708571D01*
X200537144Y-136708571D01*
X200394286Y-136637143D01*
X200322858Y-136565714D01*
X200251429Y-136422857D01*
X200251429Y-135994286D01*
X200322858Y-135851429D01*
X200394286Y-135780000D01*
X200537144Y-135708571D01*
X200822858Y-135708571D01*
X200965715Y-135780000D01*
X202680001Y-135708571D02*
X203037144Y-136708571D01*
X203394286Y-135708571D01*
X203894286Y-135351429D02*
X203965715Y-135280000D01*
X204108572Y-135208571D01*
X204465715Y-135208571D01*
X204608572Y-135280000D01*
X204680001Y-135351429D01*
X204751429Y-135494286D01*
X204751429Y-135637143D01*
X204680001Y-135851429D01*
X203822858Y-136708571D01*
X204751429Y-136708571D01*
X205394286Y-136565714D02*
X205465714Y-136637143D01*
X205394286Y-136708571D01*
X205322857Y-136637143D01*
X205394286Y-136565714D01*
X205394286Y-136708571D01*
X206394286Y-135208571D02*
X206537143Y-135208571D01*
X206680000Y-135280000D01*
X206751429Y-135351429D01*
X206822858Y-135494286D01*
X206894286Y-135780000D01*
X206894286Y-136137143D01*
X206822858Y-136422857D01*
X206751429Y-136565714D01*
X206680000Y-136637143D01*
X206537143Y-136708571D01*
X206394286Y-136708571D01*
X206251429Y-136637143D01*
X206180000Y-136565714D01*
X206108572Y-136422857D01*
X206037143Y-136137143D01*
X206037143Y-135780000D01*
X206108572Y-135494286D01*
X206180000Y-135351429D01*
X206251429Y-135280000D01*
X206394286Y-135208571D01*
X170465714Y-137751429D02*
X170537143Y-137680000D01*
X170680000Y-137608571D01*
X171037143Y-137608571D01*
X171180000Y-137680000D01*
X171251429Y-137751429D01*
X171322857Y-137894286D01*
X171322857Y-138037143D01*
X171251429Y-138251429D01*
X170394286Y-139108571D01*
X171322857Y-139108571D01*
X172251428Y-137608571D02*
X172394285Y-137608571D01*
X172537142Y-137680000D01*
X172608571Y-137751429D01*
X172680000Y-137894286D01*
X172751428Y-138180000D01*
X172751428Y-138537143D01*
X172680000Y-138822857D01*
X172608571Y-138965714D01*
X172537142Y-139037143D01*
X172394285Y-139108571D01*
X172251428Y-139108571D01*
X172108571Y-139037143D01*
X172037142Y-138965714D01*
X171965714Y-138822857D01*
X171894285Y-138537143D01*
X171894285Y-138180000D01*
X171965714Y-137894286D01*
X172037142Y-137751429D01*
X172108571Y-137680000D01*
X172251428Y-137608571D01*
X174179999Y-139108571D02*
X173322856Y-139108571D01*
X173751428Y-139108571D02*
X173751428Y-137608571D01*
X173608571Y-137822857D01*
X173465713Y-137965714D01*
X173322856Y-138037143D01*
X174679999Y-137608571D02*
X175679999Y-137608571D01*
X175037142Y-139108571D01*
X177179998Y-137608571D02*
X178037141Y-137608571D01*
X177608570Y-139108571D02*
X177608570Y-137608571D01*
X178537141Y-139108571D02*
X178537141Y-137608571D01*
X179179998Y-139108571D02*
X179179998Y-138322857D01*
X179108569Y-138180000D01*
X178965712Y-138108571D01*
X178751427Y-138108571D01*
X178608569Y-138180000D01*
X178537141Y-138251429D01*
X180108570Y-139108571D02*
X179965712Y-139037143D01*
X179894284Y-138965714D01*
X179822855Y-138822857D01*
X179822855Y-138394286D01*
X179894284Y-138251429D01*
X179965712Y-138180000D01*
X180108570Y-138108571D01*
X180322855Y-138108571D01*
X180465712Y-138180000D01*
X180537141Y-138251429D01*
X180608570Y-138394286D01*
X180608570Y-138822857D01*
X180537141Y-138965714D01*
X180465712Y-139037143D01*
X180322855Y-139108571D01*
X180108570Y-139108571D01*
X181251427Y-139108571D02*
X181251427Y-138108571D01*
X181251427Y-138251429D02*
X181322855Y-138180000D01*
X181465713Y-138108571D01*
X181679998Y-138108571D01*
X181822855Y-138180000D01*
X181894284Y-138322857D01*
X181894284Y-139108571D01*
X181894284Y-138322857D02*
X181965713Y-138180000D01*
X182108570Y-138108571D01*
X182322855Y-138108571D01*
X182465713Y-138180000D01*
X182537141Y-138322857D01*
X182537141Y-139108571D01*
X183894284Y-139108571D02*
X183894284Y-138322857D01*
X183822855Y-138180000D01*
X183679998Y-138108571D01*
X183394284Y-138108571D01*
X183251427Y-138180000D01*
X183894284Y-139037143D02*
X183751427Y-139108571D01*
X183394284Y-139108571D01*
X183251427Y-139037143D01*
X183179998Y-138894286D01*
X183179998Y-138751429D01*
X183251427Y-138608571D01*
X183394284Y-138537143D01*
X183751427Y-138537143D01*
X183894284Y-138465714D01*
X184537141Y-139037143D02*
X184679998Y-139108571D01*
X184965713Y-139108571D01*
X185108570Y-139037143D01*
X185179998Y-138894286D01*
X185179998Y-138822857D01*
X185108570Y-138680000D01*
X184965713Y-138608571D01*
X184751427Y-138608571D01*
X184608570Y-138537143D01*
X184537141Y-138394286D01*
X184537141Y-138322857D01*
X184608570Y-138180000D01*
X184751427Y-138108571D01*
X184965713Y-138108571D01*
X185108570Y-138180000D01*
X186822856Y-137608571D02*
X187179999Y-139108571D01*
X187465713Y-138037143D01*
X187751427Y-139108571D01*
X188108570Y-137608571D01*
X188894285Y-139108571D02*
X188751427Y-139037143D01*
X188679999Y-138965714D01*
X188608570Y-138822857D01*
X188608570Y-138394286D01*
X188679999Y-138251429D01*
X188751427Y-138180000D01*
X188894285Y-138108571D01*
X189108570Y-138108571D01*
X189251427Y-138180000D01*
X189322856Y-138251429D01*
X189394285Y-138394286D01*
X189394285Y-138822857D01*
X189322856Y-138965714D01*
X189251427Y-139037143D01*
X189108570Y-139108571D01*
X188894285Y-139108571D01*
X190037142Y-139108571D02*
X190037142Y-138108571D01*
X190037142Y-137608571D02*
X189965713Y-137680000D01*
X190037142Y-137751429D01*
X190108570Y-137680000D01*
X190037142Y-137608571D01*
X190037142Y-137751429D01*
X190751428Y-138108571D02*
X190751428Y-139108571D01*
X190751428Y-138251429D02*
X190822856Y-138180000D01*
X190965714Y-138108571D01*
X191179999Y-138108571D01*
X191322856Y-138180000D01*
X191394285Y-138322857D01*
X191394285Y-139108571D01*
X192108571Y-139108571D02*
X192108571Y-137608571D01*
X192251428Y-138537143D02*
X192679999Y-139108571D01*
X192679999Y-138108571D02*
X192108571Y-138680000D01*
X193894285Y-139037143D02*
X193751428Y-139108571D01*
X193465714Y-139108571D01*
X193322857Y-139037143D01*
X193251428Y-138894286D01*
X193251428Y-138322857D01*
X193322857Y-138180000D01*
X193465714Y-138108571D01*
X193751428Y-138108571D01*
X193894285Y-138180000D01*
X193965714Y-138322857D01*
X193965714Y-138465714D01*
X193251428Y-138608571D01*
X196822856Y-137537143D02*
X195537142Y-139465714D01*
X198465714Y-139108571D02*
X198465714Y-137608571D01*
X198965714Y-138680000D01*
X199465714Y-137608571D01*
X199465714Y-139108571D01*
X200822857Y-139108571D02*
X200822857Y-138322857D01*
X200751428Y-138180000D01*
X200608571Y-138108571D01*
X200322857Y-138108571D01*
X200180000Y-138180000D01*
X200822857Y-139037143D02*
X200680000Y-139108571D01*
X200322857Y-139108571D01*
X200180000Y-139037143D01*
X200108571Y-138894286D01*
X200108571Y-138751429D01*
X200180000Y-138608571D01*
X200322857Y-138537143D01*
X200680000Y-138537143D01*
X200822857Y-138465714D01*
X201537143Y-139108571D02*
X201537143Y-138108571D01*
X201537143Y-138394286D02*
X201608571Y-138251429D01*
X201680000Y-138180000D01*
X201822857Y-138108571D01*
X201965714Y-138108571D01*
X202465714Y-139108571D02*
X202465714Y-137608571D01*
X202608571Y-138537143D02*
X203037142Y-139108571D01*
X203037142Y-138108571D02*
X202465714Y-138680000D01*
X203894286Y-139108571D02*
X203751428Y-139037143D01*
X203680000Y-138965714D01*
X203608571Y-138822857D01*
X203608571Y-138394286D01*
X203680000Y-138251429D01*
X203751428Y-138180000D01*
X203894286Y-138108571D01*
X204108571Y-138108571D01*
X204251428Y-138180000D01*
X204322857Y-138251429D01*
X204394286Y-138394286D01*
X204394286Y-138822857D01*
X204322857Y-138965714D01*
X204251428Y-139037143D01*
X204108571Y-139108571D01*
X203894286Y-139108571D01*
X206894286Y-139108571D02*
X206180000Y-139108571D01*
X206180000Y-137608571D01*
X208037143Y-139108571D02*
X208037143Y-138322857D01*
X207965714Y-138180000D01*
X207822857Y-138108571D01*
X207537143Y-138108571D01*
X207394286Y-138180000D01*
X208037143Y-139037143D02*
X207894286Y-139108571D01*
X207537143Y-139108571D01*
X207394286Y-139037143D01*
X207322857Y-138894286D01*
X207322857Y-138751429D01*
X207394286Y-138608571D01*
X207537143Y-138537143D01*
X207894286Y-138537143D01*
X208037143Y-138465714D01*
X209394286Y-138108571D02*
X209394286Y-139108571D01*
X208751429Y-138108571D02*
X208751429Y-138894286D01*
X208822857Y-139037143D01*
X208965715Y-139108571D01*
X209180000Y-139108571D01*
X209322857Y-139037143D01*
X209394286Y-138965714D01*
X210108572Y-139108571D02*
X210108572Y-137608571D01*
X210251429Y-138537143D02*
X210680000Y-139108571D01*
X210680000Y-138108571D02*
X210108572Y-138680000D01*
X211894286Y-139037143D02*
X211751429Y-139108571D01*
X211465715Y-139108571D01*
X211322858Y-139037143D01*
X211251429Y-138894286D01*
X211251429Y-138322857D01*
X211322858Y-138180000D01*
X211465715Y-138108571D01*
X211751429Y-138108571D01*
X211894286Y-138180000D01*
X211965715Y-138322857D01*
X211965715Y-138465714D01*
X211251429Y-138608571D01*
X170537143Y-141508571D02*
X170537143Y-140008571D01*
X171180000Y-141508571D02*
X171180000Y-140722857D01*
X171108571Y-140580000D01*
X170965714Y-140508571D01*
X170751429Y-140508571D01*
X170608571Y-140580000D01*
X170537143Y-140651429D01*
X171680000Y-140508571D02*
X172251429Y-140508571D01*
X171894286Y-140008571D02*
X171894286Y-141294286D01*
X171965714Y-141437143D01*
X172108572Y-141508571D01*
X172251429Y-141508571D01*
X172537143Y-140508571D02*
X173108572Y-140508571D01*
X172751429Y-140008571D02*
X172751429Y-141294286D01*
X172822857Y-141437143D01*
X172965715Y-141508571D01*
X173108572Y-141508571D01*
X173608572Y-140508571D02*
X173608572Y-142008571D01*
X173608572Y-140580000D02*
X173751429Y-140508571D01*
X174037143Y-140508571D01*
X174180000Y-140580000D01*
X174251429Y-140651429D01*
X174322858Y-140794286D01*
X174322858Y-141222857D01*
X174251429Y-141365714D01*
X174180000Y-141437143D01*
X174037143Y-141508571D01*
X173751429Y-141508571D01*
X173608572Y-141437143D01*
X174965715Y-141365714D02*
X175037143Y-141437143D01*
X174965715Y-141508571D01*
X174894286Y-141437143D01*
X174965715Y-141365714D01*
X174965715Y-141508571D01*
X174965715Y-140580000D02*
X175037143Y-140651429D01*
X174965715Y-140722857D01*
X174894286Y-140651429D01*
X174965715Y-140580000D01*
X174965715Y-140722857D01*
X176751429Y-139937143D02*
X175465715Y-141865714D01*
X178322858Y-139937143D02*
X177037144Y-141865714D01*
X178680002Y-140508571D02*
X178965716Y-141508571D01*
X179251430Y-140794286D01*
X179537145Y-141508571D01*
X179822859Y-140508571D01*
X180251431Y-140508571D02*
X180537145Y-141508571D01*
X180822859Y-140794286D01*
X181108574Y-141508571D01*
X181394288Y-140508571D01*
X181822860Y-140508571D02*
X182108574Y-141508571D01*
X182394288Y-140794286D01*
X182680003Y-141508571D01*
X182965717Y-140508571D01*
X183537146Y-141365714D02*
X183608574Y-141437143D01*
X183537146Y-141508571D01*
X183465717Y-141437143D01*
X183537146Y-141365714D01*
X183537146Y-141508571D01*
X184180003Y-141437143D02*
X184322860Y-141508571D01*
X184608575Y-141508571D01*
X184751432Y-141437143D01*
X184822860Y-141294286D01*
X184822860Y-141222857D01*
X184751432Y-141080000D01*
X184608575Y-141008571D01*
X184394289Y-141008571D01*
X184251432Y-140937143D01*
X184180003Y-140794286D01*
X184180003Y-140722857D01*
X184251432Y-140580000D01*
X184394289Y-140508571D01*
X184608575Y-140508571D01*
X184751432Y-140580000D01*
X185251432Y-140508571D02*
X185822861Y-140508571D01*
X185465718Y-140008571D02*
X185465718Y-141294286D01*
X185537146Y-141437143D01*
X185680004Y-141508571D01*
X185822861Y-141508571D01*
X186894289Y-141437143D02*
X186751432Y-141508571D01*
X186465718Y-141508571D01*
X186322861Y-141437143D01*
X186251432Y-141294286D01*
X186251432Y-140722857D01*
X186322861Y-140580000D01*
X186465718Y-140508571D01*
X186751432Y-140508571D01*
X186894289Y-140580000D01*
X186965718Y-140722857D01*
X186965718Y-140865714D01*
X186251432Y-141008571D01*
X188251432Y-141437143D02*
X188108575Y-141508571D01*
X187822861Y-141508571D01*
X187680003Y-141437143D01*
X187608575Y-141365714D01*
X187537146Y-141222857D01*
X187537146Y-140794286D01*
X187608575Y-140651429D01*
X187680003Y-140580000D01*
X187822861Y-140508571D01*
X188108575Y-140508571D01*
X188251432Y-140580000D01*
X188894289Y-141508571D02*
X188894289Y-140008571D01*
X189037146Y-140937143D02*
X189465717Y-141508571D01*
X189465717Y-140508571D02*
X188894289Y-141080000D01*
X190037146Y-141437143D02*
X190180003Y-141508571D01*
X190465718Y-141508571D01*
X190608575Y-141437143D01*
X190680003Y-141294286D01*
X190680003Y-141222857D01*
X190608575Y-141080000D01*
X190465718Y-141008571D01*
X190251432Y-141008571D01*
X190108575Y-140937143D01*
X190037146Y-140794286D01*
X190037146Y-140722857D01*
X190108575Y-140580000D01*
X190251432Y-140508571D01*
X190465718Y-140508571D01*
X190608575Y-140580000D01*
X191965718Y-141437143D02*
X191822861Y-141508571D01*
X191537147Y-141508571D01*
X191394289Y-141437143D01*
X191322861Y-141365714D01*
X191251432Y-141222857D01*
X191251432Y-140794286D01*
X191322861Y-140651429D01*
X191394289Y-140580000D01*
X191537147Y-140508571D01*
X191822861Y-140508571D01*
X191965718Y-140580000D01*
X192608575Y-141508571D02*
X192608575Y-140008571D01*
X193251432Y-141508571D02*
X193251432Y-140722857D01*
X193180003Y-140580000D01*
X193037146Y-140508571D01*
X192822861Y-140508571D01*
X192680003Y-140580000D01*
X192608575Y-140651429D01*
X193822861Y-140508571D02*
X194108575Y-141508571D01*
X194394289Y-140794286D01*
X194680004Y-141508571D01*
X194965718Y-140508571D01*
X196108575Y-141437143D02*
X195965718Y-141508571D01*
X195680004Y-141508571D01*
X195537147Y-141437143D01*
X195465718Y-141294286D01*
X195465718Y-140722857D01*
X195537147Y-140580000D01*
X195680004Y-140508571D01*
X195965718Y-140508571D01*
X196108575Y-140580000D01*
X196180004Y-140722857D01*
X196180004Y-140865714D01*
X195465718Y-141008571D01*
X196822861Y-141508571D02*
X196822861Y-140508571D01*
X196822861Y-140008571D02*
X196751432Y-140080000D01*
X196822861Y-140151429D01*
X196894289Y-140080000D01*
X196822861Y-140008571D01*
X196822861Y-140151429D01*
X197537147Y-140508571D02*
X197537147Y-141508571D01*
X197537147Y-140651429D02*
X197608575Y-140580000D01*
X197751433Y-140508571D01*
X197965718Y-140508571D01*
X198108575Y-140580000D01*
X198180004Y-140722857D01*
X198180004Y-141508571D01*
X198894290Y-141365714D02*
X198965718Y-141437143D01*
X198894290Y-141508571D01*
X198822861Y-141437143D01*
X198894290Y-141365714D01*
X198894290Y-141508571D01*
X200251433Y-141508571D02*
X200251433Y-140008571D01*
X200251433Y-141437143D02*
X200108576Y-141508571D01*
X199822862Y-141508571D01*
X199680004Y-141437143D01*
X199608576Y-141365714D01*
X199537147Y-141222857D01*
X199537147Y-140794286D01*
X199608576Y-140651429D01*
X199680004Y-140580000D01*
X199822862Y-140508571D01*
X200108576Y-140508571D01*
X200251433Y-140580000D01*
X201537147Y-141437143D02*
X201394290Y-141508571D01*
X201108576Y-141508571D01*
X200965719Y-141437143D01*
X200894290Y-141294286D01*
X200894290Y-140722857D01*
X200965719Y-140580000D01*
X201108576Y-140508571D01*
X201394290Y-140508571D01*
X201537147Y-140580000D01*
X201608576Y-140722857D01*
X201608576Y-140865714D01*
X200894290Y-141008571D01*
X84570000Y-100457143D02*
X84641429Y-100314286D01*
X84641429Y-100100000D01*
X84570000Y-99885715D01*
X84427143Y-99742857D01*
X84284286Y-99671429D01*
X83998571Y-99600000D01*
X83784286Y-99600000D01*
X83498571Y-99671429D01*
X83355714Y-99742857D01*
X83212857Y-99885715D01*
X83141429Y-100100000D01*
X83141429Y-100242857D01*
X83212857Y-100457143D01*
X83284286Y-100528572D01*
X83784286Y-100528572D01*
X83784286Y-100242857D01*
X83141429Y-101171429D02*
X84641429Y-101171429D01*
X83141429Y-102028572D01*
X84641429Y-102028572D01*
X83141429Y-102742858D02*
X84641429Y-102742858D01*
X84641429Y-103100001D01*
X84570000Y-103314286D01*
X84427143Y-103457144D01*
X84284286Y-103528572D01*
X83998571Y-103600001D01*
X83784286Y-103600001D01*
X83498571Y-103528572D01*
X83355714Y-103457144D01*
X83212857Y-103314286D01*
X83141429Y-103100001D01*
X83141429Y-102742858D01*
X89721429Y-100457143D02*
X89721429Y-101314286D01*
X88221429Y-100885715D02*
X89721429Y-100885715D01*
X89721429Y-101671429D02*
X88221429Y-102671429D01*
X89721429Y-102671429D02*
X88221429Y-101671429D01*
X85681429Y-101604001D02*
X86395714Y-101104001D01*
X85681429Y-100746858D02*
X87181429Y-100746858D01*
X87181429Y-101318286D01*
X87110000Y-101461144D01*
X87038571Y-101532572D01*
X86895714Y-101604001D01*
X86681429Y-101604001D01*
X86538571Y-101532572D01*
X86467143Y-101461144D01*
X86395714Y-101318286D01*
X86395714Y-100746858D01*
X87181429Y-102104001D02*
X85681429Y-103104001D01*
X87181429Y-103104001D02*
X85681429Y-102104001D01*
D12*
X216789000Y-65659000D02*
X216281000Y-65659000D01*
X216789000Y-65151000D02*
X216281000Y-65151000D01*
X216789000Y-82931000D02*
X216281000Y-82931000D01*
X216789000Y-83439000D02*
X216281000Y-83439000D01*
X216789000Y-85471000D02*
X216281000Y-85471000D01*
X216789000Y-85979000D02*
X216281000Y-85979000D01*
X216789000Y-80899000D02*
X216281000Y-80899000D01*
X216789000Y-80391000D02*
X216281000Y-80391000D01*
X216789000Y-78359000D02*
X216281000Y-78359000D01*
X216789000Y-77851000D02*
X216281000Y-77851000D01*
X216789000Y-67691000D02*
X216281000Y-67691000D01*
X216789000Y-68199000D02*
X216281000Y-68199000D01*
X216789000Y-70231000D02*
X216281000Y-70231000D01*
X216789000Y-70739000D02*
X216281000Y-70739000D01*
X216789000Y-75819000D02*
X216281000Y-75819000D01*
X216789000Y-75311000D02*
X216281000Y-75311000D01*
X216789000Y-73279000D02*
X216281000Y-73279000D01*
X216789000Y-72771000D02*
X216281000Y-72771000D01*
X216789000Y-113411000D02*
X216281000Y-113411000D01*
X216789000Y-113919000D02*
X216281000Y-113919000D01*
X216789000Y-115951000D02*
X216281000Y-115951000D01*
X216789000Y-116459000D02*
X216281000Y-116459000D01*
X216789000Y-111379000D02*
X216281000Y-111379000D01*
X216789000Y-110871000D02*
X216281000Y-110871000D01*
X216789000Y-108839000D02*
X216281000Y-108839000D01*
X216789000Y-108331000D02*
X216281000Y-108331000D01*
X216789000Y-118491000D02*
X216281000Y-118491000D01*
X216789000Y-118999000D02*
X216281000Y-118999000D01*
X216789000Y-121031000D02*
X216281000Y-121031000D01*
X216789000Y-121539000D02*
X216281000Y-121539000D01*
X216789000Y-126619000D02*
X216281000Y-126619000D01*
X216789000Y-126111000D02*
X216281000Y-126111000D01*
X216789000Y-124079000D02*
X216281000Y-124079000D01*
X216789000Y-123571000D02*
X216281000Y-123571000D01*
X216789000Y-103251000D02*
X216281000Y-103251000D01*
X216789000Y-103759000D02*
X216281000Y-103759000D01*
X216789000Y-105791000D02*
X216281000Y-105791000D01*
X216789000Y-106299000D02*
X216281000Y-106299000D01*
X216789000Y-101219000D02*
X216281000Y-101219000D01*
X216789000Y-100711000D02*
X216281000Y-100711000D01*
X216789000Y-98679000D02*
X216281000Y-98679000D01*
X216789000Y-98171000D02*
X216281000Y-98171000D01*
X216789000Y-88011000D02*
X216281000Y-88011000D01*
X216789000Y-88519000D02*
X216281000Y-88519000D01*
X216789000Y-90551000D02*
X216281000Y-90551000D01*
X216789000Y-91059000D02*
X216281000Y-91059000D01*
X216789000Y-96139000D02*
X216281000Y-96139000D01*
X216789000Y-95631000D02*
X216281000Y-95631000D01*
X216789000Y-93599000D02*
X216281000Y-93599000D01*
X216789000Y-93091000D02*
X216281000Y-93091000D01*
X219329000Y-110871000D02*
X218821000Y-110871000D01*
X219329000Y-111379000D02*
X218821000Y-111379000D01*
X219329000Y-113411000D02*
X218821000Y-113411000D01*
X219329000Y-113919000D02*
X218821000Y-113919000D01*
X219329000Y-108839000D02*
X218821000Y-108839000D01*
X219329000Y-108331000D02*
X218821000Y-108331000D01*
X219329000Y-106299000D02*
X218821000Y-106299000D01*
X219329000Y-105791000D02*
X218821000Y-105791000D01*
X219329000Y-115951000D02*
X218821000Y-115951000D01*
X219329000Y-116459000D02*
X218821000Y-116459000D01*
X219329000Y-118491000D02*
X218821000Y-118491000D01*
X219329000Y-118999000D02*
X218821000Y-118999000D01*
X219329000Y-124079000D02*
X218821000Y-124079000D01*
X219329000Y-123571000D02*
X218821000Y-123571000D01*
X219329000Y-121539000D02*
X218821000Y-121539000D01*
X219329000Y-121031000D02*
X218821000Y-121031000D01*
X219329000Y-126111000D02*
X218821000Y-126111000D01*
X219329000Y-126619000D02*
X218821000Y-126619000D01*
X219329000Y-90551000D02*
X218821000Y-90551000D01*
X219329000Y-91059000D02*
X218821000Y-91059000D01*
X219329000Y-93091000D02*
X218821000Y-93091000D01*
X219329000Y-93599000D02*
X218821000Y-93599000D01*
X219329000Y-88519000D02*
X218821000Y-88519000D01*
X219329000Y-88011000D02*
X218821000Y-88011000D01*
X219329000Y-85979000D02*
X218821000Y-85979000D01*
X219329000Y-85471000D02*
X218821000Y-85471000D01*
X219329000Y-95631000D02*
X218821000Y-95631000D01*
X219329000Y-96139000D02*
X218821000Y-96139000D01*
X219329000Y-98171000D02*
X218821000Y-98171000D01*
X219329000Y-98679000D02*
X218821000Y-98679000D01*
X219329000Y-103759000D02*
X218821000Y-103759000D01*
X219329000Y-103251000D02*
X218821000Y-103251000D01*
X219329000Y-101219000D02*
X218821000Y-101219000D01*
X219329000Y-100711000D02*
X218821000Y-100711000D01*
X219329000Y-80391000D02*
X218821000Y-80391000D01*
X219329000Y-80899000D02*
X218821000Y-80899000D01*
X219329000Y-82931000D02*
X218821000Y-82931000D01*
X219329000Y-83439000D02*
X218821000Y-83439000D01*
X219329000Y-78359000D02*
X218821000Y-78359000D01*
X219329000Y-77851000D02*
X218821000Y-77851000D01*
X219329000Y-75819000D02*
X218821000Y-75819000D01*
X219329000Y-75311000D02*
X218821000Y-75311000D01*
X219329000Y-65151000D02*
X218821000Y-65151000D01*
X219329000Y-65659000D02*
X218821000Y-65659000D01*
X219329000Y-67691000D02*
X218821000Y-67691000D01*
X219329000Y-68199000D02*
X218821000Y-68199000D01*
X219329000Y-73279000D02*
X218821000Y-73279000D01*
X219329000Y-72771000D02*
X218821000Y-72771000D01*
X219329000Y-70739000D02*
X218821000Y-70739000D01*
X219329000Y-70231000D02*
X218821000Y-70231000D01*
X219329000Y-64135000D02*
X221869000Y-66675000D01*
X221869000Y-64135000D02*
X219329000Y-66675000D01*
X221869000Y-65278000D02*
X227838000Y-65278000D01*
X227838000Y-65278000D02*
X227838000Y-65532000D01*
X227838000Y-65532000D02*
X221996000Y-65532000D01*
X221996000Y-65532000D02*
X221996000Y-65405000D01*
X221996000Y-65405000D02*
X227838000Y-65405000D01*
X219329000Y-104775000D02*
X221869000Y-104775000D01*
X219329000Y-104775000D02*
X219329000Y-107315000D01*
X219329000Y-107315000D02*
X221869000Y-107315000D01*
X221869000Y-105791000D02*
X227965000Y-105791000D01*
X227965000Y-105791000D02*
X227965000Y-106299000D01*
X227965000Y-106299000D02*
X221869000Y-106299000D01*
X221869000Y-107315000D02*
X221869000Y-104775000D01*
X221869000Y-109855000D02*
X221869000Y-107315000D01*
X227965000Y-108839000D02*
X221869000Y-108839000D01*
X227965000Y-108331000D02*
X227965000Y-108839000D01*
X221869000Y-108331000D02*
X227965000Y-108331000D01*
X219329000Y-109855000D02*
X221869000Y-109855000D01*
X219329000Y-107315000D02*
X219329000Y-109855000D01*
X219329000Y-107315000D02*
X221869000Y-107315000D01*
X219329000Y-112395000D02*
X221869000Y-112395000D01*
X219329000Y-112395000D02*
X219329000Y-114935000D01*
X219329000Y-114935000D02*
X221869000Y-114935000D01*
X221869000Y-113411000D02*
X227965000Y-113411000D01*
X227965000Y-113411000D02*
X227965000Y-113919000D01*
X227965000Y-113919000D02*
X221869000Y-113919000D01*
X221869000Y-114935000D02*
X221869000Y-112395000D01*
X221869000Y-112395000D02*
X221869000Y-109855000D01*
X227965000Y-111379000D02*
X221869000Y-111379000D01*
X227965000Y-110871000D02*
X227965000Y-111379000D01*
X221869000Y-110871000D02*
X227965000Y-110871000D01*
X219329000Y-112395000D02*
X221869000Y-112395000D01*
X219329000Y-109855000D02*
X219329000Y-112395000D01*
X219329000Y-109855000D02*
X221869000Y-109855000D01*
X219329000Y-120015000D02*
X221869000Y-120015000D01*
X219329000Y-120015000D02*
X219329000Y-122555000D01*
X219329000Y-122555000D02*
X221869000Y-122555000D01*
X221869000Y-121031000D02*
X227965000Y-121031000D01*
X227965000Y-121031000D02*
X227965000Y-121539000D01*
X227965000Y-121539000D02*
X221869000Y-121539000D01*
X221869000Y-122555000D02*
X221869000Y-120015000D01*
X221869000Y-125095000D02*
X221869000Y-122555000D01*
X227965000Y-124079000D02*
X221869000Y-124079000D01*
X227965000Y-123571000D02*
X227965000Y-124079000D01*
X221869000Y-123571000D02*
X227965000Y-123571000D01*
X219329000Y-125095000D02*
X221869000Y-125095000D01*
X219329000Y-122555000D02*
X219329000Y-125095000D01*
X219329000Y-122555000D02*
X221869000Y-122555000D01*
X219329000Y-117475000D02*
X221869000Y-117475000D01*
X219329000Y-117475000D02*
X219329000Y-120015000D01*
X219329000Y-120015000D02*
X221869000Y-120015000D01*
X221869000Y-118491000D02*
X227965000Y-118491000D01*
X227965000Y-118491000D02*
X227965000Y-118999000D01*
X227965000Y-118999000D02*
X221869000Y-118999000D01*
X221869000Y-120015000D02*
X221869000Y-117475000D01*
X221869000Y-117475000D02*
X221869000Y-114935000D01*
X227965000Y-116459000D02*
X221869000Y-116459000D01*
X227965000Y-115951000D02*
X227965000Y-116459000D01*
X221869000Y-115951000D02*
X227965000Y-115951000D01*
X219329000Y-117475000D02*
X221869000Y-117475000D01*
X219329000Y-114935000D02*
X219329000Y-117475000D01*
X219329000Y-114935000D02*
X221869000Y-114935000D01*
X221869000Y-127635000D02*
X221869000Y-125095000D01*
X227965000Y-126619000D02*
X221869000Y-126619000D01*
X227965000Y-126111000D02*
X227965000Y-126619000D01*
X221869000Y-126111000D02*
X227965000Y-126111000D01*
X219329000Y-127635000D02*
X221869000Y-127635000D01*
X219329000Y-125095000D02*
X219329000Y-127635000D01*
X219329000Y-125095000D02*
X221869000Y-125095000D01*
X219329000Y-84455000D02*
X221869000Y-84455000D01*
X219329000Y-84455000D02*
X219329000Y-86995000D01*
X219329000Y-86995000D02*
X221869000Y-86995000D01*
X221869000Y-85471000D02*
X227965000Y-85471000D01*
X227965000Y-85471000D02*
X227965000Y-85979000D01*
X227965000Y-85979000D02*
X221869000Y-85979000D01*
X221869000Y-86995000D02*
X221869000Y-84455000D01*
X221869000Y-89535000D02*
X221869000Y-86995000D01*
X227965000Y-88519000D02*
X221869000Y-88519000D01*
X227965000Y-88011000D02*
X227965000Y-88519000D01*
X221869000Y-88011000D02*
X227965000Y-88011000D01*
X219329000Y-89535000D02*
X221869000Y-89535000D01*
X219329000Y-86995000D02*
X219329000Y-89535000D01*
X219329000Y-86995000D02*
X221869000Y-86995000D01*
X219329000Y-92075000D02*
X221869000Y-92075000D01*
X219329000Y-92075000D02*
X219329000Y-94615000D01*
X219329000Y-94615000D02*
X221869000Y-94615000D01*
X221869000Y-93091000D02*
X227965000Y-93091000D01*
X227965000Y-93091000D02*
X227965000Y-93599000D01*
X227965000Y-93599000D02*
X221869000Y-93599000D01*
X221869000Y-94615000D02*
X221869000Y-92075000D01*
X221869000Y-92075000D02*
X221869000Y-89535000D01*
X227965000Y-91059000D02*
X221869000Y-91059000D01*
X227965000Y-90551000D02*
X227965000Y-91059000D01*
X221869000Y-90551000D02*
X227965000Y-90551000D01*
X219329000Y-92075000D02*
X221869000Y-92075000D01*
X219329000Y-89535000D02*
X219329000Y-92075000D01*
X219329000Y-89535000D02*
X221869000Y-89535000D01*
X219329000Y-99695000D02*
X221869000Y-99695000D01*
X219329000Y-99695000D02*
X219329000Y-102235000D01*
X219329000Y-102235000D02*
X221869000Y-102235000D01*
X221869000Y-100711000D02*
X227965000Y-100711000D01*
X227965000Y-100711000D02*
X227965000Y-101219000D01*
X227965000Y-101219000D02*
X221869000Y-101219000D01*
X221869000Y-102235000D02*
X221869000Y-99695000D01*
X221869000Y-104775000D02*
X221869000Y-102235000D01*
X227965000Y-103759000D02*
X221869000Y-103759000D01*
X227965000Y-103251000D02*
X227965000Y-103759000D01*
X221869000Y-103251000D02*
X227965000Y-103251000D01*
X219329000Y-104775000D02*
X221869000Y-104775000D01*
X219329000Y-102235000D02*
X219329000Y-104775000D01*
X219329000Y-102235000D02*
X221869000Y-102235000D01*
X219329000Y-97155000D02*
X221869000Y-97155000D01*
X219329000Y-97155000D02*
X219329000Y-99695000D01*
X219329000Y-99695000D02*
X221869000Y-99695000D01*
X221869000Y-98171000D02*
X227965000Y-98171000D01*
X227965000Y-98171000D02*
X227965000Y-98679000D01*
X227965000Y-98679000D02*
X221869000Y-98679000D01*
X221869000Y-99695000D02*
X221869000Y-97155000D01*
X221869000Y-97155000D02*
X221869000Y-94615000D01*
X227965000Y-96139000D02*
X221869000Y-96139000D01*
X227965000Y-95631000D02*
X227965000Y-96139000D01*
X221869000Y-95631000D02*
X227965000Y-95631000D01*
X219329000Y-97155000D02*
X221869000Y-97155000D01*
X219329000Y-94615000D02*
X219329000Y-97155000D01*
X219329000Y-94615000D02*
X221869000Y-94615000D01*
X219329000Y-74295000D02*
X221869000Y-74295000D01*
X219329000Y-74295000D02*
X219329000Y-76835000D01*
X219329000Y-76835000D02*
X221869000Y-76835000D01*
X221869000Y-75311000D02*
X227965000Y-75311000D01*
X227965000Y-75311000D02*
X227965000Y-75819000D01*
X227965000Y-75819000D02*
X221869000Y-75819000D01*
X221869000Y-76835000D02*
X221869000Y-74295000D01*
X221869000Y-79375000D02*
X221869000Y-76835000D01*
X227965000Y-78359000D02*
X221869000Y-78359000D01*
X227965000Y-77851000D02*
X227965000Y-78359000D01*
X221869000Y-77851000D02*
X227965000Y-77851000D01*
X219329000Y-79375000D02*
X221869000Y-79375000D01*
X219329000Y-76835000D02*
X219329000Y-79375000D01*
X219329000Y-76835000D02*
X221869000Y-76835000D01*
X219329000Y-81915000D02*
X221869000Y-81915000D01*
X219329000Y-81915000D02*
X219329000Y-84455000D01*
X219329000Y-84455000D02*
X221869000Y-84455000D01*
X221869000Y-82931000D02*
X227965000Y-82931000D01*
X227965000Y-82931000D02*
X227965000Y-83439000D01*
X227965000Y-83439000D02*
X221869000Y-83439000D01*
X221869000Y-84455000D02*
X221869000Y-81915000D01*
X221869000Y-81915000D02*
X221869000Y-79375000D01*
X227965000Y-80899000D02*
X221869000Y-80899000D01*
X227965000Y-80391000D02*
X227965000Y-80899000D01*
X221869000Y-80391000D02*
X227965000Y-80391000D01*
X219329000Y-81915000D02*
X221869000Y-81915000D01*
X219329000Y-79375000D02*
X219329000Y-81915000D01*
X219329000Y-79375000D02*
X221869000Y-79375000D01*
X219329000Y-69215000D02*
X221869000Y-69215000D01*
X219329000Y-69215000D02*
X219329000Y-71755000D01*
X219329000Y-71755000D02*
X221869000Y-71755000D01*
X221869000Y-70231000D02*
X227965000Y-70231000D01*
X227965000Y-70231000D02*
X227965000Y-70739000D01*
X227965000Y-70739000D02*
X221869000Y-70739000D01*
X221869000Y-71755000D02*
X221869000Y-69215000D01*
X221869000Y-74295000D02*
X221869000Y-71755000D01*
X227965000Y-73279000D02*
X221869000Y-73279000D01*
X227965000Y-72771000D02*
X227965000Y-73279000D01*
X221869000Y-72771000D02*
X227965000Y-72771000D01*
X219329000Y-74295000D02*
X221869000Y-74295000D01*
X219329000Y-71755000D02*
X219329000Y-74295000D01*
X219329000Y-71755000D02*
X221869000Y-71755000D01*
X219329000Y-66675000D02*
X221869000Y-66675000D01*
X219329000Y-66675000D02*
X219329000Y-69215000D01*
X219329000Y-69215000D02*
X221869000Y-69215000D01*
X221869000Y-67691000D02*
X227965000Y-67691000D01*
X227965000Y-67691000D02*
X227965000Y-68199000D01*
X227965000Y-68199000D02*
X221869000Y-68199000D01*
X221869000Y-69215000D02*
X221869000Y-66675000D01*
X221869000Y-66675000D02*
X221869000Y-64135000D01*
X227965000Y-65659000D02*
X221869000Y-65659000D01*
X227965000Y-65151000D02*
X227965000Y-65659000D01*
X221869000Y-65151000D02*
X227965000Y-65151000D01*
X219329000Y-66675000D02*
X221869000Y-66675000D01*
X219329000Y-64135000D02*
X219329000Y-66675000D01*
X219329000Y-64135000D02*
X221869000Y-64135000D01*
X115824000Y-56896000D02*
X115824000Y-57404000D01*
X115316000Y-56896000D02*
X115316000Y-57404000D01*
X113284000Y-56896000D02*
X113284000Y-57404000D01*
X112776000Y-56896000D02*
X112776000Y-57404000D01*
X110744000Y-56896000D02*
X110744000Y-57404000D01*
X110236000Y-56896000D02*
X110236000Y-57404000D01*
X112776000Y-54356000D02*
X112776000Y-54864000D01*
X113284000Y-54356000D02*
X113284000Y-54864000D01*
X115316000Y-54356000D02*
X115316000Y-54864000D01*
X115824000Y-54356000D02*
X115824000Y-54864000D01*
X110236000Y-54356000D02*
X110236000Y-54864000D01*
X110744000Y-54356000D02*
X110744000Y-54864000D01*
X108940000Y-58420000D02*
X108940000Y-59570000D01*
X108940000Y-59570000D02*
X110490000Y-59570000D01*
X110363000Y-51816000D02*
X110363000Y-45847000D01*
X110363000Y-45847000D02*
X110617000Y-45847000D01*
X110617000Y-45847000D02*
X110617000Y-51689000D01*
X110617000Y-51689000D02*
X110490000Y-51689000D01*
X110490000Y-51689000D02*
X110490000Y-45847000D01*
X111760000Y-54356000D02*
X114300000Y-54356000D01*
X114300000Y-54356000D02*
X114300000Y-51816000D01*
X112776000Y-51816000D02*
X112776000Y-45720000D01*
X112776000Y-45720000D02*
X113284000Y-45720000D01*
X113284000Y-45720000D02*
X113284000Y-51816000D01*
X114300000Y-51816000D02*
X111760000Y-51816000D01*
X116840000Y-54356000D02*
X116840000Y-51816000D01*
X116840000Y-51816000D02*
X114300000Y-51816000D01*
X115824000Y-45720000D02*
X115824000Y-51816000D01*
X115316000Y-45720000D02*
X115824000Y-45720000D01*
X115316000Y-51816000D02*
X115316000Y-45720000D01*
X116840000Y-54356000D02*
X116840000Y-51816000D01*
X114300000Y-54356000D02*
X116840000Y-54356000D01*
X114300000Y-54356000D02*
X114300000Y-51816000D01*
X111760000Y-54356000D02*
X111760000Y-51816000D01*
X111760000Y-51816000D02*
X109220000Y-51816000D01*
X110744000Y-45720000D02*
X110744000Y-51816000D01*
X110236000Y-45720000D02*
X110744000Y-45720000D01*
X110236000Y-51816000D02*
X110236000Y-45720000D01*
X111760000Y-54356000D02*
X111760000Y-51816000D01*
X109220000Y-54356000D02*
X111760000Y-54356000D01*
X109220000Y-54356000D02*
X109220000Y-51816000D01*
X143891000Y-63246000D02*
X176403000Y-63246000D01*
X176403000Y-63246000D02*
X176403000Y-45466000D01*
X176403000Y-45466000D02*
X143891000Y-45466000D01*
X143891000Y-45466000D02*
X143891000Y-63246000D01*
X151003000Y-45466000D02*
X151003000Y-53086000D01*
X151003000Y-53086000D02*
X169291000Y-53086000D01*
X169291000Y-53086000D02*
X169291000Y-45466000D01*
X152527000Y-45466000D02*
X152527000Y-36830000D01*
X152527000Y-36830000D02*
X167767000Y-36830000D01*
X167767000Y-36830000D02*
X167767000Y-45466000D01*
X204225000Y-80145000D02*
X202955000Y-80145000D01*
X204225000Y-95115000D02*
X202955000Y-95115000D01*
X151375000Y-95115000D02*
X152645000Y-95115000D01*
X151375000Y-80145000D02*
X152645000Y-80145000D01*
X204225000Y-80145000D02*
X204225000Y-95115000D01*
X151375000Y-80145000D02*
X151375000Y-95115000D01*
X202955000Y-80145000D02*
X202955000Y-78860000D01*
X131055000Y-115435000D02*
X132325000Y-115435000D01*
X131055000Y-108085000D02*
X132325000Y-108085000D01*
X150885000Y-108085000D02*
X149615000Y-108085000D01*
X150885000Y-115435000D02*
X149615000Y-115435000D01*
X131055000Y-115435000D02*
X131055000Y-108085000D01*
X150885000Y-115435000D02*
X150885000Y-108085000D01*
X132325000Y-115435000D02*
X132325000Y-116720000D01*
X128515000Y-129405000D02*
X129785000Y-129405000D01*
X128515000Y-122055000D02*
X129785000Y-122055000D01*
X150885000Y-122055000D02*
X149615000Y-122055000D01*
X150885000Y-129405000D02*
X149615000Y-129405000D01*
X128515000Y-129405000D02*
X128515000Y-122055000D01*
X150885000Y-129405000D02*
X150885000Y-122055000D01*
X129785000Y-129405000D02*
X129785000Y-130690000D01*
X101854000Y-111760000D02*
X103124000Y-111760000D01*
X102489000Y-112395000D02*
X102489000Y-111125000D01*
X95504000Y-116205000D02*
X95504000Y-109855000D01*
X95504000Y-109855000D02*
X100584000Y-109855000D01*
X100584000Y-109855000D02*
X100584000Y-116205000D01*
X94869000Y-109855000D02*
X94869000Y-109220000D01*
X94869000Y-109220000D02*
X101219000Y-109220000D01*
X101219000Y-109220000D02*
X101219000Y-109855000D01*
X94869000Y-111125000D02*
X94869000Y-109855000D01*
X101219000Y-109855000D02*
X101219000Y-116205000D01*
X94869000Y-116205000D02*
X94869000Y-111125000D01*
X107024256Y-127000000D02*
G75*
G03X107024256Y-127000000I-8980256J0D01*
G01*
X108968953Y-127000000D02*
G75*
G03X108968953Y-127000000I-10924953J0D01*
G01*
X151340000Y-81260000D02*
X148340000Y-81260000D01*
X148340000Y-78760000D02*
X151340000Y-78760000D01*
X105390000Y-107740000D02*
X105390000Y-110740000D01*
X102890000Y-110740000D02*
X102890000Y-107740000D01*
X90150000Y-82300000D02*
X90150000Y-85300000D01*
X87650000Y-85300000D02*
X87650000Y-82300000D01*
X130790000Y-95000000D02*
X130790000Y-98000000D01*
X128290000Y-98000000D02*
X128290000Y-95000000D01*
X130790000Y-107700000D02*
X130790000Y-110700000D01*
X128290000Y-110700000D02*
X128290000Y-107700000D01*
X64811000Y-62048000D02*
X69809000Y-62048000D01*
X64819000Y-61908000D02*
X69801000Y-61908000D01*
X64835000Y-61768000D02*
X67215000Y-61768000D01*
X67405000Y-61768000D02*
X69785000Y-61768000D01*
X64859000Y-61628000D02*
X66820000Y-61628000D01*
X67800000Y-61628000D02*
X69761000Y-61628000D01*
X64892000Y-61488000D02*
X66653000Y-61488000D01*
X67967000Y-61488000D02*
X69728000Y-61488000D01*
X64933000Y-61348000D02*
X66546000Y-61348000D01*
X68074000Y-61348000D02*
X69687000Y-61348000D01*
X64983000Y-61208000D02*
X66475000Y-61208000D01*
X68145000Y-61208000D02*
X69637000Y-61208000D01*
X65044000Y-61068000D02*
X66431000Y-61068000D01*
X68189000Y-61068000D02*
X69576000Y-61068000D01*
X65114000Y-60928000D02*
X66412000Y-60928000D01*
X68208000Y-60928000D02*
X69506000Y-60928000D01*
X65196000Y-60788000D02*
X66414000Y-60788000D01*
X68206000Y-60788000D02*
X69424000Y-60788000D01*
X65291000Y-60648000D02*
X66439000Y-60648000D01*
X68181000Y-60648000D02*
X69329000Y-60648000D01*
X65402000Y-60508000D02*
X66487000Y-60508000D01*
X68133000Y-60508000D02*
X69218000Y-60508000D01*
X65530000Y-60368000D02*
X66565000Y-60368000D01*
X68055000Y-60368000D02*
X69090000Y-60368000D01*
X65679000Y-60228000D02*
X66682000Y-60228000D01*
X67938000Y-60228000D02*
X68941000Y-60228000D01*
X65858000Y-60088000D02*
X66870000Y-60088000D01*
X67750000Y-60088000D02*
X68762000Y-60088000D01*
X66077000Y-59948000D02*
X68543000Y-59948000D01*
X66366000Y-59808000D02*
X68254000Y-59808000D01*
X66838000Y-59668000D02*
X67782000Y-59668000D01*
X68210000Y-60873000D02*
G75*
G03X68210000Y-60873000I-900000J0D01*
G01*
X69847500Y-62123000D02*
G75*
G03X69847500Y-62123000I-2537500J0D01*
G01*
X70870000Y-57170000D02*
X73870000Y-57170000D01*
X73870000Y-59670000D02*
X70870000Y-59670000D01*
X123170000Y-82213000D02*
X123170000Y-85213000D01*
X120670000Y-85213000D02*
X120670000Y-82213000D01*
X105660000Y-100310000D02*
X102660000Y-100310000D01*
X102660000Y-97810000D02*
X105660000Y-97810000D01*
X204490000Y-116320000D02*
X204490000Y-112320000D01*
X206990000Y-116320000D02*
X206990000Y-112320000D01*
X184003000Y-119900000D02*
X184003000Y-123900000D01*
X181503000Y-119900000D02*
X181503000Y-123900000D01*
X128229000Y-123285000D02*
X123231000Y-123285000D01*
X128221000Y-123425000D02*
X123239000Y-123425000D01*
X128205000Y-123565000D02*
X125825000Y-123565000D01*
X125635000Y-123565000D02*
X123255000Y-123565000D01*
X128181000Y-123705000D02*
X126220000Y-123705000D01*
X125240000Y-123705000D02*
X123279000Y-123705000D01*
X128148000Y-123845000D02*
X126387000Y-123845000D01*
X125073000Y-123845000D02*
X123312000Y-123845000D01*
X128107000Y-123985000D02*
X126494000Y-123985000D01*
X124966000Y-123985000D02*
X123353000Y-123985000D01*
X128057000Y-124125000D02*
X126565000Y-124125000D01*
X124895000Y-124125000D02*
X123403000Y-124125000D01*
X127996000Y-124265000D02*
X126609000Y-124265000D01*
X124851000Y-124265000D02*
X123464000Y-124265000D01*
X127926000Y-124405000D02*
X126628000Y-124405000D01*
X124832000Y-124405000D02*
X123534000Y-124405000D01*
X127844000Y-124545000D02*
X126626000Y-124545000D01*
X124834000Y-124545000D02*
X123616000Y-124545000D01*
X127749000Y-124685000D02*
X126601000Y-124685000D01*
X124859000Y-124685000D02*
X123711000Y-124685000D01*
X127638000Y-124825000D02*
X126553000Y-124825000D01*
X124907000Y-124825000D02*
X123822000Y-124825000D01*
X127510000Y-124965000D02*
X126475000Y-124965000D01*
X124985000Y-124965000D02*
X123950000Y-124965000D01*
X127361000Y-125105000D02*
X126358000Y-125105000D01*
X125102000Y-125105000D02*
X124099000Y-125105000D01*
X127182000Y-125245000D02*
X126170000Y-125245000D01*
X125290000Y-125245000D02*
X124278000Y-125245000D01*
X126963000Y-125385000D02*
X124497000Y-125385000D01*
X126674000Y-125525000D02*
X124786000Y-125525000D01*
X126202000Y-125665000D02*
X125258000Y-125665000D01*
X126630000Y-124460000D02*
G75*
G03X126630000Y-124460000I-900000J0D01*
G01*
X128267500Y-123210000D02*
G75*
G03X128267500Y-123210000I-2537500J0D01*
G01*
X132135000Y-132121000D02*
X132135000Y-137119000D01*
X132275000Y-132129000D02*
X132275000Y-137111000D01*
X132415000Y-132145000D02*
X132415000Y-134525000D01*
X132415000Y-134715000D02*
X132415000Y-137095000D01*
X132555000Y-132169000D02*
X132555000Y-134130000D01*
X132555000Y-135110000D02*
X132555000Y-137071000D01*
X132695000Y-132202000D02*
X132695000Y-133963000D01*
X132695000Y-135277000D02*
X132695000Y-137038000D01*
X132835000Y-132243000D02*
X132835000Y-133856000D01*
X132835000Y-135384000D02*
X132835000Y-136997000D01*
X132975000Y-132293000D02*
X132975000Y-133785000D01*
X132975000Y-135455000D02*
X132975000Y-136947000D01*
X133115000Y-132354000D02*
X133115000Y-133741000D01*
X133115000Y-135499000D02*
X133115000Y-136886000D01*
X133255000Y-132424000D02*
X133255000Y-133722000D01*
X133255000Y-135518000D02*
X133255000Y-136816000D01*
X133395000Y-132506000D02*
X133395000Y-133724000D01*
X133395000Y-135516000D02*
X133395000Y-136734000D01*
X133535000Y-132601000D02*
X133535000Y-133749000D01*
X133535000Y-135491000D02*
X133535000Y-136639000D01*
X133675000Y-132712000D02*
X133675000Y-133797000D01*
X133675000Y-135443000D02*
X133675000Y-136528000D01*
X133815000Y-132840000D02*
X133815000Y-133875000D01*
X133815000Y-135365000D02*
X133815000Y-136400000D01*
X133955000Y-132989000D02*
X133955000Y-133992000D01*
X133955000Y-135248000D02*
X133955000Y-136251000D01*
X134095000Y-133168000D02*
X134095000Y-134180000D01*
X134095000Y-135060000D02*
X134095000Y-136072000D01*
X134235000Y-133387000D02*
X134235000Y-135853000D01*
X134375000Y-133676000D02*
X134375000Y-135564000D01*
X134515000Y-134148000D02*
X134515000Y-135092000D01*
X134210000Y-134620000D02*
G75*
G03X134210000Y-134620000I-900000J0D01*
G01*
X134597500Y-134620000D02*
G75*
G03X134597500Y-134620000I-2537500J0D01*
G01*
X137215000Y-137201000D02*
X137215000Y-142199000D01*
X137355000Y-137209000D02*
X137355000Y-142191000D01*
X137495000Y-137225000D02*
X137495000Y-139605000D01*
X137495000Y-139795000D02*
X137495000Y-142175000D01*
X137635000Y-137249000D02*
X137635000Y-139210000D01*
X137635000Y-140190000D02*
X137635000Y-142151000D01*
X137775000Y-137282000D02*
X137775000Y-139043000D01*
X137775000Y-140357000D02*
X137775000Y-142118000D01*
X137915000Y-137323000D02*
X137915000Y-138936000D01*
X137915000Y-140464000D02*
X137915000Y-142077000D01*
X138055000Y-137373000D02*
X138055000Y-138865000D01*
X138055000Y-140535000D02*
X138055000Y-142027000D01*
X138195000Y-137434000D02*
X138195000Y-138821000D01*
X138195000Y-140579000D02*
X138195000Y-141966000D01*
X138335000Y-137504000D02*
X138335000Y-138802000D01*
X138335000Y-140598000D02*
X138335000Y-141896000D01*
X138475000Y-137586000D02*
X138475000Y-138804000D01*
X138475000Y-140596000D02*
X138475000Y-141814000D01*
X138615000Y-137681000D02*
X138615000Y-138829000D01*
X138615000Y-140571000D02*
X138615000Y-141719000D01*
X138755000Y-137792000D02*
X138755000Y-138877000D01*
X138755000Y-140523000D02*
X138755000Y-141608000D01*
X138895000Y-137920000D02*
X138895000Y-138955000D01*
X138895000Y-140445000D02*
X138895000Y-141480000D01*
X139035000Y-138069000D02*
X139035000Y-139072000D01*
X139035000Y-140328000D02*
X139035000Y-141331000D01*
X139175000Y-138248000D02*
X139175000Y-139260000D01*
X139175000Y-140140000D02*
X139175000Y-141152000D01*
X139315000Y-138467000D02*
X139315000Y-140933000D01*
X139455000Y-138756000D02*
X139455000Y-140644000D01*
X139595000Y-139228000D02*
X139595000Y-140172000D01*
X139290000Y-139700000D02*
G75*
G03X139290000Y-139700000I-900000J0D01*
G01*
X139677500Y-139700000D02*
G75*
G03X139677500Y-139700000I-2537500J0D01*
G01*
X137215000Y-132121000D02*
X137215000Y-137119000D01*
X137355000Y-132129000D02*
X137355000Y-137111000D01*
X137495000Y-132145000D02*
X137495000Y-134525000D01*
X137495000Y-134715000D02*
X137495000Y-137095000D01*
X137635000Y-132169000D02*
X137635000Y-134130000D01*
X137635000Y-135110000D02*
X137635000Y-137071000D01*
X137775000Y-132202000D02*
X137775000Y-133963000D01*
X137775000Y-135277000D02*
X137775000Y-137038000D01*
X137915000Y-132243000D02*
X137915000Y-133856000D01*
X137915000Y-135384000D02*
X137915000Y-136997000D01*
X138055000Y-132293000D02*
X138055000Y-133785000D01*
X138055000Y-135455000D02*
X138055000Y-136947000D01*
X138195000Y-132354000D02*
X138195000Y-133741000D01*
X138195000Y-135499000D02*
X138195000Y-136886000D01*
X138335000Y-132424000D02*
X138335000Y-133722000D01*
X138335000Y-135518000D02*
X138335000Y-136816000D01*
X138475000Y-132506000D02*
X138475000Y-133724000D01*
X138475000Y-135516000D02*
X138475000Y-136734000D01*
X138615000Y-132601000D02*
X138615000Y-133749000D01*
X138615000Y-135491000D02*
X138615000Y-136639000D01*
X138755000Y-132712000D02*
X138755000Y-133797000D01*
X138755000Y-135443000D02*
X138755000Y-136528000D01*
X138895000Y-132840000D02*
X138895000Y-133875000D01*
X138895000Y-135365000D02*
X138895000Y-136400000D01*
X139035000Y-132989000D02*
X139035000Y-133992000D01*
X139035000Y-135248000D02*
X139035000Y-136251000D01*
X139175000Y-133168000D02*
X139175000Y-134180000D01*
X139175000Y-135060000D02*
X139175000Y-136072000D01*
X139315000Y-133387000D02*
X139315000Y-135853000D01*
X139455000Y-133676000D02*
X139455000Y-135564000D01*
X139595000Y-134148000D02*
X139595000Y-135092000D01*
X139290000Y-134620000D02*
G75*
G03X139290000Y-134620000I-900000J0D01*
G01*
X139677500Y-134620000D02*
G75*
G03X139677500Y-134620000I-2537500J0D01*
G01*
X132135000Y-137201000D02*
X132135000Y-142199000D01*
X132275000Y-137209000D02*
X132275000Y-142191000D01*
X132415000Y-137225000D02*
X132415000Y-139605000D01*
X132415000Y-139795000D02*
X132415000Y-142175000D01*
X132555000Y-137249000D02*
X132555000Y-139210000D01*
X132555000Y-140190000D02*
X132555000Y-142151000D01*
X132695000Y-137282000D02*
X132695000Y-139043000D01*
X132695000Y-140357000D02*
X132695000Y-142118000D01*
X132835000Y-137323000D02*
X132835000Y-138936000D01*
X132835000Y-140464000D02*
X132835000Y-142077000D01*
X132975000Y-137373000D02*
X132975000Y-138865000D01*
X132975000Y-140535000D02*
X132975000Y-142027000D01*
X133115000Y-137434000D02*
X133115000Y-138821000D01*
X133115000Y-140579000D02*
X133115000Y-141966000D01*
X133255000Y-137504000D02*
X133255000Y-138802000D01*
X133255000Y-140598000D02*
X133255000Y-141896000D01*
X133395000Y-137586000D02*
X133395000Y-138804000D01*
X133395000Y-140596000D02*
X133395000Y-141814000D01*
X133535000Y-137681000D02*
X133535000Y-138829000D01*
X133535000Y-140571000D02*
X133535000Y-141719000D01*
X133675000Y-137792000D02*
X133675000Y-138877000D01*
X133675000Y-140523000D02*
X133675000Y-141608000D01*
X133815000Y-137920000D02*
X133815000Y-138955000D01*
X133815000Y-140445000D02*
X133815000Y-141480000D01*
X133955000Y-138069000D02*
X133955000Y-139072000D01*
X133955000Y-140328000D02*
X133955000Y-141331000D01*
X134095000Y-138248000D02*
X134095000Y-139260000D01*
X134095000Y-140140000D02*
X134095000Y-141152000D01*
X134235000Y-138467000D02*
X134235000Y-140933000D01*
X134375000Y-138756000D02*
X134375000Y-140644000D01*
X134515000Y-139228000D02*
X134515000Y-140172000D01*
X134210000Y-139700000D02*
G75*
G03X134210000Y-139700000I-900000J0D01*
G01*
X134597500Y-139700000D02*
G75*
G03X134597500Y-139700000I-2537500J0D01*
G01*
X90415000Y-102735000D02*
X91685000Y-102735000D01*
X90415000Y-95385000D02*
X91685000Y-95385000D01*
X128025000Y-95385000D02*
X126755000Y-95385000D01*
X128025000Y-102735000D02*
X126755000Y-102735000D01*
X90415000Y-102735000D02*
X90415000Y-95385000D01*
X128025000Y-102735000D02*
X128025000Y-95385000D01*
X91685000Y-102735000D02*
X91685000Y-104020000D01*
X79756000Y-134239000D02*
X79756000Y-101727000D01*
X79756000Y-101727000D02*
X61976000Y-101727000D01*
X61976000Y-101727000D02*
X61976000Y-134239000D01*
X61976000Y-134239000D02*
X79756000Y-134239000D01*
X61976000Y-127127000D02*
X69596000Y-127127000D01*
X69596000Y-127127000D02*
X69596000Y-108839000D01*
X69596000Y-108839000D02*
X61976000Y-108839000D01*
X61976000Y-125603000D02*
X53340000Y-125603000D01*
X53340000Y-125603000D02*
X53340000Y-110363000D01*
X53340000Y-110363000D02*
X61976000Y-110363000D01*
X73406000Y-78486000D02*
X73914000Y-78486000D01*
X73406000Y-78994000D02*
X73914000Y-78994000D01*
X73406000Y-81026000D02*
X73914000Y-81026000D01*
X73406000Y-81534000D02*
X73914000Y-81534000D01*
X73406000Y-83566000D02*
X73914000Y-83566000D01*
X73406000Y-84074000D02*
X73914000Y-84074000D01*
X70866000Y-81534000D02*
X71374000Y-81534000D01*
X70866000Y-81026000D02*
X71374000Y-81026000D01*
X70866000Y-78994000D02*
X71374000Y-78994000D01*
X70866000Y-78486000D02*
X71374000Y-78486000D01*
X70866000Y-84074000D02*
X71374000Y-84074000D01*
X70866000Y-83566000D02*
X71374000Y-83566000D01*
X74930000Y-85370000D02*
X76080000Y-85370000D01*
X76080000Y-85370000D02*
X76080000Y-83820000D01*
X68326000Y-83947000D02*
X62357000Y-83947000D01*
X62357000Y-83947000D02*
X62357000Y-83693000D01*
X62357000Y-83693000D02*
X68199000Y-83693000D01*
X68199000Y-83693000D02*
X68199000Y-83820000D01*
X68199000Y-83820000D02*
X62357000Y-83820000D01*
X70866000Y-82550000D02*
X70866000Y-80010000D01*
X70866000Y-80010000D02*
X68326000Y-80010000D01*
X68326000Y-81534000D02*
X62230000Y-81534000D01*
X62230000Y-81534000D02*
X62230000Y-81026000D01*
X62230000Y-81026000D02*
X68326000Y-81026000D01*
X68326000Y-80010000D02*
X68326000Y-82550000D01*
X70866000Y-77470000D02*
X68326000Y-77470000D01*
X68326000Y-77470000D02*
X68326000Y-80010000D01*
X62230000Y-78486000D02*
X68326000Y-78486000D01*
X62230000Y-78994000D02*
X62230000Y-78486000D01*
X68326000Y-78994000D02*
X62230000Y-78994000D01*
X70866000Y-77470000D02*
X68326000Y-77470000D01*
X70866000Y-80010000D02*
X70866000Y-77470000D01*
X70866000Y-80010000D02*
X68326000Y-80010000D01*
X70866000Y-82550000D02*
X68326000Y-82550000D01*
X68326000Y-82550000D02*
X68326000Y-85090000D01*
X62230000Y-83566000D02*
X68326000Y-83566000D01*
X62230000Y-84074000D02*
X62230000Y-83566000D01*
X68326000Y-84074000D02*
X62230000Y-84074000D01*
X70866000Y-82550000D02*
X68326000Y-82550000D01*
X70866000Y-85090000D02*
X70866000Y-82550000D01*
X70866000Y-85090000D02*
X68326000Y-85090000D01*
D13*
X62621160Y-87010240D02*
X62621160Y-101005640D01*
X62621160Y-101005640D02*
X67122040Y-101005640D01*
X67122040Y-101005640D02*
X75420220Y-101005640D01*
X75420220Y-101005640D02*
X75369420Y-87010240D01*
X75369420Y-87010240D02*
X69118480Y-87010240D01*
X69118480Y-87010240D02*
X67122040Y-87010240D01*
X67122040Y-87010240D02*
X62621160Y-87010240D01*
X67122040Y-87010240D02*
X67122040Y-87309960D01*
X67122040Y-87309960D02*
X69118480Y-87309960D01*
X69118480Y-87309960D02*
X69118480Y-87010240D01*
X67122040Y-101005640D02*
X67122040Y-100705920D01*
X67122040Y-100705920D02*
X69118480Y-100705920D01*
X69118480Y-100705920D02*
X69118480Y-100957380D01*
D12*
X176911000Y-63246000D02*
X209423000Y-63246000D01*
X209423000Y-63246000D02*
X209423000Y-45466000D01*
X209423000Y-45466000D02*
X176911000Y-45466000D01*
X176911000Y-45466000D02*
X176911000Y-63246000D01*
X184023000Y-45466000D02*
X184023000Y-53086000D01*
X184023000Y-53086000D02*
X202311000Y-53086000D01*
X202311000Y-53086000D02*
X202311000Y-45466000D01*
X185547000Y-45466000D02*
X185547000Y-36830000D01*
X185547000Y-36830000D02*
X200787000Y-36830000D01*
X200787000Y-36830000D02*
X200787000Y-45466000D01*
X107950000Y-67310000D02*
X107950000Y-72390000D01*
X107950000Y-72390000D02*
X105410000Y-72390000D01*
X105410000Y-72390000D02*
X105410000Y-67310000D01*
X105410000Y-67310000D02*
X107950000Y-67310000D01*
X74930000Y-67310000D02*
X74930000Y-72390000D01*
X74930000Y-72390000D02*
X72390000Y-72390000D01*
X72390000Y-72390000D02*
X72390000Y-67310000D01*
X72390000Y-67310000D02*
X74930000Y-67310000D01*
X72390000Y-67310000D02*
X72390000Y-72390000D01*
X72390000Y-72390000D02*
X69850000Y-72390000D01*
X69850000Y-72390000D02*
X69850000Y-67310000D01*
X69850000Y-67310000D02*
X72390000Y-67310000D01*
X110490000Y-67310000D02*
X110490000Y-72390000D01*
X110490000Y-72390000D02*
X107950000Y-72390000D01*
X107950000Y-72390000D02*
X107950000Y-67310000D01*
X107950000Y-67310000D02*
X110490000Y-67310000D01*
X69850000Y-67310000D02*
X69850000Y-72390000D01*
X69850000Y-72390000D02*
X67310000Y-72390000D01*
X67310000Y-72390000D02*
X67310000Y-67310000D01*
X67310000Y-67310000D02*
X69850000Y-67310000D01*
X200660000Y-66040000D02*
X200660000Y-71120000D01*
X200660000Y-71120000D02*
X198120000Y-71120000D01*
X198120000Y-71120000D02*
X198120000Y-66040000D01*
X198120000Y-66040000D02*
X200660000Y-66040000D01*
X198120000Y-66040000D02*
X198120000Y-71120000D01*
X198120000Y-71120000D02*
X195580000Y-71120000D01*
X195580000Y-71120000D02*
X195580000Y-66040000D01*
X195580000Y-66040000D02*
X198120000Y-66040000D01*
X195580000Y-66040000D02*
X195580000Y-71120000D01*
X195580000Y-71120000D02*
X193040000Y-71120000D01*
X193040000Y-71120000D02*
X193040000Y-66040000D01*
X193040000Y-66040000D02*
X195580000Y-66040000D01*
X193040000Y-66040000D02*
X193040000Y-71120000D01*
X193040000Y-71120000D02*
X190500000Y-71120000D01*
X190500000Y-71120000D02*
X190500000Y-66040000D01*
X190500000Y-66040000D02*
X193040000Y-66040000D01*
X190500000Y-66040000D02*
X190500000Y-71120000D01*
X190500000Y-71120000D02*
X187960000Y-71120000D01*
X187960000Y-71120000D02*
X187960000Y-66040000D01*
X187960000Y-66040000D02*
X190500000Y-66040000D01*
X187960000Y-66040000D02*
X187960000Y-71120000D01*
X187960000Y-71120000D02*
X185420000Y-71120000D01*
X185420000Y-71120000D02*
X185420000Y-66040000D01*
X185420000Y-66040000D02*
X187960000Y-66040000D01*
X185420000Y-66040000D02*
X185420000Y-71120000D01*
X185420000Y-71120000D02*
X182880000Y-71120000D01*
X182880000Y-71120000D02*
X182880000Y-66040000D01*
X182880000Y-66040000D02*
X185420000Y-66040000D01*
X182880000Y-66040000D02*
X182880000Y-71120000D01*
X182880000Y-71120000D02*
X180340000Y-71120000D01*
X180340000Y-71120000D02*
X180340000Y-66040000D01*
X180340000Y-66040000D02*
X182880000Y-66040000D01*
X105410000Y-76200000D02*
X110490000Y-76200000D01*
X110490000Y-76200000D02*
X110490000Y-78740000D01*
X110490000Y-78740000D02*
X105410000Y-78740000D01*
X105410000Y-78740000D02*
X105410000Y-76200000D01*
X93980000Y-76200000D02*
X99060000Y-76200000D01*
X99060000Y-76200000D02*
X99060000Y-78740000D01*
X99060000Y-78740000D02*
X93980000Y-78740000D01*
X93980000Y-78740000D02*
X93980000Y-76200000D01*
X187960000Y-130810000D02*
X193040000Y-130810000D01*
X193040000Y-130810000D02*
X193040000Y-133350000D01*
X193040000Y-133350000D02*
X187960000Y-133350000D01*
X187960000Y-133350000D02*
X187960000Y-130810000D01*
X120650000Y-129540000D02*
X125730000Y-129540000D01*
X125730000Y-129540000D02*
X125730000Y-132080000D01*
X125730000Y-132080000D02*
X120650000Y-132080000D01*
X120650000Y-132080000D02*
X120650000Y-129540000D01*
X138430000Y-63500000D02*
X138430000Y-68580000D01*
X138430000Y-68580000D02*
X135890000Y-68580000D01*
X135890000Y-68580000D02*
X135890000Y-63500000D01*
X135890000Y-63500000D02*
X138430000Y-63500000D01*
X142240000Y-63500000D02*
X142240000Y-68580000D01*
X142240000Y-68580000D02*
X139700000Y-68580000D01*
X139700000Y-68580000D02*
X139700000Y-63500000D01*
X139700000Y-63500000D02*
X142240000Y-63500000D01*
X118110000Y-88900000D02*
X118110000Y-83820000D01*
X118110000Y-83820000D02*
X120650000Y-83820000D01*
X120650000Y-83820000D02*
X120650000Y-88900000D01*
X120650000Y-88900000D02*
X118110000Y-88900000D01*
X115570000Y-88900000D02*
X115570000Y-83820000D01*
X115570000Y-83820000D02*
X118110000Y-83820000D01*
X118110000Y-83820000D02*
X118110000Y-88900000D01*
X118110000Y-88900000D02*
X115570000Y-88900000D01*
X146050000Y-66040000D02*
X146050000Y-63500000D01*
X146050000Y-63500000D02*
X168910000Y-63500000D01*
X168910000Y-63500000D02*
X168910000Y-66040000D01*
X146050000Y-66040000D02*
X168910000Y-66040000D01*
X166370000Y-66040000D02*
X166370000Y-63500000D01*
X82940000Y-75100000D02*
X82440000Y-75100000D01*
X85440000Y-75100000D02*
X84940000Y-75100000D01*
X92940000Y-75100000D02*
X92440000Y-75100000D01*
X95440000Y-75100000D02*
X94940000Y-75100000D01*
X97840000Y-75100000D02*
X97440000Y-75100000D01*
X102940000Y-75100000D02*
X101540000Y-75100000D01*
X104840000Y-54500000D02*
X104840000Y-75100000D01*
X75940000Y-55700000D02*
X75940000Y-75100000D01*
X75940000Y-75100000D02*
X80440000Y-75100000D01*
X75940000Y-45300000D02*
X104840000Y-45300000D01*
X104840000Y-45300000D02*
X104840000Y-51300000D01*
X75940000Y-45300000D02*
X75940000Y-52500000D01*
X123435000Y-90035000D02*
X124705000Y-90035000D01*
X123435000Y-82685000D02*
X124705000Y-82685000D01*
X150885000Y-82685000D02*
X149615000Y-82685000D01*
X150885000Y-90035000D02*
X149615000Y-90035000D01*
X123435000Y-90035000D02*
X123435000Y-82685000D01*
X150885000Y-90035000D02*
X150885000Y-82685000D01*
X124705000Y-90035000D02*
X124705000Y-91320000D01*
X131055000Y-102735000D02*
X132325000Y-102735000D01*
X131055000Y-95385000D02*
X132325000Y-95385000D01*
X150885000Y-95385000D02*
X149615000Y-95385000D01*
X150885000Y-102735000D02*
X149615000Y-102735000D01*
X131055000Y-102735000D02*
X131055000Y-95385000D01*
X150885000Y-102735000D02*
X150885000Y-95385000D01*
X132325000Y-102735000D02*
X132325000Y-104020000D01*
X70690000Y-60530000D02*
X70690000Y-63930000D01*
X70692944Y-60532944D02*
G75*
G02X74790000Y-62230000I1697056J-1697056D01*
G01*
X70692944Y-63927056D02*
G75*
G03X74790000Y-62230000I1697056J1697056D01*
G01*
X105655000Y-115435000D02*
X106925000Y-115435000D01*
X105655000Y-108085000D02*
X106925000Y-108085000D01*
X128025000Y-108085000D02*
X126755000Y-108085000D01*
X128025000Y-115435000D02*
X126755000Y-115435000D01*
X105655000Y-115435000D02*
X105655000Y-108085000D01*
X128025000Y-115435000D02*
X128025000Y-108085000D01*
X106925000Y-115435000D02*
X106925000Y-116720000D01*
X184395000Y-128135000D02*
X185665000Y-128135000D01*
X184395000Y-120785000D02*
X185665000Y-120785000D01*
X204225000Y-120785000D02*
X202955000Y-120785000D01*
X204225000Y-128135000D02*
X202955000Y-128135000D01*
X184395000Y-128135000D02*
X184395000Y-120785000D01*
X204225000Y-128135000D02*
X204225000Y-120785000D01*
X185665000Y-128135000D02*
X185665000Y-129420000D01*
X204225000Y-100465000D02*
X202955000Y-100465000D01*
X204225000Y-115435000D02*
X202955000Y-115435000D01*
X151375000Y-115435000D02*
X152645000Y-115435000D01*
X151375000Y-100465000D02*
X152645000Y-100465000D01*
X204225000Y-100465000D02*
X204225000Y-115435000D01*
X151375000Y-100465000D02*
X151375000Y-115435000D01*
X202955000Y-100465000D02*
X202955000Y-99180000D01*
X113250980Y-116959380D02*
X113101120Y-117109240D01*
X115199160Y-119359680D02*
X115450620Y-119110760D01*
X113250980Y-116959380D02*
X113598960Y-116710460D01*
X113598960Y-116710460D02*
X114150140Y-116560600D01*
X114150140Y-116560600D02*
X114548920Y-116560600D01*
X114548920Y-116560600D02*
X115049300Y-116761260D01*
X115049300Y-116761260D02*
X115450620Y-117109240D01*
X113149380Y-119159020D02*
X113449100Y-119410480D01*
X113449100Y-119410480D02*
X113901220Y-119611140D01*
X113901220Y-119611140D02*
X114350800Y-119659400D01*
X114350800Y-119659400D02*
X114851180Y-119560340D01*
X114851180Y-119560340D02*
X115199160Y-119359680D01*
X159766000Y-131064000D02*
G75*
G03X159766000Y-131064000I-254000J0D01*
G01*
X158511240Y-120329960D02*
X158511240Y-132328920D01*
X178310540Y-132328920D02*
X158511240Y-132328920D01*
X179308760Y-120129300D02*
X179308760Y-131229100D01*
X159809180Y-119131080D02*
X178310540Y-119131080D01*
X179308760Y-120129300D02*
G75*
G03X178310540Y-119131080I-998220J0D01*
G01*
X159705040Y-119131080D02*
G75*
G03X158506160Y-120329960I0J-1198880D01*
G01*
X178310540Y-132328920D02*
G75*
G03X179308760Y-131330700I0J998220D01*
G01*
X90415000Y-90035000D02*
X91685000Y-90035000D01*
X90415000Y-82685000D02*
X91685000Y-82685000D01*
X110245000Y-82685000D02*
X108975000Y-82685000D01*
X110245000Y-90035000D02*
X108975000Y-90035000D01*
X90415000Y-90035000D02*
X90415000Y-82685000D01*
X110245000Y-90035000D02*
X110245000Y-82685000D01*
X91685000Y-90035000D02*
X91685000Y-91320000D01*
X141224000Y-56896000D02*
X141224000Y-57404000D01*
X140716000Y-56896000D02*
X140716000Y-57404000D01*
X135636000Y-56896000D02*
X135636000Y-57404000D01*
X136144000Y-56896000D02*
X136144000Y-57404000D01*
X138176000Y-56896000D02*
X138176000Y-57404000D01*
X138684000Y-56896000D02*
X138684000Y-57404000D01*
X133604000Y-56896000D02*
X133604000Y-57404000D01*
X133096000Y-56896000D02*
X133096000Y-57404000D01*
X131064000Y-56896000D02*
X131064000Y-57404000D01*
X130556000Y-56896000D02*
X130556000Y-57404000D01*
X122936000Y-56896000D02*
X122936000Y-57404000D01*
X123444000Y-56896000D02*
X123444000Y-57404000D01*
X128524000Y-56896000D02*
X128524000Y-57404000D01*
X128016000Y-56896000D02*
X128016000Y-57404000D01*
X125984000Y-56896000D02*
X125984000Y-57404000D01*
X125476000Y-56896000D02*
X125476000Y-57404000D01*
X138176000Y-54356000D02*
X138176000Y-54864000D01*
X138684000Y-54356000D02*
X138684000Y-54864000D01*
X140716000Y-54356000D02*
X140716000Y-54864000D01*
X141224000Y-54356000D02*
X141224000Y-54864000D01*
X136144000Y-54356000D02*
X136144000Y-54864000D01*
X135636000Y-54356000D02*
X135636000Y-54864000D01*
X133604000Y-54356000D02*
X133604000Y-54864000D01*
X133096000Y-54356000D02*
X133096000Y-54864000D01*
X122936000Y-54356000D02*
X122936000Y-54864000D01*
X123444000Y-54356000D02*
X123444000Y-54864000D01*
X125476000Y-54356000D02*
X125476000Y-54864000D01*
X125984000Y-54356000D02*
X125984000Y-54864000D01*
X131064000Y-54356000D02*
X131064000Y-54864000D01*
X130556000Y-54356000D02*
X130556000Y-54864000D01*
X128524000Y-54356000D02*
X128524000Y-54864000D01*
X128016000Y-54356000D02*
X128016000Y-54864000D01*
X121640000Y-58420000D02*
X121640000Y-59570000D01*
X121640000Y-59570000D02*
X123190000Y-59570000D01*
X123063000Y-51816000D02*
X123063000Y-45847000D01*
X123063000Y-45847000D02*
X123317000Y-45847000D01*
X123317000Y-45847000D02*
X123317000Y-51689000D01*
X123317000Y-51689000D02*
X123190000Y-51689000D01*
X123190000Y-51689000D02*
X123190000Y-45847000D01*
X132080000Y-54356000D02*
X132080000Y-51816000D01*
X132080000Y-54356000D02*
X134620000Y-54356000D01*
X134620000Y-54356000D02*
X134620000Y-51816000D01*
X133096000Y-51816000D02*
X133096000Y-45720000D01*
X133096000Y-45720000D02*
X133604000Y-45720000D01*
X133604000Y-45720000D02*
X133604000Y-51816000D01*
X134620000Y-51816000D02*
X132080000Y-51816000D01*
X137160000Y-51816000D02*
X134620000Y-51816000D01*
X136144000Y-45720000D02*
X136144000Y-51816000D01*
X135636000Y-45720000D02*
X136144000Y-45720000D01*
X135636000Y-51816000D02*
X135636000Y-45720000D01*
X137160000Y-54356000D02*
X137160000Y-51816000D01*
X134620000Y-54356000D02*
X137160000Y-54356000D01*
X134620000Y-54356000D02*
X134620000Y-51816000D01*
X139700000Y-54356000D02*
X139700000Y-51816000D01*
X139700000Y-54356000D02*
X142240000Y-54356000D01*
X142240000Y-54356000D02*
X142240000Y-51816000D01*
X140716000Y-51816000D02*
X140716000Y-45720000D01*
X140716000Y-45720000D02*
X141224000Y-45720000D01*
X141224000Y-45720000D02*
X141224000Y-51816000D01*
X142240000Y-51816000D02*
X139700000Y-51816000D01*
X139700000Y-51816000D02*
X137160000Y-51816000D01*
X138684000Y-45720000D02*
X138684000Y-51816000D01*
X138176000Y-45720000D02*
X138684000Y-45720000D01*
X138176000Y-51816000D02*
X138176000Y-45720000D01*
X139700000Y-54356000D02*
X139700000Y-51816000D01*
X137160000Y-54356000D02*
X139700000Y-54356000D01*
X137160000Y-54356000D02*
X137160000Y-51816000D01*
X127000000Y-54356000D02*
X127000000Y-51816000D01*
X127000000Y-54356000D02*
X129540000Y-54356000D01*
X129540000Y-54356000D02*
X129540000Y-51816000D01*
X128016000Y-51816000D02*
X128016000Y-45720000D01*
X128016000Y-45720000D02*
X128524000Y-45720000D01*
X128524000Y-45720000D02*
X128524000Y-51816000D01*
X129540000Y-51816000D02*
X127000000Y-51816000D01*
X132080000Y-51816000D02*
X129540000Y-51816000D01*
X131064000Y-45720000D02*
X131064000Y-51816000D01*
X130556000Y-45720000D02*
X131064000Y-45720000D01*
X130556000Y-51816000D02*
X130556000Y-45720000D01*
X132080000Y-54356000D02*
X132080000Y-51816000D01*
X129540000Y-54356000D02*
X132080000Y-54356000D01*
X129540000Y-54356000D02*
X129540000Y-51816000D01*
X124460000Y-54356000D02*
X124460000Y-51816000D01*
X124460000Y-54356000D02*
X127000000Y-54356000D01*
X127000000Y-54356000D02*
X127000000Y-51816000D01*
X125476000Y-51816000D02*
X125476000Y-45720000D01*
X125476000Y-45720000D02*
X125984000Y-45720000D01*
X125984000Y-45720000D02*
X125984000Y-51816000D01*
X127000000Y-51816000D02*
X124460000Y-51816000D01*
X124460000Y-51816000D02*
X121920000Y-51816000D01*
X123444000Y-45720000D02*
X123444000Y-51816000D01*
X122936000Y-45720000D02*
X123444000Y-45720000D01*
X122936000Y-51816000D02*
X122936000Y-45720000D01*
X124460000Y-54356000D02*
X124460000Y-51816000D01*
X121920000Y-54356000D02*
X124460000Y-54356000D01*
X121920000Y-54356000D02*
X121920000Y-51816000D01*
X90420000Y-78720000D02*
X87420000Y-78720000D01*
X87420000Y-76220000D02*
X90420000Y-76220000D01*
X85090000Y-106680000D02*
X90170000Y-106680000D01*
X90170000Y-106680000D02*
X90170000Y-104140000D01*
X90170000Y-104140000D02*
X85090000Y-104140000D01*
X82270000Y-103860000D02*
X83820000Y-103860000D01*
X85090000Y-104140000D02*
X85090000Y-106680000D01*
X83820000Y-106960000D02*
X82270000Y-106960000D01*
X82270000Y-106960000D02*
X82270000Y-103860000D01*
D14*
X213299524Y-96822381D02*
X212029524Y-96822381D01*
X212029524Y-96338572D01*
X212090000Y-96217619D01*
X212150476Y-96157143D01*
X212271429Y-96096667D01*
X212452857Y-96096667D01*
X212573810Y-96157143D01*
X212634286Y-96217619D01*
X212694762Y-96338572D01*
X212694762Y-96822381D01*
X212029524Y-94947619D02*
X212029524Y-95552381D01*
X212634286Y-95612857D01*
X212573810Y-95552381D01*
X212513333Y-95431429D01*
X212513333Y-95129048D01*
X212573810Y-95008095D01*
X212634286Y-94947619D01*
X212755238Y-94887143D01*
X213057619Y-94887143D01*
X213178571Y-94947619D01*
X213239048Y-95008095D01*
X213299524Y-95129048D01*
X213299524Y-95431429D01*
X213239048Y-95552381D01*
X213178571Y-95612857D01*
D12*
X108402381Y-59158095D02*
X107402381Y-59158095D01*
X107402381Y-58777142D01*
X107450000Y-58681904D01*
X107497619Y-58634285D01*
X107592857Y-58586666D01*
X107735714Y-58586666D01*
X107830952Y-58634285D01*
X107878571Y-58681904D01*
X107926190Y-58777142D01*
X107926190Y-59158095D01*
X107497619Y-58205714D02*
X107450000Y-58158095D01*
X107402381Y-58062857D01*
X107402381Y-57824761D01*
X107450000Y-57729523D01*
X107497619Y-57681904D01*
X107592857Y-57634285D01*
X107688095Y-57634285D01*
X107830952Y-57681904D01*
X108402381Y-58253333D01*
X108402381Y-57634285D01*
X144232381Y-56927143D02*
X144946667Y-56927143D01*
X145089524Y-56974763D01*
X145184762Y-57070001D01*
X145232381Y-57212858D01*
X145232381Y-57308096D01*
X145232381Y-56308096D02*
X145184762Y-56403334D01*
X145137143Y-56450953D01*
X145041905Y-56498572D01*
X144756190Y-56498572D01*
X144660952Y-56450953D01*
X144613333Y-56403334D01*
X144565714Y-56308096D01*
X144565714Y-56165238D01*
X144613333Y-56070000D01*
X144660952Y-56022381D01*
X144756190Y-55974762D01*
X145041905Y-55974762D01*
X145137143Y-56022381D01*
X145184762Y-56070000D01*
X145232381Y-56165238D01*
X145232381Y-56308096D01*
X144565714Y-55641429D02*
X145232381Y-55403334D01*
X144565714Y-55165238D02*
X145232381Y-55403334D01*
X145470476Y-55498572D01*
X145518095Y-55546191D01*
X145565714Y-55641429D01*
X145184762Y-54831905D02*
X145232381Y-54736667D01*
X145232381Y-54546191D01*
X145184762Y-54450952D01*
X145089524Y-54403333D01*
X145041905Y-54403333D01*
X144946667Y-54450952D01*
X144899048Y-54546191D01*
X144899048Y-54689048D01*
X144851429Y-54784286D01*
X144756190Y-54831905D01*
X144708571Y-54831905D01*
X144613333Y-54784286D01*
X144565714Y-54689048D01*
X144565714Y-54546191D01*
X144613333Y-54450952D01*
X144565714Y-54117619D02*
X144565714Y-53736667D01*
X144232381Y-53974762D02*
X145089524Y-53974762D01*
X145184762Y-53927143D01*
X145232381Y-53831905D01*
X145232381Y-53736667D01*
X145232381Y-53403333D02*
X144565714Y-53403333D01*
X144232381Y-53403333D02*
X144280000Y-53450952D01*
X144327619Y-53403333D01*
X144280000Y-53355714D01*
X144232381Y-53403333D01*
X144327619Y-53403333D01*
X145184762Y-52498571D02*
X145232381Y-52593809D01*
X145232381Y-52784286D01*
X145184762Y-52879524D01*
X145137143Y-52927143D01*
X145041905Y-52974762D01*
X144756190Y-52974762D01*
X144660952Y-52927143D01*
X144613333Y-52879524D01*
X144565714Y-52784286D01*
X144565714Y-52593809D01*
X144613333Y-52498571D01*
X145232381Y-52070000D02*
X144232381Y-52070000D01*
X144851429Y-51974762D02*
X145232381Y-51689047D01*
X144565714Y-51689047D02*
X144946667Y-52070000D01*
X145232381Y-50498571D02*
X144232381Y-50498571D01*
X144232381Y-50117618D01*
X144280000Y-50022380D01*
X144327619Y-49974761D01*
X144422857Y-49927142D01*
X144565714Y-49927142D01*
X144660952Y-49974761D01*
X144708571Y-50022380D01*
X144756190Y-50117618D01*
X144756190Y-50498571D01*
X145232381Y-49355714D02*
X145184762Y-49450952D01*
X145137143Y-49498571D01*
X145041905Y-49546190D01*
X144756190Y-49546190D01*
X144660952Y-49498571D01*
X144613333Y-49450952D01*
X144565714Y-49355714D01*
X144565714Y-49212856D01*
X144613333Y-49117618D01*
X144660952Y-49069999D01*
X144756190Y-49022380D01*
X145041905Y-49022380D01*
X145137143Y-49069999D01*
X145184762Y-49117618D01*
X145232381Y-49212856D01*
X145232381Y-49355714D01*
X145232381Y-48593809D02*
X144565714Y-48593809D01*
X144756190Y-48593809D02*
X144660952Y-48546190D01*
X144613333Y-48498571D01*
X144565714Y-48403333D01*
X144565714Y-48308094D01*
X144565714Y-48117618D02*
X144565714Y-47736666D01*
X144232381Y-47974761D02*
X145089524Y-47974761D01*
X145184762Y-47927142D01*
X145232381Y-47831904D01*
X145232381Y-47736666D01*
X145232381Y-46879522D02*
X145232381Y-47450951D01*
X145232381Y-47165237D02*
X144232381Y-47165237D01*
X144375238Y-47260475D01*
X144470476Y-47355713D01*
X144518095Y-47450951D01*
X205192381Y-80771905D02*
X206001905Y-80771905D01*
X206097143Y-80724286D01*
X206144762Y-80676667D01*
X206192381Y-80581429D01*
X206192381Y-80390952D01*
X206144762Y-80295714D01*
X206097143Y-80248095D01*
X206001905Y-80200476D01*
X205192381Y-80200476D01*
X206192381Y-79200476D02*
X206192381Y-79771905D01*
X206192381Y-79486191D02*
X205192381Y-79486191D01*
X205335238Y-79581429D01*
X205430476Y-79676667D01*
X205478095Y-79771905D01*
X128992381Y-116331905D02*
X129801905Y-116331905D01*
X129897143Y-116284286D01*
X129944762Y-116236667D01*
X129992381Y-116141429D01*
X129992381Y-115950952D01*
X129944762Y-115855714D01*
X129897143Y-115808095D01*
X129801905Y-115760476D01*
X128992381Y-115760476D01*
X129087619Y-115331905D02*
X129040000Y-115284286D01*
X128992381Y-115189048D01*
X128992381Y-114950952D01*
X129040000Y-114855714D01*
X129087619Y-114808095D01*
X129182857Y-114760476D01*
X129278095Y-114760476D01*
X129420952Y-114808095D01*
X129992381Y-115379524D01*
X129992381Y-114760476D01*
X126452381Y-129508095D02*
X127261905Y-129508095D01*
X127357143Y-129460476D01*
X127404762Y-129412857D01*
X127452381Y-129317619D01*
X127452381Y-129127142D01*
X127404762Y-129031904D01*
X127357143Y-128984285D01*
X127261905Y-128936666D01*
X126452381Y-128936666D01*
X127452381Y-127936666D02*
X127452381Y-128508095D01*
X127452381Y-128222381D02*
X126452381Y-128222381D01*
X126595238Y-128317619D01*
X126690476Y-128412857D01*
X126738095Y-128508095D01*
X127452381Y-126984285D02*
X127452381Y-127555714D01*
X127452381Y-127270000D02*
X126452381Y-127270000D01*
X126595238Y-127365238D01*
X126690476Y-127460476D01*
X126738095Y-127555714D01*
X85272571Y-127785714D02*
X85320190Y-127642857D01*
X85367810Y-127595238D01*
X85463048Y-127547619D01*
X85605905Y-127547619D01*
X85701143Y-127595238D01*
X85748762Y-127642857D01*
X85796381Y-127738095D01*
X85796381Y-128119048D01*
X84796381Y-128119048D01*
X84796381Y-127785714D01*
X84844000Y-127690476D01*
X84891619Y-127642857D01*
X84986857Y-127595238D01*
X85082095Y-127595238D01*
X85177333Y-127642857D01*
X85224952Y-127690476D01*
X85272571Y-127785714D01*
X85272571Y-128119048D01*
X84796381Y-127261905D02*
X84796381Y-126690476D01*
X85796381Y-126976191D02*
X84796381Y-126976191D01*
X85796381Y-125833333D02*
X85796381Y-126404762D01*
X85796381Y-126119048D02*
X84796381Y-126119048D01*
X84939238Y-126214286D01*
X85034476Y-126309524D01*
X85082095Y-126404762D01*
X149693334Y-76557143D02*
X149645715Y-76604762D01*
X149502858Y-76652381D01*
X149407620Y-76652381D01*
X149264762Y-76604762D01*
X149169524Y-76509524D01*
X149121905Y-76414286D01*
X149074286Y-76223810D01*
X149074286Y-76080952D01*
X149121905Y-75890476D01*
X149169524Y-75795238D01*
X149264762Y-75700000D01*
X149407620Y-75652381D01*
X149502858Y-75652381D01*
X149645715Y-75700000D01*
X149693334Y-75747619D01*
X150645715Y-76652381D02*
X150074286Y-76652381D01*
X150360000Y-76652381D02*
X150360000Y-75652381D01*
X150264762Y-75795238D01*
X150169524Y-75890476D01*
X150074286Y-75938095D01*
X104497143Y-113196666D02*
X104544762Y-113244285D01*
X104592381Y-113387142D01*
X104592381Y-113482380D01*
X104544762Y-113625238D01*
X104449524Y-113720476D01*
X104354286Y-113768095D01*
X104163810Y-113815714D01*
X104020952Y-113815714D01*
X103830476Y-113768095D01*
X103735238Y-113720476D01*
X103640000Y-113625238D01*
X103592381Y-113482380D01*
X103592381Y-113387142D01*
X103640000Y-113244285D01*
X103687619Y-113196666D01*
X103687619Y-112815714D02*
X103640000Y-112768095D01*
X103592381Y-112672857D01*
X103592381Y-112434761D01*
X103640000Y-112339523D01*
X103687619Y-112291904D01*
X103782857Y-112244285D01*
X103878095Y-112244285D01*
X104020952Y-112291904D01*
X104592381Y-112863333D01*
X104592381Y-112244285D01*
X85447143Y-83986666D02*
X85494762Y-84034285D01*
X85542381Y-84177142D01*
X85542381Y-84272380D01*
X85494762Y-84415238D01*
X85399524Y-84510476D01*
X85304286Y-84558095D01*
X85113810Y-84605714D01*
X84970952Y-84605714D01*
X84780476Y-84558095D01*
X84685238Y-84510476D01*
X84590000Y-84415238D01*
X84542381Y-84272380D01*
X84542381Y-84177142D01*
X84590000Y-84034285D01*
X84637619Y-83986666D01*
X84542381Y-83653333D02*
X84542381Y-83034285D01*
X84923333Y-83367619D01*
X84923333Y-83224761D01*
X84970952Y-83129523D01*
X85018571Y-83081904D01*
X85113810Y-83034285D01*
X85351905Y-83034285D01*
X85447143Y-83081904D01*
X85494762Y-83129523D01*
X85542381Y-83224761D01*
X85542381Y-83510476D01*
X85494762Y-83605714D01*
X85447143Y-83653333D01*
X129897143Y-99226666D02*
X129944762Y-99274285D01*
X129992381Y-99417142D01*
X129992381Y-99512380D01*
X129944762Y-99655238D01*
X129849524Y-99750476D01*
X129754286Y-99798095D01*
X129563810Y-99845714D01*
X129420952Y-99845714D01*
X129230476Y-99798095D01*
X129135238Y-99750476D01*
X129040000Y-99655238D01*
X128992381Y-99512380D01*
X128992381Y-99417142D01*
X129040000Y-99274285D01*
X129087619Y-99226666D01*
X129325714Y-98369523D02*
X129992381Y-98369523D01*
X128944762Y-98607619D02*
X129659048Y-98845714D01*
X129659048Y-98226666D01*
X128627143Y-106846666D02*
X128674762Y-106894285D01*
X128722381Y-107037142D01*
X128722381Y-107132380D01*
X128674762Y-107275238D01*
X128579524Y-107370476D01*
X128484286Y-107418095D01*
X128293810Y-107465714D01*
X128150952Y-107465714D01*
X127960476Y-107418095D01*
X127865238Y-107370476D01*
X127770000Y-107275238D01*
X127722381Y-107132380D01*
X127722381Y-107037142D01*
X127770000Y-106894285D01*
X127817619Y-106846666D01*
X127722381Y-105941904D02*
X127722381Y-106418095D01*
X128198571Y-106465714D01*
X128150952Y-106418095D01*
X128103333Y-106322857D01*
X128103333Y-106084761D01*
X128150952Y-105989523D01*
X128198571Y-105941904D01*
X128293810Y-105894285D01*
X128531905Y-105894285D01*
X128627143Y-105941904D01*
X128674762Y-105989523D01*
X128722381Y-106084761D01*
X128722381Y-106322857D01*
X128674762Y-106418095D01*
X128627143Y-106465714D01*
X63857143Y-63666666D02*
X63904762Y-63714285D01*
X63952381Y-63857142D01*
X63952381Y-63952380D01*
X63904762Y-64095238D01*
X63809524Y-64190476D01*
X63714286Y-64238095D01*
X63523810Y-64285714D01*
X63380952Y-64285714D01*
X63190476Y-64238095D01*
X63095238Y-64190476D01*
X63000000Y-64095238D01*
X62952381Y-63952380D01*
X62952381Y-63857142D01*
X63000000Y-63714285D01*
X63047619Y-63666666D01*
X62952381Y-62809523D02*
X62952381Y-63000000D01*
X63000000Y-63095238D01*
X63047619Y-63142857D01*
X63190476Y-63238095D01*
X63380952Y-63285714D01*
X63761905Y-63285714D01*
X63857143Y-63238095D01*
X63904762Y-63190476D01*
X63952381Y-63095238D01*
X63952381Y-62904761D01*
X63904762Y-62809523D01*
X63857143Y-62761904D01*
X63761905Y-62714285D01*
X63523810Y-62714285D01*
X63428571Y-62761904D01*
X63380952Y-62809523D01*
X63333333Y-62904761D01*
X63333333Y-63095238D01*
X63380952Y-63190476D01*
X63428571Y-63238095D01*
X63523810Y-63285714D01*
X70953334Y-56237143D02*
X70905715Y-56284762D01*
X70762858Y-56332381D01*
X70667620Y-56332381D01*
X70524762Y-56284762D01*
X70429524Y-56189524D01*
X70381905Y-56094286D01*
X70334286Y-55903810D01*
X70334286Y-55760952D01*
X70381905Y-55570476D01*
X70429524Y-55475238D01*
X70524762Y-55380000D01*
X70667620Y-55332381D01*
X70762858Y-55332381D01*
X70905715Y-55380000D01*
X70953334Y-55427619D01*
X71286667Y-55332381D02*
X71953334Y-55332381D01*
X71524762Y-56332381D01*
X121007143Y-78906666D02*
X121054762Y-78954285D01*
X121102381Y-79097142D01*
X121102381Y-79192380D01*
X121054762Y-79335238D01*
X120959524Y-79430476D01*
X120864286Y-79478095D01*
X120673810Y-79525714D01*
X120530952Y-79525714D01*
X120340476Y-79478095D01*
X120245238Y-79430476D01*
X120150000Y-79335238D01*
X120102381Y-79192380D01*
X120102381Y-79097142D01*
X120150000Y-78954285D01*
X120197619Y-78906666D01*
X121102381Y-78430476D02*
X121102381Y-78240000D01*
X121054762Y-78144761D01*
X121007143Y-78097142D01*
X120864286Y-78001904D01*
X120673810Y-77954285D01*
X120292857Y-77954285D01*
X120197619Y-78001904D01*
X120150000Y-78049523D01*
X120102381Y-78144761D01*
X120102381Y-78335238D01*
X120150000Y-78430476D01*
X120197619Y-78478095D01*
X120292857Y-78525714D01*
X120530952Y-78525714D01*
X120626190Y-78478095D01*
X120673810Y-78430476D01*
X120721429Y-78335238D01*
X120721429Y-78144761D01*
X120673810Y-78049523D01*
X120626190Y-78001904D01*
X120530952Y-77954285D01*
X106839143Y-99417143D02*
X106791524Y-99464762D01*
X106648667Y-99512381D01*
X106553429Y-99512381D01*
X106410571Y-99464762D01*
X106315333Y-99369524D01*
X106267714Y-99274286D01*
X106220095Y-99083810D01*
X106220095Y-98940952D01*
X106267714Y-98750476D01*
X106315333Y-98655238D01*
X106410571Y-98560000D01*
X106553429Y-98512381D01*
X106648667Y-98512381D01*
X106791524Y-98560000D01*
X106839143Y-98607619D01*
X107791524Y-99512381D02*
X107220095Y-99512381D01*
X107505809Y-99512381D02*
X107505809Y-98512381D01*
X107410571Y-98655238D01*
X107315333Y-98750476D01*
X107220095Y-98798095D01*
X108410571Y-98512381D02*
X108505810Y-98512381D01*
X108601048Y-98560000D01*
X108648667Y-98607619D01*
X108696286Y-98702857D01*
X108743905Y-98893333D01*
X108743905Y-99131429D01*
X108696286Y-99321905D01*
X108648667Y-99417143D01*
X108601048Y-99464762D01*
X108505810Y-99512381D01*
X108410571Y-99512381D01*
X108315333Y-99464762D01*
X108267714Y-99417143D01*
X108220095Y-99321905D01*
X108172476Y-99131429D01*
X108172476Y-98893333D01*
X108220095Y-98702857D01*
X108267714Y-98607619D01*
X108315333Y-98560000D01*
X108410571Y-98512381D01*
X206097143Y-118752857D02*
X206144762Y-118800476D01*
X206192381Y-118943333D01*
X206192381Y-119038571D01*
X206144762Y-119181429D01*
X206049524Y-119276667D01*
X205954286Y-119324286D01*
X205763810Y-119371905D01*
X205620952Y-119371905D01*
X205430476Y-119324286D01*
X205335238Y-119276667D01*
X205240000Y-119181429D01*
X205192381Y-119038571D01*
X205192381Y-118943333D01*
X205240000Y-118800476D01*
X205287619Y-118752857D01*
X206192381Y-117800476D02*
X206192381Y-118371905D01*
X206192381Y-118086191D02*
X205192381Y-118086191D01*
X205335238Y-118181429D01*
X205430476Y-118276667D01*
X205478095Y-118371905D01*
X206192381Y-116848095D02*
X206192381Y-117419524D01*
X206192381Y-117133810D02*
X205192381Y-117133810D01*
X205335238Y-117229048D01*
X205430476Y-117324286D01*
X205478095Y-117419524D01*
X180697143Y-122562857D02*
X180744762Y-122610476D01*
X180792381Y-122753333D01*
X180792381Y-122848571D01*
X180744762Y-122991429D01*
X180649524Y-123086667D01*
X180554286Y-123134286D01*
X180363810Y-123181905D01*
X180220952Y-123181905D01*
X180030476Y-123134286D01*
X179935238Y-123086667D01*
X179840000Y-122991429D01*
X179792381Y-122848571D01*
X179792381Y-122753333D01*
X179840000Y-122610476D01*
X179887619Y-122562857D01*
X180792381Y-121610476D02*
X180792381Y-122181905D01*
X180792381Y-121896191D02*
X179792381Y-121896191D01*
X179935238Y-121991429D01*
X180030476Y-122086667D01*
X180078095Y-122181905D01*
X179887619Y-121229524D02*
X179840000Y-121181905D01*
X179792381Y-121086667D01*
X179792381Y-120848571D01*
X179840000Y-120753333D01*
X179887619Y-120705714D01*
X179982857Y-120658095D01*
X180078095Y-120658095D01*
X180220952Y-120705714D01*
X180792381Y-121277143D01*
X180792381Y-120658095D01*
X122277143Y-123832857D02*
X122324762Y-123880476D01*
X122372381Y-124023333D01*
X122372381Y-124118571D01*
X122324762Y-124261429D01*
X122229524Y-124356667D01*
X122134286Y-124404286D01*
X121943810Y-124451905D01*
X121800952Y-124451905D01*
X121610476Y-124404286D01*
X121515238Y-124356667D01*
X121420000Y-124261429D01*
X121372381Y-124118571D01*
X121372381Y-124023333D01*
X121420000Y-123880476D01*
X121467619Y-123832857D01*
X122372381Y-122880476D02*
X122372381Y-123451905D01*
X122372381Y-123166191D02*
X121372381Y-123166191D01*
X121515238Y-123261429D01*
X121610476Y-123356667D01*
X121658095Y-123451905D01*
X121372381Y-122547143D02*
X121372381Y-121928095D01*
X121753333Y-122261429D01*
X121753333Y-122118571D01*
X121800952Y-122023333D01*
X121848571Y-121975714D01*
X121943810Y-121928095D01*
X122181905Y-121928095D01*
X122277143Y-121975714D01*
X122324762Y-122023333D01*
X122372381Y-122118571D01*
X122372381Y-122404286D01*
X122324762Y-122499524D01*
X122277143Y-122547143D01*
X127627143Y-133707143D02*
X127579524Y-133754762D01*
X127436667Y-133802381D01*
X127341429Y-133802381D01*
X127198571Y-133754762D01*
X127103333Y-133659524D01*
X127055714Y-133564286D01*
X127008095Y-133373810D01*
X127008095Y-133230952D01*
X127055714Y-133040476D01*
X127103333Y-132945238D01*
X127198571Y-132850000D01*
X127341429Y-132802381D01*
X127436667Y-132802381D01*
X127579524Y-132850000D01*
X127627143Y-132897619D01*
X128579524Y-133802381D02*
X128008095Y-133802381D01*
X128293809Y-133802381D02*
X128293809Y-132802381D01*
X128198571Y-132945238D01*
X128103333Y-133040476D01*
X128008095Y-133088095D01*
X129484286Y-132802381D02*
X129008095Y-132802381D01*
X128960476Y-133278571D01*
X129008095Y-133230952D01*
X129103333Y-133183333D01*
X129341429Y-133183333D01*
X129436667Y-133230952D01*
X129484286Y-133278571D01*
X129531905Y-133373810D01*
X129531905Y-133611905D01*
X129484286Y-133707143D01*
X129436667Y-133754762D01*
X129341429Y-133802381D01*
X129103333Y-133802381D01*
X129008095Y-133754762D01*
X128960476Y-133707143D01*
X140327143Y-138787143D02*
X140279524Y-138834762D01*
X140136667Y-138882381D01*
X140041429Y-138882381D01*
X139898571Y-138834762D01*
X139803333Y-138739524D01*
X139755714Y-138644286D01*
X139708095Y-138453810D01*
X139708095Y-138310952D01*
X139755714Y-138120476D01*
X139803333Y-138025238D01*
X139898571Y-137930000D01*
X140041429Y-137882381D01*
X140136667Y-137882381D01*
X140279524Y-137930000D01*
X140327143Y-137977619D01*
X141279524Y-138882381D02*
X140708095Y-138882381D01*
X140993809Y-138882381D02*
X140993809Y-137882381D01*
X140898571Y-138025238D01*
X140803333Y-138120476D01*
X140708095Y-138168095D01*
X142136667Y-137882381D02*
X141946190Y-137882381D01*
X141850952Y-137930000D01*
X141803333Y-137977619D01*
X141708095Y-138120476D01*
X141660476Y-138310952D01*
X141660476Y-138691905D01*
X141708095Y-138787143D01*
X141755714Y-138834762D01*
X141850952Y-138882381D01*
X142041429Y-138882381D01*
X142136667Y-138834762D01*
X142184286Y-138787143D01*
X142231905Y-138691905D01*
X142231905Y-138453810D01*
X142184286Y-138358571D01*
X142136667Y-138310952D01*
X142041429Y-138263333D01*
X141850952Y-138263333D01*
X141755714Y-138310952D01*
X141708095Y-138358571D01*
X141660476Y-138453810D01*
X140327143Y-133707143D02*
X140279524Y-133754762D01*
X140136667Y-133802381D01*
X140041429Y-133802381D01*
X139898571Y-133754762D01*
X139803333Y-133659524D01*
X139755714Y-133564286D01*
X139708095Y-133373810D01*
X139708095Y-133230952D01*
X139755714Y-133040476D01*
X139803333Y-132945238D01*
X139898571Y-132850000D01*
X140041429Y-132802381D01*
X140136667Y-132802381D01*
X140279524Y-132850000D01*
X140327143Y-132897619D01*
X141279524Y-133802381D02*
X140708095Y-133802381D01*
X140993809Y-133802381D02*
X140993809Y-132802381D01*
X140898571Y-132945238D01*
X140803333Y-133040476D01*
X140708095Y-133088095D01*
X141612857Y-132802381D02*
X142279524Y-132802381D01*
X141850952Y-133802381D01*
X127627143Y-138787143D02*
X127579524Y-138834762D01*
X127436667Y-138882381D01*
X127341429Y-138882381D01*
X127198571Y-138834762D01*
X127103333Y-138739524D01*
X127055714Y-138644286D01*
X127008095Y-138453810D01*
X127008095Y-138310952D01*
X127055714Y-138120476D01*
X127103333Y-138025238D01*
X127198571Y-137930000D01*
X127341429Y-137882381D01*
X127436667Y-137882381D01*
X127579524Y-137930000D01*
X127627143Y-137977619D01*
X128579524Y-138882381D02*
X128008095Y-138882381D01*
X128293809Y-138882381D02*
X128293809Y-137882381D01*
X128198571Y-138025238D01*
X128103333Y-138120476D01*
X128008095Y-138168095D01*
X129150952Y-138310952D02*
X129055714Y-138263333D01*
X129008095Y-138215714D01*
X128960476Y-138120476D01*
X128960476Y-138072857D01*
X129008095Y-137977619D01*
X129055714Y-137930000D01*
X129150952Y-137882381D01*
X129341429Y-137882381D01*
X129436667Y-137930000D01*
X129484286Y-137977619D01*
X129531905Y-138072857D01*
X129531905Y-138120476D01*
X129484286Y-138215714D01*
X129436667Y-138263333D01*
X129341429Y-138310952D01*
X129150952Y-138310952D01*
X129055714Y-138358571D01*
X129008095Y-138406190D01*
X128960476Y-138501429D01*
X128960476Y-138691905D01*
X129008095Y-138787143D01*
X129055714Y-138834762D01*
X129150952Y-138882381D01*
X129341429Y-138882381D01*
X129436667Y-138834762D01*
X129484286Y-138787143D01*
X129531905Y-138691905D01*
X129531905Y-138501429D01*
X129484286Y-138406190D01*
X129436667Y-138358571D01*
X129341429Y-138310952D01*
X89352381Y-103846190D02*
X88352381Y-103846190D01*
X89257143Y-102798571D02*
X89304762Y-102846190D01*
X89352381Y-102989047D01*
X89352381Y-103084285D01*
X89304762Y-103227143D01*
X89209524Y-103322381D01*
X89114286Y-103370000D01*
X88923810Y-103417619D01*
X88780952Y-103417619D01*
X88590476Y-103370000D01*
X88495238Y-103322381D01*
X88400000Y-103227143D01*
X88352381Y-103084285D01*
X88352381Y-102989047D01*
X88400000Y-102846190D01*
X88447619Y-102798571D01*
X89352381Y-101846190D02*
X89352381Y-102417619D01*
X89352381Y-102131905D02*
X88352381Y-102131905D01*
X88495238Y-102227143D01*
X88590476Y-102322381D01*
X88638095Y-102417619D01*
X68032381Y-117173333D02*
X68746667Y-117173333D01*
X68889524Y-117220953D01*
X68984762Y-117316191D01*
X69032381Y-117459048D01*
X69032381Y-117554286D01*
X69032381Y-116173333D02*
X69032381Y-116744762D01*
X69032381Y-116459048D02*
X68032381Y-116459048D01*
X68175238Y-116554286D01*
X68270476Y-116649524D01*
X68318095Y-116744762D01*
X65301905Y-77922381D02*
X65301905Y-76922381D01*
X65682858Y-76922381D01*
X65778096Y-76970000D01*
X65825715Y-77017619D01*
X65873334Y-77112857D01*
X65873334Y-77255714D01*
X65825715Y-77350952D01*
X65778096Y-77398571D01*
X65682858Y-77446190D01*
X65301905Y-77446190D01*
X66206667Y-76922381D02*
X66825715Y-76922381D01*
X66492381Y-77303333D01*
X66635239Y-77303333D01*
X66730477Y-77350952D01*
X66778096Y-77398571D01*
X66825715Y-77493810D01*
X66825715Y-77731905D01*
X66778096Y-77827143D01*
X66730477Y-77874762D01*
X66635239Y-77922381D01*
X66349524Y-77922381D01*
X66254286Y-77874762D01*
X66206667Y-77827143D01*
X177252381Y-56927143D02*
X177966667Y-56927143D01*
X178109524Y-56974763D01*
X178204762Y-57070001D01*
X178252381Y-57212858D01*
X178252381Y-57308096D01*
X178252381Y-56308096D02*
X178204762Y-56403334D01*
X178157143Y-56450953D01*
X178061905Y-56498572D01*
X177776190Y-56498572D01*
X177680952Y-56450953D01*
X177633333Y-56403334D01*
X177585714Y-56308096D01*
X177585714Y-56165238D01*
X177633333Y-56070000D01*
X177680952Y-56022381D01*
X177776190Y-55974762D01*
X178061905Y-55974762D01*
X178157143Y-56022381D01*
X178204762Y-56070000D01*
X178252381Y-56165238D01*
X178252381Y-56308096D01*
X177585714Y-55641429D02*
X178252381Y-55403334D01*
X177585714Y-55165238D02*
X178252381Y-55403334D01*
X178490476Y-55498572D01*
X178538095Y-55546191D01*
X178585714Y-55641429D01*
X178204762Y-54831905D02*
X178252381Y-54736667D01*
X178252381Y-54546191D01*
X178204762Y-54450952D01*
X178109524Y-54403333D01*
X178061905Y-54403333D01*
X177966667Y-54450952D01*
X177919048Y-54546191D01*
X177919048Y-54689048D01*
X177871429Y-54784286D01*
X177776190Y-54831905D01*
X177728571Y-54831905D01*
X177633333Y-54784286D01*
X177585714Y-54689048D01*
X177585714Y-54546191D01*
X177633333Y-54450952D01*
X177585714Y-54117619D02*
X177585714Y-53736667D01*
X177252381Y-53974762D02*
X178109524Y-53974762D01*
X178204762Y-53927143D01*
X178252381Y-53831905D01*
X178252381Y-53736667D01*
X178252381Y-53403333D02*
X177585714Y-53403333D01*
X177252381Y-53403333D02*
X177300000Y-53450952D01*
X177347619Y-53403333D01*
X177300000Y-53355714D01*
X177252381Y-53403333D01*
X177347619Y-53403333D01*
X178204762Y-52498571D02*
X178252381Y-52593809D01*
X178252381Y-52784286D01*
X178204762Y-52879524D01*
X178157143Y-52927143D01*
X178061905Y-52974762D01*
X177776190Y-52974762D01*
X177680952Y-52927143D01*
X177633333Y-52879524D01*
X177585714Y-52784286D01*
X177585714Y-52593809D01*
X177633333Y-52498571D01*
X178252381Y-52070000D02*
X177252381Y-52070000D01*
X177871429Y-51974762D02*
X178252381Y-51689047D01*
X177585714Y-51689047D02*
X177966667Y-52070000D01*
X178252381Y-50498571D02*
X177252381Y-50498571D01*
X177252381Y-50117618D01*
X177300000Y-50022380D01*
X177347619Y-49974761D01*
X177442857Y-49927142D01*
X177585714Y-49927142D01*
X177680952Y-49974761D01*
X177728571Y-50022380D01*
X177776190Y-50117618D01*
X177776190Y-50498571D01*
X178252381Y-49355714D02*
X178204762Y-49450952D01*
X178157143Y-49498571D01*
X178061905Y-49546190D01*
X177776190Y-49546190D01*
X177680952Y-49498571D01*
X177633333Y-49450952D01*
X177585714Y-49355714D01*
X177585714Y-49212856D01*
X177633333Y-49117618D01*
X177680952Y-49069999D01*
X177776190Y-49022380D01*
X178061905Y-49022380D01*
X178157143Y-49069999D01*
X178204762Y-49117618D01*
X178252381Y-49212856D01*
X178252381Y-49355714D01*
X178252381Y-48593809D02*
X177585714Y-48593809D01*
X177776190Y-48593809D02*
X177680952Y-48546190D01*
X177633333Y-48498571D01*
X177585714Y-48403333D01*
X177585714Y-48308094D01*
X177585714Y-48117618D02*
X177585714Y-47736666D01*
X177252381Y-47974761D02*
X178109524Y-47974761D01*
X178204762Y-47927142D01*
X178252381Y-47831904D01*
X178252381Y-47736666D01*
X177347619Y-47450951D02*
X177300000Y-47403332D01*
X177252381Y-47308094D01*
X177252381Y-47069998D01*
X177300000Y-46974760D01*
X177347619Y-46927141D01*
X177442857Y-46879522D01*
X177538095Y-46879522D01*
X177680952Y-46927141D01*
X178252381Y-47498570D01*
X178252381Y-46879522D01*
X107132381Y-71286666D02*
X106656190Y-71620000D01*
X107132381Y-71858095D02*
X106132381Y-71858095D01*
X106132381Y-71477142D01*
X106180000Y-71381904D01*
X106227619Y-71334285D01*
X106322857Y-71286666D01*
X106465714Y-71286666D01*
X106560952Y-71334285D01*
X106608571Y-71381904D01*
X106656190Y-71477142D01*
X106656190Y-71858095D01*
X107132381Y-70334285D02*
X107132381Y-70905714D01*
X107132381Y-70620000D02*
X106132381Y-70620000D01*
X106275238Y-70715238D01*
X106370476Y-70810476D01*
X106418095Y-70905714D01*
X74112381Y-71286666D02*
X73636190Y-71620000D01*
X74112381Y-71858095D02*
X73112381Y-71858095D01*
X73112381Y-71477142D01*
X73160000Y-71381904D01*
X73207619Y-71334285D01*
X73302857Y-71286666D01*
X73445714Y-71286666D01*
X73540952Y-71334285D01*
X73588571Y-71381904D01*
X73636190Y-71477142D01*
X73636190Y-71858095D01*
X73207619Y-70905714D02*
X73160000Y-70858095D01*
X73112381Y-70762857D01*
X73112381Y-70524761D01*
X73160000Y-70429523D01*
X73207619Y-70381904D01*
X73302857Y-70334285D01*
X73398095Y-70334285D01*
X73540952Y-70381904D01*
X74112381Y-70953333D01*
X74112381Y-70334285D01*
X71572381Y-71286666D02*
X71096190Y-71620000D01*
X71572381Y-71858095D02*
X70572381Y-71858095D01*
X70572381Y-71477142D01*
X70620000Y-71381904D01*
X70667619Y-71334285D01*
X70762857Y-71286666D01*
X70905714Y-71286666D01*
X71000952Y-71334285D01*
X71048571Y-71381904D01*
X71096190Y-71477142D01*
X71096190Y-71858095D01*
X70572381Y-70953333D02*
X70572381Y-70334285D01*
X70953333Y-70667619D01*
X70953333Y-70524761D01*
X71000952Y-70429523D01*
X71048571Y-70381904D01*
X71143810Y-70334285D01*
X71381905Y-70334285D01*
X71477143Y-70381904D01*
X71524762Y-70429523D01*
X71572381Y-70524761D01*
X71572381Y-70810476D01*
X71524762Y-70905714D01*
X71477143Y-70953333D01*
X109672381Y-71286666D02*
X109196190Y-71620000D01*
X109672381Y-71858095D02*
X108672381Y-71858095D01*
X108672381Y-71477142D01*
X108720000Y-71381904D01*
X108767619Y-71334285D01*
X108862857Y-71286666D01*
X109005714Y-71286666D01*
X109100952Y-71334285D01*
X109148571Y-71381904D01*
X109196190Y-71477142D01*
X109196190Y-71858095D01*
X109005714Y-70429523D02*
X109672381Y-70429523D01*
X108624762Y-70667619D02*
X109339048Y-70905714D01*
X109339048Y-70286666D01*
X69032381Y-71286666D02*
X68556190Y-71620000D01*
X69032381Y-71858095D02*
X68032381Y-71858095D01*
X68032381Y-71477142D01*
X68080000Y-71381904D01*
X68127619Y-71334285D01*
X68222857Y-71286666D01*
X68365714Y-71286666D01*
X68460952Y-71334285D01*
X68508571Y-71381904D01*
X68556190Y-71477142D01*
X68556190Y-71858095D01*
X68032381Y-70381904D02*
X68032381Y-70858095D01*
X68508571Y-70905714D01*
X68460952Y-70858095D01*
X68413333Y-70762857D01*
X68413333Y-70524761D01*
X68460952Y-70429523D01*
X68508571Y-70381904D01*
X68603810Y-70334285D01*
X68841905Y-70334285D01*
X68937143Y-70381904D01*
X68984762Y-70429523D01*
X69032381Y-70524761D01*
X69032381Y-70762857D01*
X68984762Y-70858095D01*
X68937143Y-70905714D01*
X199842381Y-70016666D02*
X199366190Y-70350000D01*
X199842381Y-70588095D02*
X198842381Y-70588095D01*
X198842381Y-70207142D01*
X198890000Y-70111904D01*
X198937619Y-70064285D01*
X199032857Y-70016666D01*
X199175714Y-70016666D01*
X199270952Y-70064285D01*
X199318571Y-70111904D01*
X199366190Y-70207142D01*
X199366190Y-70588095D01*
X198842381Y-69159523D02*
X198842381Y-69350000D01*
X198890000Y-69445238D01*
X198937619Y-69492857D01*
X199080476Y-69588095D01*
X199270952Y-69635714D01*
X199651905Y-69635714D01*
X199747143Y-69588095D01*
X199794762Y-69540476D01*
X199842381Y-69445238D01*
X199842381Y-69254761D01*
X199794762Y-69159523D01*
X199747143Y-69111904D01*
X199651905Y-69064285D01*
X199413810Y-69064285D01*
X199318571Y-69111904D01*
X199270952Y-69159523D01*
X199223333Y-69254761D01*
X199223333Y-69445238D01*
X199270952Y-69540476D01*
X199318571Y-69588095D01*
X199413810Y-69635714D01*
X197302381Y-70016666D02*
X196826190Y-70350000D01*
X197302381Y-70588095D02*
X196302381Y-70588095D01*
X196302381Y-70207142D01*
X196350000Y-70111904D01*
X196397619Y-70064285D01*
X196492857Y-70016666D01*
X196635714Y-70016666D01*
X196730952Y-70064285D01*
X196778571Y-70111904D01*
X196826190Y-70207142D01*
X196826190Y-70588095D01*
X196302381Y-69683333D02*
X196302381Y-69016666D01*
X197302381Y-69445238D01*
X194762381Y-70016666D02*
X194286190Y-70350000D01*
X194762381Y-70588095D02*
X193762381Y-70588095D01*
X193762381Y-70207142D01*
X193810000Y-70111904D01*
X193857619Y-70064285D01*
X193952857Y-70016666D01*
X194095714Y-70016666D01*
X194190952Y-70064285D01*
X194238571Y-70111904D01*
X194286190Y-70207142D01*
X194286190Y-70588095D01*
X194190952Y-69445238D02*
X194143333Y-69540476D01*
X194095714Y-69588095D01*
X194000476Y-69635714D01*
X193952857Y-69635714D01*
X193857619Y-69588095D01*
X193810000Y-69540476D01*
X193762381Y-69445238D01*
X193762381Y-69254761D01*
X193810000Y-69159523D01*
X193857619Y-69111904D01*
X193952857Y-69064285D01*
X194000476Y-69064285D01*
X194095714Y-69111904D01*
X194143333Y-69159523D01*
X194190952Y-69254761D01*
X194190952Y-69445238D01*
X194238571Y-69540476D01*
X194286190Y-69588095D01*
X194381429Y-69635714D01*
X194571905Y-69635714D01*
X194667143Y-69588095D01*
X194714762Y-69540476D01*
X194762381Y-69445238D01*
X194762381Y-69254761D01*
X194714762Y-69159523D01*
X194667143Y-69111904D01*
X194571905Y-69064285D01*
X194381429Y-69064285D01*
X194286190Y-69111904D01*
X194238571Y-69159523D01*
X194190952Y-69254761D01*
X192222381Y-70016666D02*
X191746190Y-70350000D01*
X192222381Y-70588095D02*
X191222381Y-70588095D01*
X191222381Y-70207142D01*
X191270000Y-70111904D01*
X191317619Y-70064285D01*
X191412857Y-70016666D01*
X191555714Y-70016666D01*
X191650952Y-70064285D01*
X191698571Y-70111904D01*
X191746190Y-70207142D01*
X191746190Y-70588095D01*
X192222381Y-69540476D02*
X192222381Y-69350000D01*
X192174762Y-69254761D01*
X192127143Y-69207142D01*
X191984286Y-69111904D01*
X191793810Y-69064285D01*
X191412857Y-69064285D01*
X191317619Y-69111904D01*
X191270000Y-69159523D01*
X191222381Y-69254761D01*
X191222381Y-69445238D01*
X191270000Y-69540476D01*
X191317619Y-69588095D01*
X191412857Y-69635714D01*
X191650952Y-69635714D01*
X191746190Y-69588095D01*
X191793810Y-69540476D01*
X191841429Y-69445238D01*
X191841429Y-69254761D01*
X191793810Y-69159523D01*
X191746190Y-69111904D01*
X191650952Y-69064285D01*
X189682381Y-70492857D02*
X189206190Y-70826191D01*
X189682381Y-71064286D02*
X188682381Y-71064286D01*
X188682381Y-70683333D01*
X188730000Y-70588095D01*
X188777619Y-70540476D01*
X188872857Y-70492857D01*
X189015714Y-70492857D01*
X189110952Y-70540476D01*
X189158571Y-70588095D01*
X189206190Y-70683333D01*
X189206190Y-71064286D01*
X189682381Y-69540476D02*
X189682381Y-70111905D01*
X189682381Y-69826191D02*
X188682381Y-69826191D01*
X188825238Y-69921429D01*
X188920476Y-70016667D01*
X188968095Y-70111905D01*
X188682381Y-68921429D02*
X188682381Y-68826190D01*
X188730000Y-68730952D01*
X188777619Y-68683333D01*
X188872857Y-68635714D01*
X189063333Y-68588095D01*
X189301429Y-68588095D01*
X189491905Y-68635714D01*
X189587143Y-68683333D01*
X189634762Y-68730952D01*
X189682381Y-68826190D01*
X189682381Y-68921429D01*
X189634762Y-69016667D01*
X189587143Y-69064286D01*
X189491905Y-69111905D01*
X189301429Y-69159524D01*
X189063333Y-69159524D01*
X188872857Y-69111905D01*
X188777619Y-69064286D01*
X188730000Y-69016667D01*
X188682381Y-68921429D01*
X187142381Y-70492857D02*
X186666190Y-70826191D01*
X187142381Y-71064286D02*
X186142381Y-71064286D01*
X186142381Y-70683333D01*
X186190000Y-70588095D01*
X186237619Y-70540476D01*
X186332857Y-70492857D01*
X186475714Y-70492857D01*
X186570952Y-70540476D01*
X186618571Y-70588095D01*
X186666190Y-70683333D01*
X186666190Y-71064286D01*
X187142381Y-69540476D02*
X187142381Y-70111905D01*
X187142381Y-69826191D02*
X186142381Y-69826191D01*
X186285238Y-69921429D01*
X186380476Y-70016667D01*
X186428095Y-70111905D01*
X187142381Y-68588095D02*
X187142381Y-69159524D01*
X187142381Y-68873810D02*
X186142381Y-68873810D01*
X186285238Y-68969048D01*
X186380476Y-69064286D01*
X186428095Y-69159524D01*
X184602381Y-70492857D02*
X184126190Y-70826191D01*
X184602381Y-71064286D02*
X183602381Y-71064286D01*
X183602381Y-70683333D01*
X183650000Y-70588095D01*
X183697619Y-70540476D01*
X183792857Y-70492857D01*
X183935714Y-70492857D01*
X184030952Y-70540476D01*
X184078571Y-70588095D01*
X184126190Y-70683333D01*
X184126190Y-71064286D01*
X184602381Y-69540476D02*
X184602381Y-70111905D01*
X184602381Y-69826191D02*
X183602381Y-69826191D01*
X183745238Y-69921429D01*
X183840476Y-70016667D01*
X183888095Y-70111905D01*
X183697619Y-69159524D02*
X183650000Y-69111905D01*
X183602381Y-69016667D01*
X183602381Y-68778571D01*
X183650000Y-68683333D01*
X183697619Y-68635714D01*
X183792857Y-68588095D01*
X183888095Y-68588095D01*
X184030952Y-68635714D01*
X184602381Y-69207143D01*
X184602381Y-68588095D01*
X182062381Y-70492857D02*
X181586190Y-70826191D01*
X182062381Y-71064286D02*
X181062381Y-71064286D01*
X181062381Y-70683333D01*
X181110000Y-70588095D01*
X181157619Y-70540476D01*
X181252857Y-70492857D01*
X181395714Y-70492857D01*
X181490952Y-70540476D01*
X181538571Y-70588095D01*
X181586190Y-70683333D01*
X181586190Y-71064286D01*
X182062381Y-69540476D02*
X182062381Y-70111905D01*
X182062381Y-69826191D02*
X181062381Y-69826191D01*
X181205238Y-69921429D01*
X181300476Y-70016667D01*
X181348095Y-70111905D01*
X181062381Y-69207143D02*
X181062381Y-68588095D01*
X181443333Y-68921429D01*
X181443333Y-68778571D01*
X181490952Y-68683333D01*
X181538571Y-68635714D01*
X181633810Y-68588095D01*
X181871905Y-68588095D01*
X181967143Y-68635714D01*
X182014762Y-68683333D01*
X182062381Y-68778571D01*
X182062381Y-69064286D01*
X182014762Y-69159524D01*
X181967143Y-69207143D01*
X106037143Y-77922381D02*
X105703809Y-77446190D01*
X105465714Y-77922381D02*
X105465714Y-76922381D01*
X105846667Y-76922381D01*
X105941905Y-76970000D01*
X105989524Y-77017619D01*
X106037143Y-77112857D01*
X106037143Y-77255714D01*
X105989524Y-77350952D01*
X105941905Y-77398571D01*
X105846667Y-77446190D01*
X105465714Y-77446190D01*
X106989524Y-77922381D02*
X106418095Y-77922381D01*
X106703809Y-77922381D02*
X106703809Y-76922381D01*
X106608571Y-77065238D01*
X106513333Y-77160476D01*
X106418095Y-77208095D01*
X107846667Y-77255714D02*
X107846667Y-77922381D01*
X107608571Y-76874762D02*
X107370476Y-77589048D01*
X107989524Y-77589048D01*
X94607143Y-77922381D02*
X94273809Y-77446190D01*
X94035714Y-77922381D02*
X94035714Y-76922381D01*
X94416667Y-76922381D01*
X94511905Y-76970000D01*
X94559524Y-77017619D01*
X94607143Y-77112857D01*
X94607143Y-77255714D01*
X94559524Y-77350952D01*
X94511905Y-77398571D01*
X94416667Y-77446190D01*
X94035714Y-77446190D01*
X95559524Y-77922381D02*
X94988095Y-77922381D01*
X95273809Y-77922381D02*
X95273809Y-76922381D01*
X95178571Y-77065238D01*
X95083333Y-77160476D01*
X94988095Y-77208095D01*
X96464286Y-76922381D02*
X95988095Y-76922381D01*
X95940476Y-77398571D01*
X95988095Y-77350952D01*
X96083333Y-77303333D01*
X96321429Y-77303333D01*
X96416667Y-77350952D01*
X96464286Y-77398571D01*
X96511905Y-77493810D01*
X96511905Y-77731905D01*
X96464286Y-77827143D01*
X96416667Y-77874762D01*
X96321429Y-77922381D01*
X96083333Y-77922381D01*
X95988095Y-77874762D01*
X95940476Y-77827143D01*
X188587143Y-132532381D02*
X188253809Y-132056190D01*
X188015714Y-132532381D02*
X188015714Y-131532381D01*
X188396667Y-131532381D01*
X188491905Y-131580000D01*
X188539524Y-131627619D01*
X188587143Y-131722857D01*
X188587143Y-131865714D01*
X188539524Y-131960952D01*
X188491905Y-132008571D01*
X188396667Y-132056190D01*
X188015714Y-132056190D01*
X189539524Y-132532381D02*
X188968095Y-132532381D01*
X189253809Y-132532381D02*
X189253809Y-131532381D01*
X189158571Y-131675238D01*
X189063333Y-131770476D01*
X188968095Y-131818095D01*
X190396667Y-131532381D02*
X190206190Y-131532381D01*
X190110952Y-131580000D01*
X190063333Y-131627619D01*
X189968095Y-131770476D01*
X189920476Y-131960952D01*
X189920476Y-132341905D01*
X189968095Y-132437143D01*
X190015714Y-132484762D01*
X190110952Y-132532381D01*
X190301429Y-132532381D01*
X190396667Y-132484762D01*
X190444286Y-132437143D01*
X190491905Y-132341905D01*
X190491905Y-132103810D01*
X190444286Y-132008571D01*
X190396667Y-131960952D01*
X190301429Y-131913333D01*
X190110952Y-131913333D01*
X190015714Y-131960952D01*
X189968095Y-132008571D01*
X189920476Y-132103810D01*
X121277143Y-131262381D02*
X120943809Y-130786190D01*
X120705714Y-131262381D02*
X120705714Y-130262381D01*
X121086667Y-130262381D01*
X121181905Y-130310000D01*
X121229524Y-130357619D01*
X121277143Y-130452857D01*
X121277143Y-130595714D01*
X121229524Y-130690952D01*
X121181905Y-130738571D01*
X121086667Y-130786190D01*
X120705714Y-130786190D01*
X122229524Y-131262381D02*
X121658095Y-131262381D01*
X121943809Y-131262381D02*
X121943809Y-130262381D01*
X121848571Y-130405238D01*
X121753333Y-130500476D01*
X121658095Y-130548095D01*
X122562857Y-130262381D02*
X123229524Y-130262381D01*
X122800952Y-131262381D01*
X137612381Y-67952857D02*
X137136190Y-68286191D01*
X137612381Y-68524286D02*
X136612381Y-68524286D01*
X136612381Y-68143333D01*
X136660000Y-68048095D01*
X136707619Y-68000476D01*
X136802857Y-67952857D01*
X136945714Y-67952857D01*
X137040952Y-68000476D01*
X137088571Y-68048095D01*
X137136190Y-68143333D01*
X137136190Y-68524286D01*
X137612381Y-67000476D02*
X137612381Y-67571905D01*
X137612381Y-67286191D02*
X136612381Y-67286191D01*
X136755238Y-67381429D01*
X136850476Y-67476667D01*
X136898095Y-67571905D01*
X137040952Y-66429048D02*
X136993333Y-66524286D01*
X136945714Y-66571905D01*
X136850476Y-66619524D01*
X136802857Y-66619524D01*
X136707619Y-66571905D01*
X136660000Y-66524286D01*
X136612381Y-66429048D01*
X136612381Y-66238571D01*
X136660000Y-66143333D01*
X136707619Y-66095714D01*
X136802857Y-66048095D01*
X136850476Y-66048095D01*
X136945714Y-66095714D01*
X136993333Y-66143333D01*
X137040952Y-66238571D01*
X137040952Y-66429048D01*
X137088571Y-66524286D01*
X137136190Y-66571905D01*
X137231429Y-66619524D01*
X137421905Y-66619524D01*
X137517143Y-66571905D01*
X137564762Y-66524286D01*
X137612381Y-66429048D01*
X137612381Y-66238571D01*
X137564762Y-66143333D01*
X137517143Y-66095714D01*
X137421905Y-66048095D01*
X137231429Y-66048095D01*
X137136190Y-66095714D01*
X137088571Y-66143333D01*
X137040952Y-66238571D01*
X141422381Y-67952857D02*
X140946190Y-68286191D01*
X141422381Y-68524286D02*
X140422381Y-68524286D01*
X140422381Y-68143333D01*
X140470000Y-68048095D01*
X140517619Y-68000476D01*
X140612857Y-67952857D01*
X140755714Y-67952857D01*
X140850952Y-68000476D01*
X140898571Y-68048095D01*
X140946190Y-68143333D01*
X140946190Y-68524286D01*
X141422381Y-67000476D02*
X141422381Y-67571905D01*
X141422381Y-67286191D02*
X140422381Y-67286191D01*
X140565238Y-67381429D01*
X140660476Y-67476667D01*
X140708095Y-67571905D01*
X141422381Y-66524286D02*
X141422381Y-66333810D01*
X141374762Y-66238571D01*
X141327143Y-66190952D01*
X141184286Y-66095714D01*
X140993810Y-66048095D01*
X140612857Y-66048095D01*
X140517619Y-66095714D01*
X140470000Y-66143333D01*
X140422381Y-66238571D01*
X140422381Y-66429048D01*
X140470000Y-66524286D01*
X140517619Y-66571905D01*
X140612857Y-66619524D01*
X140850952Y-66619524D01*
X140946190Y-66571905D01*
X140993810Y-66524286D01*
X141041429Y-66429048D01*
X141041429Y-66238571D01*
X140993810Y-66143333D01*
X140946190Y-66095714D01*
X140850952Y-66048095D01*
X119832381Y-88272857D02*
X119356190Y-88606191D01*
X119832381Y-88844286D02*
X118832381Y-88844286D01*
X118832381Y-88463333D01*
X118880000Y-88368095D01*
X118927619Y-88320476D01*
X119022857Y-88272857D01*
X119165714Y-88272857D01*
X119260952Y-88320476D01*
X119308571Y-88368095D01*
X119356190Y-88463333D01*
X119356190Y-88844286D01*
X118927619Y-87891905D02*
X118880000Y-87844286D01*
X118832381Y-87749048D01*
X118832381Y-87510952D01*
X118880000Y-87415714D01*
X118927619Y-87368095D01*
X119022857Y-87320476D01*
X119118095Y-87320476D01*
X119260952Y-87368095D01*
X119832381Y-87939524D01*
X119832381Y-87320476D01*
X118832381Y-86701429D02*
X118832381Y-86606190D01*
X118880000Y-86510952D01*
X118927619Y-86463333D01*
X119022857Y-86415714D01*
X119213333Y-86368095D01*
X119451429Y-86368095D01*
X119641905Y-86415714D01*
X119737143Y-86463333D01*
X119784762Y-86510952D01*
X119832381Y-86606190D01*
X119832381Y-86701429D01*
X119784762Y-86796667D01*
X119737143Y-86844286D01*
X119641905Y-86891905D01*
X119451429Y-86939524D01*
X119213333Y-86939524D01*
X119022857Y-86891905D01*
X118927619Y-86844286D01*
X118880000Y-86796667D01*
X118832381Y-86701429D01*
X117292381Y-88272857D02*
X116816190Y-88606191D01*
X117292381Y-88844286D02*
X116292381Y-88844286D01*
X116292381Y-88463333D01*
X116340000Y-88368095D01*
X116387619Y-88320476D01*
X116482857Y-88272857D01*
X116625714Y-88272857D01*
X116720952Y-88320476D01*
X116768571Y-88368095D01*
X116816190Y-88463333D01*
X116816190Y-88844286D01*
X116387619Y-87891905D02*
X116340000Y-87844286D01*
X116292381Y-87749048D01*
X116292381Y-87510952D01*
X116340000Y-87415714D01*
X116387619Y-87368095D01*
X116482857Y-87320476D01*
X116578095Y-87320476D01*
X116720952Y-87368095D01*
X117292381Y-87939524D01*
X117292381Y-87320476D01*
X117292381Y-86368095D02*
X117292381Y-86939524D01*
X117292381Y-86653810D02*
X116292381Y-86653810D01*
X116435238Y-86749048D01*
X116530476Y-86844286D01*
X116578095Y-86939524D01*
X158083334Y-67762381D02*
X157750000Y-67286190D01*
X157511905Y-67762381D02*
X157511905Y-66762381D01*
X157892858Y-66762381D01*
X157988096Y-66810000D01*
X158035715Y-66857619D01*
X158083334Y-66952857D01*
X158083334Y-67095714D01*
X158035715Y-67190952D01*
X157988096Y-67238571D01*
X157892858Y-67286190D01*
X157511905Y-67286190D01*
X159083334Y-67762381D02*
X158750000Y-67286190D01*
X158511905Y-67762381D02*
X158511905Y-66762381D01*
X158892858Y-66762381D01*
X158988096Y-66810000D01*
X159035715Y-66857619D01*
X159083334Y-66952857D01*
X159083334Y-67095714D01*
X159035715Y-67190952D01*
X158988096Y-67238571D01*
X158892858Y-67286190D01*
X158511905Y-67286190D01*
X160035715Y-67762381D02*
X159464286Y-67762381D01*
X159750000Y-67762381D02*
X159750000Y-66762381D01*
X159654762Y-66905238D01*
X159559524Y-67000476D01*
X159464286Y-67048095D01*
X77685664Y-55573562D02*
X77828521Y-55621181D01*
X78066617Y-55621181D01*
X78161855Y-55573562D01*
X78209474Y-55525943D01*
X78257093Y-55430705D01*
X78257093Y-55335467D01*
X78209474Y-55240229D01*
X78161855Y-55192610D01*
X78066617Y-55144990D01*
X77876140Y-55097371D01*
X77780902Y-55049752D01*
X77733283Y-55002133D01*
X77685664Y-54906895D01*
X77685664Y-54811657D01*
X77733283Y-54716419D01*
X77780902Y-54668800D01*
X77876140Y-54621181D01*
X78114236Y-54621181D01*
X78257093Y-54668800D01*
X78685664Y-55621181D02*
X78685664Y-54621181D01*
X78923759Y-54621181D01*
X79066617Y-54668800D01*
X79161855Y-54764038D01*
X79209474Y-54859276D01*
X79257093Y-55049752D01*
X79257093Y-55192610D01*
X79209474Y-55383086D01*
X79161855Y-55478324D01*
X79066617Y-55573562D01*
X78923759Y-55621181D01*
X78685664Y-55621181D01*
X80257093Y-55525943D02*
X80209474Y-55573562D01*
X80066617Y-55621181D01*
X79971379Y-55621181D01*
X79828521Y-55573562D01*
X79733283Y-55478324D01*
X79685664Y-55383086D01*
X79638045Y-55192610D01*
X79638045Y-55049752D01*
X79685664Y-54859276D01*
X79733283Y-54764038D01*
X79828521Y-54668800D01*
X79971379Y-54621181D01*
X80066617Y-54621181D01*
X80209474Y-54668800D01*
X80257093Y-54716419D01*
X80638045Y-55335467D02*
X81114236Y-55335467D01*
X80542807Y-55621181D02*
X80876140Y-54621181D01*
X81209474Y-55621181D01*
X82114236Y-55621181D02*
X81780902Y-55144990D01*
X81542807Y-55621181D02*
X81542807Y-54621181D01*
X81923760Y-54621181D01*
X82018998Y-54668800D01*
X82066617Y-54716419D01*
X82114236Y-54811657D01*
X82114236Y-54954514D01*
X82066617Y-55049752D01*
X82018998Y-55097371D01*
X81923760Y-55144990D01*
X81542807Y-55144990D01*
X82542807Y-55621181D02*
X82542807Y-54621181D01*
X82780902Y-54621181D01*
X82923760Y-54668800D01*
X83018998Y-54764038D01*
X83066617Y-54859276D01*
X83114236Y-55049752D01*
X83114236Y-55192610D01*
X83066617Y-55383086D01*
X83018998Y-55478324D01*
X82923760Y-55573562D01*
X82780902Y-55621181D01*
X82542807Y-55621181D01*
X84066617Y-55621181D02*
X83495188Y-55621181D01*
X83780902Y-55621181D02*
X83780902Y-54621181D01*
X83685664Y-54764038D01*
X83590426Y-54859276D01*
X83495188Y-54906895D01*
X119962381Y-90931905D02*
X120771905Y-90931905D01*
X120867143Y-90884286D01*
X120914762Y-90836667D01*
X120962381Y-90741429D01*
X120962381Y-90550952D01*
X120914762Y-90455714D01*
X120867143Y-90408095D01*
X120771905Y-90360476D01*
X119962381Y-90360476D01*
X119962381Y-89979524D02*
X119962381Y-89360476D01*
X120343333Y-89693810D01*
X120343333Y-89550952D01*
X120390952Y-89455714D01*
X120438571Y-89408095D01*
X120533810Y-89360476D01*
X120771905Y-89360476D01*
X120867143Y-89408095D01*
X120914762Y-89455714D01*
X120962381Y-89550952D01*
X120962381Y-89836667D01*
X120914762Y-89931905D01*
X120867143Y-89979524D01*
X127582381Y-103631905D02*
X128391905Y-103631905D01*
X128487143Y-103584286D01*
X128534762Y-103536667D01*
X128582381Y-103441429D01*
X128582381Y-103250952D01*
X128534762Y-103155714D01*
X128487143Y-103108095D01*
X128391905Y-103060476D01*
X127582381Y-103060476D01*
X127915714Y-102155714D02*
X128582381Y-102155714D01*
X127534762Y-102393810D02*
X128249048Y-102631905D01*
X128249048Y-102012857D01*
X74382381Y-61721905D02*
X75191905Y-61721905D01*
X75287143Y-61674286D01*
X75334762Y-61626667D01*
X75382381Y-61531429D01*
X75382381Y-61340952D01*
X75334762Y-61245714D01*
X75287143Y-61198095D01*
X75191905Y-61150476D01*
X74382381Y-61150476D01*
X74382381Y-60198095D02*
X74382381Y-60674286D01*
X74858571Y-60721905D01*
X74810952Y-60674286D01*
X74763333Y-60579048D01*
X74763333Y-60340952D01*
X74810952Y-60245714D01*
X74858571Y-60198095D01*
X74953810Y-60150476D01*
X75191905Y-60150476D01*
X75287143Y-60198095D01*
X75334762Y-60245714D01*
X75382381Y-60340952D01*
X75382381Y-60579048D01*
X75334762Y-60674286D01*
X75287143Y-60721905D01*
X103592381Y-116331905D02*
X104401905Y-116331905D01*
X104497143Y-116284286D01*
X104544762Y-116236667D01*
X104592381Y-116141429D01*
X104592381Y-115950952D01*
X104544762Y-115855714D01*
X104497143Y-115808095D01*
X104401905Y-115760476D01*
X103592381Y-115760476D01*
X103592381Y-115379524D02*
X103592381Y-114712857D01*
X104592381Y-115141429D01*
X182332381Y-129031905D02*
X183141905Y-129031905D01*
X183237143Y-128984286D01*
X183284762Y-128936667D01*
X183332381Y-128841429D01*
X183332381Y-128650952D01*
X183284762Y-128555714D01*
X183237143Y-128508095D01*
X183141905Y-128460476D01*
X182332381Y-128460476D01*
X183332381Y-127936667D02*
X183332381Y-127746191D01*
X183284762Y-127650952D01*
X183237143Y-127603333D01*
X183094286Y-127508095D01*
X182903810Y-127460476D01*
X182522857Y-127460476D01*
X182427619Y-127508095D01*
X182380000Y-127555714D01*
X182332381Y-127650952D01*
X182332381Y-127841429D01*
X182380000Y-127936667D01*
X182427619Y-127984286D01*
X182522857Y-128031905D01*
X182760952Y-128031905D01*
X182856190Y-127984286D01*
X182903810Y-127936667D01*
X182951429Y-127841429D01*
X182951429Y-127650952D01*
X182903810Y-127555714D01*
X182856190Y-127508095D01*
X182760952Y-127460476D01*
X205192381Y-101568095D02*
X206001905Y-101568095D01*
X206097143Y-101520476D01*
X206144762Y-101472857D01*
X206192381Y-101377619D01*
X206192381Y-101187142D01*
X206144762Y-101091904D01*
X206097143Y-101044285D01*
X206001905Y-100996666D01*
X205192381Y-100996666D01*
X206192381Y-99996666D02*
X206192381Y-100568095D01*
X206192381Y-100282381D02*
X205192381Y-100282381D01*
X205335238Y-100377619D01*
X205430476Y-100472857D01*
X205478095Y-100568095D01*
X205192381Y-99377619D02*
X205192381Y-99282380D01*
X205240000Y-99187142D01*
X205287619Y-99139523D01*
X205382857Y-99091904D01*
X205573333Y-99044285D01*
X205811429Y-99044285D01*
X206001905Y-99091904D01*
X206097143Y-99139523D01*
X206144762Y-99187142D01*
X206192381Y-99282380D01*
X206192381Y-99377619D01*
X206144762Y-99472857D01*
X206097143Y-99520476D01*
X206001905Y-99568095D01*
X205811429Y-99615714D01*
X205573333Y-99615714D01*
X205382857Y-99568095D01*
X205287619Y-99520476D01*
X205240000Y-99472857D01*
X205192381Y-99377619D01*
X113490476Y-121372381D02*
X114157143Y-122372381D01*
X114157143Y-121372381D02*
X113490476Y-122372381D01*
X115061905Y-122372381D02*
X114490476Y-122372381D01*
X114776190Y-122372381D02*
X114776190Y-121372381D01*
X114680952Y-121515238D01*
X114585714Y-121610476D01*
X114490476Y-121658095D01*
X168100476Y-122642381D02*
X168767143Y-123642381D01*
X168767143Y-122642381D02*
X168100476Y-123642381D01*
X169100476Y-122737619D02*
X169148095Y-122690000D01*
X169243333Y-122642381D01*
X169481429Y-122642381D01*
X169576667Y-122690000D01*
X169624286Y-122737619D01*
X169671905Y-122832857D01*
X169671905Y-122928095D01*
X169624286Y-123070952D01*
X169052857Y-123642381D01*
X169671905Y-123642381D01*
X88352381Y-90931905D02*
X89161905Y-90931905D01*
X89257143Y-90884286D01*
X89304762Y-90836667D01*
X89352381Y-90741429D01*
X89352381Y-90550952D01*
X89304762Y-90455714D01*
X89257143Y-90408095D01*
X89161905Y-90360476D01*
X88352381Y-90360476D01*
X88352381Y-89455714D02*
X88352381Y-89646191D01*
X88400000Y-89741429D01*
X88447619Y-89789048D01*
X88590476Y-89884286D01*
X88780952Y-89931905D01*
X89161905Y-89931905D01*
X89257143Y-89884286D01*
X89304762Y-89836667D01*
X89352381Y-89741429D01*
X89352381Y-89550952D01*
X89304762Y-89455714D01*
X89257143Y-89408095D01*
X89161905Y-89360476D01*
X88923810Y-89360476D01*
X88828571Y-89408095D01*
X88780952Y-89455714D01*
X88733333Y-89550952D01*
X88733333Y-89741429D01*
X88780952Y-89836667D01*
X88828571Y-89884286D01*
X88923810Y-89931905D01*
X121102381Y-59158095D02*
X120102381Y-59158095D01*
X120102381Y-58777142D01*
X120150000Y-58681904D01*
X120197619Y-58634285D01*
X120292857Y-58586666D01*
X120435714Y-58586666D01*
X120530952Y-58634285D01*
X120578571Y-58681904D01*
X120626190Y-58777142D01*
X120626190Y-59158095D01*
X121102381Y-57634285D02*
X121102381Y-58205714D01*
X121102381Y-57920000D02*
X120102381Y-57920000D01*
X120245238Y-58015238D01*
X120340476Y-58110476D01*
X120388095Y-58205714D01*
X87463334Y-80367143D02*
X87415715Y-80414762D01*
X87272858Y-80462381D01*
X87177620Y-80462381D01*
X87034762Y-80414762D01*
X86939524Y-80319524D01*
X86891905Y-80224286D01*
X86844286Y-80033810D01*
X86844286Y-79890952D01*
X86891905Y-79700476D01*
X86939524Y-79605238D01*
X87034762Y-79510000D01*
X87177620Y-79462381D01*
X87272858Y-79462381D01*
X87415715Y-79510000D01*
X87463334Y-79557619D01*
X88034762Y-79890952D02*
X87939524Y-79843333D01*
X87891905Y-79795714D01*
X87844286Y-79700476D01*
X87844286Y-79652857D01*
X87891905Y-79557619D01*
X87939524Y-79510000D01*
X88034762Y-79462381D01*
X88225239Y-79462381D01*
X88320477Y-79510000D01*
X88368096Y-79557619D01*
X88415715Y-79652857D01*
X88415715Y-79700476D01*
X88368096Y-79795714D01*
X88320477Y-79843333D01*
X88225239Y-79890952D01*
X88034762Y-79890952D01*
X87939524Y-79938571D01*
X87891905Y-79986190D01*
X87844286Y-80081429D01*
X87844286Y-80271905D01*
X87891905Y-80367143D01*
X87939524Y-80414762D01*
X88034762Y-80462381D01*
X88225239Y-80462381D01*
X88320477Y-80414762D01*
X88368096Y-80367143D01*
X88415715Y-80271905D01*
X88415715Y-80081429D01*
X88368096Y-79986190D01*
X88320477Y-79938571D01*
X88225239Y-79890952D01*
X79172381Y-106148095D02*
X78172381Y-106148095D01*
X78172381Y-105767142D01*
X78220000Y-105671904D01*
X78267619Y-105624285D01*
X78362857Y-105576666D01*
X78505714Y-105576666D01*
X78600952Y-105624285D01*
X78648571Y-105671904D01*
X78696190Y-105767142D01*
X78696190Y-106148095D01*
X78172381Y-104719523D02*
X78172381Y-104910000D01*
X78220000Y-105005238D01*
X78267619Y-105052857D01*
X78410476Y-105148095D01*
X78600952Y-105195714D01*
X78981905Y-105195714D01*
X79077143Y-105148095D01*
X79124762Y-105100476D01*
X79172381Y-105005238D01*
X79172381Y-104814761D01*
X79124762Y-104719523D01*
X79077143Y-104671904D01*
X78981905Y-104624285D01*
X78743810Y-104624285D01*
X78648571Y-104671904D01*
X78600952Y-104719523D01*
X78553333Y-104814761D01*
X78553333Y-105005238D01*
X78600952Y-105100476D01*
X78648571Y-105148095D01*
X78743810Y-105195714D01*
M02*
