%TF.FileFunction,Legend,Top*%
%FSLAX46Y46*%
G04 Gerber Fmt 4.6, Leading zero omitted, Abs format (unit mm)*
G04 Created by KiCad (PCBNEW (2014-12-04 BZR 5312)-product) date Wed 04 Feb 2015 12:38:23 PM CET*
%MOMM*%
G01*
G04 APERTURE LIST*
%ADD10C,0.100000*%
%ADD11C,0.150000*%
%ADD12C,0.127000*%
%ADD13C,0.381000*%
%ADD14C,0.203200*%
%ADD15C,0.304800*%
G04 APERTURE END LIST*
D10*
D11*
X216789000Y-65659000D02*
X216281000Y-65659000D01*
X216789000Y-65151000D02*
X216281000Y-65151000D01*
X216789000Y-82931000D02*
X216281000Y-82931000D01*
X216789000Y-83439000D02*
X216281000Y-83439000D01*
X216789000Y-85471000D02*
X216281000Y-85471000D01*
X216789000Y-85979000D02*
X216281000Y-85979000D01*
X216789000Y-80899000D02*
X216281000Y-80899000D01*
X216789000Y-80391000D02*
X216281000Y-80391000D01*
X216789000Y-78359000D02*
X216281000Y-78359000D01*
X216789000Y-77851000D02*
X216281000Y-77851000D01*
X216789000Y-67691000D02*
X216281000Y-67691000D01*
X216789000Y-68199000D02*
X216281000Y-68199000D01*
X216789000Y-70231000D02*
X216281000Y-70231000D01*
X216789000Y-70739000D02*
X216281000Y-70739000D01*
X216789000Y-75819000D02*
X216281000Y-75819000D01*
X216789000Y-75311000D02*
X216281000Y-75311000D01*
X216789000Y-73279000D02*
X216281000Y-73279000D01*
X216789000Y-72771000D02*
X216281000Y-72771000D01*
X216789000Y-113411000D02*
X216281000Y-113411000D01*
X216789000Y-113919000D02*
X216281000Y-113919000D01*
X216789000Y-115951000D02*
X216281000Y-115951000D01*
X216789000Y-116459000D02*
X216281000Y-116459000D01*
X216789000Y-111379000D02*
X216281000Y-111379000D01*
X216789000Y-110871000D02*
X216281000Y-110871000D01*
X216789000Y-108839000D02*
X216281000Y-108839000D01*
X216789000Y-108331000D02*
X216281000Y-108331000D01*
X216789000Y-118491000D02*
X216281000Y-118491000D01*
X216789000Y-118999000D02*
X216281000Y-118999000D01*
X216789000Y-121031000D02*
X216281000Y-121031000D01*
X216789000Y-121539000D02*
X216281000Y-121539000D01*
X216789000Y-126619000D02*
X216281000Y-126619000D01*
X216789000Y-126111000D02*
X216281000Y-126111000D01*
X216789000Y-124079000D02*
X216281000Y-124079000D01*
X216789000Y-123571000D02*
X216281000Y-123571000D01*
X216789000Y-103251000D02*
X216281000Y-103251000D01*
X216789000Y-103759000D02*
X216281000Y-103759000D01*
X216789000Y-105791000D02*
X216281000Y-105791000D01*
X216789000Y-106299000D02*
X216281000Y-106299000D01*
X216789000Y-101219000D02*
X216281000Y-101219000D01*
X216789000Y-100711000D02*
X216281000Y-100711000D01*
X216789000Y-98679000D02*
X216281000Y-98679000D01*
X216789000Y-98171000D02*
X216281000Y-98171000D01*
X216789000Y-88011000D02*
X216281000Y-88011000D01*
X216789000Y-88519000D02*
X216281000Y-88519000D01*
X216789000Y-90551000D02*
X216281000Y-90551000D01*
X216789000Y-91059000D02*
X216281000Y-91059000D01*
X216789000Y-96139000D02*
X216281000Y-96139000D01*
X216789000Y-95631000D02*
X216281000Y-95631000D01*
X216789000Y-93599000D02*
X216281000Y-93599000D01*
X216789000Y-93091000D02*
X216281000Y-93091000D01*
X219329000Y-110871000D02*
X218821000Y-110871000D01*
X219329000Y-111379000D02*
X218821000Y-111379000D01*
X219329000Y-113411000D02*
X218821000Y-113411000D01*
X219329000Y-113919000D02*
X218821000Y-113919000D01*
X219329000Y-108839000D02*
X218821000Y-108839000D01*
X219329000Y-108331000D02*
X218821000Y-108331000D01*
X219329000Y-106299000D02*
X218821000Y-106299000D01*
X219329000Y-105791000D02*
X218821000Y-105791000D01*
X219329000Y-115951000D02*
X218821000Y-115951000D01*
X219329000Y-116459000D02*
X218821000Y-116459000D01*
X219329000Y-118491000D02*
X218821000Y-118491000D01*
X219329000Y-118999000D02*
X218821000Y-118999000D01*
X219329000Y-124079000D02*
X218821000Y-124079000D01*
X219329000Y-123571000D02*
X218821000Y-123571000D01*
X219329000Y-121539000D02*
X218821000Y-121539000D01*
X219329000Y-121031000D02*
X218821000Y-121031000D01*
X219329000Y-126111000D02*
X218821000Y-126111000D01*
X219329000Y-126619000D02*
X218821000Y-126619000D01*
X219329000Y-90551000D02*
X218821000Y-90551000D01*
X219329000Y-91059000D02*
X218821000Y-91059000D01*
X219329000Y-93091000D02*
X218821000Y-93091000D01*
X219329000Y-93599000D02*
X218821000Y-93599000D01*
X219329000Y-88519000D02*
X218821000Y-88519000D01*
X219329000Y-88011000D02*
X218821000Y-88011000D01*
X219329000Y-85979000D02*
X218821000Y-85979000D01*
X219329000Y-85471000D02*
X218821000Y-85471000D01*
X219329000Y-95631000D02*
X218821000Y-95631000D01*
X219329000Y-96139000D02*
X218821000Y-96139000D01*
X219329000Y-98171000D02*
X218821000Y-98171000D01*
X219329000Y-98679000D02*
X218821000Y-98679000D01*
X219329000Y-103759000D02*
X218821000Y-103759000D01*
X219329000Y-103251000D02*
X218821000Y-103251000D01*
X219329000Y-101219000D02*
X218821000Y-101219000D01*
X219329000Y-100711000D02*
X218821000Y-100711000D01*
X219329000Y-80391000D02*
X218821000Y-80391000D01*
X219329000Y-80899000D02*
X218821000Y-80899000D01*
X219329000Y-82931000D02*
X218821000Y-82931000D01*
X219329000Y-83439000D02*
X218821000Y-83439000D01*
X219329000Y-78359000D02*
X218821000Y-78359000D01*
X219329000Y-77851000D02*
X218821000Y-77851000D01*
X219329000Y-75819000D02*
X218821000Y-75819000D01*
X219329000Y-75311000D02*
X218821000Y-75311000D01*
X219329000Y-65151000D02*
X218821000Y-65151000D01*
X219329000Y-65659000D02*
X218821000Y-65659000D01*
X219329000Y-67691000D02*
X218821000Y-67691000D01*
X219329000Y-68199000D02*
X218821000Y-68199000D01*
X219329000Y-73279000D02*
X218821000Y-73279000D01*
X219329000Y-72771000D02*
X218821000Y-72771000D01*
X219329000Y-70739000D02*
X218821000Y-70739000D01*
X219329000Y-70231000D02*
X218821000Y-70231000D01*
X219329000Y-64135000D02*
X221869000Y-66675000D01*
X221869000Y-64135000D02*
X219329000Y-66675000D01*
X221869000Y-65278000D02*
X227838000Y-65278000D01*
X227838000Y-65278000D02*
X227838000Y-65532000D01*
X227838000Y-65532000D02*
X221996000Y-65532000D01*
X221996000Y-65532000D02*
X221996000Y-65405000D01*
X221996000Y-65405000D02*
X227838000Y-65405000D01*
X219329000Y-104775000D02*
X221869000Y-104775000D01*
X219329000Y-104775000D02*
X219329000Y-107315000D01*
X219329000Y-107315000D02*
X221869000Y-107315000D01*
X221869000Y-105791000D02*
X227965000Y-105791000D01*
X227965000Y-105791000D02*
X227965000Y-106299000D01*
X227965000Y-106299000D02*
X221869000Y-106299000D01*
X221869000Y-107315000D02*
X221869000Y-104775000D01*
X221869000Y-109855000D02*
X221869000Y-107315000D01*
X227965000Y-108839000D02*
X221869000Y-108839000D01*
X227965000Y-108331000D02*
X227965000Y-108839000D01*
X221869000Y-108331000D02*
X227965000Y-108331000D01*
X219329000Y-109855000D02*
X221869000Y-109855000D01*
X219329000Y-107315000D02*
X219329000Y-109855000D01*
X219329000Y-107315000D02*
X221869000Y-107315000D01*
X219329000Y-112395000D02*
X221869000Y-112395000D01*
X219329000Y-112395000D02*
X219329000Y-114935000D01*
X219329000Y-114935000D02*
X221869000Y-114935000D01*
X221869000Y-113411000D02*
X227965000Y-113411000D01*
X227965000Y-113411000D02*
X227965000Y-113919000D01*
X227965000Y-113919000D02*
X221869000Y-113919000D01*
X221869000Y-114935000D02*
X221869000Y-112395000D01*
X221869000Y-112395000D02*
X221869000Y-109855000D01*
X227965000Y-111379000D02*
X221869000Y-111379000D01*
X227965000Y-110871000D02*
X227965000Y-111379000D01*
X221869000Y-110871000D02*
X227965000Y-110871000D01*
X219329000Y-112395000D02*
X221869000Y-112395000D01*
X219329000Y-109855000D02*
X219329000Y-112395000D01*
X219329000Y-109855000D02*
X221869000Y-109855000D01*
X219329000Y-120015000D02*
X221869000Y-120015000D01*
X219329000Y-120015000D02*
X219329000Y-122555000D01*
X219329000Y-122555000D02*
X221869000Y-122555000D01*
X221869000Y-121031000D02*
X227965000Y-121031000D01*
X227965000Y-121031000D02*
X227965000Y-121539000D01*
X227965000Y-121539000D02*
X221869000Y-121539000D01*
X221869000Y-122555000D02*
X221869000Y-120015000D01*
X221869000Y-125095000D02*
X221869000Y-122555000D01*
X227965000Y-124079000D02*
X221869000Y-124079000D01*
X227965000Y-123571000D02*
X227965000Y-124079000D01*
X221869000Y-123571000D02*
X227965000Y-123571000D01*
X219329000Y-125095000D02*
X221869000Y-125095000D01*
X219329000Y-122555000D02*
X219329000Y-125095000D01*
X219329000Y-122555000D02*
X221869000Y-122555000D01*
X219329000Y-117475000D02*
X221869000Y-117475000D01*
X219329000Y-117475000D02*
X219329000Y-120015000D01*
X219329000Y-120015000D02*
X221869000Y-120015000D01*
X221869000Y-118491000D02*
X227965000Y-118491000D01*
X227965000Y-118491000D02*
X227965000Y-118999000D01*
X227965000Y-118999000D02*
X221869000Y-118999000D01*
X221869000Y-120015000D02*
X221869000Y-117475000D01*
X221869000Y-117475000D02*
X221869000Y-114935000D01*
X227965000Y-116459000D02*
X221869000Y-116459000D01*
X227965000Y-115951000D02*
X227965000Y-116459000D01*
X221869000Y-115951000D02*
X227965000Y-115951000D01*
X219329000Y-117475000D02*
X221869000Y-117475000D01*
X219329000Y-114935000D02*
X219329000Y-117475000D01*
X219329000Y-114935000D02*
X221869000Y-114935000D01*
X221869000Y-127635000D02*
X221869000Y-125095000D01*
X227965000Y-126619000D02*
X221869000Y-126619000D01*
X227965000Y-126111000D02*
X227965000Y-126619000D01*
X221869000Y-126111000D02*
X227965000Y-126111000D01*
X219329000Y-127635000D02*
X221869000Y-127635000D01*
X219329000Y-125095000D02*
X219329000Y-127635000D01*
X219329000Y-125095000D02*
X221869000Y-125095000D01*
X219329000Y-84455000D02*
X221869000Y-84455000D01*
X219329000Y-84455000D02*
X219329000Y-86995000D01*
X219329000Y-86995000D02*
X221869000Y-86995000D01*
X221869000Y-85471000D02*
X227965000Y-85471000D01*
X227965000Y-85471000D02*
X227965000Y-85979000D01*
X227965000Y-85979000D02*
X221869000Y-85979000D01*
X221869000Y-86995000D02*
X221869000Y-84455000D01*
X221869000Y-89535000D02*
X221869000Y-86995000D01*
X227965000Y-88519000D02*
X221869000Y-88519000D01*
X227965000Y-88011000D02*
X227965000Y-88519000D01*
X221869000Y-88011000D02*
X227965000Y-88011000D01*
X219329000Y-89535000D02*
X221869000Y-89535000D01*
X219329000Y-86995000D02*
X219329000Y-89535000D01*
X219329000Y-86995000D02*
X221869000Y-86995000D01*
X219329000Y-92075000D02*
X221869000Y-92075000D01*
X219329000Y-92075000D02*
X219329000Y-94615000D01*
X219329000Y-94615000D02*
X221869000Y-94615000D01*
X221869000Y-93091000D02*
X227965000Y-93091000D01*
X227965000Y-93091000D02*
X227965000Y-93599000D01*
X227965000Y-93599000D02*
X221869000Y-93599000D01*
X221869000Y-94615000D02*
X221869000Y-92075000D01*
X221869000Y-92075000D02*
X221869000Y-89535000D01*
X227965000Y-91059000D02*
X221869000Y-91059000D01*
X227965000Y-90551000D02*
X227965000Y-91059000D01*
X221869000Y-90551000D02*
X227965000Y-90551000D01*
X219329000Y-92075000D02*
X221869000Y-92075000D01*
X219329000Y-89535000D02*
X219329000Y-92075000D01*
X219329000Y-89535000D02*
X221869000Y-89535000D01*
X219329000Y-99695000D02*
X221869000Y-99695000D01*
X219329000Y-99695000D02*
X219329000Y-102235000D01*
X219329000Y-102235000D02*
X221869000Y-102235000D01*
X221869000Y-100711000D02*
X227965000Y-100711000D01*
X227965000Y-100711000D02*
X227965000Y-101219000D01*
X227965000Y-101219000D02*
X221869000Y-101219000D01*
X221869000Y-102235000D02*
X221869000Y-99695000D01*
X221869000Y-104775000D02*
X221869000Y-102235000D01*
X227965000Y-103759000D02*
X221869000Y-103759000D01*
X227965000Y-103251000D02*
X227965000Y-103759000D01*
X221869000Y-103251000D02*
X227965000Y-103251000D01*
X219329000Y-104775000D02*
X221869000Y-104775000D01*
X219329000Y-102235000D02*
X219329000Y-104775000D01*
X219329000Y-102235000D02*
X221869000Y-102235000D01*
X219329000Y-97155000D02*
X221869000Y-97155000D01*
X219329000Y-97155000D02*
X219329000Y-99695000D01*
X219329000Y-99695000D02*
X221869000Y-99695000D01*
X221869000Y-98171000D02*
X227965000Y-98171000D01*
X227965000Y-98171000D02*
X227965000Y-98679000D01*
X227965000Y-98679000D02*
X221869000Y-98679000D01*
X221869000Y-99695000D02*
X221869000Y-97155000D01*
X221869000Y-97155000D02*
X221869000Y-94615000D01*
X227965000Y-96139000D02*
X221869000Y-96139000D01*
X227965000Y-95631000D02*
X227965000Y-96139000D01*
X221869000Y-95631000D02*
X227965000Y-95631000D01*
X219329000Y-97155000D02*
X221869000Y-97155000D01*
X219329000Y-94615000D02*
X219329000Y-97155000D01*
X219329000Y-94615000D02*
X221869000Y-94615000D01*
X219329000Y-74295000D02*
X221869000Y-74295000D01*
X219329000Y-74295000D02*
X219329000Y-76835000D01*
X219329000Y-76835000D02*
X221869000Y-76835000D01*
X221869000Y-75311000D02*
X227965000Y-75311000D01*
X227965000Y-75311000D02*
X227965000Y-75819000D01*
X227965000Y-75819000D02*
X221869000Y-75819000D01*
X221869000Y-76835000D02*
X221869000Y-74295000D01*
X221869000Y-79375000D02*
X221869000Y-76835000D01*
X227965000Y-78359000D02*
X221869000Y-78359000D01*
X227965000Y-77851000D02*
X227965000Y-78359000D01*
X221869000Y-77851000D02*
X227965000Y-77851000D01*
X219329000Y-79375000D02*
X221869000Y-79375000D01*
X219329000Y-76835000D02*
X219329000Y-79375000D01*
X219329000Y-76835000D02*
X221869000Y-76835000D01*
X219329000Y-81915000D02*
X221869000Y-81915000D01*
X219329000Y-81915000D02*
X219329000Y-84455000D01*
X219329000Y-84455000D02*
X221869000Y-84455000D01*
X221869000Y-82931000D02*
X227965000Y-82931000D01*
X227965000Y-82931000D02*
X227965000Y-83439000D01*
X227965000Y-83439000D02*
X221869000Y-83439000D01*
X221869000Y-84455000D02*
X221869000Y-81915000D01*
X221869000Y-81915000D02*
X221869000Y-79375000D01*
X227965000Y-80899000D02*
X221869000Y-80899000D01*
X227965000Y-80391000D02*
X227965000Y-80899000D01*
X221869000Y-80391000D02*
X227965000Y-80391000D01*
X219329000Y-81915000D02*
X221869000Y-81915000D01*
X219329000Y-79375000D02*
X219329000Y-81915000D01*
X219329000Y-79375000D02*
X221869000Y-79375000D01*
X219329000Y-69215000D02*
X221869000Y-69215000D01*
X219329000Y-69215000D02*
X219329000Y-71755000D01*
X219329000Y-71755000D02*
X221869000Y-71755000D01*
X221869000Y-70231000D02*
X227965000Y-70231000D01*
X227965000Y-70231000D02*
X227965000Y-70739000D01*
X227965000Y-70739000D02*
X221869000Y-70739000D01*
X221869000Y-71755000D02*
X221869000Y-69215000D01*
X221869000Y-74295000D02*
X221869000Y-71755000D01*
X227965000Y-73279000D02*
X221869000Y-73279000D01*
X227965000Y-72771000D02*
X227965000Y-73279000D01*
X221869000Y-72771000D02*
X227965000Y-72771000D01*
X219329000Y-74295000D02*
X221869000Y-74295000D01*
X219329000Y-71755000D02*
X219329000Y-74295000D01*
X219329000Y-71755000D02*
X221869000Y-71755000D01*
X219329000Y-66675000D02*
X221869000Y-66675000D01*
X219329000Y-66675000D02*
X219329000Y-69215000D01*
X219329000Y-69215000D02*
X221869000Y-69215000D01*
X221869000Y-67691000D02*
X227965000Y-67691000D01*
X227965000Y-67691000D02*
X227965000Y-68199000D01*
X227965000Y-68199000D02*
X221869000Y-68199000D01*
X221869000Y-69215000D02*
X221869000Y-66675000D01*
X221869000Y-66675000D02*
X221869000Y-64135000D01*
X227965000Y-65659000D02*
X221869000Y-65659000D01*
X227965000Y-65151000D02*
X227965000Y-65659000D01*
X221869000Y-65151000D02*
X227965000Y-65151000D01*
X219329000Y-66675000D02*
X221869000Y-66675000D01*
X219329000Y-64135000D02*
X219329000Y-66675000D01*
X219329000Y-64135000D02*
X221869000Y-64135000D01*
X195580000Y-116840000D02*
X196850000Y-116840000D01*
X196215000Y-117475000D02*
X196215000Y-116205000D01*
X189230000Y-121285000D02*
X189230000Y-114935000D01*
X189230000Y-114935000D02*
X194310000Y-114935000D01*
X194310000Y-114935000D02*
X194310000Y-121285000D01*
X188595000Y-114935000D02*
X188595000Y-114300000D01*
X188595000Y-114300000D02*
X194945000Y-114300000D01*
X194945000Y-114300000D02*
X194945000Y-114935000D01*
X188595000Y-116205000D02*
X188595000Y-114935000D01*
X194945000Y-114935000D02*
X194945000Y-121285000D01*
X188595000Y-121285000D02*
X188595000Y-116205000D01*
X200750256Y-132080000D02*
G75*
G03X200750256Y-132080000I-8980256J0D01*
G01*
X202694953Y-132080000D02*
G75*
G03X202694953Y-132080000I-10924953J0D01*
G01*
X189179200Y-66040000D02*
X184150000Y-66040000D01*
X184150000Y-66040000D02*
X184150000Y-63500000D01*
X184150000Y-63500000D02*
X189230000Y-63500000D01*
X189230000Y-63500000D02*
X189230000Y-66040000D01*
X189230000Y-65405000D02*
X188595000Y-66040000D01*
X65745360Y-99171760D02*
X66746120Y-99171760D01*
X66245740Y-99672140D02*
X66245740Y-98671380D01*
X71094600Y-98171000D02*
G75*
G03X71094600Y-98171000I-3149600J0D01*
G01*
X79375000Y-93141800D02*
X79375000Y-98171000D01*
X79375000Y-98171000D02*
X76835000Y-98171000D01*
X76835000Y-98171000D02*
X76835000Y-93091000D01*
X76835000Y-93091000D02*
X79375000Y-93091000D01*
X78740000Y-93091000D02*
X79375000Y-93726000D01*
X175209200Y-88900000D02*
X170180000Y-88900000D01*
X170180000Y-88900000D02*
X170180000Y-86360000D01*
X170180000Y-86360000D02*
X175260000Y-86360000D01*
X175260000Y-86360000D02*
X175260000Y-88900000D01*
X175260000Y-88265000D02*
X174625000Y-88900000D01*
X97790000Y-130860800D02*
X97790000Y-135890000D01*
X97790000Y-135890000D02*
X95250000Y-135890000D01*
X95250000Y-135890000D02*
X95250000Y-130810000D01*
X95250000Y-130810000D02*
X97790000Y-130810000D01*
X97155000Y-130810000D02*
X97790000Y-131445000D01*
X175209200Y-114300000D02*
X170180000Y-114300000D01*
X170180000Y-114300000D02*
X170180000Y-111760000D01*
X170180000Y-111760000D02*
X175260000Y-111760000D01*
X175260000Y-111760000D02*
X175260000Y-114300000D01*
X175260000Y-113665000D02*
X174625000Y-114300000D01*
X123190000Y-116890800D02*
X123190000Y-121920000D01*
X123190000Y-121920000D02*
X120650000Y-121920000D01*
X120650000Y-121920000D02*
X120650000Y-116840000D01*
X120650000Y-116840000D02*
X123190000Y-116840000D01*
X122555000Y-116840000D02*
X123190000Y-117475000D01*
X210304380Y-122024140D02*
X210304380Y-123050300D01*
X210855560Y-122549920D02*
X209804000Y-122549920D01*
X212280500Y-123825000D02*
G75*
G03X212280500Y-123825000I-4000500J0D01*
G01*
X147269200Y-73660000D02*
X142240000Y-73660000D01*
X142240000Y-73660000D02*
X142240000Y-71120000D01*
X142240000Y-71120000D02*
X147320000Y-71120000D01*
X147320000Y-71120000D02*
X147320000Y-73660000D01*
X147320000Y-73025000D02*
X146685000Y-73660000D01*
X95885000Y-117906800D02*
X95885000Y-122936000D01*
X95885000Y-122936000D02*
X93345000Y-122936000D01*
X93345000Y-122936000D02*
X93345000Y-117856000D01*
X93345000Y-117856000D02*
X95885000Y-117856000D01*
X95250000Y-117856000D02*
X95885000Y-118491000D01*
X130810000Y-100330000D02*
X130810000Y-138430000D01*
X130810000Y-138430000D02*
X125730000Y-138430000D01*
X125730000Y-138430000D02*
X125730000Y-100330000D01*
X125730000Y-100330000D02*
X130810000Y-100330000D01*
X129540000Y-100330000D02*
X129540000Y-101600000D01*
X129540000Y-101600000D02*
X127000000Y-101600000D01*
X127000000Y-101600000D02*
X127000000Y-100330000D01*
D12*
X66370200Y-74282300D02*
X66370200Y-88277700D01*
X66370200Y-88277700D02*
X70871080Y-88277700D01*
X70871080Y-88277700D02*
X79169260Y-88277700D01*
X79169260Y-88277700D02*
X79118460Y-74282300D01*
X79118460Y-74282300D02*
X72867520Y-74282300D01*
X72867520Y-74282300D02*
X70871080Y-74282300D01*
X70871080Y-74282300D02*
X66370200Y-74282300D01*
X70871080Y-74282300D02*
X70871080Y-74582020D01*
X70871080Y-74582020D02*
X72867520Y-74582020D01*
X72867520Y-74582020D02*
X72867520Y-74282300D01*
X70871080Y-88277700D02*
X70871080Y-87977980D01*
X70871080Y-87977980D02*
X72867520Y-87977980D01*
X72867520Y-87977980D02*
X72867520Y-88229440D01*
D11*
X149860000Y-104140000D02*
X147320000Y-104140000D01*
X147320000Y-104140000D02*
X147320000Y-101600000D01*
X149860000Y-101600000D02*
X142240000Y-101600000D01*
X142240000Y-101600000D02*
X142240000Y-106680000D01*
X142240000Y-106680000D02*
X147320000Y-106680000D01*
X149860000Y-101600000D02*
X149860000Y-104140000D01*
X149860000Y-106680000D02*
X149860000Y-104140000D01*
X147320000Y-106680000D02*
X149860000Y-106680000D01*
X189230000Y-105410000D02*
X186690000Y-105410000D01*
X186690000Y-105410000D02*
X186690000Y-102870000D01*
X189230000Y-102870000D02*
X181610000Y-102870000D01*
X181610000Y-102870000D02*
X181610000Y-107950000D01*
X181610000Y-107950000D02*
X186690000Y-107950000D01*
X189230000Y-102870000D02*
X189230000Y-105410000D01*
X189230000Y-107950000D02*
X189230000Y-105410000D01*
X186690000Y-107950000D02*
X189230000Y-107950000D01*
X189230000Y-93980000D02*
X186690000Y-93980000D01*
X186690000Y-93980000D02*
X186690000Y-91440000D01*
X189230000Y-91440000D02*
X181610000Y-91440000D01*
X181610000Y-91440000D02*
X181610000Y-96520000D01*
X181610000Y-96520000D02*
X186690000Y-96520000D01*
X189230000Y-91440000D02*
X189230000Y-93980000D01*
X189230000Y-96520000D02*
X189230000Y-93980000D01*
X186690000Y-96520000D02*
X189230000Y-96520000D01*
X189230000Y-82550000D02*
X186690000Y-82550000D01*
X186690000Y-82550000D02*
X186690000Y-80010000D01*
X189230000Y-80010000D02*
X181610000Y-80010000D01*
X181610000Y-80010000D02*
X181610000Y-85090000D01*
X181610000Y-85090000D02*
X186690000Y-85090000D01*
X189230000Y-80010000D02*
X189230000Y-82550000D01*
X189230000Y-85090000D02*
X189230000Y-82550000D01*
X186690000Y-85090000D02*
X189230000Y-85090000D01*
X88265000Y-94361000D02*
X88265000Y-94869000D01*
X88265000Y-101981000D02*
X88265000Y-101473000D01*
X88265000Y-101473000D02*
X89281000Y-101473000D01*
X89281000Y-101473000D02*
X89281000Y-94869000D01*
X89281000Y-94869000D02*
X87249000Y-94869000D01*
X87249000Y-94869000D02*
X87249000Y-101473000D01*
X87249000Y-101473000D02*
X88265000Y-101473000D01*
X88773000Y-94869000D02*
X89281000Y-95377000D01*
X85725000Y-94361000D02*
X85725000Y-94869000D01*
X85725000Y-101981000D02*
X85725000Y-101473000D01*
X85725000Y-101473000D02*
X86741000Y-101473000D01*
X86741000Y-101473000D02*
X86741000Y-94869000D01*
X86741000Y-94869000D02*
X84709000Y-94869000D01*
X84709000Y-94869000D02*
X84709000Y-101473000D01*
X84709000Y-101473000D02*
X85725000Y-101473000D01*
X86233000Y-94869000D02*
X86741000Y-95377000D01*
X83185000Y-94361000D02*
X83185000Y-94869000D01*
X83185000Y-101981000D02*
X83185000Y-101473000D01*
X83185000Y-101473000D02*
X84201000Y-101473000D01*
X84201000Y-101473000D02*
X84201000Y-94869000D01*
X84201000Y-94869000D02*
X82169000Y-94869000D01*
X82169000Y-94869000D02*
X82169000Y-101473000D01*
X82169000Y-101473000D02*
X83185000Y-101473000D01*
X83693000Y-94869000D02*
X84201000Y-95377000D01*
X80645000Y-94361000D02*
X80645000Y-94869000D01*
X80645000Y-101981000D02*
X80645000Y-101473000D01*
X80645000Y-101473000D02*
X81661000Y-101473000D01*
X81661000Y-101473000D02*
X81661000Y-94869000D01*
X81661000Y-94869000D02*
X79629000Y-94869000D01*
X79629000Y-94869000D02*
X79629000Y-101473000D01*
X79629000Y-101473000D02*
X80645000Y-101473000D01*
X81153000Y-94869000D02*
X81661000Y-95377000D01*
X90805000Y-94361000D02*
X90805000Y-94869000D01*
X90805000Y-101981000D02*
X90805000Y-101473000D01*
X90805000Y-101473000D02*
X91821000Y-101473000D01*
X91821000Y-101473000D02*
X91821000Y-94869000D01*
X91821000Y-94869000D02*
X89789000Y-94869000D01*
X89789000Y-94869000D02*
X89789000Y-101473000D01*
X89789000Y-101473000D02*
X90805000Y-101473000D01*
X91313000Y-94869000D02*
X91821000Y-95377000D01*
X162560000Y-88900000D02*
X162560000Y-88392000D01*
X162560000Y-81280000D02*
X162560000Y-81788000D01*
X162560000Y-81788000D02*
X161544000Y-81788000D01*
X161544000Y-81788000D02*
X161544000Y-88392000D01*
X161544000Y-88392000D02*
X163576000Y-88392000D01*
X163576000Y-88392000D02*
X163576000Y-81788000D01*
X163576000Y-81788000D02*
X162560000Y-81788000D01*
X162052000Y-88392000D02*
X161544000Y-87884000D01*
X160020000Y-88900000D02*
X160020000Y-88392000D01*
X160020000Y-81280000D02*
X160020000Y-81788000D01*
X160020000Y-81788000D02*
X159004000Y-81788000D01*
X159004000Y-81788000D02*
X159004000Y-88392000D01*
X159004000Y-88392000D02*
X161036000Y-88392000D01*
X161036000Y-88392000D02*
X161036000Y-81788000D01*
X161036000Y-81788000D02*
X160020000Y-81788000D01*
X159512000Y-88392000D02*
X159004000Y-87884000D01*
X152400000Y-88900000D02*
X152400000Y-88392000D01*
X152400000Y-81280000D02*
X152400000Y-81788000D01*
X152400000Y-81788000D02*
X151384000Y-81788000D01*
X151384000Y-81788000D02*
X151384000Y-88392000D01*
X151384000Y-88392000D02*
X153416000Y-88392000D01*
X153416000Y-88392000D02*
X153416000Y-81788000D01*
X153416000Y-81788000D02*
X152400000Y-81788000D01*
X151892000Y-88392000D02*
X151384000Y-87884000D01*
X149860000Y-88900000D02*
X149860000Y-88392000D01*
X149860000Y-81280000D02*
X149860000Y-81788000D01*
X149860000Y-81788000D02*
X148844000Y-81788000D01*
X148844000Y-81788000D02*
X148844000Y-88392000D01*
X148844000Y-88392000D02*
X150876000Y-88392000D01*
X150876000Y-88392000D02*
X150876000Y-81788000D01*
X150876000Y-81788000D02*
X149860000Y-81788000D01*
X149352000Y-88392000D02*
X148844000Y-87884000D01*
X157480000Y-88900000D02*
X157480000Y-88392000D01*
X157480000Y-81280000D02*
X157480000Y-81788000D01*
X157480000Y-81788000D02*
X156464000Y-81788000D01*
X156464000Y-81788000D02*
X156464000Y-88392000D01*
X156464000Y-88392000D02*
X158496000Y-88392000D01*
X158496000Y-88392000D02*
X158496000Y-81788000D01*
X158496000Y-81788000D02*
X157480000Y-81788000D01*
X156972000Y-88392000D02*
X156464000Y-87884000D01*
X154940000Y-88900000D02*
X154940000Y-88392000D01*
X154940000Y-81280000D02*
X154940000Y-81788000D01*
X154940000Y-81788000D02*
X153924000Y-81788000D01*
X153924000Y-81788000D02*
X153924000Y-88392000D01*
X153924000Y-88392000D02*
X155956000Y-88392000D01*
X155956000Y-88392000D02*
X155956000Y-81788000D01*
X155956000Y-81788000D02*
X154940000Y-81788000D01*
X154432000Y-88392000D02*
X153924000Y-87884000D01*
X119380000Y-80010000D02*
X118872000Y-80010000D01*
X111760000Y-80010000D02*
X112268000Y-80010000D01*
X112268000Y-80010000D02*
X112268000Y-81026000D01*
X112268000Y-81026000D02*
X118872000Y-81026000D01*
X118872000Y-81026000D02*
X118872000Y-78994000D01*
X118872000Y-78994000D02*
X112268000Y-78994000D01*
X112268000Y-78994000D02*
X112268000Y-80010000D01*
X118872000Y-80518000D02*
X118364000Y-81026000D01*
X119380000Y-82550000D02*
X118872000Y-82550000D01*
X111760000Y-82550000D02*
X112268000Y-82550000D01*
X112268000Y-82550000D02*
X112268000Y-83566000D01*
X112268000Y-83566000D02*
X118872000Y-83566000D01*
X118872000Y-83566000D02*
X118872000Y-81534000D01*
X118872000Y-81534000D02*
X112268000Y-81534000D01*
X112268000Y-81534000D02*
X112268000Y-82550000D01*
X118872000Y-83058000D02*
X118364000Y-83566000D01*
X119380000Y-74930000D02*
X118872000Y-74930000D01*
X111760000Y-74930000D02*
X112268000Y-74930000D01*
X112268000Y-74930000D02*
X112268000Y-75946000D01*
X112268000Y-75946000D02*
X118872000Y-75946000D01*
X118872000Y-75946000D02*
X118872000Y-73914000D01*
X118872000Y-73914000D02*
X112268000Y-73914000D01*
X112268000Y-73914000D02*
X112268000Y-74930000D01*
X118872000Y-75438000D02*
X118364000Y-75946000D01*
X119380000Y-77470000D02*
X118872000Y-77470000D01*
X111760000Y-77470000D02*
X112268000Y-77470000D01*
X112268000Y-77470000D02*
X112268000Y-78486000D01*
X112268000Y-78486000D02*
X118872000Y-78486000D01*
X118872000Y-78486000D02*
X118872000Y-76454000D01*
X118872000Y-76454000D02*
X112268000Y-76454000D01*
X112268000Y-76454000D02*
X112268000Y-77470000D01*
X118872000Y-77978000D02*
X118364000Y-78486000D01*
X142240000Y-59690000D02*
X143510000Y-59690000D01*
X143510000Y-59690000D02*
X143510000Y-62230000D01*
X143510000Y-62230000D02*
X142240000Y-62230000D01*
X142240000Y-54610000D02*
X195580000Y-54610000D01*
X195580000Y-54610000D02*
X195580000Y-67310000D01*
X195580000Y-67310000D02*
X142240000Y-67310000D01*
X142240000Y-67310000D02*
X142240000Y-54610000D01*
X99060000Y-133350000D02*
X119380000Y-133350000D01*
X119380000Y-138430000D02*
X99060000Y-138430000D01*
X99060000Y-138430000D02*
X99060000Y-133350000D01*
X99060000Y-134620000D02*
X100330000Y-134620000D01*
X100330000Y-134620000D02*
X100330000Y-137160000D01*
X100330000Y-137160000D02*
X99060000Y-137160000D01*
X119380000Y-133350000D02*
X119380000Y-138430000D01*
X144780000Y-74930000D02*
X144780000Y-95250000D01*
X139700000Y-95250000D02*
X139700000Y-74930000D01*
X139700000Y-74930000D02*
X144780000Y-74930000D01*
X143510000Y-74930000D02*
X143510000Y-76200000D01*
X143510000Y-76200000D02*
X140970000Y-76200000D01*
X140970000Y-76200000D02*
X140970000Y-74930000D01*
X144780000Y-95250000D02*
X139700000Y-95250000D01*
X172720000Y-90170000D02*
X172720000Y-110490000D01*
X167640000Y-110490000D02*
X167640000Y-90170000D01*
X167640000Y-90170000D02*
X172720000Y-90170000D01*
X171450000Y-90170000D02*
X171450000Y-91440000D01*
X171450000Y-91440000D02*
X168910000Y-91440000D01*
X168910000Y-91440000D02*
X168910000Y-90170000D01*
X172720000Y-110490000D02*
X167640000Y-110490000D01*
X71501000Y-99568000D02*
X71882000Y-99822000D01*
X74701400Y-94234000D02*
X74231500Y-94030800D01*
X71640700Y-94107000D02*
X71818500Y-94030800D01*
X74650600Y-99555300D02*
X74231500Y-99733100D01*
X76200000Y-96901000D02*
X76200000Y-97409000D01*
X76200000Y-97409000D02*
X76073000Y-97917000D01*
X76073000Y-97917000D02*
X75819000Y-98425000D01*
X75819000Y-98425000D02*
X75565000Y-98806000D01*
X75565000Y-98806000D02*
X75184000Y-99187000D01*
X75184000Y-99187000D02*
X74676000Y-99568000D01*
X74676000Y-94234000D02*
X75311000Y-94615000D01*
X75311000Y-94615000D02*
X75692000Y-95250000D01*
X75692000Y-95250000D02*
X75946000Y-95631000D01*
X75946000Y-95631000D02*
X76073000Y-96139000D01*
X76073000Y-96139000D02*
X76200000Y-96647000D01*
X76200000Y-96647000D02*
X76200000Y-96901000D01*
X71501000Y-94234000D02*
X71755000Y-94107000D01*
X71501000Y-94234000D02*
X71501000Y-99568000D01*
X104140000Y-72390000D02*
X104140000Y-72390000D01*
X104140000Y-72390000D02*
X104140000Y-73660000D01*
X104140000Y-73660000D02*
X101600000Y-73660000D01*
X101600000Y-73660000D02*
X101600000Y-72390000D01*
X105410000Y-72390000D02*
X105410000Y-95250000D01*
X105410000Y-95250000D02*
X100330000Y-95250000D01*
X100330000Y-95250000D02*
X100330000Y-72390000D01*
X100330000Y-72390000D02*
X105410000Y-72390000D01*
X171450000Y-115570000D02*
X171450000Y-115570000D01*
X171450000Y-115570000D02*
X171450000Y-116840000D01*
X171450000Y-116840000D02*
X168910000Y-116840000D01*
X168910000Y-116840000D02*
X168910000Y-115570000D01*
X172720000Y-115570000D02*
X172720000Y-138430000D01*
X172720000Y-138430000D02*
X167640000Y-138430000D01*
X167640000Y-138430000D02*
X167640000Y-115570000D01*
X167640000Y-115570000D02*
X172720000Y-115570000D01*
X129540000Y-72390000D02*
X129540000Y-72390000D01*
X129540000Y-72390000D02*
X129540000Y-73660000D01*
X129540000Y-73660000D02*
X127000000Y-73660000D01*
X127000000Y-73660000D02*
X127000000Y-72390000D01*
X130810000Y-72390000D02*
X130810000Y-95250000D01*
X130810000Y-95250000D02*
X125730000Y-95250000D01*
X125730000Y-95250000D02*
X125730000Y-72390000D01*
X125730000Y-72390000D02*
X130810000Y-72390000D01*
X163710620Y-123410980D02*
X163560760Y-123261120D01*
X161310320Y-125359160D02*
X161559240Y-125610620D01*
X163710620Y-123410980D02*
X163959540Y-123758960D01*
X163959540Y-123758960D02*
X164109400Y-124310140D01*
X164109400Y-124310140D02*
X164109400Y-124708920D01*
X164109400Y-124708920D02*
X163908740Y-125209300D01*
X163908740Y-125209300D02*
X163560760Y-125610620D01*
X161510980Y-123309380D02*
X161259520Y-123609100D01*
X161259520Y-123609100D02*
X161058860Y-124061220D01*
X161058860Y-124061220D02*
X161010600Y-124510800D01*
X161010600Y-124510800D02*
X161109660Y-125011180D01*
X161109660Y-125011180D02*
X161310320Y-125359160D01*
X163830000Y-73660000D02*
X148590000Y-73660000D01*
X151130000Y-78740000D02*
X163830000Y-78740000D01*
X163830000Y-73660000D02*
X163830000Y-78740000D01*
X148590000Y-73660000D02*
X148590000Y-76200000D01*
X148590000Y-78740000D02*
X151130000Y-78740000D01*
X148590000Y-76200000D02*
X151130000Y-76200000D01*
X151130000Y-76200000D02*
X151130000Y-78740000D01*
X148590000Y-78740000D02*
X148590000Y-76200000D01*
D13*
X78994000Y-54737000D02*
X78994000Y-61341000D01*
X78994000Y-61341000D02*
X78613000Y-63373000D01*
X78613000Y-63373000D02*
X75438000Y-63373000D01*
X75438000Y-63373000D02*
X74930000Y-61214000D01*
X74930000Y-61214000D02*
X74930000Y-54737000D01*
X100457000Y-63373000D02*
X99949000Y-61214000D01*
X99949000Y-61214000D02*
X99949000Y-54737000D01*
X104267000Y-54737000D02*
X104267000Y-61087000D01*
X104267000Y-61087000D02*
X103632000Y-63373000D01*
X103632000Y-63373000D02*
X100457000Y-63373000D01*
X74676000Y-54737000D02*
X79248000Y-54737000D01*
X79248000Y-54737000D02*
X79248000Y-54483000D01*
X79248000Y-54483000D02*
X74676000Y-54483000D01*
X74676000Y-54483000D02*
X74676000Y-54737000D01*
X99695000Y-54737000D02*
X104521000Y-54737000D01*
X104521000Y-54737000D02*
X104521000Y-54483000D01*
X104521000Y-54483000D02*
X99695000Y-54483000D01*
X99695000Y-54483000D02*
X99695000Y-54737000D01*
X78105000Y-54356000D02*
X78105000Y-56896000D01*
X78105000Y-56896000D02*
X75819000Y-56896000D01*
X75819000Y-56896000D02*
X75819000Y-54356000D01*
X103251000Y-54356000D02*
X103251000Y-56896000D01*
X103251000Y-56896000D02*
X100965000Y-56896000D01*
X100965000Y-56896000D02*
X100965000Y-54356000D01*
X80518000Y-54356000D02*
X80518000Y-66675000D01*
X98552000Y-54356000D02*
X98552000Y-66675000D01*
X105029000Y-54356000D02*
X74041000Y-54356000D01*
X100584000Y-51689000D02*
X100584000Y-45847000D01*
X103632000Y-51689000D02*
X103632000Y-45847000D01*
X75438000Y-51689000D02*
X75438000Y-45847000D01*
X78486000Y-51689000D02*
X78486000Y-45847000D01*
X79502000Y-51689000D02*
X79502000Y-45847000D01*
X79502000Y-45847000D02*
X74422000Y-45847000D01*
X74422000Y-45847000D02*
X74422000Y-51562000D01*
X104648000Y-51689000D02*
X104648000Y-45847000D01*
X104648000Y-45847000D02*
X99568000Y-45847000D01*
X99568000Y-45847000D02*
X99568000Y-51562000D01*
X97663000Y-51689000D02*
X97663000Y-45847000D01*
X97663000Y-45847000D02*
X81407000Y-45847000D01*
X81407000Y-45847000D02*
X81407000Y-51689000D01*
X105029000Y-51689000D02*
X74041000Y-51689000D01*
X74041000Y-51689000D02*
X74041000Y-66675000D01*
X74041000Y-66675000D02*
X105029000Y-66675000D01*
X105029000Y-66675000D02*
X105029000Y-51689000D01*
X112014000Y-54737000D02*
X112014000Y-61341000D01*
X112014000Y-61341000D02*
X111633000Y-63373000D01*
X111633000Y-63373000D02*
X108458000Y-63373000D01*
X108458000Y-63373000D02*
X107950000Y-61214000D01*
X107950000Y-61214000D02*
X107950000Y-54737000D01*
X133477000Y-63373000D02*
X132969000Y-61214000D01*
X132969000Y-61214000D02*
X132969000Y-54737000D01*
X137287000Y-54737000D02*
X137287000Y-61087000D01*
X137287000Y-61087000D02*
X136652000Y-63373000D01*
X136652000Y-63373000D02*
X133477000Y-63373000D01*
X107696000Y-54737000D02*
X112268000Y-54737000D01*
X112268000Y-54737000D02*
X112268000Y-54483000D01*
X112268000Y-54483000D02*
X107696000Y-54483000D01*
X107696000Y-54483000D02*
X107696000Y-54737000D01*
X132715000Y-54737000D02*
X137541000Y-54737000D01*
X137541000Y-54737000D02*
X137541000Y-54483000D01*
X137541000Y-54483000D02*
X132715000Y-54483000D01*
X132715000Y-54483000D02*
X132715000Y-54737000D01*
X111125000Y-54356000D02*
X111125000Y-56896000D01*
X111125000Y-56896000D02*
X108839000Y-56896000D01*
X108839000Y-56896000D02*
X108839000Y-54356000D01*
X136271000Y-54356000D02*
X136271000Y-56896000D01*
X136271000Y-56896000D02*
X133985000Y-56896000D01*
X133985000Y-56896000D02*
X133985000Y-54356000D01*
X113538000Y-54356000D02*
X113538000Y-66675000D01*
X131572000Y-54356000D02*
X131572000Y-66675000D01*
X138049000Y-54356000D02*
X107061000Y-54356000D01*
X133604000Y-51689000D02*
X133604000Y-45847000D01*
X136652000Y-51689000D02*
X136652000Y-45847000D01*
X108458000Y-51689000D02*
X108458000Y-45847000D01*
X111506000Y-51689000D02*
X111506000Y-45847000D01*
X112522000Y-51689000D02*
X112522000Y-45847000D01*
X112522000Y-45847000D02*
X107442000Y-45847000D01*
X107442000Y-45847000D02*
X107442000Y-51562000D01*
X137668000Y-51689000D02*
X137668000Y-45847000D01*
X137668000Y-45847000D02*
X132588000Y-45847000D01*
X132588000Y-45847000D02*
X132588000Y-51562000D01*
X130683000Y-51689000D02*
X130683000Y-45847000D01*
X130683000Y-45847000D02*
X114427000Y-45847000D01*
X114427000Y-45847000D02*
X114427000Y-51689000D01*
X138049000Y-51689000D02*
X107061000Y-51689000D01*
X107061000Y-51689000D02*
X107061000Y-66675000D01*
X107061000Y-66675000D02*
X138049000Y-66675000D01*
X138049000Y-66675000D02*
X138049000Y-51689000D01*
X62704980Y-109860080D02*
X62704980Y-105460800D01*
X62704980Y-134061200D02*
X62704980Y-129661920D01*
X62704980Y-129661920D02*
G75*
G03X72605900Y-119761000I0J9900920D01*
G01*
X72605900Y-119761000D02*
G75*
G03X62704980Y-109860080I-9900920J0D01*
G01*
X81506060Y-126161800D02*
X81506060Y-113560860D01*
X80004920Y-128061720D02*
X62704980Y-129760980D01*
X80002380Y-128061720D02*
G75*
G03X81506060Y-126161800I-198120J1701800D01*
G01*
X79804260Y-111460280D02*
X62704980Y-109761020D01*
X81506060Y-113558320D02*
G75*
G03X79804260Y-111460280I-1899920J198120D01*
G01*
X62704980Y-105460800D02*
X91506040Y-105460800D01*
X91506040Y-105460800D02*
X91506040Y-134061200D01*
X91506040Y-134061200D02*
X62704980Y-134061200D01*
D14*
X213299524Y-96822381D02*
X212029524Y-96822381D01*
X212029524Y-96338572D01*
X212090000Y-96217619D01*
X212150476Y-96157143D01*
X212271429Y-96096667D01*
X212452857Y-96096667D01*
X212573810Y-96157143D01*
X212634286Y-96217619D01*
X212694762Y-96338572D01*
X212694762Y-96822381D01*
X212029524Y-94947619D02*
X212029524Y-95552381D01*
X212634286Y-95612857D01*
X212573810Y-95552381D01*
X212513333Y-95431429D01*
X212513333Y-95129048D01*
X212573810Y-95008095D01*
X212634286Y-94947619D01*
X212755238Y-94887143D01*
X213057619Y-94887143D01*
X213178571Y-94947619D01*
X213239048Y-95008095D01*
X213299524Y-95129048D01*
X213299524Y-95431429D01*
X213239048Y-95552381D01*
X213178571Y-95612857D01*
D11*
X178998571Y-132865714D02*
X179046190Y-132722857D01*
X179093810Y-132675238D01*
X179189048Y-132627619D01*
X179331905Y-132627619D01*
X179427143Y-132675238D01*
X179474762Y-132722857D01*
X179522381Y-132818095D01*
X179522381Y-133199048D01*
X178522381Y-133199048D01*
X178522381Y-132865714D01*
X178570000Y-132770476D01*
X178617619Y-132722857D01*
X178712857Y-132675238D01*
X178808095Y-132675238D01*
X178903333Y-132722857D01*
X178950952Y-132770476D01*
X178998571Y-132865714D01*
X178998571Y-133199048D01*
X178522381Y-132341905D02*
X178522381Y-131770476D01*
X179522381Y-132056191D02*
X178522381Y-132056191D01*
X179522381Y-130913333D02*
X179522381Y-131484762D01*
X179522381Y-131199048D02*
X178522381Y-131199048D01*
X178665238Y-131294286D01*
X178760476Y-131389524D01*
X178808095Y-131484762D01*
X204398571Y-134580000D02*
X204446190Y-134437143D01*
X204493810Y-134389524D01*
X204589048Y-134341905D01*
X204731905Y-134341905D01*
X204827143Y-134389524D01*
X204874762Y-134437143D01*
X204922381Y-134532381D01*
X204922381Y-134913334D01*
X203922381Y-134913334D01*
X203922381Y-134580000D01*
X203970000Y-134484762D01*
X204017619Y-134437143D01*
X204112857Y-134389524D01*
X204208095Y-134389524D01*
X204303333Y-134437143D01*
X204350952Y-134484762D01*
X204398571Y-134580000D01*
X204398571Y-134913334D01*
X204636667Y-133960953D02*
X204636667Y-133484762D01*
X204922381Y-134056191D02*
X203922381Y-133722858D01*
X204922381Y-133389524D01*
X203922381Y-133199048D02*
X203922381Y-132627619D01*
X204922381Y-132913334D02*
X203922381Y-132913334D01*
X203922381Y-132437143D02*
X203922381Y-131865714D01*
X204922381Y-132151429D02*
X203922381Y-132151429D01*
X204398571Y-131532381D02*
X204398571Y-131199047D01*
X204922381Y-131056190D02*
X204922381Y-131532381D01*
X203922381Y-131532381D01*
X203922381Y-131056190D01*
X204922381Y-130056190D02*
X204446190Y-130389524D01*
X204922381Y-130627619D02*
X203922381Y-130627619D01*
X203922381Y-130246666D01*
X203970000Y-130151428D01*
X204017619Y-130103809D01*
X204112857Y-130056190D01*
X204255714Y-130056190D01*
X204350952Y-130103809D01*
X204398571Y-130151428D01*
X204446190Y-130246666D01*
X204446190Y-130627619D01*
X204446190Y-129437143D02*
X204922381Y-129437143D01*
X203922381Y-129770476D02*
X204446190Y-129437143D01*
X203922381Y-129103809D01*
X186269334Y-67413143D02*
X186221715Y-67460762D01*
X186078858Y-67508381D01*
X185983620Y-67508381D01*
X185840762Y-67460762D01*
X185745524Y-67365524D01*
X185697905Y-67270286D01*
X185650286Y-67079810D01*
X185650286Y-66936952D01*
X185697905Y-66746476D01*
X185745524Y-66651238D01*
X185840762Y-66556000D01*
X185983620Y-66508381D01*
X186078858Y-66508381D01*
X186221715Y-66556000D01*
X186269334Y-66603619D01*
X187221715Y-67508381D02*
X186650286Y-67508381D01*
X186936000Y-67508381D02*
X186936000Y-66508381D01*
X186840762Y-66651238D01*
X186745524Y-66746476D01*
X186650286Y-66794095D01*
X63222143Y-98337666D02*
X63269762Y-98385285D01*
X63317381Y-98528142D01*
X63317381Y-98623380D01*
X63269762Y-98766238D01*
X63174524Y-98861476D01*
X63079286Y-98909095D01*
X62888810Y-98956714D01*
X62745952Y-98956714D01*
X62555476Y-98909095D01*
X62460238Y-98861476D01*
X62365000Y-98766238D01*
X62317381Y-98623380D01*
X62317381Y-98528142D01*
X62365000Y-98385285D01*
X62412619Y-98337666D01*
X62412619Y-97956714D02*
X62365000Y-97909095D01*
X62317381Y-97813857D01*
X62317381Y-97575761D01*
X62365000Y-97480523D01*
X62412619Y-97432904D01*
X62507857Y-97385285D01*
X62603095Y-97385285D01*
X62745952Y-97432904D01*
X63317381Y-98004333D01*
X63317381Y-97385285D01*
X73477381Y-99313857D02*
X73477381Y-99885286D01*
X73477381Y-99599572D02*
X72477381Y-99599572D01*
X72620238Y-99694810D01*
X72715476Y-99790048D01*
X72763095Y-99885286D01*
X72477381Y-98694810D02*
X72477381Y-98599571D01*
X72525000Y-98504333D01*
X72572619Y-98456714D01*
X72667857Y-98409095D01*
X72858333Y-98361476D01*
X73096429Y-98361476D01*
X73286905Y-98409095D01*
X73382143Y-98456714D01*
X73429762Y-98504333D01*
X73477381Y-98599571D01*
X73477381Y-98694810D01*
X73429762Y-98790048D01*
X73382143Y-98837667D01*
X73286905Y-98885286D01*
X73096429Y-98932905D01*
X72858333Y-98932905D01*
X72667857Y-98885286D01*
X72572619Y-98837667D01*
X72525000Y-98790048D01*
X72477381Y-98694810D01*
X72810714Y-97932905D02*
X73810714Y-97932905D01*
X73334524Y-97456714D02*
X73429762Y-97409095D01*
X73477381Y-97313857D01*
X73334524Y-97932905D02*
X73429762Y-97885286D01*
X73477381Y-97790048D01*
X73477381Y-97599571D01*
X73429762Y-97504333D01*
X73334524Y-97456714D01*
X72810714Y-97456714D01*
X72953571Y-96551952D02*
X72953571Y-96885286D01*
X73477381Y-96885286D02*
X72477381Y-96885286D01*
X72477381Y-96409095D01*
X80748143Y-96051666D02*
X80795762Y-96099285D01*
X80843381Y-96242142D01*
X80843381Y-96337380D01*
X80795762Y-96480238D01*
X80700524Y-96575476D01*
X80605286Y-96623095D01*
X80414810Y-96670714D01*
X80271952Y-96670714D01*
X80081476Y-96623095D01*
X79986238Y-96575476D01*
X79891000Y-96480238D01*
X79843381Y-96337380D01*
X79843381Y-96242142D01*
X79891000Y-96099285D01*
X79938619Y-96051666D01*
X79843381Y-95718333D02*
X79843381Y-95099285D01*
X80224333Y-95432619D01*
X80224333Y-95289761D01*
X80271952Y-95194523D01*
X80319571Y-95146904D01*
X80414810Y-95099285D01*
X80652905Y-95099285D01*
X80748143Y-95146904D01*
X80795762Y-95194523D01*
X80843381Y-95289761D01*
X80843381Y-95575476D01*
X80795762Y-95670714D01*
X80748143Y-95718333D01*
X172299334Y-90273143D02*
X172251715Y-90320762D01*
X172108858Y-90368381D01*
X172013620Y-90368381D01*
X171870762Y-90320762D01*
X171775524Y-90225524D01*
X171727905Y-90130286D01*
X171680286Y-89939810D01*
X171680286Y-89796952D01*
X171727905Y-89606476D01*
X171775524Y-89511238D01*
X171870762Y-89416000D01*
X172013620Y-89368381D01*
X172108858Y-89368381D01*
X172251715Y-89416000D01*
X172299334Y-89463619D01*
X173156477Y-89701714D02*
X173156477Y-90368381D01*
X172918381Y-89320762D02*
X172680286Y-90035048D01*
X173299334Y-90035048D01*
X99163143Y-133770666D02*
X99210762Y-133818285D01*
X99258381Y-133961142D01*
X99258381Y-134056380D01*
X99210762Y-134199238D01*
X99115524Y-134294476D01*
X99020286Y-134342095D01*
X98829810Y-134389714D01*
X98686952Y-134389714D01*
X98496476Y-134342095D01*
X98401238Y-134294476D01*
X98306000Y-134199238D01*
X98258381Y-134056380D01*
X98258381Y-133961142D01*
X98306000Y-133818285D01*
X98353619Y-133770666D01*
X98258381Y-132865904D02*
X98258381Y-133342095D01*
X98734571Y-133389714D01*
X98686952Y-133342095D01*
X98639333Y-133246857D01*
X98639333Y-133008761D01*
X98686952Y-132913523D01*
X98734571Y-132865904D01*
X98829810Y-132818285D01*
X99067905Y-132818285D01*
X99163143Y-132865904D01*
X99210762Y-132913523D01*
X99258381Y-133008761D01*
X99258381Y-133246857D01*
X99210762Y-133342095D01*
X99163143Y-133389714D01*
X172299334Y-115673143D02*
X172251715Y-115720762D01*
X172108858Y-115768381D01*
X172013620Y-115768381D01*
X171870762Y-115720762D01*
X171775524Y-115625524D01*
X171727905Y-115530286D01*
X171680286Y-115339810D01*
X171680286Y-115196952D01*
X171727905Y-115006476D01*
X171775524Y-114911238D01*
X171870762Y-114816000D01*
X172013620Y-114768381D01*
X172108858Y-114768381D01*
X172251715Y-114816000D01*
X172299334Y-114863619D01*
X173156477Y-114768381D02*
X172966000Y-114768381D01*
X172870762Y-114816000D01*
X172823143Y-114863619D01*
X172727905Y-115006476D01*
X172680286Y-115196952D01*
X172680286Y-115577905D01*
X172727905Y-115673143D01*
X172775524Y-115720762D01*
X172870762Y-115768381D01*
X173061239Y-115768381D01*
X173156477Y-115720762D01*
X173204096Y-115673143D01*
X173251715Y-115577905D01*
X173251715Y-115339810D01*
X173204096Y-115244571D01*
X173156477Y-115196952D01*
X173061239Y-115149333D01*
X172870762Y-115149333D01*
X172775524Y-115196952D01*
X172727905Y-115244571D01*
X172680286Y-115339810D01*
X124563143Y-119800666D02*
X124610762Y-119848285D01*
X124658381Y-119991142D01*
X124658381Y-120086380D01*
X124610762Y-120229238D01*
X124515524Y-120324476D01*
X124420286Y-120372095D01*
X124229810Y-120419714D01*
X124086952Y-120419714D01*
X123896476Y-120372095D01*
X123801238Y-120324476D01*
X123706000Y-120229238D01*
X123658381Y-120086380D01*
X123658381Y-119991142D01*
X123706000Y-119848285D01*
X123753619Y-119800666D01*
X123658381Y-119467333D02*
X123658381Y-118800666D01*
X124658381Y-119229238D01*
X213717143Y-123991666D02*
X213764762Y-124039285D01*
X213812381Y-124182142D01*
X213812381Y-124277380D01*
X213764762Y-124420238D01*
X213669524Y-124515476D01*
X213574286Y-124563095D01*
X213383810Y-124610714D01*
X213240952Y-124610714D01*
X213050476Y-124563095D01*
X212955238Y-124515476D01*
X212860000Y-124420238D01*
X212812381Y-124277380D01*
X212812381Y-124182142D01*
X212860000Y-124039285D01*
X212907619Y-123991666D01*
X213240952Y-123420238D02*
X213193333Y-123515476D01*
X213145714Y-123563095D01*
X213050476Y-123610714D01*
X213002857Y-123610714D01*
X212907619Y-123563095D01*
X212860000Y-123515476D01*
X212812381Y-123420238D01*
X212812381Y-123229761D01*
X212860000Y-123134523D01*
X212907619Y-123086904D01*
X213002857Y-123039285D01*
X213050476Y-123039285D01*
X213145714Y-123086904D01*
X213193333Y-123134523D01*
X213240952Y-123229761D01*
X213240952Y-123420238D01*
X213288571Y-123515476D01*
X213336190Y-123563095D01*
X213431429Y-123610714D01*
X213621905Y-123610714D01*
X213717143Y-123563095D01*
X213764762Y-123515476D01*
X213812381Y-123420238D01*
X213812381Y-123229761D01*
X213764762Y-123134523D01*
X213717143Y-123086904D01*
X213621905Y-123039285D01*
X213431429Y-123039285D01*
X213336190Y-123086904D01*
X213288571Y-123134523D01*
X213240952Y-123229761D01*
X202382381Y-126079047D02*
X202382381Y-126650476D01*
X202382381Y-126364762D02*
X201382381Y-126364762D01*
X201525238Y-126460000D01*
X201620476Y-126555238D01*
X201668095Y-126650476D01*
X201382381Y-125460000D02*
X201382381Y-125364761D01*
X201430000Y-125269523D01*
X201477619Y-125221904D01*
X201572857Y-125174285D01*
X201763333Y-125126666D01*
X202001429Y-125126666D01*
X202191905Y-125174285D01*
X202287143Y-125221904D01*
X202334762Y-125269523D01*
X202382381Y-125364761D01*
X202382381Y-125460000D01*
X202334762Y-125555238D01*
X202287143Y-125602857D01*
X202191905Y-125650476D01*
X202001429Y-125698095D01*
X201763333Y-125698095D01*
X201572857Y-125650476D01*
X201477619Y-125602857D01*
X201430000Y-125555238D01*
X201382381Y-125460000D01*
X201382381Y-124507619D02*
X201382381Y-124412380D01*
X201430000Y-124317142D01*
X201477619Y-124269523D01*
X201572857Y-124221904D01*
X201763333Y-124174285D01*
X202001429Y-124174285D01*
X202191905Y-124221904D01*
X202287143Y-124269523D01*
X202334762Y-124317142D01*
X202382381Y-124412380D01*
X202382381Y-124507619D01*
X202334762Y-124602857D01*
X202287143Y-124650476D01*
X202191905Y-124698095D01*
X202001429Y-124745714D01*
X201763333Y-124745714D01*
X201572857Y-124698095D01*
X201477619Y-124650476D01*
X201430000Y-124602857D01*
X201382381Y-124507619D01*
X201715714Y-123745714D02*
X202715714Y-123745714D01*
X202239524Y-123269523D02*
X202334762Y-123221904D01*
X202382381Y-123126666D01*
X202239524Y-123745714D02*
X202334762Y-123698095D01*
X202382381Y-123602857D01*
X202382381Y-123412380D01*
X202334762Y-123317142D01*
X202239524Y-123269523D01*
X201715714Y-123269523D01*
X201858571Y-122364761D02*
X201858571Y-122698095D01*
X202382381Y-122698095D02*
X201382381Y-122698095D01*
X201382381Y-122221904D01*
X144359334Y-75033143D02*
X144311715Y-75080762D01*
X144168858Y-75128381D01*
X144073620Y-75128381D01*
X143930762Y-75080762D01*
X143835524Y-74985524D01*
X143787905Y-74890286D01*
X143740286Y-74699810D01*
X143740286Y-74556952D01*
X143787905Y-74366476D01*
X143835524Y-74271238D01*
X143930762Y-74176000D01*
X144073620Y-74128381D01*
X144168858Y-74128381D01*
X144311715Y-74176000D01*
X144359334Y-74223619D01*
X144835524Y-75128381D02*
X145026000Y-75128381D01*
X145121239Y-75080762D01*
X145168858Y-75033143D01*
X145264096Y-74890286D01*
X145311715Y-74699810D01*
X145311715Y-74318857D01*
X145264096Y-74223619D01*
X145216477Y-74176000D01*
X145121239Y-74128381D01*
X144930762Y-74128381D01*
X144835524Y-74176000D01*
X144787905Y-74223619D01*
X144740286Y-74318857D01*
X144740286Y-74556952D01*
X144787905Y-74652190D01*
X144835524Y-74699810D01*
X144930762Y-74747429D01*
X145121239Y-74747429D01*
X145216477Y-74699810D01*
X145264096Y-74652190D01*
X145311715Y-74556952D01*
X97258143Y-121292857D02*
X97305762Y-121340476D01*
X97353381Y-121483333D01*
X97353381Y-121578571D01*
X97305762Y-121721429D01*
X97210524Y-121816667D01*
X97115286Y-121864286D01*
X96924810Y-121911905D01*
X96781952Y-121911905D01*
X96591476Y-121864286D01*
X96496238Y-121816667D01*
X96401000Y-121721429D01*
X96353381Y-121578571D01*
X96353381Y-121483333D01*
X96401000Y-121340476D01*
X96448619Y-121292857D01*
X97353381Y-120340476D02*
X97353381Y-120911905D01*
X97353381Y-120626191D02*
X96353381Y-120626191D01*
X96496238Y-120721429D01*
X96591476Y-120816667D01*
X96639095Y-120911905D01*
X96353381Y-119721429D02*
X96353381Y-119626190D01*
X96401000Y-119530952D01*
X96448619Y-119483333D01*
X96543857Y-119435714D01*
X96734333Y-119388095D01*
X96972429Y-119388095D01*
X97162905Y-119435714D01*
X97258143Y-119483333D01*
X97305762Y-119530952D01*
X97353381Y-119626190D01*
X97353381Y-119721429D01*
X97305762Y-119816667D01*
X97258143Y-119864286D01*
X97162905Y-119911905D01*
X96972429Y-119959524D01*
X96734333Y-119959524D01*
X96543857Y-119911905D01*
X96448619Y-119864286D01*
X96401000Y-119816667D01*
X96353381Y-119721429D01*
X128722381Y-108926190D02*
X127722381Y-108926190D01*
X128627143Y-107878571D02*
X128674762Y-107926190D01*
X128722381Y-108069047D01*
X128722381Y-108164285D01*
X128674762Y-108307143D01*
X128579524Y-108402381D01*
X128484286Y-108450000D01*
X128293810Y-108497619D01*
X128150952Y-108497619D01*
X127960476Y-108450000D01*
X127865238Y-108402381D01*
X127770000Y-108307143D01*
X127722381Y-108164285D01*
X127722381Y-108069047D01*
X127770000Y-107926190D01*
X127817619Y-107878571D01*
X128722381Y-106926190D02*
X128722381Y-107497619D01*
X128722381Y-107211905D02*
X127722381Y-107211905D01*
X127865238Y-107307143D01*
X127960476Y-107402381D01*
X128008095Y-107497619D01*
X128436667Y-130531667D02*
X128436667Y-130055476D01*
X128722381Y-130626905D02*
X127722381Y-130293572D01*
X128722381Y-129960238D01*
X127722381Y-129769762D02*
X127722381Y-129198333D01*
X128722381Y-129484048D02*
X127722381Y-129484048D01*
X128722381Y-128865000D02*
X127722381Y-128865000D01*
X128436667Y-128531666D01*
X127722381Y-128198333D01*
X128722381Y-128198333D01*
X128198571Y-127722143D02*
X128198571Y-127388809D01*
X128722381Y-127245952D02*
X128722381Y-127722143D01*
X127722381Y-127722143D01*
X127722381Y-127245952D01*
X127770000Y-126293571D02*
X127722381Y-126388809D01*
X127722381Y-126531666D01*
X127770000Y-126674524D01*
X127865238Y-126769762D01*
X127960476Y-126817381D01*
X128150952Y-126865000D01*
X128293810Y-126865000D01*
X128484286Y-126817381D01*
X128579524Y-126769762D01*
X128674762Y-126674524D01*
X128722381Y-126531666D01*
X128722381Y-126436428D01*
X128674762Y-126293571D01*
X128627143Y-126245952D01*
X128293810Y-126245952D01*
X128293810Y-126436428D01*
X128436667Y-125865000D02*
X128436667Y-125388809D01*
X128722381Y-125960238D02*
X127722381Y-125626905D01*
X128722381Y-125293571D01*
X128150952Y-124817381D02*
X128103333Y-124912619D01*
X128055714Y-124960238D01*
X127960476Y-125007857D01*
X127912857Y-125007857D01*
X127817619Y-124960238D01*
X127770000Y-124912619D01*
X127722381Y-124817381D01*
X127722381Y-124626904D01*
X127770000Y-124531666D01*
X127817619Y-124484047D01*
X127912857Y-124436428D01*
X127960476Y-124436428D01*
X128055714Y-124484047D01*
X128103333Y-124531666D01*
X128150952Y-124626904D01*
X128150952Y-124817381D01*
X128198571Y-124912619D01*
X128246190Y-124960238D01*
X128341429Y-125007857D01*
X128531905Y-125007857D01*
X128627143Y-124960238D01*
X128674762Y-124912619D01*
X128722381Y-124817381D01*
X128722381Y-124626904D01*
X128674762Y-124531666D01*
X128627143Y-124484047D01*
X128531905Y-124436428D01*
X128341429Y-124436428D01*
X128246190Y-124484047D01*
X128198571Y-124531666D01*
X128150952Y-124626904D01*
X128341429Y-124007857D02*
X128341429Y-123245952D01*
X128722381Y-122769762D02*
X127722381Y-122769762D01*
X127722381Y-122388809D01*
X127770000Y-122293571D01*
X127817619Y-122245952D01*
X127912857Y-122198333D01*
X128055714Y-122198333D01*
X128150952Y-122245952D01*
X128198571Y-122293571D01*
X128246190Y-122388809D01*
X128246190Y-122769762D01*
X145311905Y-108402381D02*
X145311905Y-107402381D01*
X145692858Y-107402381D01*
X145788096Y-107450000D01*
X145835715Y-107497619D01*
X145883334Y-107592857D01*
X145883334Y-107735714D01*
X145835715Y-107830952D01*
X145788096Y-107878571D01*
X145692858Y-107926190D01*
X145311905Y-107926190D01*
X146216667Y-107402381D02*
X146835715Y-107402381D01*
X146502381Y-107783333D01*
X146645239Y-107783333D01*
X146740477Y-107830952D01*
X146788096Y-107878571D01*
X146835715Y-107973810D01*
X146835715Y-108211905D01*
X146788096Y-108307143D01*
X146740477Y-108354762D01*
X146645239Y-108402381D01*
X146359524Y-108402381D01*
X146264286Y-108354762D01*
X146216667Y-108307143D01*
X184681905Y-109672381D02*
X184681905Y-108672381D01*
X185062858Y-108672381D01*
X185158096Y-108720000D01*
X185205715Y-108767619D01*
X185253334Y-108862857D01*
X185253334Y-109005714D01*
X185205715Y-109100952D01*
X185158096Y-109148571D01*
X185062858Y-109196190D01*
X184681905Y-109196190D01*
X186110477Y-109005714D02*
X186110477Y-109672381D01*
X185872381Y-108624762D02*
X185634286Y-109339048D01*
X186253334Y-109339048D01*
X184681905Y-98242381D02*
X184681905Y-97242381D01*
X185062858Y-97242381D01*
X185158096Y-97290000D01*
X185205715Y-97337619D01*
X185253334Y-97432857D01*
X185253334Y-97575714D01*
X185205715Y-97670952D01*
X185158096Y-97718571D01*
X185062858Y-97766190D01*
X184681905Y-97766190D01*
X186110477Y-97242381D02*
X185920000Y-97242381D01*
X185824762Y-97290000D01*
X185777143Y-97337619D01*
X185681905Y-97480476D01*
X185634286Y-97670952D01*
X185634286Y-98051905D01*
X185681905Y-98147143D01*
X185729524Y-98194762D01*
X185824762Y-98242381D01*
X186015239Y-98242381D01*
X186110477Y-98194762D01*
X186158096Y-98147143D01*
X186205715Y-98051905D01*
X186205715Y-97813810D01*
X186158096Y-97718571D01*
X186110477Y-97670952D01*
X186015239Y-97623333D01*
X185824762Y-97623333D01*
X185729524Y-97670952D01*
X185681905Y-97718571D01*
X185634286Y-97813810D01*
X184681905Y-86812381D02*
X184681905Y-85812381D01*
X185062858Y-85812381D01*
X185158096Y-85860000D01*
X185205715Y-85907619D01*
X185253334Y-86002857D01*
X185253334Y-86145714D01*
X185205715Y-86240952D01*
X185158096Y-86288571D01*
X185062858Y-86336190D01*
X184681905Y-86336190D01*
X185586667Y-85812381D02*
X186253334Y-85812381D01*
X185824762Y-86812381D01*
X88590381Y-98290047D02*
X88590381Y-98861476D01*
X88590381Y-98575762D02*
X87590381Y-98575762D01*
X87733238Y-98671000D01*
X87828476Y-98766238D01*
X87876095Y-98861476D01*
X88590381Y-97861476D02*
X87590381Y-97861476D01*
X88209429Y-97766238D02*
X88590381Y-97480523D01*
X87923714Y-97480523D02*
X88304667Y-97861476D01*
X86050381Y-98290047D02*
X86050381Y-98861476D01*
X86050381Y-98575762D02*
X85050381Y-98575762D01*
X85193238Y-98671000D01*
X85288476Y-98766238D01*
X85336095Y-98861476D01*
X86050381Y-97861476D02*
X85050381Y-97861476D01*
X85669429Y-97766238D02*
X86050381Y-97480523D01*
X85383714Y-97480523D02*
X85764667Y-97861476D01*
X83510381Y-98290047D02*
X83510381Y-98861476D01*
X83510381Y-98575762D02*
X82510381Y-98575762D01*
X82653238Y-98671000D01*
X82748476Y-98766238D01*
X82796095Y-98861476D01*
X83510381Y-97861476D02*
X82510381Y-97861476D01*
X83129429Y-97766238D02*
X83510381Y-97480523D01*
X82843714Y-97480523D02*
X83224667Y-97861476D01*
X80970381Y-98290047D02*
X80970381Y-98861476D01*
X80970381Y-98575762D02*
X79970381Y-98575762D01*
X80113238Y-98671000D01*
X80208476Y-98766238D01*
X80256095Y-98861476D01*
X80970381Y-97861476D02*
X79970381Y-97861476D01*
X80589429Y-97766238D02*
X80970381Y-97480523D01*
X80303714Y-97480523D02*
X80684667Y-97861476D01*
X91130381Y-98290047D02*
X91130381Y-98861476D01*
X91130381Y-98575762D02*
X90130381Y-98575762D01*
X90273238Y-98671000D01*
X90368476Y-98766238D01*
X90416095Y-98861476D01*
X91130381Y-97861476D02*
X90130381Y-97861476D01*
X90749429Y-97766238D02*
X91130381Y-97480523D01*
X90463714Y-97480523D02*
X90844667Y-97861476D01*
X163139381Y-85780476D02*
X163139381Y-86351905D01*
X163139381Y-86066191D02*
X162139381Y-86066191D01*
X162282238Y-86161429D01*
X162377476Y-86256667D01*
X162425095Y-86351905D01*
X162234619Y-85399524D02*
X162187000Y-85351905D01*
X162139381Y-85256667D01*
X162139381Y-85018571D01*
X162187000Y-84923333D01*
X162234619Y-84875714D01*
X162329857Y-84828095D01*
X162425095Y-84828095D01*
X162567952Y-84875714D01*
X163139381Y-85447143D01*
X163139381Y-84828095D01*
X163139381Y-84399524D02*
X162139381Y-84399524D01*
X163139381Y-83828095D02*
X162567952Y-84256667D01*
X162139381Y-83828095D02*
X162710810Y-84399524D01*
X160599381Y-85780476D02*
X160599381Y-86351905D01*
X160599381Y-86066191D02*
X159599381Y-86066191D01*
X159742238Y-86161429D01*
X159837476Y-86256667D01*
X159885095Y-86351905D01*
X159694619Y-85399524D02*
X159647000Y-85351905D01*
X159599381Y-85256667D01*
X159599381Y-85018571D01*
X159647000Y-84923333D01*
X159694619Y-84875714D01*
X159789857Y-84828095D01*
X159885095Y-84828095D01*
X160027952Y-84875714D01*
X160599381Y-85447143D01*
X160599381Y-84828095D01*
X160599381Y-84399524D02*
X159599381Y-84399524D01*
X160599381Y-83828095D02*
X160027952Y-84256667D01*
X159599381Y-83828095D02*
X160170810Y-84399524D01*
X152979381Y-85780476D02*
X152979381Y-86351905D01*
X152979381Y-86066191D02*
X151979381Y-86066191D01*
X152122238Y-86161429D01*
X152217476Y-86256667D01*
X152265095Y-86351905D01*
X152074619Y-85399524D02*
X152027000Y-85351905D01*
X151979381Y-85256667D01*
X151979381Y-85018571D01*
X152027000Y-84923333D01*
X152074619Y-84875714D01*
X152169857Y-84828095D01*
X152265095Y-84828095D01*
X152407952Y-84875714D01*
X152979381Y-85447143D01*
X152979381Y-84828095D01*
X152979381Y-84399524D02*
X151979381Y-84399524D01*
X152979381Y-83828095D02*
X152407952Y-84256667D01*
X151979381Y-83828095D02*
X152550810Y-84399524D01*
X150439381Y-85780476D02*
X150439381Y-86351905D01*
X150439381Y-86066191D02*
X149439381Y-86066191D01*
X149582238Y-86161429D01*
X149677476Y-86256667D01*
X149725095Y-86351905D01*
X149534619Y-85399524D02*
X149487000Y-85351905D01*
X149439381Y-85256667D01*
X149439381Y-85018571D01*
X149487000Y-84923333D01*
X149534619Y-84875714D01*
X149629857Y-84828095D01*
X149725095Y-84828095D01*
X149867952Y-84875714D01*
X150439381Y-85447143D01*
X150439381Y-84828095D01*
X150439381Y-84399524D02*
X149439381Y-84399524D01*
X150439381Y-83828095D02*
X149867952Y-84256667D01*
X149439381Y-83828095D02*
X150010810Y-84399524D01*
X158059381Y-85780476D02*
X158059381Y-86351905D01*
X158059381Y-86066191D02*
X157059381Y-86066191D01*
X157202238Y-86161429D01*
X157297476Y-86256667D01*
X157345095Y-86351905D01*
X157154619Y-85399524D02*
X157107000Y-85351905D01*
X157059381Y-85256667D01*
X157059381Y-85018571D01*
X157107000Y-84923333D01*
X157154619Y-84875714D01*
X157249857Y-84828095D01*
X157345095Y-84828095D01*
X157487952Y-84875714D01*
X158059381Y-85447143D01*
X158059381Y-84828095D01*
X158059381Y-84399524D02*
X157059381Y-84399524D01*
X158059381Y-83828095D02*
X157487952Y-84256667D01*
X157059381Y-83828095D02*
X157630810Y-84399524D01*
X155519381Y-85780476D02*
X155519381Y-86351905D01*
X155519381Y-86066191D02*
X154519381Y-86066191D01*
X154662238Y-86161429D01*
X154757476Y-86256667D01*
X154805095Y-86351905D01*
X154614619Y-85399524D02*
X154567000Y-85351905D01*
X154519381Y-85256667D01*
X154519381Y-85018571D01*
X154567000Y-84923333D01*
X154614619Y-84875714D01*
X154709857Y-84828095D01*
X154805095Y-84828095D01*
X154947952Y-84875714D01*
X155519381Y-85447143D01*
X155519381Y-84828095D01*
X155519381Y-84399524D02*
X154519381Y-84399524D01*
X155519381Y-83828095D02*
X154947952Y-84256667D01*
X154519381Y-83828095D02*
X155090810Y-84399524D01*
X114331905Y-79430619D02*
X114379524Y-79383000D01*
X114474762Y-79335381D01*
X114712858Y-79335381D01*
X114808096Y-79383000D01*
X114855715Y-79430619D01*
X114903334Y-79525857D01*
X114903334Y-79621095D01*
X114855715Y-79763952D01*
X114284286Y-80335381D01*
X114903334Y-80335381D01*
X115284286Y-79430619D02*
X115331905Y-79383000D01*
X115427143Y-79335381D01*
X115665239Y-79335381D01*
X115760477Y-79383000D01*
X115808096Y-79430619D01*
X115855715Y-79525857D01*
X115855715Y-79621095D01*
X115808096Y-79763952D01*
X115236667Y-80335381D01*
X115855715Y-80335381D01*
X116474762Y-79335381D02*
X116570001Y-79335381D01*
X116665239Y-79383000D01*
X116712858Y-79430619D01*
X116760477Y-79525857D01*
X116808096Y-79716333D01*
X116808096Y-79954429D01*
X116760477Y-80144905D01*
X116712858Y-80240143D01*
X116665239Y-80287762D01*
X116570001Y-80335381D01*
X116474762Y-80335381D01*
X116379524Y-80287762D01*
X116331905Y-80240143D01*
X116284286Y-80144905D01*
X116236667Y-79954429D01*
X116236667Y-79716333D01*
X116284286Y-79525857D01*
X116331905Y-79430619D01*
X116379524Y-79383000D01*
X116474762Y-79335381D01*
X114331905Y-81970619D02*
X114379524Y-81923000D01*
X114474762Y-81875381D01*
X114712858Y-81875381D01*
X114808096Y-81923000D01*
X114855715Y-81970619D01*
X114903334Y-82065857D01*
X114903334Y-82161095D01*
X114855715Y-82303952D01*
X114284286Y-82875381D01*
X114903334Y-82875381D01*
X115284286Y-81970619D02*
X115331905Y-81923000D01*
X115427143Y-81875381D01*
X115665239Y-81875381D01*
X115760477Y-81923000D01*
X115808096Y-81970619D01*
X115855715Y-82065857D01*
X115855715Y-82161095D01*
X115808096Y-82303952D01*
X115236667Y-82875381D01*
X115855715Y-82875381D01*
X116474762Y-81875381D02*
X116570001Y-81875381D01*
X116665239Y-81923000D01*
X116712858Y-81970619D01*
X116760477Y-82065857D01*
X116808096Y-82256333D01*
X116808096Y-82494429D01*
X116760477Y-82684905D01*
X116712858Y-82780143D01*
X116665239Y-82827762D01*
X116570001Y-82875381D01*
X116474762Y-82875381D01*
X116379524Y-82827762D01*
X116331905Y-82780143D01*
X116284286Y-82684905D01*
X116236667Y-82494429D01*
X116236667Y-82256333D01*
X116284286Y-82065857D01*
X116331905Y-81970619D01*
X116379524Y-81923000D01*
X116474762Y-81875381D01*
X115355715Y-75255381D02*
X114784286Y-75255381D01*
X115070000Y-75255381D02*
X115070000Y-74255381D01*
X114974762Y-74398238D01*
X114879524Y-74493476D01*
X114784286Y-74541095D01*
X115784286Y-75255381D02*
X115784286Y-74255381D01*
X116355715Y-75255381D02*
X115927143Y-74683952D01*
X116355715Y-74255381D02*
X115784286Y-74826810D01*
X115355715Y-77795381D02*
X114784286Y-77795381D01*
X115070000Y-77795381D02*
X115070000Y-76795381D01*
X114974762Y-76938238D01*
X114879524Y-77033476D01*
X114784286Y-77081095D01*
X115784286Y-77795381D02*
X115784286Y-76795381D01*
X116355715Y-77795381D02*
X115927143Y-77223952D01*
X116355715Y-76795381D02*
X115784286Y-77366810D01*
X149098095Y-56602381D02*
X149098095Y-57411905D01*
X149145714Y-57507143D01*
X149193333Y-57554762D01*
X149288571Y-57602381D01*
X149479048Y-57602381D01*
X149574286Y-57554762D01*
X149621905Y-57507143D01*
X149669524Y-57411905D01*
X149669524Y-56602381D01*
X150669524Y-57602381D02*
X150098095Y-57602381D01*
X150383809Y-57602381D02*
X150383809Y-56602381D01*
X150288571Y-56745238D01*
X150193333Y-56840476D01*
X150098095Y-56888095D01*
X165790953Y-63000000D02*
X165695715Y-62952381D01*
X165552858Y-62952381D01*
X165410000Y-63000000D01*
X165314762Y-63095238D01*
X165267143Y-63190476D01*
X165219524Y-63380952D01*
X165219524Y-63523810D01*
X165267143Y-63714286D01*
X165314762Y-63809524D01*
X165410000Y-63904762D01*
X165552858Y-63952381D01*
X165648096Y-63952381D01*
X165790953Y-63904762D01*
X165838572Y-63857143D01*
X165838572Y-63523810D01*
X165648096Y-63523810D01*
X166695715Y-62952381D02*
X166505238Y-62952381D01*
X166410000Y-63000000D01*
X166362381Y-63047619D01*
X166267143Y-63190476D01*
X166219524Y-63380952D01*
X166219524Y-63761905D01*
X166267143Y-63857143D01*
X166314762Y-63904762D01*
X166410000Y-63952381D01*
X166600477Y-63952381D01*
X166695715Y-63904762D01*
X166743334Y-63857143D01*
X166790953Y-63761905D01*
X166790953Y-63523810D01*
X166743334Y-63428571D01*
X166695715Y-63380952D01*
X166600477Y-63333333D01*
X166410000Y-63333333D01*
X166314762Y-63380952D01*
X166267143Y-63428571D01*
X166219524Y-63523810D01*
X167695715Y-62952381D02*
X167219524Y-62952381D01*
X167171905Y-63428571D01*
X167219524Y-63380952D01*
X167314762Y-63333333D01*
X167552858Y-63333333D01*
X167648096Y-63380952D01*
X167695715Y-63428571D01*
X167743334Y-63523810D01*
X167743334Y-63761905D01*
X167695715Y-63857143D01*
X167648096Y-63904762D01*
X167552858Y-63952381D01*
X167314762Y-63952381D01*
X167219524Y-63904762D01*
X167171905Y-63857143D01*
X168124286Y-63904762D02*
X168267143Y-63952381D01*
X168505239Y-63952381D01*
X168600477Y-63904762D01*
X168648096Y-63857143D01*
X168695715Y-63761905D01*
X168695715Y-63666667D01*
X168648096Y-63571429D01*
X168600477Y-63523810D01*
X168505239Y-63476190D01*
X168314762Y-63428571D01*
X168219524Y-63380952D01*
X168171905Y-63333333D01*
X168124286Y-63238095D01*
X168124286Y-63142857D01*
X168171905Y-63047619D01*
X168219524Y-63000000D01*
X168314762Y-62952381D01*
X168552858Y-62952381D01*
X168695715Y-63000000D01*
X169695715Y-63857143D02*
X169648096Y-63904762D01*
X169505239Y-63952381D01*
X169410001Y-63952381D01*
X169267143Y-63904762D01*
X169171905Y-63809524D01*
X169124286Y-63714286D01*
X169076667Y-63523810D01*
X169076667Y-63380952D01*
X169124286Y-63190476D01*
X169171905Y-63095238D01*
X169267143Y-63000000D01*
X169410001Y-62952381D01*
X169505239Y-62952381D01*
X169648096Y-63000000D01*
X169695715Y-63047619D01*
X170076667Y-63047619D02*
X170124286Y-63000000D01*
X170219524Y-62952381D01*
X170457620Y-62952381D01*
X170552858Y-63000000D01*
X170600477Y-63047619D01*
X170648096Y-63142857D01*
X170648096Y-63238095D01*
X170600477Y-63380952D01*
X170029048Y-63952381D01*
X170648096Y-63952381D01*
X171029048Y-63047619D02*
X171076667Y-63000000D01*
X171171905Y-62952381D01*
X171410001Y-62952381D01*
X171505239Y-63000000D01*
X171552858Y-63047619D01*
X171600477Y-63142857D01*
X171600477Y-63238095D01*
X171552858Y-63380952D01*
X170981429Y-63952381D01*
X171600477Y-63952381D01*
X172029048Y-63952381D02*
X172029048Y-62952381D01*
X172410001Y-62952381D01*
X172505239Y-63000000D01*
X172552858Y-63047619D01*
X172600477Y-63142857D01*
X172600477Y-63285714D01*
X172552858Y-63380952D01*
X172505239Y-63428571D01*
X172410001Y-63476190D01*
X172029048Y-63476190D01*
X103378095Y-134072381D02*
X103378095Y-134881905D01*
X103425714Y-134977143D01*
X103473333Y-135024762D01*
X103568571Y-135072381D01*
X103759048Y-135072381D01*
X103854286Y-135024762D01*
X103901905Y-134977143D01*
X103949524Y-134881905D01*
X103949524Y-134072381D01*
X104378095Y-134167619D02*
X104425714Y-134120000D01*
X104520952Y-134072381D01*
X104759048Y-134072381D01*
X104854286Y-134120000D01*
X104901905Y-134167619D01*
X104949524Y-134262857D01*
X104949524Y-134358095D01*
X104901905Y-134500952D01*
X104330476Y-135072381D01*
X104949524Y-135072381D01*
X108728095Y-136612381D02*
X109394762Y-136612381D01*
X108966190Y-137612381D01*
X110204286Y-136945714D02*
X110204286Y-137612381D01*
X109966190Y-136564762D02*
X109728095Y-137279048D01*
X110347143Y-137279048D01*
X110918571Y-136612381D02*
X111013810Y-136612381D01*
X111109048Y-136660000D01*
X111156667Y-136707619D01*
X111204286Y-136802857D01*
X111251905Y-136993333D01*
X111251905Y-137231429D01*
X111204286Y-137421905D01*
X111156667Y-137517143D01*
X111109048Y-137564762D01*
X111013810Y-137612381D01*
X110918571Y-137612381D01*
X110823333Y-137564762D01*
X110775714Y-137517143D01*
X110728095Y-137421905D01*
X110680476Y-137231429D01*
X110680476Y-136993333D01*
X110728095Y-136802857D01*
X110775714Y-136707619D01*
X110823333Y-136660000D01*
X110918571Y-136612381D01*
X111585238Y-136612381D02*
X112251905Y-136612381D01*
X111823333Y-137612381D01*
X142962381Y-80771905D02*
X143771905Y-80771905D01*
X143867143Y-80724286D01*
X143914762Y-80676667D01*
X143962381Y-80581429D01*
X143962381Y-80390952D01*
X143914762Y-80295714D01*
X143867143Y-80248095D01*
X143771905Y-80200476D01*
X142962381Y-80200476D01*
X142962381Y-79819524D02*
X142962381Y-79200476D01*
X143343333Y-79533810D01*
X143343333Y-79390952D01*
X143390952Y-79295714D01*
X143438571Y-79248095D01*
X143533810Y-79200476D01*
X143771905Y-79200476D01*
X143867143Y-79248095D01*
X143914762Y-79295714D01*
X143962381Y-79390952D01*
X143962381Y-79676667D01*
X143914762Y-79771905D01*
X143867143Y-79819524D01*
X140422381Y-88121905D02*
X140422381Y-87455238D01*
X141422381Y-87883810D01*
X140755714Y-86645714D02*
X141422381Y-86645714D01*
X140374762Y-86883810D02*
X141089048Y-87121905D01*
X141089048Y-86502857D01*
X140422381Y-85931429D02*
X140422381Y-85836190D01*
X140470000Y-85740952D01*
X140517619Y-85693333D01*
X140612857Y-85645714D01*
X140803333Y-85598095D01*
X141041429Y-85598095D01*
X141231905Y-85645714D01*
X141327143Y-85693333D01*
X141374762Y-85740952D01*
X141422381Y-85836190D01*
X141422381Y-85931429D01*
X141374762Y-86026667D01*
X141327143Y-86074286D01*
X141231905Y-86121905D01*
X141041429Y-86169524D01*
X140803333Y-86169524D01*
X140612857Y-86121905D01*
X140517619Y-86074286D01*
X140470000Y-86026667D01*
X140422381Y-85931429D01*
X140422381Y-84979048D02*
X140422381Y-84883809D01*
X140470000Y-84788571D01*
X140517619Y-84740952D01*
X140612857Y-84693333D01*
X140803333Y-84645714D01*
X141041429Y-84645714D01*
X141231905Y-84693333D01*
X141327143Y-84740952D01*
X141374762Y-84788571D01*
X141422381Y-84883809D01*
X141422381Y-84979048D01*
X141374762Y-85074286D01*
X141327143Y-85121905D01*
X141231905Y-85169524D01*
X141041429Y-85217143D01*
X140803333Y-85217143D01*
X140612857Y-85169524D01*
X140517619Y-85121905D01*
X140470000Y-85074286D01*
X140422381Y-84979048D01*
X170902381Y-96011905D02*
X171711905Y-96011905D01*
X171807143Y-95964286D01*
X171854762Y-95916667D01*
X171902381Y-95821429D01*
X171902381Y-95630952D01*
X171854762Y-95535714D01*
X171807143Y-95488095D01*
X171711905Y-95440476D01*
X170902381Y-95440476D01*
X171235714Y-94535714D02*
X171902381Y-94535714D01*
X170854762Y-94773810D02*
X171569048Y-95011905D01*
X171569048Y-94392857D01*
X168362381Y-103838095D02*
X168362381Y-103171428D01*
X169362381Y-103600000D01*
X168695714Y-102361904D02*
X169362381Y-102361904D01*
X168314762Y-102600000D02*
X169029048Y-102838095D01*
X169029048Y-102219047D01*
X169362381Y-101314285D02*
X169362381Y-101885714D01*
X169362381Y-101600000D02*
X168362381Y-101600000D01*
X168505238Y-101695238D01*
X168600476Y-101790476D01*
X168648095Y-101885714D01*
X168457619Y-100933333D02*
X168410000Y-100885714D01*
X168362381Y-100790476D01*
X168362381Y-100552380D01*
X168410000Y-100457142D01*
X168457619Y-100409523D01*
X168552857Y-100361904D01*
X168648095Y-100361904D01*
X168790952Y-100409523D01*
X169362381Y-100980952D01*
X169362381Y-100361904D01*
X168362381Y-99457142D02*
X168362381Y-99933333D01*
X168838571Y-99980952D01*
X168790952Y-99933333D01*
X168743333Y-99838095D01*
X168743333Y-99599999D01*
X168790952Y-99504761D01*
X168838571Y-99457142D01*
X168933810Y-99409523D01*
X169171905Y-99409523D01*
X169267143Y-99457142D01*
X169314762Y-99504761D01*
X169362381Y-99599999D01*
X169362381Y-99838095D01*
X169314762Y-99933333D01*
X169267143Y-99980952D01*
X75501595Y-90955881D02*
X75501595Y-91765405D01*
X75549214Y-91860643D01*
X75596833Y-91908262D01*
X75692071Y-91955881D01*
X75882548Y-91955881D01*
X75977786Y-91908262D01*
X76025405Y-91860643D01*
X76073024Y-91765405D01*
X76073024Y-90955881D01*
X77025405Y-90955881D02*
X76549214Y-90955881D01*
X76501595Y-91432071D01*
X76549214Y-91384452D01*
X76644452Y-91336833D01*
X76882548Y-91336833D01*
X76977786Y-91384452D01*
X77025405Y-91432071D01*
X77073024Y-91527310D01*
X77073024Y-91765405D01*
X77025405Y-91860643D01*
X76977786Y-91908262D01*
X76882548Y-91955881D01*
X76644452Y-91955881D01*
X76549214Y-91908262D01*
X76501595Y-91860643D01*
X71564762Y-102750881D02*
X71088571Y-102750881D01*
X71088571Y-101750881D01*
X71898095Y-102750881D02*
X71898095Y-101750881D01*
X72279048Y-101750881D01*
X72374286Y-101798500D01*
X72421905Y-101846119D01*
X72469524Y-101941357D01*
X72469524Y-102084214D01*
X72421905Y-102179452D01*
X72374286Y-102227071D01*
X72279048Y-102274690D01*
X71898095Y-102274690D01*
X72850476Y-101846119D02*
X72898095Y-101798500D01*
X72993333Y-101750881D01*
X73231429Y-101750881D01*
X73326667Y-101798500D01*
X73374286Y-101846119D01*
X73421905Y-101941357D01*
X73421905Y-102036595D01*
X73374286Y-102179452D01*
X72802857Y-102750881D01*
X73421905Y-102750881D01*
X73898095Y-102750881D02*
X74088571Y-102750881D01*
X74183810Y-102703262D01*
X74231429Y-102655643D01*
X74326667Y-102512786D01*
X74374286Y-102322310D01*
X74374286Y-101941357D01*
X74326667Y-101846119D01*
X74279048Y-101798500D01*
X74183810Y-101750881D01*
X73993333Y-101750881D01*
X73898095Y-101798500D01*
X73850476Y-101846119D01*
X73802857Y-101941357D01*
X73802857Y-102179452D01*
X73850476Y-102274690D01*
X73898095Y-102322310D01*
X73993333Y-102369929D01*
X74183810Y-102369929D01*
X74279048Y-102322310D01*
X74326667Y-102274690D01*
X74374286Y-102179452D01*
X75279048Y-101750881D02*
X74802857Y-101750881D01*
X74755238Y-102227071D01*
X74802857Y-102179452D01*
X74898095Y-102131833D01*
X75136191Y-102131833D01*
X75231429Y-102179452D01*
X75279048Y-102227071D01*
X75326667Y-102322310D01*
X75326667Y-102560405D01*
X75279048Y-102655643D01*
X75231429Y-102703262D01*
X75136191Y-102750881D01*
X74898095Y-102750881D01*
X74802857Y-102703262D01*
X74755238Y-102655643D01*
X75945714Y-101750881D02*
X76040953Y-101750881D01*
X76136191Y-101798500D01*
X76183810Y-101846119D01*
X76231429Y-101941357D01*
X76279048Y-102131833D01*
X76279048Y-102369929D01*
X76231429Y-102560405D01*
X76183810Y-102655643D01*
X76136191Y-102703262D01*
X76040953Y-102750881D01*
X75945714Y-102750881D01*
X75850476Y-102703262D01*
X75802857Y-102655643D01*
X75755238Y-102560405D01*
X75707619Y-102369929D01*
X75707619Y-102131833D01*
X75755238Y-101941357D01*
X75802857Y-101846119D01*
X75850476Y-101798500D01*
X75945714Y-101750881D01*
X103592381Y-78231905D02*
X104401905Y-78231905D01*
X104497143Y-78184286D01*
X104544762Y-78136667D01*
X104592381Y-78041429D01*
X104592381Y-77850952D01*
X104544762Y-77755714D01*
X104497143Y-77708095D01*
X104401905Y-77660476D01*
X103592381Y-77660476D01*
X103592381Y-76755714D02*
X103592381Y-76946191D01*
X103640000Y-77041429D01*
X103687619Y-77089048D01*
X103830476Y-77184286D01*
X104020952Y-77231905D01*
X104401905Y-77231905D01*
X104497143Y-77184286D01*
X104544762Y-77136667D01*
X104592381Y-77041429D01*
X104592381Y-76850952D01*
X104544762Y-76755714D01*
X104497143Y-76708095D01*
X104401905Y-76660476D01*
X104163810Y-76660476D01*
X104068571Y-76708095D01*
X104020952Y-76755714D01*
X103973333Y-76850952D01*
X103973333Y-77041429D01*
X104020952Y-77136667D01*
X104068571Y-77184286D01*
X104163810Y-77231905D01*
X102052381Y-87018571D02*
X102052381Y-87494762D01*
X101052381Y-87494762D01*
X101052381Y-86828095D02*
X101052381Y-86256666D01*
X102052381Y-86542381D02*
X101052381Y-86542381D01*
X101052381Y-86066190D02*
X102052381Y-85732857D01*
X101052381Y-85399523D01*
X101480952Y-84923333D02*
X101433333Y-85018571D01*
X101385714Y-85066190D01*
X101290476Y-85113809D01*
X101242857Y-85113809D01*
X101147619Y-85066190D01*
X101100000Y-85018571D01*
X101052381Y-84923333D01*
X101052381Y-84732856D01*
X101100000Y-84637618D01*
X101147619Y-84589999D01*
X101242857Y-84542380D01*
X101290476Y-84542380D01*
X101385714Y-84589999D01*
X101433333Y-84637618D01*
X101480952Y-84732856D01*
X101480952Y-84923333D01*
X101528571Y-85018571D01*
X101576190Y-85066190D01*
X101671429Y-85113809D01*
X101861905Y-85113809D01*
X101957143Y-85066190D01*
X102004762Y-85018571D01*
X102052381Y-84923333D01*
X102052381Y-84732856D01*
X102004762Y-84637618D01*
X101957143Y-84589999D01*
X101861905Y-84542380D01*
X101671429Y-84542380D01*
X101576190Y-84589999D01*
X101528571Y-84637618D01*
X101480952Y-84732856D01*
X101385714Y-83685237D02*
X102052381Y-83685237D01*
X101004762Y-83923333D02*
X101719048Y-84161428D01*
X101719048Y-83542380D01*
X101052381Y-82732856D02*
X101052381Y-82923333D01*
X101100000Y-83018571D01*
X101147619Y-83066190D01*
X101290476Y-83161428D01*
X101480952Y-83209047D01*
X101861905Y-83209047D01*
X101957143Y-83161428D01*
X102004762Y-83113809D01*
X102052381Y-83018571D01*
X102052381Y-82828094D01*
X102004762Y-82732856D01*
X101957143Y-82685237D01*
X101861905Y-82637618D01*
X101623810Y-82637618D01*
X101528571Y-82685237D01*
X101480952Y-82732856D01*
X101433333Y-82828094D01*
X101433333Y-83018571D01*
X101480952Y-83113809D01*
X101528571Y-83161428D01*
X101623810Y-83209047D01*
X170902381Y-121411905D02*
X171711905Y-121411905D01*
X171807143Y-121364286D01*
X171854762Y-121316667D01*
X171902381Y-121221429D01*
X171902381Y-121030952D01*
X171854762Y-120935714D01*
X171807143Y-120888095D01*
X171711905Y-120840476D01*
X170902381Y-120840476D01*
X170902381Y-120459524D02*
X170902381Y-119792857D01*
X171902381Y-120221429D01*
X169362381Y-130912857D02*
X168362381Y-130912857D01*
X168362381Y-130674762D01*
X168410000Y-130531904D01*
X168505238Y-130436666D01*
X168600476Y-130389047D01*
X168790952Y-130341428D01*
X168933810Y-130341428D01*
X169124286Y-130389047D01*
X169219524Y-130436666D01*
X169314762Y-130531904D01*
X169362381Y-130674762D01*
X169362381Y-130912857D01*
X169314762Y-129960476D02*
X169362381Y-129817619D01*
X169362381Y-129579523D01*
X169314762Y-129484285D01*
X169267143Y-129436666D01*
X169171905Y-129389047D01*
X169076667Y-129389047D01*
X168981429Y-129436666D01*
X168933810Y-129484285D01*
X168886190Y-129579523D01*
X168838571Y-129770000D01*
X168790952Y-129865238D01*
X168743333Y-129912857D01*
X168648095Y-129960476D01*
X168552857Y-129960476D01*
X168457619Y-129912857D01*
X168410000Y-129865238D01*
X168362381Y-129770000D01*
X168362381Y-129531904D01*
X168410000Y-129389047D01*
X169362381Y-128436666D02*
X169362381Y-129008095D01*
X169362381Y-128722381D02*
X168362381Y-128722381D01*
X168505238Y-128817619D01*
X168600476Y-128912857D01*
X168648095Y-129008095D01*
X168362381Y-128103333D02*
X168362381Y-127484285D01*
X168743333Y-127817619D01*
X168743333Y-127674761D01*
X168790952Y-127579523D01*
X168838571Y-127531904D01*
X168933810Y-127484285D01*
X169171905Y-127484285D01*
X169267143Y-127531904D01*
X169314762Y-127579523D01*
X169362381Y-127674761D01*
X169362381Y-127960476D01*
X169314762Y-128055714D01*
X169267143Y-128103333D01*
X168362381Y-126865238D02*
X168362381Y-126769999D01*
X168410000Y-126674761D01*
X168457619Y-126627142D01*
X168552857Y-126579523D01*
X168743333Y-126531904D01*
X168981429Y-126531904D01*
X169171905Y-126579523D01*
X169267143Y-126627142D01*
X169314762Y-126674761D01*
X169362381Y-126769999D01*
X169362381Y-126865238D01*
X169314762Y-126960476D01*
X169267143Y-127008095D01*
X169171905Y-127055714D01*
X168981429Y-127103333D01*
X168743333Y-127103333D01*
X168552857Y-127055714D01*
X168457619Y-127008095D01*
X168410000Y-126960476D01*
X168362381Y-126865238D01*
X168362381Y-125674761D02*
X168362381Y-125865238D01*
X168410000Y-125960476D01*
X168457619Y-126008095D01*
X168600476Y-126103333D01*
X168790952Y-126150952D01*
X169171905Y-126150952D01*
X169267143Y-126103333D01*
X169314762Y-126055714D01*
X169362381Y-125960476D01*
X169362381Y-125769999D01*
X169314762Y-125674761D01*
X169267143Y-125627142D01*
X169171905Y-125579523D01*
X168933810Y-125579523D01*
X168838571Y-125627142D01*
X168790952Y-125674761D01*
X168743333Y-125769999D01*
X168743333Y-125960476D01*
X168790952Y-126055714D01*
X168838571Y-126103333D01*
X168933810Y-126150952D01*
X128992381Y-78231905D02*
X129801905Y-78231905D01*
X129897143Y-78184286D01*
X129944762Y-78136667D01*
X129992381Y-78041429D01*
X129992381Y-77850952D01*
X129944762Y-77755714D01*
X129897143Y-77708095D01*
X129801905Y-77660476D01*
X128992381Y-77660476D01*
X129420952Y-77041429D02*
X129373333Y-77136667D01*
X129325714Y-77184286D01*
X129230476Y-77231905D01*
X129182857Y-77231905D01*
X129087619Y-77184286D01*
X129040000Y-77136667D01*
X128992381Y-77041429D01*
X128992381Y-76850952D01*
X129040000Y-76755714D01*
X129087619Y-76708095D01*
X129182857Y-76660476D01*
X129230476Y-76660476D01*
X129325714Y-76708095D01*
X129373333Y-76755714D01*
X129420952Y-76850952D01*
X129420952Y-77041429D01*
X129468571Y-77136667D01*
X129516190Y-77184286D01*
X129611429Y-77231905D01*
X129801905Y-77231905D01*
X129897143Y-77184286D01*
X129944762Y-77136667D01*
X129992381Y-77041429D01*
X129992381Y-76850952D01*
X129944762Y-76755714D01*
X129897143Y-76708095D01*
X129801905Y-76660476D01*
X129611429Y-76660476D01*
X129516190Y-76708095D01*
X129468571Y-76755714D01*
X129420952Y-76850952D01*
X127452381Y-87018571D02*
X127452381Y-87494762D01*
X126452381Y-87494762D01*
X126452381Y-86828095D02*
X126452381Y-86256666D01*
X127452381Y-86542381D02*
X126452381Y-86542381D01*
X126452381Y-86066190D02*
X127452381Y-85732857D01*
X126452381Y-85399523D01*
X126880952Y-84923333D02*
X126833333Y-85018571D01*
X126785714Y-85066190D01*
X126690476Y-85113809D01*
X126642857Y-85113809D01*
X126547619Y-85066190D01*
X126500000Y-85018571D01*
X126452381Y-84923333D01*
X126452381Y-84732856D01*
X126500000Y-84637618D01*
X126547619Y-84589999D01*
X126642857Y-84542380D01*
X126690476Y-84542380D01*
X126785714Y-84589999D01*
X126833333Y-84637618D01*
X126880952Y-84732856D01*
X126880952Y-84923333D01*
X126928571Y-85018571D01*
X126976190Y-85066190D01*
X127071429Y-85113809D01*
X127261905Y-85113809D01*
X127357143Y-85066190D01*
X127404762Y-85018571D01*
X127452381Y-84923333D01*
X127452381Y-84732856D01*
X127404762Y-84637618D01*
X127357143Y-84589999D01*
X127261905Y-84542380D01*
X127071429Y-84542380D01*
X126976190Y-84589999D01*
X126928571Y-84637618D01*
X126880952Y-84732856D01*
X126785714Y-83685237D02*
X127452381Y-83685237D01*
X126404762Y-83923333D02*
X127119048Y-84161428D01*
X127119048Y-83542380D01*
X126452381Y-82732856D02*
X126452381Y-82923333D01*
X126500000Y-83018571D01*
X126547619Y-83066190D01*
X126690476Y-83161428D01*
X126880952Y-83209047D01*
X127261905Y-83209047D01*
X127357143Y-83161428D01*
X127404762Y-83113809D01*
X127452381Y-83018571D01*
X127452381Y-82828094D01*
X127404762Y-82732856D01*
X127357143Y-82685237D01*
X127261905Y-82637618D01*
X127023810Y-82637618D01*
X126928571Y-82685237D01*
X126880952Y-82732856D01*
X126833333Y-82828094D01*
X126833333Y-83018571D01*
X126880952Y-83113809D01*
X126928571Y-83161428D01*
X127023810Y-83209047D01*
X158202381Y-125269524D02*
X159202381Y-124602857D01*
X158202381Y-124602857D02*
X159202381Y-125269524D01*
X159202381Y-123698095D02*
X159202381Y-124269524D01*
X159202381Y-123983810D02*
X158202381Y-123983810D01*
X158345238Y-124079048D01*
X158440476Y-124174286D01*
X158488095Y-124269524D01*
X155471905Y-72842381D02*
X155471905Y-71842381D01*
X155852858Y-71842381D01*
X155948096Y-71890000D01*
X155995715Y-71937619D01*
X156043334Y-72032857D01*
X156043334Y-72175714D01*
X155995715Y-72270952D01*
X155948096Y-72318571D01*
X155852858Y-72366190D01*
X155471905Y-72366190D01*
X156424286Y-71937619D02*
X156471905Y-71890000D01*
X156567143Y-71842381D01*
X156805239Y-71842381D01*
X156900477Y-71890000D01*
X156948096Y-71937619D01*
X156995715Y-72032857D01*
X156995715Y-72128095D01*
X156948096Y-72270952D01*
X156376667Y-72842381D01*
X156995715Y-72842381D01*
D15*
X86813571Y-49330429D02*
X86813571Y-47806429D01*
X87394143Y-47806429D01*
X87539285Y-47879000D01*
X87611857Y-47951571D01*
X87684428Y-48096714D01*
X87684428Y-48314429D01*
X87611857Y-48459571D01*
X87539285Y-48532143D01*
X87394143Y-48604714D01*
X86813571Y-48604714D01*
X88555285Y-49330429D02*
X88410143Y-49257857D01*
X88337571Y-49185286D01*
X88265000Y-49040143D01*
X88265000Y-48604714D01*
X88337571Y-48459571D01*
X88410143Y-48387000D01*
X88555285Y-48314429D01*
X88773000Y-48314429D01*
X88918143Y-48387000D01*
X88990714Y-48459571D01*
X89063285Y-48604714D01*
X89063285Y-49040143D01*
X88990714Y-49185286D01*
X88918143Y-49257857D01*
X88773000Y-49330429D01*
X88555285Y-49330429D01*
X89716428Y-49330429D02*
X89716428Y-48314429D01*
X89716428Y-48604714D02*
X89789000Y-48459571D01*
X89861571Y-48387000D01*
X90006714Y-48314429D01*
X90151857Y-48314429D01*
X90442143Y-48314429D02*
X91022714Y-48314429D01*
X90659857Y-47806429D02*
X90659857Y-49112714D01*
X90732429Y-49257857D01*
X90877571Y-49330429D01*
X91022714Y-49330429D01*
X92329000Y-49330429D02*
X91458143Y-49330429D01*
X91893571Y-49330429D02*
X91893571Y-47806429D01*
X91748428Y-48024143D01*
X91603286Y-48169286D01*
X91458143Y-48241857D01*
X87648143Y-56950429D02*
X87648143Y-55426429D01*
X88011000Y-55426429D01*
X88228715Y-55499000D01*
X88373857Y-55644143D01*
X88446429Y-55789286D01*
X88519000Y-56079571D01*
X88519000Y-56297286D01*
X88446429Y-56587571D01*
X88373857Y-56732714D01*
X88228715Y-56877857D01*
X88011000Y-56950429D01*
X87648143Y-56950429D01*
X89680143Y-56152143D02*
X89897857Y-56224714D01*
X89970429Y-56297286D01*
X90043000Y-56442429D01*
X90043000Y-56660143D01*
X89970429Y-56805286D01*
X89897857Y-56877857D01*
X89752715Y-56950429D01*
X89172143Y-56950429D01*
X89172143Y-55426429D01*
X89680143Y-55426429D01*
X89825286Y-55499000D01*
X89897857Y-55571571D01*
X89970429Y-55716714D01*
X89970429Y-55861857D01*
X89897857Y-56007000D01*
X89825286Y-56079571D01*
X89680143Y-56152143D01*
X89172143Y-56152143D01*
X90768715Y-56950429D02*
X91059000Y-56950429D01*
X91204143Y-56877857D01*
X91276715Y-56805286D01*
X91421857Y-56587571D01*
X91494429Y-56297286D01*
X91494429Y-55716714D01*
X91421857Y-55571571D01*
X91349286Y-55499000D01*
X91204143Y-55426429D01*
X90913857Y-55426429D01*
X90768715Y-55499000D01*
X90696143Y-55571571D01*
X90623572Y-55716714D01*
X90623572Y-56079571D01*
X90696143Y-56224714D01*
X90768715Y-56297286D01*
X90913857Y-56369857D01*
X91204143Y-56369857D01*
X91349286Y-56297286D01*
X91421857Y-56224714D01*
X91494429Y-56079571D01*
X119833571Y-49330429D02*
X119833571Y-47806429D01*
X120414143Y-47806429D01*
X120559285Y-47879000D01*
X120631857Y-47951571D01*
X120704428Y-48096714D01*
X120704428Y-48314429D01*
X120631857Y-48459571D01*
X120559285Y-48532143D01*
X120414143Y-48604714D01*
X119833571Y-48604714D01*
X121575285Y-49330429D02*
X121430143Y-49257857D01*
X121357571Y-49185286D01*
X121285000Y-49040143D01*
X121285000Y-48604714D01*
X121357571Y-48459571D01*
X121430143Y-48387000D01*
X121575285Y-48314429D01*
X121793000Y-48314429D01*
X121938143Y-48387000D01*
X122010714Y-48459571D01*
X122083285Y-48604714D01*
X122083285Y-49040143D01*
X122010714Y-49185286D01*
X121938143Y-49257857D01*
X121793000Y-49330429D01*
X121575285Y-49330429D01*
X122736428Y-49330429D02*
X122736428Y-48314429D01*
X122736428Y-48604714D02*
X122809000Y-48459571D01*
X122881571Y-48387000D01*
X123026714Y-48314429D01*
X123171857Y-48314429D01*
X123462143Y-48314429D02*
X124042714Y-48314429D01*
X123679857Y-47806429D02*
X123679857Y-49112714D01*
X123752429Y-49257857D01*
X123897571Y-49330429D01*
X124042714Y-49330429D01*
X124478143Y-47951571D02*
X124550714Y-47879000D01*
X124695857Y-47806429D01*
X125058714Y-47806429D01*
X125203857Y-47879000D01*
X125276428Y-47951571D01*
X125349000Y-48096714D01*
X125349000Y-48241857D01*
X125276428Y-48459571D01*
X124405571Y-49330429D01*
X125349000Y-49330429D01*
X120668143Y-56950429D02*
X120668143Y-55426429D01*
X121031000Y-55426429D01*
X121248715Y-55499000D01*
X121393857Y-55644143D01*
X121466429Y-55789286D01*
X121539000Y-56079571D01*
X121539000Y-56297286D01*
X121466429Y-56587571D01*
X121393857Y-56732714D01*
X121248715Y-56877857D01*
X121031000Y-56950429D01*
X120668143Y-56950429D01*
X122700143Y-56152143D02*
X122917857Y-56224714D01*
X122990429Y-56297286D01*
X123063000Y-56442429D01*
X123063000Y-56660143D01*
X122990429Y-56805286D01*
X122917857Y-56877857D01*
X122772715Y-56950429D01*
X122192143Y-56950429D01*
X122192143Y-55426429D01*
X122700143Y-55426429D01*
X122845286Y-55499000D01*
X122917857Y-55571571D01*
X122990429Y-55716714D01*
X122990429Y-55861857D01*
X122917857Y-56007000D01*
X122845286Y-56079571D01*
X122700143Y-56152143D01*
X122192143Y-56152143D01*
X123788715Y-56950429D02*
X124079000Y-56950429D01*
X124224143Y-56877857D01*
X124296715Y-56805286D01*
X124441857Y-56587571D01*
X124514429Y-56297286D01*
X124514429Y-55716714D01*
X124441857Y-55571571D01*
X124369286Y-55499000D01*
X124224143Y-55426429D01*
X123933857Y-55426429D01*
X123788715Y-55499000D01*
X123716143Y-55571571D01*
X123643572Y-55716714D01*
X123643572Y-56079571D01*
X123716143Y-56224714D01*
X123788715Y-56297286D01*
X123933857Y-56369857D01*
X124224143Y-56369857D01*
X124369286Y-56297286D01*
X124441857Y-56224714D01*
X124514429Y-56079571D01*
X64370857Y-124242286D02*
X64443429Y-124024572D01*
X64443429Y-123661715D01*
X64370857Y-123516572D01*
X64298286Y-123444001D01*
X64153143Y-123371429D01*
X64008000Y-123371429D01*
X63862857Y-123444001D01*
X63790286Y-123516572D01*
X63717714Y-123661715D01*
X63645143Y-123952001D01*
X63572571Y-124097143D01*
X63500000Y-124169715D01*
X63354857Y-124242286D01*
X63209714Y-124242286D01*
X63064571Y-124169715D01*
X62992000Y-124097143D01*
X62919429Y-123952001D01*
X62919429Y-123589143D01*
X62992000Y-123371429D01*
X64443429Y-122718286D02*
X62919429Y-122718286D01*
X62919429Y-122355429D01*
X62992000Y-122137714D01*
X63137143Y-121992572D01*
X63282286Y-121920000D01*
X63572571Y-121847429D01*
X63790286Y-121847429D01*
X64080571Y-121920000D01*
X64225714Y-121992572D01*
X64370857Y-122137714D01*
X64443429Y-122355429D01*
X64443429Y-122718286D01*
X64298286Y-120323429D02*
X64370857Y-120396000D01*
X64443429Y-120613714D01*
X64443429Y-120758857D01*
X64370857Y-120976572D01*
X64225714Y-121121714D01*
X64080571Y-121194286D01*
X63790286Y-121266857D01*
X63572571Y-121266857D01*
X63282286Y-121194286D01*
X63137143Y-121121714D01*
X62992000Y-120976572D01*
X62919429Y-120758857D01*
X62919429Y-120613714D01*
X62992000Y-120396000D01*
X63064571Y-120323429D01*
X64008000Y-119742857D02*
X64008000Y-119017143D01*
X64443429Y-119888000D02*
X62919429Y-119380000D01*
X64443429Y-118872000D01*
X64443429Y-117493143D02*
X63717714Y-118001143D01*
X64443429Y-118364000D02*
X62919429Y-118364000D01*
X62919429Y-117783428D01*
X62992000Y-117638286D01*
X63064571Y-117565714D01*
X63209714Y-117493143D01*
X63427429Y-117493143D01*
X63572571Y-117565714D01*
X63645143Y-117638286D01*
X63717714Y-117783428D01*
X63717714Y-118364000D01*
X64443429Y-116840000D02*
X62919429Y-116840000D01*
X62919429Y-116477143D01*
X62992000Y-116259428D01*
X63137143Y-116114286D01*
X63282286Y-116041714D01*
X63572571Y-115969143D01*
X63790286Y-115969143D01*
X64080571Y-116041714D01*
X64225714Y-116114286D01*
X64370857Y-116259428D01*
X64443429Y-116477143D01*
X64443429Y-116840000D01*
X64443429Y-114517714D02*
X64443429Y-115388571D01*
X64443429Y-114953143D02*
X62919429Y-114953143D01*
X63137143Y-115098286D01*
X63282286Y-115243428D01*
X63354857Y-115388571D01*
X100946857Y-124151571D02*
X101019429Y-123933857D01*
X101019429Y-123571000D01*
X100946857Y-123425857D01*
X100874286Y-123353286D01*
X100729143Y-123280714D01*
X100584000Y-123280714D01*
X100438857Y-123353286D01*
X100366286Y-123425857D01*
X100293714Y-123571000D01*
X100221143Y-123861286D01*
X100148571Y-124006428D01*
X100076000Y-124079000D01*
X99930857Y-124151571D01*
X99785714Y-124151571D01*
X99640571Y-124079000D01*
X99568000Y-124006428D01*
X99495429Y-123861286D01*
X99495429Y-123498428D01*
X99568000Y-123280714D01*
X101019429Y-122627571D02*
X99495429Y-122627571D01*
X99495429Y-122264714D01*
X99568000Y-122046999D01*
X99713143Y-121901857D01*
X99858286Y-121829285D01*
X100148571Y-121756714D01*
X100366286Y-121756714D01*
X100656571Y-121829285D01*
X100801714Y-121901857D01*
X100946857Y-122046999D01*
X101019429Y-122264714D01*
X101019429Y-122627571D01*
X101164571Y-121466428D02*
X101164571Y-120305285D01*
X100874286Y-119071571D02*
X100946857Y-119144142D01*
X101019429Y-119361856D01*
X101019429Y-119506999D01*
X100946857Y-119724714D01*
X100801714Y-119869856D01*
X100656571Y-119942428D01*
X100366286Y-120014999D01*
X100148571Y-120014999D01*
X99858286Y-119942428D01*
X99713143Y-119869856D01*
X99568000Y-119724714D01*
X99495429Y-119506999D01*
X99495429Y-119361856D01*
X99568000Y-119144142D01*
X99640571Y-119071571D01*
X101019429Y-117765285D02*
X100221143Y-117765285D01*
X100076000Y-117837856D01*
X100003429Y-117982999D01*
X100003429Y-118273285D01*
X100076000Y-118418428D01*
X100946857Y-117765285D02*
X101019429Y-117910428D01*
X101019429Y-118273285D01*
X100946857Y-118418428D01*
X100801714Y-118490999D01*
X100656571Y-118490999D01*
X100511429Y-118418428D01*
X100438857Y-118273285D01*
X100438857Y-117910428D01*
X100366286Y-117765285D01*
X101019429Y-117039571D02*
X100003429Y-117039571D01*
X100293714Y-117039571D02*
X100148571Y-116966999D01*
X100076000Y-116894428D01*
X100003429Y-116749285D01*
X100003429Y-116604142D01*
X101019429Y-115442999D02*
X99495429Y-115442999D01*
X100946857Y-115442999D02*
X101019429Y-115588142D01*
X101019429Y-115878428D01*
X100946857Y-116023570D01*
X100874286Y-116096142D01*
X100729143Y-116168713D01*
X100293714Y-116168713D01*
X100148571Y-116096142D01*
X100076000Y-116023570D01*
X100003429Y-115878428D01*
X100003429Y-115588142D01*
X100076000Y-115442999D01*
M02*
