M48
;DRILL file {KiCad 4.0.2+dfsg1-stable} date Sat 18 Nov 2017 01:57:10 PM CET
;FORMAT={-:-/ absolute / metric / decimal}
FMAT,2
METRIC,TZ
T1C0.599
T2C0.600
T3C0.635
T4C0.700
T5C0.800
T6C0.800
T7C0.813
T8C0.899
T9C1.001
T10C1.016
T11C2.299
T12C3.000
T13C3.048
%
G90
G05
M71
T1
X113.551Y-118.11
X115.049Y-118.11
T2
X72.39Y-60.96
X72.39Y-62.23
X72.39Y-63.5
T3
X72.263Y-99.06
X79.629Y-93.218
X84.392Y-77.89
X86.741Y-79.819
X89.765Y-73.715
X95.186Y-75.12
X95.25Y-84.907
X96.52Y-73.66
X97.838Y-80.184
X99.06Y-91.44
X100.33Y-80.899
X101.561Y-99.06
X102.824Y-80.083
X104.09Y-106.133
X106.172Y-106.553
X107.351Y-79.565
X108.765Y-79.714
X109.332Y-92.646
X110.363Y-80.899
X110.363Y-91.948
X113.03Y-82.55
X115.57Y-80.01
X115.57Y-99.949
X116.84Y-99.123
X118.066Y-92.805
X118.11Y-110.688
X120.015Y-84.836
X120.573Y-105.227
X120.69Y-92.07
X121.031Y-89.027
X121.92Y-99.949
X122.428Y-91.821
X122.999Y-75.12
X123.571Y-99.314
X123.706Y-74.222
X124.46Y-105.41
X124.65Y-72.898
X125.666Y-71.945
X127.375Y-66.162
X127.826Y-85.378
X128.27Y-67.31
X128.728Y-103.071
X129.095Y-65.342
X129.477Y-85.36
X130.048Y-63.754
X130.81Y-88.392
X130.838Y-86.388
X131.165Y-71.12
X131.553Y-75.059
X131.953Y-66.167
X133.107Y-69.483
X133.35Y-105.41
X134.421Y-69.133
X134.62Y-101.656
X134.799Y-93.512
X135.636Y-85.789
X135.826Y-74.168
X136.081Y-66.111
X137.183Y-76.962
X137.378Y-85.789
X138.43Y-87.305
X139.368Y-79.248
X140.207Y-67.119
X140.273Y-86.694
X140.97Y-72.891
X140.97Y-85.789
X142.351Y-65.612
X143.51Y-98.933
X143.51Y-75.565
X143.51Y-92.71
X144.757Y-88.964
X144.78Y-91.821
X146.431Y-105.537
X146.648Y-71.233
X146.766Y-78.423
X146.939Y-88.014
X146.939Y-99.822
X147.828Y-110.49
X148.082Y-99.822
X149.225Y-99.822
X150.622Y-109.855
X150.82Y-82.24
X150.876Y-57.658
X151.638Y-58.547
X152.244Y-97.55
X152.486Y-69.406
X152.781Y-56.769
X153.531Y-89.523
X153.655Y-111.642
X153.67Y-113.03
X153.944Y-76.517
X154.689Y-68.707
X154.94Y-93.345
X155.829Y-88.519
X156.591Y-84.201
X157.48Y-85.471
X158.369Y-72.644
X159.607Y-74.803
X160.274Y-90.17
X161.29Y-86.297
X161.29Y-97.607
X162.154Y-68.707
X163.274Y-76.518
X163.83Y-92.71
X163.845Y-66.998
X164.24Y-73.279
X165.1Y-91.44
X165.1Y-102.235
X165.1Y-105.41
X165.1Y-77.089
X166.37Y-113.284
X166.37Y-72.39
X167.64Y-103.124
X167.651Y-75.502
X168.91Y-103.632
X170.18Y-103.632
X171.45Y-87.694
X172.362Y-97.49
X173.99Y-85.471
X175.387Y-104.076
X176.53Y-83.503
X177.8Y-105.41
X180.34Y-105.664
X181.49Y-67.641
X182.88Y-105.981
X184.15Y-68.644
X184.242Y-101.79
X185.42Y-105.981
X186.726Y-102.301
X187.134Y-110.91
X187.948Y-116.828
X189.23Y-68.136
X189.23Y-102.616
X190.373Y-56.325
X190.5Y-112.268
X191.77Y-68.199
X191.77Y-97.155
X191.77Y-113.03
X191.897Y-102.235
X193.04Y-58.293
X193.04Y-105.41
X193.04Y-114.046
X194.31Y-68.961
X194.31Y-102.743
X195.58Y-58.42
X195.58Y-118.11
X195.818Y-105.764
X196.723Y-102.616
X196.85Y-69.85
X198.12Y-66.548
X199.39Y-103.124
X199.39Y-92.583
X201.93Y-91.758
X201.93Y-102.87
X201.93Y-50.8
X210.756Y-68.072
X211.901Y-99.361
X212.09Y-111.76
X213.36Y-66.04
X213.36Y-93.345
X213.36Y-106.934
X213.36Y-102.362
X213.741Y-81.788
X213.741Y-110.109
T4
X182.753Y-120.65
X182.753Y-123.15
X205.74Y-113.07
X205.74Y-115.57
T5
X67.31Y-60.873
X67.31Y-63.373
X71.12Y-58.42
X88.9Y-82.55
X90.17Y-77.47
X92.71Y-82.55
X92.71Y-90.17
X92.71Y-95.25
X92.71Y-102.87
X95.25Y-82.55
X95.25Y-90.17
X95.25Y-95.25
X95.25Y-102.87
X97.79Y-82.55
X97.79Y-90.17
X97.79Y-95.25
X97.79Y-102.87
X100.33Y-82.55
X100.33Y-90.17
X100.33Y-95.25
X100.33Y-102.87
X102.87Y-82.55
X102.87Y-90.17
X102.87Y-95.25
X102.87Y-102.87
X104.14Y-107.99
X105.41Y-82.55
X105.41Y-90.17
X105.41Y-95.25
X105.41Y-99.06
X105.41Y-102.87
X107.95Y-82.55
X107.95Y-90.17
X107.95Y-95.25
X107.95Y-102.87
X107.95Y-107.95
X107.95Y-115.57
X110.49Y-95.25
X110.49Y-102.87
X110.49Y-107.95
X110.49Y-115.57
X113.03Y-95.25
X113.03Y-102.87
X113.03Y-107.95
X113.03Y-115.57
X115.57Y-95.25
X115.57Y-102.87
X115.57Y-107.95
X115.57Y-115.57
X118.11Y-95.25
X118.11Y-102.87
X118.11Y-107.95
X118.11Y-115.57
X120.65Y-95.25
X120.65Y-102.87
X120.65Y-107.95
X120.65Y-115.57
X121.92Y-82.463
X123.19Y-95.25
X123.19Y-102.87
X123.19Y-107.95
X123.19Y-115.57
X125.73Y-82.55
X125.73Y-90.17
X125.73Y-95.25
X125.73Y-102.87
X125.73Y-107.95
X125.73Y-115.57
X125.73Y-121.96
X125.73Y-124.46
X128.27Y-82.55
X128.27Y-90.17
X129.54Y-95.25
X129.54Y-107.95
X130.81Y-82.55
X130.81Y-90.17
X130.81Y-121.92
X130.81Y-129.54
X130.81Y-134.62
X130.81Y-139.7
X133.31Y-134.62
X133.31Y-139.7
X133.35Y-82.55
X133.35Y-90.17
X133.35Y-95.25
X133.35Y-102.87
X133.35Y-107.95
X133.35Y-115.57
X133.35Y-121.92
X133.35Y-129.54
X135.89Y-82.55
X135.89Y-90.17
X135.89Y-95.25
X135.89Y-102.87
X135.89Y-107.95
X135.89Y-115.57
X135.89Y-121.92
X135.89Y-129.54
X135.89Y-134.62
X135.89Y-139.7
X138.39Y-134.62
X138.39Y-139.7
X138.43Y-82.55
X138.43Y-90.17
X138.43Y-95.25
X138.43Y-102.87
X138.43Y-107.95
X138.43Y-115.57
X138.43Y-121.92
X138.43Y-129.54
X140.97Y-82.55
X140.97Y-90.17
X140.97Y-95.25
X140.97Y-102.87
X140.97Y-107.95
X140.97Y-115.57
X140.97Y-121.92
X140.97Y-129.54
X143.51Y-82.55
X143.51Y-90.17
X143.51Y-95.25
X143.51Y-102.87
X143.51Y-107.95
X143.51Y-115.57
X143.51Y-121.92
X143.51Y-129.54
X146.05Y-82.55
X146.05Y-90.17
X146.05Y-95.25
X146.05Y-102.87
X146.05Y-107.95
X146.05Y-115.57
X146.05Y-121.92
X146.05Y-129.54
X148.59Y-82.55
X148.59Y-90.17
X148.59Y-95.25
X148.59Y-102.87
X148.59Y-107.95
X148.59Y-115.57
X148.59Y-121.92
X148.59Y-129.54
X151.09Y-80.01
X153.67Y-80.01
X153.67Y-95.25
X153.67Y-100.33
X153.67Y-115.57
X156.21Y-80.01
X156.21Y-95.25
X156.21Y-100.33
X156.21Y-115.57
X158.75Y-80.01
X158.75Y-95.25
X158.75Y-100.33
X158.75Y-115.57
X161.29Y-80.01
X161.29Y-95.25
X161.29Y-100.33
X161.29Y-115.57
X163.83Y-80.01
X163.83Y-95.25
X163.83Y-100.33
X163.83Y-115.57
X166.37Y-80.01
X166.37Y-95.25
X166.37Y-100.33
X166.37Y-115.57
X168.91Y-80.01
X168.91Y-95.25
X168.91Y-100.33
X168.91Y-115.57
X171.45Y-80.01
X171.45Y-95.25
X171.45Y-100.33
X171.45Y-115.57
X173.99Y-80.01
X173.99Y-95.25
X173.99Y-100.33
X173.99Y-115.57
X176.53Y-80.01
X176.53Y-95.25
X176.53Y-100.33
X176.53Y-115.57
X179.07Y-80.01
X179.07Y-95.25
X179.07Y-100.33
X179.07Y-115.57
X181.61Y-80.01
X181.61Y-95.25
X181.61Y-100.33
X181.61Y-115.57
X184.15Y-80.01
X184.15Y-95.25
X184.15Y-100.33
X184.15Y-115.57
X186.69Y-80.01
X186.69Y-95.25
X186.69Y-100.33
X186.69Y-115.57
X186.69Y-120.65
X186.69Y-128.27
X189.23Y-80.01
X189.23Y-95.25
X189.23Y-100.33
X189.23Y-115.57
X189.23Y-120.65
X189.23Y-128.27
X191.77Y-80.01
X191.77Y-95.25
X191.77Y-100.33
X191.77Y-115.57
X191.77Y-120.65
X191.77Y-128.27
X194.31Y-80.01
X194.31Y-95.25
X194.31Y-100.33
X194.31Y-115.57
X194.31Y-120.65
X194.31Y-128.27
X196.85Y-80.01
X196.85Y-95.25
X196.85Y-100.33
X196.85Y-115.57
X196.85Y-120.65
X196.85Y-128.27
X199.39Y-80.01
X199.39Y-95.25
X199.39Y-100.33
X199.39Y-115.57
X199.39Y-120.65
X199.39Y-128.27
X201.93Y-80.01
X201.93Y-95.25
X201.93Y-100.33
X201.93Y-115.57
X201.93Y-120.65
X201.93Y-128.27
T6
X73.62Y-58.42
X87.67Y-77.47
X88.9Y-85.05
X102.91Y-99.06
X104.14Y-110.49
X121.92Y-84.963
X129.54Y-97.75
X129.54Y-110.45
X148.59Y-80.01
T7
X147.32Y-64.77
X149.86Y-64.77
X152.4Y-64.77
X154.94Y-64.77
X157.48Y-64.77
X160.02Y-64.77
X162.56Y-64.77
X165.1Y-64.77
X167.64Y-64.77
T8
X71.12Y-90.609
X71.12Y-92.71
X71.12Y-95.306
X71.12Y-97.406
X73.569Y-97.406
X73.619Y-90.609
T9
X68.58Y-66.04
X68.58Y-73.66
X71.12Y-66.04
X71.12Y-73.66
X73.66Y-66.04
X73.66Y-73.66
X92.71Y-77.47
X100.33Y-77.47
X104.14Y-77.47
X106.68Y-66.04
X106.68Y-73.66
X109.22Y-66.04
X109.22Y-73.66
X111.76Y-77.47
X116.84Y-82.55
X116.84Y-90.17
X119.38Y-82.55
X119.38Y-90.17
X119.38Y-130.81
X127.Y-130.81
X137.16Y-62.23
X137.16Y-69.85
X140.97Y-62.23
X140.97Y-69.85
X161.29Y-121.92
X161.29Y-129.54
X176.53Y-121.92
X176.53Y-129.54
X181.61Y-64.77
X181.61Y-72.39
X184.15Y-64.77
X184.15Y-72.39
X186.69Y-64.77
X186.69Y-72.39
X186.69Y-132.08
X189.23Y-64.77
X189.23Y-72.39
X191.77Y-64.77
X191.77Y-72.39
X194.31Y-64.77
X194.31Y-72.39
X194.31Y-132.08
X196.85Y-64.77
X196.85Y-72.39
X199.39Y-64.77
X199.39Y-72.39
T10
X72.39Y-78.74
X72.39Y-81.28
X72.39Y-83.82
X74.93Y-78.74
X74.93Y-81.28
X74.93Y-83.82
X76.2Y-113.919
X76.2Y-116.713
X76.2Y-119.38
X76.2Y-122.174
X78.74Y-112.522
X78.74Y-115.316
X78.74Y-118.11
X78.74Y-120.777
X78.74Y-123.571
X83.82Y-105.41
X86.36Y-105.41
X88.9Y-105.41
X98.044Y-111.76
X98.044Y-134.62
X110.49Y-55.88
X110.49Y-58.42
X113.03Y-55.88
X113.03Y-58.42
X115.57Y-55.88
X115.57Y-58.42
X123.19Y-55.88
X123.19Y-58.42
X125.73Y-55.88
X125.73Y-58.42
X128.27Y-55.88
X128.27Y-58.42
X130.81Y-55.88
X130.81Y-58.42
X133.35Y-55.88
X133.35Y-58.42
X135.89Y-55.88
X135.89Y-58.42
X138.43Y-55.88
X138.43Y-58.42
X140.97Y-55.88
X140.97Y-58.42
X154.559Y-62.23
X155.956Y-59.69
X157.353Y-62.23
X158.75Y-59.69
X160.02Y-62.23
X161.417Y-59.69
X162.814Y-62.23
X164.211Y-59.69
X165.608Y-62.23
X187.579Y-62.23
X188.976Y-59.69
X190.373Y-62.23
X191.77Y-59.69
X193.04Y-62.23
X194.437Y-59.69
X195.834Y-62.23
X197.231Y-59.69
X198.628Y-62.23
X215.265Y-65.405
X215.265Y-67.945
X215.265Y-70.485
X215.265Y-73.025
X215.265Y-75.565
X215.265Y-78.105
X215.265Y-80.645
X215.265Y-83.185
X215.265Y-85.725
X215.265Y-88.265
X215.265Y-90.805
X215.265Y-93.345
X215.265Y-95.885
X215.265Y-98.425
X215.265Y-100.965
X215.265Y-103.505
X215.265Y-106.045
X215.265Y-108.585
X215.265Y-111.125
X215.265Y-113.665
X215.265Y-116.205
X215.265Y-118.745
X215.265Y-121.285
X215.265Y-123.825
X215.265Y-126.365
X217.805Y-65.405
X217.805Y-67.945
X217.805Y-70.485
X217.805Y-73.025
X217.805Y-75.565
X217.805Y-78.105
X217.805Y-80.645
X217.805Y-83.185
X217.805Y-85.725
X217.805Y-88.265
X217.805Y-90.805
X217.805Y-93.345
X217.805Y-95.885
X217.805Y-98.425
X217.805Y-100.965
X217.805Y-103.505
X217.805Y-106.045
X217.805Y-108.585
X217.805Y-111.125
X217.805Y-113.665
X217.805Y-116.205
X217.805Y-118.745
X217.805Y-121.285
X217.805Y-123.825
X217.805Y-126.365
T11
X67.323Y-94.008
X68.12Y-87.208
X68.12Y-100.757
T12
X68.58Y-52.832
X68.58Y-138.938
X215.646Y-52.578
X215.646Y-138.938
T13
X76.2Y-105.283
X76.2Y-130.683
X147.447Y-59.69
X172.847Y-59.69
X180.467Y-59.69
X205.867Y-59.69
T0
M30
