M48
;DRILL file {kicad (2014-12-04 BZR 5312)-product} date Wed 04 Feb 2015 12:38:25 PM CET
;FORMAT={-:-/ absolute / metric / decimal}
FMAT,2
METRIC,TZ
T1C0.599
T2C0.635
T3C0.800
T4C0.813
T5C0.899
T6C1.016
T7C1.300
T8C1.801
T9C2.299
T10C3.000
T11C3.200
%
G90
G05
M71
T1
X162.56Y-123.711
X162.56Y-125.209
T2
X80.264Y-77.978
X80.264Y-86.487
X83.947Y-70.612
X86.741Y-69.723
X89.535Y-68.897
X90.932Y-59.372
X92.329Y-68.072
X93.726Y-58.483
X94.615Y-114.046
X95.123Y-67.246
X102.108Y-86.487
X116.967Y-70.612
X119.761Y-69.914
X122.555Y-68.961
X125.349Y-68.072
X127.889Y-141.097
X128.143Y-67.31
X134.239Y-91.186
X134.43Y-122.546
X135.382Y-82.169
X142.113Y-78.74
X146.304Y-115.57
X146.304Y-136.906
X148.59Y-141.224
X149.479Y-133.35
X149.987Y-111.252
X150.876Y-133.477
X151.13Y-101.981
X152.019Y-105.156
X164.465Y-89.281
X171.196Y-133.35
X172.72Y-111.125
X195.707Y-53.912
X208.28Y-78.232
X212.725Y-68.771
X213.874Y-69.091
T3
X67.945Y-96.901
X67.945Y-99.441
X208.28Y-121.92
X208.28Y-125.73
T4
X73.025Y-94.361
X73.025Y-96.901
X73.025Y-99.441
X78.105Y-94.361
X78.105Y-96.901
X80.645Y-94.361
X80.645Y-101.981
X83.185Y-94.361
X83.185Y-101.981
X85.725Y-94.361
X85.725Y-101.981
X88.265Y-94.361
X88.265Y-101.981
X90.805Y-94.361
X90.805Y-101.981
X94.615Y-119.126
X94.615Y-121.666
X96.52Y-132.08
X96.52Y-134.62
X99.06Y-74.93
X99.06Y-77.47
X99.06Y-80.01
X99.06Y-82.55
X99.06Y-85.09
X99.06Y-87.63
X99.06Y-90.17
X99.06Y-92.71
X101.6Y-132.08
X101.6Y-139.7
X104.14Y-132.08
X104.14Y-139.7
X106.68Y-74.93
X106.68Y-77.47
X106.68Y-80.01
X106.68Y-82.55
X106.68Y-85.09
X106.68Y-87.63
X106.68Y-90.17
X106.68Y-92.71
X106.68Y-132.08
X106.68Y-139.7
X109.22Y-132.08
X109.22Y-139.7
X111.76Y-74.93
X111.76Y-77.47
X111.76Y-80.01
X111.76Y-82.55
X111.76Y-132.08
X111.76Y-139.7
X114.3Y-132.08
X114.3Y-139.7
X116.84Y-132.08
X116.84Y-139.7
X119.38Y-74.93
X119.38Y-77.47
X119.38Y-80.01
X119.38Y-82.55
X121.92Y-118.11
X121.92Y-120.65
X124.46Y-74.93
X124.46Y-77.47
X124.46Y-80.01
X124.46Y-82.55
X124.46Y-85.09
X124.46Y-87.63
X124.46Y-90.17
X124.46Y-92.71
X124.46Y-102.87
X124.46Y-105.41
X124.46Y-107.95
X124.46Y-110.49
X124.46Y-113.03
X124.46Y-115.57
X124.46Y-118.11
X124.46Y-120.65
X124.46Y-123.19
X124.46Y-125.73
X124.46Y-128.27
X124.46Y-130.81
X124.46Y-133.35
X124.46Y-135.89
X132.08Y-74.93
X132.08Y-77.47
X132.08Y-80.01
X132.08Y-82.55
X132.08Y-85.09
X132.08Y-87.63
X132.08Y-90.17
X132.08Y-92.71
X132.08Y-102.87
X132.08Y-105.41
X132.08Y-107.95
X132.08Y-110.49
X132.08Y-113.03
X132.08Y-115.57
X132.08Y-118.11
X132.08Y-120.65
X132.08Y-123.19
X132.08Y-125.73
X132.08Y-128.27
X132.08Y-130.81
X132.08Y-133.35
X132.08Y-135.89
X138.43Y-77.47
X138.43Y-80.01
X138.43Y-82.55
X138.43Y-85.09
X138.43Y-87.63
X138.43Y-90.17
X138.43Y-92.71
X143.51Y-72.39
X144.78Y-53.34
X144.78Y-68.58
X146.05Y-72.39
X146.05Y-77.47
X146.05Y-80.01
X146.05Y-82.55
X146.05Y-85.09
X146.05Y-87.63
X146.05Y-90.17
X146.05Y-92.71
X147.32Y-53.34
X147.32Y-68.58
X149.86Y-53.34
X149.86Y-68.58
X149.86Y-81.28
X149.86Y-88.9
X152.4Y-53.34
X152.4Y-68.58
X152.4Y-81.28
X152.4Y-88.9
X154.94Y-53.34
X154.94Y-68.58
X154.94Y-81.28
X154.94Y-88.9
X157.48Y-53.34
X157.48Y-68.58
X157.48Y-81.28
X157.48Y-88.9
X160.02Y-53.34
X160.02Y-68.58
X160.02Y-81.28
X160.02Y-88.9
X162.56Y-53.34
X162.56Y-68.58
X162.56Y-81.28
X162.56Y-88.9
X165.1Y-53.34
X165.1Y-68.58
X166.37Y-92.71
X166.37Y-95.25
X166.37Y-97.79
X166.37Y-100.33
X166.37Y-102.87
X166.37Y-105.41
X166.37Y-107.95
X166.37Y-118.11
X166.37Y-120.65
X166.37Y-123.19
X166.37Y-125.73
X166.37Y-128.27
X166.37Y-130.81
X166.37Y-133.35
X166.37Y-135.89
X167.64Y-53.34
X167.64Y-68.58
X170.18Y-53.34
X170.18Y-68.58
X171.45Y-87.63
X171.45Y-113.03
X172.72Y-53.34
X172.72Y-68.58
X173.99Y-87.63
X173.99Y-92.71
X173.99Y-95.25
X173.99Y-97.79
X173.99Y-100.33
X173.99Y-102.87
X173.99Y-105.41
X173.99Y-107.95
X173.99Y-113.03
X173.99Y-118.11
X173.99Y-120.65
X173.99Y-123.19
X173.99Y-125.73
X173.99Y-128.27
X173.99Y-130.81
X173.99Y-133.35
X173.99Y-135.89
X175.26Y-53.34
X175.26Y-68.58
X177.8Y-53.34
X177.8Y-68.58
X180.34Y-53.34
X180.34Y-68.58
X182.88Y-53.34
X182.88Y-68.58
X185.42Y-53.34
X185.42Y-64.77
X185.42Y-68.58
X187.96Y-53.34
X187.96Y-64.77
X187.96Y-68.58
X190.5Y-53.34
X190.5Y-68.58
X193.04Y-53.34
X193.04Y-68.58
T5
X74.869Y-77.881
X74.869Y-79.982
X74.869Y-82.578
X74.869Y-84.679
X77.318Y-84.679
X77.368Y-77.881
X83.995Y-64.643
X85.38Y-62.103
X86.764Y-64.643
X88.151Y-62.103
X89.535Y-64.643
X90.919Y-62.103
X92.306Y-64.643
X93.69Y-62.103
X95.075Y-64.643
X117.015Y-64.643
X118.4Y-62.103
X119.784Y-64.643
X121.171Y-62.103
X122.555Y-64.643
X123.939Y-62.103
X125.326Y-64.643
X126.71Y-62.103
X128.095Y-64.643
T6
X143.51Y-102.87
X143.51Y-105.41
X146.05Y-102.87
X146.05Y-105.41
X148.59Y-102.87
X148.59Y-105.41
X149.86Y-74.93
X149.86Y-77.47
X152.4Y-74.93
X152.4Y-77.47
X154.94Y-74.93
X154.94Y-77.47
X157.48Y-74.93
X157.48Y-77.47
X160.02Y-74.93
X160.02Y-77.47
X162.56Y-74.93
X162.56Y-77.47
X182.88Y-81.28
X182.88Y-83.82
X182.88Y-92.71
X182.88Y-95.25
X182.88Y-104.14
X182.88Y-106.68
X185.42Y-81.28
X185.42Y-83.82
X185.42Y-92.71
X185.42Y-95.25
X185.42Y-104.14
X185.42Y-106.68
X187.96Y-81.28
X187.96Y-83.82
X187.96Y-92.71
X187.96Y-95.25
X187.96Y-104.14
X187.96Y-106.68
X191.77Y-116.84
X191.77Y-139.7
X215.265Y-65.405
X215.265Y-67.945
X215.265Y-70.485
X215.265Y-73.025
X215.265Y-75.565
X215.265Y-78.105
X215.265Y-80.645
X215.265Y-83.185
X215.265Y-85.725
X215.265Y-88.265
X215.265Y-90.805
X215.265Y-93.345
X215.265Y-95.885
X215.265Y-98.425
X215.265Y-100.965
X215.265Y-103.505
X215.265Y-106.045
X215.265Y-108.585
X215.265Y-111.125
X215.265Y-113.665
X215.265Y-116.205
X215.265Y-118.745
X215.265Y-121.285
X215.265Y-123.825
X215.265Y-126.365
X217.805Y-65.405
X217.805Y-67.945
X217.805Y-70.485
X217.805Y-73.025
X217.805Y-75.565
X217.805Y-78.105
X217.805Y-80.645
X217.805Y-83.185
X217.805Y-85.725
X217.805Y-88.265
X217.805Y-90.805
X217.805Y-93.345
X217.805Y-95.885
X217.805Y-98.425
X217.805Y-100.965
X217.805Y-103.505
X217.805Y-106.045
X217.805Y-108.585
X217.805Y-111.125
X217.805Y-113.665
X217.805Y-116.205
X217.805Y-118.745
X217.805Y-121.285
X217.805Y-123.825
X217.805Y-126.365
T7
X68.28Y-131.862
T8
X68.28Y-107.66
T9
X71.072Y-81.28
X71.869Y-74.48
X71.869Y-88.029
T10
X68.58Y-52.832
X68.58Y-138.938
X215.646Y-52.578
X215.646Y-138.938
T11
X77.041Y-63.373
X102.029Y-63.373
X110.061Y-63.373
X135.049Y-63.373
T0
M30
